<?xml version="1.0" encoding="UTF-8"?>
<!DOCTYPE svg  PUBLIC '-//W3C//DTD SVG 1.1//EN'  'http://www.w3.org/Graphics/SVG/1.1/DTD/svg11.dtd'>
<svg width="861.33pt" height="453.33pt" version="1.1" viewBox="0 0 861.33 453.33" xmlns="http://www.w3.org/2000/svg" xmlns:xlink="http://www.w3.org/1999/xlink">
<defs>
<style type="text/css">*{stroke-linecap:butt;stroke-linejoin:round;}</style>
</defs>
<path d="m0 453.33h861.33v-453.33h-861.33z" fill="#fff"/>
<g fill="none" stroke="#000">
<path d="m496.75 21.518-137.64 71.865" clip-path="url(#a)"/>
<path d="m496.75 21.518 137.64 210.47" clip-path="url(#a)"/>
<path d="m359.11 93.383-124.02 272.13" clip-path="url(#a)"/>
<path d="m359.11 93.383-270.71 205.83" clip-path="url(#a)"/>
<path d="m359.11 93.383-172.92 272.13" clip-path="url(#a)"/>
<path d="m359.11 93.383-75.125 272.13" clip-path="url(#a)"/>
<path d="m359.11 93.383 180.05 70.081" clip-path="url(#a)"/>
<path d="m359.11 93.383 462.72 272.13" clip-path="url(#a)"/>
<path d="m235.09 365.51v66.303" clip-path="url(#a)"/>
<path d="m88.401 299.21 48.895 66.303" clip-path="url(#a)"/>
<path d="m88.401 299.21-48.895 66.303" clip-path="url(#a)"/>
<path d="m88.401 299.21v66.303" clip-path="url(#a)"/>
<path d="m137.3 365.51v66.303" clip-path="url(#a)"/>
<path d="m186.19 365.51v66.303" clip-path="url(#a)"/>
<path d="m283.98 365.51v66.303" clip-path="url(#a)"/>
<path d="m539.15 163.46 38.199 202.05" clip-path="url(#a)"/>
<path d="m539.15 163.46-114.6 68.52" clip-path="url(#a)"/>
<path d="m539.15 163.46-10.696 202.05" clip-path="url(#a)"/>
<path d="m539.15 163.46 87.094 202.05" clip-path="url(#a)"/>
<path d="m577.35 365.51v66.303" clip-path="url(#a)"/>
<path d="m634.4 231.98 40.746 133.53" clip-path="url(#a)"/>
<path d="m634.4 231.98-154.83 133.53" clip-path="url(#a)" stroke-dasharray="3.7,1.6"/>
<path d="m634.4 231.98 114.09 67.225" clip-path="url(#a)"/>
<path d="m675.14 365.51v66.303" clip-path="url(#a)"/>
<path d="m821.83 365.51v66.303" clip-path="url(#a)"/>
<path d="m39.505 365.51v66.303" clip-path="url(#a)"/>
<path d="m88.401 365.51v66.303" clip-path="url(#a)"/>
<path d="m424.55 231.98 55.007 133.53" clip-path="url(#a)"/>
<path d="m424.55 231.98-91.678 133.53" clip-path="url(#a)"/>
<path d="m424.55 231.98 6.1119 67.225" clip-path="url(#a)"/>
<path d="m424.55 231.98 30.559 67.225" clip-path="url(#a)"/>
<path d="m479.56 365.51v66.303" clip-path="url(#a)"/>
<path d="m528.46 365.51v66.303" clip-path="url(#a)"/>
<path d="m626.25 365.51v66.303" clip-path="url(#a)"/>
<path d="m748.49 299.21 24.448 66.303" clip-path="url(#a)"/>
<path d="m748.49 299.21-24.448 66.303" clip-path="url(#a)"/>
<path d="m772.93 365.51v66.303" clip-path="url(#a)"/>
<path d="m332.88 365.51v66.303" clip-path="url(#a)"/>
<path d="m430.67 299.21 48.895 66.303" clip-path="url(#a)" stroke-dasharray="3.7,1.6"/>
<path d="m430.67 299.21-48.895 66.303" clip-path="url(#a)"/>
<path d="m381.77 365.51v66.303" clip-path="url(#a)"/>
<path d="m455.11 299.21 24.448 66.303" clip-path="url(#a)" stroke-dasharray="3.7,1.6"/>
<path d="m455.11 299.21-24.448 66.303" clip-path="url(#a)"/>
<path d="m430.67 365.51v66.303" clip-path="url(#a)"/>
<path d="m724.04 365.51v66.303" clip-path="url(#a)"/>
</g>
<path d="m428.16 64.402 5.3331-2.7844q2.1275-1.1108 1.0167-3.2383l-3.5834-6.8634q-1.1108-2.1275-3.2383-1.0167l-5.3331 2.7844q-2.1275 1.1108-1.0167 3.2383l3.5834 6.8634q1.1108 2.1275 3.2383 1.0167z" clip-path="url(#a)" fill="#fff" stroke="#fff"/>
<g clip-path="url(#a)">
<defs>
<path id="ag" d="m9.8125 72.906h9.8594v-29.891h35.844v29.891h9.8594v-72.906h-9.8594v34.719h-35.844v-34.719h-9.8594z"/>
</defs>
<g transform="translate(426.28 60.8) rotate(-27.569) scale(.08 -.08)">
<use xlink:href="#ag"/>
</g>
</g>
<path d="m558.68 127.67 3.2929 5.0351q1.3136 2.0086 3.3222 0.69497l6.4798-4.2378q2.0086-1.3136 0.69497-3.3222l-3.2929-5.0351q-1.3136-2.0086-3.3222-0.69497l-6.4798 4.2378q-2.0086 1.3136-0.69497 3.3222z" clip-path="url(#a)" fill="#fff" stroke="#fff"/>
<g clip-path="url(#a)">
<g transform="translate(562.08 125.44) rotate(56.815) scale(.08 -.08)">
<use xlink:href="#ag"/>
</g>
</g>
<path d="m301.75 234.36 2.1062-4.6214q0.99529-2.1839-1.1886-3.1792l-7.0453-3.2108q-2.1839-0.99529-3.1792 1.1886l-2.1062 4.6214q-0.99529 2.1839 1.1886 3.1792l7.0453 3.2108q2.1839 0.99529 3.1792-1.1886z" clip-path="url(#a)" fill="#fff" stroke="#fff"/>
<g clip-path="url(#a)">
<defs>
<path id="x" d="m53.516 70.516v-9.625q-5.6094 2.6875-10.594 4-4.9844 1.3281-9.625 1.3281-8.0469 0-12.422-3.125t-4.375-8.8906q0-4.8438 2.9062-7.3125 2.9062-2.4531 11.016-3.9688l5.9531-1.2188q11.031-2.1094 16.281-7.4062t5.25-14.172q0-10.609-7.1094-16.078-7.0938-5.4688-20.812-5.4688-5.1719 0-11.016 1.1719-5.8281 1.1719-12.078 3.4688v10.156q6-3.3594 11.766-5.0781 5.7656-1.7031 11.328-1.7031 8.4375 0 13.031 3.3125 4.5938 3.3281 4.5938 9.4844 0 5.3594-3.2969 8.3906t-10.812 4.5469l-6.0156 1.1719q-11.031 2.1875-15.969 6.875-4.9219 4.6875-4.9219 13.047 0 9.6719 6.8125 15.234t18.766 5.5625q5.1406 0 10.453-0.9375 5.3281-0.92188 10.891-2.7656z"/>
</defs>
<g transform="translate(298.05 232.67) rotate(-65.499) scale(.08 -.08)">
<use xlink:href="#x"/>
</g>
</g>
<path d="m225.37 202.94 4.3563-3.3122q1.9105-1.4526 0.45788-3.3631l-4.6862-6.1633q-1.4526-1.9105-3.3631-0.45788l-4.3563 3.3122q-1.9105 1.4526-0.45788 3.3631l4.6862 6.1633q1.4526 1.9105 3.3631 0.45788z" clip-path="url(#a)" fill="#fff" stroke="#fff"/>
<g clip-path="url(#a)">
<defs>
<path id="p" d="m34.188 63.188-13.391-36.281h26.812zm-5.5781 9.7188h11.188l27.781-72.906h-10.25l-6.6406 18.703h-32.859l-6.6406-18.703h-10.406z"/>
</defs>
<g transform="translate(222.91 199.71) rotate(-37.247) scale(.08 -.08)">
<use xlink:href="#p"/>
</g>
</g>
<path d="m276.71 234.75 2.4677-3.8836q1.2871-2.0257-0.73852-3.3128l-6.5348-4.1524q-2.0257-1.2871-3.3128 0.73852l-2.4677 3.8836q-1.2871 2.0257 0.73852 3.3128l6.5348 4.1524q2.0257 1.2871 3.3128-0.73852z" clip-path="url(#a)" fill="#fff" stroke="#fff"/>
<g clip-path="url(#a)">
<defs>
<path id="z" d="m9.8125 72.906h41.891v-8.3125h-32.031v-21.484h28.906v-8.2969h-28.906v-34.812h-9.8594z"/>
</defs>
<g transform="translate(273.28 232.57) rotate(-57.567) scale(.08 -.08)">
<use xlink:href="#z"/>
</g>
</g>
<path d="m326.81 233.94 1.5581-5.6439q0.63866-2.3135-1.6748-2.9521l-7.4633-2.0604q-2.3135-0.63867-2.9521 1.6748l-1.5581 5.6439q-0.63867 2.3135 1.6748 2.9521l7.4633 2.0604q2.3135 0.63867 2.9521-1.6748z" clip-path="url(#a)" fill="#fff" stroke="#fff"/>
<g clip-path="url(#a)">
<defs>
<path id="ae" d="m8.6875 72.906h9.9219v-44.297q0-11.719 4.2344-16.875 4.25-5.1406 13.781-5.1406 9.4688 0 13.719 5.1406 4.25 5.1562 4.25 16.875v44.297h9.9062v-45.516q0-14.25-7.0625-21.531-7.0469-7.2812-20.812-7.2812-13.828 0-20.891 7.2812-7.0469 7.2812-7.0469 21.531z"/>
</defs>
<g transform="translate(322.89 232.86) rotate(-74.567) scale(.08 -.08)">
<use xlink:href="#ae"/>
</g>
</g>
<path d="m443.92 133.13 5.8686 2.2843q2.2365 0.87055 3.1071-1.366l2.8084-7.2152q0.87055-2.2365-1.366-3.1071l-5.8686-2.2843q-2.2365-0.87055-3.1071 1.366l-2.8084 7.2152q-0.87055 2.2365 1.366 3.1071z" clip-path="url(#a)" fill="#fff" stroke="#fff"/>
<g clip-path="url(#a)">
<defs>
<path id="af" d="m39.406 66.219q-10.75 0-17.078-8.0156-6.3125-8-6.3125-21.828 0-13.766 6.3125-21.781 6.3281-8 17.078-8 10.734 0 17.016 8 6.2812 8.0156 6.2812 21.781 0 13.828-6.2812 21.828-6.2812 8.0156-17.016 8.0156zm13.812-64.906 13-14.203h-11.922l-10.797 11.672q-1.6094-0.09375-2.4688-0.14062-0.84375-0.0625-1.625-0.0625-15.375 0-24.594 10.281-9.2031 10.281-9.2031 27.516 0 17.281 9.2031 27.562 9.2188 10.281 24.594 10.281 15.328 0 24.5-10.281 9.1875-10.281 9.1875-27.562 0-12.688-5.1094-21.734-5.0938-9.0312-14.766-13.328z"/>
</defs>
<g transform="translate(445.39 129.34) rotate(21.268) scale(.08 -.08)">
<use xlink:href="#af"/>
</g>
</g>
<path d="m584.76 233.37 5.0469 2.9681q2.0688 1.2166 3.2854-0.85211l3.925-6.6739q1.2166-2.0688-0.85211-3.2854l-5.0469-2.9681q-2.0688-1.2167-3.2854 0.85211l-3.925 6.6739q-1.2166 2.0688 0.85211 3.2854z" clip-path="url(#a)" fill="#fff" stroke="#fff"/>
<g clip-path="url(#a)">
<g transform="translate(586.82 229.87) rotate(30.46) scale(.08 -.08)">
<use xlink:href="#ae"/>
</g>
</g>
<path d="m228.81 381.02v35.285q0 2.4 2.4 2.4h7.7425q2.4 0 2.4-2.4v-35.285q0-2.4-2.4-2.4h-7.7425q-2.4 0-2.4 2.4z" clip-path="url(#a)" fill="#fff" stroke="#fff"/>
<g clip-path="url(#a)">
<defs>
<path id="l" d="m-0.29688 72.906h61.672v-8.3125h-25.875v-64.594h-9.9062v64.594h-25.891z"/>
<path id="e" d="m56.203 29.594v-4.3906h-41.312q0.59375-9.2812 5.5938-14.141t13.938-4.8594q5.1719 0 10.031 1.2656t9.6562 3.8125v-8.5q-4.8438-2.0469-9.9219-3.125t-10.297-1.0781q-13.094 0-20.734 7.6094-7.6406 7.625-7.6406 20.625 0 13.422 7.25 21.297 7.25 7.8906 19.562 7.8906 11.031 0 17.453-7.1094 6.4219-7.0938 6.4219-19.297zm-8.9844 2.6406q-0.09375 7.3594-4.125 11.75-4.0312 4.4062-10.672 4.4062-7.5156 0-12.031-4.25t-5.2031-11.969z"/>
<path id="g" d="m41.109 46.297q-1.5156 0.875-3.2969 1.2812-1.7812 0.42188-3.9219 0.42188-7.625 0-11.703-4.9531t-4.0781-14.234v-28.812h-9.0312v54.688h9.0312v-8.5q2.8438 4.9844 7.375 7.3906 4.5469 2.4219 11.047 2.4219 0.92188 0 2.0469-0.125 1.125-0.10938 2.4844-0.35938z"/>
<path id="j" d="m52 44.188q3.375 6.0625 8.0625 8.9375t11.031 2.875q8.5469 0 13.188-5.9844 4.6406-5.9688 4.6406-17v-33.016h-9.0312v32.719q0 7.8594-2.7969 11.656-2.7812 3.8125-8.4844 3.8125-6.9844 0-11.047-4.6406-4.0469-4.625-4.0469-12.641v-30.906h-9.0312v32.719q0 7.9062-2.7812 11.688t-8.5938 3.7812q-6.8906 0-10.953-4.6562-4.0469-4.6562-4.0469-12.625v-30.906h-9.0312v54.688h9.0312v-8.5q3.0781 5.0312 7.375 7.4219t10.203 2.3906q5.9688 0 10.141-3.0312 4.1719-3.0156 6.1719-8.7812z"/>
<path id="h" d="m9.4219 54.688h8.9844v-54.688h-8.9844zm0 21.297h8.9844v-11.391h-8.9844z"/>
<path id="f" d="m54.891 33.016v-33.016h-8.9844v32.719q0 7.7656-3.0312 11.609-3.0312 3.8594-9.0781 3.8594-7.2812 0-11.484-4.6406-4.2031-4.625-4.2031-12.641v-30.906h-9.0312v54.688h9.0312v-8.5q3.2344 4.9375 7.5938 7.375 4.375 2.4375 10.094 2.4375 9.4219 0 14.25-5.8281 4.8438-5.8281 4.8438-17.156z"/>
<path id="k" d="m34.281 27.484q-10.891 0-15.094-2.4844t-4.2031-8.5q0-4.7812 3.1562-7.5938 3.1562-2.7969 8.5625-2.7969 7.4844 0 12 5.2969t4.5156 14.078v2zm17.922 3.7188v-31.203h-8.9844v8.2969q-3.0781-4.9688-7.6719-7.3438t-11.234-2.375q-8.3906 0-13.359 4.7188-4.9531 4.7188-4.9531 12.625 0 9.2188 6.1719 13.906 6.1875 4.6875 18.438 4.6875h12.609v0.89062q0 6.2031-4.0781 9.5938t-11.453 3.3906q-4.6875 0-9.1406-1.125-4.4375-1.125-8.5312-3.375v8.3125q4.9219 1.9062 9.5625 2.8438 4.6406 0.95312 9.0312 0.95312 11.875 0 17.734-6.1562 5.8594-6.1406 5.8594-18.641z"/>
<path id="i" d="m9.4219 75.984h8.9844v-75.984h-8.9844z"/>
</defs>
<g transform="translate(232.88 381.02) rotate(90) scale(.08 -.08)">
<use xlink:href="#l"/>
<use x="60.818359" xlink:href="#e"/>
<use x="122.341797" xlink:href="#g"/>
<use x="163.439453" xlink:href="#j"/>
<use x="260.851562" xlink:href="#h"/>
<use x="288.634766" xlink:href="#f"/>
<use x="352.013672" xlink:href="#k"/>
<use x="413.292969" xlink:href="#i"/>
</g>
</g>
<path d="m106.14 333.83 3.3155 4.4959q1.4244 1.9316 3.356 0.50714l6.2313-4.5953q1.9316-1.4244 0.50713-3.356l-3.3155-4.4959q-1.4244-1.9316-3.356-0.50714l-6.2313 4.5953q-1.9316 1.4244-0.50714 3.356z" clip-path="url(#a)" fill="#fff" stroke="#fff"/>
<g clip-path="url(#a)">
<defs>
<path id="aa" d="m64.406 67.281v-10.391q-4.9844 4.6406-10.625 6.9219-5.6406 2.2969-11.984 2.2969-12.5 0-19.141-7.6406t-6.6406-22.094q0-14.406 6.6406-22.047t19.141-7.6406q6.3438 0 11.984 2.2969t10.625 6.9375v-10.312q-5.1719-3.5156-10.969-5.2812-5.7812-1.75-12.219-1.75-16.562 0-26.094 10.125-9.5156 10.141-9.5156 27.672 0 17.578 9.5156 27.703 9.5312 10.141 26.094 10.141 6.5312 0 12.312-1.7344 5.7969-1.7344 10.875-5.2031z"/>
</defs>
<g transform="translate(109.41 331.42) rotate(53.593) scale(.08 -.08)">
<use xlink:href="#aa"/>
</g>
</g>
<path d="m67.635 337.93 2.7309-3.7032q1.4244-1.9316-0.50714-3.356l-6.2313-4.5953q-1.9316-1.4244-3.356 0.50714l-2.7309 3.7032q-1.4244 1.9316 0.50714 3.356l6.2313 4.5953q1.9316 1.4244 3.356-0.50714z" clip-path="url(#a)" fill="#fff" stroke="#fff"/>
<g clip-path="url(#a)">
<g transform="translate(64.364 335.52) rotate(-53.593) scale(.08 -.08)">
<use xlink:href="#z"/>
</g>
</g>
<path d="m82.129 329.83v5.055q0 2.4 2.4 2.4h7.7425q2.4 0 2.4-2.4v-5.055q0-2.4-2.4-2.4h-7.7425q-2.4 0-2.4 2.4z" clip-path="url(#a)" fill="#fff" stroke="#fff"/>
<g clip-path="url(#a)">
<defs>
<path id="s" d="m9.8125 72.906h46.094v-8.3125h-36.234v-21.578h34.719v-8.2969h-34.719v-26.422h37.109v-8.2969h-46.969z"/>
</defs>
<g transform="translate(86.193 329.83) rotate(90) scale(.08 -.08)">
<use xlink:href="#s"/>
</g>
</g>
<path d="m131.02 381.02v35.285q0 2.4 2.4 2.4h7.7425q2.4 0 2.4-2.4v-35.285q0-2.4-2.4-2.4h-7.7425q-2.4 0-2.4 2.4z" clip-path="url(#a)" fill="#fff" stroke="#fff"/>
<g clip-path="url(#a)">
<g transform="translate(135.09 381.02) rotate(90) scale(.08 -.08)">
<use xlink:href="#l"/>
<use x="60.818359" xlink:href="#e"/>
<use x="122.341797" xlink:href="#g"/>
<use x="163.439453" xlink:href="#j"/>
<use x="260.851562" xlink:href="#h"/>
<use x="288.634766" xlink:href="#f"/>
<use x="352.013672" xlink:href="#k"/>
<use x="413.292969" xlink:href="#i"/>
</g>
</g>
<path d="m179.92 381.02v35.285q0 2.4 2.4 2.4h7.7425q2.4 0 2.4-2.4v-35.285q0-2.4-2.4-2.4h-7.7425q-2.4 0-2.4 2.4z" clip-path="url(#a)" fill="#fff" stroke="#fff"/>
<g clip-path="url(#a)">
<g transform="translate(183.98 381.02) rotate(90) scale(.08 -.08)">
<use xlink:href="#l"/>
<use x="60.818359" xlink:href="#e"/>
<use x="122.341797" xlink:href="#g"/>
<use x="163.439453" xlink:href="#j"/>
<use x="260.851562" xlink:href="#h"/>
<use x="288.634766" xlink:href="#f"/>
<use x="352.013672" xlink:href="#k"/>
<use x="413.292969" xlink:href="#i"/>
</g>
</g>
<path d="m277.71 381.02v35.285q0 2.4 2.4 2.4h7.7425q2.4 0 2.4-2.4v-35.285q0-2.4-2.4-2.4h-7.7425q-2.4 0-2.4 2.4z" clip-path="url(#a)" fill="#fff" stroke="#fff"/>
<g clip-path="url(#a)">
<g transform="translate(281.77 381.02) rotate(90) scale(.08 -.08)">
<use xlink:href="#l"/>
<use x="60.818359" xlink:href="#e"/>
<use x="122.341797" xlink:href="#g"/>
<use x="163.439453" xlink:href="#j"/>
<use x="260.851562" xlink:href="#h"/>
<use x="288.634766" xlink:href="#f"/>
<use x="352.013672" xlink:href="#k"/>
<use x="413.292969" xlink:href="#i"/>
</g>
</g>
<path d="m551.64 263.28 0.89611 4.7398q0.44585 2.3582 2.8041 1.9124l7.6077-1.4383q2.3582-0.44585 1.9124-2.8041l-0.89611-4.7398q-0.44585-2.3582-2.8041-1.9124l-7.6077 1.4383q-2.3582 0.44585-1.9124 2.8041z" clip-path="url(#a)" fill="#fff" stroke="#fff"/>
<g clip-path="url(#a)">
<defs>
<path id="y" d="m19.672 64.797v-27.391h12.406q6.8906 0 10.641 3.5625 3.7656 3.5625 3.7656 10.156 0 6.5469-3.7656 10.109-3.75 3.5625-10.641 3.5625zm-9.8594 8.1094h22.266q12.266 0 18.531-5.5469 6.2812-5.5469 6.2812-16.234 0-10.797-6.2812-16.312-6.2656-5.5156-18.531-5.5156h-12.406v-29.297h-9.8594z"/>
</defs>
<g transform="translate(555.64 262.53) rotate(79.294) scale(.08 -.08)">
<use xlink:href="#y"/>
</g>
</g>
<path d="m482.72 204.51 4.6969-2.8084q2.0599-1.2316 0.82825-3.2915l-3.9733-6.6452q-1.2316-2.0599-3.2915-0.82825l-4.6969 2.8084q-2.0599 1.2316-0.82825 3.2915l3.9733 6.6452q1.2316 2.0599 3.2915 0.82824z" clip-path="url(#a)" fill="#fff" stroke="#fff"/>
<g clip-path="url(#a)">
<g transform="translate(480.64 201.02) rotate(-30.876) scale(.08 -.08)">
<use xlink:href="#p"/>
</g>
</g>
<path d="m539.95 267.12 0.24324-4.5948q0.12687-2.3966-2.2698-2.5235l-7.7317-0.40929q-2.3966-0.12687-2.5235 2.2698l-0.24324 4.5948q-0.12687 2.3966 2.2698 2.5235l7.7317 0.40929q2.3966 0.12687 2.5235-2.2698z" clip-path="url(#a)" fill="#fff" stroke="#fff"/>
<g clip-path="url(#a)">
<g transform="translate(535.89 266.9) rotate(-86.97) scale(.08 -.08)">
<use xlink:href="#z"/>
</g>
</g>
<path d="m575.76 264.22 2.3691 5.4961q0.95003 2.204 3.154 1.2539l7.1101-3.0648q2.204-0.95003 1.2539-3.154l-2.3691-5.4961q-0.95003-2.204-3.154-1.2539l-7.1101 3.0648q-2.204 0.95003-1.2539 3.154z" clip-path="url(#a)" fill="#fff" stroke="#fff"/>
<g clip-path="url(#a)">
<defs>
<path id="al" d="m9.8125 72.906h13.281l32.328-60.984v60.984h9.5625v-72.906h-13.281l-32.312 60.984v-60.984h-9.5781z"/>
</defs>
<g transform="translate(579.49 262.61) rotate(66.681) scale(.08 -.08)">
<use xlink:href="#al"/>
</g>
</g>
<path d="m571.08 381.02v35.285q0 2.4 2.4 2.4h7.7425q2.4 0 2.4-2.4v-35.285q0-2.4-2.4-2.4h-7.7425q-2.4 0-2.4 2.4z" clip-path="url(#a)" fill="#fff" stroke="#fff"/>
<g clip-path="url(#a)">
<g transform="translate(575.14 381.02) rotate(90) scale(.08 -.08)">
<use xlink:href="#l"/>
<use x="60.818359" xlink:href="#e"/>
<use x="122.341797" xlink:href="#g"/>
<use x="163.439453" xlink:href="#j"/>
<use x="260.851562" xlink:href="#h"/>
<use x="288.634766" xlink:href="#f"/>
<use x="352.013672" xlink:href="#k"/>
<use x="413.292969" xlink:href="#i"/>
</g>
</g>
<path d="m648.07 298.27 1.4079 4.6137q0.70047 2.2955 2.996 1.595l7.4054-2.2597q2.2955-0.70047 1.595-2.996l-1.4079-4.6137q-0.70047-2.2955-2.996-1.595l-7.4054 2.2597q-2.2955 0.70047-1.595 2.996z" clip-path="url(#a)" fill="#fff" stroke="#fff"/>
<g clip-path="url(#a)">
<g transform="translate(651.95 297.09) rotate(73.031) scale(.08 -.08)">
<use xlink:href="#y"/>
</g>
</g>
<path d="m559 305.28 4.1443-3.574q1.8175-1.5674 0.2501-3.3849l-5.0565-5.8633q-1.5674-1.8175-3.3849-0.2501l-4.1443 3.574q-1.8175 1.5674-0.2501 3.3849l5.0565 5.8633q1.5674 1.8175 3.3849 0.2501z" clip-path="url(#a)" fill="#fff" stroke="#fff"/>
<g clip-path="url(#a)">
<g transform="translate(556.35 302.21) rotate(-40.774) scale(.08 -.08)">
<use xlink:href="#p"/>
</g>
</g>
<path d="m686.18 269.78 4.1559 2.4488q2.0677 1.2184 3.2861-0.84935l3.9306-6.6706q1.2184-2.0677-0.84935-3.2861l-4.1559-2.4488q-2.0677-1.2184-3.2861 0.84935l-3.9306 6.6706q-1.2184 2.0677 0.84935 3.2861z" clip-path="url(#a)" fill="#fff" stroke="#fff"/>
<g clip-path="url(#a)">
<g transform="translate(688.24 266.27) rotate(30.508) scale(.08 -.08)">
<use xlink:href="#y"/>
</g>
</g>
<path d="m668.87 381.02v35.285q0 2.4 2.4 2.4h7.7425q2.4 0 2.4-2.4v-35.285q0-2.4-2.4-2.4h-7.7425q-2.4 0-2.4 2.4z" clip-path="url(#a)" fill="#fff" stroke="#fff"/>
<g clip-path="url(#a)">
<g transform="translate(672.93 381.02) rotate(90) scale(.08 -.08)">
<use xlink:href="#l"/>
<use x="60.818359" xlink:href="#e"/>
<use x="122.341797" xlink:href="#g"/>
<use x="163.439453" xlink:href="#j"/>
<use x="260.851562" xlink:href="#h"/>
<use x="288.634766" xlink:href="#f"/>
<use x="352.013672" xlink:href="#k"/>
<use x="413.292969" xlink:href="#i"/>
</g>
</g>
<path d="m815.56 381.02v35.285q0 2.4 2.4 2.4h7.7425q2.4 0 2.4-2.4v-35.285q0-2.4-2.4-2.4h-7.7425q-2.4 0-2.4 2.4z" clip-path="url(#a)" fill="#fff" stroke="#fff"/>
<g clip-path="url(#a)">
<g transform="translate(819.62 381.02) rotate(90) scale(.08 -.08)">
<use xlink:href="#l"/>
<use x="60.818359" xlink:href="#e"/>
<use x="122.341797" xlink:href="#g"/>
<use x="163.439453" xlink:href="#j"/>
<use x="260.851562" xlink:href="#h"/>
<use x="288.634766" xlink:href="#f"/>
<use x="352.013672" xlink:href="#k"/>
<use x="413.292969" xlink:href="#i"/>
</g>
</g>
<path d="m33.234 381.02v35.285q0 2.4 2.4 2.4h7.7425q2.4 0 2.4-2.4v-35.285q0-2.4-2.4-2.4h-7.7425q-2.4 0-2.4 2.4z" clip-path="url(#a)" fill="#fff" stroke="#fff"/>
<g clip-path="url(#a)">
<g transform="translate(37.298 381.02) rotate(90) scale(.08 -.08)">
<use xlink:href="#l"/>
<use x="60.818359" xlink:href="#e"/>
<use x="122.341797" xlink:href="#g"/>
<use x="163.439453" xlink:href="#j"/>
<use x="260.851562" xlink:href="#h"/>
<use x="288.634766" xlink:href="#f"/>
<use x="352.013672" xlink:href="#k"/>
<use x="413.292969" xlink:href="#i"/>
</g>
</g>
<path d="m82.129 381.02v35.285q0 2.4 2.4 2.4h7.7425q2.4 0 2.4-2.4v-35.285q0-2.4-2.4-2.4h-7.7425q-2.4 0-2.4 2.4z" clip-path="url(#a)" fill="#fff" stroke="#fff"/>
<g clip-path="url(#a)">
<g transform="translate(86.193 381.02) rotate(90) scale(.08 -.08)">
<use xlink:href="#l"/>
<use x="60.818359" xlink:href="#e"/>
<use x="122.341797" xlink:href="#g"/>
<use x="163.439453" xlink:href="#j"/>
<use x="260.851562" xlink:href="#h"/>
<use x="288.634766" xlink:href="#f"/>
<use x="352.013672" xlink:href="#k"/>
<use x="413.292969" xlink:href="#i"/>
</g>
</g>
<path d="m445.2 298.55 2.1278 5.1651q0.91415 2.2191 3.1332 1.3049l7.1589-2.9491q2.2191-0.91415 1.3049-3.1332l-2.1278-5.1651q-0.91415-2.2191-3.1332-1.3049l-7.1589 2.9491q-2.2191 0.91415-1.3049 3.1332z" clip-path="url(#a)" fill="#fff" stroke="#fff"/>
<g clip-path="url(#a)">
<g transform="translate(448.95 297.01) rotate(67.611) scale(.08 -.08)">
<use xlink:href="#aa"/>
</g>
</g>
<path d="m382.45 304.38 2.8612-4.1673q1.3584-1.9785-0.62011-3.337l-6.3829-4.3824q-1.9785-1.3584-3.337 0.62011l-2.8612 4.1673q-1.3584 1.9785 0.62011 3.337l6.3829 4.3824q1.9785 1.3584 3.337-0.62011z" clip-path="url(#a)" fill="#fff" stroke="#fff"/>
<g clip-path="url(#a)">
<g transform="translate(379.1 302.08) rotate(-55.527) scale(.08 -.08)">
<use xlink:href="#s"/>
</g>
</g>
<path d="m421.14 263.65 0.4577 5.0342q0.2173 2.3901 2.6074 2.1728l7.7107-0.70103q2.3901-0.2173 2.1728-2.6074l-0.4577-5.0342q-0.2173-2.3901-2.6074-2.1728l-7.7107 0.70103q-2.3901 0.2173-2.1728 2.6074z" clip-path="url(#a)" fill="#fff" stroke="#fff"/>
<g clip-path="url(#a)">
<g transform="translate(425.18 263.28) rotate(84.805) scale(.08 -.08)">
<use xlink:href="#s"/>
</g>
</g>
<path d="m433.08 265.89 2.0919 4.6018q0.99319 2.1848 3.178 1.1917l7.0484-3.2041q2.1848-0.99319 1.1917-3.178l-2.0919-4.6018q-0.99319-2.1848-3.178-1.1917l-7.0484 3.2041q-2.1848 0.99319-1.1917 3.178z" clip-path="url(#a)" fill="#fff" stroke="#fff"/>
<g clip-path="url(#a)">
<g transform="translate(436.78 264.21) rotate(65.554) scale(.08 -.08)">
<use xlink:href="#s"/>
</g>
</g>
<path d="m473.29 381.02v35.285q0 2.4 2.4 2.4h7.7425q2.4 0 2.4-2.4v-35.285q0-2.4-2.4-2.4h-7.7425q-2.4 0-2.4 2.4z" clip-path="url(#a)" fill="#fff" stroke="#fff"/>
<g clip-path="url(#a)">
<g transform="translate(477.35 381.02) rotate(90) scale(.08 -.08)">
<use xlink:href="#l"/>
<use x="60.818359" xlink:href="#e"/>
<use x="122.341797" xlink:href="#g"/>
<use x="163.439453" xlink:href="#j"/>
<use x="260.851562" xlink:href="#h"/>
<use x="288.634766" xlink:href="#f"/>
<use x="352.013672" xlink:href="#k"/>
<use x="413.292969" xlink:href="#i"/>
</g>
</g>
<path d="m522.19 381.02v35.285q0 2.4 2.4 2.4h7.7425q2.4 0 2.4-2.4v-35.285q0-2.4-2.4-2.4h-7.7425q-2.4 0-2.4 2.4z" clip-path="url(#a)" fill="#fff" stroke="#fff"/>
<g clip-path="url(#a)">
<g transform="translate(526.25 381.02) rotate(90) scale(.08 -.08)">
<use xlink:href="#l"/>
<use x="60.818359" xlink:href="#e"/>
<use x="122.341797" xlink:href="#g"/>
<use x="163.439453" xlink:href="#j"/>
<use x="260.851562" xlink:href="#h"/>
<use x="288.634766" xlink:href="#f"/>
<use x="352.013672" xlink:href="#k"/>
<use x="413.292969" xlink:href="#i"/>
</g>
</g>
<path d="m619.98 381.02v35.285q0 2.4 2.4 2.4h7.7425q2.4 0 2.4-2.4v-35.285q0-2.4-2.4-2.4h-7.7425q-2.4 0-2.4 2.4z" clip-path="url(#a)" fill="#fff" stroke="#fff"/>
<g clip-path="url(#a)">
<g transform="translate(624.04 381.02) rotate(90) scale(.08 -.08)">
<use xlink:href="#l"/>
<use x="60.818359" xlink:href="#e"/>
<use x="122.341797" xlink:href="#g"/>
<use x="163.439453" xlink:href="#j"/>
<use x="260.851562" xlink:href="#h"/>
<use x="288.634766" xlink:href="#f"/>
<use x="352.013672" xlink:href="#k"/>
<use x="413.292969" xlink:href="#i"/>
</g>
</g>
<path d="m753.86 331.91 1.9326 5.2413q0.8303 2.2518 3.0821 1.4215l7.2644-2.6786q2.2518-0.8303 1.4215-3.0821l-1.9326-5.2413q-0.8303-2.2518-3.0821-1.4215l-7.2644 2.6786q-2.2518 0.8303-1.4215 3.0821z" clip-path="url(#a)" fill="#fff" stroke="#fff"/>
<g clip-path="url(#a)">
<g transform="translate(757.67 330.5) rotate(69.76) scale(.08 -.08)">
<use xlink:href="#aa"/>
</g>
</g>
<path d="m741.06 337.48 2.1787-5.9086q0.8303-2.2518-1.4215-3.0821l-7.2644-2.6786q-2.2518-0.8303-3.0821 1.4215l-2.1787 5.9086q-0.8303 2.2518 1.4215 3.0821l7.2644 2.6786q2.2518 0.8303 3.0821-1.4215z" clip-path="url(#a)" fill="#fff" stroke="#fff"/>
<g clip-path="url(#a)">
<g transform="translate(737.24 336.08) rotate(-69.76) scale(.08 -.08)">
<use xlink:href="#af"/>
</g>
</g>
<path d="m766.66 381.02v35.285q0 2.4 2.4 2.4h7.7425q2.4 0 2.4-2.4v-35.285q0-2.4-2.4-2.4h-7.7425q-2.4 0-2.4 2.4z" clip-path="url(#a)" fill="#fff" stroke="#fff"/>
<g clip-path="url(#a)">
<g transform="translate(770.73 381.02) rotate(90) scale(.08 -.08)">
<use xlink:href="#l"/>
<use x="60.818359" xlink:href="#e"/>
<use x="122.341797" xlink:href="#g"/>
<use x="163.439453" xlink:href="#j"/>
<use x="260.851562" xlink:href="#h"/>
<use x="288.634766" xlink:href="#f"/>
<use x="352.013672" xlink:href="#k"/>
<use x="413.292969" xlink:href="#i"/>
</g>
</g>
<path d="m326.61 381.02v35.285q0 2.4 2.4 2.4h7.7425q2.4 0 2.4-2.4v-35.285q0-2.4-2.4-2.4h-7.7425q-2.4 0-2.4 2.4z" clip-path="url(#a)" fill="#fff" stroke="#fff"/>
<g clip-path="url(#a)">
<g transform="translate(330.67 381.02) rotate(90) scale(.08 -.08)">
<use xlink:href="#l"/>
<use x="60.818359" xlink:href="#e"/>
<use x="122.341797" xlink:href="#g"/>
<use x="163.439453" xlink:href="#j"/>
<use x="260.851562" xlink:href="#h"/>
<use x="288.634766" xlink:href="#f"/>
<use x="352.013672" xlink:href="#k"/>
<use x="413.292969" xlink:href="#i"/>
</g>
</g>
<path d="m448.44 333.88 3.248 4.4044q1.4244 1.9316 3.356 0.50714l6.2313-4.5953q1.9316-1.4244 0.50714-3.356l-3.248-4.4044q-1.4244-1.9316-3.356-0.50714l-6.2313 4.5953q-1.9316 1.4244-0.50713 3.356z" clip-path="url(#a)" fill="#fff" stroke="#fff"/>
<g clip-path="url(#a)">
<g transform="translate(451.71 331.47) rotate(53.593) scale(.08 -.08)">
<use xlink:href="#p"/>
</g>
</g>
<path d="m409.76 338.13 3.0143-4.0875q1.4244-1.9316-0.50714-3.356l-6.2313-4.5953q-1.9316-1.4244-3.356 0.50714l-3.0143 4.0875q-1.4244 1.9316 0.50713 3.356l6.2313 4.5953q1.9316 1.4244 3.356-0.50714z" clip-path="url(#a)" fill="#fff" stroke="#fff"/>
<g clip-path="url(#a)">
<g transform="translate(406.49 335.71) rotate(-53.593) scale(.08 -.08)">
<use xlink:href="#x"/>
</g>
</g>
<path d="m375.5 381.02v35.285q0 2.4 2.4 2.4h7.7425q2.4 0 2.4-2.4v-35.285q0-2.4-2.4-2.4h-7.7425q-2.4 0-2.4 2.4z" clip-path="url(#a)" fill="#fff" stroke="#fff"/>
<g clip-path="url(#a)">
<g transform="translate(379.56 381.02) rotate(90) scale(.08 -.08)">
<use xlink:href="#l"/>
<use x="60.818359" xlink:href="#e"/>
<use x="122.341797" xlink:href="#g"/>
<use x="163.439453" xlink:href="#j"/>
<use x="260.851562" xlink:href="#h"/>
<use x="288.634766" xlink:href="#f"/>
<use x="352.013672" xlink:href="#k"/>
<use x="413.292969" xlink:href="#i"/>
</g>
</g>
<path d="m460.51 331.96 1.8932 5.1346q0.8303 2.2518 3.0821 1.4215l7.2644-2.6786q2.2518-0.8303 1.4215-3.0821l-1.8932-5.1346q-0.8303-2.2518-3.0821-1.4215l-7.2644 2.6786q-2.2518 0.8303-1.4215 3.0821z" clip-path="url(#a)" fill="#fff" stroke="#fff"/>
<g clip-path="url(#a)">
<g transform="translate(464.32 330.56) rotate(69.76) scale(.08 -.08)">
<use xlink:href="#p"/>
</g>
</g>
<path d="m447.9 336.91 1.757-4.7651q0.8303-2.2518-1.4215-3.0821l-7.2644-2.6786q-2.2518-0.8303-3.0821 1.4215l-1.757 4.7651q-0.8303 2.2518 1.4215 3.0821l7.2644 2.6786q2.2518 0.8303 3.0821-1.4215z" clip-path="url(#a)" fill="#fff" stroke="#fff"/>
<g clip-path="url(#a)">
<g transform="translate(444.08 335.51) rotate(-69.76) scale(.08 -.08)">
<use xlink:href="#x"/>
</g>
</g>
<path d="m424.4 381.02v35.285q0 2.4 2.4 2.4h7.7425q2.4 0 2.4-2.4v-35.285q0-2.4-2.4-2.4h-7.7425q-2.4 0-2.4 2.4z" clip-path="url(#a)" fill="#fff" stroke="#fff"/>
<g clip-path="url(#a)">
<g transform="translate(428.46 381.02) rotate(90) scale(.08 -.08)">
<use xlink:href="#l"/>
<use x="60.818359" xlink:href="#e"/>
<use x="122.341797" xlink:href="#g"/>
<use x="163.439453" xlink:href="#j"/>
<use x="260.851562" xlink:href="#h"/>
<use x="288.634766" xlink:href="#f"/>
<use x="352.013672" xlink:href="#k"/>
<use x="413.292969" xlink:href="#i"/>
</g>
</g>
<path d="m717.77 381.02v35.285q0 2.4 2.4 2.4h7.7425q2.4 0 2.4-2.4v-35.285q0-2.4-2.4-2.4h-7.7425q-2.4 0-2.4 2.4z" clip-path="url(#a)" fill="#fff" stroke="#fff"/>
<g clip-path="url(#a)">
<g transform="translate(721.83 381.02) rotate(90) scale(.08 -.08)">
<use xlink:href="#l"/>
<use x="60.818359" xlink:href="#e"/>
<use x="122.341797" xlink:href="#g"/>
<use x="163.439453" xlink:href="#j"/>
<use x="260.851562" xlink:href="#h"/>
<use x="288.634766" xlink:href="#f"/>
<use x="352.013672" xlink:href="#k"/>
<use x="413.292969" xlink:href="#i"/>
</g>
</g>
<defs>
<path id="c" d="m0 8.6603c2.2967 0 4.4997-0.9125 6.1237-2.5365 1.624-1.624 2.5365-3.827 2.5365-6.1237s-0.9125-4.4997-2.5365-6.1237c-1.624-1.624-3.827-2.5365-6.1237-2.5365s-4.4997 0.9125-6.1237 2.5365c-1.624 1.624-2.5365 3.827-2.5365 6.1237s0.9125 4.4997 2.5365 6.1237c1.624 1.624 3.827 2.5365 6.1237 2.5365z"/>
</defs>
<g clip-path="url(#a)">
<use x="39.505478" y="431.815307" fill="#ffffff" stroke="#ffffff" xlink:href="#c"/>
</g>
<g clip-path="url(#a)">
<use x="88.400627" y="431.815307" fill="#ffffff" stroke="#ffffff" xlink:href="#c"/>
</g>
<g clip-path="url(#a)">
<use x="137.295775" y="431.815307" fill="#ffffff" stroke="#ffffff" xlink:href="#c"/>
</g>
<g clip-path="url(#a)">
<use x="186.190924" y="431.815307" fill="#ffffff" stroke="#ffffff" xlink:href="#c"/>
</g>
<g clip-path="url(#a)">
<use x="235.086072" y="431.815307" fill="#ffffff" stroke="#ffffff" xlink:href="#c"/>
</g>
<g clip-path="url(#a)">
<use x="283.981221" y="431.815307" fill="#ffffff" stroke="#ffffff" xlink:href="#c"/>
</g>
<g clip-path="url(#a)">
<use x="332.876369" y="431.815307" fill="#ffffff" stroke="#ffffff" xlink:href="#c"/>
</g>
<g clip-path="url(#a)">
<use x="381.771518" y="431.815307" fill="#ffffff" stroke="#ffffff" xlink:href="#c"/>
</g>
<g clip-path="url(#a)">
<use x="430.666667" y="431.815307" fill="#ffffff" stroke="#ffffff" xlink:href="#c"/>
</g>
<g clip-path="url(#a)">
<use x="479.561815" y="431.815307" fill="#ffffff" stroke="#ffffff" xlink:href="#c"/>
</g>
<g clip-path="url(#a)">
<use x="528.456964" y="431.815307" fill="#ffffff" stroke="#ffffff" xlink:href="#c"/>
</g>
<g clip-path="url(#a)">
<use x="577.352112" y="431.815307" fill="#ffffff" stroke="#ffffff" xlink:href="#c"/>
</g>
<g clip-path="url(#a)">
<use x="626.247261" y="431.815307" fill="#ffffff" stroke="#ffffff" xlink:href="#c"/>
</g>
<g clip-path="url(#a)">
<use x="675.14241" y="431.815307" fill="#ffffff" stroke="#ffffff" xlink:href="#c"/>
</g>
<g clip-path="url(#a)">
<use x="724.037558" y="431.815307" fill="#ffffff" stroke="#ffffff" xlink:href="#c"/>
</g>
<g clip-path="url(#a)">
<use x="772.932707" y="431.815307" fill="#ffffff" stroke="#ffffff" xlink:href="#c"/>
</g>
<g clip-path="url(#a)">
<use x="821.827855" y="431.815307" fill="#ffffff" stroke="#ffffff" xlink:href="#c"/>
</g>
<g clip-path="url(#a)">
<use x="496.751516" y="21.518027" fill="#ffffff" stroke="#ffffff" xlink:href="#c"/>
</g>
<g clip-path="url(#a)">
<use x="359.106579" y="93.382998" fill="#ffffff" stroke="#ffffff" xlink:href="#c"/>
</g>
<g clip-path="url(#a)">
<use x="235.086072" y="365.512292" fill="#ffffff" stroke="#ffffff" xlink:href="#c"/>
</g>
<g clip-path="url(#a)">
<use x="88.400627" y="299.209277" fill="#ffffff" stroke="#ffffff" xlink:href="#c"/>
</g>
<g clip-path="url(#a)">
<use x="137.295775" y="365.512292" fill="#ffffff" stroke="#ffffff" xlink:href="#c"/>
</g>
<g clip-path="url(#a)">
<use x="186.190924" y="365.512292" fill="#ffffff" stroke="#ffffff" xlink:href="#c"/>
</g>
<g clip-path="url(#a)">
<use x="283.981221" y="365.512292" fill="#ffffff" stroke="#ffffff" xlink:href="#c"/>
</g>
<g clip-path="url(#a)">
<use x="539.152778" y="163.464076" fill="#ffffff" stroke="#ffffff" xlink:href="#c"/>
</g>
<g clip-path="url(#a)">
<use x="577.352112" y="365.512292" fill="#ffffff" stroke="#ffffff" xlink:href="#c"/>
</g>
<g clip-path="url(#a)">
<use x="634.396452" y="231.983914" fill="#ffffff" stroke="#ffffff" xlink:href="#c"/>
</g>
<g clip-path="url(#a)">
<use x="675.14241" y="365.512292" fill="#ffffff" stroke="#ffffff" xlink:href="#c"/>
</g>
<g clip-path="url(#a)">
<use x="821.827855" y="365.512292" fill="#ffffff" stroke="#ffffff" xlink:href="#c"/>
</g>
<g clip-path="url(#a)">
<use x="39.505478" y="365.512292" fill="#ffffff" stroke="#ffffff" xlink:href="#c"/>
</g>
<g clip-path="url(#a)">
<use x="88.400627" y="365.512292" fill="#ffffff" stroke="#ffffff" xlink:href="#c"/>
</g>
<g clip-path="url(#a)">
<use x="424.554773" y="231.983914" fill="#ffffff" stroke="#ffffff" xlink:href="#c"/>
</g>
<g clip-path="url(#a)">
<use x="479.561815" y="365.512292" fill="#ffffff" stroke="#ffffff" xlink:href="#c"/>
</g>
<g clip-path="url(#a)">
<use x="528.456964" y="365.512292" fill="#ffffff" stroke="#ffffff" xlink:href="#c"/>
</g>
<g clip-path="url(#a)">
<use x="626.247261" y="365.512292" fill="#ffffff" stroke="#ffffff" xlink:href="#c"/>
</g>
<g clip-path="url(#a)">
<use x="748.485132" y="299.209277" fill="#ffffff" stroke="#ffffff" xlink:href="#c"/>
</g>
<g clip-path="url(#a)">
<use x="772.932707" y="365.512292" fill="#ffffff" stroke="#ffffff" xlink:href="#c"/>
</g>
<g clip-path="url(#a)">
<use x="332.876369" y="365.512292" fill="#ffffff" stroke="#ffffff" xlink:href="#c"/>
</g>
<g clip-path="url(#a)">
<use x="430.666667" y="299.209277" fill="#ffffff" stroke="#ffffff" xlink:href="#c"/>
</g>
<g clip-path="url(#a)">
<use x="381.771518" y="365.512292" fill="#ffffff" stroke="#ffffff" xlink:href="#c"/>
</g>
<g clip-path="url(#a)">
<use x="455.114241" y="299.209277" fill="#ffffff" stroke="#ffffff" xlink:href="#c"/>
</g>
<g clip-path="url(#a)">
<use x="430.666667" y="365.512292" fill="#ffffff" stroke="#ffffff" xlink:href="#c"/>
</g>
<g clip-path="url(#a)">
<use x="724.037558" y="365.512292" fill="#ffffff" stroke="#ffffff" xlink:href="#c"/>
</g>
<g clip-path="url(#a)">
<defs>
<path id="ac" d="m18.312 70.219v-15.531h18.5v-6.9844h-18.5v-29.688q0-6.6875 1.8281-8.5938t7.4531-1.9062h9.2188v-7.5156h-9.2188q-10.406 0-14.359 3.875-3.9531 3.8906-3.9531 14.141v29.688h-6.5938v6.9844h6.5938v15.531z"/>
<path id="ak" d="m54.891 33.016v-33.016h-8.9844v32.719q0 7.7656-3.0312 11.609-3.0312 3.8594-9.0781 3.8594-7.2812 0-11.484-4.6406-4.2031-4.625-4.2031-12.641v-30.906h-9.0312v75.984h9.0312v-29.797q3.2344 4.9375 7.5938 7.375 4.375 2.4375 10.094 2.4375 9.4219 0 14.25-5.8281 4.8438-5.8281 4.8438-17.156z"/>
</defs>
<g transform="translate(31.3 434.57) scale(.1 -.1)">
<use xlink:href="#ac"/>
<use x="39.208984" xlink:href="#ak"/>
<use x="102.587891" xlink:href="#e"/>
</g>
</g>
<g clip-path="url(#a)">
<defs>
<path id="ao" d="m18.109 8.2031v-29h-9.0312v75.484h9.0312v-8.2969q2.8438 4.875 7.1562 7.2344 4.3281 2.375 10.328 2.375 9.9688 0 16.188-7.9062 6.2344-7.9062 6.2344-20.797t-6.2344-20.812q-6.2188-7.9062-16.188-7.9062-6 0-10.328 2.375-4.3125 2.375-7.1562 7.25zm30.578 19.094q0 9.9062-4.0781 15.547t-11.203 5.6406q-7.1406 0-11.219-5.6406t-4.0781-15.547 4.0781-15.547 11.219-5.6406q7.125 0 11.203 5.6406t4.0781 15.547z"/>
<path id="r" d="m30.609 48.391q-7.2188 0-11.422-5.6406t-4.2031-15.453 4.1719-15.453q4.1875-5.6406 11.453-5.6406 7.1875 0 11.375 5.6562 4.2031 5.6719 4.2031 15.438 0 9.7188-4.2031 15.406-4.1875 5.6875-11.375 5.6875zm0 7.6094q11.719 0 18.406-7.625 6.7031-7.6094 6.7031-21.078 0-13.422-6.7031-21.078-6.6875-7.6406-18.406-7.6406-11.766 0-18.438 7.6406-6.6562 7.6562-6.6562 21.078 0 13.469 6.6562 21.078 6.6719 7.625 18.438 7.625z"/>
</defs>
<g transform="translate(63.251 434.57) scale(.1 -.1)">
<use xlink:href="#ac"/>
<use x="39.208984" xlink:href="#e"/>
<use x="100.732422" xlink:href="#i"/>
<use x="128.515625" xlink:href="#e"/>
<use x="190.039062" xlink:href="#ao"/>
<use x="253.515625" xlink:href="#ak"/>
<use x="316.894531" xlink:href="#r"/>
<use x="378.076172" xlink:href="#f"/>
<use x="441.455078" xlink:href="#e"/>
</g>
</g>
<g clip-path="url(#a)">
<defs>
<path id="ab" d="m8.5 21.578v33.109h8.9844v-32.766q0-7.7656 3.0156-11.656 3.0312-3.875 9.0938-3.875 7.2656 0 11.484 4.6406 4.2344 4.6406 4.2344 12.656v31h8.9844v-54.688h-8.9844v8.4062q-3.2656-4.9844-7.5938-7.4062-4.3125-2.4219-10.031-2.4219-9.4219 0-14.312 5.8594-4.875 5.8594-4.875 17.141z"/>
<path id="w" d="m48.688 27.297q0 9.9062-4.0781 15.547t-11.203 5.6406q-7.1406 0-11.219-5.6406t-4.0781-15.547 4.0781-15.547 11.219-5.6406q7.125 0 11.203 5.6406t4.0781 15.547zm-30.578 19.094q2.8438 4.875 7.1562 7.2344 4.3281 2.375 10.328 2.375 9.9688 0 16.188-7.9062 6.2344-7.9062 6.2344-20.797t-6.2344-20.812q-6.2188-7.9062-16.188-7.9062-6 0-10.328 2.375-4.3125 2.375-7.1562 7.25v-8.2031h-9.0312v75.984h9.0312z"/>
</defs>
<g transform="translate(117.78 434.57) scale(.1 -.1)">
<use xlink:href="#f"/>
<use x="63.378906" xlink:href="#ab"/>
<use x="126.757812" xlink:href="#j"/>
<use x="224.169922" xlink:href="#w"/>
<use x="287.646484" xlink:href="#e"/>
<use x="349.169922" xlink:href="#g"/>
</g>
</g>
<g clip-path="url(#a)">
<defs>
<path id="aj" d="m44.281 53.078v-8.5q-3.7969 1.9531-7.9062 2.9219-4.0938 0.98438-8.5 0.98438-6.6875 0-10.031-2.0469t-3.3438-6.1562q0-3.125 2.3906-4.9062t9.625-3.3906l3.0781-0.6875q9.5625-2.0469 13.594-5.7812t4.0312-10.422q0-7.625-6.0312-12.078-6.0312-4.4375-16.578-4.4375-4.3906 0-9.1562 0.85938t-10.031 2.5625v9.2812q4.9844-2.5938 9.8125-3.8906 4.8281-1.2812 9.5781-1.2812 6.3438 0 9.75 2.1719 3.4219 2.1719 3.4219 6.125 0 3.6562-2.4688 5.6094-2.4531 1.9531-10.812 3.7656l-3.125 0.73438q-8.3438 1.75-12.062 5.3906-3.7031 3.6406-3.7031 9.9844 0 7.7188 5.4688 11.906 5.4688 4.2031 15.531 4.2031 4.9688 0 9.3594-0.73438 4.4062-0.71875 8.1094-2.1875z"/>
</defs>
<g transform="translate(182.2 434.57) scale(.1 -.1)">
<use xlink:href="#h"/>
<use x="27.783203" xlink:href="#aj"/>
</g>
</g>
<g clip-path="url(#a)">
<defs>
<path id="ad" d="m48.781 52.594v-8.4062q-3.8125 2.1094-7.6406 3.1562t-7.7344 1.0469q-8.75 0-13.594-5.5469-4.8281-5.5312-4.8281-15.547t4.8281-15.562q4.8438-5.5312 13.594-5.5312 3.9062 0 7.7344 1.0469t7.6406 3.1562v-8.3125q-3.7656-1.75-7.7969-2.625-4.0156-0.89062-8.5625-0.89062-12.359 0-19.641 7.7656-7.2656 7.7656-7.2656 20.953 0 13.375 7.3438 21.031 7.3594 7.6719 20.156 7.6719 4.1406 0 8.0938-0.85938 3.9531-0.84375 7.6719-2.5469z"/>
</defs>
<g transform="translate(212.83 434.57) scale(.1 -.1)">
<use xlink:href="#h"/>
<use x="27.783203" xlink:href="#f"/>
<use x="91.162109" xlink:href="#ad"/>
<use x="146.142578" xlink:href="#r"/>
<use x="207.324219" xlink:href="#g"/>
<use x="248.421875" xlink:href="#g"/>
<use x="289.503906" xlink:href="#e"/>
<use x="351.027344" xlink:href="#ad"/>
<use x="406.007812" xlink:href="#ac"/>
</g>
</g>
<g clip-path="url(#a)">
<defs>
<path id="am" d="m4.8906 31.391h26.312v-8h-26.312z"/>
</defs>
<g transform="translate(282.18 434.57) scale(.1 -.1)">
<use xlink:href="#am"/>
</g>
</g>
<g clip-path="url(#a)">
<g transform="translate(324.59 434.57) scale(.1 -.1)">
<use xlink:href="#r"/>
<use x="61.181641" xlink:href="#ab"/>
<use x="124.560547" xlink:href="#g"/>
</g>
</g>
<g clip-path="url(#a)">
<defs>
<path id="an" d="m4.2031 54.688h8.9844l11.234-42.672 11.172 42.672h10.594l11.234-42.672 11.188 42.672h8.9844l-14.312-54.688h-10.594l-11.766 44.828-11.812-44.828h-10.609z"/>
</defs>
<g transform="translate(371.44 434.57) scale(.1 -.1)">
<use xlink:href="#f"/>
<use x="63.378906" xlink:href="#e"/>
<use x="124.902344" xlink:href="#an"/>
</g>
</g>
<g clip-path="url(#a)">
<g transform="translate(413.71 434.57) scale(.1 -.1)">
<use xlink:href="#j"/>
<use x="97.412109" xlink:href="#r"/>
<use x="158.59375" xlink:href="#w"/>
<use x="222.070312" xlink:href="#h"/>
<use x="249.853516" xlink:href="#i"/>
<use x="277.636719" xlink:href="#e"/>
</g>
</g>
<g clip-path="url(#a)">
<g transform="translate(460.05 434.57) scale(.1 -.1)">
<use xlink:href="#f"/>
<use x="63.378906" xlink:href="#ab"/>
<use x="126.757812" xlink:href="#j"/>
<use x="224.169922" xlink:href="#w"/>
<use x="287.646484" xlink:href="#e"/>
<use x="349.169922" xlink:href="#g"/>
</g>
</g>
<g clip-path="url(#a)">
<g transform="translate(524.46 434.57) scale(.1 -.1)">
<use xlink:href="#h"/>
<use x="27.783203" xlink:href="#aj"/>
</g>
</g>
<g clip-path="url(#a)">
<defs>
<path id="n" d="m31.781 66.406q-7.6094 0-11.453-7.5-3.8281-7.4844-3.8281-22.531 0-14.984 3.8281-22.484 3.8438-7.5 11.453-7.5 7.6719 0 11.5 7.5 3.8438 7.5 3.8438 22.484 0 15.047-3.8438 22.531-3.8281 7.5-11.5 7.5zm0 7.8125q12.266 0 18.734-9.7031 6.4688-9.6875 6.4688-28.141 0-18.406-6.4688-28.109-6.4688-9.6875-18.734-9.6875-12.25 0-18.719 9.6875-6.4688 9.7031-6.4688 28.109 0 18.453 6.4688 28.141 6.4688 9.7031 18.719 9.7031z"/>
<path id="t" d="m8.2031 72.906h46.875v-4.2031l-26.469-68.703h-10.297l24.906 64.594h-35.016z"/>
<path id="q" d="m10.797 72.906h38.719v-8.3125h-29.688v-17.859q2.1406 0.73438 4.2812 1.0938 2.1562 0.35938 4.3125 0.35938 12.203 0 19.328-6.6875 7.1406-6.6875 7.1406-18.109 0-11.766-7.3281-18.297-7.3281-6.5156-20.656-6.5156-4.5938 0-9.3594 0.78125-4.75 0.78125-9.8281 2.3438v9.9219q4.3906-2.3906 9.0781-3.5625t9.9062-1.1719q8.4531 0 13.375 4.4375 4.9375 4.4375 4.9375 12.062 0 7.6094-4.9375 12.047-4.9219 4.4531-13.375 4.4531-3.9531 0-7.8906-0.875-3.9219-0.875-8.0156-2.7344z"/>
<path id="b" d="m12.406 8.2969h16.109v55.625l-17.531-3.5156v8.9844l17.438 3.5156h9.8594v-64.609h16.109v-8.2969h-41.984z"/>
<path id="o" d="m40.578 39.312q7.0781-1.5156 11.047-6.3125 3.9844-4.7812 3.9844-11.812 0-10.781-7.4219-16.703-7.4219-5.9062-21.094-5.9062-4.5781 0-9.4375 0.90625t-10.031 2.7188v9.5156q4.0938-2.3906 8.9688-3.6094 4.8906-1.2188 10.219-1.2188 9.2656 0 14.125 3.6562t4.8594 10.641q0 6.4531-4.5156 10.078-4.5156 3.6406-12.562 3.6406h-8.5v8.1094h8.8906q7.2656 0 11.125 2.9062t3.8594 8.375q0 5.6094-3.9844 8.6094-3.9688 3.0156-11.391 3.0156-4.0625 0-8.7031-0.89062-4.6406-0.875-10.203-2.7188v8.7812q5.625 1.5625 10.531 2.3438t9.25 0.78125q11.234 0 17.766-5.1094 6.5469-5.0938 6.5469-13.781 0-6.0625-3.4688-10.234t-9.8594-5.7812z"/>
<path id="m" d="m19.188 8.2969h34.422v-8.2969h-46.281v8.2969q5.6094 5.8125 15.297 15.594 9.7031 9.7969 12.188 12.641 4.7344 5.3125 6.6094 9 1.8906 3.6875 1.8906 7.25 0 5.8125-4.0781 9.4688-4.0781 3.6719-10.625 3.6719-4.6406 0-9.7969-1.6094-5.1406-1.6094-11-4.8906v9.9688q5.9531 2.3906 11.125 3.6094 5.1875 1.2188 9.4844 1.2188 11.328 0 18.062-5.6719 6.7344-5.6562 6.7344-15.125 0-4.5-1.6875-8.5312-1.6719-4.0156-6.125-9.4844-1.2188-1.4219-7.7656-8.1875-6.5312-6.7656-18.453-18.922z"/>
</defs>
<g transform="translate(542.36 434.57) scale(.1 -.1)">
<use xlink:href="#n"/>
<use x="63.623047" xlink:href="#t"/>
<use x="127.246094" xlink:href="#q"/>
<use x="190.869141" xlink:href="#q"/>
<use x="254.492188" xlink:href="#b"/>
<use x="318.115234" xlink:href="#o"/>
<use x="381.738281" xlink:href="#b"/>
<use x="445.361328" xlink:href="#n"/>
<use x="508.984375" xlink:href="#n"/>
<use x="572.607422" xlink:href="#n"/>
<use x="636.230469" xlink:href="#m"/>
</g>
</g>
<g clip-path="url(#a)">
<g transform="translate(621.13 434.57) scale(.1 -.1)">
<use xlink:href="#r"/>
<use x="61.181641" xlink:href="#g"/>
</g>
</g>
<g clip-path="url(#a)">
<defs>
<path id="ap" d="m45.406 46.391v29.594h8.9844v-75.984h-8.9844v8.2031q-2.8281-4.875-7.1562-7.25-4.3125-2.375-10.375-2.375-9.9062 0-16.141 7.9062-6.2188 7.9219-6.2188 20.812t6.2188 20.797q6.2344 7.9062 16.141 7.9062 6.0625 0 10.375-2.375 4.3281-2.3594 7.1562-7.2344zm-30.609-19.094q0-9.9062 4.0781-15.547t11.203-5.6406 11.219 5.6406q4.1094 5.6406 4.1094 15.547t-4.1094 15.547q-4.0938 5.6406-11.219 5.6406t-11.203-5.6406-4.0781-15.547z"/>
</defs>
<g transform="translate(655.32 434.57) scale(.1 -.1)">
<use xlink:href="#i"/>
<use x="27.783203" xlink:href="#k"/>
<use x="89.0625" xlink:href="#f"/>
<use x="152.441406" xlink:href="#ap"/>
<use x="215.917969" xlink:href="#i"/>
<use x="243.701172" xlink:href="#h"/>
<use x="271.484375" xlink:href="#f"/>
<use x="334.863281" xlink:href="#e"/>
</g>
</g>
<g clip-path="url(#a)">
<defs>
<path id="u" d="m33.016 40.375q-6.6406 0-10.531-4.5469-3.875-4.5312-3.875-12.438 0-7.8594 3.875-12.438 3.8906-4.5625 10.531-4.5625t10.516 4.5625q3.875 4.5781 3.875 12.438 0 7.9062-3.875 12.438-3.875 4.5469-10.516 4.5469zm19.578 30.922v-8.9844q-3.7188 1.75-7.5 2.6719-3.7812 0.9375-7.5 0.9375-9.7656 0-14.922-6.5938-5.1406-6.5938-5.875-19.922 2.875 4.25 7.2188 6.5156 4.3594 2.2656 9.5781 2.2656 10.984 0 17.359-6.6719 6.375-6.6562 6.375-18.125 0-11.234-6.6406-18.031-6.6406-6.7812-17.672-6.7812-12.656 0-19.344 9.6875-6.6875 9.7031-6.6875 28.109 0 17.281 8.2031 27.562t22.016 10.281q3.7188 0 7.5-0.73438t7.8906-2.1875z"/>
<path id="v" d="m37.797 64.312-24.906-38.922h24.906zm-2.5938 8.5938h12.406v-47.516h10.406v-8.2031h-10.406v-17.188h-9.8125v17.188h-32.906v9.5156z"/>
</defs>
<g transform="translate(708.13 434.57) scale(.1 -.1)">
<use xlink:href="#n"/>
<use x="63.623047" xlink:href="#b"/>
<use x="127.246094" xlink:href="#u"/>
<use x="190.869141" xlink:href="#o"/>
<use x="254.492188" xlink:href="#v"/>
</g>
</g>
<g clip-path="url(#a)">
<g transform="translate(753.85 434.57) scale(.1 -.1)">
<use xlink:href="#t"/>
<use x="63.623047" xlink:href="#b"/>
<use x="127.246094" xlink:href="#n"/>
<use x="190.869141" xlink:href="#n"/>
<use x="254.492188" xlink:href="#o"/>
<use x="318.115234" xlink:href="#o"/>
</g>
</g>
<g clip-path="url(#a)">
<defs>
<path id="d" d="m10.688 12.406h10.312v-12.406h-10.312z"/>
</defs>
<g transform="translate(820.24 434.57) scale(.1 -.1)">
<use xlink:href="#d"/>
</g>
</g>
<g clip-path="url(#a)">
<g transform="translate(488.8 24.277) scale(.1 -.1)">
<use xlink:href="#b"/>
<use x="63.623047" xlink:href="#d"/>
<use x="95.410156" xlink:href="#b"/>
</g>
</g>
<g clip-path="url(#a)">
<g transform="translate(351.16 96.142) scale(.1 -.1)">
<use xlink:href="#b"/>
<use x="63.623047" xlink:href="#d"/>
<use x="95.410156" xlink:href="#m"/>
</g>
</g>
<g clip-path="url(#a)">
<g transform="translate(227.13 368.27) scale(.1 -.1)">
<use xlink:href="#b"/>
<use x="63.623047" xlink:href="#d"/>
<use x="95.410156" xlink:href="#o"/>
</g>
</g>
<g clip-path="url(#a)">
<g transform="translate(80.449 301.97) scale(.1 -.1)">
<use xlink:href="#b"/>
<use x="63.623047" xlink:href="#d"/>
<use x="95.410156" xlink:href="#v"/>
</g>
</g>
<g clip-path="url(#a)">
<g transform="translate(129.34 368.27) scale(.1 -.1)">
<use xlink:href="#b"/>
<use x="63.623047" xlink:href="#d"/>
<use x="95.410156" xlink:href="#q"/>
</g>
</g>
<g clip-path="url(#a)">
<g transform="translate(178.24 368.27) scale(.1 -.1)">
<use xlink:href="#b"/>
<use x="63.623047" xlink:href="#d"/>
<use x="95.410156" xlink:href="#u"/>
</g>
</g>
<g clip-path="url(#a)">
<g transform="translate(276.03 368.27) scale(.1 -.1)">
<use xlink:href="#b"/>
<use x="63.623047" xlink:href="#d"/>
<use x="95.410156" xlink:href="#t"/>
</g>
</g>
<g clip-path="url(#a)">
<defs>
<path id="ai" d="m31.781 34.625q-7.0312 0-11.062-3.7656-4.0156-3.7656-4.0156-10.344 0-6.5938 4.0156-10.359 4.0312-3.7656 11.062-3.7656t11.078 3.7812q4.0625 3.7969 4.0625 10.344 0 6.5781-4.0312 10.344-4.0156 3.7656-11.109 3.7656zm-9.8594 4.1875q-6.3438 1.5625-9.8906 5.9062-3.5312 4.3594-3.5312 10.609 0 8.7344 6.2188 13.812 6.2344 5.0781 17.062 5.0781 10.891 0 17.094-5.0781t6.2031-13.812q0-6.25-3.5469-10.609-3.5312-4.3438-9.8281-5.9062 7.125-1.6562 11.094-6.5 3.9844-4.8281 3.9844-11.797 0-10.609-6.4688-16.281-6.4688-5.6562-18.531-5.6562-12.047 0-18.531 5.6562-6.4688 5.6719-6.4688 16.281 0 6.9688 4 11.797 4.0156 4.8438 11.141 6.5zm-3.6094 15.578q0-5.6562 3.5312-8.8281 3.5469-3.1719 9.9375-3.1719 6.3594 0 9.9375 3.1719 3.5938 3.1719 3.5938 8.8281 0 5.6719-3.5938 8.8438-3.5781 3.1719-9.9375 3.1719-6.3906 0-9.9375-3.1719-3.5312-3.1719-3.5312-8.8438z"/>
</defs>
<g transform="translate(531.2 166.22) scale(.1 -.1)">
<use xlink:href="#b"/>
<use x="63.623047" xlink:href="#d"/>
<use x="95.410156" xlink:href="#ai"/>
</g>
</g>
<g clip-path="url(#a)">
<defs>
<path id="ah" d="m10.984 1.5156v8.9844q3.7188-1.7656 7.5156-2.6875 3.8125-0.92188 7.4844-0.92188 9.7656 0 14.906 6.5625 5.1562 6.5625 5.8906 19.953-2.8281-4.2031-7.1875-6.4531-4.3438-2.25-9.6094-2.25-10.938 0-17.312 6.6094-6.375 6.625-6.375 18.109 0 11.219 6.6406 18 6.6406 6.7969 17.672 6.7969 12.656 0 19.312-9.7031 6.6719-9.6875 6.6719-28.141 0-17.234-8.1875-27.516-8.1719-10.281-21.984-10.281-3.7188 0-7.5312 0.73438-3.7969 0.73438-7.9062 2.2031zm19.625 30.906q6.6406 0 10.516 4.5312 3.8906 4.5469 3.8906 12.469 0 7.8594-3.8906 12.422-3.875 4.5625-10.516 4.5625t-10.516-4.5625-3.875-12.422q0-7.9219 3.875-12.469 3.875-4.5312 10.516-4.5312z"/>
</defs>
<g transform="translate(569.4 368.27) scale(.1 -.1)">
<use xlink:href="#b"/>
<use x="63.623047" xlink:href="#d"/>
<use x="95.410156" xlink:href="#ah"/>
</g>
</g>
<g clip-path="url(#a)">
<g transform="translate(623.26 234.74) scale(.1 -.1)">
<use xlink:href="#b"/>
<use x="63.623047" xlink:href="#d"/>
<use x="95.410156" xlink:href="#b"/>
<use x="159.033203" xlink:href="#n"/>
</g>
</g>
<g clip-path="url(#a)">
<g transform="translate(664.01 368.27) scale(.1 -.1)">
<use xlink:href="#b"/>
<use x="63.623047" xlink:href="#d"/>
<use x="95.410156" xlink:href="#b"/>
<use x="159.033203" xlink:href="#b"/>
</g>
</g>
<g clip-path="url(#a)">
<g transform="translate(810.7 368.27) scale(.1 -.1)">
<use xlink:href="#b"/>
<use x="63.623047" xlink:href="#d"/>
<use x="95.410156" xlink:href="#b"/>
<use x="159.033203" xlink:href="#m"/>
</g>
</g>
<g clip-path="url(#a)">
<g transform="translate(28.373 368.27) scale(.1 -.1)">
<use xlink:href="#b"/>
<use x="63.623047" xlink:href="#d"/>
<use x="95.410156" xlink:href="#b"/>
<use x="159.033203" xlink:href="#o"/>
</g>
</g>
<g clip-path="url(#a)">
<g transform="translate(77.268 368.27) scale(.1 -.1)">
<use xlink:href="#b"/>
<use x="63.623047" xlink:href="#d"/>
<use x="95.410156" xlink:href="#b"/>
<use x="159.033203" xlink:href="#v"/>
</g>
</g>
<g clip-path="url(#a)">
<g transform="translate(413.42 234.74) scale(.1 -.1)">
<use xlink:href="#b"/>
<use x="63.623047" xlink:href="#d"/>
<use x="95.410156" xlink:href="#b"/>
<use x="159.033203" xlink:href="#q"/>
</g>
</g>
<g clip-path="url(#a)">
<g transform="translate(468.43 368.27) scale(.1 -.1)">
<use xlink:href="#b"/>
<use x="63.623047" xlink:href="#d"/>
<use x="95.410156" xlink:href="#b"/>
<use x="159.033203" xlink:href="#u"/>
</g>
</g>
<g clip-path="url(#a)">
<g transform="translate(517.32 368.27) scale(.1 -.1)">
<use xlink:href="#b"/>
<use x="63.623047" xlink:href="#d"/>
<use x="95.410156" xlink:href="#b"/>
<use x="159.033203" xlink:href="#t"/>
</g>
</g>
<g clip-path="url(#a)">
<g transform="translate(615.11 368.27) scale(.1 -.1)">
<use xlink:href="#b"/>
<use x="63.623047" xlink:href="#d"/>
<use x="95.410156" xlink:href="#b"/>
<use x="159.033203" xlink:href="#ai"/>
</g>
</g>
<g clip-path="url(#a)">
<g transform="translate(737.35 301.97) scale(.1 -.1)">
<use xlink:href="#b"/>
<use x="63.623047" xlink:href="#d"/>
<use x="95.410156" xlink:href="#b"/>
<use x="159.033203" xlink:href="#ah"/>
</g>
</g>
<g clip-path="url(#a)">
<g transform="translate(761.8 368.27) scale(.1 -.1)">
<use xlink:href="#b"/>
<use x="63.623047" xlink:href="#d"/>
<use x="95.410156" xlink:href="#m"/>
<use x="159.033203" xlink:href="#n"/>
</g>
</g>
<g clip-path="url(#a)">
<g transform="translate(321.74 368.27) scale(.1 -.1)">
<use xlink:href="#b"/>
<use x="63.623047" xlink:href="#d"/>
<use x="95.410156" xlink:href="#m"/>
<use x="159.033203" xlink:href="#b"/>
</g>
</g>
<g clip-path="url(#a)">
<g transform="translate(419.53 301.97) scale(.1 -.1)">
<use xlink:href="#b"/>
<use x="63.623047" xlink:href="#d"/>
<use x="95.410156" xlink:href="#m"/>
<use x="159.033203" xlink:href="#m"/>
</g>
</g>
<g clip-path="url(#a)">
<g transform="translate(370.64 368.27) scale(.1 -.1)">
<use xlink:href="#b"/>
<use x="63.623047" xlink:href="#d"/>
<use x="95.410156" xlink:href="#m"/>
<use x="159.033203" xlink:href="#o"/>
</g>
</g>
<g clip-path="url(#a)">
<g transform="translate(443.98 301.97) scale(.1 -.1)">
<use xlink:href="#b"/>
<use x="63.623047" xlink:href="#d"/>
<use x="95.410156" xlink:href="#m"/>
<use x="159.033203" xlink:href="#v"/>
</g>
</g>
<g clip-path="url(#a)">
<g transform="translate(419.53 368.27) scale(.1 -.1)">
<use xlink:href="#b"/>
<use x="63.623047" xlink:href="#d"/>
<use x="95.410156" xlink:href="#m"/>
<use x="159.033203" xlink:href="#q"/>
</g>
</g>
<g clip-path="url(#a)">
<g transform="translate(712.9 368.27) scale(.1 -.1)">
<use xlink:href="#b"/>
<use x="63.623047" xlink:href="#d"/>
<use x="95.410156" xlink:href="#m"/>
<use x="159.033203" xlink:href="#u"/>
</g>
</g>
<defs>
<clipPath id="a">
<rect width="861.33" height="453.33"/>
</clipPath>
</defs>
</svg>
