<?xml version="1.0" encoding="UTF-8"?>
<!DOCTYPE svg  PUBLIC '-//W3C//DTD SVG 1.1//EN'  'http://www.w3.org/Graphics/SVG/1.1/DTD/svg11.dtd'>
<svg width="1266.7pt" height="666.67pt" version="1.1" viewBox="0 0 1266.7 666.67" xmlns="http://www.w3.org/2000/svg" xmlns:xlink="http://www.w3.org/1999/xlink">
<defs>
<style type="text/css">*{stroke-linecap:butt;stroke-linejoin:round;}</style>
</defs>
<path d="m0 666.67h1266.7v-666.67h-1266.7z" fill="#fff"/>
<g fill="none" stroke="#000">
<path d="m311.48 31.077 136.01 355" clip-path="url(#a)"/>
<path d="m311.48 31.077-253.66 521.73" clip-path="url(#a)"/>
<path d="m311.48 31.077-13.863 521.73" clip-path="url(#a)"/>
<path d="m311.48 31.077 131.52 92.21" clip-path="url(#a)"/>
<path d="m447.49 386.08-197.84 166.73" clip-path="url(#a)"/>
<path d="m447.49 386.08-317.74 83.938" clip-path="url(#a)"/>
<path d="m447.49 386.08-245.8 166.73" clip-path="url(#a)"/>
<path d="m447.49 386.08 761.37 166.73" clip-path="url(#a)"/>
<path d="m249.65 552.8v82.787" clip-path="url(#a)"/>
<path d="m57.812 552.8v82.787" clip-path="url(#a)"/>
<path d="m129.75 470.02 23.98 82.787" clip-path="url(#a)"/>
<path d="m129.75 470.02-23.98 82.787" clip-path="url(#a)"/>
<path d="m153.73 552.8v82.787" clip-path="url(#a)"/>
<path d="m201.69 552.8v82.787" clip-path="url(#a)"/>
<path d="m297.61 552.8v82.787" clip-path="url(#a)"/>
<path d="m442.99 123.29-1.4988 429.52" clip-path="url(#a)"/>
<path d="m442.99 123.29-97.419 429.52" clip-path="url(#a)"/>
<path d="m442.99 123.29-49.459 429.52" clip-path="url(#a)"/>
<path d="m442.99 123.29 148.38 89.731" clip-path="url(#a)"/>
<path d="m441.49 552.8v82.787" clip-path="url(#a)"/>
<path d="m1208.9 552.8v82.787" clip-path="url(#a)"/>
<path d="m105.77 552.8v82.787" clip-path="url(#a)"/>
<path d="m345.57 552.8v82.787" clip-path="url(#a)"/>
<path d="m393.53 552.8v82.787" clip-path="url(#a)"/>
<path d="m591.37 213.02-53.955 339.78" clip-path="url(#a)"/>
<path d="m591.37 213.02-101.92 339.78" clip-path="url(#a)"/>
<path d="m591.37 213.02 155.87 87.504" clip-path="url(#a)"/>
<path d="m537.41 552.8v82.787" clip-path="url(#a)"/>
<path d="m489.45 552.8v82.787" clip-path="url(#a)"/>
<path d="m747.24 300.52 29.975 252.28" clip-path="url(#a)"/>
<path d="m747.24 300.52-161.87 252.28" clip-path="url(#a)"/>
<path d="m747.24 300.52-41.965 169.49" clip-path="url(#a)"/>
<path d="m747.24 300.52-17.985 169.49" clip-path="url(#a)"/>
<path d="m747.24 300.52-17.985 252.28" clip-path="url(#a)"/>
<path d="m747.24 300.52 209.83 85.555" clip-path="url(#a)"/>
<path d="m777.21 552.8v82.787" clip-path="url(#a)"/>
<path d="m585.37 552.8v82.787" clip-path="url(#a)"/>
<path d="m705.27 470.02 71.94 82.787" clip-path="url(#a)" stroke-dasharray="3.7,1.6"/>
<path d="m705.27 470.02-71.94 82.787" clip-path="url(#a)"/>
<path d="m633.33 552.8v82.787" clip-path="url(#a)"/>
<path d="m729.25 470.02 47.96 82.787" clip-path="url(#a)" stroke-dasharray="3.7,1.6"/>
<path d="m729.25 470.02-47.96 82.787" clip-path="url(#a)"/>
<path d="m681.29 552.8v82.787" clip-path="url(#a)"/>
<path d="m729.25 552.8v82.787" clip-path="url(#a)"/>
<path d="m957.06 386.08-35.97 166.73" clip-path="url(#a)"/>
<path d="m957.06 386.08-131.89 166.73" clip-path="url(#a)"/>
<path d="m957.06 386.08-35.97 166.73" clip-path="url(#a)"/>
<path d="m957.06 386.08 59.95 166.73" clip-path="url(#a)"/>
<path d="m957.06 386.08 143.88 83.938" clip-path="url(#a)"/>
<path d="m921.09 552.8-47.96 82.787" clip-path="url(#a)"/>
<path d="m921.09 552.8 47.96 82.787" clip-path="url(#a)"/>
<path d="m825.17 552.8v82.787" clip-path="url(#a)"/>
<path d="m921.09 552.8v82.787" clip-path="url(#a)"/>
<path d="m1017 552.8v82.787" clip-path="url(#a)"/>
<path d="m1100.9 470.02 35.97 82.787" clip-path="url(#a)"/>
<path d="m1100.9 470.02-35.97 82.787" clip-path="url(#a)"/>
<path d="m1136.9 552.8-23.98 82.787" clip-path="url(#a)"/>
<path d="m1136.9 552.8 23.98 82.787" clip-path="url(#a)"/>
<path d="m1065 552.8v82.787" clip-path="url(#a)"/>
</g>
<path d="m372.55 208.01 2.1524 5.618q0.85865 2.2411 3.0998 1.3825l7.23-2.7701q2.2411-0.85865 1.3825-3.0998l-2.1524-5.618q-0.85865-2.2411-3.0998-1.3825l-7.23 2.7701q-2.2411 0.85865-1.3825 3.0998z" clip-path="url(#a)" fill="#fff" stroke="#fff"/>
<g clip-path="url(#a)">
<defs>
<path id="t" d="m9.8125 72.906h9.8594v-29.891h35.844v29.891h9.8594v-72.906h-9.8594v34.719h-35.844v-34.719h-9.8594z"/>
</defs>
<g transform="translate(376.34 206.56) rotate(69.037) scale(.08 -.08)">
<use xlink:href="#t"/>
</g>
</g>
<path d="m188.97 297.39 2.6307-5.4106q1.0494-2.1584-1.109-3.2078l-6.9631-3.3855q-2.1584-1.0494-3.2078 1.109l-2.6307 5.4106q-1.0494 2.1584 1.109 3.2078l6.9631 3.3855q2.1584 1.0494 3.2078-1.109z" clip-path="url(#a)" fill="#fff" stroke="#fff"/>
<g clip-path="url(#a)">
<g transform="translate(185.31 295.61) rotate(-64.071) scale(.08 -.08)">
<use xlink:href="#t"/>
</g>
</g>
<path d="m310.75 294.33 0.1184-4.4559q0.063751-2.3992-2.3354-2.4629l-7.7398-0.20566q-2.3992-0.063751-2.4629 2.3354l-0.1184 4.4559q-0.063751 2.3992 2.3354 2.4629l7.7398 0.20566q2.3992 0.063752 2.4629-2.3354z" clip-path="url(#a)" fill="#fff" stroke="#fff"/>
<g clip-path="url(#a)">
<defs>
<path id="as" d="m9.8125 72.906h9.8594v-64.609h35.5v-8.2969h-45.359z"/>
</defs>
<g transform="translate(306.69 294.23) rotate(-88.478) scale(.08 -.08)">
<use xlink:href="#as"/>
</g>
</g>
<path d="m371.17 80.59 4.9261 3.4538q1.9651 1.3778 3.3429-0.58731l4.4448-6.3395q1.3778-1.9651-0.58731-3.3429l-4.9261-3.4538q-1.9651-1.3778-3.3429 0.58731l-4.4448 6.3395q-1.3778 1.9651 0.58731 3.3429z" clip-path="url(#a)" fill="#fff" stroke="#fff"/>
<g clip-path="url(#a)">
<g transform="translate(373.5 77.263) rotate(35.036) scale(.08 -.08)">
<use xlink:href="#t"/>
</g>
</g>
<path d="m350.77 475.79 3.6886-3.1085q1.8352-1.5466 0.28859-3.3818l-4.9894-5.9205q-1.5466-1.8352-3.3818-0.28859l-3.6886 3.1085q-1.8352 1.5466-0.28859 3.3818l4.9894 5.9205q1.5466 1.8352 3.3818 0.28859z" clip-path="url(#a)" fill="#fff" stroke="#fff"/>
<g clip-path="url(#a)">
<defs>
<path id="aj" d="m19.672 64.797v-27.391h12.406q6.8906 0 10.641 3.5625 3.7656 3.5625 3.7656 10.156 0 6.5469-3.7656 10.109-3.75 3.5625-10.641 3.5625zm-9.8594 8.1094h22.266q12.266 0 18.531-5.5469 6.2812-5.5469 6.2812-16.234 0-10.797-6.2812-16.312-6.2656-5.5156-18.531-5.5156h-12.406v-29.297h-9.8594z"/>
</defs>
<g transform="translate(348.15 472.68) rotate(-40.122) scale(.08 -.08)">
<use xlink:href="#aj"/>
</g>
</g>
<path d="m287.58 434.81 5.291-1.3978q2.3204-0.613 1.7074-2.9334l-1.9775-7.4857q-0.613-2.3204-2.9334-1.7074l-5.291 1.3978q-2.3204 0.61299-1.7074 2.9334l1.9775 7.4857q0.613 2.3204 2.9334 1.7074z" clip-path="url(#a)" fill="#fff" stroke="#fff"/>
<g clip-path="url(#a)">
<defs>
<path id="n" d="m34.188 63.188-13.391-36.281h26.812zm-5.5781 9.7188h11.188l27.781-72.906h-10.25l-6.6406 18.703h-32.859l-6.6406-18.703h-10.406z"/>
</defs>
<g transform="translate(286.54 430.88) rotate(-14.798) scale(.08 -.08)">
<use xlink:href="#n"/>
</g>
</g>
<path d="m326.21 475.92 3.8079-2.5829q1.9862-1.3472 0.63894-3.3334l-4.3463-6.4075q-1.3472-1.9862-3.3334-0.63894l-3.8079 2.5829q-1.9862 1.3472-0.63894 3.3334l4.3463 6.4075q1.3472 1.9862 3.3334 0.63894z" clip-path="url(#a)" fill="#fff" stroke="#fff"/>
<g clip-path="url(#a)">
<defs>
<path id="w" d="m9.8125 72.906h41.891v-8.3125h-32.031v-21.484h28.906v-8.2969h-28.906v-34.812h-9.8594z"/>
</defs>
<g transform="translate(323.93 472.56) rotate(-34.149) scale(.08 -.08)">
<use xlink:href="#w"/>
</g>
</g>
<path d="m823.97 474.94 5.7195 1.2525q2.3444 0.51339 2.8578-1.8311l1.6562-7.5633q0.51339-2.3444-1.8311-2.8578l-5.7195-1.2525q-2.3444-0.51339-2.8578 1.8311l-1.6562 7.5633q-0.51339 2.3444 1.8311 2.8578z" clip-path="url(#a)" fill="#fff" stroke="#fff"/>
<g clip-path="url(#a)">
<defs>
<path id="ah" d="m8.6875 72.906h9.9219v-44.297q0-11.719 4.2344-16.875 4.25-5.1406 13.781-5.1406 9.4688 0 13.719 5.1406 4.25 5.1562 4.25 16.875v44.297h9.9062v-45.516q0-14.25-7.0625-21.531-7.0469-7.2812-20.812-7.2812-13.828 0-20.891 7.2812-7.0469 7.2812-7.0469 21.531z"/>
</defs>
<g transform="translate(824.84 470.97) rotate(12.352) scale(.08 -.08)">
<use xlink:href="#ah"/>
</g>
</g>
<path d="m243.38 576.55v35.285q0 2.4 2.4 2.4h7.7425q2.4 0 2.4-2.4v-35.285q0-2.4-2.4-2.4h-7.7425q-2.4 0-2.4 2.4z" clip-path="url(#a)" fill="#fff" stroke="#fff"/>
<g clip-path="url(#a)">
<defs>
<path id="l" d="m-0.29688 72.906h61.672v-8.3125h-25.875v-64.594h-9.9062v64.594h-25.891z"/>
<path id="e" d="m56.203 29.594v-4.3906h-41.312q0.59375-9.2812 5.5938-14.141t13.938-4.8594q5.1719 0 10.031 1.2656t9.6562 3.8125v-8.5q-4.8438-2.0469-9.9219-3.125t-10.297-1.0781q-13.094 0-20.734 7.6094-7.6406 7.625-7.6406 20.625 0 13.422 7.25 21.297 7.25 7.8906 19.562 7.8906 11.031 0 17.453-7.1094 6.4219-7.0938 6.4219-19.297zm-8.9844 2.6406q-0.09375 7.3594-4.125 11.75-4.0312 4.4062-10.672 4.4062-7.5156 0-12.031-4.25t-5.2031-11.969z"/>
<path id="j" d="m41.109 46.297q-1.5156 0.875-3.2969 1.2812-1.7812 0.42188-3.9219 0.42188-7.625 0-11.703-4.9531t-4.0781-14.234v-28.812h-9.0312v54.688h9.0312v-8.5q2.8438 4.9844 7.375 7.3906 4.5469 2.4219 11.047 2.4219 0.92188 0 2.0469-0.125 1.125-0.10938 2.4844-0.35938z"/>
<path id="k" d="m52 44.188q3.375 6.0625 8.0625 8.9375t11.031 2.875q8.5469 0 13.188-5.9844 4.6406-5.9688 4.6406-17v-33.016h-9.0312v32.719q0 7.8594-2.7969 11.656-2.7812 3.8125-8.4844 3.8125-6.9844 0-11.047-4.6406-4.0469-4.625-4.0469-12.641v-30.906h-9.0312v32.719q0 7.9062-2.7812 11.688t-8.5938 3.7812q-6.8906 0-10.953-4.6562-4.0469-4.6562-4.0469-12.625v-30.906h-9.0312v54.688h9.0312v-8.5q3.0781 5.0312 7.375 7.4219t10.203 2.3906q5.9688 0 10.141-3.0312 4.1719-3.0156 6.1719-8.7812z"/>
<path id="g" d="m9.4219 54.688h8.9844v-54.688h-8.9844zm0 21.297h8.9844v-11.391h-8.9844z"/>
<path id="d" d="m54.891 33.016v-33.016h-8.9844v32.719q0 7.7656-3.0312 11.609-3.0312 3.8594-9.0781 3.8594-7.2812 0-11.484-4.6406-4.2031-4.625-4.2031-12.641v-30.906h-9.0312v54.688h9.0312v-8.5q3.2344 4.9375 7.5938 7.375 4.375 2.4375 10.094 2.4375 9.4219 0 14.25-5.8281 4.8438-5.8281 4.8438-17.156z"/>
<path id="h" d="m34.281 27.484q-10.891 0-15.094-2.4844t-4.2031-8.5q0-4.7812 3.1562-7.5938 3.1562-2.7969 8.5625-2.7969 7.4844 0 12 5.2969t4.5156 14.078v2zm17.922 3.7188v-31.203h-8.9844v8.2969q-3.0781-4.9688-7.6719-7.3438t-11.234-2.375q-8.3906 0-13.359 4.7188-4.9531 4.7188-4.9531 12.625 0 9.2188 6.1719 13.906 6.1875 4.6875 18.438 4.6875h12.609v0.89062q0 6.2031-4.0781 9.5938t-11.453 3.3906q-4.6875 0-9.1406-1.125-4.4375-1.125-8.5312-3.375v8.3125q4.9219 1.9062 9.5625 2.8438 4.6406 0.95312 9.0312 0.95312 11.875 0 17.734-6.1562 5.8594-6.1406 5.8594-18.641z"/>
<path id="i" d="m9.4219 75.984h8.9844v-75.984h-8.9844z"/>
</defs>
<g transform="translate(247.44 576.55) rotate(90) scale(.08 -.08)">
<use xlink:href="#l"/>
<use x="60.818359" xlink:href="#e"/>
<use x="122.341797" xlink:href="#j"/>
<use x="163.439453" xlink:href="#k"/>
<use x="260.851562" xlink:href="#g"/>
<use x="288.634766" xlink:href="#d"/>
<use x="352.013672" xlink:href="#h"/>
<use x="413.292969" xlink:href="#i"/>
</g>
</g>
<path d="m51.541 576.55v35.285q0 2.4 2.4 2.4h7.7425q2.4 0 2.4-2.4v-35.285q0-2.4-2.4-2.4h-7.7425q-2.4 0-2.4 2.4z" clip-path="url(#a)" fill="#fff" stroke="#fff"/>
<g clip-path="url(#a)">
<g transform="translate(55.604 576.55) rotate(90) scale(.08 -.08)">
<use xlink:href="#l"/>
<use x="60.818359" xlink:href="#e"/>
<use x="122.341797" xlink:href="#j"/>
<use x="163.439453" xlink:href="#k"/>
<use x="260.851562" xlink:href="#g"/>
<use x="288.634766" xlink:href="#d"/>
<use x="352.013672" xlink:href="#h"/>
<use x="413.292969" xlink:href="#i"/>
</g>
</g>
<path d="m134.94 510.47 1.5542 5.3657q0.66774 2.3052 2.973 1.6375l7.4368-2.1541q2.3052-0.66774 1.6375-2.973l-1.5542-5.3657q-0.66774-2.3052-2.973-1.6375l-7.4368 2.1541q-2.3052 0.66774-1.6375 2.973z" clip-path="url(#a)" fill="#fff" stroke="#fff"/>
<g clip-path="url(#a)">
<defs>
<path id="q" d="m64.406 67.281v-10.391q-4.9844 4.6406-10.625 6.9219-5.6406 2.2969-11.984 2.2969-12.5 0-19.141-7.6406t-6.6406-22.094q0-14.406 6.6406-22.047t19.141-7.6406q6.3438 0 11.984 2.2969t10.625 6.9375v-10.312q-5.1719-3.5156-10.969-5.2812-5.7812-1.75-12.219-1.75-16.562 0-26.094 10.125-9.5156 10.141-9.5156 27.672 0 17.578 9.5156 27.703 9.5312 10.141 26.094 10.141 6.5312 0 12.312-1.7344 5.7969-1.7344 10.875-5.2031z"/>
</defs>
<g transform="translate(138.84 509.34) rotate(73.846) scale(.08 -.08)">
<use xlink:href="#q"/>
</g>
</g>
<path d="m123.08 515.58 1.4064-4.8554q0.66774-2.3052-1.6375-2.973l-7.4368-2.1541q-2.3052-0.66774-2.973 1.6375l-1.4064 4.8554q-0.66774 2.3052 1.6375 2.973l7.4368 2.1541q2.3052 0.66774 2.973-1.6375z" clip-path="url(#a)" fill="#fff" stroke="#fff"/>
<g clip-path="url(#a)">
<defs>
<path id="p" d="m9.8125 72.906h46.094v-8.3125h-36.234v-21.578h34.719v-8.2969h-34.719v-26.422h37.109v-8.2969h-46.969z"/>
</defs>
<g transform="translate(119.18 514.45) rotate(-73.846) scale(.08 -.08)">
<use xlink:href="#p"/>
</g>
</g>
<path d="m147.46 576.55v35.285q0 2.4 2.4 2.4h7.7425q2.4 0 2.4-2.4v-35.285q0-2.4-2.4-2.4h-7.7425q-2.4 0-2.4 2.4z" clip-path="url(#a)" fill="#fff" stroke="#fff"/>
<g clip-path="url(#a)">
<g transform="translate(151.52 576.55) rotate(90) scale(.08 -.08)">
<use xlink:href="#l"/>
<use x="60.818359" xlink:href="#e"/>
<use x="122.341797" xlink:href="#j"/>
<use x="163.439453" xlink:href="#k"/>
<use x="260.851562" xlink:href="#g"/>
<use x="288.634766" xlink:href="#d"/>
<use x="352.013672" xlink:href="#h"/>
<use x="413.292969" xlink:href="#i"/>
</g>
</g>
<path d="m195.42 576.55v35.285q0 2.4 2.4 2.4h7.7425q2.4 0 2.4-2.4v-35.285q0-2.4-2.4-2.4h-7.7425q-2.4 0-2.4 2.4z" clip-path="url(#a)" fill="#fff" stroke="#fff"/>
<g clip-path="url(#a)">
<g transform="translate(199.48 576.55) rotate(90) scale(.08 -.08)">
<use xlink:href="#l"/>
<use x="60.818359" xlink:href="#e"/>
<use x="122.341797" xlink:href="#j"/>
<use x="163.439453" xlink:href="#k"/>
<use x="260.851562" xlink:href="#g"/>
<use x="288.634766" xlink:href="#d"/>
<use x="352.013672" xlink:href="#h"/>
<use x="413.292969" xlink:href="#i"/>
</g>
</g>
<path d="m291.34 576.55v35.285q0 2.4 2.4 2.4h7.7425q2.4 0 2.4-2.4v-35.285q0-2.4-2.4-2.4h-7.7425q-2.4 0-2.4 2.4z" clip-path="url(#a)" fill="#fff" stroke="#fff"/>
<g clip-path="url(#a)">
<g transform="translate(295.4 576.55) rotate(90) scale(.08 -.08)">
<use xlink:href="#l"/>
<use x="60.818359" xlink:href="#e"/>
<use x="122.341797" xlink:href="#j"/>
<use x="163.439453" xlink:href="#k"/>
<use x="260.851562" xlink:href="#g"/>
<use x="288.634766" xlink:href="#d"/>
<use x="352.013672" xlink:href="#h"/>
<use x="413.292969" xlink:href="#i"/>
</g>
</g>
<path d="m448.51 340.48 0.016831-4.8237q0.008375-2.4-2.3916-2.4084l-7.7425-0.027017q-2.4-0.008374-2.4084 2.3916l-0.016832 4.8237q-0.008375 2.4 2.3916 2.4084l7.7425 0.027016q2.4 0.008375 2.4084-2.3916z" clip-path="url(#a)" fill="#fff" stroke="#fff"/>
<g clip-path="url(#a)">
<g transform="translate(444.44 340.46) rotate(-89.8) scale(.08 -.08)">
<use xlink:href="#aj"/>
</g>
</g>
<path d="m399.79 342.1 1.2105-5.3369q0.53086-2.3406-1.8097-2.8714l-7.5507-1.7126q-2.3406-0.53086-2.8714 1.8097l-1.2105 5.3369q-0.53086 2.3406 1.8097 2.8714l7.5507 1.7126q2.3406 0.53086 2.8714-1.8097z" clip-path="url(#a)" fill="#fff" stroke="#fff"/>
<g clip-path="url(#a)">
<g transform="translate(395.83 341.2) rotate(-77.221) scale(.08 -.08)">
<use xlink:href="#n"/>
</g>
</g>
<path d="m424.23 341.05 0.52636-4.571q0.27455-2.3842-2.1097-2.6588l-7.6917-0.8857q-2.3842-0.27455-2.6588 2.1097l-0.52636 4.571q-0.27455 2.3842 2.1097 2.6588l7.6917 0.8857q2.3842 0.27455 2.6588-2.1097z" clip-path="url(#a)" fill="#fff" stroke="#fff"/>
<g clip-path="url(#a)">
<g transform="translate(420.19 340.58) rotate(-83.431) scale(.08 -.08)">
<use xlink:href="#w"/>
</g>
</g>
<path d="m511.59 172.1 4.6828 2.8319q2.0537 1.242 3.2956-0.8117l4.0066-6.6252q1.242-2.0537-0.8117-3.2956l-4.6828-2.8319q-2.0537-1.242-3.2956 0.8117l-4.0066 6.6252q-1.242 2.0537 0.8117 3.2956z" clip-path="url(#a)" fill="#fff" stroke="#fff"/>
<g clip-path="url(#a)">
<g transform="translate(513.7 168.63) rotate(31.164) scale(.08 -.08)">
<use xlink:href="#n"/>
</g>
</g>
<path d="m435.22 576.55v35.285q0 2.4 2.4 2.4h7.7425q2.4 0 2.4-2.4v-35.285q0-2.4-2.4-2.4h-7.7425q-2.4 0-2.4 2.4z" clip-path="url(#a)" fill="#fff" stroke="#fff"/>
<g clip-path="url(#a)">
<g transform="translate(439.29 576.55) rotate(90) scale(.08 -.08)">
<use xlink:href="#l"/>
<use x="60.818359" xlink:href="#e"/>
<use x="122.341797" xlink:href="#j"/>
<use x="163.439453" xlink:href="#k"/>
<use x="260.851562" xlink:href="#g"/>
<use x="288.634766" xlink:href="#d"/>
<use x="352.013672" xlink:href="#h"/>
<use x="413.292969" xlink:href="#i"/>
</g>
</g>
<path d="m1202.6 576.55v35.285q0 2.4 2.4 2.4h7.7425q2.4 0 2.4-2.4v-35.285q0-2.4-2.4-2.4h-7.7425q-2.4 0-2.4 2.4z" clip-path="url(#a)" fill="#fff" stroke="#fff"/>
<g clip-path="url(#a)">
<g transform="translate(1206.6 576.55) rotate(90) scale(.08 -.08)">
<use xlink:href="#l"/>
<use x="60.818359" xlink:href="#e"/>
<use x="122.341797" xlink:href="#j"/>
<use x="163.439453" xlink:href="#k"/>
<use x="260.851562" xlink:href="#g"/>
<use x="288.634766" xlink:href="#d"/>
<use x="352.013672" xlink:href="#h"/>
<use x="413.292969" xlink:href="#i"/>
</g>
</g>
<path d="m99.501 576.55v35.285q0 2.4 2.4 2.4h7.7425q2.4 0 2.4-2.4v-35.285q0-2.4-2.4-2.4h-7.7425q-2.4 0-2.4 2.4z" clip-path="url(#a)" fill="#fff" stroke="#fff"/>
<g clip-path="url(#a)">
<g transform="translate(103.56 576.55) rotate(90) scale(.08 -.08)">
<use xlink:href="#l"/>
<use x="60.818359" xlink:href="#e"/>
<use x="122.341797" xlink:href="#j"/>
<use x="163.439453" xlink:href="#k"/>
<use x="260.851562" xlink:href="#g"/>
<use x="288.634766" xlink:href="#d"/>
<use x="352.013672" xlink:href="#h"/>
<use x="413.292969" xlink:href="#i"/>
</g>
</g>
<path d="m339.3 576.55v35.285q0 2.4 2.4 2.4h7.7425q2.4 0 2.4-2.4v-35.285q0-2.4-2.4-2.4h-7.7425q-2.4 0-2.4 2.4z" clip-path="url(#a)" fill="#fff" stroke="#fff"/>
<g clip-path="url(#a)">
<g transform="translate(343.37 576.55) rotate(90) scale(.08 -.08)">
<use xlink:href="#l"/>
<use x="60.818359" xlink:href="#e"/>
<use x="122.341797" xlink:href="#j"/>
<use x="163.439453" xlink:href="#k"/>
<use x="260.851562" xlink:href="#g"/>
<use x="288.634766" xlink:href="#d"/>
<use x="352.013672" xlink:href="#h"/>
<use x="413.292969" xlink:href="#i"/>
</g>
</g>
<path d="m387.26 576.55v35.285q0 2.4 2.4 2.4h7.7425q2.4 0 2.4-2.4v-35.285q0-2.4-2.4-2.4h-7.7425q-2.4 0-2.4 2.4z" clip-path="url(#a)" fill="#fff" stroke="#fff"/>
<g clip-path="url(#a)">
<g transform="translate(391.33 576.55) rotate(90) scale(.08 -.08)">
<use xlink:href="#l"/>
<use x="60.818359" xlink:href="#e"/>
<use x="122.341797" xlink:href="#j"/>
<use x="163.439453" xlink:href="#k"/>
<use x="260.851562" xlink:href="#g"/>
<use x="288.634766" xlink:href="#d"/>
<use x="352.013672" xlink:href="#h"/>
<use x="413.292969" xlink:href="#i"/>
</g>
</g>
<path d="m570.15 386.65 0.87608-5.5171q0.37639-2.3703-1.9939-2.7467l-7.6467-1.2142q-2.3703-0.37639-2.7467 1.9939l-0.87608 5.5171q-0.37639 2.3703 1.9939 2.7467l7.6467 1.2142q2.3703 0.37639 2.7467-1.9939z" clip-path="url(#a)" fill="#fff" stroke="#fff"/>
<g clip-path="url(#a)">
<g transform="translate(566.13 386.02) rotate(-80.977) scale(.08 -.08)">
<use xlink:href="#q"/>
</g>
</g>
<path d="m545.76 386.92 1.3219-4.4073q0.68951-2.2988-1.6093-2.9883l-7.4161-2.2244q-2.2988-0.68951-2.9883 1.6093l-1.3219 4.4073q-0.68951 2.2988 1.6093 2.9883l7.4161 2.2244q2.2988 0.68951 2.9883-1.6093z" clip-path="url(#a)" fill="#fff" stroke="#fff"/>
<g clip-path="url(#a)">
<g transform="translate(541.86 385.75) rotate(-73.304) scale(.08 -.08)">
<use xlink:href="#w"/>
</g>
</g>
<path d="m664.03 261 4.4079 2.4746q2.0928 1.1749 3.2676-0.91791l3.7902-6.7514q1.1749-2.0928-0.91791-3.2676l-4.4079-2.4746q-2.0928-1.1749-3.2676 0.91791l-3.7902 6.7514q-1.1749 2.0928 0.91791 3.2676z" clip-path="url(#a)" fill="#fff" stroke="#fff"/>
<g clip-path="url(#a)">
<g transform="translate(666.02 257.46) rotate(29.309) scale(.08 -.08)">
<use xlink:href="#p"/>
</g>
</g>
<path d="m531.14 576.55v35.285q0 2.4 2.4 2.4h7.7425q2.4 0 2.4-2.4v-35.285q0-2.4-2.4-2.4h-7.7425q-2.4 0-2.4 2.4z" clip-path="url(#a)" fill="#fff" stroke="#fff"/>
<g clip-path="url(#a)">
<g transform="translate(535.21 576.55) rotate(90) scale(.08 -.08)">
<use xlink:href="#l"/>
<use x="60.818359" xlink:href="#e"/>
<use x="122.341797" xlink:href="#j"/>
<use x="163.439453" xlink:href="#k"/>
<use x="260.851562" xlink:href="#g"/>
<use x="288.634766" xlink:href="#d"/>
<use x="352.013672" xlink:href="#h"/>
<use x="413.292969" xlink:href="#i"/>
</g>
</g>
<path d="m483.18 576.55v35.285q0 2.4 2.4 2.4h7.7425q2.4 0 2.4-2.4v-35.285q0-2.4-2.4-2.4h-7.7425q-2.4 0-2.4 2.4z" clip-path="url(#a)" fill="#fff" stroke="#fff"/>
<g clip-path="url(#a)">
<g transform="translate(487.25 576.55) rotate(90) scale(.08 -.08)">
<use xlink:href="#l"/>
<use x="60.818359" xlink:href="#e"/>
<use x="122.341797" xlink:href="#j"/>
<use x="163.439453" xlink:href="#k"/>
<use x="260.851562" xlink:href="#g"/>
<use x="288.634766" xlink:href="#d"/>
<use x="352.013672" xlink:href="#h"/>
<use x="413.292969" xlink:href="#i"/>
</g>
</g>
<path d="m755.67 424.63 0.6591 5.5472q0.28317 2.3832 2.6664 2.1001l7.6884-0.91351q2.3832-0.28317 2.1001-2.6664l-0.6591-5.5472q-0.28317-2.3832-2.6664-2.1001l-7.6884 0.91351q-2.3832 0.28317-2.1001 2.6664z" clip-path="url(#a)" fill="#fff" stroke="#fff"/>
<g clip-path="url(#a)">
<g transform="translate(759.7 424.15) rotate(83.224) scale(.08 -.08)">
<use xlink:href="#q"/>
</g>
</g>
<path d="m670.08 432.39 3.0018-4.6786q1.296-2.02-0.72394-3.316l-6.5165-4.1811q-2.02-1.296-3.316 0.72394l-3.0018 4.6786q-1.296 2.02 0.72394 3.316l6.5165 4.1811q2.02 1.296 3.316-0.72394z" clip-path="url(#a)" fill="#fff" stroke="#fff"/>
<g clip-path="url(#a)">
<defs>
<path id="s" d="m44.391 34.188q3.1719-1.0781 6.1719-4.5938t6.0312-9.6719l10.016-19.922h-10.609l-9.3125 18.703q-3.625 7.3281-7.0156 9.7188t-9.25 2.3906h-10.75v-30.812h-9.8594v72.906h22.266q12.5 0 18.656-5.2344 6.1562-5.2188 6.1562-15.766 0-6.8906-3.2031-11.438-3.2031-4.5312-9.2969-6.2812zm-24.719 30.609v-25.875h12.406q7.125 0 10.766 3.2969t3.6406 9.6875-3.6406 9.6406-10.766 3.25z"/>
</defs>
<g transform="translate(666.66 430.19) rotate(-57.315) scale(.08 -.08)">
<use xlink:href="#s"/>
</g>
</g>
<path d="m731.74 389.23 1.2149-4.9068q0.5768-2.3297-1.7529-2.9065l-7.5156-1.8608q-2.3297-0.5768-2.9065 1.7529l-1.2149 4.9068q-0.5768 2.3297 1.7529 2.9065l7.5156 1.8608q2.3297 0.5768 2.9065-1.7529z" clip-path="url(#a)" fill="#fff" stroke="#fff"/>
<g clip-path="url(#a)">
<g transform="translate(727.79 388.25) rotate(-76.094) scale(.08 -.08)">
<use xlink:href="#p"/>
</g>
</g>
<path d="m744.22 388.44 0.5334-5.0268q0.25324-2.3866-2.1334-2.6398l-7.6993-0.81698q-2.3866-0.25324-2.6398 2.1334l-0.5334 5.0268q-0.25324 2.3866 2.1334 2.6398l7.6993 0.81698q2.3866 0.25324 2.6398-2.1334z" clip-path="url(#a)" fill="#fff" stroke="#fff"/>
<g clip-path="url(#a)">
<g transform="translate(740.17 388.02) rotate(-83.943) scale(.08 -.08)">
<use xlink:href="#p"/>
</g>
</g>
<path d="m744.32 429.63 0.35946-5.0422q0.17066-2.3939-2.2233-2.5646l-7.7229-0.55057q-2.3939-0.17066-2.5646 2.2233l-0.35946 5.0422q-0.17066 2.3939 2.2233 2.5646l7.7229 0.55057q2.3939 0.17066 2.5646-2.2233z" clip-path="url(#a)" fill="#fff" stroke="#fff"/>
<g clip-path="url(#a)">
<g transform="translate(740.27 429.34) rotate(-85.922) scale(.08 -.08)">
<use xlink:href="#p"/>
</g>
</g>
<path d="m847.44 348.15 4.6808 1.9086q2.2224 0.90615 3.1285-1.3162l2.9233-7.1694q0.90615-2.2224-1.3162-3.1285l-4.6808-1.9086q-2.2224-0.90615-3.1285 1.3162l-2.9233 7.1694q-0.90615 2.2224 1.3162 3.1285z" clip-path="url(#a)" fill="#fff" stroke="#fff"/>
<g clip-path="url(#a)">
<g transform="translate(848.98 344.39) rotate(22.183) scale(.08 -.08)">
<use xlink:href="#p"/>
</g>
</g>
<path d="m770.94 576.55v35.285q0 2.4 2.4 2.4h7.7425q2.4 0 2.4-2.4v-35.285q0-2.4-2.4-2.4h-7.7425q-2.4 0-2.4 2.4z" clip-path="url(#a)" fill="#fff" stroke="#fff"/>
<g clip-path="url(#a)">
<g transform="translate(775.01 576.55) rotate(90) scale(.08 -.08)">
<use xlink:href="#l"/>
<use x="60.818359" xlink:href="#e"/>
<use x="122.341797" xlink:href="#j"/>
<use x="163.439453" xlink:href="#k"/>
<use x="260.851562" xlink:href="#g"/>
<use x="288.634766" xlink:href="#d"/>
<use x="352.013672" xlink:href="#h"/>
<use x="413.292969" xlink:href="#i"/>
</g>
</g>
<path d="m579.1 576.55v35.285q0 2.4 2.4 2.4h7.7425q2.4 0 2.4-2.4v-35.285q0-2.4-2.4-2.4h-7.7425q-2.4 0-2.4 2.4z" clip-path="url(#a)" fill="#fff" stroke="#fff"/>
<g clip-path="url(#a)">
<g transform="translate(583.17 576.55) rotate(90) scale(.08 -.08)">
<use xlink:href="#l"/>
<use x="60.818359" xlink:href="#e"/>
<use x="122.341797" xlink:href="#j"/>
<use x="163.439453" xlink:href="#k"/>
<use x="260.851562" xlink:href="#g"/>
<use x="288.634766" xlink:href="#d"/>
<use x="352.013672" xlink:href="#h"/>
<use x="413.292969" xlink:href="#i"/>
</g>
</g>
<path d="m734.72 513.46 3.5896 4.1308q1.5742 1.8116 3.3858 0.23735l5.8442-5.0785q1.8116-1.5742 0.23735-3.3858l-3.5896-4.1308q-1.5742-1.8116-3.3858-0.23735l-5.8442 5.0785q-1.8116 1.5742-0.23735 3.3858z" clip-path="url(#a)" fill="#fff" stroke="#fff"/>
<g clip-path="url(#a)">
<g transform="translate(737.78 510.79) rotate(49.01) scale(.08 -.08)">
<use xlink:href="#n"/>
</g>
</g>
<path d="m669.79 520.61 8.6886-9.9986q1.5742-1.8116-0.23735-3.3858l-6.0386-5.2474q-1.8116-1.5742-3.3858 0.23735l-8.6886 9.9986q-1.5742 1.8116 0.23735 3.3858l6.0386 5.2474q1.8116 1.5742 3.3858-0.23735z" clip-path="url(#a)" fill="#fff" stroke="#fff"/>
<g clip-path="url(#a)">
<defs>
<path id="ai" d="m53.516 70.516v-9.625q-5.6094 2.6875-10.594 4-4.9844 1.3281-9.625 1.3281-8.0469 0-12.422-3.125t-4.375-8.8906q0-4.8438 2.9062-7.3125 2.9062-2.4531 11.016-3.9688l5.9531-1.2188q11.031-2.1094 16.281-7.4062t5.25-14.172q0-10.609-7.1094-16.078-7.0938-5.4688-20.812-5.4688-5.1719 0-11.016 1.1719-5.8281 1.1719-12.078 3.4688v10.156q6-3.3594 11.766-5.0781 5.7656-1.7031 11.328-1.7031 8.4375 0 13.031 3.3125 4.5938 3.3281 4.5938 9.4844 0 5.3594-3.2969 8.3906t-10.812 4.5469l-6.0156 1.1719q-11.031 2.1875-15.969 6.875-4.9219 4.6875-4.9219 13.047 0 9.6719 6.8125 15.234t18.766 5.5625q5.1406 0 10.453-0.9375 5.3281-0.92188 10.891-2.7656z"/>
<path id="ax" d="m21 76.422v-100h-8.2969v100z"/>
</defs>
<g transform="translate(666.55 517.79) rotate(-49.01) scale(.08 -.08)">
<use xlink:href="#ai"/>
<use x="63.476562" xlink:href="#ax"/>
<use x="97.167969" xlink:href="#n"/>
</g>
</g>
<path d="m627.06 576.55v35.285q0 2.4 2.4 2.4h7.7425q2.4 0 2.4-2.4v-35.285q0-2.4-2.4-2.4h-7.7425q-2.4 0-2.4 2.4z" clip-path="url(#a)" fill="#fff" stroke="#fff"/>
<g clip-path="url(#a)">
<g transform="translate(631.13 576.55) rotate(90) scale(.08 -.08)">
<use xlink:href="#l"/>
<use x="60.818359" xlink:href="#e"/>
<use x="122.341797" xlink:href="#j"/>
<use x="163.439453" xlink:href="#k"/>
<use x="260.851562" xlink:href="#g"/>
<use x="288.634766" xlink:href="#d"/>
<use x="352.013672" xlink:href="#h"/>
<use x="413.292969" xlink:href="#i"/>
</g>
</g>
<path d="m746.44 512.19 2.7432 4.7353q1.2031 2.0767 3.2798 0.87362l6.6995-3.8812q2.0767-1.2031 0.87362-3.2798l-2.7432-4.7353q-1.2031-2.0767-3.2798-0.87362l-6.6995 3.8811q-2.0767 1.2031-0.87362 3.2798z" clip-path="url(#a)" fill="#fff" stroke="#fff"/>
<g clip-path="url(#a)">
<g transform="translate(749.95 510.15) rotate(59.915) scale(.08 -.08)">
<use xlink:href="#n"/>
</g>
</g>
<path d="m709.43 516.75 2.5459-4.3946q1.2031-2.0767-0.87362-3.2798l-6.6995-3.8812q-2.0767-1.2031-3.2798 0.87362l-2.5459 4.3946q-1.2031 2.0767 0.87362 3.2798l6.6995 3.8811q2.0767 1.2031 3.2798-0.87362z" clip-path="url(#a)" fill="#fff" stroke="#fff"/>
<g clip-path="url(#a)">
<g transform="translate(705.91 514.71) rotate(-59.915) scale(.08 -.08)">
<use xlink:href="#ai"/>
</g>
</g>
<path d="m675.02 576.55v35.285q0 2.4 2.4 2.4h7.7425q2.4 0 2.4-2.4v-35.285q0-2.4-2.4-2.4h-7.7425q-2.4 0-2.4 2.4z" clip-path="url(#a)" fill="#fff" stroke="#fff"/>
<g clip-path="url(#a)">
<g transform="translate(679.09 576.55) rotate(90) scale(.08 -.08)">
<use xlink:href="#l"/>
<use x="60.818359" xlink:href="#e"/>
<use x="122.341797" xlink:href="#j"/>
<use x="163.439453" xlink:href="#k"/>
<use x="260.851562" xlink:href="#g"/>
<use x="288.634766" xlink:href="#d"/>
<use x="352.013672" xlink:href="#h"/>
<use x="413.292969" xlink:href="#i"/>
</g>
</g>
<path d="m722.98 576.55v35.285q0 2.4 2.4 2.4h7.7425q2.4 0 2.4-2.4v-35.285q0-2.4-2.4-2.4h-7.7425q-2.4 0-2.4 2.4z" clip-path="url(#a)" fill="#fff" stroke="#fff"/>
<g clip-path="url(#a)">
<g transform="translate(727.05 576.55) rotate(90) scale(.08 -.08)">
<use xlink:href="#l"/>
<use x="60.818359" xlink:href="#e"/>
<use x="122.341797" xlink:href="#j"/>
<use x="163.439453" xlink:href="#k"/>
<use x="260.851562" xlink:href="#g"/>
<use x="288.634766" xlink:href="#d"/>
<use x="352.013672" xlink:href="#h"/>
<use x="413.292969" xlink:href="#i"/>
</g>
</g>
<path d="m944.62 473.49 1.1781-5.4606q0.50614-2.346-1.8399-2.8522l-7.5684-1.6328q-2.346-0.50614-2.8522 1.8399l-1.1781 5.4606q-0.50614 2.346 1.8399 2.8522l7.5684 1.6328q2.346 0.50614 2.8522-1.8399z" clip-path="url(#a)" fill="#fff" stroke="#fff"/>
<g clip-path="url(#a)">
<g transform="translate(940.65 472.64) rotate(-77.825) scale(.08 -.08)">
<use xlink:href="#q"/>
</g>
</g>
<path d="m894.31 475.51 3.4487-4.3596q1.489-1.8823-0.39327-3.3713l-6.0723-4.8035q-1.8823-1.489-3.3713 0.39327l-3.4487 4.3596q-1.489 1.8823 0.39327 3.3713l6.0723 4.8035q1.8823 1.489 3.3713-0.39327z" clip-path="url(#a)" fill="#fff" stroke="#fff"/>
<g clip-path="url(#a)">
<g transform="translate(891.13 472.99) rotate(-51.654) scale(.08 -.08)">
<use xlink:href="#s"/>
</g>
</g>
<path d="m944.59 473.62 1.2348-5.7233q0.50614-2.346-1.8399-2.8522l-7.5684-1.6328q-2.346-0.50614-2.8522 1.8399l-1.2348 5.7233q-0.50614 2.346 1.8399 2.8522l7.5684 1.6328q2.346 0.50614 2.8522-1.8399z" clip-path="url(#a)" fill="#fff" stroke="#fff"/>
<g clip-path="url(#a)">
<g transform="translate(940.62 472.77) rotate(-77.825) scale(.08 -.08)">
<use xlink:href="#ah"/>
</g>
</g>
<path d="m980.13 468.75 2.0251 5.632q0.81208 2.2584 3.0705 1.4464l7.2858-2.6198q2.2584-0.81208 1.4464-3.0705l-2.0251-5.632q-0.81208-2.2584-3.0705-1.4464l-7.2858 2.6198q-2.2584 0.81208-1.4464 3.0705z" clip-path="url(#a)" fill="#fff" stroke="#fff"/>
<g clip-path="url(#a)">
<defs>
<path id="ar" d="m9.8125 72.906h13.281l32.328-60.984v60.984h9.5625v-72.906h-13.281l-32.312 60.984v-60.984h-9.5781z"/>
</defs>
<g transform="translate(983.95 467.37) rotate(70.223) scale(.08 -.08)">
<use xlink:href="#ar"/>
</g>
</g>
<path d="m1023.4 432.06 4.8252 2.815q2.073 1.2094 3.2824-0.86364l3.9015-6.6876q1.2094-2.073-0.86364-3.2824l-4.8252-2.815q-2.073-1.2094-3.2824 0.86364l-3.9015 6.6876q-1.2094 2.073 0.86364 3.2824z" clip-path="url(#a)" fill="#fff" stroke="#fff"/>
<g clip-path="url(#a)">
<g transform="translate(1025.5 428.55) rotate(30.259) scale(.08 -.08)">
<use xlink:href="#q"/>
</g>
</g>
<path d="m893.7 612.61 17.688-30.532q1.2031-2.0767-0.87362-3.2798l-6.6995-3.8812q-2.0767-1.2031-3.2798 0.87362l-17.688 30.532q-1.2031 2.0767 0.87362 3.2798l6.6995 3.8811q2.0767 1.2031 3.2798-0.87362z" clip-path="url(#a)" fill="#fff" stroke="#fff"/>
<g clip-path="url(#a)">
<g transform="translate(890.18 610.57) rotate(-59.915) scale(.08 -.08)">
<use xlink:href="#l"/>
<use x="60.818359" xlink:href="#e"/>
<use x="122.341797" xlink:href="#j"/>
<use x="163.439453" xlink:href="#k"/>
<use x="260.851562" xlink:href="#g"/>
<use x="288.634766" xlink:href="#d"/>
<use x="352.013672" xlink:href="#h"/>
<use x="413.292969" xlink:href="#i"/>
</g>
</g>
<path d="m930.8 582.07 17.688 30.532q1.2031 2.0767 3.2798 0.87362l6.6995-3.8811q2.0767-1.2031 0.87362-3.2798l-17.688-30.532q-1.2031-2.0767-3.2798-0.87362l-6.6995 3.8812q-2.0767 1.2031-0.87362 3.2798z" clip-path="url(#a)" fill="#fff" stroke="#fff"/>
<g clip-path="url(#a)">
<g transform="translate(934.32 580.04) rotate(59.915) scale(.08 -.08)">
<use xlink:href="#l"/>
<use x="60.818359" xlink:href="#e"/>
<use x="122.341797" xlink:href="#j"/>
<use x="163.439453" xlink:href="#k"/>
<use x="260.851562" xlink:href="#g"/>
<use x="288.634766" xlink:href="#d"/>
<use x="352.013672" xlink:href="#h"/>
<use x="413.292969" xlink:href="#i"/>
</g>
</g>
<path d="m818.9 576.55v35.285q0 2.4 2.4 2.4h7.7425q2.4 0 2.4-2.4v-35.285q0-2.4-2.4-2.4h-7.7425q-2.4 0-2.4 2.4z" clip-path="url(#a)" fill="#fff" stroke="#fff"/>
<g clip-path="url(#a)">
<g transform="translate(822.97 576.55) rotate(90) scale(.08 -.08)">
<use xlink:href="#l"/>
<use x="60.818359" xlink:href="#e"/>
<use x="122.341797" xlink:href="#j"/>
<use x="163.439453" xlink:href="#k"/>
<use x="260.851562" xlink:href="#g"/>
<use x="288.634766" xlink:href="#d"/>
<use x="352.013672" xlink:href="#h"/>
<use x="413.292969" xlink:href="#i"/>
</g>
</g>
<path d="m914.82 576.55v35.285q0 2.4 2.4 2.4h7.7425q2.4 0 2.4-2.4v-35.285q0-2.4-2.4-2.4h-7.7425q-2.4 0-2.4 2.4z" clip-path="url(#a)" fill="#fff" stroke="#fff"/>
<g clip-path="url(#a)">
<g transform="translate(918.89 576.55) rotate(90) scale(.08 -.08)">
<use xlink:href="#l"/>
<use x="60.818359" xlink:href="#e"/>
<use x="122.341797" xlink:href="#j"/>
<use x="163.439453" xlink:href="#k"/>
<use x="260.851562" xlink:href="#g"/>
<use x="288.634766" xlink:href="#d"/>
<use x="352.013672" xlink:href="#h"/>
<use x="413.292969" xlink:href="#i"/>
</g>
</g>
<path d="m1010.7 576.55v35.285q0 2.4 2.4 2.4h7.7425q2.4 0 2.4-2.4v-35.285q0-2.4-2.4-2.4h-7.7425q-2.4 0-2.4 2.4z" clip-path="url(#a)" fill="#fff" stroke="#fff"/>
<g clip-path="url(#a)">
<g transform="translate(1014.8 576.55) rotate(90) scale(.08 -.08)">
<use xlink:href="#l"/>
<use x="60.818359" xlink:href="#e"/>
<use x="122.341797" xlink:href="#j"/>
<use x="163.439453" xlink:href="#k"/>
<use x="260.851562" xlink:href="#g"/>
<use x="288.634766" xlink:href="#d"/>
<use x="352.013672" xlink:href="#h"/>
<use x="413.292969" xlink:href="#i"/>
</g>
</g>
<path d="m1112.1 511.35 2.2261 5.1235q0.9564 2.2012 3.1576 1.2448l7.1012-3.0854q2.2012-0.9564 1.2448-3.1576l-2.2261-5.1235q-0.9564-2.2012-3.1576-1.2448l-7.1012 3.0854q-2.2012 0.9564-1.2448 3.1576z" clip-path="url(#a)" fill="#fff" stroke="#fff"/>
<g clip-path="url(#a)">
<g transform="translate(1115.8 509.73) rotate(66.515) scale(.08 -.08)">
<use xlink:href="#q"/>
</g>
</g>
<path d="m1087.6 516.46 2.2152-5.0983q0.9564-2.2012-1.2448-3.1576l-7.1012-3.0854q-2.2012-0.9564-3.1576 1.2448l-2.2152 5.0983q-0.9564 2.2012 1.2448 3.1576l7.1012 3.0854q2.2012 0.9564 3.1576-1.2448z" clip-path="url(#a)" fill="#fff" stroke="#fff"/>
<g clip-path="url(#a)">
<g transform="translate(1083.9 514.84) rotate(-66.515) scale(.08 -.08)">
<use xlink:href="#s"/>
</g>
</g>
<path d="m1126 612.89 9.8171-33.892q0.66774-2.3052-1.6375-2.973l-7.4368-2.1541q-2.3052-0.66774-2.973 1.6375l-9.8171 33.892q-0.66774 2.3052 1.6375 2.973l7.4368 2.1541q2.3052 0.66774 2.973-1.6375z" clip-path="url(#a)" fill="#fff" stroke="#fff"/>
<g clip-path="url(#a)">
<g transform="translate(1122.1 611.76) rotate(-73.846) scale(.08 -.08)">
<use xlink:href="#l"/>
<use x="60.818359" xlink:href="#e"/>
<use x="122.341797" xlink:href="#j"/>
<use x="163.439453" xlink:href="#k"/>
<use x="260.851562" xlink:href="#g"/>
<use x="288.634766" xlink:href="#d"/>
<use x="352.013672" xlink:href="#h"/>
<use x="413.292969" xlink:href="#i"/>
</g>
</g>
<path d="m1138 578.99 9.8171 33.892q0.66774 2.3052 2.973 1.6375l7.4368-2.1541q2.3052-0.66774 1.6375-2.973l-9.8171-33.892q-0.66774-2.3052-2.973-1.6375l-7.4368 2.1541q-2.3052 0.66774-1.6375 2.973z" clip-path="url(#a)" fill="#fff" stroke="#fff"/>
<g clip-path="url(#a)">
<g transform="translate(1141.9 577.86) rotate(73.846) scale(.08 -.08)">
<use xlink:href="#l"/>
<use x="60.818359" xlink:href="#e"/>
<use x="122.341797" xlink:href="#j"/>
<use x="163.439453" xlink:href="#k"/>
<use x="260.851562" xlink:href="#g"/>
<use x="288.634766" xlink:href="#d"/>
<use x="352.013672" xlink:href="#h"/>
<use x="413.292969" xlink:href="#i"/>
</g>
</g>
<path d="m1058.7 576.55v35.285q0 2.4 2.4 2.4h7.7425q2.4 0 2.4-2.4v-35.285q0-2.4-2.4-2.4h-7.7425q-2.4 0-2.4 2.4z" clip-path="url(#a)" fill="#fff" stroke="#fff"/>
<g clip-path="url(#a)">
<g transform="translate(1062.8 576.55) rotate(90) scale(.08 -.08)">
<use xlink:href="#l"/>
<use x="60.818359" xlink:href="#e"/>
<use x="122.341797" xlink:href="#j"/>
<use x="163.439453" xlink:href="#k"/>
<use x="260.851562" xlink:href="#g"/>
<use x="288.634766" xlink:href="#d"/>
<use x="352.013672" xlink:href="#h"/>
<use x="413.292969" xlink:href="#i"/>
</g>
</g>
<defs>
<path id="b" d="m0 8.6603c2.2967 0 4.4997-0.9125 6.1237-2.5365 1.624-1.624 2.5365-3.827 2.5365-6.1237s-0.9125-4.4997-2.5365-6.1237c-1.624-1.624-3.827-2.5365-6.1237-2.5365s-4.4997 0.9125-6.1237 2.5365c-1.624 1.624-2.5365 3.827-2.5365 6.1237s0.9125 4.4997 2.5365 6.1237c1.624 1.624 3.827 2.5365 6.1237 2.5365z"/>
</defs>
<g clip-path="url(#a)">
<use x="57.811849" y="635.589326" fill="#ffffff" stroke="#ffffff" xlink:href="#b"/>
</g>
<g clip-path="url(#a)">
<use x="105.771973" y="635.589326" fill="#ffffff" stroke="#ffffff" xlink:href="#b"/>
</g>
<g clip-path="url(#a)">
<use x="153.732097" y="635.589326" fill="#ffffff" stroke="#ffffff" xlink:href="#b"/>
</g>
<g clip-path="url(#a)">
<use x="201.69222" y="635.589326" fill="#ffffff" stroke="#ffffff" xlink:href="#b"/>
</g>
<g clip-path="url(#a)">
<use x="249.652344" y="635.589326" fill="#ffffff" stroke="#ffffff" xlink:href="#b"/>
</g>
<g clip-path="url(#a)">
<use x="297.612468" y="635.589326" fill="#ffffff" stroke="#ffffff" xlink:href="#b"/>
</g>
<g clip-path="url(#a)">
<use x="345.572591" y="635.589326" fill="#ffffff" stroke="#ffffff" xlink:href="#b"/>
</g>
<g clip-path="url(#a)">
<use x="393.532715" y="635.589326" fill="#ffffff" stroke="#ffffff" xlink:href="#b"/>
</g>
<g clip-path="url(#a)">
<use x="441.492839" y="635.589326" fill="#ffffff" stroke="#ffffff" xlink:href="#b"/>
</g>
<g clip-path="url(#a)">
<use x="489.452962" y="635.589326" fill="#ffffff" stroke="#ffffff" xlink:href="#b"/>
</g>
<g clip-path="url(#a)">
<use x="537.413086" y="635.589326" fill="#ffffff" stroke="#ffffff" xlink:href="#b"/>
</g>
<g clip-path="url(#a)">
<use x="585.37321" y="635.589326" fill="#ffffff" stroke="#ffffff" xlink:href="#b"/>
</g>
<g clip-path="url(#a)">
<use x="633.333333" y="635.589326" fill="#ffffff" stroke="#ffffff" xlink:href="#b"/>
</g>
<g clip-path="url(#a)">
<use x="681.293457" y="635.589326" fill="#ffffff" stroke="#ffffff" xlink:href="#b"/>
</g>
<g clip-path="url(#a)">
<use x="729.253581" y="635.589326" fill="#ffffff" stroke="#ffffff" xlink:href="#b"/>
</g>
<g clip-path="url(#a)">
<use x="777.213704" y="635.589326" fill="#ffffff" stroke="#ffffff" xlink:href="#b"/>
</g>
<g clip-path="url(#a)">
<use x="825.173828" y="635.589326" fill="#ffffff" stroke="#ffffff" xlink:href="#b"/>
</g>
<g clip-path="url(#a)">
<use x="873.133952" y="635.589326" fill="#ffffff" stroke="#ffffff" xlink:href="#b"/>
</g>
<g clip-path="url(#a)">
<use x="921.094075" y="635.589326" fill="#ffffff" stroke="#ffffff" xlink:href="#b"/>
</g>
<g clip-path="url(#a)">
<use x="969.054199" y="635.589326" fill="#ffffff" stroke="#ffffff" xlink:href="#b"/>
</g>
<g clip-path="url(#a)">
<use x="1017.014323" y="635.589326" fill="#ffffff" stroke="#ffffff" xlink:href="#b"/>
</g>
<g clip-path="url(#a)">
<use x="1064.974446" y="635.589326" fill="#ffffff" stroke="#ffffff" xlink:href="#b"/>
</g>
<g clip-path="url(#a)">
<use x="1112.93457" y="635.589326" fill="#ffffff" stroke="#ffffff" xlink:href="#b"/>
</g>
<g clip-path="url(#a)">
<use x="1160.894694" y="635.589326" fill="#ffffff" stroke="#ffffff" xlink:href="#b"/>
</g>
<g clip-path="url(#a)">
<use x="1208.854817" y="635.589326" fill="#ffffff" stroke="#ffffff" xlink:href="#b"/>
</g>
<g clip-path="url(#a)">
<use x="311.475941" y="31.077341" fill="#ffffff" stroke="#ffffff" xlink:href="#b"/>
</g>
<g clip-path="url(#a)">
<use x="447.487854" y="386.077423" fill="#ffffff" stroke="#ffffff" xlink:href="#b"/>
</g>
<g clip-path="url(#a)">
<use x="249.652344" y="552.802576" fill="#ffffff" stroke="#ffffff" xlink:href="#b"/>
</g>
<g clip-path="url(#a)">
<use x="57.811849" y="552.802576" fill="#ffffff" stroke="#ffffff" xlink:href="#b"/>
</g>
<g clip-path="url(#a)">
<use x="129.752035" y="470.015827" fill="#ffffff" stroke="#ffffff" xlink:href="#b"/>
</g>
<g clip-path="url(#a)">
<use x="153.732097" y="552.802576" fill="#ffffff" stroke="#ffffff" xlink:href="#b"/>
</g>
<g clip-path="url(#a)">
<use x="201.69222" y="552.802576" fill="#ffffff" stroke="#ffffff" xlink:href="#b"/>
</g>
<g clip-path="url(#a)">
<use x="297.612468" y="552.802576" fill="#ffffff" stroke="#ffffff" xlink:href="#b"/>
</g>
<g clip-path="url(#a)">
<use x="442.991593" y="123.287162" fill="#ffffff" stroke="#ffffff" xlink:href="#b"/>
</g>
<g clip-path="url(#a)">
<use x="441.492839" y="552.802576" fill="#ffffff" stroke="#ffffff" xlink:href="#b"/>
</g>
<g clip-path="url(#a)">
<use x="1208.854817" y="552.802576" fill="#ffffff" stroke="#ffffff" xlink:href="#b"/>
</g>
<g clip-path="url(#a)">
<use x="105.771973" y="552.802576" fill="#ffffff" stroke="#ffffff" xlink:href="#b"/>
</g>
<g clip-path="url(#a)">
<use x="345.572591" y="552.802576" fill="#ffffff" stroke="#ffffff" xlink:href="#b"/>
</g>
<g clip-path="url(#a)">
<use x="393.532715" y="552.802576" fill="#ffffff" stroke="#ffffff" xlink:href="#b"/>
</g>
<g clip-path="url(#a)">
<use x="591.368225" y="213.018637" fill="#ffffff" stroke="#ffffff" xlink:href="#b"/>
</g>
<g clip-path="url(#a)">
<use x="537.413086" y="552.802576" fill="#ffffff" stroke="#ffffff" xlink:href="#b"/>
</g>
<g clip-path="url(#a)">
<use x="489.452962" y="552.802576" fill="#ffffff" stroke="#ffffff" xlink:href="#b"/>
</g>
<g clip-path="url(#a)">
<use x="747.238627" y="300.522722" fill="#ffffff" stroke="#ffffff" xlink:href="#b"/>
</g>
<g clip-path="url(#a)">
<use x="777.213704" y="552.802576" fill="#ffffff" stroke="#ffffff" xlink:href="#b"/>
</g>
<g clip-path="url(#a)">
<use x="585.37321" y="552.802576" fill="#ffffff" stroke="#ffffff" xlink:href="#b"/>
</g>
<g clip-path="url(#a)">
<use x="705.273519" y="470.015827" fill="#ffffff" stroke="#ffffff" xlink:href="#b"/>
</g>
<g clip-path="url(#a)">
<use x="633.333333" y="552.802576" fill="#ffffff" stroke="#ffffff" xlink:href="#b"/>
</g>
<g clip-path="url(#a)">
<use x="729.253581" y="470.015827" fill="#ffffff" stroke="#ffffff" xlink:href="#b"/>
</g>
<g clip-path="url(#a)">
<use x="681.293457" y="552.802576" fill="#ffffff" stroke="#ffffff" xlink:href="#b"/>
</g>
<g clip-path="url(#a)">
<use x="729.253581" y="552.802576" fill="#ffffff" stroke="#ffffff" xlink:href="#b"/>
</g>
<g clip-path="url(#a)">
<use x="957.064168" y="386.077423" fill="#ffffff" stroke="#ffffff" xlink:href="#b"/>
</g>
<g clip-path="url(#a)">
<use x="921.094075" y="552.802576" fill="#ffffff" stroke="#ffffff" xlink:href="#b"/>
</g>
<g clip-path="url(#a)">
<use x="825.173828" y="552.802576" fill="#ffffff" stroke="#ffffff" xlink:href="#b"/>
</g>
<g clip-path="url(#a)">
<use x="921.094075" y="552.802576" fill="#ffffff" stroke="#ffffff" xlink:href="#b"/>
</g>
<g clip-path="url(#a)">
<use x="1017.014323" y="552.802576" fill="#ffffff" stroke="#ffffff" xlink:href="#b"/>
</g>
<g clip-path="url(#a)">
<use x="1100.944539" y="470.015827" fill="#ffffff" stroke="#ffffff" xlink:href="#b"/>
</g>
<g clip-path="url(#a)">
<use x="1136.914632" y="552.802576" fill="#ffffff" stroke="#ffffff" xlink:href="#b"/>
</g>
<g clip-path="url(#a)">
<use x="1064.974446" y="552.802576" fill="#ffffff" stroke="#ffffff" xlink:href="#b"/>
</g>
<g clip-path="url(#a)">
<defs>
<path id="r" d="m30.609 48.391q-7.2188 0-11.422-5.6406t-4.2031-15.453 4.1719-15.453q4.1875-5.6406 11.453-5.6406 7.1875 0 11.375 5.6562 4.2031 5.6719 4.2031 15.438 0 9.7188-4.2031 15.406-4.1875 5.6875-11.375 5.6875zm0 7.6094q11.719 0 18.406-7.625 6.7031-7.6094 6.7031-21.078 0-13.422-6.7031-21.078-6.6875-7.6406-18.406-7.6406-11.766 0-18.438 7.6406-6.6562 7.6562-6.6562 21.078 0 13.469 6.6562 21.078 6.6719 7.625 18.438 7.625z"/>
</defs>
<g transform="translate(45.138 638.35) scale(.1 -.1)">
<use xlink:href="#t"/>
<use x="75.195312" xlink:href="#e"/>
<use x="136.71875" xlink:href="#i"/>
<use x="164.501953" xlink:href="#i"/>
<use x="192.285156" xlink:href="#r"/>
</g>
</g>
<g clip-path="url(#a)">
<defs>
<path id="ak" d="m32.172-5.0781q-3.7969-9.7656-7.4219-12.734-3.6094-2.9844-9.6562-2.9844h-7.1875v7.5156h5.2812q3.7031 0 5.75 1.7656 2.0625 1.75 4.5469 8.2969l1.6094 4.0938-22.109 53.812h9.5156l17.094-42.766 17.094 42.766h9.5156z"/>
</defs>
<g transform="translate(97.942 638.35) scale(.1 -.1)">
<use xlink:href="#k"/>
<use x="97.412109" xlink:href="#ak"/>
</g>
</g>
<g clip-path="url(#a)">
<g transform="translate(139.55 638.35) scale(.1 -.1)">
<use xlink:href="#d"/>
<use x="63.378906" xlink:href="#h"/>
<use x="124.658203" xlink:href="#k"/>
<use x="222.070312" xlink:href="#e"/>
</g>
</g>
<g clip-path="url(#a)">
<defs>
<path id="am" d="m44.281 53.078v-8.5q-3.7969 1.9531-7.9062 2.9219-4.0938 0.98438-8.5 0.98438-6.6875 0-10.031-2.0469t-3.3438-6.1562q0-3.125 2.3906-4.9062t9.625-3.3906l3.0781-0.6875q9.5625-2.0469 13.594-5.7812t4.0312-10.422q0-7.625-6.0312-12.078-6.0312-4.4375-16.578-4.4375-4.3906 0-9.1562 0.85938t-10.031 2.5625v9.2812q4.9844-2.5938 9.8125-3.8906 4.8281-1.2812 9.5781-1.2812 6.3438 0 9.75 2.1719 3.4219 2.1719 3.4219 6.125 0 3.6562-2.4688 5.6094-2.4531 1.9531-10.812 3.7656l-3.125 0.73438q-8.3438 1.75-12.062 5.3906-3.7031 3.6406-3.7031 9.9844 0 7.7188 5.4688 11.906 5.4688 4.2031 15.531 4.2031 4.9688 0 9.3594-0.73438 4.4062-0.71875 8.1094-2.1875z"/>
</defs>
<g transform="translate(197.7 638.35) scale(.1 -.1)">
<use xlink:href="#g"/>
<use x="27.783203" xlink:href="#am"/>
</g>
</g>
<g clip-path="url(#a)">
<defs>
<path id="aq" d="m28.609 0-27.828 72.906h10.297l23.109-61.375 23.141 61.375h10.25l-27.781-72.906z"/>
</defs>
<g transform="translate(238.04 638.35) scale(.1 -.1)">
<use xlink:href="#aq"/>
<use x="68.298828" xlink:href="#e"/>
<use x="129.822266" xlink:href="#j"/>
<use x="170.935547" xlink:href="#h"/>
</g>
</g>
<g clip-path="url(#a)">
<defs>
<path id="ao" d="m45.406 46.391v29.594h8.9844v-75.984h-8.9844v8.2031q-2.8281-4.875-7.1562-7.25-4.3125-2.375-10.375-2.375-9.9062 0-16.141 7.9062-6.2188 7.9219-6.2188 20.812t6.2188 20.797q6.2344 7.9062 16.141 7.9062 6.0625 0 10.375-2.375 4.3281-2.3594 7.1562-7.2344zm-30.609-19.094q0-9.9062 4.0781-15.547t11.203-5.6406 11.219 5.6406q4.1094 5.6406 4.1094 15.547t-4.1094 15.547q-4.0938 5.6406-11.219 5.6406t-11.203-5.6406-4.0781-15.547z"/>
</defs>
<g transform="translate(288.21 638.35) scale(.1 -.1)">
<use xlink:href="#h"/>
<use x="61.279297" xlink:href="#d"/>
<use x="124.658203" xlink:href="#ao"/>
</g>
</g>
<g clip-path="url(#a)">
<defs>
<path id="at" d="m9.8125 72.906h9.8594v-72.906h-9.8594z"/>
</defs>
<g transform="translate(344.1 638.35) scale(.1 -.1)">
<use xlink:href="#at"/>
</g>
</g>
<g clip-path="url(#a)">
<defs>
<path id="aw" d="m17.922 72.906v-27.109h-8.2969v27.109z"/>
</defs>
<g transform="translate(387.29 638.35) scale(.1 -.1)">
<use xlink:href="#aw"/>
<use x="27.490234" xlink:href="#k"/>
</g>
</g>
<g clip-path="url(#a)">
<defs>
<path id="ae" d="m4.2031 54.688h8.9844l11.234-42.672 11.172 42.672h10.594l11.234-42.672 11.188 42.672h8.9844l-14.312-54.688h-10.594l-11.766 44.828-11.812-44.828h-10.609z"/>
<path id="u" d="m18.312 70.219v-15.531h18.5v-6.9844h-18.5v-29.688q0-6.6875 1.8281-8.5938t7.4531-1.9062h9.2188v-7.5156h-9.2188q-10.406 0-14.359 3.875-3.9531 3.8906-3.9531 14.141v29.688h-6.5938v6.9844h6.5938v15.531z"/>
<path id="an" d="m45.406 27.984q0 9.7656-4.0312 15.125-4.0156 5.375-11.297 5.375-7.2188 0-11.25-5.375-4.0312-5.3594-4.0312-15.125 0-9.7188 4.0312-15.094t11.25-5.375q7.2812 0 11.297 5.375 4.0312 5.375 4.0312 15.094zm8.9844-21.203q0-13.953-6.2031-20.766-6.1875-6.8125-18.984-6.8125-4.7344 0-8.9375 0.70312t-8.1562 2.1719v8.7344q3.9531-2.1406 7.8125-3.1562 3.8594-1.0312 7.8594-1.0312 8.8438 0 13.234 4.6094t4.3906 13.938v4.4531q-2.7812-4.8438-7.125-7.2344t-10.406-2.3906q-10.047 0-16.203 7.6562-6.1562 7.6719-6.1562 20.328 0 12.688 6.1562 20.344 6.1562 7.6719 16.203 7.6719 6.0625 0 10.406-2.3906t7.125-7.2188v8.2969h8.9844z"/>
</defs>
<g transform="translate(424.27 638.35) scale(.1 -.1)">
<use xlink:href="#ae"/>
<use x="81.787109" xlink:href="#j"/>
<use x="122.900391" xlink:href="#g"/>
<use x="150.683594" xlink:href="#u"/>
<use x="189.892578" xlink:href="#g"/>
<use x="217.675781" xlink:href="#d"/>
<use x="281.054688" xlink:href="#an"/>
</g>
</g>
<g clip-path="url(#a)">
<g transform="translate(486.39 638.35) scale(.1 -.1)">
<use xlink:href="#h"/>
</g>
</g>
<g clip-path="url(#a)">
<defs>
<path id="al" d="m2.9844 54.688h9.5156l17.094-45.891 17.094 45.891h9.5156l-20.516-54.688h-12.203z"/>
</defs>
<g transform="translate(520.77 638.35) scale(.1 -.1)">
<use xlink:href="#j"/>
<use x="41.082031" xlink:href="#e"/>
<use x="102.605469" xlink:href="#al"/>
<use x="161.785156" xlink:href="#g"/>
<use x="189.568359" xlink:href="#e"/>
<use x="251.091797" xlink:href="#ae"/>
</g>
</g>
<g clip-path="url(#a)">
<defs>
<path id="ap" d="m48.688 27.297q0 9.9062-4.0781 15.547t-11.203 5.6406q-7.1406 0-11.219-5.6406t-4.0781-15.547 4.0781-15.547 11.219-5.6406q7.125 0 11.203 5.6406t4.0781 15.547zm-30.578 19.094q2.8438 4.875 7.1562 7.2344 4.3281 2.375 10.328 2.375 9.9688 0 16.188-7.9062 6.2344-7.9062 6.2344-20.797t-6.2344-20.812q-6.2188-7.9062-16.188-7.9062-6 0-10.328 2.375-4.3125 2.375-7.1562 7.25v-8.2031h-9.0312v75.984h9.0312z"/>
<path id="af" d="m8.5 21.578v33.109h8.9844v-32.766q0-7.7656 3.0156-11.656 3.0312-3.875 9.0938-3.875 7.2656 0 11.484 4.6406 4.2344 4.6406 4.2344 12.656v31h8.9844v-54.688h-8.9844v8.4062q-3.2656-4.9844-7.5938-7.4062-4.3125-2.4219-10.031-2.4219-9.4219 0-14.312 5.8594-4.875 5.8594-4.875 17.141z"/>
</defs>
<g transform="translate(570.95 638.35) scale(.1 -.1)">
<use xlink:href="#h"/>
<use x="61.279297" xlink:href="#ap"/>
<use x="124.755859" xlink:href="#r"/>
<use x="185.9375" xlink:href="#af"/>
<use x="249.316406" xlink:href="#u"/>
</g>
</g>
<g clip-path="url(#a)">
<g transform="translate(625.5 638.35) scale(.1 -.1)">
<use xlink:href="#k"/>
<use x="97.412109" xlink:href="#ak"/>
</g>
</g>
<g clip-path="url(#a)">
<g transform="translate(670.98 638.35) scale(.1 -.1)">
<use xlink:href="#r"/>
<use x="61.181641" xlink:href="#ae"/>
<use x="142.96875" xlink:href="#d"/>
</g>
</g>
<g clip-path="url(#a)">
<defs>
<path id="v" d="m48.781 52.594v-8.4062q-3.8125 2.1094-7.6406 3.1562t-7.7344 1.0469q-8.75 0-13.594-5.5469-4.8281-5.5312-4.8281-15.547t4.8281-15.562q4.8438-5.5312 13.594-5.5312 3.9062 0 7.7344 1.0469t7.6406 3.1562v-8.3125q-3.7656-1.75-7.7969-2.625-4.0156-0.89062-8.5625-0.89062-12.359 0-19.641 7.7656-7.2656 7.7656-7.2656 20.953 0 13.375 7.3438 21.031 7.3594 7.6719 20.156 7.6719 4.1406 0 8.0938-0.85938 3.9531-0.84375 7.6719-2.5469z"/>
</defs>
<g transform="translate(702.31 638.35) scale(.1 -.1)">
<use xlink:href="#v"/>
<use x="54.980469" xlink:href="#r"/>
<use x="116.162109" xlink:href="#af"/>
<use x="179.541016" xlink:href="#d"/>
<use x="242.919922" xlink:href="#am"/>
<use x="295.019531" xlink:href="#e"/>
<use x="356.542969" xlink:href="#i"/>
<use x="384.326172" xlink:href="#g"/>
<use x="412.109375" xlink:href="#d"/>
<use x="475.488281" xlink:href="#an"/>
</g>
</g>
<g clip-path="url(#a)">
<defs>
<path id="ay" d="m18.109 8.2031v-29h-9.0312v75.484h9.0312v-8.2969q2.8438 4.875 7.1562 7.2344 4.3281 2.375 10.328 2.375 9.9688 0 16.188-7.9062 6.2344-7.9062 6.2344-20.797t-6.2344-20.812q-6.2188-7.9062-16.188-7.9062-6 0-10.328 2.375-4.3125 2.375-7.1562 7.25zm30.578 19.094q0 9.9062-4.0781 15.547t-11.203 5.6406q-7.1406 0-11.219-5.6406t-4.0781-15.547 4.0781-15.547 11.219-5.6406q7.125 0 11.203 5.6406t4.0781 15.547z"/>
</defs>
<g transform="translate(757 638.35) scale(.1 -.1)">
<use xlink:href="#ay"/>
<use x="63.476562" xlink:href="#j"/>
<use x="104.589844" xlink:href="#h"/>
<use x="165.869141" xlink:href="#v"/>
<use x="220.849609" xlink:href="#u"/>
<use x="260.058594" xlink:href="#g"/>
<use x="287.841797" xlink:href="#v"/>
<use x="342.822266" xlink:href="#e"/>
</g>
</g>
<g clip-path="url(#a)">
<g transform="translate(820.62 638.35) scale(.1 -.1)">
<use xlink:href="#g"/>
<use x="27.783203" xlink:href="#d"/>
</g>
</g>
<g clip-path="url(#a)">
<defs>
<path id="au" d="m19.672 34.812v-26.703h15.828q7.9531 0 11.781 3.2969 3.8438 3.2969 3.8438 10.078 0 6.8438-3.8438 10.078-3.8281 3.25-11.781 3.25zm0 29.984v-21.969h14.609q7.2188 0 10.75 2.7031 3.5469 2.7188 3.5469 8.2812 0 5.5156-3.5469 8.25-3.5312 2.7344-10.75 2.7344zm-9.8594 8.1094h25.203q11.281 0 17.375-4.6875 6.1094-4.6875 6.1094-13.328 0-6.7031-3.125-10.656t-9.1875-4.9219q7.2812-1.5625 11.312-6.5312 4.0312-4.9531 4.0312-12.375 0-9.7656-6.6406-15.094-6.6406-5.3125-18.906-5.3125h-26.172z"/>
</defs>
<g transform="translate(851.57 638.35) scale(.1 -.1)">
<use xlink:href="#au"/>
<use x="68.603516" xlink:href="#e"/>
<use x="130.126953" xlink:href="#i"/>
<use x="157.910156" xlink:href="#i"/>
<use x="185.693359" xlink:href="#e"/>
<use x="247.216797" xlink:href="#al"/>
<use x="306.396484" xlink:href="#af"/>
<use x="369.775391" xlink:href="#e"/>
</g>
</g>
<g clip-path="url(#a)">
<defs>
<path id="av" d="m11.719 12.406h10.297v-8.4062l-8-15.625h-6.2969l4 15.625z"/>
</defs>
<g transform="translate(919.51 638.35) scale(.1 -.1)">
<use xlink:href="#av"/>
</g>
</g>
<g clip-path="url(#a)">
<defs>
<path id="ag" d="m3.3281 72.906h9.9531l15.328-61.625 15.281 61.625h11.094l15.328-61.625 15.281 61.625h10.016l-18.312-72.906h-12.406l-15.375 63.281-15.531-63.281h-12.406z"/>
<path id="f" d="m10.688 12.406h10.312v-12.406h-10.312z"/>
</defs>
<g transform="translate(959.11 638.35) scale(.1 -.1)">
<use xlink:href="#ag"/>
<use x="98.798828" xlink:href="#n"/>
<use x="167.191406" xlink:href="#f"/>
</g>
</g>
<g clip-path="url(#a)">
<g transform="translate(1007.6 638.35) scale(.1 -.1)">
<use xlink:href="#h"/>
<use x="61.279297" xlink:href="#d"/>
<use x="124.658203" xlink:href="#ao"/>
</g>
</g>
<g clip-path="url(#a)">
<g transform="translate(1060.4 638.35) scale(.1 -.1)">
<use xlink:href="#g"/>
<use x="27.783203" xlink:href="#d"/>
</g>
</g>
<g clip-path="url(#a)">
<g transform="translate(1095 638.35) scale(.1 -.1)">
<use xlink:href="#s"/>
<use x="69.419922" xlink:href="#e"/>
<use x="130.943359" xlink:href="#d"/>
<use x="194.322266" xlink:href="#u"/>
<use x="233.53125" xlink:href="#r"/>
<use x="294.712891" xlink:href="#d"/>
</g>
</g>
<g clip-path="url(#a)">
<g transform="translate(1152.5 638.35) scale(.1 -.1)">
<use xlink:href="#ag"/>
<use x="98.798828" xlink:href="#n"/>
</g>
</g>
<g clip-path="url(#a)">
<g transform="translate(1207.3 638.35) scale(.1 -.1)">
<use xlink:href="#f"/>
</g>
</g>
<g clip-path="url(#a)">
<defs>
<path id="c" d="m12.406 8.2969h16.109v55.625l-17.531-3.5156v8.9844l17.438 3.5156h9.8594v-64.609h16.109v-8.2969h-41.984z"/>
</defs>
<g transform="translate(303.52 33.837) scale(.1 -.1)">
<use xlink:href="#c"/>
<use x="63.623047" xlink:href="#f"/>
<use x="95.410156" xlink:href="#c"/>
</g>
</g>
<g clip-path="url(#a)">
<defs>
<path id="m" d="m19.188 8.2969h34.422v-8.2969h-46.281v8.2969q5.6094 5.8125 15.297 15.594 9.7031 9.7969 12.188 12.641 4.7344 5.3125 6.6094 9 1.8906 3.6875 1.8906 7.25 0 5.8125-4.0781 9.4688-4.0781 3.6719-10.625 3.6719-4.6406 0-9.7969-1.6094-5.1406-1.6094-11-4.8906v9.9688q5.9531 2.3906 11.125 3.6094 5.1875 1.2188 9.4844 1.2188 11.328 0 18.062-5.6719 6.7344-5.6562 6.7344-15.125 0-4.5-1.6875-8.5312-1.6719-4.0156-6.125-9.4844-1.2188-1.4219-7.7656-8.1875-6.5312-6.7656-18.453-18.922z"/>
</defs>
<g transform="translate(439.54 388.84) scale(.1 -.1)">
<use xlink:href="#c"/>
<use x="63.623047" xlink:href="#f"/>
<use x="95.410156" xlink:href="#m"/>
</g>
</g>
<g clip-path="url(#a)">
<defs>
<path id="o" d="m40.578 39.312q7.0781-1.5156 11.047-6.3125 3.9844-4.7812 3.9844-11.812 0-10.781-7.4219-16.703-7.4219-5.9062-21.094-5.9062-4.5781 0-9.4375 0.90625t-10.031 2.7188v9.5156q4.0938-2.3906 8.9688-3.6094 4.8906-1.2188 10.219-1.2188 9.2656 0 14.125 3.6562t4.8594 10.641q0 6.4531-4.5156 10.078-4.5156 3.6406-12.562 3.6406h-8.5v8.1094h8.8906q7.2656 0 11.125 2.9062t3.8594 8.375q0 5.6094-3.9844 8.6094-3.9688 3.0156-11.391 3.0156-4.0625 0-8.7031-0.89062-4.6406-0.875-10.203-2.7188v8.7812q5.625 1.5625 10.531 2.3438t9.25 0.78125q11.234 0 17.766-5.1094 6.5469-5.0938 6.5469-13.781 0-6.0625-3.4688-10.234t-9.8594-5.7812z"/>
</defs>
<g transform="translate(241.7 555.56) scale(.1 -.1)">
<use xlink:href="#c"/>
<use x="63.623047" xlink:href="#f"/>
<use x="95.410156" xlink:href="#o"/>
</g>
</g>
<g clip-path="url(#a)">
<defs>
<path id="ac" d="m37.797 64.312-24.906-38.922h24.906zm-2.5938 8.5938h12.406v-47.516h10.406v-8.2031h-10.406v-17.188h-9.8125v17.188h-32.906v9.5156z"/>
</defs>
<g transform="translate(49.86 555.56) scale(.1 -.1)">
<use xlink:href="#c"/>
<use x="63.623047" xlink:href="#f"/>
<use x="95.410156" xlink:href="#ac"/>
</g>
</g>
<g clip-path="url(#a)">
<defs>
<path id="ab" d="m10.797 72.906h38.719v-8.3125h-29.688v-17.859q2.1406 0.73438 4.2812 1.0938 2.1562 0.35938 4.3125 0.35938 12.203 0 19.328-6.6875 7.1406-6.6875 7.1406-18.109 0-11.766-7.3281-18.297-7.3281-6.5156-20.656-6.5156-4.5938 0-9.3594 0.78125-4.75 0.78125-9.8281 2.3438v9.9219q4.3906-2.3906 9.0781-3.5625t9.9062-1.1719q8.4531 0 13.375 4.4375 4.9375 4.4375 4.9375 12.062 0 7.6094-4.9375 12.047-4.9219 4.4531-13.375 4.4531-3.9531 0-7.8906-0.875-3.9219-0.875-8.0156-2.7344z"/>
</defs>
<g transform="translate(121.8 472.78) scale(.1 -.1)">
<use xlink:href="#c"/>
<use x="63.623047" xlink:href="#f"/>
<use x="95.410156" xlink:href="#ab"/>
</g>
</g>
<g clip-path="url(#a)">
<defs>
<path id="aa" d="m33.016 40.375q-6.6406 0-10.531-4.5469-3.875-4.5312-3.875-12.438 0-7.8594 3.875-12.438 3.8906-4.5625 10.531-4.5625t10.516 4.5625q3.875 4.5781 3.875 12.438 0 7.9062-3.875 12.438-3.875 4.5469-10.516 4.5469zm19.578 30.922v-8.9844q-3.7188 1.75-7.5 2.6719-3.7812 0.9375-7.5 0.9375-9.7656 0-14.922-6.5938-5.1406-6.5938-5.875-19.922 2.875 4.25 7.2188 6.5156 4.3594 2.2656 9.5781 2.2656 10.984 0 17.359-6.6719 6.375-6.6562 6.375-18.125 0-11.234-6.6406-18.031-6.6406-6.7812-17.672-6.7812-12.656 0-19.344 9.6875-6.6875 9.7031-6.6875 28.109 0 17.281 8.2031 27.562t22.016 10.281q3.7188 0 7.5-0.73438t7.8906-2.1875z"/>
</defs>
<g transform="translate(145.78 555.56) scale(.1 -.1)">
<use xlink:href="#c"/>
<use x="63.623047" xlink:href="#f"/>
<use x="95.410156" xlink:href="#aa"/>
</g>
</g>
<g clip-path="url(#a)">
<defs>
<path id="z" d="m8.2031 72.906h46.875v-4.2031l-26.469-68.703h-10.297l24.906 64.594h-35.016z"/>
</defs>
<g transform="translate(193.74 555.56) scale(.1 -.1)">
<use xlink:href="#c"/>
<use x="63.623047" xlink:href="#f"/>
<use x="95.410156" xlink:href="#z"/>
</g>
</g>
<g clip-path="url(#a)">
<defs>
<path id="y" d="m31.781 34.625q-7.0312 0-11.062-3.7656-4.0156-3.7656-4.0156-10.344 0-6.5938 4.0156-10.359 4.0312-3.7656 11.062-3.7656t11.078 3.7812q4.0625 3.7969 4.0625 10.344 0 6.5781-4.0312 10.344-4.0156 3.7656-11.109 3.7656zm-9.8594 4.1875q-6.3438 1.5625-9.8906 5.9062-3.5312 4.3594-3.5312 10.609 0 8.7344 6.2188 13.812 6.2344 5.0781 17.062 5.0781 10.891 0 17.094-5.0781t6.2031-13.812q0-6.25-3.5469-10.609-3.5312-4.3438-9.8281-5.9062 7.125-1.6562 11.094-6.5 3.9844-4.8281 3.9844-11.797 0-10.609-6.4688-16.281-6.4688-5.6562-18.531-5.6562-12.047 0-18.531 5.6562-6.4688 5.6719-6.4688 16.281 0 6.9688 4 11.797 4.0156 4.8438 11.141 6.5zm-3.6094 15.578q0-5.6562 3.5312-8.8281 3.5469-3.1719 9.9375-3.1719 6.3594 0 9.9375 3.1719 3.5938 3.1719 3.5938 8.8281 0 5.6719-3.5938 8.8438-3.5781 3.1719-9.9375 3.1719-6.3906 0-9.9375-3.1719-3.5312-3.1719-3.5312-8.8438z"/>
</defs>
<g transform="translate(289.66 555.56) scale(.1 -.1)">
<use xlink:href="#c"/>
<use x="63.623047" xlink:href="#f"/>
<use x="95.410156" xlink:href="#y"/>
</g>
</g>
<g clip-path="url(#a)">
<defs>
<path id="x" d="m10.984 1.5156v8.9844q3.7188-1.7656 7.5156-2.6875 3.8125-0.92188 7.4844-0.92188 9.7656 0 14.906 6.5625 5.1562 6.5625 5.8906 19.953-2.8281-4.2031-7.1875-6.4531-4.3438-2.25-9.6094-2.25-10.938 0-17.312 6.6094-6.375 6.625-6.375 18.109 0 11.219 6.6406 18 6.6406 6.7969 17.672 6.7969 12.656 0 19.312-9.7031 6.6719-9.6875 6.6719-28.141 0-17.234-8.1875-27.516-8.1719-10.281-21.984-10.281-3.7188 0-7.5312 0.73438-3.7969 0.73438-7.9062 2.2031zm19.625 30.906q6.6406 0 10.516 4.5312 3.8906 4.5469 3.8906 12.469 0 7.8594-3.8906 12.422-3.875 4.5625-10.516 4.5625t-10.516-4.5625-3.875-12.422q0-7.9219 3.875-12.469 3.875-4.5312 10.516-4.5312z"/>
</defs>
<g transform="translate(435.04 126.05) scale(.1 -.1)">
<use xlink:href="#c"/>
<use x="63.623047" xlink:href="#f"/>
<use x="95.410156" xlink:href="#x"/>
</g>
</g>
<g clip-path="url(#a)">
<defs>
<path id="ad" d="m31.781 66.406q-7.6094 0-11.453-7.5-3.8281-7.4844-3.8281-22.531 0-14.984 3.8281-22.484 3.8438-7.5 11.453-7.5 7.6719 0 11.5 7.5 3.8438 7.5 3.8438 22.484 0 15.047-3.8438 22.531-3.8281 7.5-11.5 7.5zm0 7.8125q12.266 0 18.734-9.7031 6.4688-9.6875 6.4688-28.141 0-18.406-6.4688-28.109-6.4688-9.6875-18.734-9.6875-12.25 0-18.719 9.6875-6.4688 9.7031-6.4688 28.109 0 18.453 6.4688 28.141 6.4688 9.7031 18.719 9.7031z"/>
</defs>
<g transform="translate(430.36 555.56) scale(.1 -.1)">
<use xlink:href="#c"/>
<use x="63.623047" xlink:href="#f"/>
<use x="95.410156" xlink:href="#c"/>
<use x="159.033203" xlink:href="#ad"/>
</g>
</g>
<g clip-path="url(#a)">
<g transform="translate(1197.7 555.56) scale(.1 -.1)">
<use xlink:href="#c"/>
<use x="63.623047" xlink:href="#f"/>
<use x="95.410156" xlink:href="#c"/>
<use x="159.033203" xlink:href="#c"/>
</g>
</g>
<g clip-path="url(#a)">
<g transform="translate(94.639 555.56) scale(.1 -.1)">
<use xlink:href="#c"/>
<use x="63.623047" xlink:href="#f"/>
<use x="95.410156" xlink:href="#c"/>
<use x="159.033203" xlink:href="#m"/>
</g>
</g>
<g clip-path="url(#a)">
<g transform="translate(334.44 555.56) scale(.1 -.1)">
<use xlink:href="#c"/>
<use x="63.623047" xlink:href="#f"/>
<use x="95.410156" xlink:href="#c"/>
<use x="159.033203" xlink:href="#o"/>
</g>
</g>
<g clip-path="url(#a)">
<g transform="translate(382.4 555.56) scale(.1 -.1)">
<use xlink:href="#c"/>
<use x="63.623047" xlink:href="#f"/>
<use x="95.410156" xlink:href="#c"/>
<use x="159.033203" xlink:href="#ac"/>
</g>
</g>
<g clip-path="url(#a)">
<g transform="translate(580.24 215.78) scale(.1 -.1)">
<use xlink:href="#c"/>
<use x="63.623047" xlink:href="#f"/>
<use x="95.410156" xlink:href="#c"/>
<use x="159.033203" xlink:href="#ab"/>
</g>
</g>
<g clip-path="url(#a)">
<g transform="translate(526.28 555.56) scale(.1 -.1)">
<use xlink:href="#c"/>
<use x="63.623047" xlink:href="#f"/>
<use x="95.410156" xlink:href="#c"/>
<use x="159.033203" xlink:href="#aa"/>
</g>
</g>
<g clip-path="url(#a)">
<g transform="translate(478.32 555.56) scale(.1 -.1)">
<use xlink:href="#c"/>
<use x="63.623047" xlink:href="#f"/>
<use x="95.410156" xlink:href="#c"/>
<use x="159.033203" xlink:href="#z"/>
</g>
</g>
<g clip-path="url(#a)">
<g transform="translate(736.11 303.28) scale(.1 -.1)">
<use xlink:href="#c"/>
<use x="63.623047" xlink:href="#f"/>
<use x="95.410156" xlink:href="#c"/>
<use x="159.033203" xlink:href="#y"/>
</g>
</g>
<g clip-path="url(#a)">
<g transform="translate(766.08 555.56) scale(.1 -.1)">
<use xlink:href="#c"/>
<use x="63.623047" xlink:href="#f"/>
<use x="95.410156" xlink:href="#c"/>
<use x="159.033203" xlink:href="#x"/>
</g>
</g>
<g clip-path="url(#a)">
<g transform="translate(574.24 555.56) scale(.1 -.1)">
<use xlink:href="#c"/>
<use x="63.623047" xlink:href="#f"/>
<use x="95.410156" xlink:href="#m"/>
<use x="159.033203" xlink:href="#ad"/>
</g>
</g>
<g clip-path="url(#a)">
<g transform="translate(694.14 472.78) scale(.1 -.1)">
<use xlink:href="#c"/>
<use x="63.623047" xlink:href="#f"/>
<use x="95.410156" xlink:href="#m"/>
<use x="159.033203" xlink:href="#c"/>
</g>
</g>
<g clip-path="url(#a)">
<g transform="translate(622.2 555.56) scale(.1 -.1)">
<use xlink:href="#c"/>
<use x="63.623047" xlink:href="#f"/>
<use x="95.410156" xlink:href="#m"/>
<use x="159.033203" xlink:href="#m"/>
</g>
</g>
<g clip-path="url(#a)">
<g transform="translate(718.12 472.78) scale(.1 -.1)">
<use xlink:href="#c"/>
<use x="63.623047" xlink:href="#f"/>
<use x="95.410156" xlink:href="#m"/>
<use x="159.033203" xlink:href="#o"/>
</g>
</g>
<g clip-path="url(#a)">
<g transform="translate(670.16 555.56) scale(.1 -.1)">
<use xlink:href="#c"/>
<use x="63.623047" xlink:href="#f"/>
<use x="95.410156" xlink:href="#m"/>
<use x="159.033203" xlink:href="#ac"/>
</g>
</g>
<g clip-path="url(#a)">
<g transform="translate(718.12 555.56) scale(.1 -.1)">
<use xlink:href="#c"/>
<use x="63.623047" xlink:href="#f"/>
<use x="95.410156" xlink:href="#m"/>
<use x="159.033203" xlink:href="#ab"/>
</g>
</g>
<g clip-path="url(#a)">
<g transform="translate(945.93 388.84) scale(.1 -.1)">
<use xlink:href="#c"/>
<use x="63.623047" xlink:href="#f"/>
<use x="95.410156" xlink:href="#m"/>
<use x="159.033203" xlink:href="#aa"/>
</g>
</g>
<g clip-path="url(#a)">
<g transform="translate(909.96 555.56) scale(.1 -.1)">
<use xlink:href="#c"/>
<use x="63.623047" xlink:href="#f"/>
<use x="95.410156" xlink:href="#m"/>
<use x="159.033203" xlink:href="#z"/>
</g>
</g>
<g clip-path="url(#a)">
<g transform="translate(814.04 555.56) scale(.1 -.1)">
<use xlink:href="#c"/>
<use x="63.623047" xlink:href="#f"/>
<use x="95.410156" xlink:href="#m"/>
<use x="159.033203" xlink:href="#y"/>
</g>
</g>
<g clip-path="url(#a)">
<g transform="translate(909.96 555.56) scale(.1 -.1)">
<use xlink:href="#c"/>
<use x="63.623047" xlink:href="#f"/>
<use x="95.410156" xlink:href="#m"/>
<use x="159.033203" xlink:href="#x"/>
</g>
</g>
<g clip-path="url(#a)">
<g transform="translate(1005.9 555.56) scale(.1 -.1)">
<use xlink:href="#c"/>
<use x="63.623047" xlink:href="#f"/>
<use x="95.410156" xlink:href="#o"/>
<use x="159.033203" xlink:href="#ad"/>
</g>
</g>
<g clip-path="url(#a)">
<g transform="translate(1089.8 472.78) scale(.1 -.1)">
<use xlink:href="#c"/>
<use x="63.623047" xlink:href="#f"/>
<use x="95.410156" xlink:href="#o"/>
<use x="159.033203" xlink:href="#c"/>
</g>
</g>
<g clip-path="url(#a)">
<g transform="translate(1125.8 555.56) scale(.1 -.1)">
<use xlink:href="#c"/>
<use x="63.623047" xlink:href="#f"/>
<use x="95.410156" xlink:href="#o"/>
<use x="159.033203" xlink:href="#m"/>
</g>
</g>
<g clip-path="url(#a)">
<g transform="translate(1053.8 555.56) scale(.1 -.1)">
<use xlink:href="#c"/>
<use x="63.623047" xlink:href="#f"/>
<use x="95.410156" xlink:href="#o"/>
<use x="159.033203" xlink:href="#o"/>
</g>
</g>
<defs>
<clipPath id="a">
<rect width="1266.7" height="666.67"/>
</clipPath>
</defs>
</svg>
