<?xml version="1.0" encoding="UTF-8"?>
<!DOCTYPE svg  PUBLIC '-//W3C//DTD SVG 1.1//EN'  'http://www.w3.org/Graphics/SVG/1.1/DTD/svg11.dtd'>
<svg width="1368pt" height="720pt" version="1.1" viewBox="0 0 1368 720" xmlns="http://www.w3.org/2000/svg" xmlns:xlink="http://www.w3.org/1999/xlink">
<defs>
<style type="text/css">*{stroke-linecap:butt;stroke-linejoin:round;}</style>
</defs>
<path d="m0 720h1368v-720h-1368z" fill="#fff"/>
<g fill="none" stroke="#000">
<path d="m869.39 33.641-462.9 334.82" clip-path="url(#a)"/>
<path d="m869.39 33.641-24.361 114.33" clip-path="url(#a)"/>
<path d="m869.39 33.641-29.986 547.24" clip-path="url(#a)"/>
<path d="m869.39 33.641 391.83 652.72" clip-path="url(#a)"/>
<path d="m869.39 33.641 125.42 441.76" clip-path="url(#a)"/>
<path d="m406.49 368.46-166.5 212.42" clip-path="url(#a)"/>
<path d="m406.49 368.46-299.71 106.94" clip-path="url(#a)"/>
<path d="m406.49 368.46-210.91 212.42" clip-path="url(#a)"/>
<path d="m406.49 368.46-99.903 106.94" clip-path="url(#a)"/>
<path d="m406.49 368.46-33.301 212.42" clip-path="url(#a)"/>
<path d="m406.49 368.46 810.32 212.42" clip-path="url(#a)"/>
<path d="m239.99 580.88v105.48" clip-path="url(#a)"/>
<path d="m106.79 475.4 44.401 105.48" clip-path="url(#a)"/>
<path d="m106.79 475.4-44.401 105.48" clip-path="url(#a)"/>
<path d="m106.79 475.4v105.48" clip-path="url(#a)"/>
<path d="m151.19 580.88v105.48" clip-path="url(#a)"/>
<path d="m195.59 580.88v105.48" clip-path="url(#a)"/>
<path d="m306.59 475.4 22.201 105.48" clip-path="url(#a)"/>
<path d="m306.59 475.4-22.201 105.48" clip-path="url(#a)"/>
<path d="m328.79 580.88v105.48" clip-path="url(#a)"/>
<path d="m373.19 580.88v105.48" clip-path="url(#a)"/>
<path d="m845.03 147.97-427.43 432.91" clip-path="url(#a)"/>
<path d="m845.03 147.97-110.71 111.49" clip-path="url(#a)"/>
<path d="m845.03 147.97-72.226 432.91" clip-path="url(#a)"/>
<path d="m845.03 147.97 282.98 432.91" clip-path="url(#a)"/>
<path d="m845.03 147.97 327.38 432.91" clip-path="url(#a)"/>
<path d="m417.59 580.88v105.48" clip-path="url(#a)"/>
<path d="m1216.8 580.88v105.48" clip-path="url(#a)"/>
<path d="m62.384 580.88v105.48" clip-path="url(#a)"/>
<path d="m106.79 580.88v105.48" clip-path="url(#a)"/>
<path d="m284.39 580.88v105.48" clip-path="url(#a)"/>
<path d="m734.32 259.45-28.121 321.43" clip-path="url(#a)"/>
<path d="m734.32 259.45-272.33 321.43" clip-path="url(#a)"/>
<path d="m734.32 259.45-176.12 109" clip-path="url(#a)"/>
<path d="m734.32 259.45-94.722 321.43" clip-path="url(#a)"/>
<path d="m734.32 259.45 571.29 426.9" clip-path="url(#a)"/>
<path d="m706.2 580.88-22.201 105.48" clip-path="url(#a)"/>
<path d="m706.2 580.88 22.201 105.48" clip-path="url(#a)"/>
<path d="m772.8 580.88v105.48" clip-path="url(#a)"/>
<path d="m839.4 580.88-22.201 105.48" clip-path="url(#a)"/>
<path d="m839.4 580.88 22.201 105.48" clip-path="url(#a)"/>
<path d="m994.81 475.4v105.48" clip-path="url(#a)"/>
<path d="m994.81 475.4-88.802 105.48" clip-path="url(#a)"/>
<path d="m994.81 475.4-44.401 105.48" clip-path="url(#a)"/>
<path d="m994.81 475.4 44.401 105.48" clip-path="url(#a)"/>
<path d="m994.81 475.4 88.802 105.48" clip-path="url(#a)"/>
<path d="m994.81 580.88v105.48" clip-path="url(#a)"/>
<path d="m1128 580.88v105.48" clip-path="url(#a)"/>
<path d="m1172.4 580.88v105.48" clip-path="url(#a)"/>
<path d="m461.99 580.88v105.48" clip-path="url(#a)"/>
<path d="m558.2 368.46 37.001 212.42" clip-path="url(#a)"/>
<path d="m558.2 368.46-51.801 212.42" clip-path="url(#a)"/>
<path d="m558.2 368.46 14.8 106.94" clip-path="url(#a)"/>
<path d="m595.2 580.88v105.48" clip-path="url(#a)"/>
<path d="m639.6 580.88v105.48" clip-path="url(#a)"/>
<path d="m906.01 580.88v105.48" clip-path="url(#a)"/>
<path d="m950.41 580.88v105.48" clip-path="url(#a)"/>
<path d="m1039.2 580.88v105.48" clip-path="url(#a)"/>
<path d="m1083.6 580.88v105.48" clip-path="url(#a)"/>
<path d="m506.4 580.88v105.48" clip-path="url(#a)"/>
<path d="m573 475.4 22.201 105.48" clip-path="url(#a)" stroke-dasharray="3.7,1.6"/>
<path d="m573 475.4-22.201 105.48" clip-path="url(#a)"/>
<path d="m550.8 580.88v105.48" clip-path="url(#a)"/>
</g>
<path d="m639.18 207.89 4.8747-3.5259q1.9446-1.4066 0.53806-3.3512l-4.5376-6.2734q-1.4066-1.9446-3.3512-0.53806l-4.8747 3.5259q-1.9446 1.4066-0.53806 3.3512l4.5376 6.2734q1.4066 1.9446 3.3512 0.53806z" clip-path="url(#a)" fill="#fff" stroke="#fff"/>
<g clip-path="url(#a)">
<defs>
<path id="ac" d="m9.8125 72.906h9.8594v-29.891h35.844v29.891h9.8594v-72.906h-9.8594v34.719h-35.844v-34.719h-9.8594z"/>
</defs>
<g transform="translate(636.8 204.6) rotate(-35.879) scale(.08 -.08)">
<use xlink:href="#ac"/>
</g>
</g>
<path d="m862.72 95.053 1.2538-5.8841q0.50018-2.3473-1.8471-2.8475l-7.5725-1.6136q-2.3473-0.50018-2.8475 1.8471l-1.2538 5.8841q-0.50018 2.3473 1.8471 2.8475l7.5725 1.6136q2.3473 0.50018 2.8475-1.8471z" clip-path="url(#a)" fill="#fff" stroke="#fff"/>
<g clip-path="url(#a)">
<g transform="translate(858.74 94.206) rotate(-77.971) scale(.08 -.08)">
<use xlink:href="#ac"/>
</g>
</g>
<path d="m860.54 309.83 0.24388-4.4508q0.13131-2.3964-2.2651-2.5277l-7.7309-0.42361q-2.3964-0.13131-2.5277 2.2651l-0.24388 4.4508q-0.13131 2.3964 2.2651 2.5277l7.7309 0.42361q2.3964 0.13131 2.5277-2.2651z" clip-path="url(#a)" fill="#fff" stroke="#fff"/>
<g clip-path="url(#a)">
<defs>
<path id="al" d="m9.8125 72.906h9.8594v-64.609h35.5v-8.2969h-45.359z"/>
</defs>
<g transform="translate(856.48 309.61) rotate(-86.864) scale(.08 -.08)">
<use xlink:href="#al"/>
</g>
</g>
<path d="m1058.8 361.32 2.2942 3.8218q1.2352 2.0577 3.293 0.82247l6.6383-3.9849q2.0577-1.2352 0.82247-3.293l-2.2942-3.8218q-1.2352-2.0577-3.293-0.82247l-6.6383 3.9849q-2.0577 1.2352-0.82247 3.293z" clip-path="url(#a)" fill="#fff" stroke="#fff"/>
<g clip-path="url(#a)">
<g transform="translate(1062.3 359.23) rotate(59.024) scale(.08 -.08)">
<use xlink:href="#al"/>
</g>
</g>
<path d="m925.24 253.34 1.6431 5.7875q0.65547 2.3088 2.9642 1.6533l7.4482-2.1146q2.3088-0.65547 1.6533-2.9642l-1.6431-5.7875q-0.65547-2.3088-2.9642-1.6533l-7.4482 2.1146q-2.3088 0.65547-1.6533 2.9642z" clip-path="url(#a)" fill="#fff" stroke="#fff"/>
<g clip-path="url(#a)">
<g transform="translate(929.15 252.23) rotate(74.151) scale(.08 -.08)">
<use xlink:href="#ac"/>
</g>
</g>
<path d="m326.69 480.44 2.9758-3.7965q1.4806-1.8889-0.40831-3.3695l-6.0936-4.7764q-1.8889-1.4806-3.3695 0.40831l-2.9758 3.7965q-1.4806 1.8889 0.40831 3.3695l6.0936 4.7764q1.8889 1.4806 3.3695-0.40831z" clip-path="url(#a)" fill="#fff" stroke="#fff"/>
<g clip-path="url(#a)">
<defs>
<path id="s" d="m19.672 64.797v-27.391h12.406q6.8906 0 10.641 3.5625 3.7656 3.5625 3.7656 10.156 0 6.5469-3.7656 10.109-3.75 3.5625-10.641 3.5625zm-9.8594 8.1094h22.266q12.266 0 18.531-5.5469 6.2812-5.5469 6.2812-16.234 0-10.797-6.2812-16.312-6.2656-5.5156-18.531-5.5156h-12.406v-29.297h-9.8594z"/>
</defs>
<g transform="translate(323.49 477.93) rotate(-51.909) scale(.08 -.08)">
<use xlink:href="#s"/>
</g>
</g>
<path d="m256.17 428.76 5.1542-1.8392q2.2604-0.80658 1.4538-3.067l-2.6021-7.2922q-0.80658-2.2604-3.067-1.4538l-5.1542 1.8392q-2.2604 0.80658-1.4538 3.067l2.6021 7.2922q0.80658 2.2604 3.067 1.4538z" clip-path="url(#a)" fill="#fff" stroke="#fff"/>
<g clip-path="url(#a)">
<defs>
<path id="o" d="m34.188 63.188-13.391-36.281h26.812zm-5.5781 9.7188h11.188l27.781-72.906h-10.25l-6.6406 18.703h-32.859l-6.6406-18.703h-10.406z"/>
</defs>
<g transform="translate(254.8 424.93) rotate(-19.638) scale(.08 -.08)">
<use xlink:href="#o"/>
</g>
</g>
<path d="m303.32 481.27 4.3401-4.3714q1.691-1.7031-0.012166-3.3941l-5.4944-5.4551q-1.7031-1.691-3.3941 0.012165l-4.3401 4.3714q-1.691 1.7031 0.012165 3.3941l5.4944 5.4551q1.7031 1.691 3.3941-0.012165z" clip-path="url(#a)" fill="#fff" stroke="#fff"/>
<g clip-path="url(#a)">
<defs>
<path id="ar" d="m19.672 64.797v-56.688h11.922q15.094 0 22.094 6.8281 7 6.8438 7 21.594 0 14.641-7 21.453t-22.094 6.8125zm-9.8594 8.1094h20.266q21.188 0 31.094-8.8125 9.9219-8.8125 9.9219-27.562 0-18.859-9.9688-27.703-9.9531-8.8281-31.047-8.8281h-20.266z"/>
</defs>
<g transform="translate(300.44 478.41) rotate(-45.205) scale(.08 -.08)">
<use xlink:href="#ar"/>
</g>
</g>
<path d="m359.26 428.21 3.7357-3.9991q1.6383-1.7538-0.11549-3.3921l-5.6579-5.2853q-1.7538-1.6383-3.3921 0.11549l-3.7357 3.9991q-1.6383 1.7538 0.11549 3.3921l5.6579 5.2853q1.7538 1.6383 3.3921-0.11549z" clip-path="url(#a)" fill="#fff" stroke="#fff"/>
<g clip-path="url(#a)">
<g transform="translate(356.29 425.44) rotate(-46.95) scale(.08 -.08)">
<use xlink:href="#o"/>
</g>
</g>
<path d="m395.58 478.53 0.9068-5.7844q0.3717-2.371-1.9993-2.7427l-7.6491-1.1991q-2.371-0.3717-2.7427 1.9993l-0.9068 5.7844q-0.3717 2.371 1.9993 2.7427l7.6491 1.1991q2.371 0.3717 2.7427-1.9993z" clip-path="url(#a)" fill="#fff" stroke="#fff"/>
<g clip-path="url(#a)">
<defs>
<path id="r" d="m8.6875 72.906h9.9219v-44.297q0-11.719 4.2344-16.875 4.25-5.1406 13.781-5.1406 9.4688 0 13.719 5.1406 4.25 5.1562 4.25 16.875v44.297h9.9062v-45.516q0-14.25-7.0625-21.531-7.0469-7.2812-20.812-7.2812-13.828 0-20.891 7.2812-7.0469 7.2812-7.0469 21.531z"/>
</defs>
<g transform="translate(391.57 477.9) rotate(-81.09) scale(.08 -.08)">
<use xlink:href="#r"/>
</g>
</g>
<path d="m807.23 479.99 5.6636 1.4847q2.3216 0.60859 2.9301-1.713l1.9633-7.4894q0.60859-2.3216-1.713-2.9301l-5.6636-1.4847q-2.3216-0.60859-2.9301 1.713l-1.9633 7.4894q-0.60859 2.3216 1.713 2.9301z" clip-path="url(#a)" fill="#fff" stroke="#fff"/>
<g clip-path="url(#a)">
<g transform="translate(808.26 476.06) rotate(14.689) scale(.08 -.08)">
<use xlink:href="#r"/>
</g>
</g>
<path d="m233.72 615.98v35.285q0 2.4 2.4 2.4h7.7425q2.4 0 2.4-2.4v-35.285q0-2.4-2.4-2.4h-7.7425q-2.4 0-2.4 2.4z" clip-path="url(#a)" fill="#fff" stroke="#fff"/>
<g clip-path="url(#a)">
<defs>
<path id="l" d="m-0.29688 72.906h61.672v-8.3125h-25.875v-64.594h-9.9062v64.594h-25.891z"/>
<path id="f" d="m56.203 29.594v-4.3906h-41.312q0.59375-9.2812 5.5938-14.141t13.938-4.8594q5.1719 0 10.031 1.2656t9.6562 3.8125v-8.5q-4.8438-2.0469-9.9219-3.125t-10.297-1.0781q-13.094 0-20.734 7.6094-7.6406 7.625-7.6406 20.625 0 13.422 7.25 21.297 7.25 7.8906 19.562 7.8906 11.031 0 17.453-7.1094 6.4219-7.0938 6.4219-19.297zm-8.9844 2.6406q-0.09375 7.3594-4.125 11.75-4.0312 4.4062-10.672 4.4062-7.5156 0-12.031-4.25t-5.2031-11.969z"/>
<path id="k" d="m41.109 46.297q-1.5156 0.875-3.2969 1.2812-1.7812 0.42188-3.9219 0.42188-7.625 0-11.703-4.9531t-4.0781-14.234v-28.812h-9.0312v54.688h9.0312v-8.5q2.8438 4.9844 7.375 7.3906 4.5469 2.4219 11.047 2.4219 0.92188 0 2.0469-0.125 1.125-0.10938 2.4844-0.35938z"/>
<path id="i" d="m52 44.188q3.375 6.0625 8.0625 8.9375t11.031 2.875q8.5469 0 13.188-5.9844 4.6406-5.9688 4.6406-17v-33.016h-9.0312v32.719q0 7.8594-2.7969 11.656-2.7812 3.8125-8.4844 3.8125-6.9844 0-11.047-4.6406-4.0469-4.625-4.0469-12.641v-30.906h-9.0312v32.719q0 7.9062-2.7812 11.688t-8.5938 3.7812q-6.8906 0-10.953-4.6562-4.0469-4.6562-4.0469-12.625v-30.906h-9.0312v54.688h9.0312v-8.5q3.0781 5.0312 7.375 7.4219t10.203 2.3906q5.9688 0 10.141-3.0312 4.1719-3.0156 6.1719-8.7812z"/>
<path id="j" d="m9.4219 54.688h8.9844v-54.688h-8.9844zm0 21.297h8.9844v-11.391h-8.9844z"/>
<path id="h" d="m54.891 33.016v-33.016h-8.9844v32.719q0 7.7656-3.0312 11.609-3.0312 3.8594-9.0781 3.8594-7.2812 0-11.484-4.6406-4.2031-4.625-4.2031-12.641v-30.906h-9.0312v54.688h9.0312v-8.5q3.2344 4.9375 7.5938 7.375 4.375 2.4375 10.094 2.4375 9.4219 0 14.25-5.8281 4.8438-5.8281 4.8438-17.156z"/>
<path id="d" d="m34.281 27.484q-10.891 0-15.094-2.4844t-4.2031-8.5q0-4.7812 3.1562-7.5938 3.1562-2.7969 8.5625-2.7969 7.4844 0 12 5.2969t4.5156 14.078v2zm17.922 3.7188v-31.203h-8.9844v8.2969q-3.0781-4.9688-7.6719-7.3438t-11.234-2.375q-8.3906 0-13.359 4.7188-4.9531 4.7188-4.9531 12.625 0 9.2188 6.1719 13.906 6.1875 4.6875 18.438 4.6875h12.609v0.89062q0 6.2031-4.0781 9.5938t-11.453 3.3906q-4.6875 0-9.1406-1.125-4.4375-1.125-8.5312-3.375v8.3125q4.9219 1.9062 9.5625 2.8438 4.6406 0.95312 9.0312 0.95312 11.875 0 17.734-6.1562 5.8594-6.1406 5.8594-18.641z"/>
<path id="g" d="m9.4219 75.984h8.9844v-75.984h-8.9844z"/>
</defs>
<g transform="translate(237.78 615.98) rotate(90) scale(.08 -.08)">
<use xlink:href="#l"/>
<use x="60.818359" xlink:href="#f"/>
<use x="122.341797" xlink:href="#k"/>
<use x="163.439453" xlink:href="#i"/>
<use x="260.851562" xlink:href="#j"/>
<use x="288.634766" xlink:href="#h"/>
<use x="352.013672" xlink:href="#d"/>
<use x="413.292969" xlink:href="#g"/>
</g>
</g>
<path d="m122.27 528.35 1.8715 4.4459q0.93115 2.212 3.1432 1.2809l7.136-3.0039q2.212-0.93115 1.2809-3.1432l-1.8715-4.4459q-0.93115-2.212-3.1432-1.2809l-7.136 3.0039q-2.212 0.93115-1.2809 3.1432z" clip-path="url(#a)" fill="#fff" stroke="#fff"/>
<g clip-path="url(#a)">
<g transform="translate(126.02 526.78) rotate(67.171) scale(.08 -.08)">
<use xlink:href="#s"/>
</g>
</g>
<path d="m89.472 532.7 1.7852-4.2408q0.93115-2.212-1.2809-3.1432l-7.136-3.0039q-2.212-0.93115-3.1432 1.2809l-1.7852 4.2408q-0.93115 2.212 1.2809 3.1432l7.136 3.0039q2.212 0.93115 3.1432-1.2809z" clip-path="url(#a)" fill="#fff" stroke="#fff"/>
<g clip-path="url(#a)">
<defs>
<path id="u" d="m9.8125 72.906h41.891v-8.3125h-32.031v-21.484h28.906v-8.2969h-28.906v-34.812h-9.8594z"/>
</defs>
<g transform="translate(85.727 531.12) rotate(-67.171) scale(.08 -.08)">
<use xlink:href="#u"/>
</g>
</g>
<path d="m100.51 525.41v5.4725q0 2.4 2.4 2.4h7.7425q2.4 0 2.4-2.4v-5.4725q0-2.4-2.4-2.4h-7.7425q-2.4 0-2.4 2.4z" clip-path="url(#a)" fill="#fff" stroke="#fff"/>
<g clip-path="url(#a)">
<g transform="translate(104.58 525.41) rotate(90) scale(.08 -.08)">
<use xlink:href="#o"/>
</g>
</g>
<path d="m144.92 615.98v35.285q0 2.4 2.4 2.4h7.7425q2.4 0 2.4-2.4v-35.285q0-2.4-2.4-2.4h-7.7425q-2.4 0-2.4 2.4z" clip-path="url(#a)" fill="#fff" stroke="#fff"/>
<g clip-path="url(#a)">
<g transform="translate(148.98 615.98) rotate(90) scale(.08 -.08)">
<use xlink:href="#l"/>
<use x="60.818359" xlink:href="#f"/>
<use x="122.341797" xlink:href="#k"/>
<use x="163.439453" xlink:href="#i"/>
<use x="260.851562" xlink:href="#j"/>
<use x="288.634766" xlink:href="#h"/>
<use x="352.013672" xlink:href="#d"/>
<use x="413.292969" xlink:href="#g"/>
</g>
</g>
<path d="m189.32 615.98v35.285q0 2.4 2.4 2.4h7.7425q2.4 0 2.4-2.4v-35.285q0-2.4-2.4-2.4h-7.7425q-2.4 0-2.4 2.4z" clip-path="url(#a)" fill="#fff" stroke="#fff"/>
<g clip-path="url(#a)">
<g transform="translate(193.38 615.98) rotate(90) scale(.08 -.08)">
<use xlink:href="#l"/>
<use x="60.818359" xlink:href="#f"/>
<use x="122.341797" xlink:href="#k"/>
<use x="163.439453" xlink:href="#i"/>
<use x="260.851562" xlink:href="#j"/>
<use x="288.634766" xlink:href="#h"/>
<use x="352.013672" xlink:href="#d"/>
<use x="413.292969" xlink:href="#g"/>
</g>
</g>
<path d="m310.98 526.7 1.1506 5.4665q0.49431 2.3485 2.8429 1.8542l7.5765-1.5947q2.3485-0.49431 1.8542-2.8429l-1.1506-5.4665q-0.49431-2.3485-2.8429-1.8542l-7.5765 1.5947q-2.3485 0.49431-1.8542 2.8429z" clip-path="url(#a)" fill="#fff" stroke="#fff"/>
<g clip-path="url(#a)">
<defs>
<path id="am" d="m64.406 67.281v-10.391q-4.9844 4.6406-10.625 6.9219-5.6406 2.2969-11.984 2.2969-12.5 0-19.141-7.6406t-6.6406-22.094q0-14.406 6.6406-22.047t19.141-7.6406q6.3438 0 11.984 2.2969t10.625 6.9375v-10.312q-5.1719-3.5156-10.969-5.2812-5.7812-1.75-12.219-1.75-16.562 0-26.094 10.125-9.5156 10.141-9.5156 27.672 0 17.578 9.5156 27.703 9.5312 10.141 26.094 10.141 6.5312 0 12.312-1.7344 5.7969-1.7344 10.875-5.2031z"/>
</defs>
<g transform="translate(314.96 525.86) rotate(78.114) scale(.08 -.08)">
<use xlink:href="#am"/>
</g>
</g>
<path d="m301.05 532.15 1.1449-5.4396q0.49431-2.3485-1.8542-2.8429l-7.5765-1.5947q-2.3485-0.49431-2.8429 1.8542l-1.1449 5.4396q-0.49431 2.3485 1.8542 2.8429l7.5765 1.5947q2.3485 0.49431 2.8429-1.8542z" clip-path="url(#a)" fill="#fff" stroke="#fff"/>
<g clip-path="url(#a)">
<defs>
<path id="ak" d="m44.391 34.188q3.1719-1.0781 6.1719-4.5938t6.0312-9.6719l10.016-19.922h-10.609l-9.3125 18.703q-3.625 7.3281-7.0156 9.7188t-9.25 2.3906h-10.75v-30.812h-9.8594v72.906h22.266q12.5 0 18.656-5.2344 6.1562-5.2188 6.1562-15.766 0-6.8906-3.2031-11.438-3.2031-4.5312-9.2969-6.2812zm-24.719 30.609v-25.875h12.406q7.125 0 10.766 3.2969t3.6406 9.6875-3.6406 9.6406-10.766 3.25z"/>
</defs>
<g transform="translate(297.08 531.32) rotate(-78.114) scale(.08 -.08)">
<use xlink:href="#ak"/>
</g>
</g>
<path d="m322.52 615.98v35.285q0 2.4 2.4 2.4h7.7425q2.4 0 2.4-2.4v-35.285q0-2.4-2.4-2.4h-7.7425q-2.4 0-2.4 2.4z" clip-path="url(#a)" fill="#fff" stroke="#fff"/>
<g clip-path="url(#a)">
<g transform="translate(326.58 615.98) rotate(90) scale(.08 -.08)">
<use xlink:href="#l"/>
<use x="60.818359" xlink:href="#f"/>
<use x="122.341797" xlink:href="#k"/>
<use x="163.439453" xlink:href="#i"/>
<use x="260.851562" xlink:href="#j"/>
<use x="288.634766" xlink:href="#h"/>
<use x="352.013672" xlink:href="#d"/>
<use x="413.292969" xlink:href="#g"/>
</g>
</g>
<path d="m366.92 615.98v35.285q0 2.4 2.4 2.4h7.7425q2.4 0 2.4-2.4v-35.285q0-2.4-2.4-2.4h-7.7425q-2.4 0-2.4 2.4z" clip-path="url(#a)" fill="#fff" stroke="#fff"/>
<g clip-path="url(#a)">
<g transform="translate(370.98 615.98) rotate(90) scale(.08 -.08)">
<use xlink:href="#l"/>
<use x="60.818359" xlink:href="#f"/>
<use x="122.341797" xlink:href="#k"/>
<use x="163.439453" xlink:href="#i"/>
<use x="260.851562" xlink:href="#j"/>
<use x="288.634766" xlink:href="#h"/>
<use x="352.013672" xlink:href="#d"/>
<use x="413.292969" xlink:href="#g"/>
</g>
</g>
<path d="m634.08 370.55 3.3891-3.4326q1.6862-1.7078-0.021619-3.394l-5.5095-5.4398q-1.7078-1.6862-3.394 0.021619l-3.3891 3.4326q-1.6862 1.7078 0.021619 3.394l5.5095 5.4398q1.7078 1.6862 3.394-0.021619z" clip-path="url(#a)" fill="#fff" stroke="#fff"/>
<g clip-path="url(#a)">
<g transform="translate(631.19 367.69) rotate(-45.365) scale(.08 -.08)">
<use xlink:href="#s"/>
</g>
</g>
<path d="m792.2 210.07 3.856-3.8832q1.6911-1.703-0.011933-3.3941l-5.494-5.4555q-1.703-1.6911-3.3941 0.011932l-3.856 3.8832q-1.6911 1.703 0.011933 3.3941l5.494 5.4555q1.703 1.6911 3.3941-0.011933z" clip-path="url(#a)" fill="#fff" stroke="#fff"/>
<g clip-path="url(#a)">
<g transform="translate(789.31 207.21) rotate(-45.201) scale(.08 -.08)">
<use xlink:href="#o"/>
</g>
</g>
<path d="m814.62 368.34 0.96351-5.7752q0.39495-2.3673-1.9723-2.7622l-7.6369-1.2741q-2.3673-0.39495-2.7622 1.9723l-0.96351 5.7752q-0.39495 2.3673 1.9723 2.7622l7.6369 1.2741q2.3673 0.39495 2.7622-1.9723z" clip-path="url(#a)" fill="#fff" stroke="#fff"/>
<g clip-path="url(#a)">
<g transform="translate(810.61 367.67) rotate(-80.528) scale(.08 -.08)">
<use xlink:href="#r"/>
</g>
</g>
<path d="m979.67 365.4 3.2035 4.9009q1.3132 2.0089 3.322 0.69574l6.4808-4.2363q2.0089-1.3132 0.69574-3.322l-3.2035-4.9009q-1.3132-2.0089-3.322-0.69574l-6.4808 4.2363q-2.0089 1.3131-0.69574 3.322z" clip-path="url(#a)" fill="#fff" stroke="#fff"/>
<g clip-path="url(#a)">
<g transform="translate(983.07 363.18) rotate(56.829) scale(.08 -.08)">
<use xlink:href="#r"/>
</g>
</g>
<path d="m1002 365.87 3.5316 4.67q1.4476 1.9143 3.3619 0.46664l6.1755-4.6701q1.9143-1.4476 0.46663-3.3619l-3.5316-4.67q-1.4476-1.9143-3.3619-0.46663l-6.1755 4.6701q-1.9143 1.4476-0.46663 3.3619z" clip-path="url(#a)" fill="#fff" stroke="#fff"/>
<g clip-path="url(#a)">
<g transform="translate(1005.2 363.42) rotate(52.902) scale(.08 -.08)">
<use xlink:href="#r"/>
</g>
</g>
<path d="m411.32 615.98v35.285q0 2.4 2.4 2.4h7.7425q2.4 0 2.4-2.4v-35.285q0-2.4-2.4-2.4h-7.7425q-2.4 0-2.4 2.4z" clip-path="url(#a)" fill="#fff" stroke="#fff"/>
<g clip-path="url(#a)">
<g transform="translate(415.39 615.98) rotate(90) scale(.08 -.08)">
<use xlink:href="#l"/>
<use x="60.818359" xlink:href="#f"/>
<use x="122.341797" xlink:href="#k"/>
<use x="163.439453" xlink:href="#i"/>
<use x="260.851562" xlink:href="#j"/>
<use x="288.634766" xlink:href="#h"/>
<use x="352.013672" xlink:href="#d"/>
<use x="413.292969" xlink:href="#g"/>
</g>
</g>
<path d="m1210.5 615.98v35.285q0 2.4 2.4 2.4h7.7425q2.4 0 2.4-2.4v-35.285q0-2.4-2.4-2.4h-7.7425q-2.4 0-2.4 2.4z" clip-path="url(#a)" fill="#fff" stroke="#fff"/>
<g clip-path="url(#a)">
<g transform="translate(1214.6 615.98) rotate(90) scale(.08 -.08)">
<use xlink:href="#l"/>
<use x="60.818359" xlink:href="#f"/>
<use x="122.341797" xlink:href="#k"/>
<use x="163.439453" xlink:href="#i"/>
<use x="260.851562" xlink:href="#j"/>
<use x="288.634766" xlink:href="#h"/>
<use x="352.013672" xlink:href="#d"/>
<use x="413.292969" xlink:href="#g"/>
</g>
</g>
<path d="m56.113 615.98v35.285q0 2.4 2.4 2.4h7.7425q2.4 0 2.4-2.4v-35.285q0-2.4-2.4-2.4h-7.7425q-2.4 0-2.4 2.4z" clip-path="url(#a)" fill="#fff" stroke="#fff"/>
<g clip-path="url(#a)">
<g transform="translate(60.177 615.98) rotate(90) scale(.08 -.08)">
<use xlink:href="#l"/>
<use x="60.818359" xlink:href="#f"/>
<use x="122.341797" xlink:href="#k"/>
<use x="163.439453" xlink:href="#i"/>
<use x="260.851562" xlink:href="#j"/>
<use x="288.634766" xlink:href="#h"/>
<use x="352.013672" xlink:href="#d"/>
<use x="413.292969" xlink:href="#g"/>
</g>
</g>
<path d="m100.51 615.98v35.285q0 2.4 2.4 2.4h7.7425q2.4 0 2.4-2.4v-35.285q0-2.4-2.4-2.4h-7.7425q-2.4 0-2.4 2.4z" clip-path="url(#a)" fill="#fff" stroke="#fff"/>
<g clip-path="url(#a)">
<g transform="translate(104.58 615.98) rotate(90) scale(.08 -.08)">
<use xlink:href="#l"/>
<use x="60.818359" xlink:href="#f"/>
<use x="122.341797" xlink:href="#k"/>
<use x="163.439453" xlink:href="#i"/>
<use x="260.851562" xlink:href="#j"/>
<use x="288.634766" xlink:href="#h"/>
<use x="352.013672" xlink:href="#d"/>
<use x="413.292969" xlink:href="#g"/>
</g>
</g>
<path d="m278.12 615.98v35.285q0 2.4 2.4 2.4h7.7425q2.4 0 2.4-2.4v-35.285q0-2.4-2.4-2.4h-7.7425q-2.4 0-2.4 2.4z" clip-path="url(#a)" fill="#fff" stroke="#fff"/>
<g clip-path="url(#a)">
<g transform="translate(282.18 615.98) rotate(90) scale(.08 -.08)">
<use xlink:href="#l"/>
<use x="60.818359" xlink:href="#f"/>
<use x="122.341797" xlink:href="#k"/>
<use x="163.439453" xlink:href="#i"/>
<use x="260.851562" xlink:href="#j"/>
<use x="288.634766" xlink:href="#h"/>
<use x="352.013672" xlink:href="#d"/>
<use x="413.292969" xlink:href="#g"/>
</g>
</g>
<path d="m726.3 423.12 0.42041-4.8054q0.20917-2.3909-2.1817-2.6l-7.713-0.67479q-2.3909-0.20917-2.6 2.1817l-0.42041 4.8054q-0.20917 2.3909 2.1817 2.6l7.713 0.67479q2.3909 0.20917 2.6-2.1817z" clip-path="url(#a)" fill="#fff" stroke="#fff"/>
<g clip-path="url(#a)">
<g transform="translate(722.25 422.76) rotate(-85) scale(.08 -.08)">
<use xlink:href="#s"/>
</g>
</g>
<path d="m601.15 426.34 3.5933-4.2412q1.5514-1.8311-0.27972-3.3826l-5.9073-5.005q-1.8311-1.5514-3.3826 0.27972l-3.5933 4.2412q-1.5514 1.8311 0.27972 3.3826l5.9073 5.005q1.8311 1.5514 3.3826-0.27972z" clip-path="url(#a)" fill="#fff" stroke="#fff"/>
<g clip-path="url(#a)">
<g transform="translate(598.05 423.72) rotate(-49.727) scale(.08 -.08)">
<use xlink:href="#ak"/>
</g>
</g>
<path d="m647.23 320.73 4.6534-2.88q2.0408-1.263 0.77773-3.3038l-4.0746-6.5836q-1.263-2.0408-3.3038-0.77773l-4.6534 2.88q-2.0408 1.263-0.77773 3.3038l4.0746 6.5836q1.263 2.0408 3.3038 0.77773z" clip-path="url(#a)" fill="#fff" stroke="#fff"/>
<g clip-path="url(#a)">
<g transform="translate(645.09 317.27) rotate(-31.754) scale(.08 -.08)">
<use xlink:href="#o"/>
</g>
</g>
<path d="m692.33 424.15 1.3007-4.4136q0.67842-2.3021-1.6237-2.9805l-7.4267-2.1886q-2.3021-0.67842-2.9805 1.6237l-1.3007 4.4136q-0.67842 2.3021 1.6237 2.9805l7.4267 2.1886q2.3021 0.67842 2.9805-1.6237z" clip-path="url(#a)" fill="#fff" stroke="#fff"/>
<g clip-path="url(#a)">
<g transform="translate(688.43 423) rotate(-73.58) scale(.08 -.08)">
<use xlink:href="#u"/>
</g>
</g>
<path d="m1014.2 476.42 4.0493 3.0259q1.9225 1.4366 3.3592-0.4859l4.6346-6.2022q1.4366-1.9225-0.4859-3.3592l-4.0493-3.0259q-1.9225-1.4366-3.3592 0.4859l-4.6346 6.2022q-1.4366 1.9225 0.4859 3.3592z" clip-path="url(#a)" fill="#fff" stroke="#fff"/>
<g clip-path="url(#a)">
<defs>
<path id="ad" d="m9.8125 72.906h46.094v-8.3125h-36.234v-21.578h34.719v-8.2969h-34.719v-26.422h37.109v-8.2969h-46.969z"/>
</defs>
<g transform="translate(1016.6 473.16) rotate(36.769) scale(.08 -.08)">
<use xlink:href="#ad"/>
</g>
</g>
<path d="m697.6 652.18 7.2674-34.528q0.49431-2.3485-1.8542-2.8429l-7.5765-1.5947q-2.3485-0.49431-2.8429 1.8542l-7.2674 34.528q-0.49431 2.3485 1.8542 2.8429l7.5765 1.5947q2.3485 0.49431 2.8429-1.8542z" clip-path="url(#a)" fill="#fff" stroke="#fff"/>
<g clip-path="url(#a)">
<g transform="translate(693.63 651.34) rotate(-78.114) scale(.08 -.08)">
<use xlink:href="#l"/>
<use x="60.818359" xlink:href="#f"/>
<use x="122.341797" xlink:href="#k"/>
<use x="163.439453" xlink:href="#i"/>
<use x="260.851562" xlink:href="#j"/>
<use x="288.634766" xlink:href="#h"/>
<use x="352.013672" xlink:href="#d"/>
<use x="413.292969" xlink:href="#g"/>
</g>
</g>
<path d="m707.53 617.65 7.2674 34.528q0.49431 2.3485 2.8429 1.8542l7.5765-1.5947q2.3485-0.49431 1.8542-2.8429l-7.2674-34.528q-0.49431-2.3485-2.8429-1.8542l-7.5765 1.5947q-2.3485 0.49431-1.8542 2.8429z" clip-path="url(#a)" fill="#fff" stroke="#fff"/>
<g clip-path="url(#a)">
<g transform="translate(711.51 616.81) rotate(78.114) scale(.08 -.08)">
<use xlink:href="#l"/>
<use x="60.818359" xlink:href="#f"/>
<use x="122.341797" xlink:href="#k"/>
<use x="163.439453" xlink:href="#i"/>
<use x="260.851562" xlink:href="#j"/>
<use x="288.634766" xlink:href="#h"/>
<use x="352.013672" xlink:href="#d"/>
<use x="413.292969" xlink:href="#g"/>
</g>
</g>
<path d="m766.53 615.98v35.285q0 2.4 2.4 2.4h7.7425q2.4 0 2.4-2.4v-35.285q0-2.4-2.4-2.4h-7.7425q-2.4 0-2.4 2.4z" clip-path="url(#a)" fill="#fff" stroke="#fff"/>
<g clip-path="url(#a)">
<g transform="translate(770.59 615.98) rotate(90) scale(.08 -.08)">
<use xlink:href="#l"/>
<use x="60.818359" xlink:href="#f"/>
<use x="122.341797" xlink:href="#k"/>
<use x="163.439453" xlink:href="#i"/>
<use x="260.851562" xlink:href="#j"/>
<use x="288.634766" xlink:href="#h"/>
<use x="352.013672" xlink:href="#d"/>
<use x="413.292969" xlink:href="#g"/>
</g>
</g>
<path d="m830.81 652.18 7.2674-34.528q0.49431-2.3485-1.8542-2.8429l-7.5765-1.5947q-2.3485-0.49431-2.8429 1.8542l-7.2674 34.528q-0.49431 2.3485 1.8542 2.8429l7.5765 1.5947q2.3485 0.49431 2.8429-1.8542z" clip-path="url(#a)" fill="#fff" stroke="#fff"/>
<g clip-path="url(#a)">
<g transform="translate(826.83 651.34) rotate(-78.114) scale(.08 -.08)">
<use xlink:href="#l"/>
<use x="60.818359" xlink:href="#f"/>
<use x="122.341797" xlink:href="#k"/>
<use x="163.439453" xlink:href="#i"/>
<use x="260.851562" xlink:href="#j"/>
<use x="288.634766" xlink:href="#h"/>
<use x="352.013672" xlink:href="#d"/>
<use x="413.292969" xlink:href="#g"/>
</g>
</g>
<path d="m840.73 617.65 7.2674 34.528q0.49431 2.3485 2.8429 1.8542l7.5765-1.5947q2.3485-0.49431 1.8542-2.8429l-7.2674-34.528q-0.49431-2.3485-2.8429-1.8542l-7.5765 1.5947q-2.3485 0.49431-1.8542 2.8429z" clip-path="url(#a)" fill="#fff" stroke="#fff"/>
<g clip-path="url(#a)">
<g transform="translate(844.71 616.81) rotate(78.114) scale(.08 -.08)">
<use xlink:href="#l"/>
<use x="60.818359" xlink:href="#f"/>
<use x="122.341797" xlink:href="#k"/>
<use x="163.439453" xlink:href="#i"/>
<use x="260.851562" xlink:href="#j"/>
<use x="288.634766" xlink:href="#h"/>
<use x="352.013672" xlink:href="#d"/>
<use x="413.292969" xlink:href="#g"/>
</g>
</g>
<path d="m988.54 525.73v4.8238q0 2.4 2.4 2.4h7.7425q2.4 0 2.4-2.4v-4.8238q0-2.4-2.4-2.4h-7.7425q-2.4 0-2.4 2.4z" clip-path="url(#a)" fill="#fff" stroke="#fff"/>
<g clip-path="url(#a)">
<g transform="translate(992.6 525.73) rotate(90) scale(.08 -.08)">
<use xlink:href="#s"/>
</g>
</g>
<path d="m953.44 534.27 3.5245-4.1864q1.5457-1.836-0.29026-3.3817l-5.9229-4.9865q-1.836-1.5457-3.3817 0.29026l-3.5245 4.1864q-1.5457 1.836 0.29026 3.3817l5.9229 4.9865q1.836 1.5457 3.3817-0.29026z" clip-path="url(#a)" fill="#fff" stroke="#fff"/>
<g clip-path="url(#a)">
<g transform="translate(950.33 531.66) rotate(-49.906) scale(.08 -.08)">
<use xlink:href="#o"/>
</g>
</g>
<path d="m977.49 532.7 1.7852-4.2408q0.93115-2.212-1.2809-3.1432l-7.136-3.0039q-2.212-0.93115-3.1432 1.2809l-1.7852 4.2408q-0.93115 2.212 1.2809 3.1432l7.136 3.0039q2.212 0.93115 3.1432-1.2809z" clip-path="url(#a)" fill="#fff" stroke="#fff"/>
<g clip-path="url(#a)">
<g transform="translate(973.75 531.12) rotate(-67.171) scale(.08 -.08)">
<use xlink:href="#u"/>
</g>
</g>
<path d="m1010.2 528.05 2.1232 5.0438q0.93115 2.212 3.1432 1.2809l7.136-3.0039q2.212-0.93115 1.2809-3.1432l-2.1232-5.0438q-0.93115-2.212-3.1432-1.2809l-7.136 3.0039q-2.212 0.93115-1.2809 3.1432z" clip-path="url(#a)" fill="#fff" stroke="#fff"/>
<g clip-path="url(#a)">
<g transform="translate(1013.9 526.48) rotate(67.171) scale(.08 -.08)">
<use xlink:href="#o"/>
</g>
</g>
<path d="m1032.8 530.25 3.2557 3.867q1.5457 1.836 3.3817 0.29026l5.9229-4.9865q1.836-1.5457 0.29026-3.3817l-3.2557-3.867q-1.5457-1.836-3.3817-0.29026l-5.9229 4.9865q-1.836 1.5457-0.29026 3.3817z" clip-path="url(#a)" fill="#fff" stroke="#fff"/>
<g clip-path="url(#a)">
<g transform="translate(1035.9 527.63) rotate(49.906) scale(.08 -.08)">
<use xlink:href="#ad"/>
</g>
</g>
<path d="m988.54 615.98v35.285q0 2.4 2.4 2.4h7.7425q2.4 0 2.4-2.4v-35.285q0-2.4-2.4-2.4h-7.7425q-2.4 0-2.4 2.4z" clip-path="url(#a)" fill="#fff" stroke="#fff"/>
<g clip-path="url(#a)">
<g transform="translate(992.6 615.98) rotate(90) scale(.08 -.08)">
<use xlink:href="#l"/>
<use x="60.818359" xlink:href="#f"/>
<use x="122.341797" xlink:href="#k"/>
<use x="163.439453" xlink:href="#i"/>
<use x="260.851562" xlink:href="#j"/>
<use x="288.634766" xlink:href="#h"/>
<use x="352.013672" xlink:href="#d"/>
<use x="413.292969" xlink:href="#g"/>
</g>
</g>
<path d="m1121.7 615.98v35.285q0 2.4 2.4 2.4h7.7425q2.4 0 2.4-2.4v-35.285q0-2.4-2.4-2.4h-7.7425q-2.4 0-2.4 2.4z" clip-path="url(#a)" fill="#fff" stroke="#fff"/>
<g clip-path="url(#a)">
<g transform="translate(1125.8 615.98) rotate(90) scale(.08 -.08)">
<use xlink:href="#l"/>
<use x="60.818359" xlink:href="#f"/>
<use x="122.341797" xlink:href="#k"/>
<use x="163.439453" xlink:href="#i"/>
<use x="260.851562" xlink:href="#j"/>
<use x="288.634766" xlink:href="#h"/>
<use x="352.013672" xlink:href="#d"/>
<use x="413.292969" xlink:href="#g"/>
</g>
</g>
<path d="m1166.1 615.98v35.285q0 2.4 2.4 2.4h7.7425q2.4 0 2.4-2.4v-35.285q0-2.4-2.4-2.4h-7.7425q-2.4 0-2.4 2.4z" clip-path="url(#a)" fill="#fff" stroke="#fff"/>
<g clip-path="url(#a)">
<g transform="translate(1170.2 615.98) rotate(90) scale(.08 -.08)">
<use xlink:href="#l"/>
<use x="60.818359" xlink:href="#f"/>
<use x="122.341797" xlink:href="#k"/>
<use x="163.439453" xlink:href="#i"/>
<use x="260.851562" xlink:href="#j"/>
<use x="288.634766" xlink:href="#h"/>
<use x="352.013672" xlink:href="#d"/>
<use x="413.292969" xlink:href="#g"/>
</g>
</g>
<path d="m455.72 615.98v35.285q0 2.4 2.4 2.4h7.7425q2.4 0 2.4-2.4v-35.285q0-2.4-2.4-2.4h-7.7425q-2.4 0-2.4 2.4z" clip-path="url(#a)" fill="#fff" stroke="#fff"/>
<g clip-path="url(#a)">
<g transform="translate(459.79 615.98) rotate(90) scale(.08 -.08)">
<use xlink:href="#l"/>
<use x="60.818359" xlink:href="#f"/>
<use x="122.341797" xlink:href="#k"/>
<use x="163.439453" xlink:href="#i"/>
<use x="260.851562" xlink:href="#j"/>
<use x="288.634766" xlink:href="#h"/>
<use x="352.013672" xlink:href="#d"/>
<use x="413.292969" xlink:href="#g"/>
</g>
</g>
<path d="m570.04 472.99 0.95861 5.5034q0.41184 2.3644 2.7762 1.9526l7.6277-1.3286q2.3644-0.41184 1.9526-2.7762l-0.95861-5.5034q-0.41184-2.3644-2.7762-1.9526l-7.6277 1.3286q-2.3644 0.41184-1.9526 2.7762z" clip-path="url(#a)" fill="#fff" stroke="#fff"/>
<g clip-path="url(#a)">
<g transform="translate(574.04 472.3) rotate(80.119) scale(.08 -.08)">
<use xlink:href="#am"/>
</g>
</g>
<path d="m537.84 478.39 1.0901-4.4703q0.5686-2.3317-1.7631-2.9003l-7.5221-1.8343q-2.3317-0.5686-2.9003 1.7631l-1.0901 4.4703q-0.5686 2.3317 1.7631 2.9003l7.5221 1.8343q2.3317 0.5686 2.9003-1.7631z" clip-path="url(#a)" fill="#fff" stroke="#fff"/>
<g clip-path="url(#a)">
<g transform="translate(533.9 477.43) rotate(-76.295) scale(.08 -.08)">
<use xlink:href="#u"/>
</g>
</g>
<path d="m559.04 420.29 0.69297 5.0073q0.32901 2.3773 2.7063 2.0483l7.6694-1.0614q2.3773-0.32901 2.0483-2.7063l-0.69297-5.0073q-0.32901-2.3773-2.7063-2.0483l-7.6694 1.0614q-2.3773 0.32901-2.0483 2.7063z" clip-path="url(#a)" fill="#fff" stroke="#fff"/>
<g clip-path="url(#a)">
<g transform="translate(563.06 419.73) rotate(82.121) scale(.08 -.08)">
<use xlink:href="#ad"/>
</g>
</g>
<path d="m588.93 615.98v35.285q0 2.4 2.4 2.4h7.7425q2.4 0 2.4-2.4v-35.285q0-2.4-2.4-2.4h-7.7425q-2.4 0-2.4 2.4z" clip-path="url(#a)" fill="#fff" stroke="#fff"/>
<g clip-path="url(#a)">
<g transform="translate(592.99 615.98) rotate(90) scale(.08 -.08)">
<use xlink:href="#l"/>
<use x="60.818359" xlink:href="#f"/>
<use x="122.341797" xlink:href="#k"/>
<use x="163.439453" xlink:href="#i"/>
<use x="260.851562" xlink:href="#j"/>
<use x="288.634766" xlink:href="#h"/>
<use x="352.013672" xlink:href="#d"/>
<use x="413.292969" xlink:href="#g"/>
</g>
</g>
<path d="m633.33 615.98v35.285q0 2.4 2.4 2.4h7.7425q2.4 0 2.4-2.4v-35.285q0-2.4-2.4-2.4h-7.7425q-2.4 0-2.4 2.4z" clip-path="url(#a)" fill="#fff" stroke="#fff"/>
<g clip-path="url(#a)">
<g transform="translate(637.39 615.98) rotate(90) scale(.08 -.08)">
<use xlink:href="#l"/>
<use x="60.818359" xlink:href="#f"/>
<use x="122.341797" xlink:href="#k"/>
<use x="163.439453" xlink:href="#i"/>
<use x="260.851562" xlink:href="#j"/>
<use x="288.634766" xlink:href="#h"/>
<use x="352.013672" xlink:href="#d"/>
<use x="413.292969" xlink:href="#g"/>
</g>
</g>
<path d="m899.73 615.98v35.285q0 2.4 2.4 2.4h7.7425q2.4 0 2.4-2.4v-35.285q0-2.4-2.4-2.4h-7.7425q-2.4 0-2.4 2.4z" clip-path="url(#a)" fill="#fff" stroke="#fff"/>
<g clip-path="url(#a)">
<g transform="translate(903.8 615.98) rotate(90) scale(.08 -.08)">
<use xlink:href="#l"/>
<use x="60.818359" xlink:href="#f"/>
<use x="122.341797" xlink:href="#k"/>
<use x="163.439453" xlink:href="#i"/>
<use x="260.851562" xlink:href="#j"/>
<use x="288.634766" xlink:href="#h"/>
<use x="352.013672" xlink:href="#d"/>
<use x="413.292969" xlink:href="#g"/>
</g>
</g>
<path d="m944.14 615.98v35.285q0 2.4 2.4 2.4h7.7425q2.4 0 2.4-2.4v-35.285q0-2.4-2.4-2.4h-7.7425q-2.4 0-2.4 2.4z" clip-path="url(#a)" fill="#fff" stroke="#fff"/>
<g clip-path="url(#a)">
<g transform="translate(948.2 615.98) rotate(90) scale(.08 -.08)">
<use xlink:href="#l"/>
<use x="60.818359" xlink:href="#f"/>
<use x="122.341797" xlink:href="#k"/>
<use x="163.439453" xlink:href="#i"/>
<use x="260.851562" xlink:href="#j"/>
<use x="288.634766" xlink:href="#h"/>
<use x="352.013672" xlink:href="#d"/>
<use x="413.292969" xlink:href="#g"/>
</g>
</g>
<path d="m1032.9 615.98v35.285q0 2.4 2.4 2.4h7.7425q2.4 0 2.4-2.4v-35.285q0-2.4-2.4-2.4h-7.7425q-2.4 0-2.4 2.4z" clip-path="url(#a)" fill="#fff" stroke="#fff"/>
<g clip-path="url(#a)">
<g transform="translate(1037 615.98) rotate(90) scale(.08 -.08)">
<use xlink:href="#l"/>
<use x="60.818359" xlink:href="#f"/>
<use x="122.341797" xlink:href="#k"/>
<use x="163.439453" xlink:href="#i"/>
<use x="260.851562" xlink:href="#j"/>
<use x="288.634766" xlink:href="#h"/>
<use x="352.013672" xlink:href="#d"/>
<use x="413.292969" xlink:href="#g"/>
</g>
</g>
<path d="m1077.3 615.98v35.285q0 2.4 2.4 2.4h7.7425q2.4 0 2.4-2.4v-35.285q0-2.4-2.4-2.4h-7.7425q-2.4 0-2.4 2.4z" clip-path="url(#a)" fill="#fff" stroke="#fff"/>
<g clip-path="url(#a)">
<g transform="translate(1081.4 615.98) rotate(90) scale(.08 -.08)">
<use xlink:href="#l"/>
<use x="60.818359" xlink:href="#f"/>
<use x="122.341797" xlink:href="#k"/>
<use x="163.439453" xlink:href="#i"/>
<use x="260.851562" xlink:href="#j"/>
<use x="288.634766" xlink:href="#h"/>
<use x="352.013672" xlink:href="#d"/>
<use x="413.292969" xlink:href="#g"/>
</g>
</g>
<path d="m500.12 615.98v35.285q0 2.4 2.4 2.4h7.7425q2.4 0 2.4-2.4v-35.285q0-2.4-2.4-2.4h-7.7425q-2.4 0-2.4 2.4z" clip-path="url(#a)" fill="#fff" stroke="#fff"/>
<g clip-path="url(#a)">
<g transform="translate(504.19 615.98) rotate(90) scale(.08 -.08)">
<use xlink:href="#l"/>
<use x="60.818359" xlink:href="#f"/>
<use x="122.341797" xlink:href="#k"/>
<use x="163.439453" xlink:href="#i"/>
<use x="260.851562" xlink:href="#j"/>
<use x="288.634766" xlink:href="#h"/>
<use x="352.013672" xlink:href="#d"/>
<use x="413.292969" xlink:href="#g"/>
</g>
</g>
<path d="m577.4 526.76 1.1271 5.3552q0.49431 2.3485 2.8429 1.8542l7.5765-1.5947q2.3485-0.49431 1.8542-2.8429l-1.1271-5.3552q-0.49431-2.3485-2.8429-1.8542l-7.5765 1.5947q-2.3485 0.49431-1.8542 2.8429z" clip-path="url(#a)" fill="#fff" stroke="#fff"/>
<g clip-path="url(#a)">
<g transform="translate(581.37 525.92) rotate(78.114) scale(.08 -.08)">
<use xlink:href="#o"/>
</g>
</g>
<path d="m567.51 531.92 1.046-4.9699q0.49431-2.3485-1.8542-2.8429l-7.5765-1.5947q-2.3485-0.49431-2.8429 1.8542l-1.046 4.9699q-0.49431 2.3485 1.8542 2.8429l7.5765 1.5947q2.3485 0.49431 2.8429-1.8542z" clip-path="url(#a)" fill="#fff" stroke="#fff"/>
<g clip-path="url(#a)">
<defs>
<path id="ap" d="m53.516 70.516v-9.625q-5.6094 2.6875-10.594 4-4.9844 1.3281-9.625 1.3281-8.0469 0-12.422-3.125t-4.375-8.8906q0-4.8438 2.9062-7.3125 2.9062-2.4531 11.016-3.9688l5.9531-1.2188q11.031-2.1094 16.281-7.4062t5.25-14.172q0-10.609-7.1094-16.078-7.0938-5.4688-20.812-5.4688-5.1719 0-11.016 1.1719-5.8281 1.1719-12.078 3.4688v10.156q6-3.3594 11.766-5.0781 5.7656-1.7031 11.328-1.7031 8.4375 0 13.031 3.3125 4.5938 3.3281 4.5938 9.4844 0 5.3594-3.2969 8.3906t-10.812 4.5469l-6.0156 1.1719q-11.031 2.1875-15.969 6.875-4.9219 4.6875-4.9219 13.047 0 9.6719 6.8125 15.234t18.766 5.5625q5.1406 0 10.453-0.9375 5.3281-0.92188 10.891-2.7656z"/>
</defs>
<g transform="translate(563.53 531.08) rotate(-78.114) scale(.08 -.08)">
<use xlink:href="#ap"/>
</g>
</g>
<path d="m544.53 615.98v35.285q0 2.4 2.4 2.4h7.7425q2.4 0 2.4-2.4v-35.285q0-2.4-2.4-2.4h-7.7425q-2.4 0-2.4 2.4z" clip-path="url(#a)" fill="#fff" stroke="#fff"/>
<g clip-path="url(#a)">
<g transform="translate(548.59 615.98) rotate(90) scale(.08 -.08)">
<use xlink:href="#l"/>
<use x="60.818359" xlink:href="#f"/>
<use x="122.341797" xlink:href="#k"/>
<use x="163.439453" xlink:href="#i"/>
<use x="260.851562" xlink:href="#j"/>
<use x="288.634766" xlink:href="#h"/>
<use x="352.013672" xlink:href="#d"/>
<use x="413.292969" xlink:href="#g"/>
</g>
</g>
<defs>
<path id="b" d="m0 8.6603c2.2967 0 4.4997-0.9125 6.1237-2.5365 1.624-1.624 2.5365-3.827 2.5365-6.1237s-0.9125-4.4997-2.5365-6.1237c-1.624-1.624-3.827-2.5365-6.1237-2.5365s-4.4997 0.9125-6.1237 2.5365c-1.624 1.624-2.5365 3.827-2.5365 6.1237s0.9125 4.4997 2.5365 6.1237c1.624 1.624 3.827 2.5365 6.1237 2.5365z"/>
</defs>
<g clip-path="url(#a)">
<use x="62.3842" y="686.359264" fill="#ffffff" stroke="#ffffff" xlink:href="#b"/>
</g>
<g clip-path="url(#a)">
<use x="106.785328" y="686.359264" fill="#ffffff" stroke="#ffffff" xlink:href="#b"/>
</g>
<g clip-path="url(#a)">
<use x="151.186457" y="686.359264" fill="#ffffff" stroke="#ffffff" xlink:href="#b"/>
</g>
<g clip-path="url(#a)">
<use x="195.587586" y="686.359264" fill="#ffffff" stroke="#ffffff" xlink:href="#b"/>
</g>
<g clip-path="url(#a)">
<use x="239.988714" y="686.359264" fill="#ffffff" stroke="#ffffff" xlink:href="#b"/>
</g>
<g clip-path="url(#a)">
<use x="284.389843" y="686.359264" fill="#ffffff" stroke="#ffffff" xlink:href="#b"/>
</g>
<g clip-path="url(#a)">
<use x="328.790971" y="686.359264" fill="#ffffff" stroke="#ffffff" xlink:href="#b"/>
</g>
<g clip-path="url(#a)">
<use x="373.1921" y="686.359264" fill="#ffffff" stroke="#ffffff" xlink:href="#b"/>
</g>
<g clip-path="url(#a)">
<use x="417.593228" y="686.359264" fill="#ffffff" stroke="#ffffff" xlink:href="#b"/>
</g>
<g clip-path="url(#a)">
<use x="461.994357" y="686.359264" fill="#ffffff" stroke="#ffffff" xlink:href="#b"/>
</g>
<g clip-path="url(#a)">
<use x="506.395486" y="686.359264" fill="#ffffff" stroke="#ffffff" xlink:href="#b"/>
</g>
<g clip-path="url(#a)">
<use x="550.796614" y="686.359264" fill="#ffffff" stroke="#ffffff" xlink:href="#b"/>
</g>
<g clip-path="url(#a)">
<use x="595.197743" y="686.359264" fill="#ffffff" stroke="#ffffff" xlink:href="#b"/>
</g>
<g clip-path="url(#a)">
<use x="639.598871" y="686.359264" fill="#ffffff" stroke="#ffffff" xlink:href="#b"/>
</g>
<g clip-path="url(#a)">
<use x="684" y="686.359264" fill="#ffffff" stroke="#ffffff" xlink:href="#b"/>
</g>
<g clip-path="url(#a)">
<use x="728.401129" y="686.359264" fill="#ffffff" stroke="#ffffff" xlink:href="#b"/>
</g>
<g clip-path="url(#a)">
<use x="772.802257" y="686.359264" fill="#ffffff" stroke="#ffffff" xlink:href="#b"/>
</g>
<g clip-path="url(#a)">
<use x="817.203386" y="686.359264" fill="#ffffff" stroke="#ffffff" xlink:href="#b"/>
</g>
<g clip-path="url(#a)">
<use x="861.604514" y="686.359264" fill="#ffffff" stroke="#ffffff" xlink:href="#b"/>
</g>
<g clip-path="url(#a)">
<use x="906.005643" y="686.359264" fill="#ffffff" stroke="#ffffff" xlink:href="#b"/>
</g>
<g clip-path="url(#a)">
<use x="950.406772" y="686.359264" fill="#ffffff" stroke="#ffffff" xlink:href="#b"/>
</g>
<g clip-path="url(#a)">
<use x="994.8079" y="686.359264" fill="#ffffff" stroke="#ffffff" xlink:href="#b"/>
</g>
<g clip-path="url(#a)">
<use x="1039.209029" y="686.359264" fill="#ffffff" stroke="#ffffff" xlink:href="#b"/>
</g>
<g clip-path="url(#a)">
<use x="1083.610157" y="686.359264" fill="#ffffff" stroke="#ffffff" xlink:href="#b"/>
</g>
<g clip-path="url(#a)">
<use x="1128.011286" y="686.359264" fill="#ffffff" stroke="#ffffff" xlink:href="#b"/>
</g>
<g clip-path="url(#a)">
<use x="1172.412414" y="686.359264" fill="#ffffff" stroke="#ffffff" xlink:href="#b"/>
</g>
<g clip-path="url(#a)">
<use x="1216.813543" y="686.359264" fill="#ffffff" stroke="#ffffff" xlink:href="#b"/>
</g>
<g clip-path="url(#a)">
<use x="869.389512" y="33.640736" fill="#ffffff" stroke="#ffffff" xlink:href="#b"/>
</g>
<g clip-path="url(#a)">
<use x="406.492946" y="368.458905" fill="#ffffff" stroke="#ffffff" xlink:href="#b"/>
</g>
<g clip-path="url(#a)">
<use x="239.988714" y="580.881581" fill="#ffffff" stroke="#ffffff" xlink:href="#b"/>
</g>
<g clip-path="url(#a)">
<use x="106.785328" y="475.403898" fill="#ffffff" stroke="#ffffff" xlink:href="#b"/>
</g>
<g clip-path="url(#a)">
<use x="151.186457" y="580.881581" fill="#ffffff" stroke="#ffffff" xlink:href="#b"/>
</g>
<g clip-path="url(#a)">
<use x="195.587586" y="580.881581" fill="#ffffff" stroke="#ffffff" xlink:href="#b"/>
</g>
<g clip-path="url(#a)">
<use x="306.590407" y="475.403898" fill="#ffffff" stroke="#ffffff" xlink:href="#b"/>
</g>
<g clip-path="url(#a)">
<use x="328.790971" y="580.881581" fill="#ffffff" stroke="#ffffff" xlink:href="#b"/>
</g>
<g clip-path="url(#a)">
<use x="373.1921" y="580.881581" fill="#ffffff" stroke="#ffffff" xlink:href="#b"/>
</g>
<g clip-path="url(#a)">
<use x="845.028093" y="147.966618" fill="#ffffff" stroke="#ffffff" xlink:href="#b"/>
</g>
<g clip-path="url(#a)">
<use x="417.593228" y="580.881581" fill="#ffffff" stroke="#ffffff" xlink:href="#b"/>
</g>
<g clip-path="url(#a)">
<use x="1216.813543" y="580.881581" fill="#ffffff" stroke="#ffffff" xlink:href="#b"/>
</g>
<g clip-path="url(#a)">
<use x="62.3842" y="580.881581" fill="#ffffff" stroke="#ffffff" xlink:href="#b"/>
</g>
<g clip-path="url(#a)">
<use x="106.785328" y="580.881581" fill="#ffffff" stroke="#ffffff" xlink:href="#b"/>
</g>
<g clip-path="url(#a)">
<use x="284.389843" y="580.881581" fill="#ffffff" stroke="#ffffff" xlink:href="#b"/>
</g>
<g clip-path="url(#a)">
<use x="734.321279" y="259.454605" fill="#ffffff" stroke="#ffffff" xlink:href="#b"/>
</g>
<g clip-path="url(#a)">
<use x="706.200564" y="580.881581" fill="#ffffff" stroke="#ffffff" xlink:href="#b"/>
</g>
<g clip-path="url(#a)">
<use x="772.802257" y="580.881581" fill="#ffffff" stroke="#ffffff" xlink:href="#b"/>
</g>
<g clip-path="url(#a)">
<use x="839.40395" y="580.881581" fill="#ffffff" stroke="#ffffff" xlink:href="#b"/>
</g>
<g clip-path="url(#a)">
<use x="1261.214672" y="686.359264" fill="#ffffff" stroke="#ffffff" xlink:href="#b"/>
</g>
<g clip-path="url(#a)">
<use x="994.8079" y="475.403898" fill="#ffffff" stroke="#ffffff" xlink:href="#b"/>
</g>
<g clip-path="url(#a)">
<use x="994.8079" y="580.881581" fill="#ffffff" stroke="#ffffff" xlink:href="#b"/>
</g>
<g clip-path="url(#a)">
<use x="1128.011286" y="580.881581" fill="#ffffff" stroke="#ffffff" xlink:href="#b"/>
</g>
<g clip-path="url(#a)">
<use x="1172.412414" y="580.881581" fill="#ffffff" stroke="#ffffff" xlink:href="#b"/>
</g>
<g clip-path="url(#a)">
<use x="461.994357" y="580.881581" fill="#ffffff" stroke="#ffffff" xlink:href="#b"/>
</g>
<g clip-path="url(#a)">
<use x="558.196802" y="368.458905" fill="#ffffff" stroke="#ffffff" xlink:href="#b"/>
</g>
<g clip-path="url(#a)">
<use x="595.197743" y="580.881581" fill="#ffffff" stroke="#ffffff" xlink:href="#b"/>
</g>
<g clip-path="url(#a)">
<use x="639.598871" y="580.881581" fill="#ffffff" stroke="#ffffff" xlink:href="#b"/>
</g>
<g clip-path="url(#a)">
<use x="1305.6158" y="686.359264" fill="#ffffff" stroke="#ffffff" xlink:href="#b"/>
</g>
<g clip-path="url(#a)">
<use x="906.005643" y="580.881581" fill="#ffffff" stroke="#ffffff" xlink:href="#b"/>
</g>
<g clip-path="url(#a)">
<use x="950.406772" y="580.881581" fill="#ffffff" stroke="#ffffff" xlink:href="#b"/>
</g>
<g clip-path="url(#a)">
<use x="1039.209029" y="580.881581" fill="#ffffff" stroke="#ffffff" xlink:href="#b"/>
</g>
<g clip-path="url(#a)">
<use x="1083.610157" y="580.881581" fill="#ffffff" stroke="#ffffff" xlink:href="#b"/>
</g>
<g clip-path="url(#a)">
<use x="506.395486" y="580.881581" fill="#ffffff" stroke="#ffffff" xlink:href="#b"/>
</g>
<g clip-path="url(#a)">
<use x="572.997179" y="475.403898" fill="#ffffff" stroke="#ffffff" xlink:href="#b"/>
</g>
<g clip-path="url(#a)">
<use x="550.796614" y="580.881581" fill="#ffffff" stroke="#ffffff" xlink:href="#b"/>
</g>
<g clip-path="url(#a)">
<defs>
<path id="q" d="m54.891 33.016v-33.016h-8.9844v32.719q0 7.7656-3.0312 11.609-3.0312 3.8594-9.0781 3.8594-7.2812 0-11.484-4.6406-4.2031-4.625-4.2031-12.641v-30.906h-9.0312v75.984h9.0312v-29.797q3.2344 4.9375 7.5938 7.375 4.375 2.4375 10.094 2.4375 9.4219 0 14.25-5.8281 4.8438-5.8281 4.8438-17.156z"/>
</defs>
<g transform="translate(53.085 689.12) scale(.1 -.1)">
<use xlink:href="#l"/>
<use x="61.083984" xlink:href="#q"/>
<use x="124.462891" xlink:href="#f"/>
</g>
</g>
<g clip-path="url(#a)">
<defs>
<path id="aa" d="m45.406 46.391v29.594h8.9844v-75.984h-8.9844v8.2031q-2.8281-4.875-7.1562-7.25-4.3125-2.375-10.375-2.375-9.9062 0-16.141 7.9062-6.2188 7.9219-6.2188 20.812t6.2188 20.797q6.2344 7.9062 16.141 7.9062 6.0625 0 10.375-2.375 4.3281-2.3594 7.1562-7.2344zm-30.609-19.094q0-9.9062 4.0781-15.547t11.203-5.6406 11.219 5.6406q4.1094 5.6406 4.1094 15.547t-4.1094 15.547q-4.0938 5.6406-11.219 5.6406t-11.203-5.6406-4.0781-15.547z"/>
<path id="ai" d="m44.281 53.078v-8.5q-3.7969 1.9531-7.9062 2.9219-4.0938 0.98438-8.5 0.98438-6.6875 0-10.031-2.0469t-3.3438-6.1562q0-3.125 2.3906-4.9062t9.625-3.3906l3.0781-0.6875q9.5625-2.0469 13.594-5.7812t4.0312-10.422q0-7.625-6.0312-12.078-6.0312-4.4375-16.578-4.4375-4.3906 0-9.1562 0.85938t-10.031 2.5625v9.2812q4.9844-2.5938 9.8125-3.8906 4.8281-1.2812 9.5781-1.2812 6.3438 0 9.75 2.1719 3.4219 2.1719 3.4219 6.125 0 3.6562-2.4688 5.6094-2.4531 1.9531-10.812 3.7656l-3.125 0.73438q-8.3438 1.75-12.062 5.3906-3.7031 3.6406-3.7031 9.9844 0 7.7188 5.4688 11.906 5.4688 4.2031 15.531 4.2031 4.9688 0 9.3594-0.73438 4.4062-0.71875 8.1094-2.1875z"/>
<path id="ao" d="m9.0781 75.984h9.0312v-44.875l26.812 23.578h11.469l-29-25.578 30.234-29.109h-11.719l-27.797 26.703v-26.703h-9.0312z"/>
</defs>
<g transform="translate(95.035 689.12) scale(.1 -.1)">
<use xlink:href="#aa"/>
<use x="63.476562" xlink:href="#f"/>
<use x="125" xlink:href="#ai"/>
<use x="177.099609" xlink:href="#ao"/>
</g>
</g>
<g clip-path="url(#a)">
<defs>
<path id="z" d="m45.406 27.984q0 9.7656-4.0312 15.125-4.0156 5.375-11.297 5.375-7.2188 0-11.25-5.375-4.0312-5.3594-4.0312-15.125 0-9.7188 4.0312-15.094t11.25-5.375q7.2812 0 11.297 5.375 4.0312 5.375 4.0312 15.094zm8.9844-21.203q0-13.953-6.2031-20.766-6.1875-6.8125-18.984-6.8125-4.7344 0-8.9375 0.70312t-8.1562 2.1719v8.7344q3.9531-2.1406 7.8125-3.1562 3.8594-1.0312 7.8594-1.0312 8.8438 0 13.234 4.6094t4.3906 13.938v4.4531q-2.7812-4.8438-7.125-7.2344t-10.406-2.3906q-10.047 0-16.203 7.6562-6.1562 7.6719-6.1562 20.328 0 12.688 6.1562 20.344 6.1562 7.6719 16.203 7.6719 6.0625 0 10.406-2.3906t7.125-7.2188v8.2969h8.9844z"/>
<path id="p" d="m18.312 70.219v-15.531h18.5v-6.9844h-18.5v-29.688q0-6.6875 1.8281-8.5938t7.4531-1.9062h9.2188v-7.5156h-9.2188q-10.406 0-14.359 3.875-3.9531 3.8906-3.9531 14.141v29.688h-6.5938v6.9844h6.5938v15.531z"/>
</defs>
<g transform="translate(136.74 689.12) scale(.1 -.1)">
<use xlink:href="#d"/>
<use x="61.279297" xlink:href="#z"/>
<use x="124.755859" xlink:href="#f"/>
<use x="186.279297" xlink:href="#h"/>
<use x="249.658203" xlink:href="#p"/>
</g>
</g>
<g clip-path="url(#a)">
<defs>
<path id="ab" d="m48.781 52.594v-8.4062q-3.8125 2.1094-7.6406 3.1562t-7.7344 1.0469q-8.75 0-13.594-5.5469-4.8281-5.5312-4.8281-15.547t4.8281-15.562q4.8438-5.5312 13.594-5.5312 3.9062 0 7.7344 1.0469t7.6406 3.1562v-8.3125q-3.7656-1.75-7.7969-2.625-4.0156-0.89062-8.5625-0.89062-12.359 0-19.641 7.7656-7.2656 7.7656-7.2656 20.953 0 13.375 7.3438 21.031 7.3594 7.6719 20.156 7.6719 4.1406 0 8.0938-0.85938 3.9531-0.84375 7.6719-2.5469z"/>
<path id="t" d="m8.5 21.578v33.109h8.9844v-32.766q0-7.7656 3.0156-11.656 3.0312-3.875 9.0938-3.875 7.2656 0 11.484 4.6406 4.2344 4.6406 4.2344 12.656v31h8.9844v-54.688h-8.9844v8.4062q-3.2656-4.9844-7.5938-7.4062-4.3125-2.4219-10.031-2.4219-9.4219 0-14.312 5.8594-4.875 5.8594-4.875 17.141z"/>
<path id="aw" d="m32.172-5.0781q-3.7969-9.7656-7.4219-12.734-3.6094-2.9844-9.6562-2.9844h-7.1875v7.5156h5.2812q3.7031 0 5.75 1.7656 2.0625 1.75 4.5469 8.2969l1.6094 4.0938-22.109 53.812h9.5156l17.094-42.766 17.094 42.766h9.5156z"/>
</defs>
<g transform="translate(175.84 689.12) scale(.1 -.1)">
<use xlink:href="#d"/>
<use x="61.279297" xlink:href="#ab"/>
<use x="116.259766" xlink:href="#p"/>
<use x="155.46875" xlink:href="#t"/>
<use x="218.847656" xlink:href="#d"/>
<use x="280.126953" xlink:href="#g"/>
<use x="307.910156" xlink:href="#g"/>
<use x="335.693359" xlink:href="#aw"/>
</g>
</g>
<g clip-path="url(#a)">
<g transform="translate(222.28 689.12) scale(.1 -.1)">
<use xlink:href="#d"/>
<use x="61.279297" xlink:href="#k"/>
<use x="102.376953" xlink:href="#z"/>
<use x="165.853516" xlink:href="#t"/>
<use x="229.232422" xlink:href="#f"/>
<use x="290.755859" xlink:href="#aa"/>
</g>
</g>
<g clip-path="url(#a)">
<defs>
<path id="an" d="m4.2031 54.688h8.9844l11.234-42.672 11.172 42.672h10.594l11.234-42.672 11.188 42.672h8.9844l-14.312-54.688h-10.594l-11.766 44.828-11.812-44.828h-10.609z"/>
</defs>
<g transform="translate(273.78 689.12) scale(.1 -.1)">
<use xlink:href="#an"/>
<use x="81.787109" xlink:href="#j"/>
<use x="109.570312" xlink:href="#p"/>
<use x="148.779297" xlink:href="#q"/>
</g>
</g>
<g clip-path="url(#a)">
<g transform="translate(320.84 689.12) scale(.1 -.1)">
<use xlink:href="#i"/>
<use x="97.412109" xlink:href="#f"/>
</g>
</g>
<g clip-path="url(#a)">
<defs>
<path id="at" d="m11.719 12.406h10.297v-8.4062l-8-15.625h-6.2969l4 15.625z"/>
</defs>
<g transform="translate(371.6 689.12) scale(.1 -.1)">
<use xlink:href="#at"/>
</g>
</g>
<g clip-path="url(#a)">
<g transform="translate(396.4 689.12) scale(.1 -.1)">
<use xlink:href="#ab"/>
<use x="54.980469" xlink:href="#g"/>
<use x="82.763672" xlink:href="#d"/>
<use x="144.042969" xlink:href="#j"/>
<use x="171.826172" xlink:href="#i"/>
<use x="269.238281" xlink:href="#j"/>
<use x="297.021484" xlink:href="#h"/>
<use x="360.400391" xlink:href="#z"/>
</g>
</g>
<g clip-path="url(#a)">
<g transform="translate(451.84 689.12) scale(.1 -.1)">
<use xlink:href="#p"/>
<use x="39.208984" xlink:href="#q"/>
<use x="102.587891" xlink:href="#d"/>
<use x="163.867188" xlink:href="#p"/>
</g>
</g>
<g clip-path="url(#a)">
<defs>
<path id="y" d="m30.609 48.391q-7.2188 0-11.422-5.6406t-4.2031-15.453 4.1719-15.453q4.1875-5.6406 11.453-5.6406 7.1875 0 11.375 5.6562 4.2031 5.6719 4.2031 15.438 0 9.7188-4.2031 15.406-4.1875 5.6875-11.375 5.6875zm0 7.6094q11.719 0 18.406-7.625 6.7031-7.6094 6.7031-21.078 0-13.422-6.7031-21.078-6.6875-7.6406-18.406-7.6406-11.766 0-18.438 7.6406-6.6562 7.6562-6.6562 21.078 0 13.469 6.6562 21.078 6.6719 7.625 18.438 7.625z"/>
</defs>
<g transform="translate(500.17 689.12) scale(.1 -.1)">
<use xlink:href="#h"/>
<use x="63.378906" xlink:href="#y"/>
</g>
</g>
<g clip-path="url(#a)">
<g transform="translate(539.11 689.12) scale(.1 -.1)">
<use xlink:href="#ai"/>
<use x="52.099609" xlink:href="#t"/>
<use x="115.478516" xlink:href="#ab"/>
<use x="170.458984" xlink:href="#q"/>
</g>
</g>
<g clip-path="url(#a)">
<g transform="translate(580.76 689.12) scale(.1 -.1)">
<use xlink:href="#d"/>
<use x="61.279297" xlink:href="#g"/>
<use x="89.0625" xlink:href="#d"/>
<use x="150.341797" xlink:href="#k"/>
<use x="191.439453" xlink:href="#i"/>
</g>
</g>
<g clip-path="url(#a)">
<g transform="translate(630.19 689.12) scale(.1 -.1)">
<use xlink:href="#q"/>
<use x="63.378906" xlink:href="#d"/>
<use x="124.658203" xlink:href="#aa"/>
</g>
</g>
<g clip-path="url(#a)">
<g transform="translate(671.52 689.12) scale(.1 -.1)">
<use xlink:href="#z"/>
<use x="63.476562" xlink:href="#y"/>
<use x="124.658203" xlink:href="#h"/>
<use x="188.037109" xlink:href="#f"/>
</g>
</g>
<g clip-path="url(#a)">
<defs>
<path id="aj" d="m37.109 75.984v-7.4844h-8.5938q-4.8281 0-6.7188-1.9531-1.875-1.9531-1.875-7.0312v-4.8281h14.797v-6.9844h-14.797v-47.703h-9.0312v47.703h-8.5938v6.9844h8.5938v3.8125q0 9.125 4.25 13.297 4.25 4.1875 13.469 4.1875z"/>
</defs>
<g transform="translate(721.82 689.12) scale(.1 -.1)">
<use xlink:href="#y"/>
<use x="61.181641" xlink:href="#aj"/>
<use x="96.386719" xlink:href="#aj"/>
</g>
</g>
<g clip-path="url(#a)">
<defs>
<path id="av" d="m31 75.875q-6.5312-11.219-9.7188-22.219-3.1719-10.984-3.1719-22.266 0-11.266 3.2031-22.328t9.6875-22.25h-7.8125q-7.3125 11.484-10.953 22.562t-3.6406 22.016q0 10.891 3.6094 21.922 3.625 11.047 10.984 22.562z"/>
</defs>
<g transform="translate(770.85 689.12) scale(.1 -.1)">
<use xlink:href="#av"/>
</g>
</g>
<g clip-path="url(#a)">
<g transform="translate(811.53 689.12) scale(.1 -.1)">
<use xlink:href="#d"/>
<use x="61.279297" xlink:href="#ai"/>
</g>
</g>
<g clip-path="url(#a)">
<g transform="translate(858.46 689.12) scale(.1 -.1)">
<use xlink:href="#j"/>
<use x="27.783203" xlink:href="#aj"/>
</g>
</g>
<g clip-path="url(#a)">
<defs>
<path id="aq" d="m9.8125 72.906h9.8594v-72.906h-9.8594z"/>
</defs>
<g transform="translate(904.53 689.12) scale(.1 -.1)">
<use xlink:href="#aq"/>
</g>
</g>
<g clip-path="url(#a)">
<g transform="translate(935.53 689.12) scale(.1 -.1)">
<use xlink:href="#an"/>
<use x="81.787109" xlink:href="#y"/>
<use x="142.96875" xlink:href="#t"/>
<use x="206.347656" xlink:href="#g"/>
<use x="234.130859" xlink:href="#aa"/>
</g>
</g>
<g clip-path="url(#a)">
<g transform="translate(980.9 689.12) scale(.1 -.1)">
<use xlink:href="#i"/>
<use x="97.412109" xlink:href="#d"/>
<use x="158.691406" xlink:href="#ao"/>
<use x="216.554688" xlink:href="#f"/>
</g>
</g>
<g clip-path="url(#a)">
<g transform="translate(1029.1 689.12) scale(.1 -.1)">
<use xlink:href="#p"/>
<use x="39.208984" xlink:href="#q"/>
<use x="102.587891" xlink:href="#d"/>
<use x="163.867188" xlink:href="#p"/>
</g>
</g>
<g clip-path="url(#a)">
<defs>
<path id="ax" d="m18.109 8.2031v-29h-9.0312v75.484h9.0312v-8.2969q2.8438 4.875 7.1562 7.2344 4.3281 2.375 10.328 2.375 9.9688 0 16.188-7.9062 6.2344-7.9062 6.2344-20.797t-6.2344-20.812q-6.2188-7.9062-16.188-7.9062-6 0-10.328 2.375-4.3125 2.375-7.1562 7.25zm30.578 19.094q0 9.9062-4.0781 15.547t-11.203 5.6406q-7.1406 0-11.219-5.6406t-4.0781-15.547 4.0781-15.547 11.219-5.6406q7.125 0 11.203 5.6406t4.0781 15.547z"/>
</defs>
<g transform="translate(1077.3 689.12) scale(.1 -.1)">
<use xlink:href="#t"/>
<use x="63.378906" xlink:href="#ax"/>
</g>
</g>
<g clip-path="url(#a)">
<defs>
<path id="as" d="m19.094 12.406h9.9062v-12.406h-9.9062zm9.625 7.1719h-9.3281v7.5156q0 4.9375 1.3594 8.1094 1.375 3.1719 5.7656 7.375l4.3906 4.3438q2.7812 2.5938 4.0312 4.8906t1.25 4.6875q0 4.3438-3.2031 7.0312t-8.4688 2.6875q-3.8594 0-8.2344-1.7188-4.3594-1.7031-9.1094-4.9844v9.1875q4.5938 2.7812 9.2969 4.1406 4.7188 1.375 9.75 1.375 8.9844 0 14.422-4.7344 5.4531-4.7344 5.4531-12.5 0-3.7188-1.7656-7.0625-1.75-3.3438-6.1406-7.5312l-4.2969-4.2031q-2.2969-2.2969-3.25-3.5938t-1.3438-2.5156q-0.29688-1.0156-0.4375-2.4844t-0.14062-4z"/>
</defs>
<g transform="translate(1125.4 689.12) scale(.1 -.1)">
<use xlink:href="#as"/>
</g>
</g>
<g clip-path="url(#a)">
<defs>
<path id="au" d="m8.0156 75.875h7.8125q7.3125-11.516 10.953-22.562 3.6406-11.031 3.6406-21.922 0-10.938-3.6406-22.016t-10.953-22.562h-7.8125q6.4844 11.188 9.6875 22.25t3.2031 22.328q0 11.281-3.2031 22.266-3.2031 11-9.6875 22.219z"/>
</defs>
<g transform="translate(1170.5 689.12) scale(.1 -.1)">
<use xlink:href="#au"/>
</g>
</g>
<g clip-path="url(#a)">
<defs>
<path id="e" d="m10.688 12.406h10.312v-12.406h-10.312z"/>
</defs>
<g transform="translate(1215.2 689.12) scale(.1 -.1)">
<use xlink:href="#e"/>
</g>
</g>
<g clip-path="url(#a)">
<defs>
<path id="c" d="m12.406 8.2969h16.109v55.625l-17.531-3.5156v8.9844l17.438 3.5156h9.8594v-64.609h16.109v-8.2969h-41.984z"/>
</defs>
<g transform="translate(861.44 36.4) scale(.1 -.1)">
<use xlink:href="#c"/>
<use x="63.623047" xlink:href="#e"/>
<use x="95.410156" xlink:href="#c"/>
</g>
</g>
<g clip-path="url(#a)">
<defs>
<path id="m" d="m19.188 8.2969h34.422v-8.2969h-46.281v8.2969q5.6094 5.8125 15.297 15.594 9.7031 9.7969 12.188 12.641 4.7344 5.3125 6.6094 9 1.8906 3.6875 1.8906 7.25 0 5.8125-4.0781 9.4688-4.0781 3.6719-10.625 3.6719-4.6406 0-9.7969-1.6094-5.1406-1.6094-11-4.8906v9.9688q5.9531 2.3906 11.125 3.6094 5.1875 1.2188 9.4844 1.2188 11.328 0 18.062-5.6719 6.7344-5.6562 6.7344-15.125 0-4.5-1.6875-8.5312-1.6719-4.0156-6.125-9.4844-1.2188-1.4219-7.7656-8.1875-6.5312-6.7656-18.453-18.922z"/>
</defs>
<g transform="translate(398.54 371.22) scale(.1 -.1)">
<use xlink:href="#c"/>
<use x="63.623047" xlink:href="#e"/>
<use x="95.410156" xlink:href="#m"/>
</g>
</g>
<g clip-path="url(#a)">
<defs>
<path id="n" d="m40.578 39.312q7.0781-1.5156 11.047-6.3125 3.9844-4.7812 3.9844-11.812 0-10.781-7.4219-16.703-7.4219-5.9062-21.094-5.9062-4.5781 0-9.4375 0.90625t-10.031 2.7188v9.5156q4.0938-2.3906 8.9688-3.6094 4.8906-1.2188 10.219-1.2188 9.2656 0 14.125 3.6562t4.8594 10.641q0 6.4531-4.5156 10.078-4.5156 3.6406-12.562 3.6406h-8.5v8.1094h8.8906q7.2656 0 11.125 2.9062t3.8594 8.375q0 5.6094-3.9844 8.6094-3.9688 3.0156-11.391 3.0156-4.0625 0-8.7031-0.89062-4.6406-0.875-10.203-2.7188v8.7812q5.625 1.5625 10.531 2.3438t9.25 0.78125q11.234 0 17.766-5.1094 6.5469-5.0938 6.5469-13.781 0-6.0625-3.4688-10.234t-9.8594-5.7812z"/>
</defs>
<g transform="translate(232.04 583.64) scale(.1 -.1)">
<use xlink:href="#c"/>
<use x="63.623047" xlink:href="#e"/>
<use x="95.410156" xlink:href="#n"/>
</g>
</g>
<g clip-path="url(#a)">
<defs>
<path id="x" d="m37.797 64.312-24.906-38.922h24.906zm-2.5938 8.5938h12.406v-47.516h10.406v-8.2031h-10.406v-17.188h-9.8125v17.188h-32.906v9.5156z"/>
</defs>
<g transform="translate(98.834 478.16) scale(.1 -.1)">
<use xlink:href="#c"/>
<use x="63.623047" xlink:href="#e"/>
<use x="95.410156" xlink:href="#x"/>
</g>
</g>
<g clip-path="url(#a)">
<defs>
<path id="w" d="m10.797 72.906h38.719v-8.3125h-29.688v-17.859q2.1406 0.73438 4.2812 1.0938 2.1562 0.35938 4.3125 0.35938 12.203 0 19.328-6.6875 7.1406-6.6875 7.1406-18.109 0-11.766-7.3281-18.297-7.3281-6.5156-20.656-6.5156-4.5938 0-9.3594 0.78125-4.75 0.78125-9.8281 2.3438v9.9219q4.3906-2.3906 9.0781-3.5625t9.9062-1.1719q8.4531 0 13.375 4.4375 4.9375 4.4375 4.9375 12.062 0 7.6094-4.9375 12.047-4.9219 4.4531-13.375 4.4531-3.9531 0-7.8906-0.875-3.9219-0.875-8.0156-2.7344z"/>
</defs>
<g transform="translate(143.23 583.64) scale(.1 -.1)">
<use xlink:href="#c"/>
<use x="63.623047" xlink:href="#e"/>
<use x="95.410156" xlink:href="#w"/>
</g>
</g>
<g clip-path="url(#a)">
<defs>
<path id="v" d="m33.016 40.375q-6.6406 0-10.531-4.5469-3.875-4.5312-3.875-12.438 0-7.8594 3.875-12.438 3.8906-4.5625 10.531-4.5625t10.516 4.5625q3.875 4.5781 3.875 12.438 0 7.9062-3.875 12.438-3.875 4.5469-10.516 4.5469zm19.578 30.922v-8.9844q-3.7188 1.75-7.5 2.6719-3.7812 0.9375-7.5 0.9375-9.7656 0-14.922-6.5938-5.1406-6.5938-5.875-19.922 2.875 4.25 7.2188 6.5156 4.3594 2.2656 9.5781 2.2656 10.984 0 17.359-6.6719 6.375-6.6562 6.375-18.125 0-11.234-6.6406-18.031-6.6406-6.7812-17.672-6.7812-12.656 0-19.344 9.6875-6.6875 9.7031-6.6875 28.109 0 17.281 8.2031 27.562t22.016 10.281q3.7188 0 7.5-0.73438t7.8906-2.1875z"/>
</defs>
<g transform="translate(187.64 583.64) scale(.1 -.1)">
<use xlink:href="#c"/>
<use x="63.623047" xlink:href="#e"/>
<use x="95.410156" xlink:href="#v"/>
</g>
</g>
<g clip-path="url(#a)">
<defs>
<path id="ag" d="m8.2031 72.906h46.875v-4.2031l-26.469-68.703h-10.297l24.906 64.594h-35.016z"/>
</defs>
<g transform="translate(298.64 478.16) scale(.1 -.1)">
<use xlink:href="#c"/>
<use x="63.623047" xlink:href="#e"/>
<use x="95.410156" xlink:href="#ag"/>
</g>
</g>
<g clip-path="url(#a)">
<defs>
<path id="af" d="m31.781 34.625q-7.0312 0-11.062-3.7656-4.0156-3.7656-4.0156-10.344 0-6.5938 4.0156-10.359 4.0312-3.7656 11.062-3.7656t11.078 3.7812q4.0625 3.7969 4.0625 10.344 0 6.5781-4.0312 10.344-4.0156 3.7656-11.109 3.7656zm-9.8594 4.1875q-6.3438 1.5625-9.8906 5.9062-3.5312 4.3594-3.5312 10.609 0 8.7344 6.2188 13.812 6.2344 5.0781 17.062 5.0781 10.891 0 17.094-5.0781t6.2031-13.812q0-6.25-3.5469-10.609-3.5312-4.3438-9.8281-5.9062 7.125-1.6562 11.094-6.5 3.9844-4.8281 3.9844-11.797 0-10.609-6.4688-16.281-6.4688-5.6562-18.531-5.6562-12.047 0-18.531 5.6562-6.4688 5.6719-6.4688 16.281 0 6.9688 4 11.797 4.0156 4.8438 11.141 6.5zm-3.6094 15.578q0-5.6562 3.5312-8.8281 3.5469-3.1719 9.9375-3.1719 6.3594 0 9.9375 3.1719 3.5938 3.1719 3.5938 8.8281 0 5.6719-3.5938 8.8438-3.5781 3.1719-9.9375 3.1719-6.3906 0-9.9375-3.1719-3.5312-3.1719-3.5312-8.8438z"/>
</defs>
<g transform="translate(320.84 583.64) scale(.1 -.1)">
<use xlink:href="#c"/>
<use x="63.623047" xlink:href="#e"/>
<use x="95.410156" xlink:href="#af"/>
</g>
</g>
<g clip-path="url(#a)">
<defs>
<path id="ae" d="m10.984 1.5156v8.9844q3.7188-1.7656 7.5156-2.6875 3.8125-0.92188 7.4844-0.92188 9.7656 0 14.906 6.5625 5.1562 6.5625 5.8906 19.953-2.8281-4.2031-7.1875-6.4531-4.3438-2.25-9.6094-2.25-10.938 0-17.312 6.6094-6.375 6.625-6.375 18.109 0 11.219 6.6406 18 6.6406 6.7969 17.672 6.7969 12.656 0 19.312-9.7031 6.6719-9.6875 6.6719-28.141 0-17.234-8.1875-27.516-8.1719-10.281-21.984-10.281-3.7188 0-7.5312 0.73438-3.7969 0.73438-7.9062 2.2031zm19.625 30.906q6.6406 0 10.516 4.5312 3.8906 4.5469 3.8906 12.469 0 7.8594-3.8906 12.422-3.875 4.5625-10.516 4.5625t-10.516-4.5625-3.875-12.422q0-7.9219 3.875-12.469 3.875-4.5312 10.516-4.5312z"/>
</defs>
<g transform="translate(365.24 583.64) scale(.1 -.1)">
<use xlink:href="#c"/>
<use x="63.623047" xlink:href="#e"/>
<use x="95.410156" xlink:href="#ae"/>
</g>
</g>
<g clip-path="url(#a)">
<defs>
<path id="ah" d="m31.781 66.406q-7.6094 0-11.453-7.5-3.8281-7.4844-3.8281-22.531 0-14.984 3.8281-22.484 3.8438-7.5 11.453-7.5 7.6719 0 11.5 7.5 3.8438 7.5 3.8438 22.484 0 15.047-3.8438 22.531-3.8281 7.5-11.5 7.5zm0 7.8125q12.266 0 18.734-9.7031 6.4688-9.6875 6.4688-28.141 0-18.406-6.4688-28.109-6.4688-9.6875-18.734-9.6875-12.25 0-18.719 9.6875-6.4688 9.7031-6.4688 28.109 0 18.453 6.4688 28.141 6.4688 9.7031 18.719 9.7031z"/>
</defs>
<g transform="translate(833.9 150.73) scale(.1 -.1)">
<use xlink:href="#c"/>
<use x="63.623047" xlink:href="#e"/>
<use x="95.410156" xlink:href="#c"/>
<use x="159.033203" xlink:href="#ah"/>
</g>
</g>
<g clip-path="url(#a)">
<g transform="translate(406.46 583.64) scale(.1 -.1)">
<use xlink:href="#c"/>
<use x="63.623047" xlink:href="#e"/>
<use x="95.410156" xlink:href="#c"/>
<use x="159.033203" xlink:href="#c"/>
</g>
</g>
<g clip-path="url(#a)">
<g transform="translate(1205.7 583.64) scale(.1 -.1)">
<use xlink:href="#c"/>
<use x="63.623047" xlink:href="#e"/>
<use x="95.410156" xlink:href="#c"/>
<use x="159.033203" xlink:href="#m"/>
</g>
</g>
<g clip-path="url(#a)">
<g transform="translate(51.251 583.64) scale(.1 -.1)">
<use xlink:href="#c"/>
<use x="63.623047" xlink:href="#e"/>
<use x="95.410156" xlink:href="#c"/>
<use x="159.033203" xlink:href="#n"/>
</g>
</g>
<g clip-path="url(#a)">
<g transform="translate(95.653 583.64) scale(.1 -.1)">
<use xlink:href="#c"/>
<use x="63.623047" xlink:href="#e"/>
<use x="95.410156" xlink:href="#c"/>
<use x="159.033203" xlink:href="#x"/>
</g>
</g>
<g clip-path="url(#a)">
<g transform="translate(273.26 583.64) scale(.1 -.1)">
<use xlink:href="#c"/>
<use x="63.623047" xlink:href="#e"/>
<use x="95.410156" xlink:href="#c"/>
<use x="159.033203" xlink:href="#w"/>
</g>
</g>
<g clip-path="url(#a)">
<g transform="translate(723.19 262.21) scale(.1 -.1)">
<use xlink:href="#c"/>
<use x="63.623047" xlink:href="#e"/>
<use x="95.410156" xlink:href="#c"/>
<use x="159.033203" xlink:href="#v"/>
</g>
</g>
<g clip-path="url(#a)">
<g transform="translate(695.07 583.64) scale(.1 -.1)">
<use xlink:href="#c"/>
<use x="63.623047" xlink:href="#e"/>
<use x="95.410156" xlink:href="#c"/>
<use x="159.033203" xlink:href="#ag"/>
</g>
</g>
<g clip-path="url(#a)">
<g transform="translate(761.67 583.64) scale(.1 -.1)">
<use xlink:href="#c"/>
<use x="63.623047" xlink:href="#e"/>
<use x="95.410156" xlink:href="#c"/>
<use x="159.033203" xlink:href="#af"/>
</g>
</g>
<g clip-path="url(#a)">
<g transform="translate(828.27 583.64) scale(.1 -.1)">
<use xlink:href="#c"/>
<use x="63.623047" xlink:href="#e"/>
<use x="95.410156" xlink:href="#c"/>
<use x="159.033203" xlink:href="#ae"/>
</g>
</g>
<g clip-path="url(#a)">
<g transform="translate(1250.1 689.12) scale(.1 -.1)">
<use xlink:href="#c"/>
<use x="63.623047" xlink:href="#e"/>
<use x="95.410156" xlink:href="#m"/>
<use x="159.033203" xlink:href="#ah"/>
</g>
</g>
<g clip-path="url(#a)">
<g transform="translate(983.68 478.16) scale(.1 -.1)">
<use xlink:href="#c"/>
<use x="63.623047" xlink:href="#e"/>
<use x="95.410156" xlink:href="#m"/>
<use x="159.033203" xlink:href="#c"/>
</g>
</g>
<g clip-path="url(#a)">
<g transform="translate(983.68 583.64) scale(.1 -.1)">
<use xlink:href="#c"/>
<use x="63.623047" xlink:href="#e"/>
<use x="95.410156" xlink:href="#m"/>
<use x="159.033203" xlink:href="#m"/>
</g>
</g>
<g clip-path="url(#a)">
<g transform="translate(1116.9 583.64) scale(.1 -.1)">
<use xlink:href="#c"/>
<use x="63.623047" xlink:href="#e"/>
<use x="95.410156" xlink:href="#m"/>
<use x="159.033203" xlink:href="#n"/>
</g>
</g>
<g clip-path="url(#a)">
<g transform="translate(1161.3 583.64) scale(.1 -.1)">
<use xlink:href="#c"/>
<use x="63.623047" xlink:href="#e"/>
<use x="95.410156" xlink:href="#m"/>
<use x="159.033203" xlink:href="#x"/>
</g>
</g>
<g clip-path="url(#a)">
<g transform="translate(450.86 583.64) scale(.1 -.1)">
<use xlink:href="#c"/>
<use x="63.623047" xlink:href="#e"/>
<use x="95.410156" xlink:href="#m"/>
<use x="159.033203" xlink:href="#w"/>
</g>
</g>
<g clip-path="url(#a)">
<g transform="translate(547.06 371.22) scale(.1 -.1)">
<use xlink:href="#c"/>
<use x="63.623047" xlink:href="#e"/>
<use x="95.410156" xlink:href="#m"/>
<use x="159.033203" xlink:href="#v"/>
</g>
</g>
<g clip-path="url(#a)">
<g transform="translate(584.06 583.64) scale(.1 -.1)">
<use xlink:href="#c"/>
<use x="63.623047" xlink:href="#e"/>
<use x="95.410156" xlink:href="#m"/>
<use x="159.033203" xlink:href="#ag"/>
</g>
</g>
<g clip-path="url(#a)">
<g transform="translate(628.47 583.64) scale(.1 -.1)">
<use xlink:href="#c"/>
<use x="63.623047" xlink:href="#e"/>
<use x="95.410156" xlink:href="#m"/>
<use x="159.033203" xlink:href="#af"/>
</g>
</g>
<g clip-path="url(#a)">
<g transform="translate(1294.5 689.12) scale(.1 -.1)">
<use xlink:href="#c"/>
<use x="63.623047" xlink:href="#e"/>
<use x="95.410156" xlink:href="#m"/>
<use x="159.033203" xlink:href="#ae"/>
</g>
</g>
<g clip-path="url(#a)">
<g transform="translate(894.87 583.64) scale(.1 -.1)">
<use xlink:href="#c"/>
<use x="63.623047" xlink:href="#e"/>
<use x="95.410156" xlink:href="#n"/>
<use x="159.033203" xlink:href="#ah"/>
</g>
</g>
<g clip-path="url(#a)">
<g transform="translate(939.27 583.64) scale(.1 -.1)">
<use xlink:href="#c"/>
<use x="63.623047" xlink:href="#e"/>
<use x="95.410156" xlink:href="#n"/>
<use x="159.033203" xlink:href="#c"/>
</g>
</g>
<g clip-path="url(#a)">
<g transform="translate(1028.1 583.64) scale(.1 -.1)">
<use xlink:href="#c"/>
<use x="63.623047" xlink:href="#e"/>
<use x="95.410156" xlink:href="#n"/>
<use x="159.033203" xlink:href="#m"/>
</g>
</g>
<g clip-path="url(#a)">
<g transform="translate(1072.5 583.64) scale(.1 -.1)">
<use xlink:href="#c"/>
<use x="63.623047" xlink:href="#e"/>
<use x="95.410156" xlink:href="#n"/>
<use x="159.033203" xlink:href="#n"/>
</g>
</g>
<g clip-path="url(#a)">
<g transform="translate(495.26 583.64) scale(.1 -.1)">
<use xlink:href="#c"/>
<use x="63.623047" xlink:href="#e"/>
<use x="95.410156" xlink:href="#n"/>
<use x="159.033203" xlink:href="#x"/>
</g>
</g>
<g clip-path="url(#a)">
<g transform="translate(561.86 478.16) scale(.1 -.1)">
<use xlink:href="#c"/>
<use x="63.623047" xlink:href="#e"/>
<use x="95.410156" xlink:href="#n"/>
<use x="159.033203" xlink:href="#w"/>
</g>
</g>
<g clip-path="url(#a)">
<g transform="translate(539.66 583.64) scale(.1 -.1)">
<use xlink:href="#c"/>
<use x="63.623047" xlink:href="#e"/>
<use x="95.410156" xlink:href="#n"/>
<use x="159.033203" xlink:href="#v"/>
</g>
</g>
<defs>
<clipPath id="a">
<rect width="1368" height="720"/>
</clipPath>
</defs>
</svg>
