<?xml version="1.0" encoding="UTF-8"?>
<!DOCTYPE svg  PUBLIC '-//W3C//DTD SVG 1.1//EN'  'http://www.w3.org/Graphics/SVG/1.1/DTD/svg11.dtd'>
<svg width="1672pt" height="880pt" version="1.1" viewBox="0 0 1672 880" xmlns="http://www.w3.org/2000/svg" xmlns:xlink="http://www.w3.org/1999/xlink">
<defs>
<style type="text/css">*{stroke-linecap:butt;stroke-linejoin:round;}</style>
</defs>
<path d="m0 880h1672v-880h-1672z" fill="#fff"/>
<g fill="none" stroke="#000">
<path d="m449.47 40.775 386.53 579.76" clip-path="url(#a)"/>
<path d="m449.47 40.775-278.32 579.76" clip-path="url(#a)"/>
<path d="m449.47 40.775-159.59 579.76" clip-path="url(#a)"/>
<path d="m449.47 40.775-40.871 689.1" clip-path="url(#a)"/>
<path d="m449.47 40.775 92.252 121.79" clip-path="url(#a)"/>
<path d="m836 620.53-759.82 109.35" clip-path="url(#a)"/>
<path d="m836 620.53 759.82 109.35" clip-path="url(#a)"/>
<path d="m76.177 729.88v109.35" clip-path="url(#a)"/>
<path d="m171.15 620.53 47.489 109.35" clip-path="url(#a)"/>
<path d="m171.15 620.53-47.489 109.35" clip-path="url(#a)"/>
<path d="m171.15 620.53v109.35" clip-path="url(#a)"/>
<path d="m218.64 729.88v109.35" clip-path="url(#a)"/>
<path d="m289.88 620.53 23.744 109.35" clip-path="url(#a)"/>
<path d="m289.88 620.53-23.744 109.35" clip-path="url(#a)"/>
<path d="m313.62 729.88v109.35" clip-path="url(#a)"/>
<path d="m408.6 729.88v109.35" clip-path="url(#a)"/>
<path d="m541.72 162.57-38.145 567.31" clip-path="url(#a)"/>
<path d="m541.72 162.57-180.61 567.31" clip-path="url(#a)"/>
<path d="m541.72 162.57-85.634 567.31" clip-path="url(#a)"/>
<path d="m541.72 162.57 304.39 118.52" clip-path="url(#a)"/>
<path d="m503.58 729.88v109.35" clip-path="url(#a)"/>
<path d="m1595.8 729.88v109.35" clip-path="url(#a)"/>
<path d="m123.67 729.88v109.35" clip-path="url(#a)"/>
<path d="m171.15 729.88v109.35" clip-path="url(#a)"/>
<path d="m266.13 729.88v109.35" clip-path="url(#a)"/>
<path d="m361.11 729.88v109.35" clip-path="url(#a)"/>
<path d="m456.09 729.88v109.35" clip-path="url(#a)"/>
<path d="m846.11 281.09-247.56 448.79" clip-path="url(#a)"/>
<path d="m846.11 281.09-295.05 448.79" clip-path="url(#a)"/>
<path d="m846.11 281.09-200.07 448.79" clip-path="url(#a)"/>
<path d="m846.11 281.09-152.58 448.79" clip-path="url(#a)"/>
<path d="m846.11 281.09-69.475 228.58" clip-path="url(#a)"/>
<path d="m846.11 281.09 37.376 448.79" clip-path="url(#a)"/>
<path d="m846.11 281.09 136.31 115.58" clip-path="url(#a)"/>
<path d="m846.11 281.09 274.82 448.79" clip-path="url(#a)"/>
<path d="m846.11 281.09 516.22 115.58" clip-path="url(#a)"/>
<path d="m598.56 729.88v109.35" clip-path="url(#a)"/>
<path d="m551.07 729.88v109.35" clip-path="url(#a)"/>
<path d="m646.04 729.88v109.35" clip-path="url(#a)"/>
<path d="m693.53 729.88v109.35" clip-path="url(#a)"/>
<path d="m776.64 509.67-35.617 220.21" clip-path="url(#a)"/>
<path d="m776.64 509.67 35.617 110.87" clip-path="url(#a)"/>
<path d="m741.02 729.88v109.35" clip-path="url(#a)"/>
<path d="m812.26 620.53 23.744 109.35" clip-path="url(#a)"/>
<path d="m812.26 620.53-23.744 109.35" clip-path="url(#a)"/>
<path d="m836 729.88v109.35" clip-path="url(#a)"/>
<path d="m883.49 729.88v109.35" clip-path="url(#a)"/>
<path d="m982.42 396.66-51.446 333.22" clip-path="url(#a)"/>
<path d="m982.42 396.66 51.446 113" clip-path="url(#a)"/>
<path d="m930.98 729.88v109.35" clip-path="url(#a)"/>
<path d="m788.51 729.88v109.35" clip-path="url(#a)"/>
<path d="m1033.9 509.67 39.574 220.21" clip-path="url(#a)"/>
<path d="m1033.9 509.67-55.404 220.21" clip-path="url(#a)"/>
<path d="m1033.9 509.67 15.83 110.87" clip-path="url(#a)"/>
<path d="m1073.4 729.88v109.35" clip-path="url(#a)"/>
<path d="m1120.9 729.88v109.35" clip-path="url(#a)"/>
<path d="m1362.3 396.66-146.42 333.22" clip-path="url(#a)"/>
<path d="m1362.3 396.66-193.91 333.22" clip-path="url(#a)"/>
<path d="m1362.3 396.66-3.9574 223.87" clip-path="url(#a)"/>
<path d="m1362.3 396.66 19.787 113" clip-path="url(#a)"/>
<path d="m1362.3 396.66 138.51 333.22" clip-path="url(#a)"/>
<path d="m1362.3 396.66 186 333.22" clip-path="url(#a)"/>
<path d="m1215.9 729.88v109.35" clip-path="url(#a)"/>
<path d="m978.47 729.88v109.35" clip-path="url(#a)"/>
<path d="m1049.7 620.53 23.744 109.35" clip-path="url(#a)" stroke-dasharray="3.7,1.6"/>
<path d="m1049.7 620.53-23.744 109.35" clip-path="url(#a)"/>
<path d="m1026 729.88v109.35" clip-path="url(#a)"/>
<path d="m1168.4 729.88v109.35" clip-path="url(#a)"/>
<path d="m1358.4 620.53-94.978 109.35" clip-path="url(#a)"/>
<path d="m1358.4 620.53 94.978 109.35" clip-path="url(#a)" stroke-dasharray="3.7,1.6"/>
<path d="m1263.4 729.88v109.35" clip-path="url(#a)"/>
<path d="m1382.1 509.67 71.233 220.21" clip-path="url(#a)"/>
<path d="m1382.1 509.67-71.233 220.21" clip-path="url(#a)"/>
<path d="m1382.1 509.67v110.87" clip-path="url(#a)"/>
<path d="m1453.4 729.88v109.35" clip-path="url(#a)"/>
<path d="m1500.8 729.88v109.35" clip-path="url(#a)"/>
<path d="m1548.3 729.88v109.35" clip-path="url(#a)"/>
<path d="m1310.9 729.88v109.35" clip-path="url(#a)"/>
<path d="m1382.1 620.53 23.744 109.35" clip-path="url(#a)"/>
<path d="m1382.1 620.53-23.744 109.35" clip-path="url(#a)"/>
<path d="m1405.9 729.88v109.35" clip-path="url(#a)"/>
<path d="m1358.4 729.88v109.35" clip-path="url(#a)"/>
</g>
<path d="m635.85 331.63 3.3374 5.0057q1.3313 1.9969 3.3282 0.66554l6.442-4.295q1.9969-1.3313 0.66555-3.3282l-3.3374-5.0057q-1.3313-1.9969-3.3282-0.66555l-6.442 4.295q-1.9969 1.3313-0.66554 3.3282z" clip-path="url(#a)" fill="#fff" stroke="#fff"/>
<g clip-path="url(#a)">
<defs>
<path id="v" d="m9.8125 72.906h9.8594v-29.891h35.844v29.891h9.8594v-72.906h-9.8594v34.719h-35.844v-34.719h-9.8594z"/>
</defs>
<g transform="translate(639.23 329.38) rotate(56.308) scale(.08 -.08)">
<use xlink:href="#v"/>
</g>
</g>
<path d="m314.66 336.08 2.6037-5.4237q1.0387-2.1636-1.125-3.2023l-6.9799-3.3507q-2.1636-1.0387-3.2023 1.125l-2.6037 5.4237q-1.0387 2.1636 1.125 3.2023l6.9799 3.3507q2.1636 1.0387 3.2023-1.125z" clip-path="url(#a)" fill="#fff" stroke="#fff"/>
<g clip-path="url(#a)">
<g transform="translate(311 334.32) rotate(-64.356) scale(.08 -.08)">
<use xlink:href="#v"/>
</g>
</g>
<path d="m374.92 335.22 1.5967-5.8005q0.63697-2.3139-1.677-2.9509l-7.4648-2.0549q-2.3139-0.63697-2.9509 1.677l-1.5967 5.8005q-0.63697 2.3139 1.677 2.9509l7.4648 2.0549q2.3139 0.63697 2.9509-1.677z" clip-path="url(#a)" fill="#fff" stroke="#fff"/>
<g clip-path="url(#a)">
<g transform="translate(371 334.14) rotate(-74.609) scale(.08 -.08)">
<use xlink:href="#v"/>
</g>
</g>
<path d="m435.16 387.92 0.26391-4.4497q0.1421-2.3958-2.2537-2.5379l-7.7289-0.45841q-2.3958-0.1421-2.5379 2.2537l-0.26391 4.4497q-0.1421 2.3958 2.2537 2.5379l7.7289 0.45841q2.3958 0.1421 2.5379-2.2537z" clip-path="url(#a)" fill="#fff" stroke="#fff"/>
<g clip-path="url(#a)">
<defs>
<path id="ah" d="m9.8125 72.906h9.8594v-64.609h35.5v-8.2969h-45.359z"/>
</defs>
<g transform="translate(431.11 387.68) rotate(-86.606) scale(.08 -.08)">
<use xlink:href="#ah"/>
</g>
</g>
<path d="m488.78 103.06 3.6326 4.7958q1.4491 1.9131 3.3622 0.46403l6.1719-4.6749q1.9131-1.4491 0.46403-3.3622l-3.6326-4.7958q-1.4491-1.9131-3.3622-0.46403l-6.1719 4.6749q-1.9131 1.4491-0.46403 3.3622z" clip-path="url(#a)" fill="#fff" stroke="#fff"/>
<g clip-path="url(#a)">
<g transform="translate(492.02 100.61) rotate(52.858) scale(.08 -.08)">
<use xlink:href="#v"/>
</g>
</g>
<path d="m454.27 681.8 5.4167-0.77952q2.3755-0.34186 2.0337-2.7174l-1.1029-7.6636q-0.34186-2.3755-2.7174-2.0337l-5.4167 0.77952q-2.3755 0.34186-2.0337 2.7174l1.1029 7.6636q0.34186 2.3755 2.7174 2.0337z" clip-path="url(#a)" fill="#fff" stroke="#fff"/>
<g clip-path="url(#a)">
<defs>
<path id="w" d="m34.188 63.188-13.391-36.281h26.812zm-5.5781 9.7188h11.188l27.781-72.906h-10.25l-6.6406 18.703h-32.859l-6.6406-18.703h-10.406z"/>
</defs>
<g transform="translate(453.69 677.78) rotate(-8.1892) scale(.08 -.08)">
<use xlink:href="#w"/>
</g>
</g>
<path d="m1212.1 681 5.7953 0.834q2.3755 0.34186 2.7174-2.0337l1.1029-7.6636q0.34186-2.3755-2.0337-2.7174l-5.7953-0.834q-2.3755-0.34186-2.7174 2.0337l-1.1029 7.6636q-0.34186 2.3755 2.0337 2.7174z" clip-path="url(#a)" fill="#fff" stroke="#fff"/>
<g clip-path="url(#a)">
<defs>
<path id="ad" d="m8.6875 72.906h9.9219v-44.297q0-11.719 4.2344-16.875 4.25-5.1406 13.781-5.1406 9.4688 0 13.719 5.1406 4.25 5.1562 4.25 16.875v44.297h9.9062v-45.516q0-14.25-7.0625-21.531-7.0469-7.2812-20.812-7.2812-13.828 0-20.891 7.2812-7.0469 7.2812-7.0469 21.531z"/>
</defs>
<g transform="translate(1212.7 676.97) rotate(8.1892) scale(.08 -.08)">
<use xlink:href="#ad"/>
</g>
</g>
<path d="m69.906 766.91v35.285q0 2.4 2.4 2.4h7.7425q2.4 0 2.4-2.4v-35.285q0-2.4-2.4-2.4h-7.7425q-2.4 0-2.4 2.4z" clip-path="url(#a)" fill="#fff" stroke="#fff"/>
<g clip-path="url(#a)">
<defs>
<path id="l" d="m-0.29688 72.906h61.672v-8.3125h-25.875v-64.594h-9.9062v64.594h-25.891z"/>
<path id="g" d="m56.203 29.594v-4.3906h-41.312q0.59375-9.2812 5.5938-14.141t13.938-4.8594q5.1719 0 10.031 1.2656t9.6562 3.8125v-8.5q-4.8438-2.0469-9.9219-3.125t-10.297-1.0781q-13.094 0-20.734 7.6094-7.6406 7.625-7.6406 20.625 0 13.422 7.25 21.297 7.25 7.8906 19.562 7.8906 11.031 0 17.453-7.1094 6.4219-7.0938 6.4219-19.297zm-8.9844 2.6406q-0.09375 7.3594-4.125 11.75-4.0312 4.4062-10.672 4.4062-7.5156 0-12.031-4.25t-5.2031-11.969z"/>
<path id="h" d="m41.109 46.297q-1.5156 0.875-3.2969 1.2812-1.7812 0.42188-3.9219 0.42188-7.625 0-11.703-4.9531t-4.0781-14.234v-28.812h-9.0312v54.688h9.0312v-8.5q2.8438 4.9844 7.375 7.3906 4.5469 2.4219 11.047 2.4219 0.92188 0 2.0469-0.125 1.125-0.10938 2.4844-0.35938z"/>
<path id="j" d="m52 44.188q3.375 6.0625 8.0625 8.9375t11.031 2.875q8.5469 0 13.188-5.9844 4.6406-5.9688 4.6406-17v-33.016h-9.0312v32.719q0 7.8594-2.7969 11.656-2.7812 3.8125-8.4844 3.8125-6.9844 0-11.047-4.6406-4.0469-4.625-4.0469-12.641v-30.906h-9.0312v32.719q0 7.9062-2.7812 11.688t-8.5938 3.7812q-6.8906 0-10.953-4.6562-4.0469-4.6562-4.0469-12.625v-30.906h-9.0312v54.688h9.0312v-8.5q3.0781 5.0312 7.375 7.4219t10.203 2.3906q5.9688 0 10.141-3.0312 4.1719-3.0156 6.1719-8.7812z"/>
<path id="i" d="m9.4219 54.688h8.9844v-54.688h-8.9844zm0 21.297h8.9844v-11.391h-8.9844z"/>
<path id="f" d="m54.891 33.016v-33.016h-8.9844v32.719q0 7.7656-3.0312 11.609-3.0312 3.8594-9.0781 3.8594-7.2812 0-11.484-4.6406-4.2031-4.625-4.2031-12.641v-30.906h-9.0312v54.688h9.0312v-8.5q3.2344 4.9375 7.5938 7.375 4.375 2.4375 10.094 2.4375 9.4219 0 14.25-5.8281 4.8438-5.8281 4.8438-17.156z"/>
<path id="e" d="m34.281 27.484q-10.891 0-15.094-2.4844t-4.2031-8.5q0-4.7812 3.1562-7.5938 3.1562-2.7969 8.5625-2.7969 7.4844 0 12 5.2969t4.5156 14.078v2zm17.922 3.7188v-31.203h-8.9844v8.2969q-3.0781-4.9688-7.6719-7.3438t-11.234-2.375q-8.3906 0-13.359 4.7188-4.9531 4.7188-4.9531 12.625 0 9.2188 6.1719 13.906 6.1875 4.6875 18.438 4.6875h12.609v0.89062q0 6.2031-4.0781 9.5938t-11.453 3.3906q-4.6875 0-9.1406-1.125-4.4375-1.125-8.5312-3.375v8.3125q4.9219 1.9062 9.5625 2.8438 4.6406 0.95312 9.0312 0.95312 11.875 0 17.734-6.1562 5.8594-6.1406 5.8594-18.641z"/>
<path id="k" d="m9.4219 75.984h8.9844v-75.984h-8.9844z"/>
</defs>
<g transform="translate(73.97 766.91) rotate(90) scale(.08 -.08)">
<use xlink:href="#l"/>
<use x="60.818359" xlink:href="#g"/>
<use x="122.341797" xlink:href="#h"/>
<use x="163.439453" xlink:href="#j"/>
<use x="260.851562" xlink:href="#i"/>
<use x="288.634766" xlink:href="#f"/>
<use x="352.013672" xlink:href="#e"/>
<use x="413.292969" xlink:href="#k"/>
</g>
</g>
<path d="m188.03 675.14 2.2253 5.1239q0.95605 2.2014 3.1574 1.2453l7.1017-3.0842q2.2014-0.95605 1.2453-3.1574l-2.2253-5.1239q-0.95605-2.2014-3.1574-1.2453l-7.1017 3.0842q-2.2014 0.95605-1.2453 3.1574z" clip-path="url(#a)" fill="#fff" stroke="#fff"/>
<g clip-path="url(#a)">
<defs>
<path id="q" d="m64.406 67.281v-10.391q-4.9844 4.6406-10.625 6.9219-5.6406 2.2969-11.984 2.2969-12.5 0-19.141-7.6406t-6.6406-22.094q0-14.406 6.6406-22.047t19.141-7.6406q6.3438 0 11.984 2.2969t10.625 6.9375v-10.312q-5.1719-3.5156-10.969-5.2812-5.7812-1.75-12.219-1.75-16.562 0-26.094 10.125-9.5156 10.141-9.5156 27.672 0 17.578 9.5156 27.703 9.5312 10.141 26.094 10.141 6.5312 0 12.312-1.7344 5.7969-1.7344 10.875-5.2031z"/>
</defs>
<g transform="translate(191.76 673.52) rotate(66.525) scale(.08 -.08)">
<use xlink:href="#q"/>
</g>
</g>
<path d="m152 680.39 2.3324-5.3704q0.95605-2.2014-1.2453-3.1574l-7.1017-3.0842q-2.2014-0.95605-3.1574 1.2453l-2.3324 5.3704q-0.95605 2.2014 1.2453 3.1574l7.1017 3.0842q2.2014 0.95605 3.1574-1.2453z" clip-path="url(#a)" fill="#fff" stroke="#fff"/>
<g clip-path="url(#a)">
<g transform="translate(148.27 678.77) rotate(-66.525) scale(.08 -.08)">
<use xlink:href="#ad"/>
</g>
</g>
<path d="m164.88 672.68v5.055q0 2.4 2.4 2.4h7.7425q2.4 0 2.4-2.4v-5.055q0-2.4-2.4-2.4h-7.7425q-2.4 0-2.4 2.4z" clip-path="url(#a)" fill="#fff" stroke="#fff"/>
<g clip-path="url(#a)">
<defs>
<path id="s" d="m9.8125 72.906h46.094v-8.3125h-36.234v-21.578h34.719v-8.2969h-34.719v-26.422h37.109v-8.2969h-46.969z"/>
</defs>
<g transform="translate(168.95 672.68) rotate(90) scale(.08 -.08)">
<use xlink:href="#s"/>
</g>
</g>
<path d="m212.37 766.91v35.285q0 2.4 2.4 2.4h7.7425q2.4 0 2.4-2.4v-35.285q0-2.4-2.4-2.4h-7.7425q-2.4 0-2.4 2.4z" clip-path="url(#a)" fill="#fff" stroke="#fff"/>
<g clip-path="url(#a)">
<g transform="translate(216.44 766.91) rotate(90) scale(.08 -.08)">
<use xlink:href="#l"/>
<use x="60.818359" xlink:href="#g"/>
<use x="122.341797" xlink:href="#h"/>
<use x="163.439453" xlink:href="#j"/>
<use x="260.851562" xlink:href="#i"/>
<use x="288.634766" xlink:href="#f"/>
<use x="352.013672" xlink:href="#e"/>
<use x="413.292969" xlink:href="#k"/>
</g>
</g>
<path d="m295.03 673.81 1.1854 5.459q0.50929 2.3453 2.8546 1.8361l7.5662-1.643q2.3453-0.50929 1.8361-2.8546l-1.1854-5.459q-0.50929-2.3453-2.8546-1.8361l-7.5662 1.643q-2.3453 0.50929-1.8361 2.8546z" clip-path="url(#a)" fill="#fff" stroke="#fff"/>
<g clip-path="url(#a)">
<g transform="translate(299 672.94) rotate(77.748) scale(.08 -.08)">
<use xlink:href="#q"/>
</g>
</g>
<path d="m283.51 679.4 1.2425-5.7217q0.50929-2.3453-1.8361-2.8546l-7.5662-1.643q-2.3453-0.50929-2.8546 1.8361l-1.2425 5.7217q-0.50929 2.3453 1.8361 2.8546l7.5662 1.643q2.3453 0.50929 2.8546-1.8361z" clip-path="url(#a)" fill="#fff" stroke="#fff"/>
<g clip-path="url(#a)">
<g transform="translate(279.54 678.54) rotate(-77.748) scale(.08 -.08)">
<use xlink:href="#ad"/>
</g>
</g>
<path d="m307.35 766.91v35.285q0 2.4 2.4 2.4h7.7425q2.4 0 2.4-2.4v-35.285q0-2.4-2.4-2.4h-7.7425q-2.4 0-2.4 2.4z" clip-path="url(#a)" fill="#fff" stroke="#fff"/>
<g clip-path="url(#a)">
<g transform="translate(311.41 766.91) rotate(90) scale(.08 -.08)">
<use xlink:href="#l"/>
<use x="60.818359" xlink:href="#g"/>
<use x="122.341797" xlink:href="#h"/>
<use x="163.439453" xlink:href="#j"/>
<use x="260.851562" xlink:href="#i"/>
<use x="288.634766" xlink:href="#f"/>
<use x="352.013672" xlink:href="#e"/>
<use x="413.292969" xlink:href="#k"/>
</g>
</g>
<path d="m402.33 766.91v35.285q0 2.4 2.4 2.4h7.7425q2.4 0 2.4-2.4v-35.285q0-2.4-2.4-2.4h-7.7425q-2.4 0-2.4 2.4z" clip-path="url(#a)" fill="#fff" stroke="#fff"/>
<g clip-path="url(#a)">
<g transform="translate(406.39 766.91) rotate(90) scale(.08 -.08)">
<use xlink:href="#l"/>
<use x="60.818359" xlink:href="#g"/>
<use x="122.341797" xlink:href="#h"/>
<use x="163.439453" xlink:href="#j"/>
<use x="260.851562" xlink:href="#i"/>
<use x="288.634766" xlink:href="#f"/>
<use x="352.013672" xlink:href="#e"/>
<use x="413.292969" xlink:href="#k"/>
</g>
</g>
<path d="m528.72 449.43 0.37476-5.5737q0.16101-2.3946-2.2336-2.5556l-7.7251-0.51942q-2.3946-0.16101-2.5556 2.2336l-0.37476 5.5737q-0.16101 2.3946 2.2336 2.5556l7.7251 0.51942q2.3946 0.16101 2.5556-2.2336z" clip-path="url(#a)" fill="#fff" stroke="#fff"/>
<g clip-path="url(#a)">
<g transform="translate(524.67 449.16) rotate(-86.153) scale(.08 -.08)">
<use xlink:href="#q"/>
</g>
</g>
<path d="m456.5 450.92 1.7762-5.5791q0.72807-2.2869-1.5588-3.015l-7.3776-2.3488q-2.2869-0.72807-3.015 1.5588l-1.7762 5.5791q-0.72807 2.2869 1.5588 3.015l7.3776 2.3488q2.2869 0.72807 3.015-1.5588z" clip-path="url(#a)" fill="#fff" stroke="#fff"/>
<g clip-path="url(#a)">
<g transform="translate(452.63 449.68) rotate(-72.34) scale(.08 -.08)">
<use xlink:href="#ad"/>
</g>
</g>
<path d="m504.76 449.43 0.68676-4.5497q0.35822-2.3731-2.0149-2.7313l-7.6558-1.1556q-2.3731-0.35821-2.7313 2.0149l-0.68676 4.5497q-0.35822 2.3731 2.0149 2.7313l7.6558 1.1556q2.3731 0.35822 2.7313-2.0149z" clip-path="url(#a)" fill="#fff" stroke="#fff"/>
<g clip-path="url(#a)">
<defs>
<path id="ap" d="m9.8125 72.906h41.891v-8.3125h-32.031v-21.484h28.906v-8.2969h-28.906v-34.812h-9.8594z"/>
</defs>
<g transform="translate(500.74 448.83) rotate(-81.416) scale(.08 -.08)">
<use xlink:href="#ap"/>
</g>
</g>
<path d="m689.29 226.75 4.7105 1.8341q2.2365 0.8708 3.1072-1.3657l2.8092-7.2149q0.87079-2.2365-1.3657-3.1072l-4.7105-1.8341q-2.2365-0.8708-3.1072 1.3657l-2.8092 7.2149q-0.8708 2.2365 1.3657 3.1072z" clip-path="url(#a)" fill="#fff" stroke="#fff"/>
<g clip-path="url(#a)">
<g transform="translate(690.76 222.97) rotate(21.274) scale(.08 -.08)">
<use xlink:href="#s"/>
</g>
</g>
<path d="m497.31 766.91v35.285q0 2.4 2.4 2.4h7.7425q2.4 0 2.4-2.4v-35.285q0-2.4-2.4-2.4h-7.7425q-2.4 0-2.4 2.4z" clip-path="url(#a)" fill="#fff" stroke="#fff"/>
<g clip-path="url(#a)">
<g transform="translate(501.37 766.91) rotate(90) scale(.08 -.08)">
<use xlink:href="#l"/>
<use x="60.818359" xlink:href="#g"/>
<use x="122.341797" xlink:href="#h"/>
<use x="163.439453" xlink:href="#j"/>
<use x="260.851562" xlink:href="#i"/>
<use x="288.634766" xlink:href="#f"/>
<use x="352.013672" xlink:href="#e"/>
<use x="413.292969" xlink:href="#k"/>
</g>
</g>
<path d="m1589.6 766.91v35.285q0 2.4 2.4 2.4h7.7425q2.4 0 2.4-2.4v-35.285q0-2.4-2.4-2.4h-7.7425q-2.4 0-2.4 2.4z" clip-path="url(#a)" fill="#fff" stroke="#fff"/>
<g clip-path="url(#a)">
<g transform="translate(1593.6 766.91) rotate(90) scale(.08 -.08)">
<use xlink:href="#l"/>
<use x="60.818359" xlink:href="#g"/>
<use x="122.341797" xlink:href="#h"/>
<use x="163.439453" xlink:href="#j"/>
<use x="260.851562" xlink:href="#i"/>
<use x="288.634766" xlink:href="#f"/>
<use x="352.013672" xlink:href="#e"/>
<use x="413.292969" xlink:href="#k"/>
</g>
</g>
<path d="m117.39 766.91v35.285q0 2.4 2.4 2.4h7.7425q2.4 0 2.4-2.4v-35.285q0-2.4-2.4-2.4h-7.7425q-2.4 0-2.4 2.4z" clip-path="url(#a)" fill="#fff" stroke="#fff"/>
<g clip-path="url(#a)">
<g transform="translate(121.46 766.91) rotate(90) scale(.08 -.08)">
<use xlink:href="#l"/>
<use x="60.818359" xlink:href="#g"/>
<use x="122.341797" xlink:href="#h"/>
<use x="163.439453" xlink:href="#j"/>
<use x="260.851562" xlink:href="#i"/>
<use x="288.634766" xlink:href="#f"/>
<use x="352.013672" xlink:href="#e"/>
<use x="413.292969" xlink:href="#k"/>
</g>
</g>
<path d="m164.88 766.91v35.285q0 2.4 2.4 2.4h7.7425q2.4 0 2.4-2.4v-35.285q0-2.4-2.4-2.4h-7.7425q-2.4 0-2.4 2.4z" clip-path="url(#a)" fill="#fff" stroke="#fff"/>
<g clip-path="url(#a)">
<g transform="translate(168.95 766.91) rotate(90) scale(.08 -.08)">
<use xlink:href="#l"/>
<use x="60.818359" xlink:href="#g"/>
<use x="122.341797" xlink:href="#h"/>
<use x="163.439453" xlink:href="#j"/>
<use x="260.851562" xlink:href="#i"/>
<use x="288.634766" xlink:href="#f"/>
<use x="352.013672" xlink:href="#e"/>
<use x="413.292969" xlink:href="#k"/>
</g>
</g>
<path d="m259.86 766.91v35.285q0 2.4 2.4 2.4h7.7425q2.4 0 2.4-2.4v-35.285q0-2.4-2.4-2.4h-7.7425q-2.4 0-2.4 2.4z" clip-path="url(#a)" fill="#fff" stroke="#fff"/>
<g clip-path="url(#a)">
<g transform="translate(263.93 766.91) rotate(90) scale(.08 -.08)">
<use xlink:href="#l"/>
<use x="60.818359" xlink:href="#g"/>
<use x="122.341797" xlink:href="#h"/>
<use x="163.439453" xlink:href="#j"/>
<use x="260.851562" xlink:href="#i"/>
<use x="288.634766" xlink:href="#f"/>
<use x="352.013672" xlink:href="#e"/>
<use x="413.292969" xlink:href="#k"/>
</g>
</g>
<path d="m354.84 766.91v35.285q0 2.4 2.4 2.4h7.7425q2.4 0 2.4-2.4v-35.285q0-2.4-2.4-2.4h-7.7425q-2.4 0-2.4 2.4z" clip-path="url(#a)" fill="#fff" stroke="#fff"/>
<g clip-path="url(#a)">
<g transform="translate(358.9 766.91) rotate(90) scale(.08 -.08)">
<use xlink:href="#l"/>
<use x="60.818359" xlink:href="#g"/>
<use x="122.341797" xlink:href="#h"/>
<use x="163.439453" xlink:href="#j"/>
<use x="260.851562" xlink:href="#i"/>
<use x="288.634766" xlink:href="#f"/>
<use x="352.013672" xlink:href="#e"/>
<use x="413.292969" xlink:href="#k"/>
</g>
</g>
<path d="m449.82 766.91v35.285q0 2.4 2.4 2.4h7.7425q2.4 0 2.4-2.4v-35.285q0-2.4-2.4-2.4h-7.7425q-2.4 0-2.4 2.4z" clip-path="url(#a)" fill="#fff" stroke="#fff"/>
<g clip-path="url(#a)">
<g transform="translate(453.88 766.91) rotate(90) scale(.08 -.08)">
<use xlink:href="#l"/>
<use x="60.818359" xlink:href="#g"/>
<use x="122.341797" xlink:href="#h"/>
<use x="163.439453" xlink:href="#j"/>
<use x="260.851562" xlink:href="#i"/>
<use x="288.634766" xlink:href="#f"/>
<use x="352.013672" xlink:href="#e"/>
<use x="413.292969" xlink:href="#k"/>
</g>
</g>
<path d="m726.48 510.96 2.6982-4.8914q1.1592-2.1015-0.94229-3.2607l-6.7795-3.7396q-2.1015-1.1592-3.2607 0.94229l-2.6982 4.8914q-1.1592 2.1015 0.94229 3.2607l6.7795 3.7396q2.1015 1.1592 3.2607-0.94229z" clip-path="url(#a)" fill="#fff" stroke="#fff"/>
<g clip-path="url(#a)">
<g transform="translate(722.92 508.99) rotate(-61.118) scale(.08 -.08)">
<use xlink:href="#q"/>
</g>
</g>
<path d="m702.19 511.43 3.2878-5.0011q1.3184-2.0054-0.68702-3.3239l-6.4696-4.2533q-2.0054-1.3184-3.3239 0.68702l-3.2878 5.0011q-1.3184 2.0054 0.68702 3.3239l6.4696 4.2533q2.0054 1.3184 3.3239-0.68701z" clip-path="url(#a)" fill="#fff" stroke="#fff"/>
<g clip-path="url(#a)">
<defs>
<path id="ao" d="m9.8125 72.906h13.281l32.328-60.984v60.984h9.5625v-72.906h-13.281l-32.312 60.984v-60.984h-9.5781z"/>
</defs>
<g transform="translate(698.79 509.2) rotate(-56.678) scale(.08 -.08)">
<use xlink:href="#ao"/>
</g>
</g>
<path d="m750.67 510.59 2.2745-5.1022q0.9772-2.192-1.2148-3.1692l-7.0716-3.1525q-2.192-0.9772-3.1692 1.2148l-2.2745 5.1022q-0.9772 2.192 1.2148 3.1692l7.0716 3.1525q2.192 0.9772 3.1692-1.2148z" clip-path="url(#a)" fill="#fff" stroke="#fff"/>
<g clip-path="url(#a)">
<g transform="translate(746.96 508.93) rotate(-65.973) scale(.08 -.08)">
<use xlink:href="#q"/>
</g>
</g>
<path d="m774.8 510.33 1.9265-5.6665q0.77252-2.2723-1.4997-3.0448l-7.3304-2.4922q-2.2723-0.77252-3.0448 1.4997l-1.9265 5.6665q-0.77252 2.2723 1.4997 3.0448l7.3304 2.4922q2.2723 0.77252 3.0448-1.4997z" clip-path="url(#a)" fill="#fff" stroke="#fff"/>
<g clip-path="url(#a)">
<g transform="translate(770.95 509.03) rotate(-71.223) scale(.08 -.08)">
<use xlink:href="#ao"/>
</g>
</g>
<path d="m816.56 399.87 1.6245-5.3448q0.69793-2.2963-1.5983-2.9942l-7.4079-2.2516q-2.2963-0.69793-2.9942 1.5983l-1.6245 5.3448q-0.69793 2.2963 1.5983 2.9942l7.4079 2.2516q2.2963 0.69793 2.9942-1.5983z" clip-path="url(#a)" fill="#fff" stroke="#fff"/>
<g clip-path="url(#a)">
<g transform="translate(812.68 398.69) rotate(-73.094) scale(.08 -.08)">
<use xlink:href="#q"/>
</g>
</g>
<path d="m858.37 503.78 0.36994 4.4421q0.19918 2.3917 2.5909 2.1925l7.7158-0.64257q2.3917-0.19918 2.1925-2.5909l-0.36994-4.4421q-0.19918-2.3917-2.5909-2.1925l-7.7158 0.64257q-2.3917 0.19918-2.1925 2.5909z" clip-path="url(#a)" fill="#fff" stroke="#fff"/>
<g clip-path="url(#a)">
<g transform="translate(862.42 503.44) rotate(85.239) scale(.08 -.08)">
<use xlink:href="#ah"/>
</g>
</g>
<path d="m907.92 341.71 4.5888 3.8908q1.8306 1.5521 3.3827-0.27844l5.0072-5.9055q1.5521-1.8306-0.27844-3.3827l-4.5888-3.8908q-1.8306-1.5521-3.3827 0.27844l-5.0072 5.9055q-1.5521 1.8306 0.27844 3.3827z" clip-path="url(#a)" fill="#fff" stroke="#fff"/>
<g clip-path="url(#a)">
<g transform="translate(910.55 338.61) rotate(40.294) scale(.08 -.08)">
<use xlink:href="#v"/>
</g>
</g>
<path d="m977.01 506.86 2.3278 3.8014q1.2533 2.0467 3.3001 0.79341l6.6029-4.0433q2.0467-1.2533 0.79341-3.3001l-2.3278-3.8014q-1.2533-2.0467-3.3001-0.79341l-6.6029 4.0433q-2.0467 1.2533-0.79341 3.3001z" clip-path="url(#a)" fill="#fff" stroke="#fff"/>
<g clip-path="url(#a)">
<g transform="translate(980.48 504.73) rotate(58.519) scale(.08 -.08)">
<use xlink:href="#ah"/>
</g>
</g>
<path d="m1099.9 344.34 5.8709 1.3144q2.342 0.52436 2.8664-1.8177l1.6916-7.5554q0.52435-2.342-1.8177-2.8664l-5.8709-1.3144q-2.342-0.52436-2.8664 1.8177l-1.6916 7.5554q-0.52435 2.342 1.8177 2.8664z" clip-path="url(#a)" fill="#fff" stroke="#fff"/>
<g clip-path="url(#a)">
<g transform="translate(1100.8 340.37) rotate(12.62) scale(.08 -.08)">
<use xlink:href="#v"/>
</g>
</g>
<path d="m592.28 766.91v35.285q0 2.4 2.4 2.4h7.7425q2.4 0 2.4-2.4v-35.285q0-2.4-2.4-2.4h-7.7425q-2.4 0-2.4 2.4z" clip-path="url(#a)" fill="#fff" stroke="#fff"/>
<g clip-path="url(#a)">
<g transform="translate(596.35 766.91) rotate(90) scale(.08 -.08)">
<use xlink:href="#l"/>
<use x="60.818359" xlink:href="#g"/>
<use x="122.341797" xlink:href="#h"/>
<use x="163.439453" xlink:href="#j"/>
<use x="260.851562" xlink:href="#i"/>
<use x="288.634766" xlink:href="#f"/>
<use x="352.013672" xlink:href="#e"/>
<use x="413.292969" xlink:href="#k"/>
</g>
</g>
<path d="m544.8 766.91v35.285q0 2.4 2.4 2.4h7.7425q2.4 0 2.4-2.4v-35.285q0-2.4-2.4-2.4h-7.7425q-2.4 0-2.4 2.4z" clip-path="url(#a)" fill="#fff" stroke="#fff"/>
<g clip-path="url(#a)">
<g transform="translate(548.86 766.91) rotate(90) scale(.08 -.08)">
<use xlink:href="#l"/>
<use x="60.818359" xlink:href="#g"/>
<use x="122.341797" xlink:href="#h"/>
<use x="163.439453" xlink:href="#j"/>
<use x="260.851562" xlink:href="#i"/>
<use x="288.634766" xlink:href="#f"/>
<use x="352.013672" xlink:href="#e"/>
<use x="413.292969" xlink:href="#k"/>
</g>
</g>
<path d="m639.77 766.91v35.285q0 2.4 2.4 2.4h7.7425q2.4 0 2.4-2.4v-35.285q0-2.4-2.4-2.4h-7.7425q-2.4 0-2.4 2.4z" clip-path="url(#a)" fill="#fff" stroke="#fff"/>
<g clip-path="url(#a)">
<g transform="translate(643.84 766.91) rotate(90) scale(.08 -.08)">
<use xlink:href="#l"/>
<use x="60.818359" xlink:href="#g"/>
<use x="122.341797" xlink:href="#h"/>
<use x="163.439453" xlink:href="#j"/>
<use x="260.851562" xlink:href="#i"/>
<use x="288.634766" xlink:href="#f"/>
<use x="352.013672" xlink:href="#e"/>
<use x="413.292969" xlink:href="#k"/>
</g>
</g>
<path d="m687.26 766.91v35.285q0 2.4 2.4 2.4h7.7425q2.4 0 2.4-2.4v-35.285q0-2.4-2.4-2.4h-7.7425q-2.4 0-2.4 2.4z" clip-path="url(#a)" fill="#fff" stroke="#fff"/>
<g clip-path="url(#a)">
<g transform="translate(691.33 766.91) rotate(90) scale(.08 -.08)">
<use xlink:href="#l"/>
<use x="60.818359" xlink:href="#g"/>
<use x="122.341797" xlink:href="#h"/>
<use x="163.439453" xlink:href="#j"/>
<use x="260.851562" xlink:href="#i"/>
<use x="288.634766" xlink:href="#f"/>
<use x="352.013672" xlink:href="#e"/>
<use x="413.292969" xlink:href="#k"/>
</g>
</g>
<path d="m764.64 623.15 0.77017-4.7619q0.38319-2.3692-1.986-2.7524l-7.6432-1.2362q-2.3692-0.38319-2.7524 1.986l-0.77017 4.7619q-0.38319 2.3692 1.986 2.7524l7.6432 1.2362q2.3692 0.38319 2.7524-1.986z" clip-path="url(#a)" fill="#fff" stroke="#fff"/>
<g clip-path="url(#a)">
<defs>
<path id="ae" d="m19.672 64.797v-27.391h12.406q6.8906 0 10.641 3.5625 3.7656 3.5625 3.7656 10.156 0 6.5469-3.7656 10.109-3.75 3.5625-10.641 3.5625zm-9.8594 8.1094h22.266q12.266 0 18.531-5.5469 6.2812-5.5469 6.2812-16.234 0-10.797-6.2812-16.312-6.2656-5.5156-18.531-5.5156h-12.406v-29.297h-9.8594z"/>
</defs>
<g transform="translate(760.62 622.51) rotate(-80.813) scale(.08 -.08)">
<use xlink:href="#ae"/>
</g>
</g>
<path d="m787.64 564.41 1.6738 5.2102q0.73406 2.285 3.019 1.5509l7.3715-2.3681q2.285-0.73406 1.5509-3.019l-1.6738-5.2102q-0.73406-2.285-3.019-1.5509l-7.3715 2.3681q-2.285 0.73406-1.5509 3.019z" clip-path="url(#a)" fill="#fff" stroke="#fff"/>
<g clip-path="url(#a)">
<g transform="translate(791.51 563.17) rotate(72.19) scale(.08 -.08)">
<use xlink:href="#w"/>
</g>
</g>
<path d="m734.75 766.91v35.285q0 2.4 2.4 2.4h7.7425q2.4 0 2.4-2.4v-35.285q0-2.4-2.4-2.4h-7.7425q-2.4 0-2.4 2.4z" clip-path="url(#a)" fill="#fff" stroke="#fff"/>
<g clip-path="url(#a)">
<g transform="translate(738.81 766.91) rotate(90) scale(.08 -.08)">
<use xlink:href="#l"/>
<use x="60.818359" xlink:href="#g"/>
<use x="122.341797" xlink:href="#h"/>
<use x="163.439453" xlink:href="#j"/>
<use x="260.851562" xlink:href="#i"/>
<use x="288.634766" xlink:href="#f"/>
<use x="352.013672" xlink:href="#e"/>
<use x="413.292969" xlink:href="#k"/>
</g>
</g>
<path d="m817.41 673.81 1.1854 5.459q0.50929 2.3453 2.8546 1.8361l7.5662-1.643q2.3453-0.50929 1.8361-2.8546l-1.1854-5.459q-0.50929-2.3453-2.8546-1.8361l-7.5662 1.643q-2.3453 0.50929-1.8361 2.8546z" clip-path="url(#a)" fill="#fff" stroke="#fff"/>
<g clip-path="url(#a)">
<g transform="translate(821.38 672.94) rotate(77.748) scale(.08 -.08)">
<use xlink:href="#q"/>
</g>
</g>
<path d="m805.92 679.25 1.1796-5.4322q0.50929-2.3453-1.8361-2.8546l-7.5662-1.643q-2.3453-0.50929-2.8546 1.8361l-1.1796 5.4322q-0.50929 2.3453 1.8361 2.8546l7.5662 1.643q2.3453 0.50929 2.8546-1.8361z" clip-path="url(#a)" fill="#fff" stroke="#fff"/>
<g clip-path="url(#a)">
<defs>
<path id="an" d="m44.391 34.188q3.1719-1.0781 6.1719-4.5938t6.0312-9.6719l10.016-19.922h-10.609l-9.3125 18.703q-3.625 7.3281-7.0156 9.7188t-9.25 2.3906h-10.75v-30.812h-9.8594v72.906h22.266q12.5 0 18.656-5.2344 6.1562-5.2188 6.1562-15.766 0-6.8906-3.2031-11.438-3.2031-4.5312-9.2969-6.2812zm-24.719 30.609v-25.875h12.406q7.125 0 10.766 3.2969t3.6406 9.6875-3.6406 9.6406-10.766 3.25z"/>
</defs>
<g transform="translate(801.95 678.39) rotate(-77.748) scale(.08 -.08)">
<use xlink:href="#an"/>
</g>
</g>
<path d="m829.73 766.91v35.285q0 2.4 2.4 2.4h7.7425q2.4 0 2.4-2.4v-35.285q0-2.4-2.4-2.4h-7.7425q-2.4 0-2.4 2.4z" clip-path="url(#a)" fill="#fff" stroke="#fff"/>
<g clip-path="url(#a)">
<g transform="translate(833.79 766.91) rotate(90) scale(.08 -.08)">
<use xlink:href="#l"/>
<use x="60.818359" xlink:href="#g"/>
<use x="122.341797" xlink:href="#h"/>
<use x="163.439453" xlink:href="#j"/>
<use x="260.851562" xlink:href="#i"/>
<use x="288.634766" xlink:href="#f"/>
<use x="352.013672" xlink:href="#e"/>
<use x="413.292969" xlink:href="#k"/>
</g>
</g>
<path d="m877.22 766.91v35.285q0 2.4 2.4 2.4h7.7425q2.4 0 2.4-2.4v-35.285q0-2.4-2.4-2.4h-7.7425q-2.4 0-2.4 2.4z" clip-path="url(#a)" fill="#fff" stroke="#fff"/>
<g clip-path="url(#a)">
<g transform="translate(881.28 766.91) rotate(90) scale(.08 -.08)">
<use xlink:href="#l"/>
<use x="60.818359" xlink:href="#g"/>
<use x="122.341797" xlink:href="#h"/>
<use x="163.439453" xlink:href="#j"/>
<use x="260.851562" xlink:href="#i"/>
<use x="288.634766" xlink:href="#f"/>
<use x="352.013672" xlink:href="#e"/>
<use x="413.292969" xlink:href="#k"/>
</g>
</g>
<path d="m962.53 566.61 0.73603-4.7673q0.3662-2.3719-2.0057-2.7381l-7.6518-1.1814q-2.3719-0.3662-2.7381 2.0057l-0.73603 4.7673q-0.3662 2.3719 2.0057 2.7381l7.6518 1.1814q2.3719 0.3662 2.7381-2.0057z" clip-path="url(#a)" fill="#fff" stroke="#fff"/>
<g clip-path="url(#a)">
<g transform="translate(958.51 565.99) rotate(-81.223) scale(.08 -.08)">
<use xlink:href="#ae"/>
</g>
</g>
<path d="m1001.3 453.27 2.2675 4.9806q0.99444 2.1843 3.1787 1.1898l7.0466-3.2081q2.1843-0.99444 1.1898-3.1787l-2.2675-4.9806q-0.99444-2.1843-3.1787-1.1898l-7.0466 3.2081q-2.1843 0.99444-1.1898 3.1787z" clip-path="url(#a)" fill="#fff" stroke="#fff"/>
<g clip-path="url(#a)">
<g transform="translate(1005 451.59) rotate(65.522) scale(.08 -.08)">
<use xlink:href="#w"/>
</g>
</g>
<path d="m924.71 766.91v35.285q0 2.4 2.4 2.4h7.7425q2.4 0 2.4-2.4v-35.285q0-2.4-2.4-2.4h-7.7425q-2.4 0-2.4 2.4z" clip-path="url(#a)" fill="#fff" stroke="#fff"/>
<g clip-path="url(#a)">
<g transform="translate(928.77 766.91) rotate(90) scale(.08 -.08)">
<use xlink:href="#l"/>
<use x="60.818359" xlink:href="#g"/>
<use x="122.341797" xlink:href="#h"/>
<use x="163.439453" xlink:href="#j"/>
<use x="260.851562" xlink:href="#i"/>
<use x="288.634766" xlink:href="#f"/>
<use x="352.013672" xlink:href="#e"/>
<use x="413.292969" xlink:href="#k"/>
</g>
</g>
<path d="m782.24 766.91v35.285q0 2.4 2.4 2.4h7.7425q2.4 0 2.4-2.4v-35.285q0-2.4-2.4-2.4h-7.7425q-2.4 0-2.4 2.4z" clip-path="url(#a)" fill="#fff" stroke="#fff"/>
<g clip-path="url(#a)">
<g transform="translate(786.3 766.91) rotate(90) scale(.08 -.08)">
<use xlink:href="#l"/>
<use x="60.818359" xlink:href="#g"/>
<use x="122.341797" xlink:href="#h"/>
<use x="163.439453" xlink:href="#j"/>
<use x="260.851562" xlink:href="#i"/>
<use x="288.634766" xlink:href="#f"/>
<use x="352.013672" xlink:href="#e"/>
<use x="413.292969" xlink:href="#k"/>
</g>
</g>
<path d="m1047 618.13 0.98806 5.4982q0.4245 2.3622 2.7867 1.9377l7.6204-1.3695q2.3622-0.4245 1.9377-2.7867l-0.98806-5.4982q-0.4245-2.3622-2.7867-1.9377l-7.6204 1.3694q-2.3622 0.4245-1.9377 2.7867z" clip-path="url(#a)" fill="#fff" stroke="#fff"/>
<g clip-path="url(#a)">
<g transform="translate(1051 617.41) rotate(79.812) scale(.08 -.08)">
<use xlink:href="#q"/>
</g>
</g>
<path d="m1011.6 623.75 1.2334-4.9022q0.58557-2.3275-1.7419-2.913l-7.5085-1.8891q-2.3275-0.58557-2.913 1.7419l-1.2334 4.9022q-0.58557 2.3275 1.7419 2.913l7.5085 1.8891q2.3275 0.58557 2.913-1.7419z" clip-path="url(#a)" fill="#fff" stroke="#fff"/>
<g clip-path="url(#a)">
<g transform="translate(1007.7 622.76) rotate(-75.878) scale(.08 -.08)">
<use xlink:href="#s"/>
</g>
</g>
<path d="m1035.2 563.48 0.71451 5.0042q0.33923 2.3759 2.7151 2.0367l7.6648-1.0944q2.3759-0.33923 2.0367-2.7151l-0.71451-5.0042q-0.33923-2.3759-2.7151-2.0367l-7.6648 1.0944q-2.3759 0.33923-2.0367 2.7151z" clip-path="url(#a)" fill="#fff" stroke="#fff"/>
<g clip-path="url(#a)">
<g transform="translate(1039.2 562.91) rotate(81.874) scale(.08 -.08)">
<use xlink:href="#s"/>
</g>
</g>
<path d="m1067.2 766.91v35.285q0 2.4 2.4 2.4h7.7425q2.4 0 2.4-2.4v-35.285q0-2.4-2.4-2.4h-7.7425q-2.4 0-2.4 2.4z" clip-path="url(#a)" fill="#fff" stroke="#fff"/>
<g clip-path="url(#a)">
<g transform="translate(1071.2 766.91) rotate(90) scale(.08 -.08)">
<use xlink:href="#l"/>
<use x="60.818359" xlink:href="#g"/>
<use x="122.341797" xlink:href="#h"/>
<use x="163.439453" xlink:href="#j"/>
<use x="260.851562" xlink:href="#i"/>
<use x="288.634766" xlink:href="#f"/>
<use x="352.013672" xlink:href="#e"/>
<use x="413.292969" xlink:href="#k"/>
</g>
</g>
<path d="m1114.7 766.91v35.285q0 2.4 2.4 2.4h7.7425q2.4 0 2.4-2.4v-35.285q0-2.4-2.4-2.4h-7.7425q-2.4 0-2.4 2.4z" clip-path="url(#a)" fill="#fff" stroke="#fff"/>
<g clip-path="url(#a)">
<g transform="translate(1118.7 766.91) rotate(90) scale(.08 -.08)">
<use xlink:href="#l"/>
<use x="60.818359" xlink:href="#g"/>
<use x="122.341797" xlink:href="#h"/>
<use x="163.439453" xlink:href="#j"/>
<use x="260.851562" xlink:href="#i"/>
<use x="288.634766" xlink:href="#f"/>
<use x="352.013672" xlink:href="#e"/>
<use x="413.292969" xlink:href="#k"/>
</g>
</g>
<path d="m1293.9 568 1.9406-4.4162q0.96552-2.1972-1.2317-3.1627l-7.0883-3.1148q-2.1972-0.96552-3.1627 1.2317l-1.9406 4.4162q-0.96552 2.1972 1.2317 3.1627l7.0883 3.1148q2.1972 0.96552 3.1627-1.2317z" clip-path="url(#a)" fill="#fff" stroke="#fff"/>
<g clip-path="url(#a)">
<g transform="translate(1290.2 566.37) rotate(-66.278) scale(.08 -.08)">
<use xlink:href="#ae"/>
</g>
</g>
<path d="m1269.4 568.83 2.7959-4.8044q1.2071-2.0743-0.86718-3.2815l-6.6918-3.8943q-2.0743-1.2071-3.2815 0.86718l-2.7959 4.8044q-1.2071 2.0743 0.86718 3.2815l6.6918 3.8943q2.0743 1.2071 3.2815-0.86718z" clip-path="url(#a)" fill="#fff" stroke="#fff"/>
<g clip-path="url(#a)">
<g transform="translate(1265.9 566.78) rotate(-59.803) scale(.08 -.08)">
<use xlink:href="#an"/>
</g>
</g>
<path d="m1366.6 511.24 0.089345-5.0542q0.042419-2.3996-2.3572-2.442l-7.7413-0.13685q-2.3996-0.042419-2.442 2.3572l-0.089345 5.0542q-0.042419 2.3996 2.3572 2.442l7.7413 0.13684q2.3996 0.042419 2.442-2.3572z" clip-path="url(#a)" fill="#fff" stroke="#fff"/>
<g clip-path="url(#a)">
<g transform="translate(1362.5 511.16) rotate(-88.987) scale(.08 -.08)">
<use xlink:href="#s"/>
</g>
</g>
<path d="m1365.6 451.55 0.94389 5.3905q0.41395 2.364 2.778 1.9501l7.6265-1.3354q2.364-0.41395 1.9501-2.778l-0.94389-5.3905q-0.41395-2.364-2.778-1.9501l-7.6265 1.3354q-2.364 0.41395-1.9501 2.778z" clip-path="url(#a)" fill="#fff" stroke="#fff"/>
<g clip-path="url(#a)">
<g transform="translate(1369.6 450.85) rotate(80.068) scale(.08 -.08)">
<use xlink:href="#w"/>
</g>
</g>
<path d="m1424.9 563.55 1.7661 4.2488q0.9212 2.2162 3.1374 1.295l7.1494-2.9718q2.2162-0.9212 1.295-3.1374l-1.7661-4.2488q-0.9212-2.2162-3.1374-1.295l-7.1494 2.9718q-2.2162 0.9212-1.295 3.1374z" clip-path="url(#a)" fill="#fff" stroke="#fff"/>
<g clip-path="url(#a)">
<g transform="translate(1428.7 561.99) rotate(67.429) scale(.08 -.08)">
<use xlink:href="#ap"/>
</g>
</g>
<path d="m1448.6 564.12 2.4638 4.4139q1.1698 2.0956 3.2654 0.92587l6.7606-3.7737q2.0956-1.1698 0.92587-3.2654l-2.4638-4.4139q-1.1698-2.0956-3.2654-0.92587l-6.7606 3.7737q-2.0956 1.1698-0.92587 3.2654z" clip-path="url(#a)" fill="#fff" stroke="#fff"/>
<g clip-path="url(#a)">
<g transform="translate(1452.2 562.14) rotate(60.83) scale(.08 -.08)">
<use xlink:href="#s"/>
</g>
</g>
<path d="m1209.6 766.91v35.285q0 2.4 2.4 2.4h7.7425q2.4 0 2.4-2.4v-35.285q0-2.4-2.4-2.4h-7.7425q-2.4 0-2.4 2.4z" clip-path="url(#a)" fill="#fff" stroke="#fff"/>
<g clip-path="url(#a)">
<g transform="translate(1213.7 766.91) rotate(90) scale(.08 -.08)">
<use xlink:href="#l"/>
<use x="60.818359" xlink:href="#g"/>
<use x="122.341797" xlink:href="#h"/>
<use x="163.439453" xlink:href="#j"/>
<use x="260.851562" xlink:href="#i"/>
<use x="288.634766" xlink:href="#f"/>
<use x="352.013672" xlink:href="#e"/>
<use x="413.292969" xlink:href="#k"/>
</g>
</g>
<path d="m972.2 766.91v35.285q0 2.4 2.4 2.4h7.7425q2.4 0 2.4-2.4v-35.285q0-2.4-2.4-2.4h-7.7425q-2.4 0-2.4 2.4z" clip-path="url(#a)" fill="#fff" stroke="#fff"/>
<g clip-path="url(#a)">
<g transform="translate(976.26 766.91) rotate(90) scale(.08 -.08)">
<use xlink:href="#l"/>
<use x="60.818359" xlink:href="#g"/>
<use x="122.341797" xlink:href="#h"/>
<use x="163.439453" xlink:href="#j"/>
<use x="260.851562" xlink:href="#i"/>
<use x="288.634766" xlink:href="#f"/>
<use x="352.013672" xlink:href="#e"/>
<use x="413.292969" xlink:href="#k"/>
</g>
</g>
<path d="m1054.9 673.86 1.1613 5.3479q0.50929 2.3453 2.8546 1.8361l7.5662-1.643q2.3453-0.50929 1.8361-2.8546l-1.1613-5.3479q-0.50929-2.3453-2.8546-1.8361l-7.5662 1.643q-2.3453 0.50929-1.8361 2.8546z" clip-path="url(#a)" fill="#fff" stroke="#fff"/>
<g clip-path="url(#a)">
<g transform="translate(1058.8 673) rotate(77.748) scale(.08 -.08)">
<use xlink:href="#w"/>
</g>
</g>
<path d="m1043.4 679.02 1.0777-4.9631q0.50929-2.3453-1.8361-2.8546l-7.5662-1.643q-2.3453-0.50929-2.8546 1.8361l-1.0777 4.9631q-0.50929 2.3453 1.8361 2.8546l7.5662 1.643q2.3453 0.50929 2.8546-1.8361z" clip-path="url(#a)" fill="#fff" stroke="#fff"/>
<g clip-path="url(#a)">
<defs>
<path id="am" d="m53.516 70.516v-9.625q-5.6094 2.6875-10.594 4-4.9844 1.3281-9.625 1.3281-8.0469 0-12.422-3.125t-4.375-8.8906q0-4.8438 2.9062-7.3125 2.9062-2.4531 11.016-3.9688l5.9531-1.2188q11.031-2.1094 16.281-7.4062t5.25-14.172q0-10.609-7.1094-16.078-7.0938-5.4688-20.812-5.4688-5.1719 0-11.016 1.1719-5.8281 1.1719-12.078 3.4688v10.156q6-3.3594 11.766-5.0781 5.7656-1.7031 11.328-1.7031 8.4375 0 13.031 3.3125 4.5938 3.3281 4.5938 9.4844 0 5.3594-3.2969 8.3906t-10.812 4.5469l-6.0156 1.1719q-11.031 2.1875-15.969 6.875-4.9219 4.6875-4.9219 13.047 0 9.6719 6.8125 15.234t18.766 5.5625q5.1406 0 10.453-0.9375 5.3281-0.92188 10.891-2.7656z"/>
</defs>
<g transform="translate(1039.4 678.16) rotate(-77.748) scale(.08 -.08)">
<use xlink:href="#am"/>
</g>
</g>
<path d="m1019.7 766.91v35.285q0 2.4 2.4 2.4h7.7425q2.4 0 2.4-2.4v-35.285q0-2.4-2.4-2.4h-7.7425q-2.4 0-2.4 2.4z" clip-path="url(#a)" fill="#fff" stroke="#fff"/>
<g clip-path="url(#a)">
<g transform="translate(1023.7 766.91) rotate(90) scale(.08 -.08)">
<use xlink:href="#l"/>
<use x="60.818359" xlink:href="#g"/>
<use x="122.341797" xlink:href="#h"/>
<use x="163.439453" xlink:href="#j"/>
<use x="260.851562" xlink:href="#i"/>
<use x="288.634766" xlink:href="#f"/>
<use x="352.013672" xlink:href="#e"/>
<use x="413.292969" xlink:href="#k"/>
</g>
</g>
<path d="m1162.2 766.91v35.285q0 2.4 2.4 2.4h7.7425q2.4 0 2.4-2.4v-35.285q0-2.4-2.4-2.4h-7.7425q-2.4 0-2.4 2.4z" clip-path="url(#a)" fill="#fff" stroke="#fff"/>
<g clip-path="url(#a)">
<g transform="translate(1166.2 766.91) rotate(90) scale(.08 -.08)">
<use xlink:href="#l"/>
<use x="60.818359" xlink:href="#g"/>
<use x="122.341797" xlink:href="#h"/>
<use x="163.439453" xlink:href="#j"/>
<use x="260.851562" xlink:href="#i"/>
<use x="288.634766" xlink:href="#f"/>
<use x="352.013672" xlink:href="#e"/>
<use x="413.292969" xlink:href="#k"/>
</g>
</g>
<path d="m1314 681.24 3.3305-3.8343q1.5738-1.8119-0.23809-3.3858l-5.8453-5.0772q-1.8119-1.5738-3.3858 0.23809l-3.3305 3.8343q-1.5738 1.8119 0.23809 3.3858l5.8453 5.0772q1.8119 1.5738 3.3858-0.23809z" clip-path="url(#a)" fill="#fff" stroke="#fff"/>
<g clip-path="url(#a)">
<g transform="translate(1310.9 678.57) rotate(-49.023) scale(.08 -.08)">
<use xlink:href="#am"/>
</g>
</g>
<path d="m1399.3 677.25 3.5887 4.1316q1.5738 1.8119 3.3858 0.23809l5.8453-5.0772q1.8119-1.5738 0.23809-3.3858l-3.5887-4.1316q-1.5738-1.8119-3.3858-0.23809l-5.8453 5.0772q-1.8119 1.5738-0.23809 3.3858z" clip-path="url(#a)" fill="#fff" stroke="#fff"/>
<g clip-path="url(#a)">
<g transform="translate(1402.4 674.59) rotate(49.023) scale(.08 -.08)">
<use xlink:href="#w"/>
</g>
</g>
<path d="m1257.1 766.91v35.285q0 2.4 2.4 2.4h7.7425q2.4 0 2.4-2.4v-35.285q0-2.4-2.4-2.4h-7.7425q-2.4 0-2.4 2.4z" clip-path="url(#a)" fill="#fff" stroke="#fff"/>
<g clip-path="url(#a)">
<g transform="translate(1261.2 766.91) rotate(90) scale(.08 -.08)">
<use xlink:href="#l"/>
<use x="60.818359" xlink:href="#g"/>
<use x="122.341797" xlink:href="#h"/>
<use x="163.439453" xlink:href="#j"/>
<use x="260.851562" xlink:href="#i"/>
<use x="288.634766" xlink:href="#f"/>
<use x="352.013672" xlink:href="#e"/>
<use x="413.292969" xlink:href="#k"/>
</g>
</g>
<path d="m1410.9 619.04 1.7193 5.3151q0.73865 2.2835 3.0222 1.5448l7.3667-2.3829q2.2835-0.73865 1.5448-3.0222l-1.7193-5.3151q-0.73865-2.2835-3.0222-1.5448l-7.3667 2.3829q-2.2835 0.73865-1.5448 3.0222z" clip-path="url(#a)" fill="#fff" stroke="#fff"/>
<g clip-path="url(#a)">
<g transform="translate(1414.8 617.79) rotate(72.075) scale(.08 -.08)">
<use xlink:href="#q"/>
</g>
</g>
<path d="m1351.7 624.11 1.5558-4.8096q0.73866-2.2835-1.5448-3.0222l-7.3667-2.3829q-2.2835-0.73866-3.0222 1.5448l-1.5558 4.8096q-0.73865 2.2835 1.5448 3.0222l7.3667 2.3829q2.2835 0.73865 3.0222-1.5448z" clip-path="url(#a)" fill="#fff" stroke="#fff"/>
<g clip-path="url(#a)">
<g transform="translate(1347.8 622.86) rotate(-72.075) scale(.08 -.08)">
<use xlink:href="#s"/>
</g>
</g>
<path d="m1375.9 562.57v5.055q0 2.4 2.4 2.4h7.7425q2.4 0 2.4-2.4v-5.055q0-2.4-2.4-2.4h-7.7425q-2.4 0-2.4 2.4z" clip-path="url(#a)" fill="#fff" stroke="#fff"/>
<g clip-path="url(#a)">
<g transform="translate(1379.9 562.57) rotate(90) scale(.08 -.08)">
<use xlink:href="#s"/>
</g>
</g>
<path d="m1447.1 766.91v35.285q0 2.4 2.4 2.4h7.7425q2.4 0 2.4-2.4v-35.285q0-2.4-2.4-2.4h-7.7425q-2.4 0-2.4 2.4z" clip-path="url(#a)" fill="#fff" stroke="#fff"/>
<g clip-path="url(#a)">
<g transform="translate(1451.1 766.91) rotate(90) scale(.08 -.08)">
<use xlink:href="#l"/>
<use x="60.818359" xlink:href="#g"/>
<use x="122.341797" xlink:href="#h"/>
<use x="163.439453" xlink:href="#j"/>
<use x="260.851562" xlink:href="#i"/>
<use x="288.634766" xlink:href="#f"/>
<use x="352.013672" xlink:href="#e"/>
<use x="413.292969" xlink:href="#k"/>
</g>
</g>
<path d="m1494.6 766.91v35.285q0 2.4 2.4 2.4h7.7425q2.4 0 2.4-2.4v-35.285q0-2.4-2.4-2.4h-7.7425q-2.4 0-2.4 2.4z" clip-path="url(#a)" fill="#fff" stroke="#fff"/>
<g clip-path="url(#a)">
<g transform="translate(1498.6 766.91) rotate(90) scale(.08 -.08)">
<use xlink:href="#l"/>
<use x="60.818359" xlink:href="#g"/>
<use x="122.341797" xlink:href="#h"/>
<use x="163.439453" xlink:href="#j"/>
<use x="260.851562" xlink:href="#i"/>
<use x="288.634766" xlink:href="#f"/>
<use x="352.013672" xlink:href="#e"/>
<use x="413.292969" xlink:href="#k"/>
</g>
</g>
<path d="m1542.1 766.91v35.285q0 2.4 2.4 2.4h7.7425q2.4 0 2.4-2.4v-35.285q0-2.4-2.4-2.4h-7.7425q-2.4 0-2.4 2.4z" clip-path="url(#a)" fill="#fff" stroke="#fff"/>
<g clip-path="url(#a)">
<g transform="translate(1546.1 766.91) rotate(90) scale(.08 -.08)">
<use xlink:href="#l"/>
<use x="60.818359" xlink:href="#g"/>
<use x="122.341797" xlink:href="#h"/>
<use x="163.439453" xlink:href="#j"/>
<use x="260.851562" xlink:href="#i"/>
<use x="288.634766" xlink:href="#f"/>
<use x="352.013672" xlink:href="#e"/>
<use x="413.292969" xlink:href="#k"/>
</g>
</g>
<path d="m1304.6 766.91v35.285q0 2.4 2.4 2.4h7.7425q2.4 0 2.4-2.4v-35.285q0-2.4-2.4-2.4h-7.7425q-2.4 0-2.4 2.4z" clip-path="url(#a)" fill="#fff" stroke="#fff"/>
<g clip-path="url(#a)">
<g transform="translate(1308.7 766.91) rotate(90) scale(.08 -.08)">
<use xlink:href="#l"/>
<use x="60.818359" xlink:href="#g"/>
<use x="122.341797" xlink:href="#h"/>
<use x="163.439453" xlink:href="#j"/>
<use x="260.851562" xlink:href="#i"/>
<use x="288.634766" xlink:href="#f"/>
<use x="352.013672" xlink:href="#e"/>
<use x="413.292969" xlink:href="#k"/>
</g>
</g>
<path d="m1387.4 674.18 1.0236 4.7139q0.50929 2.3453 2.8546 1.8361l7.5662-1.643q2.3453-0.50929 1.8361-2.8546l-1.0236-4.7139q-0.50929-2.3453-2.8546-1.8361l-7.5662 1.643q-2.3453 0.50929-1.8361 2.8546z" clip-path="url(#a)" fill="#fff" stroke="#fff"/>
<g clip-path="url(#a)">
<g transform="translate(1391.3 673.32) rotate(77.748) scale(.08 -.08)">
<use xlink:href="#ae"/>
</g>
</g>
<path d="m1375.7 679.55 1.3072-6.0197q0.50929-2.3453-1.8361-2.8546l-7.5662-1.643q-2.3453-0.50929-2.8546 1.8361l-1.3072 6.0197q-0.50929 2.3453 1.8361 2.8546l7.5662 1.643q2.3453 0.50929 2.8546-1.8361z" clip-path="url(#a)" fill="#fff" stroke="#fff"/>
<g clip-path="url(#a)">
<defs>
<path id="au" d="m19.672 64.797v-56.688h11.922q15.094 0 22.094 6.8281 7 6.8438 7 21.594 0 14.641-7 21.453t-22.094 6.8125zm-9.8594 8.1094h20.266q21.188 0 31.094-8.8125 9.9219-8.8125 9.9219-27.562 0-18.859-9.9688-27.703-9.9531-8.8281-31.047-8.8281h-20.266z"/>
</defs>
<g transform="translate(1371.8 678.68) rotate(-77.748) scale(.08 -.08)">
<use xlink:href="#au"/>
</g>
</g>
<path d="m1399.6 766.91v35.285q0 2.4 2.4 2.4h7.7425q2.4 0 2.4-2.4v-35.285q0-2.4-2.4-2.4h-7.7425q-2.4 0-2.4 2.4z" clip-path="url(#a)" fill="#fff" stroke="#fff"/>
<g clip-path="url(#a)">
<g transform="translate(1403.7 766.91) rotate(90) scale(.08 -.08)">
<use xlink:href="#l"/>
<use x="60.818359" xlink:href="#g"/>
<use x="122.341797" xlink:href="#h"/>
<use x="163.439453" xlink:href="#j"/>
<use x="260.851562" xlink:href="#i"/>
<use x="288.634766" xlink:href="#f"/>
<use x="352.013672" xlink:href="#e"/>
<use x="413.292969" xlink:href="#k"/>
</g>
</g>
<path d="m1352.1 766.91v35.285q0 2.4 2.4 2.4h7.7425q2.4 0 2.4-2.4v-35.285q0-2.4-2.4-2.4h-7.7425q-2.4 0-2.4 2.4z" clip-path="url(#a)" fill="#fff" stroke="#fff"/>
<g clip-path="url(#a)">
<g transform="translate(1356.2 766.91) rotate(90) scale(.08 -.08)">
<use xlink:href="#l"/>
<use x="60.818359" xlink:href="#g"/>
<use x="122.341797" xlink:href="#h"/>
<use x="163.439453" xlink:href="#j"/>
<use x="260.851562" xlink:href="#i"/>
<use x="288.634766" xlink:href="#f"/>
<use x="352.013672" xlink:href="#e"/>
<use x="413.292969" xlink:href="#k"/>
</g>
</g>
<defs>
<path id="b" d="m0 8.6603c2.2967 0 4.4997-0.9125 6.1237-2.5365 1.624-1.624 2.5365-3.827 2.5365-6.1237s-0.9125-4.4997-2.5365-6.1237c-1.624-1.624-3.827-2.5365-6.1237-2.5365s-4.4997 0.9125-6.1237 2.5365c-1.624 1.624-2.5365 3.827-2.5365 6.1237s0.9125 4.4997 2.5365 6.1237c1.624 1.624 3.827 2.5365 6.1237 2.5365z"/>
</defs>
<g clip-path="url(#a)">
<use x="76.1771" y="839.225209" fill="#ffffff" stroke="#ffffff" xlink:href="#b"/>
</g>
<g clip-path="url(#a)">
<use x="123.666032" y="839.225209" fill="#ffffff" stroke="#ffffff" xlink:href="#b"/>
</g>
<g clip-path="url(#a)">
<use x="171.154963" y="839.225209" fill="#ffffff" stroke="#ffffff" xlink:href="#b"/>
</g>
<g clip-path="url(#a)">
<use x="218.643894" y="839.225209" fill="#ffffff" stroke="#ffffff" xlink:href="#b"/>
</g>
<g clip-path="url(#a)">
<use x="266.132825" y="839.225209" fill="#ffffff" stroke="#ffffff" xlink:href="#b"/>
</g>
<g clip-path="url(#a)">
<use x="313.621756" y="839.225209" fill="#ffffff" stroke="#ffffff" xlink:href="#b"/>
</g>
<g clip-path="url(#a)">
<use x="361.110688" y="839.225209" fill="#ffffff" stroke="#ffffff" xlink:href="#b"/>
</g>
<g clip-path="url(#a)">
<use x="408.599619" y="839.225209" fill="#ffffff" stroke="#ffffff" xlink:href="#b"/>
</g>
<g clip-path="url(#a)">
<use x="456.08855" y="839.225209" fill="#ffffff" stroke="#ffffff" xlink:href="#b"/>
</g>
<g clip-path="url(#a)">
<use x="503.577481" y="839.225209" fill="#ffffff" stroke="#ffffff" xlink:href="#b"/>
</g>
<g clip-path="url(#a)">
<use x="551.066413" y="839.225209" fill="#ffffff" stroke="#ffffff" xlink:href="#b"/>
</g>
<g clip-path="url(#a)">
<use x="598.555344" y="839.225209" fill="#ffffff" stroke="#ffffff" xlink:href="#b"/>
</g>
<g clip-path="url(#a)">
<use x="646.044275" y="839.225209" fill="#ffffff" stroke="#ffffff" xlink:href="#b"/>
</g>
<g clip-path="url(#a)">
<use x="693.533206" y="839.225209" fill="#ffffff" stroke="#ffffff" xlink:href="#b"/>
</g>
<g clip-path="url(#a)">
<use x="741.022138" y="839.225209" fill="#ffffff" stroke="#ffffff" xlink:href="#b"/>
</g>
<g clip-path="url(#a)">
<use x="788.511069" y="839.225209" fill="#ffffff" stroke="#ffffff" xlink:href="#b"/>
</g>
<g clip-path="url(#a)">
<use x="836" y="839.225209" fill="#ffffff" stroke="#ffffff" xlink:href="#b"/>
</g>
<g clip-path="url(#a)">
<use x="883.488931" y="839.225209" fill="#ffffff" stroke="#ffffff" xlink:href="#b"/>
</g>
<g clip-path="url(#a)">
<use x="930.977862" y="839.225209" fill="#ffffff" stroke="#ffffff" xlink:href="#b"/>
</g>
<g clip-path="url(#a)">
<use x="978.466794" y="839.225209" fill="#ffffff" stroke="#ffffff" xlink:href="#b"/>
</g>
<g clip-path="url(#a)">
<use x="1025.955725" y="839.225209" fill="#ffffff" stroke="#ffffff" xlink:href="#b"/>
</g>
<g clip-path="url(#a)">
<use x="1073.444656" y="839.225209" fill="#ffffff" stroke="#ffffff" xlink:href="#b"/>
</g>
<g clip-path="url(#a)">
<use x="1120.933587" y="839.225209" fill="#ffffff" stroke="#ffffff" xlink:href="#b"/>
</g>
<g clip-path="url(#a)">
<use x="1168.422519" y="839.225209" fill="#ffffff" stroke="#ffffff" xlink:href="#b"/>
</g>
<g clip-path="url(#a)">
<use x="1215.91145" y="839.225209" fill="#ffffff" stroke="#ffffff" xlink:href="#b"/>
</g>
<g clip-path="url(#a)">
<use x="1263.400381" y="839.225209" fill="#ffffff" stroke="#ffffff" xlink:href="#b"/>
</g>
<g clip-path="url(#a)">
<use x="1310.889312" y="839.225209" fill="#ffffff" stroke="#ffffff" xlink:href="#b"/>
</g>
<g clip-path="url(#a)">
<use x="1358.378244" y="839.225209" fill="#ffffff" stroke="#ffffff" xlink:href="#b"/>
</g>
<g clip-path="url(#a)">
<use x="1405.867175" y="839.225209" fill="#ffffff" stroke="#ffffff" xlink:href="#b"/>
</g>
<g clip-path="url(#a)">
<use x="1453.356106" y="839.225209" fill="#ffffff" stroke="#ffffff" xlink:href="#b"/>
</g>
<g clip-path="url(#a)">
<use x="1500.845037" y="839.225209" fill="#ffffff" stroke="#ffffff" xlink:href="#b"/>
</g>
<g clip-path="url(#a)">
<use x="1548.333968" y="839.225209" fill="#ffffff" stroke="#ffffff" xlink:href="#b"/>
</g>
<g clip-path="url(#a)">
<use x="1595.8229" y="839.225209" fill="#ffffff" stroke="#ffffff" xlink:href="#b"/>
</g>
<g clip-path="url(#a)">
<use x="449.47088" y="40.774791" fill="#ffffff" stroke="#ffffff" xlink:href="#b"/>
</g>
<g clip-path="url(#a)">
<use x="836" y="620.532723" fill="#ffffff" stroke="#ffffff" xlink:href="#b"/>
</g>
<g clip-path="url(#a)">
<use x="76.1771" y="729.878966" fill="#ffffff" stroke="#ffffff" xlink:href="#b"/>
</g>
<g clip-path="url(#a)">
<use x="171.154963" y="620.532723" fill="#ffffff" stroke="#ffffff" xlink:href="#b"/>
</g>
<g clip-path="url(#a)">
<use x="218.643894" y="729.878966" fill="#ffffff" stroke="#ffffff" xlink:href="#b"/>
</g>
<g clip-path="url(#a)">
<use x="289.877291" y="620.532723" fill="#ffffff" stroke="#ffffff" xlink:href="#b"/>
</g>
<g clip-path="url(#a)">
<use x="313.621756" y="729.878966" fill="#ffffff" stroke="#ffffff" xlink:href="#b"/>
</g>
<g clip-path="url(#a)">
<use x="408.599619" y="729.878966" fill="#ffffff" stroke="#ffffff" xlink:href="#b"/>
</g>
<g clip-path="url(#a)">
<use x="541.722526" y="162.567198" fill="#ffffff" stroke="#ffffff" xlink:href="#b"/>
</g>
<g clip-path="url(#a)">
<use x="503.577481" y="729.878966" fill="#ffffff" stroke="#ffffff" xlink:href="#b"/>
</g>
<g clip-path="url(#a)">
<use x="1595.8229" y="729.878966" fill="#ffffff" stroke="#ffffff" xlink:href="#b"/>
</g>
<g clip-path="url(#a)">
<use x="123.666032" y="729.878966" fill="#ffffff" stroke="#ffffff" xlink:href="#b"/>
</g>
<g clip-path="url(#a)">
<use x="171.154963" y="729.878966" fill="#ffffff" stroke="#ffffff" xlink:href="#b"/>
</g>
<g clip-path="url(#a)">
<use x="266.132825" y="729.878966" fill="#ffffff" stroke="#ffffff" xlink:href="#b"/>
</g>
<g clip-path="url(#a)">
<use x="361.110688" y="729.878966" fill="#ffffff" stroke="#ffffff" xlink:href="#b"/>
</g>
<g clip-path="url(#a)">
<use x="456.08855" y="729.878966" fill="#ffffff" stroke="#ffffff" xlink:href="#b"/>
</g>
<g clip-path="url(#a)">
<use x="846.113384" y="281.086162" fill="#ffffff" stroke="#ffffff" xlink:href="#b"/>
</g>
<g clip-path="url(#a)">
<use x="598.555344" y="729.878966" fill="#ffffff" stroke="#ffffff" xlink:href="#b"/>
</g>
<g clip-path="url(#a)">
<use x="551.066413" y="729.878966" fill="#ffffff" stroke="#ffffff" xlink:href="#b"/>
</g>
<g clip-path="url(#a)">
<use x="646.044275" y="729.878966" fill="#ffffff" stroke="#ffffff" xlink:href="#b"/>
</g>
<g clip-path="url(#a)">
<use x="693.533206" y="729.878966" fill="#ffffff" stroke="#ffffff" xlink:href="#b"/>
</g>
<g clip-path="url(#a)">
<use x="776.638836" y="509.665353" fill="#ffffff" stroke="#ffffff" xlink:href="#b"/>
</g>
<g clip-path="url(#a)">
<use x="741.022138" y="729.878966" fill="#ffffff" stroke="#ffffff" xlink:href="#b"/>
</g>
<g clip-path="url(#a)">
<use x="812.255534" y="620.532723" fill="#ffffff" stroke="#ffffff" xlink:href="#b"/>
</g>
<g clip-path="url(#a)">
<use x="836" y="729.878966" fill="#ffffff" stroke="#ffffff" xlink:href="#b"/>
</g>
<g clip-path="url(#a)">
<use x="883.488931" y="729.878966" fill="#ffffff" stroke="#ffffff" xlink:href="#b"/>
</g>
<g clip-path="url(#a)">
<use x="982.424205" y="396.663148" fill="#ffffff" stroke="#ffffff" xlink:href="#b"/>
</g>
<g clip-path="url(#a)">
<use x="930.977862" y="729.878966" fill="#ffffff" stroke="#ffffff" xlink:href="#b"/>
</g>
<g clip-path="url(#a)">
<use x="788.511069" y="729.878966" fill="#ffffff" stroke="#ffffff" xlink:href="#b"/>
</g>
<g clip-path="url(#a)">
<use x="1033.870547" y="509.665353" fill="#ffffff" stroke="#ffffff" xlink:href="#b"/>
</g>
<g clip-path="url(#a)">
<use x="1073.444656" y="729.878966" fill="#ffffff" stroke="#ffffff" xlink:href="#b"/>
</g>
<g clip-path="url(#a)">
<use x="1120.933587" y="729.878966" fill="#ffffff" stroke="#ffffff" xlink:href="#b"/>
</g>
<g clip-path="url(#a)">
<use x="1362.335654" y="396.663148" fill="#ffffff" stroke="#ffffff" xlink:href="#b"/>
</g>
<g clip-path="url(#a)">
<use x="1215.91145" y="729.878966" fill="#ffffff" stroke="#ffffff" xlink:href="#b"/>
</g>
<g clip-path="url(#a)">
<use x="978.466794" y="729.878966" fill="#ffffff" stroke="#ffffff" xlink:href="#b"/>
</g>
<g clip-path="url(#a)">
<use x="1049.700191" y="620.532723" fill="#ffffff" stroke="#ffffff" xlink:href="#b"/>
</g>
<g clip-path="url(#a)">
<use x="1025.955725" y="729.878966" fill="#ffffff" stroke="#ffffff" xlink:href="#b"/>
</g>
<g clip-path="url(#a)">
<use x="1168.422519" y="729.878966" fill="#ffffff" stroke="#ffffff" xlink:href="#b"/>
</g>
<g clip-path="url(#a)">
<use x="1358.378244" y="620.532723" fill="#ffffff" stroke="#ffffff" xlink:href="#b"/>
</g>
<g clip-path="url(#a)">
<use x="1263.400381" y="729.878966" fill="#ffffff" stroke="#ffffff" xlink:href="#b"/>
</g>
<g clip-path="url(#a)">
<use x="1382.122709" y="509.665353" fill="#ffffff" stroke="#ffffff" xlink:href="#b"/>
</g>
<g clip-path="url(#a)">
<use x="1453.356106" y="729.878966" fill="#ffffff" stroke="#ffffff" xlink:href="#b"/>
</g>
<g clip-path="url(#a)">
<use x="1500.845037" y="729.878966" fill="#ffffff" stroke="#ffffff" xlink:href="#b"/>
</g>
<g clip-path="url(#a)">
<use x="1548.333968" y="729.878966" fill="#ffffff" stroke="#ffffff" xlink:href="#b"/>
</g>
<g clip-path="url(#a)">
<use x="1310.889312" y="729.878966" fill="#ffffff" stroke="#ffffff" xlink:href="#b"/>
</g>
<g clip-path="url(#a)">
<use x="1382.122709" y="620.532723" fill="#ffffff" stroke="#ffffff" xlink:href="#b"/>
</g>
<g clip-path="url(#a)">
<use x="1405.867175" y="729.878966" fill="#ffffff" stroke="#ffffff" xlink:href="#b"/>
</g>
<g clip-path="url(#a)">
<use x="1358.378244" y="729.878966" fill="#ffffff" stroke="#ffffff" xlink:href="#b"/>
</g>
<g clip-path="url(#a)">
<defs>
<path id="x" d="m45.406 46.391v29.594h8.9844v-75.984h-8.9844v8.2031q-2.8281-4.875-7.1562-7.25-4.3125-2.375-10.375-2.375-9.9062 0-16.141 7.9062-6.2188 7.9219-6.2188 20.812t6.2188 20.797q6.2344 7.9062 16.141 7.9062 6.0625 0 10.375-2.375 4.3281-2.3594 7.1562-7.2344zm-30.609-19.094q0-9.9062 4.0781-15.547t11.203-5.6406 11.219 5.6406q4.1094 5.6406 4.1094 15.547t-4.1094 15.547q-4.0938 5.6406-11.219 5.6406t-11.203-5.6406-4.0781-15.547z"/>
<path id="t" d="m44.281 53.078v-8.5q-3.7969 1.9531-7.9062 2.9219-4.0938 0.98438-8.5 0.98438-6.6875 0-10.031-2.0469t-3.3438-6.1562q0-3.125 2.3906-4.9062t9.625-3.3906l3.0781-0.6875q9.5625-2.0469 13.594-5.7812t4.0312-10.422q0-7.625-6.0312-12.078-6.0312-4.4375-16.578-4.4375-4.3906 0-9.1562 0.85938t-10.031 2.5625v9.2812q4.9844-2.5938 9.8125-3.8906 4.8281-1.2812 9.5781-1.2812 6.3438 0 9.75 2.1719 3.4219 2.1719 3.4219 6.125 0 3.6562-2.4688 5.6094-2.4531 1.9531-10.812 3.7656l-3.125 0.73438q-8.3438 1.75-12.062 5.3906-3.7031 3.6406-3.7031 9.9844 0 7.7188 5.4688 11.906 5.4688 4.2031 15.531 4.2031 4.9688 0 9.3594-0.73438 4.4062-0.71875 8.1094-2.1875z"/>
</defs>
<g transform="translate(61.788 841.98) scale(.1 -.1)">
<use xlink:href="#q"/>
<use x="69.824219" xlink:href="#e"/>
<use x="131.103516" xlink:href="#h"/>
<use x="172.201172" xlink:href="#x"/>
<use x="235.677734" xlink:href="#t"/>
</g>
</g>
<g clip-path="url(#a)">
<defs>
<path id="ai" d="m11.719 12.406h10.297v-8.4062l-8-15.625h-6.2969l4 15.625z"/>
</defs>
<g transform="translate(122.08 841.98) scale(.1 -.1)">
<use xlink:href="#ai"/>
</g>
</g>
<g clip-path="url(#a)">
<defs>
<path id="ac" d="m4.2031 54.688h8.9844l11.234-42.672 11.172 42.672h10.594l11.234-42.672 11.188 42.672h8.9844l-14.312-54.688h-10.594l-11.766 44.828-11.812-44.828h-10.609z"/>
<path id="u" d="m18.109 8.2031v-29h-9.0312v75.484h9.0312v-8.2969q2.8438 4.875 7.1562 7.2344 4.3281 2.375 10.328 2.375 9.9688 0 16.188-7.9062 6.2344-7.9062 6.2344-20.797t-6.2344-20.812q-6.2188-7.9062-16.188-7.9062-6 0-10.328 2.375-4.3125 2.375-7.1562 7.25zm30.578 19.094q0 9.9062-4.0781 15.547t-11.203 5.6406q-7.1406 0-11.219-5.6406t-4.0781-15.547 4.0781-15.547 11.219-5.6406q7.125 0 11.203 5.6406t4.0781 15.547z"/>
<path id="al" d="m45.406 27.984q0 9.7656-4.0312 15.125-4.0156 5.375-11.297 5.375-7.2188 0-11.25-5.375-4.0312-5.3594-4.0312-15.125 0-9.7188 4.0312-15.094t11.25-5.375q7.2812 0 11.297 5.375 4.0312 5.375 4.0312 15.094zm8.9844-21.203q0-13.953-6.2031-20.766-6.1875-6.8125-18.984-6.8125-4.7344 0-8.9375 0.70312t-8.1562 2.1719v8.7344q3.9531-2.1406 7.8125-3.1562 3.8594-1.0312 7.8594-1.0312 8.8438 0 13.234 4.6094t4.3906 13.938v4.4531q-2.7812-4.8438-7.125-7.2344t-10.406-2.3906q-10.047 0-16.203 7.6562-6.1562 7.6719-6.1562 20.328 0 12.688 6.1562 20.344 6.1562 7.6719 16.203 7.6719 6.0625 0 10.406-2.3906t7.125-7.2188v8.2969h8.9844z"/>
</defs>
<g transform="translate(147.87 841.98) scale(.1 -.1)">
<use xlink:href="#ac"/>
<use x="81.787109" xlink:href="#h"/>
<use x="122.900391" xlink:href="#e"/>
<use x="184.179688" xlink:href="#u"/>
<use x="247.65625" xlink:href="#u"/>
<use x="311.132812" xlink:href="#i"/>
<use x="338.916016" xlink:href="#f"/>
<use x="402.294922" xlink:href="#al"/>
</g>
</g>
<g clip-path="url(#a)">
<g transform="translate(204.1 841.98) scale(.1 -.1)">
<use xlink:href="#u"/>
<use x="63.476562" xlink:href="#e"/>
<use x="124.755859" xlink:href="#u"/>
<use x="188.232422" xlink:href="#g"/>
<use x="249.755859" xlink:href="#h"/>
</g>
</g>
<g clip-path="url(#a)">
<g transform="translate(264.54 841.98) scale(.1 -.1)">
<use xlink:href="#ai"/>
</g>
</g>
<g clip-path="url(#a)">
<g transform="translate(299.08 841.98) scale(.1 -.1)">
<use xlink:href="#u"/>
<use x="63.476562" xlink:href="#e"/>
<use x="124.755859" xlink:href="#u"/>
<use x="188.232422" xlink:href="#g"/>
<use x="249.755859" xlink:href="#h"/>
</g>
</g>
<g clip-path="url(#a)">
<g transform="translate(359.52 841.98) scale(.1 -.1)">
<use xlink:href="#ai"/>
</g>
</g>
<g clip-path="url(#a)">
<g transform="translate(399.19 841.98) scale(.1 -.1)">
<use xlink:href="#e"/>
<use x="61.279297" xlink:href="#f"/>
<use x="124.658203" xlink:href="#x"/>
</g>
</g>
<g clip-path="url(#a)">
<g transform="translate(449.86 841.98) scale(.1 -.1)">
<use xlink:href="#e"/>
<use x="61.279297" xlink:href="#f"/>
</g>
</g>
<g clip-path="url(#a)">
<g transform="translate(492.32 841.98) scale(.1 -.1)">
<use xlink:href="#e"/>
<use x="61.279297" xlink:href="#h"/>
<use x="102.361328" xlink:href="#g"/>
<use x="163.884766" xlink:href="#e"/>
</g>
</g>
<g clip-path="url(#a)">
<defs>
<path id="r" d="m18.312 70.219v-15.531h18.5v-6.9844h-18.5v-29.688q0-6.6875 1.8281-8.5938t7.4531-1.9062h9.2188v-7.5156h-9.2188q-10.406 0-14.359 3.875-3.9531 3.8906-3.9531 14.141v29.688h-6.5938v6.9844h6.5938v15.531z"/>
<path id="p" d="m30.609 48.391q-7.2188 0-11.422-5.6406t-4.2031-15.453 4.1719-15.453q4.1875-5.6406 11.453-5.6406 7.1875 0 11.375 5.6562 4.2031 5.6719 4.2031 15.438 0 9.7188-4.2031 15.406-4.1875 5.6875-11.375 5.6875zm0 7.6094q11.719 0 18.406-7.625 6.7031-7.6094 6.7031-21.078 0-13.422-6.7031-21.078-6.6875-7.6406-18.406-7.6406-11.766 0-18.438 7.6406-6.6562 7.6562-6.6562 21.078 0 13.469 6.6562 21.078 6.6719 7.625 18.438 7.625z"/>
</defs>
<g transform="translate(546.05 841.98) scale(.1 -.1)">
<use xlink:href="#r"/>
<use x="39.208984" xlink:href="#p"/>
</g>
</g>
<g clip-path="url(#a)">
<g transform="translate(592.6 841.98) scale(.1 -.1)">
<use xlink:href="#t"/>
<use x="52.099609" xlink:href="#i"/>
<use x="79.882812" xlink:href="#r"/>
</g>
</g>
<g clip-path="url(#a)">
<g transform="translate(632.55 841.98) scale(.1 -.1)">
<use xlink:href="#x"/>
<use x="63.476562" xlink:href="#p"/>
<use x="124.658203" xlink:href="#ac"/>
<use x="206.445312" xlink:href="#f"/>
</g>
</g>
<g clip-path="url(#a)">
<g transform="translate(684.13 841.98) scale(.1 -.1)">
<use xlink:href="#e"/>
<use x="61.279297" xlink:href="#f"/>
<use x="124.658203" xlink:href="#x"/>
</g>
</g>
<g clip-path="url(#a)">
<defs>
<path id="av" d="m9.0781 75.984h9.0312v-44.875l26.812 23.578h11.469l-29-25.578 30.234-29.109h-11.719l-27.797 26.703v-26.703h-9.0312z"/>
</defs>
<g transform="translate(731.71 841.98) scale(.1 -.1)">
<use xlink:href="#r"/>
<use x="39.208984" xlink:href="#e"/>
<use x="100.488281" xlink:href="#k"/>
<use x="128.271484" xlink:href="#av"/>
</g>
</g>
<g clip-path="url(#a)">
<defs>
<path id="ar" d="m54.891 33.016v-33.016h-8.9844v32.719q0 7.7656-3.0312 11.609-3.0312 3.8594-9.0781 3.8594-7.2812 0-11.484-4.6406-4.2031-4.625-4.2031-12.641v-30.906h-9.0312v75.984h9.0312v-29.797q3.2344 4.9375 7.5938 7.375 4.375 2.4375 10.094 2.4375 9.4219 0 14.25-5.8281 4.8438-5.8281 4.8438-17.156z"/>
</defs>
<g transform="translate(777.9 841.98) scale(.1 -.1)">
<use xlink:href="#ac"/>
<use x="81.787109" xlink:href="#i"/>
<use x="109.570312" xlink:href="#r"/>
<use x="148.779297" xlink:href="#ar"/>
</g>
</g>
<g clip-path="url(#a)">
<g transform="translate(813.08 841.98) scale(.1 -.1)">
<use xlink:href="#t"/>
<use x="52.099609" xlink:href="#p"/>
<use x="113.28125" xlink:href="#j"/>
<use x="210.693359" xlink:href="#g"/>
<use x="272.216797" xlink:href="#p"/>
<use x="333.398438" xlink:href="#f"/>
<use x="396.777344" xlink:href="#g"/>
</g>
</g>
<g clip-path="url(#a)">
<g transform="translate(878.47 841.98) scale(.1 -.1)">
<use xlink:href="#r"/>
<use x="39.208984" xlink:href="#p"/>
</g>
</g>
<g clip-path="url(#a)">
<g transform="translate(914.39 841.98) scale(.1 -.1)">
<use xlink:href="#x"/>
<use x="63.476562" xlink:href="#g"/>
<use x="125" xlink:href="#t"/>
<use x="177.099609" xlink:href="#i"/>
<use x="204.882812" xlink:href="#al"/>
<use x="268.359375" xlink:href="#f"/>
</g>
</g>
<g clip-path="url(#a)">
<defs>
<path id="aj" d="m32.172-5.0781q-3.7969-9.7656-7.4219-12.734-3.6094-2.9844-9.6562-2.9844h-7.1875v7.5156h5.2812q3.7031 0 5.75 1.7656 2.0625 1.75 4.5469 8.2969l1.6094 4.0938-22.109 53.812h9.5156l17.094-42.766 17.094 42.766h9.5156z"/>
<path id="ak" d="m8.5 21.578v33.109h8.9844v-32.766q0-7.7656 3.0156-11.656 3.0312-3.875 9.0938-3.875 7.2656 0 11.484 4.6406 4.2344 4.6406 4.2344 12.656v31h8.9844v-54.688h-8.9844v8.4062q-3.2656-4.9844-7.5938-7.4062-4.3125-2.4219-10.031-2.4219-9.4219 0-14.312 5.8594-4.875 5.8594-4.875 17.141z"/>
</defs>
<g transform="translate(967.22 841.98) scale(.1 -.1)">
<use xlink:href="#aj"/>
<use x="59.179688" xlink:href="#p"/>
<use x="120.361328" xlink:href="#ak"/>
<use x="183.740234" xlink:href="#h"/>
</g>
</g>
<g clip-path="url(#a)">
<g transform="translate(1015.6 841.98) scale(.1 -.1)">
<use xlink:href="#p"/>
<use x="61.181641" xlink:href="#ac"/>
<use x="142.96875" xlink:href="#f"/>
</g>
</g>
<g clip-path="url(#a)">
<defs>
<path id="aq" d="m2.9844 54.688h9.5156l17.094-45.891 17.094 45.891h9.5156l-20.516-54.688h-12.203z"/>
</defs>
<g transform="translate(1047.3 841.98) scale(.1 -.1)">
<use xlink:href="#i"/>
<use x="27.783203" xlink:href="#f"/>
<use x="91.162109" xlink:href="#aq"/>
<use x="150.341797" xlink:href="#i"/>
<use x="178.125" xlink:href="#r"/>
<use x="217.333984" xlink:href="#e"/>
<use x="278.613281" xlink:href="#r"/>
<use x="317.822266" xlink:href="#i"/>
<use x="345.605469" xlink:href="#p"/>
<use x="406.787109" xlink:href="#f"/>
<use x="470.166016" xlink:href="#t"/>
</g>
</g>
<g clip-path="url(#a)">
<g transform="translate(1115.8 841.98) scale(.1 -.1)">
<use xlink:href="#p"/>
<use x="61.181641" xlink:href="#h"/>
</g>
</g>
<g clip-path="url(#a)">
<defs>
<path id="aw" d="m37.109 75.984v-7.4844h-8.5938q-4.8281 0-6.7188-1.9531-1.875-1.9531-1.875-7.0312v-4.8281h14.797v-6.9844h-14.797v-47.703h-9.0312v47.703h-8.5938v6.9844h8.5938v3.8125q0 9.125 4.25 13.297 4.25 4.1875 13.469 4.1875z"/>
</defs>
<g transform="translate(1161.5 841.98) scale(.1 -.1)">
<use xlink:href="#aw"/>
<use x="35.205078" xlink:href="#p"/>
<use x="96.386719" xlink:href="#h"/>
</g>
</g>
<g clip-path="url(#a)">
<g transform="translate(1192.5 841.98) scale(.1 -.1)">
<use xlink:href="#ac"/>
<use x="81.787109" xlink:href="#ar"/>
<use x="145.166016" xlink:href="#e"/>
<use x="206.445312" xlink:href="#r"/>
<use x="245.654297" xlink:href="#g"/>
<use x="307.177734" xlink:href="#aq"/>
<use x="366.357422" xlink:href="#g"/>
<use x="427.880859" xlink:href="#h"/>
</g>
</g>
<g clip-path="url(#a)">
<g transform="translate(1253.3 841.98) scale(.1 -.1)">
<use xlink:href="#g"/>
<use x="61.523438" xlink:href="#k"/>
<use x="89.306641" xlink:href="#t"/>
<use x="141.40625" xlink:href="#g"/>
</g>
</g>
<g clip-path="url(#a)">
<g transform="translate(1299.6 841.98) scale(.1 -.1)">
<use xlink:href="#aj"/>
<use x="59.179688" xlink:href="#p"/>
<use x="120.361328" xlink:href="#ak"/>
<use x="183.740234" xlink:href="#h"/>
</g>
</g>
<g clip-path="url(#a)">
<defs>
<path id="as" d="m48.781 52.594v-8.4062q-3.8125 2.1094-7.6406 3.1562t-7.7344 1.0469q-8.75 0-13.594-5.5469-4.8281-5.5312-4.8281-15.547t4.8281-15.562q4.8438-5.5312 13.594-5.5312 3.9062 0 7.7344 1.0469t7.6406 3.1562v-8.3125q-3.7656-1.75-7.7969-2.625-4.0156-0.89062-8.5625-0.89062-12.359 0-19.641 7.7656-7.2656 7.7656-7.2656 20.953 0 13.375 7.3438 21.031 7.3594 7.6719 20.156 7.6719 4.1406 0 8.0938-0.85938 3.9531-0.84375 7.6719-2.5469z"/>
</defs>
<g transform="translate(1340 841.98) scale(.1 -.1)">
<use xlink:href="#as"/>
<use x="54.980469" xlink:href="#ak"/>
<use x="118.359375" xlink:href="#t"/>
<use x="170.458984" xlink:href="#r"/>
<use x="209.667969" xlink:href="#p"/>
<use x="270.849609" xlink:href="#j"/>
</g>
</g>
<g clip-path="url(#a)">
<g transform="translate(1386.4 841.98) scale(.1 -.1)">
<use xlink:href="#u"/>
<use x="63.476562" xlink:href="#h"/>
<use x="104.589844" xlink:href="#i"/>
<use x="132.373047" xlink:href="#f"/>
<use x="195.751953" xlink:href="#r"/>
<use x="234.960938" xlink:href="#i"/>
<use x="262.744141" xlink:href="#f"/>
<use x="326.123047" xlink:href="#al"/>
</g>
</g>
<g clip-path="url(#a)">
<g transform="translate(1438.3 841.98) scale(.1 -.1)">
<use xlink:href="#f"/>
<use x="63.378906" xlink:href="#g"/>
<use x="124.902344" xlink:href="#g"/>
<use x="186.425781" xlink:href="#x"/>
<use x="249.902344" xlink:href="#t"/>
</g>
</g>
<g clip-path="url(#a)">
<g transform="translate(1490 841.98) scale(.1 -.1)">
<use xlink:href="#j"/>
<use x="97.412109" xlink:href="#e"/>
<use x="158.691406" xlink:href="#aj"/>
</g>
</g>
<g clip-path="url(#a)">
<defs>
<path id="at" d="m48.688 27.297q0 9.9062-4.0781 15.547t-11.203 5.6406q-7.1406 0-11.219-5.6406t-4.0781-15.547 4.0781-15.547 11.219-5.6406q7.125 0 11.203 5.6406t4.0781 15.547zm-30.578 19.094q2.8438 4.875 7.1562 7.2344 4.3281 2.375 10.328 2.375 9.9688 0 16.188-7.9062 6.2344-7.9062 6.2344-20.797t-6.2344-20.812q-6.2188-7.9062-16.188-7.9062-6 0-10.328 2.375-4.3125 2.375-7.1562 7.25v-8.2031h-9.0312v75.984h9.0312z"/>
</defs>
<g transform="translate(1542.1 841.98) scale(.1 -.1)">
<use xlink:href="#at"/>
<use x="63.476562" xlink:href="#g"/>
</g>
</g>
<g clip-path="url(#a)">
<defs>
<path id="d" d="m10.688 12.406h10.312v-12.406h-10.312z"/>
</defs>
<g transform="translate(1594.2 841.98) scale(.1 -.1)">
<use xlink:href="#d"/>
</g>
</g>
<g clip-path="url(#a)">
<defs>
<path id="c" d="m12.406 8.2969h16.109v55.625l-17.531-3.5156v8.9844l17.438 3.5156h9.8594v-64.609h16.109v-8.2969h-41.984z"/>
</defs>
<g transform="translate(441.52 43.534) scale(.1 -.1)">
<use xlink:href="#c"/>
<use x="63.623047" xlink:href="#d"/>
<use x="95.410156" xlink:href="#c"/>
</g>
</g>
<g clip-path="url(#a)">
<defs>
<path id="n" d="m19.188 8.2969h34.422v-8.2969h-46.281v8.2969q5.6094 5.8125 15.297 15.594 9.7031 9.7969 12.188 12.641 4.7344 5.3125 6.6094 9 1.8906 3.6875 1.8906 7.25 0 5.8125-4.0781 9.4688-4.0781 3.6719-10.625 3.6719-4.6406 0-9.7969-1.6094-5.1406-1.6094-11-4.8906v9.9688q5.9531 2.3906 11.125 3.6094 5.1875 1.2188 9.4844 1.2188 11.328 0 18.062-5.6719 6.7344-5.6562 6.7344-15.125 0-4.5-1.6875-8.5312-1.6719-4.0156-6.125-9.4844-1.2188-1.4219-7.7656-8.1875-6.5312-6.7656-18.453-18.922z"/>
</defs>
<g transform="translate(828.05 623.29) scale(.1 -.1)">
<use xlink:href="#c"/>
<use x="63.623047" xlink:href="#d"/>
<use x="95.410156" xlink:href="#n"/>
</g>
</g>
<g clip-path="url(#a)">
<defs>
<path id="m" d="m40.578 39.312q7.0781-1.5156 11.047-6.3125 3.9844-4.7812 3.9844-11.812 0-10.781-7.4219-16.703-7.4219-5.9062-21.094-5.9062-4.5781 0-9.4375 0.90625t-10.031 2.7188v9.5156q4.0938-2.3906 8.9688-3.6094 4.8906-1.2188 10.219-1.2188 9.2656 0 14.125 3.6562t4.8594 10.641q0 6.4531-4.5156 10.078-4.5156 3.6406-12.562 3.6406h-8.5v8.1094h8.8906q7.2656 0 11.125 2.9062t3.8594 8.375q0 5.6094-3.9844 8.6094-3.9688 3.0156-11.391 3.0156-4.0625 0-8.7031-0.89062-4.6406-0.875-10.203-2.7188v8.7812q5.625 1.5625 10.531 2.3438t9.25 0.78125q11.234 0 17.766-5.1094 6.5469-5.0938 6.5469-13.781 0-6.0625-3.4688-10.234t-9.8594-5.7812z"/>
</defs>
<g transform="translate(68.226 732.64) scale(.1 -.1)">
<use xlink:href="#c"/>
<use x="63.623047" xlink:href="#d"/>
<use x="95.410156" xlink:href="#m"/>
</g>
</g>
<g clip-path="url(#a)">
<defs>
<path id="o" d="m37.797 64.312-24.906-38.922h24.906zm-2.5938 8.5938h12.406v-47.516h10.406v-8.2031h-10.406v-17.188h-9.8125v17.188h-32.906v9.5156z"/>
</defs>
<g transform="translate(163.2 623.29) scale(.1 -.1)">
<use xlink:href="#c"/>
<use x="63.623047" xlink:href="#d"/>
<use x="95.410156" xlink:href="#o"/>
</g>
</g>
<g clip-path="url(#a)">
<defs>
<path id="ab" d="m10.797 72.906h38.719v-8.3125h-29.688v-17.859q2.1406 0.73438 4.2812 1.0938 2.1562 0.35938 4.3125 0.35938 12.203 0 19.328-6.6875 7.1406-6.6875 7.1406-18.109 0-11.766-7.3281-18.297-7.3281-6.5156-20.656-6.5156-4.5938 0-9.3594 0.78125-4.75 0.78125-9.8281 2.3438v9.9219q4.3906-2.3906 9.0781-3.5625t9.9062-1.1719q8.4531 0 13.375 4.4375 4.9375 4.4375 4.9375 12.062 0 7.6094-4.9375 12.047-4.9219 4.4531-13.375 4.4531-3.9531 0-7.8906-0.875-3.9219-0.875-8.0156-2.7344z"/>
</defs>
<g transform="translate(210.69 732.64) scale(.1 -.1)">
<use xlink:href="#c"/>
<use x="63.623047" xlink:href="#d"/>
<use x="95.410156" xlink:href="#ab"/>
</g>
</g>
<g clip-path="url(#a)">
<defs>
<path id="aa" d="m33.016 40.375q-6.6406 0-10.531-4.5469-3.875-4.5312-3.875-12.438 0-7.8594 3.875-12.438 3.8906-4.5625 10.531-4.5625t10.516 4.5625q3.875 4.5781 3.875 12.438 0 7.9062-3.875 12.438-3.875 4.5469-10.516 4.5469zm19.578 30.922v-8.9844q-3.7188 1.75-7.5 2.6719-3.7812 0.9375-7.5 0.9375-9.7656 0-14.922-6.5938-5.1406-6.5938-5.875-19.922 2.875 4.25 7.2188 6.5156 4.3594 2.2656 9.5781 2.2656 10.984 0 17.359-6.6719 6.375-6.6562 6.375-18.125 0-11.234-6.6406-18.031-6.6406-6.7812-17.672-6.7812-12.656 0-19.344 9.6875-6.6875 9.7031-6.6875 28.109 0 17.281 8.2031 27.562t22.016 10.281q3.7188 0 7.5-0.73438t7.8906-2.1875z"/>
</defs>
<g transform="translate(281.93 623.29) scale(.1 -.1)">
<use xlink:href="#c"/>
<use x="63.623047" xlink:href="#d"/>
<use x="95.410156" xlink:href="#aa"/>
</g>
</g>
<g clip-path="url(#a)">
<defs>
<path id="z" d="m8.2031 72.906h46.875v-4.2031l-26.469-68.703h-10.297l24.906 64.594h-35.016z"/>
</defs>
<g transform="translate(305.67 732.64) scale(.1 -.1)">
<use xlink:href="#c"/>
<use x="63.623047" xlink:href="#d"/>
<use x="95.410156" xlink:href="#z"/>
</g>
</g>
<g clip-path="url(#a)">
<defs>
<path id="y" d="m31.781 34.625q-7.0312 0-11.062-3.7656-4.0156-3.7656-4.0156-10.344 0-6.5938 4.0156-10.359 4.0312-3.7656 11.062-3.7656t11.078 3.7812q4.0625 3.7969 4.0625 10.344 0 6.5781-4.0312 10.344-4.0156 3.7656-11.109 3.7656zm-9.8594 4.1875q-6.3438 1.5625-9.8906 5.9062-3.5312 4.3594-3.5312 10.609 0 8.7344 6.2188 13.812 6.2344 5.0781 17.062 5.0781 10.891 0 17.094-5.0781t6.2031-13.812q0-6.25-3.5469-10.609-3.5312-4.3438-9.8281-5.9062 7.125-1.6562 11.094-6.5 3.9844-4.8281 3.9844-11.797 0-10.609-6.4688-16.281-6.4688-5.6562-18.531-5.6562-12.047 0-18.531 5.6562-6.4688 5.6719-6.4688 16.281 0 6.9688 4 11.797 4.0156 4.8438 11.141 6.5zm-3.6094 15.578q0-5.6562 3.5312-8.8281 3.5469-3.1719 9.9375-3.1719 6.3594 0 9.9375 3.1719 3.5938 3.1719 3.5938 8.8281 0 5.6719-3.5938 8.8438-3.5781 3.1719-9.9375 3.1719-6.3906 0-9.9375-3.1719-3.5312-3.1719-3.5312-8.8438z"/>
</defs>
<g transform="translate(400.65 732.64) scale(.1 -.1)">
<use xlink:href="#c"/>
<use x="63.623047" xlink:href="#d"/>
<use x="95.410156" xlink:href="#y"/>
</g>
</g>
<g clip-path="url(#a)">
<defs>
<path id="af" d="m10.984 1.5156v8.9844q3.7188-1.7656 7.5156-2.6875 3.8125-0.92188 7.4844-0.92188 9.7656 0 14.906 6.5625 5.1562 6.5625 5.8906 19.953-2.8281-4.2031-7.1875-6.4531-4.3438-2.25-9.6094-2.25-10.938 0-17.312 6.6094-6.375 6.625-6.375 18.109 0 11.219 6.6406 18 6.6406 6.7969 17.672 6.7969 12.656 0 19.312-9.7031 6.6719-9.6875 6.6719-28.141 0-17.234-8.1875-27.516-8.1719-10.281-21.984-10.281-3.7188 0-7.5312 0.73438-3.7969 0.73438-7.9062 2.2031zm19.625 30.906q6.6406 0 10.516 4.5312 3.8906 4.5469 3.8906 12.469 0 7.8594-3.8906 12.422-3.875 4.5625-10.516 4.5625t-10.516-4.5625-3.875-12.422q0-7.9219 3.875-12.469 3.875-4.5312 10.516-4.5312z"/>
</defs>
<g transform="translate(533.77 165.33) scale(.1 -.1)">
<use xlink:href="#c"/>
<use x="63.623047" xlink:href="#d"/>
<use x="95.410156" xlink:href="#af"/>
</g>
</g>
<g clip-path="url(#a)">
<defs>
<path id="ag" d="m31.781 66.406q-7.6094 0-11.453-7.5-3.8281-7.4844-3.8281-22.531 0-14.984 3.8281-22.484 3.8438-7.5 11.453-7.5 7.6719 0 11.5 7.5 3.8438 7.5 3.8438 22.484 0 15.047-3.8438 22.531-3.8281 7.5-11.5 7.5zm0 7.8125q12.266 0 18.734-9.7031 6.4688-9.6875 6.4688-28.141 0-18.406-6.4688-28.109-6.4688-9.6875-18.734-9.6875-12.25 0-18.719 9.6875-6.4688 9.7031-6.4688 28.109 0 18.453 6.4688 28.141 6.4688 9.7031 18.719 9.7031z"/>
</defs>
<g transform="translate(492.44 732.64) scale(.1 -.1)">
<use xlink:href="#c"/>
<use x="63.623047" xlink:href="#d"/>
<use x="95.410156" xlink:href="#c"/>
<use x="159.033203" xlink:href="#ag"/>
</g>
</g>
<g clip-path="url(#a)">
<g transform="translate(1584.7 732.64) scale(.1 -.1)">
<use xlink:href="#c"/>
<use x="63.623047" xlink:href="#d"/>
<use x="95.410156" xlink:href="#c"/>
<use x="159.033203" xlink:href="#c"/>
</g>
</g>
<g clip-path="url(#a)">
<g transform="translate(112.53 732.64) scale(.1 -.1)">
<use xlink:href="#c"/>
<use x="63.623047" xlink:href="#d"/>
<use x="95.410156" xlink:href="#c"/>
<use x="159.033203" xlink:href="#n"/>
</g>
</g>
<g clip-path="url(#a)">
<g transform="translate(160.02 732.64) scale(.1 -.1)">
<use xlink:href="#c"/>
<use x="63.623047" xlink:href="#d"/>
<use x="95.410156" xlink:href="#c"/>
<use x="159.033203" xlink:href="#m"/>
</g>
</g>
<g clip-path="url(#a)">
<g transform="translate(255 732.64) scale(.1 -.1)">
<use xlink:href="#c"/>
<use x="63.623047" xlink:href="#d"/>
<use x="95.410156" xlink:href="#c"/>
<use x="159.033203" xlink:href="#o"/>
</g>
</g>
<g clip-path="url(#a)">
<g transform="translate(349.98 732.64) scale(.1 -.1)">
<use xlink:href="#c"/>
<use x="63.623047" xlink:href="#d"/>
<use x="95.410156" xlink:href="#c"/>
<use x="159.033203" xlink:href="#ab"/>
</g>
</g>
<g clip-path="url(#a)">
<g transform="translate(444.96 732.64) scale(.1 -.1)">
<use xlink:href="#c"/>
<use x="63.623047" xlink:href="#d"/>
<use x="95.410156" xlink:href="#c"/>
<use x="159.033203" xlink:href="#aa"/>
</g>
</g>
<g clip-path="url(#a)">
<g transform="translate(834.98 283.85) scale(.1 -.1)">
<use xlink:href="#c"/>
<use x="63.623047" xlink:href="#d"/>
<use x="95.410156" xlink:href="#c"/>
<use x="159.033203" xlink:href="#z"/>
</g>
</g>
<g clip-path="url(#a)">
<g transform="translate(587.42 732.64) scale(.1 -.1)">
<use xlink:href="#c"/>
<use x="63.623047" xlink:href="#d"/>
<use x="95.410156" xlink:href="#c"/>
<use x="159.033203" xlink:href="#y"/>
</g>
</g>
<g clip-path="url(#a)">
<g transform="translate(539.93 732.64) scale(.1 -.1)">
<use xlink:href="#c"/>
<use x="63.623047" xlink:href="#d"/>
<use x="95.410156" xlink:href="#c"/>
<use x="159.033203" xlink:href="#af"/>
</g>
</g>
<g clip-path="url(#a)">
<g transform="translate(634.91 732.64) scale(.1 -.1)">
<use xlink:href="#c"/>
<use x="63.623047" xlink:href="#d"/>
<use x="95.410156" xlink:href="#n"/>
<use x="159.033203" xlink:href="#ag"/>
</g>
</g>
<g clip-path="url(#a)">
<g transform="translate(682.4 732.64) scale(.1 -.1)">
<use xlink:href="#c"/>
<use x="63.623047" xlink:href="#d"/>
<use x="95.410156" xlink:href="#n"/>
<use x="159.033203" xlink:href="#c"/>
</g>
</g>
<g clip-path="url(#a)">
<g transform="translate(765.51 512.42) scale(.1 -.1)">
<use xlink:href="#c"/>
<use x="63.623047" xlink:href="#d"/>
<use x="95.410156" xlink:href="#n"/>
<use x="159.033203" xlink:href="#n"/>
</g>
</g>
<g clip-path="url(#a)">
<g transform="translate(729.89 732.64) scale(.1 -.1)">
<use xlink:href="#c"/>
<use x="63.623047" xlink:href="#d"/>
<use x="95.410156" xlink:href="#n"/>
<use x="159.033203" xlink:href="#m"/>
</g>
</g>
<g clip-path="url(#a)">
<g transform="translate(801.12 623.29) scale(.1 -.1)">
<use xlink:href="#c"/>
<use x="63.623047" xlink:href="#d"/>
<use x="95.410156" xlink:href="#n"/>
<use x="159.033203" xlink:href="#o"/>
</g>
</g>
<g clip-path="url(#a)">
<g transform="translate(824.87 732.64) scale(.1 -.1)">
<use xlink:href="#c"/>
<use x="63.623047" xlink:href="#d"/>
<use x="95.410156" xlink:href="#n"/>
<use x="159.033203" xlink:href="#ab"/>
</g>
</g>
<g clip-path="url(#a)">
<g transform="translate(872.36 732.64) scale(.1 -.1)">
<use xlink:href="#c"/>
<use x="63.623047" xlink:href="#d"/>
<use x="95.410156" xlink:href="#n"/>
<use x="159.033203" xlink:href="#aa"/>
</g>
</g>
<g clip-path="url(#a)">
<g transform="translate(971.29 399.42) scale(.1 -.1)">
<use xlink:href="#c"/>
<use x="63.623047" xlink:href="#d"/>
<use x="95.410156" xlink:href="#n"/>
<use x="159.033203" xlink:href="#z"/>
</g>
</g>
<g clip-path="url(#a)">
<g transform="translate(919.85 732.64) scale(.1 -.1)">
<use xlink:href="#c"/>
<use x="63.623047" xlink:href="#d"/>
<use x="95.410156" xlink:href="#n"/>
<use x="159.033203" xlink:href="#y"/>
</g>
</g>
<g clip-path="url(#a)">
<g transform="translate(777.38 732.64) scale(.1 -.1)">
<use xlink:href="#c"/>
<use x="63.623047" xlink:href="#d"/>
<use x="95.410156" xlink:href="#n"/>
<use x="159.033203" xlink:href="#af"/>
</g>
</g>
<g clip-path="url(#a)">
<g transform="translate(1022.7 512.42) scale(.1 -.1)">
<use xlink:href="#c"/>
<use x="63.623047" xlink:href="#d"/>
<use x="95.410156" xlink:href="#m"/>
<use x="159.033203" xlink:href="#ag"/>
</g>
</g>
<g clip-path="url(#a)">
<g transform="translate(1062.3 732.64) scale(.1 -.1)">
<use xlink:href="#c"/>
<use x="63.623047" xlink:href="#d"/>
<use x="95.410156" xlink:href="#m"/>
<use x="159.033203" xlink:href="#c"/>
</g>
</g>
<g clip-path="url(#a)">
<g transform="translate(1109.8 732.64) scale(.1 -.1)">
<use xlink:href="#c"/>
<use x="63.623047" xlink:href="#d"/>
<use x="95.410156" xlink:href="#m"/>
<use x="159.033203" xlink:href="#n"/>
</g>
</g>
<g clip-path="url(#a)">
<g transform="translate(1351.2 399.42) scale(.1 -.1)">
<use xlink:href="#c"/>
<use x="63.623047" xlink:href="#d"/>
<use x="95.410156" xlink:href="#m"/>
<use x="159.033203" xlink:href="#m"/>
</g>
</g>
<g clip-path="url(#a)">
<g transform="translate(1204.8 732.64) scale(.1 -.1)">
<use xlink:href="#c"/>
<use x="63.623047" xlink:href="#d"/>
<use x="95.410156" xlink:href="#m"/>
<use x="159.033203" xlink:href="#o"/>
</g>
</g>
<g clip-path="url(#a)">
<g transform="translate(967.33 732.64) scale(.1 -.1)">
<use xlink:href="#c"/>
<use x="63.623047" xlink:href="#d"/>
<use x="95.410156" xlink:href="#m"/>
<use x="159.033203" xlink:href="#ab"/>
</g>
</g>
<g clip-path="url(#a)">
<g transform="translate(1038.6 623.29) scale(.1 -.1)">
<use xlink:href="#c"/>
<use x="63.623047" xlink:href="#d"/>
<use x="95.410156" xlink:href="#m"/>
<use x="159.033203" xlink:href="#aa"/>
</g>
</g>
<g clip-path="url(#a)">
<g transform="translate(1014.8 732.64) scale(.1 -.1)">
<use xlink:href="#c"/>
<use x="63.623047" xlink:href="#d"/>
<use x="95.410156" xlink:href="#m"/>
<use x="159.033203" xlink:href="#z"/>
</g>
</g>
<g clip-path="url(#a)">
<g transform="translate(1157.3 732.64) scale(.1 -.1)">
<use xlink:href="#c"/>
<use x="63.623047" xlink:href="#d"/>
<use x="95.410156" xlink:href="#m"/>
<use x="159.033203" xlink:href="#y"/>
</g>
</g>
<g clip-path="url(#a)">
<g transform="translate(1347.2 623.29) scale(.1 -.1)">
<use xlink:href="#c"/>
<use x="63.623047" xlink:href="#d"/>
<use x="95.410156" xlink:href="#m"/>
<use x="159.033203" xlink:href="#af"/>
</g>
</g>
<g clip-path="url(#a)">
<g transform="translate(1252.3 732.64) scale(.1 -.1)">
<use xlink:href="#c"/>
<use x="63.623047" xlink:href="#d"/>
<use x="95.410156" xlink:href="#o"/>
<use x="159.033203" xlink:href="#ag"/>
</g>
</g>
<g clip-path="url(#a)">
<g transform="translate(1371 512.42) scale(.1 -.1)">
<use xlink:href="#c"/>
<use x="63.623047" xlink:href="#d"/>
<use x="95.410156" xlink:href="#o"/>
<use x="159.033203" xlink:href="#c"/>
</g>
</g>
<g clip-path="url(#a)">
<g transform="translate(1442.2 732.64) scale(.1 -.1)">
<use xlink:href="#c"/>
<use x="63.623047" xlink:href="#d"/>
<use x="95.410156" xlink:href="#o"/>
<use x="159.033203" xlink:href="#n"/>
</g>
</g>
<g clip-path="url(#a)">
<g transform="translate(1489.7 732.64) scale(.1 -.1)">
<use xlink:href="#c"/>
<use x="63.623047" xlink:href="#d"/>
<use x="95.410156" xlink:href="#o"/>
<use x="159.033203" xlink:href="#m"/>
</g>
</g>
<g clip-path="url(#a)">
<g transform="translate(1537.2 732.64) scale(.1 -.1)">
<use xlink:href="#c"/>
<use x="63.623047" xlink:href="#d"/>
<use x="95.410156" xlink:href="#o"/>
<use x="159.033203" xlink:href="#o"/>
</g>
</g>
<g clip-path="url(#a)">
<g transform="translate(1299.8 732.64) scale(.1 -.1)">
<use xlink:href="#c"/>
<use x="63.623047" xlink:href="#d"/>
<use x="95.410156" xlink:href="#o"/>
<use x="159.033203" xlink:href="#ab"/>
</g>
</g>
<g clip-path="url(#a)">
<g transform="translate(1371 623.29) scale(.1 -.1)">
<use xlink:href="#c"/>
<use x="63.623047" xlink:href="#d"/>
<use x="95.410156" xlink:href="#o"/>
<use x="159.033203" xlink:href="#aa"/>
</g>
</g>
<g clip-path="url(#a)">
<g transform="translate(1394.7 732.64) scale(.1 -.1)">
<use xlink:href="#c"/>
<use x="63.623047" xlink:href="#d"/>
<use x="95.410156" xlink:href="#o"/>
<use x="159.033203" xlink:href="#z"/>
</g>
</g>
<g clip-path="url(#a)">
<g transform="translate(1347.2 732.64) scale(.1 -.1)">
<use xlink:href="#c"/>
<use x="63.623047" xlink:href="#d"/>
<use x="95.410156" xlink:href="#o"/>
<use x="159.033203" xlink:href="#y"/>
</g>
</g>
<defs>
<clipPath id="a">
<rect width="1672" height="880"/>
</clipPath>
</defs>
</svg>
