<?xml version="1.0" encoding="UTF-8"?>
<!DOCTYPE svg  PUBLIC '-//W3C//DTD SVG 1.1//EN'  'http://www.w3.org/Graphics/SVG/1.1/DTD/svg11.dtd'>
<svg width="1216pt" height="640pt" version="1.1" viewBox="0 0 1216 640" xmlns="http://www.w3.org/2000/svg" xmlns:xlink="http://www.w3.org/1999/xlink">
<defs>
<style type="text/css">*{stroke-linecap:butt;stroke-linejoin:round;}</style>
</defs>
<path d="m0 640h1216v-640h-1216z" fill="#fff"/>
<g fill="none" stroke="#000">
<path d="m314.17 29.865v88.512" clip-path="url(#a)"/>
<path d="m314.17 118.38-81.869 412.29" clip-path="url(#a)"/>
<path d="m314.17 118.38-258.67 412.29" clip-path="url(#a)"/>
<path d="m314.17 118.38-214.47 412.29" clip-path="url(#a)"/>
<path d="m314.17 118.38-170.27 412.29" clip-path="url(#a)"/>
<path d="m314.17 118.38-126.07 412.29" clip-path="url(#a)"/>
<path d="m314.17 118.38-37.669 412.29" clip-path="url(#a)"/>
<path d="m314.17 118.38 131.08 86.133" clip-path="url(#a)"/>
<path d="m314.17 118.38 757.93 412.29" clip-path="url(#a)"/>
<path d="m232.3 530.67v79.467" clip-path="url(#a)"/>
<path d="m55.499 530.67v79.467" clip-path="url(#a)"/>
<path d="m99.699 530.67v79.467" clip-path="url(#a)"/>
<path d="m143.9 530.67v79.467" clip-path="url(#a)"/>
<path d="m188.1 530.67v79.467" clip-path="url(#a)"/>
<path d="m276.5 530.67v79.467" clip-path="url(#a)"/>
<path d="m445.25 204.51 52.249 326.16" clip-path="url(#a)"/>
<path d="m445.25 204.51-124.55 326.16" clip-path="url(#a)"/>
<path d="m445.25 204.51-80.351 326.16" clip-path="url(#a)"/>
<path d="m445.25 204.51-36.151 326.16" clip-path="url(#a)"/>
<path d="m445.25 204.51 8.0488 326.16" clip-path="url(#a)"/>
<path d="m445.25 204.51 180.76 83.995" clip-path="url(#a)"/>
<path d="m497.5 530.67v79.467" clip-path="url(#a)"/>
<path d="m1072.1 530.67v79.467" clip-path="url(#a)"/>
<path d="m320.7 530.67v79.467" clip-path="url(#a)"/>
<path d="m364.9 530.67v79.467" clip-path="url(#a)"/>
<path d="m409.1 530.67v79.467" clip-path="url(#a)"/>
<path d="m453.3 530.67v79.467" clip-path="url(#a)"/>
<path d="m626.01 288.51-40.107 242.16" clip-path="url(#a)"/>
<path d="m626.01 288.51-84.308 242.16" clip-path="url(#a)"/>
<path d="m626.01 288.51 124.41 82.124" clip-path="url(#a)"/>
<path d="m585.9 530.67v79.467" clip-path="url(#a)"/>
<path d="m541.7 530.67v79.467" clip-path="url(#a)"/>
<path d="m750.42 370.63-164.52 160.04" clip-path="url(#a)" stroke-dasharray="3.7,1.6"/>
<path d="m750.42 370.63 56.478 160.04" clip-path="url(#a)"/>
<path d="m750.42 370.63-76.122 160.04" clip-path="url(#a)"/>
<path d="m750.42 370.63-31.922 160.04" clip-path="url(#a)"/>
<path d="m750.42 370.63 12.278 160.04" clip-path="url(#a)"/>
<path d="m750.42 370.63 203.81 80.572" clip-path="url(#a)"/>
<path d="m806.9 530.67v79.467" clip-path="url(#a)"/>
<path d="m674.3 530.67v79.467" clip-path="url(#a)"/>
<path d="m718.5 530.67v79.467" clip-path="url(#a)"/>
<path d="m762.7 530.67v79.467" clip-path="url(#a)"/>
<path d="m954.23 451.2-14.733 79.467" clip-path="url(#a)"/>
<path d="m954.23 451.2-324.13 79.467" clip-path="url(#a)"/>
<path d="m954.23 451.2-103.13 79.467" clip-path="url(#a)"/>
<path d="m954.23 451.2 206.27 158.93" clip-path="url(#a)"/>
<path d="m954.23 451.2 162.07 158.93" clip-path="url(#a)"/>
<path d="m954.23 451.2 73.667 79.467" clip-path="url(#a)"/>
<path d="m939.5 530.67-44.2 79.467" clip-path="url(#a)"/>
<path d="m939.5 530.67v79.467" clip-path="url(#a)"/>
<path d="m939.5 530.67 44.2 79.467" clip-path="url(#a)"/>
<path d="m630.1 530.67v79.467" clip-path="url(#a)"/>
<path d="m851.1 530.67v79.467" clip-path="url(#a)"/>
<path d="m1027.9 530.67v79.467" clip-path="url(#a)"/>
</g>
<path d="m307.9 71.113v6.0162q0 2.4 2.4 2.4h7.7425q2.4 0 2.4-2.4v-6.0162q0-2.4-2.4-2.4h-7.7425q-2.4 0-2.4 2.4z" clip-path="url(#a)" fill="#fff" stroke="#fff"/>
<g clip-path="url(#a)">
<defs>
<path id="ap" d="m9.8125 72.906h9.8594v-29.891h35.844v29.891h9.8594v-72.906h-9.8594v34.719h-35.844v-34.719h-9.8594z"/>
</defs>
<g transform="translate(311.96 71.113) rotate(90) scale(.08 -.08)">
<use xlink:href="#ap"/>
</g>
</g>
<path d="m278.92 328.11 0.93951-4.7314q0.46744-2.354-1.8866-2.8215l-7.5942-1.508q-2.354-0.46744-2.8215 1.8866l-0.93951 4.7314q-0.46744 2.354 1.8866 2.8215l7.5942 1.508q2.354 0.46744 2.8215-1.8866z" clip-path="url(#a)" fill="#fff" stroke="#fff"/>
<g clip-path="url(#a)">
<defs>
<path id="x" d="m19.672 64.797v-27.391h12.406q6.8906 0 10.641 3.5625 3.7656 3.5625 3.7656 10.156 0 6.5469-3.7656 10.109-3.75 3.5625-10.641 3.5625zm-9.8594 8.1094h22.266q12.266 0 18.531-5.5469 6.2812-5.5469 6.2812-16.234 0-10.797-6.2812-16.312-6.2656-5.5156-18.531-5.5156h-12.406v-29.297h-9.8594z"/>
</defs>
<g transform="translate(274.93 327.32) rotate(-78.769) scale(.08 -.08)">
<use xlink:href="#x"/>
</g>
</g>
<path d="m188.69 330.17 2.9084-4.6357q1.2755-2.033-0.75751-3.3085l-6.5586-4.1148q-2.033-1.2755-3.3085 0.75751l-2.9084 4.6357q-1.2755 2.033 0.75751 3.3085l6.5586 4.1148q2.033 1.2755 3.3085-0.75751z" clip-path="url(#a)" fill="#fff" stroke="#fff"/>
<g clip-path="url(#a)">
<defs>
<path id="t" d="m34.188 63.188-13.391-36.281h26.812zm-5.5781 9.7188h11.188l27.781-72.906h-10.25l-6.6406 18.703h-32.859l-6.6406-18.703h-10.406z"/>
</defs>
<g transform="translate(185.25 328.01) rotate(-57.896) scale(.08 -.08)">
<use xlink:href="#t"/>
</g>
</g>
<path d="m211.44 329.46 2.1234-4.082q1.1076-2.1292-1.0216-3.2367l-6.8687-3.573q-2.1292-1.1076-3.2367 1.0216l-2.1234 4.082q-1.1076 2.1292 1.0216 3.2367l6.8687 3.573q2.1292 1.1076 3.2367-1.0216z" clip-path="url(#a)" fill="#fff" stroke="#fff"/>
<g clip-path="url(#a)">
<defs>
<path id="s" d="m9.8125 72.906h41.891v-8.3125h-32.031v-21.484h28.906v-8.2969h-28.906v-34.812h-9.8594z"/>
</defs>
<g transform="translate(207.83 327.58) rotate(-62.517) scale(.08 -.08)">
<use xlink:href="#s"/>
</g>
</g>
<path d="m233.95 329.04 1.7564-4.2528q0.91611-2.2183-1.3022-3.1344l-7.1562-2.9554q-2.2183-0.91611-3.1344 1.3022l-1.7564 4.2528q-0.91611 2.2183 1.3022 3.1344l7.1562 2.9554q2.2183 0.91611 3.1344-1.3022z" clip-path="url(#a)" fill="#fff" stroke="#fff"/>
<g clip-path="url(#a)">
<g transform="translate(230.2 327.49) rotate(-67.56) scale(.08 -.08)">
<use xlink:href="#s"/>
</g>
</g>
<path d="m256.21 329.37 1.8415-6.0223q0.70179-2.2951-1.5933-2.9969l-7.4041-2.264q-2.2951-0.70179-2.9969 1.5933l-1.8415 6.0223q-0.70179 2.2951 1.5933 2.9969l7.4041 2.264q2.2951 0.70179 2.9969-1.5933z" clip-path="url(#a)" fill="#fff" stroke="#fff"/>
<g clip-path="url(#a)">
<defs>
<path id="an" d="m39.406 66.219q-10.75 0-17.078-8.0156-6.3125-8-6.3125-21.828 0-13.766 6.3125-21.781 6.3281-8 17.078-8 10.734 0 17.016 8 6.2812 8.0156 6.2812 21.781 0 13.828-6.2812 21.828-6.2812 8.0156-17.016 8.0156zm13.812-64.906 13-14.203h-11.922l-10.797 11.672q-1.6094-0.09375-2.4688-0.14062-0.84375-0.0625-1.625-0.0625-15.375 0-24.594 10.281-9.2031 10.281-9.2031 27.516 0 17.281 9.2031 27.562 9.2188 10.281 24.594 10.281 15.328 0 24.5-10.281 9.1875-10.281 9.1875-27.562 0-12.688-5.1094-21.734-5.0938-9.0312-14.766-13.328z"/>
</defs>
<g transform="translate(252.32 328.18) rotate(-72.998) scale(.08 -.08)">
<use xlink:href="#an"/>
</g>
</g>
<path d="m301.31 328.07 0.54455-5.9602q0.21837-2.39-2.1717-2.6084l-7.7104-0.70446q-2.39-0.21837-2.6084 2.1717l-0.54455 5.9602q-0.21837 2.39 2.1717 2.6084l7.7104 0.70446q2.39 0.21837 2.6084-2.1717z" clip-path="url(#a)" fill="#fff" stroke="#fff"/>
<g clip-path="url(#a)">
<defs>
<path id="o" d="m9.8125 72.906h13.281l32.328-60.984v60.984h9.5625v-72.906h-13.281l-32.312 60.984v-60.984h-9.5781z"/>
</defs>
<g transform="translate(297.26 327.7) rotate(-84.78) scale(.08 -.08)">
<use xlink:href="#o"/>
</g>
</g>
<path d="m374.25 165.36 4.0313 2.6489q2.0057 1.318 3.3237-0.68779l4.2518-6.4706q1.318-2.0057-0.68779-3.3237l-4.0313-2.6489q-2.0057-1.318-3.3237 0.68779l-4.2518 6.4706q-1.318 2.0057 0.68779 3.3237z" clip-path="url(#a)" fill="#fff" stroke="#fff"/>
<g clip-path="url(#a)">
<g transform="translate(376.48 161.96) rotate(33.309) scale(.08 -.08)">
<use xlink:href="#x"/>
</g>
</g>
<path d="m687.57 328.63 5.1433 2.7978q2.1083 1.1468 3.2551-0.96144l3.6997-6.8014q1.1468-2.1083-0.96144-3.2551l-5.1433-2.7978q-2.1083-1.1468-3.2551 0.96144l-3.6997 6.8014q-1.1468 2.1083 0.96144 3.2551z" clip-path="url(#a)" fill="#fff" stroke="#fff"/>
<g clip-path="url(#a)">
<defs>
<path id="q" d="m8.6875 72.906h9.9219v-44.297q0-11.719 4.2344-16.875 4.25-5.1406 13.781-5.1406 9.4688 0 13.719 5.1406 4.25 5.1562 4.25 16.875v44.297h9.9062v-45.516q0-14.25-7.0625-21.531-7.0469-7.2812-20.812-7.2812-13.828 0-20.891 7.2812-7.0469 7.2812-7.0469 21.531z"/>
</defs>
<g transform="translate(689.51 325.06) rotate(28.545) scale(.08 -.08)">
<use xlink:href="#q"/>
</g>
</g>
<path d="m226.03 552.76v35.285q0 2.4 2.4 2.4h7.7425q2.4 0 2.4-2.4v-35.285q0-2.4-2.4-2.4h-7.7425q-2.4 0-2.4 2.4z" clip-path="url(#a)" fill="#fff" stroke="#fff"/>
<g clip-path="url(#a)">
<defs>
<path id="h" d="m-0.29688 72.906h61.672v-8.3125h-25.875v-64.594h-9.9062v64.594h-25.891z"/>
<path id="f" d="m56.203 29.594v-4.3906h-41.312q0.59375-9.2812 5.5938-14.141t13.938-4.8594q5.1719 0 10.031 1.2656t9.6562 3.8125v-8.5q-4.8438-2.0469-9.9219-3.125t-10.297-1.0781q-13.094 0-20.734 7.6094-7.6406 7.625-7.6406 20.625 0 13.422 7.25 21.297 7.25 7.8906 19.562 7.8906 11.031 0 17.453-7.1094 6.4219-7.0938 6.4219-19.297zm-8.9844 2.6406q-0.09375 7.3594-4.125 11.75-4.0312 4.4062-10.672 4.4062-7.5156 0-12.031-4.25t-5.2031-11.969z"/>
<path id="l" d="m41.109 46.297q-1.5156 0.875-3.2969 1.2812-1.7812 0.42188-3.9219 0.42188-7.625 0-11.703-4.9531t-4.0781-14.234v-28.812h-9.0312v54.688h9.0312v-8.5q2.8438 4.9844 7.375 7.3906 4.5469 2.4219 11.047 2.4219 0.92188 0 2.0469-0.125 1.125-0.10938 2.4844-0.35938z"/>
<path id="i" d="m52 44.188q3.375 6.0625 8.0625 8.9375t11.031 2.875q8.5469 0 13.188-5.9844 4.6406-5.9688 4.6406-17v-33.016h-9.0312v32.719q0 7.8594-2.7969 11.656-2.7812 3.8125-8.4844 3.8125-6.9844 0-11.047-4.6406-4.0469-4.625-4.0469-12.641v-30.906h-9.0312v32.719q0 7.9062-2.7812 11.688t-8.5938 3.7812q-6.8906 0-10.953-4.6562-4.0469-4.6562-4.0469-12.625v-30.906h-9.0312v54.688h9.0312v-8.5q3.0781 5.0312 7.375 7.4219t10.203 2.3906q5.9688 0 10.141-3.0312 4.1719-3.0156 6.1719-8.7812z"/>
<path id="j" d="m9.4219 54.688h8.9844v-54.688h-8.9844zm0 21.297h8.9844v-11.391h-8.9844z"/>
<path id="g" d="m54.891 33.016v-33.016h-8.9844v32.719q0 7.7656-3.0312 11.609-3.0312 3.8594-9.0781 3.8594-7.2812 0-11.484-4.6406-4.2031-4.625-4.2031-12.641v-30.906h-9.0312v54.688h9.0312v-8.5q3.2344 4.9375 7.5938 7.375 4.375 2.4375 10.094 2.4375 9.4219 0 14.25-5.8281 4.8438-5.8281 4.8438-17.156z"/>
<path id="d" d="m34.281 27.484q-10.891 0-15.094-2.4844t-4.2031-8.5q0-4.7812 3.1562-7.5938 3.1562-2.7969 8.5625-2.7969 7.4844 0 12 5.2969t4.5156 14.078v2zm17.922 3.7188v-31.203h-8.9844v8.2969q-3.0781-4.9688-7.6719-7.3438t-11.234-2.375q-8.3906 0-13.359 4.7188-4.9531 4.7188-4.9531 12.625 0 9.2188 6.1719 13.906 6.1875 4.6875 18.438 4.6875h12.609v0.89062q0 6.2031-4.0781 9.5938t-11.453 3.3906q-4.6875 0-9.1406-1.125-4.4375-1.125-8.5312-3.375v8.3125q4.9219 1.9062 9.5625 2.8438 4.6406 0.95312 9.0312 0.95312 11.875 0 17.734-6.1562 5.8594-6.1406 5.8594-18.641z"/>
<path id="k" d="m9.4219 75.984h8.9844v-75.984h-8.9844z"/>
</defs>
<g transform="translate(230.09 552.76) rotate(90) scale(.08 -.08)">
<use xlink:href="#h"/>
<use x="60.818359" xlink:href="#f"/>
<use x="122.341797" xlink:href="#l"/>
<use x="163.439453" xlink:href="#i"/>
<use x="260.851562" xlink:href="#j"/>
<use x="288.634766" xlink:href="#g"/>
<use x="352.013672" xlink:href="#d"/>
<use x="413.292969" xlink:href="#k"/>
</g>
</g>
<path d="m49.228 552.76v35.285q0 2.4 2.4 2.4h7.7425q2.4 0 2.4-2.4v-35.285q0-2.4-2.4-2.4h-7.7425q-2.4 0-2.4 2.4z" clip-path="url(#a)" fill="#fff" stroke="#fff"/>
<g clip-path="url(#a)">
<g transform="translate(53.292 552.76) rotate(90) scale(.08 -.08)">
<use xlink:href="#h"/>
<use x="60.818359" xlink:href="#f"/>
<use x="122.341797" xlink:href="#l"/>
<use x="163.439453" xlink:href="#i"/>
<use x="260.851562" xlink:href="#j"/>
<use x="288.634766" xlink:href="#g"/>
<use x="352.013672" xlink:href="#d"/>
<use x="413.292969" xlink:href="#k"/>
</g>
</g>
<path d="m93.428 552.76v35.285q0 2.4 2.4 2.4h7.7425q2.4 0 2.4-2.4v-35.285q0-2.4-2.4-2.4h-7.7425q-2.4 0-2.4 2.4z" clip-path="url(#a)" fill="#fff" stroke="#fff"/>
<g clip-path="url(#a)">
<g transform="translate(97.492 552.76) rotate(90) scale(.08 -.08)">
<use xlink:href="#h"/>
<use x="60.818359" xlink:href="#f"/>
<use x="122.341797" xlink:href="#l"/>
<use x="163.439453" xlink:href="#i"/>
<use x="260.851562" xlink:href="#j"/>
<use x="288.634766" xlink:href="#g"/>
<use x="352.013672" xlink:href="#d"/>
<use x="413.292969" xlink:href="#k"/>
</g>
</g>
<path d="m137.63 552.76v35.285q0 2.4 2.4 2.4h7.7425q2.4 0 2.4-2.4v-35.285q0-2.4-2.4-2.4h-7.7425q-2.4 0-2.4 2.4z" clip-path="url(#a)" fill="#fff" stroke="#fff"/>
<g clip-path="url(#a)">
<g transform="translate(141.69 552.76) rotate(90) scale(.08 -.08)">
<use xlink:href="#h"/>
<use x="60.818359" xlink:href="#f"/>
<use x="122.341797" xlink:href="#l"/>
<use x="163.439453" xlink:href="#i"/>
<use x="260.851562" xlink:href="#j"/>
<use x="288.634766" xlink:href="#g"/>
<use x="352.013672" xlink:href="#d"/>
<use x="413.292969" xlink:href="#k"/>
</g>
</g>
<path d="m181.83 552.76v35.285q0 2.4 2.4 2.4h7.7425q2.4 0 2.4-2.4v-35.285q0-2.4-2.4-2.4h-7.7425q-2.4 0-2.4 2.4z" clip-path="url(#a)" fill="#fff" stroke="#fff"/>
<g clip-path="url(#a)">
<g transform="translate(185.89 552.76) rotate(90) scale(.08 -.08)">
<use xlink:href="#h"/>
<use x="60.818359" xlink:href="#f"/>
<use x="122.341797" xlink:href="#l"/>
<use x="163.439453" xlink:href="#i"/>
<use x="260.851562" xlink:href="#j"/>
<use x="288.634766" xlink:href="#g"/>
<use x="352.013672" xlink:href="#d"/>
<use x="413.292969" xlink:href="#k"/>
</g>
</g>
<path d="m270.23 552.76v35.285q0 2.4 2.4 2.4h7.7425q2.4 0 2.4-2.4v-35.285q0-2.4-2.4-2.4h-7.7425q-2.4 0-2.4 2.4z" clip-path="url(#a)" fill="#fff" stroke="#fff"/>
<g clip-path="url(#a)">
<g transform="translate(274.29 552.76) rotate(90) scale(.08 -.08)">
<use xlink:href="#h"/>
<use x="60.818359" xlink:href="#f"/>
<use x="122.341797" xlink:href="#l"/>
<use x="163.439453" xlink:href="#i"/>
<use x="260.851562" xlink:href="#j"/>
<use x="288.634766" xlink:href="#g"/>
<use x="352.013672" xlink:href="#d"/>
<use x="413.292969" xlink:href="#k"/>
</g>
</g>
<path d="m464.78 366.07 0.80335 5.0148q0.37963 2.3698 2.7494 1.9902l7.645-1.2247q2.3698-0.37963 1.9902-2.7494l-0.80335-5.0148q-0.37963-2.3698-2.7494-1.9902l-7.645 1.2247q-2.3698 0.37963-1.9902 2.7494z" clip-path="url(#a)" fill="#fff" stroke="#fff"/>
<g clip-path="url(#a)">
<defs>
<path id="w" d="m53.516 70.516v-9.625q-5.6094 2.6875-10.594 4-4.9844 1.3281-9.625 1.3281-8.0469 0-12.422-3.125t-4.375-8.8906q0-4.8438 2.9062-7.3125 2.9062-2.4531 11.016-3.9688l5.9531-1.2188q11.031-2.1094 16.281-7.4062t5.25-14.172q0-10.609-7.1094-16.078-7.0938-5.4688-20.812-5.4688-5.1719 0-11.016 1.1719-5.8281 1.1719-12.078 3.4688v10.156q6-3.3594 11.766-5.0781 5.7656-1.7031 11.328-1.7031 8.4375 0 13.031 3.3125 4.5938 3.3281 4.5938 9.4844 0 5.3594-3.2969 8.3906t-10.812 4.5469l-6.0156 1.1719q-11.031 2.1875-15.969 6.875-4.9219 4.6875-4.9219 13.047 0 9.6719 6.8125 15.234t18.766 5.5625q5.1406 0 10.453-0.9375 5.3281-0.92188 10.891-2.7656z"/>
</defs>
<g transform="translate(468.79 365.43) rotate(80.899) scale(.08 -.08)">
<use xlink:href="#w"/>
</g>
</g>
<path d="m387.86 372.38 1.9523-5.1124q0.85619-2.2421-1.3859-3.0983l-7.233-2.7621q-2.2421-0.85619-3.0983 1.3859l-1.9523 5.1124q-0.85619 2.2421 1.3859 3.0983l7.233 2.7621q2.2421 0.85619 3.0983-1.3859z" clip-path="url(#a)" fill="#fff" stroke="#fff"/>
<g clip-path="url(#a)">
<g transform="translate(384.06 370.93) rotate(-69.099) scale(.08 -.08)">
<use xlink:href="#t"/>
</g>
</g>
<path d="m410.43 372.08 1.4735-5.9812q0.57409-2.3303-1.7562-2.9044l-7.5177-1.852q-2.3303-0.57409-2.9044 1.7562l-1.4735 5.9812q-0.57409 2.3303 1.7562 2.9044l7.5177 1.852q2.3303 0.57409 2.9044-1.7562z" clip-path="url(#a)" fill="#fff" stroke="#fff"/>
<g clip-path="url(#a)">
<defs>
<path id="y" d="m19.672 64.797v-56.688h11.922q15.094 0 22.094 6.8281 7 6.8438 7 21.594 0 14.641-7 21.453t-22.094 6.8125zm-9.8594 8.1094h20.266q21.188 0 31.094-8.8125 9.9219-8.8125 9.9219-27.562 0-18.859-9.9688-27.703-9.9531-8.8281-31.047-8.8281h-20.266z"/>
</defs>
<g transform="translate(406.48 371.11) rotate(-76.16) scale(.08 -.08)">
<use xlink:href="#y"/>
</g>
</g>
<path d="m433.16 370.57 0.5069-4.5732q0.2644-2.3854-2.121-2.6498l-7.6954-0.85295q-2.3854-0.2644-2.6498 2.121l-0.5069 4.5732q-0.2644 2.3854 2.121 2.6498l7.6954 0.85295q2.3854 0.2644 2.6498-2.121z" clip-path="url(#a)" fill="#fff" stroke="#fff"/>
<g clip-path="url(#a)">
<g transform="translate(429.12 370.12) rotate(-83.675) scale(.08 -.08)">
<use xlink:href="#s"/>
</g>
</g>
<path d="m442.93 364.66 0.15197 6.1581q0.059208 2.3993 2.4585 2.3401l7.7401-0.19101q2.3993-0.059208 2.3401-2.4585l-0.15197-6.1581q-0.059209-2.3993-2.4585-2.3401l-7.7401 0.19101q-2.3993 0.059208-2.3401 2.4585z" clip-path="url(#a)" fill="#fff" stroke="#fff"/>
<g clip-path="url(#a)">
<g transform="translate(446.99 364.56) rotate(88.586) scale(.08 -.08)">
<use xlink:href="#y"/>
</g>
</g>
<path d="m530.51 251.04 4.9628 2.3062q2.1765 1.0114 3.1879-1.1651l3.2628-7.0214q1.0114-2.1765-1.1651-3.1879l-4.9628-2.3062q-2.1765-1.0114-3.1879 1.1651l-3.2628 7.0214q-1.0114 2.1765 1.1651 3.1879z" clip-path="url(#a)" fill="#fff" stroke="#fff"/>
<g clip-path="url(#a)">
<g transform="translate(532.22 247.36) rotate(24.924) scale(.08 -.08)">
<use xlink:href="#t"/>
</g>
</g>
<path d="m491.23 552.76v35.285q0 2.4 2.4 2.4h7.7425q2.4 0 2.4-2.4v-35.285q0-2.4-2.4-2.4h-7.7425q-2.4 0-2.4 2.4z" clip-path="url(#a)" fill="#fff" stroke="#fff"/>
<g clip-path="url(#a)">
<g transform="translate(495.29 552.76) rotate(90) scale(.08 -.08)">
<use xlink:href="#h"/>
<use x="60.818359" xlink:href="#f"/>
<use x="122.341797" xlink:href="#l"/>
<use x="163.439453" xlink:href="#i"/>
<use x="260.851562" xlink:href="#j"/>
<use x="288.634766" xlink:href="#g"/>
<use x="352.013672" xlink:href="#d"/>
<use x="413.292969" xlink:href="#k"/>
</g>
</g>
<path d="m1065.8 552.76v35.285q0 2.4 2.4 2.4h7.7425q2.4 0 2.4-2.4v-35.285q0-2.4-2.4-2.4h-7.7425q-2.4 0-2.4 2.4z" clip-path="url(#a)" fill="#fff" stroke="#fff"/>
<g clip-path="url(#a)">
<g transform="translate(1069.9 552.76) rotate(90) scale(.08 -.08)">
<use xlink:href="#h"/>
<use x="60.818359" xlink:href="#f"/>
<use x="122.341797" xlink:href="#l"/>
<use x="163.439453" xlink:href="#i"/>
<use x="260.851562" xlink:href="#j"/>
<use x="288.634766" xlink:href="#g"/>
<use x="352.013672" xlink:href="#d"/>
<use x="413.292969" xlink:href="#k"/>
</g>
</g>
<path d="m314.43 552.76v35.285q0 2.4 2.4 2.4h7.7425q2.4 0 2.4-2.4v-35.285q0-2.4-2.4-2.4h-7.7425q-2.4 0-2.4 2.4z" clip-path="url(#a)" fill="#fff" stroke="#fff"/>
<g clip-path="url(#a)">
<g transform="translate(318.49 552.76) rotate(90) scale(.08 -.08)">
<use xlink:href="#h"/>
<use x="60.818359" xlink:href="#f"/>
<use x="122.341797" xlink:href="#l"/>
<use x="163.439453" xlink:href="#i"/>
<use x="260.851562" xlink:href="#j"/>
<use x="288.634766" xlink:href="#g"/>
<use x="352.013672" xlink:href="#d"/>
<use x="413.292969" xlink:href="#k"/>
</g>
</g>
<path d="m358.63 552.76v35.285q0 2.4 2.4 2.4h7.7425q2.4 0 2.4-2.4v-35.285q0-2.4-2.4-2.4h-7.7425q-2.4 0-2.4 2.4z" clip-path="url(#a)" fill="#fff" stroke="#fff"/>
<g clip-path="url(#a)">
<g transform="translate(362.69 552.76) rotate(90) scale(.08 -.08)">
<use xlink:href="#h"/>
<use x="60.818359" xlink:href="#f"/>
<use x="122.341797" xlink:href="#l"/>
<use x="163.439453" xlink:href="#i"/>
<use x="260.851562" xlink:href="#j"/>
<use x="288.634766" xlink:href="#g"/>
<use x="352.013672" xlink:href="#d"/>
<use x="413.292969" xlink:href="#k"/>
</g>
</g>
<path d="m402.83 552.76v35.285q0 2.4 2.4 2.4h7.7425q2.4 0 2.4-2.4v-35.285q0-2.4-2.4-2.4h-7.7425q-2.4 0-2.4 2.4z" clip-path="url(#a)" fill="#fff" stroke="#fff"/>
<g clip-path="url(#a)">
<g transform="translate(406.89 552.76) rotate(90) scale(.08 -.08)">
<use xlink:href="#h"/>
<use x="60.818359" xlink:href="#f"/>
<use x="122.341797" xlink:href="#l"/>
<use x="163.439453" xlink:href="#i"/>
<use x="260.851562" xlink:href="#j"/>
<use x="288.634766" xlink:href="#g"/>
<use x="352.013672" xlink:href="#d"/>
<use x="413.292969" xlink:href="#k"/>
</g>
</g>
<path d="m447.03 552.76v35.285q0 2.4 2.4 2.4h7.7425q2.4 0 2.4-2.4v-35.285q0-2.4-2.4-2.4h-7.7425q-2.4 0-2.4 2.4z" clip-path="url(#a)" fill="#fff" stroke="#fff"/>
<g clip-path="url(#a)">
<g transform="translate(451.09 552.76) rotate(90) scale(.08 -.08)">
<use xlink:href="#h"/>
<use x="60.818359" xlink:href="#f"/>
<use x="122.341797" xlink:href="#l"/>
<use x="163.439453" xlink:href="#i"/>
<use x="260.851562" xlink:href="#j"/>
<use x="288.634766" xlink:href="#g"/>
<use x="352.013672" xlink:href="#d"/>
<use x="413.292969" xlink:href="#k"/>
</g>
</g>
<path d="m611.68 413.37 0.91277-5.5112q0.39215-2.3677-1.9756-2.7599l-7.6384-1.2651q-2.3677-0.39215-2.7599 1.9756l-0.91277 5.5112q-0.39215 2.3677 1.9756 2.7599l7.6384 1.2651q2.3677 0.39215 2.7599-1.9756z" clip-path="url(#a)" fill="#fff" stroke="#fff"/>
<g clip-path="url(#a)">
<defs>
<path id="aq" d="m64.406 67.281v-10.391q-4.9844 4.6406-10.625 6.9219-5.6406 2.2969-11.984 2.2969-12.5 0-19.141-7.6406t-6.6406-22.094q0-14.406 6.6406-22.047t19.141-7.6406q6.3438 0 11.984 2.2969t10.625 6.9375v-10.312q-5.1719-3.5156-10.969-5.2812-5.7812-1.75-12.219-1.75-16.562 0-26.094 10.125-9.5156 10.141-9.5156 27.672 0 17.578 9.5156 27.703 9.5312 10.141 26.094 10.141 6.5312 0 12.312-1.7344 5.7969-1.7344 10.875-5.2031z"/>
</defs>
<g transform="translate(607.68 412.7) rotate(-80.596) scale(.08 -.08)">
<use xlink:href="#aq"/>
</g>
</g>
<path d="m588.95 414.04 1.662-4.774q0.78909-2.2666-1.4775-3.0557l-7.312-2.5456q-2.2666-0.78909-3.0557 1.4775l-1.662 4.774q-0.78909 2.2666 1.4775 3.0557l7.312 2.5456q2.2666 0.78909 3.0557-1.4775z" clip-path="url(#a)" fill="#fff" stroke="#fff"/>
<g clip-path="url(#a)">
<defs>
<path id="al" d="m9.8125 72.906h46.094v-8.3125h-36.234v-21.578h34.719v-8.2969h-34.719v-26.422h37.109v-8.2969h-46.969z"/>
</defs>
<g transform="translate(585.11 412.7) rotate(-70.805) scale(.08 -.08)">
<use xlink:href="#al"/>
</g>
</g>
<path d="m682.65 333.41 4.2188 2.7847q2.003 1.3221 3.3251-0.68086l4.2653-6.4617q1.3221-2.003-0.68086-3.3251l-4.2188-2.7847q-2.003-1.3221-3.3251 0.68086l-4.2653 6.4617q-1.3221 2.003 0.68086 3.3251z" clip-path="url(#a)" fill="#fff" stroke="#fff"/>
<g clip-path="url(#a)">
<g transform="translate(684.89 330.02) rotate(33.428) scale(.08 -.08)">
<use xlink:href="#al"/>
</g>
</g>
<path d="m579.63 552.76v35.285q0 2.4 2.4 2.4h7.7425q2.4 0 2.4-2.4v-35.285q0-2.4-2.4-2.4h-7.7425q-2.4 0-2.4 2.4z" clip-path="url(#a)" fill="#fff" stroke="#fff"/>
<g clip-path="url(#a)">
<g transform="translate(583.69 552.76) rotate(90) scale(.08 -.08)">
<use xlink:href="#h"/>
<use x="60.818359" xlink:href="#f"/>
<use x="122.341797" xlink:href="#l"/>
<use x="163.439453" xlink:href="#i"/>
<use x="260.851562" xlink:href="#j"/>
<use x="288.634766" xlink:href="#g"/>
<use x="352.013672" xlink:href="#d"/>
<use x="413.292969" xlink:href="#k"/>
</g>
</g>
<path d="m535.43 552.76v35.285q0 2.4 2.4 2.4h7.7425q2.4 0 2.4-2.4v-35.285q0-2.4-2.4-2.4h-7.7425q-2.4 0-2.4 2.4z" clip-path="url(#a)" fill="#fff" stroke="#fff"/>
<g clip-path="url(#a)">
<g transform="translate(539.49 552.76) rotate(90) scale(.08 -.08)">
<use xlink:href="#h"/>
<use x="60.818359" xlink:href="#f"/>
<use x="122.341797" xlink:href="#l"/>
<use x="163.439453" xlink:href="#i"/>
<use x="260.851562" xlink:href="#j"/>
<use x="288.634766" xlink:href="#g"/>
<use x="352.013672" xlink:href="#d"/>
<use x="413.292969" xlink:href="#k"/>
</g>
</g>
<path d="m670.57 457.05 3.9227-3.8158q1.7203-1.6735 0.04688-3.3938l-5.3986-5.5499q-1.6735-1.7203-3.3938-0.04688l-3.9227 3.8158q-1.7203 1.6735-0.046879 3.3938l5.3986 5.5499q1.6735 1.7203 3.3938 0.04688z" clip-path="url(#a)" fill="#fff" stroke="#fff"/>
<g clip-path="url(#a)">
<g transform="translate(667.74 454.14) rotate(-44.209) scale(.08 -.08)">
<use xlink:href="#t"/>
</g>
</g>
<path d="m771.9 450.34 1.6901 4.7893q0.79869 2.2632 3.0619 1.4645l7.3012-2.5766q2.2632-0.79869 1.4645-3.0619l-1.6901-4.7893q-0.79869-2.2632-3.0619-1.4645l-7.3012 2.5766q-2.2632 0.79869-1.4645 3.0619z" clip-path="url(#a)" fill="#fff" stroke="#fff"/>
<g clip-path="url(#a)">
<g transform="translate(775.73 448.99) rotate(70.562) scale(.08 -.08)">
<use xlink:href="#w"/>
</g>
</g>
<path d="m716.74 456.04 2.5708-5.4048q1.0309-2.1673-1.1364-3.1982l-6.9919-3.3257q-2.1673-1.0309-3.1982 1.1364l-2.5708 5.4048q-1.0309 2.1673 1.1364 3.1982l6.9919 3.3257q2.1673 1.0309 3.1982-1.1364z" clip-path="url(#a)" fill="#fff" stroke="#fff"/>
<g clip-path="url(#a)">
<g transform="translate(713.07 454.3) rotate(-64.562) scale(.08 -.08)">
<use xlink:href="#o"/>
</g>
</g>
<path d="m740.16 454.13 0.90006-4.5124q0.46947-2.3536-1.8842-2.8231l-7.5929-1.5145q-2.3536-0.46947-2.8231 1.8842l-0.90006 4.5124q-0.46947 2.3536 1.8842 2.8231l7.5929 1.5145q2.3536 0.46947 2.8231-1.8842z" clip-path="url(#a)" fill="#fff" stroke="#fff"/>
<g clip-path="url(#a)">
<g transform="translate(736.18 453.34) rotate(-78.72) scale(.08 -.08)">
<use xlink:href="#s"/>
</g>
</g>
<path d="m750.07 448.06 0.4712 6.142q0.18358 2.393 2.5766 2.2094l7.7198-0.59224q2.393-0.18358 2.2094-2.5766l-0.4712-6.142q-0.18358-2.393-2.5766-2.2094l-7.7198 0.59224q-2.393 0.18358-2.2094 2.5766z" clip-path="url(#a)" fill="#fff" stroke="#fff"/>
<g clip-path="url(#a)">
<g transform="translate(754.12 447.75) rotate(85.613) scale(.08 -.08)">
<use xlink:href="#y"/>
</g>
</g>
<path d="m847.44 415.73 5.1695 2.0436q2.2319 0.88234 3.1143-1.3496l2.8465-7.2003q0.88234-2.2319-1.3496-3.1143l-5.1695-2.0436q-2.2319-0.88234-3.1143 1.3496l-2.8465 7.2003q-0.88234 2.2319 1.3496 3.1143z" clip-path="url(#a)" fill="#fff" stroke="#fff"/>
<g clip-path="url(#a)">
<defs>
<path id="am" d="m44.391 34.188q3.1719-1.0781 6.1719-4.5938t6.0312-9.6719l10.016-19.922h-10.609l-9.3125 18.703q-3.625 7.3281-7.0156 9.7188t-9.25 2.3906h-10.75v-30.812h-9.8594v72.906h22.266q12.5 0 18.656-5.2344 6.1562-5.2188 6.1562-15.766 0-6.8906-3.2031-11.438-3.2031-4.5312-9.2969-6.2812zm-24.719 30.609v-25.875h12.406q7.125 0 10.766 3.2969t3.6406 9.6875-3.6406 9.6406-10.766 3.25z"/>
</defs>
<g transform="translate(848.93 411.95) rotate(21.57) scale(.08 -.08)">
<use xlink:href="#am"/>
</g>
</g>
<path d="m800.63 552.76v35.285q0 2.4 2.4 2.4h7.7425q2.4 0 2.4-2.4v-35.285q0-2.4-2.4-2.4h-7.7425q-2.4 0-2.4 2.4z" clip-path="url(#a)" fill="#fff" stroke="#fff"/>
<g clip-path="url(#a)">
<g transform="translate(804.69 552.76) rotate(90) scale(.08 -.08)">
<use xlink:href="#h"/>
<use x="60.818359" xlink:href="#f"/>
<use x="122.341797" xlink:href="#l"/>
<use x="163.439453" xlink:href="#i"/>
<use x="260.851562" xlink:href="#j"/>
<use x="288.634766" xlink:href="#g"/>
<use x="352.013672" xlink:href="#d"/>
<use x="413.292969" xlink:href="#k"/>
</g>
</g>
<path d="m668.03 552.76v35.285q0 2.4 2.4 2.4h7.7425q2.4 0 2.4-2.4v-35.285q0-2.4-2.4-2.4h-7.7425q-2.4 0-2.4 2.4z" clip-path="url(#a)" fill="#fff" stroke="#fff"/>
<g clip-path="url(#a)">
<g transform="translate(672.09 552.76) rotate(90) scale(.08 -.08)">
<use xlink:href="#h"/>
<use x="60.818359" xlink:href="#f"/>
<use x="122.341797" xlink:href="#l"/>
<use x="163.439453" xlink:href="#i"/>
<use x="260.851562" xlink:href="#j"/>
<use x="288.634766" xlink:href="#g"/>
<use x="352.013672" xlink:href="#d"/>
<use x="413.292969" xlink:href="#k"/>
</g>
</g>
<path d="m712.23 552.76v35.285q0 2.4 2.4 2.4h7.7425q2.4 0 2.4-2.4v-35.285q0-2.4-2.4-2.4h-7.7425q-2.4 0-2.4 2.4z" clip-path="url(#a)" fill="#fff" stroke="#fff"/>
<g clip-path="url(#a)">
<g transform="translate(716.29 552.76) rotate(90) scale(.08 -.08)">
<use xlink:href="#h"/>
<use x="60.818359" xlink:href="#f"/>
<use x="122.341797" xlink:href="#l"/>
<use x="163.439453" xlink:href="#i"/>
<use x="260.851562" xlink:href="#j"/>
<use x="288.634766" xlink:href="#g"/>
<use x="352.013672" xlink:href="#d"/>
<use x="413.292969" xlink:href="#k"/>
</g>
</g>
<path d="m756.43 552.76v35.285q0 2.4 2.4 2.4h7.7425q2.4 0 2.4-2.4v-35.285q0-2.4-2.4-2.4h-7.7425q-2.4 0-2.4 2.4z" clip-path="url(#a)" fill="#fff" stroke="#fff"/>
<g clip-path="url(#a)">
<g transform="translate(760.49 552.76) rotate(90) scale(.08 -.08)">
<use xlink:href="#h"/>
<use x="60.818359" xlink:href="#f"/>
<use x="122.341797" xlink:href="#l"/>
<use x="163.439453" xlink:href="#i"/>
<use x="260.851562" xlink:href="#j"/>
<use x="288.634766" xlink:href="#g"/>
<use x="352.013672" xlink:href="#d"/>
<use x="413.292969" xlink:href="#k"/>
</g>
</g>
<path d="m952.59 494.45 0.87935-4.7429q0.43751-2.3598-1.9223-2.7973l-7.6128-1.4114q-2.3598-0.43751-2.7973 1.9223l-0.87935 4.7429q-0.43751 2.3598 1.9223 2.7973l7.6128 1.4114q2.3598 0.43751 2.7973-1.9223z" clip-path="url(#a)" fill="#fff" stroke="#fff"/>
<g clip-path="url(#a)">
<g transform="translate(948.6 493.71) rotate(-79.496) scale(.08 -.08)">
<use xlink:href="#x"/>
</g>
</g>
<path d="m790.82 497.72 5.6866-1.3942q2.331-0.57148 1.7595-2.9024l-1.8436-7.5198q-0.57148-2.331-2.9024-1.7595l-5.6866 1.3942q-2.331 0.57148-1.7595 2.9024l1.8436 7.5198q0.57148 2.331 2.9024 1.7595z" clip-path="url(#a)" fill="#fff" stroke="#fff"/>
<g clip-path="url(#a)">
<g transform="translate(789.85 493.78) rotate(-13.775) scale(.08 -.08)">
<use xlink:href="#q"/>
</g>
</g>
<path d="m904.18 497.69 4.6379-3.5736q1.9011-1.4648 0.43626-3.366l-4.7257-6.1331q-1.4648-1.9011-3.366-0.43626l-4.6379 3.5736q-1.9011 1.4649-0.43626 3.366l4.7257 6.1331q1.4648 1.9011 3.366 0.43626z" clip-path="url(#a)" fill="#fff" stroke="#fff"/>
<g clip-path="url(#a)">
<g transform="translate(901.7 494.47) rotate(-37.615) scale(.08 -.08)">
<use xlink:href="#q"/>
</g>
</g>
<path d="m1051.2 533.81 4.7409 3.653q1.9011 1.4648 3.366-0.43626l4.7257-6.1331q1.4648-1.9011-0.43626-3.366l-4.7409-3.653q-1.9011-1.4649-3.366 0.43626l-4.7257 6.1331q-1.4648 1.9011 0.43626 3.366z" clip-path="url(#a)" fill="#fff" stroke="#fff"/>
<g clip-path="url(#a)">
<g transform="translate(1053.6 530.59) rotate(37.615) scale(.08 -.08)">
<use xlink:href="#o"/>
</g>
</g>
<path d="m1028.7 533.05 4.2731 4.1905q1.7135 1.6804 3.394-0.033128l5.4211-5.5279q1.6804-1.7135-0.033128-3.394l-4.2731-4.1905q-1.7135-1.6804-3.394 0.033128l-5.4211 5.5279q-1.6804 1.7135 0.033128 3.394z" clip-path="url(#a)" fill="#fff" stroke="#fff"/>
<g clip-path="url(#a)">
<g transform="translate(1031.6 530.15) rotate(44.441) scale(.08 -.08)">
<use xlink:href="#o"/>
</g>
</g>
<path d="m984.48 493.05 3.9804 4.2938q1.6316 1.7601 3.3917 0.12846l5.6781-5.2636q1.7601-1.6316 0.12846-3.3917l-3.9804-4.2938q-1.6316-1.7601-3.3917-0.12846l-5.6781 5.2636q-1.7601 1.6316-0.12846 3.3917z" clip-path="url(#a)" fill="#fff" stroke="#fff"/>
<g clip-path="url(#a)">
<g transform="translate(987.46 490.29) rotate(47.169) scale(.08 -.08)">
<use xlink:href="#q"/>
</g>
</g>
<path d="m914.31 588.87 17.151-30.836q1.1666-2.0974-0.93081-3.264l-6.7663-3.7635q-2.0974-1.1666-3.264 0.93081l-17.151 30.836q-1.1666 2.0974 0.93081 3.264l6.7663 3.7635q2.0974 1.1666 3.264-0.93081z" clip-path="url(#a)" fill="#fff" stroke="#fff"/>
<g clip-path="url(#a)">
<g transform="translate(910.75 586.89) rotate(-60.917) scale(.08 -.08)">
<use xlink:href="#h"/>
<use x="60.818359" xlink:href="#f"/>
<use x="122.341797" xlink:href="#l"/>
<use x="163.439453" xlink:href="#i"/>
<use x="260.851562" xlink:href="#j"/>
<use x="288.634766" xlink:href="#g"/>
<use x="352.013672" xlink:href="#d"/>
<use x="413.292969" xlink:href="#k"/>
</g>
</g>
<path d="m933.23 552.76v35.285q0 2.4 2.4 2.4h7.7425q2.4 0 2.4-2.4v-35.285q0-2.4-2.4-2.4h-7.7425q-2.4 0-2.4 2.4z" clip-path="url(#a)" fill="#fff" stroke="#fff"/>
<g clip-path="url(#a)">
<g transform="translate(937.29 552.76) rotate(90) scale(.08 -.08)">
<use xlink:href="#h"/>
<use x="60.818359" xlink:href="#f"/>
<use x="122.341797" xlink:href="#l"/>
<use x="163.439453" xlink:href="#i"/>
<use x="260.851562" xlink:href="#j"/>
<use x="288.634766" xlink:href="#g"/>
<use x="352.013672" xlink:href="#d"/>
<use x="413.292969" xlink:href="#k"/>
</g>
</g>
<path d="m947.54 558.03 17.151 30.836q1.1666 2.0974 3.264 0.93081l6.7663-3.7635q2.0974-1.1666 0.93081-3.264l-17.151-30.836q-1.1666-2.0974-3.264-0.93081l-6.7663 3.7635q-2.0974 1.1666-0.93081 3.264z" clip-path="url(#a)" fill="#fff" stroke="#fff"/>
<g clip-path="url(#a)">
<g transform="translate(951.1 556.06) rotate(60.917) scale(.08 -.08)">
<use xlink:href="#h"/>
<use x="60.818359" xlink:href="#f"/>
<use x="122.341797" xlink:href="#l"/>
<use x="163.439453" xlink:href="#i"/>
<use x="260.851562" xlink:href="#j"/>
<use x="288.634766" xlink:href="#g"/>
<use x="352.013672" xlink:href="#d"/>
<use x="413.292969" xlink:href="#k"/>
</g>
</g>
<path d="m623.83 552.76v35.285q0 2.4 2.4 2.4h7.7425q2.4 0 2.4-2.4v-35.285q0-2.4-2.4-2.4h-7.7425q-2.4 0-2.4 2.4z" clip-path="url(#a)" fill="#fff" stroke="#fff"/>
<g clip-path="url(#a)">
<g transform="translate(627.89 552.76) rotate(90) scale(.08 -.08)">
<use xlink:href="#h"/>
<use x="60.818359" xlink:href="#f"/>
<use x="122.341797" xlink:href="#l"/>
<use x="163.439453" xlink:href="#i"/>
<use x="260.851562" xlink:href="#j"/>
<use x="288.634766" xlink:href="#g"/>
<use x="352.013672" xlink:href="#d"/>
<use x="413.292969" xlink:href="#k"/>
</g>
</g>
<path d="m844.83 552.76v35.285q0 2.4 2.4 2.4h7.7425q2.4 0 2.4-2.4v-35.285q0-2.4-2.4-2.4h-7.7425q-2.4 0-2.4 2.4z" clip-path="url(#a)" fill="#fff" stroke="#fff"/>
<g clip-path="url(#a)">
<g transform="translate(848.89 552.76) rotate(90) scale(.08 -.08)">
<use xlink:href="#h"/>
<use x="60.818359" xlink:href="#f"/>
<use x="122.341797" xlink:href="#l"/>
<use x="163.439453" xlink:href="#i"/>
<use x="260.851562" xlink:href="#j"/>
<use x="288.634766" xlink:href="#g"/>
<use x="352.013672" xlink:href="#d"/>
<use x="413.292969" xlink:href="#k"/>
</g>
</g>
<path d="m1021.6 552.76v35.285q0 2.4 2.4 2.4h7.7425q2.4 0 2.4-2.4v-35.285q0-2.4-2.4-2.4h-7.7425q-2.4 0-2.4 2.4z" clip-path="url(#a)" fill="#fff" stroke="#fff"/>
<g clip-path="url(#a)">
<g transform="translate(1025.7 552.76) rotate(90) scale(.08 -.08)">
<use xlink:href="#h"/>
<use x="60.818359" xlink:href="#f"/>
<use x="122.341797" xlink:href="#l"/>
<use x="163.439453" xlink:href="#i"/>
<use x="260.851562" xlink:href="#j"/>
<use x="288.634766" xlink:href="#g"/>
<use x="352.013672" xlink:href="#d"/>
<use x="413.292969" xlink:href="#k"/>
</g>
</g>
<defs>
<path id="b" d="m0 8.6603c2.2967 0 4.4997-0.9125 6.1237-2.5365 1.624-1.624 2.5365-3.827 2.5365-6.1237s-0.9125-4.4997-2.5365-6.1237c-1.624-1.624-3.827-2.5365-6.1237-2.5365s-4.4997 0.9125-6.1237 2.5365c-1.624 1.624-2.5365 3.827-2.5365 6.1237s0.9125 4.4997 2.5365 6.1237c1.624 1.624 3.827 2.5365 6.1237 2.5365z"/>
</defs>
<g clip-path="url(#a)">
<use x="55.499375" y="610.134863" fill="#ffffff" stroke="#ffffff" xlink:href="#b"/>
</g>
<g clip-path="url(#a)">
<use x="99.699425" y="610.134863" fill="#ffffff" stroke="#ffffff" xlink:href="#b"/>
</g>
<g clip-path="url(#a)">
<use x="143.899475" y="610.134863" fill="#ffffff" stroke="#ffffff" xlink:href="#b"/>
</g>
<g clip-path="url(#a)">
<use x="188.099525" y="610.134863" fill="#ffffff" stroke="#ffffff" xlink:href="#b"/>
</g>
<g clip-path="url(#a)">
<use x="232.299575" y="610.134863" fill="#ffffff" stroke="#ffffff" xlink:href="#b"/>
</g>
<g clip-path="url(#a)">
<use x="276.499625" y="610.134863" fill="#ffffff" stroke="#ffffff" xlink:href="#b"/>
</g>
<g clip-path="url(#a)">
<use x="320.699675" y="610.134863" fill="#ffffff" stroke="#ffffff" xlink:href="#b"/>
</g>
<g clip-path="url(#a)">
<use x="364.899725" y="610.134863" fill="#ffffff" stroke="#ffffff" xlink:href="#b"/>
</g>
<g clip-path="url(#a)">
<use x="409.099775" y="610.134863" fill="#ffffff" stroke="#ffffff" xlink:href="#b"/>
</g>
<g clip-path="url(#a)">
<use x="453.299825" y="610.134863" fill="#ffffff" stroke="#ffffff" xlink:href="#b"/>
</g>
<g clip-path="url(#a)">
<use x="497.499875" y="610.134863" fill="#ffffff" stroke="#ffffff" xlink:href="#b"/>
</g>
<g clip-path="url(#a)">
<use x="541.699925" y="610.134863" fill="#ffffff" stroke="#ffffff" xlink:href="#b"/>
</g>
<g clip-path="url(#a)">
<use x="585.899975" y="610.134863" fill="#ffffff" stroke="#ffffff" xlink:href="#b"/>
</g>
<g clip-path="url(#a)">
<use x="630.100025" y="610.134863" fill="#ffffff" stroke="#ffffff" xlink:href="#b"/>
</g>
<g clip-path="url(#a)">
<use x="674.300075" y="610.134863" fill="#ffffff" stroke="#ffffff" xlink:href="#b"/>
</g>
<g clip-path="url(#a)">
<use x="718.500125" y="610.134863" fill="#ffffff" stroke="#ffffff" xlink:href="#b"/>
</g>
<g clip-path="url(#a)">
<use x="762.700175" y="610.134863" fill="#ffffff" stroke="#ffffff" xlink:href="#b"/>
</g>
<g clip-path="url(#a)">
<use x="806.900225" y="610.134863" fill="#ffffff" stroke="#ffffff" xlink:href="#b"/>
</g>
<g clip-path="url(#a)">
<use x="851.100275" y="610.134863" fill="#ffffff" stroke="#ffffff" xlink:href="#b"/>
</g>
<g clip-path="url(#a)">
<use x="895.300325" y="610.134863" fill="#ffffff" stroke="#ffffff" xlink:href="#b"/>
</g>
<g clip-path="url(#a)">
<use x="939.500375" y="610.134863" fill="#ffffff" stroke="#ffffff" xlink:href="#b"/>
</g>
<g clip-path="url(#a)">
<use x="983.700425" y="610.134863" fill="#ffffff" stroke="#ffffff" xlink:href="#b"/>
</g>
<g clip-path="url(#a)">
<use x="1027.900475" y="610.134863" fill="#ffffff" stroke="#ffffff" xlink:href="#b"/>
</g>
<g clip-path="url(#a)">
<use x="1072.100525" y="610.134863" fill="#ffffff" stroke="#ffffff" xlink:href="#b"/>
</g>
<g clip-path="url(#a)">
<use x="314.168572" y="29.865137" fill="#ffffff" stroke="#ffffff" xlink:href="#b"/>
</g>
<g clip-path="url(#a)">
<use x="314.168572" y="118.377142" fill="#ffffff" stroke="#ffffff" xlink:href="#b"/>
</g>
<g clip-path="url(#a)">
<use x="232.299575" y="530.668044" fill="#ffffff" stroke="#ffffff" xlink:href="#b"/>
</g>
<g clip-path="url(#a)">
<use x="55.499375" y="530.668044" fill="#ffffff" stroke="#ffffff" xlink:href="#b"/>
</g>
<g clip-path="url(#a)">
<use x="99.699425" y="530.668044" fill="#ffffff" stroke="#ffffff" xlink:href="#b"/>
</g>
<g clip-path="url(#a)">
<use x="143.899475" y="530.668044" fill="#ffffff" stroke="#ffffff" xlink:href="#b"/>
</g>
<g clip-path="url(#a)">
<use x="188.099525" y="530.668044" fill="#ffffff" stroke="#ffffff" xlink:href="#b"/>
</g>
<g clip-path="url(#a)">
<use x="276.499625" y="530.668044" fill="#ffffff" stroke="#ffffff" xlink:href="#b"/>
</g>
<g clip-path="url(#a)">
<use x="445.251051" y="204.510188" fill="#ffffff" stroke="#ffffff" xlink:href="#b"/>
</g>
<g clip-path="url(#a)">
<use x="497.499875" y="530.668044" fill="#ffffff" stroke="#ffffff" xlink:href="#b"/>
</g>
<g clip-path="url(#a)">
<use x="1072.100525" y="530.668044" fill="#ffffff" stroke="#ffffff" xlink:href="#b"/>
</g>
<g clip-path="url(#a)">
<use x="320.699675" y="530.668044" fill="#ffffff" stroke="#ffffff" xlink:href="#b"/>
</g>
<g clip-path="url(#a)">
<use x="364.899725" y="530.668044" fill="#ffffff" stroke="#ffffff" xlink:href="#b"/>
</g>
<g clip-path="url(#a)">
<use x="409.099775" y="530.668044" fill="#ffffff" stroke="#ffffff" xlink:href="#b"/>
</g>
<g clip-path="url(#a)">
<use x="453.299825" y="530.668044" fill="#ffffff" stroke="#ffffff" xlink:href="#b"/>
</g>
<g clip-path="url(#a)">
<use x="626.007428" y="288.505166" fill="#ffffff" stroke="#ffffff" xlink:href="#b"/>
</g>
<g clip-path="url(#a)">
<use x="585.899975" y="530.668044" fill="#ffffff" stroke="#ffffff" xlink:href="#b"/>
</g>
<g clip-path="url(#a)">
<use x="541.699925" y="530.668044" fill="#ffffff" stroke="#ffffff" xlink:href="#b"/>
</g>
<g clip-path="url(#a)">
<use x="750.422383" y="370.628936" fill="#ffffff" stroke="#ffffff" xlink:href="#b"/>
</g>
<g clip-path="url(#a)">
<use x="806.900225" y="530.668044" fill="#ffffff" stroke="#ffffff" xlink:href="#b"/>
</g>
<g clip-path="url(#a)">
<use x="674.300075" y="530.668044" fill="#ffffff" stroke="#ffffff" xlink:href="#b"/>
</g>
<g clip-path="url(#a)">
<use x="718.500125" y="530.668044" fill="#ffffff" stroke="#ffffff" xlink:href="#b"/>
</g>
<g clip-path="url(#a)">
<use x="762.700175" y="530.668044" fill="#ffffff" stroke="#ffffff" xlink:href="#b"/>
</g>
<g clip-path="url(#a)">
<use x="954.233725" y="451.201225" fill="#ffffff" stroke="#ffffff" xlink:href="#b"/>
</g>
<g clip-path="url(#a)">
<use x="939.500375" y="530.668044" fill="#ffffff" stroke="#ffffff" xlink:href="#b"/>
</g>
<g clip-path="url(#a)">
<use x="630.100025" y="530.668044" fill="#ffffff" stroke="#ffffff" xlink:href="#b"/>
</g>
<g clip-path="url(#a)">
<use x="851.100275" y="530.668044" fill="#ffffff" stroke="#ffffff" xlink:href="#b"/>
</g>
<g clip-path="url(#a)">
<use x="1160.500625" y="610.134863" fill="#ffffff" stroke="#ffffff" xlink:href="#b"/>
</g>
<g clip-path="url(#a)">
<use x="1116.300575" y="610.134863" fill="#ffffff" stroke="#ffffff" xlink:href="#b"/>
</g>
<g clip-path="url(#a)">
<use x="1027.900475" y="530.668044" fill="#ffffff" stroke="#ffffff" xlink:href="#b"/>
</g>
<g clip-path="url(#a)">
<defs>
<path id="r" d="m9.8125 72.906h9.8594v-72.906h-9.8594z"/>
<path id="u" d="m18.312 70.219v-15.531h18.5v-6.9844h-18.5v-29.688q0-6.6875 1.8281-8.5938t7.4531-1.9062h9.2188v-7.5156h-9.2188q-10.406 0-14.359 3.875-3.9531 3.8906-3.9531 14.141v29.688h-6.5938v6.9844h6.5938v15.531z"/>
</defs>
<g transform="translate(52.064 612.89) scale(.1 -.1)">
<use xlink:href="#r"/>
<use x="29.492188" xlink:href="#u"/>
</g>
</g>
<g clip-path="url(#a)">
<defs>
<path id="n" d="m54.891 33.016v-33.016h-8.9844v32.719q0 7.7656-3.0312 11.609-3.0312 3.8594-9.0781 3.8594-7.2812 0-11.484-4.6406-4.2031-4.625-4.2031-12.641v-30.906h-9.0312v75.984h9.0312v-29.797q3.2344 4.9375 7.5938 7.375 4.375 2.4375 10.094 2.4375 9.4219 0 14.25-5.8281 4.8438-5.8281 4.8438-17.156z"/>
<path id="ah" d="m44.281 53.078v-8.5q-3.7969 1.9531-7.9062 2.9219-4.0938 0.98438-8.5 0.98438-6.6875 0-10.031-2.0469t-3.3438-6.1562q0-3.125 2.3906-4.9062t9.625-3.3906l3.0781-0.6875q9.5625-2.0469 13.594-5.7812t4.0312-10.422q0-7.625-6.0312-12.078-6.0312-4.4375-16.578-4.4375-4.3906 0-9.1562 0.85938t-10.031 2.5625v9.2812q4.9844-2.5938 9.8125-3.8906 4.8281-1.2812 9.5781-1.2812 6.3438 0 9.75 2.1719 3.4219 2.1719 3.4219 6.125 0 3.6562-2.4688 5.6094-2.4531 1.9531-10.812 3.7656l-3.125 0.73438q-8.3438 1.75-12.062 5.3906-3.7031 3.6406-3.7031 9.9844 0 7.7188 5.4688 11.906 5.4688 4.2031 15.531 4.2031 4.9688 0 9.3594-0.73438 4.4062-0.71875 8.1094-2.1875z"/>
</defs>
<g transform="translate(90.862 612.89) scale(.1 -.1)">
<use xlink:href="#n"/>
<use x="63.378906" xlink:href="#d"/>
<use x="124.658203" xlink:href="#ah"/>
</g>
</g>
<g clip-path="url(#a)">
<defs>
<path id="aj" d="m48.688 27.297q0 9.9062-4.0781 15.547t-11.203 5.6406q-7.1406 0-11.219-5.6406t-4.0781-15.547 4.0781-15.547 11.219-5.6406q7.125 0 11.203 5.6406t4.0781 15.547zm-30.578 19.094q2.8438 4.875 7.1562 7.2344 4.3281 2.375 10.328 2.375 9.9688 0 16.188-7.9062 6.2344-7.9062 6.2344-20.797t-6.2344-20.812q-6.2188-7.9062-16.188-7.9062-6 0-10.328 2.375-4.3125 2.375-7.1562 7.25v-8.2031h-9.0312v75.984h9.0312z"/>
</defs>
<g transform="translate(131.4 612.89) scale(.1 -.1)">
<use xlink:href="#aj"/>
<use x="63.476562" xlink:href="#f"/>
<use x="125" xlink:href="#f"/>
<use x="186.523438" xlink:href="#g"/>
</g>
</g>
<g clip-path="url(#a)">
<defs>
<path id="p" d="m40.578 39.312q7.0781-1.5156 11.047-6.3125 3.9844-4.7812 3.9844-11.812 0-10.781-7.4219-16.703-7.4219-5.9062-21.094-5.9062-4.5781 0-9.4375 0.90625t-10.031 2.7188v9.5156q4.0938-2.3906 8.9688-3.6094 4.8906-1.2188 10.219-1.2188 9.2656 0 14.125 3.6562t4.8594 10.641q0 6.4531-4.5156 10.078-4.5156 3.6406-12.562 3.6406h-8.5v8.1094h8.8906q7.2656 0 11.125 2.9062t3.8594 8.375q0 5.6094-3.9844 8.6094-3.9688 3.0156-11.391 3.0156-4.0625 0-8.7031-0.89062-4.6406-0.875-10.203-2.7188v8.7812q5.625 1.5625 10.531 2.3438t9.25 0.78125q11.234 0 17.766-5.1094 6.5469-5.0938 6.5469-13.781 0-6.0625-3.4688-10.234t-9.8594-5.7812z"/>
</defs>
<g transform="translate(184.92 612.89) scale(.1 -.1)">
<use xlink:href="#p"/>
</g>
</g>
<g clip-path="url(#a)">
<defs>
<path id="ag" d="m4.2031 54.688h8.9844l11.234-42.672 11.172 42.672h10.594l11.234-42.672 11.188 42.672h8.9844l-14.312-54.688h-10.594l-11.766 44.828-11.812-44.828h-10.609z"/>
<path id="az" d="m9.0781 75.984h9.0312v-44.875l26.812 23.578h11.469l-29-25.578 30.234-29.109h-11.719l-27.797 26.703v-26.703h-9.0312z"/>
</defs>
<g transform="translate(216.56 612.89) scale(.1 -.1)">
<use xlink:href="#ag"/>
<use x="81.787109" xlink:href="#f"/>
<use x="143.310547" xlink:href="#f"/>
<use x="204.833984" xlink:href="#az"/>
<use x="262.744141" xlink:href="#ah"/>
</g>
</g>
<g clip-path="url(#a)">
<defs>
<path id="v" d="m45.406 46.391v29.594h8.9844v-75.984h-8.9844v8.2031q-2.8281-4.875-7.1562-7.25-4.3125-2.375-10.375-2.375-9.9062 0-16.141 7.9062-6.2188 7.9219-6.2188 20.812t6.2188 20.797q6.2344 7.9062 16.141 7.9062 6.0625 0 10.375-2.375 4.3281-2.3594 7.1562-7.2344zm-30.609-19.094q0-9.9062 4.0781-15.547t11.203-5.6406 11.219 5.6406q4.1094 5.6406 4.1094 15.547t-4.1094 15.547q-4.0938 5.6406-11.219 5.6406t-11.203-5.6406-4.0781-15.547z"/>
</defs>
<g transform="translate(267.09 612.89) scale(.1 -.1)">
<use xlink:href="#d"/>
<use x="61.279297" xlink:href="#g"/>
<use x="124.658203" xlink:href="#v"/>
</g>
</g>
<g clip-path="url(#a)">
<g transform="translate(319.22 612.89) scale(.1 -.1)">
<use xlink:href="#r"/>
</g>
</g>
<g clip-path="url(#a)">
<defs>
<path id="ak" d="m9.8125 72.906h9.8594v-64.609h35.5v-8.2969h-45.359z"/>
</defs>
<g transform="translate(351.62 612.89) scale(.1 -.1)">
<use xlink:href="#w"/>
<use x="63.476562" xlink:href="#h"/>
<use x="124.560547" xlink:href="#r"/>
<use x="154.052734" xlink:href="#ak"/>
<use x="209.765625" xlink:href="#ak"/>
</g>
</g>
<g clip-path="url(#a)">
<defs>
<path id="ay" d="m30.609 48.391q-7.2188 0-11.422-5.6406t-4.2031-15.453 4.1719-15.453q4.1875-5.6406 11.453-5.6406 7.1875 0 11.375 5.6562 4.2031 5.6719 4.2031 15.438 0 9.7188-4.2031 15.406-4.1875 5.6875-11.375 5.6875zm0 7.6094q11.719 0 18.406-7.625 6.7031-7.6094 6.7031-21.078 0-13.422-6.7031-21.078-6.6875-7.6406-18.406-7.6406-11.766 0-18.438 7.6406-6.6562 7.6562-6.6562 21.078 0 13.469 6.6562 21.078 6.6719 7.625 18.438 7.625z"/>
</defs>
<g transform="translate(402.87 612.89) scale(.1 -.1)">
<use xlink:href="#v"/>
<use x="63.476562" xlink:href="#ay"/>
</g>
</g>
<g clip-path="url(#a)">
<defs>
<path id="au" d="m17.922 72.906v-27.109h-8.2969v27.109z"/>
</defs>
<g transform="translate(446.8 612.89) scale(.1 -.1)">
<use xlink:href="#g"/>
<use x="63.378906" xlink:href="#au"/>
<use x="90.869141" xlink:href="#u"/>
</g>
</g>
<g clip-path="url(#a)">
<defs>
<path id="aw" d="m2.9844 54.688h9.5156l17.094-45.891 17.094 45.891h9.5156l-20.516-54.688h-12.203z"/>
</defs>
<g transform="translate(485.23 612.89) scale(.1 -.1)">
<use xlink:href="#n"/>
<use x="63.378906" xlink:href="#d"/>
<use x="124.658203" xlink:href="#aw"/>
<use x="183.837891" xlink:href="#f"/>
</g>
</g>
<g clip-path="url(#a)">
<defs>
<path id="av" d="m32.172-5.0781q-3.7969-9.7656-7.4219-12.734-3.6094-2.9844-9.6562-2.9844h-7.1875v7.5156h5.2812q3.7031 0 5.75 1.7656 2.0625 1.75 4.5469 8.2969l1.6094 4.0938-22.109 53.812h9.5156l17.094-42.766 17.094 42.766h9.5156z"/>
</defs>
<g transform="translate(533.87 612.89) scale(.1 -.1)">
<use xlink:href="#i"/>
<use x="97.412109" xlink:href="#av"/>
</g>
</g>
<g clip-path="url(#a)">
<g transform="translate(573.24 612.89) scale(.1 -.1)">
<use xlink:href="#u"/>
<use x="39.208984" xlink:href="#d"/>
<use x="100.488281" xlink:href="#aj"/>
<use x="163.964844" xlink:href="#k"/>
<use x="191.748047" xlink:href="#f"/>
</g>
</g>
<g clip-path="url(#a)">
<defs>
<path id="at" d="m31 75.875q-6.5312-11.219-9.7188-22.219-3.1719-10.984-3.1719-22.266 0-11.266 3.2031-22.328t9.6875-22.25h-7.8125q-7.3125 11.484-10.953 22.562t-3.6406 22.016q0 10.891 3.6094 21.922 3.625 11.047 10.984 22.562z"/>
</defs>
<g transform="translate(628.15 612.89) scale(.1 -.1)">
<use xlink:href="#at"/>
</g>
</g>
<g clip-path="url(#a)">
<defs>
<path id="ai" d="m48.781 52.594v-8.4062q-3.8125 2.1094-7.6406 3.1562t-7.7344 1.0469q-8.75 0-13.594-5.5469-4.8281-5.5312-4.8281-15.547t4.8281-15.562q4.8438-5.5312 13.594-5.5312 3.9062 0 7.7344 1.0469t7.6406 3.1562v-8.3125q-3.7656-1.75-7.7969-2.625-4.0156-0.89062-8.5625-0.89062-12.359 0-19.641 7.7656-7.2656 7.7656-7.2656 20.953 0 13.375 7.3438 21.031 7.3594 7.6719 20.156 7.6719 4.1406 0 8.0938-0.85938 3.9531-0.84375 7.6719-2.5469z"/>
</defs>
<g transform="translate(659.74 612.89) scale(.1 -.1)">
<use xlink:href="#ag"/>
<use x="81.787109" xlink:href="#n"/>
<use x="145.166016" xlink:href="#j"/>
<use x="172.949219" xlink:href="#ai"/>
<use x="227.929688" xlink:href="#n"/>
</g>
</g>
<g clip-path="url(#a)">
<g transform="translate(708.74 612.89) scale(.1 -.1)">
<use xlink:href="#ag"/>
<use x="81.787109" xlink:href="#d"/>
<use x="143.066406" xlink:href="#ah"/>
</g>
</g>
<g clip-path="url(#a)">
<defs>
<path id="ao" d="m39.406 66.219q-10.75 0-17.078-8.0156-6.3125-8-6.3125-21.828 0-13.766 6.3125-21.781 6.3281-8 17.078-8 10.734 0 17.016 8 6.2812 8.0156 6.2812 21.781 0 13.828-6.2812 21.828-6.2812 8.0156-17.016 8.0156zm0 8q15.328 0 24.5-10.281 9.1875-10.281 9.1875-27.562 0-17.234-9.1875-27.516-9.1719-10.281-24.5-10.281-15.375 0-24.594 10.25-9.2031 10.266-9.2031 27.547t9.2031 27.562q9.2188 10.281 24.594 10.281z"/>
</defs>
<g transform="translate(751.97 612.89) scale(.1 -.1)">
<use xlink:href="#o"/>
<use x="74.804688" xlink:href="#ao"/>
<use x="153.515625" xlink:href="#h"/>
</g>
</g>
<g clip-path="url(#a)">
<defs>
<path id="ax" d="m18.109 8.2031v-29h-9.0312v75.484h9.0312v-8.2969q2.8438 4.875 7.1562 7.2344 4.3281 2.375 10.328 2.375 9.9688 0 16.188-7.9062 6.2344-7.9062 6.2344-20.797t-6.2344-20.812q-6.2188-7.9062-16.188-7.9062-6 0-10.328 2.375-4.3125 2.375-7.1562 7.25zm30.578 19.094q0 9.9062-4.0781 15.547t-11.203 5.6406q-7.1406 0-11.219-5.6406t-4.0781-15.547 4.0781-15.547 11.219-5.6406q7.125 0 11.203 5.6406t4.0781 15.547z"/>
</defs>
<g transform="translate(791.67 612.89) scale(.1 -.1)">
<use xlink:href="#ai"/>
<use x="54.980469" xlink:href="#n"/>
<use x="118.359375" xlink:href="#f"/>
<use x="179.882812" xlink:href="#d"/>
<use x="241.162109" xlink:href="#ax"/>
</g>
</g>
<g clip-path="url(#a)">
<defs>
<path id="ar" d="m11.719 12.406h10.297v-8.4062l-8-15.625h-6.2969l4 15.625z"/>
</defs>
<g transform="translate(849.51 612.89) scale(.1 -.1)">
<use xlink:href="#ar"/>
</g>
</g>
<g clip-path="url(#a)">
<g transform="translate(893.83 612.89) scale(.1 -.1)">
<use xlink:href="#r"/>
</g>
</g>
<g clip-path="url(#a)">
<defs>
<path id="ba" d="m45.406 27.984q0 9.7656-4.0312 15.125-4.0156 5.375-11.297 5.375-7.2188 0-11.25-5.375-4.0312-5.3594-4.0312-15.125 0-9.7188 4.0312-15.094t11.25-5.375q7.2812 0 11.297 5.375 4.0312 5.375 4.0312 15.094zm8.9844-21.203q0-13.953-6.2031-20.766-6.1875-6.8125-18.984-6.8125-4.7344 0-8.9375 0.70312t-8.1562 2.1719v8.7344q3.9531-2.1406 7.8125-3.1562 3.8594-1.0312 7.8594-1.0312 8.8438 0 13.234 4.6094t4.3906 13.938v4.4531q-2.7812-4.8438-7.125-7.2344t-10.406-2.3906q-10.047 0-16.203 7.6562-6.1562 7.6719-6.1562 20.328 0 12.688 6.1562 20.344 6.1562 7.6719 16.203 7.6719 6.0625 0 10.406-2.3906t7.125-7.2188v8.2969h8.9844z"/>
</defs>
<g transform="translate(924.94 612.89) scale(.1 -.1)">
<use xlink:href="#i"/>
<use x="97.412109" xlink:href="#j"/>
<use x="125.195312" xlink:href="#ba"/>
<use x="188.671875" xlink:href="#n"/>
<use x="252.050781" xlink:href="#u"/>
</g>
</g>
<g clip-path="url(#a)">
<g transform="translate(974.29 612.89) scale(.1 -.1)">
<use xlink:href="#d"/>
<use x="61.279297" xlink:href="#v"/>
<use x="124.755859" xlink:href="#v"/>
</g>
</g>
<g clip-path="url(#a)">
<defs>
<path id="as" d="m8.0156 75.875h7.8125q7.3125-11.516 10.953-22.562 3.6406-11.031 3.6406-21.922 0-10.938-3.6406-22.016t-10.953-22.562h-7.8125q6.4844 11.188 9.6875 22.25t3.2031 22.328q0 11.281-3.2031 22.266-3.2031 11-9.6875 22.219z"/>
</defs>
<g transform="translate(1025.9 612.89) scale(.1 -.1)">
<use xlink:href="#as"/>
</g>
</g>
<g clip-path="url(#a)">
<defs>
<path id="e" d="m10.688 12.406h10.312v-12.406h-10.312z"/>
</defs>
<g transform="translate(1070.5 612.89) scale(.1 -.1)">
<use xlink:href="#e"/>
</g>
</g>
<g clip-path="url(#a)">
<defs>
<path id="c" d="m12.406 8.2969h16.109v55.625l-17.531-3.5156v8.9844l17.438 3.5156h9.8594v-64.609h16.109v-8.2969h-41.984z"/>
</defs>
<g transform="translate(306.22 32.625) scale(.1 -.1)">
<use xlink:href="#c"/>
<use x="63.623047" xlink:href="#e"/>
<use x="95.410156" xlink:href="#c"/>
</g>
</g>
<g clip-path="url(#a)">
<defs>
<path id="m" d="m19.188 8.2969h34.422v-8.2969h-46.281v8.2969q5.6094 5.8125 15.297 15.594 9.7031 9.7969 12.188 12.641 4.7344 5.3125 6.6094 9 1.8906 3.6875 1.8906 7.25 0 5.8125-4.0781 9.4688-4.0781 3.6719-10.625 3.6719-4.6406 0-9.7969-1.6094-5.1406-1.6094-11-4.8906v9.9688q5.9531 2.3906 11.125 3.6094 5.1875 1.2188 9.4844 1.2188 11.328 0 18.062-5.6719 6.7344-5.6562 6.7344-15.125 0-4.5-1.6875-8.5312-1.6719-4.0156-6.125-9.4844-1.2188-1.4219-7.7656-8.1875-6.5312-6.7656-18.453-18.922z"/>
</defs>
<g transform="translate(306.22 121.14) scale(.1 -.1)">
<use xlink:href="#c"/>
<use x="63.623047" xlink:href="#e"/>
<use x="95.410156" xlink:href="#m"/>
</g>
</g>
<g clip-path="url(#a)">
<g transform="translate(224.35 533.43) scale(.1 -.1)">
<use xlink:href="#c"/>
<use x="63.623047" xlink:href="#e"/>
<use x="95.410156" xlink:href="#p"/>
</g>
</g>
<g clip-path="url(#a)">
<defs>
<path id="ae" d="m37.797 64.312-24.906-38.922h24.906zm-2.5938 8.5938h12.406v-47.516h10.406v-8.2031h-10.406v-17.188h-9.8125v17.188h-32.906v9.5156z"/>
</defs>
<g transform="translate(47.548 533.43) scale(.1 -.1)">
<use xlink:href="#c"/>
<use x="63.623047" xlink:href="#e"/>
<use x="95.410156" xlink:href="#ae"/>
</g>
</g>
<g clip-path="url(#a)">
<defs>
<path id="ad" d="m10.797 72.906h38.719v-8.3125h-29.688v-17.859q2.1406 0.73438 4.2812 1.0938 2.1562 0.35938 4.3125 0.35938 12.203 0 19.328-6.6875 7.1406-6.6875 7.1406-18.109 0-11.766-7.3281-18.297-7.3281-6.5156-20.656-6.5156-4.5938 0-9.3594 0.78125-4.75 0.78125-9.8281 2.3438v9.9219q4.3906-2.3906 9.0781-3.5625t9.9062-1.1719q8.4531 0 13.375 4.4375 4.9375 4.4375 4.9375 12.062 0 7.6094-4.9375 12.047-4.9219 4.4531-13.375 4.4531-3.9531 0-7.8906-0.875-3.9219-0.875-8.0156-2.7344z"/>
</defs>
<g transform="translate(91.748 533.43) scale(.1 -.1)">
<use xlink:href="#c"/>
<use x="63.623047" xlink:href="#e"/>
<use x="95.410156" xlink:href="#ad"/>
</g>
</g>
<g clip-path="url(#a)">
<defs>
<path id="ac" d="m33.016 40.375q-6.6406 0-10.531-4.5469-3.875-4.5312-3.875-12.438 0-7.8594 3.875-12.438 3.8906-4.5625 10.531-4.5625t10.516 4.5625q3.875 4.5781 3.875 12.438 0 7.9062-3.875 12.438-3.875 4.5469-10.516 4.5469zm19.578 30.922v-8.9844q-3.7188 1.75-7.5 2.6719-3.7812 0.9375-7.5 0.9375-9.7656 0-14.922-6.5938-5.1406-6.5938-5.875-19.922 2.875 4.25 7.2188 6.5156 4.3594 2.2656 9.5781 2.2656 10.984 0 17.359-6.6719 6.375-6.6562 6.375-18.125 0-11.234-6.6406-18.031-6.6406-6.7812-17.672-6.7812-12.656 0-19.344 9.6875-6.6875 9.7031-6.6875 28.109 0 17.281 8.2031 27.562t22.016 10.281q3.7188 0 7.5-0.73438t7.8906-2.1875z"/>
</defs>
<g transform="translate(135.95 533.43) scale(.1 -.1)">
<use xlink:href="#c"/>
<use x="63.623047" xlink:href="#e"/>
<use x="95.410156" xlink:href="#ac"/>
</g>
</g>
<g clip-path="url(#a)">
<defs>
<path id="ab" d="m8.2031 72.906h46.875v-4.2031l-26.469-68.703h-10.297l24.906 64.594h-35.016z"/>
</defs>
<g transform="translate(180.15 533.43) scale(.1 -.1)">
<use xlink:href="#c"/>
<use x="63.623047" xlink:href="#e"/>
<use x="95.410156" xlink:href="#ab"/>
</g>
</g>
<g clip-path="url(#a)">
<defs>
<path id="aa" d="m31.781 34.625q-7.0312 0-11.062-3.7656-4.0156-3.7656-4.0156-10.344 0-6.5938 4.0156-10.359 4.0312-3.7656 11.062-3.7656t11.078 3.7812q4.0625 3.7969 4.0625 10.344 0 6.5781-4.0312 10.344-4.0156 3.7656-11.109 3.7656zm-9.8594 4.1875q-6.3438 1.5625-9.8906 5.9062-3.5312 4.3594-3.5312 10.609 0 8.7344 6.2188 13.812 6.2344 5.0781 17.062 5.0781 10.891 0 17.094-5.0781t6.2031-13.812q0-6.25-3.5469-10.609-3.5312-4.3438-9.8281-5.9062 7.125-1.6562 11.094-6.5 3.9844-4.8281 3.9844-11.797 0-10.609-6.4688-16.281-6.4688-5.6562-18.531-5.6562-12.047 0-18.531 5.6562-6.4688 5.6719-6.4688 16.281 0 6.9688 4 11.797 4.0156 4.8438 11.141 6.5zm-3.6094 15.578q0-5.6562 3.5312-8.8281 3.5469-3.1719 9.9375-3.1719 6.3594 0 9.9375 3.1719 3.5938 3.1719 3.5938 8.8281 0 5.6719-3.5938 8.8438-3.5781 3.1719-9.9375 3.1719-6.3906 0-9.9375-3.1719-3.5312-3.1719-3.5312-8.8438z"/>
</defs>
<g transform="translate(268.55 533.43) scale(.1 -.1)">
<use xlink:href="#c"/>
<use x="63.623047" xlink:href="#e"/>
<use x="95.410156" xlink:href="#aa"/>
</g>
</g>
<g clip-path="url(#a)">
<defs>
<path id="z" d="m10.984 1.5156v8.9844q3.7188-1.7656 7.5156-2.6875 3.8125-0.92188 7.4844-0.92188 9.7656 0 14.906 6.5625 5.1562 6.5625 5.8906 19.953-2.8281-4.2031-7.1875-6.4531-4.3438-2.25-9.6094-2.25-10.938 0-17.312 6.6094-6.375 6.625-6.375 18.109 0 11.219 6.6406 18 6.6406 6.7969 17.672 6.7969 12.656 0 19.312-9.7031 6.6719-9.6875 6.6719-28.141 0-17.234-8.1875-27.516-8.1719-10.281-21.984-10.281-3.7188 0-7.5312 0.73438-3.7969 0.73438-7.9062 2.2031zm19.625 30.906q6.6406 0 10.516 4.5312 3.8906 4.5469 3.8906 12.469 0 7.8594-3.8906 12.422-3.875 4.5625-10.516 4.5625t-10.516-4.5625-3.875-12.422q0-7.9219 3.875-12.469 3.875-4.5312 10.516-4.5312z"/>
</defs>
<g transform="translate(437.3 207.27) scale(.1 -.1)">
<use xlink:href="#c"/>
<use x="63.623047" xlink:href="#e"/>
<use x="95.410156" xlink:href="#z"/>
</g>
</g>
<g clip-path="url(#a)">
<defs>
<path id="af" d="m31.781 66.406q-7.6094 0-11.453-7.5-3.8281-7.4844-3.8281-22.531 0-14.984 3.8281-22.484 3.8438-7.5 11.453-7.5 7.6719 0 11.5 7.5 3.8438 7.5 3.8438 22.484 0 15.047-3.8438 22.531-3.8281 7.5-11.5 7.5zm0 7.8125q12.266 0 18.734-9.7031 6.4688-9.6875 6.4688-28.141 0-18.406-6.4688-28.109-6.4688-9.6875-18.734-9.6875-12.25 0-18.719 9.6875-6.4688 9.7031-6.4688 28.109 0 18.453 6.4688 28.141 6.4688 9.7031 18.719 9.7031z"/>
</defs>
<g transform="translate(486.37 533.43) scale(.1 -.1)">
<use xlink:href="#c"/>
<use x="63.623047" xlink:href="#e"/>
<use x="95.410156" xlink:href="#c"/>
<use x="159.033203" xlink:href="#af"/>
</g>
</g>
<g clip-path="url(#a)">
<g transform="translate(1061 533.43) scale(.1 -.1)">
<use xlink:href="#c"/>
<use x="63.623047" xlink:href="#e"/>
<use x="95.410156" xlink:href="#c"/>
<use x="159.033203" xlink:href="#c"/>
</g>
</g>
<g clip-path="url(#a)">
<g transform="translate(309.57 533.43) scale(.1 -.1)">
<use xlink:href="#c"/>
<use x="63.623047" xlink:href="#e"/>
<use x="95.410156" xlink:href="#c"/>
<use x="159.033203" xlink:href="#m"/>
</g>
</g>
<g clip-path="url(#a)">
<g transform="translate(353.77 533.43) scale(.1 -.1)">
<use xlink:href="#c"/>
<use x="63.623047" xlink:href="#e"/>
<use x="95.410156" xlink:href="#c"/>
<use x="159.033203" xlink:href="#p"/>
</g>
</g>
<g clip-path="url(#a)">
<g transform="translate(397.97 533.43) scale(.1 -.1)">
<use xlink:href="#c"/>
<use x="63.623047" xlink:href="#e"/>
<use x="95.410156" xlink:href="#c"/>
<use x="159.033203" xlink:href="#ae"/>
</g>
</g>
<g clip-path="url(#a)">
<g transform="translate(442.17 533.43) scale(.1 -.1)">
<use xlink:href="#c"/>
<use x="63.623047" xlink:href="#e"/>
<use x="95.410156" xlink:href="#c"/>
<use x="159.033203" xlink:href="#ad"/>
</g>
</g>
<g clip-path="url(#a)">
<g transform="translate(614.87 291.26) scale(.1 -.1)">
<use xlink:href="#c"/>
<use x="63.623047" xlink:href="#e"/>
<use x="95.410156" xlink:href="#c"/>
<use x="159.033203" xlink:href="#ac"/>
</g>
</g>
<g clip-path="url(#a)">
<g transform="translate(574.77 533.43) scale(.1 -.1)">
<use xlink:href="#c"/>
<use x="63.623047" xlink:href="#e"/>
<use x="95.410156" xlink:href="#c"/>
<use x="159.033203" xlink:href="#ab"/>
</g>
</g>
<g clip-path="url(#a)">
<g transform="translate(530.57 533.43) scale(.1 -.1)">
<use xlink:href="#c"/>
<use x="63.623047" xlink:href="#e"/>
<use x="95.410156" xlink:href="#c"/>
<use x="159.033203" xlink:href="#aa"/>
</g>
</g>
<g clip-path="url(#a)">
<g transform="translate(739.29 373.39) scale(.1 -.1)">
<use xlink:href="#c"/>
<use x="63.623047" xlink:href="#e"/>
<use x="95.410156" xlink:href="#c"/>
<use x="159.033203" xlink:href="#z"/>
</g>
</g>
<g clip-path="url(#a)">
<g transform="translate(795.77 533.43) scale(.1 -.1)">
<use xlink:href="#c"/>
<use x="63.623047" xlink:href="#e"/>
<use x="95.410156" xlink:href="#m"/>
<use x="159.033203" xlink:href="#af"/>
</g>
</g>
<g clip-path="url(#a)">
<g transform="translate(663.17 533.43) scale(.1 -.1)">
<use xlink:href="#c"/>
<use x="63.623047" xlink:href="#e"/>
<use x="95.410156" xlink:href="#m"/>
<use x="159.033203" xlink:href="#c"/>
</g>
</g>
<g clip-path="url(#a)">
<g transform="translate(707.37 533.43) scale(.1 -.1)">
<use xlink:href="#c"/>
<use x="63.623047" xlink:href="#e"/>
<use x="95.410156" xlink:href="#m"/>
<use x="159.033203" xlink:href="#m"/>
</g>
</g>
<g clip-path="url(#a)">
<g transform="translate(751.57 533.43) scale(.1 -.1)">
<use xlink:href="#c"/>
<use x="63.623047" xlink:href="#e"/>
<use x="95.410156" xlink:href="#m"/>
<use x="159.033203" xlink:href="#p"/>
</g>
</g>
<g clip-path="url(#a)">
<g transform="translate(943.1 453.96) scale(.1 -.1)">
<use xlink:href="#c"/>
<use x="63.623047" xlink:href="#e"/>
<use x="95.410156" xlink:href="#m"/>
<use x="159.033203" xlink:href="#ae"/>
</g>
</g>
<g clip-path="url(#a)">
<g transform="translate(928.37 533.43) scale(.1 -.1)">
<use xlink:href="#c"/>
<use x="63.623047" xlink:href="#e"/>
<use x="95.410156" xlink:href="#m"/>
<use x="159.033203" xlink:href="#ad"/>
</g>
</g>
<g clip-path="url(#a)">
<g transform="translate(618.97 533.43) scale(.1 -.1)">
<use xlink:href="#c"/>
<use x="63.623047" xlink:href="#e"/>
<use x="95.410156" xlink:href="#m"/>
<use x="159.033203" xlink:href="#ac"/>
</g>
</g>
<g clip-path="url(#a)">
<g transform="translate(839.97 533.43) scale(.1 -.1)">
<use xlink:href="#c"/>
<use x="63.623047" xlink:href="#e"/>
<use x="95.410156" xlink:href="#m"/>
<use x="159.033203" xlink:href="#ab"/>
</g>
</g>
<g clip-path="url(#a)">
<g transform="translate(1149.4 612.89) scale(.1 -.1)">
<use xlink:href="#c"/>
<use x="63.623047" xlink:href="#e"/>
<use x="95.410156" xlink:href="#m"/>
<use x="159.033203" xlink:href="#aa"/>
</g>
</g>
<g clip-path="url(#a)">
<g transform="translate(1105.2 612.89) scale(.1 -.1)">
<use xlink:href="#c"/>
<use x="63.623047" xlink:href="#e"/>
<use x="95.410156" xlink:href="#m"/>
<use x="159.033203" xlink:href="#z"/>
</g>
</g>
<g clip-path="url(#a)">
<g transform="translate(1016.8 533.43) scale(.1 -.1)">
<use xlink:href="#c"/>
<use x="63.623047" xlink:href="#e"/>
<use x="95.410156" xlink:href="#p"/>
<use x="159.033203" xlink:href="#af"/>
</g>
</g>
<defs>
<clipPath id="a">
<rect width="1216" height="640"/>
</clipPath>
</defs>
</svg>
