<?xml version="1.0" encoding="UTF-8"?>
<!DOCTYPE svg  PUBLIC '-//W3C//DTD SVG 1.1//EN'  'http://www.w3.org/Graphics/SVG/1.1/DTD/svg11.dtd'>
<svg width="1773.3pt" height="933.33pt" version="1.1" viewBox="0 0 1773.3 933.33" xmlns="http://www.w3.org/2000/svg" xmlns:xlink="http://www.w3.org/1999/xlink">
<defs>
<style type="text/css">*{stroke-linecap:butt;stroke-linejoin:round;}</style>
</defs>
<path d="m0 933.33h1773.3v-933.33h-1773.3z" fill="#fff"/>
<g fill="none" stroke="#000">
<path d="m695.99 43.338-162.89 292.91" clip-path="url(#a)"/>
<path d="m695.99 43.338-378.19 709.84" clip-path="url(#a)"/>
<path d="m695.99 43.338-377.69 148.29" clip-path="url(#a)"/>
<path d="m695.99 43.338 89.941 292.91" clip-path="url(#a)"/>
<path d="m695.99 43.338 332.89 709.84" clip-path="url(#a)"/>
<path d="m695.99 43.338 495.94 148.29" clip-path="url(#a)"/>
<path d="m533.1 336.25-404.92 416.93" clip-path="url(#a)"/>
<path d="m533.1 336.25-452.33 416.93" clip-path="url(#a)"/>
<path d="m533.1 336.25-302.21 141.39" clip-path="url(#a)"/>
<path d="m533.1 336.25 1159.5 416.93" clip-path="url(#a)"/>
<path d="m128.18 753.18v136.82" clip-path="url(#a)"/>
<path d="m80.773 753.18v136.82" clip-path="url(#a)"/>
<path d="m230.89 477.64 39.505 275.54" clip-path="url(#a)"/>
<path d="m230.89 477.64-55.306 275.54" clip-path="url(#a)"/>
<path d="m230.89 477.64 15.802 138.72" clip-path="url(#a)"/>
<path d="m270.39 753.18v136.82" clip-path="url(#a)"/>
<path d="m317.8 753.18v136.82" clip-path="url(#a)"/>
<path d="m318.29 191.63-237.52 561.54" clip-path="url(#a)" stroke-dasharray="3.7,1.6"/>
<path d="m318.29 191.63 94.317 561.54" clip-path="url(#a)"/>
<path d="m318.29 191.63 46.912 561.54" clip-path="url(#a)"/>
<path d="m318.29 191.63 96.292 144.61" clip-path="url(#a)"/>
<path d="m412.61 753.18v136.82" clip-path="url(#a)"/>
<path d="m785.93 336.25 5.9257 416.93" clip-path="url(#a)"/>
<path d="m785.93 336.25-88.885 416.93" clip-path="url(#a)"/>
<path d="m785.93 336.25-41.48 416.93" clip-path="url(#a)"/>
<path d="m785.93 336.25 124.44 141.39" clip-path="url(#a)"/>
<path d="m791.86 753.18v136.82" clip-path="url(#a)"/>
<path d="m1692.6 753.18v136.82" clip-path="url(#a)"/>
<path d="m175.58 753.18v136.82" clip-path="url(#a)"/>
<path d="m246.69 616.36 23.703 136.82" clip-path="url(#a)" stroke-dasharray="3.7,1.6"/>
<path d="m246.69 616.36-23.703 136.82" clip-path="url(#a)"/>
<path d="m222.99 753.18v136.82" clip-path="url(#a)"/>
<path d="m365.21 753.18v136.82" clip-path="url(#a)"/>
<path d="m414.59 336.25-333.81 416.93" clip-path="url(#a)" stroke-dasharray="3.7,1.6"/>
<path d="m414.59 336.25 92.836 416.93" clip-path="url(#a)"/>
<path d="m414.59 336.25 45.43 416.93" clip-path="url(#a)"/>
<path d="m414.59 336.25 195.55 141.39" clip-path="url(#a)"/>
<path d="m507.42 753.18v136.82" clip-path="url(#a)"/>
<path d="m697.04 753.18v136.82" clip-path="url(#a)"/>
<path d="m744.45 753.18v136.82" clip-path="url(#a)"/>
<path d="m910.37 477.64 71.108 275.54" clip-path="url(#a)"/>
<path d="m910.37 477.64-71.108 275.54" clip-path="url(#a)"/>
<path d="m910.37 477.64v138.72" clip-path="url(#a)"/>
<path d="m981.48 753.18v136.82" clip-path="url(#a)"/>
<path d="m1028.9 753.18v136.82" clip-path="url(#a)"/>
<path d="m1191.9 191.63-20.825 561.54" clip-path="url(#a)"/>
<path d="m1191.9 191.63-115.64 561.54" clip-path="url(#a)"/>
<path d="m1191.9 191.63-68.23 561.54" clip-path="url(#a)"/>
<path d="m1191.9 191.63 26.581 561.54" clip-path="url(#a)"/>
<path d="m1191.9 191.63 178.11 144.61" clip-path="url(#a)"/>
<path d="m1171.1 753.18v136.82" clip-path="url(#a)"/>
<path d="m460.02 753.18v136.82" clip-path="url(#a)"/>
<path d="m610.13 477.64 39.505 275.54" clip-path="url(#a)"/>
<path d="m610.13 477.64-55.306 275.54" clip-path="url(#a)"/>
<path d="m610.13 477.64 15.802 138.72" clip-path="url(#a)"/>
<path d="m649.64 753.18v136.82" clip-path="url(#a)"/>
<path d="m839.26 753.18v136.82" clip-path="url(#a)"/>
<path d="m910.37 616.36 23.703 136.82" clip-path="url(#a)"/>
<path d="m910.37 616.36-23.703 136.82" clip-path="url(#a)"/>
<path d="m934.07 753.18v136.82" clip-path="url(#a)"/>
<path d="m1076.3 753.18v136.82" clip-path="url(#a)"/>
<path d="m1123.7 753.18v136.82" clip-path="url(#a)"/>
<path d="m1218.5 753.18v136.82" clip-path="url(#a)"/>
<path d="m1370 336.25-151.53 416.93" clip-path="url(#a)" stroke-dasharray="3.7,1.6"/>
<path d="m1370 336.25-56.717 416.93" clip-path="url(#a)"/>
<path d="m1370 336.25-104.12 416.93" clip-path="url(#a)"/>
<path d="m1370 336.25-9.3118 416.93" clip-path="url(#a)"/>
<path d="m1370 336.25 61.796 280.11" clip-path="url(#a)"/>
<path d="m1370 336.25 132.9 416.93" clip-path="url(#a)"/>
<path d="m1370 336.25 126.98 141.39" clip-path="url(#a)"/>
<path d="m1313.3 753.18v136.82" clip-path="url(#a)"/>
<path d="m554.83 753.18v136.82" clip-path="url(#a)"/>
<path d="m625.94 616.36 23.703 136.82" clip-path="url(#a)" stroke-dasharray="3.7,1.6"/>
<path d="m625.94 616.36-23.703 136.82" clip-path="url(#a)"/>
<path d="m602.23 753.18v136.82" clip-path="url(#a)"/>
<path d="m886.67 753.18v136.82" clip-path="url(#a)"/>
<path d="m1265.9 753.18v136.82" clip-path="url(#a)"/>
<path d="m1360.7 753.18v136.82" clip-path="url(#a)"/>
<path d="m1431.8 616.36 23.703 136.82" clip-path="url(#a)"/>
<path d="m1431.8 616.36-23.703 136.82" clip-path="url(#a)"/>
<path d="m1455.5 753.18v136.82" clip-path="url(#a)"/>
<path d="m1502.9 753.18v136.82" clip-path="url(#a)"/>
<path d="m1497 477.64-278.51 275.54" clip-path="url(#a)" stroke-dasharray="3.7,1.6"/>
<path d="m1497 477.64 53.331 275.54" clip-path="url(#a)"/>
<path d="m1497 477.64 100.74 275.54" clip-path="url(#a)"/>
<path d="m1497 477.64 124.44 138.72" clip-path="url(#a)"/>
<path d="m1550.3 753.18v136.82" clip-path="url(#a)"/>
<path d="m1408.1 753.18v136.82" clip-path="url(#a)"/>
<path d="m1597.7 753.18v136.82" clip-path="url(#a)"/>
<path d="m1621.5 616.36-23.703 136.82" clip-path="url(#a)" stroke-dasharray="3.7,1.6"/>
<path d="m1621.5 616.36 23.703 136.82" clip-path="url(#a)"/>
<path d="m1645.2 753.18v136.82" clip-path="url(#a)"/>
</g>
<path d="m618.56 195.47 2.924-5.2579q1.1664-2.0975-0.93106-3.2639l-6.7666-3.7629q-2.0975-1.1664-3.2639 0.93106l-2.924 5.2579q-1.1664 2.0975 0.93106 3.2639l6.7666 3.7629q2.0975 1.1664 3.2639-0.93106z" clip-path="url(#a)" fill="#fff" stroke="#fff"/>
<g clip-path="url(#a)">
<defs>
<path id="ai" d="m9.8125 72.906h9.8594v-29.891h35.844v29.891h9.8594v-72.906h-9.8594v34.719h-35.844v-34.719h-9.8594z"/>
</defs>
<g transform="translate(615.01 193.49) rotate(-60.921) scale(.08 -.08)">
<use xlink:href="#ai"/>
</g>
</g>
<path d="m511.38 403.17 2.096-3.934q1.1285-2.1181-0.98963-3.2466l-6.8332-3.6406q-2.1181-1.1285-3.2466 0.98963l-2.096 3.934q-1.1285 2.1181 0.98963 3.2466l6.8332 3.6406q2.1181 1.1285 3.2466-0.98963z" clip-path="url(#a)" fill="#fff" stroke="#fff"/>
<g clip-path="url(#a)">
<defs>
<path id="an" d="m9.8125 72.906h9.8594v-64.609h35.5v-8.2969h-45.359z"/>
</defs>
<g transform="translate(507.79 401.26) rotate(-61.952) scale(.08 -.08)">
<use xlink:href="#an"/>
</g>
</g>
<path d="m506.63 124.42 5.6001-2.1988q2.234-0.87713 1.3568-3.1111l-2.8297-7.2069q-0.87713-2.234-3.1111-1.3568l-5.6001 2.1988q-2.234 0.87713-1.3568 3.1111l2.8297 7.2069q0.87713 2.234 3.1111 1.3568z" clip-path="url(#a)" fill="#fff" stroke="#fff"/>
<g clip-path="url(#a)">
<g transform="translate(505.15 120.64) rotate(-21.437) scale(.08 -.08)">
<use xlink:href="#ai"/>
</g>
</g>
<path d="m734.08 188.76 1.766 5.7512q0.70448 2.2943 2.9988 1.5898l7.4014-2.2727q2.2943-0.70448 1.5898-2.9988l-1.766-5.7512q-0.70449-2.2943-2.9988-1.5898l-7.4014 2.2727q-2.2943 0.70448-1.5898 2.9988z" clip-path="url(#a)" fill="#fff" stroke="#fff"/>
<g clip-path="url(#a)">
<g transform="translate(737.97 187.56) rotate(72.93) scale(.08 -.08)">
<use xlink:href="#ai"/>
</g>
</g>
<path d="m855.81 398.9 1.8926 4.0357q1.019 2.1729 3.192 1.1539l7.0099-3.2875q2.1729-1.019 1.1539-3.192l-1.8926-4.0357q-1.019-2.1729-3.192-1.1539l-7.0099 3.2875q-2.1729 1.019-1.1539 3.192z" clip-path="url(#a)" fill="#fff" stroke="#fff"/>
<g clip-path="url(#a)">
<g transform="translate(859.49 397.18) rotate(64.875) scale(.08 -.08)">
<use xlink:href="#an"/>
</g>
</g>
<path d="m939.28 122.63 5.7641 1.7236q2.2994 0.68757 2.987-1.6118l2.2181-7.418q0.68757-2.2994-1.6118-2.987l-5.7641-1.7236q-2.2994-0.68757-2.987 1.6118l-2.2181 7.418q-0.68757 2.2994 1.6118 2.987z" clip-path="url(#a)" fill="#fff" stroke="#fff"/>
<g clip-path="url(#a)">
<g transform="translate(940.44 118.74) rotate(16.648) scale(.08 -.08)">
<use xlink:href="#ai"/>
</g>
</g>
<path d="m333.46 550.81 3.3607-3.4604q1.6721-1.7217-0.049587-3.3938l-5.5542-5.3942q-1.7217-1.6721-3.3938 0.049588l-3.3607 3.4604q-1.6721 1.7217 0.049587 3.3938l5.5542 5.3942q1.7217 1.6721 3.3938-0.049588z" clip-path="url(#a)" fill="#fff" stroke="#fff"/>
<g clip-path="url(#a)">
<defs>
<path id="t" d="m19.672 64.797v-27.391h12.406q6.8906 0 10.641 3.5625 3.7656 3.5625 3.7656 10.156 0 6.5469-3.7656 10.109-3.75 3.5625-10.641 3.5625zm-9.8594 8.1094h22.266q12.266 0 18.531-5.5469 6.2812-5.5469 6.2812-16.234 0-10.797-6.2812-16.312-6.2656-5.5156-18.531-5.5156h-12.406v-29.297h-9.8594z"/>
</defs>
<g transform="translate(330.54 547.98) rotate(-45.837) scale(.08 -.08)">
<use xlink:href="#t"/>
</g>
</g>
<path d="m309.18 551.18 4.0239-3.709q1.7647-1.6266 0.1381-3.3913l-5.2475-5.693q-1.6266-1.7647-3.3913-0.1381l-4.0239 3.709q-1.7647 1.6266-0.1381 3.3913l5.2475 5.693q1.6266 1.7647 3.3913 0.1381z" clip-path="url(#a)" fill="#fff" stroke="#fff"/>
<g clip-path="url(#a)">
<defs>
<path id="m" d="m34.188 63.188-13.391-36.281h26.812zm-5.5781 9.7188h11.188l27.781-72.906h-10.25l-6.6406 18.703h-32.859l-6.6406-18.703h-10.406z"/>
</defs>
<g transform="translate(306.42 548.19) rotate(-42.668) scale(.08 -.08)">
<use xlink:href="#m"/>
</g>
</g>
<path d="m382.17 413.78 4.9568-2.3191q2.1738-1.0171 1.1568-3.1909l-3.2811-7.0129q-1.0171-2.1738-3.1909-1.1568l-4.9568 2.3191q-2.1738 1.0171-1.1568 3.1909l3.2811 7.0129q1.0171 2.1738 3.1909 1.1568z" clip-path="url(#a)" fill="#fff" stroke="#fff"/>
<g clip-path="url(#a)">
<g transform="translate(380.45 410.1) rotate(-25.073) scale(.08 -.08)">
<use xlink:href="#m"/>
</g>
</g>
<path d="m1108 549.62 5.5096 1.9812q2.2584 0.81211 3.0705-1.4463l2.6199-7.2858q0.81211-2.2584-1.4463-3.0705l-5.5096-1.9812q-2.2584-0.81211-3.0705 1.4463l-2.6199 7.2858q-0.81211 2.2584 1.4463 3.0705z" clip-path="url(#a)" fill="#fff" stroke="#fff"/>
<g clip-path="url(#a)">
<defs>
<path id="aq" d="m8.6875 72.906h9.9219v-44.297q0-11.719 4.2344-16.875 4.25-5.1406 13.781-5.1406 9.4688 0 13.719 5.1406 4.25 5.1562 4.25 16.875v44.297h9.9062v-45.516q0-14.25-7.0625-21.531-7.0469-7.2812-20.812-7.2812-13.828 0-20.891 7.2812-7.0469 7.2812-7.0469 21.531z"/>
</defs>
<g transform="translate(1109.3 545.8) rotate(19.778) scale(.08 -.08)">
<use xlink:href="#aq"/>
</g>
</g>
<path d="m121.91 803.94v35.285q0 2.4 2.4 2.4h7.7425q2.4 0 2.4-2.4v-35.285q0-2.4-2.4-2.4h-7.7425q-2.4 0-2.4 2.4z" clip-path="url(#a)" fill="#fff" stroke="#fff"/>
<g clip-path="url(#a)">
<defs>
<path id="l" d="m-0.29688 72.906h61.672v-8.3125h-25.875v-64.594h-9.9062v64.594h-25.891z"/>
<path id="d" d="m56.203 29.594v-4.3906h-41.312q0.59375-9.2812 5.5938-14.141t13.938-4.8594q5.1719 0 10.031 1.2656t9.6562 3.8125v-8.5q-4.8438-2.0469-9.9219-3.125t-10.297-1.0781q-13.094 0-20.734 7.6094-7.6406 7.625-7.6406 20.625 0 13.422 7.25 21.297 7.25 7.8906 19.562 7.8906 11.031 0 17.453-7.1094 6.4219-7.0938 6.4219-19.297zm-8.9844 2.6406q-0.09375 7.3594-4.125 11.75-4.0312 4.4062-10.672 4.4062-7.5156 0-12.031-4.25t-5.2031-11.969z"/>
<path id="h" d="m41.109 46.297q-1.5156 0.875-3.2969 1.2812-1.7812 0.42188-3.9219 0.42188-7.625 0-11.703-4.9531t-4.0781-14.234v-28.812h-9.0312v54.688h9.0312v-8.5q2.8438 4.9844 7.375 7.3906 4.5469 2.4219 11.047 2.4219 0.92188 0 2.0469-0.125 1.125-0.10938 2.4844-0.35938z"/>
<path id="j" d="m52 44.188q3.375 6.0625 8.0625 8.9375t11.031 2.875q8.5469 0 13.188-5.9844 4.6406-5.9688 4.6406-17v-33.016h-9.0312v32.719q0 7.8594-2.7969 11.656-2.7812 3.8125-8.4844 3.8125-6.9844 0-11.047-4.6406-4.0469-4.625-4.0469-12.641v-30.906h-9.0312v32.719q0 7.9062-2.7812 11.688t-8.5938 3.7812q-6.8906 0-10.953-4.6562-4.0469-4.6562-4.0469-12.625v-30.906h-9.0312v54.688h9.0312v-8.5q3.0781 5.0312 7.375 7.4219t10.203 2.3906q5.9688 0 10.141-3.0312 4.1719-3.0156 6.1719-8.7812z"/>
<path id="k" d="m9.4219 54.688h8.9844v-54.688h-8.9844zm0 21.297h8.9844v-11.391h-8.9844z"/>
<path id="g" d="m54.891 33.016v-33.016h-8.9844v32.719q0 7.7656-3.0312 11.609-3.0312 3.8594-9.0781 3.8594-7.2812 0-11.484-4.6406-4.2031-4.625-4.2031-12.641v-30.906h-9.0312v54.688h9.0312v-8.5q3.2344 4.9375 7.5938 7.375 4.375 2.4375 10.094 2.4375 9.4219 0 14.25-5.8281 4.8438-5.8281 4.8438-17.156z"/>
<path id="f" d="m34.281 27.484q-10.891 0-15.094-2.4844t-4.2031-8.5q0-4.7812 3.1562-7.5938 3.1562-2.7969 8.5625-2.7969 7.4844 0 12 5.2969t4.5156 14.078v2zm17.922 3.7188v-31.203h-8.9844v8.2969q-3.0781-4.9688-7.6719-7.3438t-11.234-2.375q-8.3906 0-13.359 4.7188-4.9531 4.7188-4.9531 12.625 0 9.2188 6.1719 13.906 6.1875 4.6875 18.438 4.6875h12.609v0.89062q0 6.2031-4.0781 9.5938t-11.453 3.3906q-4.6875 0-9.1406-1.125-4.4375-1.125-8.5312-3.375v8.3125q4.9219 1.9062 9.5625 2.8438 4.6406 0.95312 9.0312 0.95312 11.875 0 17.734-6.1562 5.8594-6.1406 5.8594-18.641z"/>
<path id="i" d="m9.4219 75.984h8.9844v-75.984h-8.9844z"/>
</defs>
<g transform="translate(125.97 803.94) rotate(90) scale(.08 -.08)">
<use xlink:href="#l"/>
<use x="60.818359" xlink:href="#d"/>
<use x="122.341797" xlink:href="#h"/>
<use x="163.439453" xlink:href="#j"/>
<use x="260.851562" xlink:href="#k"/>
<use x="288.634766" xlink:href="#g"/>
<use x="352.013672" xlink:href="#f"/>
<use x="413.292969" xlink:href="#i"/>
</g>
</g>
<path d="m74.501 803.94v35.285q0 2.4 2.4 2.4h7.7425q2.4 0 2.4-2.4v-35.285q0-2.4-2.4-2.4h-7.7425q-2.4 0-2.4 2.4z" clip-path="url(#a)" fill="#fff" stroke="#fff"/>
<g clip-path="url(#a)">
<g transform="translate(78.565 803.94) rotate(90) scale(.08 -.08)">
<use xlink:href="#l"/>
<use x="60.818359" xlink:href="#d"/>
<use x="122.341797" xlink:href="#h"/>
<use x="163.439453" xlink:href="#j"/>
<use x="260.851562" xlink:href="#k"/>
<use x="288.634766" xlink:href="#g"/>
<use x="352.013672" xlink:href="#f"/>
<use x="413.292969" xlink:href="#i"/>
</g>
</g>
<path d="m244.04 613.53 0.79281 5.5297q0.34061 2.3757 2.7163 2.0351l7.6641-1.0988q2.3757-0.34061 2.0351-2.7163l-0.79281-5.5297q-0.34061-2.3757-2.7163-2.0351l-7.6641 1.0988q-2.3757 0.34061-2.0351 2.7163z" clip-path="url(#a)" fill="#fff" stroke="#fff"/>
<g clip-path="url(#a)">
<defs>
<path id="ac" d="m64.406 67.281v-10.391q-4.9844 4.6406-10.625 6.9219-5.6406 2.2969-11.984 2.2969-12.5 0-19.141-7.6406t-6.6406-22.094q0-14.406 6.6406-22.047t19.141-7.6406q6.3438 0 11.984 2.2969t10.625 6.9375v-10.312q-5.1719-3.5156-10.969-5.2812-5.7812-1.75-12.219-1.75-16.562 0-26.094 10.125-9.5156 10.141-9.5156 27.672 0 17.578 9.5156 27.703 9.5312 10.141 26.094 10.141 6.5312 0 12.312-1.7344 5.7969-1.7344 10.875-5.2031z"/>
</defs>
<g transform="translate(248.06 612.96) rotate(81.841) scale(.08 -.08)">
<use xlink:href="#ac"/>
</g>
</g>
<path d="m208.93 618.9 0.90551-4.5113q0.47231-2.3531-1.8808-2.8254l-7.5911-1.5237q-2.3531-0.47231-2.8254 1.8808l-0.90551 4.5113q-0.47231 2.3531 1.8808 2.8254l7.5911 1.5237q2.3531 0.47231 2.8254-1.8808z" clip-path="url(#a)" fill="#fff" stroke="#fff"/>
<g clip-path="url(#a)">
<defs>
<path id="ab" d="m9.8125 72.906h41.891v-8.3125h-32.031v-21.484h28.906v-8.2969h-28.906v-34.812h-9.8594z"/>
</defs>
<g transform="translate(204.95 618.1) rotate(-78.65) scale(.08 -.08)">
<use xlink:href="#ab"/>
</g>
</g>
<path d="m232.27 545.2 0.57212 5.0225q0.27163 2.3846 2.6562 2.1129l7.6928-0.87629q2.3846-0.27163 2.1129-2.6562l-0.57212-5.0225q-0.27163-2.3846-2.6562-2.1129l-7.6928 0.87629q-2.3846 0.27163-2.1129 2.6562z" clip-path="url(#a)" fill="#fff" stroke="#fff"/>
<g clip-path="url(#a)">
<defs>
<path id="w" d="m9.8125 72.906h46.094v-8.3125h-36.234v-21.578h34.719v-8.2969h-34.719v-26.422h37.109v-8.2969h-46.969z"/>
</defs>
<g transform="translate(236.31 544.74) rotate(83.501) scale(.08 -.08)">
<use xlink:href="#w"/>
</g>
</g>
<path d="m264.12 803.94v35.285q0 2.4 2.4 2.4h7.7425q2.4 0 2.4-2.4v-35.285q0-2.4-2.4-2.4h-7.7425q-2.4 0-2.4 2.4z" clip-path="url(#a)" fill="#fff" stroke="#fff"/>
<g clip-path="url(#a)">
<g transform="translate(268.19 803.94) rotate(90) scale(.08 -.08)">
<use xlink:href="#l"/>
<use x="60.818359" xlink:href="#d"/>
<use x="122.341797" xlink:href="#h"/>
<use x="163.439453" xlink:href="#j"/>
<use x="260.851562" xlink:href="#k"/>
<use x="288.634766" xlink:href="#g"/>
<use x="352.013672" xlink:href="#f"/>
<use x="413.292969" xlink:href="#i"/>
</g>
</g>
<path d="m311.53 803.94v35.285q0 2.4 2.4 2.4h7.7425q2.4 0 2.4-2.4v-35.285q0-2.4-2.4-2.4h-7.7425q-2.4 0-2.4 2.4z" clip-path="url(#a)" fill="#fff" stroke="#fff"/>
<g clip-path="url(#a)">
<g transform="translate(315.59 803.94) rotate(90) scale(.08 -.08)">
<use xlink:href="#l"/>
<use x="60.818359" xlink:href="#d"/>
<use x="122.341797" xlink:href="#h"/>
<use x="163.439453" xlink:href="#j"/>
<use x="260.851562" xlink:href="#k"/>
<use x="288.634766" xlink:href="#g"/>
<use x="352.013672" xlink:href="#f"/>
<use x="413.292969" xlink:href="#i"/>
</g>
</g>
<path d="m204.24 477.37 2.1319-5.0402q0.93495-2.2104-1.2754-3.1454l-7.1308-3.0162q-2.2104-0.93495-3.1454 1.2754l-2.1319 5.0402q-0.93495 2.2104 1.2754 3.1454l7.1308 3.0162q2.2104 0.93495 3.1454-1.2754z" clip-path="url(#a)" fill="#fff" stroke="#fff"/>
<g clip-path="url(#a)">
<g transform="translate(200.5 475.79) rotate(-67.073) scale(.08 -.08)">
<use xlink:href="#m"/>
</g>
</g>
<path d="m358.85 470.94 0.84125 5.0086q0.39754 2.3668 2.7644 1.9693l7.6355-1.2825q2.3668-0.39754 1.9693-2.7644l-0.84125-5.0086q-0.39754-2.3668-2.7644-1.9693l-7.6355 1.2825q-2.3668 0.39754-1.9693 2.7644z" clip-path="url(#a)" fill="#fff" stroke="#fff"/>
<g clip-path="url(#a)">
<defs>
<path id="al" d="m53.516 70.516v-9.625q-5.6094 2.6875-10.594 4-4.9844 1.3281-9.625 1.3281-8.0469 0-12.422-3.125t-4.375-8.8906q0-4.8438 2.9062-7.3125 2.9062-2.4531 11.016-3.9688l5.9531-1.2188q11.031-2.1094 16.281-7.4062t5.25-14.172q0-10.609-7.1094-16.078-7.0938-5.4688-20.812-5.4688-5.1719 0-11.016 1.1719-5.8281 1.1719-12.078 3.4688v10.156q6-3.3594 11.766-5.0781 5.7656-1.7031 11.328-1.7031 8.4375 0 13.031 3.3125 4.5938 3.3281 4.5938 9.4844 0 5.3594-3.2969 8.3906t-10.812 4.5469l-6.0156 1.1719q-11.031 2.1875-15.969 6.875-4.9219 4.6875-4.9219 13.047 0 9.6719 6.8125 15.234t18.766 5.5625q5.1406 0 10.453-0.9375 5.3281-0.92188 10.891-2.7656z"/>
</defs>
<g transform="translate(362.86 470.27) rotate(80.466) scale(.08 -.08)">
<use xlink:href="#al"/>
</g>
</g>
<path d="m335.31 470.63 0.38306 4.5853q0.1998 2.3917 2.5915 2.1919l7.7156-0.64457q2.3917-0.1998 2.1919-2.5915l-0.38306-4.5853q-0.1998-2.3917-2.5915-2.1919l-7.7156 0.64457q-2.3917 0.1998-2.1919 2.5915z" clip-path="url(#a)" fill="#fff" stroke="#fff"/>
<g clip-path="url(#a)">
<g transform="translate(339.36 470.3) rotate(85.225) scale(.08 -.08)">
<use xlink:href="#ab"/>
</g>
</g>
<path d="m359.7 265.14 3.0331 4.5551q1.3302 1.9977 3.3278 0.6675l6.4445-4.2912q1.9977-1.3302 0.6675-3.3278l-3.0331-4.5551q-1.3302-1.9977-3.3278-0.6675l-6.4445 4.2912q-1.9977 1.3302-0.6675 3.3278z" clip-path="url(#a)" fill="#fff" stroke="#fff"/>
<g clip-path="url(#a)">
<g transform="translate(363.09 262.89) rotate(56.342) scale(.08 -.08)">
<use xlink:href="#m"/>
</g>
</g>
<path d="m406.34 803.94v35.285q0 2.4 2.4 2.4h7.7425q2.4 0 2.4-2.4v-35.285q0-2.4-2.4-2.4h-7.7425q-2.4 0-2.4 2.4z" clip-path="url(#a)" fill="#fff" stroke="#fff"/>
<g clip-path="url(#a)">
<g transform="translate(410.4 803.94) rotate(90) scale(.08 -.08)">
<use xlink:href="#l"/>
<use x="60.818359" xlink:href="#d"/>
<use x="122.341797" xlink:href="#h"/>
<use x="163.439453" xlink:href="#j"/>
<use x="260.851562" xlink:href="#k"/>
<use x="288.634766" xlink:href="#g"/>
<use x="352.013672" xlink:href="#f"/>
<use x="413.292969" xlink:href="#i"/>
</g>
</g>
<path d="m782.59 542.39 0.068551 4.8233q0.034107 2.3998 2.4339 2.3657l7.7417-0.11003q2.3998-0.034107 2.3656-2.4339l-0.068551-4.8233q-0.034107-2.3998-2.4339-2.3656l-7.7417 0.11003q-2.3998 0.034107-2.3656 2.4339z" clip-path="url(#a)" fill="#fff" stroke="#fff"/>
<g clip-path="url(#a)">
<g transform="translate(786.65 542.33) rotate(89.186) scale(.08 -.08)">
<use xlink:href="#t"/>
</g>
</g>
<path d="m746.98 549.03 1.2844-6.0246q0.50041-2.3473-1.8468-2.8477l-7.5723-1.6143q-2.3473-0.50041-2.8477 1.8468l-1.2844 6.0246q-0.50041 2.3473 1.8468 2.8477l7.5723 1.6143q2.3473 0.50041 2.8477-1.8468z" clip-path="url(#a)" fill="#fff" stroke="#fff"/>
<g clip-path="url(#a)">
<defs>
<path id="ao" d="m19.672 64.797v-56.688h11.922q15.094 0 22.094 6.8281 7 6.8438 7 21.594 0 14.641-7 21.453t-22.094 6.8125zm-9.8594 8.1094h20.266q21.188 0 31.094-8.8125 9.9219-8.8125 9.9219-27.562 0-18.859-9.9688-27.703-9.9531-8.8281-31.047-8.8281h-20.266z"/>
</defs>
<g transform="translate(743 548.18) rotate(-77.965) scale(.08 -.08)">
<use xlink:href="#ao"/>
</g>
</g>
<path d="m771.16 548.06 0.54178-5.4456q0.2376-2.3882-2.1506-2.6258l-7.7045-0.76651q-2.3882-0.2376-2.6258 2.1506l-0.54178 5.4456q-0.2376 2.3882 2.1506 2.6258l7.7045 0.76651q2.3882 0.2376 2.6258-2.1506z" clip-path="url(#a)" fill="#fff" stroke="#fff"/>
<g clip-path="url(#a)">
<g transform="translate(767.12 547.65) rotate(-84.318) scale(.08 -.08)">
<use xlink:href="#m"/>
</g>
</g>
<path d="m841.63 409.03 3.6155 4.1081q1.5856 1.8016 3.3872 0.21601l5.8121-5.1152q1.8016-1.5856 0.21601-3.3872l-3.6155-4.1081q-1.5856-1.8016-3.3872-0.21601l-5.8121 5.1152q-1.8016 1.5856-0.21601 3.3872z" clip-path="url(#a)" fill="#fff" stroke="#fff"/>
<g clip-path="url(#a)">
<g transform="translate(844.68 406.35) rotate(48.649) scale(.08 -.08)">
<use xlink:href="#m"/>
</g>
</g>
<path d="m785.58 803.94v35.285q0 2.4 2.4 2.4h7.7425q2.4 0 2.4-2.4v-35.285q0-2.4-2.4-2.4h-7.7425q-2.4 0-2.4 2.4z" clip-path="url(#a)" fill="#fff" stroke="#fff"/>
<g clip-path="url(#a)">
<g transform="translate(789.65 803.94) rotate(90) scale(.08 -.08)">
<use xlink:href="#l"/>
<use x="60.818359" xlink:href="#d"/>
<use x="122.341797" xlink:href="#h"/>
<use x="163.439453" xlink:href="#j"/>
<use x="260.851562" xlink:href="#k"/>
<use x="288.634766" xlink:href="#g"/>
<use x="352.013672" xlink:href="#f"/>
<use x="413.292969" xlink:href="#i"/>
</g>
</g>
<path d="m1686.3 803.94v35.285q0 2.4 2.4 2.4h7.7425q2.4 0 2.4-2.4v-35.285q0-2.4-2.4-2.4h-7.7425q-2.4 0-2.4 2.4z" clip-path="url(#a)" fill="#fff" stroke="#fff"/>
<g clip-path="url(#a)">
<g transform="translate(1690.4 803.94) rotate(90) scale(.08 -.08)">
<use xlink:href="#l"/>
<use x="60.818359" xlink:href="#d"/>
<use x="122.341797" xlink:href="#h"/>
<use x="163.439453" xlink:href="#j"/>
<use x="260.851562" xlink:href="#k"/>
<use x="288.634766" xlink:href="#g"/>
<use x="352.013672" xlink:href="#f"/>
<use x="413.292969" xlink:href="#i"/>
</g>
</g>
<path d="m169.31 803.94v35.285q0 2.4 2.4 2.4h7.7425q2.4 0 2.4-2.4v-35.285q0-2.4-2.4-2.4h-7.7425q-2.4 0-2.4 2.4z" clip-path="url(#a)" fill="#fff" stroke="#fff"/>
<g clip-path="url(#a)">
<g transform="translate(173.38 803.94) rotate(90) scale(.08 -.08)">
<use xlink:href="#l"/>
<use x="60.818359" xlink:href="#d"/>
<use x="122.341797" xlink:href="#h"/>
<use x="163.439453" xlink:href="#j"/>
<use x="260.851562" xlink:href="#k"/>
<use x="288.634766" xlink:href="#g"/>
<use x="352.013672" xlink:href="#f"/>
<use x="413.292969" xlink:href="#i"/>
</g>
</g>
<path d="m251.9 683.14 0.93416 5.3922q0.40968 2.3648 2.7745 1.9551l7.6289-1.3217q2.3648-0.40968 1.9551-2.7745l-0.93416-5.3922q-0.40968-2.3648-2.7745-1.9551l-7.6289 1.3217q-2.3648 0.40968-1.9551 2.7745z" clip-path="url(#a)" fill="#fff" stroke="#fff"/>
<g clip-path="url(#a)">
<g transform="translate(255.9 682.45) rotate(80.171) scale(.08 -.08)">
<use xlink:href="#m"/>
</g>
</g>
<path d="m240.59 688.34 0.86695-5.0042q0.40968-2.3648-1.9551-2.7745l-7.6289-1.3217q-2.3648-0.40968-2.7745 1.9551l-0.86695 5.0042q-0.40968 2.3648 1.9551 2.7745l7.6289 1.3217q2.3648 0.40968 2.7745-1.9551z" clip-path="url(#a)" fill="#fff" stroke="#fff"/>
<g clip-path="url(#a)">
<g transform="translate(236.58 687.65) rotate(-80.171) scale(.08 -.08)">
<use xlink:href="#al"/>
</g>
</g>
<path d="m216.72 803.94v35.285q0 2.4 2.4 2.4h7.7425q2.4 0 2.4-2.4v-35.285q0-2.4-2.4-2.4h-7.7425q-2.4 0-2.4 2.4z" clip-path="url(#a)" fill="#fff" stroke="#fff"/>
<g clip-path="url(#a)">
<g transform="translate(220.78 803.94) rotate(90) scale(.08 -.08)">
<use xlink:href="#l"/>
<use x="60.818359" xlink:href="#d"/>
<use x="122.341797" xlink:href="#h"/>
<use x="163.439453" xlink:href="#j"/>
<use x="260.851562" xlink:href="#k"/>
<use x="288.634766" xlink:href="#g"/>
<use x="352.013672" xlink:href="#f"/>
<use x="413.292969" xlink:href="#i"/>
</g>
</g>
<path d="m358.93 803.94v35.285q0 2.4 2.4 2.4h7.7425q2.4 0 2.4-2.4v-35.285q0-2.4-2.4-2.4h-7.7425q-2.4 0-2.4 2.4z" clip-path="url(#a)" fill="#fff" stroke="#fff"/>
<g clip-path="url(#a)">
<g transform="translate(363 803.94) rotate(90) scale(.08 -.08)">
<use xlink:href="#l"/>
<use x="60.818359" xlink:href="#d"/>
<use x="122.341797" xlink:href="#h"/>
<use x="163.439453" xlink:href="#j"/>
<use x="260.851562" xlink:href="#k"/>
<use x="288.634766" xlink:href="#g"/>
<use x="352.013672" xlink:href="#f"/>
<use x="413.292969" xlink:href="#i"/>
</g>
</g>
<path d="m250.87 550.77 3.4203-4.272q1.5-1.8735-0.37349-3.3735l-6.044-4.8391q-1.8735-1.5-3.3735 0.37349l-3.4203 4.272q-1.5 1.8735 0.37349 3.3735l6.044 4.8391q1.8735 1.5 3.3735-0.37349z" clip-path="url(#a)" fill="#fff" stroke="#fff"/>
<g clip-path="url(#a)">
<g transform="translate(247.69 548.23) rotate(-51.318) scale(.08 -.08)">
<use xlink:href="#m"/>
</g>
</g>
<path d="m454.36 543.72 1.0484 4.7084q0.52162 2.3426 2.8643 1.821l7.5574-1.6828q2.3426-0.52162 1.821-2.8642l-1.0484-4.7084q-0.52162-2.3426-2.8642-1.821l-7.5574 1.6828q-2.3426 0.52162-1.821 2.8642z" clip-path="url(#a)" fill="#fff" stroke="#fff"/>
<g clip-path="url(#a)">
<g transform="translate(458.33 542.84) rotate(77.447) scale(.08 -.08)">
<use xlink:href="#t"/>
</g>
</g>
<path d="m430.82 543.1 0.49842 4.5742q0.25997 2.3859 2.6459 2.1259l7.6969-0.83869q2.3859-0.25997 2.1259-2.6459l-0.49842-4.5742q-0.25997-2.3859-2.6459-2.1259l-7.6969 0.83869q-2.3859 0.25997-2.1259 2.6459z" clip-path="url(#a)" fill="#fff" stroke="#fff"/>
<g clip-path="url(#a)">
<g transform="translate(434.86 542.66) rotate(83.781) scale(.08 -.08)">
<use xlink:href="#ab"/>
</g>
</g>
<path d="m506.47 410.42 4.4347 3.2065q1.9449 1.4062 3.3511-0.53862l4.5366-6.2742q1.4062-1.9449-0.53862-3.3511l-4.4347-3.2065q-1.9449-1.4062-3.3511 0.53862l-4.5366 6.2742q-1.4062 1.9449 0.53862 3.3511z" clip-path="url(#a)" fill="#fff" stroke="#fff"/>
<g clip-path="url(#a)">
<g transform="translate(508.85 407.13) rotate(35.869) scale(.08 -.08)">
<use xlink:href="#m"/>
</g>
</g>
<path d="m501.15 803.94v35.285q0 2.4 2.4 2.4h7.7425q2.4 0 2.4-2.4v-35.285q0-2.4-2.4-2.4h-7.7425q-2.4 0-2.4 2.4z" clip-path="url(#a)" fill="#fff" stroke="#fff"/>
<g clip-path="url(#a)">
<g transform="translate(505.21 803.94) rotate(90) scale(.08 -.08)">
<use xlink:href="#l"/>
<use x="60.818359" xlink:href="#d"/>
<use x="122.341797" xlink:href="#h"/>
<use x="163.439453" xlink:href="#j"/>
<use x="260.851562" xlink:href="#k"/>
<use x="288.634766" xlink:href="#g"/>
<use x="352.013672" xlink:href="#f"/>
<use x="413.292969" xlink:href="#i"/>
</g>
</g>
<path d="m690.77 803.94v35.285q0 2.4 2.4 2.4h7.7425q2.4 0 2.4-2.4v-35.285q0-2.4-2.4-2.4h-7.7425q-2.4 0-2.4 2.4z" clip-path="url(#a)" fill="#fff" stroke="#fff"/>
<g clip-path="url(#a)">
<g transform="translate(694.84 803.94) rotate(90) scale(.08 -.08)">
<use xlink:href="#l"/>
<use x="60.818359" xlink:href="#d"/>
<use x="122.341797" xlink:href="#h"/>
<use x="163.439453" xlink:href="#j"/>
<use x="260.851562" xlink:href="#k"/>
<use x="288.634766" xlink:href="#g"/>
<use x="352.013672" xlink:href="#f"/>
<use x="413.292969" xlink:href="#i"/>
</g>
</g>
<path d="m738.18 803.94v35.285q0 2.4 2.4 2.4h7.7425q2.4 0 2.4-2.4v-35.285q0-2.4-2.4-2.4h-7.7425q-2.4 0-2.4 2.4z" clip-path="url(#a)" fill="#fff" stroke="#fff"/>
<g clip-path="url(#a)">
<g transform="translate(742.24 803.94) rotate(90) scale(.08 -.08)">
<use xlink:href="#l"/>
<use x="60.818359" xlink:href="#d"/>
<use x="122.341797" xlink:href="#h"/>
<use x="163.439453" xlink:href="#j"/>
<use x="260.851562" xlink:href="#k"/>
<use x="288.634766" xlink:href="#g"/>
<use x="352.013672" xlink:href="#f"/>
<use x="413.292969" xlink:href="#i"/>
</g>
</g>
<path d="m939.15 614.27 1.3959 5.409q0.59972 2.3239 2.9236 1.7241l7.4969-1.9347q2.3239-0.59972 1.7241-2.9236l-1.3959-5.409q-0.59972-2.3239-2.9236-1.7241l-7.4969 1.9347q-2.3239 0.59972-1.7241 2.9236z" clip-path="url(#a)" fill="#fff" stroke="#fff"/>
<g clip-path="url(#a)">
<g transform="translate(943.09 613.26) rotate(75.529) scale(.08 -.08)">
<use xlink:href="#ac"/>
</g>
</g>
<path d="m880.31 619.2 1.1498-4.4553q0.59972-2.3239-1.7241-2.9236l-7.4969-1.9347q-2.3239-0.59972-2.9236 1.7241l-1.1498 4.4553q-0.59972 2.3239 1.7241 2.9236l7.4969 1.9347q2.3239 0.59972 2.9236-1.7241z" clip-path="url(#a)" fill="#fff" stroke="#fff"/>
<g clip-path="url(#a)">
<g transform="translate(876.38 618.19) rotate(-75.529) scale(.08 -.08)">
<use xlink:href="#ab"/>
</g>
</g>
<path d="m904.1 544.47v5.055q0 2.4 2.4 2.4h7.7425q2.4 0 2.4-2.4v-5.055q0-2.4-2.4-2.4h-7.7425q-2.4 0-2.4 2.4z" clip-path="url(#a)" fill="#fff" stroke="#fff"/>
<g clip-path="url(#a)">
<g transform="translate(908.16 544.47) rotate(90) scale(.08 -.08)">
<use xlink:href="#w"/>
</g>
</g>
<path d="m975.21 803.94v35.285q0 2.4 2.4 2.4h7.7425q2.4 0 2.4-2.4v-35.285q0-2.4-2.4-2.4h-7.7425q-2.4 0-2.4 2.4z" clip-path="url(#a)" fill="#fff" stroke="#fff"/>
<g clip-path="url(#a)">
<g transform="translate(979.27 803.94) rotate(90) scale(.08 -.08)">
<use xlink:href="#l"/>
<use x="60.818359" xlink:href="#d"/>
<use x="122.341797" xlink:href="#h"/>
<use x="163.439453" xlink:href="#j"/>
<use x="260.851562" xlink:href="#k"/>
<use x="288.634766" xlink:href="#g"/>
<use x="352.013672" xlink:href="#f"/>
<use x="413.292969" xlink:href="#i"/>
</g>
</g>
<path d="m1022.6 803.94v35.285q0 2.4 2.4 2.4h7.7425q2.4 0 2.4-2.4v-35.285q0-2.4-2.4-2.4h-7.7425q-2.4 0-2.4 2.4z" clip-path="url(#a)" fill="#fff" stroke="#fff"/>
<g clip-path="url(#a)">
<g transform="translate(1026.7 803.94) rotate(90) scale(.08 -.08)">
<use xlink:href="#l"/>
<use x="60.818359" xlink:href="#d"/>
<use x="122.341797" xlink:href="#h"/>
<use x="163.439453" xlink:href="#j"/>
<use x="260.851562" xlink:href="#k"/>
<use x="288.634766" xlink:href="#g"/>
<use x="352.013672" xlink:href="#f"/>
<use x="413.292969" xlink:href="#i"/>
</g>
</g>
<path d="m1187.7 475.05 0.17876-4.8204q0.088942-2.3984-2.3094-2.4873l-7.7372-0.28693q-2.3984-0.088941-2.4873 2.3094l-0.17876 4.8204q-0.088942 2.3984 2.3094 2.4873l7.7372 0.28693q2.3984 0.088941 2.4873-2.3094z" clip-path="url(#a)" fill="#fff" stroke="#fff"/>
<g clip-path="url(#a)">
<g transform="translate(1183.6 474.9) rotate(-87.876) scale(.08 -.08)">
<use xlink:href="#t"/>
</g>
</g>
<path d="m1139.7 476.35 1.1038-5.36q0.48406-2.3507-1.8666-2.8347l-7.5834-1.5616q-2.3507-0.48406-2.8347 1.8666l-1.1038 5.36q-0.48406 2.3507 1.8666 2.8347l7.5834 1.5616q2.3507 0.48406 2.8347-1.8666z" clip-path="url(#a)" fill="#fff" stroke="#fff"/>
<g clip-path="url(#a)">
<g transform="translate(1135.7 475.53) rotate(-78.364) scale(.08 -.08)">
<use xlink:href="#m"/>
</g>
</g>
<path d="m1163.8 475.45 0.55499-4.5677q0.28948-2.3825-2.093-2.672l-7.686-0.93388q-2.3825-0.28948-2.672 2.093l-0.55499 4.5677q-0.28948 2.3825 2.093 2.672l7.686 0.93388q2.3825 0.28948 2.672-2.093z" clip-path="url(#a)" fill="#fff" stroke="#fff"/>
<g clip-path="url(#a)">
<g transform="translate(1159.7 474.96) rotate(-83.072) scale(.08 -.08)">
<use xlink:href="#ab"/>
</g>
</g>
<path d="m1198.8 469.97 0.25875 5.4664q0.11348 2.3973 2.5108 2.2838l7.7338-0.36608q2.3973-0.11348 2.2838-2.5108l-0.25875-5.4664q-0.11348-2.3973-2.5108-2.2838l-7.7338 0.36608q-2.3973 0.11348-2.2838 2.5108z" clip-path="url(#a)" fill="#fff" stroke="#fff"/>
<g clip-path="url(#a)">
<g transform="translate(1202.9 469.78) rotate(87.29) scale(.08 -.08)">
<use xlink:href="#m"/>
</g>
</g>
<path d="m1274.9 267.08 4.2485 3.4495q1.8632 1.5128 3.376-0.35039l4.8803-6.0107q1.5128-1.8632-0.3504-3.376l-4.2485-3.4495q-1.8632-1.5128-3.376 0.35039l-4.8803 6.0107q-1.5128 1.8632 0.3504 3.376z" clip-path="url(#a)" fill="#fff" stroke="#fff"/>
<g clip-path="url(#a)">
<g transform="translate(1277.5 263.93) rotate(39.074) scale(.08 -.08)">
<use xlink:href="#m"/>
</g>
</g>
<path d="m1164.8 803.94v35.285q0 2.4 2.4 2.4h7.7425q2.4 0 2.4-2.4v-35.285q0-2.4-2.4-2.4h-7.7425q-2.4 0-2.4 2.4z" clip-path="url(#a)" fill="#fff" stroke="#fff"/>
<g clip-path="url(#a)">
<g transform="translate(1168.9 803.94) rotate(90) scale(.08 -.08)">
<use xlink:href="#l"/>
<use x="60.818359" xlink:href="#d"/>
<use x="122.341797" xlink:href="#h"/>
<use x="163.439453" xlink:href="#j"/>
<use x="260.851562" xlink:href="#k"/>
<use x="288.634766" xlink:href="#g"/>
<use x="352.013672" xlink:href="#f"/>
<use x="413.292969" xlink:href="#i"/>
</g>
</g>
<path d="m453.75 803.94v35.285q0 2.4 2.4 2.4h7.7425q2.4 0 2.4-2.4v-35.285q0-2.4-2.4-2.4h-7.7425q-2.4 0-2.4 2.4z" clip-path="url(#a)" fill="#fff" stroke="#fff"/>
<g clip-path="url(#a)">
<g transform="translate(457.81 803.94) rotate(90) scale(.08 -.08)">
<use xlink:href="#l"/>
<use x="60.818359" xlink:href="#d"/>
<use x="122.341797" xlink:href="#h"/>
<use x="163.439453" xlink:href="#j"/>
<use x="260.851562" xlink:href="#k"/>
<use x="288.634766" xlink:href="#g"/>
<use x="352.013672" xlink:href="#f"/>
<use x="413.292969" xlink:href="#i"/>
</g>
</g>
<path d="m623.28 613.53 0.79281 5.5297q0.34061 2.3757 2.7163 2.0351l7.6641-1.0988q2.3757-0.34061 2.0351-2.7163l-0.79281-5.5297q-0.34061-2.3757-2.7163-2.0351l-7.6641 1.0988q-2.3757 0.34061-2.0351 2.7163z" clip-path="url(#a)" fill="#fff" stroke="#fff"/>
<g clip-path="url(#a)">
<g transform="translate(627.31 612.96) rotate(81.841) scale(.08 -.08)">
<use xlink:href="#ac"/>
</g>
</g>
<path d="m588.13 619.12 0.9948-4.9561q0.47231-2.3531-1.8808-2.8254l-7.5911-1.5237q-2.3531-0.47231-2.8254 1.8808l-0.9948 4.9561q-0.47231 2.3531 1.8808 2.8254l7.5911 1.5237q2.3531 0.47231 2.8254-1.8808z" clip-path="url(#a)" fill="#fff" stroke="#fff"/>
<g clip-path="url(#a)">
<g transform="translate(584.15 618.32) rotate(-78.65) scale(.08 -.08)">
<use xlink:href="#w"/>
</g>
</g>
<path d="m611.52 545.2 0.57212 5.0225q0.27163 2.3846 2.6562 2.1129l7.6928-0.87629q2.3846-0.27163 2.1129-2.6562l-0.57212-5.0225q-0.27163-2.3846-2.6562-2.1129l-7.6928 0.87629q-2.3846 0.27163-2.113 2.6562z" clip-path="url(#a)" fill="#fff" stroke="#fff"/>
<g clip-path="url(#a)">
<g transform="translate(615.56 544.74) rotate(83.501) scale(.08 -.08)">
<use xlink:href="#w"/>
</g>
</g>
<path d="m643.37 803.94v35.285q0 2.4 2.4 2.4h7.7425q2.4 0 2.4-2.4v-35.285q0-2.4-2.4-2.4h-7.7425q-2.4 0-2.4 2.4z" clip-path="url(#a)" fill="#fff" stroke="#fff"/>
<g clip-path="url(#a)">
<g transform="translate(647.43 803.94) rotate(90) scale(.08 -.08)">
<use xlink:href="#l"/>
<use x="60.818359" xlink:href="#d"/>
<use x="122.341797" xlink:href="#h"/>
<use x="163.439453" xlink:href="#j"/>
<use x="260.851562" xlink:href="#k"/>
<use x="288.634766" xlink:href="#g"/>
<use x="352.013672" xlink:href="#f"/>
<use x="413.292969" xlink:href="#i"/>
</g>
</g>
<path d="m832.99 803.94v35.285q0 2.4 2.4 2.4h7.7425q2.4 0 2.4-2.4v-35.285q0-2.4-2.4-2.4h-7.7425q-2.4 0-2.4 2.4z" clip-path="url(#a)" fill="#fff" stroke="#fff"/>
<g clip-path="url(#a)">
<g transform="translate(837.05 803.94) rotate(90) scale(.08 -.08)">
<use xlink:href="#l"/>
<use x="60.818359" xlink:href="#d"/>
<use x="122.341797" xlink:href="#h"/>
<use x="163.439453" xlink:href="#j"/>
<use x="260.851562" xlink:href="#k"/>
<use x="288.634766" xlink:href="#g"/>
<use x="352.013672" xlink:href="#f"/>
<use x="413.292969" xlink:href="#i"/>
</g>
</g>
<path d="m915.56 683.09 0.95358 5.5043q0.40968 2.3648 2.7745 1.9551l7.6289-1.3216q2.3648-0.40968 1.9551-2.7745l-0.95358-5.5043q-0.40968-2.3648-2.7745-1.9551l-7.6289 1.3217q-2.3648 0.40968-1.9551 2.7745z" clip-path="url(#a)" fill="#fff" stroke="#fff"/>
<g clip-path="url(#a)">
<g transform="translate(919.57 682.39) rotate(80.171) scale(.08 -.08)">
<use xlink:href="#ac"/>
</g>
</g>
<path d="m904.27 688.33 0.86289-4.9808q0.40968-2.3648-1.9551-2.7745l-7.6289-1.3217q-2.3648-0.40968-2.7745 1.9551l-0.86289 4.9808q-0.40968 2.3648 1.9551 2.7745l7.6289 1.3217q2.3648 0.40968 2.7745-1.9551z" clip-path="url(#a)" fill="#fff" stroke="#fff"/>
<g clip-path="url(#a)">
<g transform="translate(900.26 687.64) rotate(-80.171) scale(.08 -.08)">
<use xlink:href="#w"/>
</g>
</g>
<path d="m927.8 803.94v35.285q0 2.4 2.4 2.4h7.7425q2.4 0 2.4-2.4v-35.285q0-2.4-2.4-2.4h-7.7425q-2.4 0-2.4 2.4z" clip-path="url(#a)" fill="#fff" stroke="#fff"/>
<g clip-path="url(#a)">
<g transform="translate(931.86 803.94) rotate(90) scale(.08 -.08)">
<use xlink:href="#l"/>
<use x="60.818359" xlink:href="#d"/>
<use x="122.341797" xlink:href="#h"/>
<use x="163.439453" xlink:href="#j"/>
<use x="260.851562" xlink:href="#k"/>
<use x="288.634766" xlink:href="#g"/>
<use x="352.013672" xlink:href="#f"/>
<use x="413.292969" xlink:href="#i"/>
</g>
</g>
<path d="m1070 803.94v35.285q0 2.4 2.4 2.4h7.7425q2.4 0 2.4-2.4v-35.285q0-2.4-2.4-2.4h-7.7425q-2.4 0-2.4 2.4z" clip-path="url(#a)" fill="#fff" stroke="#fff"/>
<g clip-path="url(#a)">
<g transform="translate(1074.1 803.94) rotate(90) scale(.08 -.08)">
<use xlink:href="#l"/>
<use x="60.818359" xlink:href="#d"/>
<use x="122.341797" xlink:href="#h"/>
<use x="163.439453" xlink:href="#j"/>
<use x="260.851562" xlink:href="#k"/>
<use x="288.634766" xlink:href="#g"/>
<use x="352.013672" xlink:href="#f"/>
<use x="413.292969" xlink:href="#i"/>
</g>
</g>
<path d="m1117.4 803.94v35.285q0 2.4 2.4 2.4h7.7425q2.4 0 2.4-2.4v-35.285q0-2.4-2.4-2.4h-7.7425q-2.4 0-2.4 2.4z" clip-path="url(#a)" fill="#fff" stroke="#fff"/>
<g clip-path="url(#a)">
<g transform="translate(1121.5 803.94) rotate(90) scale(.08 -.08)">
<use xlink:href="#l"/>
<use x="60.818359" xlink:href="#d"/>
<use x="122.341797" xlink:href="#h"/>
<use x="163.439453" xlink:href="#j"/>
<use x="260.851562" xlink:href="#k"/>
<use x="288.634766" xlink:href="#g"/>
<use x="352.013672" xlink:href="#f"/>
<use x="413.292969" xlink:href="#i"/>
</g>
</g>
<path d="m1212.2 803.94v35.285q0 2.4 2.4 2.4h7.7425q2.4 0 2.4-2.4v-35.285q0-2.4-2.4-2.4h-7.7425q-2.4 0-2.4 2.4z" clip-path="url(#a)" fill="#fff" stroke="#fff"/>
<g clip-path="url(#a)">
<g transform="translate(1216.3 803.94) rotate(90) scale(.08 -.08)">
<use xlink:href="#l"/>
<use x="60.818359" xlink:href="#d"/>
<use x="122.341797" xlink:href="#h"/>
<use x="163.439453" xlink:href="#j"/>
<use x="260.851562" xlink:href="#k"/>
<use x="288.634766" xlink:href="#g"/>
<use x="352.013672" xlink:href="#f"/>
<use x="413.292969" xlink:href="#i"/>
</g>
</g>
<path d="m1299.2 549.43 1.8693-5.1433q0.81979-2.2556-1.4359-3.0754l-7.2768-2.6447q-2.2556-0.81979-3.0754 1.4359l-1.8693 5.1433q-0.81979 2.2556 1.4359 3.0754l7.2768 2.6447q2.2556 0.81979 3.0754-1.4359z" clip-path="url(#a)" fill="#fff" stroke="#fff"/>
<g clip-path="url(#a)">
<g transform="translate(1295.4 548.04) rotate(-70.027) scale(.08 -.08)">
<use xlink:href="#m"/>
</g>
</g>
<path d="m1347.6 547.95 0.65021-4.7797q0.3235-2.3781-2.0546-2.7016l-7.6718-1.0436q-2.3781-0.32351-2.7016 2.0546l-0.65021 4.7797q-0.3235 2.3781 2.0546 2.7016l7.6718 1.0436q2.3781 0.3235 2.7016-2.0546z" clip-path="url(#a)" fill="#fff" stroke="#fff"/>
<g clip-path="url(#a)">
<g transform="translate(1343.5 547.4) rotate(-82.253) scale(.08 -.08)">
<use xlink:href="#t"/>
</g>
</g>
<path d="m1323.3 549.22 1.4925-5.9764q0.58151-2.3285-1.747-2.91l-7.5118-1.876q-2.3285-0.58151-2.91 1.747l-1.4925 5.9764q-0.58151 2.3285 1.747 2.91l7.5118 1.876q2.3285 0.58151 2.91-1.747z" clip-path="url(#a)" fill="#fff" stroke="#fff"/>
<g clip-path="url(#a)">
<g transform="translate(1319.4 548.24) rotate(-75.978) scale(.08 -.08)">
<use xlink:href="#ao"/>
</g>
</g>
<path d="m1371.6 547.38 0.11287-5.0537q0.053589-2.3994-2.3458-2.453l-7.7406-0.17288q-2.3994-0.053589-2.453 2.3458l-0.11287 5.0537q-0.053589 2.3994 2.3458 2.453l7.7406 0.17288q2.3994 0.053589 2.453-2.3458z" clip-path="url(#a)" fill="#fff" stroke="#fff"/>
<g clip-path="url(#a)">
<g transform="translate(1367.5 547.29) rotate(-88.721) scale(.08 -.08)">
<use xlink:href="#w"/>
</g>
</g>
<path d="m1394.2 474.98 1.179 5.344q0.51704 2.3436 2.8607 1.8266l7.5607-1.668q2.3436-0.51704 1.8266-2.8607l-1.179-5.344q-0.51704-2.3436-2.8607-1.8266l-7.5607 1.668q-2.3436 0.51704-1.8266 2.8607z" clip-path="url(#a)" fill="#fff" stroke="#fff"/>
<g clip-path="url(#a)">
<g transform="translate(1398.2 474.11) rotate(77.559) scale(.08 -.08)">
<use xlink:href="#m"/>
</g>
</g>
<path d="m1429.6 543.77 1.8177 5.7023q0.72891 2.2866 3.0155 1.5577l7.3768-2.3515q2.2866-0.72891 1.5577-3.0155l-1.8177-5.7023q-0.72891-2.2866-3.0155-1.5577l-7.3768 2.3515q-2.2866 0.72891-1.5577 3.0155z" clip-path="url(#a)" fill="#fff" stroke="#fff"/>
<g clip-path="url(#a)">
<defs>
<path id="ar" d="m9.8125 72.906h13.281l32.328-60.984v60.984h9.5625v-72.906h-13.281l-32.312 60.984v-60.984h-9.5781z"/>
</defs>
<g transform="translate(1433.5 542.53) rotate(72.319) scale(.08 -.08)">
<use xlink:href="#ar"/>
</g>
</g>
<path d="m1427.2 409.34 3.2231 3.5889q1.6036 1.7856 3.3892 0.18202l5.7605-5.1733q1.7856-1.6036 0.18202-3.3892l-3.2231-3.5889q-1.6036-1.7856-3.3892-0.18202l-5.7605 5.1733q-1.7856 1.6036-0.18202 3.3892z" clip-path="url(#a)" fill="#fff" stroke="#fff"/>
<g clip-path="url(#a)">
<g transform="translate(1430.3 406.62) rotate(48.074) scale(.08 -.08)">
<use xlink:href="#t"/>
</g>
</g>
<path d="m1307 803.94v35.285q0 2.4 2.4 2.4h7.7425q2.4 0 2.4-2.4v-35.285q0-2.4-2.4-2.4h-7.7425q-2.4 0-2.4 2.4z" clip-path="url(#a)" fill="#fff" stroke="#fff"/>
<g clip-path="url(#a)">
<g transform="translate(1311.1 803.94) rotate(90) scale(.08 -.08)">
<use xlink:href="#l"/>
<use x="60.818359" xlink:href="#d"/>
<use x="122.341797" xlink:href="#h"/>
<use x="163.439453" xlink:href="#j"/>
<use x="260.851562" xlink:href="#k"/>
<use x="288.634766" xlink:href="#g"/>
<use x="352.013672" xlink:href="#f"/>
<use x="413.292969" xlink:href="#i"/>
</g>
</g>
<path d="m548.56 803.94v35.285q0 2.4 2.4 2.4h7.7425q2.4 0 2.4-2.4v-35.285q0-2.4-2.4-2.4h-7.7425q-2.4 0-2.4 2.4z" clip-path="url(#a)" fill="#fff" stroke="#fff"/>
<g clip-path="url(#a)">
<g transform="translate(552.62 803.94) rotate(90) scale(.08 -.08)">
<use xlink:href="#l"/>
<use x="60.818359" xlink:href="#d"/>
<use x="122.341797" xlink:href="#h"/>
<use x="163.439453" xlink:href="#j"/>
<use x="260.851562" xlink:href="#k"/>
<use x="288.634766" xlink:href="#g"/>
<use x="352.013672" xlink:href="#f"/>
<use x="413.292969" xlink:href="#i"/>
</g>
</g>
<path d="m631.14 683.14 0.93416 5.3922q0.40968 2.3648 2.7745 1.9551l7.6289-1.3217q2.3648-0.40968 1.9551-2.7745l-0.93416-5.3922q-0.40968-2.3648-2.7745-1.9551l-7.6289 1.3217q-2.3648 0.40968-1.9551 2.7745z" clip-path="url(#a)" fill="#fff" stroke="#fff"/>
<g clip-path="url(#a)">
<g transform="translate(635.15 682.45) rotate(80.171) scale(.08 -.08)">
<use xlink:href="#m"/>
</g>
</g>
<path d="m619.83 688.34 0.86695-5.0042q0.40968-2.3648-1.9551-2.7745l-7.6289-1.3217q-2.3648-0.40968-2.7745 1.9551l-0.86695 5.0042q-0.40968 2.3648 1.9551 2.7745l7.6289 1.3217q2.3648 0.40968 2.7745-1.9551z" clip-path="url(#a)" fill="#fff" stroke="#fff"/>
<g clip-path="url(#a)">
<g transform="translate(615.83 687.65) rotate(-80.171) scale(.08 -.08)">
<use xlink:href="#al"/>
</g>
</g>
<path d="m595.96 803.94v35.285q0 2.4 2.4 2.4h7.7425q2.4 0 2.4-2.4v-35.285q0-2.4-2.4-2.4h-7.7425q-2.4 0-2.4 2.4z" clip-path="url(#a)" fill="#fff" stroke="#fff"/>
<g clip-path="url(#a)">
<g transform="translate(600.03 803.94) rotate(90) scale(.08 -.08)">
<use xlink:href="#l"/>
<use x="60.818359" xlink:href="#d"/>
<use x="122.341797" xlink:href="#h"/>
<use x="163.439453" xlink:href="#j"/>
<use x="260.851562" xlink:href="#k"/>
<use x="288.634766" xlink:href="#g"/>
<use x="352.013672" xlink:href="#f"/>
<use x="413.292969" xlink:href="#i"/>
</g>
</g>
<path d="m880.4 803.94v35.285q0 2.4 2.4 2.4h7.7425q2.4 0 2.4-2.4v-35.285q0-2.4-2.4-2.4h-7.7425q-2.4 0-2.4 2.4z" clip-path="url(#a)" fill="#fff" stroke="#fff"/>
<g clip-path="url(#a)">
<g transform="translate(884.46 803.94) rotate(90) scale(.08 -.08)">
<use xlink:href="#l"/>
<use x="60.818359" xlink:href="#d"/>
<use x="122.341797" xlink:href="#h"/>
<use x="163.439453" xlink:href="#j"/>
<use x="260.851562" xlink:href="#k"/>
<use x="288.634766" xlink:href="#g"/>
<use x="352.013672" xlink:href="#f"/>
<use x="413.292969" xlink:href="#i"/>
</g>
</g>
<path d="m1259.6 803.94v35.285q0 2.4 2.4 2.4h7.7425q2.4 0 2.4-2.4v-35.285q0-2.4-2.4-2.4h-7.7425q-2.4 0-2.4 2.4z" clip-path="url(#a)" fill="#fff" stroke="#fff"/>
<g clip-path="url(#a)">
<g transform="translate(1263.7 803.94) rotate(90) scale(.08 -.08)">
<use xlink:href="#l"/>
<use x="60.818359" xlink:href="#d"/>
<use x="122.341797" xlink:href="#h"/>
<use x="163.439453" xlink:href="#j"/>
<use x="260.851562" xlink:href="#k"/>
<use x="288.634766" xlink:href="#g"/>
<use x="352.013672" xlink:href="#f"/>
<use x="413.292969" xlink:href="#i"/>
</g>
</g>
<path d="m1354.5 803.94v35.285q0 2.4 2.4 2.4h7.7425q2.4 0 2.4-2.4v-35.285q0-2.4-2.4-2.4h-7.7425q-2.4 0-2.4 2.4z" clip-path="url(#a)" fill="#fff" stroke="#fff"/>
<g clip-path="url(#a)">
<g transform="translate(1358.5 803.94) rotate(90) scale(.08 -.08)">
<use xlink:href="#l"/>
<use x="60.818359" xlink:href="#d"/>
<use x="122.341797" xlink:href="#h"/>
<use x="163.439453" xlink:href="#j"/>
<use x="260.851562" xlink:href="#k"/>
<use x="288.634766" xlink:href="#g"/>
<use x="352.013672" xlink:href="#f"/>
<use x="413.292969" xlink:href="#i"/>
</g>
</g>
<path d="m1437 683.09 0.95358 5.5043q0.40968 2.3648 2.7745 1.9551l7.6289-1.3216q2.3648-0.40968 1.9551-2.7745l-0.95358-5.5043q-0.40968-2.3648-2.7745-1.9551l-7.6289 1.3217q-2.3648 0.40968-1.9551 2.7745z" clip-path="url(#a)" fill="#fff" stroke="#fff"/>
<g clip-path="url(#a)">
<g transform="translate(1441 682.39) rotate(80.171) scale(.08 -.08)">
<use xlink:href="#ac"/>
</g>
</g>
<path d="m1425.7 688.33 0.86289-4.9808q0.40968-2.3648-1.9551-2.7745l-7.6289-1.3217q-2.3648-0.40968-2.7745 1.9551l-0.86289 4.9808q-0.40968 2.3648 1.9551 2.7745l7.6289 1.3217q2.3648 0.40968 2.7745-1.9551z" clip-path="url(#a)" fill="#fff" stroke="#fff"/>
<g clip-path="url(#a)">
<g transform="translate(1421.7 687.64) rotate(-80.171) scale(.08 -.08)">
<use xlink:href="#w"/>
</g>
</g>
<path d="m1449.3 803.94v35.285q0 2.4 2.4 2.4h7.7425q2.4 0 2.4-2.4v-35.285q0-2.4-2.4-2.4h-7.7425q-2.4 0-2.4 2.4z" clip-path="url(#a)" fill="#fff" stroke="#fff"/>
<g clip-path="url(#a)">
<g transform="translate(1453.3 803.94) rotate(90) scale(.08 -.08)">
<use xlink:href="#l"/>
<use x="60.818359" xlink:href="#d"/>
<use x="122.341797" xlink:href="#h"/>
<use x="163.439453" xlink:href="#j"/>
<use x="260.851562" xlink:href="#k"/>
<use x="288.634766" xlink:href="#g"/>
<use x="352.013672" xlink:href="#f"/>
<use x="413.292969" xlink:href="#i"/>
</g>
</g>
<path d="m1496.7 803.94v35.285q0 2.4 2.4 2.4h7.7425q2.4 0 2.4-2.4v-35.285q0-2.4-2.4-2.4h-7.7425q-2.4 0-2.4 2.4z" clip-path="url(#a)" fill="#fff" stroke="#fff"/>
<g clip-path="url(#a)">
<g transform="translate(1500.7 803.94) rotate(90) scale(.08 -.08)">
<use xlink:href="#l"/>
<use x="60.818359" xlink:href="#d"/>
<use x="122.341797" xlink:href="#h"/>
<use x="163.439453" xlink:href="#j"/>
<use x="260.851562" xlink:href="#k"/>
<use x="288.634766" xlink:href="#g"/>
<use x="352.013672" xlink:href="#f"/>
<use x="413.292969" xlink:href="#i"/>
</g>
</g>
<path d="m1360.2 621.79 3.8903-3.8489q1.7061-1.6879 0.018188-3.3941l-5.4454-5.504q-1.6879-1.7061-3.3941-0.018188l-3.8903 3.8489q-1.7061 1.6879-0.018187 3.3941l5.4454 5.504q1.6879 1.7061 3.3941 0.018188z" clip-path="url(#a)" fill="#fff" stroke="#fff"/>
<g clip-path="url(#a)">
<g transform="translate(1357.4 618.9) rotate(-44.693) scale(.08 -.08)">
<use xlink:href="#m"/>
</g>
</g>
<path d="m1517.1 614.23 0.91664 4.7359q0.45606 2.3563 2.8123 1.9002l7.6014-1.4713q2.3563-0.45606 1.9002-2.8123l-0.91664-4.7359q-0.45606-2.3563-2.8123-1.9002l-7.6014 1.4713q-2.3563 0.45606-1.9002 2.8123z" clip-path="url(#a)" fill="#fff" stroke="#fff"/>
<g clip-path="url(#a)">
<g transform="translate(1521.1 613.46) rotate(79.046) scale(.08 -.08)">
<use xlink:href="#t"/>
</g>
</g>
<path d="m1540.6 614.99 1.8791 5.1398q0.82409 2.2541 3.0782 1.43l7.2718-2.6586q2.2541-0.82409 1.43-3.0782l-1.8791-5.1398q-0.82409-2.2541-3.0782-1.43l-7.2718 2.6586q-2.2541 0.82409-1.43 3.0782z" clip-path="url(#a)" fill="#fff" stroke="#fff"/>
<g clip-path="url(#a)">
<g transform="translate(1544.4 613.6) rotate(69.918) scale(.08 -.08)">
<use xlink:href="#m"/>
</g>
</g>
<path d="m1552.7 549.15 3.6543 4.0736q1.6026 1.7865 3.3891 0.18392l5.7634-5.1701q1.7865-1.6026 0.18392-3.3891l-3.6543-4.0736q-1.6026-1.7865-3.3891-0.18392l-5.7634 5.1701q-1.7865 1.6026-0.18392 3.3891z" clip-path="url(#a)" fill="#fff" stroke="#fff"/>
<g clip-path="url(#a)">
<g transform="translate(1555.8 546.44) rotate(48.106) scale(.08 -.08)">
<use xlink:href="#m"/>
</g>
</g>
<path d="m1544.1 803.94v35.285q0 2.4 2.4 2.4h7.7425q2.4 0 2.4-2.4v-35.285q0-2.4-2.4-2.4h-7.7425q-2.4 0-2.4 2.4z" clip-path="url(#a)" fill="#fff" stroke="#fff"/>
<g clip-path="url(#a)">
<g transform="translate(1548.1 803.94) rotate(90) scale(.08 -.08)">
<use xlink:href="#l"/>
<use x="60.818359" xlink:href="#d"/>
<use x="122.341797" xlink:href="#h"/>
<use x="163.439453" xlink:href="#j"/>
<use x="260.851562" xlink:href="#k"/>
<use x="288.634766" xlink:href="#g"/>
<use x="352.013672" xlink:href="#f"/>
<use x="413.292969" xlink:href="#i"/>
</g>
</g>
<path d="m1401.9 803.94v35.285q0 2.4 2.4 2.4h7.7425q2.4 0 2.4-2.4v-35.285q0-2.4-2.4-2.4h-7.7425q-2.4 0-2.4 2.4z" clip-path="url(#a)" fill="#fff" stroke="#fff"/>
<g clip-path="url(#a)">
<g transform="translate(1405.9 803.94) rotate(90) scale(.08 -.08)">
<use xlink:href="#l"/>
<use x="60.818359" xlink:href="#d"/>
<use x="122.341797" xlink:href="#h"/>
<use x="163.439453" xlink:href="#j"/>
<use x="260.851562" xlink:href="#k"/>
<use x="288.634766" xlink:href="#g"/>
<use x="352.013672" xlink:href="#f"/>
<use x="413.292969" xlink:href="#i"/>
</g>
</g>
<path d="m1591.5 803.94v35.285q0 2.4 2.4 2.4h7.7425q2.4 0 2.4-2.4v-35.285q0-2.4-2.4-2.4h-7.7425q-2.4 0-2.4 2.4z" clip-path="url(#a)" fill="#fff" stroke="#fff"/>
<g clip-path="url(#a)">
<g transform="translate(1595.5 803.94) rotate(90) scale(.08 -.08)">
<use xlink:href="#l"/>
<use x="60.818359" xlink:href="#d"/>
<use x="122.341797" xlink:href="#h"/>
<use x="163.439453" xlink:href="#j"/>
<use x="260.851562" xlink:href="#k"/>
<use x="288.634766" xlink:href="#g"/>
<use x="352.013672" xlink:href="#f"/>
<use x="413.292969" xlink:href="#i"/>
</g>
</g>
<path d="m1615.3 688.54 0.93416-5.3922q0.40968-2.3648-1.9551-2.7745l-7.6289-1.3217q-2.3648-0.40968-2.7745 1.9551l-0.93416 5.3922q-0.40968 2.3648 1.9551 2.7745l7.6289 1.3217q2.3648 0.40968 2.7745-1.9551z" clip-path="url(#a)" fill="#fff" stroke="#fff"/>
<g clip-path="url(#a)">
<g transform="translate(1611.3 687.84) rotate(-80.171) scale(.08 -.08)">
<use xlink:href="#m"/>
</g>
</g>
<path d="m1626.7 683.46 0.82342 4.753q0.40968 2.3648 2.7745 1.9551l7.6289-1.3217q2.3648-0.40968 1.9551-2.7745l-0.82342-4.753q-0.40968-2.3648-2.7745-1.9551l-7.6289 1.3217q-2.3648 0.40968-1.9551 2.7745z" clip-path="url(#a)" fill="#fff" stroke="#fff"/>
<g clip-path="url(#a)">
<g transform="translate(1630.7 682.77) rotate(80.171) scale(.08 -.08)">
<use xlink:href="#t"/>
</g>
</g>
<path d="m1638.9 803.94v35.285q0 2.4 2.4 2.4h7.7425q2.4 0 2.4-2.4v-35.285q0-2.4-2.4-2.4h-7.7425q-2.4 0-2.4 2.4z" clip-path="url(#a)" fill="#fff" stroke="#fff"/>
<g clip-path="url(#a)">
<g transform="translate(1642.9 803.94) rotate(90) scale(.08 -.08)">
<use xlink:href="#l"/>
<use x="60.818359" xlink:href="#d"/>
<use x="122.341797" xlink:href="#h"/>
<use x="163.439453" xlink:href="#j"/>
<use x="260.851562" xlink:href="#k"/>
<use x="288.634766" xlink:href="#g"/>
<use x="352.013672" xlink:href="#f"/>
<use x="413.292969" xlink:href="#i"/>
</g>
</g>
<defs>
<path id="b" d="m0 8.6603c2.2967 0 4.4997-0.9125 6.1237-2.5365 1.624-1.624 2.5365-3.827 2.5365-6.1237s-0.9125-4.4997-2.5365-6.1237c-1.624-1.624-3.827-2.5365-6.1237-2.5365s-4.4997 0.9125-6.1237 2.5365c-1.624 1.624-2.5365 3.827-2.5365 6.1237s0.9125 4.4997 2.5365 6.1237c1.624 1.624 3.827 2.5365 6.1237 2.5365z"/>
</defs>
<g clip-path="url(#a)">
<use x="80.772748" y="889.995044" fill="#ffffff" stroke="#ffffff" xlink:href="#b"/>
</g>
<g clip-path="url(#a)">
<use x="128.178272" y="889.995044" fill="#ffffff" stroke="#ffffff" xlink:href="#b"/>
</g>
<g clip-path="url(#a)">
<use x="175.583797" y="889.995044" fill="#ffffff" stroke="#ffffff" xlink:href="#b"/>
</g>
<g clip-path="url(#a)">
<use x="222.989322" y="889.995044" fill="#ffffff" stroke="#ffffff" xlink:href="#b"/>
</g>
<g clip-path="url(#a)">
<use x="270.394846" y="889.995044" fill="#ffffff" stroke="#ffffff" xlink:href="#b"/>
</g>
<g clip-path="url(#a)">
<use x="317.800371" y="889.995044" fill="#ffffff" stroke="#ffffff" xlink:href="#b"/>
</g>
<g clip-path="url(#a)">
<use x="365.205896" y="889.995044" fill="#ffffff" stroke="#ffffff" xlink:href="#b"/>
</g>
<g clip-path="url(#a)">
<use x="412.61142" y="889.995044" fill="#ffffff" stroke="#ffffff" xlink:href="#b"/>
</g>
<g clip-path="url(#a)">
<use x="460.016945" y="889.995044" fill="#ffffff" stroke="#ffffff" xlink:href="#b"/>
</g>
<g clip-path="url(#a)">
<use x="507.422469" y="889.995044" fill="#ffffff" stroke="#ffffff" xlink:href="#b"/>
</g>
<g clip-path="url(#a)">
<use x="554.827994" y="889.995044" fill="#ffffff" stroke="#ffffff" xlink:href="#b"/>
</g>
<g clip-path="url(#a)">
<use x="602.233519" y="889.995044" fill="#ffffff" stroke="#ffffff" xlink:href="#b"/>
</g>
<g clip-path="url(#a)">
<use x="649.639043" y="889.995044" fill="#ffffff" stroke="#ffffff" xlink:href="#b"/>
</g>
<g clip-path="url(#a)">
<use x="697.044568" y="889.995044" fill="#ffffff" stroke="#ffffff" xlink:href="#b"/>
</g>
<g clip-path="url(#a)">
<use x="744.450093" y="889.995044" fill="#ffffff" stroke="#ffffff" xlink:href="#b"/>
</g>
<g clip-path="url(#a)">
<use x="791.855617" y="889.995044" fill="#ffffff" stroke="#ffffff" xlink:href="#b"/>
</g>
<g clip-path="url(#a)">
<use x="839.261142" y="889.995044" fill="#ffffff" stroke="#ffffff" xlink:href="#b"/>
</g>
<g clip-path="url(#a)">
<use x="886.666667" y="889.995044" fill="#ffffff" stroke="#ffffff" xlink:href="#b"/>
</g>
<g clip-path="url(#a)">
<use x="934.072191" y="889.995044" fill="#ffffff" stroke="#ffffff" xlink:href="#b"/>
</g>
<g clip-path="url(#a)">
<use x="981.477716" y="889.995044" fill="#ffffff" stroke="#ffffff" xlink:href="#b"/>
</g>
<g clip-path="url(#a)">
<use x="1028.883241" y="889.995044" fill="#ffffff" stroke="#ffffff" xlink:href="#b"/>
</g>
<g clip-path="url(#a)">
<use x="1076.288765" y="889.995044" fill="#ffffff" stroke="#ffffff" xlink:href="#b"/>
</g>
<g clip-path="url(#a)">
<use x="1123.69429" y="889.995044" fill="#ffffff" stroke="#ffffff" xlink:href="#b"/>
</g>
<g clip-path="url(#a)">
<use x="1171.099815" y="889.995044" fill="#ffffff" stroke="#ffffff" xlink:href="#b"/>
</g>
<g clip-path="url(#a)">
<use x="1218.505339" y="889.995044" fill="#ffffff" stroke="#ffffff" xlink:href="#b"/>
</g>
<g clip-path="url(#a)">
<use x="1265.910864" y="889.995044" fill="#ffffff" stroke="#ffffff" xlink:href="#b"/>
</g>
<g clip-path="url(#a)">
<use x="1313.316389" y="889.995044" fill="#ffffff" stroke="#ffffff" xlink:href="#b"/>
</g>
<g clip-path="url(#a)">
<use x="1360.721913" y="889.995044" fill="#ffffff" stroke="#ffffff" xlink:href="#b"/>
</g>
<g clip-path="url(#a)">
<use x="1408.127438" y="889.995044" fill="#ffffff" stroke="#ffffff" xlink:href="#b"/>
</g>
<g clip-path="url(#a)">
<use x="1455.532962" y="889.995044" fill="#ffffff" stroke="#ffffff" xlink:href="#b"/>
</g>
<g clip-path="url(#a)">
<use x="1502.938487" y="889.995044" fill="#ffffff" stroke="#ffffff" xlink:href="#b"/>
</g>
<g clip-path="url(#a)">
<use x="1550.344012" y="889.995044" fill="#ffffff" stroke="#ffffff" xlink:href="#b"/>
</g>
<g clip-path="url(#a)">
<use x="1597.749536" y="889.995044" fill="#ffffff" stroke="#ffffff" xlink:href="#b"/>
</g>
<g clip-path="url(#a)">
<use x="1645.155061" y="889.995044" fill="#ffffff" stroke="#ffffff" xlink:href="#b"/>
</g>
<g clip-path="url(#a)">
<use x="1692.560586" y="889.995044" fill="#ffffff" stroke="#ffffff" xlink:href="#b"/>
</g>
<g clip-path="url(#a)">
<use x="695.98876" y="43.338289" fill="#ffffff" stroke="#ffffff" xlink:href="#b"/>
</g>
<g clip-path="url(#a)">
<use x="533.100462" y="336.246839" fill="#ffffff" stroke="#ffffff" xlink:href="#b"/>
</g>
<g clip-path="url(#a)">
<use x="128.178272" y="753.177429" fill="#ffffff" stroke="#ffffff" xlink:href="#b"/>
</g>
<g clip-path="url(#a)">
<use x="80.772748" y="753.177429" fill="#ffffff" stroke="#ffffff" xlink:href="#b"/>
</g>
<g clip-path="url(#a)">
<use x="230.890242" y="477.638914" fill="#ffffff" stroke="#ffffff" xlink:href="#b"/>
</g>
<g clip-path="url(#a)">
<use x="270.394846" y="753.177429" fill="#ffffff" stroke="#ffffff" xlink:href="#b"/>
</g>
<g clip-path="url(#a)">
<use x="317.800371" y="753.177429" fill="#ffffff" stroke="#ffffff" xlink:href="#b"/>
</g>
<g clip-path="url(#a)">
<use x="318.294178" y="191.633114" fill="#ffffff" stroke="#ffffff" xlink:href="#b"/>
</g>
<g clip-path="url(#a)">
<use x="412.61142" y="753.177429" fill="#ffffff" stroke="#ffffff" xlink:href="#b"/>
</g>
<g clip-path="url(#a)">
<use x="785.929927" y="336.246839" fill="#ffffff" stroke="#ffffff" xlink:href="#b"/>
</g>
<g clip-path="url(#a)">
<use x="791.855617" y="753.177429" fill="#ffffff" stroke="#ffffff" xlink:href="#b"/>
</g>
<g clip-path="url(#a)">
<use x="1692.560586" y="753.177429" fill="#ffffff" stroke="#ffffff" xlink:href="#b"/>
</g>
<g clip-path="url(#a)">
<use x="175.583797" y="753.177429" fill="#ffffff" stroke="#ffffff" xlink:href="#b"/>
</g>
<g clip-path="url(#a)">
<use x="246.692084" y="616.359813" fill="#ffffff" stroke="#ffffff" xlink:href="#b"/>
</g>
<g clip-path="url(#a)">
<use x="222.989322" y="753.177429" fill="#ffffff" stroke="#ffffff" xlink:href="#b"/>
</g>
<g clip-path="url(#a)">
<use x="365.205896" y="753.177429" fill="#ffffff" stroke="#ffffff" xlink:href="#b"/>
</g>
<g clip-path="url(#a)">
<use x="414.58665" y="336.246839" fill="#ffffff" stroke="#ffffff" xlink:href="#b"/>
</g>
<g clip-path="url(#a)">
<use x="507.422469" y="753.177429" fill="#ffffff" stroke="#ffffff" xlink:href="#b"/>
</g>
<g clip-path="url(#a)">
<use x="697.044568" y="753.177429" fill="#ffffff" stroke="#ffffff" xlink:href="#b"/>
</g>
<g clip-path="url(#a)">
<use x="744.450093" y="753.177429" fill="#ffffff" stroke="#ffffff" xlink:href="#b"/>
</g>
<g clip-path="url(#a)">
<use x="910.369429" y="477.638914" fill="#ffffff" stroke="#ffffff" xlink:href="#b"/>
</g>
<g clip-path="url(#a)">
<use x="981.477716" y="753.177429" fill="#ffffff" stroke="#ffffff" xlink:href="#b"/>
</g>
<g clip-path="url(#a)">
<use x="1028.883241" y="753.177429" fill="#ffffff" stroke="#ffffff" xlink:href="#b"/>
</g>
<g clip-path="url(#a)">
<use x="1191.924384" y="191.633114" fill="#ffffff" stroke="#ffffff" xlink:href="#b"/>
</g>
<g clip-path="url(#a)">
<use x="1171.099815" y="753.177429" fill="#ffffff" stroke="#ffffff" xlink:href="#b"/>
</g>
<g clip-path="url(#a)">
<use x="460.016945" y="753.177429" fill="#ffffff" stroke="#ffffff" xlink:href="#b"/>
</g>
<g clip-path="url(#a)">
<use x="610.13444" y="477.638914" fill="#ffffff" stroke="#ffffff" xlink:href="#b"/>
</g>
<g clip-path="url(#a)">
<use x="649.639043" y="753.177429" fill="#ffffff" stroke="#ffffff" xlink:href="#b"/>
</g>
<g clip-path="url(#a)">
<use x="839.261142" y="753.177429" fill="#ffffff" stroke="#ffffff" xlink:href="#b"/>
</g>
<g clip-path="url(#a)">
<use x="910.369429" y="616.359813" fill="#ffffff" stroke="#ffffff" xlink:href="#b"/>
</g>
<g clip-path="url(#a)">
<use x="934.072191" y="753.177429" fill="#ffffff" stroke="#ffffff" xlink:href="#b"/>
</g>
<g clip-path="url(#a)">
<use x="1076.288765" y="753.177429" fill="#ffffff" stroke="#ffffff" xlink:href="#b"/>
</g>
<g clip-path="url(#a)">
<use x="1123.69429" y="753.177429" fill="#ffffff" stroke="#ffffff" xlink:href="#b"/>
</g>
<g clip-path="url(#a)">
<use x="1218.505339" y="753.177429" fill="#ffffff" stroke="#ffffff" xlink:href="#b"/>
</g>
<g clip-path="url(#a)">
<use x="1370.033713" y="336.246839" fill="#ffffff" stroke="#ffffff" xlink:href="#b"/>
</g>
<g clip-path="url(#a)">
<use x="1313.316389" y="753.177429" fill="#ffffff" stroke="#ffffff" xlink:href="#b"/>
</g>
<g clip-path="url(#a)">
<use x="554.827994" y="753.177429" fill="#ffffff" stroke="#ffffff" xlink:href="#b"/>
</g>
<g clip-path="url(#a)">
<use x="625.936281" y="616.359813" fill="#ffffff" stroke="#ffffff" xlink:href="#b"/>
</g>
<g clip-path="url(#a)">
<use x="602.233519" y="753.177429" fill="#ffffff" stroke="#ffffff" xlink:href="#b"/>
</g>
<g clip-path="url(#a)">
<use x="886.666667" y="753.177429" fill="#ffffff" stroke="#ffffff" xlink:href="#b"/>
</g>
<g clip-path="url(#a)">
<use x="1265.910864" y="753.177429" fill="#ffffff" stroke="#ffffff" xlink:href="#b"/>
</g>
<g clip-path="url(#a)">
<use x="1360.721913" y="753.177429" fill="#ffffff" stroke="#ffffff" xlink:href="#b"/>
</g>
<g clip-path="url(#a)">
<use x="1431.8302" y="616.359813" fill="#ffffff" stroke="#ffffff" xlink:href="#b"/>
</g>
<g clip-path="url(#a)">
<use x="1455.532962" y="753.177429" fill="#ffffff" stroke="#ffffff" xlink:href="#b"/>
</g>
<g clip-path="url(#a)">
<use x="1502.938487" y="753.177429" fill="#ffffff" stroke="#ffffff" xlink:href="#b"/>
</g>
<g clip-path="url(#a)">
<use x="1497.012797" y="477.638914" fill="#ffffff" stroke="#ffffff" xlink:href="#b"/>
</g>
<g clip-path="url(#a)">
<use x="1550.344012" y="753.177429" fill="#ffffff" stroke="#ffffff" xlink:href="#b"/>
</g>
<g clip-path="url(#a)">
<use x="1408.127438" y="753.177429" fill="#ffffff" stroke="#ffffff" xlink:href="#b"/>
</g>
<g clip-path="url(#a)">
<use x="1597.749536" y="753.177429" fill="#ffffff" stroke="#ffffff" xlink:href="#b"/>
</g>
<g clip-path="url(#a)">
<use x="1621.452299" y="616.359813" fill="#ffffff" stroke="#ffffff" xlink:href="#b"/>
</g>
<g clip-path="url(#a)">
<use x="1645.155061" y="753.177429" fill="#ffffff" stroke="#ffffff" xlink:href="#b"/>
</g>
<g clip-path="url(#a)">
<defs>
<path id="ak" d="m4.2031 54.688h8.9844l11.234-42.672 11.172 42.672h10.594l11.234-42.672 11.188 42.672h8.9844l-14.312-54.688h-10.594l-11.766 44.828-11.812-44.828h-10.609z"/>
</defs>
<g transform="translate(73.607 892.75) scale(.1 -.1)">
<use xlink:href="#ak"/>
<use x="81.787109" xlink:href="#d"/>
</g>
</g>
<g clip-path="url(#a)">
<defs>
<path id="z" d="m18.109 8.2031v-29h-9.0312v75.484h9.0312v-8.2969q2.8438 4.875 7.1562 7.2344 4.3281 2.375 10.328 2.375 9.9688 0 16.188-7.9062 6.2344-7.9062 6.2344-20.797t-6.2344-20.812q-6.2188-7.9062-16.188-7.9062-6 0-10.328 2.375-4.3125 2.375-7.1562 7.25zm30.578 19.094q0 9.9062-4.0781 15.547t-11.203 5.6406q-7.1406 0-11.219-5.6406t-4.0781-15.547 4.0781-15.547 11.219-5.6406q7.125 0 11.203 5.6406t4.0781 15.547z"/>
<path id="s" d="m8.5 21.578v33.109h8.9844v-32.766q0-7.7656 3.0156-11.656 3.0312-3.875 9.0938-3.875 7.2656 0 11.484 4.6406 4.2344 4.6406 4.2344 12.656v31h8.9844v-54.688h-8.9844v8.4062q-3.2656-4.9844-7.5938-7.4062-4.3125-2.4219-10.031-2.4219-9.4219 0-14.312 5.8594-4.875 5.8594-4.875 17.141z"/>
<path id="aa" d="m48.781 52.594v-8.4062q-3.8125 2.1094-7.6406 3.1562t-7.7344 1.0469q-8.75 0-13.594-5.5469-4.8281-5.5312-4.8281-15.547t4.8281-15.562q4.8438-5.5312 13.594-5.5312 3.9062 0 7.7344 1.0469t7.6406 3.1562v-8.3125q-3.7656-1.75-7.7969-2.625-4.0156-0.89062-8.5625-0.89062-12.359 0-19.641 7.7656-7.2656 7.7656-7.2656 20.953 0 13.375 7.3438 21.031 7.3594 7.6719 20.156 7.6719 4.1406 0 8.0938-0.85938 3.9531-0.84375 7.6719-2.5469z"/>
<path id="v" d="m54.891 33.016v-33.016h-8.9844v32.719q0 7.7656-3.0312 11.609-3.0312 3.8594-9.0781 3.8594-7.2812 0-11.484-4.6406-4.2031-4.625-4.2031-12.641v-30.906h-9.0312v75.984h9.0312v-29.797q3.2344 4.9375 7.5938 7.375 4.375 2.4375 10.094 2.4375 9.4219 0 14.25-5.8281 4.8438-5.8281 4.8438-17.156z"/>
<path id="u" d="m44.281 53.078v-8.5q-3.7969 1.9531-7.9062 2.9219-4.0938 0.98438-8.5 0.98438-6.6875 0-10.031-2.0469t-3.3438-6.1562q0-3.125 2.3906-4.9062t9.625-3.3906l3.0781-0.6875q9.5625-2.0469 13.594-5.7812t4.0312-10.422q0-7.625-6.0312-12.078-6.0312-4.4375-16.578-4.4375-4.3906 0-9.1562 0.85938t-10.031 2.5625v9.2812q4.9844-2.5938 9.8125-3.8906 4.8281-1.2812 9.5781-1.2812 6.3438 0 9.75 2.1719 3.4219 2.1719 3.4219 6.125 0 3.6562-2.4688 5.6094-2.4531 1.9531-10.812 3.7656l-3.125 0.73438q-8.3438 1.75-12.062 5.3906-3.7031 3.6406-3.7031 9.9844 0 7.7188 5.4688 11.906 5.4688 4.2031 15.531 4.2031 4.9688 0 9.3594-0.73438 4.4062-0.71875 8.1094-2.1875z"/>
<path id="y" d="m45.406 46.391v29.594h8.9844v-75.984h-8.9844v8.2031q-2.8281-4.875-7.1562-7.25-4.3125-2.375-10.375-2.375-9.9062 0-16.141 7.9062-6.2188 7.9219-6.2188 20.812t6.2188 20.797q6.2344 7.9062 16.141 7.9062 6.0625 0 10.375-2.375 4.3281-2.3594 7.1562-7.2344zm-30.609-19.094q0-9.9062 4.0781-15.547t11.203-5.6406 11.219 5.6406q4.1094 5.6406 4.1094 15.547t-4.1094 15.547q-4.0938 5.6406-11.219 5.6406t-11.203-5.6406-4.0781-15.547z"/>
</defs>
<g transform="translate(101.94 892.75) scale(.1 -.1)">
<use xlink:href="#z"/>
<use x="63.476562" xlink:href="#s"/>
<use x="126.855469" xlink:href="#h"/>
<use x="167.9375" xlink:href="#aa"/>
<use x="222.917969" xlink:href="#v"/>
<use x="286.296875" xlink:href="#f"/>
<use x="347.576172" xlink:href="#u"/>
<use x="399.675781" xlink:href="#d"/>
<use x="461.199219" xlink:href="#y"/>
</g>
</g>
<g clip-path="url(#a)">
<g transform="translate(172.52 892.75) scale(.1 -.1)">
<use xlink:href="#f"/>
</g>
</g>
<g clip-path="url(#a)">
<g transform="translate(212.65 892.75) scale(.1 -.1)">
<use xlink:href="#g"/>
<use x="63.378906" xlink:href="#d"/>
<use x="124.902344" xlink:href="#ak"/>
</g>
</g>
<g clip-path="url(#a)">
<defs>
<path id="r" d="m30.609 48.391q-7.2188 0-11.422-5.6406t-4.2031-15.453 4.1719-15.453q4.1875-5.6406 11.453-5.6406 7.1875 0 11.375 5.6562 4.2031 5.6719 4.2031 15.438 0 9.7188-4.2031 15.406-4.1875 5.6875-11.375 5.6875zm0 7.6094q11.719 0 18.406-7.625 6.7031-7.6094 6.7031-21.078 0-13.422-6.7031-21.078-6.6875-7.6406-18.406-7.6406-11.766 0-18.438 7.6406-6.6562 7.6562-6.6562 21.078 0 13.469 6.6562 21.078 6.6719 7.625 18.438 7.625z"/>
</defs>
<g transform="translate(256.22 892.75) scale(.1 -.1)">
<use xlink:href="#v"/>
<use x="63.378906" xlink:href="#r"/>
<use x="124.560547" xlink:href="#j"/>
<use x="221.972656" xlink:href="#d"/>
</g>
</g>
<g clip-path="url(#a)">
<defs>
<path id="am" d="m48.688 27.297q0 9.9062-4.0781 15.547t-11.203 5.6406q-7.1406 0-11.219-5.6406t-4.0781-15.547 4.0781-15.547 11.219-5.6406q7.125 0 11.203 5.6406t4.0781 15.547zm-30.578 19.094q2.8438 4.875 7.1562 7.2344 4.3281 2.375 10.328 2.375 9.9688 0 16.188-7.9062 6.2344-7.9062 6.2344-20.797t-6.2344-20.812q-6.2188-7.9062-16.188-7.9062-6 0-10.328 2.375-4.3125 2.375-7.1562 7.25v-8.2031h-9.0312v75.984h9.0312z"/>
<path id="q" d="m18.312 70.219v-15.531h18.5v-6.9844h-18.5v-29.688q0-6.6875 1.8281-8.5938t7.4531-1.9062h9.2188v-7.5156h-9.2188q-10.406 0-14.359 3.875-3.9531 3.8906-3.9531 14.141v29.688h-6.5938v6.9844h6.5938v15.531z"/>
</defs>
<g transform="translate(309.5 892.75) scale(.1 -.1)">
<use xlink:href="#am"/>
<use x="63.476562" xlink:href="#s"/>
<use x="126.855469" xlink:href="#q"/>
</g>
</g>
<g clip-path="url(#a)">
<g transform="translate(355.45 892.75) scale(.1 -.1)">
<use xlink:href="#ak"/>
<use x="81.787109" xlink:href="#f"/>
<use x="143.066406" xlink:href="#u"/>
</g>
</g>
<g clip-path="url(#a)">
<g transform="translate(395.57 892.75) scale(.1 -.1)">
<use xlink:href="#s"/>
<use x="63.378906" xlink:href="#g"/>
<use x="126.757812" xlink:href="#f"/>
<use x="188.037109" xlink:href="#am"/>
<use x="251.513672" xlink:href="#i"/>
<use x="279.296875" xlink:href="#d"/>
</g>
</g>
<g clip-path="url(#a)">
<g transform="translate(455 892.75) scale(.1 -.1)">
<use xlink:href="#q"/>
<use x="39.208984" xlink:href="#r"/>
</g>
</g>
<g clip-path="url(#a)">
<g transform="translate(498.96 892.75) scale(.1 -.1)">
<use xlink:href="#u"/>
<use x="52.099609" xlink:href="#d"/>
<use x="113.623047" xlink:href="#i"/>
<use x="141.40625" xlink:href="#i"/>
</g>
</g>
<g clip-path="url(#a)">
<g transform="translate(546.54 892.75) scale(.1 -.1)">
<use xlink:href="#r"/>
<use x="61.181641" xlink:href="#s"/>
<use x="124.560547" xlink:href="#h"/>
</g>
</g>
<g clip-path="url(#a)">
<g transform="translate(594.61 892.75) scale(.1 -.1)">
<use xlink:href="#r"/>
<use x="61.181641" xlink:href="#i"/>
<use x="88.964844" xlink:href="#y"/>
</g>
</g>
<g clip-path="url(#a)">
<g transform="translate(634.56 892.75) scale(.1 -.1)">
<use xlink:href="#v"/>
<use x="63.378906" xlink:href="#r"/>
<use x="124.560547" xlink:href="#s"/>
<use x="187.939453" xlink:href="#u"/>
<use x="240.039062" xlink:href="#d"/>
</g>
</g>
<g clip-path="url(#a)">
<g transform="translate(691.38 892.75) scale(.1 -.1)">
<use xlink:href="#u"/>
<use x="52.099609" xlink:href="#r"/>
</g>
</g>
<g clip-path="url(#a)">
<g transform="translate(737.28 892.75) scale(.1 -.1)">
<use xlink:href="#ak"/>
<use x="81.787109" xlink:href="#d"/>
</g>
</g>
<g clip-path="url(#a)">
<g transform="translate(766.89 892.75) scale(.1 -.1)">
<use xlink:href="#aa"/>
<use x="54.980469" xlink:href="#r"/>
<use x="116.162109" xlink:href="#g"/>
<use x="179.541016" xlink:href="#q"/>
<use x="218.75" xlink:href="#f"/>
<use x="280.029297" xlink:href="#aa"/>
<use x="335.009766" xlink:href="#q"/>
<use x="374.21875" xlink:href="#d"/>
<use x="435.742188" xlink:href="#y"/>
</g>
</g>
<g clip-path="url(#a)">
<g transform="translate(830.14 892.75) scale(.1 -.1)">
<use xlink:href="#q"/>
<use x="39.208984" xlink:href="#v"/>
<use x="102.587891" xlink:href="#k"/>
<use x="130.371094" xlink:href="#u"/>
</g>
</g>
<g clip-path="url(#a)">
<defs>
<path id="aj" d="m32.172-5.0781q-3.7969-9.7656-7.4219-12.734-3.6094-2.9844-9.6562-2.9844h-7.1875v7.5156h5.2812q3.7031 0 5.75 1.7656 2.0625 1.75 4.5469 8.2969l1.6094 4.0938-22.109 53.812h9.5156l17.094-42.766 17.094 42.766h9.5156z"/>
</defs>
<g transform="translate(865.15 892.75) scale(.1 -.1)">
<use xlink:href="#z"/>
<use x="63.476562" xlink:href="#h"/>
<use x="104.558594" xlink:href="#r"/>
<use x="165.740234" xlink:href="#z"/>
<use x="229.216797" xlink:href="#d"/>
<use x="290.740234" xlink:href="#h"/>
<use x="331.853516" xlink:href="#q"/>
<use x="371.0625" xlink:href="#aj"/>
</g>
</g>
<g clip-path="url(#a)">
<defs>
<path id="au" d="m45.406 27.984q0 9.7656-4.0312 15.125-4.0156 5.375-11.297 5.375-7.2188 0-11.25-5.375-4.0312-5.3594-4.0312-15.125 0-9.7188 4.0312-15.094t11.25-5.375q7.2812 0 11.297 5.375 4.0312 5.375 4.0312 15.094zm8.9844-21.203q0-13.953-6.2031-20.766-6.1875-6.8125-18.984-6.8125-4.7344 0-8.9375 0.70312t-8.1562 2.1719v8.7344q3.9531-2.1406 7.8125-3.1562 3.8594-1.0312 7.8594-1.0312 8.8438 0 13.234 4.6094t4.3906 13.938v4.4531q-2.7812-4.8438-7.125-7.2344t-10.406-2.3906q-10.047 0-16.203 7.6562-6.1562 7.6719-6.1562 20.328 0 12.688 6.1562 20.344 6.1562 7.6719 16.203 7.6719 6.0625 0 10.406-2.3906t7.125-7.2188v8.2969h8.9844z"/>
</defs>
<g transform="translate(900.58 892.75) scale(.1 -.1)">
<use xlink:href="#j"/>
<use x="97.412109" xlink:href="#f"/>
<use x="158.691406" xlink:href="#g"/>
<use x="222.070312" xlink:href="#f"/>
<use x="283.349609" xlink:href="#au"/>
<use x="346.826172" xlink:href="#d"/>
<use x="408.349609" xlink:href="#j"/>
<use x="505.761719" xlink:href="#d"/>
<use x="567.285156" xlink:href="#g"/>
<use x="630.664062" xlink:href="#q"/>
</g>
</g>
<g clip-path="url(#a)">
<g transform="translate(958.43 892.75) scale(.1 -.1)">
<use xlink:href="#aa"/>
<use x="54.980469" xlink:href="#r"/>
<use x="116.162109" xlink:href="#j"/>
<use x="213.574219" xlink:href="#z"/>
<use x="277.050781" xlink:href="#f"/>
<use x="338.330078" xlink:href="#g"/>
<use x="401.708984" xlink:href="#aj"/>
</g>
</g>
<g clip-path="url(#a)">
<g transform="translate(1019.5 892.75) scale(.1 -.1)">
<use xlink:href="#f"/>
<use x="61.279297" xlink:href="#g"/>
<use x="124.658203" xlink:href="#y"/>
</g>
</g>
<g clip-path="url(#a)">
<g transform="translate(1065.1 892.75) scale(.1 -.1)">
<use xlink:href="#q"/>
<use x="39.208984" xlink:href="#v"/>
<use x="102.587891" xlink:href="#d"/>
<use x="164.111328" xlink:href="#aj"/>
</g>
</g>
<g clip-path="url(#a)">
<defs>
<path id="as" d="m2.9844 54.688h9.5156l17.094-45.891 17.094 45.891h9.5156l-20.516-54.688h-12.203z"/>
</defs>
<g transform="translate(1111.4 892.75) scale(.1 -.1)">
<use xlink:href="#v"/>
<use x="63.378906" xlink:href="#f"/>
<use x="124.658203" xlink:href="#as"/>
<use x="183.837891" xlink:href="#d"/>
</g>
</g>
<g clip-path="url(#a)">
<g transform="translate(1154 892.75) scale(.1 -.1)">
<use xlink:href="#v"/>
<use x="63.378906" xlink:href="#d"/>
<use x="124.902344" xlink:href="#i"/>
<use x="152.685547" xlink:href="#z"/>
<use x="216.162109" xlink:href="#d"/>
<use x="277.685547" xlink:href="#y"/>
</g>
</g>
<g clip-path="url(#a)">
<g transform="translate(1212.7 892.75) scale(.1 -.1)">
<use xlink:href="#s"/>
<use x="63.378906" xlink:href="#u"/>
</g>
</g>
<g clip-path="url(#a)">
<defs>
<path id="at" d="m14.797 27.297q0-9.9062 4.0781-15.547t11.203-5.6406 11.219 5.6406q4.1094 5.6406 4.1094 15.547t-4.1094 15.547q-4.0938 5.6406-11.219 5.6406t-11.203-5.6406-4.0781-15.547zm30.609-19.094q-2.8281-4.875-7.1562-7.25-4.3125-2.375-10.375-2.375-9.9062 0-16.141 7.9062-6.2188 7.9219-6.2188 20.812t6.2188 20.797q6.2344 7.9062 16.141 7.9062 6.0625 0 10.375-2.375 4.3281-2.3594 7.1562-7.2344v8.2969h8.9844v-75.484h-8.9844z"/>
<path id="ap" d="m9.0781 75.984h9.0312v-44.875l26.812 23.578h11.469l-29-25.578 30.234-29.109h-11.719l-27.797 26.703v-26.703h-9.0312z"/>
</defs>
<g transform="translate(1248.2 892.75) scale(.1 -.1)">
<use xlink:href="#at"/>
<use x="63.476562" xlink:href="#s"/>
<use x="126.855469" xlink:href="#k"/>
<use x="154.638672" xlink:href="#aa"/>
<use x="209.619141" xlink:href="#ap"/>
<use x="267.529297" xlink:href="#i"/>
<use x="295.3125" xlink:href="#aj"/>
</g>
</g>
<g clip-path="url(#a)">
<g transform="translate(1303.1 892.75) scale(.1 -.1)">
<use xlink:href="#h"/>
<use x="41.082031" xlink:href="#d"/>
<use x="102.605469" xlink:href="#g"/>
<use x="165.984375" xlink:href="#q"/>
</g>
</g>
<g clip-path="url(#a)">
<g transform="translate(1352.5 892.75) scale(.1 -.1)">
<use xlink:href="#r"/>
<use x="61.181641" xlink:href="#s"/>
<use x="124.560547" xlink:href="#q"/>
</g>
</g>
<g clip-path="url(#a)">
<g transform="translate(1399.8 892.75) scale(.1 -.1)">
<use xlink:href="#r"/>
<use x="61.181641" xlink:href="#s"/>
<use x="124.560547" xlink:href="#h"/>
</g>
</g>
<g clip-path="url(#a)">
<g transform="translate(1440.5 892.75) scale(.1 -.1)">
<use xlink:href="#v"/>
<use x="63.378906" xlink:href="#r"/>
<use x="124.560547" xlink:href="#s"/>
<use x="187.939453" xlink:href="#u"/>
<use x="240.039062" xlink:href="#d"/>
</g>
</g>
<g clip-path="url(#a)">
<g transform="translate(1493.5 892.75) scale(.1 -.1)">
<use xlink:href="#f"/>
<use x="61.279297" xlink:href="#g"/>
<use x="124.658203" xlink:href="#y"/>
</g>
</g>
<g clip-path="url(#a)">
<g transform="translate(1538.1 892.75) scale(.1 -.1)">
<use xlink:href="#ap"/>
<use x="57.863281" xlink:href="#d"/>
<use x="119.386719" xlink:href="#d"/>
<use x="180.910156" xlink:href="#z"/>
</g>
</g>
<g clip-path="url(#a)">
<g transform="translate(1594.4 892.75) scale(.1 -.1)">
<use xlink:href="#k"/>
<use x="27.783203" xlink:href="#q"/>
</g>
</g>
<g clip-path="url(#a)">
<g transform="translate(1616.8 892.75) scale(.1 -.1)">
<use xlink:href="#j"/>
<use x="97.412109" xlink:href="#f"/>
<use x="158.691406" xlink:href="#k"/>
<use x="186.474609" xlink:href="#g"/>
<use x="249.853516" xlink:href="#q"/>
<use x="289.0625" xlink:href="#f"/>
<use x="350.341797" xlink:href="#k"/>
<use x="378.125" xlink:href="#g"/>
<use x="441.503906" xlink:href="#d"/>
<use x="503.027344" xlink:href="#y"/>
</g>
</g>
<g clip-path="url(#a)">
<defs>
<path id="e" d="m10.688 12.406h10.312v-12.406h-10.312z"/>
</defs>
<g transform="translate(1691 892.75) scale(.1 -.1)">
<use xlink:href="#e"/>
</g>
</g>
<g clip-path="url(#a)">
<defs>
<path id="c" d="m12.406 8.2969h16.109v55.625l-17.531-3.5156v8.9844l17.438 3.5156h9.8594v-64.609h16.109v-8.2969h-41.984z"/>
</defs>
<g transform="translate(688.04 46.098) scale(.1 -.1)">
<use xlink:href="#c"/>
<use x="63.623047" xlink:href="#e"/>
<use x="95.410156" xlink:href="#c"/>
</g>
</g>
<g clip-path="url(#a)">
<defs>
<path id="p" d="m19.188 8.2969h34.422v-8.2969h-46.281v8.2969q5.6094 5.8125 15.297 15.594 9.7031 9.7969 12.188 12.641 4.7344 5.3125 6.6094 9 1.8906 3.6875 1.8906 7.25 0 5.8125-4.0781 9.4688-4.0781 3.6719-10.625 3.6719-4.6406 0-9.7969-1.6094-5.1406-1.6094-11-4.8906v9.9688q5.9531 2.3906 11.125 3.6094 5.1875 1.2188 9.4844 1.2188 11.328 0 18.062-5.6719 6.7344-5.6562 6.7344-15.125 0-4.5-1.6875-8.5312-1.6719-4.0156-6.125-9.4844-1.2188-1.4219-7.7656-8.1875-6.5312-6.7656-18.453-18.922z"/>
</defs>
<g transform="translate(525.15 339.01) scale(.1 -.1)">
<use xlink:href="#c"/>
<use x="63.623047" xlink:href="#e"/>
<use x="95.410156" xlink:href="#p"/>
</g>
</g>
<g clip-path="url(#a)">
<defs>
<path id="o" d="m40.578 39.312q7.0781-1.5156 11.047-6.3125 3.9844-4.7812 3.9844-11.812 0-10.781-7.4219-16.703-7.4219-5.9062-21.094-5.9062-4.5781 0-9.4375 0.90625t-10.031 2.7188v9.5156q4.0938-2.3906 8.9688-3.6094 4.8906-1.2188 10.219-1.2188 9.2656 0 14.125 3.6562t4.8594 10.641q0 6.4531-4.5156 10.078-4.5156 3.6406-12.562 3.6406h-8.5v8.1094h8.8906q7.2656 0 11.125 2.9062t3.8594 8.375q0 5.6094-3.9844 8.6094-3.9688 3.0156-11.391 3.0156-4.0625 0-8.7031-0.89062-4.6406-0.875-10.203-2.7188v8.7812q5.625 1.5625 10.531 2.3438t9.25 0.78125q11.234 0 17.766-5.1094 6.5469-5.0938 6.5469-13.781 0-6.0625-3.4688-10.234t-9.8594-5.7812z"/>
</defs>
<g transform="translate(120.23 755.94) scale(.1 -.1)">
<use xlink:href="#c"/>
<use x="63.623047" xlink:href="#e"/>
<use x="95.410156" xlink:href="#o"/>
</g>
</g>
<g clip-path="url(#a)">
<defs>
<path id="n" d="m37.797 64.312-24.906-38.922h24.906zm-2.5938 8.5938h12.406v-47.516h10.406v-8.2031h-10.406v-17.188h-9.8125v17.188h-32.906v9.5156z"/>
</defs>
<g transform="translate(72.821 755.94) scale(.1 -.1)">
<use xlink:href="#c"/>
<use x="63.623047" xlink:href="#e"/>
<use x="95.410156" xlink:href="#n"/>
</g>
</g>
<g clip-path="url(#a)">
<defs>
<path id="x" d="m10.797 72.906h38.719v-8.3125h-29.688v-17.859q2.1406 0.73438 4.2812 1.0938 2.1562 0.35938 4.3125 0.35938 12.203 0 19.328-6.6875 7.1406-6.6875 7.1406-18.109 0-11.766-7.3281-18.297-7.3281-6.5156-20.656-6.5156-4.5938 0-9.3594 0.78125-4.75 0.78125-9.8281 2.3438v9.9219q4.3906-2.3906 9.0781-3.5625t9.9062-1.1719q8.4531 0 13.375 4.4375 4.9375 4.4375 4.9375 12.062 0 7.6094-4.9375 12.047-4.9219 4.4531-13.375 4.4531-3.9531 0-7.8906-0.875-3.9219-0.875-8.0156-2.7344z"/>
</defs>
<g transform="translate(222.94 480.4) scale(.1 -.1)">
<use xlink:href="#c"/>
<use x="63.623047" xlink:href="#e"/>
<use x="95.410156" xlink:href="#x"/>
</g>
</g>
<g clip-path="url(#a)">
<defs>
<path id="ag" d="m33.016 40.375q-6.6406 0-10.531-4.5469-3.875-4.5312-3.875-12.438 0-7.8594 3.875-12.438 3.8906-4.5625 10.531-4.5625t10.516 4.5625q3.875 4.5781 3.875 12.438 0 7.9062-3.875 12.438-3.875 4.5469-10.516 4.5469zm19.578 30.922v-8.9844q-3.7188 1.75-7.5 2.6719-3.7812 0.9375-7.5 0.9375-9.7656 0-14.922-6.5938-5.1406-6.5938-5.875-19.922 2.875 4.25 7.2188 6.5156 4.3594 2.2656 9.5781 2.2656 10.984 0 17.359-6.6719 6.375-6.6562 6.375-18.125 0-11.234-6.6406-18.031-6.6406-6.7812-17.672-6.7812-12.656 0-19.344 9.6875-6.6875 9.7031-6.6875 28.109 0 17.281 8.2031 27.562t22.016 10.281q3.7188 0 7.5-0.73438t7.8906-2.1875z"/>
</defs>
<g transform="translate(262.44 755.94) scale(.1 -.1)">
<use xlink:href="#c"/>
<use x="63.623047" xlink:href="#e"/>
<use x="95.410156" xlink:href="#ag"/>
</g>
</g>
<g clip-path="url(#a)">
<defs>
<path id="af" d="m8.2031 72.906h46.875v-4.2031l-26.469-68.703h-10.297l24.906 64.594h-35.016z"/>
</defs>
<g transform="translate(309.85 755.94) scale(.1 -.1)">
<use xlink:href="#c"/>
<use x="63.623047" xlink:href="#e"/>
<use x="95.410156" xlink:href="#af"/>
</g>
</g>
<g clip-path="url(#a)">
<defs>
<path id="ae" d="m31.781 34.625q-7.0312 0-11.062-3.7656-4.0156-3.7656-4.0156-10.344 0-6.5938 4.0156-10.359 4.0312-3.7656 11.062-3.7656t11.078 3.7812q4.0625 3.7969 4.0625 10.344 0 6.5781-4.0312 10.344-4.0156 3.7656-11.109 3.7656zm-9.8594 4.1875q-6.3438 1.5625-9.8906 5.9062-3.5312 4.3594-3.5312 10.609 0 8.7344 6.2188 13.812 6.2344 5.0781 17.062 5.0781 10.891 0 17.094-5.0781t6.2031-13.812q0-6.25-3.5469-10.609-3.5312-4.3438-9.8281-5.9062 7.125-1.6562 11.094-6.5 3.9844-4.8281 3.9844-11.797 0-10.609-6.4688-16.281-6.4688-5.6562-18.531-5.6562-12.047 0-18.531 5.6562-6.4688 5.6719-6.4688 16.281 0 6.9688 4 11.797 4.0156 4.8438 11.141 6.5zm-3.6094 15.578q0-5.6562 3.5312-8.8281 3.5469-3.1719 9.9375-3.1719 6.3594 0 9.9375 3.1719 3.5938 3.1719 3.5938 8.8281 0 5.6719-3.5938 8.8438-3.5781 3.1719-9.9375 3.1719-6.3906 0-9.9375-3.1719-3.5312-3.1719-3.5312-8.8438z"/>
</defs>
<g transform="translate(310.34 194.39) scale(.1 -.1)">
<use xlink:href="#c"/>
<use x="63.623047" xlink:href="#e"/>
<use x="95.410156" xlink:href="#ae"/>
</g>
</g>
<g clip-path="url(#a)">
<defs>
<path id="ad" d="m10.984 1.5156v8.9844q3.7188-1.7656 7.5156-2.6875 3.8125-0.92188 7.4844-0.92188 9.7656 0 14.906 6.5625 5.1562 6.5625 5.8906 19.953-2.8281-4.2031-7.1875-6.4531-4.3438-2.25-9.6094-2.25-10.938 0-17.312 6.6094-6.375 6.625-6.375 18.109 0 11.219 6.6406 18 6.6406 6.7969 17.672 6.7969 12.656 0 19.312-9.7031 6.6719-9.6875 6.6719-28.141 0-17.234-8.1875-27.516-8.1719-10.281-21.984-10.281-3.7188 0-7.5312 0.73438-3.7969 0.73438-7.9062 2.2031zm19.625 30.906q6.6406 0 10.516 4.5312 3.8906 4.5469 3.8906 12.469 0 7.8594-3.8906 12.422-3.875 4.5625-10.516 4.5625t-10.516-4.5625-3.875-12.422q0-7.9219 3.875-12.469 3.875-4.5312 10.516-4.5312z"/>
</defs>
<g transform="translate(404.66 755.94) scale(.1 -.1)">
<use xlink:href="#c"/>
<use x="63.623047" xlink:href="#e"/>
<use x="95.410156" xlink:href="#ad"/>
</g>
</g>
<g clip-path="url(#a)">
<defs>
<path id="ah" d="m31.781 66.406q-7.6094 0-11.453-7.5-3.8281-7.4844-3.8281-22.531 0-14.984 3.8281-22.484 3.8438-7.5 11.453-7.5 7.6719 0 11.5 7.5 3.8438 7.5 3.8438 22.484 0 15.047-3.8438 22.531-3.8281 7.5-11.5 7.5zm0 7.8125q12.266 0 18.734-9.7031 6.4688-9.6875 6.4688-28.141 0-18.406-6.4688-28.109-6.4688-9.6875-18.734-9.6875-12.25 0-18.719 9.6875-6.4688 9.7031-6.4688 28.109 0 18.453 6.4688 28.141 6.4688 9.7031 18.719 9.7031z"/>
</defs>
<g transform="translate(774.8 339.01) scale(.1 -.1)">
<use xlink:href="#c"/>
<use x="63.623047" xlink:href="#e"/>
<use x="95.410156" xlink:href="#c"/>
<use x="159.033203" xlink:href="#ah"/>
</g>
</g>
<g clip-path="url(#a)">
<g transform="translate(780.72 755.94) scale(.1 -.1)">
<use xlink:href="#c"/>
<use x="63.623047" xlink:href="#e"/>
<use x="95.410156" xlink:href="#c"/>
<use x="159.033203" xlink:href="#c"/>
</g>
</g>
<g clip-path="url(#a)">
<g transform="translate(1681.4 755.94) scale(.1 -.1)">
<use xlink:href="#c"/>
<use x="63.623047" xlink:href="#e"/>
<use x="95.410156" xlink:href="#c"/>
<use x="159.033203" xlink:href="#p"/>
</g>
</g>
<g clip-path="url(#a)">
<g transform="translate(164.45 755.94) scale(.1 -.1)">
<use xlink:href="#c"/>
<use x="63.623047" xlink:href="#e"/>
<use x="95.410156" xlink:href="#c"/>
<use x="159.033203" xlink:href="#o"/>
</g>
</g>
<g clip-path="url(#a)">
<g transform="translate(235.56 619.12) scale(.1 -.1)">
<use xlink:href="#c"/>
<use x="63.623047" xlink:href="#e"/>
<use x="95.410156" xlink:href="#c"/>
<use x="159.033203" xlink:href="#n"/>
</g>
</g>
<g clip-path="url(#a)">
<g transform="translate(211.86 755.94) scale(.1 -.1)">
<use xlink:href="#c"/>
<use x="63.623047" xlink:href="#e"/>
<use x="95.410156" xlink:href="#c"/>
<use x="159.033203" xlink:href="#x"/>
</g>
</g>
<g clip-path="url(#a)">
<g transform="translate(354.07 755.94) scale(.1 -.1)">
<use xlink:href="#c"/>
<use x="63.623047" xlink:href="#e"/>
<use x="95.410156" xlink:href="#c"/>
<use x="159.033203" xlink:href="#ag"/>
</g>
</g>
<g clip-path="url(#a)">
<g transform="translate(403.45 339.01) scale(.1 -.1)">
<use xlink:href="#c"/>
<use x="63.623047" xlink:href="#e"/>
<use x="95.410156" xlink:href="#c"/>
<use x="159.033203" xlink:href="#af"/>
</g>
</g>
<g clip-path="url(#a)">
<g transform="translate(496.29 755.94) scale(.1 -.1)">
<use xlink:href="#c"/>
<use x="63.623047" xlink:href="#e"/>
<use x="95.410156" xlink:href="#c"/>
<use x="159.033203" xlink:href="#ae"/>
</g>
</g>
<g clip-path="url(#a)">
<g transform="translate(685.91 755.94) scale(.1 -.1)">
<use xlink:href="#c"/>
<use x="63.623047" xlink:href="#e"/>
<use x="95.410156" xlink:href="#c"/>
<use x="159.033203" xlink:href="#ad"/>
</g>
</g>
<g clip-path="url(#a)">
<g transform="translate(733.32 755.94) scale(.1 -.1)">
<use xlink:href="#c"/>
<use x="63.623047" xlink:href="#e"/>
<use x="95.410156" xlink:href="#p"/>
<use x="159.033203" xlink:href="#ah"/>
</g>
</g>
<g clip-path="url(#a)">
<g transform="translate(899.24 480.4) scale(.1 -.1)">
<use xlink:href="#c"/>
<use x="63.623047" xlink:href="#e"/>
<use x="95.410156" xlink:href="#p"/>
<use x="159.033203" xlink:href="#c"/>
</g>
</g>
<g clip-path="url(#a)">
<g transform="translate(970.34 755.94) scale(.1 -.1)">
<use xlink:href="#c"/>
<use x="63.623047" xlink:href="#e"/>
<use x="95.410156" xlink:href="#p"/>
<use x="159.033203" xlink:href="#p"/>
</g>
</g>
<g clip-path="url(#a)">
<g transform="translate(1017.8 755.94) scale(.1 -.1)">
<use xlink:href="#c"/>
<use x="63.623047" xlink:href="#e"/>
<use x="95.410156" xlink:href="#p"/>
<use x="159.033203" xlink:href="#o"/>
</g>
</g>
<g clip-path="url(#a)">
<g transform="translate(1180.8 194.39) scale(.1 -.1)">
<use xlink:href="#c"/>
<use x="63.623047" xlink:href="#e"/>
<use x="95.410156" xlink:href="#p"/>
<use x="159.033203" xlink:href="#n"/>
</g>
</g>
<g clip-path="url(#a)">
<g transform="translate(1160 755.94) scale(.1 -.1)">
<use xlink:href="#c"/>
<use x="63.623047" xlink:href="#e"/>
<use x="95.410156" xlink:href="#p"/>
<use x="159.033203" xlink:href="#x"/>
</g>
</g>
<g clip-path="url(#a)">
<g transform="translate(448.88 755.94) scale(.1 -.1)">
<use xlink:href="#c"/>
<use x="63.623047" xlink:href="#e"/>
<use x="95.410156" xlink:href="#p"/>
<use x="159.033203" xlink:href="#ag"/>
</g>
</g>
<g clip-path="url(#a)">
<g transform="translate(599 480.4) scale(.1 -.1)">
<use xlink:href="#c"/>
<use x="63.623047" xlink:href="#e"/>
<use x="95.410156" xlink:href="#p"/>
<use x="159.033203" xlink:href="#af"/>
</g>
</g>
<g clip-path="url(#a)">
<g transform="translate(638.51 755.94) scale(.1 -.1)">
<use xlink:href="#c"/>
<use x="63.623047" xlink:href="#e"/>
<use x="95.410156" xlink:href="#p"/>
<use x="159.033203" xlink:href="#ae"/>
</g>
</g>
<g clip-path="url(#a)">
<g transform="translate(828.13 755.94) scale(.1 -.1)">
<use xlink:href="#c"/>
<use x="63.623047" xlink:href="#e"/>
<use x="95.410156" xlink:href="#p"/>
<use x="159.033203" xlink:href="#ad"/>
</g>
</g>
<g clip-path="url(#a)">
<g transform="translate(899.24 619.12) scale(.1 -.1)">
<use xlink:href="#c"/>
<use x="63.623047" xlink:href="#e"/>
<use x="95.410156" xlink:href="#o"/>
<use x="159.033203" xlink:href="#ah"/>
</g>
</g>
<g clip-path="url(#a)">
<g transform="translate(922.94 755.94) scale(.1 -.1)">
<use xlink:href="#c"/>
<use x="63.623047" xlink:href="#e"/>
<use x="95.410156" xlink:href="#o"/>
<use x="159.033203" xlink:href="#c"/>
</g>
</g>
<g clip-path="url(#a)">
<g transform="translate(1065.2 755.94) scale(.1 -.1)">
<use xlink:href="#c"/>
<use x="63.623047" xlink:href="#e"/>
<use x="95.410156" xlink:href="#o"/>
<use x="159.033203" xlink:href="#p"/>
</g>
</g>
<g clip-path="url(#a)">
<g transform="translate(1112.6 755.94) scale(.1 -.1)">
<use xlink:href="#c"/>
<use x="63.623047" xlink:href="#e"/>
<use x="95.410156" xlink:href="#o"/>
<use x="159.033203" xlink:href="#o"/>
</g>
</g>
<g clip-path="url(#a)">
<g transform="translate(1207.4 755.94) scale(.1 -.1)">
<use xlink:href="#c"/>
<use x="63.623047" xlink:href="#e"/>
<use x="95.410156" xlink:href="#o"/>
<use x="159.033203" xlink:href="#n"/>
</g>
</g>
<g clip-path="url(#a)">
<g transform="translate(1358.9 339.01) scale(.1 -.1)">
<use xlink:href="#c"/>
<use x="63.623047" xlink:href="#e"/>
<use x="95.410156" xlink:href="#o"/>
<use x="159.033203" xlink:href="#x"/>
</g>
</g>
<g clip-path="url(#a)">
<g transform="translate(1302.2 755.94) scale(.1 -.1)">
<use xlink:href="#c"/>
<use x="63.623047" xlink:href="#e"/>
<use x="95.410156" xlink:href="#o"/>
<use x="159.033203" xlink:href="#ag"/>
</g>
</g>
<g clip-path="url(#a)">
<g transform="translate(543.7 755.94) scale(.1 -.1)">
<use xlink:href="#c"/>
<use x="63.623047" xlink:href="#e"/>
<use x="95.410156" xlink:href="#o"/>
<use x="159.033203" xlink:href="#af"/>
</g>
</g>
<g clip-path="url(#a)">
<g transform="translate(614.8 619.12) scale(.1 -.1)">
<use xlink:href="#c"/>
<use x="63.623047" xlink:href="#e"/>
<use x="95.410156" xlink:href="#o"/>
<use x="159.033203" xlink:href="#ae"/>
</g>
</g>
<g clip-path="url(#a)">
<g transform="translate(591.1 755.94) scale(.1 -.1)">
<use xlink:href="#c"/>
<use x="63.623047" xlink:href="#e"/>
<use x="95.410156" xlink:href="#o"/>
<use x="159.033203" xlink:href="#ad"/>
</g>
</g>
<g clip-path="url(#a)">
<g transform="translate(875.53 755.94) scale(.1 -.1)">
<use xlink:href="#c"/>
<use x="63.623047" xlink:href="#e"/>
<use x="95.410156" xlink:href="#n"/>
<use x="159.033203" xlink:href="#ah"/>
</g>
</g>
<g clip-path="url(#a)">
<g transform="translate(1254.8 755.94) scale(.1 -.1)">
<use xlink:href="#c"/>
<use x="63.623047" xlink:href="#e"/>
<use x="95.410156" xlink:href="#n"/>
<use x="159.033203" xlink:href="#c"/>
</g>
</g>
<g clip-path="url(#a)">
<g transform="translate(1349.6 755.94) scale(.1 -.1)">
<use xlink:href="#c"/>
<use x="63.623047" xlink:href="#e"/>
<use x="95.410156" xlink:href="#n"/>
<use x="159.033203" xlink:href="#p"/>
</g>
</g>
<g clip-path="url(#a)">
<g transform="translate(1420.7 619.12) scale(.1 -.1)">
<use xlink:href="#c"/>
<use x="63.623047" xlink:href="#e"/>
<use x="95.410156" xlink:href="#n"/>
<use x="159.033203" xlink:href="#o"/>
</g>
</g>
<g clip-path="url(#a)">
<g transform="translate(1444.4 755.94) scale(.1 -.1)">
<use xlink:href="#c"/>
<use x="63.623047" xlink:href="#e"/>
<use x="95.410156" xlink:href="#n"/>
<use x="159.033203" xlink:href="#n"/>
</g>
</g>
<g clip-path="url(#a)">
<g transform="translate(1491.8 755.94) scale(.1 -.1)">
<use xlink:href="#c"/>
<use x="63.623047" xlink:href="#e"/>
<use x="95.410156" xlink:href="#n"/>
<use x="159.033203" xlink:href="#x"/>
</g>
</g>
<g clip-path="url(#a)">
<g transform="translate(1485.9 480.4) scale(.1 -.1)">
<use xlink:href="#c"/>
<use x="63.623047" xlink:href="#e"/>
<use x="95.410156" xlink:href="#n"/>
<use x="159.033203" xlink:href="#ag"/>
</g>
</g>
<g clip-path="url(#a)">
<g transform="translate(1539.2 755.94) scale(.1 -.1)">
<use xlink:href="#c"/>
<use x="63.623047" xlink:href="#e"/>
<use x="95.410156" xlink:href="#n"/>
<use x="159.033203" xlink:href="#af"/>
</g>
</g>
<g clip-path="url(#a)">
<g transform="translate(1397 755.94) scale(.1 -.1)">
<use xlink:href="#c"/>
<use x="63.623047" xlink:href="#e"/>
<use x="95.410156" xlink:href="#n"/>
<use x="159.033203" xlink:href="#ae"/>
</g>
</g>
<g clip-path="url(#a)">
<g transform="translate(1586.6 755.94) scale(.1 -.1)">
<use xlink:href="#c"/>
<use x="63.623047" xlink:href="#e"/>
<use x="95.410156" xlink:href="#n"/>
<use x="159.033203" xlink:href="#ad"/>
</g>
</g>
<g clip-path="url(#a)">
<g transform="translate(1610.3 619.12) scale(.1 -.1)">
<use xlink:href="#c"/>
<use x="63.623047" xlink:href="#e"/>
<use x="95.410156" xlink:href="#x"/>
<use x="159.033203" xlink:href="#ah"/>
</g>
</g>
<g clip-path="url(#a)">
<g transform="translate(1634 755.94) scale(.1 -.1)">
<use xlink:href="#c"/>
<use x="63.623047" xlink:href="#e"/>
<use x="95.410156" xlink:href="#x"/>
<use x="159.033203" xlink:href="#c"/>
</g>
</g>
<defs>
<clipPath id="a">
<rect width="1773.3" height="933.33"/>
</clipPath>
</defs>
</svg>
