<?xml version="1.0" encoding="UTF-8"?>
<!DOCTYPE svg  PUBLIC '-//W3C//DTD SVG 1.1//EN'  'http://www.w3.org/Graphics/SVG/1.1/DTD/svg11.dtd'>
<svg width="1722.7pt" height="906.67pt" version="1.1" viewBox="0 0 1722.7 906.67" xmlns="http://www.w3.org/2000/svg" xmlns:xlink="http://www.w3.org/1999/xlink">
<defs>
<style type="text/css">*{stroke-linecap:butt;stroke-linejoin:round;}</style>
</defs>
<path d="m0 906.67h1722.7v-906.67h-1722.7z" fill="#fff"/>
<g fill="none" stroke="#000">
<path d="m1057.2 41.987-576.24 125.49" clip-path="url(#a)"/>
<path d="m1057.2 41.987 14.271 483.13" clip-path="url(#a)"/>
<path d="m1057.2 41.987 207.44 710.03" clip-path="url(#a)"/>
<path d="m1057.2 41.987 354.53 483.13" clip-path="url(#a)"/>
<path d="m480.94 167.48-117.79 584.54" clip-path="url(#a)"/>
<path d="m480.94 167.48-355.02 471.87" clip-path="url(#a)"/>
<path d="m480.94 167.48-260.12 584.54" clip-path="url(#a)"/>
<path d="m480.94 167.48-212.68 584.54" clip-path="url(#a)"/>
<path d="m480.94 167.48-236.4 471.87" clip-path="url(#a)"/>
<path d="m480.94 167.48 18.752 122.12" clip-path="url(#a)"/>
<path d="m480.94 167.48 1163.3 584.54" clip-path="url(#a)"/>
<path d="m363.15 752.01v112.67" clip-path="url(#a)"/>
<path d="m125.92 639.35 47.446 112.67" clip-path="url(#a)"/>
<path d="m125.92 639.35-47.446 112.67" clip-path="url(#a)"/>
<path d="m125.92 639.35v112.67" clip-path="url(#a)"/>
<path d="m173.37 752.01v112.67" clip-path="url(#a)"/>
<path d="m220.81 752.01v112.67" clip-path="url(#a)"/>
<path d="m268.26 752.01v112.67" clip-path="url(#a)"/>
<path d="m244.54 639.35-71.169 112.67" clip-path="url(#a)" stroke-dasharray="3.7,1.6"/>
<path d="m244.54 639.35 71.169 112.67" clip-path="url(#a)"/>
<path d="m315.7 752.01v112.67" clip-path="url(#a)"/>
<path d="m499.69 289.59 53.245 462.42" clip-path="url(#a)"/>
<path d="m499.69 289.59-89.093 462.42" clip-path="url(#a)"/>
<path d="m499.69 289.59-41.647 462.42" clip-path="url(#a)"/>
<path d="m499.69 289.59 5.799 462.42" clip-path="url(#a)"/>
<path d="m499.69 289.59 71.696 119.09" clip-path="url(#a)"/>
<path d="m552.93 752.01v112.67" clip-path="url(#a)"/>
<path d="m1071.5 525.11 3.389 226.9" clip-path="url(#a)"/>
<path d="m1071.5 525.11-233.84 226.9" clip-path="url(#a)"/>
<path d="m1071.5 525.11-186.39 226.9" clip-path="url(#a)"/>
<path d="m1071.5 525.11-138.95 226.9" clip-path="url(#a)"/>
<path d="m1071.5 525.11-67.78 114.23" clip-path="url(#a)"/>
<path d="m1071.5 525.11 98.281 114.23" clip-path="url(#a)"/>
<path d="m1071.5 525.11 525.29 226.9" clip-path="url(#a)"/>
<path d="m1074.8 752.01v112.67" clip-path="url(#a)"/>
<path d="m1644.2 752.01v112.67" clip-path="url(#a)"/>
<path d="m78.475 752.01v112.67" clip-path="url(#a)"/>
<path d="m125.92 752.01v112.67" clip-path="url(#a)"/>
<path d="m410.6 752.01v112.67" clip-path="url(#a)"/>
<path d="m458.04 752.01v112.67" clip-path="url(#a)"/>
<path d="m505.49 752.01v112.67" clip-path="url(#a)"/>
<path d="m571.39 408.68-160.79 343.33" clip-path="url(#a)" stroke-dasharray="3.7,1.6"/>
<path d="m571.39 408.68 28.995 343.33" clip-path="url(#a)"/>
<path d="m571.39 408.68 131.79 116.43" clip-path="url(#a)"/>
<path d="m600.38 752.01v112.67" clip-path="url(#a)"/>
<path d="m837.61 752.01v112.67" clip-path="url(#a)"/>
<path d="m885.06 752.01v112.67" clip-path="url(#a)"/>
<path d="m932.5 752.01v112.67" clip-path="url(#a)"/>
<path d="m1003.7 639.35 23.723 112.67" clip-path="url(#a)"/>
<path d="m1003.7 639.35-23.723 112.67" clip-path="url(#a)"/>
<path d="m1027.4 752.01v112.67" clip-path="url(#a)"/>
<path d="m1169.7 639.35 47.446 112.67" clip-path="url(#a)"/>
<path d="m1169.7 639.35-47.446 112.67" clip-path="url(#a)"/>
<path d="m1169.7 639.35v112.67" clip-path="url(#a)"/>
<path d="m1217.2 752.01v112.67" clip-path="url(#a)"/>
<path d="m1264.6 752.01v112.67" clip-path="url(#a)"/>
<path d="m1411.7 525.11 42.701 226.9" clip-path="url(#a)"/>
<path d="m1411.7 525.11-99.637 226.9" clip-path="url(#a)"/>
<path d="m1411.7 525.11-52.191 226.9" clip-path="url(#a)"/>
<path d="m1411.7 525.11-4.7446 226.9" clip-path="url(#a)"/>
<path d="m1411.7 525.11 113.87 114.23" clip-path="url(#a)"/>
<path d="m1454.4 752.01v112.67" clip-path="url(#a)"/>
<path d="m1596.7 752.01v112.67" clip-path="url(#a)"/>
<path d="m703.18 525.11-7.9077 226.9" clip-path="url(#a)"/>
<path d="m703.18 525.11-55.354 226.9" clip-path="url(#a)"/>
<path d="m703.18 525.11 63.261 114.23" clip-path="url(#a)"/>
<path d="m695.27 752.01v112.67" clip-path="url(#a)"/>
<path d="m979.95 752.01v112.67" clip-path="url(#a)"/>
<path d="m1122.3 752.01v112.67" clip-path="url(#a)"/>
<path d="m1169.7 752.01v112.67" clip-path="url(#a)"/>
<path d="m1312.1 752.01v112.67" clip-path="url(#a)"/>
<path d="m1359.5 752.01v112.67" clip-path="url(#a)"/>
<path d="m1407 752.01v112.67" clip-path="url(#a)"/>
<path d="m1525.6 639.35 23.723 112.67" clip-path="url(#a)"/>
<path d="m1525.6 639.35-23.723 112.67" clip-path="url(#a)"/>
<path d="m1549.3 752.01v112.67" clip-path="url(#a)"/>
<path d="m647.83 752.01v112.67" clip-path="url(#a)"/>
<path d="m766.44 639.35 23.723 112.67" clip-path="url(#a)"/>
<path d="m766.44 639.35-23.723 112.67" clip-path="url(#a)"/>
<path d="m790.16 752.01v112.67" clip-path="url(#a)"/>
<path d="m1501.9 752.01v112.67" clip-path="url(#a)"/>
<path d="m742.72 752.01v112.67" clip-path="url(#a)"/>
</g>
<path d="m767.45 111.5 5.8785-1.2802q2.345-0.51069 1.8344-2.8557l-1.6475-7.5652q-0.51069-2.345-2.8557-1.8344l-5.8785 1.2802q-2.345 0.51069-1.8344 2.8557l1.6475 7.5652q0.51069 2.345 2.8557 1.8344z" clip-path="url(#a)" fill="#fff" stroke="#fff"/>
<g clip-path="url(#a)">
<defs>
<path id="ai" d="m9.8125 72.906h9.8594v-29.891h35.844v29.891h9.8594v-72.906h-9.8594v34.719h-35.844v-34.719h-9.8594z"/>
</defs>
<g transform="translate(766.59 107.53) rotate(-12.286) scale(.08 -.08)">
<use xlink:href="#ai"/>
</g>
</g>
<path d="m1058 280.73 0.17764 6.0136q0.070865 2.399 2.4698 2.3281l7.7391-0.22861q2.399-0.070864 2.3281-2.4698l-0.17764-6.0136q-0.070864-2.399-2.4698-2.3281l-7.7391 0.22861q-2.399 0.070865-2.3281 2.4698z" clip-path="url(#a)" fill="#fff" stroke="#fff"/>
<g clip-path="url(#a)">
<g transform="translate(1062 280.61) rotate(88.308) scale(.08 -.08)">
<use xlink:href="#ai"/>
</g>
</g>
<path d="m1154.3 396.62 1.2501 4.2786q0.67306 2.3037 2.9767 1.6306l7.4318-2.1713q2.3037-0.67306 1.6306-2.9767l-1.2501-4.2786q-0.67306-2.3037-2.9767-1.6306l-7.4318 2.1713q-2.3037 0.67306-1.6306 2.9767z" clip-path="url(#a)" fill="#fff" stroke="#fff"/>
<g clip-path="url(#a)">
<defs>
<path id="at" d="m9.8125 72.906h9.8594v-64.609h35.5v-8.2969h-45.359z"/>
</defs>
<g transform="translate(1158.2 395.48) rotate(73.714) scale(.08 -.08)">
<use xlink:href="#at"/>
</g>
</g>
<path d="m1227.6 284.84 3.5593 4.8504q1.4199 1.9349 3.3548 0.51504l6.2422-4.5806q1.9349-1.4199 0.51504-3.3548l-3.5593-4.8504q-1.4199-1.9349-3.3548-0.51504l-6.2422 4.5806q-1.9349 1.4199-0.51504 3.3548z" clip-path="url(#a)" fill="#fff" stroke="#fff"/>
<g clip-path="url(#a)">
<g transform="translate(1230.9 282.43) rotate(53.728) scale(.08 -.08)">
<use xlink:href="#ai"/>
</g>
</g>
<path d="m427.72 463.35 0.95285-4.7287q0.47408-2.3527-1.8786-2.8268l-7.5899-1.5294q-2.3527-0.47408-2.8268 1.8786l-0.95285 4.7287q-0.47408 2.3527 1.8786 2.8268l7.5899 1.5294q2.3527 0.47408 2.8268-1.8786z" clip-path="url(#a)" fill="#fff" stroke="#fff"/>
<g clip-path="url(#a)">
<defs>
<path id="u" d="m19.672 64.797v-27.391h12.406q6.8906 0 10.641 3.5625 3.7656 3.5625 3.7656 10.156 0 6.5469-3.7656 10.109-3.75 3.5625-10.641 3.5625zm-9.8594 8.1094h22.266q12.266 0 18.531-5.5469 6.2812-5.5469 6.2812-16.234 0-10.797-6.2812-16.312-6.2656-5.5156-18.531-5.5156h-12.406v-29.297h-9.8594z"/>
</defs>
<g transform="translate(423.73 462.55) rotate(-78.607) scale(.08 -.08)">
<use xlink:href="#u"/>
</g>
</g>
<path d="m306.8 409.37 3.2901-4.373q1.4429-1.9178-0.47493-3.3607l-6.187-4.6548q-1.9178-1.4429-3.3607 0.47493l-3.2901 4.373q-1.4429 1.9178 0.47493 3.3607l6.187 4.6548q1.9178 1.4429 3.3607-0.47493z" clip-path="url(#a)" fill="#fff" stroke="#fff"/>
<g clip-path="url(#a)">
<defs>
<path id="q" d="m34.188 63.188-13.391-36.281h26.812zm-5.5781 9.7188h11.188l27.781-72.906h-10.25l-6.6406 18.703h-32.859l-6.6406-18.703h-10.406z"/>
</defs>
<g transform="translate(303.55 406.93) rotate(-53.044) scale(.08 -.08)">
<use xlink:href="#q"/>
</g>
</g>
<path d="m355.67 464.4 1.8707-4.2038q0.97577-2.1927-1.2169-3.1685l-7.0737-3.1479q-2.1927-0.97577-3.1685 1.2169l-1.8707 4.2038q-0.97577 2.1927 1.2169 3.1685l7.0737 3.1479q2.1927 0.97577 3.1685-1.2169z" clip-path="url(#a)" fill="#fff" stroke="#fff"/>
<g clip-path="url(#a)">
<defs>
<path id="t" d="m9.8125 72.906h41.891v-8.3125h-32.031v-21.484h28.906v-8.2969h-28.906v-34.812h-9.8594z"/>
</defs>
<g transform="translate(351.96 462.74) rotate(-66.01) scale(.08 -.08)">
<use xlink:href="#t"/>
</g>
</g>
<path d="m379.7 464.05 1.5732-4.3239q0.82059-2.2554-1.4348-3.0759l-7.2759-2.6473q-2.2554-0.82059-3.0759 1.4348l-1.5732 4.3239q-0.82059 2.2554 1.4348 3.0759l7.2759 2.6473q2.2554 0.82059 3.0759-1.4348z" clip-path="url(#a)" fill="#fff" stroke="#fff"/>
<g clip-path="url(#a)">
<g transform="translate(375.89 462.66) rotate(-70.007) scale(.08 -.08)">
<use xlink:href="#t"/>
</g>
</g>
<path d="m367.21 408.48 2.2642-4.5195q1.075-2.1458-1.0708-3.2208l-6.9224-3.468q-2.1458-1.075-3.2208 1.0708l-2.2642 4.5195q-1.075 2.1458 1.0708 3.2208l6.9224 3.468q2.1458 1.075 3.2208-1.0708z" clip-path="url(#a)" fill="#fff" stroke="#fff"/>
<g clip-path="url(#a)">
<defs>
<path id="v" d="m9.8125 72.906h46.094v-8.3125h-36.234v-21.578h34.719v-8.2969h-34.719v-26.422h37.109v-8.2969h-46.969z"/>
</defs>
<g transform="translate(363.58 406.66) rotate(-63.39) scale(.08 -.08)">
<use xlink:href="#v"/>
</g>
</g>
<path d="m483.73 226.99 0.76726 4.9964q0.36428 2.3722 2.7365 2.0079l7.6528-1.1752q2.3722-0.36428 2.0079-2.7365l-0.76726-4.9964q-0.36428-2.3722-2.7365-2.0079l-7.6528 1.1752q-2.3722 0.36428-2.0079 2.7365z" clip-path="url(#a)" fill="#fff" stroke="#fff"/>
<g clip-path="url(#a)">
<g transform="translate(487.75 226.37) rotate(81.27) scale(.08 -.08)">
<use xlink:href="#v"/>
</g>
</g>
<path d="m1057.1 464.03 5.2316 2.6289q2.1445 1.0776 3.2221-1.0669l3.4764-6.9182q1.0776-2.1445-1.0669-3.2221l-5.2316-2.6289q-2.1445-1.0776-3.2221 1.0669l-3.4764 6.9182q-1.0776 2.1445 1.0669 3.2221z" clip-path="url(#a)" fill="#fff" stroke="#fff"/>
<g clip-path="url(#a)">
<defs>
<path id="ag" d="m8.6875 72.906h9.9219v-44.297q0-11.719 4.2344-16.875 4.25-5.1406 13.781-5.1406 9.4688 0 13.719 5.1406 4.25 5.1562 4.25 16.875v44.297h9.9062v-45.516q0-14.25-7.0625-21.531-7.0469-7.2812-20.812-7.2812-13.828 0-20.891 7.2812-7.0469 7.2812-7.0469 21.531z"/>
</defs>
<g transform="translate(1059 460.4) rotate(26.68) scale(.08 -.08)">
<use xlink:href="#ag"/>
</g>
</g>
<path d="m356.88 790.7v35.285q0 2.4 2.4 2.4h7.7425q2.4 0 2.4-2.4v-35.285q0-2.4-2.4-2.4h-7.7425q-2.4 0-2.4 2.4z" clip-path="url(#a)" fill="#fff" stroke="#fff"/>
<g clip-path="url(#a)">
<defs>
<path id="l" d="m-0.29688 72.906h61.672v-8.3125h-25.875v-64.594h-9.9062v64.594h-25.891z"/>
<path id="d" d="m56.203 29.594v-4.3906h-41.312q0.59375-9.2812 5.5938-14.141t13.938-4.8594q5.1719 0 10.031 1.2656t9.6562 3.8125v-8.5q-4.8438-2.0469-9.9219-3.125t-10.297-1.0781q-13.094 0-20.734 7.6094-7.6406 7.625-7.6406 20.625 0 13.422 7.25 21.297 7.25 7.8906 19.562 7.8906 11.031 0 17.453-7.1094 6.4219-7.0938 6.4219-19.297zm-8.9844 2.6406q-0.09375 7.3594-4.125 11.75-4.0312 4.4062-10.672 4.4062-7.5156 0-12.031-4.25t-5.2031-11.969z"/>
<path id="j" d="m41.109 46.297q-1.5156 0.875-3.2969 1.2812-1.7812 0.42188-3.9219 0.42188-7.625 0-11.703-4.9531t-4.0781-14.234v-28.812h-9.0312v54.688h9.0312v-8.5q2.8438 4.9844 7.375 7.3906 4.5469 2.4219 11.047 2.4219 0.92188 0 2.0469-0.125 1.125-0.10938 2.4844-0.35938z"/>
<path id="k" d="m52 44.188q3.375 6.0625 8.0625 8.9375t11.031 2.875q8.5469 0 13.188-5.9844 4.6406-5.9688 4.6406-17v-33.016h-9.0312v32.719q0 7.8594-2.7969 11.656-2.7812 3.8125-8.4844 3.8125-6.9844 0-11.047-4.6406-4.0469-4.625-4.0469-12.641v-30.906h-9.0312v32.719q0 7.9062-2.7812 11.688t-8.5938 3.7812q-6.8906 0-10.953-4.6562-4.0469-4.6562-4.0469-12.625v-30.906h-9.0312v54.688h9.0312v-8.5q3.0781 5.0312 7.375 7.4219t10.203 2.3906q5.9688 0 10.141-3.0312 4.1719-3.0156 6.1719-8.7812z"/>
<path id="i" d="m9.4219 54.688h8.9844v-54.688h-8.9844zm0 21.297h8.9844v-11.391h-8.9844z"/>
<path id="h" d="m54.891 33.016v-33.016h-8.9844v32.719q0 7.7656-3.0312 11.609-3.0312 3.8594-9.0781 3.8594-7.2812 0-11.484-4.6406-4.2031-4.625-4.2031-12.641v-30.906h-9.0312v54.688h9.0312v-8.5q3.2344 4.9375 7.5938 7.375 4.375 2.4375 10.094 2.4375 9.4219 0 14.25-5.8281 4.8438-5.8281 4.8438-17.156z"/>
<path id="g" d="m34.281 27.484q-10.891 0-15.094-2.4844t-4.2031-8.5q0-4.7812 3.1562-7.5938 3.1562-2.7969 8.5625-2.7969 7.4844 0 12 5.2969t4.5156 14.078v2zm17.922 3.7188v-31.203h-8.9844v8.2969q-3.0781-4.9688-7.6719-7.3438t-11.234-2.375q-8.3906 0-13.359 4.7188-4.9531 4.7188-4.9531 12.625 0 9.2188 6.1719 13.906 6.1875 4.6875 18.438 4.6875h12.609v0.89062q0 6.2031-4.0781 9.5938t-11.453 3.3906q-4.6875 0-9.1406-1.125-4.4375-1.125-8.5312-3.375v8.3125q4.9219 1.9062 9.5625 2.8438 4.6406 0.95312 9.0312 0.95312 11.875 0 17.734-6.1562 5.8594-6.1406 5.8594-18.641z"/>
<path id="f" d="m9.4219 75.984h8.9844v-75.984h-8.9844z"/>
</defs>
<g transform="translate(360.94 790.7) rotate(90) scale(.08 -.08)">
<use xlink:href="#l"/>
<use x="60.818359" xlink:href="#d"/>
<use x="122.341797" xlink:href="#j"/>
<use x="163.439453" xlink:href="#k"/>
<use x="260.851562" xlink:href="#i"/>
<use x="288.634766" xlink:href="#h"/>
<use x="352.013672" xlink:href="#g"/>
<use x="413.292969" xlink:href="#f"/>
</g>
</g>
<path d="m142.78 695.54 2.1681 5.1484q0.93146 2.2119 3.1433 1.2804l7.1356-3.0049q2.2119-0.93146 1.2804-3.1433l-2.1681-5.1484q-0.93146-2.2119-3.1433-1.2804l-7.1356 3.0049q-2.2119 0.93146-1.2804 3.1433z" clip-path="url(#a)" fill="#fff" stroke="#fff"/>
<g clip-path="url(#a)">
<defs>
<path id="w" d="m64.406 67.281v-10.391q-4.9844 4.6406-10.625 6.9219-5.6406 2.2969-11.984 2.2969-12.5 0-19.141-7.6406t-6.6406-22.094q0-14.406 6.6406-22.047t19.141-7.6406q6.3438 0 11.984 2.2969t10.625 6.9375v-10.312q-5.1719-3.5156-10.969-5.2812-5.7812-1.75-12.219-1.75-16.562 0-26.094 10.125-9.5156 10.141-9.5156 27.672 0 17.578 9.5156 27.703 9.5312 10.141 26.094 10.141 6.5312 0 12.312-1.7344 5.7969-1.7344 10.875-5.2031z"/>
</defs>
<g transform="translate(146.53 693.96) rotate(67.163) scale(.08 -.08)">
<use xlink:href="#w"/>
</g>
</g>
<path d="m107.08 700.23 1.7858-4.2406q0.93146-2.2119-1.2804-3.1433l-7.1356-3.0049q-2.2119-0.93146-3.1433 1.2804l-1.7858 4.2406q-0.93146 2.2119 1.2804 3.1433l7.1356 3.0049q2.2119 0.93146 3.1433-1.2804z" clip-path="url(#a)" fill="#fff" stroke="#fff"/>
<g clip-path="url(#a)">
<g transform="translate(103.34 698.66) rotate(-67.163) scale(.08 -.08)">
<use xlink:href="#t"/>
</g>
</g>
<path d="m119.65 693.15v5.055q0 2.4 2.4 2.4h7.7425q2.4 0 2.4-2.4v-5.055q0-2.4-2.4-2.4h-7.7425q-2.4 0-2.4 2.4z" clip-path="url(#a)" fill="#fff" stroke="#fff"/>
<g clip-path="url(#a)">
<g transform="translate(123.71 693.15) rotate(90) scale(.08 -.08)">
<use xlink:href="#v"/>
</g>
</g>
<path d="m167.1 790.7v35.285q0 2.4 2.4 2.4h7.7425q2.4 0 2.4-2.4v-35.285q0-2.4-2.4-2.4h-7.7425q-2.4 0-2.4 2.4z" clip-path="url(#a)" fill="#fff" stroke="#fff"/>
<g clip-path="url(#a)">
<g transform="translate(171.16 790.7) rotate(90) scale(.08 -.08)">
<use xlink:href="#l"/>
<use x="60.818359" xlink:href="#d"/>
<use x="122.341797" xlink:href="#j"/>
<use x="163.439453" xlink:href="#k"/>
<use x="260.851562" xlink:href="#i"/>
<use x="288.634766" xlink:href="#h"/>
<use x="352.013672" xlink:href="#g"/>
<use x="413.292969" xlink:href="#f"/>
</g>
</g>
<path d="m214.54 790.7v35.285q0 2.4 2.4 2.4h7.7425q2.4 0 2.4-2.4v-35.285q0-2.4-2.4-2.4h-7.7425q-2.4 0-2.4 2.4z" clip-path="url(#a)" fill="#fff" stroke="#fff"/>
<g clip-path="url(#a)">
<g transform="translate(218.61 790.7) rotate(90) scale(.08 -.08)">
<use xlink:href="#l"/>
<use x="60.818359" xlink:href="#d"/>
<use x="122.341797" xlink:href="#j"/>
<use x="163.439453" xlink:href="#k"/>
<use x="260.851562" xlink:href="#i"/>
<use x="288.634766" xlink:href="#h"/>
<use x="352.013672" xlink:href="#g"/>
<use x="413.292969" xlink:href="#f"/>
</g>
</g>
<path d="m261.99 790.7v35.285q0 2.4 2.4 2.4h7.7425q2.4 0 2.4-2.4v-35.285q0-2.4-2.4-2.4h-7.7425q-2.4 0-2.4 2.4z" clip-path="url(#a)" fill="#fff" stroke="#fff"/>
<g clip-path="url(#a)">
<g transform="translate(266.05 790.7) rotate(90) scale(.08 -.08)">
<use xlink:href="#l"/>
<use x="60.818359" xlink:href="#d"/>
<use x="122.341797" xlink:href="#j"/>
<use x="163.439453" xlink:href="#k"/>
<use x="260.851562" xlink:href="#i"/>
<use x="288.634766" xlink:href="#h"/>
<use x="352.013672" xlink:href="#g"/>
<use x="413.292969" xlink:href="#f"/>
</g>
</g>
<path d="m212.79 701.34 2.9226-4.6267q1.2817-2.0291-0.74735-3.3108l-6.5459-4.1349q-2.0291-1.2817-3.3108 0.74735l-2.9226 4.6267q-1.2817 2.0291 0.74735 3.3108l6.5459 4.1349q2.0291 1.2817 3.3108-0.74735z" clip-path="url(#a)" fill="#fff" stroke="#fff"/>
<g clip-path="url(#a)">
<g transform="translate(209.36 699.17) rotate(-57.72) scale(.08 -.08)">
<use xlink:href="#q"/>
</g>
</g>
<path d="m273.46 696.88 2.7123 4.2938q1.2817 2.0291 3.3108 0.74735l6.5459-4.1349q2.0291-1.2817 0.74735-3.3108l-2.7123-4.2938q-1.2817-2.0291-3.3108-0.74735l-6.5459 4.1349q-2.0291 1.2817-0.74735 3.3108z" clip-path="url(#a)" fill="#fff" stroke="#fff"/>
<g clip-path="url(#a)">
<defs>
<path id="as" d="m53.516 70.516v-9.625q-5.6094 2.6875-10.594 4-4.9844 1.3281-9.625 1.3281-8.0469 0-12.422-3.125t-4.375-8.8906q0-4.8438 2.9062-7.3125 2.9062-2.4531 11.016-3.9688l5.9531-1.2188q11.031-2.1094 16.281-7.4062t5.25-14.172q0-10.609-7.1094-16.078-7.0938-5.4688-20.812-5.4688-5.1719 0-11.016 1.1719-5.8281 1.1719-12.078 3.4688v10.156q6-3.3594 11.766-5.0781 5.7656-1.7031 11.328-1.7031 8.4375 0 13.031 3.3125 4.5938 3.3281 4.5938 9.4844 0 5.3594-3.2969 8.3906t-10.812 4.5469l-6.0156 1.1719q-11.031 2.1875-15.969 6.875-4.9219 4.6875-4.9219 13.047 0 9.6719 6.8125 15.234t18.766 5.5625q5.1406 0 10.453-0.9375 5.3281-0.92188 10.891-2.7656z"/>
</defs>
<g transform="translate(276.9 694.71) rotate(57.72) scale(.08 -.08)">
<use xlink:href="#as"/>
</g>
</g>
<path d="m309.43 790.7v35.285q0 2.4 2.4 2.4h7.7425q2.4 0 2.4-2.4v-35.285q0-2.4-2.4-2.4h-7.7425q-2.4 0-2.4 2.4z" clip-path="url(#a)" fill="#fff" stroke="#fff"/>
<g clip-path="url(#a)">
<g transform="translate(313.5 790.7) rotate(90) scale(.08 -.08)">
<use xlink:href="#l"/>
<use x="60.818359" xlink:href="#d"/>
<use x="122.341797" xlink:href="#j"/>
<use x="163.439453" xlink:href="#k"/>
<use x="260.851562" xlink:href="#i"/>
<use x="288.634766" xlink:href="#h"/>
<use x="352.013672" xlink:href="#g"/>
<use x="413.292969" xlink:href="#f"/>
</g>
</g>
<path d="m519.81 519.13 0.55178 4.7921q0.27453 2.3842 2.6588 2.1097l7.6917-0.88565q2.3842-0.27453 2.1097-2.6588l-0.55178-4.7921q-0.27453-2.3842-2.6588-2.1097l-7.6917 0.88565q-2.3842 0.27453-2.1097 2.6588z" clip-path="url(#a)" fill="#fff" stroke="#fff"/>
<g clip-path="url(#a)">
<g transform="translate(523.84 518.66) rotate(83.432) scale(.08 -.08)">
<use xlink:href="#u"/>
</g>
</g>
<path d="m460.78 524.68 1.0353-5.3737q0.45405-2.3567-1.9026-2.8107l-7.6027-1.4648q-2.3567-0.45405-2.8107 1.9026l-1.0353 5.3737q-0.45405 2.3567 1.9026 2.8107l7.6027 1.4648q2.3567 0.45405 2.8107-1.9026z" clip-path="url(#a)" fill="#fff" stroke="#fff"/>
<g clip-path="url(#a)">
<g transform="translate(456.79 523.91) rotate(-79.095) scale(.08 -.08)">
<use xlink:href="#q"/>
</g>
</g>
<path d="m484.91 523.66 0.41273-4.5827q0.21528-2.3903-2.175-2.6056l-7.7113-0.6945q-2.3903-0.21528-2.6056 2.175l-0.41273 4.5827q-0.21528 2.3903 2.175 2.6056l7.7113 0.6945q2.3903 0.21528 2.6056-2.175z" clip-path="url(#a)" fill="#fff" stroke="#fff"/>
<g clip-path="url(#a)">
<g transform="translate(480.86 523.29) rotate(-84.854) scale(.08 -.08)">
<use xlink:href="#t"/>
</g>
</g>
<path d="m496.28 517.8 0.077244 6.1595q0.030094 2.3998 2.4299 2.3697l7.7419-0.097087q2.3998-0.030095 2.3697-2.4299l-0.077244-6.1595q-0.030095-2.3998-2.4299-2.3697l-7.7419 0.097087q-2.3998 0.030094-2.3697 2.4299z" clip-path="url(#a)" fill="#fff" stroke="#fff"/>
<g clip-path="url(#a)">
<defs>
<path id="aj" d="m19.672 64.797v-56.688h11.922q15.094 0 22.094 6.8281 7 6.8438 7 21.594 0 14.641-7 21.453t-22.094 6.8125zm-9.8594 8.1094h20.266q21.188 0 31.094-8.8125 9.9219-8.8125 9.9219-27.562 0-18.859-9.9688-27.703-9.9531-8.8281-31.047-8.8281h-20.266z"/>
</defs>
<g transform="translate(500.34 517.75) rotate(89.282) scale(.08 -.08)">
<use xlink:href="#aj"/>
</g>
</g>
<path d="m528.75 350.03 2.8227 4.6884q1.2379 2.0561 3.294 0.81823l6.6331-3.9935q2.0561-1.2379 0.81823-3.294l-2.8227-4.6884q-1.2379-2.0561-3.294-0.81823l-6.6331 3.9935q-2.0561 1.2379-0.81823 3.294z" clip-path="url(#a)" fill="#fff" stroke="#fff"/>
<g clip-path="url(#a)">
<g transform="translate(532.24 347.93) rotate(58.95) scale(.08 -.08)">
<use xlink:href="#q"/>
</g>
</g>
<path d="m546.66 790.7v35.285q0 2.4 2.4 2.4h7.7425q2.4 0 2.4-2.4v-35.285q0-2.4-2.4-2.4h-7.7425q-2.4 0-2.4 2.4z" clip-path="url(#a)" fill="#fff" stroke="#fff"/>
<g clip-path="url(#a)">
<g transform="translate(550.73 790.7) rotate(90) scale(.08 -.08)">
<use xlink:href="#l"/>
<use x="60.818359" xlink:href="#d"/>
<use x="122.341797" xlink:href="#j"/>
<use x="163.439453" xlink:href="#k"/>
<use x="260.851562" xlink:href="#i"/>
<use x="288.634766" xlink:href="#h"/>
<use x="352.013672" xlink:href="#g"/>
<use x="413.292969" xlink:href="#f"/>
</g>
</g>
<path d="m1066.8 636.25 0.07204 4.8232q0.035842 2.3997 2.4356 2.3639l7.7416-0.11563q2.3997-0.035843 2.3639-2.4356l-0.07204-4.8232q-0.035843-2.3997-2.4356-2.3639l-7.7416 0.11563q-2.3997 0.035843-2.3639 2.4356z" clip-path="url(#a)" fill="#fff" stroke="#fff"/>
<g clip-path="url(#a)">
<g transform="translate(1070.9 636.19) rotate(89.144) scale(.08 -.08)">
<use xlink:href="#u"/>
</g>
</g>
<path d="m956.8 645.1 4.202-4.0773q1.7224-1.6713 0.051128-3.3937l-5.3917-5.5566q-1.6713-1.7224-3.3937-0.051127l-4.202 4.0773q-1.7224 1.6713-0.051127 3.3937l5.3917 5.5566q1.6713 1.7224 3.3937 0.051127z" clip-path="url(#a)" fill="#fff" stroke="#fff"/>
<g clip-path="url(#a)">
<g transform="translate(953.97 642.19) rotate(-44.137) scale(.08 -.08)">
<use xlink:href="#ag"/>
</g>
</g>
<path d="m981.36 644.66 3.4738-4.2286q1.5234-1.8545-0.33105-3.3779l-5.9827-4.9147q-1.8545-1.5234-3.3779 0.33105l-3.4738 4.2286q-1.5234 1.8545 0.33105 3.3779l5.9827 4.9147q1.8545 1.5234 3.3779-0.33105z" clip-path="url(#a)" fill="#fff" stroke="#fff"/>
<g clip-path="url(#a)">
<g transform="translate(978.22 642.08) rotate(-50.597) scale(.08 -.08)">
<use xlink:href="#q"/>
</g>
</g>
<path d="m1006.1 643.8 2.4029-3.9239q1.2534-2.0467-0.79335-3.3001l-6.6028-4.0434q-2.0467-1.2534-3.3001 0.79335l-2.4029 3.9239q-1.2534 2.0467 0.79335 3.3001l6.6028 4.0434q2.0467 1.2534 3.3001-0.79335z" clip-path="url(#a)" fill="#fff" stroke="#fff"/>
<g clip-path="url(#a)">
<g transform="translate(1002.7 641.68) rotate(-58.518) scale(.08 -.08)">
<use xlink:href="#t"/>
</g>
</g>
<path d="m1041.4 588.08 3.1433-5.2976q1.2247-2.064-0.83934-3.2887l-6.6586-3.9509q-2.064-1.2247-3.2887 0.83934l-3.1433 5.2976q-1.2247 2.064 0.83934 3.2887l6.6586 3.9509q2.064 1.2247 3.2887-0.83934z" clip-path="url(#a)" fill="#fff" stroke="#fff"/>
<g clip-path="url(#a)">
<g transform="translate(1037.9 586.01) rotate(-59.317) scale(.08 -.08)">
<use xlink:href="#aj"/>
</g>
</g>
<path d="m1114.1 584.25 3.5691 4.1484q1.5653 1.8193 3.3846 0.25407l5.8692-5.0496q1.8193-1.5653 0.25407-3.3846l-3.5691-4.1484q-1.5653-1.8193-3.3846-0.25407l-5.8692 5.0496q-1.8193 1.5653-0.25407 3.3846z" clip-path="url(#a)" fill="#fff" stroke="#fff"/>
<g clip-path="url(#a)">
<g transform="translate(1117.1 581.6) rotate(49.293) scale(.08 -.08)">
<use xlink:href="#q"/>
</g>
</g>
<path d="m1328.9 643.16 5.375 2.3217q2.2032 0.95169 3.1549-1.2516l3.0702-7.1078q0.95169-2.2032-1.2516-3.1549l-5.375-2.3217q-2.2032-0.95169-3.1549 1.2516l-3.0702 7.1078q-0.95169 2.2032 1.2516 3.1549z" clip-path="url(#a)" fill="#fff" stroke="#fff"/>
<g clip-path="url(#a)">
<g transform="translate(1330.5 639.43) rotate(23.362) scale(.08 -.08)">
<use xlink:href="#ag"/>
</g>
</g>
<path d="m1068.6 790.7v35.285q0 2.4 2.4 2.4h7.7425q2.4 0 2.4-2.4v-35.285q0-2.4-2.4-2.4h-7.7425q-2.4 0-2.4 2.4z" clip-path="url(#a)" fill="#fff" stroke="#fff"/>
<g clip-path="url(#a)">
<g transform="translate(1072.6 790.7) rotate(90) scale(.08 -.08)">
<use xlink:href="#l"/>
<use x="60.818359" xlink:href="#d"/>
<use x="122.341797" xlink:href="#j"/>
<use x="163.439453" xlink:href="#k"/>
<use x="260.851562" xlink:href="#i"/>
<use x="288.634766" xlink:href="#h"/>
<use x="352.013672" xlink:href="#g"/>
<use x="413.292969" xlink:href="#f"/>
</g>
</g>
<path d="m1637.9 790.7v35.285q0 2.4 2.4 2.4h7.7425q2.4 0 2.4-2.4v-35.285q0-2.4-2.4-2.4h-7.7425q-2.4 0-2.4 2.4z" clip-path="url(#a)" fill="#fff" stroke="#fff"/>
<g clip-path="url(#a)">
<g transform="translate(1642 790.7) rotate(90) scale(.08 -.08)">
<use xlink:href="#l"/>
<use x="60.818359" xlink:href="#d"/>
<use x="122.341797" xlink:href="#j"/>
<use x="163.439453" xlink:href="#k"/>
<use x="260.851562" xlink:href="#i"/>
<use x="288.634766" xlink:href="#h"/>
<use x="352.013672" xlink:href="#g"/>
<use x="413.292969" xlink:href="#f"/>
</g>
</g>
<path d="m72.204 790.7v35.285q0 2.4 2.4 2.4h7.7425q2.4 0 2.4-2.4v-35.285q0-2.4-2.4-2.4h-7.7425q-2.4 0-2.4 2.4z" clip-path="url(#a)" fill="#fff" stroke="#fff"/>
<g clip-path="url(#a)">
<g transform="translate(76.267 790.7) rotate(90) scale(.08 -.08)">
<use xlink:href="#l"/>
<use x="60.818359" xlink:href="#d"/>
<use x="122.341797" xlink:href="#j"/>
<use x="163.439453" xlink:href="#k"/>
<use x="260.851562" xlink:href="#i"/>
<use x="288.634766" xlink:href="#h"/>
<use x="352.013672" xlink:href="#g"/>
<use x="413.292969" xlink:href="#f"/>
</g>
</g>
<path d="m119.65 790.7v35.285q0 2.4 2.4 2.4h7.7425q2.4 0 2.4-2.4v-35.285q0-2.4-2.4-2.4h-7.7425q-2.4 0-2.4 2.4z" clip-path="url(#a)" fill="#fff" stroke="#fff"/>
<g clip-path="url(#a)">
<g transform="translate(123.71 790.7) rotate(90) scale(.08 -.08)">
<use xlink:href="#l"/>
<use x="60.818359" xlink:href="#d"/>
<use x="122.341797" xlink:href="#j"/>
<use x="163.439453" xlink:href="#k"/>
<use x="260.851562" xlink:href="#i"/>
<use x="288.634766" xlink:href="#h"/>
<use x="352.013672" xlink:href="#g"/>
<use x="413.292969" xlink:href="#f"/>
</g>
</g>
<path d="m404.33 790.7v35.285q0 2.4 2.4 2.4h7.7425q2.4 0 2.4-2.4v-35.285q0-2.4-2.4-2.4h-7.7425q-2.4 0-2.4 2.4z" clip-path="url(#a)" fill="#fff" stroke="#fff"/>
<g clip-path="url(#a)">
<g transform="translate(408.39 790.7) rotate(90) scale(.08 -.08)">
<use xlink:href="#l"/>
<use x="60.818359" xlink:href="#d"/>
<use x="122.341797" xlink:href="#j"/>
<use x="163.439453" xlink:href="#k"/>
<use x="260.851562" xlink:href="#i"/>
<use x="288.634766" xlink:href="#h"/>
<use x="352.013672" xlink:href="#g"/>
<use x="413.292969" xlink:href="#f"/>
</g>
</g>
<path d="m451.77 790.7v35.285q0 2.4 2.4 2.4h7.7425q2.4 0 2.4-2.4v-35.285q0-2.4-2.4-2.4h-7.7425q-2.4 0-2.4 2.4z" clip-path="url(#a)" fill="#fff" stroke="#fff"/>
<g clip-path="url(#a)">
<g transform="translate(455.84 790.7) rotate(90) scale(.08 -.08)">
<use xlink:href="#l"/>
<use x="60.818359" xlink:href="#d"/>
<use x="122.341797" xlink:href="#j"/>
<use x="163.439453" xlink:href="#k"/>
<use x="260.851562" xlink:href="#i"/>
<use x="288.634766" xlink:href="#h"/>
<use x="352.013672" xlink:href="#g"/>
<use x="413.292969" xlink:href="#f"/>
</g>
</g>
<path d="m499.22 790.7v35.285q0 2.4 2.4 2.4h7.7425q2.4 0 2.4-2.4v-35.285q0-2.4-2.4-2.4h-7.7425q-2.4 0-2.4 2.4z" clip-path="url(#a)" fill="#fff" stroke="#fff"/>
<g clip-path="url(#a)">
<g transform="translate(503.28 790.7) rotate(90) scale(.08 -.08)">
<use xlink:href="#l"/>
<use x="60.818359" xlink:href="#d"/>
<use x="122.341797" xlink:href="#j"/>
<use x="163.439453" xlink:href="#k"/>
<use x="260.851562" xlink:href="#i"/>
<use x="288.634766" xlink:href="#h"/>
<use x="352.013672" xlink:href="#g"/>
<use x="413.292969" xlink:href="#f"/>
</g>
</g>
<path d="m495.51 585.48 2.321-4.9559q1.0179-2.1735-1.1556-3.1913l-7.0117-3.2837q-2.1735-1.0179-3.1913 1.1556l-2.321 4.9559q-1.0179 2.1735 1.1556 3.1913l7.0117 3.2837q2.1735 1.0179 3.1913-1.1556z" clip-path="url(#a)" fill="#fff" stroke="#fff"/>
<g clip-path="url(#a)">
<g transform="translate(491.83 583.76) rotate(-64.905) scale(.08 -.08)">
<use xlink:href="#q"/>
</g>
</g>
<path d="m579.43 578.47 0.40592 4.8066q0.20196 2.3915 2.5935 2.1895l7.715-0.65154q2.3915-0.20196 2.1895-2.5934l-0.40592-4.8066q-0.20196-2.3915-2.5934-2.1895l-7.715 0.65154q-2.3915 0.20196-2.1895 2.5935z" clip-path="url(#a)" fill="#fff" stroke="#fff"/>
<g clip-path="url(#a)">
<g transform="translate(583.48 578.13) rotate(85.173) scale(.08 -.08)">
<use xlink:href="#u"/>
</g>
</g>
<path d="m631.08 469.79 4.1013 3.6232q1.7986 1.589 3.3876-0.20964l5.1262-5.8025q1.589-1.7986-0.20964-3.3876l-4.1013-3.6232q-1.7986-1.589-3.3876 0.20964l-5.1262 5.8025q-1.589 1.7986 0.20964 3.3876z" clip-path="url(#a)" fill="#fff" stroke="#fff"/>
<g clip-path="url(#a)">
<g transform="translate(633.77 466.74) rotate(41.459) scale(.08 -.08)">
<use xlink:href="#q"/>
</g>
</g>
<path d="m594.11 790.7v35.285q0 2.4 2.4 2.4h7.7425q2.4 0 2.4-2.4v-35.285q0-2.4-2.4-2.4h-7.7425q-2.4 0-2.4 2.4z" clip-path="url(#a)" fill="#fff" stroke="#fff"/>
<g clip-path="url(#a)">
<g transform="translate(598.17 790.7) rotate(90) scale(.08 -.08)">
<use xlink:href="#l"/>
<use x="60.818359" xlink:href="#d"/>
<use x="122.341797" xlink:href="#j"/>
<use x="163.439453" xlink:href="#k"/>
<use x="260.851562" xlink:href="#i"/>
<use x="288.634766" xlink:href="#h"/>
<use x="352.013672" xlink:href="#g"/>
<use x="413.292969" xlink:href="#f"/>
</g>
</g>
<path d="m831.34 790.7v35.285q0 2.4 2.4 2.4h7.7425q2.4 0 2.4-2.4v-35.285q0-2.4-2.4-2.4h-7.7425q-2.4 0-2.4 2.4z" clip-path="url(#a)" fill="#fff" stroke="#fff"/>
<g clip-path="url(#a)">
<g transform="translate(835.4 790.7) rotate(90) scale(.08 -.08)">
<use xlink:href="#l"/>
<use x="60.818359" xlink:href="#d"/>
<use x="122.341797" xlink:href="#j"/>
<use x="163.439453" xlink:href="#k"/>
<use x="260.851562" xlink:href="#i"/>
<use x="288.634766" xlink:href="#h"/>
<use x="352.013672" xlink:href="#g"/>
<use x="413.292969" xlink:href="#f"/>
</g>
</g>
<path d="m878.79 790.7v35.285q0 2.4 2.4 2.4h7.7425q2.4 0 2.4-2.4v-35.285q0-2.4-2.4-2.4h-7.7425q-2.4 0-2.4 2.4z" clip-path="url(#a)" fill="#fff" stroke="#fff"/>
<g clip-path="url(#a)">
<g transform="translate(882.85 790.7) rotate(90) scale(.08 -.08)">
<use xlink:href="#l"/>
<use x="60.818359" xlink:href="#d"/>
<use x="122.341797" xlink:href="#j"/>
<use x="163.439453" xlink:href="#k"/>
<use x="260.851562" xlink:href="#i"/>
<use x="288.634766" xlink:href="#h"/>
<use x="352.013672" xlink:href="#g"/>
<use x="413.292969" xlink:href="#f"/>
</g>
</g>
<path d="m926.23 790.7v35.285q0 2.4 2.4 2.4h7.7425q2.4 0 2.4-2.4v-35.285q0-2.4-2.4-2.4h-7.7425q-2.4 0-2.4 2.4z" clip-path="url(#a)" fill="#fff" stroke="#fff"/>
<g clip-path="url(#a)">
<g transform="translate(930.29 790.7) rotate(90) scale(.08 -.08)">
<use xlink:href="#l"/>
<use x="60.818359" xlink:href="#d"/>
<use x="122.341797" xlink:href="#j"/>
<use x="163.439453" xlink:href="#k"/>
<use x="260.851562" xlink:href="#i"/>
<use x="288.634766" xlink:href="#h"/>
<use x="352.013672" xlink:href="#g"/>
<use x="413.292969" xlink:href="#f"/>
</g>
</g>
<path d="m1008.8 694.24 1.151 5.4664q0.4945 2.3485 2.843 1.854l7.5764-1.5953q2.3485-0.4945 1.854-2.843l-1.151-5.4664q-0.4945-2.3485-2.843-1.854l-7.5764 1.5953q-2.3485 0.4945-1.854 2.843z" clip-path="url(#a)" fill="#fff" stroke="#fff"/>
<g clip-path="url(#a)">
<g transform="translate(1012.8 693.4) rotate(78.109) scale(.08 -.08)">
<use xlink:href="#w"/>
</g>
</g>
<path d="m997.43 699.45 1.0415-4.9465q0.4945-2.3485-1.854-2.843l-7.5764-1.5953q-2.3485-0.4945-2.843 1.854l-1.0415 4.9465q-0.4945 2.3485 1.854 2.843l7.5764 1.5953q2.3485 0.4945 2.843-1.854z" clip-path="url(#a)" fill="#fff" stroke="#fff"/>
<g clip-path="url(#a)">
<g transform="translate(993.45 698.61) rotate(-78.109) scale(.08 -.08)">
<use xlink:href="#v"/>
</g>
</g>
<path d="m1021.1 790.7v35.285q0 2.4 2.4 2.4h7.7425q2.4 0 2.4-2.4v-35.285q0-2.4-2.4-2.4h-7.7425q-2.4 0-2.4 2.4z" clip-path="url(#a)" fill="#fff" stroke="#fff"/>
<g clip-path="url(#a)">
<g transform="translate(1025.2 790.7) rotate(90) scale(.08 -.08)">
<use xlink:href="#l"/>
<use x="60.818359" xlink:href="#d"/>
<use x="122.341797" xlink:href="#j"/>
<use x="163.439453" xlink:href="#k"/>
<use x="260.851562" xlink:href="#i"/>
<use x="288.634766" xlink:href="#h"/>
<use x="352.013672" xlink:href="#g"/>
<use x="413.292969" xlink:href="#f"/>
</g>
</g>
<path d="m1186.7 695.89 1.8721 4.4456q0.93146 2.2119 3.1433 1.2804l7.1356-3.0049q2.2119-0.93146 1.2804-3.1433l-1.8721-4.4456q-0.93146-2.2119-3.1433-1.2804l-7.1356 3.0049q-2.2119 0.93146-1.2804 3.1433z" clip-path="url(#a)" fill="#fff" stroke="#fff"/>
<g clip-path="url(#a)">
<g transform="translate(1190.5 694.31) rotate(67.163) scale(.08 -.08)">
<use xlink:href="#u"/>
</g>
</g>
<path d="m1150.7 700.64 2.1239-5.0435q0.93146-2.2119-1.2804-3.1433l-7.1356-3.0049q-2.2119-0.93146-3.1433 1.2804l-2.1239 5.0435q-0.93146 2.2119 1.2804 3.1433l7.1356 3.0049q2.2119 0.93146 3.1433-1.2804z" clip-path="url(#a)" fill="#fff" stroke="#fff"/>
<g clip-path="url(#a)">
<g transform="translate(1147 699.06) rotate(-67.163) scale(.08 -.08)">
<use xlink:href="#q"/>
</g>
</g>
<path d="m1163.5 693.38v4.6012q0 2.4 2.4 2.4h7.7425q2.4 0 2.4-2.4v-4.6012q0-2.4-2.4-2.4h-7.7425q-2.4 0-2.4 2.4z" clip-path="url(#a)" fill="#fff" stroke="#fff"/>
<g clip-path="url(#a)">
<g transform="translate(1167.5 693.38) rotate(90) scale(.08 -.08)">
<use xlink:href="#t"/>
</g>
</g>
<path d="m1210.9 790.7v35.285q0 2.4 2.4 2.4h7.7425q2.4 0 2.4-2.4v-35.285q0-2.4-2.4-2.4h-7.7425q-2.4 0-2.4 2.4z" clip-path="url(#a)" fill="#fff" stroke="#fff"/>
<g clip-path="url(#a)">
<g transform="translate(1215 790.7) rotate(90) scale(.08 -.08)">
<use xlink:href="#l"/>
<use x="60.818359" xlink:href="#d"/>
<use x="122.341797" xlink:href="#j"/>
<use x="163.439453" xlink:href="#k"/>
<use x="260.851562" xlink:href="#i"/>
<use x="288.634766" xlink:href="#h"/>
<use x="352.013672" xlink:href="#g"/>
<use x="413.292969" xlink:href="#f"/>
</g>
</g>
<path d="m1258.4 790.7v35.285q0 2.4 2.4 2.4h7.7425q2.4 0 2.4-2.4v-35.285q0-2.4-2.4-2.4h-7.7425q-2.4 0-2.4 2.4z" clip-path="url(#a)" fill="#fff" stroke="#fff"/>
<g clip-path="url(#a)">
<g transform="translate(1262.4 790.7) rotate(90) scale(.08 -.08)">
<use xlink:href="#l"/>
<use x="60.818359" xlink:href="#d"/>
<use x="122.341797" xlink:href="#j"/>
<use x="163.439453" xlink:href="#k"/>
<use x="260.851562" xlink:href="#i"/>
<use x="288.634766" xlink:href="#h"/>
<use x="352.013672" xlink:href="#g"/>
<use x="413.292969" xlink:href="#f"/>
</g>
</g>
<path d="m1426.4 637.35 0.89214 4.7405q0.44388 2.3586 2.8025 1.9147l7.6089-1.432q2.3586-0.44388 1.9147-2.8025l-0.89214-4.7405q-0.44388-2.3586-2.8025-1.9147l-7.6089 1.432q-2.3586 0.44388-1.9147 2.8025z" clip-path="url(#a)" fill="#fff" stroke="#fff"/>
<g clip-path="url(#a)">
<g transform="translate(1430.4 636.6) rotate(79.342) scale(.08 -.08)">
<use xlink:href="#u"/>
</g>
</g>
<path d="m1366.5 643.59 2.2003-5.0107q0.96496-2.1975-1.2325-3.1624l-7.0891-3.113q-2.1975-0.96496-3.1624 1.2325l-2.2003 5.0107q-0.96496 2.1975 1.2325 3.1624l7.0891 3.113q2.1975 0.96496 3.1624-1.2325z" clip-path="url(#a)" fill="#fff" stroke="#fff"/>
<g clip-path="url(#a)">
<g transform="translate(1362.8 641.96) rotate(-66.293) scale(.08 -.08)">
<use xlink:href="#q"/>
</g>
</g>
<path d="m1391.2 642.21 1.0314-4.4842q0.53799-2.3389-1.8009-2.8769l-7.5455-1.7356q-2.3389-0.53799-2.8769 1.8009l-1.0314 4.4842q-0.53799 2.3389 1.8009 2.8769l7.5455 1.7356q2.3389 0.53799 2.8769-1.8009z" clip-path="url(#a)" fill="#fff" stroke="#fff"/>
<g clip-path="url(#a)">
<g transform="translate(1387.2 641.3) rotate(-77.046) scale(.08 -.08)">
<use xlink:href="#t"/>
</g>
</g>
<path d="m1415.5 641.77 0.12878-6.1587q0.050174-2.3995-2.3493-2.4496l-7.7408-0.16186q-2.3995-0.050175-2.4496 2.3493l-0.12878 6.1587q-0.050174 2.3995 2.3493 2.4496l7.7408 0.16186q2.3995 0.050174 2.4496-2.3493z" clip-path="url(#a)" fill="#fff" stroke="#fff"/>
<g clip-path="url(#a)">
<g transform="translate(1411.5 641.69) rotate(-88.802) scale(.08 -.08)">
<use xlink:href="#aj"/>
</g>
</g>
<path d="m1462.3 584.72 3.8635 3.8758q1.6944 1.6998 3.3941 0.005404l5.4835-5.4661q1.6998-1.6944 0.005403-3.3941l-3.8635-3.8758q-1.6944-1.6998-3.3941-0.005404l-5.4835 5.4661q-1.6998 1.6944-0.005403 3.3941z" clip-path="url(#a)" fill="#fff" stroke="#fff"/>
<g clip-path="url(#a)">
<g transform="translate(1465.1 581.85) rotate(45.091) scale(.08 -.08)">
<use xlink:href="#q"/>
</g>
</g>
<path d="m1448.1 790.7v35.285q0 2.4 2.4 2.4h7.7425q2.4 0 2.4-2.4v-35.285q0-2.4-2.4-2.4h-7.7425q-2.4 0-2.4 2.4z" clip-path="url(#a)" fill="#fff" stroke="#fff"/>
<g clip-path="url(#a)">
<g transform="translate(1452.2 790.7) rotate(90) scale(.08 -.08)">
<use xlink:href="#l"/>
<use x="60.818359" xlink:href="#d"/>
<use x="122.341797" xlink:href="#j"/>
<use x="163.439453" xlink:href="#k"/>
<use x="260.851562" xlink:href="#i"/>
<use x="288.634766" xlink:href="#h"/>
<use x="352.013672" xlink:href="#g"/>
<use x="413.292969" xlink:href="#f"/>
</g>
</g>
<path d="m1590.5 790.7v35.285q0 2.4 2.4 2.4h7.7425q2.4 0 2.4-2.4v-35.285q0-2.4-2.4-2.4h-7.7425q-2.4 0-2.4 2.4z" clip-path="url(#a)" fill="#fff" stroke="#fff"/>
<g clip-path="url(#a)">
<g transform="translate(1594.5 790.7) rotate(90) scale(.08 -.08)">
<use xlink:href="#l"/>
<use x="60.818359" xlink:href="#d"/>
<use x="122.341797" xlink:href="#j"/>
<use x="163.439453" xlink:href="#k"/>
<use x="260.851562" xlink:href="#i"/>
<use x="288.634766" xlink:href="#h"/>
<use x="352.013672" xlink:href="#g"/>
<use x="413.292969" xlink:href="#f"/>
</g>
</g>
<path d="m705.4 641.57 0.19457-5.5829q0.083592-2.3985-2.315-2.4821l-7.7378-0.26967q-2.3985-0.083592-2.4821 2.315l-0.19457 5.5829q-0.083591 2.3985 2.315 2.4821l7.7378 0.26967q2.3985 0.083592 2.4821-2.315z" clip-path="url(#a)" fill="#fff" stroke="#fff"/>
<g clip-path="url(#a)">
<g transform="translate(701.34 641.43) rotate(-88.004) scale(.08 -.08)">
<use xlink:href="#w"/>
</g>
</g>
<path d="m680.94 642.75 1.3175-5.4004q0.56881-2.3316-1.7628-2.9004l-7.5219-1.835q-2.3316-0.56881-2.9004 1.7628l-1.3175 5.4004q-0.56881 2.3316 1.7628 2.9004l7.5219 1.835q2.3316 0.56881 2.9004-1.7628z" clip-path="url(#a)" fill="#fff" stroke="#fff"/>
<g clip-path="url(#a)">
<defs>
<path id="ah" d="m44.391 34.188q3.1719-1.0781 6.1719-4.5938t6.0312-9.6719l10.016-19.922h-10.609l-9.3125 18.703q-3.625 7.3281-7.0156 9.7188t-9.25 2.3906h-10.75v-30.812h-9.8594v72.906h22.266q12.5 0 18.656-5.2344 6.1562-5.2188 6.1562-15.766 0-6.8906-3.2031-11.438-3.2031-4.5312-9.2969-6.2812zm-24.719 30.609v-25.875h12.406q7.125 0 10.766 3.2969t3.6406 9.6875-3.6406 9.6406-10.766 3.25z"/>
</defs>
<g transform="translate(676.99 641.79) rotate(-76.29) scale(.08 -.08)">
<use xlink:href="#ah"/>
</g>
</g>
<path d="m728.1 583.06 2.449 4.4222q1.1627 2.0996 3.2623 0.93684l6.7732-3.7509q2.0996-1.1627 0.93684-3.2623l-2.449-4.4222q-1.1627-2.0996-3.2623-0.93684l-6.7732 3.7509q-2.0995 1.1627-0.93684 3.2623z" clip-path="url(#a)" fill="#fff" stroke="#fff"/>
<g clip-path="url(#a)">
<g transform="translate(731.66 581.09) rotate(61.023) scale(.08 -.08)">
<use xlink:href="#v"/>
</g>
</g>
<path d="m689 790.7v35.285q0 2.4 2.4 2.4h7.7425q2.4 0 2.4-2.4v-35.285q0-2.4-2.4-2.4h-7.7425q-2.4 0-2.4 2.4z" clip-path="url(#a)" fill="#fff" stroke="#fff"/>
<g clip-path="url(#a)">
<g transform="translate(693.06 790.7) rotate(90) scale(.08 -.08)">
<use xlink:href="#l"/>
<use x="60.818359" xlink:href="#d"/>
<use x="122.341797" xlink:href="#j"/>
<use x="163.439453" xlink:href="#k"/>
<use x="260.851562" xlink:href="#i"/>
<use x="288.634766" xlink:href="#h"/>
<use x="352.013672" xlink:href="#g"/>
<use x="413.292969" xlink:href="#f"/>
</g>
</g>
<path d="m973.68 790.7v35.285q0 2.4 2.4 2.4h7.7425q2.4 0 2.4-2.4v-35.285q0-2.4-2.4-2.4h-7.7425q-2.4 0-2.4 2.4z" clip-path="url(#a)" fill="#fff" stroke="#fff"/>
<g clip-path="url(#a)">
<g transform="translate(977.74 790.7) rotate(90) scale(.08 -.08)">
<use xlink:href="#l"/>
<use x="60.818359" xlink:href="#d"/>
<use x="122.341797" xlink:href="#j"/>
<use x="163.439453" xlink:href="#k"/>
<use x="260.851562" xlink:href="#i"/>
<use x="288.634766" xlink:href="#h"/>
<use x="352.013672" xlink:href="#g"/>
<use x="413.292969" xlink:href="#f"/>
</g>
</g>
<path d="m1116 790.7v35.285q0 2.4 2.4 2.4h7.7425q2.4 0 2.4-2.4v-35.285q0-2.4-2.4-2.4h-7.7425q-2.4 0-2.4 2.4z" clip-path="url(#a)" fill="#fff" stroke="#fff"/>
<g clip-path="url(#a)">
<g transform="translate(1120.1 790.7) rotate(90) scale(.08 -.08)">
<use xlink:href="#l"/>
<use x="60.818359" xlink:href="#d"/>
<use x="122.341797" xlink:href="#j"/>
<use x="163.439453" xlink:href="#k"/>
<use x="260.851562" xlink:href="#i"/>
<use x="288.634766" xlink:href="#h"/>
<use x="352.013672" xlink:href="#g"/>
<use x="413.292969" xlink:href="#f"/>
</g>
</g>
<path d="m1163.5 790.7v35.285q0 2.4 2.4 2.4h7.7425q2.4 0 2.4-2.4v-35.285q0-2.4-2.4-2.4h-7.7425q-2.4 0-2.4 2.4z" clip-path="url(#a)" fill="#fff" stroke="#fff"/>
<g clip-path="url(#a)">
<g transform="translate(1167.5 790.7) rotate(90) scale(.08 -.08)">
<use xlink:href="#l"/>
<use x="60.818359" xlink:href="#d"/>
<use x="122.341797" xlink:href="#j"/>
<use x="163.439453" xlink:href="#k"/>
<use x="260.851562" xlink:href="#i"/>
<use x="288.634766" xlink:href="#h"/>
<use x="352.013672" xlink:href="#g"/>
<use x="413.292969" xlink:href="#f"/>
</g>
</g>
<path d="m1305.8 790.7v35.285q0 2.4 2.4 2.4h7.7425q2.4 0 2.4-2.4v-35.285q0-2.4-2.4-2.4h-7.7425q-2.4 0-2.4 2.4z" clip-path="url(#a)" fill="#fff" stroke="#fff"/>
<g clip-path="url(#a)">
<g transform="translate(1309.9 790.7) rotate(90) scale(.08 -.08)">
<use xlink:href="#l"/>
<use x="60.818359" xlink:href="#d"/>
<use x="122.341797" xlink:href="#j"/>
<use x="163.439453" xlink:href="#k"/>
<use x="260.851562" xlink:href="#i"/>
<use x="288.634766" xlink:href="#h"/>
<use x="352.013672" xlink:href="#g"/>
<use x="413.292969" xlink:href="#f"/>
</g>
</g>
<path d="m1353.2 790.7v35.285q0 2.4 2.4 2.4h7.7425q2.4 0 2.4-2.4v-35.285q0-2.4-2.4-2.4h-7.7425q-2.4 0-2.4 2.4z" clip-path="url(#a)" fill="#fff" stroke="#fff"/>
<g clip-path="url(#a)">
<g transform="translate(1357.3 790.7) rotate(90) scale(.08 -.08)">
<use xlink:href="#l"/>
<use x="60.818359" xlink:href="#d"/>
<use x="122.341797" xlink:href="#j"/>
<use x="163.439453" xlink:href="#k"/>
<use x="260.851562" xlink:href="#i"/>
<use x="288.634766" xlink:href="#h"/>
<use x="352.013672" xlink:href="#g"/>
<use x="413.292969" xlink:href="#f"/>
</g>
</g>
<path d="m1400.7 790.7v35.285q0 2.4 2.4 2.4h7.7425q2.4 0 2.4-2.4v-35.285q0-2.4-2.4-2.4h-7.7425q-2.4 0-2.4 2.4z" clip-path="url(#a)" fill="#fff" stroke="#fff"/>
<g clip-path="url(#a)">
<g transform="translate(1404.8 790.7) rotate(90) scale(.08 -.08)">
<use xlink:href="#l"/>
<use x="60.818359" xlink:href="#d"/>
<use x="122.341797" xlink:href="#j"/>
<use x="163.439453" xlink:href="#k"/>
<use x="260.851562" xlink:href="#i"/>
<use x="288.634766" xlink:href="#h"/>
<use x="352.013672" xlink:href="#g"/>
<use x="413.292969" xlink:href="#f"/>
</g>
</g>
<path d="m1530.7 694.24 1.151 5.4664q0.4945 2.3485 2.843 1.854l7.5764-1.5953q2.3485-0.4945 1.854-2.843l-1.151-5.4664q-0.4945-2.3485-2.843-1.854l-7.5764 1.5953q-2.3485 0.4945-1.854 2.843z" clip-path="url(#a)" fill="#fff" stroke="#fff"/>
<g clip-path="url(#a)">
<g transform="translate(1534.7 693.4) rotate(78.109) scale(.08 -.08)">
<use xlink:href="#w"/>
</g>
</g>
<path d="m1519.3 699.69 1.1453-5.4395q0.4945-2.3485-1.854-2.843l-7.5764-1.5953q-2.3485-0.4945-2.843 1.854l-1.1453 5.4395q-0.4945 2.3485 1.854 2.843l7.5764 1.5953q2.3485 0.4945 2.843-1.854z" clip-path="url(#a)" fill="#fff" stroke="#fff"/>
<g clip-path="url(#a)">
<g transform="translate(1515.3 698.86) rotate(-78.109) scale(.08 -.08)">
<use xlink:href="#ah"/>
</g>
</g>
<path d="m1543 790.7v35.285q0 2.4 2.4 2.4h7.7425q2.4 0 2.4-2.4v-35.285q0-2.4-2.4-2.4h-7.7425q-2.4 0-2.4 2.4z" clip-path="url(#a)" fill="#fff" stroke="#fff"/>
<g clip-path="url(#a)">
<g transform="translate(1547.1 790.7) rotate(90) scale(.08 -.08)">
<use xlink:href="#l"/>
<use x="60.818359" xlink:href="#d"/>
<use x="122.341797" xlink:href="#j"/>
<use x="163.439453" xlink:href="#k"/>
<use x="260.851562" xlink:href="#i"/>
<use x="288.634766" xlink:href="#h"/>
<use x="352.013672" xlink:href="#g"/>
<use x="413.292969" xlink:href="#f"/>
</g>
</g>
<path d="m641.56 790.7v35.285q0 2.4 2.4 2.4h7.7425q2.4 0 2.4-2.4v-35.285q0-2.4-2.4-2.4h-7.7425q-2.4 0-2.4 2.4z" clip-path="url(#a)" fill="#fff" stroke="#fff"/>
<g clip-path="url(#a)">
<g transform="translate(645.62 790.7) rotate(90) scale(.08 -.08)">
<use xlink:href="#l"/>
<use x="60.818359" xlink:href="#d"/>
<use x="122.341797" xlink:href="#j"/>
<use x="163.439453" xlink:href="#k"/>
<use x="260.851562" xlink:href="#i"/>
<use x="288.634766" xlink:href="#h"/>
<use x="352.013672" xlink:href="#g"/>
<use x="413.292969" xlink:href="#f"/>
</g>
</g>
<path d="m771.59 694.24 1.151 5.4664q0.4945 2.3485 2.843 1.854l7.5764-1.5953q2.3485-0.4945 1.854-2.843l-1.151-5.4664q-0.4945-2.3485-2.843-1.854l-7.5764 1.5953q-2.3485 0.4945-1.854 2.843z" clip-path="url(#a)" fill="#fff" stroke="#fff"/>
<g clip-path="url(#a)">
<g transform="translate(775.57 693.4) rotate(78.109) scale(.08 -.08)">
<use xlink:href="#w"/>
</g>
</g>
<path d="m760.14 699.69 1.1453-5.4395q0.4945-2.3485-1.854-2.843l-7.5764-1.5953q-2.3485-0.4945-2.843 1.854l-1.1453 5.4395q-0.4945 2.3485 1.854 2.843l7.5764 1.5953q2.3485 0.4945 2.843-1.854z" clip-path="url(#a)" fill="#fff" stroke="#fff"/>
<g clip-path="url(#a)">
<g transform="translate(756.17 698.86) rotate(-78.109) scale(.08 -.08)">
<use xlink:href="#ah"/>
</g>
</g>
<path d="m783.89 790.7v35.285q0 2.4 2.4 2.4h7.7425q2.4 0 2.4-2.4v-35.285q0-2.4-2.4-2.4h-7.7425q-2.4 0-2.4 2.4z" clip-path="url(#a)" fill="#fff" stroke="#fff"/>
<g clip-path="url(#a)">
<g transform="translate(787.96 790.7) rotate(90) scale(.08 -.08)">
<use xlink:href="#l"/>
<use x="60.818359" xlink:href="#d"/>
<use x="122.341797" xlink:href="#j"/>
<use x="163.439453" xlink:href="#k"/>
<use x="260.851562" xlink:href="#i"/>
<use x="288.634766" xlink:href="#h"/>
<use x="352.013672" xlink:href="#g"/>
<use x="413.292969" xlink:href="#f"/>
</g>
</g>
<path d="m1495.6 790.7v35.285q0 2.4 2.4 2.4h7.7425q2.4 0 2.4-2.4v-35.285q0-2.4-2.4-2.4h-7.7425q-2.4 0-2.4 2.4z" clip-path="url(#a)" fill="#fff" stroke="#fff"/>
<g clip-path="url(#a)">
<g transform="translate(1499.6 790.7) rotate(90) scale(.08 -.08)">
<use xlink:href="#l"/>
<use x="60.818359" xlink:href="#d"/>
<use x="122.341797" xlink:href="#j"/>
<use x="163.439453" xlink:href="#k"/>
<use x="260.851562" xlink:href="#i"/>
<use x="288.634766" xlink:href="#h"/>
<use x="352.013672" xlink:href="#g"/>
<use x="413.292969" xlink:href="#f"/>
</g>
</g>
<path d="m736.45 790.7v35.285q0 2.4 2.4 2.4h7.7425q2.4 0 2.4-2.4v-35.285q0-2.4-2.4-2.4h-7.7425q-2.4 0-2.4 2.4z" clip-path="url(#a)" fill="#fff" stroke="#fff"/>
<g clip-path="url(#a)">
<g transform="translate(740.51 790.7) rotate(90) scale(.08 -.08)">
<use xlink:href="#l"/>
<use x="60.818359" xlink:href="#d"/>
<use x="122.341797" xlink:href="#j"/>
<use x="163.439453" xlink:href="#k"/>
<use x="260.851562" xlink:href="#i"/>
<use x="288.634766" xlink:href="#h"/>
<use x="352.013672" xlink:href="#g"/>
<use x="413.292969" xlink:href="#f"/>
</g>
</g>
<defs>
<path id="b" d="m0 8.6603c2.2967 0 4.4997-0.9125 6.1237-2.5365 1.624-1.624 2.5365-3.827 2.5365-6.1237s-0.9125-4.4997-2.5365-6.1237c-1.624-1.624-3.827-2.5365-6.1237-2.5365s-4.4997 0.9125-6.1237 2.5365c-1.624 1.624-2.5365 3.827-2.5365 6.1237s0.9125 4.4997 2.5365 6.1237c1.624 1.624 3.827 2.5365 6.1237 2.5365z"/>
</defs>
<g clip-path="url(#a)">
<use x="78.474766" y="864.679711" fill="#ffffff" stroke="#ffffff" xlink:href="#b"/>
</g>
<g clip-path="url(#a)">
<use x="125.92074" y="864.679711" fill="#ffffff" stroke="#ffffff" xlink:href="#b"/>
</g>
<g clip-path="url(#a)">
<use x="173.366714" y="864.679711" fill="#ffffff" stroke="#ffffff" xlink:href="#b"/>
</g>
<g clip-path="url(#a)">
<use x="220.812688" y="864.679711" fill="#ffffff" stroke="#ffffff" xlink:href="#b"/>
</g>
<g clip-path="url(#a)">
<use x="268.258661" y="864.679711" fill="#ffffff" stroke="#ffffff" xlink:href="#b"/>
</g>
<g clip-path="url(#a)">
<use x="315.704635" y="864.679711" fill="#ffffff" stroke="#ffffff" xlink:href="#b"/>
</g>
<g clip-path="url(#a)">
<use x="363.150609" y="864.679711" fill="#ffffff" stroke="#ffffff" xlink:href="#b"/>
</g>
<g clip-path="url(#a)">
<use x="410.596583" y="864.679711" fill="#ffffff" stroke="#ffffff" xlink:href="#b"/>
</g>
<g clip-path="url(#a)">
<use x="458.042556" y="864.679711" fill="#ffffff" stroke="#ffffff" xlink:href="#b"/>
</g>
<g clip-path="url(#a)">
<use x="505.48853" y="864.679711" fill="#ffffff" stroke="#ffffff" xlink:href="#b"/>
</g>
<g clip-path="url(#a)">
<use x="552.934504" y="864.679711" fill="#ffffff" stroke="#ffffff" xlink:href="#b"/>
</g>
<g clip-path="url(#a)">
<use x="600.380478" y="864.679711" fill="#ffffff" stroke="#ffffff" xlink:href="#b"/>
</g>
<g clip-path="url(#a)">
<use x="647.826451" y="864.679711" fill="#ffffff" stroke="#ffffff" xlink:href="#b"/>
</g>
<g clip-path="url(#a)">
<use x="695.272425" y="864.679711" fill="#ffffff" stroke="#ffffff" xlink:href="#b"/>
</g>
<g clip-path="url(#a)">
<use x="742.718399" y="864.679711" fill="#ffffff" stroke="#ffffff" xlink:href="#b"/>
</g>
<g clip-path="url(#a)">
<use x="790.164373" y="864.679711" fill="#ffffff" stroke="#ffffff" xlink:href="#b"/>
</g>
<g clip-path="url(#a)">
<use x="837.610346" y="864.679711" fill="#ffffff" stroke="#ffffff" xlink:href="#b"/>
</g>
<g clip-path="url(#a)">
<use x="885.05632" y="864.679711" fill="#ffffff" stroke="#ffffff" xlink:href="#b"/>
</g>
<g clip-path="url(#a)">
<use x="932.502294" y="864.679711" fill="#ffffff" stroke="#ffffff" xlink:href="#b"/>
</g>
<g clip-path="url(#a)">
<use x="979.948268" y="864.679711" fill="#ffffff" stroke="#ffffff" xlink:href="#b"/>
</g>
<g clip-path="url(#a)">
<use x="1027.394241" y="864.679711" fill="#ffffff" stroke="#ffffff" xlink:href="#b"/>
</g>
<g clip-path="url(#a)">
<use x="1074.840215" y="864.679711" fill="#ffffff" stroke="#ffffff" xlink:href="#b"/>
</g>
<g clip-path="url(#a)">
<use x="1122.286189" y="864.679711" fill="#ffffff" stroke="#ffffff" xlink:href="#b"/>
</g>
<g clip-path="url(#a)">
<use x="1169.732163" y="864.679711" fill="#ffffff" stroke="#ffffff" xlink:href="#b"/>
</g>
<g clip-path="url(#a)">
<use x="1217.178137" y="864.679711" fill="#ffffff" stroke="#ffffff" xlink:href="#b"/>
</g>
<g clip-path="url(#a)">
<use x="1264.62411" y="864.679711" fill="#ffffff" stroke="#ffffff" xlink:href="#b"/>
</g>
<g clip-path="url(#a)">
<use x="1312.070084" y="864.679711" fill="#ffffff" stroke="#ffffff" xlink:href="#b"/>
</g>
<g clip-path="url(#a)">
<use x="1359.516058" y="864.679711" fill="#ffffff" stroke="#ffffff" xlink:href="#b"/>
</g>
<g clip-path="url(#a)">
<use x="1406.962032" y="864.679711" fill="#ffffff" stroke="#ffffff" xlink:href="#b"/>
</g>
<g clip-path="url(#a)">
<use x="1454.408005" y="864.679711" fill="#ffffff" stroke="#ffffff" xlink:href="#b"/>
</g>
<g clip-path="url(#a)">
<use x="1501.853979" y="864.679711" fill="#ffffff" stroke="#ffffff" xlink:href="#b"/>
</g>
<g clip-path="url(#a)">
<use x="1549.299953" y="864.679711" fill="#ffffff" stroke="#ffffff" xlink:href="#b"/>
</g>
<g clip-path="url(#a)">
<use x="1596.745927" y="864.679711" fill="#ffffff" stroke="#ffffff" xlink:href="#b"/>
</g>
<g clip-path="url(#a)">
<use x="1644.1919" y="864.679711" fill="#ffffff" stroke="#ffffff" xlink:href="#b"/>
</g>
<g clip-path="url(#a)">
<use x="1057.179769" y="41.986956" fill="#ffffff" stroke="#ffffff" xlink:href="#b"/>
</g>
<g clip-path="url(#a)">
<use x="480.937121" y="167.477192" fill="#ffffff" stroke="#ffffff" xlink:href="#b"/>
</g>
<g clip-path="url(#a)">
<use x="363.150609" y="752.013526" fill="#ffffff" stroke="#ffffff" xlink:href="#b"/>
</g>
<g clip-path="url(#a)">
<use x="125.92074" y="639.347342" fill="#ffffff" stroke="#ffffff" xlink:href="#b"/>
</g>
<g clip-path="url(#a)">
<use x="173.366714" y="752.013526" fill="#ffffff" stroke="#ffffff" xlink:href="#b"/>
</g>
<g clip-path="url(#a)">
<use x="220.812688" y="752.013526" fill="#ffffff" stroke="#ffffff" xlink:href="#b"/>
</g>
<g clip-path="url(#a)">
<use x="268.258661" y="752.013526" fill="#ffffff" stroke="#ffffff" xlink:href="#b"/>
</g>
<g clip-path="url(#a)">
<use x="244.535674" y="639.347342" fill="#ffffff" stroke="#ffffff" xlink:href="#b"/>
</g>
<g clip-path="url(#a)">
<use x="315.704635" y="752.013526" fill="#ffffff" stroke="#ffffff" xlink:href="#b"/>
</g>
<g clip-path="url(#a)">
<use x="499.689578" y="289.594596" fill="#ffffff" stroke="#ffffff" xlink:href="#b"/>
</g>
<g clip-path="url(#a)">
<use x="552.934504" y="752.013526" fill="#ffffff" stroke="#ffffff" xlink:href="#b"/>
</g>
<g clip-path="url(#a)">
<use x="1071.451217" y="525.113847" fill="#ffffff" stroke="#ffffff" xlink:href="#b"/>
</g>
<g clip-path="url(#a)">
<use x="1074.840215" y="752.013526" fill="#ffffff" stroke="#ffffff" xlink:href="#b"/>
</g>
<g clip-path="url(#a)">
<use x="1644.1919" y="752.013526" fill="#ffffff" stroke="#ffffff" xlink:href="#b"/>
</g>
<g clip-path="url(#a)">
<use x="78.474766" y="752.013526" fill="#ffffff" stroke="#ffffff" xlink:href="#b"/>
</g>
<g clip-path="url(#a)">
<use x="125.92074" y="752.013526" fill="#ffffff" stroke="#ffffff" xlink:href="#b"/>
</g>
<g clip-path="url(#a)">
<use x="410.596583" y="752.013526" fill="#ffffff" stroke="#ffffff" xlink:href="#b"/>
</g>
<g clip-path="url(#a)">
<use x="458.042556" y="752.013526" fill="#ffffff" stroke="#ffffff" xlink:href="#b"/>
</g>
<g clip-path="url(#a)">
<use x="505.48853" y="752.013526" fill="#ffffff" stroke="#ffffff" xlink:href="#b"/>
</g>
<g clip-path="url(#a)">
<use x="571.385716" y="408.680699" fill="#ffffff" stroke="#ffffff" xlink:href="#b"/>
</g>
<g clip-path="url(#a)">
<use x="600.380478" y="752.013526" fill="#ffffff" stroke="#ffffff" xlink:href="#b"/>
</g>
<g clip-path="url(#a)">
<use x="837.610346" y="752.013526" fill="#ffffff" stroke="#ffffff" xlink:href="#b"/>
</g>
<g clip-path="url(#a)">
<use x="885.05632" y="752.013526" fill="#ffffff" stroke="#ffffff" xlink:href="#b"/>
</g>
<g clip-path="url(#a)">
<use x="932.502294" y="752.013526" fill="#ffffff" stroke="#ffffff" xlink:href="#b"/>
</g>
<g clip-path="url(#a)">
<use x="1003.671255" y="639.347342" fill="#ffffff" stroke="#ffffff" xlink:href="#b"/>
</g>
<g clip-path="url(#a)">
<use x="1027.394241" y="752.013526" fill="#ffffff" stroke="#ffffff" xlink:href="#b"/>
</g>
<g clip-path="url(#a)">
<use x="1169.732163" y="639.347342" fill="#ffffff" stroke="#ffffff" xlink:href="#b"/>
</g>
<g clip-path="url(#a)">
<use x="1217.178137" y="752.013526" fill="#ffffff" stroke="#ffffff" xlink:href="#b"/>
</g>
<g clip-path="url(#a)">
<use x="1264.62411" y="752.013526" fill="#ffffff" stroke="#ffffff" xlink:href="#b"/>
</g>
<g clip-path="url(#a)">
<use x="1411.706629" y="525.113847" fill="#ffffff" stroke="#ffffff" xlink:href="#b"/>
</g>
<g clip-path="url(#a)">
<use x="1454.408005" y="752.013526" fill="#ffffff" stroke="#ffffff" xlink:href="#b"/>
</g>
<g clip-path="url(#a)">
<use x="1596.745927" y="752.013526" fill="#ffffff" stroke="#ffffff" xlink:href="#b"/>
</g>
<g clip-path="url(#a)">
<use x="703.180087" y="525.113847" fill="#ffffff" stroke="#ffffff" xlink:href="#b"/>
</g>
<g clip-path="url(#a)">
<use x="695.272425" y="752.013526" fill="#ffffff" stroke="#ffffff" xlink:href="#b"/>
</g>
<g clip-path="url(#a)">
<use x="979.948268" y="752.013526" fill="#ffffff" stroke="#ffffff" xlink:href="#b"/>
</g>
<g clip-path="url(#a)">
<use x="1122.286189" y="752.013526" fill="#ffffff" stroke="#ffffff" xlink:href="#b"/>
</g>
<g clip-path="url(#a)">
<use x="1169.732163" y="752.013526" fill="#ffffff" stroke="#ffffff" xlink:href="#b"/>
</g>
<g clip-path="url(#a)">
<use x="1312.070084" y="752.013526" fill="#ffffff" stroke="#ffffff" xlink:href="#b"/>
</g>
<g clip-path="url(#a)">
<use x="1359.516058" y="752.013526" fill="#ffffff" stroke="#ffffff" xlink:href="#b"/>
</g>
<g clip-path="url(#a)">
<use x="1406.962032" y="752.013526" fill="#ffffff" stroke="#ffffff" xlink:href="#b"/>
</g>
<g clip-path="url(#a)">
<use x="1525.576966" y="639.347342" fill="#ffffff" stroke="#ffffff" xlink:href="#b"/>
</g>
<g clip-path="url(#a)">
<use x="1549.299953" y="752.013526" fill="#ffffff" stroke="#ffffff" xlink:href="#b"/>
</g>
<g clip-path="url(#a)">
<use x="647.826451" y="752.013526" fill="#ffffff" stroke="#ffffff" xlink:href="#b"/>
</g>
<g clip-path="url(#a)">
<use x="766.441386" y="639.347342" fill="#ffffff" stroke="#ffffff" xlink:href="#b"/>
</g>
<g clip-path="url(#a)">
<use x="790.164373" y="752.013526" fill="#ffffff" stroke="#ffffff" xlink:href="#b"/>
</g>
<g clip-path="url(#a)">
<use x="1501.853979" y="752.013526" fill="#ffffff" stroke="#ffffff" xlink:href="#b"/>
</g>
<g clip-path="url(#a)">
<use x="742.718399" y="752.013526" fill="#ffffff" stroke="#ffffff" xlink:href="#b"/>
</g>
<g clip-path="url(#a)">
<defs>
<path id="af" d="m54.891 33.016v-33.016h-8.9844v32.719q0 7.7656-3.0312 11.609-3.0312 3.8594-9.0781 3.8594-7.2812 0-11.484-4.6406-4.2031-4.625-4.2031-12.641v-30.906h-9.0312v75.984h9.0312v-29.797q3.2344 4.9375 7.5938 7.375 4.375 2.4375 10.094 2.4375 9.4219 0 14.25-5.8281 4.8438-5.8281 4.8438-17.156z"/>
</defs>
<g transform="translate(69.176 867.44) scale(.1 -.1)">
<use xlink:href="#l"/>
<use x="61.083984" xlink:href="#af"/>
<use x="124.462891" xlink:href="#d"/>
</g>
</g>
<g clip-path="url(#a)">
<defs>
<path id="r" d="m44.281 53.078v-8.5q-3.7969 1.9531-7.9062 2.9219-4.0938 0.98438-8.5 0.98438-6.6875 0-10.031-2.0469t-3.3438-6.1562q0-3.125 2.3906-4.9062t9.625-3.3906l3.0781-0.6875q9.5625-2.0469 13.594-5.7812t4.0312-10.422q0-7.625-6.0312-12.078-6.0312-4.4375-16.578-4.4375-4.3906 0-9.1562 0.85938t-10.031 2.5625v9.2812q4.9844-2.5938 9.8125-3.8906 4.8281-1.2812 9.5781-1.2812 6.3438 0 9.75 2.1719 3.4219 2.1719 3.4219 6.125 0 3.6562-2.4688 5.6094-2.4531 1.9531-10.812 3.7656l-3.125 0.73438q-8.3438 1.75-12.062 5.3906-3.7031 3.6406-3.7031 9.9844 0 7.7188 5.4688 11.906 5.4688 4.2031 15.531 4.2031 4.9688 0 9.3594-0.73438 4.4062-0.71875 8.1094-2.1875z"/>
<path id="p" d="m18.312 70.219v-15.531h18.5v-6.9844h-18.5v-29.688q0-6.6875 1.8281-8.5938t7.4531-1.9062h9.2188v-7.5156h-9.2188q-10.406 0-14.359 3.875-3.9531 3.8906-3.9531 14.141v29.688h-6.5938v6.9844h6.5938v15.531z"/>
</defs>
<g transform="translate(107.58 867.44) scale(.1 -.1)">
<use xlink:href="#r"/>
<use x="52.099609" xlink:href="#g"/>
<use x="113.378906" xlink:href="#f"/>
<use x="141.162109" xlink:href="#g"/>
<use x="202.441406" xlink:href="#p"/>
<use x="241.650391" xlink:href="#i"/>
<use x="269.433594" xlink:href="#k"/>
</g>
</g>
<g clip-path="url(#a)">
<defs>
<path id="aa" d="m45.406 46.391v29.594h8.9844v-75.984h-8.9844v8.2031q-2.8281-4.875-7.1562-7.25-4.3125-2.375-10.375-2.375-9.9062 0-16.141 7.9062-6.2188 7.9219-6.2188 20.812t6.2188 20.797q6.2344 7.9062 16.141 7.9062 6.0625 0 10.375-2.375 4.3281-2.3594 7.1562-7.2344zm-30.609-19.094q0-9.9062 4.0781-15.547t11.203-5.6406 11.219 5.6406q4.1094 5.6406 4.1094 15.547t-4.1094 15.547q-4.0938 5.6406-11.219 5.6406t-11.203-5.6406-4.0781-15.547z"/>
</defs>
<g transform="translate(157.47 867.44) scale(.1 -.1)">
<use xlink:href="#r"/>
<use x="52.099609" xlink:href="#g"/>
<use x="113.378906" xlink:href="#f"/>
<use x="141.162109" xlink:href="#g"/>
<use x="202.441406" xlink:href="#aa"/>
<use x="265.917969" xlink:href="#r"/>
</g>
</g>
<g clip-path="url(#a)">
<g transform="translate(212.62 867.44) scale(.1 -.1)">
<use xlink:href="#g"/>
<use x="61.279297" xlink:href="#j"/>
<use x="102.361328" xlink:href="#d"/>
</g>
</g>
<g clip-path="url(#a)">
<g transform="translate(260.05 867.44) scale(.1 -.1)">
<use xlink:href="#p"/>
<use x="39.208984" xlink:href="#af"/>
<use x="102.587891" xlink:href="#d"/>
</g>
</g>
<g clip-path="url(#a)">
<g transform="translate(294.75 867.44) scale(.1 -.1)">
<use xlink:href="#r"/>
<use x="52.099609" xlink:href="#k"/>
<use x="149.511719" xlink:href="#g"/>
<use x="210.791016" xlink:href="#f"/>
<use x="238.574219" xlink:href="#f"/>
<use x="266.357422" xlink:href="#d"/>
<use x="327.880859" xlink:href="#r"/>
<use x="379.980469" xlink:href="#p"/>
</g>
</g>
<g clip-path="url(#a)">
<defs>
<path id="am" d="m18.109 8.2031v-29h-9.0312v75.484h9.0312v-8.2969q2.8438 4.875 7.1562 7.2344 4.3281 2.375 10.328 2.375 9.9688 0 16.188-7.9062 6.2344-7.9062 6.2344-20.797t-6.2344-20.812q-6.2188-7.9062-16.188-7.9062-6 0-10.328 2.375-4.3125 2.375-7.1562 7.25zm30.578 19.094q0 9.9062-4.0781 15.547t-11.203 5.6406q-7.1406 0-11.219-5.6406t-4.0781-15.547 4.0781-15.547 11.219-5.6406q7.125 0 11.203 5.6406t4.0781 15.547z"/>
</defs>
<g transform="translate(347.88 867.44) scale(.1 -.1)">
<use xlink:href="#am"/>
<use x="63.476562" xlink:href="#f"/>
<use x="91.259766" xlink:href="#g"/>
<use x="152.539062" xlink:href="#p"/>
<use x="191.748047" xlink:href="#d"/>
<use x="253.271484" xlink:href="#r"/>
</g>
</g>
<g clip-path="url(#a)">
<defs>
<path id="au" d="m9.8125 72.906h9.8594v-72.906h-9.8594z"/>
</defs>
<g transform="translate(409.12 867.44) scale(.1 -.1)">
<use xlink:href="#au"/>
</g>
</g>
<g clip-path="url(#a)">
<defs>
<path id="ap" d="m17.922 72.906v-27.109h-8.2969v27.109z"/>
<path id="aq" d="m2.9844 54.688h9.5156l17.094-45.891 17.094 45.891h9.5156l-20.516-54.688h-12.203z"/>
</defs>
<g transform="translate(450.63 867.44) scale(.1 -.1)">
<use xlink:href="#ap"/>
<use x="27.490234" xlink:href="#aq"/>
<use x="86.669922" xlink:href="#d"/>
</g>
</g>
<g clip-path="url(#a)">
<g transform="translate(494.32 867.44) scale(.1 -.1)">
<use xlink:href="#d"/>
<use x="61.523438" xlink:href="#aq"/>
<use x="120.703125" xlink:href="#d"/>
<use x="182.226562" xlink:href="#j"/>
</g>
</g>
<g clip-path="url(#a)">
<g transform="translate(541.01 867.44) scale(.1 -.1)">
<use xlink:href="#r"/>
<use x="52.099609" xlink:href="#d"/>
<use x="113.623047" xlink:href="#d"/>
<use x="175.146484" xlink:href="#h"/>
</g>
</g>
<g clip-path="url(#a)">
<defs>
<path id="ao" d="m48.781 52.594v-8.4062q-3.8125 2.1094-7.6406 3.1562t-7.7344 1.0469q-8.75 0-13.594-5.5469-4.8281-5.5312-4.8281-15.547t4.8281-15.562q4.8438-5.5312 13.594-5.5312 3.9062 0 7.7344 1.0469t7.6406 3.1562v-8.3125q-3.7656-1.75-7.7969-2.625-4.0156-0.89062-8.5625-0.89062-12.359 0-19.641 7.7656-7.2656 7.7656-7.2656 20.953 0 13.375 7.3438 21.031 7.3594 7.6719 20.156 7.6719 4.1406 0 8.0938-0.85938 3.9531-0.84375 7.6719-2.5469z"/>
</defs>
<g transform="translate(583.75 867.44) scale(.1 -.1)">
<use xlink:href="#am"/>
<use x="63.476562" xlink:href="#f"/>
<use x="91.259766" xlink:href="#g"/>
<use x="152.539062" xlink:href="#ao"/>
<use x="207.519531" xlink:href="#d"/>
<use x="269.042969" xlink:href="#aa"/>
</g>
</g>
<g clip-path="url(#a)">
<g transform="translate(643.27 867.44) scale(.1 -.1)">
<use xlink:href="#i"/>
<use x="27.783203" xlink:href="#h"/>
</g>
</g>
<g clip-path="url(#a)">
<defs>
<path id="an" d="m37.109 75.984v-7.4844h-8.5938q-4.8281 0-6.7188-1.9531-1.875-1.9531-1.875-7.0312v-4.8281h14.797v-6.9844h-14.797v-47.703h-9.0312v47.703h-8.5938v6.9844h8.5938v3.8125q0 9.125 4.25 13.297 4.25 4.1875 13.469 4.1875z"/>
<path id="s" d="m30.609 48.391q-7.2188 0-11.422-5.6406t-4.2031-15.453 4.1719-15.453q4.1875-5.6406 11.453-5.6406 7.1875 0 11.375 5.6562 4.2031 5.6719 4.2031 15.438 0 9.7188-4.2031 15.406-4.1875 5.6875-11.375 5.6875zm0 7.6094q11.719 0 18.406-7.625 6.7031-7.6094 6.7031-21.078 0-13.422-6.7031-21.078-6.6875-7.6406-18.406-7.6406-11.766 0-18.438 7.6406-6.6562 7.6562-6.6562 21.078 0 13.469 6.6562 21.078 6.6719 7.625 18.438 7.625z"/>
</defs>
<g transform="translate(683.27 867.44) scale(.1 -.1)">
<use xlink:href="#an"/>
<use x="35.205078" xlink:href="#j"/>
<use x="76.287109" xlink:href="#s"/>
<use x="137.46875" xlink:href="#h"/>
<use x="200.847656" xlink:href="#p"/>
</g>
</g>
<g clip-path="url(#a)">
<g transform="translate(737.9 867.44) scale(.1 -.1)">
<use xlink:href="#s"/>
<use x="61.181641" xlink:href="#an"/>
</g>
</g>
<g clip-path="url(#a)">
<g transform="translate(782.22 867.44) scale(.1 -.1)">
<use xlink:href="#k"/>
<use x="97.412109" xlink:href="#d"/>
</g>
</g>
<g clip-path="url(#a)">
<defs>
<path id="aw" d="m31 75.875q-6.5312-11.219-9.7188-22.219-3.1719-10.984-3.1719-22.266 0-11.266 3.2031-22.328t9.6875-22.25h-7.8125q-7.3125 11.484-10.953 22.562t-3.6406 22.016q0 10.891 3.6094 21.922 3.625 11.047 10.984 22.562z"/>
</defs>
<g transform="translate(835.66 867.44) scale(.1 -.1)">
<use xlink:href="#aw"/>
</g>
</g>
<g clip-path="url(#a)">
<defs>
<path id="ae" d="m32.172-5.0781q-3.7969-9.7656-7.4219-12.734-3.6094-2.9844-9.6562-2.9844h-7.1875v7.5156h5.2812q3.7031 0 5.75 1.7656 2.0625 1.75 4.5469 8.2969l1.6094 4.0938-22.109 53.812h9.5156l17.094-42.766 17.094 42.766h9.5156z"/>
<path id="al" d="m8.5 21.578v33.109h8.9844v-32.766q0-7.7656 3.0156-11.656 3.0312-3.875 9.0938-3.875 7.2656 0 11.484 4.6406 4.2344 4.6406 4.2344 12.656v31h8.9844v-54.688h-8.9844v8.4062q-3.2656-4.9844-7.5938-7.4062-4.3125-2.4219-10.031-2.4219-9.4219 0-14.312 5.8594-4.875 5.8594-4.875 17.141z"/>
</defs>
<g transform="translate(875.87 867.44) scale(.1 -.1)">
<use xlink:href="#ae"/>
<use x="59.179688" xlink:href="#s"/>
<use x="120.361328" xlink:href="#al"/>
</g>
</g>
<g clip-path="url(#a)">
<defs>
<path id="ak" d="m4.2031 54.688h8.9844l11.234-42.672 11.172 42.672h10.594l11.234-42.672 11.188 42.672h8.9844l-14.312-54.688h-10.594l-11.766 44.828-11.812-44.828h-10.609z"/>
</defs>
<g transform="translate(917.62 867.44) scale(.1 -.1)">
<use xlink:href="#ak"/>
<use x="81.787109" xlink:href="#s"/>
<use x="142.96875" xlink:href="#al"/>
<use x="206.347656" xlink:href="#f"/>
<use x="234.130859" xlink:href="#aa"/>
</g>
</g>
<g clip-path="url(#a)">
<g transform="translate(967.45 867.44) scale(.1 -.1)">
<use xlink:href="#k"/>
<use x="97.412109" xlink:href="#s"/>
<use x="158.59375" xlink:href="#r"/>
<use x="210.693359" xlink:href="#p"/>
</g>
</g>
<g clip-path="url(#a)">
<defs>
<path id="ar" d="m9.0781 75.984h9.0312v-44.875l26.812 23.578h11.469l-29-25.578 30.234-29.109h-11.719l-27.797 26.703v-26.703h-9.0312z"/>
</defs>
<g transform="translate(1014.3 867.44) scale(.1 -.1)">
<use xlink:href="#f"/>
<use x="27.783203" xlink:href="#i"/>
<use x="55.566406" xlink:href="#ar"/>
<use x="113.429688" xlink:href="#d"/>
<use x="174.953125" xlink:href="#f"/>
<use x="202.736328" xlink:href="#ae"/>
</g>
</g>
<g clip-path="url(#a)">
<g transform="translate(1062.3 867.44) scale(.1 -.1)">
<use xlink:href="#p"/>
<use x="39.208984" xlink:href="#af"/>
<use x="102.587891" xlink:href="#i"/>
<use x="130.371094" xlink:href="#h"/>
<use x="193.75" xlink:href="#ar"/>
</g>
</g>
<g clip-path="url(#a)">
<g transform="translate(1111.1 867.44) scale(.1 -.1)">
<use xlink:href="#p"/>
<use x="39.208984" xlink:href="#af"/>
<use x="102.587891" xlink:href="#d"/>
<use x="164.111328" xlink:href="#ae"/>
</g>
</g>
<g clip-path="url(#a)">
<g transform="translate(1157.4 867.44) scale(.1 -.1)">
<use xlink:href="#ak"/>
<use x="81.787109" xlink:href="#d"/>
<use x="143.310547" xlink:href="#j"/>
<use x="184.392578" xlink:href="#d"/>
</g>
</g>
<g clip-path="url(#a)">
<g transform="translate(1188 867.44) scale(.1 -.1)">
<use xlink:href="#ao"/>
<use x="54.980469" xlink:href="#s"/>
<use x="116.162109" xlink:href="#h"/>
<use x="179.541016" xlink:href="#aa"/>
<use x="243.017578" xlink:href="#i"/>
<use x="270.800781" xlink:href="#k"/>
<use x="368.212891" xlink:href="#d"/>
<use x="429.736328" xlink:href="#h"/>
<use x="493.115234" xlink:href="#p"/>
<use x="532.324219" xlink:href="#r"/>
</g>
</g>
<g clip-path="url(#a)">
<g transform="translate(1261.5 867.44) scale(.1 -.1)">
<use xlink:href="#i"/>
<use x="27.783203" xlink:href="#an"/>
</g>
</g>
<g clip-path="url(#a)">
<g transform="translate(1308.7 867.44) scale(.1 -.1)">
<use xlink:href="#i"/>
<use x="27.783203" xlink:href="#p"/>
</g>
</g>
<g clip-path="url(#a)">
<g transform="translate(1347.2 867.44) scale(.1 -.1)">
<use xlink:href="#ak"/>
<use x="81.787109" xlink:href="#d"/>
<use x="143.310547" xlink:href="#j"/>
<use x="184.392578" xlink:href="#d"/>
</g>
</g>
<g clip-path="url(#a)">
<g transform="translate(1400.5 867.44) scale(.1 -.1)">
<use xlink:href="#h"/>
<use x="63.378906" xlink:href="#ap"/>
<use x="90.869141" xlink:href="#p"/>
</g>
</g>
<g clip-path="url(#a)">
<defs>
<path id="ax" d="m54.891 54.688-19.781-26.609 20.797-28.078h-10.594l-15.922 21.484-15.906-21.484h-10.609l21.25 28.609-19.438 26.078h10.594l14.5-19.484 14.5 19.484z"/>
</defs>
<g transform="translate(1429.9 867.44) scale(.1 -.1)">
<use xlink:href="#d"/>
<use x="61.507812" xlink:href="#ax"/>
<use x="120.6875" xlink:href="#am"/>
<use x="184.164062" xlink:href="#f"/>
<use x="211.947266" xlink:href="#g"/>
<use x="273.226562" xlink:href="#i"/>
<use x="301.009766" xlink:href="#h"/>
<use x="364.388672" xlink:href="#d"/>
<use x="425.912109" xlink:href="#aa"/>
</g>
</g>
<g clip-path="url(#a)">
<g transform="translate(1496.8 867.44) scale(.1 -.1)">
<use xlink:href="#p"/>
<use x="39.208984" xlink:href="#s"/>
</g>
</g>
<g clip-path="url(#a)">
<g transform="translate(1540.1 867.44) scale(.1 -.1)">
<use xlink:href="#ae"/>
<use x="59.179688" xlink:href="#s"/>
<use x="120.361328" xlink:href="#al"/>
</g>
</g>
<g clip-path="url(#a)">
<defs>
<path id="av" d="m8.0156 75.875h7.8125q7.3125-11.516 10.953-22.562 3.6406-11.031 3.6406-21.922 0-10.938-3.6406-22.016t-10.953-22.562h-7.8125q6.4844 11.188 9.6875 22.25t3.2031 22.328q0 11.281-3.2031 22.266-3.2031 11-9.6875 22.219z"/>
</defs>
<g transform="translate(1594.8 867.44) scale(.1 -.1)">
<use xlink:href="#av"/>
</g>
</g>
<g clip-path="url(#a)">
<defs>
<path id="e" d="m10.688 12.406h10.312v-12.406h-10.312z"/>
</defs>
<g transform="translate(1642.6 867.44) scale(.1 -.1)">
<use xlink:href="#e"/>
</g>
</g>
<g clip-path="url(#a)">
<defs>
<path id="c" d="m12.406 8.2969h16.109v55.625l-17.531-3.5156v8.9844l17.438 3.5156h9.8594v-64.609h16.109v-8.2969h-41.984z"/>
</defs>
<g transform="translate(1049.2 44.746) scale(.1 -.1)">
<use xlink:href="#c"/>
<use x="63.623047" xlink:href="#e"/>
<use x="95.410156" xlink:href="#c"/>
</g>
</g>
<g clip-path="url(#a)">
<defs>
<path id="n" d="m19.188 8.2969h34.422v-8.2969h-46.281v8.2969q5.6094 5.8125 15.297 15.594 9.7031 9.7969 12.188 12.641 4.7344 5.3125 6.6094 9 1.8906 3.6875 1.8906 7.25 0 5.8125-4.0781 9.4688-4.0781 3.6719-10.625 3.6719-4.6406 0-9.7969-1.6094-5.1406-1.6094-11-4.8906v9.9688q5.9531 2.3906 11.125 3.6094 5.1875 1.2188 9.4844 1.2188 11.328 0 18.062-5.6719 6.7344-5.6562 6.7344-15.125 0-4.5-1.6875-8.5312-1.6719-4.0156-6.125-9.4844-1.2188-1.4219-7.7656-8.1875-6.5312-6.7656-18.453-18.922z"/>
</defs>
<g transform="translate(472.99 170.24) scale(.1 -.1)">
<use xlink:href="#c"/>
<use x="63.623047" xlink:href="#e"/>
<use x="95.410156" xlink:href="#n"/>
</g>
</g>
<g clip-path="url(#a)">
<defs>
<path id="m" d="m40.578 39.312q7.0781-1.5156 11.047-6.3125 3.9844-4.7812 3.9844-11.812 0-10.781-7.4219-16.703-7.4219-5.9062-21.094-5.9062-4.5781 0-9.4375 0.90625t-10.031 2.7188v9.5156q4.0938-2.3906 8.9688-3.6094 4.8906-1.2188 10.219-1.2188 9.2656 0 14.125 3.6562t4.8594 10.641q0 6.4531-4.5156 10.078-4.5156 3.6406-12.562 3.6406h-8.5v8.1094h8.8906q7.2656 0 11.125 2.9062t3.8594 8.375q0 5.6094-3.9844 8.6094-3.9688 3.0156-11.391 3.0156-4.0625 0-8.7031-0.89062-4.6406-0.875-10.203-2.7188v8.7812q5.625 1.5625 10.531 2.3438t9.25 0.78125q11.234 0 17.766-5.1094 6.5469-5.0938 6.5469-13.781 0-6.0625-3.4688-10.234t-9.8594-5.7812z"/>
</defs>
<g transform="translate(355.2 754.77) scale(.1 -.1)">
<use xlink:href="#c"/>
<use x="63.623047" xlink:href="#e"/>
<use x="95.410156" xlink:href="#m"/>
</g>
</g>
<g clip-path="url(#a)">
<defs>
<path id="o" d="m37.797 64.312-24.906-38.922h24.906zm-2.5938 8.5938h12.406v-47.516h10.406v-8.2031h-10.406v-17.188h-9.8125v17.188h-32.906v9.5156z"/>
</defs>
<g transform="translate(117.97 642.11) scale(.1 -.1)">
<use xlink:href="#c"/>
<use x="63.623047" xlink:href="#e"/>
<use x="95.410156" xlink:href="#o"/>
</g>
</g>
<g clip-path="url(#a)">
<defs>
<path id="z" d="m10.797 72.906h38.719v-8.3125h-29.688v-17.859q2.1406 0.73438 4.2812 1.0938 2.1562 0.35938 4.3125 0.35938 12.203 0 19.328-6.6875 7.1406-6.6875 7.1406-18.109 0-11.766-7.3281-18.297-7.3281-6.5156-20.656-6.5156-4.5938 0-9.3594 0.78125-4.75 0.78125-9.8281 2.3438v9.9219q4.3906-2.3906 9.0781-3.5625t9.9062-1.1719q8.4531 0 13.375 4.4375 4.9375 4.4375 4.9375 12.062 0 7.6094-4.9375 12.047-4.9219 4.4531-13.375 4.4531-3.9531 0-7.8906-0.875-3.9219-0.875-8.0156-2.7344z"/>
</defs>
<g transform="translate(165.42 754.77) scale(.1 -.1)">
<use xlink:href="#c"/>
<use x="63.623047" xlink:href="#e"/>
<use x="95.410156" xlink:href="#z"/>
</g>
</g>
<g clip-path="url(#a)">
<defs>
<path id="y" d="m33.016 40.375q-6.6406 0-10.531-4.5469-3.875-4.5312-3.875-12.438 0-7.8594 3.875-12.438 3.8906-4.5625 10.531-4.5625t10.516 4.5625q3.875 4.5781 3.875 12.438 0 7.9062-3.875 12.438-3.875 4.5469-10.516 4.5469zm19.578 30.922v-8.9844q-3.7188 1.75-7.5 2.6719-3.7812 0.9375-7.5 0.9375-9.7656 0-14.922-6.5938-5.1406-6.5938-5.875-19.922 2.875 4.25 7.2188 6.5156 4.3594 2.2656 9.5781 2.2656 10.984 0 17.359-6.6719 6.375-6.6562 6.375-18.125 0-11.234-6.6406-18.031-6.6406-6.7812-17.672-6.7812-12.656 0-19.344 9.6875-6.6875 9.7031-6.6875 28.109 0 17.281 8.2031 27.562t22.016 10.281q3.7188 0 7.5-0.73438t7.8906-2.1875z"/>
</defs>
<g transform="translate(212.86 754.77) scale(.1 -.1)">
<use xlink:href="#c"/>
<use x="63.623047" xlink:href="#e"/>
<use x="95.410156" xlink:href="#y"/>
</g>
</g>
<g clip-path="url(#a)">
<defs>
<path id="x" d="m8.2031 72.906h46.875v-4.2031l-26.469-68.703h-10.297l24.906 64.594h-35.016z"/>
</defs>
<g transform="translate(260.31 754.77) scale(.1 -.1)">
<use xlink:href="#c"/>
<use x="63.623047" xlink:href="#e"/>
<use x="95.410156" xlink:href="#x"/>
</g>
</g>
<g clip-path="url(#a)">
<defs>
<path id="ac" d="m31.781 34.625q-7.0312 0-11.062-3.7656-4.0156-3.7656-4.0156-10.344 0-6.5938 4.0156-10.359 4.0312-3.7656 11.062-3.7656t11.078 3.7812q4.0625 3.7969 4.0625 10.344 0 6.5781-4.0312 10.344-4.0156 3.7656-11.109 3.7656zm-9.8594 4.1875q-6.3438 1.5625-9.8906 5.9062-3.5312 4.3594-3.5312 10.609 0 8.7344 6.2188 13.812 6.2344 5.0781 17.062 5.0781 10.891 0 17.094-5.0781t6.2031-13.812q0-6.25-3.5469-10.609-3.5312-4.3438-9.8281-5.9062 7.125-1.6562 11.094-6.5 3.9844-4.8281 3.9844-11.797 0-10.609-6.4688-16.281-6.4688-5.6562-18.531-5.6562-12.047 0-18.531 5.6562-6.4688 5.6719-6.4688 16.281 0 6.9688 4 11.797 4.0156 4.8438 11.141 6.5zm-3.6094 15.578q0-5.6562 3.5312-8.8281 3.5469-3.1719 9.9375-3.1719 6.3594 0 9.9375 3.1719 3.5938 3.1719 3.5938 8.8281 0 5.6719-3.5938 8.8438-3.5781 3.1719-9.9375 3.1719-6.3906 0-9.9375-3.1719-3.5312-3.1719-3.5312-8.8438z"/>
</defs>
<g transform="translate(236.58 642.11) scale(.1 -.1)">
<use xlink:href="#c"/>
<use x="63.623047" xlink:href="#e"/>
<use x="95.410156" xlink:href="#ac"/>
</g>
</g>
<g clip-path="url(#a)">
<defs>
<path id="ab" d="m10.984 1.5156v8.9844q3.7188-1.7656 7.5156-2.6875 3.8125-0.92188 7.4844-0.92188 9.7656 0 14.906 6.5625 5.1562 6.5625 5.8906 19.953-2.8281-4.2031-7.1875-6.4531-4.3438-2.25-9.6094-2.25-10.938 0-17.312 6.6094-6.375 6.625-6.375 18.109 0 11.219 6.6406 18 6.6406 6.7969 17.672 6.7969 12.656 0 19.312-9.7031 6.6719-9.6875 6.6719-28.141 0-17.234-8.1875-27.516-8.1719-10.281-21.984-10.281-3.7188 0-7.5312 0.73438-3.7969 0.73438-7.9062 2.2031zm19.625 30.906q6.6406 0 10.516 4.5312 3.8906 4.5469 3.8906 12.469 0 7.8594-3.8906 12.422-3.875 4.5625-10.516 4.5625t-10.516-4.5625-3.875-12.422q0-7.9219 3.875-12.469 3.875-4.5312 10.516-4.5312z"/>
</defs>
<g transform="translate(307.75 754.77) scale(.1 -.1)">
<use xlink:href="#c"/>
<use x="63.623047" xlink:href="#e"/>
<use x="95.410156" xlink:href="#ab"/>
</g>
</g>
<g clip-path="url(#a)">
<defs>
<path id="ad" d="m31.781 66.406q-7.6094 0-11.453-7.5-3.8281-7.4844-3.8281-22.531 0-14.984 3.8281-22.484 3.8438-7.5 11.453-7.5 7.6719 0 11.5 7.5 3.8438 7.5 3.8438 22.484 0 15.047-3.8438 22.531-3.8281 7.5-11.5 7.5zm0 7.8125q12.266 0 18.734-9.7031 6.4688-9.6875 6.4688-28.141 0-18.406-6.4688-28.109-6.4688-9.6875-18.734-9.6875-12.25 0-18.719 9.6875-6.4688 9.7031-6.4688 28.109 0 18.453 6.4688 28.141 6.4688 9.7031 18.719 9.7031z"/>
</defs>
<g transform="translate(488.56 292.35) scale(.1 -.1)">
<use xlink:href="#c"/>
<use x="63.623047" xlink:href="#e"/>
<use x="95.410156" xlink:href="#c"/>
<use x="159.033203" xlink:href="#ad"/>
</g>
</g>
<g clip-path="url(#a)">
<g transform="translate(541.8 754.77) scale(.1 -.1)">
<use xlink:href="#c"/>
<use x="63.623047" xlink:href="#e"/>
<use x="95.410156" xlink:href="#c"/>
<use x="159.033203" xlink:href="#c"/>
</g>
</g>
<g clip-path="url(#a)">
<g transform="translate(1060.3 527.87) scale(.1 -.1)">
<use xlink:href="#c"/>
<use x="63.623047" xlink:href="#e"/>
<use x="95.410156" xlink:href="#c"/>
<use x="159.033203" xlink:href="#n"/>
</g>
</g>
<g clip-path="url(#a)">
<g transform="translate(1063.7 754.77) scale(.1 -.1)">
<use xlink:href="#c"/>
<use x="63.623047" xlink:href="#e"/>
<use x="95.410156" xlink:href="#c"/>
<use x="159.033203" xlink:href="#m"/>
</g>
</g>
<g clip-path="url(#a)">
<g transform="translate(1633.1 754.77) scale(.1 -.1)">
<use xlink:href="#c"/>
<use x="63.623047" xlink:href="#e"/>
<use x="95.410156" xlink:href="#c"/>
<use x="159.033203" xlink:href="#o"/>
</g>
</g>
<g clip-path="url(#a)">
<g transform="translate(67.342 754.77) scale(.1 -.1)">
<use xlink:href="#c"/>
<use x="63.623047" xlink:href="#e"/>
<use x="95.410156" xlink:href="#c"/>
<use x="159.033203" xlink:href="#z"/>
</g>
</g>
<g clip-path="url(#a)">
<g transform="translate(114.79 754.77) scale(.1 -.1)">
<use xlink:href="#c"/>
<use x="63.623047" xlink:href="#e"/>
<use x="95.410156" xlink:href="#c"/>
<use x="159.033203" xlink:href="#y"/>
</g>
</g>
<g clip-path="url(#a)">
<g transform="translate(399.46 754.77) scale(.1 -.1)">
<use xlink:href="#c"/>
<use x="63.623047" xlink:href="#e"/>
<use x="95.410156" xlink:href="#c"/>
<use x="159.033203" xlink:href="#x"/>
</g>
</g>
<g clip-path="url(#a)">
<g transform="translate(446.91 754.77) scale(.1 -.1)">
<use xlink:href="#c"/>
<use x="63.623047" xlink:href="#e"/>
<use x="95.410156" xlink:href="#c"/>
<use x="159.033203" xlink:href="#ac"/>
</g>
</g>
<g clip-path="url(#a)">
<g transform="translate(494.36 754.77) scale(.1 -.1)">
<use xlink:href="#c"/>
<use x="63.623047" xlink:href="#e"/>
<use x="95.410156" xlink:href="#c"/>
<use x="159.033203" xlink:href="#ab"/>
</g>
</g>
<g clip-path="url(#a)">
<g transform="translate(560.25 411.44) scale(.1 -.1)">
<use xlink:href="#c"/>
<use x="63.623047" xlink:href="#e"/>
<use x="95.410156" xlink:href="#n"/>
<use x="159.033203" xlink:href="#ad"/>
</g>
</g>
<g clip-path="url(#a)">
<g transform="translate(589.25 754.77) scale(.1 -.1)">
<use xlink:href="#c"/>
<use x="63.623047" xlink:href="#e"/>
<use x="95.410156" xlink:href="#n"/>
<use x="159.033203" xlink:href="#c"/>
</g>
</g>
<g clip-path="url(#a)">
<g transform="translate(826.48 754.77) scale(.1 -.1)">
<use xlink:href="#c"/>
<use x="63.623047" xlink:href="#e"/>
<use x="95.410156" xlink:href="#n"/>
<use x="159.033203" xlink:href="#n"/>
</g>
</g>
<g clip-path="url(#a)">
<g transform="translate(873.92 754.77) scale(.1 -.1)">
<use xlink:href="#c"/>
<use x="63.623047" xlink:href="#e"/>
<use x="95.410156" xlink:href="#n"/>
<use x="159.033203" xlink:href="#m"/>
</g>
</g>
<g clip-path="url(#a)">
<g transform="translate(921.37 754.77) scale(.1 -.1)">
<use xlink:href="#c"/>
<use x="63.623047" xlink:href="#e"/>
<use x="95.410156" xlink:href="#n"/>
<use x="159.033203" xlink:href="#o"/>
</g>
</g>
<g clip-path="url(#a)">
<g transform="translate(992.54 642.11) scale(.1 -.1)">
<use xlink:href="#c"/>
<use x="63.623047" xlink:href="#e"/>
<use x="95.410156" xlink:href="#n"/>
<use x="159.033203" xlink:href="#z"/>
</g>
</g>
<g clip-path="url(#a)">
<g transform="translate(1016.3 754.77) scale(.1 -.1)">
<use xlink:href="#c"/>
<use x="63.623047" xlink:href="#e"/>
<use x="95.410156" xlink:href="#n"/>
<use x="159.033203" xlink:href="#y"/>
</g>
</g>
<g clip-path="url(#a)">
<g transform="translate(1158.6 642.11) scale(.1 -.1)">
<use xlink:href="#c"/>
<use x="63.623047" xlink:href="#e"/>
<use x="95.410156" xlink:href="#n"/>
<use x="159.033203" xlink:href="#x"/>
</g>
</g>
<g clip-path="url(#a)">
<g transform="translate(1206 754.77) scale(.1 -.1)">
<use xlink:href="#c"/>
<use x="63.623047" xlink:href="#e"/>
<use x="95.410156" xlink:href="#n"/>
<use x="159.033203" xlink:href="#ac"/>
</g>
</g>
<g clip-path="url(#a)">
<g transform="translate(1253.5 754.77) scale(.1 -.1)">
<use xlink:href="#c"/>
<use x="63.623047" xlink:href="#e"/>
<use x="95.410156" xlink:href="#n"/>
<use x="159.033203" xlink:href="#ab"/>
</g>
</g>
<g clip-path="url(#a)">
<g transform="translate(1400.6 527.87) scale(.1 -.1)">
<use xlink:href="#c"/>
<use x="63.623047" xlink:href="#e"/>
<use x="95.410156" xlink:href="#m"/>
<use x="159.033203" xlink:href="#ad"/>
</g>
</g>
<g clip-path="url(#a)">
<g transform="translate(1443.3 754.77) scale(.1 -.1)">
<use xlink:href="#c"/>
<use x="63.623047" xlink:href="#e"/>
<use x="95.410156" xlink:href="#m"/>
<use x="159.033203" xlink:href="#c"/>
</g>
</g>
<g clip-path="url(#a)">
<g transform="translate(1585.6 754.77) scale(.1 -.1)">
<use xlink:href="#c"/>
<use x="63.623047" xlink:href="#e"/>
<use x="95.410156" xlink:href="#m"/>
<use x="159.033203" xlink:href="#n"/>
</g>
</g>
<g clip-path="url(#a)">
<g transform="translate(692.05 527.87) scale(.1 -.1)">
<use xlink:href="#c"/>
<use x="63.623047" xlink:href="#e"/>
<use x="95.410156" xlink:href="#m"/>
<use x="159.033203" xlink:href="#m"/>
</g>
</g>
<g clip-path="url(#a)">
<g transform="translate(684.14 754.77) scale(.1 -.1)">
<use xlink:href="#c"/>
<use x="63.623047" xlink:href="#e"/>
<use x="95.410156" xlink:href="#m"/>
<use x="159.033203" xlink:href="#o"/>
</g>
</g>
<g clip-path="url(#a)">
<g transform="translate(968.82 754.77) scale(.1 -.1)">
<use xlink:href="#c"/>
<use x="63.623047" xlink:href="#e"/>
<use x="95.410156" xlink:href="#m"/>
<use x="159.033203" xlink:href="#z"/>
</g>
</g>
<g clip-path="url(#a)">
<g transform="translate(1111.2 754.77) scale(.1 -.1)">
<use xlink:href="#c"/>
<use x="63.623047" xlink:href="#e"/>
<use x="95.410156" xlink:href="#m"/>
<use x="159.033203" xlink:href="#y"/>
</g>
</g>
<g clip-path="url(#a)">
<g transform="translate(1158.6 754.77) scale(.1 -.1)">
<use xlink:href="#c"/>
<use x="63.623047" xlink:href="#e"/>
<use x="95.410156" xlink:href="#m"/>
<use x="159.033203" xlink:href="#x"/>
</g>
</g>
<g clip-path="url(#a)">
<g transform="translate(1300.9 754.77) scale(.1 -.1)">
<use xlink:href="#c"/>
<use x="63.623047" xlink:href="#e"/>
<use x="95.410156" xlink:href="#m"/>
<use x="159.033203" xlink:href="#ac"/>
</g>
</g>
<g clip-path="url(#a)">
<g transform="translate(1348.4 754.77) scale(.1 -.1)">
<use xlink:href="#c"/>
<use x="63.623047" xlink:href="#e"/>
<use x="95.410156" xlink:href="#m"/>
<use x="159.033203" xlink:href="#ab"/>
</g>
</g>
<g clip-path="url(#a)">
<g transform="translate(1395.8 754.77) scale(.1 -.1)">
<use xlink:href="#c"/>
<use x="63.623047" xlink:href="#e"/>
<use x="95.410156" xlink:href="#o"/>
<use x="159.033203" xlink:href="#ad"/>
</g>
</g>
<g clip-path="url(#a)">
<g transform="translate(1514.4 642.11) scale(.1 -.1)">
<use xlink:href="#c"/>
<use x="63.623047" xlink:href="#e"/>
<use x="95.410156" xlink:href="#o"/>
<use x="159.033203" xlink:href="#c"/>
</g>
</g>
<g clip-path="url(#a)">
<g transform="translate(1538.2 754.77) scale(.1 -.1)">
<use xlink:href="#c"/>
<use x="63.623047" xlink:href="#e"/>
<use x="95.410156" xlink:href="#o"/>
<use x="159.033203" xlink:href="#n"/>
</g>
</g>
<g clip-path="url(#a)">
<g transform="translate(636.69 754.77) scale(.1 -.1)">
<use xlink:href="#c"/>
<use x="63.623047" xlink:href="#e"/>
<use x="95.410156" xlink:href="#o"/>
<use x="159.033203" xlink:href="#m"/>
</g>
</g>
<g clip-path="url(#a)">
<g transform="translate(755.31 642.11) scale(.1 -.1)">
<use xlink:href="#c"/>
<use x="63.623047" xlink:href="#e"/>
<use x="95.410156" xlink:href="#o"/>
<use x="159.033203" xlink:href="#o"/>
</g>
</g>
<g clip-path="url(#a)">
<g transform="translate(779.03 754.77) scale(.1 -.1)">
<use xlink:href="#c"/>
<use x="63.623047" xlink:href="#e"/>
<use x="95.410156" xlink:href="#o"/>
<use x="159.033203" xlink:href="#z"/>
</g>
</g>
<g clip-path="url(#a)">
<g transform="translate(1490.7 754.77) scale(.1 -.1)">
<use xlink:href="#c"/>
<use x="63.623047" xlink:href="#e"/>
<use x="95.410156" xlink:href="#o"/>
<use x="159.033203" xlink:href="#y"/>
</g>
</g>
<g clip-path="url(#a)">
<g transform="translate(731.59 754.77) scale(.1 -.1)">
<use xlink:href="#c"/>
<use x="63.623047" xlink:href="#e"/>
<use x="95.410156" xlink:href="#o"/>
<use x="159.033203" xlink:href="#x"/>
</g>
</g>
<defs>
<clipPath id="a">
<rect width="1722.7" height="906.67"/>
</clipPath>
</defs>
</svg>
