<?xml version="1.0" encoding="UTF-8"?>
<!DOCTYPE svg  PUBLIC '-//W3C//DTD SVG 1.1//EN'  'http://www.w3.org/Graphics/SVG/1.1/DTD/svg11.dtd'>
<svg width="1773.3pt" height="933.33pt" version="1.1" viewBox="0 0 1773.3 933.33" xmlns="http://www.w3.org/2000/svg" xmlns:xlink="http://www.w3.org/1999/xlink">
<defs>
<style type="text/css">*{stroke-linecap:butt;stroke-linejoin:round;}</style>
</defs>
<path d="m0 933.33h1773.3v-933.33h-1773.3z" fill="#fff"/>
<g fill="none" stroke="#000">
<path d="m441.41 43.199 77.864 614.96" clip-path="url(#a)"/>
<path d="m441.41 43.199-171.01 730.95" clip-path="url(#a)"/>
<path d="m441.41 43.199-230.27 497.36" clip-path="url(#a)"/>
<path d="m441.41 43.199 18.608 730.95" clip-path="url(#a)"/>
<path d="m441.41 43.199 304.81 129.19" clip-path="url(#a)"/>
<path d="m519.27 658.16-343.69 115.99" clip-path="url(#a)"/>
<path d="m519.27 658.16-438.5 115.99" clip-path="url(#a)"/>
<path d="m519.27 658.16-391.1 115.99" clip-path="url(#a)"/>
<path d="m519.27 658.16 1173.3 115.99" clip-path="url(#a)"/>
<path d="m175.58 774.15v115.99" clip-path="url(#a)"/>
<path d="m80.773 774.15v115.99" clip-path="url(#a)"/>
<path d="m128.18 774.15v115.99" clip-path="url(#a)"/>
<path d="m270.39 774.15v115.99" clip-path="url(#a)"/>
<path d="m211.14 540.56-130.37 233.59" clip-path="url(#a)" stroke-dasharray="3.7,1.6"/>
<path d="m211.14 540.56 106.66 233.59" clip-path="url(#a)"/>
<path d="m211.14 540.56 11.851 233.59" clip-path="url(#a)"/>
<path d="m211.14 540.56 11.851 117.6" clip-path="url(#a)"/>
<path d="m317.8 774.15v115.99" clip-path="url(#a)"/>
<path d="m460.02 774.15v115.99" clip-path="url(#a)"/>
<path d="m746.22 172.39 140.44 601.76" clip-path="url(#a)"/>
<path d="m746.22 172.39-333.61 601.76" clip-path="url(#a)"/>
<path d="m746.22 172.39-192.58 248.31" clip-path="url(#a)"/>
<path d="m746.22 172.39 93.038 601.76" clip-path="url(#a)"/>
<path d="m746.22 172.39 292.71 125.72" clip-path="url(#a)"/>
<path d="m886.67 774.15v115.99" clip-path="url(#a)"/>
<path d="m1692.6 774.15v115.99" clip-path="url(#a)"/>
<path d="m222.99 774.15v115.99" clip-path="url(#a)"/>
<path d="m222.99 658.16-142.22 115.99" clip-path="url(#a)" stroke-dasharray="3.7,1.6"/>
<path d="m222.99 658.16 142.22 115.99" clip-path="url(#a)"/>
<path d="m365.21 774.15v115.99" clip-path="url(#a)"/>
<path d="m412.61 774.15v115.99" clip-path="url(#a)"/>
<path d="m553.64 420.7-46.22 353.45" clip-path="url(#a)"/>
<path d="m553.64 420.7 46.22 119.86" clip-path="url(#a)"/>
<path d="m507.42 774.15v115.99" clip-path="url(#a)"/>
<path d="m839.26 774.15v115.99" clip-path="url(#a)"/>
<path d="m1038.9 298.1-10.053 476.05" clip-path="url(#a)"/>
<path d="m1038.9 298.1-104.86 476.05" clip-path="url(#a)"/>
<path d="m1038.9 298.1-33.755 360.06" clip-path="url(#a)"/>
<path d="m1038.9 298.1 148.67 122.6" clip-path="url(#a)"/>
<path d="m1028.9 774.15v115.99" clip-path="url(#a)"/>
<path d="m599.86 540.56-92.441 233.59" clip-path="url(#a)" stroke-dasharray="3.7,1.6"/>
<path d="m599.86 540.56 49.776 233.59" clip-path="url(#a)"/>
<path d="m599.86 540.56-45.035 233.59" clip-path="url(#a)"/>
<path d="m599.86 540.56 2.3703 233.59" clip-path="url(#a)"/>
<path d="m599.86 540.56 85.33 117.6" clip-path="url(#a)"/>
<path d="m649.64 774.15v115.99" clip-path="url(#a)"/>
<path d="m934.07 774.15v115.99" clip-path="url(#a)"/>
<path d="m1005.2 658.16 23.703 115.99" clip-path="url(#a)" stroke-dasharray="3.7,1.6"/>
<path d="m1005.2 658.16-23.703 115.99" clip-path="url(#a)"/>
<path d="m981.48 774.15v115.99" clip-path="url(#a)"/>
<path d="m1187.6 420.7-63.913 353.45" clip-path="url(#a)"/>
<path d="m1187.6 420.7-111.32 353.45" clip-path="url(#a)"/>
<path d="m1187.6 420.7 19.047 119.86" clip-path="url(#a)"/>
<path d="m1187.6 420.7 156.18 119.86" clip-path="url(#a)"/>
<path d="m1123.7 774.15v115.99" clip-path="url(#a)"/>
<path d="m554.83 774.15v115.99" clip-path="url(#a)"/>
<path d="m602.23 774.15v115.99" clip-path="url(#a)"/>
<path d="m685.19 658.16-177.77 115.99" clip-path="url(#a)" stroke-dasharray="3.7,1.6"/>
<path d="m685.19 658.16 106.66 115.99" clip-path="url(#a)"/>
<path d="m685.19 658.16 11.851 115.99" clip-path="url(#a)"/>
<path d="m685.19 658.16 59.257 115.99" clip-path="url(#a)"/>
<path d="m791.86 774.15v115.99" clip-path="url(#a)"/>
<path d="m1076.3 774.15v115.99" clip-path="url(#a)"/>
<path d="m1206.7 540.56 11.851 233.59" clip-path="url(#a)"/>
<path d="m1206.7 540.56-11.851 117.6" clip-path="url(#a)"/>
<path d="m1218.5 774.15v115.99" clip-path="url(#a)"/>
<path d="m1343.8 540.56-125.29 233.59" clip-path="url(#a)" stroke-dasharray="3.7,1.6"/>
<path d="m1343.8 540.56 16.931 233.59" clip-path="url(#a)"/>
<path d="m1343.8 540.56-77.881 233.59" clip-path="url(#a)"/>
<path d="m1343.8 540.56-30.475 233.59" clip-path="url(#a)"/>
<path d="m1343.8 540.56 64.336 233.59" clip-path="url(#a)"/>
<path d="m1343.8 540.56-6.7722 117.6" clip-path="url(#a)"/>
<path d="m1343.8 540.56 159.15 117.6" clip-path="url(#a)"/>
<path d="m1360.7 774.15v115.99" clip-path="url(#a)"/>
<path d="m697.04 774.15v115.99" clip-path="url(#a)"/>
<path d="m744.45 774.15v115.99" clip-path="url(#a)"/>
<path d="m1194.8 658.16 23.703 115.99" clip-path="url(#a)" stroke-dasharray="3.7,1.6"/>
<path d="m1194.8 658.16-23.703 115.99" clip-path="url(#a)"/>
<path d="m1171.1 774.15v115.99" clip-path="url(#a)"/>
<path d="m1265.9 774.15v115.99" clip-path="url(#a)"/>
<path d="m1313.3 774.15v115.99" clip-path="url(#a)"/>
<path d="m1408.1 774.15v115.99" clip-path="url(#a)"/>
<path d="m1337 658.16-118.51 115.99" clip-path="url(#a)" stroke-dasharray="3.7,1.6"/>
<path d="m1337 658.16 118.51 115.99" clip-path="url(#a)"/>
<path d="m1455.5 774.15v115.99" clip-path="url(#a)"/>
<path d="m1502.9 658.16-284.43 115.99" clip-path="url(#a)" stroke-dasharray="3.7,1.6"/>
<path d="m1502.9 658.16 142.22 115.99" clip-path="url(#a)"/>
<path d="m1502.9 658.16v115.99" clip-path="url(#a)"/>
<path d="m1502.9 658.16 47.406 115.99" clip-path="url(#a)"/>
<path d="m1502.9 658.16 94.811 115.99" clip-path="url(#a)"/>
<path d="m1645.2 774.15v115.99" clip-path="url(#a)"/>
<path d="m1502.9 774.15v115.99" clip-path="url(#a)"/>
<path d="m1550.3 774.15v115.99" clip-path="url(#a)"/>
<path d="m1597.7 774.15v115.99" clip-path="url(#a)"/>
</g>
<path d="m473.74 348.48 0.75572 5.9686q0.30147 2.381 2.6825 2.0795l7.6812-0.97256q2.381-0.30147 2.0795-2.6825l-0.75572-5.9686q-0.30147-2.381-2.6825-2.0795l-7.6812 0.97256q-2.381 0.30147-2.0795 2.6825z" clip-path="url(#a)" fill="#fff" stroke="#fff"/>
<g clip-path="url(#a)">
<defs>
<path id="al" d="m9.8125 72.906h9.8594v-29.891h35.844v29.891h9.8594v-72.906h-9.8594v34.719h-35.844v-34.719h-9.8594z"/>
</defs>
<g transform="translate(477.77 347.97) rotate(82.784) scale(.08 -.08)">
<use xlink:href="#al"/>
</g>
</g>
<path d="m361.5 412.27 1.0155-4.3403q0.54674-2.3369-1.7901-2.8836l-7.5389-1.7638q-2.3369-0.54674-2.8836 1.7901l-1.0155 4.3403q-0.54674 2.3369 1.7901 2.8836l7.5389 1.7638q2.3369 0.54674 2.8836-1.7901z" clip-path="url(#a)" fill="#fff" stroke="#fff"/>
<g clip-path="url(#a)">
<defs>
<path id="ar" d="m9.8125 72.906h9.8594v-64.609h35.5v-8.2969h-45.359z"/>
</defs>
<g transform="translate(357.54 411.35) rotate(-76.832) scale(.08 -.08)">
<use xlink:href="#ar"/>
</g>
</g>
<path d="m330.7 297.25 2.5277-5.4595q1.0083-2.1779-1.1696-3.1862l-7.026-3.2529q-2.1779-1.0083-3.1862 1.1696l-2.5277 5.4595q-1.0083 2.1779 1.1696 3.1862l7.026 3.2529q2.1779 1.0083 3.1862-1.1696z" clip-path="url(#a)" fill="#fff" stroke="#fff"/>
<g clip-path="url(#a)">
<g transform="translate(327.01 295.54) rotate(-65.157) scale(.08 -.08)">
<use xlink:href="#al"/>
</g>
</g>
<path d="m444.39 406.61 0.11344 4.4561q0.061077 2.3992 2.4603 2.3381l7.74-0.19704q2.3992-0.061076 2.3381-2.4603l-0.11344-4.4561q-0.061076-2.3992-2.4603-2.3381l-7.74 0.19704q-2.3992 0.061076-2.3381 2.4603z" clip-path="url(#a)" fill="#fff" stroke="#fff"/>
<g clip-path="url(#a)">
<g transform="translate(448.45 406.5) rotate(88.542) scale(.08 -.08)">
<use xlink:href="#ar"/>
</g>
</g>
<path d="m588.6 112.39 5.5393 2.3477q2.2097 0.93654 3.1463-1.2732l3.0213-7.1287q0.93654-2.2097-1.2732-3.1463l-5.5393-2.3477q-2.2097-0.93654-3.1463 1.2732l-3.0213 7.1287q-0.93654 2.2097 1.2732 3.1463z" clip-path="url(#a)" fill="#fff" stroke="#fff"/>
<g clip-path="url(#a)">
<g transform="translate(590.19 108.65) rotate(22.968) scale(.08 -.08)">
<use xlink:href="#al"/>
</g>
</g>
<path d="m347.03 722.91 4.8121-1.624q2.274-0.76741 1.5066-3.0414l-2.4757-7.336q-0.76741-2.274-3.0414-1.5066l-4.8121 1.624q-2.274 0.76741-1.5066 3.0414l2.4757 7.336q0.76741 2.274 3.0414 1.5066z" clip-path="url(#a)" fill="#fff" stroke="#fff"/>
<g clip-path="url(#a)">
<defs>
<path id="s" d="m53.516 70.516v-9.625q-5.6094 2.6875-10.594 4-4.9844 1.3281-9.625 1.3281-8.0469 0-12.422-3.125t-4.375-8.8906q0-4.8438 2.9062-7.3125 2.9062-2.4531 11.016-3.9688l5.9531-1.2188q11.031-2.1094 16.281-7.4062t5.25-14.172q0-10.609-7.1094-16.078-7.0938-5.4688-20.812-5.4688-5.1719 0-11.016 1.1719-5.8281 1.1719-12.078 3.4688v10.156q6-3.3594 11.766-5.0781 5.7656-1.7031 11.328-1.7031 8.4375 0 13.031 3.3125 4.5938 3.3281 4.5938 9.4844 0 5.3594-3.2969 8.3906t-10.812 4.5469l-6.0156 1.1719q-11.031 2.1875-15.969 6.875-4.9219 4.6875-4.9219 13.047 0 9.6719 6.8125 15.234t18.766 5.5625q5.1406 0 10.453-0.9375 5.3281-0.92188 10.891-2.7656z"/>
</defs>
<g transform="translate(345.73 719.06) rotate(-18.648) scale(.08 -.08)">
<use xlink:href="#s"/>
</g>
</g>
<path d="m298.98 722.92 5.2906-1.3994q2.3202-0.61371 1.7065-2.9339l-1.9798-7.4851q-0.61371-2.3202-2.9339-1.7065l-5.2906 1.3994q-2.3202 0.61371-1.7065 2.9339l1.9798 7.4851q0.61371 2.3202 2.9339 1.7065z" clip-path="url(#a)" fill="#fff" stroke="#fff"/>
<g clip-path="url(#a)">
<defs>
<path id="m" d="m34.188 63.188-13.391-36.281h26.812zm-5.5781 9.7188h11.188l27.781-72.906h-10.25l-6.6406 18.703h-32.859l-6.6406-18.703h-10.406z"/>
</defs>
<g transform="translate(297.94 718.99) rotate(-14.816) scale(.08 -.08)">
<use xlink:href="#m"/>
</g>
</g>
<path d="m323.3 722.82 4.4113-1.3083q2.3009-0.68238 1.6186-2.9833l-2.2014-7.4229q-0.68238-2.3009-2.9833-1.6186l-4.4113 1.3083q-2.3009 0.68238-1.6186 2.9833l2.2014 7.4229q0.68238 2.3009 2.9833 1.6186z" clip-path="url(#a)" fill="#fff" stroke="#fff"/>
<g clip-path="url(#a)">
<defs>
<path id="t" d="m9.8125 72.906h41.891v-8.3125h-32.031v-21.484h28.906v-8.2969h-28.906v-34.812h-9.8594z"/>
</defs>
<g transform="translate(322.15 718.93) rotate(-16.519) scale(.08 -.08)">
<use xlink:href="#t"/>
</g>
</g>
<path d="m1102.4 722.11 5.8266 0.57599q2.3884 0.2361 2.6245-2.1523l0.76168-7.7049q0.2361-2.3884-2.1523-2.6245l-5.8266-0.57599q-2.3884-0.2361-2.6245 2.1523l-0.76168 7.7049q-0.2361 2.3884 2.1523 2.6245z" clip-path="url(#a)" fill="#fff" stroke="#fff"/>
<g clip-path="url(#a)">
<defs>
<path id="ah" d="m8.6875 72.906h9.9219v-44.297q0-11.719 4.2344-16.875 4.25-5.1406 13.781-5.1406 9.4688 0 13.719 5.1406 4.25 5.1562 4.25 16.875v44.297h9.9062v-45.516q0-14.25-7.0625-21.531-7.0469-7.2812-20.812-7.2812-13.828 0-20.891 7.2812-7.0469 7.2812-7.0469 21.531z"/>
</defs>
<g transform="translate(1102.8 718.06) rotate(5.6457) scale(.08 -.08)">
<use xlink:href="#ah"/>
</g>
</g>
<path d="m169.31 814.5v35.285q0 2.4 2.4 2.4h7.7425q2.4 0 2.4-2.4v-35.285q0-2.4-2.4-2.4h-7.7425q-2.4 0-2.4 2.4z" clip-path="url(#a)" fill="#fff" stroke="#fff"/>
<g clip-path="url(#a)">
<defs>
<path id="l" d="m-0.29688 72.906h61.672v-8.3125h-25.875v-64.594h-9.9062v64.594h-25.891z"/>
<path id="d" d="m56.203 29.594v-4.3906h-41.312q0.59375-9.2812 5.5938-14.141t13.938-4.8594q5.1719 0 10.031 1.2656t9.6562 3.8125v-8.5q-4.8438-2.0469-9.9219-3.125t-10.297-1.0781q-13.094 0-20.734 7.6094-7.6406 7.625-7.6406 20.625 0 13.422 7.25 21.297 7.25 7.8906 19.562 7.8906 11.031 0 17.453-7.1094 6.4219-7.0938 6.4219-19.297zm-8.9844 2.6406q-0.09375 7.3594-4.125 11.75-4.0312 4.4062-10.672 4.4062-7.5156 0-12.031-4.25t-5.2031-11.969z"/>
<path id="h" d="m41.109 46.297q-1.5156 0.875-3.2969 1.2812-1.7812 0.42188-3.9219 0.42188-7.625 0-11.703-4.9531t-4.0781-14.234v-28.812h-9.0312v54.688h9.0312v-8.5q2.8438 4.9844 7.375 7.3906 4.5469 2.4219 11.047 2.4219 0.92188 0 2.0469-0.125 1.125-0.10938 2.4844-0.35938z"/>
<path id="k" d="m52 44.188q3.375 6.0625 8.0625 8.9375t11.031 2.875q8.5469 0 13.188-5.9844 4.6406-5.9688 4.6406-17v-33.016h-9.0312v32.719q0 7.8594-2.7969 11.656-2.7812 3.8125-8.4844 3.8125-6.9844 0-11.047-4.6406-4.0469-4.625-4.0469-12.641v-30.906h-9.0312v32.719q0 7.9062-2.7812 11.688t-8.5938 3.7812q-6.8906 0-10.953-4.6562-4.0469-4.6562-4.0469-12.625v-30.906h-9.0312v54.688h9.0312v-8.5q3.0781 5.0312 7.375 7.4219t10.203 2.3906q5.9688 0 10.141-3.0312 4.1719-3.0156 6.1719-8.7812z"/>
<path id="i" d="m9.4219 54.688h8.9844v-54.688h-8.9844zm0 21.297h8.9844v-11.391h-8.9844z"/>
<path id="g" d="m54.891 33.016v-33.016h-8.9844v32.719q0 7.7656-3.0312 11.609-3.0312 3.8594-9.0781 3.8594-7.2812 0-11.484-4.6406-4.2031-4.625-4.2031-12.641v-30.906h-9.0312v54.688h9.0312v-8.5q3.2344 4.9375 7.5938 7.375 4.375 2.4375 10.094 2.4375 9.4219 0 14.25-5.8281 4.8438-5.8281 4.8438-17.156z"/>
<path id="e" d="m34.281 27.484q-10.891 0-15.094-2.4844t-4.2031-8.5q0-4.7812 3.1562-7.5938 3.1562-2.7969 8.5625-2.7969 7.4844 0 12 5.2969t4.5156 14.078v2zm17.922 3.7188v-31.203h-8.9844v8.2969q-3.0781-4.9688-7.6719-7.3438t-11.234-2.375q-8.3906 0-13.359 4.7188-4.9531 4.7188-4.9531 12.625 0 9.2188 6.1719 13.906 6.1875 4.6875 18.438 4.6875h12.609v0.89062q0 6.2031-4.0781 9.5938t-11.453 3.3906q-4.6875 0-9.1406-1.125-4.4375-1.125-8.5312-3.375v8.3125q4.9219 1.9062 9.5625 2.8438 4.6406 0.95312 9.0312 0.95312 11.875 0 17.734-6.1562 5.8594-6.1406 5.8594-18.641z"/>
<path id="j" d="m9.4219 75.984h8.9844v-75.984h-8.9844z"/>
</defs>
<g transform="translate(173.38 814.5) rotate(90) scale(.08 -.08)">
<use xlink:href="#l"/>
<use x="60.818359" xlink:href="#d"/>
<use x="122.341797" xlink:href="#h"/>
<use x="163.439453" xlink:href="#k"/>
<use x="260.851562" xlink:href="#i"/>
<use x="288.634766" xlink:href="#g"/>
<use x="352.013672" xlink:href="#e"/>
<use x="413.292969" xlink:href="#j"/>
</g>
</g>
<path d="m74.501 814.5v35.285q0 2.4 2.4 2.4h7.7425q2.4 0 2.4-2.4v-35.285q0-2.4-2.4-2.4h-7.7425q-2.4 0-2.4 2.4z" clip-path="url(#a)" fill="#fff" stroke="#fff"/>
<g clip-path="url(#a)">
<g transform="translate(78.565 814.5) rotate(90) scale(.08 -.08)">
<use xlink:href="#l"/>
<use x="60.818359" xlink:href="#d"/>
<use x="122.341797" xlink:href="#h"/>
<use x="163.439453" xlink:href="#k"/>
<use x="260.851562" xlink:href="#i"/>
<use x="288.634766" xlink:href="#g"/>
<use x="352.013672" xlink:href="#e"/>
<use x="413.292969" xlink:href="#j"/>
</g>
</g>
<path d="m121.91 814.5v35.285q0 2.4 2.4 2.4h7.7425q2.4 0 2.4-2.4v-35.285q0-2.4-2.4-2.4h-7.7425q-2.4 0-2.4 2.4z" clip-path="url(#a)" fill="#fff" stroke="#fff"/>
<g clip-path="url(#a)">
<g transform="translate(125.97 814.5) rotate(90) scale(.08 -.08)">
<use xlink:href="#l"/>
<use x="60.818359" xlink:href="#d"/>
<use x="122.341797" xlink:href="#h"/>
<use x="163.439453" xlink:href="#k"/>
<use x="260.851562" xlink:href="#i"/>
<use x="288.634766" xlink:href="#g"/>
<use x="352.013672" xlink:href="#e"/>
<use x="413.292969" xlink:href="#j"/>
</g>
</g>
<path d="m264.12 814.5v35.285q0 2.4 2.4 2.4h7.7425q2.4 0 2.4-2.4v-35.285q0-2.4-2.4-2.4h-7.7425q-2.4 0-2.4 2.4z" clip-path="url(#a)" fill="#fff" stroke="#fff"/>
<g clip-path="url(#a)">
<g transform="translate(268.19 814.5) rotate(90) scale(.08 -.08)">
<use xlink:href="#l"/>
<use x="60.818359" xlink:href="#d"/>
<use x="122.341797" xlink:href="#h"/>
<use x="163.439453" xlink:href="#k"/>
<use x="260.851562" xlink:href="#i"/>
<use x="288.634766" xlink:href="#g"/>
<use x="352.013672" xlink:href="#e"/>
<use x="413.292969" xlink:href="#j"/>
</g>
</g>
<path d="m150.1 662.8 2.667-4.7786q1.1696-2.0957-0.92608-3.2653l-6.7608-3.7733q-2.0957-1.1696-3.2653 0.92608l-2.667 4.7786q-1.1696 2.0957 0.92608 3.2653l6.7608 3.7732q2.0957 1.1696 3.2653-0.92608z" clip-path="url(#a)" fill="#fff" stroke="#fff"/>
<g clip-path="url(#a)">
<g transform="translate(146.55 660.82) rotate(-60.834) scale(.08 -.08)">
<use xlink:href="#m"/>
</g>
</g>
<path d="m257.76 657.77 2.0037 4.3879q0.9969 2.1832 3.1801 1.1863l7.043-3.216q2.1832-0.9969 1.1863-3.1801l-2.0037-4.3879q-0.9969-2.1832-3.1801-1.1863l-7.043 3.216q-2.1832 0.9969-1.1863 3.1801z" clip-path="url(#a)" fill="#fff" stroke="#fff"/>
<g clip-path="url(#a)">
<defs>
<path id="z" d="m19.672 64.797v-27.391h12.406q6.8906 0 10.641 3.5625 3.7656 3.5625 3.7656 10.156 0 6.5469-3.7656 10.109-3.75 3.5625-10.641 3.5625zm-9.8594 8.1094h22.266q12.266 0 18.531-5.5469 6.2812-5.5469 6.2812-16.234 0-10.797-6.2812-16.312-6.2656-5.5156-18.531-5.5156h-12.406v-29.297h-9.8594z"/>
</defs>
<g transform="translate(261.46 656.08) rotate(65.457) scale(.08 -.08)">
<use xlink:href="#z"/>
</g>
</g>
<path d="m210.65 654.75 0.29668 5.8475q0.12161 2.3969 2.5185 2.2753l7.7326-0.39232q2.3969-0.12161 2.2753-2.5185l-0.29668-5.8475q-0.12161-2.3969-2.5185-2.2753l-7.7326 0.39232q-2.3969 0.12161-2.2753 2.5185z" clip-path="url(#a)" fill="#fff" stroke="#fff"/>
<g clip-path="url(#a)">
<g transform="translate(214.71 654.54) rotate(87.095) scale(.08 -.08)">
<use xlink:href="#ah"/>
</g>
</g>
<path d="m210.57 597.48 0.50686 5.0295q0.24065 2.3879 2.6286 2.1473l7.7035-0.77634q2.3879-0.24065 2.1473-2.6286l-0.50686-5.0295q-0.24065-2.3879-2.6286-2.1473l-7.7035 0.77634q-2.3879 0.24065-2.1473 2.6286z" clip-path="url(#a)" fill="#fff" stroke="#fff"/>
<g clip-path="url(#a)">
<defs>
<path id="aa" d="m9.8125 72.906h46.094v-8.3125h-36.234v-21.578h34.719v-8.2969h-34.719v-26.422h37.109v-8.2969h-46.969z"/>
</defs>
<g transform="translate(214.61 597.07) rotate(84.245) scale(.08 -.08)">
<use xlink:href="#aa"/>
</g>
</g>
<path d="m311.53 814.5v35.285q0 2.4 2.4 2.4h7.7425q2.4 0 2.4-2.4v-35.285q0-2.4-2.4-2.4h-7.7425q-2.4 0-2.4 2.4z" clip-path="url(#a)" fill="#fff" stroke="#fff"/>
<g clip-path="url(#a)">
<g transform="translate(315.59 814.5) rotate(90) scale(.08 -.08)">
<use xlink:href="#l"/>
<use x="60.818359" xlink:href="#d"/>
<use x="122.341797" xlink:href="#h"/>
<use x="163.439453" xlink:href="#k"/>
<use x="260.851562" xlink:href="#i"/>
<use x="288.634766" xlink:href="#g"/>
<use x="352.013672" xlink:href="#e"/>
<use x="413.292969" xlink:href="#j"/>
</g>
</g>
<path d="m453.75 814.5v35.285q0 2.4 2.4 2.4h7.7425q2.4 0 2.4-2.4v-35.285q0-2.4-2.4-2.4h-7.7425q-2.4 0-2.4 2.4z" clip-path="url(#a)" fill="#fff" stroke="#fff"/>
<g clip-path="url(#a)">
<g transform="translate(457.81 814.5) rotate(90) scale(.08 -.08)">
<use xlink:href="#l"/>
<use x="60.818359" xlink:href="#d"/>
<use x="122.341797" xlink:href="#h"/>
<use x="163.439453" xlink:href="#k"/>
<use x="260.851562" xlink:href="#i"/>
<use x="288.634766" xlink:href="#g"/>
<use x="352.013672" xlink:href="#e"/>
<use x="413.292969" xlink:href="#j"/>
</g>
</g>
<path d="m809.82 472.45 1.0458 4.4808q0.54547 2.3372 2.8827 1.7917l7.5399-1.7597q2.3372-0.54547 1.7917-2.8827l-1.0458-4.4808q-0.54547-2.3372-2.8827-1.7917l-7.5399 1.7597q-2.3372 0.54547-1.7917 2.8827z" clip-path="url(#a)" fill="#fff" stroke="#fff"/>
<g clip-path="url(#a)">
<g transform="translate(813.77 471.53) rotate(76.863) scale(.08 -.08)">
<use xlink:href="#t"/>
</g>
</g>
<path d="m583.48 478.87 2.8389-5.1207q1.1637-2.099-0.93533-3.2627l-6.7715-3.7541q-2.099-1.1637-3.2627 0.93533l-2.8389 5.1207q-1.1637 2.099 0.93533 3.2627l6.7715 3.7541q2.099 1.1637 3.2627-0.93533z" clip-path="url(#a)" fill="#fff" stroke="#fff"/>
<g clip-path="url(#a)">
<g transform="translate(579.93 476.9) rotate(-60.996) scale(.08 -.08)">
<use xlink:href="#ah"/>
</g>
</g>
<path d="m653.21 302.55 3.3538-4.3244q1.4708-1.8965-0.42564-3.3673l-6.1181-4.745q-1.8965-1.4708-3.3673 0.42564l-3.3538 4.3244q-1.4708 1.8965 0.42564 3.3673l6.1181 4.745q1.8965 1.4708 3.3673-0.42564z" clip-path="url(#a)" fill="#fff" stroke="#fff"/>
<g clip-path="url(#a)">
<g transform="translate(650 300.06) rotate(-52.204) scale(.08 -.08)">
<use xlink:href="#m"/>
</g>
</g>
<path d="m786.19 471.95 0.70304 4.5472q0.3667 2.3718 2.7385 2.0051l7.6516-1.183q2.3718-0.3667 2.0051-2.7385l-0.70304-4.5472q-0.3667-2.3718-2.7385-2.0051l-7.6516 1.183q-2.3718 0.3667-2.0051 2.7385z" clip-path="url(#a)" fill="#fff" stroke="#fff"/>
<g clip-path="url(#a)">
<g transform="translate(790.21 471.33) rotate(81.211) scale(.08 -.08)">
<use xlink:href="#t"/>
</g>
</g>
<path d="m887.59 239.93 5.0284 2.1596q2.2052 0.94711 3.1523-1.2581l3.0554-7.1141q0.94711-2.2052-1.2581-3.1523l-5.0284-2.1596q-2.2052-0.94711-3.1523 1.2581l-3.0554 7.1141q-0.94711 2.2052 1.2581 3.1523z" clip-path="url(#a)" fill="#fff" stroke="#fff"/>
<g clip-path="url(#a)">
<g transform="translate(889.19 236.19) rotate(23.243) scale(.08 -.08)">
<use xlink:href="#m"/>
</g>
</g>
<path d="m880.4 814.5v35.285q0 2.4 2.4 2.4h7.7425q2.4 0 2.4-2.4v-35.285q0-2.4-2.4-2.4h-7.7425q-2.4 0-2.4 2.4z" clip-path="url(#a)" fill="#fff" stroke="#fff"/>
<g clip-path="url(#a)">
<g transform="translate(884.46 814.5) rotate(90) scale(.08 -.08)">
<use xlink:href="#l"/>
<use x="60.818359" xlink:href="#d"/>
<use x="122.341797" xlink:href="#h"/>
<use x="163.439453" xlink:href="#k"/>
<use x="260.851562" xlink:href="#i"/>
<use x="288.634766" xlink:href="#g"/>
<use x="352.013672" xlink:href="#e"/>
<use x="413.292969" xlink:href="#j"/>
</g>
</g>
<path d="m1686.3 814.5v35.285q0 2.4 2.4 2.4h7.7425q2.4 0 2.4-2.4v-35.285q0-2.4-2.4-2.4h-7.7425q-2.4 0-2.4 2.4z" clip-path="url(#a)" fill="#fff" stroke="#fff"/>
<g clip-path="url(#a)">
<g transform="translate(1690.4 814.5) rotate(90) scale(.08 -.08)">
<use xlink:href="#l"/>
<use x="60.818359" xlink:href="#d"/>
<use x="122.341797" xlink:href="#h"/>
<use x="163.439453" xlink:href="#k"/>
<use x="260.851562" xlink:href="#i"/>
<use x="288.634766" xlink:href="#g"/>
<use x="352.013672" xlink:href="#e"/>
<use x="413.292969" xlink:href="#j"/>
</g>
</g>
<path d="m216.72 814.5v35.285q0 2.4 2.4 2.4h7.7425q2.4 0 2.4-2.4v-35.285q0-2.4-2.4-2.4h-7.7425q-2.4 0-2.4 2.4z" clip-path="url(#a)" fill="#fff" stroke="#fff"/>
<g clip-path="url(#a)">
<g transform="translate(220.78 814.5) rotate(90) scale(.08 -.08)">
<use xlink:href="#l"/>
<use x="60.818359" xlink:href="#d"/>
<use x="122.341797" xlink:href="#h"/>
<use x="163.439453" xlink:href="#k"/>
<use x="260.851562" xlink:href="#i"/>
<use x="288.634766" xlink:href="#g"/>
<use x="352.013672" xlink:href="#e"/>
<use x="413.292969" xlink:href="#j"/>
</g>
</g>
<path d="m153.72 722.74 4.2409-3.4587q1.8599-1.5168 0.34304-3.3767l-4.8934-6.0001q-1.5168-1.8599-3.3767-0.34304l-4.2409 3.4587q-1.8599 1.5168-0.34304 3.3767l4.8934 6.0001q1.5168 1.8599 3.3767 0.34304z" clip-path="url(#a)" fill="#fff" stroke="#fff"/>
<g clip-path="url(#a)">
<g transform="translate(151.16 719.6) rotate(-39.199) scale(.08 -.08)">
<use xlink:href="#m"/>
</g>
</g>
<path d="m288.17 719.41 3.9358 3.2099q1.8599 1.5168 3.3767-0.34304l4.8934-6.0001q1.5168-1.8599-0.34304-3.3767l-3.9358-3.2099q-1.8599-1.5168-3.3767 0.34304l-4.8934 6.0001q-1.5168 1.8599 0.34304 3.3767z" clip-path="url(#a)" fill="#fff" stroke="#fff"/>
<g clip-path="url(#a)">
<g transform="translate(290.73 716.26) rotate(39.199) scale(.08 -.08)">
<use xlink:href="#s"/>
</g>
</g>
<path d="m358.93 814.5v35.285q0 2.4 2.4 2.4h7.7425q2.4 0 2.4-2.4v-35.285q0-2.4-2.4-2.4h-7.7425q-2.4 0-2.4 2.4z" clip-path="url(#a)" fill="#fff" stroke="#fff"/>
<g clip-path="url(#a)">
<g transform="translate(363 814.5) rotate(90) scale(.08 -.08)">
<use xlink:href="#l"/>
<use x="60.818359" xlink:href="#d"/>
<use x="122.341797" xlink:href="#h"/>
<use x="163.439453" xlink:href="#k"/>
<use x="260.851562" xlink:href="#i"/>
<use x="288.634766" xlink:href="#g"/>
<use x="352.013672" xlink:href="#e"/>
<use x="413.292969" xlink:href="#j"/>
</g>
</g>
<path d="m406.34 814.5v35.285q0 2.4 2.4 2.4h7.7425q2.4 0 2.4-2.4v-35.285q0-2.4-2.4-2.4h-7.7425q-2.4 0-2.4 2.4z" clip-path="url(#a)" fill="#fff" stroke="#fff"/>
<g clip-path="url(#a)">
<g transform="translate(410.4 814.5) rotate(90) scale(.08 -.08)">
<use xlink:href="#l"/>
<use x="60.818359" xlink:href="#d"/>
<use x="122.341797" xlink:href="#h"/>
<use x="163.439453" xlink:href="#k"/>
<use x="260.851562" xlink:href="#i"/>
<use x="288.634766" xlink:href="#g"/>
<use x="352.013672" xlink:href="#e"/>
<use x="413.292969" xlink:href="#j"/>
</g>
</g>
<path d="m536.39 601.01 0.72434-5.5391q0.3112-2.3797-2.0685-2.6909l-7.6771-1.0039q-2.3797-0.3112-2.6909 2.0685l-0.72434 5.5391q-0.3112 2.3797 2.0685 2.6909l7.6771 1.0039q2.3797 0.3112 2.6909-2.0685z" clip-path="url(#a)" fill="#fff" stroke="#fff"/>
<g clip-path="url(#a)">
<defs>
<path id="am" d="m64.406 67.281v-10.391q-4.9844 4.6406-10.625 6.9219-5.6406 2.2969-11.984 2.2969-12.5 0-19.141-7.6406t-6.6406-22.094q0-14.406 6.6406-22.047t19.141-7.6406q6.3438 0 11.984 2.2969t10.625 6.9375v-10.312q-5.1719-3.5156-10.969-5.2812-5.7812-1.75-12.219-1.75-16.562 0-26.094 10.125-9.5156 10.141-9.5156 27.672 0 17.578 9.5156 27.703 9.5312 10.141 26.094 10.141 6.5312 0 12.312-1.7344 5.7969-1.7344 10.875-5.2031z"/>
</defs>
<g transform="translate(532.36 600.48) rotate(-82.55) scale(.08 -.08)">
<use xlink:href="#am"/>
</g>
</g>
<path d="m569.99 480.53 1.8187 4.7165q0.86348 2.2393 3.1028 1.3758l7.224-2.7856q2.2393-0.86348 1.3758-3.1028l-1.8187-4.7165q-0.86348-2.2393-3.1028-1.3758l-7.224 2.7856q-2.2393 0.86348-1.3758 3.1028z" clip-path="url(#a)" fill="#fff" stroke="#fff"/>
<g clip-path="url(#a)">
<g transform="translate(573.78 479.07) rotate(68.913) scale(.08 -.08)">
<use xlink:href="#aa"/>
</g>
</g>
<path d="m501.15 814.5v35.285q0 2.4 2.4 2.4h7.7425q2.4 0 2.4-2.4v-35.285q0-2.4-2.4-2.4h-7.7425q-2.4 0-2.4 2.4z" clip-path="url(#a)" fill="#fff" stroke="#fff"/>
<g clip-path="url(#a)">
<g transform="translate(505.21 814.5) rotate(90) scale(.08 -.08)">
<use xlink:href="#l"/>
<use x="60.818359" xlink:href="#d"/>
<use x="122.341797" xlink:href="#h"/>
<use x="163.439453" xlink:href="#k"/>
<use x="260.851562" xlink:href="#i"/>
<use x="288.634766" xlink:href="#g"/>
<use x="352.013672" xlink:href="#e"/>
<use x="413.292969" xlink:href="#j"/>
</g>
</g>
<path d="m832.99 814.5v35.285q0 2.4 2.4 2.4h7.7425q2.4 0 2.4-2.4v-35.285q0-2.4-2.4-2.4h-7.7425q-2.4 0-2.4 2.4z" clip-path="url(#a)" fill="#fff" stroke="#fff"/>
<g clip-path="url(#a)">
<g transform="translate(837.05 814.5) rotate(90) scale(.08 -.08)">
<use xlink:href="#l"/>
<use x="60.818359" xlink:href="#d"/>
<use x="122.341797" xlink:href="#h"/>
<use x="163.439453" xlink:href="#k"/>
<use x="260.851562" xlink:href="#i"/>
<use x="288.634766" xlink:href="#g"/>
<use x="352.013672" xlink:href="#e"/>
<use x="413.292969" xlink:href="#j"/>
</g>
</g>
<path d="m1040.1 539.05 0.11794-5.585q0.050669-2.3995-2.3488-2.4501l-7.7408-0.16346q-2.3995-0.050669-2.4501 2.3488l-0.11794 5.585q-0.050669 2.3995 2.3488 2.4501l7.7408 0.16346q2.3995 0.050669 2.4501-2.3488z" clip-path="url(#a)" fill="#fff" stroke="#fff"/>
<g clip-path="url(#a)">
<g transform="translate(1036.1 538.96) rotate(-88.79) scale(.08 -.08)">
<use xlink:href="#am"/>
</g>
</g>
<path d="m992.13 539.72 0.98984-4.4935q0.5163-2.3438-1.8275-2.8601l-7.5612-1.6656q-2.3438-0.5163-2.8601 1.8275l-0.98984 4.4935q-0.5163 2.3438 1.8275 2.8601l7.5612 1.6656q2.3438 0.5163 2.8601-1.8275z" clip-path="url(#a)" fill="#fff" stroke="#fff"/>
<g clip-path="url(#a)">
<g transform="translate(988.16 538.85) rotate(-77.577) scale(.08 -.08)">
<use xlink:href="#t"/>
</g>
</g>
<path d="m1028.1 481.23 0.47183-5.0329q0.22402-2.3895-2.1655-2.6135l-7.7087-0.72268q-2.3895-0.22402-2.6135 2.1655l-0.47183 5.0329q-0.22402 2.3895 2.1655 2.6135l7.7087 0.72268q2.3895 0.22402 2.6135-2.1655z" clip-path="url(#a)" fill="#fff" stroke="#fff"/>
<g clip-path="url(#a)">
<g transform="translate(1024 480.86) rotate(-84.644) scale(.08 -.08)">
<use xlink:href="#aa"/>
</g>
</g>
<path d="m1107.3 362.63 3.9 3.216q1.8517 1.5269 3.3785-0.32477l4.9258-5.9735q1.5269-1.8517-0.32477-3.3785l-3.9-3.216q-1.8517-1.5269-3.3785 0.32477l-4.9258 5.9735q-1.5269 1.8517 0.32477 3.3785z" clip-path="url(#a)" fill="#fff" stroke="#fff"/>
<g clip-path="url(#a)">
<g transform="translate(1109.9 359.5) rotate(39.509) scale(.08 -.08)">
<use xlink:href="#aa"/>
</g>
</g>
<path d="m1022.6 814.5v35.285q0 2.4 2.4 2.4h7.7425q2.4 0 2.4-2.4v-35.285q0-2.4-2.4-2.4h-7.7425q-2.4 0-2.4 2.4z" clip-path="url(#a)" fill="#fff" stroke="#fff"/>
<g clip-path="url(#a)">
<g transform="translate(1026.7 814.5) rotate(90) scale(.08 -.08)">
<use xlink:href="#l"/>
<use x="60.818359" xlink:href="#d"/>
<use x="122.341797" xlink:href="#h"/>
<use x="163.439453" xlink:href="#k"/>
<use x="260.851562" xlink:href="#i"/>
<use x="288.634766" xlink:href="#g"/>
<use x="352.013672" xlink:href="#e"/>
<use x="413.292969" xlink:href="#j"/>
</g>
</g>
<path d="m558.47 662.21 2.0138-5.0885q0.88315-2.2316-1.3485-3.1148l-7.1992-2.8491q-2.2316-0.88315-3.1148 1.3485l-2.0138 5.0885q-0.88315 2.2316 1.3485 3.1148l7.1992 2.8491q2.2316 0.88315 3.1148-1.3485z" clip-path="url(#a)" fill="#fff" stroke="#fff"/>
<g clip-path="url(#a)">
<g transform="translate(554.69 660.71) rotate(-68.409) scale(.08 -.08)">
<use xlink:href="#m"/>
</g>
</g>
<path d="m618.11 656.3 1.0053 4.7178q0.5002 2.3473 2.8475 1.8471l7.5725-1.6137q2.3473-0.5002 1.8471-2.8475l-1.0053-4.7178q-0.5002-2.3473-2.8475-1.8471l-7.5725 1.6137q-2.3473 0.5002-1.8471 2.8475z" clip-path="url(#a)" fill="#fff" stroke="#fff"/>
<g clip-path="url(#a)">
<g transform="translate(622.09 655.46) rotate(77.971) scale(.08 -.08)">
<use xlink:href="#z"/>
</g>
</g>
<path d="m582.99 661.23 1.036-5.3735q0.45435-2.3566-1.9022-2.811l-7.6025-1.4658q-2.3566-0.45435-2.811 1.9022l-1.036 5.3735q-0.45435 2.3566 1.9022 2.811l7.6025 1.4658q2.3566 0.45435 2.811-1.9022z" clip-path="url(#a)" fill="#fff" stroke="#fff"/>
<g clip-path="url(#a)">
<g transform="translate(579 660.46) rotate(-79.087) scale(.08 -.08)">
<use xlink:href="#m"/>
</g>
</g>
<path d="m594.75 655.12 0.046689 4.601q0.024352 2.3999 2.4242 2.3755l7.7421-0.078562q2.3999-0.024353 2.3755-2.4242l-0.046688-4.601q-0.024353-2.3999-2.4242-2.3755l-7.7421 0.078562q-2.3999 0.024352-2.3755 2.4242z" clip-path="url(#a)" fill="#fff" stroke="#fff"/>
<g clip-path="url(#a)">
<g transform="translate(598.82 655.08) rotate(89.419) scale(.08 -.08)">
<use xlink:href="#t"/>
</g>
</g>
<path d="m635.85 600.83 3.2139 4.4293q1.4095 1.9425 3.352 0.53303l6.2666-4.547q1.9425-1.4095 0.53303-3.352l-3.2139-4.4293q-1.4095-1.9425-3.352-0.53303l-6.2666 4.547q-1.9425 1.4095-0.53303 3.352z" clip-path="url(#a)" fill="#fff" stroke="#fff"/>
<g clip-path="url(#a)">
<g transform="translate(639.13 598.44) rotate(54.035) scale(.08 -.08)">
<use xlink:href="#m"/>
</g>
</g>
<path d="m643.37 814.5v35.285q0 2.4 2.4 2.4h7.7425q2.4 0 2.4-2.4v-35.285q0-2.4-2.4-2.4h-7.7425q-2.4 0-2.4 2.4z" clip-path="url(#a)" fill="#fff" stroke="#fff"/>
<g clip-path="url(#a)">
<g transform="translate(647.43 814.5) rotate(90) scale(.08 -.08)">
<use xlink:href="#l"/>
<use x="60.818359" xlink:href="#d"/>
<use x="122.341797" xlink:href="#h"/>
<use x="163.439453" xlink:href="#k"/>
<use x="260.851562" xlink:href="#i"/>
<use x="288.634766" xlink:href="#g"/>
<use x="352.013672" xlink:href="#e"/>
<use x="413.292969" xlink:href="#j"/>
</g>
</g>
<path d="m927.8 814.5v35.285q0 2.4 2.4 2.4h7.7425q2.4 0 2.4-2.4v-35.285q0-2.4-2.4-2.4h-7.7425q-2.4 0-2.4 2.4z" clip-path="url(#a)" fill="#fff" stroke="#fff"/>
<g clip-path="url(#a)">
<g transform="translate(931.86 814.5) rotate(90) scale(.08 -.08)">
<use xlink:href="#l"/>
<use x="60.818359" xlink:href="#d"/>
<use x="122.341797" xlink:href="#h"/>
<use x="163.439453" xlink:href="#k"/>
<use x="260.851562" xlink:href="#i"/>
<use x="288.634766" xlink:href="#g"/>
<use x="352.013672" xlink:href="#e"/>
<use x="413.292969" xlink:href="#j"/>
</g>
</g>
<path d="m1010.3 714.73 1.0957 5.3617q0.48053 2.3514 2.8319 1.8709l7.5857-1.5502q2.3514-0.48053 1.8709-2.8319l-1.0957-5.3617q-0.48053-2.3514-2.8319-1.8709l-7.5857 1.5502q-2.3514 0.48053-1.8709 2.8319z" clip-path="url(#a)" fill="#fff" stroke="#fff"/>
<g clip-path="url(#a)">
<g transform="translate(1014.3 713.92) rotate(78.45) scale(.08 -.08)">
<use xlink:href="#m"/>
</g>
</g>
<path d="m998.96 719.9 1.0169-4.9759q0.48053-2.3514-1.8709-2.8319l-7.5857-1.5502q-2.3514-0.48053-2.8319 1.8709l-1.0169 4.9759q-0.48053 2.3514 1.8709 2.8319l7.5857 1.5502q2.3514 0.48053 2.8319-1.8709z" clip-path="url(#a)" fill="#fff" stroke="#fff"/>
<g clip-path="url(#a)">
<g transform="translate(994.98 719.08) rotate(-78.45) scale(.08 -.08)">
<use xlink:href="#s"/>
</g>
</g>
<path d="m975.21 814.5v35.285q0 2.4 2.4 2.4h7.7425q2.4 0 2.4-2.4v-35.285q0-2.4-2.4-2.4h-7.7425q-2.4 0-2.4 2.4z" clip-path="url(#a)" fill="#fff" stroke="#fff"/>
<g clip-path="url(#a)">
<g transform="translate(979.27 814.5) rotate(90) scale(.08 -.08)">
<use xlink:href="#l"/>
<use x="60.818359" xlink:href="#d"/>
<use x="122.341797" xlink:href="#h"/>
<use x="163.439453" xlink:href="#k"/>
<use x="260.851562" xlink:href="#i"/>
<use x="288.634766" xlink:href="#g"/>
<use x="352.013672" xlink:href="#e"/>
<use x="413.292969" xlink:href="#j"/>
</g>
</g>
<path d="m1161.4 600.91 0.85834-4.7468q0.42706-2.3617-1.9346-2.7888l-7.6189-1.3777q-2.3617-0.42706-2.7888 1.9346l-0.85834 4.7468q-0.42706 2.3617 1.9346 2.7888l7.6189 1.3777q2.3617 0.42706 2.7888-1.9346z" clip-path="url(#a)" fill="#fff" stroke="#fff"/>
<g clip-path="url(#a)">
<g transform="translate(1157.4 600.19) rotate(-79.75) scale(.08 -.08)">
<use xlink:href="#z"/>
</g>
</g>
<path d="m1137.1 601.96 1.6699-5.302q0.72096-2.2892-1.5682-3.0101l-7.3849-2.3259q-2.2892-0.72096-3.0101 1.5682l-1.6699 5.302q-0.72096 2.2892 1.5682 3.0101l7.3849 2.3259q2.2892 0.72096 3.0101-1.5682z" clip-path="url(#a)" fill="#fff" stroke="#fff"/>
<g clip-path="url(#a)">
<defs>
<path id="aq" d="m44.391 34.188q3.1719-1.0781 6.1719-4.5938t6.0312-9.6719l10.016-19.922h-10.609l-9.3125 18.703q-3.625 7.3281-7.0156 9.7188t-9.25 2.3906h-10.75v-30.812h-9.8594v72.906h22.266q12.5 0 18.656-5.2344 6.1562-5.2188 6.1562-15.766 0-6.8906-3.2031-11.438-3.2031-4.5312-9.2969-6.2812zm-24.719 30.609v-25.875h12.406q7.125 0 10.766 3.2969t3.6406 9.6875-3.6406 9.6406-10.766 3.25z"/>
</defs>
<g transform="translate(1133.2 600.74) rotate(-72.518) scale(.08 -.08)">
<use xlink:href="#aq"/>
</g>
</g>
<path d="m1190.5 478.91 0.85883 5.4047q0.37664 2.3703 2.7469 1.9936l7.6466-1.2151q2.3703-0.37664 1.9936-2.7469l-0.85883-5.4047q-0.37664-2.3703-2.7469-1.9936l-7.6466 1.2151q-2.3703 0.37664-1.9936 2.7469z" clip-path="url(#a)" fill="#fff" stroke="#fff"/>
<g clip-path="url(#a)">
<g transform="translate(1194.5 478.27) rotate(80.971) scale(.08 -.08)">
<use xlink:href="#m"/>
</g>
</g>
<path d="m1259.7 483.94 4.3414 3.3318q1.9039 1.4612 3.3651-0.44275l4.7138-6.1422q1.4612-1.9039-0.44275-3.3651l-4.3414-3.3318q-1.9039-1.4612-3.3651 0.44275l-4.7138 6.1422q-1.4612 1.9039 0.44275 3.3651z" clip-path="url(#a)" fill="#fff" stroke="#fff"/>
<g clip-path="url(#a)">
<g transform="translate(1262.2 480.72) rotate(37.505) scale(.08 -.08)">
<use xlink:href="#m"/>
</g>
</g>
<path d="m1117.4 814.5v35.285q0 2.4 2.4 2.4h7.7425q2.4 0 2.4-2.4v-35.285q0-2.4-2.4-2.4h-7.7425q-2.4 0-2.4 2.4z" clip-path="url(#a)" fill="#fff" stroke="#fff"/>
<g clip-path="url(#a)">
<g transform="translate(1121.5 814.5) rotate(90) scale(.08 -.08)">
<use xlink:href="#l"/>
<use x="60.818359" xlink:href="#d"/>
<use x="122.341797" xlink:href="#h"/>
<use x="163.439453" xlink:href="#k"/>
<use x="260.851562" xlink:href="#i"/>
<use x="288.634766" xlink:href="#g"/>
<use x="352.013672" xlink:href="#e"/>
<use x="413.292969" xlink:href="#j"/>
</g>
</g>
<path d="m548.56 814.5v35.285q0 2.4 2.4 2.4h7.7425q2.4 0 2.4-2.4v-35.285q0-2.4-2.4-2.4h-7.7425q-2.4 0-2.4 2.4z" clip-path="url(#a)" fill="#fff" stroke="#fff"/>
<g clip-path="url(#a)">
<g transform="translate(552.62 814.5) rotate(90) scale(.08 -.08)">
<use xlink:href="#l"/>
<use x="60.818359" xlink:href="#d"/>
<use x="122.341797" xlink:href="#h"/>
<use x="163.439453" xlink:href="#k"/>
<use x="260.851562" xlink:href="#i"/>
<use x="288.634766" xlink:href="#g"/>
<use x="352.013672" xlink:href="#e"/>
<use x="413.292969" xlink:href="#j"/>
</g>
</g>
<path d="m595.96 814.5v35.285q0 2.4 2.4 2.4h7.7425q2.4 0 2.4-2.4v-35.285q0-2.4-2.4-2.4h-7.7425q-2.4 0-2.4 2.4z" clip-path="url(#a)" fill="#fff" stroke="#fff"/>
<g clip-path="url(#a)">
<g transform="translate(600.03 814.5) rotate(90) scale(.08 -.08)">
<use xlink:href="#l"/>
<use x="60.818359" xlink:href="#d"/>
<use x="122.341797" xlink:href="#h"/>
<use x="163.439453" xlink:href="#k"/>
<use x="260.851562" xlink:href="#i"/>
<use x="288.634766" xlink:href="#g"/>
<use x="352.013672" xlink:href="#e"/>
<use x="413.292969" xlink:href="#j"/>
</g>
</g>
<path d="m597.44 722.9 4.5832-2.9903q2.01-1.3114 0.69858-3.3214l-4.2307-6.4844q-1.3114-2.01-3.3214-0.69858l-4.5832 2.9903q-2.01 1.3114-0.69858 3.3214l4.2307 6.4844q1.3114 2.01 3.3214 0.69858z" clip-path="url(#a)" fill="#fff" stroke="#fff"/>
<g clip-path="url(#a)">
<g transform="translate(595.22 719.5) rotate(-33.122) scale(.08 -.08)">
<use xlink:href="#m"/>
</g>
</g>
<path d="m732.19 718.53 3.4378 3.7383q1.6246 1.7666 3.3911 0.14201l5.699-5.2409q1.7666-1.6246 0.14201-3.3911l-3.4378-3.7383q-1.6246-1.7666-3.3911-0.14201l-5.699 5.2409q-1.7666 1.6246-0.14201 3.3911z" clip-path="url(#a)" fill="#fff" stroke="#fff"/>
<g clip-path="url(#a)">
<g transform="translate(735.18 715.78) rotate(47.398) scale(.08 -.08)">
<use xlink:href="#s"/>
</g>
</g>
<path d="m684.6 714.03 0.56505 5.53q0.24396 2.3876 2.6315 2.1436l7.7024-0.78703q2.3876-0.24396 2.1436-2.6315l-0.56505-5.53q-0.24396-2.3876-2.6315-2.1436l-7.7024 0.78703q-2.3876 0.24396-2.1436 2.6315z" clip-path="url(#a)" fill="#fff" stroke="#fff"/>
<g clip-path="url(#a)">
<g transform="translate(688.64 713.61) rotate(84.166) scale(.08 -.08)">
<use xlink:href="#aq"/>
</g>
</g>
<path d="m708.19 716.96 2.0934 4.0975q1.0919 2.1372 3.2291 1.0453l6.8948-3.5225q2.1372-1.0919 1.0453-3.2291l-2.0934-4.0975q-1.0919-2.1372-3.2291-1.0453l-6.8948 3.5225q-2.1372 1.0919-1.0453 3.2291z" clip-path="url(#a)" fill="#fff" stroke="#fff"/>
<g clip-path="url(#a)">
<g transform="translate(711.81 715.11) rotate(62.938) scale(.08 -.08)">
<use xlink:href="#t"/>
</g>
</g>
<path d="m785.58 814.5v35.285q0 2.4 2.4 2.4h7.7425q2.4 0 2.4-2.4v-35.285q0-2.4-2.4-2.4h-7.7425q-2.4 0-2.4 2.4z" clip-path="url(#a)" fill="#fff" stroke="#fff"/>
<g clip-path="url(#a)">
<g transform="translate(789.65 814.5) rotate(90) scale(.08 -.08)">
<use xlink:href="#l"/>
<use x="60.818359" xlink:href="#d"/>
<use x="122.341797" xlink:href="#h"/>
<use x="163.439453" xlink:href="#k"/>
<use x="260.851562" xlink:href="#i"/>
<use x="288.634766" xlink:href="#g"/>
<use x="352.013672" xlink:href="#e"/>
<use x="413.292969" xlink:href="#j"/>
</g>
</g>
<path d="m1070 814.5v35.285q0 2.4 2.4 2.4h7.7425q2.4 0 2.4-2.4v-35.285q0-2.4-2.4-2.4h-7.7425q-2.4 0-2.4 2.4z" clip-path="url(#a)" fill="#fff" stroke="#fff"/>
<g clip-path="url(#a)">
<g transform="translate(1074.1 814.5) rotate(90) scale(.08 -.08)">
<use xlink:href="#l"/>
<use x="60.818359" xlink:href="#d"/>
<use x="122.341797" xlink:href="#h"/>
<use x="163.439453" xlink:href="#k"/>
<use x="260.851562" xlink:href="#i"/>
<use x="288.634766" xlink:href="#g"/>
<use x="352.013672" xlink:href="#e"/>
<use x="413.292969" xlink:href="#j"/>
</g>
</g>
<path d="m1206.2 654.88 0.28306 5.5791q0.12161 2.3969 2.5185 2.2753l7.7326-0.39232q2.3969-0.12161 2.2753-2.5185l-0.28306-5.5791q-0.12161-2.3969-2.5185-2.2753l-7.7326 0.39232q-2.3969 0.12161-2.2753 2.5185z" clip-path="url(#a)" fill="#fff" stroke="#fff"/>
<g clip-path="url(#a)">
<g transform="translate(1210.2 654.68) rotate(87.095) scale(.08 -.08)">
<use xlink:href="#am"/>
</g>
</g>
<path d="m1206.7 602.51 0.50686-5.0295q0.24065-2.3879-2.1473-2.6286l-7.7035-0.77634q-2.3879-0.24065-2.6286 2.1473l-0.50686 5.0295q-0.24065 2.3879 2.1473 2.6286l7.7035 0.77634q2.3879 0.24065 2.6286-2.1473z" clip-path="url(#a)" fill="#fff" stroke="#fff"/>
<g clip-path="url(#a)">
<g transform="translate(1202.7 602.1) rotate(-84.245) scale(.08 -.08)">
<use xlink:href="#aa"/>
</g>
</g>
<path d="m1212.2 814.5v35.285q0 2.4 2.4 2.4h7.7425q2.4 0 2.4-2.4v-35.285q0-2.4-2.4-2.4h-7.7425q-2.4 0-2.4 2.4z" clip-path="url(#a)" fill="#fff" stroke="#fff"/>
<g clip-path="url(#a)">
<g transform="translate(1216.3 814.5) rotate(90) scale(.08 -.08)">
<use xlink:href="#l"/>
<use x="60.818359" xlink:href="#d"/>
<use x="122.341797" xlink:href="#h"/>
<use x="163.439453" xlink:href="#k"/>
<use x="260.851562" xlink:href="#i"/>
<use x="288.634766" xlink:href="#g"/>
<use x="352.013672" xlink:href="#e"/>
<use x="413.292969" xlink:href="#j"/>
</g>
</g>
<path d="m1285.4 662.73 2.5867-4.8226q1.1344-2.115-0.98059-3.2494l-6.823-3.6596q-2.115-1.1344-3.2494 0.98059l-2.5867 4.8226q-1.1344 2.115 0.98059 3.2494l6.823 3.6596q2.115 1.1344 3.2494-0.98059z" clip-path="url(#a)" fill="#fff" stroke="#fff"/>
<g clip-path="url(#a)">
<g transform="translate(1281.8 660.81) rotate(-61.793) scale(.08 -.08)">
<use xlink:href="#m"/>
</g>
</g>
<path d="m1345.8 655.28 0.36715 5.0655q0.1735 2.3937 2.5672 2.2202l7.7222-0.55972q2.3937-0.1735 2.2202-2.5672l-0.36715-5.0655q-0.1735-2.3937-2.5672-2.2202l-7.7222 0.55972q-2.3937 0.1735-2.2202 2.5672z" clip-path="url(#a)" fill="#fff" stroke="#fff"/>
<g clip-path="url(#a)">
<g transform="translate(1349.9 654.98) rotate(85.854) scale(.08 -.08)">
<use xlink:href="#s"/>
</g>
</g>
<path d="m1310.1 661.52 1.4554-4.365q0.75911-2.2768-1.5177-3.0359l-7.345-2.4489q-2.2768-0.75911-3.0359 1.5177l-1.4554 4.365q-0.75911 2.2768 1.5177 3.0359l7.345 2.4489q2.2768 0.75911 3.0359-1.5177z" clip-path="url(#a)" fill="#fff" stroke="#fff"/>
<g clip-path="url(#a)">
<g transform="translate(1306.2 660.24) rotate(-71.561) scale(.08 -.08)">
<use xlink:href="#t"/>
</g>
</g>
<path d="m1334.5 660.45 0.59526-4.5626q0.31049-2.3798-2.0693-2.6903l-7.6774-1.0016q-2.3798-0.31049-2.6903 2.0693l-0.59526 4.5626q-0.31049 2.3798 2.0693 2.6903l7.6774 1.0016q2.3798 0.31049 2.6903-2.0693z" clip-path="url(#a)" fill="#fff" stroke="#fff"/>
<g clip-path="url(#a)">
<g transform="translate(1330.4 659.92) rotate(-82.567) scale(.08 -.08)">
<use xlink:href="#t"/>
</g>
</g>
<path d="m1369.1 656.14 1.5893 5.7701q0.6373 2.3138 2.9511 1.6765l7.4645-2.0559q2.3138-0.6373 1.6765-2.9511l-1.5893-5.7701q-0.6373-2.3138-2.9511-1.6765l-7.4645 2.0559q-2.3138 0.6373-1.6765 2.9511z" clip-path="url(#a)" fill="#fff" stroke="#fff"/>
<g clip-path="url(#a)">
<defs>
<path id="av" d="m9.8125 72.906h13.281l32.328-60.984v60.984h9.5625v-72.906h-13.281l-32.312 60.984v-60.984h-9.5781z"/>
</defs>
<g transform="translate(1373 655.06) rotate(74.601) scale(.08 -.08)">
<use xlink:href="#av"/>
</g>
</g>
<path d="m1346.5 602.13 0.27733-4.8158q0.13798-2.396-2.258-2.534l-7.7297-0.44513q-2.396-0.13798-2.534 2.258l-0.27733 4.8158q-0.13798 2.396 2.258 2.534l7.7297 0.44513q2.396 0.13798 2.534-2.258z" clip-path="url(#a)" fill="#fff" stroke="#fff"/>
<g clip-path="url(#a)">
<g transform="translate(1342.5 601.9) rotate(-86.704) scale(.08 -.08)">
<use xlink:href="#z"/>
</g>
</g>
<path d="m1417.7 602.97 3.8795 2.8667q1.9302 1.4263 3.3565-0.5039l4.6013-6.2269q1.4263-1.9302-0.50391-3.3565l-3.8795-2.8667q-1.9302-1.4263-3.3565 0.5039l-4.6013 6.2269q-1.4263 1.9302 0.5039 3.3565z" clip-path="url(#a)" fill="#fff" stroke="#fff"/>
<g clip-path="url(#a)">
<g transform="translate(1420.1 599.7) rotate(36.462) scale(.08 -.08)">
<use xlink:href="#z"/>
</g>
</g>
<path d="m1354.5 814.5v35.285q0 2.4 2.4 2.4h7.7425q2.4 0 2.4-2.4v-35.285q0-2.4-2.4-2.4h-7.7425q-2.4 0-2.4 2.4z" clip-path="url(#a)" fill="#fff" stroke="#fff"/>
<g clip-path="url(#a)">
<g transform="translate(1358.5 814.5) rotate(90) scale(.08 -.08)">
<use xlink:href="#l"/>
<use x="60.818359" xlink:href="#d"/>
<use x="122.341797" xlink:href="#h"/>
<use x="163.439453" xlink:href="#k"/>
<use x="260.851562" xlink:href="#i"/>
<use x="288.634766" xlink:href="#g"/>
<use x="352.013672" xlink:href="#e"/>
<use x="413.292969" xlink:href="#j"/>
</g>
</g>
<path d="m690.77 814.5v35.285q0 2.4 2.4 2.4h7.7425q2.4 0 2.4-2.4v-35.285q0-2.4-2.4-2.4h-7.7425q-2.4 0-2.4 2.4z" clip-path="url(#a)" fill="#fff" stroke="#fff"/>
<g clip-path="url(#a)">
<g transform="translate(694.84 814.5) rotate(90) scale(.08 -.08)">
<use xlink:href="#l"/>
<use x="60.818359" xlink:href="#d"/>
<use x="122.341797" xlink:href="#h"/>
<use x="163.439453" xlink:href="#k"/>
<use x="260.851562" xlink:href="#i"/>
<use x="288.634766" xlink:href="#g"/>
<use x="352.013672" xlink:href="#e"/>
<use x="413.292969" xlink:href="#j"/>
</g>
</g>
<path d="m738.18 814.5v35.285q0 2.4 2.4 2.4h7.7425q2.4 0 2.4-2.4v-35.285q0-2.4-2.4-2.4h-7.7425q-2.4 0-2.4 2.4z" clip-path="url(#a)" fill="#fff" stroke="#fff"/>
<g clip-path="url(#a)">
<g transform="translate(742.24 814.5) rotate(90) scale(.08 -.08)">
<use xlink:href="#l"/>
<use x="60.818359" xlink:href="#d"/>
<use x="122.341797" xlink:href="#h"/>
<use x="163.439453" xlink:href="#k"/>
<use x="260.851562" xlink:href="#i"/>
<use x="288.634766" xlink:href="#g"/>
<use x="352.013672" xlink:href="#e"/>
<use x="413.292969" xlink:href="#j"/>
</g>
</g>
<path d="m1200 714.73 1.0957 5.3617q0.48053 2.3514 2.8319 1.8709l7.5857-1.5502q2.3514-0.48053 1.8709-2.8319l-1.0957-5.3617q-0.48053-2.3514-2.8319-1.8709l-7.5857 1.5502q-2.3514 0.48053-1.8709 2.8319z" clip-path="url(#a)" fill="#fff" stroke="#fff"/>
<g clip-path="url(#a)">
<g transform="translate(1203.9 713.92) rotate(78.45) scale(.08 -.08)">
<use xlink:href="#m"/>
</g>
</g>
<path d="m1187.9 723.93 2.6522-12.978q0.48053-2.3514-1.8709-2.8319l-7.838-1.6018q-2.3514-0.48053-2.8319 1.8709l-2.6522 12.978q-0.48053 2.3514 1.8709 2.8319l7.838 1.6018q2.3514 0.48053 2.8319-1.8709z" clip-path="url(#a)" fill="#fff" stroke="#fff"/>
<g clip-path="url(#a)">
<defs>
<path id="aw" d="m21 76.422v-100h-8.2969v100z"/>
</defs>
<g transform="translate(1183.7 723.07) rotate(-78.45) scale(.08 -.08)">
<use xlink:href="#s"/>
<use x="63.476562" xlink:href="#aw"/>
<use x="97.167969" xlink:href="#m"/>
</g>
</g>
<path d="m1164.8 814.5v35.285q0 2.4 2.4 2.4h7.7425q2.4 0 2.4-2.4v-35.285q0-2.4-2.4-2.4h-7.7425q-2.4 0-2.4 2.4z" clip-path="url(#a)" fill="#fff" stroke="#fff"/>
<g clip-path="url(#a)">
<g transform="translate(1168.9 814.5) rotate(90) scale(.08 -.08)">
<use xlink:href="#l"/>
<use x="60.818359" xlink:href="#d"/>
<use x="122.341797" xlink:href="#h"/>
<use x="163.439453" xlink:href="#k"/>
<use x="260.851562" xlink:href="#i"/>
<use x="288.634766" xlink:href="#g"/>
<use x="352.013672" xlink:href="#e"/>
<use x="413.292969" xlink:href="#j"/>
</g>
</g>
<path d="m1259.6 814.5v35.285q0 2.4 2.4 2.4h7.7425q2.4 0 2.4-2.4v-35.285q0-2.4-2.4-2.4h-7.7425q-2.4 0-2.4 2.4z" clip-path="url(#a)" fill="#fff" stroke="#fff"/>
<g clip-path="url(#a)">
<g transform="translate(1263.7 814.5) rotate(90) scale(.08 -.08)">
<use xlink:href="#l"/>
<use x="60.818359" xlink:href="#d"/>
<use x="122.341797" xlink:href="#h"/>
<use x="163.439453" xlink:href="#k"/>
<use x="260.851562" xlink:href="#i"/>
<use x="288.634766" xlink:href="#g"/>
<use x="352.013672" xlink:href="#e"/>
<use x="413.292969" xlink:href="#j"/>
</g>
</g>
<path d="m1307 814.5v35.285q0 2.4 2.4 2.4h7.7425q2.4 0 2.4-2.4v-35.285q0-2.4-2.4-2.4h-7.7425q-2.4 0-2.4 2.4z" clip-path="url(#a)" fill="#fff" stroke="#fff"/>
<g clip-path="url(#a)">
<g transform="translate(1311.1 814.5) rotate(90) scale(.08 -.08)">
<use xlink:href="#l"/>
<use x="60.818359" xlink:href="#d"/>
<use x="122.341797" xlink:href="#h"/>
<use x="163.439453" xlink:href="#k"/>
<use x="260.851562" xlink:href="#i"/>
<use x="288.634766" xlink:href="#g"/>
<use x="352.013672" xlink:href="#e"/>
<use x="413.292969" xlink:href="#j"/>
</g>
</g>
<path d="m1401.9 814.5v35.285q0 2.4 2.4 2.4h7.7425q2.4 0 2.4-2.4v-35.285q0-2.4-2.4-2.4h-7.7425q-2.4 0-2.4 2.4z" clip-path="url(#a)" fill="#fff" stroke="#fff"/>
<g clip-path="url(#a)">
<g transform="translate(1405.9 814.5) rotate(90) scale(.08 -.08)">
<use xlink:href="#l"/>
<use x="60.818359" xlink:href="#d"/>
<use x="122.341797" xlink:href="#h"/>
<use x="163.439453" xlink:href="#k"/>
<use x="260.851562" xlink:href="#i"/>
<use x="288.634766" xlink:href="#g"/>
<use x="352.013672" xlink:href="#e"/>
<use x="413.292969" xlink:href="#j"/>
</g>
</g>
<path d="m1280.2 722.55 3.9111-3.8277q1.7152-1.6787 0.036584-3.3939l-5.4154-5.5335q-1.6787-1.7152-3.3939-0.036583l-3.9111 3.8277q-1.7152 1.6787-0.036583 3.3939l5.4154 5.5335q1.6787 1.7152 3.3939 0.036583z" clip-path="url(#a)" fill="#fff" stroke="#fff"/>
<g clip-path="url(#a)">
<g transform="translate(1277.4 719.65) rotate(-44.382) scale(.08 -.08)">
<use xlink:href="#m"/>
</g>
</g>
<path d="m1390.1 718.86 3.6297 3.5523q1.7152 1.6787 3.3939-0.036583l5.4154-5.5335q1.6787-1.7152-0.036583-3.3939l-3.6297-3.5523q-1.7152-1.6787-3.3939 0.036583l-5.4154 5.5335q-1.6787 1.7152 0.036583 3.3939z" clip-path="url(#a)" fill="#fff" stroke="#fff"/>
<g clip-path="url(#a)">
<g transform="translate(1392.9 715.96) rotate(44.382) scale(.08 -.08)">
<use xlink:href="#s"/>
</g>
</g>
<path d="m1449.3 814.5v35.285q0 2.4 2.4 2.4h7.7425q2.4 0 2.4-2.4v-35.285q0-2.4-2.4-2.4h-7.7425q-2.4 0-2.4 2.4z" clip-path="url(#a)" fill="#fff" stroke="#fff"/>
<g clip-path="url(#a)">
<g transform="translate(1453.3 814.5) rotate(90) scale(.08 -.08)">
<use xlink:href="#l"/>
<use x="60.818359" xlink:href="#d"/>
<use x="122.341797" xlink:href="#h"/>
<use x="163.439453" xlink:href="#k"/>
<use x="260.851562" xlink:href="#i"/>
<use x="288.634766" xlink:href="#g"/>
<use x="352.013672" xlink:href="#e"/>
<use x="413.292969" xlink:href="#j"/>
</g>
</g>
<path d="m1360.6 723 5.0674-2.0664q2.2223-0.90622 1.3161-3.1286l-2.9235-7.1693q-0.90622-2.2223-3.1286-1.3161l-5.0674 2.0664q-2.2223 0.90622-1.3161 3.1286l2.9235 7.1693q0.90622 2.2223 3.1286 1.3161z" clip-path="url(#a)" fill="#fff" stroke="#fff"/>
<g clip-path="url(#a)">
<g transform="translate(1359 719.23) rotate(-22.185) scale(.08 -.08)">
<use xlink:href="#m"/>
</g>
</g>
<path d="m1568.1 719.41 3.9358 3.2099q1.8599 1.5168 3.3767-0.34304l4.8934-6.0001q1.5168-1.8599-0.34304-3.3767l-3.9358-3.2099q-1.8599-1.5168-3.3767 0.34304l-4.8934 6.0001q-1.5168 1.8599 0.34304 3.3767z" clip-path="url(#a)" fill="#fff" stroke="#fff"/>
<g clip-path="url(#a)">
<g transform="translate(1570.7 716.26) rotate(39.199) scale(.08 -.08)">
<use xlink:href="#s"/>
</g>
</g>
<path d="m1496.7 713.23v5.855q0 2.4 2.4 2.4h7.7425q2.4 0 2.4-2.4v-5.855q0-2.4-2.4-2.4h-7.7425q-2.4 0-2.4 2.4z" clip-path="url(#a)" fill="#fff" stroke="#fff"/>
<g clip-path="url(#a)">
<g transform="translate(1500.7 713.23) rotate(90) scale(.08 -.08)">
<use xlink:href="#ah"/>
</g>
</g>
<path d="m1519.7 715.68 2.3306 5.7021q0.90801 2.2216 3.1296 1.3136l7.167-2.9293q2.2216-0.90801 1.3136-3.1296l-2.3306-5.7021q-0.90801-2.2216-3.1296-1.3136l-7.167 2.9293q-2.2216 0.90801-1.3136 3.1296z" clip-path="url(#a)" fill="#fff" stroke="#fff"/>
<g clip-path="url(#a)">
<defs>
<path id="as" d="m19.672 64.797v-56.688h11.922q15.094 0 22.094 6.8281 7 6.8438 7 21.594 0 14.641-7 21.453t-22.094 6.8125zm-9.8594 8.1094h20.266q21.188 0 31.094-8.8125 9.9219-8.8125 9.9219-27.562 0-18.859-9.9688-27.703-9.9531-8.8281-31.047-8.8281h-20.266z"/>
</defs>
<g transform="translate(1523.4 714.14) rotate(67.769) scale(.08 -.08)">
<use xlink:href="#as"/>
</g>
</g>
<path d="m1543.5 717.74 3.8986 4.7693q1.5189 1.8582 3.3771 0.33924l5.9946-4.9002q1.8582-1.5189 0.33924-3.3771l-3.8986-4.7693q-1.5189-1.8582-3.3771-0.33924l-5.9946 4.9002q-1.8582 1.5189-0.33924 3.3771z" clip-path="url(#a)" fill="#fff" stroke="#fff"/>
<g clip-path="url(#a)">
<g transform="translate(1546.7 715.17) rotate(50.736) scale(.08 -.08)">
<use xlink:href="#as"/>
</g>
</g>
<path d="m1638.9 814.5v35.285q0 2.4 2.4 2.4h7.7425q2.4 0 2.4-2.4v-35.285q0-2.4-2.4-2.4h-7.7425q-2.4 0-2.4 2.4z" clip-path="url(#a)" fill="#fff" stroke="#fff"/>
<g clip-path="url(#a)">
<g transform="translate(1642.9 814.5) rotate(90) scale(.08 -.08)">
<use xlink:href="#l"/>
<use x="60.818359" xlink:href="#d"/>
<use x="122.341797" xlink:href="#h"/>
<use x="163.439453" xlink:href="#k"/>
<use x="260.851562" xlink:href="#i"/>
<use x="288.634766" xlink:href="#g"/>
<use x="352.013672" xlink:href="#e"/>
<use x="413.292969" xlink:href="#j"/>
</g>
</g>
<path d="m1496.7 814.5v35.285q0 2.4 2.4 2.4h7.7425q2.4 0 2.4-2.4v-35.285q0-2.4-2.4-2.4h-7.7425q-2.4 0-2.4 2.4z" clip-path="url(#a)" fill="#fff" stroke="#fff"/>
<g clip-path="url(#a)">
<g transform="translate(1500.7 814.5) rotate(90) scale(.08 -.08)">
<use xlink:href="#l"/>
<use x="60.818359" xlink:href="#d"/>
<use x="122.341797" xlink:href="#h"/>
<use x="163.439453" xlink:href="#k"/>
<use x="260.851562" xlink:href="#i"/>
<use x="288.634766" xlink:href="#g"/>
<use x="352.013672" xlink:href="#e"/>
<use x="413.292969" xlink:href="#j"/>
</g>
</g>
<path d="m1544.1 814.5v35.285q0 2.4 2.4 2.4h7.7425q2.4 0 2.4-2.4v-35.285q0-2.4-2.4-2.4h-7.7425q-2.4 0-2.4 2.4z" clip-path="url(#a)" fill="#fff" stroke="#fff"/>
<g clip-path="url(#a)">
<g transform="translate(1548.1 814.5) rotate(90) scale(.08 -.08)">
<use xlink:href="#l"/>
<use x="60.818359" xlink:href="#d"/>
<use x="122.341797" xlink:href="#h"/>
<use x="163.439453" xlink:href="#k"/>
<use x="260.851562" xlink:href="#i"/>
<use x="288.634766" xlink:href="#g"/>
<use x="352.013672" xlink:href="#e"/>
<use x="413.292969" xlink:href="#j"/>
</g>
</g>
<path d="m1591.5 814.5v35.285q0 2.4 2.4 2.4h7.7425q2.4 0 2.4-2.4v-35.285q0-2.4-2.4-2.4h-7.7425q-2.4 0-2.4 2.4z" clip-path="url(#a)" fill="#fff" stroke="#fff"/>
<g clip-path="url(#a)">
<g transform="translate(1595.5 814.5) rotate(90) scale(.08 -.08)">
<use xlink:href="#l"/>
<use x="60.818359" xlink:href="#d"/>
<use x="122.341797" xlink:href="#h"/>
<use x="163.439453" xlink:href="#k"/>
<use x="260.851562" xlink:href="#i"/>
<use x="288.634766" xlink:href="#g"/>
<use x="352.013672" xlink:href="#e"/>
<use x="413.292969" xlink:href="#j"/>
</g>
</g>
<defs>
<path id="b" d="m0 8.6603c2.2967 0 4.4997-0.9125 6.1237-2.5365 1.624-1.624 2.5365-3.827 2.5365-6.1237s-0.9125-4.4997-2.5365-6.1237c-1.624-1.624-3.827-2.5365-6.1237-2.5365s-4.4997 0.9125-6.1237 2.5365c-1.624 1.624-2.5365 3.827-2.5365 6.1237s0.9125 4.4997 2.5365 6.1237c1.624 1.624 3.827 2.5365 6.1237 2.5365z"/>
</defs>
<g clip-path="url(#a)">
<use x="80.772748" y="890.134215" fill="#ffffff" stroke="#ffffff" xlink:href="#b"/>
</g>
<g clip-path="url(#a)">
<use x="128.178272" y="890.134215" fill="#ffffff" stroke="#ffffff" xlink:href="#b"/>
</g>
<g clip-path="url(#a)">
<use x="175.583797" y="890.134215" fill="#ffffff" stroke="#ffffff" xlink:href="#b"/>
</g>
<g clip-path="url(#a)">
<use x="222.989322" y="890.134215" fill="#ffffff" stroke="#ffffff" xlink:href="#b"/>
</g>
<g clip-path="url(#a)">
<use x="270.394846" y="890.134215" fill="#ffffff" stroke="#ffffff" xlink:href="#b"/>
</g>
<g clip-path="url(#a)">
<use x="317.800371" y="890.134215" fill="#ffffff" stroke="#ffffff" xlink:href="#b"/>
</g>
<g clip-path="url(#a)">
<use x="365.205896" y="890.134215" fill="#ffffff" stroke="#ffffff" xlink:href="#b"/>
</g>
<g clip-path="url(#a)">
<use x="412.61142" y="890.134215" fill="#ffffff" stroke="#ffffff" xlink:href="#b"/>
</g>
<g clip-path="url(#a)">
<use x="460.016945" y="890.134215" fill="#ffffff" stroke="#ffffff" xlink:href="#b"/>
</g>
<g clip-path="url(#a)">
<use x="507.422469" y="890.134215" fill="#ffffff" stroke="#ffffff" xlink:href="#b"/>
</g>
<g clip-path="url(#a)">
<use x="554.827994" y="890.134215" fill="#ffffff" stroke="#ffffff" xlink:href="#b"/>
</g>
<g clip-path="url(#a)">
<use x="602.233519" y="890.134215" fill="#ffffff" stroke="#ffffff" xlink:href="#b"/>
</g>
<g clip-path="url(#a)">
<use x="649.639043" y="890.134215" fill="#ffffff" stroke="#ffffff" xlink:href="#b"/>
</g>
<g clip-path="url(#a)">
<use x="697.044568" y="890.134215" fill="#ffffff" stroke="#ffffff" xlink:href="#b"/>
</g>
<g clip-path="url(#a)">
<use x="744.450093" y="890.134215" fill="#ffffff" stroke="#ffffff" xlink:href="#b"/>
</g>
<g clip-path="url(#a)">
<use x="791.855617" y="890.134215" fill="#ffffff" stroke="#ffffff" xlink:href="#b"/>
</g>
<g clip-path="url(#a)">
<use x="839.261142" y="890.134215" fill="#ffffff" stroke="#ffffff" xlink:href="#b"/>
</g>
<g clip-path="url(#a)">
<use x="886.666667" y="890.134215" fill="#ffffff" stroke="#ffffff" xlink:href="#b"/>
</g>
<g clip-path="url(#a)">
<use x="934.072191" y="890.134215" fill="#ffffff" stroke="#ffffff" xlink:href="#b"/>
</g>
<g clip-path="url(#a)">
<use x="981.477716" y="890.134215" fill="#ffffff" stroke="#ffffff" xlink:href="#b"/>
</g>
<g clip-path="url(#a)">
<use x="1028.883241" y="890.134215" fill="#ffffff" stroke="#ffffff" xlink:href="#b"/>
</g>
<g clip-path="url(#a)">
<use x="1076.288765" y="890.134215" fill="#ffffff" stroke="#ffffff" xlink:href="#b"/>
</g>
<g clip-path="url(#a)">
<use x="1123.69429" y="890.134215" fill="#ffffff" stroke="#ffffff" xlink:href="#b"/>
</g>
<g clip-path="url(#a)">
<use x="1171.099815" y="890.134215" fill="#ffffff" stroke="#ffffff" xlink:href="#b"/>
</g>
<g clip-path="url(#a)">
<use x="1218.505339" y="890.134215" fill="#ffffff" stroke="#ffffff" xlink:href="#b"/>
</g>
<g clip-path="url(#a)">
<use x="1265.910864" y="890.134215" fill="#ffffff" stroke="#ffffff" xlink:href="#b"/>
</g>
<g clip-path="url(#a)">
<use x="1313.316389" y="890.134215" fill="#ffffff" stroke="#ffffff" xlink:href="#b"/>
</g>
<g clip-path="url(#a)">
<use x="1360.721913" y="890.134215" fill="#ffffff" stroke="#ffffff" xlink:href="#b"/>
</g>
<g clip-path="url(#a)">
<use x="1408.127438" y="890.134215" fill="#ffffff" stroke="#ffffff" xlink:href="#b"/>
</g>
<g clip-path="url(#a)">
<use x="1455.532962" y="890.134215" fill="#ffffff" stroke="#ffffff" xlink:href="#b"/>
</g>
<g clip-path="url(#a)">
<use x="1502.938487" y="890.134215" fill="#ffffff" stroke="#ffffff" xlink:href="#b"/>
</g>
<g clip-path="url(#a)">
<use x="1550.344012" y="890.134215" fill="#ffffff" stroke="#ffffff" xlink:href="#b"/>
</g>
<g clip-path="url(#a)">
<use x="1597.749536" y="890.134215" fill="#ffffff" stroke="#ffffff" xlink:href="#b"/>
</g>
<g clip-path="url(#a)">
<use x="1645.155061" y="890.134215" fill="#ffffff" stroke="#ffffff" xlink:href="#b"/>
</g>
<g clip-path="url(#a)">
<use x="1692.560586" y="890.134215" fill="#ffffff" stroke="#ffffff" xlink:href="#b"/>
</g>
<g clip-path="url(#a)">
<use x="441.40943" y="43.199119" fill="#ffffff" stroke="#ffffff" xlink:href="#b"/>
</g>
<g clip-path="url(#a)">
<use x="519.273851" y="658.161962" fill="#ffffff" stroke="#ffffff" xlink:href="#b"/>
</g>
<g clip-path="url(#a)">
<use x="175.583797" y="774.148088" fill="#ffffff" stroke="#ffffff" xlink:href="#b"/>
</g>
<g clip-path="url(#a)">
<use x="80.772748" y="774.148088" fill="#ffffff" stroke="#ffffff" xlink:href="#b"/>
</g>
<g clip-path="url(#a)">
<use x="128.178272" y="774.148088" fill="#ffffff" stroke="#ffffff" xlink:href="#b"/>
</g>
<g clip-path="url(#a)">
<use x="270.394846" y="774.148088" fill="#ffffff" stroke="#ffffff" xlink:href="#b"/>
</g>
<g clip-path="url(#a)">
<use x="211.13794" y="540.562341" fill="#ffffff" stroke="#ffffff" xlink:href="#b"/>
</g>
<g clip-path="url(#a)">
<use x="317.800371" y="774.148088" fill="#ffffff" stroke="#ffffff" xlink:href="#b"/>
</g>
<g clip-path="url(#a)">
<use x="460.016945" y="774.148088" fill="#ffffff" stroke="#ffffff" xlink:href="#b"/>
</g>
<g clip-path="url(#a)">
<use x="746.223567" y="172.387184" fill="#ffffff" stroke="#ffffff" xlink:href="#b"/>
</g>
<g clip-path="url(#a)">
<use x="886.666667" y="774.148088" fill="#ffffff" stroke="#ffffff" xlink:href="#b"/>
</g>
<g clip-path="url(#a)">
<use x="1692.560586" y="774.148088" fill="#ffffff" stroke="#ffffff" xlink:href="#b"/>
</g>
<g clip-path="url(#a)">
<use x="222.989322" y="774.148088" fill="#ffffff" stroke="#ffffff" xlink:href="#b"/>
</g>
<g clip-path="url(#a)">
<use x="222.989322" y="658.161962" fill="#ffffff" stroke="#ffffff" xlink:href="#b"/>
</g>
<g clip-path="url(#a)">
<use x="365.205896" y="774.148088" fill="#ffffff" stroke="#ffffff" xlink:href="#b"/>
</g>
<g clip-path="url(#a)">
<use x="412.61142" y="774.148088" fill="#ffffff" stroke="#ffffff" xlink:href="#b"/>
</g>
<g clip-path="url(#a)">
<use x="553.642856" y="420.698251" fill="#ffffff" stroke="#ffffff" xlink:href="#b"/>
</g>
<g clip-path="url(#a)">
<use x="507.422469" y="774.148088" fill="#ffffff" stroke="#ffffff" xlink:href="#b"/>
</g>
<g clip-path="url(#a)">
<use x="839.261142" y="774.148088" fill="#ffffff" stroke="#ffffff" xlink:href="#b"/>
</g>
<g clip-path="url(#a)">
<use x="1038.935751" y="298.10303" fill="#ffffff" stroke="#ffffff" xlink:href="#b"/>
</g>
<g clip-path="url(#a)">
<use x="1028.883241" y="774.148088" fill="#ffffff" stroke="#ffffff" xlink:href="#b"/>
</g>
<g clip-path="url(#a)">
<use x="599.863243" y="540.562341" fill="#ffffff" stroke="#ffffff" xlink:href="#b"/>
</g>
<g clip-path="url(#a)">
<use x="649.639043" y="774.148088" fill="#ffffff" stroke="#ffffff" xlink:href="#b"/>
</g>
<g clip-path="url(#a)">
<use x="934.072191" y="774.148088" fill="#ffffff" stroke="#ffffff" xlink:href="#b"/>
</g>
<g clip-path="url(#a)">
<use x="1005.180478" y="658.161962" fill="#ffffff" stroke="#ffffff" xlink:href="#b"/>
</g>
<g clip-path="url(#a)">
<use x="981.477716" y="774.148088" fill="#ffffff" stroke="#ffffff" xlink:href="#b"/>
</g>
<g clip-path="url(#a)">
<use x="1187.607095" y="420.698251" fill="#ffffff" stroke="#ffffff" xlink:href="#b"/>
</g>
<g clip-path="url(#a)">
<use x="1123.69429" y="774.148088" fill="#ffffff" stroke="#ffffff" xlink:href="#b"/>
</g>
<g clip-path="url(#a)">
<use x="554.827994" y="774.148088" fill="#ffffff" stroke="#ffffff" xlink:href="#b"/>
</g>
<g clip-path="url(#a)">
<use x="602.233519" y="774.148088" fill="#ffffff" stroke="#ffffff" xlink:href="#b"/>
</g>
<g clip-path="url(#a)">
<use x="685.193187" y="658.161962" fill="#ffffff" stroke="#ffffff" xlink:href="#b"/>
</g>
<g clip-path="url(#a)">
<use x="791.855617" y="774.148088" fill="#ffffff" stroke="#ffffff" xlink:href="#b"/>
</g>
<g clip-path="url(#a)">
<use x="1076.288765" y="774.148088" fill="#ffffff" stroke="#ffffff" xlink:href="#b"/>
</g>
<g clip-path="url(#a)">
<use x="1206.653958" y="540.562341" fill="#ffffff" stroke="#ffffff" xlink:href="#b"/>
</g>
<g clip-path="url(#a)">
<use x="1218.505339" y="774.148088" fill="#ffffff" stroke="#ffffff" xlink:href="#b"/>
</g>
<g clip-path="url(#a)">
<use x="1343.791369" y="540.562341" fill="#ffffff" stroke="#ffffff" xlink:href="#b"/>
</g>
<g clip-path="url(#a)">
<use x="1360.721913" y="774.148088" fill="#ffffff" stroke="#ffffff" xlink:href="#b"/>
</g>
<g clip-path="url(#a)">
<use x="697.044568" y="774.148088" fill="#ffffff" stroke="#ffffff" xlink:href="#b"/>
</g>
<g clip-path="url(#a)">
<use x="744.450093" y="774.148088" fill="#ffffff" stroke="#ffffff" xlink:href="#b"/>
</g>
<g clip-path="url(#a)">
<use x="1194.802577" y="658.161962" fill="#ffffff" stroke="#ffffff" xlink:href="#b"/>
</g>
<g clip-path="url(#a)">
<use x="1171.099815" y="774.148088" fill="#ffffff" stroke="#ffffff" xlink:href="#b"/>
</g>
<g clip-path="url(#a)">
<use x="1265.910864" y="774.148088" fill="#ffffff" stroke="#ffffff" xlink:href="#b"/>
</g>
<g clip-path="url(#a)">
<use x="1313.316389" y="774.148088" fill="#ffffff" stroke="#ffffff" xlink:href="#b"/>
</g>
<g clip-path="url(#a)">
<use x="1408.127438" y="774.148088" fill="#ffffff" stroke="#ffffff" xlink:href="#b"/>
</g>
<g clip-path="url(#a)">
<use x="1337.019151" y="658.161962" fill="#ffffff" stroke="#ffffff" xlink:href="#b"/>
</g>
<g clip-path="url(#a)">
<use x="1455.532962" y="774.148088" fill="#ffffff" stroke="#ffffff" xlink:href="#b"/>
</g>
<g clip-path="url(#a)">
<use x="1502.938487" y="658.161962" fill="#ffffff" stroke="#ffffff" xlink:href="#b"/>
</g>
<g clip-path="url(#a)">
<use x="1645.155061" y="774.148088" fill="#ffffff" stroke="#ffffff" xlink:href="#b"/>
</g>
<g clip-path="url(#a)">
<use x="1502.938487" y="774.148088" fill="#ffffff" stroke="#ffffff" xlink:href="#b"/>
</g>
<g clip-path="url(#a)">
<use x="1550.344012" y="774.148088" fill="#ffffff" stroke="#ffffff" xlink:href="#b"/>
</g>
<g clip-path="url(#a)">
<use x="1597.749536" y="774.148088" fill="#ffffff" stroke="#ffffff" xlink:href="#b"/>
</g>
<g clip-path="url(#a)">
<defs>
<path id="ao" d="m2.9844 54.688h9.5156l17.094-45.891 17.094 45.891h9.5156l-20.516-54.688h-12.203z"/>
<path id="w" d="m48.781 52.594v-8.4062q-3.8125 2.1094-7.6406 3.1562t-7.7344 1.0469q-8.75 0-13.594-5.5469-4.8281-5.5312-4.8281-15.547t4.8281-15.562q4.8438-5.5312 13.594-5.5312 3.9062 0 7.7344 1.0469t7.6406 3.1562v-8.3125q-3.7656-1.75-7.7969-2.625-4.0156-0.89062-8.5625-0.89062-12.359 0-19.641 7.7656-7.2656 7.7656-7.2656 20.953 0 13.375 7.3438 21.031 7.3594 7.6719 20.156 7.6719 4.1406 0 8.0938-0.85938 3.9531-0.84375 7.6719-2.5469z"/>
</defs>
<g transform="translate(62.292 892.89) scale(.1 -.1)">
<use xlink:href="#s"/>
<use x="63.476562" xlink:href="#d"/>
<use x="125" xlink:href="#h"/>
<use x="166.113281" xlink:href="#ao"/>
<use x="225.292969" xlink:href="#i"/>
<use x="253.076172" xlink:href="#w"/>
<use x="308.056641" xlink:href="#d"/>
</g>
</g>
<g clip-path="url(#a)">
<defs>
<path id="au" d="m4.2031 54.688h8.9844l11.234-42.672 11.172 42.672h10.594l11.234-42.672 11.188 42.672h8.9844l-14.312-54.688h-10.594l-11.766 44.828-11.812-44.828h-10.609z"/>
<path id="u" d="m44.281 53.078v-8.5q-3.7969 1.9531-7.9062 2.9219-4.0938 0.98438-8.5 0.98438-6.6875 0-10.031-2.0469t-3.3438-6.1562q0-3.125 2.3906-4.9062t9.625-3.3906l3.0781-0.6875q9.5625-2.0469 13.594-5.7812t4.0312-10.422q0-7.625-6.0312-12.078-6.0312-4.4375-16.578-4.4375-4.3906 0-9.1562 0.85938t-10.031 2.5625v9.2812q4.9844-2.5938 9.8125-3.8906 4.8281-1.2812 9.5781-1.2812 6.3438 0 9.75 2.1719 3.4219 2.1719 3.4219 6.125 0 3.6562-2.4688 5.6094-2.4531 1.9531-10.812 3.7656l-3.125 0.73438q-8.3438 1.75-12.062 5.3906-3.7031 3.6406-3.7031 9.9844 0 7.7188 5.4688 11.906 5.4688 4.2031 15.531 4.2031 4.9688 0 9.3594-0.73438 4.4062-0.71875 8.1094-2.1875z"/>
</defs>
<g transform="translate(118.42 892.89) scale(.1 -.1)">
<use xlink:href="#au"/>
<use x="81.787109" xlink:href="#e"/>
<use x="143.066406" xlink:href="#u"/>
</g>
</g>
<g clip-path="url(#a)">
<defs>
<path id="ap" d="m45.406 27.984q0 9.7656-4.0312 15.125-4.0156 5.375-11.297 5.375-7.2188 0-11.25-5.375-4.0312-5.3594-4.0312-15.125 0-9.7188 4.0312-15.094t11.25-5.375q7.2812 0 11.297 5.375 4.0312 5.375 4.0312 15.094zm8.9844-21.203q0-13.953-6.2031-20.766-6.1875-6.8125-18.984-6.8125-4.7344 0-8.9375 0.70312t-8.1562 2.1719v8.7344q3.9531-2.1406 7.8125-3.1562 3.8594-1.0312 7.8594-1.0312 8.8438 0 13.234 4.6094t4.3906 13.938v4.4531q-2.7812-4.8438-7.125-7.2344t-10.406-2.3906q-10.047 0-16.203 7.6562-6.1562 7.6719-6.1562 20.328 0 12.688 6.1562 20.344 6.1562 7.6719 16.203 7.6719 6.0625 0 10.406-2.3906t7.125-7.2188v8.2969h8.9844z"/>
</defs>
<g transform="translate(155.11 892.89) scale(.1 -.1)">
<use xlink:href="#e"/>
<use x="61.279297" xlink:href="#ao"/>
<use x="120.458984" xlink:href="#d"/>
<use x="181.982422" xlink:href="#h"/>
<use x="223.095703" xlink:href="#e"/>
<use x="284.375" xlink:href="#ap"/>
<use x="347.851562" xlink:href="#d"/>
</g>
</g>
<g clip-path="url(#a)">
<defs>
<path id="an" d="m11.719 12.406h10.297v-8.4062l-8-15.625h-6.2969l4 15.625z"/>
</defs>
<g transform="translate(221.4 892.89) scale(.1 -.1)">
<use xlink:href="#an"/>
</g>
</g>
<g clip-path="url(#a)">
<defs>
<path id="x" d="m48.688 27.297q0 9.9062-4.0781 15.547t-11.203 5.6406q-7.1406 0-11.219-5.6406t-4.0781-15.547 4.0781-15.547 11.219-5.6406q7.125 0 11.203 5.6406t4.0781 15.547zm-30.578 19.094q2.8438 4.875 7.1562 7.2344 4.3281 2.375 10.328 2.375 9.9688 0 16.188-7.9062 6.2344-7.9062 6.2344-20.797t-6.2344-20.812q-6.2188-7.9062-16.188-7.9062-6 0-10.328 2.375-4.3125 2.375-7.1562 7.25v-8.2031h-9.0312v75.984h9.0312z"/>
<path id="ag" d="m8.5 21.578v33.109h8.9844v-32.766q0-7.7656 3.0156-11.656 3.0312-3.875 9.0938-3.875 7.2656 0 11.484 4.6406 4.2344 4.6406 4.2344 12.656v31h8.9844v-54.688h-8.9844v8.4062q-3.2656-4.9844-7.5938-7.4062-4.3125-2.4219-10.031-2.4219-9.4219 0-14.312 5.8594-4.875 5.8594-4.875 17.141z"/>
<path id="n" d="m18.312 70.219v-15.531h18.5v-6.9844h-18.5v-29.688q0-6.6875 1.8281-8.5938t7.4531-1.9062h9.2188v-7.5156h-9.2188q-10.406 0-14.359 3.875-3.9531 3.8906-3.9531 14.141v29.688h-6.5938v6.9844h6.5938v15.531z"/>
</defs>
<g transform="translate(262.09 892.89) scale(.1 -.1)">
<use xlink:href="#x"/>
<use x="63.476562" xlink:href="#ag"/>
<use x="126.855469" xlink:href="#n"/>
</g>
</g>
<g clip-path="url(#a)">
<defs>
<path id="r" d="m30.609 48.391q-7.2188 0-11.422-5.6406t-4.2031-15.453 4.1719-15.453q4.1875-5.6406 11.453-5.6406 7.1875 0 11.375 5.6562 4.2031 5.6719 4.2031 15.438 0 9.7188-4.2031 15.406-4.1875 5.6875-11.375 5.6875zm0 7.6094q11.719 0 18.406-7.625 6.7031-7.6094 6.7031-21.078 0-13.422-6.7031-21.078-6.6875-7.6406-18.406-7.6406-11.766 0-18.438 7.6406-6.6562 7.6562-6.6562 21.078 0 13.469 6.6562 21.078 6.6719 7.625 18.438 7.625z"/>
<path id="aj" d="m54.891 33.016v-33.016h-8.9844v32.719q0 7.7656-3.0312 11.609-3.0312 3.8594-9.0781 3.8594-7.2812 0-11.484-4.6406-4.2031-4.625-4.2031-12.641v-30.906h-9.0312v75.984h9.0312v-29.797q3.2344 4.9375 7.5938 7.375 4.375 2.4375 10.094 2.4375 9.4219 0 14.25-5.8281 4.8438-5.8281 4.8438-17.156z"/>
</defs>
<g transform="translate(298.71 892.89) scale(.1 -.1)">
<use xlink:href="#g"/>
<use x="63.378906" xlink:href="#r"/>
<use x="124.560547" xlink:href="#n"/>
<use x="163.769531" xlink:href="#aj"/>
<use x="227.148438" xlink:href="#i"/>
<use x="254.931641" xlink:href="#g"/>
<use x="318.310547" xlink:href="#ap"/>
</g>
</g>
<g clip-path="url(#a)">
<defs>
<path id="ai" d="m18.109 8.2031v-29h-9.0312v75.484h9.0312v-8.2969q2.8438 4.875 7.1562 7.2344 4.3281 2.375 10.328 2.375 9.9688 0 16.188-7.9062 6.2344-7.9062 6.2344-20.797t-6.2344-20.812q-6.2188-7.9062-16.188-7.9062-6 0-10.328 2.375-4.3125 2.375-7.1562 7.25zm30.578 19.094q0 9.9062-4.0781 15.547t-11.203 5.6406q-7.1406 0-11.219-5.6406t-4.0781-15.547 4.0781-15.547 11.219-5.6406q7.125 0 11.203 5.6406t4.0781 15.547z"/>
</defs>
<g transform="translate(347.76 892.89) scale(.1 -.1)">
<use xlink:href="#u"/>
<use x="52.099609" xlink:href="#ai"/>
<use x="115.576172" xlink:href="#d"/>
<use x="177.099609" xlink:href="#w"/>
<use x="232.080078" xlink:href="#i"/>
<use x="259.863281" xlink:href="#e"/>
<use x="321.142578" xlink:href="#j"/>
</g>
</g>
<g clip-path="url(#a)">
<g transform="translate(411.02 892.89) scale(.1 -.1)">
<use xlink:href="#an"/>
</g>
</g>
<g clip-path="url(#a)">
<defs>
<path id="y" d="m45.406 46.391v29.594h8.9844v-75.984h-8.9844v8.2031q-2.8281-4.875-7.1562-7.25-4.3125-2.375-10.375-2.375-9.9062 0-16.141 7.9062-6.2188 7.9219-6.2188 20.812t6.2188 20.797q6.2344 7.9062 16.141 7.9062 6.0625 0 10.375-2.375 4.3281-2.3594 7.1562-7.2344zm-30.609-19.094q0-9.9062 4.0781-15.547t11.203-5.6406 11.219 5.6406q4.1094 5.6406 4.1094 15.547t-4.1094 15.547q-4.0938 5.6406-11.219 5.6406t-11.203-5.6406-4.0781-15.547z"/>
</defs>
<g transform="translate(450.61 892.89) scale(.1 -.1)">
<use xlink:href="#e"/>
<use x="61.279297" xlink:href="#g"/>
<use x="124.658203" xlink:href="#y"/>
</g>
</g>
<g clip-path="url(#a)">
<g transform="translate(478.64 892.89) scale(.1 -.1)">
<use xlink:href="#h"/>
<use x="41.082031" xlink:href="#d"/>
<use x="102.605469" xlink:href="#u"/>
<use x="154.705078" xlink:href="#n"/>
<use x="193.914062" xlink:href="#e"/>
<use x="255.193359" xlink:href="#ag"/>
<use x="318.572266" xlink:href="#h"/>
<use x="359.685547" xlink:href="#e"/>
<use x="420.964844" xlink:href="#g"/>
<use x="484.34375" xlink:href="#n"/>
<use x="523.552734" xlink:href="#u"/>
</g>
</g>
<g clip-path="url(#a)">
<g transform="translate(544.67 892.89) scale(.1 -.1)">
<use xlink:href="#n"/>
<use x="39.208984" xlink:href="#aj"/>
<use x="102.587891" xlink:href="#e"/>
<use x="163.867188" xlink:href="#n"/>
</g>
</g>
<g clip-path="url(#a)">
<g transform="translate(594.04 892.89) scale(.1 -.1)">
<use xlink:href="#e"/>
<use x="61.279297" xlink:href="#h"/>
<use x="102.361328" xlink:href="#d"/>
</g>
</g>
<g clip-path="url(#a)">
<g transform="translate(625.6 892.89) scale(.1 -.1)">
<use xlink:href="#u"/>
<use x="52.099609" xlink:href="#ag"/>
<use x="115.478516" xlink:href="#ai"/>
<use x="178.955078" xlink:href="#ai"/>
<use x="242.431641" xlink:href="#r"/>
<use x="303.613281" xlink:href="#u"/>
<use x="355.712891" xlink:href="#d"/>
<use x="417.236328" xlink:href="#y"/>
</g>
</g>
<g clip-path="url(#a)">
<g transform="translate(692.03 892.89) scale(.1 -.1)">
<use xlink:href="#n"/>
<use x="39.208984" xlink:href="#r"/>
</g>
</g>
<g clip-path="url(#a)">
<g transform="translate(738.2 892.89) scale(.1 -.1)">
<use xlink:href="#x"/>
<use x="63.476562" xlink:href="#d"/>
</g>
</g>
<g clip-path="url(#a)">
<defs>
<path id="ax" d="m54.891 54.688-19.781-26.609 20.797-28.078h-10.594l-15.922 21.484-15.906-21.484h-10.609l21.25 28.609-19.438 26.078h10.594l14.5-19.484 14.5 19.484z"/>
</defs>
<g transform="translate(769.01 892.89) scale(.1 -.1)">
<use xlink:href="#d"/>
<use x="61.507812" xlink:href="#ax"/>
<use x="120.671875" xlink:href="#w"/>
<use x="175.652344" xlink:href="#d"/>
<use x="237.175781" xlink:href="#j"/>
<use x="264.958984" xlink:href="#j"/>
<use x="292.742188" xlink:href="#d"/>
<use x="354.265625" xlink:href="#g"/>
<use x="417.644531" xlink:href="#n"/>
</g>
</g>
<g clip-path="url(#a)">
<g transform="translate(822.7 892.89) scale(.1 -.1)">
<use xlink:href="#u"/>
<use x="52.099609" xlink:href="#aj"/>
<use x="115.478516" xlink:href="#r"/>
<use x="176.660156" xlink:href="#ag"/>
<use x="240.039062" xlink:href="#j"/>
<use x="267.822266" xlink:href="#y"/>
</g>
</g>
<g clip-path="url(#a)">
<g transform="translate(880.43 892.89) scale(.1 -.1)">
<use xlink:href="#y"/>
<use x="63.476562" xlink:href="#r"/>
</g>
</g>
<g clip-path="url(#a)">
<g transform="translate(931.01 892.89) scale(.1 -.1)">
<use xlink:href="#e"/>
</g>
</g>
<g clip-path="url(#a)">
<g transform="translate(966.17 892.89) scale(.1 -.1)">
<use xlink:href="#x"/>
<use x="63.476562" xlink:href="#d"/>
<use x="125" xlink:href="#n"/>
<use x="164.208984" xlink:href="#n"/>
<use x="203.417969" xlink:href="#d"/>
<use x="264.941406" xlink:href="#h"/>
</g>
</g>
<g clip-path="url(#a)">
<defs>
<path id="ay" d="m9.4219 54.688h8.9844v-55.672q0-10.438-3.9844-15.125-3.9688-4.6875-12.812-4.6875h-3.4219v7.6094h2.4062q5.125 0 6.9688 2.375 1.8594 2.3594 1.8594 9.8281zm0 21.297h8.9844v-11.391h-8.9844z"/>
</defs>
<g transform="translate(1021.3 892.89) scale(.1 -.1)">
<use xlink:href="#ay"/>
<use x="27.783203" xlink:href="#r"/>
<use x="88.964844" xlink:href="#x"/>
</g>
</g>
<g clip-path="url(#a)">
<defs>
<path id="ak" d="m37.109 75.984v-7.4844h-8.5938q-4.8281 0-6.7188-1.9531-1.875-1.9531-1.875-7.0312v-4.8281h14.797v-6.9844h-14.797v-47.703h-9.0312v47.703h-8.5938v6.9844h8.5938v3.8125q0 9.125 4.25 13.297 4.25 4.1875 13.469 4.1875z"/>
</defs>
<g transform="translate(1071.5 892.89) scale(.1 -.1)">
<use xlink:href="#r"/>
<use x="61.181641" xlink:href="#ak"/>
</g>
</g>
<g clip-path="url(#a)">
<g transform="translate(1104.3 892.89) scale(.1 -.1)">
<use xlink:href="#n"/>
<use x="39.208984" xlink:href="#h"/>
<use x="80.322266" xlink:href="#e"/>
<use x="141.601562" xlink:href="#i"/>
<use x="169.384766" xlink:href="#g"/>
<use x="232.763672" xlink:href="#i"/>
<use x="260.546875" xlink:href="#g"/>
<use x="323.925781" xlink:href="#ap"/>
</g>
</g>
<g clip-path="url(#a)">
<g transform="translate(1159.4 892.89) scale(.1 -.1)">
<use xlink:href="#n"/>
<use x="39.208984" xlink:href="#aj"/>
<use x="102.587891" xlink:href="#d"/>
<use x="164.111328" xlink:href="#i"/>
<use x="191.894531" xlink:href="#h"/>
</g>
</g>
<g clip-path="url(#a)">
<g transform="translate(1196.9 892.89) scale(.1 -.1)">
<use xlink:href="#au"/>
<use x="81.787109" xlink:href="#e"/>
<use x="143.066406" xlink:href="#i"/>
<use x="170.849609" xlink:href="#n"/>
<use x="210.058594" xlink:href="#u"/>
<use x="262.158203" xlink:href="#n"/>
<use x="301.367188" xlink:href="#e"/>
<use x="362.646484" xlink:href="#ak"/>
<use x="397.851562" xlink:href="#ak"/>
</g>
</g>
<g clip-path="url(#a)">
<g transform="translate(1260.9 892.89) scale(.1 -.1)">
<use xlink:href="#n"/>
<use x="39.208984" xlink:href="#r"/>
</g>
</g>
<g clip-path="url(#a)">
<g transform="translate(1307.1 892.89) scale(.1 -.1)">
<use xlink:href="#x"/>
<use x="63.476562" xlink:href="#d"/>
</g>
</g>
<g clip-path="url(#a)">
<g transform="translate(1322.2 892.89) scale(.1 -.1)">
<use xlink:href="#w"/>
<use x="54.980469" xlink:href="#r"/>
<use x="116.162109" xlink:href="#k"/>
<use x="213.574219" xlink:href="#k"/>
<use x="310.986328" xlink:href="#ag"/>
<use x="374.365234" xlink:href="#g"/>
<use x="437.744141" xlink:href="#i"/>
<use x="465.527344" xlink:href="#w"/>
<use x="520.507812" xlink:href="#e"/>
<use x="581.787109" xlink:href="#n"/>
<use x="620.996094" xlink:href="#i"/>
<use x="648.779297" xlink:href="#ao"/>
<use x="707.958984" xlink:href="#d"/>
</g>
</g>
<g clip-path="url(#a)">
<g transform="translate(1398.7 892.89) scale(.1 -.1)">
<use xlink:href="#e"/>
<use x="61.279297" xlink:href="#g"/>
<use x="124.658203" xlink:href="#y"/>
</g>
</g>
<g clip-path="url(#a)">
<defs>
<path id="at" d="m32.172-5.0781q-3.7969-9.7656-7.4219-12.734-3.6094-2.9844-9.6562-2.9844h-7.1875v7.5156h5.2812q3.7031 0 5.75 1.7656 2.0625 1.75 4.5469 8.2969l1.6094 4.0938-22.109 53.812h9.5156l17.094-42.766 17.094 42.766h9.5156z"/>
</defs>
<g transform="translate(1436.6 892.89) scale(.1 -.1)">
<use xlink:href="#ak"/>
<use x="35.205078" xlink:href="#h"/>
<use x="76.318359" xlink:href="#i"/>
<use x="104.101562" xlink:href="#d"/>
<use x="165.625" xlink:href="#g"/>
<use x="229.003906" xlink:href="#y"/>
<use x="292.480469" xlink:href="#j"/>
<use x="320.263672" xlink:href="#at"/>
</g>
</g>
<g clip-path="url(#a)">
<g transform="translate(1501.3 892.89) scale(.1 -.1)">
<use xlink:href="#an"/>
</g>
</g>
<g clip-path="url(#a)">
<g transform="translate(1542.2 892.89) scale(.1 -.1)">
<use xlink:href="#g"/>
<use x="63.378906" xlink:href="#r"/>
<use x="124.560547" xlink:href="#n"/>
</g>
</g>
<g clip-path="url(#a)">
<g transform="translate(1580.3 892.89) scale(.1 -.1)">
<use xlink:href="#k"/>
<use x="97.412109" xlink:href="#d"/>
<use x="158.935547" xlink:href="#h"/>
<use x="200.017578" xlink:href="#d"/>
<use x="261.541016" xlink:href="#j"/>
<use x="289.324219" xlink:href="#at"/>
</g>
</g>
<g clip-path="url(#a)">
<g transform="translate(1625.5 892.89) scale(.1 -.1)">
<use xlink:href="#w"/>
<use x="54.980469" xlink:href="#e"/>
<use x="116.259766" xlink:href="#ai"/>
<use x="179.736328" xlink:href="#e"/>
<use x="241.015625" xlink:href="#x"/>
<use x="304.492188" xlink:href="#j"/>
<use x="332.275391" xlink:href="#d"/>
</g>
</g>
<g clip-path="url(#a)">
<defs>
<path id="f" d="m10.688 12.406h10.312v-12.406h-10.312z"/>
</defs>
<g transform="translate(1691 892.89) scale(.1 -.1)">
<use xlink:href="#f"/>
</g>
</g>
<g clip-path="url(#a)">
<defs>
<path id="c" d="m12.406 8.2969h16.109v55.625l-17.531-3.5156v8.9844l17.438 3.5156h9.8594v-64.609h16.109v-8.2969h-41.984z"/>
</defs>
<g transform="translate(433.46 45.958) scale(.1 -.1)">
<use xlink:href="#c"/>
<use x="63.623047" xlink:href="#f"/>
<use x="95.410156" xlink:href="#c"/>
</g>
</g>
<g clip-path="url(#a)">
<defs>
<path id="q" d="m19.188 8.2969h34.422v-8.2969h-46.281v8.2969q5.6094 5.8125 15.297 15.594 9.7031 9.7969 12.188 12.641 4.7344 5.3125 6.6094 9 1.8906 3.6875 1.8906 7.25 0 5.8125-4.0781 9.4688-4.0781 3.6719-10.625 3.6719-4.6406 0-9.7969-1.6094-5.1406-1.6094-11-4.8906v9.9688q5.9531 2.3906 11.125 3.6094 5.1875 1.2188 9.4844 1.2188 11.328 0 18.062-5.6719 6.7344-5.6562 6.7344-15.125 0-4.5-1.6875-8.5312-1.6719-4.0156-6.125-9.4844-1.2188-1.4219-7.7656-8.1875-6.5312-6.7656-18.453-18.922z"/>
</defs>
<g transform="translate(511.32 660.92) scale(.1 -.1)">
<use xlink:href="#c"/>
<use x="63.623047" xlink:href="#f"/>
<use x="95.410156" xlink:href="#q"/>
</g>
</g>
<g clip-path="url(#a)">
<defs>
<path id="p" d="m40.578 39.312q7.0781-1.5156 11.047-6.3125 3.9844-4.7812 3.9844-11.812 0-10.781-7.4219-16.703-7.4219-5.9062-21.094-5.9062-4.5781 0-9.4375 0.90625t-10.031 2.7188v9.5156q4.0938-2.3906 8.9688-3.6094 4.8906-1.2188 10.219-1.2188 9.2656 0 14.125 3.6562t4.8594 10.641q0 6.4531-4.5156 10.078-4.5156 3.6406-12.562 3.6406h-8.5v8.1094h8.8906q7.2656 0 11.125 2.9062t3.8594 8.375q0 5.6094-3.9844 8.6094-3.9688 3.0156-11.391 3.0156-4.0625 0-8.7031-0.89062-4.6406-0.875-10.203-2.7188v8.7812q5.625 1.5625 10.531 2.3438t9.25 0.78125q11.234 0 17.766-5.1094 6.5469-5.0938 6.5469-13.781 0-6.0625-3.4688-10.234t-9.8594-5.7812z"/>
</defs>
<g transform="translate(167.63 776.91) scale(.1 -.1)">
<use xlink:href="#c"/>
<use x="63.623047" xlink:href="#f"/>
<use x="95.410156" xlink:href="#p"/>
</g>
</g>
<g clip-path="url(#a)">
<defs>
<path id="o" d="m37.797 64.312-24.906-38.922h24.906zm-2.5938 8.5938h12.406v-47.516h10.406v-8.2031h-10.406v-17.188h-9.8125v17.188h-32.906v9.5156z"/>
</defs>
<g transform="translate(72.821 776.91) scale(.1 -.1)">
<use xlink:href="#c"/>
<use x="63.623047" xlink:href="#f"/>
<use x="95.410156" xlink:href="#o"/>
</g>
</g>
<g clip-path="url(#a)">
<defs>
<path id="v" d="m10.797 72.906h38.719v-8.3125h-29.688v-17.859q2.1406 0.73438 4.2812 1.0938 2.1562 0.35938 4.3125 0.35938 12.203 0 19.328-6.6875 7.1406-6.6875 7.1406-18.109 0-11.766-7.3281-18.297-7.3281-6.5156-20.656-6.5156-4.5938 0-9.3594 0.78125-4.75 0.78125-9.8281 2.3438v9.9219q4.3906-2.3906 9.0781-3.5625t9.9062-1.1719q8.4531 0 13.375 4.4375 4.9375 4.4375 4.9375 12.062 0 7.6094-4.9375 12.047-4.9219 4.4531-13.375 4.4531-3.9531 0-7.8906-0.875-3.9219-0.875-8.0156-2.7344z"/>
</defs>
<g transform="translate(120.23 776.91) scale(.1 -.1)">
<use xlink:href="#c"/>
<use x="63.623047" xlink:href="#f"/>
<use x="95.410156" xlink:href="#v"/>
</g>
</g>
<g clip-path="url(#a)">
<defs>
<path id="ae" d="m33.016 40.375q-6.6406 0-10.531-4.5469-3.875-4.5312-3.875-12.438 0-7.8594 3.875-12.438 3.8906-4.5625 10.531-4.5625t10.516 4.5625q3.875 4.5781 3.875 12.438 0 7.9062-3.875 12.438-3.875 4.5469-10.516 4.5469zm19.578 30.922v-8.9844q-3.7188 1.75-7.5 2.6719-3.7812 0.9375-7.5 0.9375-9.7656 0-14.922-6.5938-5.1406-6.5938-5.875-19.922 2.875 4.25 7.2188 6.5156 4.3594 2.2656 9.5781 2.2656 10.984 0 17.359-6.6719 6.375-6.6562 6.375-18.125 0-11.234-6.6406-18.031-6.6406-6.7812-17.672-6.7812-12.656 0-19.344 9.6875-6.6875 9.7031-6.6875 28.109 0 17.281 8.2031 27.562t22.016 10.281q3.7188 0 7.5-0.73438t7.8906-2.1875z"/>
</defs>
<g transform="translate(262.44 776.91) scale(.1 -.1)">
<use xlink:href="#c"/>
<use x="63.623047" xlink:href="#f"/>
<use x="95.410156" xlink:href="#ae"/>
</g>
</g>
<g clip-path="url(#a)">
<defs>
<path id="ad" d="m8.2031 72.906h46.875v-4.2031l-26.469-68.703h-10.297l24.906 64.594h-35.016z"/>
</defs>
<g transform="translate(203.19 543.32) scale(.1 -.1)">
<use xlink:href="#c"/>
<use x="63.623047" xlink:href="#f"/>
<use x="95.410156" xlink:href="#ad"/>
</g>
</g>
<g clip-path="url(#a)">
<defs>
<path id="ac" d="m31.781 34.625q-7.0312 0-11.062-3.7656-4.0156-3.7656-4.0156-10.344 0-6.5938 4.0156-10.359 4.0312-3.7656 11.062-3.7656t11.078 3.7812q4.0625 3.7969 4.0625 10.344 0 6.5781-4.0312 10.344-4.0156 3.7656-11.109 3.7656zm-9.8594 4.1875q-6.3438 1.5625-9.8906 5.9062-3.5312 4.3594-3.5312 10.609 0 8.7344 6.2188 13.812 6.2344 5.0781 17.062 5.0781 10.891 0 17.094-5.0781t6.2031-13.812q0-6.25-3.5469-10.609-3.5312-4.3438-9.8281-5.9062 7.125-1.6562 11.094-6.5 3.9844-4.8281 3.9844-11.797 0-10.609-6.4688-16.281-6.4688-5.6562-18.531-5.6562-12.047 0-18.531 5.6562-6.4688 5.6719-6.4688 16.281 0 6.9688 4 11.797 4.0156 4.8438 11.141 6.5zm-3.6094 15.578q0-5.6562 3.5312-8.8281 3.5469-3.1719 9.9375-3.1719 6.3594 0 9.9375 3.1719 3.5938 3.1719 3.5938 8.8281 0 5.6719-3.5938 8.8438-3.5781 3.1719-9.9375 3.1719-6.3906 0-9.9375-3.1719-3.5312-3.1719-3.5312-8.8438z"/>
</defs>
<g transform="translate(309.85 776.91) scale(.1 -.1)">
<use xlink:href="#c"/>
<use x="63.623047" xlink:href="#f"/>
<use x="95.410156" xlink:href="#ac"/>
</g>
</g>
<g clip-path="url(#a)">
<defs>
<path id="ab" d="m10.984 1.5156v8.9844q3.7188-1.7656 7.5156-2.6875 3.8125-0.92188 7.4844-0.92188 9.7656 0 14.906 6.5625 5.1562 6.5625 5.8906 19.953-2.8281-4.2031-7.1875-6.4531-4.3438-2.25-9.6094-2.25-10.938 0-17.312 6.6094-6.375 6.625-6.375 18.109 0 11.219 6.6406 18 6.6406 6.7969 17.672 6.7969 12.656 0 19.312-9.7031 6.6719-9.6875 6.6719-28.141 0-17.234-8.1875-27.516-8.1719-10.281-21.984-10.281-3.7188 0-7.5312 0.73438-3.7969 0.73438-7.9062 2.2031zm19.625 30.906q6.6406 0 10.516 4.5312 3.8906 4.5469 3.8906 12.469 0 7.8594-3.8906 12.422-3.875 4.5625-10.516 4.5625t-10.516-4.5625-3.875-12.422q0-7.9219 3.875-12.469 3.875-4.5312 10.516-4.5312z"/>
</defs>
<g transform="translate(452.07 776.91) scale(.1 -.1)">
<use xlink:href="#c"/>
<use x="63.623047" xlink:href="#f"/>
<use x="95.410156" xlink:href="#ab"/>
</g>
</g>
<g clip-path="url(#a)">
<defs>
<path id="af" d="m31.781 66.406q-7.6094 0-11.453-7.5-3.8281-7.4844-3.8281-22.531 0-14.984 3.8281-22.484 3.8438-7.5 11.453-7.5 7.6719 0 11.5 7.5 3.8438 7.5 3.8438 22.484 0 15.047-3.8438 22.531-3.8281 7.5-11.5 7.5zm0 7.8125q12.266 0 18.734-9.7031 6.4688-9.6875 6.4688-28.141 0-18.406-6.4688-28.109-6.4688-9.6875-18.734-9.6875-12.25 0-18.719 9.6875-6.4688 9.7031-6.4688 28.109 0 18.453 6.4688 28.141 6.4688 9.7031 18.719 9.7031z"/>
</defs>
<g transform="translate(735.09 175.15) scale(.1 -.1)">
<use xlink:href="#c"/>
<use x="63.623047" xlink:href="#f"/>
<use x="95.410156" xlink:href="#c"/>
<use x="159.033203" xlink:href="#af"/>
</g>
</g>
<g clip-path="url(#a)">
<g transform="translate(875.53 776.91) scale(.1 -.1)">
<use xlink:href="#c"/>
<use x="63.623047" xlink:href="#f"/>
<use x="95.410156" xlink:href="#c"/>
<use x="159.033203" xlink:href="#c"/>
</g>
</g>
<g clip-path="url(#a)">
<g transform="translate(1681.4 776.91) scale(.1 -.1)">
<use xlink:href="#c"/>
<use x="63.623047" xlink:href="#f"/>
<use x="95.410156" xlink:href="#c"/>
<use x="159.033203" xlink:href="#q"/>
</g>
</g>
<g clip-path="url(#a)">
<g transform="translate(211.86 776.91) scale(.1 -.1)">
<use xlink:href="#c"/>
<use x="63.623047" xlink:href="#f"/>
<use x="95.410156" xlink:href="#c"/>
<use x="159.033203" xlink:href="#p"/>
</g>
</g>
<g clip-path="url(#a)">
<g transform="translate(211.86 660.92) scale(.1 -.1)">
<use xlink:href="#c"/>
<use x="63.623047" xlink:href="#f"/>
<use x="95.410156" xlink:href="#c"/>
<use x="159.033203" xlink:href="#o"/>
</g>
</g>
<g clip-path="url(#a)">
<g transform="translate(354.07 776.91) scale(.1 -.1)">
<use xlink:href="#c"/>
<use x="63.623047" xlink:href="#f"/>
<use x="95.410156" xlink:href="#c"/>
<use x="159.033203" xlink:href="#v"/>
</g>
</g>
<g clip-path="url(#a)">
<g transform="translate(401.48 776.91) scale(.1 -.1)">
<use xlink:href="#c"/>
<use x="63.623047" xlink:href="#f"/>
<use x="95.410156" xlink:href="#c"/>
<use x="159.033203" xlink:href="#ae"/>
</g>
</g>
<g clip-path="url(#a)">
<g transform="translate(542.51 423.46) scale(.1 -.1)">
<use xlink:href="#c"/>
<use x="63.623047" xlink:href="#f"/>
<use x="95.410156" xlink:href="#c"/>
<use x="159.033203" xlink:href="#ad"/>
</g>
</g>
<g clip-path="url(#a)">
<g transform="translate(496.29 776.91) scale(.1 -.1)">
<use xlink:href="#c"/>
<use x="63.623047" xlink:href="#f"/>
<use x="95.410156" xlink:href="#c"/>
<use x="159.033203" xlink:href="#ac"/>
</g>
</g>
<g clip-path="url(#a)">
<g transform="translate(828.13 776.91) scale(.1 -.1)">
<use xlink:href="#c"/>
<use x="63.623047" xlink:href="#f"/>
<use x="95.410156" xlink:href="#c"/>
<use x="159.033203" xlink:href="#ab"/>
</g>
</g>
<g clip-path="url(#a)">
<g transform="translate(1027.8 300.86) scale(.1 -.1)">
<use xlink:href="#c"/>
<use x="63.623047" xlink:href="#f"/>
<use x="95.410156" xlink:href="#q"/>
<use x="159.033203" xlink:href="#af"/>
</g>
</g>
<g clip-path="url(#a)">
<g transform="translate(1017.8 776.91) scale(.1 -.1)">
<use xlink:href="#c"/>
<use x="63.623047" xlink:href="#f"/>
<use x="95.410156" xlink:href="#q"/>
<use x="159.033203" xlink:href="#c"/>
</g>
</g>
<g clip-path="url(#a)">
<g transform="translate(588.73 543.32) scale(.1 -.1)">
<use xlink:href="#c"/>
<use x="63.623047" xlink:href="#f"/>
<use x="95.410156" xlink:href="#q"/>
<use x="159.033203" xlink:href="#q"/>
</g>
</g>
<g clip-path="url(#a)">
<g transform="translate(638.51 776.91) scale(.1 -.1)">
<use xlink:href="#c"/>
<use x="63.623047" xlink:href="#f"/>
<use x="95.410156" xlink:href="#q"/>
<use x="159.033203" xlink:href="#p"/>
</g>
</g>
<g clip-path="url(#a)">
<g transform="translate(922.94 776.91) scale(.1 -.1)">
<use xlink:href="#c"/>
<use x="63.623047" xlink:href="#f"/>
<use x="95.410156" xlink:href="#q"/>
<use x="159.033203" xlink:href="#o"/>
</g>
</g>
<g clip-path="url(#a)">
<g transform="translate(994.05 660.92) scale(.1 -.1)">
<use xlink:href="#c"/>
<use x="63.623047" xlink:href="#f"/>
<use x="95.410156" xlink:href="#q"/>
<use x="159.033203" xlink:href="#v"/>
</g>
</g>
<g clip-path="url(#a)">
<g transform="translate(970.34 776.91) scale(.1 -.1)">
<use xlink:href="#c"/>
<use x="63.623047" xlink:href="#f"/>
<use x="95.410156" xlink:href="#q"/>
<use x="159.033203" xlink:href="#ae"/>
</g>
</g>
<g clip-path="url(#a)">
<g transform="translate(1176.5 423.46) scale(.1 -.1)">
<use xlink:href="#c"/>
<use x="63.623047" xlink:href="#f"/>
<use x="95.410156" xlink:href="#q"/>
<use x="159.033203" xlink:href="#ad"/>
</g>
</g>
<g clip-path="url(#a)">
<g transform="translate(1112.6 776.91) scale(.1 -.1)">
<use xlink:href="#c"/>
<use x="63.623047" xlink:href="#f"/>
<use x="95.410156" xlink:href="#q"/>
<use x="159.033203" xlink:href="#ac"/>
</g>
</g>
<g clip-path="url(#a)">
<g transform="translate(543.7 776.91) scale(.1 -.1)">
<use xlink:href="#c"/>
<use x="63.623047" xlink:href="#f"/>
<use x="95.410156" xlink:href="#q"/>
<use x="159.033203" xlink:href="#ab"/>
</g>
</g>
<g clip-path="url(#a)">
<g transform="translate(591.1 776.91) scale(.1 -.1)">
<use xlink:href="#c"/>
<use x="63.623047" xlink:href="#f"/>
<use x="95.410156" xlink:href="#p"/>
<use x="159.033203" xlink:href="#af"/>
</g>
</g>
<g clip-path="url(#a)">
<g transform="translate(674.06 660.92) scale(.1 -.1)">
<use xlink:href="#c"/>
<use x="63.623047" xlink:href="#f"/>
<use x="95.410156" xlink:href="#p"/>
<use x="159.033203" xlink:href="#c"/>
</g>
</g>
<g clip-path="url(#a)">
<g transform="translate(780.72 776.91) scale(.1 -.1)">
<use xlink:href="#c"/>
<use x="63.623047" xlink:href="#f"/>
<use x="95.410156" xlink:href="#p"/>
<use x="159.033203" xlink:href="#q"/>
</g>
</g>
<g clip-path="url(#a)">
<g transform="translate(1065.2 776.91) scale(.1 -.1)">
<use xlink:href="#c"/>
<use x="63.623047" xlink:href="#f"/>
<use x="95.410156" xlink:href="#p"/>
<use x="159.033203" xlink:href="#p"/>
</g>
</g>
<g clip-path="url(#a)">
<g transform="translate(1195.5 543.32) scale(.1 -.1)">
<use xlink:href="#c"/>
<use x="63.623047" xlink:href="#f"/>
<use x="95.410156" xlink:href="#p"/>
<use x="159.033203" xlink:href="#o"/>
</g>
</g>
<g clip-path="url(#a)">
<g transform="translate(1207.4 776.91) scale(.1 -.1)">
<use xlink:href="#c"/>
<use x="63.623047" xlink:href="#f"/>
<use x="95.410156" xlink:href="#p"/>
<use x="159.033203" xlink:href="#v"/>
</g>
</g>
<g clip-path="url(#a)">
<g transform="translate(1332.7 543.32) scale(.1 -.1)">
<use xlink:href="#c"/>
<use x="63.623047" xlink:href="#f"/>
<use x="95.410156" xlink:href="#p"/>
<use x="159.033203" xlink:href="#ae"/>
</g>
</g>
<g clip-path="url(#a)">
<g transform="translate(1349.6 776.91) scale(.1 -.1)">
<use xlink:href="#c"/>
<use x="63.623047" xlink:href="#f"/>
<use x="95.410156" xlink:href="#p"/>
<use x="159.033203" xlink:href="#ad"/>
</g>
</g>
<g clip-path="url(#a)">
<g transform="translate(685.91 776.91) scale(.1 -.1)">
<use xlink:href="#c"/>
<use x="63.623047" xlink:href="#f"/>
<use x="95.410156" xlink:href="#p"/>
<use x="159.033203" xlink:href="#ac"/>
</g>
</g>
<g clip-path="url(#a)">
<g transform="translate(733.32 776.91) scale(.1 -.1)">
<use xlink:href="#c"/>
<use x="63.623047" xlink:href="#f"/>
<use x="95.410156" xlink:href="#p"/>
<use x="159.033203" xlink:href="#ab"/>
</g>
</g>
<g clip-path="url(#a)">
<g transform="translate(1183.7 660.92) scale(.1 -.1)">
<use xlink:href="#c"/>
<use x="63.623047" xlink:href="#f"/>
<use x="95.410156" xlink:href="#o"/>
<use x="159.033203" xlink:href="#af"/>
</g>
</g>
<g clip-path="url(#a)">
<g transform="translate(1160 776.91) scale(.1 -.1)">
<use xlink:href="#c"/>
<use x="63.623047" xlink:href="#f"/>
<use x="95.410156" xlink:href="#o"/>
<use x="159.033203" xlink:href="#c"/>
</g>
</g>
<g clip-path="url(#a)">
<g transform="translate(1254.8 776.91) scale(.1 -.1)">
<use xlink:href="#c"/>
<use x="63.623047" xlink:href="#f"/>
<use x="95.410156" xlink:href="#o"/>
<use x="159.033203" xlink:href="#q"/>
</g>
</g>
<g clip-path="url(#a)">
<g transform="translate(1302.2 776.91) scale(.1 -.1)">
<use xlink:href="#c"/>
<use x="63.623047" xlink:href="#f"/>
<use x="95.410156" xlink:href="#o"/>
<use x="159.033203" xlink:href="#p"/>
</g>
</g>
<g clip-path="url(#a)">
<g transform="translate(1397 776.91) scale(.1 -.1)">
<use xlink:href="#c"/>
<use x="63.623047" xlink:href="#f"/>
<use x="95.410156" xlink:href="#o"/>
<use x="159.033203" xlink:href="#o"/>
</g>
</g>
<g clip-path="url(#a)">
<g transform="translate(1325.9 660.92) scale(.1 -.1)">
<use xlink:href="#c"/>
<use x="63.623047" xlink:href="#f"/>
<use x="95.410156" xlink:href="#o"/>
<use x="159.033203" xlink:href="#v"/>
</g>
</g>
<g clip-path="url(#a)">
<g transform="translate(1444.4 776.91) scale(.1 -.1)">
<use xlink:href="#c"/>
<use x="63.623047" xlink:href="#f"/>
<use x="95.410156" xlink:href="#o"/>
<use x="159.033203" xlink:href="#ae"/>
</g>
</g>
<g clip-path="url(#a)">
<g transform="translate(1491.8 660.92) scale(.1 -.1)">
<use xlink:href="#c"/>
<use x="63.623047" xlink:href="#f"/>
<use x="95.410156" xlink:href="#o"/>
<use x="159.033203" xlink:href="#ad"/>
</g>
</g>
<g clip-path="url(#a)">
<g transform="translate(1634 776.91) scale(.1 -.1)">
<use xlink:href="#c"/>
<use x="63.623047" xlink:href="#f"/>
<use x="95.410156" xlink:href="#o"/>
<use x="159.033203" xlink:href="#ac"/>
</g>
</g>
<g clip-path="url(#a)">
<g transform="translate(1491.8 776.91) scale(.1 -.1)">
<use xlink:href="#c"/>
<use x="63.623047" xlink:href="#f"/>
<use x="95.410156" xlink:href="#o"/>
<use x="159.033203" xlink:href="#ab"/>
</g>
</g>
<g clip-path="url(#a)">
<g transform="translate(1539.2 776.91) scale(.1 -.1)">
<use xlink:href="#c"/>
<use x="63.623047" xlink:href="#f"/>
<use x="95.410156" xlink:href="#v"/>
<use x="159.033203" xlink:href="#af"/>
</g>
</g>
<g clip-path="url(#a)">
<g transform="translate(1586.6 776.91) scale(.1 -.1)">
<use xlink:href="#c"/>
<use x="63.623047" xlink:href="#f"/>
<use x="95.410156" xlink:href="#v"/>
<use x="159.033203" xlink:href="#c"/>
</g>
</g>
<defs>
<clipPath id="a">
<rect width="1773.3" height="933.33"/>
</clipPath>
</defs>
</svg>
