<?xml version="1.0" encoding="UTF-8"?>
<!DOCTYPE svg  PUBLIC '-//W3C//DTD SVG 1.1//EN'  'http://www.w3.org/Graphics/SVG/1.1/DTD/svg11.dtd'>
<svg width="1165.3pt" height="613.33pt" version="1.1" viewBox="0 0 1165.3 613.33" xmlns="http://www.w3.org/2000/svg" xmlns:xlink="http://www.w3.org/1999/xlink">
<defs>
<style type="text/css">*{stroke-linecap:butt;stroke-linejoin:round;}</style>
</defs>
<path d="m0 613.33h1165.3v-613.33h-1165.3z" fill="#fff"/>
<g fill="none" stroke="#000">
<path d="m447.57 28.653-21.325 247.83" clip-path="url(#a)"/>
<path d="m447.57 28.653-9.2919 479.88" clip-path="url(#a)"/>
<path d="m447.57 28.653 30.617 84.814" clip-path="url(#a)"/>
<path d="m426.24 276.49-84.229 232.05" clip-path="url(#a)"/>
<path d="m426.24 276.49-288.79 78.693" clip-path="url(#a)"/>
<path d="m426.24 276.49-180.49 232.05" clip-path="url(#a)"/>
<path d="m426.24 276.49-132.36 232.05" clip-path="url(#a)"/>
<path d="m426.24 276.49 685.86 232.05" clip-path="url(#a)"/>
<path d="m342.01 508.53v76.147" clip-path="url(#a)"/>
<path d="m137.46 355.18 60.164 153.35" clip-path="url(#a)"/>
<path d="m137.46 355.18-84.229 153.35" clip-path="url(#a)"/>
<path d="m137.46 355.18 12.033 77.206" clip-path="url(#a)"/>
<path d="m137.46 355.18 12.033 153.35" clip-path="url(#a)"/>
<path d="m197.62 508.53v76.147" clip-path="url(#a)"/>
<path d="m245.75 508.53v76.147" clip-path="url(#a)"/>
<path d="m293.88 508.53v76.147" clip-path="url(#a)"/>
<path d="m438.27 508.53v76.147" clip-path="url(#a)"/>
<path d="m478.18 113.47-280.56 395.07" clip-path="url(#a)" stroke-dasharray="3.7,1.6"/>
<path d="m478.18 113.47 8.2224 395.07" clip-path="url(#a)"/>
<path d="m478.18 113.47-88.039 395.07" clip-path="url(#a)"/>
<path d="m478.18 113.47 159.63 82.535" clip-path="url(#a)"/>
<path d="m478.18 113.47 200.75 395.07" clip-path="url(#a)"/>
<path d="m486.4 508.53v76.147" clip-path="url(#a)"/>
<path d="m1112.1 508.53v76.147" clip-path="url(#a)"/>
<path d="m53.227 508.53v76.147" clip-path="url(#a)"/>
<path d="m149.49 432.39 48.131 76.147" clip-path="url(#a)" stroke-dasharray="3.7,1.6"/>
<path d="m149.49 432.39-48.131 76.147" clip-path="url(#a)"/>
<path d="m101.36 508.53v76.147" clip-path="url(#a)"/>
<path d="m149.49 508.53v76.147" clip-path="url(#a)"/>
<path d="m390.14 508.53v76.147" clip-path="url(#a)"/>
<path d="m637.82 196-7.0191 312.53" clip-path="url(#a)"/>
<path d="m637.82 196-103.28 312.53" clip-path="url(#a)"/>
<path d="m637.82 196-55.15 312.53" clip-path="url(#a)"/>
<path d="m637.82 196 165.45 80.486" clip-path="url(#a)"/>
<path d="m630.8 508.53v76.147" clip-path="url(#a)"/>
<path d="m678.93 508.53v76.147" clip-path="url(#a)"/>
<path d="m534.54 508.53v76.147" clip-path="url(#a)"/>
<path d="m582.67 508.53v76.147" clip-path="url(#a)"/>
<path d="m803.27 276.49-28.076 232.05" clip-path="url(#a)"/>
<path d="m803.27 276.49-76.207 232.05" clip-path="url(#a)"/>
<path d="m803.27 276.49 104.28 78.693" clip-path="url(#a)"/>
<path d="m775.19 508.53v76.147" clip-path="url(#a)"/>
<path d="m727.06 508.53v76.147" clip-path="url(#a)"/>
<path d="m907.55 355.18 12.033 153.35" clip-path="url(#a)"/>
<path d="m907.55 355.18-84.229 153.35" clip-path="url(#a)"/>
<path d="m907.55 355.18-36.098 153.35" clip-path="url(#a)"/>
<path d="m907.55 355.18 108.29 77.206" clip-path="url(#a)"/>
<path d="m919.58 508.53v76.147" clip-path="url(#a)"/>
<path d="m823.32 508.53v76.147" clip-path="url(#a)"/>
<path d="m871.45 508.53v76.147" clip-path="url(#a)"/>
<path d="m1015.8 432.39 48.131 76.147" clip-path="url(#a)"/>
<path d="m1015.8 432.39-48.131 76.147" clip-path="url(#a)"/>
<path d="m1015.8 432.39v76.147" clip-path="url(#a)"/>
<path d="m1064 508.53v76.147" clip-path="url(#a)"/>
<path d="m967.71 508.53v76.147" clip-path="url(#a)"/>
<path d="m1015.8 508.53v76.147" clip-path="url(#a)"/>
</g>
<path d="m442.89 156.1 0.51576-5.9941q0.20574-2.3912-2.1854-2.5969l-7.714-0.66374q-2.3912-0.20574-2.5969 2.1854l-0.51576 5.9941q-0.20574 2.3912 2.1854 2.5969l7.714 0.66374q2.3912 0.20574 2.5969-2.1854z" clip-path="url(#a)" fill="#fff" stroke="#fff"/>
<g clip-path="url(#a)">
<defs>
<path id="ak" d="m9.8125 72.906h9.8594v-29.891h35.844v29.891h9.8594v-72.906h-9.8594v34.719h-35.844v-34.719h-9.8594z"/>
</defs>
<g transform="translate(438.85 155.76) rotate(-85.082) scale(.08 -.08)">
<use xlink:href="#ak"/>
</g>
</g>
<path d="m449.15 270.94 0.086294-4.4567q0.046463-2.3996-2.3531-2.446l-7.741-0.14989q-2.3996-0.046462-2.446 2.3531l-0.086295 4.4567q-0.046462 2.3996 2.3531 2.446l7.741 0.14989q2.3996 0.046463 2.446-2.3531z" clip-path="url(#a)" fill="#fff" stroke="#fff"/>
<g clip-path="url(#a)">
<defs>
<path id="aq" d="m9.8125 72.906h9.8594v-64.609h35.5v-8.2969h-45.359z"/>
</defs>
<g transform="translate(445.08 270.86) rotate(-88.891) scale(.08 -.08)">
<use xlink:href="#aq"/>
</g>
</g>
<path d="m455.95 70.36 2.0428 5.6588q0.81489 2.2574 3.0723 1.4425l7.2825-2.6289q2.2574-0.81489 1.4425-3.0723l-2.0428-5.6588q-0.81489-2.2574-3.0723-1.4425l-7.2825 2.6289q-2.2574 0.81489-1.4425 3.0723z" clip-path="url(#a)" fill="#fff" stroke="#fff"/>
<g clip-path="url(#a)">
<g transform="translate(459.78 68.98) rotate(70.151) scale(.08 -.08)">
<use xlink:href="#ak"/>
</g>
</g>
<path d="m389.16 397.04 1.7329-4.774q0.81888-2.256-1.4371-3.0749l-7.2779-2.6418q-2.256-0.81888-3.0749 1.4371l-1.7329 4.774q-0.81888 2.256 1.4371 3.0749l7.2779 2.6418q2.256 0.81888 3.0749-1.4371z" clip-path="url(#a)" fill="#fff" stroke="#fff"/>
<g clip-path="url(#a)">
<defs>
<path id="z" d="m53.516 70.516v-9.625q-5.6094 2.6875-10.594 4-4.9844 1.3281-9.625 1.3281-8.0469 0-12.422-3.125t-4.375-8.8906q0-4.8438 2.9062-7.3125 2.9062-2.4531 11.016-3.9688l5.9531-1.2188q11.031-2.1094 16.281-7.4062t5.25-14.172q0-10.609-7.1094-16.078-7.0938-5.4688-20.812-5.4688-5.1719 0-11.016 1.1719-5.8281 1.1719-12.078 3.4688v10.156q6-3.3594 11.766-5.0781 5.7656-1.7031 11.328-1.7031 8.4375 0 13.031 3.3125 4.5938 3.3281 4.5938 9.4844 0 5.3594-3.2969 8.3906t-10.812 4.5469l-6.0156 1.1719q-11.031 2.1875-15.969 6.875-4.9219 4.6875-4.9219 13.047 0 9.6719 6.8125 15.234t18.766 5.5625q5.1406 0 10.453-0.9375 5.3281-0.92188 10.891-2.7656z"/>
</defs>
<g transform="translate(385.34 395.65) rotate(-70.05) scale(.08 -.08)">
<use xlink:href="#z"/>
</g>
</g>
<path d="m280.86 322.6 5.28-1.4388q2.3156-0.63098 1.6846-2.9466l-2.0356-7.4701q-0.63098-2.3156-2.9466-1.6846l-5.28 1.4388q-2.3156 0.63098-1.6846 2.9466l2.0356 7.4701q0.63098 2.3156 2.9466 1.6846z" clip-path="url(#a)" fill="#fff" stroke="#fff"/>
<g clip-path="url(#a)">
<defs>
<path id="r" d="m34.188 63.188-13.391-36.281h26.812zm-5.5781 9.7188h11.188l27.781-72.906h-10.25l-6.6406 18.703h-32.859l-6.6406-18.703h-10.406z"/>
</defs>
<g transform="translate(279.79 318.68) rotate(-15.243) scale(.08 -.08)">
<use xlink:href="#r"/>
</g>
</g>
<path d="m339.53 398.18 2.825-3.6319q1.4735-1.8944-0.42089-3.3679l-6.1114-4.7536q-1.8944-1.4735-3.3679 0.42089l-2.825 3.6319q-1.4735 1.8944 0.42089 3.3679l6.1114 4.7536q1.8944 1.4735 3.3679-0.42089z" clip-path="url(#a)" fill="#fff" stroke="#fff"/>
<g clip-path="url(#a)">
<defs>
<path id="t" d="m9.8125 72.906h41.891v-8.3125h-32.031v-21.484h28.906v-8.2969h-28.906v-34.812h-9.8594z"/>
</defs>
<g transform="translate(336.33 395.68) rotate(-52.123) scale(.08 -.08)">
<use xlink:href="#t"/>
</g>
</g>
<path d="m363.98 398.29 3.0521-5.3507q1.1891-2.0847-0.89558-3.2738l-6.7253-3.8362q-2.0847-1.1891-3.2738 0.89558l-3.0521 5.3507q-1.1891 2.0847 0.89558 3.2738l6.7253 3.8362q2.0847 1.1891 3.2738-0.89558z" clip-path="url(#a)" fill="#fff" stroke="#fff"/>
<g clip-path="url(#a)">
<defs>
<path id="al" d="m19.672 64.797v-56.688h11.922q15.094 0 22.094 6.8281 7 6.8438 7 21.594 0 14.641-7 21.453t-22.094 6.8125zm-9.8594 8.1094h20.266q21.188 0 31.094-8.8125 9.9219-8.8125 9.9219-27.562 0-18.859-9.9688-27.703-9.9531-8.8281-31.047-8.8281h-20.266z"/>
</defs>
<g transform="translate(360.45 396.28) rotate(-60.299) scale(.08 -.08)">
<use xlink:href="#al"/>
</g>
</g>
<path d="m764.39 397.51 5.5462 1.8764q2.2734 0.76915 3.0426-1.5043l2.4813-7.3341q0.76915-2.2734-1.5043-3.0426l-5.5462-1.8764q-2.2734-0.76916-3.0426 1.5043l-2.4813 7.3341q-0.76915 2.2734 1.5043 3.0426z" clip-path="url(#a)" fill="#fff" stroke="#fff"/>
<g clip-path="url(#a)">
<defs>
<path id="y" d="m8.6875 72.906h9.9219v-44.297q0-11.719 4.2344-16.875 4.25-5.1406 13.781-5.1406 9.4688 0 13.719 5.1406 4.25 5.1562 4.25 16.875v44.297h9.9062v-45.516q0-14.25-7.0625-21.531-7.0469-7.2812-20.812-7.2812-13.828 0-20.891 7.2812-7.0469 7.2812-7.0469 21.531z"/>
</defs>
<g transform="translate(765.69 393.66) rotate(18.692) scale(.08 -.08)">
<use xlink:href="#y"/>
</g>
</g>
<path d="m335.74 528.96v35.285q0 2.4 2.4 2.4h7.7425q2.4 0 2.4-2.4v-35.285q0-2.4-2.4-2.4h-7.7425q-2.4 0-2.4 2.4z" clip-path="url(#a)" fill="#fff" stroke="#fff"/>
<g clip-path="url(#a)">
<defs>
<path id="k" d="m-0.29688 72.906h61.672v-8.3125h-25.875v-64.594h-9.9062v64.594h-25.891z"/>
<path id="e" d="m56.203 29.594v-4.3906h-41.312q0.59375-9.2812 5.5938-14.141t13.938-4.8594q5.1719 0 10.031 1.2656t9.6562 3.8125v-8.5q-4.8438-2.0469-9.9219-3.125t-10.297-1.0781q-13.094 0-20.734 7.6094-7.6406 7.625-7.6406 20.625 0 13.422 7.25 21.297 7.25 7.8906 19.562 7.8906 11.031 0 17.453-7.1094 6.4219-7.0938 6.4219-19.297zm-8.9844 2.6406q-0.09375 7.3594-4.125 11.75-4.0312 4.4062-10.672 4.4062-7.5156 0-12.031-4.25t-5.2031-11.969z"/>
<path id="g" d="m41.109 46.297q-1.5156 0.875-3.2969 1.2812-1.7812 0.42188-3.9219 0.42188-7.625 0-11.703-4.9531t-4.0781-14.234v-28.812h-9.0312v54.688h9.0312v-8.5q2.8438 4.9844 7.375 7.3906 4.5469 2.4219 11.047 2.4219 0.92188 0 2.0469-0.125 1.125-0.10938 2.4844-0.35938z"/>
<path id="h" d="m52 44.188q3.375 6.0625 8.0625 8.9375t11.031 2.875q8.5469 0 13.188-5.9844 4.6406-5.9688 4.6406-17v-33.016h-9.0312v32.719q0 7.8594-2.7969 11.656-2.7812 3.8125-8.4844 3.8125-6.9844 0-11.047-4.6406-4.0469-4.625-4.0469-12.641v-30.906h-9.0312v32.719q0 7.9062-2.7812 11.688t-8.5938 3.7812q-6.8906 0-10.953-4.6562-4.0469-4.6562-4.0469-12.625v-30.906h-9.0312v54.688h9.0312v-8.5q3.0781 5.0312 7.375 7.4219t10.203 2.3906q5.9688 0 10.141-3.0312 4.1719-3.0156 6.1719-8.7812z"/>
<path id="j" d="m9.4219 54.688h8.9844v-54.688h-8.9844zm0 21.297h8.9844v-11.391h-8.9844z"/>
<path id="i" d="m54.891 33.016v-33.016h-8.9844v32.719q0 7.7656-3.0312 11.609-3.0312 3.8594-9.0781 3.8594-7.2812 0-11.484-4.6406-4.2031-4.625-4.2031-12.641v-30.906h-9.0312v54.688h9.0312v-8.5q3.2344 4.9375 7.5938 7.375 4.375 2.4375 10.094 2.4375 9.4219 0 14.25-5.8281 4.8438-5.8281 4.8438-17.156z"/>
<path id="d" d="m34.281 27.484q-10.891 0-15.094-2.4844t-4.2031-8.5q0-4.7812 3.1562-7.5938 3.1562-2.7969 8.5625-2.7969 7.4844 0 12 5.2969t4.5156 14.078v2zm17.922 3.7188v-31.203h-8.9844v8.2969q-3.0781-4.9688-7.6719-7.3438t-11.234-2.375q-8.3906 0-13.359 4.7188-4.9531 4.7188-4.9531 12.625 0 9.2188 6.1719 13.906 6.1875 4.6875 18.438 4.6875h12.609v0.89062q0 6.2031-4.0781 9.5938t-11.453 3.3906q-4.6875 0-9.1406-1.125-4.4375-1.125-8.5312-3.375v8.3125q4.9219 1.9062 9.5625 2.8438 4.6406 0.95312 9.0312 0.95312 11.875 0 17.734-6.1562 5.8594-6.1406 5.8594-18.641z"/>
<path id="l" d="m9.4219 75.984h8.9844v-75.984h-8.9844z"/>
</defs>
<g transform="translate(339.8 528.96) rotate(90) scale(.08 -.08)">
<use xlink:href="#k"/>
<use x="60.818359" xlink:href="#e"/>
<use x="122.341797" xlink:href="#g"/>
<use x="163.439453" xlink:href="#h"/>
<use x="260.851562" xlink:href="#j"/>
<use x="288.634766" xlink:href="#i"/>
<use x="352.013672" xlink:href="#d"/>
<use x="413.292969" xlink:href="#l"/>
</g>
</g>
<path d="m160.68 431.55 2.0402 5.2004q0.87653 2.2342 3.1107 1.3577l7.2077-2.8277q2.2342-0.87653 1.3577-3.1107l-2.0402-5.2004q-0.87653-2.2342-3.1107-1.3577l-7.2077 2.8277q-2.2342 0.87653-1.3577 3.1107z" clip-path="url(#a)" fill="#fff" stroke="#fff"/>
<g clip-path="url(#a)">
<defs>
<path id="q" d="m64.406 67.281v-10.391q-4.9844 4.6406-10.625 6.9219-5.6406 2.2969-11.984 2.2969-12.5 0-19.141-7.6406t-6.6406-22.094q0-14.406 6.6406-22.047t19.141-7.6406q6.3438 0 11.984 2.2969t10.625 6.9375v-10.312q-5.1719-3.5156-10.969-5.2812-5.7812-1.75-12.219-1.75-16.562 0-26.094 10.125-9.5156 10.141-9.5156 27.672 0 17.578 9.5156 27.703 9.5312 10.141 26.094 10.141 6.5312 0 12.312-1.7344 5.7969-1.7344 10.875-5.2031z"/>
</defs>
<g transform="translate(164.46 430.06) rotate(68.579) scale(.08 -.08)">
<use xlink:href="#q"/>
</g>
</g>
<path d="m99.731 436.89 2.2151-4.033q1.1554-2.1036-0.94819-3.259l-6.7863-3.7273q-2.1036-1.1554-3.259 0.94819l-2.2151 4.033q-1.1554 2.1036 0.94819 3.259l6.7863 3.7273q2.1036 1.1554 3.259-0.94819z" clip-path="url(#a)" fill="#fff" stroke="#fff"/>
<g clip-path="url(#a)">
<g transform="translate(96.169 434.94) rotate(-61.222) scale(.08 -.08)">
<use xlink:href="#t"/>
</g>
</g>
<path d="m136.89 392.25 0.77843 4.9947q0.36958 2.3714 2.741 2.0018l7.6501-1.1923q2.3714-0.36958 2.0018-2.741l-0.77843-4.9947q-0.36958-2.3714-2.741-2.0018l-7.6501 1.1923q-2.3714 0.36958-2.0018 2.741z" clip-path="url(#a)" fill="#fff" stroke="#fff"/>
<g clip-path="url(#a)">
<defs>
<path id="u" d="m9.8125 72.906h46.094v-8.3125h-36.234v-21.578h34.719v-8.2969h-34.719v-26.422h37.109v-8.2969h-46.969z"/>
</defs>
<g transform="translate(140.9 391.63) rotate(81.142) scale(.08 -.08)">
<use xlink:href="#u"/>
</g>
</g>
<path d="m137.02 429.83 0.39542 5.0395q0.18774 2.3926 2.5804 2.2049l7.7188-0.60565q2.3926-0.18774 2.2049-2.5804l-0.39542-5.0395q-0.18774-2.3926-2.5804-2.2049l-7.7188 0.60565q-2.3926 0.18774-2.2049 2.5804z" clip-path="url(#a)" fill="#fff" stroke="#fff"/>
<g clip-path="url(#a)">
<g transform="translate(141.07 429.51) rotate(85.514) scale(.08 -.08)">
<use xlink:href="#u"/>
</g>
</g>
<path d="m191.35 528.96v35.285q0 2.4 2.4 2.4h7.7425q2.4 0 2.4-2.4v-35.285q0-2.4-2.4-2.4h-7.7425q-2.4 0-2.4 2.4z" clip-path="url(#a)" fill="#fff" stroke="#fff"/>
<g clip-path="url(#a)">
<g transform="translate(195.41 528.96) rotate(90) scale(.08 -.08)">
<use xlink:href="#k"/>
<use x="60.818359" xlink:href="#e"/>
<use x="122.341797" xlink:href="#g"/>
<use x="163.439453" xlink:href="#h"/>
<use x="260.851562" xlink:href="#j"/>
<use x="288.634766" xlink:href="#i"/>
<use x="352.013672" xlink:href="#d"/>
<use x="413.292969" xlink:href="#l"/>
</g>
</g>
<path d="m239.48 528.96v35.285q0 2.4 2.4 2.4h7.7425q2.4 0 2.4-2.4v-35.285q0-2.4-2.4-2.4h-7.7425q-2.4 0-2.4 2.4z" clip-path="url(#a)" fill="#fff" stroke="#fff"/>
<g clip-path="url(#a)">
<g transform="translate(243.54 528.96) rotate(90) scale(.08 -.08)">
<use xlink:href="#k"/>
<use x="60.818359" xlink:href="#e"/>
<use x="122.341797" xlink:href="#g"/>
<use x="163.439453" xlink:href="#h"/>
<use x="260.851562" xlink:href="#j"/>
<use x="288.634766" xlink:href="#i"/>
<use x="352.013672" xlink:href="#d"/>
<use x="413.292969" xlink:href="#l"/>
</g>
</g>
<path d="m287.61 528.96v35.285q0 2.4 2.4 2.4h7.7425q2.4 0 2.4-2.4v-35.285q0-2.4-2.4-2.4h-7.7425q-2.4 0-2.4 2.4z" clip-path="url(#a)" fill="#fff" stroke="#fff"/>
<g clip-path="url(#a)">
<g transform="translate(291.67 528.96) rotate(90) scale(.08 -.08)">
<use xlink:href="#k"/>
<use x="60.818359" xlink:href="#e"/>
<use x="122.341797" xlink:href="#g"/>
<use x="163.439453" xlink:href="#h"/>
<use x="260.851562" xlink:href="#j"/>
<use x="288.634766" xlink:href="#i"/>
<use x="352.013672" xlink:href="#d"/>
<use x="413.292969" xlink:href="#l"/>
</g>
</g>
<path d="m432 528.96v35.285q0 2.4 2.4 2.4h7.7425q2.4 0 2.4-2.4v-35.285q0-2.4-2.4-2.4h-7.7425q-2.4 0-2.4 2.4z" clip-path="url(#a)" fill="#fff" stroke="#fff"/>
<g clip-path="url(#a)">
<g transform="translate(436.07 528.96) rotate(90) scale(.08 -.08)">
<use xlink:href="#k"/>
<use x="60.818359" xlink:href="#e"/>
<use x="122.341797" xlink:href="#g"/>
<use x="163.439453" xlink:href="#h"/>
<use x="260.851562" xlink:href="#j"/>
<use x="288.634766" xlink:href="#i"/>
<use x="352.013672" xlink:href="#d"/>
<use x="413.292969" xlink:href="#l"/>
</g>
</g>
<path d="m341.43 316.86 3.1686-4.4618q1.3896-1.9568-0.56714-3.3464l-6.3126-4.483q-1.9568-1.3896-3.3464 0.56714l-3.1686 4.4618q-1.3896 1.9568 0.56714 3.3464l6.3126 4.483q1.9568 1.3896 3.3464-0.56714z" clip-path="url(#a)" fill="#fff" stroke="#fff"/>
<g clip-path="url(#a)">
<g transform="translate(338.12 314.51) rotate(-54.619) scale(.08 -.08)">
<use xlink:href="#r"/>
</g>
</g>
<path d="m475.97 308.72 0.10037 4.8227q0.04994 2.3995 2.4494 2.3495l7.7408-0.16111q2.3995-0.04994 2.3495-2.4494l-0.10037-4.8227q-0.04994-2.3995-2.4494-2.3495l-7.7408 0.16111q-2.3995 0.049939-2.3495 2.4494z" clip-path="url(#a)" fill="#fff" stroke="#fff"/>
<g clip-path="url(#a)">
<defs>
<path id="ap" d="m19.672 64.797v-27.391h12.406q6.8906 0 10.641 3.5625 3.7656 3.5625 3.7656 10.156 0 6.5469-3.7656 10.109-3.75 3.5625-10.641 3.5625zm-9.8594 8.1094h22.266q12.266 0 18.531-5.5469 6.2812-5.5469 6.2812-16.234 0-10.797-6.2812-16.312-6.2656-5.5156-18.531-5.5156h-12.406v-29.297h-9.8594z"/>
</defs>
<g transform="translate(480.04 308.63) rotate(88.808) scale(.08 -.08)">
<use xlink:href="#ap"/>
</g>
</g>
<path d="m439.65 315.22 1.2735-5.7148q0.52203-2.3425-1.8205-2.8646l-7.5571-1.6841q-2.3425-0.52203-2.8646 1.8205l-1.2735 5.7148q-0.52203 2.3425 1.8205 2.8646l7.5571 1.6841q2.3425 0.52203 2.8646-1.8205z" clip-path="url(#a)" fill="#fff" stroke="#fff"/>
<g clip-path="url(#a)">
<g transform="translate(435.68 314.34) rotate(-77.437) scale(.08 -.08)">
<use xlink:href="#y"/>
</g>
</g>
<path d="m552.69 159.05 4.8612 2.5134q2.1319 1.1022 3.2342-1.0297l3.5559-6.8776q1.1022-2.1319-1.0297-3.2342l-4.8612-2.5134q-2.1319-1.1022-3.2342 1.0297l-3.5559 6.8776q-1.1022 2.1319 1.0297 3.2342z" clip-path="url(#a)" fill="#fff" stroke="#fff"/>
<g clip-path="url(#a)">
<g transform="translate(554.56 155.44) rotate(27.34) scale(.08 -.08)">
<use xlink:href="#r"/>
</g>
</g>
<path d="m571.64 311.23 2.6523 5.2198q1.0872 2.1396 3.2268 1.0524l6.9025-3.5074q2.1396-1.0872 1.0524-3.2268l-2.6523-5.2198q-1.0872-2.1396-3.2268-1.0524l-6.9025 3.5074q-2.1396 1.0872-1.0524 3.2268z" clip-path="url(#a)" fill="#fff" stroke="#fff"/>
<g clip-path="url(#a)">
<g transform="translate(575.26 309.39) rotate(63.063) scale(.08 -.08)">
<use xlink:href="#y"/>
</g>
</g>
<path d="m480.13 528.96v35.285q0 2.4 2.4 2.4h7.7425q2.4 0 2.4-2.4v-35.285q0-2.4-2.4-2.4h-7.7425q-2.4 0-2.4 2.4z" clip-path="url(#a)" fill="#fff" stroke="#fff"/>
<g clip-path="url(#a)">
<g transform="translate(484.2 528.96) rotate(90) scale(.08 -.08)">
<use xlink:href="#k"/>
<use x="60.818359" xlink:href="#e"/>
<use x="122.341797" xlink:href="#g"/>
<use x="163.439453" xlink:href="#h"/>
<use x="260.851562" xlink:href="#j"/>
<use x="288.634766" xlink:href="#i"/>
<use x="352.013672" xlink:href="#d"/>
<use x="413.292969" xlink:href="#l"/>
</g>
</g>
<path d="m1105.8 528.96v35.285q0 2.4 2.4 2.4h7.7425q2.4 0 2.4-2.4v-35.285q0-2.4-2.4-2.4h-7.7425q-2.4 0-2.4 2.4z" clip-path="url(#a)" fill="#fff" stroke="#fff"/>
<g clip-path="url(#a)">
<g transform="translate(1109.9 528.96) rotate(90) scale(.08 -.08)">
<use xlink:href="#k"/>
<use x="60.818359" xlink:href="#e"/>
<use x="122.341797" xlink:href="#g"/>
<use x="163.439453" xlink:href="#h"/>
<use x="260.851562" xlink:href="#j"/>
<use x="288.634766" xlink:href="#i"/>
<use x="352.013672" xlink:href="#d"/>
<use x="413.292969" xlink:href="#l"/>
</g>
</g>
<path d="m46.956 528.96v35.285q0 2.4 2.4 2.4h7.7425q2.4 0 2.4-2.4v-35.285q0-2.4-2.4-2.4h-7.7425q-2.4 0-2.4 2.4z" clip-path="url(#a)" fill="#fff" stroke="#fff"/>
<g clip-path="url(#a)">
<g transform="translate(51.02 528.96) rotate(90) scale(.08 -.08)">
<use xlink:href="#k"/>
<use x="60.818359" xlink:href="#e"/>
<use x="122.341797" xlink:href="#g"/>
<use x="163.439453" xlink:href="#h"/>
<use x="260.851562" xlink:href="#j"/>
<use x="288.634766" xlink:href="#i"/>
<use x="352.013672" xlink:href="#d"/>
<use x="413.292969" xlink:href="#l"/>
</g>
</g>
<path d="m166.79 471.5 2.9239 4.6259q1.2823 2.0287 3.311 0.74641l6.5447-4.1368q2.0287-1.2823 0.74641-3.311l-2.9239-4.6259q-1.2823-2.0287-3.311-0.74641l-6.5447 4.1368q-2.0287 1.2823-0.74641 3.311z" clip-path="url(#a)" fill="#fff" stroke="#fff"/>
<g clip-path="url(#a)">
<g transform="translate(170.23 469.33) rotate(57.704) scale(.08 -.08)">
<use xlink:href="#r"/>
</g>
</g>
<path d="m129.37 475.96 2.7136-4.2931q1.2823-2.0287-0.74641-3.311l-6.5447-4.1368q-2.0287-1.2823-3.311 0.74641l-2.7136 4.2931q-1.2823 2.0287 0.74641 3.311l6.5447 4.1368q2.0287 1.2823 3.311-0.74641z" clip-path="url(#a)" fill="#fff" stroke="#fff"/>
<g clip-path="url(#a)">
<g transform="translate(125.93 473.79) rotate(-57.704) scale(.08 -.08)">
<use xlink:href="#z"/>
</g>
</g>
<path d="m95.087 528.96v35.285q0 2.4 2.4 2.4h7.7425q2.4 0 2.4-2.4v-35.285q0-2.4-2.4-2.4h-7.7425q-2.4 0-2.4 2.4z" clip-path="url(#a)" fill="#fff" stroke="#fff"/>
<g clip-path="url(#a)">
<g transform="translate(99.151 528.96) rotate(90) scale(.08 -.08)">
<use xlink:href="#k"/>
<use x="60.818359" xlink:href="#e"/>
<use x="122.341797" xlink:href="#g"/>
<use x="163.439453" xlink:href="#h"/>
<use x="260.851562" xlink:href="#j"/>
<use x="288.634766" xlink:href="#i"/>
<use x="352.013672" xlink:href="#d"/>
<use x="413.292969" xlink:href="#l"/>
</g>
</g>
<path d="m143.22 528.96v35.285q0 2.4 2.4 2.4h7.7425q2.4 0 2.4-2.4v-35.285q0-2.4-2.4-2.4h-7.7425q-2.4 0-2.4 2.4z" clip-path="url(#a)" fill="#fff" stroke="#fff"/>
<g clip-path="url(#a)">
<g transform="translate(147.28 528.96) rotate(90) scale(.08 -.08)">
<use xlink:href="#k"/>
<use x="60.818359" xlink:href="#e"/>
<use x="122.341797" xlink:href="#g"/>
<use x="163.439453" xlink:href="#h"/>
<use x="260.851562" xlink:href="#j"/>
<use x="288.634766" xlink:href="#i"/>
<use x="352.013672" xlink:href="#d"/>
<use x="413.292969" xlink:href="#l"/>
</g>
</g>
<path d="m383.87 528.96v35.285q0 2.4 2.4 2.4h7.7425q2.4 0 2.4-2.4v-35.285q0-2.4-2.4-2.4h-7.7425q-2.4 0-2.4 2.4z" clip-path="url(#a)" fill="#fff" stroke="#fff"/>
<g clip-path="url(#a)">
<g transform="translate(387.94 528.96) rotate(90) scale(.08 -.08)">
<use xlink:href="#k"/>
<use x="60.818359" xlink:href="#e"/>
<use x="122.341797" xlink:href="#g"/>
<use x="163.439453" xlink:href="#h"/>
<use x="260.851562" xlink:href="#j"/>
<use x="288.634766" xlink:href="#i"/>
<use x="352.013672" xlink:href="#d"/>
<use x="413.292969" xlink:href="#l"/>
</g>
</g>
<path d="m640.51 355.2 0.12543-5.5848q0.053888-2.3994-2.3455-2.4533l-7.7405-0.17384q-2.3994-0.053888-2.4533 2.3455l-0.12543 5.5848q-0.053888 2.3994 2.3455 2.4533l7.7405 0.17384q2.3994 0.053888 2.4533-2.3455z" clip-path="url(#a)" fill="#fff" stroke="#fff"/>
<g clip-path="url(#a)">
<g transform="translate(636.45 355.11) rotate(-88.713) scale(.08 -.08)">
<use xlink:href="#q"/>
</g>
</g>
<path d="m591.26 356.87 1.7442-5.278q0.75306-2.2788-1.5257-3.0319l-7.3515-2.4294q-2.2788-0.75306-3.0319 1.5257l-1.7442 5.278q-0.75306 2.2788 1.5257 3.0319l7.3515 2.4294q2.2788 0.75306 3.0319-1.5257z" clip-path="url(#a)" fill="#fff" stroke="#fff"/>
<g clip-path="url(#a)">
<defs>
<path id="aa" d="m44.391 34.188q3.1719-1.0781 6.1719-4.5938t6.0312-9.6719l10.016-19.922h-10.609l-9.3125 18.703q-3.625 7.3281-7.0156 9.7188t-9.25 2.3906h-10.75v-30.812h-9.8594v72.906h22.266q12.5 0 18.656-5.2344 6.1562-5.2188 6.1562-15.766 0-6.8906-3.2031-11.438-3.2031-4.5312-9.2969-6.2812zm-24.719 30.609v-25.875h12.406q7.125 0 10.766 3.2969t3.6406 9.6875-3.6406 9.6406-10.766 3.25z"/>
</defs>
<g transform="translate(587.4 355.6) rotate(-71.713) scale(.08 -.08)">
<use xlink:href="#aa"/>
</g>
</g>
<path d="m615.98 355.85 0.87844-4.9781q0.41706-2.3635-1.9464-2.7805l-7.6247-1.3455q-2.3635-0.41706-2.7805 1.9464l-0.87844 4.9781q-0.41706 2.3635 1.9464 2.7805l7.6247 1.3455q2.3635 0.41706 2.7805-1.9464z" clip-path="url(#a)" fill="#fff" stroke="#fff"/>
<g clip-path="url(#a)">
<g transform="translate(611.98 355.14) rotate(-79.993) scale(.08 -.08)">
<use xlink:href="#u"/>
</g>
</g>
<path d="m715.29 240.66 5.0234 2.4437q2.1582 1.0499 3.2081-1.1083l3.387-6.9624q1.0499-2.1582-1.1083-3.2081l-5.0234-2.4437q-2.1582-1.0499-3.2081 1.1083l-3.387 6.9624q-1.0499 2.1582 1.1083 3.2081z" clip-path="url(#a)" fill="#fff" stroke="#fff"/>
<g clip-path="url(#a)">
<g transform="translate(717.06 237.01) rotate(25.941) scale(.08 -.08)">
<use xlink:href="#q"/>
</g>
</g>
<path d="m624.53 528.96v35.285q0 2.4 2.4 2.4h7.7425q2.4 0 2.4-2.4v-35.285q0-2.4-2.4-2.4h-7.7425q-2.4 0-2.4 2.4z" clip-path="url(#a)" fill="#fff" stroke="#fff"/>
<g clip-path="url(#a)">
<g transform="translate(628.59 528.96) rotate(90) scale(.08 -.08)">
<use xlink:href="#k"/>
<use x="60.818359" xlink:href="#e"/>
<use x="122.341797" xlink:href="#g"/>
<use x="163.439453" xlink:href="#h"/>
<use x="260.851562" xlink:href="#j"/>
<use x="288.634766" xlink:href="#i"/>
<use x="352.013672" xlink:href="#d"/>
<use x="413.292969" xlink:href="#l"/>
</g>
</g>
<path d="m672.66 528.96v35.285q0 2.4 2.4 2.4h7.7425q2.4 0 2.4-2.4v-35.285q0-2.4-2.4-2.4h-7.7425q-2.4 0-2.4 2.4z" clip-path="url(#a)" fill="#fff" stroke="#fff"/>
<g clip-path="url(#a)">
<g transform="translate(676.72 528.96) rotate(90) scale(.08 -.08)">
<use xlink:href="#k"/>
<use x="60.818359" xlink:href="#e"/>
<use x="122.341797" xlink:href="#g"/>
<use x="163.439453" xlink:href="#h"/>
<use x="260.851562" xlink:href="#j"/>
<use x="288.634766" xlink:href="#i"/>
<use x="352.013672" xlink:href="#d"/>
<use x="413.292969" xlink:href="#l"/>
</g>
</g>
<path d="m528.26 528.96v35.285q0 2.4 2.4 2.4h7.7425q2.4 0 2.4-2.4v-35.285q0-2.4-2.4-2.4h-7.7425q-2.4 0-2.4 2.4z" clip-path="url(#a)" fill="#fff" stroke="#fff"/>
<g clip-path="url(#a)">
<g transform="translate(532.33 528.96) rotate(90) scale(.08 -.08)">
<use xlink:href="#k"/>
<use x="60.818359" xlink:href="#e"/>
<use x="122.341797" xlink:href="#g"/>
<use x="163.439453" xlink:href="#h"/>
<use x="260.851562" xlink:href="#j"/>
<use x="288.634766" xlink:href="#i"/>
<use x="352.013672" xlink:href="#d"/>
<use x="413.292969" xlink:href="#l"/>
</g>
</g>
<path d="m576.4 528.96v35.285q0 2.4 2.4 2.4h7.7425q2.4 0 2.4-2.4v-35.285q0-2.4-2.4-2.4h-7.7425q-2.4 0-2.4 2.4z" clip-path="url(#a)" fill="#fff" stroke="#fff"/>
<g clip-path="url(#a)">
<g transform="translate(580.46 528.96) rotate(90) scale(.08 -.08)">
<use xlink:href="#k"/>
<use x="60.818359" xlink:href="#e"/>
<use x="122.341797" xlink:href="#g"/>
<use x="163.439453" xlink:href="#h"/>
<use x="260.851562" xlink:href="#j"/>
<use x="288.634766" xlink:href="#i"/>
<use x="352.013672" xlink:href="#d"/>
<use x="413.292969" xlink:href="#l"/>
</g>
</g>
<path d="m795.15 395.78 0.61005-5.042q0.28828-2.3826-2.0943-2.6709l-7.6864-0.93002q-2.3826-0.28828-2.6709 2.0943l-0.61005 5.042q-0.28828 2.3826 2.0943 2.6709l7.6864 0.93002q2.3826 0.28828 2.6709-2.0943z" clip-path="url(#a)" fill="#fff" stroke="#fff"/>
<g clip-path="url(#a)">
<g transform="translate(791.11 395.3) rotate(-83.101) scale(.08 -.08)">
<use xlink:href="#z"/>
</g>
</g>
<path d="m770.16 397.39 1.922-5.8525q0.74884-2.2802-1.5313-3.029l-7.356-2.4158q-2.2802-0.74884-3.029 1.5313l-1.922 5.8525q-0.74884 2.2802 1.5313 3.029l7.356 2.4158q2.2802 0.74884 3.029-1.5313z" clip-path="url(#a)" fill="#fff" stroke="#fff"/>
<g clip-path="url(#a)">
<g transform="translate(766.3 396.13) rotate(-71.819) scale(.08 -.08)">
<use xlink:href="#al"/>
</g>
</g>
<path d="m849.45 319.19 4.3683 3.2964q1.9158 1.4456 3.3614-0.47012l4.6637-6.1803q1.4456-1.9158-0.47012-3.3614l-4.3683-3.2964q-1.9158-1.4456-3.3614 0.47012l-4.6637 6.1803q-1.4456 1.9158 0.47012 3.3614z" clip-path="url(#a)" fill="#fff" stroke="#fff"/>
<g clip-path="url(#a)">
<g transform="translate(851.89 315.95) rotate(37.038) scale(.08 -.08)">
<use xlink:href="#r"/>
</g>
</g>
<path d="m768.92 528.96v35.285q0 2.4 2.4 2.4h7.7425q2.4 0 2.4-2.4v-35.285q0-2.4-2.4-2.4h-7.7425q-2.4 0-2.4 2.4z" clip-path="url(#a)" fill="#fff" stroke="#fff"/>
<g clip-path="url(#a)">
<g transform="translate(772.98 528.96) rotate(90) scale(.08 -.08)">
<use xlink:href="#k"/>
<use x="60.818359" xlink:href="#e"/>
<use x="122.341797" xlink:href="#g"/>
<use x="163.439453" xlink:href="#h"/>
<use x="260.851562" xlink:href="#j"/>
<use x="288.634766" xlink:href="#i"/>
<use x="352.013672" xlink:href="#d"/>
<use x="413.292969" xlink:href="#l"/>
</g>
</g>
<path d="m720.79 528.96v35.285q0 2.4 2.4 2.4h7.7425q2.4 0 2.4-2.4v-35.285q0-2.4-2.4-2.4h-7.7425q-2.4 0-2.4 2.4z" clip-path="url(#a)" fill="#fff" stroke="#fff"/>
<g clip-path="url(#a)">
<g transform="translate(724.85 528.96) rotate(90) scale(.08 -.08)">
<use xlink:href="#k"/>
<use x="60.818359" xlink:href="#e"/>
<use x="122.341797" xlink:href="#g"/>
<use x="163.439453" xlink:href="#h"/>
<use x="260.851562" xlink:href="#j"/>
<use x="288.634766" xlink:href="#i"/>
<use x="352.013672" xlink:href="#d"/>
<use x="413.292969" xlink:href="#l"/>
</g>
</g>
<path d="m907.1 429.56 0.43698 5.5691q0.18774 2.3926 2.5804 2.2049l7.7188-0.60565q2.3926-0.18774 2.2049-2.5804l-0.43698-5.5691q-0.18774-2.3926-2.5804-2.2049l-7.7188 0.60565q-2.3926 0.18774-2.2049 2.5804z" clip-path="url(#a)" fill="#fff" stroke="#fff"/>
<g clip-path="url(#a)">
<g transform="translate(911.15 429.25) rotate(85.514) scale(.08 -.08)">
<use xlink:href="#q"/>
</g>
</g>
<path d="m869.59 437.31 2.6761-4.8722q1.1554-2.1036-0.94819-3.259l-6.7863-3.7273q-2.1036-1.1554-3.259 0.94819l-2.6761 4.8722q-1.1554 2.1036 0.94819 3.259l6.7863 3.7273q2.1036 1.1554 3.259-0.94819z" clip-path="url(#a)" fill="#fff" stroke="#fff"/>
<g clip-path="url(#a)">
<g transform="translate(866.03 435.36) rotate(-61.222) scale(.08 -.08)">
<use xlink:href="#aa"/>
</g>
</g>
<path d="m895.08 435.53 1.0543-4.4788q0.54991-2.3362-1.7862-2.8861l-7.5365-1.774q-2.3362-0.54991-2.8861 1.7862l-1.0543 4.4788q-0.54991 2.3362 1.7862 2.8861l7.5365 1.774q2.3362 0.54991 2.8861-1.7862z" clip-path="url(#a)" fill="#fff" stroke="#fff"/>
<g clip-path="url(#a)">
<g transform="translate(891.12 434.6) rotate(-76.754) scale(.08 -.08)">
<use xlink:href="#t"/>
</g>
</g>
<path d="m956 397.42 4.1161 2.9345q1.9542 1.3932 3.3474-0.561l4.4946-6.3044q1.3932-1.9542-0.561-3.3474l-4.1161-2.9345q-1.9542-1.3932-3.3474 0.561l-4.4946 6.3044q-1.3932 1.9542 0.561 3.3474z" clip-path="url(#a)" fill="#fff" stroke="#fff"/>
<g clip-path="url(#a)">
<g transform="translate(958.36 394.11) rotate(35.486) scale(.08 -.08)">
<use xlink:href="#u"/>
</g>
</g>
<path d="m913.31 528.96v35.285q0 2.4 2.4 2.4h7.7425q2.4 0 2.4-2.4v-35.285q0-2.4-2.4-2.4h-7.7425q-2.4 0-2.4 2.4z" clip-path="url(#a)" fill="#fff" stroke="#fff"/>
<g clip-path="url(#a)">
<g transform="translate(917.38 528.96) rotate(90) scale(.08 -.08)">
<use xlink:href="#k"/>
<use x="60.818359" xlink:href="#e"/>
<use x="122.341797" xlink:href="#g"/>
<use x="163.439453" xlink:href="#h"/>
<use x="260.851562" xlink:href="#j"/>
<use x="288.634766" xlink:href="#i"/>
<use x="352.013672" xlink:href="#d"/>
<use x="413.292969" xlink:href="#l"/>
</g>
</g>
<path d="m817.05 528.96v35.285q0 2.4 2.4 2.4h7.7425q2.4 0 2.4-2.4v-35.285q0-2.4-2.4-2.4h-7.7425q-2.4 0-2.4 2.4z" clip-path="url(#a)" fill="#fff" stroke="#fff"/>
<g clip-path="url(#a)">
<g transform="translate(821.11 528.96) rotate(90) scale(.08 -.08)">
<use xlink:href="#k"/>
<use x="60.818359" xlink:href="#e"/>
<use x="122.341797" xlink:href="#g"/>
<use x="163.439453" xlink:href="#h"/>
<use x="260.851562" xlink:href="#j"/>
<use x="288.634766" xlink:href="#i"/>
<use x="352.013672" xlink:href="#d"/>
<use x="413.292969" xlink:href="#l"/>
</g>
</g>
<path d="m865.18 528.96v35.285q0 2.4 2.4 2.4h7.7425q2.4 0 2.4-2.4v-35.285q0-2.4-2.4-2.4h-7.7425q-2.4 0-2.4 2.4z" clip-path="url(#a)" fill="#fff" stroke="#fff"/>
<g clip-path="url(#a)">
<g transform="translate(869.24 528.96) rotate(90) scale(.08 -.08)">
<use xlink:href="#k"/>
<use x="60.818359" xlink:href="#e"/>
<use x="122.341797" xlink:href="#g"/>
<use x="163.439453" xlink:href="#h"/>
<use x="260.851562" xlink:href="#j"/>
<use x="288.634766" xlink:href="#i"/>
<use x="352.013672" xlink:href="#d"/>
<use x="413.292969" xlink:href="#l"/>
</g>
</g>
<path d="m1033.1 471.45 2.9847 4.722q1.2823 2.0287 3.311 0.74641l6.5447-4.1368q2.0287-1.2823 0.74641-3.311l-2.9847-4.722q-1.2823-2.0287-3.311-0.74641l-6.5447 4.1368q-2.0287 1.2823-0.74641 3.311z" clip-path="url(#a)" fill="#fff" stroke="#fff"/>
<g clip-path="url(#a)">
<g transform="translate(1036.6 469.28) rotate(57.704) scale(.08 -.08)">
<use xlink:href="#q"/>
</g>
</g>
<path d="m995.6 476.16 2.97-4.6988q1.2823-2.0287-0.74641-3.311l-6.5447-4.1368q-2.0287-1.2823-3.311 0.74641l-2.97 4.6988q-1.2823 2.0287 0.74641 3.311l6.5447 4.1368q2.0287 1.2823 3.311-0.74641z" clip-path="url(#a)" fill="#fff" stroke="#fff"/>
<g clip-path="url(#a)">
<g transform="translate(992.16 473.99) rotate(-57.704) scale(.08 -.08)">
<use xlink:href="#aa"/>
</g>
</g>
<path d="m1009.6 468.16v4.6012q0 2.4 2.4 2.4h7.7425q2.4 0 2.4-2.4v-4.6012q0-2.4-2.4-2.4h-7.7425q-2.4 0-2.4 2.4z" clip-path="url(#a)" fill="#fff" stroke="#fff"/>
<g clip-path="url(#a)">
<g transform="translate(1013.6 468.16) rotate(90) scale(.08 -.08)">
<use xlink:href="#t"/>
</g>
</g>
<path d="m1057.7 528.96v35.285q0 2.4 2.4 2.4h7.7425q2.4 0 2.4-2.4v-35.285q0-2.4-2.4-2.4h-7.7425q-2.4 0-2.4 2.4z" clip-path="url(#a)" fill="#fff" stroke="#fff"/>
<g clip-path="url(#a)">
<g transform="translate(1061.8 528.96) rotate(90) scale(.08 -.08)">
<use xlink:href="#k"/>
<use x="60.818359" xlink:href="#e"/>
<use x="122.341797" xlink:href="#g"/>
<use x="163.439453" xlink:href="#h"/>
<use x="260.851562" xlink:href="#j"/>
<use x="288.634766" xlink:href="#i"/>
<use x="352.013672" xlink:href="#d"/>
<use x="413.292969" xlink:href="#l"/>
</g>
</g>
<path d="m961.44 528.96v35.285q0 2.4 2.4 2.4h7.7425q2.4 0 2.4-2.4v-35.285q0-2.4-2.4-2.4h-7.7425q-2.4 0-2.4 2.4z" clip-path="url(#a)" fill="#fff" stroke="#fff"/>
<g clip-path="url(#a)">
<g transform="translate(965.51 528.96) rotate(90) scale(.08 -.08)">
<use xlink:href="#k"/>
<use x="60.818359" xlink:href="#e"/>
<use x="122.341797" xlink:href="#g"/>
<use x="163.439453" xlink:href="#h"/>
<use x="260.851562" xlink:href="#j"/>
<use x="288.634766" xlink:href="#i"/>
<use x="352.013672" xlink:href="#d"/>
<use x="413.292969" xlink:href="#l"/>
</g>
</g>
<path d="m1009.6 528.96v35.285q0 2.4 2.4 2.4h7.7425q2.4 0 2.4-2.4v-35.285q0-2.4-2.4-2.4h-7.7425q-2.4 0-2.4 2.4z" clip-path="url(#a)" fill="#fff" stroke="#fff"/>
<g clip-path="url(#a)">
<g transform="translate(1013.6 528.96) rotate(90) scale(.08 -.08)">
<use xlink:href="#k"/>
<use x="60.818359" xlink:href="#e"/>
<use x="122.341797" xlink:href="#g"/>
<use x="163.439453" xlink:href="#h"/>
<use x="260.851562" xlink:href="#j"/>
<use x="288.634766" xlink:href="#i"/>
<use x="352.013672" xlink:href="#d"/>
<use x="413.292969" xlink:href="#l"/>
</g>
</g>
<defs>
<path id="b" d="m0 8.6603c2.2967 0 4.4997-0.9125 6.1237-2.5365 1.624-1.624 2.5365-3.827 2.5365-6.1237s-0.9125-4.4997-2.5365-6.1237c-1.624-1.624-3.827-2.5365-6.1237-2.5365s-4.4997 0.9125-6.1237 2.5365c-1.624 1.624-2.5365 3.827-2.5365 6.1237s0.9125 4.4997 2.5365 6.1237c1.624 1.624 3.827 2.5365 6.1237 2.5365z"/>
</defs>
<g clip-path="url(#a)">
<use x="53.227232" y="584.680407" fill="#ffffff" stroke="#ffffff" xlink:href="#b"/>
</g>
<g clip-path="url(#a)">
<use x="101.35809" y="584.680407" fill="#ffffff" stroke="#ffffff" xlink:href="#b"/>
</g>
<g clip-path="url(#a)">
<use x="149.488948" y="584.680407" fill="#ffffff" stroke="#ffffff" xlink:href="#b"/>
</g>
<g clip-path="url(#a)">
<use x="197.619805" y="584.680407" fill="#ffffff" stroke="#ffffff" xlink:href="#b"/>
</g>
<g clip-path="url(#a)">
<use x="245.750663" y="584.680407" fill="#ffffff" stroke="#ffffff" xlink:href="#b"/>
</g>
<g clip-path="url(#a)">
<use x="293.881521" y="584.680407" fill="#ffffff" stroke="#ffffff" xlink:href="#b"/>
</g>
<g clip-path="url(#a)">
<use x="342.012378" y="584.680407" fill="#ffffff" stroke="#ffffff" xlink:href="#b"/>
</g>
<g clip-path="url(#a)">
<use x="390.143236" y="584.680407" fill="#ffffff" stroke="#ffffff" xlink:href="#b"/>
</g>
<g clip-path="url(#a)">
<use x="438.274094" y="584.680407" fill="#ffffff" stroke="#ffffff" xlink:href="#b"/>
</g>
<g clip-path="url(#a)">
<use x="486.404951" y="584.680407" fill="#ffffff" stroke="#ffffff" xlink:href="#b"/>
</g>
<g clip-path="url(#a)">
<use x="534.535809" y="584.680407" fill="#ffffff" stroke="#ffffff" xlink:href="#b"/>
</g>
<g clip-path="url(#a)">
<use x="582.666667" y="584.680407" fill="#ffffff" stroke="#ffffff" xlink:href="#b"/>
</g>
<g clip-path="url(#a)">
<use x="630.797524" y="584.680407" fill="#ffffff" stroke="#ffffff" xlink:href="#b"/>
</g>
<g clip-path="url(#a)">
<use x="678.928382" y="584.680407" fill="#ffffff" stroke="#ffffff" xlink:href="#b"/>
</g>
<g clip-path="url(#a)">
<use x="727.05924" y="584.680407" fill="#ffffff" stroke="#ffffff" xlink:href="#b"/>
</g>
<g clip-path="url(#a)">
<use x="775.190097" y="584.680407" fill="#ffffff" stroke="#ffffff" xlink:href="#b"/>
</g>
<g clip-path="url(#a)">
<use x="823.320955" y="584.680407" fill="#ffffff" stroke="#ffffff" xlink:href="#b"/>
</g>
<g clip-path="url(#a)">
<use x="871.451813" y="584.680407" fill="#ffffff" stroke="#ffffff" xlink:href="#b"/>
</g>
<g clip-path="url(#a)">
<use x="919.58267" y="584.680407" fill="#ffffff" stroke="#ffffff" xlink:href="#b"/>
</g>
<g clip-path="url(#a)">
<use x="967.713528" y="584.680407" fill="#ffffff" stroke="#ffffff" xlink:href="#b"/>
</g>
<g clip-path="url(#a)">
<use x="1015.844386" y="584.680407" fill="#ffffff" stroke="#ffffff" xlink:href="#b"/>
</g>
<g clip-path="url(#a)">
<use x="1063.975244" y="584.680407" fill="#ffffff" stroke="#ffffff" xlink:href="#b"/>
</g>
<g clip-path="url(#a)">
<use x="1112.106101" y="584.680407" fill="#ffffff" stroke="#ffffff" xlink:href="#b"/>
</g>
<g clip-path="url(#a)">
<use x="447.566023" y="28.652926" fill="#ffffff" stroke="#ffffff" xlink:href="#b"/>
</g>
<g clip-path="url(#a)">
<use x="426.241379" y="276.48761" fill="#ffffff" stroke="#ffffff" xlink:href="#b"/>
</g>
<g clip-path="url(#a)">
<use x="342.012378" y="508.533517" fill="#ffffff" stroke="#ffffff" xlink:href="#b"/>
</g>
<g clip-path="url(#a)">
<use x="137.456233" y="355.18045" fill="#ffffff" stroke="#ffffff" xlink:href="#b"/>
</g>
<g clip-path="url(#a)">
<use x="197.619805" y="508.533517" fill="#ffffff" stroke="#ffffff" xlink:href="#b"/>
</g>
<g clip-path="url(#a)">
<use x="245.750663" y="508.533517" fill="#ffffff" stroke="#ffffff" xlink:href="#b"/>
</g>
<g clip-path="url(#a)">
<use x="293.881521" y="508.533517" fill="#ffffff" stroke="#ffffff" xlink:href="#b"/>
</g>
<g clip-path="url(#a)">
<use x="438.274094" y="508.533517" fill="#ffffff" stroke="#ffffff" xlink:href="#b"/>
</g>
<g clip-path="url(#a)">
<use x="478.182596" y="113.467117" fill="#ffffff" stroke="#ffffff" xlink:href="#b"/>
</g>
<g clip-path="url(#a)">
<use x="486.404951" y="508.533517" fill="#ffffff" stroke="#ffffff" xlink:href="#b"/>
</g>
<g clip-path="url(#a)">
<use x="1112.106101" y="508.533517" fill="#ffffff" stroke="#ffffff" xlink:href="#b"/>
</g>
<g clip-path="url(#a)">
<use x="53.227232" y="508.533517" fill="#ffffff" stroke="#ffffff" xlink:href="#b"/>
</g>
<g clip-path="url(#a)">
<use x="149.488948" y="432.386627" fill="#ffffff" stroke="#ffffff" xlink:href="#b"/>
</g>
<g clip-path="url(#a)">
<use x="101.35809" y="508.533517" fill="#ffffff" stroke="#ffffff" xlink:href="#b"/>
</g>
<g clip-path="url(#a)">
<use x="149.488948" y="508.533517" fill="#ffffff" stroke="#ffffff" xlink:href="#b"/>
</g>
<g clip-path="url(#a)">
<use x="390.143236" y="508.533517" fill="#ffffff" stroke="#ffffff" xlink:href="#b"/>
</g>
<g clip-path="url(#a)">
<use x="637.816608" y="196.001735" fill="#ffffff" stroke="#ffffff" xlink:href="#b"/>
</g>
<g clip-path="url(#a)">
<use x="630.797524" y="508.533517" fill="#ffffff" stroke="#ffffff" xlink:href="#b"/>
</g>
<g clip-path="url(#a)">
<use x="678.928382" y="508.533517" fill="#ffffff" stroke="#ffffff" xlink:href="#b"/>
</g>
<g clip-path="url(#a)">
<use x="534.535809" y="508.533517" fill="#ffffff" stroke="#ffffff" xlink:href="#b"/>
</g>
<g clip-path="url(#a)">
<use x="582.666667" y="508.533517" fill="#ffffff" stroke="#ffffff" xlink:href="#b"/>
</g>
<g clip-path="url(#a)">
<use x="803.266431" y="276.48761" fill="#ffffff" stroke="#ffffff" xlink:href="#b"/>
</g>
<g clip-path="url(#a)">
<use x="775.190097" y="508.533517" fill="#ffffff" stroke="#ffffff" xlink:href="#b"/>
</g>
<g clip-path="url(#a)">
<use x="727.05924" y="508.533517" fill="#ffffff" stroke="#ffffff" xlink:href="#b"/>
</g>
<g clip-path="url(#a)">
<use x="907.549956" y="355.18045" fill="#ffffff" stroke="#ffffff" xlink:href="#b"/>
</g>
<g clip-path="url(#a)">
<use x="919.58267" y="508.533517" fill="#ffffff" stroke="#ffffff" xlink:href="#b"/>
</g>
<g clip-path="url(#a)">
<use x="823.320955" y="508.533517" fill="#ffffff" stroke="#ffffff" xlink:href="#b"/>
</g>
<g clip-path="url(#a)">
<use x="871.451813" y="508.533517" fill="#ffffff" stroke="#ffffff" xlink:href="#b"/>
</g>
<g clip-path="url(#a)">
<use x="1015.844386" y="432.386627" fill="#ffffff" stroke="#ffffff" xlink:href="#b"/>
</g>
<g clip-path="url(#a)">
<use x="1063.975244" y="508.533517" fill="#ffffff" stroke="#ffffff" xlink:href="#b"/>
</g>
<g clip-path="url(#a)">
<use x="967.713528" y="508.533517" fill="#ffffff" stroke="#ffffff" xlink:href="#b"/>
</g>
<g clip-path="url(#a)">
<use x="1015.844386" y="508.533517" fill="#ffffff" stroke="#ffffff" xlink:href="#b"/>
</g>
<g clip-path="url(#a)">
<defs>
<path id="x" d="m54.891 33.016v-33.016h-8.9844v32.719q0 7.7656-3.0312 11.609-3.0312 3.8594-9.0781 3.8594-7.2812 0-11.484-4.6406-4.2031-4.625-4.2031-12.641v-30.906h-9.0312v75.984h9.0312v-29.797q3.2344 4.9375 7.5938 7.375 4.375 2.4375 10.094 2.4375 9.4219 0 14.25-5.8281 4.8438-5.8281 4.8438-17.156z"/>
</defs>
<g transform="translate(43.928 587.44) scale(.1 -.1)">
<use xlink:href="#k"/>
<use x="61.083984" xlink:href="#x"/>
<use x="124.462891" xlink:href="#e"/>
</g>
</g>
<g clip-path="url(#a)">
<defs>
<path id="ai" d="m4.2031 54.688h8.9844l11.234-42.672 11.172 42.672h10.594l11.234-42.672 11.188 42.672h8.9844l-14.312-54.688h-10.594l-11.766 44.828-11.812-44.828h-10.609z"/>
</defs>
<g transform="translate(87.28 587.44) scale(.1 -.1)">
<use xlink:href="#ai"/>
<use x="81.787109" xlink:href="#d"/>
<use x="143.066406" xlink:href="#g"/>
<use x="184.164062" xlink:href="#h"/>
</g>
</g>
<g clip-path="url(#a)">
<defs>
<path id="s" d="m48.781 52.594v-8.4062q-3.8125 2.1094-7.6406 3.1562t-7.7344 1.0469q-8.75 0-13.594-5.5469-4.8281-5.5312-4.8281-15.547t4.8281-15.562q4.8438-5.5312 13.594-5.5312 3.9062 0 7.7344 1.0469t7.6406 3.1562v-8.3125q-3.7656-1.75-7.7969-2.625-4.0156-0.89062-8.5625-0.89062-12.359 0-19.641 7.7656-7.2656 7.7656-7.2656 20.953 0 13.375 7.3438 21.031 7.3594 7.6719 20.156 7.6719 4.1406 0 8.0938-0.85938 3.9531-0.84375 7.6719-2.5469z"/>
<path id="o" d="m30.609 48.391q-7.2188 0-11.422-5.6406t-4.2031-15.453 4.1719-15.453q4.1875-5.6406 11.453-5.6406 7.1875 0 11.375 5.6562 4.2031 5.6719 4.2031 15.438 0 9.7188-4.2031 15.406-4.1875 5.6875-11.375 5.6875zm0 7.6094q11.719 0 18.406-7.625 6.7031-7.6094 6.7031-21.078 0-13.422-6.7031-21.078-6.6875-7.6406-18.406-7.6406-11.766 0-18.438 7.6406-6.6562 7.6562-6.6562 21.078 0 13.469 6.6562 21.078 6.6719 7.625 18.438 7.625z"/>
<path id="n" d="m18.312 70.219v-15.531h18.5v-6.9844h-18.5v-29.688q0-6.6875 1.8281-8.5938t7.4531-1.9062h9.2188v-7.5156h-9.2188q-10.406 0-14.359 3.875-3.9531 3.8906-3.9531 14.141v29.688h-6.5938v6.9844h6.5938v15.531z"/>
</defs>
<g transform="translate(125.21 587.44) scale(.1 -.1)">
<use xlink:href="#s"/>
<use x="54.980469" xlink:href="#x"/>
<use x="118.359375" xlink:href="#o"/>
<use x="179.541016" xlink:href="#s"/>
<use x="234.521484" xlink:href="#o"/>
<use x="295.703125" xlink:href="#l"/>
<use x="323.486328" xlink:href="#d"/>
<use x="384.765625" xlink:href="#n"/>
<use x="423.974609" xlink:href="#e"/>
</g>
</g>
<g clip-path="url(#a)">
<defs>
<path id="as" d="m9.0781 75.984h9.0312v-44.875l26.812 23.578h11.469l-29-25.578 30.234-29.109h-11.719l-27.797 26.703v-26.703h-9.0312z"/>
</defs>
<g transform="translate(185.84 587.44) scale(.1 -.1)">
<use xlink:href="#s"/>
<use x="54.980469" xlink:href="#d"/>
<use x="116.259766" xlink:href="#as"/>
<use x="174.123047" xlink:href="#e"/>
</g>
</g>
<g clip-path="url(#a)">
<defs>
<path id="w" d="m44.281 53.078v-8.5q-3.7969 1.9531-7.9062 2.9219-4.0938 0.98438-8.5 0.98438-6.6875 0-10.031-2.0469t-3.3438-6.1562q0-3.125 2.3906-4.9062t9.625-3.3906l3.0781-0.6875q9.5625-2.0469 13.594-5.7812t4.0312-10.422q0-7.625-6.0312-12.078-6.0312-4.4375-16.578-4.4375-4.3906 0-9.1562 0.85938t-10.031 2.5625v9.2812q4.9844-2.5938 9.8125-3.8906 4.8281-1.2812 9.5781-1.2812 6.3438 0 9.75 2.1719 3.4219 2.1719 3.4219 6.125 0 3.6562-2.4688 5.6094-2.4531 1.9531-10.812 3.7656l-3.125 0.73438q-8.3438 1.75-12.062 5.3906-3.7031 3.6406-3.7031 9.9844 0 7.7188 5.4688 11.906 5.4688 4.2031 15.531 4.2031 4.9688 0 9.3594-0.73438 4.4062-0.71875 8.1094-2.1875z"/>
</defs>
<g transform="translate(235.99 587.44) scale(.1 -.1)">
<use xlink:href="#ai"/>
<use x="81.787109" xlink:href="#d"/>
<use x="143.066406" xlink:href="#w"/>
</g>
</g>
<g clip-path="url(#a)">
<defs>
<path id="an" d="m2.9844 54.688h9.5156l17.094-45.891 17.094 45.891h9.5156l-20.516-54.688h-12.203z"/>
<path id="v" d="m32.172-5.0781q-3.7969-9.7656-7.4219-12.734-3.6094-2.9844-9.6562-2.9844h-7.1875v7.5156h5.2812q3.7031 0 5.75 1.7656 2.0625 1.75 4.5469 8.2969l1.6094 4.0938-22.109 53.812h9.5156l17.094-42.766 17.094 42.766h9.5156z"/>
</defs>
<g transform="translate(282.83 587.44) scale(.1 -.1)">
<use xlink:href="#an"/>
<use x="59.179688" xlink:href="#e"/>
<use x="120.703125" xlink:href="#g"/>
<use x="161.816406" xlink:href="#v"/>
</g>
</g>
<g clip-path="url(#a)">
<g transform="translate(329.46 587.44) scale(.1 -.1)">
<use xlink:href="#n"/>
<use x="39.208984" xlink:href="#d"/>
<use x="100.488281" xlink:href="#w"/>
<use x="152.587891" xlink:href="#n"/>
<use x="191.796875" xlink:href="#v"/>
</g>
</g>
<g clip-path="url(#a)">
<defs>
<path id="am" d="m11.719 12.406h10.297v-8.4062l-8-15.625h-6.2969l4 15.625z"/>
</defs>
<g transform="translate(388.55 587.44) scale(.1 -.1)">
<use xlink:href="#am"/>
</g>
</g>
<g clip-path="url(#a)">
<defs>
<path id="aj" d="m48.688 27.297q0 9.9062-4.0781 15.547t-11.203 5.6406q-7.1406 0-11.219-5.6406t-4.0781-15.547 4.0781-15.547 11.219-5.6406q7.125 0 11.203 5.6406t4.0781 15.547zm-30.578 19.094q2.8438 4.875 7.1562 7.2344 4.3281 2.375 10.328 2.375 9.9688 0 16.188-7.9062 6.2344-7.9062 6.2344-20.797t-6.2344-20.812q-6.2188-7.9062-16.188-7.9062-6 0-10.328 2.375-4.3125 2.375-7.1562 7.25v-8.2031h-9.0312v75.984h9.0312z"/>
<path id="ao" d="m8.5 21.578v33.109h8.9844v-32.766q0-7.7656 3.0156-11.656 3.0312-3.875 9.0938-3.875 7.2656 0 11.484 4.6406 4.2344 4.6406 4.2344 12.656v31h8.9844v-54.688h-8.9844v8.4062q-3.2656-4.9844-7.5938-7.4062-4.3125-2.4219-10.031-2.4219-9.4219 0-14.312 5.8594-4.875 5.8594-4.875 17.141z"/>
</defs>
<g transform="translate(429.97 587.44) scale(.1 -.1)">
<use xlink:href="#aj"/>
<use x="63.476562" xlink:href="#ao"/>
<use x="126.855469" xlink:href="#n"/>
</g>
</g>
<g clip-path="url(#a)">
<defs>
<path id="av" d="m45.406 46.391v29.594h8.9844v-75.984h-8.9844v8.2031q-2.8281-4.875-7.1562-7.25-4.3125-2.375-10.375-2.375-9.9062 0-16.141 7.9062-6.2188 7.9219-6.2188 20.812t6.2188 20.797q6.2344 7.9062 16.141 7.9062 6.0625 0 10.375-2.375 4.3281-2.3594 7.1562-7.2344zm-30.609-19.094q0-9.9062 4.0781-15.547t11.203-5.6406 11.219 5.6406q4.1094 5.6406 4.1094 15.547t-4.1094 15.547q-4.0938 5.6406-11.219 5.6406t-11.203-5.6406-4.0781-15.547z"/>
</defs>
<g transform="translate(469.46 587.44) scale(.1 -.1)">
<use xlink:href="#w"/>
<use x="52.099609" xlink:href="#e"/>
<use x="113.623047" xlink:href="#g"/>
<use x="154.736328" xlink:href="#an"/>
<use x="213.916016" xlink:href="#e"/>
<use x="275.439453" xlink:href="#av"/>
</g>
</g>
<g clip-path="url(#a)">
<g transform="translate(529.51 587.44) scale(.1 -.1)">
<use xlink:href="#d"/>
<use x="61.279297" xlink:href="#n"/>
</g>
</g>
<g clip-path="url(#a)">
<g transform="translate(569.62 587.44) scale(.1 -.1)">
<use xlink:href="#g"/>
<use x="41.082031" xlink:href="#o"/>
<use x="102.263672" xlink:href="#o"/>
<use x="163.445312" xlink:href="#h"/>
</g>
</g>
<g clip-path="url(#a)">
<defs>
<path id="ar" d="m18.109 8.2031v-29h-9.0312v75.484h9.0312v-8.2969q2.8438 4.875 7.1562 7.2344 4.3281 2.375 10.328 2.375 9.9688 0 16.188-7.9062 6.2344-7.9062 6.2344-20.797t-6.2344-20.812q-6.2188-7.9062-16.188-7.9062-6 0-10.328 2.375-4.3125 2.375-7.1562 7.25zm30.578 19.094q0 9.9062-4.0781 15.547t-11.203 5.6406q-7.1406 0-11.219-5.6406t-4.0781-15.547 4.0781-15.547 11.219-5.6406q7.125 0 11.203 5.6406t4.0781 15.547z"/>
</defs>
<g transform="translate(599.26 587.44) scale(.1 -.1)">
<use xlink:href="#n"/>
<use x="39.208984" xlink:href="#e"/>
<use x="100.732422" xlink:href="#h"/>
<use x="198.144531" xlink:href="#ar"/>
<use x="261.621094" xlink:href="#e"/>
<use x="323.144531" xlink:href="#g"/>
<use x="364.257812" xlink:href="#d"/>
<use x="425.537109" xlink:href="#n"/>
<use x="464.746094" xlink:href="#ao"/>
<use x="528.125" xlink:href="#g"/>
<use x="569.207031" xlink:href="#e"/>
</g>
</g>
<g clip-path="url(#a)">
<g transform="translate(677.34 587.44) scale(.1 -.1)">
<use xlink:href="#am"/>
</g>
</g>
<g clip-path="url(#a)">
<g transform="translate(718.87 587.44) scale(.1 -.1)">
<use xlink:href="#i"/>
<use x="63.378906" xlink:href="#o"/>
<use x="124.560547" xlink:href="#n"/>
</g>
</g>
<g clip-path="url(#a)">
<g transform="translate(761.11 587.44) scale(.1 -.1)">
<use xlink:href="#ai"/>
<use x="81.787109" xlink:href="#d"/>
<use x="143.066406" xlink:href="#g"/>
<use x="184.164062" xlink:href="#h"/>
</g>
</g>
<g clip-path="url(#a)">
<g transform="translate(817.19 587.44) scale(.1 -.1)">
<use xlink:href="#aj"/>
<use x="63.476562" xlink:href="#v"/>
</g>
</g>
<g clip-path="url(#a)">
<g transform="translate(862.26 587.44) scale(.1 -.1)">
<use xlink:href="#d"/>
<use x="61.279297" xlink:href="#i"/>
<use x="124.658203" xlink:href="#v"/>
</g>
</g>
<g clip-path="url(#a)">
<g transform="translate(902.01 587.44) scale(.1 -.1)">
<use xlink:href="#w"/>
<use x="52.099609" xlink:href="#n"/>
<use x="91.308594" xlink:href="#g"/>
<use x="132.390625" xlink:href="#e"/>
<use x="193.914062" xlink:href="#n"/>
<use x="233.123047" xlink:href="#s"/>
<use x="288.103516" xlink:href="#x"/>
</g>
</g>
<g clip-path="url(#a)">
<defs>
<path id="au" d="m37.109 75.984v-7.4844h-8.5938q-4.8281 0-6.7188-1.9531-1.875-1.9531-1.875-7.0312v-4.8281h14.797v-6.9844h-14.797v-47.703h-9.0312v47.703h-8.5938v6.9844h8.5938v3.8125q0 9.125 4.25 13.297 4.25 4.1875 13.469 4.1875z"/>
</defs>
<g transform="translate(962.89 587.44) scale(.1 -.1)">
<use xlink:href="#o"/>
<use x="61.181641" xlink:href="#au"/>
</g>
</g>
<g clip-path="url(#a)">
<g transform="translate(1007.6 587.44) scale(.1 -.1)">
<use xlink:href="#n"/>
<use x="39.208984" xlink:href="#x"/>
<use x="102.587891" xlink:href="#e"/>
</g>
</g>
<g clip-path="url(#a)">
<defs>
<path id="at" d="m45.406 27.984q0 9.7656-4.0312 15.125-4.0156 5.375-11.297 5.375-7.2188 0-11.25-5.375-4.0312-5.3594-4.0312-15.125 0-9.7188 4.0312-15.094t11.25-5.375q7.2812 0 11.297 5.375 4.0312 5.375 4.0312 15.094zm8.9844-21.203q0-13.953-6.2031-20.766-6.1875-6.8125-18.984-6.8125-4.7344 0-8.9375 0.70312t-8.1562 2.1719v8.7344q3.9531-2.1406 7.8125-3.1562 3.8594-1.0312 7.8594-1.0312 8.8438 0 13.234 4.6094t4.3906 13.938v4.4531q-2.7812-4.8438-7.125-7.2344t-10.406-2.3906q-10.047 0-16.203 7.6562-6.1562 7.6719-6.1562 20.328 0 12.688 6.1562 20.344 6.1562 7.6719 16.203 7.6719 6.0625 0 10.406-2.3906t7.125-7.2188v8.2969h8.9844z"/>
</defs>
<g transform="translate(1034.3 587.44) scale(.1 -.1)">
<use xlink:href="#j"/>
<use x="27.783203" xlink:href="#h"/>
<use x="125.195312" xlink:href="#d"/>
<use x="186.474609" xlink:href="#at"/>
<use x="249.951172" xlink:href="#j"/>
<use x="277.734375" xlink:href="#i"/>
<use x="341.113281" xlink:href="#d"/>
<use x="402.392578" xlink:href="#n"/>
<use x="441.601562" xlink:href="#j"/>
<use x="469.384766" xlink:href="#o"/>
<use x="530.566406" xlink:href="#i"/>
</g>
</g>
<g clip-path="url(#a)">
<defs>
<path id="f" d="m10.688 12.406h10.312v-12.406h-10.312z"/>
</defs>
<g transform="translate(1110.5 587.44) scale(.1 -.1)">
<use xlink:href="#f"/>
</g>
</g>
<g clip-path="url(#a)">
<defs>
<path id="c" d="m12.406 8.2969h16.109v55.625l-17.531-3.5156v8.9844l17.438 3.5156h9.8594v-64.609h16.109v-8.2969h-41.984z"/>
</defs>
<g transform="translate(439.61 31.412) scale(.1 -.1)">
<use xlink:href="#c"/>
<use x="63.623047" xlink:href="#f"/>
<use x="95.410156" xlink:href="#c"/>
</g>
</g>
<g clip-path="url(#a)">
<defs>
<path id="m" d="m19.188 8.2969h34.422v-8.2969h-46.281v8.2969q5.6094 5.8125 15.297 15.594 9.7031 9.7969 12.188 12.641 4.7344 5.3125 6.6094 9 1.8906 3.6875 1.8906 7.25 0 5.8125-4.0781 9.4688-4.0781 3.6719-10.625 3.6719-4.6406 0-9.7969-1.6094-5.1406-1.6094-11-4.8906v9.9688q5.9531 2.3906 11.125 3.6094 5.1875 1.2188 9.4844 1.2188 11.328 0 18.062-5.6719 6.7344-5.6562 6.7344-15.125 0-4.5-1.6875-8.5312-1.6719-4.0156-6.125-9.4844-1.2188-1.4219-7.7656-8.1875-6.5312-6.7656-18.453-18.922z"/>
</defs>
<g transform="translate(418.29 279.25) scale(.1 -.1)">
<use xlink:href="#c"/>
<use x="63.623047" xlink:href="#f"/>
<use x="95.410156" xlink:href="#m"/>
</g>
</g>
<g clip-path="url(#a)">
<defs>
<path id="p" d="m40.578 39.312q7.0781-1.5156 11.047-6.3125 3.9844-4.7812 3.9844-11.812 0-10.781-7.4219-16.703-7.4219-5.9062-21.094-5.9062-4.5781 0-9.4375 0.90625t-10.031 2.7188v9.5156q4.0938-2.3906 8.9688-3.6094 4.8906-1.2188 10.219-1.2188 9.2656 0 14.125 3.6562t4.8594 10.641q0 6.4531-4.5156 10.078-4.5156 3.6406-12.562 3.6406h-8.5v8.1094h8.8906q7.2656 0 11.125 2.9062t3.8594 8.375q0 5.6094-3.9844 8.6094-3.9688 3.0156-11.391 3.0156-4.0625 0-8.7031-0.89062-4.6406-0.875-10.203-2.7188v8.7812q5.625 1.5625 10.531 2.3438t9.25 0.78125q11.234 0 17.766-5.1094 6.5469-5.0938 6.5469-13.781 0-6.0625-3.4688-10.234t-9.8594-5.7812z"/>
</defs>
<g transform="translate(334.06 511.29) scale(.1 -.1)">
<use xlink:href="#c"/>
<use x="63.623047" xlink:href="#f"/>
<use x="95.410156" xlink:href="#p"/>
</g>
</g>
<g clip-path="url(#a)">
<defs>
<path id="ag" d="m37.797 64.312-24.906-38.922h24.906zm-2.5938 8.5938h12.406v-47.516h10.406v-8.2031h-10.406v-17.188h-9.8125v17.188h-32.906v9.5156z"/>
</defs>
<g transform="translate(129.5 357.94) scale(.1 -.1)">
<use xlink:href="#c"/>
<use x="63.623047" xlink:href="#f"/>
<use x="95.410156" xlink:href="#ag"/>
</g>
</g>
<g clip-path="url(#a)">
<defs>
<path id="af" d="m10.797 72.906h38.719v-8.3125h-29.688v-17.859q2.1406 0.73438 4.2812 1.0938 2.1562 0.35938 4.3125 0.35938 12.203 0 19.328-6.6875 7.1406-6.6875 7.1406-18.109 0-11.766-7.3281-18.297-7.3281-6.5156-20.656-6.5156-4.5938 0-9.3594 0.78125-4.75 0.78125-9.8281 2.3438v9.9219q4.3906-2.3906 9.0781-3.5625t9.9062-1.1719q8.4531 0 13.375 4.4375 4.9375 4.4375 4.9375 12.062 0 7.6094-4.9375 12.047-4.9219 4.4531-13.375 4.4531-3.9531 0-7.8906-0.875-3.9219-0.875-8.0156-2.7344z"/>
</defs>
<g transform="translate(189.67 511.29) scale(.1 -.1)">
<use xlink:href="#c"/>
<use x="63.623047" xlink:href="#f"/>
<use x="95.410156" xlink:href="#af"/>
</g>
</g>
<g clip-path="url(#a)">
<defs>
<path id="ae" d="m33.016 40.375q-6.6406 0-10.531-4.5469-3.875-4.5312-3.875-12.438 0-7.8594 3.875-12.438 3.8906-4.5625 10.531-4.5625t10.516 4.5625q3.875 4.5781 3.875 12.438 0 7.9062-3.875 12.438-3.875 4.5469-10.516 4.5469zm19.578 30.922v-8.9844q-3.7188 1.75-7.5 2.6719-3.7812 0.9375-7.5 0.9375-9.7656 0-14.922-6.5938-5.1406-6.5938-5.875-19.922 2.875 4.25 7.2188 6.5156 4.3594 2.2656 9.5781 2.2656 10.984 0 17.359-6.6719 6.375-6.6562 6.375-18.125 0-11.234-6.6406-18.031-6.6406-6.7812-17.672-6.7812-12.656 0-19.344 9.6875-6.6875 9.7031-6.6875 28.109 0 17.281 8.2031 27.562t22.016 10.281q3.7188 0 7.5-0.73438t7.8906-2.1875z"/>
</defs>
<g transform="translate(237.8 511.29) scale(.1 -.1)">
<use xlink:href="#c"/>
<use x="63.623047" xlink:href="#f"/>
<use x="95.410156" xlink:href="#ae"/>
</g>
</g>
<g clip-path="url(#a)">
<defs>
<path id="ad" d="m8.2031 72.906h46.875v-4.2031l-26.469-68.703h-10.297l24.906 64.594h-35.016z"/>
</defs>
<g transform="translate(285.93 511.29) scale(.1 -.1)">
<use xlink:href="#c"/>
<use x="63.623047" xlink:href="#f"/>
<use x="95.410156" xlink:href="#ad"/>
</g>
</g>
<g clip-path="url(#a)">
<defs>
<path id="ac" d="m31.781 34.625q-7.0312 0-11.062-3.7656-4.0156-3.7656-4.0156-10.344 0-6.5938 4.0156-10.359 4.0312-3.7656 11.062-3.7656t11.078 3.7812q4.0625 3.7969 4.0625 10.344 0 6.5781-4.0312 10.344-4.0156 3.7656-11.109 3.7656zm-9.8594 4.1875q-6.3438 1.5625-9.8906 5.9062-3.5312 4.3594-3.5312 10.609 0 8.7344 6.2188 13.812 6.2344 5.0781 17.062 5.0781 10.891 0 17.094-5.0781t6.2031-13.812q0-6.25-3.5469-10.609-3.5312-4.3438-9.8281-5.9062 7.125-1.6562 11.094-6.5 3.9844-4.8281 3.9844-11.797 0-10.609-6.4688-16.281-6.4688-5.6562-18.531-5.6562-12.047 0-18.531 5.6562-6.4688 5.6719-6.4688 16.281 0 6.9688 4 11.797 4.0156 4.8438 11.141 6.5zm-3.6094 15.578q0-5.6562 3.5312-8.8281 3.5469-3.1719 9.9375-3.1719 6.3594 0 9.9375 3.1719 3.5938 3.1719 3.5938 8.8281 0 5.6719-3.5938 8.8438-3.5781 3.1719-9.9375 3.1719-6.3906 0-9.9375-3.1719-3.5312-3.1719-3.5312-8.8438z"/>
</defs>
<g transform="translate(430.32 511.29) scale(.1 -.1)">
<use xlink:href="#c"/>
<use x="63.623047" xlink:href="#f"/>
<use x="95.410156" xlink:href="#ac"/>
</g>
</g>
<g clip-path="url(#a)">
<defs>
<path id="ab" d="m10.984 1.5156v8.9844q3.7188-1.7656 7.5156-2.6875 3.8125-0.92188 7.4844-0.92188 9.7656 0 14.906 6.5625 5.1562 6.5625 5.8906 19.953-2.8281-4.2031-7.1875-6.4531-4.3438-2.25-9.6094-2.25-10.938 0-17.312 6.6094-6.375 6.625-6.375 18.109 0 11.219 6.6406 18 6.6406 6.7969 17.672 6.7969 12.656 0 19.312-9.7031 6.6719-9.6875 6.6719-28.141 0-17.234-8.1875-27.516-8.1719-10.281-21.984-10.281-3.7188 0-7.5312 0.73438-3.7969 0.73438-7.9062 2.2031zm19.625 30.906q6.6406 0 10.516 4.5312 3.8906 4.5469 3.8906 12.469 0 7.8594-3.8906 12.422-3.875 4.5625-10.516 4.5625t-10.516-4.5625-3.875-12.422q0-7.9219 3.875-12.469 3.875-4.5312 10.516-4.5312z"/>
</defs>
<g transform="translate(470.23 116.23) scale(.1 -.1)">
<use xlink:href="#c"/>
<use x="63.623047" xlink:href="#f"/>
<use x="95.410156" xlink:href="#ab"/>
</g>
</g>
<g clip-path="url(#a)">
<defs>
<path id="ah" d="m31.781 66.406q-7.6094 0-11.453-7.5-3.8281-7.4844-3.8281-22.531 0-14.984 3.8281-22.484 3.8438-7.5 11.453-7.5 7.6719 0 11.5 7.5 3.8438 7.5 3.8438 22.484 0 15.047-3.8438 22.531-3.8281 7.5-11.5 7.5zm0 7.8125q12.266 0 18.734-9.7031 6.4688-9.6875 6.4688-28.141 0-18.406-6.4688-28.109-6.4688-9.6875-18.734-9.6875-12.25 0-18.719 9.6875-6.4688 9.7031-6.4688 28.109 0 18.453 6.4688 28.141 6.4688 9.7031 18.719 9.7031z"/>
</defs>
<g transform="translate(475.27 511.29) scale(.1 -.1)">
<use xlink:href="#c"/>
<use x="63.623047" xlink:href="#f"/>
<use x="95.410156" xlink:href="#c"/>
<use x="159.033203" xlink:href="#ah"/>
</g>
</g>
<g clip-path="url(#a)">
<g transform="translate(1101 511.29) scale(.1 -.1)">
<use xlink:href="#c"/>
<use x="63.623047" xlink:href="#f"/>
<use x="95.410156" xlink:href="#c"/>
<use x="159.033203" xlink:href="#c"/>
</g>
</g>
<g clip-path="url(#a)">
<g transform="translate(42.094 511.29) scale(.1 -.1)">
<use xlink:href="#c"/>
<use x="63.623047" xlink:href="#f"/>
<use x="95.410156" xlink:href="#c"/>
<use x="159.033203" xlink:href="#m"/>
</g>
</g>
<g clip-path="url(#a)">
<g transform="translate(138.36 435.15) scale(.1 -.1)">
<use xlink:href="#c"/>
<use x="63.623047" xlink:href="#f"/>
<use x="95.410156" xlink:href="#c"/>
<use x="159.033203" xlink:href="#p"/>
</g>
</g>
<g clip-path="url(#a)">
<g transform="translate(90.225 511.29) scale(.1 -.1)">
<use xlink:href="#c"/>
<use x="63.623047" xlink:href="#f"/>
<use x="95.410156" xlink:href="#c"/>
<use x="159.033203" xlink:href="#ag"/>
</g>
</g>
<g clip-path="url(#a)">
<g transform="translate(138.36 511.29) scale(.1 -.1)">
<use xlink:href="#c"/>
<use x="63.623047" xlink:href="#f"/>
<use x="95.410156" xlink:href="#c"/>
<use x="159.033203" xlink:href="#af"/>
</g>
</g>
<g clip-path="url(#a)">
<g transform="translate(379.01 511.29) scale(.1 -.1)">
<use xlink:href="#c"/>
<use x="63.623047" xlink:href="#f"/>
<use x="95.410156" xlink:href="#c"/>
<use x="159.033203" xlink:href="#ae"/>
</g>
</g>
<g clip-path="url(#a)">
<g transform="translate(626.68 198.76) scale(.1 -.1)">
<use xlink:href="#c"/>
<use x="63.623047" xlink:href="#f"/>
<use x="95.410156" xlink:href="#c"/>
<use x="159.033203" xlink:href="#ad"/>
</g>
</g>
<g clip-path="url(#a)">
<g transform="translate(619.66 511.29) scale(.1 -.1)">
<use xlink:href="#c"/>
<use x="63.623047" xlink:href="#f"/>
<use x="95.410156" xlink:href="#c"/>
<use x="159.033203" xlink:href="#ac"/>
</g>
</g>
<g clip-path="url(#a)">
<g transform="translate(667.8 511.29) scale(.1 -.1)">
<use xlink:href="#c"/>
<use x="63.623047" xlink:href="#f"/>
<use x="95.410156" xlink:href="#c"/>
<use x="159.033203" xlink:href="#ab"/>
</g>
</g>
<g clip-path="url(#a)">
<g transform="translate(523.4 511.29) scale(.1 -.1)">
<use xlink:href="#c"/>
<use x="63.623047" xlink:href="#f"/>
<use x="95.410156" xlink:href="#m"/>
<use x="159.033203" xlink:href="#ah"/>
</g>
</g>
<g clip-path="url(#a)">
<g transform="translate(571.53 511.29) scale(.1 -.1)">
<use xlink:href="#c"/>
<use x="63.623047" xlink:href="#f"/>
<use x="95.410156" xlink:href="#m"/>
<use x="159.033203" xlink:href="#c"/>
</g>
</g>
<g clip-path="url(#a)">
<g transform="translate(792.13 279.25) scale(.1 -.1)">
<use xlink:href="#c"/>
<use x="63.623047" xlink:href="#f"/>
<use x="95.410156" xlink:href="#m"/>
<use x="159.033203" xlink:href="#m"/>
</g>
</g>
<g clip-path="url(#a)">
<g transform="translate(764.06 511.29) scale(.1 -.1)">
<use xlink:href="#c"/>
<use x="63.623047" xlink:href="#f"/>
<use x="95.410156" xlink:href="#m"/>
<use x="159.033203" xlink:href="#p"/>
</g>
</g>
<g clip-path="url(#a)">
<g transform="translate(715.93 511.29) scale(.1 -.1)">
<use xlink:href="#c"/>
<use x="63.623047" xlink:href="#f"/>
<use x="95.410156" xlink:href="#m"/>
<use x="159.033203" xlink:href="#ag"/>
</g>
</g>
<g clip-path="url(#a)">
<g transform="translate(896.42 357.94) scale(.1 -.1)">
<use xlink:href="#c"/>
<use x="63.623047" xlink:href="#f"/>
<use x="95.410156" xlink:href="#m"/>
<use x="159.033203" xlink:href="#af"/>
</g>
</g>
<g clip-path="url(#a)">
<g transform="translate(908.45 511.29) scale(.1 -.1)">
<use xlink:href="#c"/>
<use x="63.623047" xlink:href="#f"/>
<use x="95.410156" xlink:href="#m"/>
<use x="159.033203" xlink:href="#ae"/>
</g>
</g>
<g clip-path="url(#a)">
<g transform="translate(812.19 511.29) scale(.1 -.1)">
<use xlink:href="#c"/>
<use x="63.623047" xlink:href="#f"/>
<use x="95.410156" xlink:href="#m"/>
<use x="159.033203" xlink:href="#ad"/>
</g>
</g>
<g clip-path="url(#a)">
<g transform="translate(860.32 511.29) scale(.1 -.1)">
<use xlink:href="#c"/>
<use x="63.623047" xlink:href="#f"/>
<use x="95.410156" xlink:href="#m"/>
<use x="159.033203" xlink:href="#ac"/>
</g>
</g>
<g clip-path="url(#a)">
<g transform="translate(1004.7 435.15) scale(.1 -.1)">
<use xlink:href="#c"/>
<use x="63.623047" xlink:href="#f"/>
<use x="95.410156" xlink:href="#m"/>
<use x="159.033203" xlink:href="#ab"/>
</g>
</g>
<g clip-path="url(#a)">
<g transform="translate(1052.8 511.29) scale(.1 -.1)">
<use xlink:href="#c"/>
<use x="63.623047" xlink:href="#f"/>
<use x="95.410156" xlink:href="#p"/>
<use x="159.033203" xlink:href="#ah"/>
</g>
</g>
<g clip-path="url(#a)">
<g transform="translate(956.58 511.29) scale(.1 -.1)">
<use xlink:href="#c"/>
<use x="63.623047" xlink:href="#f"/>
<use x="95.410156" xlink:href="#p"/>
<use x="159.033203" xlink:href="#c"/>
</g>
</g>
<g clip-path="url(#a)">
<g transform="translate(1004.7 511.29) scale(.1 -.1)">
<use xlink:href="#c"/>
<use x="63.623047" xlink:href="#f"/>
<use x="95.410156" xlink:href="#p"/>
<use x="159.033203" xlink:href="#m"/>
</g>
</g>
<defs>
<clipPath id="a">
<rect width="1165.3" height="613.33"/>
</clipPath>
</defs>
</svg>
