<?xml version="1.0" encoding="UTF-8"?>
<!DOCTYPE svg  PUBLIC '-//W3C//DTD SVG 1.1//EN'  'http://www.w3.org/Graphics/SVG/1.1/DTD/svg11.dtd'>
<svg width="1672pt" height="880pt" version="1.1" viewBox="0 0 1672 880" xmlns="http://www.w3.org/2000/svg" xmlns:xlink="http://www.w3.org/1999/xlink">
<defs>
<style type="text/css">*{stroke-linecap:butt;stroke-linejoin:round;}</style>
</defs>
<path d="m0 880h1672v-880h-1672z" fill="#fff"/>
<g fill="none" stroke="#000">
<path d="m1050.4 40.914-440.23 139.8" clip-path="url(#a)"/>
<path d="m1050.4 40.914-107.52 276.13" clip-path="url(#a)"/>
<path d="m1050.4 40.914 213.03 669.19" clip-path="url(#a)"/>
<path d="m1050.4 40.914 334.72 276.13" clip-path="url(#a)"/>
<path d="m610.14 180.72-106.56 529.39" clip-path="url(#a)"/>
<path d="m610.14 180.72-422.36 136.33" clip-path="url(#a)"/>
<path d="m610.14 180.72-249.03 529.39" clip-path="url(#a)"/>
<path d="m610.14 180.72-201.54 529.39" clip-path="url(#a)"/>
<path d="m610.14 180.72-154.05 529.39" clip-path="url(#a)"/>
<path d="m610.14 180.72 985.69 529.39" clip-path="url(#a)"/>
<path d="m610.14 180.72 147.85 136.33" clip-path="url(#a)"/>
<path d="m503.58 710.1v128.98" clip-path="url(#a)"/>
<path d="m187.78 317.05 125.85 393.05" clip-path="url(#a)"/>
<path d="m187.78 317.05-111.6 393.05" clip-path="url(#a)"/>
<path d="m187.78 317.05-64.11 393.05" clip-path="url(#a)"/>
<path d="m187.78 317.05-16.621 393.05" clip-path="url(#a)"/>
<path d="m187.78 317.05 66.485 133.3" clip-path="url(#a)"/>
<path d="m313.62 710.1v128.98" clip-path="url(#a)"/>
<path d="m361.11 710.1v128.98" clip-path="url(#a)"/>
<path d="m408.6 710.1v128.98" clip-path="url(#a)"/>
<path d="m456.09 710.1v128.98" clip-path="url(#a)"/>
<path d="m757.98 450.34-16.96 259.76" clip-path="url(#a)"/>
<path d="m757.98 450.34-206.92 259.76" clip-path="url(#a)"/>
<path d="m757.98 450.34-88.194 130.78" clip-path="url(#a)"/>
<path d="m757.98 450.34-64.449 130.78" clip-path="url(#a)"/>
<path d="m757.98 450.34-64.449 259.76" clip-path="url(#a)"/>
<path d="m757.98 450.34 30.529 259.76" clip-path="url(#a)"/>
<path d="m757.98 450.34 410.44 130.78" clip-path="url(#a)"/>
<path d="m741.02 710.1v128.98" clip-path="url(#a)"/>
<path d="m942.85 317.05-59.361 393.05" clip-path="url(#a)"/>
<path d="m942.85 317.05-106.85 393.05" clip-path="url(#a)"/>
<path d="m942.85 317.05 130.59 393.05" clip-path="url(#a)"/>
<path d="m942.85 317.05 35.617 133.3" clip-path="url(#a)"/>
<path d="m883.49 710.1v128.98" clip-path="url(#a)"/>
<path d="m1263.4 710.1v128.98" clip-path="url(#a)"/>
<path d="m1385.1 317.05-74.201 393.05" clip-path="url(#a)"/>
<path d="m1385.1 317.05 74.201 133.3" clip-path="url(#a)"/>
<path d="m1310.9 710.1v128.98" clip-path="url(#a)"/>
<path d="m1595.8 710.1v128.98" clip-path="url(#a)"/>
<path d="m76.177 710.1v128.98" clip-path="url(#a)"/>
<path d="m123.67 710.1v128.98" clip-path="url(#a)"/>
<path d="m171.15 710.1v128.98" clip-path="url(#a)"/>
<path d="m254.26 450.34 11.872 259.76" clip-path="url(#a)"/>
<path d="m254.26 450.34-11.872 130.78" clip-path="url(#a)"/>
<path d="m266.13 710.1v128.98" clip-path="url(#a)"/>
<path d="m551.07 710.1v128.98" clip-path="url(#a)"/>
<path d="m669.79 581.12 71.233 128.98" clip-path="url(#a)" stroke-dasharray="3.7,1.6"/>
<path d="m669.79 581.12-71.233 128.98" clip-path="url(#a)"/>
<path d="m598.56 710.1v128.98" clip-path="url(#a)"/>
<path d="m693.53 581.12 47.489 128.98" clip-path="url(#a)" stroke-dasharray="3.7,1.6"/>
<path d="m693.53 581.12-47.489 128.98" clip-path="url(#a)"/>
<path d="m646.04 710.1v128.98" clip-path="url(#a)"/>
<path d="m693.53 710.1v128.98" clip-path="url(#a)"/>
<path d="m788.51 710.1v128.98" clip-path="url(#a)"/>
<path d="m836 710.1v128.98" clip-path="url(#a)"/>
<path d="m954.72 581.12 23.744 128.98" clip-path="url(#a)"/>
<path d="m954.72 581.12-23.744 128.98" clip-path="url(#a)"/>
<path d="m978.47 710.1v128.98" clip-path="url(#a)"/>
<path d="m1002.2 581.12-23.744 128.98" clip-path="url(#a)" stroke-dasharray="3.7,1.6"/>
<path d="m1002.2 581.12 23.744 128.98" clip-path="url(#a)"/>
<path d="m1026 710.1v128.98" clip-path="url(#a)"/>
<path d="m1073.4 710.1v128.98" clip-path="url(#a)"/>
<path d="m1168.4 581.12 47.489 128.98" clip-path="url(#a)"/>
<path d="m1168.4 581.12-47.489 128.98" clip-path="url(#a)"/>
<path d="m1168.4 581.12v128.98" clip-path="url(#a)"/>
<path d="m1215.9 710.1v128.98" clip-path="url(#a)"/>
<path d="m1459.3 450.34 41.553 259.76" clip-path="url(#a)"/>
<path d="m1459.3 450.34-100.91 259.76" clip-path="url(#a)"/>
<path d="m1459.3 450.34-29.681 130.78" clip-path="url(#a)"/>
<path d="m1459.3 450.34 89.042 259.76" clip-path="url(#a)"/>
<path d="m1500.8 710.1v128.98" clip-path="url(#a)"/>
<path d="m242.39 581.12 23.744 128.98" clip-path="url(#a)" stroke-dasharray="3.7,1.6"/>
<path d="m242.39 581.12-23.744 128.98" clip-path="url(#a)"/>
<path d="m218.64 710.1v128.98" clip-path="url(#a)"/>
<path d="m930.98 710.1v128.98" clip-path="url(#a)"/>
<path d="m1120.9 710.1v128.98" clip-path="url(#a)"/>
<path d="m1168.4 710.1v128.98" clip-path="url(#a)"/>
<path d="m1358.4 710.1v128.98" clip-path="url(#a)"/>
<path d="m1429.6 581.12 23.744 128.98" clip-path="url(#a)"/>
<path d="m1429.6 581.12-23.744 128.98" clip-path="url(#a)"/>
<path d="m1453.4 710.1v128.98" clip-path="url(#a)"/>
<path d="m1548.3 710.1v128.98" clip-path="url(#a)"/>
<path d="m1405.9 710.1v128.98" clip-path="url(#a)"/>
<path d="m757.98 317.05v133.3" clip-path="url(#a)"/>
<path d="m978.47 450.34-23.744 130.78" clip-path="url(#a)"/>
<path d="m978.47 450.34 23.744 130.78" clip-path="url(#a)"/>
</g>
<path d="m829.28 117.7 5.7341-1.8209q2.2874-0.72641 1.561-3.0138l-2.3434-7.3793q-0.72641-2.2874-3.0138-1.561l-5.7341 1.8209q-2.2874 0.72641-1.561 3.0138l2.3434 7.3793q0.72641 2.2874 3.0138 1.561z" clip-path="url(#a)" fill="#fff" stroke="#fff"/>
<g clip-path="url(#a)">
<defs>
<path id="ak" d="m9.8125 72.906h9.8594v-29.891h35.844v29.891h9.8594v-72.906h-9.8594v34.719h-35.844v-34.719h-9.8594z"/>
</defs>
<g transform="translate(828.05 113.83) rotate(-17.618) scale(.08 -.08)">
<use xlink:href="#ak"/>
</g>
</g>
<path d="m1001.4 184.06 2.1829-5.6063q0.87081-2.2364-1.3656-3.1073l-7.2149-2.8093q-2.2364-0.87081-3.1073 1.3656l-2.1829 5.6063q-0.87081 2.2364 1.3656 3.1073l7.2149 2.8093q2.2364 0.87081 3.1073-1.3656z" clip-path="url(#a)" fill="#fff" stroke="#fff"/>
<g clip-path="url(#a)">
<g transform="translate(997.58 182.59) rotate(-68.725) scale(.08 -.08)">
<use xlink:href="#ak"/>
</g>
</g>
<path d="m1150.2 375.29 1.3521 4.2475q0.72802 2.2869 3.0149 1.5589l7.3777-2.3486q2.2869-0.72802 1.5589-3.0149l-1.3521-4.2475q-0.72802-2.2869-3.0149-1.5589l-7.3777 2.3486q-2.2869 0.72802-1.5589 3.0149z" clip-path="url(#a)" fill="#fff" stroke="#fff"/>
<g clip-path="url(#a)">
<defs>
<path id="au" d="m9.8125 72.906h9.8594v-64.609h35.5v-8.2969h-45.359z"/>
</defs>
<g transform="translate(1154.1 374.05) rotate(72.342) scale(.08 -.08)">
<use xlink:href="#au"/>
</g>
</g>
<path d="m1211.4 181.9 4.6408 3.8286q1.8513 1.5273 3.3786-0.32404l4.9271-5.9724q1.5273-1.8513-0.32404-3.3786l-4.6408-3.8286q-1.8513-1.5273-3.3786 0.32404l-4.9271 5.9724q-1.5273 1.8513 0.32404 3.3786z" clip-path="url(#a)" fill="#fff" stroke="#fff"/>
<g clip-path="url(#a)">
<g transform="translate(1214 178.77) rotate(39.522) scale(.08 -.08)">
<use xlink:href="#ak"/>
</g>
</g>
<path d="m562.53 449.01 0.95187-4.7289q0.47359-2.3528-1.8792-2.8264l-7.5903-1.5278q-2.3528-0.47359-2.8264 1.8792l-0.95187 4.7289q-0.47359 2.3528 1.8792 2.8264l7.5903 1.5278q2.3528 0.47359 2.8264-1.8792z" clip-path="url(#a)" fill="#fff" stroke="#fff"/>
<g clip-path="url(#a)">
<defs>
<path id="t" d="m19.672 64.797v-27.391h12.406q6.8906 0 10.641 3.5625 3.7656 3.5625 3.7656 10.156 0 6.5469-3.7656 10.109-3.75 3.5625-10.641 3.5625zm-9.8594 8.1094h22.266q12.266 0 18.531-5.5469 6.2812-5.5469 6.2812-16.234 0-10.797-6.2812-16.312-6.2656-5.5156-18.531-5.5156h-12.406v-29.297h-9.8594z"/>
</defs>
<g transform="translate(558.55 448.21) rotate(-78.619) scale(.08 -.08)">
<use xlink:href="#t"/>
</g>
</g>
<path d="m398.28 255.69 5.2079-1.681q2.284-0.73723 1.5467-3.0212l-2.3783-7.3682q-0.73723-2.284-3.0212-1.5467l-5.2079 1.681q-2.284 0.73723-1.5467 3.0212l2.3783 7.3682q0.73723 2.284 3.0212 1.5467z" clip-path="url(#a)" fill="#fff" stroke="#fff"/>
<g clip-path="url(#a)">
<defs>
<path id="p" d="m34.188 63.188-13.391-36.281h26.812zm-5.5781 9.7188h11.188l27.781-72.906h-10.25l-6.6406 18.703h-32.859l-6.6406-18.703h-10.406z"/>
</defs>
<g transform="translate(397.03 251.82) rotate(-17.889) scale(.08 -.08)">
<use xlink:href="#p"/>
</g>
</g>
<path d="m490.05 450.73 2.4922-5.2981q1.0216-2.1717-1.1501-3.1933l-7.0061-3.2957q-2.1717-1.0216-3.1933 1.1501l-2.4922 5.2981q-1.0216 2.1717 1.1501 3.1933l7.0061 3.2957q2.1717 1.0216 3.1933-1.1501z" clip-path="url(#a)" fill="#fff" stroke="#fff"/>
<g clip-path="url(#a)">
<defs>
<path id="u" d="m8.6875 72.906h9.9219v-44.297q0-11.719 4.2344-16.875 4.25-5.1406 13.781-5.1406 9.4688 0 13.719 5.1406 4.25 5.1562 4.25 16.875v44.297h9.9062v-45.516q0-14.25-7.0625-21.531-7.0469-7.2812-20.812-7.2812-13.828 0-20.891 7.2812-7.0469 7.2812-7.0469 21.531z"/>
</defs>
<g transform="translate(486.38 449) rotate(-64.807) scale(.08 -.08)">
<use xlink:href="#u"/>
</g>
</g>
<path d="m514.26 450.2 1.9471-5.1144q0.85389-2.243-1.3891-3.0969l-7.2359-2.7547q-2.243-0.85389-3.0969 1.3891l-1.9471 5.1144q-0.85389 2.243 1.3891 3.0969l7.2359 2.7547q2.243 0.85389 3.0969-1.3891z" clip-path="url(#a)" fill="#fff" stroke="#fff"/>
<g clip-path="url(#a)">
<g transform="translate(510.46 448.75) rotate(-69.158) scale(.08 -.08)">
<use xlink:href="#p"/>
</g>
</g>
<path d="m538.49 449.37 1.2856-4.418q0.67057-2.3044-1.6338-2.975l-7.4341-2.1633q-2.3044-0.67057-2.975 1.6338l-1.2856 4.418q-0.67057 2.3044 1.6338 2.975l7.4341 2.1633q2.3044 0.67057 2.975-1.6338z" clip-path="url(#a)" fill="#fff" stroke="#fff"/>
<g clip-path="url(#a)">
<defs>
<path id="v" d="m9.8125 72.906h41.891v-8.3125h-32.031v-21.484h28.906v-8.2969h-28.906v-34.812h-9.8594z"/>
</defs>
<g transform="translate(534.59 448.24) rotate(-73.775) scale(.08 -.08)">
<use xlink:href="#v"/>
</g>
</g>
<path d="m1097.4 449.55 5.1581 2.7703q2.1144 1.1356 3.2499-0.97879l3.6634-6.821q1.1356-2.1144-0.97879-3.2499l-5.1581-2.7703q-2.1144-1.1356-3.2499 0.97879l-3.6634 6.821q-1.1356 2.1144 0.97879 3.2499z" clip-path="url(#a)" fill="#fff" stroke="#fff"/>
<g clip-path="url(#a)">
<g transform="translate(1099.4 445.97) rotate(28.239) scale(.08 -.08)">
<use xlink:href="#u"/>
</g>
</g>
<path d="m678.04 251.86 3.5462 3.27q1.7644 1.627 3.3913-0.1374l5.2487-5.6919q1.627-1.7644-0.1374-3.3913l-3.5462-3.27q-1.7644-1.627-3.3913 0.1374l-5.2487 5.6919q-1.627 1.7644 0.1374 3.3913z" clip-path="url(#a)" fill="#fff" stroke="#fff"/>
<g clip-path="url(#a)">
<g transform="translate(680.79 248.87) rotate(42.68) scale(.08 -.08)">
<use xlink:href="#t"/>
</g>
</g>
<path d="m497.31 756.95v35.285q0 2.4 2.4 2.4h7.7425q2.4 0 2.4-2.4v-35.285q0-2.4-2.4-2.4h-7.7425q-2.4 0-2.4 2.4z" clip-path="url(#a)" fill="#fff" stroke="#fff"/>
<g clip-path="url(#a)">
<defs>
<path id="l" d="m-0.29688 72.906h61.672v-8.3125h-25.875v-64.594h-9.9062v64.594h-25.891z"/>
<path id="d" d="m56.203 29.594v-4.3906h-41.312q0.59375-9.2812 5.5938-14.141t13.938-4.8594q5.1719 0 10.031 1.2656t9.6562 3.8125v-8.5q-4.8438-2.0469-9.9219-3.125t-10.297-1.0781q-13.094 0-20.734 7.6094-7.6406 7.625-7.6406 20.625 0 13.422 7.25 21.297 7.25 7.8906 19.562 7.8906 11.031 0 17.453-7.1094 6.4219-7.0938 6.4219-19.297zm-8.9844 2.6406q-0.09375 7.3594-4.125 11.75-4.0312 4.4062-10.672 4.4062-7.5156 0-12.031-4.25t-5.2031-11.969z"/>
<path id="j" d="m41.109 46.297q-1.5156 0.875-3.2969 1.2812-1.7812 0.42188-3.9219 0.42188-7.625 0-11.703-4.9531t-4.0781-14.234v-28.812h-9.0312v54.688h9.0312v-8.5q2.8438 4.9844 7.375 7.3906 4.5469 2.4219 11.047 2.4219 0.92188 0 2.0469-0.125 1.125-0.10938 2.4844-0.35938z"/>
<path id="k" d="m52 44.188q3.375 6.0625 8.0625 8.9375t11.031 2.875q8.5469 0 13.188-5.9844 4.6406-5.9688 4.6406-17v-33.016h-9.0312v32.719q0 7.8594-2.7969 11.656-2.7812 3.8125-8.4844 3.8125-6.9844 0-11.047-4.6406-4.0469-4.625-4.0469-12.641v-30.906h-9.0312v32.719q0 7.9062-2.7812 11.688t-8.5938 3.7812q-6.8906 0-10.953-4.6562-4.0469-4.6562-4.0469-12.625v-30.906h-9.0312v54.688h9.0312v-8.5q3.0781 5.0312 7.375 7.4219t10.203 2.3906q5.9688 0 10.141-3.0312 4.1719-3.0156 6.1719-8.7812z"/>
<path id="i" d="m9.4219 54.688h8.9844v-54.688h-8.9844zm0 21.297h8.9844v-11.391h-8.9844z"/>
<path id="h" d="m54.891 33.016v-33.016h-8.9844v32.719q0 7.7656-3.0312 11.609-3.0312 3.8594-9.0781 3.8594-7.2812 0-11.484-4.6406-4.2031-4.625-4.2031-12.641v-30.906h-9.0312v54.688h9.0312v-8.5q3.2344 4.9375 7.5938 7.375 4.375 2.4375 10.094 2.4375 9.4219 0 14.25-5.8281 4.8438-5.8281 4.8438-17.156z"/>
<path id="g" d="m34.281 27.484q-10.891 0-15.094-2.4844t-4.2031-8.5q0-4.7812 3.1562-7.5938 3.1562-2.7969 8.5625-2.7969 7.4844 0 12 5.2969t4.5156 14.078v2zm17.922 3.7188v-31.203h-8.9844v8.2969q-3.0781-4.9688-7.6719-7.3438t-11.234-2.375q-8.3906 0-13.359 4.7188-4.9531 4.7188-4.9531 12.625 0 9.2188 6.1719 13.906 6.1875 4.6875 18.438 4.6875h12.609v0.89062q0 6.2031-4.0781 9.5938t-11.453 3.3906q-4.6875 0-9.1406-1.125-4.4375-1.125-8.5312-3.375v8.3125q4.9219 1.9062 9.5625 2.8438 4.6406 0.95312 9.0312 0.95312 11.875 0 17.734-6.1562 5.8594-6.1406 5.8594-18.641z"/>
<path id="f" d="m9.4219 75.984h8.9844v-75.984h-8.9844z"/>
</defs>
<g transform="translate(501.37 756.95) rotate(90) scale(.08 -.08)">
<use xlink:href="#l"/>
<use x="60.818359" xlink:href="#d"/>
<use x="122.341797" xlink:href="#j"/>
<use x="163.439453" xlink:href="#k"/>
<use x="260.851562" xlink:href="#i"/>
<use x="288.634766" xlink:href="#h"/>
<use x="352.013672" xlink:href="#g"/>
<use x="413.292969" xlink:href="#f"/>
</g>
</g>
<path d="m243.99 513.19 1.4709 4.594q0.73182 2.2857 3.0175 1.5539l7.3738-2.3609q2.2857-0.73182 1.5539-3.0175l-1.4709-4.594q-0.73182-2.2857-3.0175-1.5539l-7.3738 2.3609q-2.2857 0.73182-1.5539 3.0175z" clip-path="url(#a)" fill="#fff" stroke="#fff"/>
<g clip-path="url(#a)">
<g transform="translate(247.86 511.95) rotate(72.246) scale(.08 -.08)">
<use xlink:href="#t"/>
</g>
</g>
<path d="m137.25 517.96 1.5183-5.3474q0.65552-2.3087-1.6532-2.9643l-7.4481-2.1147q-2.3087-0.65552-2.9643 1.6532l-1.5183 5.3474q-0.65552 2.3087 1.6532 2.9643l7.4481 2.1147q2.3087 0.65552 2.9643-1.6532z" clip-path="url(#a)" fill="#fff" stroke="#fff"/>
<g clip-path="url(#a)">
<defs>
<path id="aq" d="m44.391 34.188q3.1719-1.0781 6.1719-4.5938t6.0312-9.6719l10.016-19.922h-10.609l-9.3125 18.703q-3.625 7.3281-7.0156 9.7188t-9.25 2.3906h-10.75v-30.812h-9.8594v72.906h22.266q12.5 0 18.656-5.2344 6.1562-5.2188 6.1562-15.766 0-6.8906-3.2031-11.438-3.2031-4.5312-9.2969-6.2812zm-24.719 30.609v-25.875h12.406q7.125 0 10.766 3.2969t3.6406 9.6875-3.6406 9.6406-10.766 3.25z"/>
</defs>
<g transform="translate(133.34 516.85) rotate(-74.149) scale(.08 -.08)">
<use xlink:href="#aq"/>
</g>
</g>
<path d="m161.54 516.86 0.74071-4.5412q0.38635-2.3687-1.9823-2.7551l-7.6415-1.2464q-2.3687-0.38635-2.755 1.9823l-0.74071 4.5412q-0.38635 2.3687 1.9823 2.755l7.6415 1.2464q2.3687 0.38635 2.755-1.9823z" clip-path="url(#a)" fill="#fff" stroke="#fff"/>
<g clip-path="url(#a)">
<g transform="translate(157.53 516.2) rotate(-80.736) scale(.08 -.08)">
<use xlink:href="#v"/>
</g>
</g>
<path d="m185.6 516.92 0.26026-6.1545q0.1014-2.3979-2.2965-2.4993l-7.7356-0.32712q-2.3979-0.1014-2.4993 2.2965l-0.26026 6.1545q-0.1014 2.3979 2.2965 2.4993l7.7356 0.32712q2.3979 0.1014 2.4993-2.2965z" clip-path="url(#a)" fill="#fff" stroke="#fff"/>
<g clip-path="url(#a)">
<defs>
<path id="al" d="m19.672 64.797v-56.688h11.922q15.094 0 22.094 6.8281 7 6.8438 7 21.594 0 14.641-7 21.453t-22.094 6.8125zm-9.8594 8.1094h20.266q21.188 0 31.094-8.8125 9.9219-8.8125 9.9219-27.562 0-18.859-9.9688-27.703-9.9531-8.8281-31.047-8.8281h-20.266z"/>
</defs>
<g transform="translate(181.54 516.75) rotate(-87.579) scale(.08 -.08)">
<use xlink:href="#al"/>
</g>
</g>
<path d="m214.19 384.05 2.4426 4.8971q1.0712 2.1477 3.2189 1.0765l6.9285-3.4558q2.1477-1.0712 1.0765-3.2189l-2.4426-4.8971q-1.0712-2.1477-3.2189-1.0765l-6.9285 3.4558q-2.1477 1.0712-1.0765 3.2189z" clip-path="url(#a)" fill="#fff" stroke="#fff"/>
<g clip-path="url(#a)">
<g transform="translate(217.82 382.23) rotate(63.491) scale(.08 -.08)">
<use xlink:href="#p"/>
</g>
</g>
<path d="m307.35 756.95v35.285q0 2.4 2.4 2.4h7.7425q2.4 0 2.4-2.4v-35.285q0-2.4-2.4-2.4h-7.7425q-2.4 0-2.4 2.4z" clip-path="url(#a)" fill="#fff" stroke="#fff"/>
<g clip-path="url(#a)">
<g transform="translate(311.41 756.95) rotate(90) scale(.08 -.08)">
<use xlink:href="#l"/>
<use x="60.818359" xlink:href="#d"/>
<use x="122.341797" xlink:href="#j"/>
<use x="163.439453" xlink:href="#k"/>
<use x="260.851562" xlink:href="#i"/>
<use x="288.634766" xlink:href="#h"/>
<use x="352.013672" xlink:href="#g"/>
<use x="413.292969" xlink:href="#f"/>
</g>
</g>
<path d="m354.84 756.95v35.285q0 2.4 2.4 2.4h7.7425q2.4 0 2.4-2.4v-35.285q0-2.4-2.4-2.4h-7.7425q-2.4 0-2.4 2.4z" clip-path="url(#a)" fill="#fff" stroke="#fff"/>
<g clip-path="url(#a)">
<g transform="translate(358.9 756.95) rotate(90) scale(.08 -.08)">
<use xlink:href="#l"/>
<use x="60.818359" xlink:href="#d"/>
<use x="122.341797" xlink:href="#j"/>
<use x="163.439453" xlink:href="#k"/>
<use x="260.851562" xlink:href="#i"/>
<use x="288.634766" xlink:href="#h"/>
<use x="352.013672" xlink:href="#g"/>
<use x="413.292969" xlink:href="#f"/>
</g>
</g>
<path d="m402.33 756.95v35.285q0 2.4 2.4 2.4h7.7425q2.4 0 2.4-2.4v-35.285q0-2.4-2.4-2.4h-7.7425q-2.4 0-2.4 2.4z" clip-path="url(#a)" fill="#fff" stroke="#fff"/>
<g clip-path="url(#a)">
<g transform="translate(406.39 756.95) rotate(90) scale(.08 -.08)">
<use xlink:href="#l"/>
<use x="60.818359" xlink:href="#d"/>
<use x="122.341797" xlink:href="#j"/>
<use x="163.439453" xlink:href="#k"/>
<use x="260.851562" xlink:href="#i"/>
<use x="288.634766" xlink:href="#h"/>
<use x="352.013672" xlink:href="#g"/>
<use x="413.292969" xlink:href="#f"/>
</g>
</g>
<path d="m449.82 756.95v35.285q0 2.4 2.4 2.4h7.7425q2.4 0 2.4-2.4v-35.285q0-2.4-2.4-2.4h-7.7425q-2.4 0-2.4 2.4z" clip-path="url(#a)" fill="#fff" stroke="#fff"/>
<g clip-path="url(#a)">
<g transform="translate(453.88 756.95) rotate(90) scale(.08 -.08)">
<use xlink:href="#l"/>
<use x="60.818359" xlink:href="#d"/>
<use x="122.341797" xlink:href="#j"/>
<use x="163.439453" xlink:href="#k"/>
<use x="260.851562" xlink:href="#i"/>
<use x="288.634766" xlink:href="#h"/>
<use x="352.013672" xlink:href="#g"/>
<use x="413.292969" xlink:href="#f"/>
</g>
</g>
<path d="m755.58 583.42 0.36396-5.5744q0.15637-2.3949-2.2385-2.5513l-7.726-0.50445q-2.3949-0.15637-2.5513 2.2385l-0.36396 5.5744q-0.15637 2.3949 2.2385 2.5513l7.726 0.50445q2.3949 0.15637 2.5513-2.2385z" clip-path="url(#a)" fill="#fff" stroke="#fff"/>
<g clip-path="url(#a)">
<defs>
<path id="y" d="m64.406 67.281v-10.391q-4.9844 4.6406-10.625 6.9219-5.6406 2.2969-11.984 2.2969-12.5 0-19.141-7.6406t-6.6406-22.094q0-14.406 6.6406-22.047t19.141-7.6406q6.3438 0 11.984 2.2969t10.625 6.9375v-10.312q-5.1719-3.5156-10.969-5.2812-5.7812-1.75-12.219-1.75-16.562 0-26.094 10.125-9.5156 10.141-9.5156 27.672 0 17.578 9.5156 27.703 9.5312 10.141 26.094 10.141 6.5312 0 12.312-1.7344 5.7969-1.7344 10.875-5.2031z"/>
</defs>
<g transform="translate(751.52 583.15) rotate(-86.264) scale(.08 -.08)">
<use xlink:href="#y"/>
</g>
</g>
<path d="m658 585.93 2.8668-3.599q1.4953-1.8772-0.38189-3.3726l-6.056-4.824q-1.8772-1.4953-3.3726 0.38189l-2.8668 3.599q-1.4953 1.8772 0.38189 3.3726l6.056 4.824q1.8772 1.4953 3.3726-0.38189z" clip-path="url(#a)" fill="#fff" stroke="#fff"/>
<g clip-path="url(#a)">
<g transform="translate(654.82 583.4) rotate(-51.46) scale(.08 -.08)">
<use xlink:href="#v"/>
</g>
</g>
<path d="m717.67 521.33 2.8264-4.191q1.3419-1.9898-0.64792-3.3317l-6.4192-4.329q-1.9898-1.3419-3.3317 0.64792l-2.8264 4.191q-1.3419 1.9898 0.64791 3.3317l6.4192 4.329q1.9898 1.3419 3.3317-0.64792z" clip-path="url(#a)" fill="#fff" stroke="#fff"/>
<g clip-path="url(#a)">
<defs>
<path id="w" d="m9.8125 72.906h46.094v-8.3125h-36.234v-21.578h34.719v-8.2969h-34.719v-26.422h37.109v-8.2969h-46.969z"/>
</defs>
<g transform="translate(714.3 519.06) rotate(-56.005) scale(.08 -.08)">
<use xlink:href="#w"/>
</g>
</g>
<path d="m730.27 520.77 2.2346-4.5343q1.0609-2.1528-1.0918-3.2137l-6.9449-3.4226q-2.1528-1.0609-3.2137 1.0918l-2.2346 4.5343q-1.0609 2.1528 1.0918 3.2137l6.9449 3.4226q2.1528 1.0609 3.2137-1.0918z" clip-path="url(#a)" fill="#fff" stroke="#fff"/>
<g clip-path="url(#a)">
<g transform="translate(726.62 518.98) rotate(-63.765) scale(.08 -.08)">
<use xlink:href="#w"/>
</g>
</g>
<path d="m731.14 584.58 1.4099-5.6827q0.57794-2.3294-1.7514-2.9073l-7.5147-1.8645q-2.3294-0.57794-2.9073 1.7514l-1.4099 5.6827q-0.57794 2.3294 1.7514 2.9073l7.5147 1.8645q2.3294 0.57794 2.9073-1.7514z" clip-path="url(#a)" fill="#fff" stroke="#fff"/>
<g clip-path="url(#a)">
<g transform="translate(727.2 583.6) rotate(-76.066) scale(.08 -.08)">
<use xlink:href="#u"/>
</g>
</g>
<path d="m766.68 578.05 0.68341 5.815q0.28014 2.3836 2.6637 2.1035l7.6896-0.90373q2.3836-0.28014 2.1035-2.6637l-0.68341-5.815q-0.28014-2.3836-2.6637-2.1035l-7.6896 0.90373q-2.3836 0.28014-2.1035 2.6637z" clip-path="url(#a)" fill="#fff" stroke="#fff"/>
<g clip-path="url(#a)">
<g transform="translate(770.71 577.57) rotate(83.297) scale(.08 -.08)">
<use xlink:href="#u"/>
</g>
</g>
<path d="m958.89 520.94 4.8164 1.5346q2.2867 0.72861 3.0153-1.5581l2.3505-7.3771q0.72861-2.2867-1.5581-3.0153l-4.8164-1.5346q-2.2867-0.72861-3.0153 1.5581l-2.3505 7.3771q-0.72861 2.2867 1.5581 3.0153z" clip-path="url(#a)" fill="#fff" stroke="#fff"/>
<g clip-path="url(#a)">
<g transform="translate(960.12 517.07) rotate(17.673) scale(.08 -.08)">
<use xlink:href="#w"/>
</g>
</g>
<path d="m734.75 756.95v35.285q0 2.4 2.4 2.4h7.7425q2.4 0 2.4-2.4v-35.285q0-2.4-2.4-2.4h-7.7425q-2.4 0-2.4 2.4z" clip-path="url(#a)" fill="#fff" stroke="#fff"/>
<g clip-path="url(#a)">
<g transform="translate(738.81 756.95) rotate(90) scale(.08 -.08)">
<use xlink:href="#l"/>
<use x="60.818359" xlink:href="#d"/>
<use x="122.341797" xlink:href="#j"/>
<use x="163.439453" xlink:href="#k"/>
<use x="260.851562" xlink:href="#i"/>
<use x="288.634766" xlink:href="#h"/>
<use x="352.013672" xlink:href="#g"/>
<use x="413.292969" xlink:href="#f"/>
</g>
</g>
<path d="m919.03 516.79 0.68711-4.5497q0.3584-2.3731-2.0147-2.7315l-7.6557-1.1562q-2.3731-0.3584-2.7315 2.0147l-0.68711 4.5497q-0.3584 2.3731 2.0147 2.7315l7.6557 1.1562q2.3731 0.3584 2.7315-2.0147z" clip-path="url(#a)" fill="#fff" stroke="#fff"/>
<g clip-path="url(#a)">
<g transform="translate(915.01 516.18) rotate(-81.412) scale(.08 -.08)">
<use xlink:href="#v"/>
</g>
</g>
<path d="m894.71 518.05 1.5359-5.65q0.62958-2.316-1.6864-2.9455l-7.4714-2.0311q-2.316-0.62958-2.9455 1.6864l-1.5359 5.65q-0.62958 2.316 1.6864 2.9455l7.4714 2.0311q2.316 0.62958 2.9455-1.6864z" clip-path="url(#a)" fill="#fff" stroke="#fff"/>
<g clip-path="url(#a)">
<g transform="translate(890.79 516.98) rotate(-74.792) scale(.08 -.08)">
<use xlink:href="#u"/>
</g>
</g>
<path d="m1001.3 512.78 1.8461 5.5563q0.75674 2.2776 3.0343 1.5208l7.3476-2.4413q2.2776-0.75674 1.5208-3.0343l-1.8461-5.5563q-0.75674-2.2776-3.0343-1.5208l-7.3476 2.4413q-2.2776 0.75674-1.5208 3.0343z" clip-path="url(#a)" fill="#fff" stroke="#fff"/>
<g clip-path="url(#a)">
<g transform="translate(1005.1 511.49) rotate(71.621) scale(.08 -.08)">
<use xlink:href="#u"/>
</g>
</g>
<path d="m953.98 382.99 1.2452 4.6603q0.61955 2.3187 2.9382 1.6991l7.4801-1.9987q2.3187-0.61955 1.6991-2.9382l-1.2452-4.6603q-0.61955-2.3187-2.9382-1.6991l-7.4801 1.9987q-2.3187 0.61955-1.6991 2.9382z" clip-path="url(#a)" fill="#fff" stroke="#fff"/>
<g clip-path="url(#a)">
<g transform="translate(957.9 381.94) rotate(75.04) scale(.08 -.08)">
<use xlink:href="#t"/>
</g>
</g>
<path d="m877.22 756.95v35.285q0 2.4 2.4 2.4h7.7425q2.4 0 2.4-2.4v-35.285q0-2.4-2.4-2.4h-7.7425q-2.4 0-2.4 2.4z" clip-path="url(#a)" fill="#fff" stroke="#fff"/>
<g clip-path="url(#a)">
<g transform="translate(881.28 756.95) rotate(90) scale(.08 -.08)">
<use xlink:href="#l"/>
<use x="60.818359" xlink:href="#d"/>
<use x="122.341797" xlink:href="#j"/>
<use x="163.439453" xlink:href="#k"/>
<use x="260.851562" xlink:href="#i"/>
<use x="288.634766" xlink:href="#h"/>
<use x="352.013672" xlink:href="#g"/>
<use x="413.292969" xlink:href="#f"/>
</g>
</g>
<path d="m1257.1 756.95v35.285q0 2.4 2.4 2.4h7.7425q2.4 0 2.4-2.4v-35.285q0-2.4-2.4-2.4h-7.7425q-2.4 0-2.4 2.4z" clip-path="url(#a)" fill="#fff" stroke="#fff"/>
<g clip-path="url(#a)">
<g transform="translate(1261.2 756.95) rotate(90) scale(.08 -.08)">
<use xlink:href="#l"/>
<use x="60.818359" xlink:href="#d"/>
<use x="122.341797" xlink:href="#j"/>
<use x="163.439453" xlink:href="#k"/>
<use x="260.851562" xlink:href="#i"/>
<use x="288.634766" xlink:href="#h"/>
<use x="352.013672" xlink:href="#g"/>
<use x="413.292969" xlink:href="#f"/>
</g>
</g>
<path d="m1353.7 517.11 0.89483-4.74q0.44521-2.3583-1.9131-2.8036l-7.6081-1.4363q-2.3583-0.44521-2.8036 1.9131l-0.89483 4.74q-0.44521 2.3583 1.9131 2.8036l7.6081 1.4363q2.3583 0.44521 2.8036-1.9131z" clip-path="url(#a)" fill="#fff" stroke="#fff"/>
<g clip-path="url(#a)">
<g transform="translate(1349.7 516.36) rotate(-79.309) scale(.08 -.08)">
<use xlink:href="#t"/>
</g>
</g>
<path d="m1415.4 384.36 2.6618 4.7816q1.1673 2.097 3.2643 0.92966l6.765-3.7659q2.097-1.1673 0.92966-3.2643l-2.6618-4.7816q-1.1673-2.097-3.2643-0.92966l-6.765 3.7659q-2.097 1.1673-0.92966 3.2643z" clip-path="url(#a)" fill="#fff" stroke="#fff"/>
<g clip-path="url(#a)">
<g transform="translate(1418.9 382.38) rotate(60.897) scale(.08 -.08)">
<use xlink:href="#p"/>
</g>
</g>
<path d="m1304.6 756.95v35.285q0 2.4 2.4 2.4h7.7425q2.4 0 2.4-2.4v-35.285q0-2.4-2.4-2.4h-7.7425q-2.4 0-2.4 2.4z" clip-path="url(#a)" fill="#fff" stroke="#fff"/>
<g clip-path="url(#a)">
<g transform="translate(1308.7 756.95) rotate(90) scale(.08 -.08)">
<use xlink:href="#l"/>
<use x="60.818359" xlink:href="#d"/>
<use x="122.341797" xlink:href="#j"/>
<use x="163.439453" xlink:href="#k"/>
<use x="260.851562" xlink:href="#i"/>
<use x="288.634766" xlink:href="#h"/>
<use x="352.013672" xlink:href="#g"/>
<use x="413.292969" xlink:href="#f"/>
</g>
</g>
<path d="m1589.6 756.95v35.285q0 2.4 2.4 2.4h7.7425q2.4 0 2.4-2.4v-35.285q0-2.4-2.4-2.4h-7.7425q-2.4 0-2.4 2.4z" clip-path="url(#a)" fill="#fff" stroke="#fff"/>
<g clip-path="url(#a)">
<g transform="translate(1593.6 756.95) rotate(90) scale(.08 -.08)">
<use xlink:href="#l"/>
<use x="60.818359" xlink:href="#d"/>
<use x="122.341797" xlink:href="#j"/>
<use x="163.439453" xlink:href="#k"/>
<use x="260.851562" xlink:href="#i"/>
<use x="288.634766" xlink:href="#h"/>
<use x="352.013672" xlink:href="#g"/>
<use x="413.292969" xlink:href="#f"/>
</g>
</g>
<path d="m69.906 756.95v35.285q0 2.4 2.4 2.4h7.7425q2.4 0 2.4-2.4v-35.285q0-2.4-2.4-2.4h-7.7425q-2.4 0-2.4 2.4z" clip-path="url(#a)" fill="#fff" stroke="#fff"/>
<g clip-path="url(#a)">
<g transform="translate(73.97 756.95) rotate(90) scale(.08 -.08)">
<use xlink:href="#l"/>
<use x="60.818359" xlink:href="#d"/>
<use x="122.341797" xlink:href="#j"/>
<use x="163.439453" xlink:href="#k"/>
<use x="260.851562" xlink:href="#i"/>
<use x="288.634766" xlink:href="#h"/>
<use x="352.013672" xlink:href="#g"/>
<use x="413.292969" xlink:href="#f"/>
</g>
</g>
<path d="m117.39 756.95v35.285q0 2.4 2.4 2.4h7.7425q2.4 0 2.4-2.4v-35.285q0-2.4-2.4-2.4h-7.7425q-2.4 0-2.4 2.4z" clip-path="url(#a)" fill="#fff" stroke="#fff"/>
<g clip-path="url(#a)">
<g transform="translate(121.46 756.95) rotate(90) scale(.08 -.08)">
<use xlink:href="#l"/>
<use x="60.818359" xlink:href="#d"/>
<use x="122.341797" xlink:href="#j"/>
<use x="163.439453" xlink:href="#k"/>
<use x="260.851562" xlink:href="#i"/>
<use x="288.634766" xlink:href="#h"/>
<use x="352.013672" xlink:href="#g"/>
<use x="413.292969" xlink:href="#f"/>
</g>
</g>
<path d="m164.88 756.95v35.285q0 2.4 2.4 2.4h7.7425q2.4 0 2.4-2.4v-35.285q0-2.4-2.4-2.4h-7.7425q-2.4 0-2.4 2.4z" clip-path="url(#a)" fill="#fff" stroke="#fff"/>
<g clip-path="url(#a)">
<g transform="translate(168.95 756.95) rotate(90) scale(.08 -.08)">
<use xlink:href="#l"/>
<use x="60.818359" xlink:href="#d"/>
<use x="122.341797" xlink:href="#j"/>
<use x="163.439453" xlink:href="#k"/>
<use x="260.851562" xlink:href="#i"/>
<use x="288.634766" xlink:href="#h"/>
<use x="352.013672" xlink:href="#g"/>
<use x="413.292969" xlink:href="#f"/>
</g>
</g>
<path d="m253.8 577.72 0.25505 5.5804q0.10958 2.3975 2.5071 2.2879l7.7344-0.3535q2.3975-0.10958 2.2879-2.5071l-0.25505-5.5804q-0.10958-2.3975-2.5071-2.2879l-7.7344 0.3535q-2.3975 0.10958-2.2879 2.5071z" clip-path="url(#a)" fill="#fff" stroke="#fff"/>
<g clip-path="url(#a)">
<g transform="translate(257.86 577.53) rotate(87.383) scale(.08 -.08)">
<use xlink:href="#y"/>
</g>
</g>
<path d="m254.34 518.82 0.45702-5.0343q0.21699-2.3902-2.1732-2.6072l-7.7108-0.7q-2.3902-0.21698-2.6072 2.1732l-0.45702 5.0343q-0.21699 2.3902 2.1732 2.6072l7.7108 0.7q2.3902 0.21698 2.6072-2.1732z" clip-path="url(#a)" fill="#fff" stroke="#fff"/>
<g clip-path="url(#a)">
<g transform="translate(250.29 518.45) rotate(-84.813) scale(.08 -.08)">
<use xlink:href="#w"/>
</g>
</g>
<path d="m259.86 756.95v35.285q0 2.4 2.4 2.4h7.7425q2.4 0 2.4-2.4v-35.285q0-2.4-2.4-2.4h-7.7425q-2.4 0-2.4 2.4z" clip-path="url(#a)" fill="#fff" stroke="#fff"/>
<g clip-path="url(#a)">
<g transform="translate(263.93 756.95) rotate(90) scale(.08 -.08)">
<use xlink:href="#l"/>
<use x="60.818359" xlink:href="#d"/>
<use x="122.341797" xlink:href="#j"/>
<use x="163.439453" xlink:href="#k"/>
<use x="260.851562" xlink:href="#i"/>
<use x="288.634766" xlink:href="#h"/>
<use x="352.013672" xlink:href="#g"/>
<use x="413.292969" xlink:href="#f"/>
</g>
</g>
<path d="m544.8 756.95v35.285q0 2.4 2.4 2.4h7.7425q2.4 0 2.4-2.4v-35.285q0-2.4-2.4-2.4h-7.7425q-2.4 0-2.4 2.4z" clip-path="url(#a)" fill="#fff" stroke="#fff"/>
<g clip-path="url(#a)">
<g transform="translate(548.86 756.95) rotate(90) scale(.08 -.08)">
<use xlink:href="#l"/>
<use x="60.818359" xlink:href="#d"/>
<use x="122.341797" xlink:href="#j"/>
<use x="163.439453" xlink:href="#k"/>
<use x="260.851562" xlink:href="#i"/>
<use x="288.634766" xlink:href="#h"/>
<use x="352.013672" xlink:href="#g"/>
<use x="413.292969" xlink:href="#f"/>
</g>
</g>
<path d="m698.59 646.25 2.6456 4.7905q1.1603 2.1009 3.2612 0.94063l6.7776-3.7431q2.1009-1.1603 0.94063-3.2612l-2.6456-4.7905q-1.1603-2.1009-3.2612-0.94063l-6.7776 3.7431q-2.1009 1.1603-0.94063 3.2612z" clip-path="url(#a)" fill="#fff" stroke="#fff"/>
<g clip-path="url(#a)">
<g transform="translate(702.15 644.28) rotate(61.089) scale(.08 -.08)">
<use xlink:href="#p"/>
</g>
</g>
<path d="m638.43 650.87 2.4553-4.4458q1.1603-2.1009-0.94063-3.2612l-6.7776-3.7431q-2.1009-1.1603-3.2612 0.94063l-2.4553 4.4458q-1.1603 2.1009 0.94063 3.2612l6.7776 3.7431q2.1009 1.1603 3.2612-0.94063z" clip-path="url(#a)" fill="#fff" stroke="#fff"/>
<g clip-path="url(#a)">
<defs>
<path id="aj" d="m53.516 70.516v-9.625q-5.6094 2.6875-10.594 4-4.9844 1.3281-9.625 1.3281-8.0469 0-12.422-3.125t-4.375-8.8906q0-4.8438 2.9062-7.3125 2.9062-2.4531 11.016-3.9688l5.9531-1.2188q11.031-2.1094 16.281-7.4062t5.25-14.172q0-10.609-7.1094-16.078-7.0938-5.4688-20.812-5.4688-5.1719 0-11.016 1.1719-5.8281 1.1719-12.078 3.4688v10.156q6-3.3594 11.766-5.0781 5.7656-1.7031 11.328-1.7031 8.4375 0 13.031 3.3125 4.5938 3.3281 4.5938 9.4844 0 5.3594-3.2969 8.3906t-10.812 4.5469l-6.0156 1.1719q-11.031 2.1875-15.969 6.875-4.9219 4.6875-4.9219 13.047 0 9.6719 6.8125 15.234t18.766 5.5625q5.1406 0 10.453-0.9375 5.3281-0.92188 10.891-2.7656z"/>
</defs>
<g transform="translate(634.88 648.9) rotate(-61.089) scale(.08 -.08)">
<use xlink:href="#aj"/>
</g>
</g>
<path d="m592.28 756.95v35.285q0 2.4 2.4 2.4h7.7425q2.4 0 2.4-2.4v-35.285q0-2.4-2.4-2.4h-7.7425q-2.4 0-2.4 2.4z" clip-path="url(#a)" fill="#fff" stroke="#fff"/>
<g clip-path="url(#a)">
<g transform="translate(596.35 756.95) rotate(90) scale(.08 -.08)">
<use xlink:href="#l"/>
<use x="60.818359" xlink:href="#d"/>
<use x="122.341797" xlink:href="#j"/>
<use x="163.439453" xlink:href="#k"/>
<use x="260.851562" xlink:href="#i"/>
<use x="288.634766" xlink:href="#h"/>
<use x="352.013672" xlink:href="#g"/>
<use x="413.292969" xlink:href="#f"/>
</g>
</g>
<path d="m710.45 645.21 1.8908 5.1355q0.82922 2.2522 3.0814 1.423l7.2657-2.6751q2.2522-0.82922 1.423-3.0814l-1.8908-5.1355q-0.82922-2.2522-3.0814-1.423l-7.2657 2.6751q-2.2522 0.82922-1.423 3.0814z" clip-path="url(#a)" fill="#fff" stroke="#fff"/>
<g clip-path="url(#a)">
<g transform="translate(714.26 643.81) rotate(69.787) scale(.08 -.08)">
<use xlink:href="#p"/>
</g>
</g>
<path d="m674.8 650.16 1.7547-4.766q0.82922-2.2522-1.423-3.0814l-7.2657-2.6751q-2.2522-0.82922-3.0814 1.423l-1.7547 4.766q-0.82922 2.2522 1.423 3.0814l7.2657 2.6751q2.2522 0.82922 3.0814-1.423z" clip-path="url(#a)" fill="#fff" stroke="#fff"/>
<g clip-path="url(#a)">
<g transform="translate(670.98 648.76) rotate(-69.787) scale(.08 -.08)">
<use xlink:href="#aj"/>
</g>
</g>
<path d="m639.77 756.95v35.285q0 2.4 2.4 2.4h7.7425q2.4 0 2.4-2.4v-35.285q0-2.4-2.4-2.4h-7.7425q-2.4 0-2.4 2.4z" clip-path="url(#a)" fill="#fff" stroke="#fff"/>
<g clip-path="url(#a)">
<g transform="translate(643.84 756.95) rotate(90) scale(.08 -.08)">
<use xlink:href="#l"/>
<use x="60.818359" xlink:href="#d"/>
<use x="122.341797" xlink:href="#j"/>
<use x="163.439453" xlink:href="#k"/>
<use x="260.851562" xlink:href="#i"/>
<use x="288.634766" xlink:href="#h"/>
<use x="352.013672" xlink:href="#g"/>
<use x="413.292969" xlink:href="#f"/>
</g>
</g>
<path d="m687.26 756.95v35.285q0 2.4 2.4 2.4h7.7425q2.4 0 2.4-2.4v-35.285q0-2.4-2.4-2.4h-7.7425q-2.4 0-2.4 2.4z" clip-path="url(#a)" fill="#fff" stroke="#fff"/>
<g clip-path="url(#a)">
<g transform="translate(691.33 756.95) rotate(90) scale(.08 -.08)">
<use xlink:href="#l"/>
<use x="60.818359" xlink:href="#d"/>
<use x="122.341797" xlink:href="#j"/>
<use x="163.439453" xlink:href="#k"/>
<use x="260.851562" xlink:href="#i"/>
<use x="288.634766" xlink:href="#h"/>
<use x="352.013672" xlink:href="#g"/>
<use x="413.292969" xlink:href="#f"/>
</g>
</g>
<path d="m782.24 756.95v35.285q0 2.4 2.4 2.4h7.7425q2.4 0 2.4-2.4v-35.285q0-2.4-2.4-2.4h-7.7425q-2.4 0-2.4 2.4z" clip-path="url(#a)" fill="#fff" stroke="#fff"/>
<g clip-path="url(#a)">
<g transform="translate(786.3 756.95) rotate(90) scale(.08 -.08)">
<use xlink:href="#l"/>
<use x="60.818359" xlink:href="#d"/>
<use x="122.341797" xlink:href="#j"/>
<use x="163.439453" xlink:href="#k"/>
<use x="260.851562" xlink:href="#i"/>
<use x="288.634766" xlink:href="#h"/>
<use x="352.013672" xlink:href="#g"/>
<use x="413.292969" xlink:href="#f"/>
</g>
</g>
<path d="m829.73 756.95v35.285q0 2.4 2.4 2.4h7.7425q2.4 0 2.4-2.4v-35.285q0-2.4-2.4-2.4h-7.7425q-2.4 0-2.4 2.4z" clip-path="url(#a)" fill="#fff" stroke="#fff"/>
<g clip-path="url(#a)">
<g transform="translate(833.79 756.95) rotate(90) scale(.08 -.08)">
<use xlink:href="#l"/>
<use x="60.818359" xlink:href="#d"/>
<use x="122.341797" xlink:href="#j"/>
<use x="163.439453" xlink:href="#k"/>
<use x="260.851562" xlink:href="#i"/>
<use x="288.634766" xlink:href="#h"/>
<use x="352.013672" xlink:href="#g"/>
<use x="413.292969" xlink:href="#f"/>
</g>
</g>
<path d="m959.92 644 1.0114 5.4939q0.43452 2.3603 2.7949 1.9258l7.6145-1.4018q2.3603-0.43452 1.9258-2.7949l-1.0114-5.4939q-0.43452-2.3603-2.7949-1.9258l-7.6146 1.4018q-2.3603 0.43452-1.9258 2.7949z" clip-path="url(#a)" fill="#fff" stroke="#fff"/>
<g clip-path="url(#a)">
<g transform="translate(963.92 643.26) rotate(79.569) scale(.08 -.08)">
<use xlink:href="#y"/>
</g>
</g>
<path d="m948.6 649.01 0.83305-4.5252q0.43452-2.3603-1.9258-2.7949l-7.6145-1.4018q-2.3603-0.43452-2.7949 1.9258l-0.83305 4.5252q-0.43452 2.3603 1.9258 2.7949l7.6145 1.4018q2.3603 0.43452 2.7949-1.9258z" clip-path="url(#a)" fill="#fff" stroke="#fff"/>
<g clip-path="url(#a)">
<g transform="translate(944.6 648.27) rotate(-79.569) scale(.08 -.08)">
<use xlink:href="#v"/>
</g>
</g>
<path d="m972.2 756.95v35.285q0 2.4 2.4 2.4h7.7425q2.4 0 2.4-2.4v-35.285q0-2.4-2.4-2.4h-7.7425q-2.4 0-2.4 2.4z" clip-path="url(#a)" fill="#fff" stroke="#fff"/>
<g clip-path="url(#a)">
<g transform="translate(976.26 756.95) rotate(90) scale(.08 -.08)">
<use xlink:href="#l"/>
<use x="60.818359" xlink:href="#d"/>
<use x="122.341797" xlink:href="#j"/>
<use x="163.439453" xlink:href="#k"/>
<use x="260.851562" xlink:href="#i"/>
<use x="288.634766" xlink:href="#h"/>
<use x="352.013672" xlink:href="#g"/>
<use x="413.292969" xlink:href="#f"/>
</g>
</g>
<path d="m996.01 649.44 0.99079-5.3821q0.43452-2.3603-1.9258-2.7949l-7.6145-1.4018q-2.3603-0.43452-2.7949 1.9258l-0.99079 5.3821q-0.43452 2.3603 1.9258 2.7949l7.6145 1.4018q2.3603 0.43452 2.7949-1.9258z" clip-path="url(#a)" fill="#fff" stroke="#fff"/>
<g clip-path="url(#a)">
<g transform="translate(992.01 648.7) rotate(-79.569) scale(.08 -.08)">
<use xlink:href="#p"/>
</g>
</g>
<path d="m1007.5 644.38 0.87333 4.744q0.43452 2.3603 2.7949 1.9258l7.6145-1.4018q2.3603-0.43452 1.9258-2.7949l-0.87333-4.744q-0.43452-2.3603-2.7949-1.9258l-7.6145 1.4018q-2.3603 0.43452-1.9258 2.7949z" clip-path="url(#a)" fill="#fff" stroke="#fff"/>
<g clip-path="url(#a)">
<g transform="translate(1011.5 643.64) rotate(79.569) scale(.08 -.08)">
<use xlink:href="#t"/>
</g>
</g>
<path d="m1019.7 756.95v35.285q0 2.4 2.4 2.4h7.7425q2.4 0 2.4-2.4v-35.285q0-2.4-2.4-2.4h-7.7425q-2.4 0-2.4 2.4z" clip-path="url(#a)" fill="#fff" stroke="#fff"/>
<g clip-path="url(#a)">
<g transform="translate(1023.7 756.95) rotate(90) scale(.08 -.08)">
<use xlink:href="#l"/>
<use x="60.818359" xlink:href="#d"/>
<use x="122.341797" xlink:href="#j"/>
<use x="163.439453" xlink:href="#k"/>
<use x="260.851562" xlink:href="#i"/>
<use x="288.634766" xlink:href="#h"/>
<use x="352.013672" xlink:href="#g"/>
<use x="413.292969" xlink:href="#f"/>
</g>
</g>
<path d="m1067.2 756.95v35.285q0 2.4 2.4 2.4h7.7425q2.4 0 2.4-2.4v-35.285q0-2.4-2.4-2.4h-7.7425q-2.4 0-2.4 2.4z" clip-path="url(#a)" fill="#fff" stroke="#fff"/>
<g clip-path="url(#a)">
<g transform="translate(1071.2 756.95) rotate(90) scale(.08 -.08)">
<use xlink:href="#l"/>
<use x="60.818359" xlink:href="#d"/>
<use x="122.341797" xlink:href="#j"/>
<use x="163.439453" xlink:href="#k"/>
<use x="260.851562" xlink:href="#i"/>
<use x="288.634766" xlink:href="#h"/>
<use x="352.013672" xlink:href="#g"/>
<use x="413.292969" xlink:href="#f"/>
</g>
</g>
<path d="m1185.3 645.16 1.9301 5.2422q0.82922 2.2522 3.0814 1.423l7.2657-2.6751q2.2522-0.82922 1.423-3.0814l-1.9301-5.2422q-0.82922-2.2522-3.0814-1.423l-7.2657 2.6751q-2.2522 0.82922-1.423 3.0814z" clip-path="url(#a)" fill="#fff" stroke="#fff"/>
<g clip-path="url(#a)">
<g transform="translate(1189.1 643.75) rotate(69.787) scale(.08 -.08)">
<use xlink:href="#y"/>
</g>
</g>
<path d="m1149.6 650.39 1.9206-5.2164q0.82922-2.2522-1.423-3.0814l-7.2657-2.6751q-2.2522-0.82922-3.0814 1.423l-1.9206 5.2164q-0.82922 2.2522 1.423 3.0814l7.2657 2.6751q2.2522 0.82922 3.0814-1.423z" clip-path="url(#a)" fill="#fff" stroke="#fff"/>
<g clip-path="url(#a)">
<g transform="translate(1145.8 648.98) rotate(-69.787) scale(.08 -.08)">
<use xlink:href="#aq"/>
</g>
</g>
<path d="m1162.2 643.08v5.055q0 2.4 2.4 2.4h7.7425q2.4 0 2.4-2.4v-5.055q0-2.4-2.4-2.4h-7.7425q-2.4 0-2.4 2.4z" clip-path="url(#a)" fill="#fff" stroke="#fff"/>
<g clip-path="url(#a)">
<g transform="translate(1166.2 643.08) rotate(90) scale(.08 -.08)">
<use xlink:href="#w"/>
</g>
</g>
<path d="m1209.6 756.95v35.285q0 2.4 2.4 2.4h7.7425q2.4 0 2.4-2.4v-35.285q0-2.4-2.4-2.4h-7.7425q-2.4 0-2.4 2.4z" clip-path="url(#a)" fill="#fff" stroke="#fff"/>
<g clip-path="url(#a)">
<g transform="translate(1213.7 756.95) rotate(90) scale(.08 -.08)">
<use xlink:href="#l"/>
<use x="60.818359" xlink:href="#d"/>
<use x="122.341797" xlink:href="#j"/>
<use x="163.439453" xlink:href="#k"/>
<use x="260.851562" xlink:href="#i"/>
<use x="288.634766" xlink:href="#h"/>
<use x="352.013672" xlink:href="#g"/>
<use x="413.292969" xlink:href="#f"/>
</g>
</g>
<path d="m1473.5 578.83 0.76195 4.7632q0.3791 2.3699 2.749 1.9908l7.6453-1.223q2.3699-0.3791 1.9908-2.749l-0.76195-4.7632q-0.3791-2.3699-2.749-1.9908l-7.6453 1.223q-2.3699 0.3791-1.9908 2.749z" clip-path="url(#a)" fill="#fff" stroke="#fff"/>
<g clip-path="url(#a)">
<g transform="translate(1477.5 578.19) rotate(80.912) scale(.08 -.08)">
<use xlink:href="#t"/>
</g>
</g>
<path d="m1413.8 584.64 1.6662-4.289q0.8691-2.2371-1.368-3.1062l-7.217-2.8037q-2.2371-0.8691-3.1062 1.368l-1.6662 4.289q-0.8691 2.2371 1.368 3.1062l7.217 2.8037q2.2371 0.8691 3.1062-1.368z" clip-path="url(#a)" fill="#fff" stroke="#fff"/>
<g clip-path="url(#a)">
<g transform="translate(1410.1 583.17) rotate(-68.769) scale(.08 -.08)">
<use xlink:href="#v"/>
</g>
</g>
<path d="m1449.9 520.12 1.3634-6.0072q0.53118-2.3405-1.8093-2.8717l-7.5505-1.7136q-2.3405-0.53118-2.8717 1.8093l-1.3634 6.0072q-0.53118 2.3405 1.8093 2.8717l7.5505 1.7136q2.3405 0.53118 2.8717-1.8093z" clip-path="url(#a)" fill="#fff" stroke="#fff"/>
<g clip-path="url(#a)">
<g transform="translate(1445.9 519.22) rotate(-77.213) scale(.08 -.08)">
<use xlink:href="#al"/>
</g>
</g>
<path d="m1496.9 579.34 1.9975 5.8272q0.77823 2.2703 3.0486 1.4921l7.3241-2.5106q2.2703-0.77823 1.4921-3.0486l-1.9975-5.8272q-0.77823-2.2703-3.0486-1.4921l-7.3241 2.5106q-2.2703 0.77823-1.4921 3.0486z" clip-path="url(#a)" fill="#fff" stroke="#fff"/>
<g clip-path="url(#a)">
<g transform="translate(1500.7 578.03) rotate(71.079) scale(.08 -.08)">
<use xlink:href="#al"/>
</g>
</g>
<path d="m1494.6 756.95v35.285q0 2.4 2.4 2.4h7.7425q2.4 0 2.4-2.4v-35.285q0-2.4-2.4-2.4h-7.7425q-2.4 0-2.4 2.4z" clip-path="url(#a)" fill="#fff" stroke="#fff"/>
<g clip-path="url(#a)">
<g transform="translate(1498.6 756.95) rotate(90) scale(.08 -.08)">
<use xlink:href="#l"/>
<use x="60.818359" xlink:href="#d"/>
<use x="122.341797" xlink:href="#j"/>
<use x="163.439453" xlink:href="#k"/>
<use x="260.851562" xlink:href="#i"/>
<use x="288.634766" xlink:href="#h"/>
<use x="352.013672" xlink:href="#g"/>
<use x="413.292969" xlink:href="#f"/>
</g>
</g>
<path d="m247.6 644.06 0.99079 5.3821q0.43452 2.3603 2.7949 1.9258l7.6145-1.4018q2.3603-0.43452 1.9258-2.7949l-0.99079-5.3821q-0.43452-2.3603-2.7949-1.9258l-7.6145 1.4018q-2.3603 0.43452-1.9258 2.7949z" clip-path="url(#a)" fill="#fff" stroke="#fff"/>
<g clip-path="url(#a)">
<g transform="translate(251.59 643.32) rotate(79.569) scale(.08 -.08)">
<use xlink:href="#p"/>
</g>
</g>
<path d="m236.22 649.24 0.9195-4.9948q0.43452-2.3603-1.9258-2.7949l-7.6145-1.4018q-2.3603-0.43452-2.7949 1.9258l-0.9195 4.9948q-0.43452 2.3603 1.9258 2.7949l7.6146 1.4018q2.3603 0.43452 2.7949-1.9258z" clip-path="url(#a)" fill="#fff" stroke="#fff"/>
<g clip-path="url(#a)">
<g transform="translate(232.23 648.51) rotate(-79.569) scale(.08 -.08)">
<use xlink:href="#aj"/>
</g>
</g>
<path d="m212.37 756.95v35.285q0 2.4 2.4 2.4h7.7425q2.4 0 2.4-2.4v-35.285q0-2.4-2.4-2.4h-7.7425q-2.4 0-2.4 2.4z" clip-path="url(#a)" fill="#fff" stroke="#fff"/>
<g clip-path="url(#a)">
<g transform="translate(216.44 756.95) rotate(90) scale(.08 -.08)">
<use xlink:href="#l"/>
<use x="60.818359" xlink:href="#d"/>
<use x="122.341797" xlink:href="#j"/>
<use x="163.439453" xlink:href="#k"/>
<use x="260.851562" xlink:href="#i"/>
<use x="288.634766" xlink:href="#h"/>
<use x="352.013672" xlink:href="#g"/>
<use x="413.292969" xlink:href="#f"/>
</g>
</g>
<path d="m924.71 756.95v35.285q0 2.4 2.4 2.4h7.7425q2.4 0 2.4-2.4v-35.285q0-2.4-2.4-2.4h-7.7425q-2.4 0-2.4 2.4z" clip-path="url(#a)" fill="#fff" stroke="#fff"/>
<g clip-path="url(#a)">
<g transform="translate(928.77 756.95) rotate(90) scale(.08 -.08)">
<use xlink:href="#l"/>
<use x="60.818359" xlink:href="#d"/>
<use x="122.341797" xlink:href="#j"/>
<use x="163.439453" xlink:href="#k"/>
<use x="260.851562" xlink:href="#i"/>
<use x="288.634766" xlink:href="#h"/>
<use x="352.013672" xlink:href="#g"/>
<use x="413.292969" xlink:href="#f"/>
</g>
</g>
<path d="m1114.7 756.95v35.285q0 2.4 2.4 2.4h7.7425q2.4 0 2.4-2.4v-35.285q0-2.4-2.4-2.4h-7.7425q-2.4 0-2.4 2.4z" clip-path="url(#a)" fill="#fff" stroke="#fff"/>
<g clip-path="url(#a)">
<g transform="translate(1118.7 756.95) rotate(90) scale(.08 -.08)">
<use xlink:href="#l"/>
<use x="60.818359" xlink:href="#d"/>
<use x="122.341797" xlink:href="#j"/>
<use x="163.439453" xlink:href="#k"/>
<use x="260.851562" xlink:href="#i"/>
<use x="288.634766" xlink:href="#h"/>
<use x="352.013672" xlink:href="#g"/>
<use x="413.292969" xlink:href="#f"/>
</g>
</g>
<path d="m1162.2 756.95v35.285q0 2.4 2.4 2.4h7.7425q2.4 0 2.4-2.4v-35.285q0-2.4-2.4-2.4h-7.7425q-2.4 0-2.4 2.4z" clip-path="url(#a)" fill="#fff" stroke="#fff"/>
<g clip-path="url(#a)">
<g transform="translate(1166.2 756.95) rotate(90) scale(.08 -.08)">
<use xlink:href="#l"/>
<use x="60.818359" xlink:href="#d"/>
<use x="122.341797" xlink:href="#j"/>
<use x="163.439453" xlink:href="#k"/>
<use x="260.851562" xlink:href="#i"/>
<use x="288.634766" xlink:href="#h"/>
<use x="352.013672" xlink:href="#g"/>
<use x="413.292969" xlink:href="#f"/>
</g>
</g>
<path d="m1352.1 756.95v35.285q0 2.4 2.4 2.4h7.7425q2.4 0 2.4-2.4v-35.285q0-2.4-2.4-2.4h-7.7425q-2.4 0-2.4 2.4z" clip-path="url(#a)" fill="#fff" stroke="#fff"/>
<g clip-path="url(#a)">
<g transform="translate(1356.2 756.95) rotate(90) scale(.08 -.08)">
<use xlink:href="#l"/>
<use x="60.818359" xlink:href="#d"/>
<use x="122.341797" xlink:href="#j"/>
<use x="163.439453" xlink:href="#k"/>
<use x="260.851562" xlink:href="#i"/>
<use x="288.634766" xlink:href="#h"/>
<use x="352.013672" xlink:href="#g"/>
<use x="413.292969" xlink:href="#f"/>
</g>
</g>
<path d="m1434.8 644 1.0114 5.4939q0.43452 2.3603 2.7949 1.9258l7.6146-1.4018q2.3603-0.43452 1.9258-2.7949l-1.0114-5.4939q-0.43452-2.3603-2.7949-1.9258l-7.6145 1.4018q-2.3603 0.43452-1.9258 2.7949z" clip-path="url(#a)" fill="#fff" stroke="#fff"/>
<g clip-path="url(#a)">
<g transform="translate(1438.8 643.26) rotate(79.569) scale(.08 -.08)">
<use xlink:href="#y"/>
</g>
</g>
<path d="m1423.4 649.23 0.9152-4.9715q0.43452-2.3603-1.9258-2.7949l-7.6145-1.4018q-2.3603-0.43452-2.7949 1.9258l-0.9152 4.9715q-0.43452 2.3603 1.9258 2.7949l7.6145 1.4018q2.3603 0.43452 2.7949-1.9258z" clip-path="url(#a)" fill="#fff" stroke="#fff"/>
<g clip-path="url(#a)">
<g transform="translate(1419.5 648.5) rotate(-79.569) scale(.08 -.08)">
<use xlink:href="#w"/>
</g>
</g>
<path d="m1447.1 756.95v35.285q0 2.4 2.4 2.4h7.7425q2.4 0 2.4-2.4v-35.285q0-2.4-2.4-2.4h-7.7425q-2.4 0-2.4 2.4z" clip-path="url(#a)" fill="#fff" stroke="#fff"/>
<g clip-path="url(#a)">
<g transform="translate(1451.1 756.95) rotate(90) scale(.08 -.08)">
<use xlink:href="#l"/>
<use x="60.818359" xlink:href="#d"/>
<use x="122.341797" xlink:href="#j"/>
<use x="163.439453" xlink:href="#k"/>
<use x="260.851562" xlink:href="#i"/>
<use x="288.634766" xlink:href="#h"/>
<use x="352.013672" xlink:href="#g"/>
<use x="413.292969" xlink:href="#f"/>
</g>
</g>
<path d="m1542.1 756.95v35.285q0 2.4 2.4 2.4h7.7425q2.4 0 2.4-2.4v-35.285q0-2.4-2.4-2.4h-7.7425q-2.4 0-2.4 2.4z" clip-path="url(#a)" fill="#fff" stroke="#fff"/>
<g clip-path="url(#a)">
<g transform="translate(1546.1 756.95) rotate(90) scale(.08 -.08)">
<use xlink:href="#l"/>
<use x="60.818359" xlink:href="#d"/>
<use x="122.341797" xlink:href="#j"/>
<use x="163.439453" xlink:href="#k"/>
<use x="260.851562" xlink:href="#i"/>
<use x="288.634766" xlink:href="#h"/>
<use x="352.013672" xlink:href="#g"/>
<use x="413.292969" xlink:href="#f"/>
</g>
</g>
<path d="m1399.6 756.95v35.285q0 2.4 2.4 2.4h7.7425q2.4 0 2.4-2.4v-35.285q0-2.4-2.4-2.4h-7.7425q-2.4 0-2.4 2.4z" clip-path="url(#a)" fill="#fff" stroke="#fff"/>
<g clip-path="url(#a)">
<g transform="translate(1403.7 756.95) rotate(90) scale(.08 -.08)">
<use xlink:href="#l"/>
<use x="60.818359" xlink:href="#d"/>
<use x="122.341797" xlink:href="#j"/>
<use x="163.439453" xlink:href="#k"/>
<use x="260.851562" xlink:href="#i"/>
<use x="288.634766" xlink:href="#h"/>
<use x="352.013672" xlink:href="#g"/>
<use x="413.292969" xlink:href="#f"/>
</g>
</g>
<path d="m751.71 380.96v5.4725q0 2.4 2.4 2.4h7.7425q2.4 0 2.4-2.4v-5.4725q0-2.4-2.4-2.4h-7.7425q-2.4 0-2.4 2.4z" clip-path="url(#a)" fill="#fff" stroke="#fff"/>
<g clip-path="url(#a)">
<g transform="translate(755.77 380.96) rotate(90) scale(.08 -.08)">
<use xlink:href="#p"/>
</g>
</g>
<path d="m972.28 519.54 0.97763-5.3845q0.42874-2.3614-1.9326-2.7901l-7.618-1.3832q-2.3614-0.42874-2.7901 1.9326l-0.97763 5.3845q-0.42875 2.3614 1.9326 2.7901l7.618 1.3832q2.3614 0.42874 2.7901-1.9326z" clip-path="url(#a)" fill="#fff" stroke="#fff"/>
<g clip-path="url(#a)">
<g transform="translate(968.28 518.82) rotate(-79.709) scale(.08 -.08)">
<use xlink:href="#p"/>
</g>
</g>
<path d="m983.68 514.16 0.97763 5.3845q0.42874 2.3614 2.7901 1.9326l7.618-1.3832q2.3614-0.42875 1.9326-2.7901l-0.97763-5.3845q-0.42874-2.3614-2.7901-1.9326l-7.618 1.3832q-2.3614 0.42875-1.9326 2.7901z" clip-path="url(#a)" fill="#fff" stroke="#fff"/>
<g clip-path="url(#a)">
<g transform="translate(987.68 513.43) rotate(79.709) scale(.08 -.08)">
<use xlink:href="#p"/>
</g>
</g>
<defs>
<path id="b" d="m0 8.6603c2.2967 0 4.4997-0.9125 6.1237-2.5365 1.624-1.624 2.5365-3.827 2.5365-6.1237s-0.9125-4.4997-2.5365-6.1237c-1.624-1.624-3.827-2.5365-6.1237-2.5365s-4.4997 0.9125-6.1237 2.5365c-1.624 1.624-2.5365 3.827-2.5365 6.1237s0.9125 4.4997 2.5365 6.1237c1.624 1.624 3.827 2.5365 6.1237 2.5365z"/>
</defs>
<g clip-path="url(#a)">
<use x="76.1771" y="839.086073" fill="#ffffff" stroke="#ffffff" xlink:href="#b"/>
</g>
<g clip-path="url(#a)">
<use x="123.666032" y="839.086073" fill="#ffffff" stroke="#ffffff" xlink:href="#b"/>
</g>
<g clip-path="url(#a)">
<use x="171.154963" y="839.086073" fill="#ffffff" stroke="#ffffff" xlink:href="#b"/>
</g>
<g clip-path="url(#a)">
<use x="218.643894" y="839.086073" fill="#ffffff" stroke="#ffffff" xlink:href="#b"/>
</g>
<g clip-path="url(#a)">
<use x="266.132825" y="839.086073" fill="#ffffff" stroke="#ffffff" xlink:href="#b"/>
</g>
<g clip-path="url(#a)">
<use x="313.621756" y="839.086073" fill="#ffffff" stroke="#ffffff" xlink:href="#b"/>
</g>
<g clip-path="url(#a)">
<use x="361.110688" y="839.086073" fill="#ffffff" stroke="#ffffff" xlink:href="#b"/>
</g>
<g clip-path="url(#a)">
<use x="408.599619" y="839.086073" fill="#ffffff" stroke="#ffffff" xlink:href="#b"/>
</g>
<g clip-path="url(#a)">
<use x="456.08855" y="839.086073" fill="#ffffff" stroke="#ffffff" xlink:href="#b"/>
</g>
<g clip-path="url(#a)">
<use x="503.577481" y="839.086073" fill="#ffffff" stroke="#ffffff" xlink:href="#b"/>
</g>
<g clip-path="url(#a)">
<use x="551.066413" y="839.086073" fill="#ffffff" stroke="#ffffff" xlink:href="#b"/>
</g>
<g clip-path="url(#a)">
<use x="598.555344" y="839.086073" fill="#ffffff" stroke="#ffffff" xlink:href="#b"/>
</g>
<g clip-path="url(#a)">
<use x="646.044275" y="839.086073" fill="#ffffff" stroke="#ffffff" xlink:href="#b"/>
</g>
<g clip-path="url(#a)">
<use x="693.533206" y="839.086073" fill="#ffffff" stroke="#ffffff" xlink:href="#b"/>
</g>
<g clip-path="url(#a)">
<use x="741.022138" y="839.086073" fill="#ffffff" stroke="#ffffff" xlink:href="#b"/>
</g>
<g clip-path="url(#a)">
<use x="788.511069" y="839.086073" fill="#ffffff" stroke="#ffffff" xlink:href="#b"/>
</g>
<g clip-path="url(#a)">
<use x="836" y="839.086073" fill="#ffffff" stroke="#ffffff" xlink:href="#b"/>
</g>
<g clip-path="url(#a)">
<use x="883.488931" y="839.086073" fill="#ffffff" stroke="#ffffff" xlink:href="#b"/>
</g>
<g clip-path="url(#a)">
<use x="930.977862" y="839.086073" fill="#ffffff" stroke="#ffffff" xlink:href="#b"/>
</g>
<g clip-path="url(#a)">
<use x="978.466794" y="839.086073" fill="#ffffff" stroke="#ffffff" xlink:href="#b"/>
</g>
<g clip-path="url(#a)">
<use x="1025.955725" y="839.086073" fill="#ffffff" stroke="#ffffff" xlink:href="#b"/>
</g>
<g clip-path="url(#a)">
<use x="1073.444656" y="839.086073" fill="#ffffff" stroke="#ffffff" xlink:href="#b"/>
</g>
<g clip-path="url(#a)">
<use x="1120.933587" y="839.086073" fill="#ffffff" stroke="#ffffff" xlink:href="#b"/>
</g>
<g clip-path="url(#a)">
<use x="1168.422519" y="839.086073" fill="#ffffff" stroke="#ffffff" xlink:href="#b"/>
</g>
<g clip-path="url(#a)">
<use x="1215.91145" y="839.086073" fill="#ffffff" stroke="#ffffff" xlink:href="#b"/>
</g>
<g clip-path="url(#a)">
<use x="1263.400381" y="839.086073" fill="#ffffff" stroke="#ffffff" xlink:href="#b"/>
</g>
<g clip-path="url(#a)">
<use x="1310.889312" y="839.086073" fill="#ffffff" stroke="#ffffff" xlink:href="#b"/>
</g>
<g clip-path="url(#a)">
<use x="1358.378244" y="839.086073" fill="#ffffff" stroke="#ffffff" xlink:href="#b"/>
</g>
<g clip-path="url(#a)">
<use x="1405.867175" y="839.086073" fill="#ffffff" stroke="#ffffff" xlink:href="#b"/>
</g>
<g clip-path="url(#a)">
<use x="1453.356106" y="839.086073" fill="#ffffff" stroke="#ffffff" xlink:href="#b"/>
</g>
<g clip-path="url(#a)">
<use x="1500.845037" y="839.086073" fill="#ffffff" stroke="#ffffff" xlink:href="#b"/>
</g>
<g clip-path="url(#a)">
<use x="1548.333968" y="839.086073" fill="#ffffff" stroke="#ffffff" xlink:href="#b"/>
</g>
<g clip-path="url(#a)">
<use x="1595.8229" y="839.086073" fill="#ffffff" stroke="#ffffff" xlink:href="#b"/>
</g>
<g clip-path="url(#a)">
<use x="1050.369518" y="40.913927" fill="#ffffff" stroke="#ffffff" xlink:href="#b"/>
</g>
<g clip-path="url(#a)">
<use x="610.136828" y="180.716507" fill="#ffffff" stroke="#ffffff" xlink:href="#b"/>
</g>
<g clip-path="url(#a)">
<use x="503.577481" y="710.103449" fill="#ffffff" stroke="#ffffff" xlink:href="#b"/>
</g>
<g clip-path="url(#a)">
<use x="187.776089" y="317.048789" fill="#ffffff" stroke="#ffffff" xlink:href="#b"/>
</g>
<g clip-path="url(#a)">
<use x="313.621756" y="710.103449" fill="#ffffff" stroke="#ffffff" xlink:href="#b"/>
</g>
<g clip-path="url(#a)">
<use x="361.110688" y="710.103449" fill="#ffffff" stroke="#ffffff" xlink:href="#b"/>
</g>
<g clip-path="url(#a)">
<use x="408.599619" y="710.103449" fill="#ffffff" stroke="#ffffff" xlink:href="#b"/>
</g>
<g clip-path="url(#a)">
<use x="456.08855" y="710.103449" fill="#ffffff" stroke="#ffffff" xlink:href="#b"/>
</g>
<g clip-path="url(#a)">
<use x="757.98247" y="450.343911" fill="#ffffff" stroke="#ffffff" xlink:href="#b"/>
</g>
<g clip-path="url(#a)">
<use x="741.022138" y="710.103449" fill="#ffffff" stroke="#ffffff" xlink:href="#b"/>
</g>
<g clip-path="url(#a)">
<use x="942.850095" y="317.048789" fill="#ffffff" stroke="#ffffff" xlink:href="#b"/>
</g>
<g clip-path="url(#a)">
<use x="883.488931" y="710.103449" fill="#ffffff" stroke="#ffffff" xlink:href="#b"/>
</g>
<g clip-path="url(#a)">
<use x="1263.400381" y="710.103449" fill="#ffffff" stroke="#ffffff" xlink:href="#b"/>
</g>
<g clip-path="url(#a)">
<use x="1385.090767" y="317.048789" fill="#ffffff" stroke="#ffffff" xlink:href="#b"/>
</g>
<g clip-path="url(#a)">
<use x="1310.889312" y="710.103449" fill="#ffffff" stroke="#ffffff" xlink:href="#b"/>
</g>
<g clip-path="url(#a)">
<use x="1595.8229" y="710.103449" fill="#ffffff" stroke="#ffffff" xlink:href="#b"/>
</g>
<g clip-path="url(#a)">
<use x="76.1771" y="710.103449" fill="#ffffff" stroke="#ffffff" xlink:href="#b"/>
</g>
<g clip-path="url(#a)">
<use x="123.666032" y="710.103449" fill="#ffffff" stroke="#ffffff" xlink:href="#b"/>
</g>
<g clip-path="url(#a)">
<use x="171.154963" y="710.103449" fill="#ffffff" stroke="#ffffff" xlink:href="#b"/>
</g>
<g clip-path="url(#a)">
<use x="254.260592" y="450.343911" fill="#ffffff" stroke="#ffffff" xlink:href="#b"/>
</g>
<g clip-path="url(#a)">
<use x="266.132825" y="710.103449" fill="#ffffff" stroke="#ffffff" xlink:href="#b"/>
</g>
<g clip-path="url(#a)">
<use x="551.066413" y="710.103449" fill="#ffffff" stroke="#ffffff" xlink:href="#b"/>
</g>
<g clip-path="url(#a)">
<use x="669.788741" y="581.120825" fill="#ffffff" stroke="#ffffff" xlink:href="#b"/>
</g>
<g clip-path="url(#a)">
<use x="598.555344" y="710.103449" fill="#ffffff" stroke="#ffffff" xlink:href="#b"/>
</g>
<g clip-path="url(#a)">
<use x="693.533206" y="581.120825" fill="#ffffff" stroke="#ffffff" xlink:href="#b"/>
</g>
<g clip-path="url(#a)">
<use x="646.044275" y="710.103449" fill="#ffffff" stroke="#ffffff" xlink:href="#b"/>
</g>
<g clip-path="url(#a)">
<use x="693.533206" y="710.103449" fill="#ffffff" stroke="#ffffff" xlink:href="#b"/>
</g>
<g clip-path="url(#a)">
<use x="788.511069" y="710.103449" fill="#ffffff" stroke="#ffffff" xlink:href="#b"/>
</g>
<g clip-path="url(#a)">
<use x="836" y="710.103449" fill="#ffffff" stroke="#ffffff" xlink:href="#b"/>
</g>
<g clip-path="url(#a)">
<use x="954.722328" y="581.120825" fill="#ffffff" stroke="#ffffff" xlink:href="#b"/>
</g>
<g clip-path="url(#a)">
<use x="978.466794" y="710.103449" fill="#ffffff" stroke="#ffffff" xlink:href="#b"/>
</g>
<g clip-path="url(#a)">
<use x="1002.211259" y="581.120825" fill="#ffffff" stroke="#ffffff" xlink:href="#b"/>
</g>
<g clip-path="url(#a)">
<use x="1025.955725" y="710.103449" fill="#ffffff" stroke="#ffffff" xlink:href="#b"/>
</g>
<g clip-path="url(#a)">
<use x="1073.444656" y="710.103449" fill="#ffffff" stroke="#ffffff" xlink:href="#b"/>
</g>
<g clip-path="url(#a)">
<use x="1168.422519" y="581.120825" fill="#ffffff" stroke="#ffffff" xlink:href="#b"/>
</g>
<g clip-path="url(#a)">
<use x="1215.91145" y="710.103449" fill="#ffffff" stroke="#ffffff" xlink:href="#b"/>
</g>
<g clip-path="url(#a)">
<use x="1459.292222" y="450.343911" fill="#ffffff" stroke="#ffffff" xlink:href="#b"/>
</g>
<g clip-path="url(#a)">
<use x="1500.845037" y="710.103449" fill="#ffffff" stroke="#ffffff" xlink:href="#b"/>
</g>
<g clip-path="url(#a)">
<use x="242.38836" y="581.120825" fill="#ffffff" stroke="#ffffff" xlink:href="#b"/>
</g>
<g clip-path="url(#a)">
<use x="218.643894" y="710.103449" fill="#ffffff" stroke="#ffffff" xlink:href="#b"/>
</g>
<g clip-path="url(#a)">
<use x="930.977862" y="710.103449" fill="#ffffff" stroke="#ffffff" xlink:href="#b"/>
</g>
<g clip-path="url(#a)">
<use x="1120.933587" y="710.103449" fill="#ffffff" stroke="#ffffff" xlink:href="#b"/>
</g>
<g clip-path="url(#a)">
<use x="1168.422519" y="710.103449" fill="#ffffff" stroke="#ffffff" xlink:href="#b"/>
</g>
<g clip-path="url(#a)">
<use x="1358.378244" y="710.103449" fill="#ffffff" stroke="#ffffff" xlink:href="#b"/>
</g>
<g clip-path="url(#a)">
<use x="1429.61164" y="581.120825" fill="#ffffff" stroke="#ffffff" xlink:href="#b"/>
</g>
<g clip-path="url(#a)">
<use x="1453.356106" y="710.103449" fill="#ffffff" stroke="#ffffff" xlink:href="#b"/>
</g>
<g clip-path="url(#a)">
<use x="1548.333968" y="710.103449" fill="#ffffff" stroke="#ffffff" xlink:href="#b"/>
</g>
<g clip-path="url(#a)">
<use x="1405.867175" y="710.103449" fill="#ffffff" stroke="#ffffff" xlink:href="#b"/>
</g>
<g clip-path="url(#a)">
<use x="757.98247" y="317.048789" fill="#ffffff" stroke="#ffffff" xlink:href="#b"/>
</g>
<g clip-path="url(#a)">
<use x="978.466794" y="450.343911" fill="#ffffff" stroke="#ffffff" xlink:href="#b"/>
</g>
<g clip-path="url(#a)">
<defs>
<path id="r" d="m44.281 53.078v-8.5q-3.7969 1.9531-7.9062 2.9219-4.0938 0.98438-8.5 0.98438-6.6875 0-10.031-2.0469t-3.3438-6.1562q0-3.125 2.3906-4.9062t9.625-3.3906l3.0781-0.6875q9.5625-2.0469 13.594-5.7812t4.0312-10.422q0-7.625-6.0312-12.078-6.0312-4.4375-16.578-4.4375-4.3906 0-9.1562 0.85938t-10.031 2.5625v9.2812q4.9844-2.5938 9.8125-3.8906 4.8281-1.2812 9.5781-1.2812 6.3438 0 9.75 2.1719 3.4219 2.1719 3.4219 6.125 0 3.6562-2.4688 5.6094-2.4531 1.9531-10.812 3.7656l-3.125 0.73438q-8.3438 1.75-12.062 5.3906-3.7031 3.6406-3.7031 9.9844 0 7.7188 5.4688 11.906 5.4688 4.2031 15.531 4.2031 4.9688 0 9.3594-0.73438 4.4062-0.71875 8.1094-2.1875z"/>
</defs>
<g transform="translate(70.152 841.85) scale(.1 -.1)">
<use xlink:href="#p"/>
<use x="68.408203" xlink:href="#r"/>
</g>
</g>
<g clip-path="url(#a)">
<g transform="translate(120.6 841.85) scale(.1 -.1)">
<use xlink:href="#g"/>
</g>
</g>
<g clip-path="url(#a)">
<defs>
<path id="ay" d="m14.797 27.297q0-9.9062 4.0781-15.547t11.203-5.6406 11.219 5.6406q4.1094 5.6406 4.1094 15.547t-4.1094 15.547q-4.0938 5.6406-11.219 5.6406t-11.203-5.6406-4.0781-15.547zm30.609-19.094q-2.8281-4.875-7.1562-7.25-4.3125-2.375-10.375-2.375-9.9062 0-16.141 7.9062-6.2188 7.9219-6.2188 20.812t6.2188 20.797q6.2344 7.9062 16.141 7.9062 6.0625 0 10.375-2.375 4.3281-2.3594 7.1562-7.2344v8.2969h8.9844v-75.484h-8.9844z"/>
<path id="ae" d="m8.5 21.578v33.109h8.9844v-32.766q0-7.7656 3.0156-11.656 3.0312-3.875 9.0938-3.875 7.2656 0 11.484 4.6406 4.2344 4.6406 4.2344 12.656v31h8.9844v-54.688h-8.9844v8.4062q-3.2656-4.9844-7.5938-7.4062-4.3125-2.4219-10.031-2.4219-9.4219 0-14.312 5.8594-4.875 5.8594-4.875 17.141z"/>
<path id="ag" d="m37.109 75.984v-7.4844h-8.5938q-4.8281 0-6.7188-1.9531-1.875-1.9531-1.875-7.0312v-4.8281h14.797v-6.9844h-14.797v-47.703h-9.0312v47.703h-8.5938v6.9844h8.5938v3.8125q0 9.125 4.25 13.297 4.25 4.1875 13.469 4.1875z"/>
<path id="ap" d="m45.406 46.391v29.594h8.9844v-75.984h-8.9844v8.2031q-2.8281-4.875-7.1562-7.25-4.3125-2.375-10.375-2.375-9.9062 0-16.141 7.9062-6.2188 7.9219-6.2188 20.812t6.2188 20.797q6.2344 7.9062 16.141 7.9062 6.0625 0 10.375-2.375 4.3281-2.3594 7.1562-7.2344zm-30.609-19.094q0-9.9062 4.0781-15.547t11.203-5.6406 11.219 5.6406q4.1094 5.6406 4.1094 15.547t-4.1094 15.547q-4.0938 5.6406-11.219 5.6406t-11.203-5.6406-4.0781-15.547z"/>
</defs>
<g transform="translate(149.57 841.85) scale(.1 -.1)">
<use xlink:href="#ay"/>
<use x="63.476562" xlink:href="#ae"/>
<use x="126.855469" xlink:href="#g"/>
<use x="188.134766" xlink:href="#f"/>
<use x="215.917969" xlink:href="#i"/>
<use x="243.701172" xlink:href="#ag"/>
<use x="278.90625" xlink:href="#i"/>
<use x="306.689453" xlink:href="#d"/>
<use x="368.212891" xlink:href="#ap"/>
</g>
</g>
<g clip-path="url(#a)">
<defs>
<path id="ah" d="m48.781 52.594v-8.4062q-3.8125 2.1094-7.6406 3.1562t-7.7344 1.0469q-8.75 0-13.594-5.5469-4.8281-5.5312-4.8281-15.547t4.8281-15.562q4.8438-5.5312 13.594-5.5312 3.9062 0 7.7344 1.0469t7.6406 3.1562v-8.3125q-3.7656-1.75-7.7969-2.625-4.0156-0.89062-8.5625-0.89062-12.359 0-19.641 7.7656-7.2656 7.7656-7.2656 20.953 0 13.375 7.3438 21.031 7.3594 7.6719 20.156 7.6719 4.1406 0 8.0938-0.85938 3.9531-0.84375 7.6719-2.5469z"/>
</defs>
<g transform="translate(198.57 841.85) scale(.1 -.1)">
<use xlink:href="#ah"/>
<use x="54.980469" xlink:href="#j"/>
<use x="96.09375" xlink:href="#i"/>
<use x="123.876953" xlink:href="#k"/>
<use x="221.289062" xlink:href="#i"/>
<use x="249.072266" xlink:href="#h"/>
<use x="312.451172" xlink:href="#g"/>
<use x="373.730469" xlink:href="#f"/>
</g>
</g>
<g clip-path="url(#a)">
<g transform="translate(246.2 841.85) scale(.1 -.1)">
<use xlink:href="#ap"/>
<use x="63.476562" xlink:href="#d"/>
<use x="125" xlink:href="#ag"/>
<use x="160.205078" xlink:href="#d"/>
<use x="221.728516" xlink:href="#h"/>
<use x="285.107422" xlink:href="#r"/>
<use x="337.207031" xlink:href="#d"/>
</g>
</g>
<g clip-path="url(#a)">
<defs>
<path id="s" d="m18.312 70.219v-15.531h18.5v-6.9844h-18.5v-29.688q0-6.6875 1.8281-8.5938t7.4531-1.9062h9.2188v-7.5156h-9.2188q-10.406 0-14.359 3.875-3.9531 3.8906-3.9531 14.141v29.688h-6.5938v6.9844h6.5938v15.531z"/>
<path id="q" d="m30.609 48.391q-7.2188 0-11.422-5.6406t-4.2031-15.453 4.1719-15.453q4.1875-5.6406 11.453-5.6406 7.1875 0 11.375 5.6562 4.2031 5.6719 4.2031 15.438 0 9.7188-4.2031 15.406-4.1875 5.6875-11.375 5.6875zm0 7.6094q11.719 0 18.406-7.625 6.7031-7.6094 6.7031-21.078 0-13.422-6.7031-21.078-6.6875-7.6406-18.406-7.6406-11.766 0-18.438 7.6406-6.6562 7.6562-6.6562 21.078 0 13.469 6.6562 21.078 6.6719 7.625 18.438 7.625z"/>
<path id="am" d="m32.172-5.0781q-3.7969-9.7656-7.4219-12.734-3.6094-2.9844-9.6562-2.9844h-7.1875v7.5156h5.2812q3.7031 0 5.75 1.7656 2.0625 1.75 4.5469 8.2969l1.6094 4.0938-22.109 53.812h9.5156l17.094-42.766 17.094 42.766h9.5156z"/>
</defs>
<g transform="translate(292.32 841.85) scale(.1 -.1)">
<use xlink:href="#g"/>
<use x="61.279297" xlink:href="#s"/>
<use x="100.488281" xlink:href="#s"/>
<use x="139.697266" xlink:href="#q"/>
<use x="200.878906" xlink:href="#j"/>
<use x="241.976562" xlink:href="#h"/>
<use x="305.355469" xlink:href="#d"/>
<use x="366.878906" xlink:href="#am"/>
</g>
</g>
<g clip-path="url(#a)">
<defs>
<path id="av" d="m11.719 12.406h10.297v-8.4062l-8-15.625h-6.2969l4 15.625z"/>
</defs>
<g transform="translate(359.52 841.85) scale(.1 -.1)">
<use xlink:href="#av"/>
</g>
</g>
<g clip-path="url(#a)">
<defs>
<path id="an" d="m54.891 33.016v-33.016h-8.9844v32.719q0 7.7656-3.0312 11.609-3.0312 3.8594-9.0781 3.8594-7.2812 0-11.484-4.6406-4.2031-4.625-4.2031-12.641v-30.906h-9.0312v75.984h9.0312v-29.797q3.2344 4.9375 7.5938 7.375 4.375 2.4375 10.094 2.4375 9.4219 0 14.25-5.8281 4.8438-5.8281 4.8438-17.156z"/>
</defs>
<g transform="translate(402.35 841.85) scale(.1 -.1)">
<use xlink:href="#an"/>
<use x="63.378906" xlink:href="#d"/>
</g>
</g>
<g clip-path="url(#a)">
<defs>
<path id="as" d="m4.2031 54.688h8.9844l11.234-42.672 11.172 42.672h10.594l11.234-42.672 11.188 42.672h8.9844l-14.312-54.688h-10.594l-11.766 44.828-11.812-44.828h-10.609z"/>
</defs>
<g transform="translate(447.83 841.85) scale(.1 -.1)">
<use xlink:href="#as"/>
<use x="81.787109" xlink:href="#i"/>
<use x="109.570312" xlink:href="#f"/>
<use x="137.353516" xlink:href="#f"/>
</g>
</g>
<g clip-path="url(#a)">
<defs>
<path id="az" d="m9.0781 75.984h9.0312v-44.875l26.812 23.578h11.469l-29-25.578 30.234-29.109h-11.719l-27.797 26.703v-26.703h-9.0312z"/>
</defs>
<g transform="translate(491.48 841.85) scale(.1 -.1)">
<use xlink:href="#as"/>
<use x="81.787109" xlink:href="#q"/>
<use x="142.96875" xlink:href="#j"/>
<use x="184.082031" xlink:href="#az"/>
</g>
</g>
<g clip-path="url(#a)">
<defs>
<path id="af" d="m2.9844 54.688h9.5156l17.094-45.891 17.094 45.891h9.5156l-20.516-54.688h-12.203z"/>
</defs>
<g transform="translate(536.94 841.85) scale(.1 -.1)">
<use xlink:href="#d"/>
<use x="61.523438" xlink:href="#af"/>
<use x="120.703125" xlink:href="#d"/>
<use x="182.226562" xlink:href="#j"/>
<use x="223.339844" xlink:href="#am"/>
</g>
</g>
<g clip-path="url(#a)">
<defs>
<path id="at" d="m18.109 8.2031v-29h-9.0312v75.484h9.0312v-8.2969q2.8438 4.875 7.1562 7.2344 4.3281 2.375 10.328 2.375 9.9688 0 16.188-7.9062 6.2344-7.9062 6.2344-20.797t-6.2344-20.812q-6.2188-7.9062-16.188-7.9062-6 0-10.328 2.375-4.3125 2.375-7.1562 7.25zm30.578 19.094q0 9.9062-4.0781 15.547t-11.203 5.6406q-7.1406 0-11.219-5.6406t-4.0781-15.547 4.0781-15.547 11.219-5.6406q7.125 0 11.203 5.6406t4.0781 15.547z"/>
<path id="ai" d="m48.688 27.297q0 9.9062-4.0781 15.547t-11.203 5.6406q-7.1406 0-11.219-5.6406t-4.0781-15.547 4.0781-15.547 11.219-5.6406q7.125 0 11.203 5.6406t4.0781 15.547zm-30.578 19.094q2.8438 4.875 7.1562 7.2344 4.3281 2.375 10.328 2.375 9.9688 0 16.188-7.9062 6.2344-7.9062 6.2344-20.797t-6.2344-20.812q-6.2188-7.9062-16.188-7.9062-6 0-10.328 2.375-4.3125 2.375-7.1562 7.25v-8.2031h-9.0312v75.984h9.0312z"/>
</defs>
<g transform="translate(578.08 841.85) scale(.1 -.1)">
<use xlink:href="#at"/>
<use x="63.476562" xlink:href="#q"/>
<use x="124.658203" xlink:href="#r"/>
<use x="176.757812" xlink:href="#r"/>
<use x="228.857422" xlink:href="#i"/>
<use x="256.640625" xlink:href="#ai"/>
<use x="320.117188" xlink:href="#f"/>
<use x="347.900391" xlink:href="#d"/>
</g>
</g>
<g clip-path="url(#a)">
<defs>
<path id="ao" d="m45.406 27.984q0 9.7656-4.0312 15.125-4.0156 5.375-11.297 5.375-7.2188 0-11.25-5.375-4.0312-5.3594-4.0312-15.125 0-9.7188 4.0312-15.094t11.25-5.375q7.2812 0 11.297 5.375 4.0312 5.375 4.0312 15.094zm8.9844-21.203q0-13.953-6.2031-20.766-6.1875-6.8125-18.984-6.8125-4.7344 0-8.9375 0.70312t-8.1562 2.1719v8.7344q3.9531-2.1406 7.8125-3.1562 3.8594-1.0312 7.8594-1.0312 8.8438 0 13.234 4.6094t4.3906 13.938v4.4531q-2.7812-4.8438-7.125-7.2344t-10.406-2.3906q-10.047 0-16.203 7.6562-6.1562 7.6719-6.1562 20.328 0 12.688 6.1562 20.344 6.1562 7.6719 16.203 7.6719 6.0625 0 10.406-2.3906t7.125-7.2188v8.2969h8.9844z"/>
</defs>
<g transform="translate(633.95 841.85) scale(.1 -.1)">
<use xlink:href="#f"/>
<use x="27.783203" xlink:href="#d"/>
<use x="89.306641" xlink:href="#ao"/>
<use x="152.783203" xlink:href="#g"/>
<use x="214.0625" xlink:href="#f"/>
</g>
</g>
<g clip-path="url(#a)">
<defs>
<path id="ar" d="m17.922 72.906v-27.109h-8.2969v27.109zm18.453 0v-27.109h-8.2969v27.109z"/>
</defs>
<g transform="translate(691.23 841.85) scale(.1 -.1)">
<use xlink:href="#ar"/>
</g>
</g>
<g clip-path="url(#a)">
<g transform="translate(727.15 841.85) scale(.1 -.1)">
<use xlink:href="#g"/>
<use x="61.279297" xlink:href="#h"/>
<use x="124.658203" xlink:href="#ao"/>
<use x="188.134766" xlink:href="#f"/>
<use x="215.917969" xlink:href="#d"/>
</g>
</g>
<g clip-path="url(#a)">
<g transform="translate(786.21 841.85) scale(.1 -.1)">
<use xlink:href="#ar"/>
</g>
</g>
<g clip-path="url(#a)">
<defs>
<path id="ax" d="m31 75.875q-6.5312-11.219-9.7188-22.219-3.1719-10.984-3.1719-22.266 0-11.266 3.2031-22.328t9.6875-22.25h-7.8125q-7.3125 11.484-10.953 22.562t-3.6406 22.016q0 10.891 3.6094 21.922 3.625 11.047 10.984 22.562z"/>
</defs>
<g transform="translate(834.05 841.85) scale(.1 -.1)">
<use xlink:href="#ax"/>
</g>
</g>
<g clip-path="url(#a)">
<g transform="translate(865.27 841.85) scale(.1 -.1)">
<use xlink:href="#f"/>
<use x="27.783203" xlink:href="#d"/>
<use x="89.306641" xlink:href="#g"/>
<use x="150.585938" xlink:href="#af"/>
<use x="209.765625" xlink:href="#i"/>
<use x="237.548828" xlink:href="#h"/>
<use x="300.927734" xlink:href="#ao"/>
</g>
</g>
<g clip-path="url(#a)">
<g transform="translate(924.75 841.85) scale(.1 -.1)">
<use xlink:href="#h"/>
<use x="63.378906" xlink:href="#q"/>
</g>
</g>
<g clip-path="url(#a)">
<g transform="translate(964.6 841.85) scale(.1 -.1)">
<use xlink:href="#r"/>
<use x="52.099609" xlink:href="#s"/>
<use x="91.308594" xlink:href="#q"/>
<use x="152.490234" xlink:href="#h"/>
<use x="215.869141" xlink:href="#d"/>
</g>
</g>
<g clip-path="url(#a)">
<g transform="translate(1003 841.85) scale(.1 -.1)">
<use xlink:href="#ae"/>
<use x="63.378906" xlink:href="#h"/>
<use x="126.757812" xlink:href="#s"/>
<use x="165.966797" xlink:href="#ae"/>
<use x="229.345703" xlink:href="#j"/>
<use x="270.443359" xlink:href="#h"/>
<use x="333.822266" xlink:href="#d"/>
<use x="395.345703" xlink:href="#ap"/>
</g>
</g>
<g clip-path="url(#a)">
<defs>
<path id="aw" d="m8.0156 75.875h7.8125q7.3125-11.516 10.953-22.562 3.6406-11.031 3.6406-21.922 0-10.938-3.6406-22.016t-10.953-22.562h-7.8125q6.4844 11.188 9.6875 22.25t3.2031 22.328q0 11.281-3.2031 22.266-3.2031 11-9.6875 22.219z"/>
</defs>
<g transform="translate(1071.5 841.85) scale(.1 -.1)">
<use xlink:href="#aw"/>
</g>
</g>
<g clip-path="url(#a)">
<g transform="translate(1116.1 841.85) scale(.1 -.1)">
<use xlink:href="#q"/>
<use x="61.181641" xlink:href="#ag"/>
</g>
</g>
<g clip-path="url(#a)">
<g transform="translate(1157.2 841.85) scale(.1 -.1)">
<use xlink:href="#am"/>
<use x="59.179688" xlink:href="#q"/>
<use x="120.361328" xlink:href="#ae"/>
<use x="183.740234" xlink:href="#j"/>
</g>
</g>
<g clip-path="url(#a)">
<g transform="translate(1204.4 841.85) scale(.1 -.1)">
<use xlink:href="#ah"/>
<use x="54.980469" xlink:href="#g"/>
<use x="116.259766" xlink:href="#r"/>
<use x="168.359375" xlink:href="#d"/>
</g>
</g>
<g clip-path="url(#a)">
<g transform="translate(1258.4 841.85) scale(.1 -.1)">
<use xlink:href="#s"/>
<use x="39.208984" xlink:href="#q"/>
</g>
</g>
<g clip-path="url(#a)">
<g transform="translate(1291.4 841.85) scale(.1 -.1)">
<use xlink:href="#g"/>
<use x="61.279297" xlink:href="#ah"/>
<use x="116.259766" xlink:href="#an"/>
<use x="179.638672" xlink:href="#i"/>
<use x="207.421875" xlink:href="#d"/>
<use x="268.945312" xlink:href="#af"/>
<use x="328.125" xlink:href="#d"/>
</g>
</g>
<g clip-path="url(#a)">
<g transform="translate(1350.2 841.85) scale(.1 -.1)">
<use xlink:href="#s"/>
<use x="39.208984" xlink:href="#an"/>
<use x="102.587891" xlink:href="#d"/>
</g>
</g>
<g clip-path="url(#a)">
<g transform="translate(1393.4 841.85) scale(.1 -.1)">
<use xlink:href="#k"/>
<use x="97.412109" xlink:href="#q"/>
<use x="158.59375" xlink:href="#r"/>
<use x="210.693359" xlink:href="#s"/>
</g>
</g>
<g clip-path="url(#a)">
<g transform="translate(1429.8 841.85) scale(.1 -.1)">
<use xlink:href="#ag"/>
<use x="35.205078" xlink:href="#g"/>
<use x="96.484375" xlink:href="#af"/>
<use x="155.664062" xlink:href="#q"/>
<use x="216.845703" xlink:href="#j"/>
<use x="257.958984" xlink:href="#g"/>
<use x="319.238281" xlink:href="#ai"/>
<use x="382.714844" xlink:href="#f"/>
<use x="410.498047" xlink:href="#d"/>
</g>
</g>
<g clip-path="url(#a)">
<g transform="translate(1486.6 841.85) scale(.1 -.1)">
<use xlink:href="#j"/>
<use x="41.082031" xlink:href="#d"/>
<use x="102.605469" xlink:href="#r"/>
<use x="154.705078" xlink:href="#ae"/>
<use x="218.083984" xlink:href="#f"/>
<use x="245.867188" xlink:href="#s"/>
</g>
</g>
<g clip-path="url(#a)">
<g transform="translate(1527.9 841.85) scale(.1 -.1)">
<use xlink:href="#at"/>
<use x="63.476562" xlink:href="#q"/>
<use x="124.658203" xlink:href="#r"/>
<use x="176.757812" xlink:href="#r"/>
<use x="228.857422" xlink:href="#i"/>
<use x="256.640625" xlink:href="#ai"/>
<use x="320.117188" xlink:href="#f"/>
<use x="347.900391" xlink:href="#d"/>
</g>
</g>
<g clip-path="url(#a)">
<defs>
<path id="e" d="m10.688 12.406h10.312v-12.406h-10.312z"/>
</defs>
<g transform="translate(1594.2 841.85) scale(.1 -.1)">
<use xlink:href="#e"/>
</g>
</g>
<g clip-path="url(#a)">
<defs>
<path id="c" d="m12.406 8.2969h16.109v55.625l-17.531-3.5156v8.9844l17.438 3.5156h9.8594v-64.609h16.109v-8.2969h-41.984z"/>
</defs>
<g transform="translate(1042.4 43.673) scale(.1 -.1)">
<use xlink:href="#c"/>
<use x="63.623047" xlink:href="#e"/>
<use x="95.410156" xlink:href="#c"/>
</g>
</g>
<g clip-path="url(#a)">
<defs>
<path id="o" d="m19.188 8.2969h34.422v-8.2969h-46.281v8.2969q5.6094 5.8125 15.297 15.594 9.7031 9.7969 12.188 12.641 4.7344 5.3125 6.6094 9 1.8906 3.6875 1.8906 7.25 0 5.8125-4.0781 9.4688-4.0781 3.6719-10.625 3.6719-4.6406 0-9.7969-1.6094-5.1406-1.6094-11-4.8906v9.9688q5.9531 2.3906 11.125 3.6094 5.1875 1.2188 9.4844 1.2188 11.328 0 18.062-5.6719 6.7344-5.6562 6.7344-15.125 0-4.5-1.6875-8.5312-1.6719-4.0156-6.125-9.4844-1.2188-1.4219-7.7656-8.1875-6.5312-6.7656-18.453-18.922z"/>
</defs>
<g transform="translate(602.19 183.48) scale(.1 -.1)">
<use xlink:href="#c"/>
<use x="63.623047" xlink:href="#e"/>
<use x="95.410156" xlink:href="#o"/>
</g>
</g>
<g clip-path="url(#a)">
<defs>
<path id="n" d="m40.578 39.312q7.0781-1.5156 11.047-6.3125 3.9844-4.7812 3.9844-11.812 0-10.781-7.4219-16.703-7.4219-5.9062-21.094-5.9062-4.5781 0-9.4375 0.90625t-10.031 2.7188v9.5156q4.0938-2.3906 8.9688-3.6094 4.8906-1.2188 10.219-1.2188 9.2656 0 14.125 3.6562t4.8594 10.641q0 6.4531-4.5156 10.078-4.5156 3.6406-12.562 3.6406h-8.5v8.1094h8.8906q7.2656 0 11.125 2.9062t3.8594 8.375q0 5.6094-3.9844 8.6094-3.9688 3.0156-11.391 3.0156-4.0625 0-8.7031-0.89062-4.6406-0.875-10.203-2.7188v8.7812q5.625 1.5625 10.531 2.3438t9.25 0.78125q11.234 0 17.766-5.1094 6.5469-5.0938 6.5469-13.781 0-6.0625-3.4688-10.234t-9.8594-5.7812z"/>
</defs>
<g transform="translate(495.63 712.86) scale(.1 -.1)">
<use xlink:href="#c"/>
<use x="63.623047" xlink:href="#e"/>
<use x="95.410156" xlink:href="#n"/>
</g>
</g>
<g clip-path="url(#a)">
<defs>
<path id="m" d="m37.797 64.312-24.906-38.922h24.906zm-2.5938 8.5938h12.406v-47.516h10.406v-8.2031h-10.406v-17.188h-9.8125v17.188h-32.906v9.5156z"/>
</defs>
<g transform="translate(179.82 319.81) scale(.1 -.1)">
<use xlink:href="#c"/>
<use x="63.623047" xlink:href="#e"/>
<use x="95.410156" xlink:href="#m"/>
</g>
</g>
<g clip-path="url(#a)">
<defs>
<path id="x" d="m10.797 72.906h38.719v-8.3125h-29.688v-17.859q2.1406 0.73438 4.2812 1.0938 2.1562 0.35938 4.3125 0.35938 12.203 0 19.328-6.6875 7.1406-6.6875 7.1406-18.109 0-11.766-7.3281-18.297-7.3281-6.5156-20.656-6.5156-4.5938 0-9.3594 0.78125-4.75 0.78125-9.8281 2.3438v9.9219q4.3906-2.3906 9.0781-3.5625t9.9062-1.1719q8.4531 0 13.375 4.4375 4.9375 4.4375 4.9375 12.062 0 7.6094-4.9375 12.047-4.9219 4.4531-13.375 4.4531-3.9531 0-7.8906-0.875-3.9219-0.875-8.0156-2.7344z"/>
</defs>
<g transform="translate(305.67 712.86) scale(.1 -.1)">
<use xlink:href="#c"/>
<use x="63.623047" xlink:href="#e"/>
<use x="95.410156" xlink:href="#x"/>
</g>
</g>
<g clip-path="url(#a)">
<defs>
<path id="ac" d="m33.016 40.375q-6.6406 0-10.531-4.5469-3.875-4.5312-3.875-12.438 0-7.8594 3.875-12.438 3.8906-4.5625 10.531-4.5625t10.516 4.5625q3.875 4.5781 3.875 12.438 0 7.9062-3.875 12.438-3.875 4.5469-10.516 4.5469zm19.578 30.922v-8.9844q-3.7188 1.75-7.5 2.6719-3.7812 0.9375-7.5 0.9375-9.7656 0-14.922-6.5938-5.1406-6.5938-5.875-19.922 2.875 4.25 7.2188 6.5156 4.3594 2.2656 9.5781 2.2656 10.984 0 17.359-6.6719 6.375-6.6562 6.375-18.125 0-11.234-6.6406-18.031-6.6406-6.7812-17.672-6.7812-12.656 0-19.344 9.6875-6.6875 9.7031-6.6875 28.109 0 17.281 8.2031 27.562t22.016 10.281q3.7188 0 7.5-0.73438t7.8906-2.1875z"/>
</defs>
<g transform="translate(353.16 712.86) scale(.1 -.1)">
<use xlink:href="#c"/>
<use x="63.623047" xlink:href="#e"/>
<use x="95.410156" xlink:href="#ac"/>
</g>
</g>
<g clip-path="url(#a)">
<defs>
<path id="ab" d="m8.2031 72.906h46.875v-4.2031l-26.469-68.703h-10.297l24.906 64.594h-35.016z"/>
</defs>
<g transform="translate(400.65 712.86) scale(.1 -.1)">
<use xlink:href="#c"/>
<use x="63.623047" xlink:href="#e"/>
<use x="95.410156" xlink:href="#ab"/>
</g>
</g>
<g clip-path="url(#a)">
<defs>
<path id="aa" d="m31.781 34.625q-7.0312 0-11.062-3.7656-4.0156-3.7656-4.0156-10.344 0-6.5938 4.0156-10.359 4.0312-3.7656 11.062-3.7656t11.078 3.7812q4.0625 3.7969 4.0625 10.344 0 6.5781-4.0312 10.344-4.0156 3.7656-11.109 3.7656zm-9.8594 4.1875q-6.3438 1.5625-9.8906 5.9062-3.5312 4.3594-3.5312 10.609 0 8.7344 6.2188 13.812 6.2344 5.0781 17.062 5.0781 10.891 0 17.094-5.0781t6.2031-13.812q0-6.25-3.5469-10.609-3.5312-4.3438-9.8281-5.9062 7.125-1.6562 11.094-6.5 3.9844-4.8281 3.9844-11.797 0-10.609-6.4688-16.281-6.4688-5.6562-18.531-5.6562-12.047 0-18.531 5.6562-6.4688 5.6719-6.4688 16.281 0 6.9688 4 11.797 4.0156 4.8438 11.141 6.5zm-3.6094 15.578q0-5.6562 3.5312-8.8281 3.5469-3.1719 9.9375-3.1719 6.3594 0 9.9375 3.1719 3.5938 3.1719 3.5938 8.8281 0 5.6719-3.5938 8.8438-3.5781 3.1719-9.9375 3.1719-6.3906 0-9.9375-3.1719-3.5312-3.1719-3.5312-8.8438z"/>
</defs>
<g transform="translate(448.14 712.86) scale(.1 -.1)">
<use xlink:href="#c"/>
<use x="63.623047" xlink:href="#e"/>
<use x="95.410156" xlink:href="#aa"/>
</g>
</g>
<g clip-path="url(#a)">
<defs>
<path id="z" d="m10.984 1.5156v8.9844q3.7188-1.7656 7.5156-2.6875 3.8125-0.92188 7.4844-0.92188 9.7656 0 14.906 6.5625 5.1562 6.5625 5.8906 19.953-2.8281-4.2031-7.1875-6.4531-4.3438-2.25-9.6094-2.25-10.938 0-17.312 6.6094-6.375 6.625-6.375 18.109 0 11.219 6.6406 18 6.6406 6.7969 17.672 6.7969 12.656 0 19.312-9.7031 6.6719-9.6875 6.6719-28.141 0-17.234-8.1875-27.516-8.1719-10.281-21.984-10.281-3.7188 0-7.5312 0.73438-3.7969 0.73438-7.9062 2.2031zm19.625 30.906q6.6406 0 10.516 4.5312 3.8906 4.5469 3.8906 12.469 0 7.8594-3.8906 12.422-3.875 4.5625-10.516 4.5625t-10.516-4.5625-3.875-12.422q0-7.9219 3.875-12.469 3.875-4.5312 10.516-4.5312z"/>
</defs>
<g transform="translate(750.03 453.1) scale(.1 -.1)">
<use xlink:href="#c"/>
<use x="63.623047" xlink:href="#e"/>
<use x="95.410156" xlink:href="#z"/>
</g>
</g>
<g clip-path="url(#a)">
<defs>
<path id="ad" d="m31.781 66.406q-7.6094 0-11.453-7.5-3.8281-7.4844-3.8281-22.531 0-14.984 3.8281-22.484 3.8438-7.5 11.453-7.5 7.6719 0 11.5 7.5 3.8438 7.5 3.8438 22.484 0 15.047-3.8438 22.531-3.8281 7.5-11.5 7.5zm0 7.8125q12.266 0 18.734-9.7031 6.4688-9.6875 6.4688-28.141 0-18.406-6.4688-28.109-6.4688-9.6875-18.734-9.6875-12.25 0-18.719 9.6875-6.4688 9.7031-6.4688 28.109 0 18.453 6.4688 28.141 6.4688 9.7031 18.719 9.7031z"/>
</defs>
<g transform="translate(729.89 712.86) scale(.1 -.1)">
<use xlink:href="#c"/>
<use x="63.623047" xlink:href="#e"/>
<use x="95.410156" xlink:href="#c"/>
<use x="159.033203" xlink:href="#ad"/>
</g>
</g>
<g clip-path="url(#a)">
<g transform="translate(931.72 319.81) scale(.1 -.1)">
<use xlink:href="#c"/>
<use x="63.623047" xlink:href="#e"/>
<use x="95.410156" xlink:href="#c"/>
<use x="159.033203" xlink:href="#c"/>
</g>
</g>
<g clip-path="url(#a)">
<g transform="translate(872.36 712.86) scale(.1 -.1)">
<use xlink:href="#c"/>
<use x="63.623047" xlink:href="#e"/>
<use x="95.410156" xlink:href="#c"/>
<use x="159.033203" xlink:href="#o"/>
</g>
</g>
<g clip-path="url(#a)">
<g transform="translate(1252.3 712.86) scale(.1 -.1)">
<use xlink:href="#c"/>
<use x="63.623047" xlink:href="#e"/>
<use x="95.410156" xlink:href="#c"/>
<use x="159.033203" xlink:href="#n"/>
</g>
</g>
<g clip-path="url(#a)">
<g transform="translate(1374 319.81) scale(.1 -.1)">
<use xlink:href="#c"/>
<use x="63.623047" xlink:href="#e"/>
<use x="95.410156" xlink:href="#c"/>
<use x="159.033203" xlink:href="#m"/>
</g>
</g>
<g clip-path="url(#a)">
<g transform="translate(1299.8 712.86) scale(.1 -.1)">
<use xlink:href="#c"/>
<use x="63.623047" xlink:href="#e"/>
<use x="95.410156" xlink:href="#c"/>
<use x="159.033203" xlink:href="#x"/>
</g>
</g>
<g clip-path="url(#a)">
<g transform="translate(1584.7 712.86) scale(.1 -.1)">
<use xlink:href="#c"/>
<use x="63.623047" xlink:href="#e"/>
<use x="95.410156" xlink:href="#c"/>
<use x="159.033203" xlink:href="#ac"/>
</g>
</g>
<g clip-path="url(#a)">
<g transform="translate(65.044 712.86) scale(.1 -.1)">
<use xlink:href="#c"/>
<use x="63.623047" xlink:href="#e"/>
<use x="95.410156" xlink:href="#c"/>
<use x="159.033203" xlink:href="#ab"/>
</g>
</g>
<g clip-path="url(#a)">
<g transform="translate(112.53 712.86) scale(.1 -.1)">
<use xlink:href="#c"/>
<use x="63.623047" xlink:href="#e"/>
<use x="95.410156" xlink:href="#c"/>
<use x="159.033203" xlink:href="#aa"/>
</g>
</g>
<g clip-path="url(#a)">
<g transform="translate(160.02 712.86) scale(.1 -.1)">
<use xlink:href="#c"/>
<use x="63.623047" xlink:href="#e"/>
<use x="95.410156" xlink:href="#c"/>
<use x="159.033203" xlink:href="#z"/>
</g>
</g>
<g clip-path="url(#a)">
<g transform="translate(243.13 453.1) scale(.1 -.1)">
<use xlink:href="#c"/>
<use x="63.623047" xlink:href="#e"/>
<use x="95.410156" xlink:href="#o"/>
<use x="159.033203" xlink:href="#ad"/>
</g>
</g>
<g clip-path="url(#a)">
<g transform="translate(255 712.86) scale(.1 -.1)">
<use xlink:href="#c"/>
<use x="63.623047" xlink:href="#e"/>
<use x="95.410156" xlink:href="#o"/>
<use x="159.033203" xlink:href="#c"/>
</g>
</g>
<g clip-path="url(#a)">
<g transform="translate(539.93 712.86) scale(.1 -.1)">
<use xlink:href="#c"/>
<use x="63.623047" xlink:href="#e"/>
<use x="95.410156" xlink:href="#o"/>
<use x="159.033203" xlink:href="#o"/>
</g>
</g>
<g clip-path="url(#a)">
<g transform="translate(658.66 583.88) scale(.1 -.1)">
<use xlink:href="#c"/>
<use x="63.623047" xlink:href="#e"/>
<use x="95.410156" xlink:href="#o"/>
<use x="159.033203" xlink:href="#n"/>
</g>
</g>
<g clip-path="url(#a)">
<g transform="translate(587.42 712.86) scale(.1 -.1)">
<use xlink:href="#c"/>
<use x="63.623047" xlink:href="#e"/>
<use x="95.410156" xlink:href="#o"/>
<use x="159.033203" xlink:href="#m"/>
</g>
</g>
<g clip-path="url(#a)">
<g transform="translate(682.4 583.88) scale(.1 -.1)">
<use xlink:href="#c"/>
<use x="63.623047" xlink:href="#e"/>
<use x="95.410156" xlink:href="#o"/>
<use x="159.033203" xlink:href="#x"/>
</g>
</g>
<g clip-path="url(#a)">
<g transform="translate(634.91 712.86) scale(.1 -.1)">
<use xlink:href="#c"/>
<use x="63.623047" xlink:href="#e"/>
<use x="95.410156" xlink:href="#o"/>
<use x="159.033203" xlink:href="#ac"/>
</g>
</g>
<g clip-path="url(#a)">
<g transform="translate(682.4 712.86) scale(.1 -.1)">
<use xlink:href="#c"/>
<use x="63.623047" xlink:href="#e"/>
<use x="95.410156" xlink:href="#o"/>
<use x="159.033203" xlink:href="#ab"/>
</g>
</g>
<g clip-path="url(#a)">
<g transform="translate(777.38 712.86) scale(.1 -.1)">
<use xlink:href="#c"/>
<use x="63.623047" xlink:href="#e"/>
<use x="95.410156" xlink:href="#o"/>
<use x="159.033203" xlink:href="#aa"/>
</g>
</g>
<g clip-path="url(#a)">
<g transform="translate(824.87 712.86) scale(.1 -.1)">
<use xlink:href="#c"/>
<use x="63.623047" xlink:href="#e"/>
<use x="95.410156" xlink:href="#o"/>
<use x="159.033203" xlink:href="#z"/>
</g>
</g>
<g clip-path="url(#a)">
<g transform="translate(943.59 583.88) scale(.1 -.1)">
<use xlink:href="#c"/>
<use x="63.623047" xlink:href="#e"/>
<use x="95.410156" xlink:href="#n"/>
<use x="159.033203" xlink:href="#ad"/>
</g>
</g>
<g clip-path="url(#a)">
<g transform="translate(967.33 712.86) scale(.1 -.1)">
<use xlink:href="#c"/>
<use x="63.623047" xlink:href="#e"/>
<use x="95.410156" xlink:href="#n"/>
<use x="159.033203" xlink:href="#c"/>
</g>
</g>
<g clip-path="url(#a)">
<g transform="translate(991.08 583.88) scale(.1 -.1)">
<use xlink:href="#c"/>
<use x="63.623047" xlink:href="#e"/>
<use x="95.410156" xlink:href="#n"/>
<use x="159.033203" xlink:href="#o"/>
</g>
</g>
<g clip-path="url(#a)">
<g transform="translate(1014.8 712.86) scale(.1 -.1)">
<use xlink:href="#c"/>
<use x="63.623047" xlink:href="#e"/>
<use x="95.410156" xlink:href="#n"/>
<use x="159.033203" xlink:href="#n"/>
</g>
</g>
<g clip-path="url(#a)">
<g transform="translate(1062.3 712.86) scale(.1 -.1)">
<use xlink:href="#c"/>
<use x="63.623047" xlink:href="#e"/>
<use x="95.410156" xlink:href="#n"/>
<use x="159.033203" xlink:href="#m"/>
</g>
</g>
<g clip-path="url(#a)">
<g transform="translate(1157.3 583.88) scale(.1 -.1)">
<use xlink:href="#c"/>
<use x="63.623047" xlink:href="#e"/>
<use x="95.410156" xlink:href="#n"/>
<use x="159.033203" xlink:href="#x"/>
</g>
</g>
<g clip-path="url(#a)">
<g transform="translate(1204.8 712.86) scale(.1 -.1)">
<use xlink:href="#c"/>
<use x="63.623047" xlink:href="#e"/>
<use x="95.410156" xlink:href="#n"/>
<use x="159.033203" xlink:href="#ac"/>
</g>
</g>
<g clip-path="url(#a)">
<g transform="translate(1448.2 453.1) scale(.1 -.1)">
<use xlink:href="#c"/>
<use x="63.623047" xlink:href="#e"/>
<use x="95.410156" xlink:href="#n"/>
<use x="159.033203" xlink:href="#ab"/>
</g>
</g>
<g clip-path="url(#a)">
<g transform="translate(1489.7 712.86) scale(.1 -.1)">
<use xlink:href="#c"/>
<use x="63.623047" xlink:href="#e"/>
<use x="95.410156" xlink:href="#n"/>
<use x="159.033203" xlink:href="#aa"/>
</g>
</g>
<g clip-path="url(#a)">
<g transform="translate(231.26 583.88) scale(.1 -.1)">
<use xlink:href="#c"/>
<use x="63.623047" xlink:href="#e"/>
<use x="95.410156" xlink:href="#n"/>
<use x="159.033203" xlink:href="#z"/>
</g>
</g>
<g clip-path="url(#a)">
<g transform="translate(207.51 712.86) scale(.1 -.1)">
<use xlink:href="#c"/>
<use x="63.623047" xlink:href="#e"/>
<use x="95.410156" xlink:href="#m"/>
<use x="159.033203" xlink:href="#ad"/>
</g>
</g>
<g clip-path="url(#a)">
<g transform="translate(919.85 712.86) scale(.1 -.1)">
<use xlink:href="#c"/>
<use x="63.623047" xlink:href="#e"/>
<use x="95.410156" xlink:href="#m"/>
<use x="159.033203" xlink:href="#c"/>
</g>
</g>
<g clip-path="url(#a)">
<g transform="translate(1109.8 712.86) scale(.1 -.1)">
<use xlink:href="#c"/>
<use x="63.623047" xlink:href="#e"/>
<use x="95.410156" xlink:href="#m"/>
<use x="159.033203" xlink:href="#o"/>
</g>
</g>
<g clip-path="url(#a)">
<g transform="translate(1157.3 712.86) scale(.1 -.1)">
<use xlink:href="#c"/>
<use x="63.623047" xlink:href="#e"/>
<use x="95.410156" xlink:href="#m"/>
<use x="159.033203" xlink:href="#n"/>
</g>
</g>
<g clip-path="url(#a)">
<g transform="translate(1347.2 712.86) scale(.1 -.1)">
<use xlink:href="#c"/>
<use x="63.623047" xlink:href="#e"/>
<use x="95.410156" xlink:href="#m"/>
<use x="159.033203" xlink:href="#m"/>
</g>
</g>
<g clip-path="url(#a)">
<g transform="translate(1418.5 583.88) scale(.1 -.1)">
<use xlink:href="#c"/>
<use x="63.623047" xlink:href="#e"/>
<use x="95.410156" xlink:href="#m"/>
<use x="159.033203" xlink:href="#x"/>
</g>
</g>
<g clip-path="url(#a)">
<g transform="translate(1442.2 712.86) scale(.1 -.1)">
<use xlink:href="#c"/>
<use x="63.623047" xlink:href="#e"/>
<use x="95.410156" xlink:href="#m"/>
<use x="159.033203" xlink:href="#ac"/>
</g>
</g>
<g clip-path="url(#a)">
<g transform="translate(1537.2 712.86) scale(.1 -.1)">
<use xlink:href="#c"/>
<use x="63.623047" xlink:href="#e"/>
<use x="95.410156" xlink:href="#m"/>
<use x="159.033203" xlink:href="#ab"/>
</g>
</g>
<g clip-path="url(#a)">
<g transform="translate(1394.7 712.86) scale(.1 -.1)">
<use xlink:href="#c"/>
<use x="63.623047" xlink:href="#e"/>
<use x="95.410156" xlink:href="#m"/>
<use x="159.033203" xlink:href="#aa"/>
</g>
</g>
<g clip-path="url(#a)">
<g transform="translate(746.85 319.81) scale(.1 -.1)">
<use xlink:href="#c"/>
<use x="63.623047" xlink:href="#e"/>
<use x="95.410156" xlink:href="#m"/>
<use x="159.033203" xlink:href="#z"/>
</g>
</g>
<g clip-path="url(#a)">
<g transform="translate(967.33 453.1) scale(.1 -.1)">
<use xlink:href="#c"/>
<use x="63.623047" xlink:href="#e"/>
<use x="95.410156" xlink:href="#x"/>
<use x="159.033203" xlink:href="#ad"/>
</g>
</g>
<defs>
<clipPath id="a">
<rect width="1672" height="880"/>
</clipPath>
</defs>
</svg>
