<?xml version="1.0" encoding="UTF-8"?>
<!DOCTYPE svg  PUBLIC '-//W3C//DTD SVG 1.1//EN'  'http://www.w3.org/Graphics/SVG/1.1/DTD/svg11.dtd'>
<svg width="1925.3pt" height="1013.3pt" version="1.1" viewBox="0 0 1925.3 1013.3" xmlns="http://www.w3.org/2000/svg" xmlns:xlink="http://www.w3.org/1999/xlink">
<defs>
<style type="text/css">*{stroke-linecap:butt;stroke-linejoin:round;}</style>
</defs>
<path d="m0 1013.3h1925.3v-1013.3h-1925.3z" fill="#fff"/>
<g fill="none" stroke="#000">
<path d="m730.88 46.731-214.92 591.72" clip-path="url(#a)"/>
<path d="m730.88 46.731-394.53 702.12" clip-path="url(#a)"/>
<path d="m730.88 46.731 1.526 810.99" clip-path="url(#a)"/>
<path d="m730.88 46.731 10.161 591.72" clip-path="url(#a)"/>
<path d="m730.88 46.731-175.01 591.72" clip-path="url(#a)"/>
<path d="m730.88 46.731 323.9 810.99" clip-path="url(#a)"/>
<path d="m730.88 46.731 448.88 124.84" clip-path="url(#a)"/>
<path d="m515.95 638.45-244.08 219.27" clip-path="url(#a)"/>
<path d="m515.95 638.45-405.26 110.39" clip-path="url(#a)"/>
<path d="m515.95 638.45-336.19 219.27" clip-path="url(#a)"/>
<path d="m515.95 638.45-290.13 219.27" clip-path="url(#a)"/>
<path d="m515.95 638.45 1275.7 219.27" clip-path="url(#a)"/>
<path d="m271.88 857.72v108.88" clip-path="url(#a)"/>
<path d="m110.69 748.85 23.026 108.88" clip-path="url(#a)"/>
<path d="m110.69 748.85-23.026 108.88" clip-path="url(#a)"/>
<path d="m133.72 857.72v108.88" clip-path="url(#a)"/>
<path d="m179.77 857.72v108.88" clip-path="url(#a)"/>
<path d="m225.82 857.72v108.88" clip-path="url(#a)"/>
<path d="m336.35 748.85-202.63 108.88" clip-path="url(#a)" stroke-dasharray="3.7,1.6"/>
<path d="m336.35 748.85 27.632 108.88" clip-path="url(#a)"/>
<path d="m336.35 748.85-18.421 108.88" clip-path="url(#a)"/>
<path d="m336.35 748.85 73.684 108.88" clip-path="url(#a)"/>
<path d="m336.35 748.85 119.74 108.88" clip-path="url(#a)"/>
<path d="m363.98 857.72v108.88" clip-path="url(#a)"/>
<path d="m732.4 857.72v108.88" clip-path="url(#a)"/>
<path d="m741.04 638.45-607.32 219.27" clip-path="url(#a)" stroke-dasharray="3.7,1.6"/>
<path d="m741.04 638.45 83.471 219.27" clip-path="url(#a)"/>
<path d="m741.04 638.45-54.688 219.27" clip-path="url(#a)"/>
<path d="m741.04 638.45 37.418 219.27" clip-path="url(#a)"/>
<path d="m741.04 638.45 129.52 219.27" clip-path="url(#a)"/>
<path d="m741.04 638.45 411.6 110.39" clip-path="url(#a)"/>
<path d="m824.51 857.72v108.88" clip-path="url(#a)"/>
<path d="m1791.6 857.72v108.88" clip-path="url(#a)"/>
<path d="m87.664 857.72v108.88" clip-path="url(#a)"/>
<path d="m317.93 857.72v108.88" clip-path="url(#a)"/>
<path d="m410.03 857.72v108.88" clip-path="url(#a)"/>
<path d="m456.09 857.72v108.88" clip-path="url(#a)"/>
<path d="m555.87 638.45-7.6755 219.27" clip-path="url(#a)"/>
<path d="m555.87 638.45-53.728 219.27" clip-path="url(#a)"/>
<path d="m555.87 638.45 61.404 110.39" clip-path="url(#a)"/>
<path d="m548.19 857.72v108.88" clip-path="url(#a)"/>
<path d="m686.35 857.72v108.88" clip-path="url(#a)"/>
<path d="m778.46 857.72v108.88" clip-path="url(#a)"/>
<path d="m870.56 857.72v108.88" clip-path="url(#a)"/>
<path d="m1152.6 748.85-282.07 108.88" clip-path="url(#a)" stroke-dasharray="3.7,1.6"/>
<path d="m1152.6 748.85-166.94 108.88" clip-path="url(#a)"/>
<path d="m1152.6 748.85-236.02 108.88" clip-path="url(#a)"/>
<path d="m1152.6 748.85 685.03 217.76" clip-path="url(#a)"/>
<path d="m985.69 857.72-23.026 108.88" clip-path="url(#a)"/>
<path d="m985.69 857.72 23.026 108.88" clip-path="url(#a)"/>
<path d="m1054.8 857.72v108.88" clip-path="url(#a)"/>
<path d="m1179.8 171.57 13.176 686.15" clip-path="url(#a)"/>
<path d="m1179.8 171.57-78.929 686.15" clip-path="url(#a)"/>
<path d="m1179.8 171.57-32.877 686.15" clip-path="url(#a)"/>
<path d="m1179.8 171.57 98.63 121.27" clip-path="url(#a)"/>
<path d="m1192.9 857.72v108.88" clip-path="url(#a)"/>
<path d="m502.14 857.72v108.88" clip-path="url(#a)"/>
<path d="m617.27 748.85 23.026 108.88" clip-path="url(#a)"/>
<path d="m617.27 748.85-23.026 108.88" clip-path="url(#a)"/>
<path d="m640.3 857.72v108.88" clip-path="url(#a)"/>
<path d="m916.61 857.72v108.88" clip-path="url(#a)"/>
<path d="m1100.8 857.72v108.88" clip-path="url(#a)"/>
<path d="m1146.9 857.72v108.88" clip-path="url(#a)"/>
<path d="m1278.4 292.84-177.56 564.88" clip-path="url(#a)" stroke-dasharray="3.7,1.6"/>
<path d="m1278.4 292.84 6.6521 564.88" clip-path="url(#a)"/>
<path d="m1278.4 292.84-39.401 564.88" clip-path="url(#a)"/>
<path d="m1278.4 292.84 52.705 564.88" clip-path="url(#a)"/>
<path d="m1278.4 292.84 157.6 118.01" clip-path="url(#a)"/>
<path d="m1285 857.72v108.88" clip-path="url(#a)"/>
<path d="m594.24 857.72v108.88" clip-path="url(#a)"/>
<path d="m1239 857.72v108.88" clip-path="url(#a)"/>
<path d="m1331.1 857.72v108.88" clip-path="url(#a)"/>
<path d="m1436 410.85-104.9 446.87" clip-path="url(#a)" stroke-dasharray="3.7,1.6"/>
<path d="m1436 410.85 33.26 446.87" clip-path="url(#a)"/>
<path d="m1436 410.85-58.845 446.87" clip-path="url(#a)"/>
<path d="m1436 410.85-12.792 446.87" clip-path="url(#a)"/>
<path d="m1436 410.85 143.28 115.08" clip-path="url(#a)"/>
<path d="m1469.2 857.72v108.88" clip-path="url(#a)"/>
<path d="m1377.1 857.72v108.88" clip-path="url(#a)"/>
<path d="m1423.2 857.72v108.88" clip-path="url(#a)"/>
<path d="m1579.3 525.94-17.909 331.79" clip-path="url(#a)"/>
<path d="m1579.3 525.94-63.962 331.79" clip-path="url(#a)"/>
<path d="m1579.3 525.94 81.872 112.52" clip-path="url(#a)"/>
<path d="m1561.4 857.72v108.88" clip-path="url(#a)"/>
<path d="m1515.3 857.72v108.88" clip-path="url(#a)"/>
<path d="m1661.1 638.45-7.6755 219.27" clip-path="url(#a)"/>
<path d="m1661.1 638.45-53.728 219.27" clip-path="url(#a)"/>
<path d="m1661.1 638.45 61.404 110.39" clip-path="url(#a)"/>
<path d="m1653.5 857.72v108.88" clip-path="url(#a)"/>
<path d="m1607.4 857.72v108.88" clip-path="url(#a)"/>
<path d="m1722.5 748.85 23.026 108.88" clip-path="url(#a)"/>
<path d="m1722.5 748.85-23.026 108.88" clip-path="url(#a)"/>
<path d="m1745.6 857.72v108.88" clip-path="url(#a)"/>
<path d="m1699.5 857.72v108.88" clip-path="url(#a)"/>
</g>
<path d="m628.28 347.56 2.0539-5.6548q0.81934-2.2558-1.4365-3.0752l-7.2773-2.6432q-2.2558-0.81934-3.0752 1.4365l-2.0539 5.6548q-0.81934 2.2558 1.4365 3.0752l7.2773 2.6432q2.2558 0.81934 3.0752-1.4365z" clip-path="url(#a)" fill="#fff" stroke="#fff"/>
<g clip-path="url(#a)">
<defs>
<path id="aa" d="m9.8125 72.906h9.8594v-29.891h35.844v29.891h9.8594v-72.906h-9.8594v34.719h-35.844v-34.719h-9.8594z"/>
</defs>
<g transform="translate(624.46 346.17) rotate(-70.038) scale(.08 -.08)">
<use xlink:href="#aa"/>
</g>
</g>
<path d="m537.61 403.48 2.9472-5.2449q1.1757-2.0923-0.91661-3.268l-6.7499-3.7928q-2.0923-1.1757-3.268 0.91661l-2.9472 5.2449q-1.1757 2.0923 0.91661 3.268l6.7499 3.7928q2.0923 1.1757 3.268-0.91661z" clip-path="url(#a)" fill="#fff" stroke="#fff"/>
<g clip-path="url(#a)">
<g transform="translate(534.06 401.49) rotate(-60.668) scale(.08 -.08)">
<use xlink:href="#aa"/>
</g>
</g>
<path d="m725.36 450.01 0.008387 4.4575q0.004516 2.4 2.4045 2.3955l7.7425-0.014569q2.4-0.004515 2.3955-2.4045l-0.008387-4.4575q-0.004516-2.4-2.4045-2.3955l-7.7425 0.014568q-2.4 0.004516-2.3955 2.4045z" clip-path="url(#a)" fill="#fff" stroke="#fff"/>
<g clip-path="url(#a)">
<defs>
<path id="aq" d="m9.8125 72.906h9.8594v-64.609h35.5v-8.2969h-45.359z"/>
</defs>
<g transform="translate(729.43 450) rotate(89.892) scale(.08 -.08)">
<use xlink:href="#aq"/>
</g>
</g>
<path d="m729.64 339.69 0.10329 6.0154q0.041206 2.3996 2.4409 2.3584l7.7414-0.13293q2.3996-0.041206 2.3584-2.4409l-0.10329-6.0154q-0.041206-2.3996-2.4409-2.3584l-7.7414 0.13293q-2.3996 0.041205-2.3584 2.4409z" clip-path="url(#a)" fill="#fff" stroke="#fff"/>
<g clip-path="url(#a)">
<g transform="translate(733.7 339.62) rotate(89.016) scale(.08 -.08)">
<use xlink:href="#aa"/>
</g>
</g>
<path d="m648.53 347.26 1.7063-5.7692q0.68068-2.3014-1.6208-2.9821l-7.4246-2.1959q-2.3014-0.68068-2.9821 1.6208l-1.7063 5.7692q-0.68068 2.3014 1.6208 2.9821l7.4246 2.1959q2.3014 0.68068 2.9821-1.6208z" clip-path="url(#a)" fill="#fff" stroke="#fff"/>
<g clip-path="url(#a)">
<g transform="translate(644.64 346.1) rotate(-73.524) scale(.08 -.08)">
<use xlink:href="#aa"/>
</g>
</g>
<path d="m886.17 452.48 1.6533 4.1396q0.89015 2.2288 3.119 1.3387l7.1903-2.8717q2.2288-0.89015 1.3387-3.119l-1.6533-4.1396q-0.89015-2.2288-3.119-1.3387l-7.1903 2.8717q-2.2288 0.89015-1.3387 3.119z" clip-path="url(#a)" fill="#fff" stroke="#fff"/>
<g clip-path="url(#a)">
<g transform="translate(889.95 450.98) rotate(68.229) scale(.08 -.08)">
<use xlink:href="#aq"/>
</g>
</g>
<path d="m950.74 114.39 5.7962 1.6121q2.3122 0.64308 2.9553-1.6692l2.0746-7.4594q0.64308-2.3122-1.6692-2.9553l-5.7963-1.6121q-2.3122-0.64308-2.9553 1.6692l-2.0746 7.4594q-0.64308 2.3122 1.6692 2.9553z" clip-path="url(#a)" fill="#fff" stroke="#fff"/>
<g clip-path="url(#a)">
<g transform="translate(951.83 110.47) rotate(15.542) scale(.08 -.08)">
<use xlink:href="#aa"/>
</g>
</g>
<path d="m396.22 754.45 3.7781-3.3941q1.7854-1.6039 0.18147-3.3893l-5.1742-5.7597q-1.6039-1.7854-3.3893-0.18147l-3.7781 3.3941q-1.7854 1.6039-0.18147 3.3893l5.1742 5.7597q1.6039 1.7854 3.3893 0.18147z" clip-path="url(#a)" fill="#fff" stroke="#fff"/>
<g clip-path="url(#a)">
<defs>
<path id="av" d="m53.516 70.516v-9.625q-5.6094 2.6875-10.594 4-4.9844 1.3281-9.625 1.3281-8.0469 0-12.422-3.125t-4.375-8.8906q0-4.8438 2.9062-7.3125 2.9062-2.4531 11.016-3.9688l5.9531-1.2188q11.031-2.1094 16.281-7.4062t5.25-14.172q0-10.609-7.1094-16.078-7.0938-5.4688-20.812-5.4688-5.1719 0-11.016 1.1719-5.8281 1.1719-12.078 3.4688v10.156q6-3.3594 11.766-5.0781 5.7656-1.7031 11.328-1.7031 8.4375 0 13.031 3.3125 4.5938 3.3281 4.5938 9.4844 0 5.3594-3.2969 8.3906t-10.812 4.5469l-6.0156 1.1719q-11.031 2.1875-15.969 6.875-4.9219 4.6875-4.9219 13.047 0 9.6719 6.8125 15.234t18.766 5.5625q5.1406 0 10.453-0.9375 5.3281-0.92188 10.891-2.7656z"/>
</defs>
<g transform="translate(393.5 751.43) rotate(-41.935) scale(.08 -.08)">
<use xlink:href="#av"/>
</g>
</g>
<path d="m312.33 700.42 5.2801-1.4383q2.3156-0.63077 1.6849-2.9464l-2.0349-7.4703q-0.63077-2.3156-2.9464-1.6849l-5.2801 1.4383q-2.3156 0.63077-1.6849 2.9464l2.0349 7.4703q0.63077 2.3156 2.9464 1.6849z" clip-path="url(#a)" fill="#fff" stroke="#fff"/>
<g clip-path="url(#a)">
<defs>
<path id="m" d="m34.188 63.188-13.391-36.281h26.812zm-5.5781 9.7188h11.188l27.781-72.906h-10.25l-6.6406 18.703h-32.859l-6.6406-18.703h-10.406z"/>
</defs>
<g transform="translate(311.26 696.5) rotate(-15.237) scale(.08 -.08)">
<use xlink:href="#m"/>
</g>
</g>
<path d="m349.36 754.6 3.854-2.5137q2.0102-1.3111 0.69909-3.3213l-4.2297-6.485q-1.3111-2.0102-3.3213-0.69909l-3.854 2.5137q-2.0102 1.3111-0.69909 3.3213l4.2297 6.485q1.3111 2.0102 3.3213 0.69909z" clip-path="url(#a)" fill="#fff" stroke="#fff"/>
<g clip-path="url(#a)">
<defs>
<path id="y" d="m9.8125 72.906h41.891v-8.3125h-32.031v-21.484h28.906v-8.2969h-28.906v-34.812h-9.8594z"/>
</defs>
<g transform="translate(347.14 751.2) rotate(-33.114) scale(.08 -.08)">
<use xlink:href="#y"/>
</g>
</g>
<path d="m372.21 754.95 4.9144-3.7141q1.9147-1.447 0.46765-3.3617l-4.6682-6.1769q-1.447-1.9147-3.3617-0.46765l-4.9144 3.7141q-1.9147 1.447-0.46765 3.3617l4.6682 6.1769q1.447 1.9147 3.3617 0.46765z" clip-path="url(#a)" fill="#fff" stroke="#fff"/>
<g clip-path="url(#a)">
<defs>
<path id="ab" d="m19.672 64.797v-56.688h11.922q15.094 0 22.094 6.8281 7 6.8438 7 21.594 0 14.641-7 21.453t-22.094 6.8125zm-9.8594 8.1094h20.266q21.188 0 31.094-8.8125 9.9219-8.8125 9.9219-27.562 0-18.859-9.9688-27.703-9.9531-8.8281-31.047-8.8281h-20.266z"/>
</defs>
<g transform="translate(369.76 751.71) rotate(-37.081) scale(.08 -.08)">
<use xlink:href="#ab"/>
</g>
</g>
<path d="m1149.8 753.77 5.7704 0.99186q2.3653 0.40657 2.7719-1.9587l1.3116-7.6306q0.40657-2.3653-1.9587-2.7719l-5.7704-0.99186q-2.3653-0.40657-2.7719 1.9587l-1.3116 7.6306q-0.40657 2.3653 1.9587 2.7719z" clip-path="url(#a)" fill="#fff" stroke="#fff"/>
<g clip-path="url(#a)">
<defs>
<path id="al" d="m8.6875 72.906h9.9219v-44.297q0-11.719 4.2344-16.875 4.25-5.1406 13.781-5.1406 9.4688 0 13.719 5.1406 4.25 5.1562 4.25 16.875v44.297h9.9062v-45.516q0-14.25-7.0625-21.531-7.0469-7.2812-20.812-7.2812-13.828 0-20.891 7.2812-7.0469 7.2812-7.0469 21.531z"/>
</defs>
<g transform="translate(1150.5 749.77) rotate(9.7531) scale(.08 -.08)">
<use xlink:href="#al"/>
</g>
</g>
<path d="m265.6 894.52v35.285q0 2.4 2.4 2.4h7.7425q2.4 0 2.4-2.4v-35.285q0-2.4-2.4-2.4h-7.7425q-2.4 0-2.4 2.4z" clip-path="url(#a)" fill="#fff" stroke="#fff"/>
<g clip-path="url(#a)">
<defs>
<path id="l" d="m-0.29688 72.906h61.672v-8.3125h-25.875v-64.594h-9.9062v64.594h-25.891z"/>
<path id="d" d="m56.203 29.594v-4.3906h-41.312q0.59375-9.2812 5.5938-14.141t13.938-4.8594q5.1719 0 10.031 1.2656t9.6562 3.8125v-8.5q-4.8438-2.0469-9.9219-3.125t-10.297-1.0781q-13.094 0-20.734 7.6094-7.6406 7.625-7.6406 20.625 0 13.422 7.25 21.297 7.25 7.8906 19.562 7.8906 11.031 0 17.453-7.1094 6.4219-7.0938 6.4219-19.297zm-8.9844 2.6406q-0.09375 7.3594-4.125 11.75-4.0312 4.4062-10.672 4.4062-7.5156 0-12.031-4.25t-5.2031-11.969z"/>
<path id="h" d="m41.109 46.297q-1.5156 0.875-3.2969 1.2812-1.7812 0.42188-3.9219 0.42188-7.625 0-11.703-4.9531t-4.0781-14.234v-28.812h-9.0312v54.688h9.0312v-8.5q2.8438 4.9844 7.375 7.3906 4.5469 2.4219 11.047 2.4219 0.92188 0 2.0469-0.125 1.125-0.10938 2.4844-0.35938z"/>
<path id="i" d="m52 44.188q3.375 6.0625 8.0625 8.9375t11.031 2.875q8.5469 0 13.188-5.9844 4.6406-5.9688 4.6406-17v-33.016h-9.0312v32.719q0 7.8594-2.7969 11.656-2.7812 3.8125-8.4844 3.8125-6.9844 0-11.047-4.6406-4.0469-4.625-4.0469-12.641v-30.906h-9.0312v32.719q0 7.9062-2.7812 11.688t-8.5938 3.7812q-6.8906 0-10.953-4.6562-4.0469-4.6562-4.0469-12.625v-30.906h-9.0312v54.688h9.0312v-8.5q3.0781 5.0312 7.375 7.4219t10.203 2.3906q5.9688 0 10.141-3.0312 4.1719-3.0156 6.1719-8.7812z"/>
<path id="j" d="m9.4219 54.688h8.9844v-54.688h-8.9844zm0 21.297h8.9844v-11.391h-8.9844z"/>
<path id="f" d="m54.891 33.016v-33.016h-8.9844v32.719q0 7.7656-3.0312 11.609-3.0312 3.8594-9.0781 3.8594-7.2812 0-11.484-4.6406-4.2031-4.625-4.2031-12.641v-30.906h-9.0312v54.688h9.0312v-8.5q3.2344 4.9375 7.5938 7.375 4.375 2.4375 10.094 2.4375 9.4219 0 14.25-5.8281 4.8438-5.8281 4.8438-17.156z"/>
<path id="g" d="m34.281 27.484q-10.891 0-15.094-2.4844t-4.2031-8.5q0-4.7812 3.1562-7.5938 3.1562-2.7969 8.5625-2.7969 7.4844 0 12 5.2969t4.5156 14.078v2zm17.922 3.7188v-31.203h-8.9844v8.2969q-3.0781-4.9688-7.6719-7.3438t-11.234-2.375q-8.3906 0-13.359 4.7188-4.9531 4.7188-4.9531 12.625 0 9.2188 6.1719 13.906 6.1875 4.6875 18.438 4.6875h12.609v0.89062q0 6.2031-4.0781 9.5938t-11.453 3.3906q-4.6875 0-9.1406-1.125-4.4375-1.125-8.5312-3.375v8.3125q4.9219 1.9062 9.5625 2.8438 4.6406 0.95312 9.0312 0.95312 11.875 0 17.734-6.1562 5.8594-6.1406 5.8594-18.641z"/>
<path id="k" d="m9.4219 75.984h8.9844v-75.984h-8.9844z"/>
</defs>
<g transform="translate(269.67 894.52) rotate(90) scale(.08 -.08)">
<use xlink:href="#l"/>
<use x="60.818359" xlink:href="#d"/>
<use x="122.341797" xlink:href="#h"/>
<use x="163.439453" xlink:href="#i"/>
<use x="260.851562" xlink:href="#j"/>
<use x="288.634766" xlink:href="#f"/>
<use x="352.013672" xlink:href="#g"/>
<use x="413.292969" xlink:href="#k"/>
</g>
</g>
<path d="m115.57 802.22 0.99809 4.7194q0.49659 2.3481 2.8447 1.8515l7.575-1.602q2.3481-0.49659 1.8515-2.8447l-0.99809-4.7194q-0.49659-2.3481-2.8447-1.8515l-7.5749 1.602q-2.3481 0.49659-1.8515 2.8447z" clip-path="url(#a)" fill="#fff" stroke="#fff"/>
<g clip-path="url(#a)">
<defs>
<path id="t" d="m19.672 64.797v-27.391h12.406q6.8906 0 10.641 3.5625 3.7656 3.5625 3.7656 10.156 0 6.5469-3.7656 10.109-3.75 3.5625-10.641 3.5625zm-9.8594 8.1094h22.266q12.266 0 18.531-5.5469 6.2812-5.5469 6.2812-16.234 0-10.797-6.2812-16.312-6.2656-5.5156-18.531-5.5156h-12.406v-29.297h-9.8594z"/>
</defs>
<g transform="translate(119.55 801.38) rotate(78.059) scale(.08 -.08)">
<use xlink:href="#t"/>
</g>
</g>
<path d="m104.84 806.83 0.95205-4.5017q0.49659-2.3481-1.8515-2.8447l-7.575-1.602q-2.3481-0.49659-2.8447 1.8515l-0.95205 4.5017q-0.49659 2.3481 1.8515 2.8447l7.575 1.602q2.3481 0.49659 2.8447-1.8515z" clip-path="url(#a)" fill="#fff" stroke="#fff"/>
<g clip-path="url(#a)">
<g transform="translate(100.86 805.99) rotate(-78.059) scale(.08 -.08)">
<use xlink:href="#y"/>
</g>
</g>
<path d="m127.45 894.52v35.285q0 2.4 2.4 2.4h7.7425q2.4 0 2.4-2.4v-35.285q0-2.4-2.4-2.4h-7.7425q-2.4 0-2.4 2.4z" clip-path="url(#a)" fill="#fff" stroke="#fff"/>
<g clip-path="url(#a)">
<g transform="translate(131.51 894.52) rotate(90) scale(.08 -.08)">
<use xlink:href="#l"/>
<use x="60.818359" xlink:href="#d"/>
<use x="122.341797" xlink:href="#h"/>
<use x="163.439453" xlink:href="#i"/>
<use x="260.851562" xlink:href="#j"/>
<use x="288.634766" xlink:href="#f"/>
<use x="352.013672" xlink:href="#g"/>
<use x="413.292969" xlink:href="#k"/>
</g>
</g>
<path d="m173.5 894.52v35.285q0 2.4 2.4 2.4h7.7425q2.4 0 2.4-2.4v-35.285q0-2.4-2.4-2.4h-7.7425q-2.4 0-2.4 2.4z" clip-path="url(#a)" fill="#fff" stroke="#fff"/>
<g clip-path="url(#a)">
<g transform="translate(177.56 894.52) rotate(90) scale(.08 -.08)">
<use xlink:href="#l"/>
<use x="60.818359" xlink:href="#d"/>
<use x="122.341797" xlink:href="#h"/>
<use x="163.439453" xlink:href="#i"/>
<use x="260.851562" xlink:href="#j"/>
<use x="288.634766" xlink:href="#f"/>
<use x="352.013672" xlink:href="#g"/>
<use x="413.292969" xlink:href="#k"/>
</g>
</g>
<path d="m219.55 894.52v35.285q0 2.4 2.4 2.4h7.7425q2.4 0 2.4-2.4v-35.285q0-2.4-2.4-2.4h-7.7425q-2.4 0-2.4 2.4z" clip-path="url(#a)" fill="#fff" stroke="#fff"/>
<g clip-path="url(#a)">
<g transform="translate(223.62 894.52) rotate(90) scale(.08 -.08)">
<use xlink:href="#l"/>
<use x="60.818359" xlink:href="#d"/>
<use x="122.341797" xlink:href="#h"/>
<use x="163.439453" xlink:href="#i"/>
<use x="260.851562" xlink:href="#j"/>
<use x="288.634766" xlink:href="#f"/>
<use x="352.013672" xlink:href="#g"/>
<use x="413.292969" xlink:href="#k"/>
</g>
</g>
<path d="m235.59 810.11 4.8207-2.5902q2.1141-1.136 0.97818-3.2501l-3.6647-6.8203q-1.136-2.1141-3.2501-0.97818l-4.8207 2.5902q-2.1141 1.136-0.97818 3.2501l3.6647 6.8203q1.136 2.1141 3.2501 0.97818z" clip-path="url(#a)" fill="#fff" stroke="#fff"/>
<g clip-path="url(#a)">
<g transform="translate(233.67 806.53) rotate(-28.25) scale(.08 -.08)">
<use xlink:href="#m"/>
</g>
</g>
<path d="m343.49 802.49 1.1866 4.6755q0.59037 2.3263 2.9166 1.7359l7.5046-1.9046q2.3263-0.59037 1.7359-2.9166l-1.1866-4.6755q-0.59037-2.3263-2.9166-1.7359l-7.5046 1.9046q-2.3263 0.59037-1.7359 2.9166z" clip-path="url(#a)" fill="#fff" stroke="#fff"/>
<g clip-path="url(#a)">
<g transform="translate(347.43 801.49) rotate(75.76) scale(.08 -.08)">
<use xlink:href="#t"/>
</g>
</g>
<path d="m332.83 807.22 0.97673-5.773q0.40037-2.3664-1.966-2.7667l-7.634-1.2916q-2.3664-0.40037-2.7667 1.966l-0.97673 5.773q-0.40037 2.3664 1.966 2.7667l7.634 1.2916q2.3664 0.40037 2.7667-1.966z" clip-path="url(#a)" fill="#fff" stroke="#fff"/>
<g clip-path="url(#a)">
<g transform="translate(328.83 806.54) rotate(-80.397) scale(.08 -.08)">
<use xlink:href="#al"/>
</g>
</g>
<path d="m366.46 804.53 3.0672 4.5322q1.3451 1.9876 3.3328 0.64247l6.4121-4.3395q1.9876-1.3451 0.64247-3.3328l-3.0672-4.5322q-1.3451-1.9876-3.3328-0.64247l-6.4121 4.3395q-1.9876 1.3451-0.64247 3.3328z" clip-path="url(#a)" fill="#fff" stroke="#fff"/>
<g clip-path="url(#a)">
<g transform="translate(369.83 802.26) rotate(55.911) scale(.08 -.08)">
<use xlink:href="#m"/>
</g>
</g>
<path d="m389.94 806.06 4.1127 3.7397q1.7757 1.6146 3.3903-0.16104l5.2088-5.7284q1.6146-1.7757-0.16104-3.3903l-4.1127-3.7397q-1.7757-1.6146-3.3903 0.16104l-5.2088 5.7284q-1.6146 1.7757 0.16104 3.3903z" clip-path="url(#a)" fill="#fff" stroke="#fff"/>
<g clip-path="url(#a)">
<defs>
<path id="ah" d="m44.391 34.188q3.1719-1.0781 6.1719-4.5938t6.0312-9.6719l10.016-19.922h-10.609l-9.3125 18.703q-3.625 7.3281-7.0156 9.7188t-9.25 2.3906h-10.75v-30.812h-9.8594v72.906h22.266q12.5 0 18.656-5.2344 6.1562-5.2188 6.1562-15.766 0-6.8906-3.2031-11.438-3.2031-4.5312-9.2969-6.2812zm-24.719 30.609v-25.875h12.406q7.125 0 10.766 3.2969t3.6406 9.6875-3.6406 9.6406-10.766 3.25z"/>
</defs>
<g transform="translate(392.68 803.05) rotate(42.28) scale(.08 -.08)">
<use xlink:href="#ah"/>
</g>
</g>
<path d="m357.71 894.52v35.285q0 2.4 2.4 2.4h7.7425q2.4 0 2.4-2.4v-35.285q0-2.4-2.4-2.4h-7.7425q-2.4 0-2.4 2.4z" clip-path="url(#a)" fill="#fff" stroke="#fff"/>
<g clip-path="url(#a)">
<g transform="translate(361.77 894.52) rotate(90) scale(.08 -.08)">
<use xlink:href="#l"/>
<use x="60.818359" xlink:href="#d"/>
<use x="122.341797" xlink:href="#h"/>
<use x="163.439453" xlink:href="#i"/>
<use x="260.851562" xlink:href="#j"/>
<use x="288.634766" xlink:href="#f"/>
<use x="352.013672" xlink:href="#g"/>
<use x="413.292969" xlink:href="#k"/>
</g>
</g>
<path d="m726.13 894.52v35.285q0 2.4 2.4 2.4h7.7425q2.4 0 2.4-2.4v-35.285q0-2.4-2.4-2.4h-7.7425q-2.4 0-2.4 2.4z" clip-path="url(#a)" fill="#fff" stroke="#fff"/>
<g clip-path="url(#a)">
<g transform="translate(730.2 894.52) rotate(90) scale(.08 -.08)">
<use xlink:href="#l"/>
<use x="60.818359" xlink:href="#d"/>
<use x="122.341797" xlink:href="#h"/>
<use x="163.439453" xlink:href="#i"/>
<use x="260.851562" xlink:href="#j"/>
<use x="288.634766" xlink:href="#f"/>
<use x="352.013672" xlink:href="#g"/>
<use x="413.292969" xlink:href="#k"/>
</g>
</g>
<path d="m436.93 754.92 5.1473-1.8584q2.2574-0.81502 1.4424-3.0724l-2.6293-7.2824q-0.81502-2.2574-3.0724-1.4424l-5.1473 1.8584q-2.2574 0.81502-1.4424 3.0724l2.6293 7.2824q0.81502 2.2574 3.0724 1.4424z" clip-path="url(#a)" fill="#fff" stroke="#fff"/>
<g clip-path="url(#a)">
<g transform="translate(435.55 751.1) rotate(-19.852) scale(.08 -.08)">
<use xlink:href="#m"/>
</g>
</g>
<path d="m776.05 748.07 1.7161 4.5082q0.85384 2.243 3.0968 1.3891l7.2359-2.7545q2.243-0.85384 1.3891-3.0968l-1.7161-4.5082q-0.85384-2.243-3.0968-1.3891l-7.2359 2.7545q-2.243 0.85384-1.3891 3.0968z" clip-path="url(#a)" fill="#fff" stroke="#fff"/>
<g clip-path="url(#a)">
<g transform="translate(779.85 746.62) rotate(69.159) scale(.08 -.08)">
<use xlink:href="#t"/>
</g>
</g>
<path d="m719.07 752.45 1.4169-5.681q0.58079-2.3287-1.7479-2.9095l-7.5124-1.8736q-2.3287-0.58079-2.9095 1.7479l-1.4169 5.681q-0.58079 2.3287 1.7479 2.9095l7.5124 1.8736q2.3287 0.58079 2.9095-1.7479z" clip-path="url(#a)" fill="#fff" stroke="#fff"/>
<g clip-path="url(#a)">
<g transform="translate(715.13 751.46) rotate(-75.996) scale(.08 -.08)">
<use xlink:href="#al"/>
</g>
</g>
<path d="m753.05 746.11 1.0362 6.0722q0.40372 2.3658 2.7695 1.9621l7.6322-1.3024q2.3658-0.40372 1.9621-2.7695l-1.0362-6.0722q-0.40372-2.3658-2.7695-1.9621l-7.6322 1.3024q-2.3658 0.40372-1.9621 2.7695z" clip-path="url(#a)" fill="#fff" stroke="#fff"/>
<g clip-path="url(#a)">
<g transform="translate(757.05 745.43) rotate(80.316) scale(.08 -.08)">
<use xlink:href="#ab"/>
</g>
</g>
<path d="m799.01 748.92 2.7833 4.7118q1.2206 2.0664 3.287 0.84578l6.6663-3.9378q2.0664-1.2206 0.84578-3.287l-2.7833-4.7118q-1.2206-2.0664-3.287-0.84578l-6.6663 3.9378q-2.0664 1.2206-0.84578 3.287z" clip-path="url(#a)" fill="#fff" stroke="#fff"/>
<g clip-path="url(#a)">
<g transform="translate(802.51 746.86) rotate(59.43) scale(.08 -.08)">
<use xlink:href="#m"/>
</g>
</g>
<path d="m942.57 699 5.2857 1.4177q2.3181 0.62172 2.9398-1.6964l2.0057-7.4782q0.62172-2.3181-1.6964-2.9398l-5.2857-1.4177q-2.3181-0.62172-2.9398 1.6964l-2.0057 7.4782q-0.62172 2.3181 1.6964 2.9398z" clip-path="url(#a)" fill="#fff" stroke="#fff"/>
<g clip-path="url(#a)">
<g transform="translate(943.62 695.07) rotate(15.014) scale(.08 -.08)">
<use xlink:href="#m"/>
</g>
</g>
<path d="m818.24 894.52v35.285q0 2.4 2.4 2.4h7.7425q2.4 0 2.4-2.4v-35.285q0-2.4-2.4-2.4h-7.7425q-2.4 0-2.4 2.4z" clip-path="url(#a)" fill="#fff" stroke="#fff"/>
<g clip-path="url(#a)">
<g transform="translate(822.3 894.52) rotate(90) scale(.08 -.08)">
<use xlink:href="#l"/>
<use x="60.818359" xlink:href="#d"/>
<use x="122.341797" xlink:href="#h"/>
<use x="163.439453" xlink:href="#i"/>
<use x="260.851562" xlink:href="#j"/>
<use x="288.634766" xlink:href="#f"/>
<use x="352.013672" xlink:href="#g"/>
<use x="413.292969" xlink:href="#k"/>
</g>
</g>
<path d="m1785.3 894.52v35.285q0 2.4 2.4 2.4h7.7425q2.4 0 2.4-2.4v-35.285q0-2.4-2.4-2.4h-7.7425q-2.4 0-2.4 2.4z" clip-path="url(#a)" fill="#fff" stroke="#fff"/>
<g clip-path="url(#a)">
<g transform="translate(1789.4 894.52) rotate(90) scale(.08 -.08)">
<use xlink:href="#l"/>
<use x="60.818359" xlink:href="#d"/>
<use x="122.341797" xlink:href="#h"/>
<use x="163.439453" xlink:href="#i"/>
<use x="260.851562" xlink:href="#j"/>
<use x="288.634766" xlink:href="#f"/>
<use x="352.013672" xlink:href="#g"/>
<use x="413.292969" xlink:href="#k"/>
</g>
</g>
<path d="m81.393 894.52v35.285q0 2.4 2.4 2.4h7.7425q2.4 0 2.4-2.4v-35.285q0-2.4-2.4-2.4h-7.7425q-2.4 0-2.4 2.4z" clip-path="url(#a)" fill="#fff" stroke="#fff"/>
<g clip-path="url(#a)">
<g transform="translate(85.457 894.52) rotate(90) scale(.08 -.08)">
<use xlink:href="#l"/>
<use x="60.818359" xlink:href="#d"/>
<use x="122.341797" xlink:href="#h"/>
<use x="163.439453" xlink:href="#i"/>
<use x="260.851562" xlink:href="#j"/>
<use x="288.634766" xlink:href="#f"/>
<use x="352.013672" xlink:href="#g"/>
<use x="413.292969" xlink:href="#k"/>
</g>
</g>
<path d="m311.66 894.52v35.285q0 2.4 2.4 2.4h7.7425q2.4 0 2.4-2.4v-35.285q0-2.4-2.4-2.4h-7.7425q-2.4 0-2.4 2.4z" clip-path="url(#a)" fill="#fff" stroke="#fff"/>
<g clip-path="url(#a)">
<g transform="translate(315.72 894.52) rotate(90) scale(.08 -.08)">
<use xlink:href="#l"/>
<use x="60.818359" xlink:href="#d"/>
<use x="122.341797" xlink:href="#h"/>
<use x="163.439453" xlink:href="#i"/>
<use x="260.851562" xlink:href="#j"/>
<use x="288.634766" xlink:href="#f"/>
<use x="352.013672" xlink:href="#g"/>
<use x="413.292969" xlink:href="#k"/>
</g>
</g>
<path d="m403.76 894.52v35.285q0 2.4 2.4 2.4h7.7425q2.4 0 2.4-2.4v-35.285q0-2.4-2.4-2.4h-7.7425q-2.4 0-2.4 2.4z" clip-path="url(#a)" fill="#fff" stroke="#fff"/>
<g clip-path="url(#a)">
<g transform="translate(407.83 894.52) rotate(90) scale(.08 -.08)">
<use xlink:href="#l"/>
<use x="60.818359" xlink:href="#d"/>
<use x="122.341797" xlink:href="#h"/>
<use x="163.439453" xlink:href="#i"/>
<use x="260.851562" xlink:href="#j"/>
<use x="288.634766" xlink:href="#f"/>
<use x="352.013672" xlink:href="#g"/>
<use x="413.292969" xlink:href="#k"/>
</g>
</g>
<path d="m449.82 894.52v35.285q0 2.4 2.4 2.4h7.7425q2.4 0 2.4-2.4v-35.285q0-2.4-2.4-2.4h-7.7425q-2.4 0-2.4 2.4z" clip-path="url(#a)" fill="#fff" stroke="#fff"/>
<g clip-path="url(#a)">
<g transform="translate(453.88 894.52) rotate(90) scale(.08 -.08)">
<use xlink:href="#l"/>
<use x="60.818359" xlink:href="#d"/>
<use x="122.341797" xlink:href="#h"/>
<use x="163.439453" xlink:href="#i"/>
<use x="260.851562" xlink:href="#j"/>
<use x="288.634766" xlink:href="#f"/>
<use x="352.013672" xlink:href="#g"/>
<use x="413.292969" xlink:href="#k"/>
</g>
</g>
<path d="m558.21 750.72 0.16875-4.8208q0.08396-2.3985-2.3146-2.4825l-7.7378-0.27086q-2.3985-0.083959-2.4825 2.3146l-0.16875 4.8208q-0.08396 2.3985 2.3146 2.4825l7.7378 0.27086q2.3985 0.083959 2.4825-2.3146z" clip-path="url(#a)" fill="#fff" stroke="#fff"/>
<g clip-path="url(#a)">
<g transform="translate(554.15 750.58) rotate(-87.995) scale(.08 -.08)">
<use xlink:href="#t"/>
</g>
</g>
<path d="m534.36 752.57 1.466-5.983q0.57118-2.331-1.7599-2.9022l-7.52-1.8426q-2.331-0.57118-2.9022 1.7599l-1.466 5.983q-0.57118 2.331 1.7599 2.9022l7.52 1.8426q2.331 0.57118 2.9022-1.7599z" clip-path="url(#a)" fill="#fff" stroke="#fff"/>
<g clip-path="url(#a)">
<g transform="translate(530.41 751.61) rotate(-76.232) scale(.08 -.08)">
<use xlink:href="#ab"/>
</g>
</g>
<path d="m579.76 694.31 2.6601 4.7825q1.1666 2.0974 3.264 0.93075l6.7662-3.7636q2.0974-1.1666 0.93075-3.264l-2.6601-4.7825q-1.1666-2.0974-3.264-0.93075l-6.7662 3.7636q-2.0974 1.1666-0.93075 3.264z" clip-path="url(#a)" fill="#fff" stroke="#fff"/>
<g clip-path="url(#a)">
<g transform="translate(583.31 692.33) rotate(60.916) scale(.08 -.08)">
<use xlink:href="#m"/>
</g>
</g>
<path d="m541.92 894.52v35.285q0 2.4 2.4 2.4h7.7425q2.4 0 2.4-2.4v-35.285q0-2.4-2.4-2.4h-7.7425q-2.4 0-2.4 2.4z" clip-path="url(#a)" fill="#fff" stroke="#fff"/>
<g clip-path="url(#a)">
<g transform="translate(545.98 894.52) rotate(90) scale(.08 -.08)">
<use xlink:href="#l"/>
<use x="60.818359" xlink:href="#d"/>
<use x="122.341797" xlink:href="#h"/>
<use x="163.439453" xlink:href="#i"/>
<use x="260.851562" xlink:href="#j"/>
<use x="288.634766" xlink:href="#f"/>
<use x="352.013672" xlink:href="#g"/>
<use x="413.292969" xlink:href="#k"/>
</g>
</g>
<path d="m680.08 894.52v35.285q0 2.4 2.4 2.4h7.7425q2.4 0 2.4-2.4v-35.285q0-2.4-2.4-2.4h-7.7425q-2.4 0-2.4 2.4z" clip-path="url(#a)" fill="#fff" stroke="#fff"/>
<g clip-path="url(#a)">
<g transform="translate(684.14 894.52) rotate(90) scale(.08 -.08)">
<use xlink:href="#l"/>
<use x="60.818359" xlink:href="#d"/>
<use x="122.341797" xlink:href="#h"/>
<use x="163.439453" xlink:href="#i"/>
<use x="260.851562" xlink:href="#j"/>
<use x="288.634766" xlink:href="#f"/>
<use x="352.013672" xlink:href="#g"/>
<use x="413.292969" xlink:href="#k"/>
</g>
</g>
<path d="m772.18 894.52v35.285q0 2.4 2.4 2.4h7.7425q2.4 0 2.4-2.4v-35.285q0-2.4-2.4-2.4h-7.7425q-2.4 0-2.4 2.4z" clip-path="url(#a)" fill="#fff" stroke="#fff"/>
<g clip-path="url(#a)">
<g transform="translate(776.25 894.52) rotate(90) scale(.08 -.08)">
<use xlink:href="#l"/>
<use x="60.818359" xlink:href="#d"/>
<use x="122.341797" xlink:href="#h"/>
<use x="163.439453" xlink:href="#i"/>
<use x="260.851562" xlink:href="#j"/>
<use x="288.634766" xlink:href="#f"/>
<use x="352.013672" xlink:href="#g"/>
<use x="413.292969" xlink:href="#k"/>
</g>
</g>
<path d="m864.29 894.52v35.285q0 2.4 2.4 2.4h7.7425q2.4 0 2.4-2.4v-35.285q0-2.4-2.4-2.4h-7.7425q-2.4 0-2.4 2.4z" clip-path="url(#a)" fill="#fff" stroke="#fff"/>
<g clip-path="url(#a)">
<g transform="translate(868.35 894.52) rotate(90) scale(.08 -.08)">
<use xlink:href="#l"/>
<use x="60.818359" xlink:href="#d"/>
<use x="122.341797" xlink:href="#h"/>
<use x="163.439453" xlink:href="#i"/>
<use x="260.851562" xlink:href="#j"/>
<use x="288.634766" xlink:href="#f"/>
<use x="352.013672" xlink:href="#g"/>
<use x="413.292969" xlink:href="#k"/>
</g>
</g>
<path d="m1011.3 810.12 5.1054-1.9706q2.239-0.86423 1.3748-3.1032l-2.7881-7.2231q-0.86423-2.239-3.1032-1.3748l-5.1054 1.9706q-2.239 0.86423-1.3748 3.1032l2.7881 7.2231q0.86423 2.239 3.1032 1.3748z" clip-path="url(#a)" fill="#fff" stroke="#fff"/>
<g clip-path="url(#a)">
<g transform="translate(1009.8 806.33) rotate(-21.106) scale(.08 -.08)">
<use xlink:href="#m"/>
</g>
</g>
<path d="m1070.6 809.86 4.0404-2.6351q2.0102-1.3111 0.69918-3.3213l-4.2296-6.4851q-1.3111-2.0102-3.3213-0.69918l-4.0404 2.6351q-2.0102 1.3111-0.69918 3.3213l4.2296 6.4851q1.3111 2.0102 3.3213 0.69918z" clip-path="url(#a)" fill="#fff" stroke="#fff"/>
<g clip-path="url(#a)">
<g transform="translate(1068.3 806.45) rotate(-33.112) scale(.08 -.08)">
<use xlink:href="#t"/>
</g>
</g>
<path d="m1035.2 809.94 4.1781-1.9274q2.1793-1.0053 1.174-3.1846l-3.2432-7.0305q-1.0053-2.1793-3.1846-1.174l-4.1781 1.9274q-2.1793 1.0053-1.174 3.1846l3.2432 7.0305q1.0053 2.1793 3.1846 1.174z" clip-path="url(#a)" fill="#fff" stroke="#fff"/>
<g clip-path="url(#a)">
<g transform="translate(1033.5 806.25) rotate(-24.764) scale(.08 -.08)">
<use xlink:href="#y"/>
</g>
</g>
<path d="m1490.8 862.94 4.8175 1.5314q2.2872 0.72705 3.0143-1.5602l2.3455-7.3787q0.72705-2.2872-1.5602-3.0143l-4.8175-1.5314q-2.2872-0.72705-3.0143 1.5602l-2.3455 7.3787q-0.72705 2.2872 1.5602 3.0143z" clip-path="url(#a)" fill="#fff" stroke="#fff"/>
<g clip-path="url(#a)">
<defs>
<path id="ai" d="m9.8125 72.906h46.094v-8.3125h-36.234v-21.578h34.719v-8.2969h-34.719v-26.422h37.109v-8.2969h-46.969z"/>
</defs>
<g transform="translate(1492.1 859.06) rotate(17.634) scale(.08 -.08)">
<use xlink:href="#ai"/>
</g>
</g>
<path d="m976.66 930.72 7.3009-34.521q0.49659-2.3481-1.8515-2.8447l-7.5749-1.602q-2.3481-0.49659-2.8447 1.8515l-7.3009 34.521q-0.49659 2.3481 1.8515 2.8447l7.575 1.602q2.3481 0.49659 2.8447-1.8515z" clip-path="url(#a)" fill="#fff" stroke="#fff"/>
<g clip-path="url(#a)">
<g transform="translate(972.69 929.88) rotate(-78.059) scale(.08 -.08)">
<use xlink:href="#l"/>
<use x="60.818359" xlink:href="#d"/>
<use x="122.341797" xlink:href="#h"/>
<use x="163.439453" xlink:href="#i"/>
<use x="260.851562" xlink:href="#j"/>
<use x="288.634766" xlink:href="#f"/>
<use x="352.013672" xlink:href="#g"/>
<use x="413.292969" xlink:href="#k"/>
</g>
</g>
<path d="m987.42 896.2 7.3009 34.521q0.49659 2.3481 2.8447 1.8515l7.5749-1.602q2.3481-0.49659 1.8515-2.8447l-7.3009-34.521q-0.49659-2.3481-2.8447-1.8515l-7.575 1.602q-2.3481 0.49659-1.8515 2.8447z" clip-path="url(#a)" fill="#fff" stroke="#fff"/>
<g clip-path="url(#a)">
<g transform="translate(991.4 895.36) rotate(78.059) scale(.08 -.08)">
<use xlink:href="#l"/>
<use x="60.818359" xlink:href="#d"/>
<use x="122.341797" xlink:href="#h"/>
<use x="163.439453" xlink:href="#i"/>
<use x="260.851562" xlink:href="#j"/>
<use x="288.634766" xlink:href="#f"/>
<use x="352.013672" xlink:href="#g"/>
<use x="413.292969" xlink:href="#k"/>
</g>
</g>
<path d="m1048.5 894.52v35.285q0 2.4 2.4 2.4h7.7425q2.4 0 2.4-2.4v-35.285q0-2.4-2.4-2.4h-7.7425q-2.4 0-2.4 2.4z" clip-path="url(#a)" fill="#fff" stroke="#fff"/>
<g clip-path="url(#a)">
<g transform="translate(1052.6 894.52) rotate(90) scale(.08 -.08)">
<use xlink:href="#l"/>
<use x="60.818359" xlink:href="#d"/>
<use x="122.341797" xlink:href="#h"/>
<use x="163.439453" xlink:href="#i"/>
<use x="260.851562" xlink:href="#j"/>
<use x="288.634766" xlink:href="#f"/>
<use x="352.013672" xlink:href="#g"/>
<use x="413.292969" xlink:href="#k"/>
</g>
</g>
<path d="m1180 512.36 0.092614 4.8229q0.046079 2.3996 2.4456 2.3535l7.7411-0.14865q2.3996-0.046079 2.3535-2.4456l-0.092613-4.8229q-0.046079-2.3996-2.4456-2.3535l-7.7411 0.14865q-2.3996 0.046079-2.3535 2.4456z" clip-path="url(#a)" fill="#fff" stroke="#fff"/>
<g clip-path="url(#a)">
<g transform="translate(1184.1 512.28) rotate(88.9) scale(.08 -.08)">
<use xlink:href="#t"/>
</g>
</g>
<path d="m1146.2 518.08 0.62539-5.4366q0.27427-2.3843-2.11-2.6585l-7.6918-0.8848q-2.3843-0.27427-2.6585 2.11l-0.62539 5.4366q-0.27427 2.3843 2.11 2.6585l7.6918 0.8848q2.3843 0.27427 2.6585-2.11z" clip-path="url(#a)" fill="#fff" stroke="#fff"/>
<g clip-path="url(#a)">
<g transform="translate(1142.2 517.62) rotate(-83.438) scale(.08 -.08)">
<use xlink:href="#m"/>
</g>
</g>
<path d="m1169.5 517.25 0.22021-4.596q0.11486-2.3972-2.2824-2.5121l-7.7336-0.37055q-2.3972-0.11486-2.5121 2.2824l-0.22021 4.596q-0.11486 2.3972 2.2824 2.5121l7.7336 0.37055q2.3972 0.11486 2.5121-2.2824z" clip-path="url(#a)" fill="#fff" stroke="#fff"/>
<g clip-path="url(#a)">
<g transform="translate(1165.4 517.05) rotate(-87.257) scale(.08 -.08)">
<use xlink:href="#y"/>
</g>
</g>
<path d="m1222.5 234.04 3.453 4.2456q1.5143 1.8619 3.3763 0.34762l6.0067-4.8853q1.8619-1.5143 0.34762-3.3763l-3.453-4.2456q-1.5143-1.8619-3.3763-0.34762l-6.0067 4.8853q-1.8619 1.5143-0.34762 3.3763z" clip-path="url(#a)" fill="#fff" stroke="#fff"/>
<g clip-path="url(#a)">
<g transform="translate(1225.6 231.48) rotate(50.878) scale(.08 -.08)">
<use xlink:href="#m"/>
</g>
</g>
<path d="m1186.7 894.52v35.285q0 2.4 2.4 2.4h7.7425q2.4 0 2.4-2.4v-35.285q0-2.4-2.4-2.4h-7.7425q-2.4 0-2.4 2.4z" clip-path="url(#a)" fill="#fff" stroke="#fff"/>
<g clip-path="url(#a)">
<g transform="translate(1190.7 894.52) rotate(90) scale(.08 -.08)">
<use xlink:href="#l"/>
<use x="60.818359" xlink:href="#d"/>
<use x="122.341797" xlink:href="#h"/>
<use x="163.439453" xlink:href="#i"/>
<use x="260.851562" xlink:href="#j"/>
<use x="288.634766" xlink:href="#f"/>
<use x="352.013672" xlink:href="#g"/>
<use x="413.292969" xlink:href="#k"/>
</g>
</g>
<path d="m495.87 894.52v35.285q0 2.4 2.4 2.4h7.7425q2.4 0 2.4-2.4v-35.285q0-2.4-2.4-2.4h-7.7425q-2.4 0-2.4 2.4z" clip-path="url(#a)" fill="#fff" stroke="#fff"/>
<g clip-path="url(#a)">
<g transform="translate(499.93 894.52) rotate(90) scale(.08 -.08)">
<use xlink:href="#l"/>
<use x="60.818359" xlink:href="#d"/>
<use x="122.341797" xlink:href="#h"/>
<use x="163.439453" xlink:href="#i"/>
<use x="260.851562" xlink:href="#j"/>
<use x="288.634766" xlink:href="#f"/>
<use x="352.013672" xlink:href="#g"/>
<use x="413.292969" xlink:href="#k"/>
</g>
</g>
<path d="m622.07 801.85 1.1559 5.4654q0.49659 2.3481 2.8447 1.8515l7.5749-1.602q2.3481-0.49659 1.8515-2.8447l-1.1559-5.4654q-0.49659-2.3481-2.8447-1.8515l-7.575 1.602q-2.3481 0.49659-1.8515 2.8447z" clip-path="url(#a)" fill="#fff" stroke="#fff"/>
<g clip-path="url(#a)">
<defs>
<path id="ar" d="m64.406 67.281v-10.391q-4.9844 4.6406-10.625 6.9219-5.6406 2.2969-11.984 2.2969-12.5 0-19.141-7.6406t-6.6406-22.094q0-14.406 6.6406-22.047t19.141-7.6406q6.3438 0 11.984 2.2969t10.625 6.9375v-10.312q-5.1719-3.5156-10.969-5.2812-5.7812-1.75-12.219-1.75-16.562 0-26.094 10.125-9.5156 10.141-9.5156 27.672 0 17.578 9.5156 27.703 9.5312 10.141 26.094 10.141 6.5312 0 12.312-1.7344 5.7969-1.7344 10.875-5.2031z"/>
</defs>
<g transform="translate(626.05 801.01) rotate(78.059) scale(.08 -.08)">
<use xlink:href="#ar"/>
</g>
</g>
<path d="m611.37 807.06 1.0459-4.9456q0.49659-2.3481-1.8515-2.8447l-7.5749-1.602q-2.3481-0.49659-2.8447 1.8515l-1.0459 4.9456q-0.49659 2.3481 1.8515 2.8447l7.575 1.602q2.3481 0.49659 2.8447-1.8515z" clip-path="url(#a)" fill="#fff" stroke="#fff"/>
<g clip-path="url(#a)">
<g transform="translate(607.39 806.22) rotate(-78.059) scale(.08 -.08)">
<use xlink:href="#ai"/>
</g>
</g>
<path d="m634.03 894.52v35.285q0 2.4 2.4 2.4h7.7425q2.4 0 2.4-2.4v-35.285q0-2.4-2.4-2.4h-7.7425q-2.4 0-2.4 2.4z" clip-path="url(#a)" fill="#fff" stroke="#fff"/>
<g clip-path="url(#a)">
<g transform="translate(638.09 894.52) rotate(90) scale(.08 -.08)">
<use xlink:href="#l"/>
<use x="60.818359" xlink:href="#d"/>
<use x="122.341797" xlink:href="#h"/>
<use x="163.439453" xlink:href="#i"/>
<use x="260.851562" xlink:href="#j"/>
<use x="288.634766" xlink:href="#f"/>
<use x="352.013672" xlink:href="#g"/>
<use x="413.292969" xlink:href="#k"/>
</g>
</g>
<path d="m910.34 894.52v35.285q0 2.4 2.4 2.4h7.7425q2.4 0 2.4-2.4v-35.285q0-2.4-2.4-2.4h-7.7425q-2.4 0-2.4 2.4z" clip-path="url(#a)" fill="#fff" stroke="#fff"/>
<g clip-path="url(#a)">
<g transform="translate(914.41 894.52) rotate(90) scale(.08 -.08)">
<use xlink:href="#l"/>
<use x="60.818359" xlink:href="#d"/>
<use x="122.341797" xlink:href="#h"/>
<use x="163.439453" xlink:href="#i"/>
<use x="260.851562" xlink:href="#j"/>
<use x="288.634766" xlink:href="#f"/>
<use x="352.013672" xlink:href="#g"/>
<use x="413.292969" xlink:href="#k"/>
</g>
</g>
<path d="m1094.6 894.52v35.285q0 2.4 2.4 2.4h7.7425q2.4 0 2.4-2.4v-35.285q0-2.4-2.4-2.4h-7.7425q-2.4 0-2.4 2.4z" clip-path="url(#a)" fill="#fff" stroke="#fff"/>
<g clip-path="url(#a)">
<g transform="translate(1098.6 894.52) rotate(90) scale(.08 -.08)">
<use xlink:href="#l"/>
<use x="60.818359" xlink:href="#d"/>
<use x="122.341797" xlink:href="#h"/>
<use x="163.439453" xlink:href="#i"/>
<use x="260.851562" xlink:href="#j"/>
<use x="288.634766" xlink:href="#f"/>
<use x="352.013672" xlink:href="#g"/>
<use x="413.292969" xlink:href="#k"/>
</g>
</g>
<path d="m1140.6 894.52v35.285q0 2.4 2.4 2.4h7.7425q2.4 0 2.4-2.4v-35.285q0-2.4-2.4-2.4h-7.7425q-2.4 0-2.4 2.4z" clip-path="url(#a)" fill="#fff" stroke="#fff"/>
<g clip-path="url(#a)">
<g transform="translate(1144.7 894.52) rotate(90) scale(.08 -.08)">
<use xlink:href="#l"/>
<use x="60.818359" xlink:href="#d"/>
<use x="122.341797" xlink:href="#h"/>
<use x="163.439453" xlink:href="#i"/>
<use x="260.851562" xlink:href="#j"/>
<use x="288.634766" xlink:href="#f"/>
<use x="352.013672" xlink:href="#g"/>
<use x="413.292969" xlink:href="#k"/>
</g>
</g>
<path d="m1194.8 579.78 1.641-5.2207q0.71968-2.2896-1.5699-3.0092l-7.3862-2.3217q-2.2896-0.71968-3.0092 1.5699l-1.641 5.2207q-0.71968 2.2896 1.5699 3.0092l7.3862 2.3217q2.2896 0.71968 3.0092-1.5699z" clip-path="url(#a)" fill="#fff" stroke="#fff"/>
<g clip-path="url(#a)">
<g transform="translate(1190.9 578.56) rotate(-72.551) scale(.08 -.08)">
<use xlink:href="#m"/>
</g>
</g>
<path d="m1275.4 572.95 0.056801 4.8234q0.028261 2.3998 2.4281 2.3716l7.742-0.09117q2.3998-0.028261 2.3716-2.4281l-0.056801-4.8234q-0.028261-2.3998-2.4281-2.3716l-7.742 0.09117q-2.3998 0.02826-2.3716 2.4281z" clip-path="url(#a)" fill="#fff" stroke="#fff"/>
<g clip-path="url(#a)">
<g transform="translate(1279.5 572.9) rotate(89.325) scale(.08 -.08)">
<use xlink:href="#t"/>
</g>
</g>
<path d="m1264.8 578.02 0.32016-4.5901q0.167-2.3942-2.2272-2.5612l-7.7237-0.53873q-2.3942-0.167-2.5612 2.2272l-0.32016 4.5901q-0.167 2.3942 2.2272 2.5612l7.7237 0.53873q2.3942 0.167 2.5612-2.2272z" clip-path="url(#a)" fill="#fff" stroke="#fff"/>
<g clip-path="url(#a)">
<g transform="translate(1260.7 577.73) rotate(-86.01) scale(.08 -.08)">
<use xlink:href="#y"/>
</g>
</g>
<path d="m1298.2 573.14 0.50839 5.4488q0.22296 2.3896 2.6126 2.1667l7.709-0.71927q2.3896-0.22296 2.1667-2.6126l-0.50839-5.4488q-0.22296-2.3896-2.6126-2.1667l-7.709 0.71927q-2.3896 0.22296-2.1667 2.6126z" clip-path="url(#a)" fill="#fff" stroke="#fff"/>
<g clip-path="url(#a)">
<g transform="translate(1302.3 572.76) rotate(84.67) scale(.08 -.08)">
<use xlink:href="#m"/>
</g>
</g>
<path d="m1351.2 355.23 4.3805 3.2801q1.9211 1.4385 3.3596-0.48261l4.6407-6.1976q1.4385-1.9211-0.48261-3.3596l-4.3805-3.2801q-1.9211-1.4385-3.3596 0.4826l-4.6407 6.1976q-1.4385 1.9211 0.48261 3.3596z" clip-path="url(#a)" fill="#fff" stroke="#fff"/>
<g clip-path="url(#a)">
<g transform="translate(1353.7 351.98) rotate(36.825) scale(.08 -.08)">
<use xlink:href="#m"/>
</g>
</g>
<path d="m1278.8 894.52v35.285q0 2.4 2.4 2.4h7.7425q2.4 0 2.4-2.4v-35.285q0-2.4-2.4-2.4h-7.7425q-2.4 0-2.4 2.4z" clip-path="url(#a)" fill="#fff" stroke="#fff"/>
<g clip-path="url(#a)">
<g transform="translate(1282.8 894.52) rotate(90) scale(.08 -.08)">
<use xlink:href="#l"/>
<use x="60.818359" xlink:href="#d"/>
<use x="122.341797" xlink:href="#h"/>
<use x="163.439453" xlink:href="#i"/>
<use x="260.851562" xlink:href="#j"/>
<use x="288.634766" xlink:href="#f"/>
<use x="352.013672" xlink:href="#g"/>
<use x="413.292969" xlink:href="#k"/>
</g>
</g>
<path d="m587.97 894.52v35.285q0 2.4 2.4 2.4h7.7425q2.4 0 2.4-2.4v-35.285q0-2.4-2.4-2.4h-7.7425q-2.4 0-2.4 2.4z" clip-path="url(#a)" fill="#fff" stroke="#fff"/>
<g clip-path="url(#a)">
<g transform="translate(592.04 894.52) rotate(90) scale(.08 -.08)">
<use xlink:href="#l"/>
<use x="60.818359" xlink:href="#d"/>
<use x="122.341797" xlink:href="#h"/>
<use x="163.439453" xlink:href="#i"/>
<use x="260.851562" xlink:href="#j"/>
<use x="288.634766" xlink:href="#f"/>
<use x="352.013672" xlink:href="#g"/>
<use x="413.292969" xlink:href="#k"/>
</g>
</g>
<path d="m1232.7 894.52v35.285q0 2.4 2.4 2.4h7.7425q2.4 0 2.4-2.4v-35.285q0-2.4-2.4-2.4h-7.7425q-2.4 0-2.4 2.4z" clip-path="url(#a)" fill="#fff" stroke="#fff"/>
<g clip-path="url(#a)">
<g transform="translate(1236.8 894.52) rotate(90) scale(.08 -.08)">
<use xlink:href="#l"/>
<use x="60.818359" xlink:href="#d"/>
<use x="122.341797" xlink:href="#h"/>
<use x="163.439453" xlink:href="#i"/>
<use x="260.851562" xlink:href="#j"/>
<use x="288.634766" xlink:href="#f"/>
<use x="352.013672" xlink:href="#g"/>
<use x="413.292969" xlink:href="#k"/>
</g>
</g>
<path d="m1324.8 894.52v35.285q0 2.4 2.4 2.4h7.7425q2.4 0 2.4-2.4v-35.285q0-2.4-2.4-2.4h-7.7425q-2.4 0-2.4 2.4z" clip-path="url(#a)" fill="#fff" stroke="#fff"/>
<g clip-path="url(#a)">
<g transform="translate(1328.9 894.52) rotate(90) scale(.08 -.08)">
<use xlink:href="#l"/>
<use x="60.818359" xlink:href="#d"/>
<use x="122.341797" xlink:href="#h"/>
<use x="163.439453" xlink:href="#i"/>
<use x="260.851562" xlink:href="#j"/>
<use x="288.634766" xlink:href="#f"/>
<use x="352.013672" xlink:href="#g"/>
<use x="413.292969" xlink:href="#k"/>
</g>
</g>
<path d="m1389 638.39 1.2506-5.3277q0.54847-2.3365-1.788-2.885l-7.5376-1.7694q-2.3365-0.54847-2.885 1.788l-1.2506 5.3277q-0.54847 2.3365 1.788 2.885l7.5376 1.7694q2.3365 0.54847 2.885-1.788z" clip-path="url(#a)" fill="#fff" stroke="#fff"/>
<g clip-path="url(#a)">
<g transform="translate(1385.1 637.46) rotate(-76.79) scale(.08 -.08)">
<use xlink:href="#m"/>
</g>
</g>
<path d="m1446.2 632.35 0.35804 4.8104q0.17814 2.3934 2.5715 2.2152l7.7211-0.57468q2.3934-0.17814 2.2152-2.5715l-0.35804-4.8104q-0.17814-2.3934-2.5715-2.2152l-7.7211 0.57468q-2.3934 0.17814-2.2152 2.5715z" clip-path="url(#a)" fill="#fff" stroke="#fff"/>
<g clip-path="url(#a)">
<g transform="translate(1450.2 632.05) rotate(85.743) scale(.08 -.08)">
<use xlink:href="#t"/>
</g>
</g>
<path d="m1412.4 637.86 0.72573-5.5112q0.31333-2.3795-2.0661-2.6928l-7.6762-1.0108q-2.3795-0.31333-2.6928 2.0661l-0.72573 5.5112q-0.31333 2.3795 2.0661 2.6928l7.6762 1.0108q2.3795 0.31333 2.6928-2.0661z" clip-path="url(#a)" fill="#fff" stroke="#fff"/>
<g clip-path="url(#a)">
<g transform="translate(1408.4 637.33) rotate(-82.498) scale(.08 -.08)">
<use xlink:href="#ah"/>
</g>
</g>
<path d="m1435.8 637.55 0.17627-6.1575q0.068676-2.399-2.3303-2.4677l-7.7393-0.22155q-2.399-0.068677-2.4677 2.3303l-0.17627 6.1575q-0.068676 2.399 2.3303 2.4677l7.7393 0.22155q2.399 0.068676 2.4677-2.3303z" clip-path="url(#a)" fill="#fff" stroke="#fff"/>
<g clip-path="url(#a)">
<g transform="translate(1431.7 637.43) rotate(-88.36) scale(.08 -.08)">
<use xlink:href="#ab"/>
</g>
</g>
<path d="m1501.6 471.57 4.2666 3.427q1.8711 1.5029 3.3741-0.3682l4.8486-6.0364q1.5029-1.8711-0.3682-3.3741l-4.2666-3.427q-1.8711-1.5029-3.3741 0.3682l-4.8486 6.0364q-1.5029 1.8711 0.3682 3.3741z" clip-path="url(#a)" fill="#fff" stroke="#fff"/>
<g clip-path="url(#a)">
<g transform="translate(1504.1 468.4) rotate(38.772) scale(.08 -.08)">
<use xlink:href="#m"/>
</g>
</g>
<path d="m1463 894.52v35.285q0 2.4 2.4 2.4h7.7425q2.4 0 2.4-2.4v-35.285q0-2.4-2.4-2.4h-7.7425q-2.4 0-2.4 2.4z" clip-path="url(#a)" fill="#fff" stroke="#fff"/>
<g clip-path="url(#a)">
<g transform="translate(1467 894.52) rotate(90) scale(.08 -.08)">
<use xlink:href="#l"/>
<use x="60.818359" xlink:href="#d"/>
<use x="122.341797" xlink:href="#h"/>
<use x="163.439453" xlink:href="#i"/>
<use x="260.851562" xlink:href="#j"/>
<use x="288.634766" xlink:href="#f"/>
<use x="352.013672" xlink:href="#g"/>
<use x="413.292969" xlink:href="#k"/>
</g>
</g>
<path d="m1370.9 894.52v35.285q0 2.4 2.4 2.4h7.7425q2.4 0 2.4-2.4v-35.285q0-2.4-2.4-2.4h-7.7425q-2.4 0-2.4 2.4z" clip-path="url(#a)" fill="#fff" stroke="#fff"/>
<g clip-path="url(#a)">
<g transform="translate(1374.9 894.52) rotate(90) scale(.08 -.08)">
<use xlink:href="#l"/>
<use x="60.818359" xlink:href="#d"/>
<use x="122.341797" xlink:href="#h"/>
<use x="163.439453" xlink:href="#i"/>
<use x="260.851562" xlink:href="#j"/>
<use x="288.634766" xlink:href="#f"/>
<use x="352.013672" xlink:href="#g"/>
<use x="413.292969" xlink:href="#k"/>
</g>
</g>
<path d="m1416.9 894.52v35.285q0 2.4 2.4 2.4h7.7425q2.4 0 2.4-2.4v-35.285q0-2.4-2.4-2.4h-7.7425q-2.4 0-2.4 2.4z" clip-path="url(#a)" fill="#fff" stroke="#fff"/>
<g clip-path="url(#a)">
<g transform="translate(1421 894.52) rotate(90) scale(.08 -.08)">
<use xlink:href="#l"/>
<use x="60.818359" xlink:href="#d"/>
<use x="122.341797" xlink:href="#h"/>
<use x="163.439453" xlink:href="#i"/>
<use x="260.851562" xlink:href="#j"/>
<use x="288.634766" xlink:href="#f"/>
<use x="352.013672" xlink:href="#g"/>
<use x="413.292969" xlink:href="#k"/>
</g>
</g>
<path d="m1576.4 694.58 0.26-4.8167q0.12936-2.3965-2.2672-2.5259l-7.7312-0.41732q-2.3965-0.12936-2.5259 2.2672l-0.26 4.8167q-0.12936 2.3965 2.2672 2.5259l7.7312 0.41732q2.3965 0.12936 2.5259-2.2672z" clip-path="url(#a)" fill="#fff" stroke="#fff"/>
<g clip-path="url(#a)">
<g transform="translate(1572.4 694.36) rotate(-86.91) scale(.08 -.08)">
<use xlink:href="#t"/>
</g>
</g>
<path d="m1553 695.28 0.87099-4.5181q0.45431-2.3566-1.9023-2.8109l-7.6025-1.4656q-2.3566-0.45431-2.8109 1.9023l-0.87099 4.5181q-0.45431 2.3566 1.9023 2.8109l7.6025 1.4656q2.3566 0.45431 2.8109-1.9023z" clip-path="url(#a)" fill="#fff" stroke="#fff"/>
<g clip-path="url(#a)">
<g transform="translate(1549 694.51) rotate(-79.088) scale(.08 -.08)">
<use xlink:href="#y"/>
</g>
</g>
<path d="m1613.3 583.39 3.6243 4.981q1.4121 1.9406 3.3527 0.52857l6.2606-4.5554q1.9406-1.4121 0.52857-3.3527l-3.6243-4.981q-1.4121-1.9406-3.3527-0.52857l-6.2606 4.5554q-1.9406 1.4121-0.52857 3.3527z" clip-path="url(#a)" fill="#fff" stroke="#fff"/>
<g clip-path="url(#a)">
<g transform="translate(1616.6 581) rotate(53.959) scale(.08 -.08)">
<use xlink:href="#ab"/>
</g>
</g>
<path d="m1555.1 894.52v35.285q0 2.4 2.4 2.4h7.7425q2.4 0 2.4-2.4v-35.285q0-2.4-2.4-2.4h-7.7425q-2.4 0-2.4 2.4z" clip-path="url(#a)" fill="#fff" stroke="#fff"/>
<g clip-path="url(#a)">
<g transform="translate(1559.1 894.52) rotate(90) scale(.08 -.08)">
<use xlink:href="#l"/>
<use x="60.818359" xlink:href="#d"/>
<use x="122.341797" xlink:href="#h"/>
<use x="163.439453" xlink:href="#i"/>
<use x="260.851562" xlink:href="#j"/>
<use x="288.634766" xlink:href="#f"/>
<use x="352.013672" xlink:href="#g"/>
<use x="413.292969" xlink:href="#k"/>
</g>
</g>
<path d="m1509 894.52v35.285q0 2.4 2.4 2.4h7.7425q2.4 0 2.4-2.4v-35.285q0-2.4-2.4-2.4h-7.7425q-2.4 0-2.4 2.4z" clip-path="url(#a)" fill="#fff" stroke="#fff"/>
<g clip-path="url(#a)">
<g transform="translate(1513.1 894.52) rotate(90) scale(.08 -.08)">
<use xlink:href="#l"/>
<use x="60.818359" xlink:href="#d"/>
<use x="122.341797" xlink:href="#h"/>
<use x="163.439453" xlink:href="#i"/>
<use x="260.851562" xlink:href="#j"/>
<use x="288.634766" xlink:href="#f"/>
<use x="352.013672" xlink:href="#g"/>
<use x="413.292969" xlink:href="#k"/>
</g>
</g>
<path d="m1663.5 750.72 0.16875-4.8208q0.08396-2.3985-2.3146-2.4825l-7.7378-0.27086q-2.3985-0.083959-2.4825 2.3146l-0.16875 4.8208q-0.08396 2.3985 2.3146 2.4825l7.7378 0.27086q2.3985 0.083959 2.4825-2.3146z" clip-path="url(#a)" fill="#fff" stroke="#fff"/>
<g clip-path="url(#a)">
<g transform="translate(1659.4 750.58) rotate(-87.995) scale(.08 -.08)">
<use xlink:href="#t"/>
</g>
</g>
<path d="m1639.7 752.28 1.3229-5.399q0.57118-2.331-1.7599-2.9022l-7.52-1.8426q-2.331-0.57118-2.9022 1.7599l-1.3229 5.399q-0.57118 2.331 1.7599 2.9022l7.52 1.8426q2.331 0.57118 2.9022-1.7599z" clip-path="url(#a)" fill="#fff" stroke="#fff"/>
<g clip-path="url(#a)">
<g transform="translate(1635.8 751.31) rotate(-76.232) scale(.08 -.08)">
<use xlink:href="#ah"/>
</g>
</g>
<path d="m1685 694.31 2.6601 4.7825q1.1666 2.0974 3.264 0.93075l6.7662-3.7636q2.0974-1.1666 0.93075-3.264l-2.6601-4.7825q-1.1666-2.0974-3.264-0.93075l-6.7662 3.7636q-2.0974 1.1666-0.93075 3.264z" clip-path="url(#a)" fill="#fff" stroke="#fff"/>
<g clip-path="url(#a)">
<g transform="translate(1688.6 692.33) rotate(60.916) scale(.08 -.08)">
<use xlink:href="#m"/>
</g>
</g>
<path d="m1647.2 894.52v35.285q0 2.4 2.4 2.4h7.7425q2.4 0 2.4-2.4v-35.285q0-2.4-2.4-2.4h-7.7425q-2.4 0-2.4 2.4z" clip-path="url(#a)" fill="#fff" stroke="#fff"/>
<g clip-path="url(#a)">
<g transform="translate(1651.3 894.52) rotate(90) scale(.08 -.08)">
<use xlink:href="#l"/>
<use x="60.818359" xlink:href="#d"/>
<use x="122.341797" xlink:href="#h"/>
<use x="163.439453" xlink:href="#i"/>
<use x="260.851562" xlink:href="#j"/>
<use x="288.634766" xlink:href="#f"/>
<use x="352.013672" xlink:href="#g"/>
<use x="413.292969" xlink:href="#k"/>
</g>
</g>
<path d="m1601.1 894.52v35.285q0 2.4 2.4 2.4h7.7425q2.4 0 2.4-2.4v-35.285q0-2.4-2.4-2.4h-7.7425q-2.4 0-2.4 2.4z" clip-path="url(#a)" fill="#fff" stroke="#fff"/>
<g clip-path="url(#a)">
<g transform="translate(1605.2 894.52) rotate(90) scale(.08 -.08)">
<use xlink:href="#l"/>
<use x="60.818359" xlink:href="#d"/>
<use x="122.341797" xlink:href="#h"/>
<use x="163.439453" xlink:href="#i"/>
<use x="260.851562" xlink:href="#j"/>
<use x="288.634766" xlink:href="#f"/>
<use x="352.013672" xlink:href="#g"/>
<use x="413.292969" xlink:href="#k"/>
</g>
</g>
<path d="m1727.3 801.85 1.1559 5.4654q0.49659 2.3481 2.8447 1.8515l7.5749-1.602q2.3481-0.49659 1.8515-2.8447l-1.1559-5.4654q-0.49659-2.3481-2.8447-1.8515l-7.575 1.602q-2.3481 0.49659-1.8515 2.8447z" clip-path="url(#a)" fill="#fff" stroke="#fff"/>
<g clip-path="url(#a)">
<g transform="translate(1731.3 801.01) rotate(78.059) scale(.08 -.08)">
<use xlink:href="#ar"/>
</g>
</g>
<path d="m1716.6 807.06 1.0459-4.9456q0.49659-2.3481-1.8515-2.8447l-7.5749-1.602q-2.3481-0.49659-2.8447 1.8515l-1.0459 4.9456q-0.49659 2.3481 1.8515 2.8447l7.575 1.602q2.3481 0.49659 2.8447-1.8515z" clip-path="url(#a)" fill="#fff" stroke="#fff"/>
<g clip-path="url(#a)">
<g transform="translate(1712.7 806.22) rotate(-78.059) scale(.08 -.08)">
<use xlink:href="#ai"/>
</g>
</g>
<path d="m1739.3 894.52v35.285q0 2.4 2.4 2.4h7.7425q2.4 0 2.4-2.4v-35.285q0-2.4-2.4-2.4h-7.7425q-2.4 0-2.4 2.4z" clip-path="url(#a)" fill="#fff" stroke="#fff"/>
<g clip-path="url(#a)">
<g transform="translate(1743.4 894.52) rotate(90) scale(.08 -.08)">
<use xlink:href="#l"/>
<use x="60.818359" xlink:href="#d"/>
<use x="122.341797" xlink:href="#h"/>
<use x="163.439453" xlink:href="#i"/>
<use x="260.851562" xlink:href="#j"/>
<use x="288.634766" xlink:href="#f"/>
<use x="352.013672" xlink:href="#g"/>
<use x="413.292969" xlink:href="#k"/>
</g>
</g>
<path d="m1693.2 894.52v35.285q0 2.4 2.4 2.4h7.7425q2.4 0 2.4-2.4v-35.285q0-2.4-2.4-2.4h-7.7425q-2.4 0-2.4 2.4z" clip-path="url(#a)" fill="#fff" stroke="#fff"/>
<g clip-path="url(#a)">
<g transform="translate(1697.3 894.52) rotate(90) scale(.08 -.08)">
<use xlink:href="#l"/>
<use x="60.818359" xlink:href="#d"/>
<use x="122.341797" xlink:href="#h"/>
<use x="163.439453" xlink:href="#i"/>
<use x="260.851562" xlink:href="#j"/>
<use x="288.634766" xlink:href="#f"/>
<use x="352.013672" xlink:href="#g"/>
<use x="413.292969" xlink:href="#k"/>
</g>
</g>
<defs>
<path id="b" d="m0 8.6603c2.2967 0 4.4997-0.9125 6.1237-2.5365 1.624-1.624 2.5365-3.827 2.5365-6.1237s-0.9125-4.4997-2.5365-6.1237c-1.624-1.624-3.827-2.5365-6.1237-2.5365s-4.4997 0.9125-6.1237 2.5365c-1.624 1.624-2.5365 3.827-2.5365 6.1237s0.9125 4.4997 2.5365 6.1237c1.624 1.624 3.827 2.5365 6.1237 2.5365z"/>
</defs>
<g clip-path="url(#a)">
<use x="87.664298" y="966.602765" fill="#ffffff" stroke="#ffffff" xlink:href="#b"/>
</g>
<g clip-path="url(#a)">
<use x="133.717054" y="966.602765" fill="#ffffff" stroke="#ffffff" xlink:href="#b"/>
</g>
<g clip-path="url(#a)">
<use x="179.76981" y="966.602765" fill="#ffffff" stroke="#ffffff" xlink:href="#b"/>
</g>
<g clip-path="url(#a)">
<use x="225.822567" y="966.602765" fill="#ffffff" stroke="#ffffff" xlink:href="#b"/>
</g>
<g clip-path="url(#a)">
<use x="271.875323" y="966.602765" fill="#ffffff" stroke="#ffffff" xlink:href="#b"/>
</g>
<g clip-path="url(#a)">
<use x="317.928079" y="966.602765" fill="#ffffff" stroke="#ffffff" xlink:href="#b"/>
</g>
<g clip-path="url(#a)">
<use x="363.980835" y="966.602765" fill="#ffffff" stroke="#ffffff" xlink:href="#b"/>
</g>
<g clip-path="url(#a)">
<use x="410.033592" y="966.602765" fill="#ffffff" stroke="#ffffff" xlink:href="#b"/>
</g>
<g clip-path="url(#a)">
<use x="456.086348" y="966.602765" fill="#ffffff" stroke="#ffffff" xlink:href="#b"/>
</g>
<g clip-path="url(#a)">
<use x="502.139104" y="966.602765" fill="#ffffff" stroke="#ffffff" xlink:href="#b"/>
</g>
<g clip-path="url(#a)">
<use x="548.19186" y="966.602765" fill="#ffffff" stroke="#ffffff" xlink:href="#b"/>
</g>
<g clip-path="url(#a)">
<use x="594.244617" y="966.602765" fill="#ffffff" stroke="#ffffff" xlink:href="#b"/>
</g>
<g clip-path="url(#a)">
<use x="640.297373" y="966.602765" fill="#ffffff" stroke="#ffffff" xlink:href="#b"/>
</g>
<g clip-path="url(#a)">
<use x="686.350129" y="966.602765" fill="#ffffff" stroke="#ffffff" xlink:href="#b"/>
</g>
<g clip-path="url(#a)">
<use x="732.402885" y="966.602765" fill="#ffffff" stroke="#ffffff" xlink:href="#b"/>
</g>
<g clip-path="url(#a)">
<use x="778.455642" y="966.602765" fill="#ffffff" stroke="#ffffff" xlink:href="#b"/>
</g>
<g clip-path="url(#a)">
<use x="824.508398" y="966.602765" fill="#ffffff" stroke="#ffffff" xlink:href="#b"/>
</g>
<g clip-path="url(#a)">
<use x="870.561154" y="966.602765" fill="#ffffff" stroke="#ffffff" xlink:href="#b"/>
</g>
<g clip-path="url(#a)">
<use x="916.61391" y="966.602765" fill="#ffffff" stroke="#ffffff" xlink:href="#b"/>
</g>
<g clip-path="url(#a)">
<use x="962.666667" y="966.602765" fill="#ffffff" stroke="#ffffff" xlink:href="#b"/>
</g>
<g clip-path="url(#a)">
<use x="1008.719423" y="966.602765" fill="#ffffff" stroke="#ffffff" xlink:href="#b"/>
</g>
<g clip-path="url(#a)">
<use x="1054.772179" y="966.602765" fill="#ffffff" stroke="#ffffff" xlink:href="#b"/>
</g>
<g clip-path="url(#a)">
<use x="1100.824935" y="966.602765" fill="#ffffff" stroke="#ffffff" xlink:href="#b"/>
</g>
<g clip-path="url(#a)">
<use x="1146.877692" y="966.602765" fill="#ffffff" stroke="#ffffff" xlink:href="#b"/>
</g>
<g clip-path="url(#a)">
<use x="1192.930448" y="966.602765" fill="#ffffff" stroke="#ffffff" xlink:href="#b"/>
</g>
<g clip-path="url(#a)">
<use x="1238.983204" y="966.602765" fill="#ffffff" stroke="#ffffff" xlink:href="#b"/>
</g>
<g clip-path="url(#a)">
<use x="1285.03596" y="966.602765" fill="#ffffff" stroke="#ffffff" xlink:href="#b"/>
</g>
<g clip-path="url(#a)">
<use x="1331.088717" y="966.602765" fill="#ffffff" stroke="#ffffff" xlink:href="#b"/>
</g>
<g clip-path="url(#a)">
<use x="1377.141473" y="966.602765" fill="#ffffff" stroke="#ffffff" xlink:href="#b"/>
</g>
<g clip-path="url(#a)">
<use x="1423.194229" y="966.602765" fill="#ffffff" stroke="#ffffff" xlink:href="#b"/>
</g>
<g clip-path="url(#a)">
<use x="1469.246985" y="966.602765" fill="#ffffff" stroke="#ffffff" xlink:href="#b"/>
</g>
<g clip-path="url(#a)">
<use x="1515.299742" y="966.602765" fill="#ffffff" stroke="#ffffff" xlink:href="#b"/>
</g>
<g clip-path="url(#a)">
<use x="1561.352498" y="966.602765" fill="#ffffff" stroke="#ffffff" xlink:href="#b"/>
</g>
<g clip-path="url(#a)">
<use x="1607.405254" y="966.602765" fill="#ffffff" stroke="#ffffff" xlink:href="#b"/>
</g>
<g clip-path="url(#a)">
<use x="1653.45801" y="966.602765" fill="#ffffff" stroke="#ffffff" xlink:href="#b"/>
</g>
<g clip-path="url(#a)">
<use x="1699.510767" y="966.602765" fill="#ffffff" stroke="#ffffff" xlink:href="#b"/>
</g>
<g clip-path="url(#a)">
<use x="1745.563523" y="966.602765" fill="#ffffff" stroke="#ffffff" xlink:href="#b"/>
</g>
<g clip-path="url(#a)">
<use x="1791.616279" y="966.602765" fill="#ffffff" stroke="#ffffff" xlink:href="#b"/>
</g>
<g clip-path="url(#a)">
<use x="730.876931" y="46.730568" fill="#ffffff" stroke="#ffffff" xlink:href="#b"/>
</g>
<g clip-path="url(#a)">
<use x="515.954931" y="638.454762" fill="#ffffff" stroke="#ffffff" xlink:href="#b"/>
</g>
<g clip-path="url(#a)">
<use x="271.875323" y="857.724967" fill="#ffffff" stroke="#ffffff" xlink:href="#b"/>
</g>
<g clip-path="url(#a)">
<use x="110.690676" y="748.84717" fill="#ffffff" stroke="#ffffff" xlink:href="#b"/>
</g>
<g clip-path="url(#a)">
<use x="133.717054" y="857.724967" fill="#ffffff" stroke="#ffffff" xlink:href="#b"/>
</g>
<g clip-path="url(#a)">
<use x="179.76981" y="857.724967" fill="#ffffff" stroke="#ffffff" xlink:href="#b"/>
</g>
<g clip-path="url(#a)">
<use x="225.822567" y="857.724967" fill="#ffffff" stroke="#ffffff" xlink:href="#b"/>
</g>
<g clip-path="url(#a)">
<use x="336.349182" y="748.84717" fill="#ffffff" stroke="#ffffff" xlink:href="#b"/>
</g>
<g clip-path="url(#a)">
<use x="363.980835" y="857.724967" fill="#ffffff" stroke="#ffffff" xlink:href="#b"/>
</g>
<g clip-path="url(#a)">
<use x="732.402885" y="857.724967" fill="#ffffff" stroke="#ffffff" xlink:href="#b"/>
</g>
<g clip-path="url(#a)">
<use x="741.037777" y="638.454762" fill="#ffffff" stroke="#ffffff" xlink:href="#b"/>
</g>
<g clip-path="url(#a)">
<use x="824.508398" y="857.724967" fill="#ffffff" stroke="#ffffff" xlink:href="#b"/>
</g>
<g clip-path="url(#a)">
<use x="1791.616279" y="857.724967" fill="#ffffff" stroke="#ffffff" xlink:href="#b"/>
</g>
<g clip-path="url(#a)">
<use x="87.664298" y="857.724967" fill="#ffffff" stroke="#ffffff" xlink:href="#b"/>
</g>
<g clip-path="url(#a)">
<use x="317.928079" y="857.724967" fill="#ffffff" stroke="#ffffff" xlink:href="#b"/>
</g>
<g clip-path="url(#a)">
<use x="410.033592" y="857.724967" fill="#ffffff" stroke="#ffffff" xlink:href="#b"/>
</g>
<g clip-path="url(#a)">
<use x="456.086348" y="857.724967" fill="#ffffff" stroke="#ffffff" xlink:href="#b"/>
</g>
<g clip-path="url(#a)">
<use x="555.86732" y="638.454762" fill="#ffffff" stroke="#ffffff" xlink:href="#b"/>
</g>
<g clip-path="url(#a)">
<use x="548.19186" y="857.724967" fill="#ffffff" stroke="#ffffff" xlink:href="#b"/>
</g>
<g clip-path="url(#a)">
<use x="686.350129" y="857.724967" fill="#ffffff" stroke="#ffffff" xlink:href="#b"/>
</g>
<g clip-path="url(#a)">
<use x="778.455642" y="857.724967" fill="#ffffff" stroke="#ffffff" xlink:href="#b"/>
</g>
<g clip-path="url(#a)">
<use x="870.561154" y="857.724967" fill="#ffffff" stroke="#ffffff" xlink:href="#b"/>
</g>
<g clip-path="url(#a)">
<use x="1152.634286" y="748.84717" fill="#ffffff" stroke="#ffffff" xlink:href="#b"/>
</g>
<g clip-path="url(#a)">
<use x="985.693045" y="857.724967" fill="#ffffff" stroke="#ffffff" xlink:href="#b"/>
</g>
<g clip-path="url(#a)">
<use x="1054.772179" y="857.724967" fill="#ffffff" stroke="#ffffff" xlink:href="#b"/>
</g>
<g clip-path="url(#a)">
<use x="1179.754243" y="171.572953" fill="#ffffff" stroke="#ffffff" xlink:href="#b"/>
</g>
<g clip-path="url(#a)">
<use x="1192.930448" y="857.724967" fill="#ffffff" stroke="#ffffff" xlink:href="#b"/>
</g>
<g clip-path="url(#a)">
<use x="502.139104" y="857.724967" fill="#ffffff" stroke="#ffffff" xlink:href="#b"/>
</g>
<g clip-path="url(#a)">
<use x="617.270995" y="748.84717" fill="#ffffff" stroke="#ffffff" xlink:href="#b"/>
</g>
<g clip-path="url(#a)">
<use x="640.297373" y="857.724967" fill="#ffffff" stroke="#ffffff" xlink:href="#b"/>
</g>
<g clip-path="url(#a)">
<use x="916.61391" y="857.724967" fill="#ffffff" stroke="#ffffff" xlink:href="#b"/>
</g>
<g clip-path="url(#a)">
<use x="1837.669035" y="966.602765" fill="#ffffff" stroke="#ffffff" xlink:href="#b"/>
</g>
<g clip-path="url(#a)">
<use x="1100.824935" y="857.724967" fill="#ffffff" stroke="#ffffff" xlink:href="#b"/>
</g>
<g clip-path="url(#a)">
<use x="1146.877692" y="857.724967" fill="#ffffff" stroke="#ffffff" xlink:href="#b"/>
</g>
<g clip-path="url(#a)">
<use x="1278.383896" y="292.843595" fill="#ffffff" stroke="#ffffff" xlink:href="#b"/>
</g>
<g clip-path="url(#a)">
<use x="1285.03596" y="857.724967" fill="#ffffff" stroke="#ffffff" xlink:href="#b"/>
</g>
<g clip-path="url(#a)">
<use x="594.244617" y="857.724967" fill="#ffffff" stroke="#ffffff" xlink:href="#b"/>
</g>
<g clip-path="url(#a)">
<use x="1238.983204" y="857.724967" fill="#ffffff" stroke="#ffffff" xlink:href="#b"/>
</g>
<g clip-path="url(#a)">
<use x="1331.088717" y="857.724967" fill="#ffffff" stroke="#ffffff" xlink:href="#b"/>
</g>
<g clip-path="url(#a)">
<use x="1435.986661" y="410.854817" fill="#ffffff" stroke="#ffffff" xlink:href="#b"/>
</g>
<g clip-path="url(#a)">
<use x="1469.246985" y="857.724967" fill="#ffffff" stroke="#ffffff" xlink:href="#b"/>
</g>
<g clip-path="url(#a)">
<use x="1377.141473" y="857.724967" fill="#ffffff" stroke="#ffffff" xlink:href="#b"/>
</g>
<g clip-path="url(#a)">
<use x="1423.194229" y="857.724967" fill="#ffffff" stroke="#ffffff" xlink:href="#b"/>
</g>
<g clip-path="url(#a)">
<use x="1579.261903" y="525.936665" fill="#ffffff" stroke="#ffffff" xlink:href="#b"/>
</g>
<g clip-path="url(#a)">
<use x="1561.352498" y="857.724967" fill="#ffffff" stroke="#ffffff" xlink:href="#b"/>
</g>
<g clip-path="url(#a)">
<use x="1515.299742" y="857.724967" fill="#ffffff" stroke="#ffffff" xlink:href="#b"/>
</g>
<g clip-path="url(#a)">
<use x="1661.13347" y="638.454762" fill="#ffffff" stroke="#ffffff" xlink:href="#b"/>
</g>
<g clip-path="url(#a)">
<use x="1653.45801" y="857.724967" fill="#ffffff" stroke="#ffffff" xlink:href="#b"/>
</g>
<g clip-path="url(#a)">
<use x="1607.405254" y="857.724967" fill="#ffffff" stroke="#ffffff" xlink:href="#b"/>
</g>
<g clip-path="url(#a)">
<use x="1722.537145" y="748.84717" fill="#ffffff" stroke="#ffffff" xlink:href="#b"/>
</g>
<g clip-path="url(#a)">
<use x="1745.563523" y="857.724967" fill="#ffffff" stroke="#ffffff" xlink:href="#b"/>
</g>
<g clip-path="url(#a)">
<use x="1699.510767" y="857.724967" fill="#ffffff" stroke="#ffffff" xlink:href="#b"/>
</g>
<g clip-path="url(#a)">
<defs>
<path id="z" d="m54.891 33.016v-33.016h-8.9844v32.719q0 7.7656-3.0312 11.609-3.0312 3.8594-9.0781 3.8594-7.2812 0-11.484-4.6406-4.2031-4.625-4.2031-12.641v-30.906h-9.0312v75.984h9.0312v-29.797q3.2344 4.9375 7.5938 7.375 4.375 2.4375 10.094 2.4375 9.4219 0 14.25-5.8281 4.8438-5.8281 4.8438-17.156z"/>
</defs>
<g transform="translate(78.365 969.36) scale(.1 -.1)">
<use xlink:href="#l"/>
<use x="61.083984" xlink:href="#z"/>
<use x="124.462891" xlink:href="#d"/>
</g>
</g>
<g clip-path="url(#a)">
<defs>
<path id="s" d="m30.609 48.391q-7.2188 0-11.422-5.6406t-4.2031-15.453 4.1719-15.453q4.1875-5.6406 11.453-5.6406 7.1875 0 11.375 5.6562 4.2031 5.6719 4.2031 15.438 0 9.7188-4.2031 15.406-4.1875 5.6875-11.375 5.6875zm0 7.6094q11.719 0 18.406-7.625 6.7031-7.6094 6.7031-21.078 0-13.422-6.7031-21.078-6.6875-7.6406-18.406-7.6406-11.766 0-18.438 7.6406-6.6562 7.6562-6.6562 21.078 0 13.469 6.6562 21.078 6.6719 7.625 18.438 7.625z"/>
<path id="ak" d="m4.2031 54.688h8.9844l11.234-42.672 11.172 42.672h10.594l11.234-42.672 11.188 42.672h8.9844l-14.312-54.688h-10.594l-11.766 44.828-11.812-44.828h-10.609z"/>
</defs>
<g transform="translate(118.27 969.36) scale(.1 -.1)">
<use xlink:href="#s"/>
<use x="61.181641" xlink:href="#ak"/>
<use x="142.96875" xlink:href="#f"/>
<use x="206.347656" xlink:href="#d"/>
<use x="267.871094" xlink:href="#h"/>
</g>
</g>
<g clip-path="url(#a)">
<defs>
<path id="r" d="m44.281 53.078v-8.5q-3.7969 1.9531-7.9062 2.9219-4.0938 0.98438-8.5 0.98438-6.6875 0-10.031-2.0469t-3.3438-6.1562q0-3.125 2.3906-4.9062t9.625-3.3906l3.0781-0.6875q9.5625-2.0469 13.594-5.7812t4.0312-10.422q0-7.625-6.0312-12.078-6.0312-4.4375-16.578-4.4375-4.3906 0-9.1562 0.85938t-10.031 2.5625v9.2812q4.9844-2.5938 9.8125-3.8906 4.8281-1.2812 9.5781-1.2812 6.3438 0 9.75 2.1719 3.4219 2.1719 3.4219 6.125 0 3.6562-2.4688 5.6094-2.4531 1.9531-10.812 3.7656l-3.125 0.73438q-8.3438 1.75-12.062 5.3906-3.7031 3.6406-3.7031 9.9844 0 7.7188 5.4688 11.906 5.4688 4.2031 15.531 4.2031 4.9688 0 9.3594-0.73438 4.4062-0.71875 8.1094-2.1875z"/>
</defs>
<g transform="translate(170.01 969.36) scale(.1 -.1)">
<use xlink:href="#ak"/>
<use x="81.787109" xlink:href="#g"/>
<use x="143.066406" xlink:href="#r"/>
</g>
</g>
<g clip-path="url(#a)">
<defs>
<path id="au" d="m28.609 0-27.828 72.906h10.297l23.109-61.375 23.141 61.375h10.25l-27.781-72.906z"/>
<path id="at" d="m-0.20312 72.906h10.609l20.203-29.984 20.078 29.984h10.594l-25.781-38.188v-34.719h-9.9062v34.719z"/>
</defs>
<g transform="translate(212.72 969.36) scale(.1 -.1)">
<use xlink:href="#au"/>
<use x="68.408203" xlink:href="#ai"/>
<use x="131.591797" xlink:href="#ah"/>
<use x="200.980469" xlink:href="#at"/>
</g>
</g>
<g clip-path="url(#a)">
<defs>
<path id="w" d="m8.5 21.578v33.109h8.9844v-32.766q0-7.7656 3.0156-11.656 3.0312-3.875 9.0938-3.875 7.2656 0 11.484 4.6406 4.2344 4.6406 4.2344 12.656v31h8.9844v-54.688h-8.9844v8.4062q-3.2656-4.9844-7.5938-7.4062-4.3125-2.4219-10.031-2.4219-9.4219 0-14.312 5.8594-4.875 5.8594-4.875 17.141z"/>
<path id="x" d="m45.406 46.391v29.594h8.9844v-75.984h-8.9844v8.2031q-2.8281-4.875-7.1562-7.25-4.3125-2.375-10.375-2.375-9.9062 0-16.141 7.9062-6.2188 7.9219-6.2188 20.812t6.2188 20.797q6.2344 7.9062 16.141 7.9062 6.0625 0 10.375-2.375 4.3281-2.3594 7.1562-7.2344zm-30.609-19.094q0-9.9062 4.0781-15.547t11.203-5.6406 11.219 5.6406q4.1094 5.6406 4.1094 15.547t-4.1094 15.547q-4.0938 5.6406-11.219 5.6406t-11.203-5.6406-4.0781-15.547z"/>
</defs>
<g transform="translate(260.4 969.36) scale(.1 -.1)">
<use xlink:href="#h"/>
<use x="41.113281" xlink:href="#w"/>
<use x="104.492188" xlink:href="#x"/>
<use x="167.96875" xlink:href="#d"/>
</g>
</g>
<g clip-path="url(#a)">
<defs>
<path id="as" d="m11.719 12.406h10.297v-8.4062l-8-15.625h-6.2969l4 15.625z"/>
</defs>
<g transform="translate(316.34 969.36) scale(.1 -.1)">
<use xlink:href="#as"/>
</g>
</g>
<g clip-path="url(#a)">
<defs>
<path id="u" d="m48.781 52.594v-8.4062q-3.8125 2.1094-7.6406 3.1562t-7.7344 1.0469q-8.75 0-13.594-5.5469-4.8281-5.5312-4.8281-15.547t4.8281-15.562q4.8438-5.5312 13.594-5.5312 3.9062 0 7.7344 1.0469t7.6406 3.1562v-8.3125q-3.7656-1.75-7.7969-2.625-4.0156-0.89062-8.5625-0.89062-12.359 0-19.641 7.7656-7.2656 7.7656-7.2656 20.953 0 13.375 7.3438 21.031 7.3594 7.6719 20.156 7.6719 4.1406 0 8.0938-0.85938 3.9531-0.84375 7.6719-2.5469z"/>
</defs>
<g transform="translate(343.39 969.36) scale(.1 -.1)">
<use xlink:href="#g"/>
<use x="61.279297" xlink:href="#u"/>
<use x="116.259766" xlink:href="#u"/>
<use x="171.240234" xlink:href="#w"/>
<use x="234.619141" xlink:href="#r"/>
<use x="286.71875" xlink:href="#d"/>
<use x="348.242188" xlink:href="#x"/>
</g>
</g>
<g clip-path="url(#a)">
<g transform="translate(402.09 969.36) scale(.1 -.1)">
<use xlink:href="#i"/>
<use x="97.412109" xlink:href="#d"/>
</g>
</g>
<g clip-path="url(#a)">
<defs>
<path id="ao" d="m37.109 75.984v-7.4844h-8.5938q-4.8281 0-6.7188-1.9531-1.875-1.9531-1.875-7.0312v-4.8281h14.797v-6.9844h-14.797v-47.703h-9.0312v47.703h-8.5938v6.9844h8.5938v3.8125q0 9.125 4.25 13.297 4.25 4.1875 13.469 4.1875z"/>
</defs>
<g transform="translate(451.27 969.36) scale(.1 -.1)">
<use xlink:href="#s"/>
<use x="61.181641" xlink:href="#ao"/>
</g>
</g>
<g clip-path="url(#a)">
<defs>
<path id="q" d="m18.312 70.219v-15.531h18.5v-6.9844h-18.5v-29.688q0-6.6875 1.8281-8.5938t7.4531-1.9062h9.2188v-7.5156h-9.2188q-10.406 0-14.359 3.875-3.9531 3.8906-3.9531 14.141v29.688h-6.5938v6.9844h6.5938v15.531z"/>
</defs>
<g transform="translate(493.95 969.36) scale(.1 -.1)">
<use xlink:href="#f"/>
<use x="63.378906" xlink:href="#s"/>
<use x="124.560547" xlink:href="#q"/>
</g>
</g>
<g clip-path="url(#a)">
<defs>
<path id="an" d="m45.406 27.984q0 9.7656-4.0312 15.125-4.0156 5.375-11.297 5.375-7.2188 0-11.25-5.375-4.0312-5.3594-4.0312-15.125 0-9.7188 4.0312-15.094t11.25-5.375q7.2812 0 11.297 5.375 4.0312 5.375 4.0312 15.094zm8.9844-21.203q0-13.953-6.2031-20.766-6.1875-6.8125-18.984-6.8125-4.7344 0-8.9375 0.70312t-8.1562 2.1719v8.7344q3.9531-2.1406 7.8125-3.1562 3.8594-1.0312 7.8594-1.0312 8.8438 0 13.234 4.6094t4.3906 13.938v4.4531q-2.7812-4.8438-7.125-7.2344t-10.406-2.3906q-10.047 0-16.203 7.6562-6.1562 7.6719-6.1562 20.328 0 12.688 6.1562 20.344 6.1562 7.6719 16.203 7.6719 6.0625 0 10.406-2.3906t7.125-7.2188v8.2969h8.9844z"/>
</defs>
<g transform="translate(529.09 969.36) scale(.1 -.1)">
<use xlink:href="#h"/>
<use x="41.082031" xlink:href="#d"/>
<use x="102.605469" xlink:href="#g"/>
<use x="163.884766" xlink:href="#x"/>
<use x="227.361328" xlink:href="#j"/>
<use x="255.144531" xlink:href="#f"/>
<use x="318.523438" xlink:href="#an"/>
</g>
</g>
<g clip-path="url(#a)">
<defs>
<path id="aj" d="m32.172-5.0781q-3.7969-9.7656-7.4219-12.734-3.6094-2.9844-9.6562-2.9844h-7.1875v7.5156h5.2812q3.7031 0 5.75 1.7656 2.0625 1.75 4.5469 8.2969l1.6094 4.0938-22.109 53.812h9.5156l17.094-42.766 17.094 42.766h9.5156z"/>
</defs>
<g transform="translate(586.41 969.36) scale(.1 -.1)">
<use xlink:href="#i"/>
<use x="97.412109" xlink:href="#aj"/>
</g>
</g>
<g clip-path="url(#a)">
<g transform="translate(619.53 969.36) scale(.1 -.1)">
<use xlink:href="#u"/>
<use x="54.980469" xlink:href="#s"/>
<use x="116.162109" xlink:href="#f"/>
<use x="179.541016" xlink:href="#q"/>
<use x="218.75" xlink:href="#h"/>
<use x="259.863281" xlink:href="#g"/>
<use x="321.142578" xlink:href="#u"/>
<use x="376.123047" xlink:href="#q"/>
</g>
</g>
<g clip-path="url(#a)">
<g transform="translate(684.76 969.36) scale(.1 -.1)">
<use xlink:href="#as"/>
</g>
</g>
<g clip-path="url(#a)">
<g transform="translate(723 969.36) scale(.1 -.1)">
<use xlink:href="#g"/>
<use x="61.279297" xlink:href="#f"/>
<use x="124.658203" xlink:href="#x"/>
</g>
</g>
<g clip-path="url(#a)">
<defs>
<path id="ap" d="m48.688 27.297q0 9.9062-4.0781 15.547t-11.203 5.6406q-7.1406 0-11.219-5.6406t-4.0781-15.547 4.0781-15.547 11.219-5.6406q7.125 0 11.203 5.6406t4.0781 15.547zm-30.578 19.094q2.8438 4.875 7.1562 7.2344 4.3281 2.375 10.328 2.375 9.9688 0 16.188-7.9062 6.2344-7.9062 6.2344-20.797t-6.2344-20.812q-6.2188-7.9062-16.188-7.9062-6 0-10.328 2.375-4.3125 2.375-7.1562 7.25v-8.2031h-9.0312v75.984h9.0312z"/>
</defs>
<g transform="translate(756.67 969.36) scale(.1 -.1)">
<use xlink:href="#ap"/>
<use x="63.476562" xlink:href="#g"/>
<use x="124.755859" xlink:href="#r"/>
<use x="176.855469" xlink:href="#j"/>
<use x="204.638672" xlink:href="#u"/>
<use x="259.619141" xlink:href="#g"/>
<use x="320.898438" xlink:href="#k"/>
<use x="348.681641" xlink:href="#k"/>
<use x="376.464844" xlink:href="#aj"/>
</g>
</g>
<g clip-path="url(#a)">
<g transform="translate(814.93 969.36) scale(.1 -.1)">
<use xlink:href="#q"/>
<use x="39.208984" xlink:href="#s"/>
<use x="100.390625" xlink:href="#k"/>
<use x="128.173828" xlink:href="#x"/>
</g>
</g>
<g clip-path="url(#a)">
<g transform="translate(862.61 969.36) scale(.1 -.1)">
<use xlink:href="#i"/>
<use x="97.412109" xlink:href="#d"/>
</g>
</g>
<g clip-path="url(#a)">
<g transform="translate(911.59 969.36) scale(.1 -.1)">
<use xlink:href="#q"/>
<use x="39.208984" xlink:href="#s"/>
</g>
</g>
<g clip-path="url(#a)">
<g transform="translate(951.76 969.36) scale(.1 -.1)">
<use xlink:href="#r"/>
<use x="52.099609" xlink:href="#z"/>
<use x="115.478516" xlink:href="#w"/>
<use x="178.857422" xlink:href="#q"/>
</g>
</g>
<g clip-path="url(#a)">
<defs>
<path id="am" d="m18.109 8.2031v-29h-9.0312v75.484h9.0312v-8.2969q2.8438 4.875 7.1562 7.2344 4.3281 2.375 10.328 2.375 9.9688 0 16.188-7.9062 6.2344-7.9062 6.2344-20.797t-6.2344-20.812q-6.2188-7.9062-16.188-7.9062-6 0-10.328 2.375-4.3125 2.375-7.1562 7.25zm30.578 19.094q0 9.9062-4.0781 15.547t-11.203 5.6406q-7.1406 0-11.219-5.6406t-4.0781-15.547 4.0781-15.547 11.219-5.6406q7.125 0 11.203 5.6406t4.0781 15.547z"/>
</defs>
<g transform="translate(1002.4 969.36) scale(.1 -.1)">
<use xlink:href="#w"/>
<use x="63.378906" xlink:href="#am"/>
</g>
</g>
<g clip-path="url(#a)">
<g transform="translate(1041.3 969.36) scale(.1 -.1)">
<use xlink:href="#ak"/>
<use x="81.787109" xlink:href="#z"/>
<use x="145.166016" xlink:href="#d"/>
<use x="206.689453" xlink:href="#f"/>
</g>
</g>
<g clip-path="url(#a)">
<defs>
<path id="aw" d="m9.8125 72.906h9.8594v-72.906h-9.8594z"/>
</defs>
<g transform="translate(1099.3 969.36) scale(.1 -.1)">
<use xlink:href="#aw"/>
</g>
</g>
<g clip-path="url(#a)">
<g transform="translate(1137.1 969.36) scale(.1 -.1)">
<use xlink:href="#ak"/>
<use x="81.787109" xlink:href="#g"/>
<use x="143.066406" xlink:href="#r"/>
</g>
</g>
<g clip-path="url(#a)">
<g transform="translate(1178.2 969.36) scale(.1 -.1)">
<use xlink:href="#q"/>
<use x="39.208984" xlink:href="#h"/>
<use x="80.322266" xlink:href="#aj"/>
<use x="139.501953" xlink:href="#j"/>
<use x="167.285156" xlink:href="#f"/>
<use x="230.664062" xlink:href="#an"/>
</g>
</g>
<g clip-path="url(#a)">
<g transform="translate(1234 969.36) scale(.1 -.1)">
<use xlink:href="#q"/>
<use x="39.208984" xlink:href="#s"/>
</g>
</g>
<g clip-path="url(#a)">
<defs>
<path id="ay" d="m9.0781 75.984h9.0312v-44.875l26.812 23.578h11.469l-29-25.578 30.234-29.109h-11.719l-27.797 26.703v-26.703h-9.0312z"/>
</defs>
<g transform="translate(1276.5 969.36) scale(.1 -.1)">
<use xlink:href="#g"/>
<use x="61.279297" xlink:href="#r"/>
<use x="113.378906" xlink:href="#ay"/>
</g>
</g>
<g clip-path="url(#a)">
<defs>
<path id="ax" d="m14.797 27.297q0-9.9062 4.0781-15.547t11.203-5.6406 11.219 5.6406q4.1094 5.6406 4.1094 15.547t-4.1094 15.547q-4.0938 5.6406-11.219 5.6406t-11.203-5.6406-4.0781-15.547zm30.609-19.094q-2.8281-4.875-7.1562-7.25-4.3125-2.375-10.375-2.375-9.9062 0-16.141 7.9062-6.2188 7.9219-6.2188 20.812t6.2188 20.797q6.2344 7.9062 16.141 7.9062 6.0625 0 10.375-2.375 4.3281-2.3594 7.1562-7.2344v8.2969h8.9844v-75.484h-8.9844z"/>
</defs>
<g transform="translate(1306.9 969.36) scale(.1 -.1)">
<use xlink:href="#ax"/>
<use x="63.476562" xlink:href="#w"/>
<use x="126.855469" xlink:href="#d"/>
<use x="188.378906" xlink:href="#r"/>
<use x="240.478516" xlink:href="#q"/>
<use x="279.6875" xlink:href="#j"/>
<use x="307.470703" xlink:href="#s"/>
<use x="368.652344" xlink:href="#f"/>
<use x="432.03125" xlink:href="#r"/>
</g>
</g>
<g clip-path="url(#a)">
<g transform="translate(1372.1 969.36) scale(.1 -.1)">
<use xlink:href="#q"/>
<use x="39.208984" xlink:href="#s"/>
</g>
</g>
<g clip-path="url(#a)">
<g transform="translate(1405.9 969.36) scale(.1 -.1)">
<use xlink:href="#ao"/>
<use x="35.205078" xlink:href="#w"/>
<use x="98.583984" xlink:href="#h"/>
<use x="139.697266" xlink:href="#q"/>
<use x="178.90625" xlink:href="#z"/>
<use x="242.285156" xlink:href="#d"/>
<use x="303.808594" xlink:href="#h"/>
</g>
</g>
<g clip-path="url(#a)">
<g transform="translate(1440.6 969.36) scale(.1 -.1)">
<use xlink:href="#w"/>
<use x="63.378906" xlink:href="#f"/>
<use x="126.757812" xlink:href="#x"/>
<use x="190.234375" xlink:href="#d"/>
<use x="251.757812" xlink:href="#h"/>
<use x="292.871094" xlink:href="#r"/>
<use x="344.970703" xlink:href="#q"/>
<use x="384.179688" xlink:href="#g"/>
<use x="445.458984" xlink:href="#f"/>
<use x="508.837891" xlink:href="#x"/>
</g>
</g>
<g clip-path="url(#a)">
<g transform="translate(1507.1 969.36) scale(.1 -.1)">
<use xlink:href="#q"/>
<use x="39.208984" xlink:href="#z"/>
<use x="102.587891" xlink:href="#d"/>
</g>
</g>
<g clip-path="url(#a)">
<g transform="translate(1542 969.36) scale(.1 -.1)">
<use xlink:href="#am"/>
<use x="63.476562" xlink:href="#h"/>
<use x="104.558594" xlink:href="#s"/>
<use x="165.740234" xlink:href="#u"/>
<use x="220.720703" xlink:href="#d"/>
<use x="282.244141" xlink:href="#r"/>
<use x="334.34375" xlink:href="#r"/>
</g>
</g>
<g clip-path="url(#a)">
<g transform="translate(1602.6 969.36) scale(.1 -.1)">
<use xlink:href="#s"/>
<use x="61.181641" xlink:href="#ao"/>
</g>
</g>
<g clip-path="url(#a)">
<g transform="translate(1629.5 969.36) scale(.1 -.1)">
<use xlink:href="#u"/>
<use x="54.980469" xlink:href="#g"/>
<use x="116.259766" xlink:href="#f"/>
<use x="179.638672" xlink:href="#u"/>
<use x="234.619141" xlink:href="#d"/>
<use x="296.142578" xlink:href="#k"/>
<use x="323.925781" xlink:href="#j"/>
<use x="351.708984" xlink:href="#f"/>
<use x="415.087891" xlink:href="#an"/>
</g>
</g>
<g clip-path="url(#a)">
<g transform="translate(1691.7 969.36) scale(.1 -.1)">
<use xlink:href="#i"/>
<use x="97.412109" xlink:href="#aj"/>
</g>
</g>
<g clip-path="url(#a)">
<g transform="translate(1714.1 969.36) scale(.1 -.1)">
<use xlink:href="#i"/>
<use x="97.412109" xlink:href="#d"/>
<use x="158.935547" xlink:href="#i"/>
<use x="256.347656" xlink:href="#ap"/>
<use x="319.824219" xlink:href="#d"/>
<use x="381.347656" xlink:href="#h"/>
<use x="422.460938" xlink:href="#r"/>
<use x="474.560547" xlink:href="#z"/>
<use x="537.939453" xlink:href="#j"/>
<use x="565.722656" xlink:href="#am"/>
</g>
</g>
<g clip-path="url(#a)">
<defs>
<path id="e" d="m10.688 12.406h10.312v-12.406h-10.312z"/>
</defs>
<g transform="translate(1790 969.36) scale(.1 -.1)">
<use xlink:href="#e"/>
</g>
</g>
<g clip-path="url(#a)">
<defs>
<path id="c" d="m12.406 8.2969h16.109v55.625l-17.531-3.5156v8.9844l17.438 3.5156h9.8594v-64.609h16.109v-8.2969h-41.984z"/>
</defs>
<g transform="translate(722.93 49.49) scale(.1 -.1)">
<use xlink:href="#c"/>
<use x="63.623047" xlink:href="#e"/>
<use x="95.410156" xlink:href="#c"/>
</g>
</g>
<g clip-path="url(#a)">
<defs>
<path id="n" d="m19.188 8.2969h34.422v-8.2969h-46.281v8.2969q5.6094 5.8125 15.297 15.594 9.7031 9.7969 12.188 12.641 4.7344 5.3125 6.6094 9 1.8906 3.6875 1.8906 7.25 0 5.8125-4.0781 9.4688-4.0781 3.6719-10.625 3.6719-4.6406 0-9.7969-1.6094-5.1406-1.6094-11-4.8906v9.9688q5.9531 2.3906 11.125 3.6094 5.1875 1.2188 9.4844 1.2188 11.328 0 18.062-5.6719 6.7344-5.6562 6.7344-15.125 0-4.5-1.6875-8.5312-1.6719-4.0156-6.125-9.4844-1.2188-1.4219-7.7656-8.1875-6.5312-6.7656-18.453-18.922z"/>
</defs>
<g transform="translate(508 641.21) scale(.1 -.1)">
<use xlink:href="#c"/>
<use x="63.623047" xlink:href="#e"/>
<use x="95.410156" xlink:href="#n"/>
</g>
</g>
<g clip-path="url(#a)">
<defs>
<path id="p" d="m40.578 39.312q7.0781-1.5156 11.047-6.3125 3.9844-4.7812 3.9844-11.812 0-10.781-7.4219-16.703-7.4219-5.9062-21.094-5.9062-4.5781 0-9.4375 0.90625t-10.031 2.7188v9.5156q4.0938-2.3906 8.9688-3.6094 4.8906-1.2188 10.219-1.2188 9.2656 0 14.125 3.6562t4.8594 10.641q0 6.4531-4.5156 10.078-4.5156 3.6406-12.562 3.6406h-8.5v8.1094h8.8906q7.2656 0 11.125 2.9062t3.8594 8.375q0 5.6094-3.9844 8.6094-3.9688 3.0156-11.391 3.0156-4.0625 0-8.7031-0.89062-4.6406-0.875-10.203-2.7188v8.7812q5.625 1.5625 10.531 2.3438t9.25 0.78125q11.234 0 17.766-5.1094 6.5469-5.0938 6.5469-13.781 0-6.0625-3.4688-10.234t-9.8594-5.7812z"/>
</defs>
<g transform="translate(263.92 860.48) scale(.1 -.1)">
<use xlink:href="#c"/>
<use x="63.623047" xlink:href="#e"/>
<use x="95.410156" xlink:href="#p"/>
</g>
</g>
<g clip-path="url(#a)">
<defs>
<path id="o" d="m37.797 64.312-24.906-38.922h24.906zm-2.5938 8.5938h12.406v-47.516h10.406v-8.2031h-10.406v-17.188h-9.8125v17.188h-32.906v9.5156z"/>
</defs>
<g transform="translate(102.74 751.61) scale(.1 -.1)">
<use xlink:href="#c"/>
<use x="63.623047" xlink:href="#e"/>
<use x="95.410156" xlink:href="#o"/>
</g>
</g>
<g clip-path="url(#a)">
<defs>
<path id="v" d="m10.797 72.906h38.719v-8.3125h-29.688v-17.859q2.1406 0.73438 4.2812 1.0938 2.1562 0.35938 4.3125 0.35938 12.203 0 19.328-6.6875 7.1406-6.6875 7.1406-18.109 0-11.766-7.3281-18.297-7.3281-6.5156-20.656-6.5156-4.5938 0-9.3594 0.78125-4.75 0.78125-9.8281 2.3438v9.9219q4.3906-2.3906 9.0781-3.5625t9.9062-1.1719q8.4531 0 13.375 4.4375 4.9375 4.4375 4.9375 12.062 0 7.6094-4.9375 12.047-4.9219 4.4531-13.375 4.4531-3.9531 0-7.8906-0.875-3.9219-0.875-8.0156-2.7344z"/>
</defs>
<g transform="translate(125.77 860.48) scale(.1 -.1)">
<use xlink:href="#c"/>
<use x="63.623047" xlink:href="#e"/>
<use x="95.410156" xlink:href="#v"/>
</g>
</g>
<g clip-path="url(#a)">
<defs>
<path id="af" d="m33.016 40.375q-6.6406 0-10.531-4.5469-3.875-4.5312-3.875-12.438 0-7.8594 3.875-12.438 3.8906-4.5625 10.531-4.5625t10.516 4.5625q3.875 4.5781 3.875 12.438 0 7.9062-3.875 12.438-3.875 4.5469-10.516 4.5469zm19.578 30.922v-8.9844q-3.7188 1.75-7.5 2.6719-3.7812 0.9375-7.5 0.9375-9.7656 0-14.922-6.5938-5.1406-6.5938-5.875-19.922 2.875 4.25 7.2188 6.5156 4.3594 2.2656 9.5781 2.2656 10.984 0 17.359-6.6719 6.375-6.6562 6.375-18.125 0-11.234-6.6406-18.031-6.6406-6.7812-17.672-6.7812-12.656 0-19.344 9.6875-6.6875 9.7031-6.6875 28.109 0 17.281 8.2031 27.562t22.016 10.281q3.7188 0 7.5-0.73438t7.8906-2.1875z"/>
</defs>
<g transform="translate(171.82 860.48) scale(.1 -.1)">
<use xlink:href="#c"/>
<use x="63.623047" xlink:href="#e"/>
<use x="95.410156" xlink:href="#af"/>
</g>
</g>
<g clip-path="url(#a)">
<defs>
<path id="ae" d="m8.2031 72.906h46.875v-4.2031l-26.469-68.703h-10.297l24.906 64.594h-35.016z"/>
</defs>
<g transform="translate(217.87 860.48) scale(.1 -.1)">
<use xlink:href="#c"/>
<use x="63.623047" xlink:href="#e"/>
<use x="95.410156" xlink:href="#ae"/>
</g>
</g>
<g clip-path="url(#a)">
<defs>
<path id="ad" d="m31.781 34.625q-7.0312 0-11.062-3.7656-4.0156-3.7656-4.0156-10.344 0-6.5938 4.0156-10.359 4.0312-3.7656 11.062-3.7656t11.078 3.7812q4.0625 3.7969 4.0625 10.344 0 6.5781-4.0312 10.344-4.0156 3.7656-11.109 3.7656zm-9.8594 4.1875q-6.3438 1.5625-9.8906 5.9062-3.5312 4.3594-3.5312 10.609 0 8.7344 6.2188 13.812 6.2344 5.0781 17.062 5.0781 10.891 0 17.094-5.0781t6.2031-13.812q0-6.25-3.5469-10.609-3.5312-4.3438-9.8281-5.9062 7.125-1.6562 11.094-6.5 3.9844-4.8281 3.9844-11.797 0-10.609-6.4688-16.281-6.4688-5.6562-18.531-5.6562-12.047 0-18.531 5.6562-6.4688 5.6719-6.4688 16.281 0 6.9688 4 11.797 4.0156 4.8438 11.141 6.5zm-3.6094 15.578q0-5.6562 3.5312-8.8281 3.5469-3.1719 9.9375-3.1719 6.3594 0 9.9375 3.1719 3.5938 3.1719 3.5938 8.8281 0 5.6719-3.5938 8.8438-3.5781 3.1719-9.9375 3.1719-6.3906 0-9.9375-3.1719-3.5312-3.1719-3.5312-8.8438z"/>
</defs>
<g transform="translate(328.4 751.61) scale(.1 -.1)">
<use xlink:href="#c"/>
<use x="63.623047" xlink:href="#e"/>
<use x="95.410156" xlink:href="#ad"/>
</g>
</g>
<g clip-path="url(#a)">
<defs>
<path id="ac" d="m10.984 1.5156v8.9844q3.7188-1.7656 7.5156-2.6875 3.8125-0.92188 7.4844-0.92188 9.7656 0 14.906 6.5625 5.1562 6.5625 5.8906 19.953-2.8281-4.2031-7.1875-6.4531-4.3438-2.25-9.6094-2.25-10.938 0-17.312 6.6094-6.375 6.625-6.375 18.109 0 11.219 6.6406 18 6.6406 6.7969 17.672 6.7969 12.656 0 19.312-9.7031 6.6719-9.6875 6.6719-28.141 0-17.234-8.1875-27.516-8.1719-10.281-21.984-10.281-3.7188 0-7.5312 0.73438-3.7969 0.73438-7.9062 2.2031zm19.625 30.906q6.6406 0 10.516 4.5312 3.8906 4.5469 3.8906 12.469 0 7.8594-3.8906 12.422-3.875 4.5625-10.516 4.5625t-10.516-4.5625-3.875-12.422q0-7.9219 3.875-12.469 3.875-4.5312 10.516-4.5312z"/>
</defs>
<g transform="translate(356.03 860.48) scale(.1 -.1)">
<use xlink:href="#c"/>
<use x="63.623047" xlink:href="#e"/>
<use x="95.410156" xlink:href="#ac"/>
</g>
</g>
<g clip-path="url(#a)">
<defs>
<path id="ag" d="m31.781 66.406q-7.6094 0-11.453-7.5-3.8281-7.4844-3.8281-22.531 0-14.984 3.8281-22.484 3.8438-7.5 11.453-7.5 7.6719 0 11.5 7.5 3.8438 7.5 3.8438 22.484 0 15.047-3.8438 22.531-3.8281 7.5-11.5 7.5zm0 7.8125q12.266 0 18.734-9.7031 6.4688-9.6875 6.4688-28.141 0-18.406-6.4688-28.109-6.4688-9.6875-18.734-9.6875-12.25 0-18.719 9.6875-6.4688 9.7031-6.4688 28.109 0 18.453 6.4688 28.141 6.4688 9.7031 18.719 9.7031z"/>
</defs>
<g transform="translate(721.27 860.48) scale(.1 -.1)">
<use xlink:href="#c"/>
<use x="63.623047" xlink:href="#e"/>
<use x="95.410156" xlink:href="#c"/>
<use x="159.033203" xlink:href="#ag"/>
</g>
</g>
<g clip-path="url(#a)">
<g transform="translate(729.9 641.21) scale(.1 -.1)">
<use xlink:href="#c"/>
<use x="63.623047" xlink:href="#e"/>
<use x="95.410156" xlink:href="#c"/>
<use x="159.033203" xlink:href="#c"/>
</g>
</g>
<g clip-path="url(#a)">
<g transform="translate(813.38 860.48) scale(.1 -.1)">
<use xlink:href="#c"/>
<use x="63.623047" xlink:href="#e"/>
<use x="95.410156" xlink:href="#c"/>
<use x="159.033203" xlink:href="#n"/>
</g>
</g>
<g clip-path="url(#a)">
<g transform="translate(1780.5 860.48) scale(.1 -.1)">
<use xlink:href="#c"/>
<use x="63.623047" xlink:href="#e"/>
<use x="95.410156" xlink:href="#c"/>
<use x="159.033203" xlink:href="#p"/>
</g>
</g>
<g clip-path="url(#a)">
<g transform="translate(76.531 860.48) scale(.1 -.1)">
<use xlink:href="#c"/>
<use x="63.623047" xlink:href="#e"/>
<use x="95.410156" xlink:href="#c"/>
<use x="159.033203" xlink:href="#o"/>
</g>
</g>
<g clip-path="url(#a)">
<g transform="translate(306.8 860.48) scale(.1 -.1)">
<use xlink:href="#c"/>
<use x="63.623047" xlink:href="#e"/>
<use x="95.410156" xlink:href="#c"/>
<use x="159.033203" xlink:href="#v"/>
</g>
</g>
<g clip-path="url(#a)">
<g transform="translate(398.9 860.48) scale(.1 -.1)">
<use xlink:href="#c"/>
<use x="63.623047" xlink:href="#e"/>
<use x="95.410156" xlink:href="#c"/>
<use x="159.033203" xlink:href="#af"/>
</g>
</g>
<g clip-path="url(#a)">
<g transform="translate(444.95 860.48) scale(.1 -.1)">
<use xlink:href="#c"/>
<use x="63.623047" xlink:href="#e"/>
<use x="95.410156" xlink:href="#c"/>
<use x="159.033203" xlink:href="#ae"/>
</g>
</g>
<g clip-path="url(#a)">
<g transform="translate(544.73 641.21) scale(.1 -.1)">
<use xlink:href="#c"/>
<use x="63.623047" xlink:href="#e"/>
<use x="95.410156" xlink:href="#c"/>
<use x="159.033203" xlink:href="#ad"/>
</g>
</g>
<g clip-path="url(#a)">
<g transform="translate(537.06 860.48) scale(.1 -.1)">
<use xlink:href="#c"/>
<use x="63.623047" xlink:href="#e"/>
<use x="95.410156" xlink:href="#c"/>
<use x="159.033203" xlink:href="#ac"/>
</g>
</g>
<g clip-path="url(#a)">
<g transform="translate(675.22 860.48) scale(.1 -.1)">
<use xlink:href="#c"/>
<use x="63.623047" xlink:href="#e"/>
<use x="95.410156" xlink:href="#n"/>
<use x="159.033203" xlink:href="#ag"/>
</g>
</g>
<g clip-path="url(#a)">
<g transform="translate(767.32 860.48) scale(.1 -.1)">
<use xlink:href="#c"/>
<use x="63.623047" xlink:href="#e"/>
<use x="95.410156" xlink:href="#n"/>
<use x="159.033203" xlink:href="#c"/>
</g>
</g>
<g clip-path="url(#a)">
<g transform="translate(859.43 860.48) scale(.1 -.1)">
<use xlink:href="#c"/>
<use x="63.623047" xlink:href="#e"/>
<use x="95.410156" xlink:href="#n"/>
<use x="159.033203" xlink:href="#n"/>
</g>
</g>
<g clip-path="url(#a)">
<g transform="translate(1141.5 751.61) scale(.1 -.1)">
<use xlink:href="#c"/>
<use x="63.623047" xlink:href="#e"/>
<use x="95.410156" xlink:href="#n"/>
<use x="159.033203" xlink:href="#p"/>
</g>
</g>
<g clip-path="url(#a)">
<g transform="translate(974.56 860.48) scale(.1 -.1)">
<use xlink:href="#c"/>
<use x="63.623047" xlink:href="#e"/>
<use x="95.410156" xlink:href="#n"/>
<use x="159.033203" xlink:href="#o"/>
</g>
</g>
<g clip-path="url(#a)">
<g transform="translate(1043.6 860.48) scale(.1 -.1)">
<use xlink:href="#c"/>
<use x="63.623047" xlink:href="#e"/>
<use x="95.410156" xlink:href="#n"/>
<use x="159.033203" xlink:href="#v"/>
</g>
</g>
<g clip-path="url(#a)">
<g transform="translate(1168.6 174.33) scale(.1 -.1)">
<use xlink:href="#c"/>
<use x="63.623047" xlink:href="#e"/>
<use x="95.410156" xlink:href="#n"/>
<use x="159.033203" xlink:href="#af"/>
</g>
</g>
<g clip-path="url(#a)">
<g transform="translate(1181.8 860.48) scale(.1 -.1)">
<use xlink:href="#c"/>
<use x="63.623047" xlink:href="#e"/>
<use x="95.410156" xlink:href="#n"/>
<use x="159.033203" xlink:href="#ae"/>
</g>
</g>
<g clip-path="url(#a)">
<g transform="translate(491.01 860.48) scale(.1 -.1)">
<use xlink:href="#c"/>
<use x="63.623047" xlink:href="#e"/>
<use x="95.410156" xlink:href="#n"/>
<use x="159.033203" xlink:href="#ad"/>
</g>
</g>
<g clip-path="url(#a)">
<g transform="translate(606.14 751.61) scale(.1 -.1)">
<use xlink:href="#c"/>
<use x="63.623047" xlink:href="#e"/>
<use x="95.410156" xlink:href="#n"/>
<use x="159.033203" xlink:href="#ac"/>
</g>
</g>
<g clip-path="url(#a)">
<g transform="translate(629.16 860.48) scale(.1 -.1)">
<use xlink:href="#c"/>
<use x="63.623047" xlink:href="#e"/>
<use x="95.410156" xlink:href="#p"/>
<use x="159.033203" xlink:href="#ag"/>
</g>
</g>
<g clip-path="url(#a)">
<g transform="translate(905.48 860.48) scale(.1 -.1)">
<use xlink:href="#c"/>
<use x="63.623047" xlink:href="#e"/>
<use x="95.410156" xlink:href="#p"/>
<use x="159.033203" xlink:href="#c"/>
</g>
</g>
<g clip-path="url(#a)">
<g transform="translate(1826.5 969.36) scale(.1 -.1)">
<use xlink:href="#c"/>
<use x="63.623047" xlink:href="#e"/>
<use x="95.410156" xlink:href="#p"/>
<use x="159.033203" xlink:href="#n"/>
</g>
</g>
<g clip-path="url(#a)">
<g transform="translate(1089.7 860.48) scale(.1 -.1)">
<use xlink:href="#c"/>
<use x="63.623047" xlink:href="#e"/>
<use x="95.410156" xlink:href="#p"/>
<use x="159.033203" xlink:href="#p"/>
</g>
</g>
<g clip-path="url(#a)">
<g transform="translate(1135.7 860.48) scale(.1 -.1)">
<use xlink:href="#c"/>
<use x="63.623047" xlink:href="#e"/>
<use x="95.410156" xlink:href="#p"/>
<use x="159.033203" xlink:href="#o"/>
</g>
</g>
<g clip-path="url(#a)">
<g transform="translate(1267.3 295.6) scale(.1 -.1)">
<use xlink:href="#c"/>
<use x="63.623047" xlink:href="#e"/>
<use x="95.410156" xlink:href="#p"/>
<use x="159.033203" xlink:href="#v"/>
</g>
</g>
<g clip-path="url(#a)">
<g transform="translate(1273.9 860.48) scale(.1 -.1)">
<use xlink:href="#c"/>
<use x="63.623047" xlink:href="#e"/>
<use x="95.410156" xlink:href="#p"/>
<use x="159.033203" xlink:href="#af"/>
</g>
</g>
<g clip-path="url(#a)">
<g transform="translate(583.11 860.48) scale(.1 -.1)">
<use xlink:href="#c"/>
<use x="63.623047" xlink:href="#e"/>
<use x="95.410156" xlink:href="#p"/>
<use x="159.033203" xlink:href="#ae"/>
</g>
</g>
<g clip-path="url(#a)">
<g transform="translate(1227.9 860.48) scale(.1 -.1)">
<use xlink:href="#c"/>
<use x="63.623047" xlink:href="#e"/>
<use x="95.410156" xlink:href="#p"/>
<use x="159.033203" xlink:href="#ad"/>
</g>
</g>
<g clip-path="url(#a)">
<g transform="translate(1320 860.48) scale(.1 -.1)">
<use xlink:href="#c"/>
<use x="63.623047" xlink:href="#e"/>
<use x="95.410156" xlink:href="#p"/>
<use x="159.033203" xlink:href="#ac"/>
</g>
</g>
<g clip-path="url(#a)">
<g transform="translate(1424.9 413.61) scale(.1 -.1)">
<use xlink:href="#c"/>
<use x="63.623047" xlink:href="#e"/>
<use x="95.410156" xlink:href="#o"/>
<use x="159.033203" xlink:href="#ag"/>
</g>
</g>
<g clip-path="url(#a)">
<g transform="translate(1458.1 860.48) scale(.1 -.1)">
<use xlink:href="#c"/>
<use x="63.623047" xlink:href="#e"/>
<use x="95.410156" xlink:href="#o"/>
<use x="159.033203" xlink:href="#c"/>
</g>
</g>
<g clip-path="url(#a)">
<g transform="translate(1366 860.48) scale(.1 -.1)">
<use xlink:href="#c"/>
<use x="63.623047" xlink:href="#e"/>
<use x="95.410156" xlink:href="#o"/>
<use x="159.033203" xlink:href="#n"/>
</g>
</g>
<g clip-path="url(#a)">
<g transform="translate(1412.1 860.48) scale(.1 -.1)">
<use xlink:href="#c"/>
<use x="63.623047" xlink:href="#e"/>
<use x="95.410156" xlink:href="#o"/>
<use x="159.033203" xlink:href="#p"/>
</g>
</g>
<g clip-path="url(#a)">
<g transform="translate(1568.1 528.7) scale(.1 -.1)">
<use xlink:href="#c"/>
<use x="63.623047" xlink:href="#e"/>
<use x="95.410156" xlink:href="#o"/>
<use x="159.033203" xlink:href="#o"/>
</g>
</g>
<g clip-path="url(#a)">
<g transform="translate(1550.2 860.48) scale(.1 -.1)">
<use xlink:href="#c"/>
<use x="63.623047" xlink:href="#e"/>
<use x="95.410156" xlink:href="#o"/>
<use x="159.033203" xlink:href="#v"/>
</g>
</g>
<g clip-path="url(#a)">
<g transform="translate(1504.2 860.48) scale(.1 -.1)">
<use xlink:href="#c"/>
<use x="63.623047" xlink:href="#e"/>
<use x="95.410156" xlink:href="#o"/>
<use x="159.033203" xlink:href="#af"/>
</g>
</g>
<g clip-path="url(#a)">
<g transform="translate(1650 641.21) scale(.1 -.1)">
<use xlink:href="#c"/>
<use x="63.623047" xlink:href="#e"/>
<use x="95.410156" xlink:href="#o"/>
<use x="159.033203" xlink:href="#ae"/>
</g>
</g>
<g clip-path="url(#a)">
<g transform="translate(1642.3 860.48) scale(.1 -.1)">
<use xlink:href="#c"/>
<use x="63.623047" xlink:href="#e"/>
<use x="95.410156" xlink:href="#o"/>
<use x="159.033203" xlink:href="#ad"/>
</g>
</g>
<g clip-path="url(#a)">
<g transform="translate(1596.3 860.48) scale(.1 -.1)">
<use xlink:href="#c"/>
<use x="63.623047" xlink:href="#e"/>
<use x="95.410156" xlink:href="#o"/>
<use x="159.033203" xlink:href="#ac"/>
</g>
</g>
<g clip-path="url(#a)">
<g transform="translate(1711.4 751.61) scale(.1 -.1)">
<use xlink:href="#c"/>
<use x="63.623047" xlink:href="#e"/>
<use x="95.410156" xlink:href="#v"/>
<use x="159.033203" xlink:href="#ag"/>
</g>
</g>
<g clip-path="url(#a)">
<g transform="translate(1734.4 860.48) scale(.1 -.1)">
<use xlink:href="#c"/>
<use x="63.623047" xlink:href="#e"/>
<use x="95.410156" xlink:href="#v"/>
<use x="159.033203" xlink:href="#c"/>
</g>
</g>
<g clip-path="url(#a)">
<g transform="translate(1688.4 860.48) scale(.1 -.1)">
<use xlink:href="#c"/>
<use x="63.623047" xlink:href="#e"/>
<use x="95.410156" xlink:href="#v"/>
<use x="159.033203" xlink:href="#n"/>
</g>
</g>
<defs>
<clipPath id="a">
<rect width="1925.3" height="1013.3"/>
</clipPath>
</defs>
</svg>
