<?xml version="1.0" encoding="UTF-8"?>
<!DOCTYPE svg  PUBLIC '-//W3C//DTD SVG 1.1//EN'  'http://www.w3.org/Graphics/SVG/1.1/DTD/svg11.dtd'>
<svg width="253.33pt" height="133.33pt" version="1.1" viewBox="0 0 253.33 133.33" xmlns="http://www.w3.org/2000/svg" xmlns:xlink="http://www.w3.org/1999/xlink">
<defs>
<style type="text/css">*{stroke-linecap:butt;stroke-linejoin:round;}</style>
</defs>
<path d="m0 133.33h253.33v-133.33h-253.33z" fill="#fff"/>
<g fill="none" stroke="#000">
<path d="m126.67 8.7682v57.898" clip-path="url(#a)"/>
<path d="m126.67 66.667-113.75 57.898" clip-path="url(#a)"/>
<path d="m126.67 66.667-56.876 57.898" clip-path="url(#a)"/>
<path d="m126.67 66.667v57.898" clip-path="url(#a)"/>
<path d="m126.67 66.667 56.876 57.898" clip-path="url(#a)"/>
<path d="m126.67 66.667 113.75 57.898" clip-path="url(#a)"/>
</g>
<path d="m120.4 34.709v6.0162q0 2.4 2.4 2.4h7.7425q2.4 0 2.4-2.4v-6.0162q0-2.4-2.4-2.4h-7.7425q-2.4 0-2.4 2.4z" clip-path="url(#a)" fill="#fff" stroke="#fff"/>
<g clip-path="url(#a)">
<defs>
<path id="l" d="m9.8125 72.906h9.8594v-29.891h35.844v29.891h9.8594v-72.906h-9.8594v34.719h-35.844v-34.719h-9.8594z"/>
</defs>
<g transform="translate(124.46 34.709) rotate(90) scale(.08 -.08)">
<use xlink:href="#l"/>
</g>
</g>
<path d="m56.913 109.21 31.446-16.006q2.1389-1.0887 1.0502-3.2275l-3.5121-6.9001q-1.0887-2.1389-3.2275-1.0502l-31.446 16.006q-2.1389 1.0887-1.0502 3.2275l3.5121 6.9001q1.0887 2.1389 3.2275 1.0502z" clip-path="url(#a)" fill="#fff" stroke="#fff"/>
<g clip-path="url(#a)">
<defs>
<path id="i" d="m-0.29688 72.906h61.672v-8.3125h-25.875v-64.594h-9.9062v64.594h-25.891z"/>
<path id="b" d="m56.203 29.594v-4.3906h-41.312q0.59375-9.2812 5.5938-14.141t13.938-4.8594q5.1719 0 10.031 1.2656t9.6562 3.8125v-8.5q-4.8438-2.0469-9.9219-3.125t-10.297-1.0781q-13.094 0-20.734 7.6094-7.6406 7.625-7.6406 20.625 0 13.422 7.25 21.297 7.25 7.8906 19.562 7.8906 11.031 0 17.453-7.1094 6.4219-7.0938 6.4219-19.297zm-8.9844 2.6406q-0.09375 7.3594-4.125 11.75-4.0312 4.4062-10.672 4.4062-7.5156 0-12.031-4.25t-5.2031-11.969z"/>
<path id="d" d="m41.109 46.297q-1.5156 0.875-3.2969 1.2812-1.7812 0.42188-3.9219 0.42188-7.625 0-11.703-4.9531t-4.0781-14.234v-28.812h-9.0312v54.688h9.0312v-8.5q2.8438 4.9844 7.375 7.3906 4.5469 2.4219 11.047 2.4219 0.92188 0 2.0469-0.125 1.125-0.10938 2.4844-0.35938z"/>
<path id="j" d="m52 44.188q3.375 6.0625 8.0625 8.9375t11.031 2.875q8.5469 0 13.188-5.9844 4.6406-5.9688 4.6406-17v-33.016h-9.0312v32.719q0 7.8594-2.7969 11.656-2.7812 3.8125-8.4844 3.8125-6.9844 0-11.047-4.6406-4.0469-4.625-4.0469-12.641v-30.906h-9.0312v32.719q0 7.9062-2.7812 11.688t-8.5938 3.7812q-6.8906 0-10.953-4.6562-4.0469-4.6562-4.0469-12.625v-30.906h-9.0312v54.688h9.0312v-8.5q3.0781 5.0312 7.375 7.4219t10.203 2.3906q5.9688 0 10.141-3.0312 4.1719-3.0156 6.1719-8.7812z"/>
<path id="h" d="m9.4219 54.688h8.9844v-54.688h-8.9844zm0 21.297h8.9844v-11.391h-8.9844z"/>
<path id="f" d="m54.891 33.016v-33.016h-8.9844v32.719q0 7.7656-3.0312 11.609-3.0312 3.8594-9.0781 3.8594-7.2812 0-11.484-4.6406-4.2031-4.625-4.2031-12.641v-30.906h-9.0312v54.688h9.0312v-8.5q3.2344 4.9375 7.5938 7.375 4.375 2.4375 10.094 2.4375 9.4219 0 14.25-5.8281 4.8438-5.8281 4.8438-17.156z"/>
<path id="c" d="m34.281 27.484q-10.891 0-15.094-2.4844t-4.2031-8.5q0-4.7812 3.1562-7.5938 3.1562-2.7969 8.5625-2.7969 7.4844 0 12 5.2969t4.5156 14.078v2zm17.922 3.7188v-31.203h-8.9844v8.2969q-3.0781-4.9688-7.6719-7.3438t-11.234-2.375q-8.3906 0-13.359 4.7188-4.9531 4.7188-4.9531 12.625 0 9.2188 6.1719 13.906 6.1875 4.6875 18.438 4.6875h12.609v0.89062q0 6.2031-4.0781 9.5938t-11.453 3.3906q-4.6875 0-9.1406-1.125-4.4375-1.125-8.5312-3.375v8.3125q4.9219 1.9062 9.5625 2.8438 4.6406 0.95312 9.0312 0.95312 11.875 0 17.734-6.1562 5.8594-6.1406 5.8594-18.641z"/>
<path id="g" d="m9.4219 75.984h8.9844v-75.984h-8.9844z"/>
</defs>
<g transform="translate(55.069 105.59) rotate(-26.976) scale(.08 -.08)">
<use xlink:href="#i"/>
<use x="60.818359" xlink:href="#b"/>
<use x="122.341797" xlink:href="#d"/>
<use x="163.439453" xlink:href="#j"/>
<use x="260.851562" xlink:href="#h"/>
<use x="288.634766" xlink:href="#f"/>
<use x="352.013672" xlink:href="#c"/>
<use x="413.292969" xlink:href="#g"/>
</g>
</g>
<path d="m90.339 112.6 24.727-25.172q1.6819-1.7121-0.03024-3.394l-5.5233-5.4258q-1.7121-1.6819-3.394 0.03024l-24.727 25.172q-1.6819 1.7121 0.03024 3.394l5.5233 5.4258q1.7121 1.6819 3.394-0.03024z" clip-path="url(#a)" fill="#fff" stroke="#fff"/>
<g clip-path="url(#a)">
<g transform="translate(87.44 109.75) rotate(-45.51) scale(.08 -.08)">
<use xlink:href="#i"/>
<use x="60.818359" xlink:href="#b"/>
<use x="122.341797" xlink:href="#d"/>
<use x="163.439453" xlink:href="#j"/>
<use x="260.851562" xlink:href="#h"/>
<use x="288.634766" xlink:href="#f"/>
<use x="352.013672" xlink:href="#c"/>
<use x="413.292969" xlink:href="#g"/>
</g>
</g>
<path d="m120.4 77.973v35.285q0 2.4 2.4 2.4h7.7425q2.4 0 2.4-2.4v-35.285q0-2.4-2.4-2.4h-7.7425q-2.4 0-2.4 2.4z" clip-path="url(#a)" fill="#fff" stroke="#fff"/>
<g clip-path="url(#a)">
<g transform="translate(124.46 77.973) rotate(90) scale(.08 -.08)">
<use xlink:href="#i"/>
<use x="60.818359" xlink:href="#b"/>
<use x="122.341797" xlink:href="#d"/>
<use x="163.439453" xlink:href="#j"/>
<use x="260.851562" xlink:href="#h"/>
<use x="288.634766" xlink:href="#f"/>
<use x="352.013672" xlink:href="#c"/>
<use x="413.292969" xlink:href="#g"/>
</g>
</g>
<path d="m138.27 87.425 24.727 25.172q1.6819 1.7121 3.394 0.03024l5.5233-5.4258q1.7121-1.6819 0.03024-3.394l-24.727-25.172q-1.6819-1.7121-3.394-0.03024l-5.5233 5.4258q-1.7121 1.6819-0.030239 3.394z" clip-path="url(#a)" fill="#fff" stroke="#fff"/>
<g clip-path="url(#a)">
<g transform="translate(141.17 84.577) rotate(45.51) scale(.08 -.08)">
<use xlink:href="#i"/>
<use x="60.818359" xlink:href="#b"/>
<use x="122.341797" xlink:href="#d"/>
<use x="163.439453" xlink:href="#j"/>
<use x="260.851562" xlink:href="#h"/>
<use x="288.634766" xlink:href="#f"/>
<use x="352.013672" xlink:href="#c"/>
<use x="413.292969" xlink:href="#g"/>
</g>
</g>
<path d="m164.97 93.202 31.446 16.006q2.1389 1.0887 3.2275-1.0502l3.5121-6.9001q1.0887-2.1389-1.0502-3.2275l-31.446-16.006q-2.1389-1.0887-3.2275 1.0502l-3.5121 6.9001q-1.0887 2.1389 1.0502 3.2275z" clip-path="url(#a)" fill="#fff" stroke="#fff"/>
<g clip-path="url(#a)">
<g transform="translate(166.82 89.58) rotate(26.976) scale(.08 -.08)">
<use xlink:href="#i"/>
<use x="60.818359" xlink:href="#b"/>
<use x="122.341797" xlink:href="#d"/>
<use x="163.439453" xlink:href="#j"/>
<use x="260.851562" xlink:href="#h"/>
<use x="288.634766" xlink:href="#f"/>
<use x="352.013672" xlink:href="#c"/>
<use x="413.292969" xlink:href="#g"/>
</g>
</g>
<defs>
<path id="e" d="m0 8.6603c2.2967 0 4.4997-0.9125 6.1237-2.5365 1.624-1.624 2.5365-3.827 2.5365-6.1237s-0.9125-4.4997-2.5365-6.1237c-1.624-1.624-3.827-2.5365-6.1237-2.5365s-4.4997 0.9125-6.1237 2.5365c-1.624 1.624-2.5365 3.827-2.5365 6.1237s0.9125 4.4997 2.5365 6.1237c1.624 1.624 3.827 2.5365 6.1237 2.5365z"/>
</defs>
<g clip-path="url(#a)">
<use x="12.915056" y="124.565086" fill="#ffffff" stroke="#ffffff" xlink:href="#e"/>
</g>
<g clip-path="url(#a)">
<use x="69.790861" y="124.565086" fill="#ffffff" stroke="#ffffff" xlink:href="#e"/>
</g>
<g clip-path="url(#a)">
<use x="126.666667" y="124.565086" fill="#ffffff" stroke="#ffffff" xlink:href="#e"/>
</g>
<g clip-path="url(#a)">
<use x="183.542472" y="124.565086" fill="#ffffff" stroke="#ffffff" xlink:href="#e"/>
</g>
<g clip-path="url(#a)">
<use x="240.418278" y="124.565086" fill="#ffffff" stroke="#ffffff" xlink:href="#e"/>
</g>
<g clip-path="url(#a)">
<use x="126.666667" y="8.768247" fill="#ffffff" stroke="#ffffff" xlink:href="#e"/>
</g>
<g clip-path="url(#a)">
<use x="126.666667" y="66.666667" fill="#ffffff" stroke="#ffffff" xlink:href="#e"/>
</g>
<g clip-path="url(#a)">
<defs>
<path id="n" d="m30.609 48.391q-7.2188 0-11.422-5.6406t-4.2031-15.453 4.1719-15.453q4.1875-5.6406 11.453-5.6406 7.1875 0 11.375 5.6562 4.2031 5.6719 4.2031 15.438 0 9.7188-4.2031 15.406-4.1875 5.6875-11.375 5.6875zm0 7.6094q11.719 0 18.406-7.625 6.7031-7.6094 6.7031-21.078 0-13.422-6.7031-21.078-6.6875-7.6406-18.406-7.6406-11.766 0-18.438 7.6406-6.6562 7.6562-6.6562 21.078 0 13.469 6.6562 21.078 6.6719 7.625 18.438 7.625z"/>
</defs>
<g transform="translate(1.5377 127.32) scale(.1 -.1)">
<use xlink:href="#l"/>
<use x="75.195312" xlink:href="#h"/>
<use x="102.978516" xlink:href="#f"/>
<use x="166.357422" xlink:href="#n"/>
</g>
</g>
<g clip-path="url(#a)">
<defs>
<path id="p" d="m19.672 64.797v-56.688h11.922q15.094 0 22.094 6.8281 7 6.8438 7 21.594 0 14.641-7 21.453t-22.094 6.8125zm-9.8594 8.1094h20.266q21.188 0 31.094-8.8125 9.9219-8.8125 9.9219-27.562 0-18.859-9.9688-27.703-9.9531-8.8281-31.047-8.8281h-20.266z"/>
</defs>
<g transform="translate(53.279 127.32) scale(.1 -.1)">
<use xlink:href="#p"/>
<use x="77.001953" xlink:href="#b"/>
<use x="138.525391" xlink:href="#c"/>
<use x="199.804688" xlink:href="#g"/>
<use x="227.587891" xlink:href="#b"/>
<use x="289.111328" xlink:href="#d"/>
</g>
</g>
<g clip-path="url(#a)">
<defs>
<path id="t" d="m37.109 75.984v-7.4844h-8.5938q-4.8281 0-6.7188-1.9531-1.875-1.9531-1.875-7.0312v-4.8281h14.797v-6.9844h-14.797v-47.703h-9.0312v47.703h-8.5938v6.9844h8.5938v3.8125q0 9.125 4.25 13.297 4.25 4.1875 13.469 4.1875z"/>
</defs>
<g transform="translate(121.85 127.32) scale(.1 -.1)">
<use xlink:href="#n"/>
<use x="61.181641" xlink:href="#t"/>
</g>
</g>
<g clip-path="url(#a)">
<defs>
<path id="r" d="m18.312 70.219v-15.531h18.5v-6.9844h-18.5v-29.688q0-6.6875 1.8281-8.5938t7.4531-1.9062h9.2188v-7.5156h-9.2188q-10.406 0-14.359 3.875-3.9531 3.8906-3.9531 14.141v29.688h-6.5938v6.9844h6.5938v15.531z"/>
<path id="s" d="m54.891 33.016v-33.016h-8.9844v32.719q0 7.7656-3.0312 11.609-3.0312 3.8594-9.0781 3.8594-7.2812 0-11.484-4.6406-4.2031-4.625-4.2031-12.641v-30.906h-9.0312v75.984h9.0312v-29.797q3.2344 4.9375 7.5938 7.375 4.375 2.4375 10.094 2.4375 9.4219 0 14.25-5.8281 4.8438-5.8281 4.8438-17.156z"/>
</defs>
<g transform="translate(175.34 127.32) scale(.1 -.1)">
<use xlink:href="#r"/>
<use x="39.208984" xlink:href="#s"/>
<use x="102.587891" xlink:href="#b"/>
</g>
</g>
<g clip-path="url(#a)">
<defs>
<path id="o" d="m-0.20312 72.906h10.609l20.203-29.984 20.078 29.984h10.594l-25.781-38.188v-34.719h-9.9062v34.719z"/>
</defs>
<g transform="translate(229.18 127.32) scale(.1 -.1)">
<use xlink:href="#o"/>
<use x="60.880859" xlink:href="#b"/>
<use x="122.404297" xlink:href="#c"/>
<use x="183.683594" xlink:href="#d"/>
</g>
</g>
<g clip-path="url(#a)">
<defs>
<path id="k" d="m12.406 8.2969h16.109v55.625l-17.531-3.5156v8.9844l17.438 3.5156h9.8594v-64.609h16.109v-8.2969h-41.984z"/>
<path id="m" d="m10.688 12.406h10.312v-12.406h-10.312z"/>
</defs>
<g transform="translate(118.72 11.528) scale(.1 -.1)">
<use xlink:href="#k"/>
<use x="63.623047" xlink:href="#m"/>
<use x="95.410156" xlink:href="#k"/>
</g>
</g>
<g clip-path="url(#a)">
<defs>
<path id="q" d="m19.188 8.2969h34.422v-8.2969h-46.281v8.2969q5.6094 5.8125 15.297 15.594 9.7031 9.7969 12.188 12.641 4.7344 5.3125 6.6094 9 1.8906 3.6875 1.8906 7.25 0 5.8125-4.0781 9.4688-4.0781 3.6719-10.625 3.6719-4.6406 0-9.7969-1.6094-5.1406-1.6094-11-4.8906v9.9688q5.9531 2.3906 11.125 3.6094 5.1875 1.2188 9.4844 1.2188 11.328 0 18.062-5.6719 6.7344-5.6562 6.7344-15.125 0-4.5-1.6875-8.5312-1.6719-4.0156-6.125-9.4844-1.2188-1.4219-7.7656-8.1875-6.5312-6.7656-18.453-18.922z"/>
</defs>
<g transform="translate(118.72 69.426) scale(.1 -.1)">
<use xlink:href="#k"/>
<use x="63.623047" xlink:href="#m"/>
<use x="95.410156" xlink:href="#q"/>
</g>
</g>
<defs>
<clipPath id="a">
<rect width="253.33" height="133.33"/>
</clipPath>
</defs>
</svg>
