<?xml version="1.0" encoding="UTF-8"?>
<!DOCTYPE svg  PUBLIC '-//W3C//DTD SVG 1.1//EN'  'http://www.w3.org/Graphics/SVG/1.1/DTD/svg11.dtd'>
<svg width="1824pt" height="960pt" version="1.1" viewBox="0 0 1824 960" xmlns="http://www.w3.org/2000/svg" xmlns:xlink="http://www.w3.org/1999/xlink">
<defs>
<style type="text/css">*{stroke-linecap:butt;stroke-linejoin:round;}</style>
</defs>
<path d="m0 960h1824v-960h-1824z" fill="#fff"/>
<g fill="none" stroke="#000">
<path d="m1046.4 44.306-420.21 118.26" clip-path="url(#a)"/>
<path d="m1046.4 44.306 23.492 560.54" clip-path="url(#a)"/>
<path d="m1046.4 44.306 270.59 344.93" clip-path="url(#a)"/>
<path d="m1046.4 44.306 126.12 768.25" clip-path="url(#a)"/>
<path d="m626.19 162.57-495.75 649.99" clip-path="url(#a)"/>
<path d="m626.19 162.57-543.12 649.99" clip-path="url(#a)"/>
<path d="m626.19 162.57-385.35 114.88" clip-path="url(#a)"/>
<path d="m626.19 162.57 309.49 649.99" clip-path="url(#a)"/>
<path d="m626.19 162.57 1114.7 649.99" clip-path="url(#a)"/>
<path d="m130.44 812.55v103.14" clip-path="url(#a)"/>
<path d="m83.071 812.55v103.14" clip-path="url(#a)"/>
<path d="m240.84 277.45-157.77 535.11" clip-path="url(#a)" stroke-dasharray="3.7,1.6"/>
<path d="m240.84 277.45 31.697 535.11" clip-path="url(#a)"/>
<path d="m240.84 277.45-63.038 535.11" clip-path="url(#a)"/>
<path d="m240.84 277.45-15.671 535.11" clip-path="url(#a)"/>
<path d="m240.84 277.45 204.78 111.79" clip-path="url(#a)"/>
<path d="m272.54 812.55v103.14" clip-path="url(#a)"/>
<path d="m935.68 812.55v103.14" clip-path="url(#a)"/>
<path d="m1069.9 604.84 55.262 207.71" clip-path="url(#a)"/>
<path d="m1069.9 604.84-63.156 104.57" clip-path="url(#a)"/>
<path d="m1069.9 604.84 7.8946 207.71" clip-path="url(#a)"/>
<path d="m1125.2 812.55v103.14" clip-path="url(#a)"/>
<path d="m1317 389.24-49.736 423.32" clip-path="url(#a)"/>
<path d="m1317 389.24-97.103 423.32" clip-path="url(#a)"/>
<path d="m1317 389.24 146.84 109.02" clip-path="url(#a)"/>
<path d="m1267.3 812.55v103.14" clip-path="url(#a)"/>
<path d="m1740.9 812.55v103.14" clip-path="url(#a)"/>
<path d="m177.81 812.55v103.14" clip-path="url(#a)"/>
<path d="m225.17 812.55v103.14" clip-path="url(#a)"/>
<path d="m445.63 389.24 16.381 423.32" clip-path="url(#a)"/>
<path d="m445.63 389.24-125.72 423.32" clip-path="url(#a)"/>
<path d="m445.63 389.24-78.354 423.32" clip-path="url(#a)"/>
<path d="m445.63 389.24-7.3025 320.18" clip-path="url(#a)"/>
<path d="m445.63 389.24 195 109.02" clip-path="url(#a)"/>
<path d="m462.01 812.55v103.14" clip-path="url(#a)"/>
<path d="m1006.7 709.42 23.684 103.14" clip-path="url(#a)"/>
<path d="m1006.7 709.42-23.684 103.14" clip-path="url(#a)"/>
<path d="m1030.4 812.55v103.14" clip-path="url(#a)"/>
<path d="m1077.8 812.55v103.14" clip-path="url(#a)"/>
<path d="m1172.5 812.55v103.14" clip-path="url(#a)"/>
<path d="m1219.9 812.55v103.14" clip-path="url(#a)"/>
<path d="m1463.8 498.25-7.1051 314.3" clip-path="url(#a)"/>
<path d="m1463.8 498.25-149.21 314.3" clip-path="url(#a)"/>
<path d="m1463.8 498.25-54.472 211.16" clip-path="url(#a)"/>
<path d="m1463.8 498.25 40.262 314.3" clip-path="url(#a)"/>
<path d="m1463.8 498.25 170.52 106.59" clip-path="url(#a)"/>
<path d="m1456.7 812.55v103.14" clip-path="url(#a)"/>
<path d="m319.91 812.55v103.14" clip-path="url(#a)"/>
<path d="m367.28 812.55v103.14" clip-path="url(#a)"/>
<path d="m438.33 709.42 23.684 103.14" clip-path="url(#a)" stroke-dasharray="3.7,1.6"/>
<path d="m438.33 709.42-23.684 103.14" clip-path="url(#a)"/>
<path d="m414.64 812.55v103.14" clip-path="url(#a)"/>
<path d="m640.62 498.25-131.25 314.3" clip-path="url(#a)"/>
<path d="m640.62 498.25-83.88 314.3" clip-path="url(#a)"/>
<path d="m640.62 498.25-36.512 314.3" clip-path="url(#a)"/>
<path d="m640.62 498.25 10.855 314.3" clip-path="url(#a)"/>
<path d="m640.62 498.25 58.222 314.3" clip-path="url(#a)"/>
<path d="m640.62 498.25 182.56 106.59" clip-path="url(#a)"/>
<path d="m509.38 812.55v103.14" clip-path="url(#a)"/>
<path d="m983.05 812.55v103.14" clip-path="url(#a)"/>
<path d="m1314.6 812.55v103.14" clip-path="url(#a)"/>
<path d="m1409.4 709.42 47.367 103.14" clip-path="url(#a)" stroke-dasharray="3.7,1.6"/>
<path d="m1409.4 709.42v103.14" clip-path="url(#a)"/>
<path d="m1409.4 709.42-47.367 103.14" clip-path="url(#a)"/>
<path d="m1409.4 812.55v103.14" clip-path="url(#a)"/>
<path d="m1504.1 812.55v103.14" clip-path="url(#a)"/>
<path d="m1634.4 604.84 59.209 207.71" clip-path="url(#a)"/>
<path d="m1634.4 604.84-82.893 207.71" clip-path="url(#a)"/>
<path d="m1634.4 604.84 11.842 104.57" clip-path="url(#a)"/>
<path d="m1634.4 604.84 11.842 207.71" clip-path="url(#a)"/>
<path d="m1693.6 812.55v103.14" clip-path="url(#a)"/>
<path d="m556.74 812.55v103.14" clip-path="url(#a)"/>
<path d="m604.11 812.55v103.14" clip-path="url(#a)"/>
<path d="m651.48 812.55v103.14" clip-path="url(#a)"/>
<path d="m698.85 812.55v103.14" clip-path="url(#a)"/>
<path d="m823.19 604.84 65.13 207.71" clip-path="url(#a)"/>
<path d="m823.19 604.84-76.972 207.71" clip-path="url(#a)"/>
<path d="m823.19 604.84-29.605 207.71" clip-path="url(#a)"/>
<path d="m823.19 604.84 41.446 104.57" clip-path="url(#a)"/>
<path d="m888.32 812.55v103.14" clip-path="url(#a)"/>
<path d="m1362 812.55v103.14" clip-path="url(#a)"/>
<path d="m1551.5 812.55v103.14" clip-path="url(#a)"/>
<path d="m1646.2 709.42 47.367 103.14" clip-path="url(#a)" stroke-dasharray="3.7,1.6"/>
<path d="m1646.2 709.42-47.367 103.14" clip-path="url(#a)"/>
<path d="m1598.8 812.55v103.14" clip-path="url(#a)"/>
<path d="m1646.2 812.55v103.14" clip-path="url(#a)"/>
<path d="m746.21 812.55v103.14" clip-path="url(#a)"/>
<path d="m793.58 812.55v103.14" clip-path="url(#a)"/>
<path d="m864.63 709.42 23.684 103.14" clip-path="url(#a)" stroke-dasharray="3.7,1.6"/>
<path d="m864.63 709.42-23.684 103.14" clip-path="url(#a)"/>
<path d="m840.95 812.55v103.14" clip-path="url(#a)"/>
</g>
<path d="m835.1 110.29 5.7913-1.6299q2.3102-0.65019 1.6601-2.9604l-2.0976-7.453q-0.65019-2.3102-2.9604-1.6601l-5.7913 1.6299q-2.3102 0.65019-1.6601 2.9604l2.0976 7.453q0.65019 2.3102 2.9604 1.6601z" clip-path="url(#a)" fill="#fff" stroke="#fff"/>
<g clip-path="url(#a)">
<defs>
<path id="aj" d="m9.8125 72.906h9.8594v-29.891h35.844v29.891h9.8594v-72.906h-9.8594v34.719h-35.844v-34.719h-9.8594z"/>
</defs>
<g transform="translate(834 106.38) rotate(-15.719) scale(.08 -.08)">
<use xlink:href="#aj"/>
</g>
</g>
<path d="m1051.8 321.83 0.25192 6.011q0.1005 2.3979 2.4984 2.2974l7.7357-0.32421q2.3979-0.1005 2.2974-2.4984l-0.25192-6.011q-0.1005-2.3979-2.4984-2.2974l-7.7357 0.32421q-2.3979 0.1005-2.2974 2.4984z" clip-path="url(#a)" fill="#fff" stroke="#fff"/>
<g clip-path="url(#a)">
<g transform="translate(1055.8 321.66) rotate(87.6) scale(.08 -.08)">
<use xlink:href="#aj"/>
</g>
</g>
<path d="m1174.9 218.28 3.7134 4.7335q1.4813 1.8883 3.3696 0.40697l6.0917-4.7788q1.8883-1.4813 0.40697-3.3696l-3.7134-4.7335q-1.4813-1.8883-3.3696-0.40697l-6.0917 4.7788q-1.8883 1.4813-0.40697 3.3696z" clip-path="url(#a)" fill="#fff" stroke="#fff"/>
<g clip-path="url(#a)">
<g transform="translate(1178.1 215.77) rotate(51.887) scale(.08 -.08)">
<use xlink:href="#aj"/>
</g>
</g>
<path d="m1102.9 427.25 0.72211 4.3986q0.3888 2.3683 2.7571 1.9795l7.6402-1.2543q2.3683-0.3888 1.9795-2.7571l-0.72211-4.3986q-0.3888-2.3683-2.7571-1.9795l-7.6402 1.2543q-2.3683 0.3888-1.9795 2.7571z" clip-path="url(#a)" fill="#fff" stroke="#fff"/>
<g clip-path="url(#a)">
<defs>
<path id="aq" d="m9.8125 72.906h9.8594v-64.609h35.5v-8.2969h-45.359z"/>
</defs>
<g transform="translate(1106.9 426.59) rotate(80.677) scale(.08 -.08)">
<use xlink:href="#aq"/>
</g>
</g>
<path d="m381.84 493.28 2.9254-3.8355q1.4555-1.9083-0.45281-3.3638l-6.1562-4.6954q-1.9083-1.4555-3.3638 0.45281l-2.9254 3.8355q-1.4555 1.9083 0.45281 3.3638l6.1562 4.6954q1.9083 1.4555 3.3638-0.45281z" clip-path="url(#a)" fill="#fff" stroke="#fff"/>
<g clip-path="url(#a)">
<defs>
<path id="ai" d="m19.672 64.797v-27.391h12.406q6.8906 0 10.641 3.5625 3.7656 3.5625 3.7656 10.156 0 6.5469-3.7656 10.109-3.75 3.5625-10.641 3.5625zm-9.8594 8.1094h22.266q12.266 0 18.531-5.5469 6.2812-5.5469 6.2812-16.234 0-10.797-6.2812-16.312-6.2656-5.5156-18.531-5.5156h-12.406v-29.297h-9.8594z"/>
</defs>
<g transform="translate(378.61 490.82) rotate(-52.667) scale(.08 -.08)">
<use xlink:href="#ai"/>
</g>
</g>
<path d="m357.69 493.68 3.509-4.1994q1.5389-1.8417-0.30279-3.3806l-5.9414-4.9645q-1.8417-1.5389-3.3806 0.30279l-3.509 4.1994q-1.5389 1.8417 0.30279 3.3806l5.9414 4.9645q1.8417 1.5389 3.3806-0.30279z" clip-path="url(#a)" fill="#fff" stroke="#fff"/>
<g clip-path="url(#a)">
<defs>
<path id="r" d="m34.188 63.188-13.391-36.281h26.812zm-5.5781 9.7188h11.188l27.781-72.906h-10.25l-6.6406 18.703h-32.859l-6.6406-18.703h-10.406z"/>
</defs>
<g transform="translate(354.57 491.08) rotate(-50.118) scale(.08 -.08)">
<use xlink:href="#r"/>
</g>
</g>
<path d="m432.29 226.92 6.035-1.7991q2.3-0.68566 1.6143-2.9856l-2.212-7.4198q-0.68566-2.3-2.9856-1.6143l-6.035 1.7991q-2.3 0.68566-1.6143 2.9856l2.212 7.4198q0.68566 2.3 2.9856 1.6143z" clip-path="url(#a)" fill="#fff" stroke="#fff"/>
<g clip-path="url(#a)">
<defs>
<path id="ao" d="m39.406 66.219q-10.75 0-17.078-8.0156-6.3125-8-6.3125-21.828 0-13.766 6.3125-21.781 6.3281-8 17.078-8 10.734 0 17.016 8 6.2812 8.0156 6.2812 21.781 0 13.828-6.2812 21.828-6.2812 8.0156-17.016 8.0156zm13.812-64.906 13-14.203h-11.922l-10.797 11.672q-1.6094-0.09375-2.4688-0.14062-0.84375-0.0625-1.625-0.0625-15.375 0-24.594 10.281-9.2031 10.281-9.2031 27.516 0 17.281 9.2031 27.562 9.2188 10.281 24.594 10.281 15.328 0 24.5-10.281 9.1875-10.281 9.1875-27.562 0-12.688-5.1094-21.734-5.0938-9.0312-14.766-13.328z"/>
</defs>
<g transform="translate(431.13 223.02) rotate(-16.6) scale(.08 -.08)">
<use xlink:href="#ao"/>
</g>
</g>
<path d="m774.02 487.61 2.5171 5.2863q1.0318 2.1669 3.1987 1.1351l6.9905-3.3285q2.1669-1.0318 1.1351-3.1987l-2.5171-5.2863q-1.0318-2.1669-3.1987-1.1351l-6.9905 3.3285q-2.1669 1.0318-1.1351 3.1987z" clip-path="url(#a)" fill="#fff" stroke="#fff"/>
<g clip-path="url(#a)">
<defs>
<path id="al" d="m8.6875 72.906h9.9219v-44.297q0-11.719 4.2344-16.875 4.25-5.1406 13.781-5.1406 9.4688 0 13.719 5.1406 4.25 5.1562 4.25 16.875v44.297h9.9062v-45.516q0-14.25-7.0625-21.531-7.0469-7.2812-20.812-7.2812-13.828 0-20.891 7.2812-7.0469 7.2812-7.0469 21.531z"/>
</defs>
<g transform="translate(777.69 485.87) rotate(64.539) scale(.08 -.08)">
<use xlink:href="#al"/>
</g>
</g>
<path d="m1177.9 491.5 5.058 2.9492q2.0733 1.2089 3.2822-0.86439l3.9-6.6885q1.2089-2.0733-0.86439-3.2822l-5.058-2.9492q-2.0733-1.2089-3.2822 0.86439l-3.9 6.6885q-1.2089 2.0733 0.86439 3.2822z" clip-path="url(#a)" fill="#fff" stroke="#fff"/>
<g clip-path="url(#a)">
<g transform="translate(1179.9 487.99) rotate(30.246) scale(.08 -.08)">
<use xlink:href="#al"/>
</g>
</g>
<path d="m124.17 846.48v35.285q0 2.4 2.4 2.4h7.7425q2.4 0 2.4-2.4v-35.285q0-2.4-2.4-2.4h-7.7425q-2.4 0-2.4 2.4z" clip-path="url(#a)" fill="#fff" stroke="#fff"/>
<g clip-path="url(#a)">
<defs>
<path id="k" d="m-0.29688 72.906h61.672v-8.3125h-25.875v-64.594h-9.9062v64.594h-25.891z"/>
<path id="d" d="m56.203 29.594v-4.3906h-41.312q0.59375-9.2812 5.5938-14.141t13.938-4.8594q5.1719 0 10.031 1.2656t9.6562 3.8125v-8.5q-4.8438-2.0469-9.9219-3.125t-10.297-1.0781q-13.094 0-20.734 7.6094-7.6406 7.625-7.6406 20.625 0 13.422 7.25 21.297 7.25 7.8906 19.562 7.8906 11.031 0 17.453-7.1094 6.4219-7.0938 6.4219-19.297zm-8.9844 2.6406q-0.09375 7.3594-4.125 11.75-4.0312 4.4062-10.672 4.4062-7.5156 0-12.031-4.25t-5.2031-11.969z"/>
<path id="j" d="m41.109 46.297q-1.5156 0.875-3.2969 1.2812-1.7812 0.42188-3.9219 0.42188-7.625 0-11.703-4.9531t-4.0781-14.234v-28.812h-9.0312v54.688h9.0312v-8.5q2.8438 4.9844 7.375 7.3906 4.5469 2.4219 11.047 2.4219 0.92188 0 2.0469-0.125 1.125-0.10938 2.4844-0.35938z"/>
<path id="l" d="m52 44.188q3.375 6.0625 8.0625 8.9375t11.031 2.875q8.5469 0 13.188-5.9844 4.6406-5.9688 4.6406-17v-33.016h-9.0312v32.719q0 7.8594-2.7969 11.656-2.7812 3.8125-8.4844 3.8125-6.9844 0-11.047-4.6406-4.0469-4.625-4.0469-12.641v-30.906h-9.0312v32.719q0 7.9062-2.7812 11.688t-8.5938 3.7812q-6.8906 0-10.953-4.6562-4.0469-4.6562-4.0469-12.625v-30.906h-9.0312v54.688h9.0312v-8.5q3.0781 5.0312 7.375 7.4219t10.203 2.3906q5.9688 0 10.141-3.0312 4.1719-3.0156 6.1719-8.7812z"/>
<path id="h" d="m9.4219 54.688h8.9844v-54.688h-8.9844zm0 21.297h8.9844v-11.391h-8.9844z"/>
<path id="g" d="m54.891 33.016v-33.016h-8.9844v32.719q0 7.7656-3.0312 11.609-3.0312 3.8594-9.0781 3.8594-7.2812 0-11.484-4.6406-4.2031-4.625-4.2031-12.641v-30.906h-9.0312v54.688h9.0312v-8.5q3.2344 4.9375 7.5938 7.375 4.375 2.4375 10.094 2.4375 9.4219 0 14.25-5.8281 4.8438-5.8281 4.8438-17.156z"/>
<path id="f" d="m34.281 27.484q-10.891 0-15.094-2.4844t-4.2031-8.5q0-4.7812 3.1562-7.5938 3.1562-2.7969 8.5625-2.7969 7.4844 0 12 5.2969t4.5156 14.078v2zm17.922 3.7188v-31.203h-8.9844v8.2969q-3.0781-4.9688-7.6719-7.3438t-11.234-2.375q-8.3906 0-13.359 4.7188-4.9531 4.7188-4.9531 12.625 0 9.2188 6.1719 13.906 6.1875 4.6875 18.438 4.6875h12.609v0.89062q0 6.2031-4.0781 9.5938t-11.453 3.3906q-4.6875 0-9.1406-1.125-4.4375-1.125-8.5312-3.375v8.3125q4.9219 1.9062 9.5625 2.8438 4.6406 0.95312 9.0312 0.95312 11.875 0 17.734-6.1562 5.8594-6.1406 5.8594-18.641z"/>
<path id="i" d="m9.4219 75.984h8.9844v-75.984h-8.9844z"/>
</defs>
<g transform="translate(128.23 846.48) rotate(90) scale(.08 -.08)">
<use xlink:href="#k"/>
<use x="60.818359" xlink:href="#d"/>
<use x="122.341797" xlink:href="#j"/>
<use x="163.439453" xlink:href="#l"/>
<use x="260.851562" xlink:href="#h"/>
<use x="288.634766" xlink:href="#g"/>
<use x="352.013672" xlink:href="#f"/>
<use x="413.292969" xlink:href="#i"/>
</g>
</g>
<path d="m76.8 846.48v35.285q0 2.4 2.4 2.4h7.7425q2.4 0 2.4-2.4v-35.285q0-2.4-2.4-2.4h-7.7425q-2.4 0-2.4 2.4z" clip-path="url(#a)" fill="#fff" stroke="#fff"/>
<g clip-path="url(#a)">
<g transform="translate(80.864 846.48) rotate(90) scale(.08 -.08)">
<use xlink:href="#k"/>
<use x="60.818359" xlink:href="#d"/>
<use x="122.341797" xlink:href="#j"/>
<use x="163.439453" xlink:href="#l"/>
<use x="260.851562" xlink:href="#h"/>
<use x="288.634766" xlink:href="#g"/>
<use x="352.013672" xlink:href="#f"/>
<use x="413.292969" xlink:href="#i"/>
</g>
</g>
<path d="m167.2 549.4 1.5477-5.2491q0.67874-2.302-1.6233-2.9808l-7.4264-2.1896q-2.302-0.67874-2.9808 1.6233l-1.5477 5.2491q-0.67874 2.302 1.6233 2.9808l7.4264 2.1896q2.302 0.67874 2.9808-1.6233z" clip-path="url(#a)" fill="#fff" stroke="#fff"/>
<g clip-path="url(#a)">
<g transform="translate(163.3 548.25) rotate(-73.572) scale(.08 -.08)">
<use xlink:href="#r"/>
</g>
</g>
<path d="m250.29 542.96 0.28523 4.8153q0.14191 2.3958 2.5377 2.2539l7.729-0.45782q2.3958-0.14191 2.2539-2.5377l-0.28523-4.8153q-0.14191-2.3958-2.5377-2.2539l-7.729 0.45782q-2.3958 0.14191-2.2539 2.5377z" clip-path="url(#a)" fill="#fff" stroke="#fff"/>
<g clip-path="url(#a)">
<g transform="translate(254.35 542.72) rotate(86.61) scale(.08 -.08)">
<use xlink:href="#ai"/>
</g>
</g>
<path d="m215.23 548.49 0.65035-5.5206q0.28079-2.3835-2.1027-2.6643l-7.6893-0.90584q-2.3835-0.28079-2.6643 2.1027l-0.65035 5.5206q-0.28079 2.3835 2.1027 2.6643l7.6893 0.90584q2.3835 0.28079 2.6643-2.1027z" clip-path="url(#a)" fill="#fff" stroke="#fff"/>
<g clip-path="url(#a)">
<defs>
<path id="ag" d="m44.391 34.188q3.1719-1.0781 6.1719-4.5938t6.0312-9.6719l10.016-19.922h-10.609l-9.3125 18.703q-3.625 7.3281-7.0156 9.7188t-9.25 2.3906h-10.75v-30.812h-9.8594v72.906h22.266q12.5 0 18.656-5.2344 6.1562-5.2188 6.1562-15.766 0-6.8906-3.2031-11.438-3.2031-4.5312-9.2969-6.2812zm-24.719 30.609v-25.875h12.406q7.125 0 10.766 3.2969t3.6406 9.6875-3.6406 9.6406-10.766 3.25z"/>
</defs>
<g transform="translate(211.19 548.02) rotate(-83.281) scale(.08 -.08)">
<use xlink:href="#ag"/>
</g>
</g>
<path d="m239.21 547.48 0.13469-4.5993q0.070254-2.399-2.3287-2.4692l-7.7392-0.22664q-2.399-0.070255-2.4692 2.3287l-0.13469 4.5993q-0.070254 2.399 2.3287 2.4692l7.7392 0.22664q2.399 0.070254 2.4692-2.3287z" clip-path="url(#a)" fill="#fff" stroke="#fff"/>
<g clip-path="url(#a)">
<defs>
<path id="q" d="m9.8125 72.906h41.891v-8.3125h-32.031v-21.484h28.906v-8.2969h-28.906v-34.812h-9.8594z"/>
</defs>
<g transform="translate(235.15 547.37) rotate(-88.323) scale(.08 -.08)">
<use xlink:href="#q"/>
</g>
</g>
<path d="m338.01 337.64 4.4369 2.4221q2.1066 1.15 3.2565-0.9566l3.7098-6.7958q1.15-2.1066-0.9566-3.2565l-4.4369-2.4221q-2.1066-1.15-3.2565 0.9566l-3.7098 6.7958q-1.15 2.1066 0.9566 3.2565z" clip-path="url(#a)" fill="#fff" stroke="#fff"/>
<g clip-path="url(#a)">
<defs>
<path id="s" d="m9.8125 72.906h46.094v-8.3125h-36.234v-21.578h34.719v-8.2969h-34.719v-26.422h37.109v-8.2969h-46.969z"/>
</defs>
<g transform="translate(339.96 334.07) rotate(28.63) scale(.08 -.08)">
<use xlink:href="#s"/>
</g>
</g>
<path d="m266.27 846.48v35.285q0 2.4 2.4 2.4h7.7425q2.4 0 2.4-2.4v-35.285q0-2.4-2.4-2.4h-7.7425q-2.4 0-2.4 2.4z" clip-path="url(#a)" fill="#fff" stroke="#fff"/>
<g clip-path="url(#a)">
<g transform="translate(270.33 846.48) rotate(90) scale(.08 -.08)">
<use xlink:href="#k"/>
<use x="60.818359" xlink:href="#d"/>
<use x="122.341797" xlink:href="#j"/>
<use x="163.439453" xlink:href="#l"/>
<use x="260.851562" xlink:href="#h"/>
<use x="288.634766" xlink:href="#g"/>
<use x="352.013672" xlink:href="#f"/>
<use x="413.292969" xlink:href="#i"/>
</g>
</g>
<path d="m929.41 846.48v35.285q0 2.4 2.4 2.4h7.7425q2.4 0 2.4-2.4v-35.285q0-2.4-2.4-2.4h-7.7425q-2.4 0-2.4 2.4z" clip-path="url(#a)" fill="#fff" stroke="#fff"/>
<g clip-path="url(#a)">
<g transform="translate(933.48 846.48) rotate(90) scale(.08 -.08)">
<use xlink:href="#k"/>
<use x="60.818359" xlink:href="#d"/>
<use x="122.341797" xlink:href="#j"/>
<use x="163.439453" xlink:href="#l"/>
<use x="260.851562" xlink:href="#h"/>
<use x="288.634766" xlink:href="#g"/>
<use x="352.013672" xlink:href="#f"/>
<use x="413.292969" xlink:href="#i"/>
</g>
</g>
<path d="m1090.8 707.86 1.3058 4.908q0.61705 2.3193 2.9364 1.7023l7.4822-1.9906q2.3193-0.61705 1.7023-2.9364l-1.3058-4.908q-0.61706-2.3193-2.9364-1.7023l-7.4822 1.9906q-2.3193 0.61705-1.7023 2.9364z" clip-path="url(#a)" fill="#fff" stroke="#fff"/>
<g clip-path="url(#a)">
<defs>
<path id="v" d="m53.516 70.516v-9.625q-5.6094 2.6875-10.594 4-4.9844 1.3281-9.625 1.3281-8.0469 0-12.422-3.125t-4.375-8.8906q0-4.8438 2.9062-7.3125 2.9062-2.4531 11.016-3.9688l5.9531-1.2188q11.031-2.1094 16.281-7.4062t5.25-14.172q0-10.609-7.1094-16.078-7.0938-5.4688-20.812-5.4688-5.1719 0-11.016 1.1719-5.8281 1.1719-12.078 3.4688v10.156q6-3.3594 11.766-5.0781 5.7656-1.7031 11.328-1.7031 8.4375 0 13.031 3.3125 4.5938 3.3281 4.5938 9.4844 0 5.3594-3.2969 8.3906t-10.812 4.5469l-6.0156 1.1719q-11.031 2.1875-15.969 6.875-4.9219 4.6875-4.9219 13.047 0 9.6719 6.8125 15.234t18.766 5.5625q5.1406 0 10.453-0.9375 5.3281-0.92188 10.891-2.7656z"/>
</defs>
<g transform="translate(1094.7 706.81) rotate(75.102) scale(.08 -.08)">
<use xlink:href="#v"/>
</g>
</g>
<path d="m1042.3 662.71 2.8291-4.6845q1.2407-2.0544-0.81366-3.2951l-6.6276-4.0027q-2.0544-1.2407-3.2951 0.81366l-2.8291 4.6845q-1.2407 2.0544 0.81366 3.2951l6.6276 4.0027q2.0544 1.2407 3.2951-0.81366z" clip-path="url(#a)" fill="#fff" stroke="#fff"/>
<g clip-path="url(#a)">
<g transform="translate(1038.8 660.61) rotate(-58.87) scale(.08 -.08)">
<use xlink:href="#r"/>
</g>
</g>
<path d="m1067.5 706.64 0.17475 4.5979q0.091151 2.3983 2.4894 2.3071l7.7369-0.29406q2.3983-0.091151 2.3071-2.4894l-0.17475-4.5979q-0.091151-2.3983-2.4894-2.3071l-7.7369 0.29406q-2.3983 0.091151-2.3071 2.4894z" clip-path="url(#a)" fill="#fff" stroke="#fff"/>
<g clip-path="url(#a)">
<g transform="translate(1071.5 706.48) rotate(87.823) scale(.08 -.08)">
<use xlink:href="#q"/>
</g>
</g>
<path d="m1118.9 846.48v35.285q0 2.4 2.4 2.4h7.7425q2.4 0 2.4-2.4v-35.285q0-2.4-2.4-2.4h-7.7425q-2.4 0-2.4 2.4z" clip-path="url(#a)" fill="#fff" stroke="#fff"/>
<g clip-path="url(#a)">
<g transform="translate(1122.9 846.48) rotate(90) scale(.08 -.08)">
<use xlink:href="#k"/>
<use x="60.818359" xlink:href="#d"/>
<use x="122.341797" xlink:href="#j"/>
<use x="163.439453" xlink:href="#l"/>
<use x="260.851562" xlink:href="#h"/>
<use x="288.634766" xlink:href="#g"/>
<use x="352.013672" xlink:href="#f"/>
<use x="413.292969" xlink:href="#i"/>
</g>
</g>
<path d="m1298.1 604.15 0.59263-5.0441q0.28005-2.3836-2.1036-2.6637l-7.6896-0.90346q-2.3836-0.28005-2.6637 2.1036l-0.59263 5.0441q-0.28005 2.3836 2.1036 2.6637l7.6896 0.90346q2.3836 0.28005 2.6637-2.1036z" clip-path="url(#a)" fill="#fff" stroke="#fff"/>
<g clip-path="url(#a)">
<g transform="translate(1294 603.68) rotate(-83.299) scale(.08 -.08)">
<use xlink:href="#v"/>
</g>
</g>
<path d="m1273.9 604.97 1.2235-5.334q0.53659-2.3392-1.8027-2.8758l-7.5465-1.7311q-2.3392-0.53659-2.8758 1.8027l-1.2235 5.334q-0.53659 2.3392 1.8027 2.8758l7.5465 1.7311q2.3392 0.53659 2.8758-1.8027z" clip-path="url(#a)" fill="#fff" stroke="#fff"/>
<g clip-path="url(#a)">
<g transform="translate(1270 604.06) rotate(-77.081) scale(.08 -.08)">
<use xlink:href="#r"/>
</g>
</g>
<path d="m1384.5 447.15 4.3939 3.2621q1.927 1.4306 3.3576-0.49635l4.6153-6.2165q1.4306-1.927-0.49635-3.3576l-4.3939-3.2621q-1.927-1.4306-3.3576 0.49635l-4.6153 6.2165q-1.4306 1.927 0.49635 3.3576z" clip-path="url(#a)" fill="#fff" stroke="#fff"/>
<g clip-path="url(#a)">
<g transform="translate(1386.9 443.89) rotate(36.591) scale(.08 -.08)">
<use xlink:href="#r"/>
</g>
</g>
<path d="m1261 846.48v35.285q0 2.4 2.4 2.4h7.7425q2.4 0 2.4-2.4v-35.285q0-2.4-2.4-2.4h-7.7425q-2.4 0-2.4 2.4z" clip-path="url(#a)" fill="#fff" stroke="#fff"/>
<g clip-path="url(#a)">
<g transform="translate(1265 846.48) rotate(90) scale(.08 -.08)">
<use xlink:href="#k"/>
<use x="60.818359" xlink:href="#d"/>
<use x="122.341797" xlink:href="#j"/>
<use x="163.439453" xlink:href="#l"/>
<use x="260.851562" xlink:href="#h"/>
<use x="288.634766" xlink:href="#g"/>
<use x="352.013672" xlink:href="#f"/>
<use x="413.292969" xlink:href="#i"/>
</g>
</g>
<path d="m1734.7 846.48v35.285q0 2.4 2.4 2.4h7.7425q2.4 0 2.4-2.4v-35.285q0-2.4-2.4-2.4h-7.7425q-2.4 0-2.4 2.4z" clip-path="url(#a)" fill="#fff" stroke="#fff"/>
<g clip-path="url(#a)">
<g transform="translate(1738.7 846.48) rotate(90) scale(.08 -.08)">
<use xlink:href="#k"/>
<use x="60.818359" xlink:href="#d"/>
<use x="122.341797" xlink:href="#j"/>
<use x="163.439453" xlink:href="#l"/>
<use x="260.851562" xlink:href="#h"/>
<use x="288.634766" xlink:href="#g"/>
<use x="352.013672" xlink:href="#f"/>
<use x="413.292969" xlink:href="#i"/>
</g>
</g>
<path d="m171.53 846.48v35.285q0 2.4 2.4 2.4h7.7425q2.4 0 2.4-2.4v-35.285q0-2.4-2.4-2.4h-7.7425q-2.4 0-2.4 2.4z" clip-path="url(#a)" fill="#fff" stroke="#fff"/>
<g clip-path="url(#a)">
<g transform="translate(175.6 846.48) rotate(90) scale(.08 -.08)">
<use xlink:href="#k"/>
<use x="60.818359" xlink:href="#d"/>
<use x="122.341797" xlink:href="#j"/>
<use x="163.439453" xlink:href="#l"/>
<use x="260.851562" xlink:href="#h"/>
<use x="288.634766" xlink:href="#g"/>
<use x="352.013672" xlink:href="#f"/>
<use x="413.292969" xlink:href="#i"/>
</g>
</g>
<path d="m218.9 846.48v35.285q0 2.4 2.4 2.4h7.7425q2.4 0 2.4-2.4v-35.285q0-2.4-2.4-2.4h-7.7425q-2.4 0-2.4 2.4z" clip-path="url(#a)" fill="#fff" stroke="#fff"/>
<g clip-path="url(#a)">
<g transform="translate(222.97 846.48) rotate(90) scale(.08 -.08)">
<use xlink:href="#k"/>
<use x="60.818359" xlink:href="#d"/>
<use x="122.341797" xlink:href="#j"/>
<use x="163.439453" xlink:href="#l"/>
<use x="260.851562" xlink:href="#h"/>
<use x="288.634766" xlink:href="#g"/>
<use x="352.013672" xlink:href="#f"/>
<use x="413.292969" xlink:href="#i"/>
</g>
</g>
<path d="m447.44 598.35 0.21601 5.5821q0.092804 2.3982 2.491 2.3054l7.7367-0.29939q2.3982-0.092805 2.3054-2.491l-0.21601-5.5821q-0.092804-2.3982-2.491-2.3054l-7.7367 0.29939q-2.3982 0.092805-2.3054 2.491z" clip-path="url(#a)" fill="#fff" stroke="#fff"/>
<g clip-path="url(#a)">
<defs>
<path id="w" d="m64.406 67.281v-10.391q-4.9844 4.6406-10.625 6.9219-5.6406 2.2969-11.984 2.2969-12.5 0-19.141-7.6406t-6.6406-22.094q0-14.406 6.6406-22.047t19.141-7.6406q6.3438 0 11.984 2.2969t10.625 6.9375v-10.312q-5.1719-3.5156-10.969-5.2812-5.7812-1.75-12.219-1.75-16.562 0-26.094 10.125-9.5156 10.141-9.5156 27.672 0 17.578 9.5156 27.703 9.5312 10.141 26.094 10.141 6.5312 0 12.312-1.7344 5.7969-1.7344 10.875-5.2031z"/>
</defs>
<g transform="translate(451.51 598.19) rotate(87.784) scale(.08 -.08)">
<use xlink:href="#w"/>
</g>
</g>
<path d="m387.99 605.35 1.5826-5.3287q0.68328-2.3007-1.6174-2.984l-7.4221-2.2043q-2.3007-0.68328-2.984 1.6174l-1.5826 5.3287q-0.68328 2.3007 1.6174 2.984l7.4221 2.2043q2.3007 0.68328 2.984-1.6174z" clip-path="url(#a)" fill="#fff" stroke="#fff"/>
<g clip-path="url(#a)">
<g transform="translate(384.09 604.19) rotate(-73.459) scale(.08 -.08)">
<use xlink:href="#ag"/>
</g>
</g>
<path d="m412.2 604.3 0.83744-4.5244q0.43681-2.3599-1.9231-2.7967l-7.6132-1.4092q-2.3599-0.43681-2.7967 1.9231l-0.83744 4.5244q-0.43681 2.3599 1.9231 2.7967l7.6132 1.4092q2.3599 0.43681 2.7967-1.9231z" clip-path="url(#a)" fill="#fff" stroke="#fff"/>
<g clip-path="url(#a)">
<g transform="translate(408.2 603.56) rotate(-79.514) scale(.08 -.08)">
<use xlink:href="#q"/>
</g>
</g>
<path d="m448.19 552 0.11526-5.0537q0.054724-2.3994-2.3447-2.4541l-7.7405-0.17654q-2.3994-0.054724-2.4541 2.3447l-0.11526 5.0537q-0.054724 2.3994 2.3447 2.4541l7.7405 0.17654q2.3994 0.054724 2.4541-2.3447z" clip-path="url(#a)" fill="#fff" stroke="#fff"/>
<g clip-path="url(#a)">
<g transform="translate(444.13 551.9) rotate(-88.693) scale(.08 -.08)">
<use xlink:href="#s"/>
</g>
</g>
<path d="m537.86 447.99 4.4123 2.4668q2.0948 1.1712 3.266-0.92368l3.7782-6.7581q1.1712-2.0948-0.92368-3.266l-4.4123-2.4668q-2.0948-1.1712-3.266 0.92368l-3.7782 6.7581q-1.1712 2.0948 0.92368 3.266z" clip-path="url(#a)" fill="#fff" stroke="#fff"/>
<g clip-path="url(#a)">
<g transform="translate(539.84 444.44) rotate(29.208) scale(.08 -.08)">
<use xlink:href="#s"/>
</g>
</g>
<path d="m455.74 846.48v35.285q0 2.4 2.4 2.4h7.7425q2.4 0 2.4-2.4v-35.285q0-2.4-2.4-2.4h-7.7425q-2.4 0-2.4 2.4z" clip-path="url(#a)" fill="#fff" stroke="#fff"/>
<g clip-path="url(#a)">
<g transform="translate(459.8 846.48) rotate(90) scale(.08 -.08)">
<use xlink:href="#k"/>
<use x="60.818359" xlink:href="#d"/>
<use x="122.341797" xlink:href="#j"/>
<use x="163.439453" xlink:href="#l"/>
<use x="260.851562" xlink:href="#h"/>
<use x="288.634766" xlink:href="#g"/>
<use x="352.013672" xlink:href="#f"/>
<use x="413.292969" xlink:href="#i"/>
</g>
</g>
<path d="m1011.8 759.67 1.2502 5.4446q0.53713 2.3391 2.8763 1.802l7.5461-1.7328q2.3391-0.53713 1.802-2.8763l-1.2502-5.4446q-0.53713-2.3391-2.8763-1.802l-7.5461 1.7328q-2.3391 0.53713-1.802 2.8763z" clip-path="url(#a)" fill="#fff" stroke="#fff"/>
<g clip-path="url(#a)">
<g transform="translate(1015.8 758.76) rotate(77.067) scale(.08 -.08)">
<use xlink:href="#w"/>
</g>
</g>
<path d="m1000.5 764.63 1.0298-4.4845q0.53713-2.3391-1.802-2.8763l-7.5461-1.7328q-2.3391-0.53713-2.8763 1.802l-1.0298 4.4845q-0.53713 2.3391 1.802 2.8763l7.5461 1.7328q2.3391 0.53713 2.8763-1.802z" clip-path="url(#a)" fill="#fff" stroke="#fff"/>
<g clip-path="url(#a)">
<g transform="translate(996.53 763.72) rotate(-77.067) scale(.08 -.08)">
<use xlink:href="#q"/>
</g>
</g>
<path d="m1024.1 846.48v35.285q0 2.4 2.4 2.4h7.7425q2.4 0 2.4-2.4v-35.285q0-2.4-2.4-2.4h-7.7425q-2.4 0-2.4 2.4z" clip-path="url(#a)" fill="#fff" stroke="#fff"/>
<g clip-path="url(#a)">
<g transform="translate(1028.2 846.48) rotate(90) scale(.08 -.08)">
<use xlink:href="#k"/>
<use x="60.818359" xlink:href="#d"/>
<use x="122.341797" xlink:href="#j"/>
<use x="163.439453" xlink:href="#l"/>
<use x="260.851562" xlink:href="#h"/>
<use x="288.634766" xlink:href="#g"/>
<use x="352.013672" xlink:href="#f"/>
<use x="413.292969" xlink:href="#i"/>
</g>
</g>
<path d="m1071.5 846.48v35.285q0 2.4 2.4 2.4h7.7425q2.4 0 2.4-2.4v-35.285q0-2.4-2.4-2.4h-7.7425q-2.4 0-2.4 2.4z" clip-path="url(#a)" fill="#fff" stroke="#fff"/>
<g clip-path="url(#a)">
<g transform="translate(1075.6 846.48) rotate(90) scale(.08 -.08)">
<use xlink:href="#k"/>
<use x="60.818359" xlink:href="#d"/>
<use x="122.341797" xlink:href="#j"/>
<use x="163.439453" xlink:href="#l"/>
<use x="260.851562" xlink:href="#h"/>
<use x="288.634766" xlink:href="#g"/>
<use x="352.013672" xlink:href="#f"/>
<use x="413.292969" xlink:href="#i"/>
</g>
</g>
<path d="m1166.2 846.48v35.285q0 2.4 2.4 2.4h7.7425q2.4 0 2.4-2.4v-35.285q0-2.4-2.4-2.4h-7.7425q-2.4 0-2.4 2.4z" clip-path="url(#a)" fill="#fff" stroke="#fff"/>
<g clip-path="url(#a)">
<g transform="translate(1170.3 846.48) rotate(90) scale(.08 -.08)">
<use xlink:href="#k"/>
<use x="60.818359" xlink:href="#d"/>
<use x="122.341797" xlink:href="#j"/>
<use x="163.439453" xlink:href="#l"/>
<use x="260.851562" xlink:href="#h"/>
<use x="288.634766" xlink:href="#g"/>
<use x="352.013672" xlink:href="#f"/>
<use x="413.292969" xlink:href="#i"/>
</g>
</g>
<path d="m1213.6 846.48v35.285q0 2.4 2.4 2.4h7.7425q2.4 0 2.4-2.4v-35.285q0-2.4-2.4-2.4h-7.7425q-2.4 0-2.4 2.4z" clip-path="url(#a)" fill="#fff" stroke="#fff"/>
<g clip-path="url(#a)">
<g transform="translate(1217.7 846.48) rotate(90) scale(.08 -.08)">
<use xlink:href="#k"/>
<use x="60.818359" xlink:href="#d"/>
<use x="122.341797" xlink:href="#j"/>
<use x="163.439453" xlink:href="#l"/>
<use x="260.851562" xlink:href="#h"/>
<use x="288.634766" xlink:href="#g"/>
<use x="352.013672" xlink:href="#f"/>
<use x="413.292969" xlink:href="#i"/>
</g>
</g>
<path d="m1466.5 658.34 0.12625-5.5848q0.05424-2.3994-2.3451-2.4536l-7.7405-0.17498q-2.3994-0.054241-2.4536 2.3451l-0.12625 5.5848q-0.054241 2.3994 2.3451 2.4536l7.7405 0.17498q2.3994 0.054241 2.4536-2.3451z" clip-path="url(#a)" fill="#fff" stroke="#fff"/>
<g clip-path="url(#a)">
<g transform="translate(1462.4 658.25) rotate(-88.705) scale(.08 -.08)">
<use xlink:href="#w"/>
</g>
</g>
<path d="m1393.9 660.17 1.9733-4.1566q1.0293-2.1681-1.1388-3.1974l-6.9944-3.3204q-2.1681-1.0293-3.1974 1.1388l-1.9733 4.1566q-1.0293 2.1681 1.1388 3.1974l6.9944 3.3204q2.1681 1.0293 3.1973-1.1388z" clip-path="url(#a)" fill="#fff" stroke="#fff"/>
<g clip-path="url(#a)">
<g transform="translate(1390.2 658.43) rotate(-64.605) scale(.08 -.08)">
<use xlink:href="#q"/>
</g>
</g>
<path d="m1442 607.85 1.2627-4.8948q0.59949-2.3239-1.7244-2.9234l-7.4971-1.934q-2.3239-0.59949-2.9234 1.7244l-1.2627 4.8948q-0.59949 2.3239 1.7244 2.9234l7.4971 1.934q2.3239 0.59949 2.9234-1.7244z" clip-path="url(#a)" fill="#fff" stroke="#fff"/>
<g clip-path="url(#a)">
<g transform="translate(1438.1 606.83) rotate(-75.535) scale(.08 -.08)">
<use xlink:href="#s"/>
</g>
</g>
<path d="m1477.4 653.23 0.76047 5.9365q0.30495 2.3805 2.6855 2.0756l7.6797-0.98378q2.3805-0.30495 2.0756-2.6855l-0.76047-5.9365q-0.30495-2.3805-2.6855-2.0756l-7.6797 0.98378q-2.3805 0.30495-2.0756 2.6855z" clip-path="url(#a)" fill="#fff" stroke="#fff"/>
<g clip-path="url(#a)">
<defs>
<path id="ap" d="m9.8125 72.906h13.281l32.328-60.984v60.984h9.5625v-72.906h-13.281l-32.312 60.984v-60.984h-9.5781z"/>
</defs>
<g transform="translate(1481.4 652.72) rotate(82.7) scale(.08 -.08)">
<use xlink:href="#ap"/>
</g>
</g>
<path d="m1543.4 555.39 4.737 2.9609q2.0351 1.2721 3.3072-0.76305l4.1038-6.5654q1.2721-2.0351-0.76305-3.3072l-4.737-2.9609q-2.0351-1.2721-3.3072 0.76305l-4.1038 6.5654q-1.2721 2.0351 0.76305 3.3072z" clip-path="url(#a)" fill="#fff" stroke="#fff"/>
<g clip-path="url(#a)">
<g transform="translate(1545.6 551.94) rotate(32.008) scale(.08 -.08)">
<use xlink:href="#w"/>
</g>
</g>
<path d="m1450.5 846.48v35.285q0 2.4 2.4 2.4h7.7425q2.4 0 2.4-2.4v-35.285q0-2.4-2.4-2.4h-7.7425q-2.4 0-2.4 2.4z" clip-path="url(#a)" fill="#fff" stroke="#fff"/>
<g clip-path="url(#a)">
<g transform="translate(1454.5 846.48) rotate(90) scale(.08 -.08)">
<use xlink:href="#k"/>
<use x="60.818359" xlink:href="#d"/>
<use x="122.341797" xlink:href="#j"/>
<use x="163.439453" xlink:href="#l"/>
<use x="260.851562" xlink:href="#h"/>
<use x="288.634766" xlink:href="#g"/>
<use x="352.013672" xlink:href="#f"/>
<use x="413.292969" xlink:href="#i"/>
</g>
</g>
<path d="m313.64 846.48v35.285q0 2.4 2.4 2.4h7.7425q2.4 0 2.4-2.4v-35.285q0-2.4-2.4-2.4h-7.7425q-2.4 0-2.4 2.4z" clip-path="url(#a)" fill="#fff" stroke="#fff"/>
<g clip-path="url(#a)">
<g transform="translate(317.7 846.48) rotate(90) scale(.08 -.08)">
<use xlink:href="#k"/>
<use x="60.818359" xlink:href="#d"/>
<use x="122.341797" xlink:href="#j"/>
<use x="163.439453" xlink:href="#l"/>
<use x="260.851562" xlink:href="#h"/>
<use x="288.634766" xlink:href="#g"/>
<use x="352.013672" xlink:href="#f"/>
<use x="413.292969" xlink:href="#i"/>
</g>
</g>
<path d="m361 846.48v35.285q0 2.4 2.4 2.4h7.7425q2.4 0 2.4-2.4v-35.285q0-2.4-2.4-2.4h-7.7425q-2.4 0-2.4 2.4z" clip-path="url(#a)" fill="#fff" stroke="#fff"/>
<g clip-path="url(#a)">
<g transform="translate(365.07 846.48) rotate(90) scale(.08 -.08)">
<use xlink:href="#k"/>
<use x="60.818359" xlink:href="#d"/>
<use x="122.341797" xlink:href="#j"/>
<use x="163.439453" xlink:href="#l"/>
<use x="260.851562" xlink:href="#h"/>
<use x="288.634766" xlink:href="#g"/>
<use x="352.013672" xlink:href="#f"/>
<use x="413.292969" xlink:href="#i"/>
</g>
</g>
<path d="m443.44 759.72 1.2248 5.3337q0.53713 2.3391 2.8763 1.802l7.5461-1.7328q2.3391-0.53713 1.802-2.8763l-1.2248-5.3337q-0.53713-2.3391-2.8763-1.802l-7.5461 1.7328q-2.3391 0.53713-1.802 2.8763z" clip-path="url(#a)" fill="#fff" stroke="#fff"/>
<g clip-path="url(#a)">
<g transform="translate(447.4 758.81) rotate(77.067) scale(.08 -.08)">
<use xlink:href="#r"/>
</g>
</g>
<path d="m432.03 764.86 1.1366-4.9499q0.53713-2.3391-1.802-2.8763l-7.5461-1.7328q-2.3391-0.53713-2.8763 1.802l-1.1366 4.9499q-0.53713 2.3391 1.802 2.8763l7.5461 1.7328q2.3391 0.53713 2.8763-1.802z" clip-path="url(#a)" fill="#fff" stroke="#fff"/>
<g clip-path="url(#a)">
<g transform="translate(428.07 763.95) rotate(-77.067) scale(.08 -.08)">
<use xlink:href="#v"/>
</g>
</g>
<path d="m408.37 846.48v35.285q0 2.4 2.4 2.4h7.7425q2.4 0 2.4-2.4v-35.285q0-2.4-2.4-2.4h-7.7425q-2.4 0-2.4 2.4z" clip-path="url(#a)" fill="#fff" stroke="#fff"/>
<g clip-path="url(#a)">
<g transform="translate(412.44 846.48) rotate(90) scale(.08 -.08)">
<use xlink:href="#k"/>
<use x="60.818359" xlink:href="#d"/>
<use x="122.341797" xlink:href="#j"/>
<use x="163.439453" xlink:href="#l"/>
<use x="260.851562" xlink:href="#h"/>
<use x="288.634766" xlink:href="#g"/>
<use x="352.013672" xlink:href="#f"/>
<use x="413.292969" xlink:href="#i"/>
</g>
</g>
<path d="m579.86 660.05 1.8588-4.4512q0.92481-2.2147-1.2899-3.1395l-7.1446-2.9835q-2.2147-0.92481-3.1395 1.2899l-1.8588 4.4512q-0.92481 2.2147 1.2899 3.1395l7.1446 2.9835q2.2147 0.92481 3.1395-1.2899z" clip-path="url(#a)" fill="#fff" stroke="#fff"/>
<g clip-path="url(#a)">
<g transform="translate(576.11 658.48) rotate(-67.335) scale(.08 -.08)">
<use xlink:href="#ai"/>
</g>
</g>
<path d="m604.04 659.67 1.4111-5.2874q0.61885-2.3188-1.7-2.9377l-7.4807-1.9964q-2.3188-0.61885-2.9377 1.7l-1.4111 5.2874q-0.61885 2.3188 1.7 2.9377l7.4807 1.9964q2.3188 0.61885 2.9377-1.7z" clip-path="url(#a)" fill="#fff" stroke="#fff"/>
<g clip-path="url(#a)">
<g transform="translate(600.11 658.62) rotate(-75.057) scale(.08 -.08)">
<use xlink:href="#r"/>
</g>
</g>
<path d="m628.33 658.41 0.53096-4.5705q0.27695-2.384-2.107-2.6609l-7.6908-0.89344q-2.384-0.27695-2.6609 2.107l-0.53096 4.5705q-0.27695 2.384 2.107 2.6609l7.6908 0.89344q2.384 0.27695 2.6609-2.107z" clip-path="url(#a)" fill="#fff" stroke="#fff"/>
<g clip-path="url(#a)">
<g transform="translate(624.3 657.94) rotate(-83.374) scale(.08 -.08)">
<use xlink:href="#q"/>
</g>
</g>
<path d="m639.71 653.32 0.15882 4.5985q0.082839 2.3986 2.4814 2.3157l7.7379-0.26724q2.3986-0.08284 2.3157-2.4814l-0.15882-4.5985q-0.08284-2.3986-2.4814-2.3157l-7.7379 0.26724q-2.3986 0.08284-2.3157 2.4814z" clip-path="url(#a)" fill="#fff" stroke="#fff"/>
<g clip-path="url(#a)">
<g transform="translate(643.77 653.18) rotate(88.022) scale(.08 -.08)">
<use xlink:href="#q"/>
</g>
</g>
<path d="m663.06 653.81 1.0125 5.4658q0.43715 2.3599 2.797 1.9227l7.613-1.4103q2.3599-0.43715 1.9227-2.797l-1.0125-5.4658q-0.43715-2.3599-2.797-1.9227l-7.613 1.4103q-2.3599 0.43715-1.9227 2.797z" clip-path="url(#a)" fill="#fff" stroke="#fff"/>
<g clip-path="url(#a)">
<g transform="translate(667.06 653.07) rotate(79.505) scale(.08 -.08)">
<use xlink:href="#ag"/>
</g>
</g>
<path d="m726.63 555.73 4.2197 2.4636q2.0726 1.2101 3.2827-0.86253l3.9038-6.6863q1.2101-2.0726-0.86253-3.2827l-4.2197-2.4636q-2.0726-1.2101-3.2827 0.86253l-3.9038 6.6863q-1.2101 2.0726 0.86253 3.2827z" clip-path="url(#a)" fill="#fff" stroke="#fff"/>
<g clip-path="url(#a)">
<g transform="translate(728.68 552.22) rotate(30.278) scale(.08 -.08)">
<use xlink:href="#k"/>
</g>
</g>
<path d="m503.11 846.48v35.285q0 2.4 2.4 2.4h7.7425q2.4 0 2.4-2.4v-35.285q0-2.4-2.4-2.4h-7.7425q-2.4 0-2.4 2.4z" clip-path="url(#a)" fill="#fff" stroke="#fff"/>
<g clip-path="url(#a)">
<g transform="translate(507.17 846.48) rotate(90) scale(.08 -.08)">
<use xlink:href="#k"/>
<use x="60.818359" xlink:href="#d"/>
<use x="122.341797" xlink:href="#j"/>
<use x="163.439453" xlink:href="#l"/>
<use x="260.851562" xlink:href="#h"/>
<use x="288.634766" xlink:href="#g"/>
<use x="352.013672" xlink:href="#f"/>
<use x="413.292969" xlink:href="#i"/>
</g>
</g>
<path d="m976.78 846.48v35.285q0 2.4 2.4 2.4h7.7425q2.4 0 2.4-2.4v-35.285q0-2.4-2.4-2.4h-7.7425q-2.4 0-2.4 2.4z" clip-path="url(#a)" fill="#fff" stroke="#fff"/>
<g clip-path="url(#a)">
<g transform="translate(980.84 846.48) rotate(90) scale(.08 -.08)">
<use xlink:href="#k"/>
<use x="60.818359" xlink:href="#d"/>
<use x="122.341797" xlink:href="#j"/>
<use x="163.439453" xlink:href="#l"/>
<use x="260.851562" xlink:href="#h"/>
<use x="288.634766" xlink:href="#g"/>
<use x="352.013672" xlink:href="#f"/>
<use x="413.292969" xlink:href="#i"/>
</g>
</g>
<path d="m1308.4 846.48v35.285q0 2.4 2.4 2.4h7.7425q2.4 0 2.4-2.4v-35.285q0-2.4-2.4-2.4h-7.7425q-2.4 0-2.4 2.4z" clip-path="url(#a)" fill="#fff" stroke="#fff"/>
<g clip-path="url(#a)">
<g transform="translate(1312.4 846.48) rotate(90) scale(.08 -.08)">
<use xlink:href="#k"/>
<use x="60.818359" xlink:href="#d"/>
<use x="122.341797" xlink:href="#j"/>
<use x="163.439453" xlink:href="#l"/>
<use x="260.851562" xlink:href="#h"/>
<use x="288.634766" xlink:href="#g"/>
<use x="352.013672" xlink:href="#f"/>
<use x="413.292969" xlink:href="#i"/>
</g>
</g>
<path d="m1426.2 761.12 2.2839 4.9731q1.0016 2.181 3.1826 1.1794l7.036-3.2313q2.181-1.0016 1.1794-3.1826l-2.2839-4.9731q-1.0016-2.181-3.1826-1.1794l-7.036 3.2313q-2.181 1.0016-1.1794 3.1826z" clip-path="url(#a)" fill="#fff" stroke="#fff"/>
<g clip-path="url(#a)">
<g transform="translate(1429.9 759.42) rotate(65.333) scale(.08 -.08)">
<use xlink:href="#r"/>
</g>
</g>
<path d="m1403.1 758.45v5.0788q0 2.4 2.4 2.4h7.7425q2.4 0 2.4-2.4v-5.0788q0-2.4-2.4-2.4h-7.7425q-2.4 0-2.4 2.4z" clip-path="url(#a)" fill="#fff" stroke="#fff"/>
<g clip-path="url(#a)">
<g transform="translate(1407.1 758.45) rotate(90) scale(.08 -.08)">
<use xlink:href="#v"/>
</g>
</g>
<path d="m1390.1 766.4 2.5709-5.5979q1.0016-2.181-1.1794-3.1826l-7.036-3.2313q-2.181-1.0016-3.1826 1.1794l-2.5709 5.5979q-1.0016 2.181 1.1794 3.1826l7.036 3.2313q2.181 1.0016 3.1826-1.1794z" clip-path="url(#a)" fill="#fff" stroke="#fff"/>
<g clip-path="url(#a)">
<defs>
<path id="as" d="m19.672 64.797v-56.688h11.922q15.094 0 22.094 6.8281 7 6.8438 7 21.594 0 14.641-7 21.453t-22.094 6.8125zm-9.8594 8.1094h20.266q21.188 0 31.094-8.8125 9.9219-8.8125 9.9219-27.562 0-18.859-9.9688-27.703-9.9531-8.8281-31.047-8.8281h-20.266z"/>
</defs>
<g transform="translate(1386.4 764.71) rotate(-65.333) scale(.08 -.08)">
<use xlink:href="#as"/>
</g>
</g>
<path d="m1403.1 846.48v35.285q0 2.4 2.4 2.4h7.7425q2.4 0 2.4-2.4v-35.285q0-2.4-2.4-2.4h-7.7425q-2.4 0-2.4 2.4z" clip-path="url(#a)" fill="#fff" stroke="#fff"/>
<g clip-path="url(#a)">
<g transform="translate(1407.1 846.48) rotate(90) scale(.08 -.08)">
<use xlink:href="#k"/>
<use x="60.818359" xlink:href="#d"/>
<use x="122.341797" xlink:href="#j"/>
<use x="163.439453" xlink:href="#l"/>
<use x="260.851562" xlink:href="#h"/>
<use x="288.634766" xlink:href="#g"/>
<use x="352.013672" xlink:href="#f"/>
<use x="413.292969" xlink:href="#i"/>
</g>
</g>
<path d="m1497.8 846.48v35.285q0 2.4 2.4 2.4h7.7425q2.4 0 2.4-2.4v-35.285q0-2.4-2.4-2.4h-7.7425q-2.4 0-2.4 2.4z" clip-path="url(#a)" fill="#fff" stroke="#fff"/>
<g clip-path="url(#a)">
<g transform="translate(1501.9 846.48) rotate(90) scale(.08 -.08)">
<use xlink:href="#k"/>
<use x="60.818359" xlink:href="#d"/>
<use x="122.341797" xlink:href="#j"/>
<use x="163.439453" xlink:href="#l"/>
<use x="260.851562" xlink:href="#h"/>
<use x="288.634766" xlink:href="#g"/>
<use x="352.013672" xlink:href="#f"/>
<use x="413.292969" xlink:href="#i"/>
</g>
</g>
<path d="m1657.2 707.73 1.5314 5.3723q0.65792 2.3081 2.966 1.6501l7.4459-2.1225q2.3081-0.65792 1.6501-2.966l-1.5314-5.3722q-0.65792-2.3081-2.966-1.6501l-7.4459 2.1225q-2.3081 0.65792-1.6501 2.966z" clip-path="url(#a)" fill="#fff" stroke="#fff"/>
<g clip-path="url(#a)">
<g transform="translate(1661.1 706.62) rotate(74.09) scale(.08 -.08)">
<use xlink:href="#w"/>
</g>
</g>
<path d="m1597.9 713.16 1.7055-4.2735q0.88956-2.2291-1.3395-3.1186l-7.191-2.8698q-2.2291-0.88956-3.1186 1.3395l-1.7055 4.2735q-0.88956 2.2291 1.3395 3.1186l7.191 2.8698q2.2291 0.88956 3.1186-1.3395z" clip-path="url(#a)" fill="#fff" stroke="#fff"/>
<g clip-path="url(#a)">
<g transform="translate(1594.1 711.65) rotate(-68.244) scale(.08 -.08)">
<use xlink:href="#q"/>
</g>
</g>
<path d="m1633.8 655.32 0.56879 5.0229q0.27005 2.3848 2.6548 2.1147l7.6933-0.87118q2.3848-0.27005 2.1147-2.6548l-0.56879-5.0229q-0.27005-2.3848-2.6548-2.1147l-7.6933 0.87119q-2.3848 0.27005-2.1147 2.6548z" clip-path="url(#a)" fill="#fff" stroke="#fff"/>
<g clip-path="url(#a)">
<g transform="translate(1637.8 654.87) rotate(83.539) scale(.08 -.08)">
<use xlink:href="#s"/>
</g>
</g>
<path d="m1633.9 706.53 0.28772 5.0468q0.1366 2.3961 2.5327 2.2595l7.7299-0.44069q2.3961-0.1366 2.2595-2.5327l-0.28772-5.0468q-0.1366-2.3961-2.5327-2.2595l-7.7299 0.44069q-2.3961 0.1366-2.2595 2.5327z" clip-path="url(#a)" fill="#fff" stroke="#fff"/>
<g clip-path="url(#a)">
<g transform="translate(1637.9 706.3) rotate(86.737) scale(.08 -.08)">
<use xlink:href="#s"/>
</g>
</g>
<path d="m1687.3 846.48v35.285q0 2.4 2.4 2.4h7.7425q2.4 0 2.4-2.4v-35.285q0-2.4-2.4-2.4h-7.7425q-2.4 0-2.4 2.4z" clip-path="url(#a)" fill="#fff" stroke="#fff"/>
<g clip-path="url(#a)">
<g transform="translate(1691.4 846.48) rotate(90) scale(.08 -.08)">
<use xlink:href="#k"/>
<use x="60.818359" xlink:href="#d"/>
<use x="122.341797" xlink:href="#j"/>
<use x="163.439453" xlink:href="#l"/>
<use x="260.851562" xlink:href="#h"/>
<use x="288.634766" xlink:href="#g"/>
<use x="352.013672" xlink:href="#f"/>
<use x="413.292969" xlink:href="#i"/>
</g>
</g>
<path d="m550.47 846.48v35.285q0 2.4 2.4 2.4h7.7425q2.4 0 2.4-2.4v-35.285q0-2.4-2.4-2.4h-7.7425q-2.4 0-2.4 2.4z" clip-path="url(#a)" fill="#fff" stroke="#fff"/>
<g clip-path="url(#a)">
<g transform="translate(554.54 846.48) rotate(90) scale(.08 -.08)">
<use xlink:href="#k"/>
<use x="60.818359" xlink:href="#d"/>
<use x="122.341797" xlink:href="#j"/>
<use x="163.439453" xlink:href="#l"/>
<use x="260.851562" xlink:href="#h"/>
<use x="288.634766" xlink:href="#g"/>
<use x="352.013672" xlink:href="#f"/>
<use x="413.292969" xlink:href="#i"/>
</g>
</g>
<path d="m597.84 846.48v35.285q0 2.4 2.4 2.4h7.7425q2.4 0 2.4-2.4v-35.285q0-2.4-2.4-2.4h-7.7425q-2.4 0-2.4 2.4z" clip-path="url(#a)" fill="#fff" stroke="#fff"/>
<g clip-path="url(#a)">
<g transform="translate(601.9 846.48) rotate(90) scale(.08 -.08)">
<use xlink:href="#k"/>
<use x="60.818359" xlink:href="#d"/>
<use x="122.341797" xlink:href="#j"/>
<use x="163.439453" xlink:href="#l"/>
<use x="260.851562" xlink:href="#h"/>
<use x="288.634766" xlink:href="#g"/>
<use x="352.013672" xlink:href="#f"/>
<use x="413.292969" xlink:href="#i"/>
</g>
</g>
<path d="m645.21 846.48v35.285q0 2.4 2.4 2.4h7.7425q2.4 0 2.4-2.4v-35.285q0-2.4-2.4-2.4h-7.7425q-2.4 0-2.4 2.4z" clip-path="url(#a)" fill="#fff" stroke="#fff"/>
<g clip-path="url(#a)">
<g transform="translate(649.27 846.48) rotate(90) scale(.08 -.08)">
<use xlink:href="#k"/>
<use x="60.818359" xlink:href="#d"/>
<use x="122.341797" xlink:href="#j"/>
<use x="163.439453" xlink:href="#l"/>
<use x="260.851562" xlink:href="#h"/>
<use x="288.634766" xlink:href="#g"/>
<use x="352.013672" xlink:href="#f"/>
<use x="413.292969" xlink:href="#i"/>
</g>
</g>
<path d="m692.58 846.48v35.285q0 2.4 2.4 2.4h7.7425q2.4 0 2.4-2.4v-35.285q0-2.4-2.4-2.4h-7.7425q-2.4 0-2.4 2.4z" clip-path="url(#a)" fill="#fff" stroke="#fff"/>
<g clip-path="url(#a)">
<g transform="translate(696.64 846.48) rotate(90) scale(.08 -.08)">
<use xlink:href="#k"/>
<use x="60.818359" xlink:href="#d"/>
<use x="122.341797" xlink:href="#j"/>
<use x="163.439453" xlink:href="#l"/>
<use x="260.851562" xlink:href="#h"/>
<use x="288.634766" xlink:href="#g"/>
<use x="352.013672" xlink:href="#f"/>
<use x="413.292969" xlink:href="#i"/>
</g>
</g>
<path d="m848.93 707.91 1.6714 5.3304q0.71807 2.2901 3.0081 1.572l7.3878-2.3165q2.2901-0.71807 1.572-3.0081l-1.6714-5.3304q-0.71807-2.2901-3.0081-1.572l-7.3878 2.3165q-2.2901 0.71807-1.572 3.0081z" clip-path="url(#a)" fill="#fff" stroke="#fff"/>
<g clip-path="url(#a)">
<g transform="translate(852.81 706.69) rotate(72.591) scale(.08 -.08)">
<use xlink:href="#w"/>
</g>
</g>
<path d="m789.61 713.48 1.9315-5.2124q0.83395-2.2505-1.4165-3.0844l-7.26-2.6904q-2.2505-0.83395-3.0844 1.4165l-1.9315 5.2124q-0.83395 2.2505 1.4165 3.0844l7.26 2.6904q2.2505 0.83395 3.0844-1.4165z" clip-path="url(#a)" fill="#fff" stroke="#fff"/>
<g clip-path="url(#a)">
<g transform="translate(785.8 712.07) rotate(-69.667) scale(.08 -.08)">
<use xlink:href="#ag"/>
</g>
</g>
<path d="m814.27 711.86 0.64924-4.5552q0.33864-2.376-2.0373-2.7146l-7.665-1.0925q-2.376-0.33864-2.7146 2.0373l-0.64924 4.5552q-0.33864 2.376 2.0373 2.7146l7.665 1.0925q2.376 0.33864 2.7146-2.0373z" clip-path="url(#a)" fill="#fff" stroke="#fff"/>
<g clip-path="url(#a)">
<g transform="translate(810.24 711.29) rotate(-81.888) scale(.08 -.08)">
<use xlink:href="#q"/>
</g>
</g>
<path d="m837.15 657.09 1.8625 4.6994q0.88429 2.2312 3.1154 1.3469l7.1978-2.8527q2.2312-0.88429 1.3469-3.1154l-1.8625-4.6994q-0.88429-2.2312-3.1154-1.3469l-7.1978 2.8527q-2.2312 0.88429-1.3469 3.1154z" clip-path="url(#a)" fill="#fff" stroke="#fff"/>
<g clip-path="url(#a)">
<g transform="translate(840.93 655.59) rotate(68.38) scale(.08 -.08)">
<use xlink:href="#s"/>
</g>
</g>
<path d="m882.05 846.48v35.285q0 2.4 2.4 2.4h7.7425q2.4 0 2.4-2.4v-35.285q0-2.4-2.4-2.4h-7.7425q-2.4 0-2.4 2.4z" clip-path="url(#a)" fill="#fff" stroke="#fff"/>
<g clip-path="url(#a)">
<g transform="translate(886.11 846.48) rotate(90) scale(.08 -.08)">
<use xlink:href="#k"/>
<use x="60.818359" xlink:href="#d"/>
<use x="122.341797" xlink:href="#j"/>
<use x="163.439453" xlink:href="#l"/>
<use x="260.851562" xlink:href="#h"/>
<use x="288.634766" xlink:href="#g"/>
<use x="352.013672" xlink:href="#f"/>
<use x="413.292969" xlink:href="#i"/>
</g>
</g>
<path d="m1355.7 846.48v35.285q0 2.4 2.4 2.4h7.7425q2.4 0 2.4-2.4v-35.285q0-2.4-2.4-2.4h-7.7425q-2.4 0-2.4 2.4z" clip-path="url(#a)" fill="#fff" stroke="#fff"/>
<g clip-path="url(#a)">
<g transform="translate(1359.8 846.48) rotate(90) scale(.08 -.08)">
<use xlink:href="#k"/>
<use x="60.818359" xlink:href="#d"/>
<use x="122.341797" xlink:href="#j"/>
<use x="163.439453" xlink:href="#l"/>
<use x="260.851562" xlink:href="#h"/>
<use x="288.634766" xlink:href="#g"/>
<use x="352.013672" xlink:href="#f"/>
<use x="413.292969" xlink:href="#i"/>
</g>
</g>
<path d="m1545.2 846.48v35.285q0 2.4 2.4 2.4h7.7425q2.4 0 2.4-2.4v-35.285q0-2.4-2.4-2.4h-7.7425q-2.4 0-2.4 2.4z" clip-path="url(#a)" fill="#fff" stroke="#fff"/>
<g clip-path="url(#a)">
<g transform="translate(1549.3 846.48) rotate(90) scale(.08 -.08)">
<use xlink:href="#k"/>
<use x="60.818359" xlink:href="#d"/>
<use x="122.341797" xlink:href="#j"/>
<use x="163.439453" xlink:href="#l"/>
<use x="260.851562" xlink:href="#h"/>
<use x="288.634766" xlink:href="#g"/>
<use x="352.013672" xlink:href="#f"/>
<use x="413.292969" xlink:href="#i"/>
</g>
</g>
<path d="m1663 761.12 2.2839 4.9731q1.0016 2.181 3.1826 1.1794l7.036-3.2313q2.181-1.0016 1.1794-3.1826l-2.2839-4.9731q-1.0016-2.181-3.1826-1.1794l-7.036 3.2313q-2.181 1.0016-1.1794 3.1826z" clip-path="url(#a)" fill="#fff" stroke="#fff"/>
<g clip-path="url(#a)">
<g transform="translate(1666.7 759.42) rotate(65.333) scale(.08 -.08)">
<use xlink:href="#r"/>
</g>
</g>
<path d="m1627.1 765.91 2.1196-4.6153q1.0016-2.181-1.1794-3.1826l-7.036-3.2313q-2.181-1.0016-3.1826 1.1794l-2.1196 4.6153q-1.0016 2.181 1.1794 3.1826l7.036 3.2313q2.181 1.0016 3.1826-1.1794z" clip-path="url(#a)" fill="#fff" stroke="#fff"/>
<g clip-path="url(#a)">
<g transform="translate(1623.5 764.21) rotate(-65.333) scale(.08 -.08)">
<use xlink:href="#v"/>
</g>
</g>
<path d="m1592.6 846.48v35.285q0 2.4 2.4 2.4h7.7425q2.4 0 2.4-2.4v-35.285q0-2.4-2.4-2.4h-7.7425q-2.4 0-2.4 2.4z" clip-path="url(#a)" fill="#fff" stroke="#fff"/>
<g clip-path="url(#a)">
<g transform="translate(1596.6 846.48) rotate(90) scale(.08 -.08)">
<use xlink:href="#k"/>
<use x="60.818359" xlink:href="#d"/>
<use x="122.341797" xlink:href="#j"/>
<use x="163.439453" xlink:href="#l"/>
<use x="260.851562" xlink:href="#h"/>
<use x="288.634766" xlink:href="#g"/>
<use x="352.013672" xlink:href="#f"/>
<use x="413.292969" xlink:href="#i"/>
</g>
</g>
<path d="m1639.9 846.48v35.285q0 2.4 2.4 2.4h7.7425q2.4 0 2.4-2.4v-35.285q0-2.4-2.4-2.4h-7.7425q-2.4 0-2.4 2.4z" clip-path="url(#a)" fill="#fff" stroke="#fff"/>
<g clip-path="url(#a)">
<g transform="translate(1644 846.48) rotate(90) scale(.08 -.08)">
<use xlink:href="#k"/>
<use x="60.818359" xlink:href="#d"/>
<use x="122.341797" xlink:href="#j"/>
<use x="163.439453" xlink:href="#l"/>
<use x="260.851562" xlink:href="#h"/>
<use x="288.634766" xlink:href="#g"/>
<use x="352.013672" xlink:href="#f"/>
<use x="413.292969" xlink:href="#i"/>
</g>
</g>
<path d="m739.94 846.48v35.285q0 2.4 2.4 2.4h7.7425q2.4 0 2.4-2.4v-35.285q0-2.4-2.4-2.4h-7.7425q-2.4 0-2.4 2.4z" clip-path="url(#a)" fill="#fff" stroke="#fff"/>
<g clip-path="url(#a)">
<g transform="translate(744.01 846.48) rotate(90) scale(.08 -.08)">
<use xlink:href="#k"/>
<use x="60.818359" xlink:href="#d"/>
<use x="122.341797" xlink:href="#j"/>
<use x="163.439453" xlink:href="#l"/>
<use x="260.851562" xlink:href="#h"/>
<use x="288.634766" xlink:href="#g"/>
<use x="352.013672" xlink:href="#f"/>
<use x="413.292969" xlink:href="#i"/>
</g>
</g>
<path d="m787.31 846.48v35.285q0 2.4 2.4 2.4h7.7425q2.4 0 2.4-2.4v-35.285q0-2.4-2.4-2.4h-7.7425q-2.4 0-2.4 2.4z" clip-path="url(#a)" fill="#fff" stroke="#fff"/>
<g clip-path="url(#a)">
<g transform="translate(791.37 846.48) rotate(90) scale(.08 -.08)">
<use xlink:href="#k"/>
<use x="60.818359" xlink:href="#d"/>
<use x="122.341797" xlink:href="#j"/>
<use x="163.439453" xlink:href="#l"/>
<use x="260.851562" xlink:href="#h"/>
<use x="288.634766" xlink:href="#g"/>
<use x="352.013672" xlink:href="#f"/>
<use x="413.292969" xlink:href="#i"/>
</g>
</g>
<path d="m869.82 760.01 1.0936 4.7623q0.53713 2.3391 2.8763 1.802l7.5461-1.7328q2.3391-0.53713 1.802-2.8763l-1.0936-4.7623q-0.53713-2.3391-2.8763-1.802l-7.5461 1.7328q-2.3391 0.53713-1.802 2.8763z" clip-path="url(#a)" fill="#fff" stroke="#fff"/>
<g clip-path="url(#a)">
<g transform="translate(873.78 759.1) rotate(77.067) scale(.08 -.08)">
<use xlink:href="#k"/>
</g>
</g>
<path d="m858.33 764.86 1.1366-4.9499q0.53713-2.3391-1.802-2.8763l-7.5461-1.7328q-2.3391-0.53713-2.8763 1.802l-1.1366 4.9499q-0.53713 2.3391 1.802 2.8763l7.5461 1.7328q2.3391 0.53713 2.8763-1.802z" clip-path="url(#a)" fill="#fff" stroke="#fff"/>
<g clip-path="url(#a)">
<g transform="translate(854.37 763.95) rotate(-77.067) scale(.08 -.08)">
<use xlink:href="#v"/>
</g>
</g>
<path d="m834.68 846.48v35.285q0 2.4 2.4 2.4h7.7425q2.4 0 2.4-2.4v-35.285q0-2.4-2.4-2.4h-7.7425q-2.4 0-2.4 2.4z" clip-path="url(#a)" fill="#fff" stroke="#fff"/>
<g clip-path="url(#a)">
<g transform="translate(838.74 846.48) rotate(90) scale(.08 -.08)">
<use xlink:href="#k"/>
<use x="60.818359" xlink:href="#d"/>
<use x="122.341797" xlink:href="#j"/>
<use x="163.439453" xlink:href="#l"/>
<use x="260.851562" xlink:href="#h"/>
<use x="288.634766" xlink:href="#g"/>
<use x="352.013672" xlink:href="#f"/>
<use x="413.292969" xlink:href="#i"/>
</g>
</g>
<defs>
<path id="b" d="m0 8.6603c2.2967 0 4.4997-0.9125 6.1237-2.5365 1.624-1.624 2.5365-3.827 2.5365-6.1237s-0.9125-4.4997-2.5365-6.1237c-1.624-1.624-3.827-2.5365-6.1237-2.5365s-4.4997 0.9125-6.1237 2.5365c-1.624 1.624-2.5365 3.827-2.5365 6.1237s0.9125 4.4997 2.5365 6.1237c1.624 1.624 3.827 2.5365 6.1237 2.5365z"/>
</defs>
<g clip-path="url(#a)">
<use x="83.071017" y="915.693729" fill="#ffffff" stroke="#ffffff" xlink:href="#b"/>
</g>
<g clip-path="url(#a)">
<use x="130.438388" y="915.693729" fill="#ffffff" stroke="#ffffff" xlink:href="#b"/>
</g>
<g clip-path="url(#a)">
<use x="177.805758" y="915.693729" fill="#ffffff" stroke="#ffffff" xlink:href="#b"/>
</g>
<g clip-path="url(#a)">
<use x="225.173129" y="915.693729" fill="#ffffff" stroke="#ffffff" xlink:href="#b"/>
</g>
<g clip-path="url(#a)">
<use x="272.540499" y="915.693729" fill="#ffffff" stroke="#ffffff" xlink:href="#b"/>
</g>
<g clip-path="url(#a)">
<use x="319.907869" y="915.693729" fill="#ffffff" stroke="#ffffff" xlink:href="#b"/>
</g>
<g clip-path="url(#a)">
<use x="367.27524" y="915.693729" fill="#ffffff" stroke="#ffffff" xlink:href="#b"/>
</g>
<g clip-path="url(#a)">
<use x="414.64261" y="915.693729" fill="#ffffff" stroke="#ffffff" xlink:href="#b"/>
</g>
<g clip-path="url(#a)">
<use x="462.009981" y="915.693729" fill="#ffffff" stroke="#ffffff" xlink:href="#b"/>
</g>
<g clip-path="url(#a)">
<use x="509.377351" y="915.693729" fill="#ffffff" stroke="#ffffff" xlink:href="#b"/>
</g>
<g clip-path="url(#a)">
<use x="556.744722" y="915.693729" fill="#ffffff" stroke="#ffffff" xlink:href="#b"/>
</g>
<g clip-path="url(#a)">
<use x="604.112092" y="915.693729" fill="#ffffff" stroke="#ffffff" xlink:href="#b"/>
</g>
<g clip-path="url(#a)">
<use x="651.479463" y="915.693729" fill="#ffffff" stroke="#ffffff" xlink:href="#b"/>
</g>
<g clip-path="url(#a)">
<use x="698.846833" y="915.693729" fill="#ffffff" stroke="#ffffff" xlink:href="#b"/>
</g>
<g clip-path="url(#a)">
<use x="746.214203" y="915.693729" fill="#ffffff" stroke="#ffffff" xlink:href="#b"/>
</g>
<g clip-path="url(#a)">
<use x="793.581574" y="915.693729" fill="#ffffff" stroke="#ffffff" xlink:href="#b"/>
</g>
<g clip-path="url(#a)">
<use x="840.948944" y="915.693729" fill="#ffffff" stroke="#ffffff" xlink:href="#b"/>
</g>
<g clip-path="url(#a)">
<use x="888.316315" y="915.693729" fill="#ffffff" stroke="#ffffff" xlink:href="#b"/>
</g>
<g clip-path="url(#a)">
<use x="935.683685" y="915.693729" fill="#ffffff" stroke="#ffffff" xlink:href="#b"/>
</g>
<g clip-path="url(#a)">
<use x="983.051056" y="915.693729" fill="#ffffff" stroke="#ffffff" xlink:href="#b"/>
</g>
<g clip-path="url(#a)">
<use x="1030.418426" y="915.693729" fill="#ffffff" stroke="#ffffff" xlink:href="#b"/>
</g>
<g clip-path="url(#a)">
<use x="1077.785797" y="915.693729" fill="#ffffff" stroke="#ffffff" xlink:href="#b"/>
</g>
<g clip-path="url(#a)">
<use x="1125.153167" y="915.693729" fill="#ffffff" stroke="#ffffff" xlink:href="#b"/>
</g>
<g clip-path="url(#a)">
<use x="1172.520537" y="915.693729" fill="#ffffff" stroke="#ffffff" xlink:href="#b"/>
</g>
<g clip-path="url(#a)">
<use x="1219.887908" y="915.693729" fill="#ffffff" stroke="#ffffff" xlink:href="#b"/>
</g>
<g clip-path="url(#a)">
<use x="1267.255278" y="915.693729" fill="#ffffff" stroke="#ffffff" xlink:href="#b"/>
</g>
<g clip-path="url(#a)">
<use x="1314.622649" y="915.693729" fill="#ffffff" stroke="#ffffff" xlink:href="#b"/>
</g>
<g clip-path="url(#a)">
<use x="1361.990019" y="915.693729" fill="#ffffff" stroke="#ffffff" xlink:href="#b"/>
</g>
<g clip-path="url(#a)">
<use x="1409.35739" y="915.693729" fill="#ffffff" stroke="#ffffff" xlink:href="#b"/>
</g>
<g clip-path="url(#a)">
<use x="1456.72476" y="915.693729" fill="#ffffff" stroke="#ffffff" xlink:href="#b"/>
</g>
<g clip-path="url(#a)">
<use x="1504.092131" y="915.693729" fill="#ffffff" stroke="#ffffff" xlink:href="#b"/>
</g>
<g clip-path="url(#a)">
<use x="1551.459501" y="915.693729" fill="#ffffff" stroke="#ffffff" xlink:href="#b"/>
</g>
<g clip-path="url(#a)">
<use x="1598.826871" y="915.693729" fill="#ffffff" stroke="#ffffff" xlink:href="#b"/>
</g>
<g clip-path="url(#a)">
<use x="1646.194242" y="915.693729" fill="#ffffff" stroke="#ffffff" xlink:href="#b"/>
</g>
<g clip-path="url(#a)">
<use x="1693.561612" y="915.693729" fill="#ffffff" stroke="#ffffff" xlink:href="#b"/>
</g>
<g clip-path="url(#a)">
<use x="1740.928983" y="915.693729" fill="#ffffff" stroke="#ffffff" xlink:href="#b"/>
</g>
<g clip-path="url(#a)">
<use x="1046.398993" y="44.306271" fill="#ffffff" stroke="#ffffff" xlink:href="#b"/>
</g>
<g clip-path="url(#a)">
<use x="626.193181" y="162.568448" fill="#ffffff" stroke="#ffffff" xlink:href="#b"/>
</g>
<g clip-path="url(#a)">
<use x="130.438388" y="812.554675" fill="#ffffff" stroke="#ffffff" xlink:href="#b"/>
</g>
<g clip-path="url(#a)">
<use x="83.071017" y="812.554675" fill="#ffffff" stroke="#ffffff" xlink:href="#b"/>
</g>
<g clip-path="url(#a)">
<use x="240.843834" y="277.447142" fill="#ffffff" stroke="#ffffff" xlink:href="#b"/>
</g>
<g clip-path="url(#a)">
<use x="272.540499" y="812.554675" fill="#ffffff" stroke="#ffffff" xlink:href="#b"/>
</g>
<g clip-path="url(#a)">
<use x="935.683685" y="812.554675" fill="#ffffff" stroke="#ffffff" xlink:href="#b"/>
</g>
<g clip-path="url(#a)">
<use x="1069.891235" y="604.841791" fill="#ffffff" stroke="#ffffff" xlink:href="#b"/>
</g>
<g clip-path="url(#a)">
<use x="1125.153167" y="812.554675" fill="#ffffff" stroke="#ffffff" xlink:href="#b"/>
</g>
<g clip-path="url(#a)">
<use x="1316.991017" y="389.238214" fill="#ffffff" stroke="#ffffff" xlink:href="#b"/>
</g>
<g clip-path="url(#a)">
<use x="1267.255278" y="812.554675" fill="#ffffff" stroke="#ffffff" xlink:href="#b"/>
</g>
<g clip-path="url(#a)">
<use x="1740.928983" y="812.554675" fill="#ffffff" stroke="#ffffff" xlink:href="#b"/>
</g>
<g clip-path="url(#a)">
<use x="177.805758" y="812.554675" fill="#ffffff" stroke="#ffffff" xlink:href="#b"/>
</g>
<g clip-path="url(#a)">
<use x="225.173129" y="812.554675" fill="#ffffff" stroke="#ffffff" xlink:href="#b"/>
</g>
<g clip-path="url(#a)">
<use x="445.628765" y="389.238214" fill="#ffffff" stroke="#ffffff" xlink:href="#b"/>
</g>
<g clip-path="url(#a)">
<use x="462.009981" y="812.554675" fill="#ffffff" stroke="#ffffff" xlink:href="#b"/>
</g>
<g clip-path="url(#a)">
<use x="1006.734741" y="709.415622" fill="#ffffff" stroke="#ffffff" xlink:href="#b"/>
</g>
<g clip-path="url(#a)">
<use x="1030.418426" y="812.554675" fill="#ffffff" stroke="#ffffff" xlink:href="#b"/>
</g>
<g clip-path="url(#a)">
<use x="1077.785797" y="812.554675" fill="#ffffff" stroke="#ffffff" xlink:href="#b"/>
</g>
<g clip-path="url(#a)">
<use x="1172.520537" y="812.554675" fill="#ffffff" stroke="#ffffff" xlink:href="#b"/>
</g>
<g clip-path="url(#a)">
<use x="1219.887908" y="812.554675" fill="#ffffff" stroke="#ffffff" xlink:href="#b"/>
</g>
<g clip-path="url(#a)">
<use x="1463.829866" y="498.254312" fill="#ffffff" stroke="#ffffff" xlink:href="#b"/>
</g>
<g clip-path="url(#a)">
<use x="1456.72476" y="812.554675" fill="#ffffff" stroke="#ffffff" xlink:href="#b"/>
</g>
<g clip-path="url(#a)">
<use x="319.907869" y="812.554675" fill="#ffffff" stroke="#ffffff" xlink:href="#b"/>
</g>
<g clip-path="url(#a)">
<use x="367.27524" y="812.554675" fill="#ffffff" stroke="#ffffff" xlink:href="#b"/>
</g>
<g clip-path="url(#a)">
<use x="438.326296" y="709.415622" fill="#ffffff" stroke="#ffffff" xlink:href="#b"/>
</g>
<g clip-path="url(#a)">
<use x="414.64261" y="812.554675" fill="#ffffff" stroke="#ffffff" xlink:href="#b"/>
</g>
<g clip-path="url(#a)">
<use x="640.62444" y="498.254312" fill="#ffffff" stroke="#ffffff" xlink:href="#b"/>
</g>
<g clip-path="url(#a)">
<use x="509.377351" y="812.554675" fill="#ffffff" stroke="#ffffff" xlink:href="#b"/>
</g>
<g clip-path="url(#a)">
<use x="983.051056" y="812.554675" fill="#ffffff" stroke="#ffffff" xlink:href="#b"/>
</g>
<g clip-path="url(#a)">
<use x="1314.622649" y="812.554675" fill="#ffffff" stroke="#ffffff" xlink:href="#b"/>
</g>
<g clip-path="url(#a)">
<use x="1409.35739" y="709.415622" fill="#ffffff" stroke="#ffffff" xlink:href="#b"/>
</g>
<g clip-path="url(#a)">
<use x="1409.35739" y="812.554675" fill="#ffffff" stroke="#ffffff" xlink:href="#b"/>
</g>
<g clip-path="url(#a)">
<use x="1504.092131" y="812.554675" fill="#ffffff" stroke="#ffffff" xlink:href="#b"/>
</g>
<g clip-path="url(#a)">
<use x="1634.352399" y="604.841791" fill="#ffffff" stroke="#ffffff" xlink:href="#b"/>
</g>
<g clip-path="url(#a)">
<use x="1693.561612" y="812.554675" fill="#ffffff" stroke="#ffffff" xlink:href="#b"/>
</g>
<g clip-path="url(#a)">
<use x="556.744722" y="812.554675" fill="#ffffff" stroke="#ffffff" xlink:href="#b"/>
</g>
<g clip-path="url(#a)">
<use x="604.112092" y="812.554675" fill="#ffffff" stroke="#ffffff" xlink:href="#b"/>
</g>
<g clip-path="url(#a)">
<use x="651.479463" y="812.554675" fill="#ffffff" stroke="#ffffff" xlink:href="#b"/>
</g>
<g clip-path="url(#a)">
<use x="698.846833" y="812.554675" fill="#ffffff" stroke="#ffffff" xlink:href="#b"/>
</g>
<g clip-path="url(#a)">
<use x="823.18618" y="604.841791" fill="#ffffff" stroke="#ffffff" xlink:href="#b"/>
</g>
<g clip-path="url(#a)">
<use x="888.316315" y="812.554675" fill="#ffffff" stroke="#ffffff" xlink:href="#b"/>
</g>
<g clip-path="url(#a)">
<use x="1361.990019" y="812.554675" fill="#ffffff" stroke="#ffffff" xlink:href="#b"/>
</g>
<g clip-path="url(#a)">
<use x="1551.459501" y="812.554675" fill="#ffffff" stroke="#ffffff" xlink:href="#b"/>
</g>
<g clip-path="url(#a)">
<use x="1646.194242" y="709.415622" fill="#ffffff" stroke="#ffffff" xlink:href="#b"/>
</g>
<g clip-path="url(#a)">
<use x="1598.826871" y="812.554675" fill="#ffffff" stroke="#ffffff" xlink:href="#b"/>
</g>
<g clip-path="url(#a)">
<use x="1646.194242" y="812.554675" fill="#ffffff" stroke="#ffffff" xlink:href="#b"/>
</g>
<g clip-path="url(#a)">
<use x="746.214203" y="812.554675" fill="#ffffff" stroke="#ffffff" xlink:href="#b"/>
</g>
<g clip-path="url(#a)">
<use x="793.581574" y="812.554675" fill="#ffffff" stroke="#ffffff" xlink:href="#b"/>
</g>
<g clip-path="url(#a)">
<use x="864.63263" y="709.415622" fill="#ffffff" stroke="#ffffff" xlink:href="#b"/>
</g>
<g clip-path="url(#a)">
<use x="840.948944" y="812.554675" fill="#ffffff" stroke="#ffffff" xlink:href="#b"/>
</g>
<g clip-path="url(#a)">
<defs>
<path id="ar" d="m9.8125 72.906h9.8594v-72.906h-9.8594z"/>
<path id="p" d="m18.312 70.219v-15.531h18.5v-6.9844h-18.5v-29.688q0-6.6875 1.8281-8.5938t7.4531-1.9062h9.2188v-7.5156h-9.2188q-10.406 0-14.359 3.875-3.9531 3.8906-3.9531 14.141v29.688h-6.5938v6.9844h6.5938v15.531z"/>
</defs>
<g transform="translate(79.636 918.45) scale(.1 -.1)">
<use xlink:href="#ar"/>
<use x="29.492188" xlink:href="#p"/>
</g>
</g>
<g clip-path="url(#a)">
<defs>
<path id="x" d="m54.891 33.016v-33.016h-8.9844v32.719q0 7.7656-3.0312 11.609-3.0312 3.8594-9.0781 3.8594-7.2812 0-11.484-4.6406-4.2031-4.625-4.2031-12.641v-30.906h-9.0312v75.984h9.0312v-29.797q3.2344 4.9375 7.5938 7.375 4.375 2.4375 10.094 2.4375 9.4219 0 14.25-5.8281 4.8438-5.8281 4.8438-17.156z"/>
<path id="ae" d="m44.281 53.078v-8.5q-3.7969 1.9531-7.9062 2.9219-4.0938 0.98438-8.5 0.98438-6.6875 0-10.031-2.0469t-3.3438-6.1562q0-3.125 2.3906-4.9062t9.625-3.3906l3.0781-0.6875q9.5625-2.0469 13.594-5.7812t4.0312-10.422q0-7.625-6.0312-12.078-6.0312-4.4375-16.578-4.4375-4.3906 0-9.1562 0.85938t-10.031 2.5625v9.2812q4.9844-2.5938 9.8125-3.8906 4.8281-1.2812 9.5781-1.2812 6.3438 0 9.75 2.1719 3.4219 2.1719 3.4219 6.125 0 3.6562-2.4688 5.6094-2.4531 1.9531-10.812 3.7656l-3.125 0.73438q-8.3438 1.75-12.062 5.3906-3.7031 3.6406-3.7031 9.9844 0 7.7188 5.4688 11.906 5.4688 4.2031 15.531 4.2031 4.9688 0 9.3594-0.73438 4.4062-0.71875 8.1094-2.1875z"/>
</defs>
<g transform="translate(121.6 918.45) scale(.1 -.1)">
<use xlink:href="#x"/>
<use x="63.378906" xlink:href="#f"/>
<use x="124.658203" xlink:href="#ae"/>
</g>
</g>
<g clip-path="url(#a)">
<defs>
<path id="u" d="m30.609 48.391q-7.2188 0-11.422-5.6406t-4.2031-15.453 4.1719-15.453q4.1875-5.6406 11.453-5.6406 7.1875 0 11.375 5.6562 4.2031 5.6719 4.2031 15.438 0 9.7188-4.2031 15.406-4.1875 5.6875-11.375 5.6875zm0 7.6094q11.719 0 18.406-7.625 6.7031-7.6094 6.7031-21.078 0-13.422-6.7031-21.078-6.6875-7.6406-18.406-7.6406-11.766 0-18.438 7.6406-6.6562 7.6562-6.6562 21.078 0 13.469 6.6562 21.078 6.6719 7.625 18.438 7.625z"/>
</defs>
<g transform="translate(172.79 918.45) scale(.1 -.1)">
<use xlink:href="#p"/>
<use x="39.208984" xlink:href="#u"/>
</g>
</g>
<g clip-path="url(#a)">
<defs>
<path id="ah" d="m48.688 27.297q0 9.9062-4.0781 15.547t-11.203 5.6406q-7.1406 0-11.219-5.6406t-4.0781-15.547 4.0781-15.547 11.219-5.6406q7.125 0 11.203 5.6406t4.0781 15.547zm-30.578 19.094q2.8438 4.875 7.1562 7.2344 4.3281 2.375 10.328 2.375 9.9688 0 16.188-7.9062 6.2344-7.9062 6.2344-20.797t-6.2344-20.812q-6.2188-7.9062-16.188-7.9062-6 0-10.328 2.375-4.3125 2.375-7.1562 7.25v-8.2031h-9.0312v75.984h9.0312z"/>
</defs>
<g transform="translate(218.92 918.45) scale(.1 -.1)">
<use xlink:href="#ah"/>
<use x="63.476562" xlink:href="#d"/>
</g>
</g>
<g clip-path="url(#a)">
<g transform="translate(263.24 918.45) scale(.1 -.1)">
<use xlink:href="#u"/>
<use x="61.181641" xlink:href="#g"/>
<use x="124.560547" xlink:href="#d"/>
</g>
</g>
<g clip-path="url(#a)">
<defs>
<path id="ax" d="m37.109 75.984v-7.4844h-8.5938q-4.8281 0-6.7188-1.9531-1.875-1.9531-1.875-7.0312v-4.8281h14.797v-6.9844h-14.797v-47.703h-9.0312v47.703h-8.5938v6.9844h8.5938v3.8125q0 9.125 4.25 13.297 4.25 4.1875 13.469 4.1875z"/>
</defs>
<g transform="translate(315.09 918.45) scale(.1 -.1)">
<use xlink:href="#u"/>
<use x="61.181641" xlink:href="#ax"/>
</g>
</g>
<g clip-path="url(#a)">
<g transform="translate(359.07 918.45) scale(.1 -.1)">
<use xlink:href="#p"/>
<use x="39.208984" xlink:href="#x"/>
<use x="102.587891" xlink:href="#d"/>
</g>
</g>
<g clip-path="url(#a)">
<defs>
<path id="y" d="m48.781 52.594v-8.4062q-3.8125 2.1094-7.6406 3.1562t-7.7344 1.0469q-8.75 0-13.594-5.5469-4.8281-5.5312-4.8281-15.547t4.8281-15.562q4.8438-5.5312 13.594-5.5312 3.9062 0 7.7344 1.0469t7.6406 3.1562v-8.3125q-3.7656-1.75-7.7969-2.625-4.0156-0.89062-8.5625-0.89062-12.359 0-19.641 7.7656-7.2656 7.7656-7.2656 20.953 0 13.375 7.3438 21.031 7.3594 7.6719 20.156 7.6719 4.1406 0 8.0938-0.85938 3.9531-0.84375 7.6719-2.5469z"/>
</defs>
<g transform="translate(399.69 918.45) scale(.1 -.1)">
<use xlink:href="#g"/>
<use x="63.378906" xlink:href="#h"/>
<use x="91.162109" xlink:href="#y"/>
<use x="146.142578" xlink:href="#d"/>
<use x="207.666016" xlink:href="#ae"/>
<use x="259.765625" xlink:href="#p"/>
</g>
</g>
<g clip-path="url(#a)">
<defs>
<path id="av" d="m18.109 8.2031v-29h-9.0312v75.484h9.0312v-8.2969q2.8438 4.875 7.1562 7.2344 4.3281 2.375 10.328 2.375 9.9688 0 16.188-7.9062 6.2344-7.9062 6.2344-20.797t-6.2344-20.812q-6.2188-7.9062-16.188-7.9062-6 0-10.328 2.375-4.3125 2.375-7.1562 7.25zm30.578 19.094q0 9.9062-4.0781 15.547t-11.203 5.6406q-7.1406 0-11.219-5.6406t-4.0781-15.547 4.0781-15.547 11.219-5.6406q7.125 0 11.203 5.6406t4.0781 15.547z"/>
<path id="au" d="m8.5 21.578v33.109h8.9844v-32.766q0-7.7656 3.0156-11.656 3.0312-3.875 9.0938-3.875 7.2656 0 11.484 4.6406 4.2344 4.6406 4.2344 12.656v31h8.9844v-54.688h-8.9844v8.4062q-3.2656-4.9844-7.5938-7.4062-4.3125-2.4219-10.031-2.4219-9.4219 0-14.312 5.8594-4.875 5.8594-4.875 17.141z"/>
</defs>
<g transform="translate(449.89 918.45) scale(.1 -.1)">
<use xlink:href="#av"/>
<use x="63.476562" xlink:href="#au"/>
<use x="126.855469" xlink:href="#ah"/>
<use x="190.332031" xlink:href="#ae"/>
</g>
</g>
<g clip-path="url(#a)">
<g transform="translate(499.22 918.45) scale(.1 -.1)">
<use xlink:href="#p"/>
<use x="39.208984" xlink:href="#x"/>
<use x="102.587891" xlink:href="#f"/>
<use x="163.867188" xlink:href="#p"/>
</g>
</g>
<g clip-path="url(#a)">
<g transform="translate(555.36 918.45) scale(.1 -.1)">
<use xlink:href="#h"/>
</g>
</g>
<g clip-path="url(#a)">
<defs>
<path id="an" d="m2.9844 54.688h9.5156l17.094-45.891 17.094 45.891h9.5156l-20.516-54.688h-12.203z"/>
</defs>
<g transform="translate(591.84 918.45) scale(.1 -.1)">
<use xlink:href="#x"/>
<use x="63.378906" xlink:href="#f"/>
<use x="124.658203" xlink:href="#an"/>
<use x="183.837891" xlink:href="#d"/>
</g>
</g>
<g clip-path="url(#a)">
<g transform="translate(638.98 918.45) scale(.1 -.1)">
<use xlink:href="#ah"/>
<use x="63.476562" xlink:href="#d"/>
<use x="125" xlink:href="#d"/>
<use x="186.523438" xlink:href="#g"/>
</g>
</g>
<g clip-path="url(#a)">
<g transform="translate(689.27 918.45) scale(.1 -.1)">
<use xlink:href="#h"/>
<use x="27.783203" xlink:href="#g"/>
<use x="91.162109" xlink:href="#p"/>
<use x="130.371094" xlink:href="#u"/>
</g>
</g>
<g clip-path="url(#a)">
<g transform="translate(741.66 918.45) scale(.1 -.1)">
<use xlink:href="#h"/>
<use x="27.783203" xlink:href="#g"/>
</g>
</g>
<g clip-path="url(#a)">
<g transform="translate(790.52 918.45) scale(.1 -.1)">
<use xlink:href="#f"/>
</g>
</g>
<g clip-path="url(#a)">
<defs>
<path id="ak" d="m45.406 27.984q0 9.7656-4.0312 15.125-4.0156 5.375-11.297 5.375-7.2188 0-11.25-5.375-4.0312-5.3594-4.0312-15.125 0-9.7188 4.0312-15.094t11.25-5.375q7.2812 0 11.297 5.375 4.0312 5.375 4.0312 15.094zm8.9844-21.203q0-13.953-6.2031-20.766-6.1875-6.8125-18.984-6.8125-4.7344 0-8.9375 0.70312t-8.1562 2.1719v8.7344q3.9531-2.1406 7.8125-3.1562 3.8594-1.0312 7.8594-1.0312 8.8438 0 13.234 4.6094t4.3906 13.938v4.4531q-2.7812-4.8438-7.125-7.2344t-10.406-2.3906q-10.047 0-16.203 7.6562-6.1562 7.6719-6.1562 20.328 0 12.688 6.1562 20.344 6.1562 7.6719 16.203 7.6719 6.0625 0 10.406-2.3906t7.125-7.2188v8.2969h8.9844z"/>
</defs>
<g transform="translate(830.16 918.45) scale(.1 -.1)">
<use xlink:href="#i"/>
<use x="27.783203" xlink:href="#u"/>
<use x="88.964844" xlink:href="#g"/>
<use x="152.34375" xlink:href="#ak"/>
</g>
</g>
<g clip-path="url(#a)">
<g transform="translate(877.02 918.45) scale(.1 -.1)">
<use xlink:href="#p"/>
<use x="39.208984" xlink:href="#h"/>
<use x="66.992188" xlink:href="#l"/>
<use x="164.404297" xlink:href="#d"/>
</g>
</g>
<g clip-path="url(#a)">
<defs>
<path id="at" d="m11.719 12.406h10.297v-8.4062l-8-15.625h-6.2969l4 15.625z"/>
</defs>
<g transform="translate(934.09 918.45) scale(.1 -.1)">
<use xlink:href="#at"/>
</g>
</g>
<g clip-path="url(#a)">
<g transform="translate(974.85 918.45) scale(.1 -.1)">
<use xlink:href="#p"/>
<use x="39.208984" xlink:href="#x"/>
<use x="102.587891" xlink:href="#d"/>
</g>
</g>
<g clip-path="url(#a)">
<defs>
<path id="af" d="m45.406 46.391v29.594h8.9844v-75.984h-8.9844v8.2031q-2.8281-4.875-7.1562-7.25-4.3125-2.375-10.375-2.375-9.9062 0-16.141 7.9062-6.2188 7.9219-6.2188 20.812t6.2188 20.797q6.2344 7.9062 16.141 7.9062 6.0625 0 10.375-2.375 4.3281-2.3594 7.1562-7.2344zm-30.609-19.094q0-9.9062 4.0781-15.547t11.203-5.6406 11.219 5.6406q4.1094 5.6406 4.1094 15.547t-4.1094 15.547q-4.0938 5.6406-11.219 5.6406t-11.203-5.6406-4.0781-15.547z"/>
</defs>
<g transform="translate(1016.3 918.45) scale(.1 -.1)">
<use xlink:href="#af"/>
<use x="63.476562" xlink:href="#d"/>
<use x="125" xlink:href="#y"/>
<use x="179.980469" xlink:href="#u"/>
<use x="241.162109" xlink:href="#j"/>
</g>
</g>
<g clip-path="url(#a)">
<g transform="translate(1073.8 918.45) scale(.1 -.1)">
<use xlink:href="#h"/>
<use x="27.783203" xlink:href="#ae"/>
</g>
</g>
<g clip-path="url(#a)">
<g transform="translate(1114.8 918.45) scale(.1 -.1)">
<use xlink:href="#g"/>
<use x="63.378906" xlink:href="#h"/>
<use x="91.162109" xlink:href="#y"/>
<use x="146.142578" xlink:href="#d"/>
</g>
</g>
<g clip-path="url(#a)">
<g transform="translate(1163.1 918.45) scale(.1 -.1)">
<use xlink:href="#f"/>
<use x="61.279297" xlink:href="#g"/>
<use x="124.658203" xlink:href="#af"/>
</g>
</g>
<g clip-path="url(#a)">
<g transform="translate(1216.5 918.45) scale(.1 -.1)">
<use xlink:href="#h"/>
<use x="27.783203" xlink:href="#p"/>
</g>
</g>
<g clip-path="url(#a)">
<g transform="translate(1258.4 918.45) scale(.1 -.1)">
<use xlink:href="#x"/>
<use x="63.378906" xlink:href="#f"/>
<use x="124.658203" xlink:href="#ae"/>
</g>
</g>
<g clip-path="url(#a)">
<g transform="translate(1311.6 918.45) scale(.1 -.1)">
<use xlink:href="#f"/>
</g>
</g>
<g clip-path="url(#a)">
<defs>
<path id="am" d="m32.172-5.0781q-3.7969-9.7656-7.4219-12.734-3.6094-2.9844-9.6562-2.9844h-7.1875v7.5156h5.2812q3.7031 0 5.75 1.7656 2.0625 1.75 4.5469 8.2969l1.6094 4.0938-22.109 53.812h9.5156l17.094-42.766 17.094 42.766h9.5156z"/>
</defs>
<g transform="translate(1348.1 918.45) scale(.1 -.1)">
<use xlink:href="#j"/>
<use x="41.082031" xlink:href="#d"/>
<use x="102.605469" xlink:href="#f"/>
<use x="163.884766" xlink:href="#i"/>
<use x="191.667969" xlink:href="#i"/>
<use x="219.451172" xlink:href="#am"/>
</g>
</g>
<g clip-path="url(#a)">
<g transform="translate(1399 918.45) scale(.1 -.1)">
<use xlink:href="#g"/>
<use x="63.378906" xlink:href="#h"/>
<use x="91.162109" xlink:href="#y"/>
<use x="146.142578" xlink:href="#d"/>
</g>
</g>
<g clip-path="url(#a)">
<g transform="translate(1439 918.45) scale(.1 -.1)">
<use xlink:href="#ak"/>
<use x="63.476562" xlink:href="#f"/>
<use x="124.755859" xlink:href="#j"/>
<use x="165.853516" xlink:href="#af"/>
<use x="229.330078" xlink:href="#d"/>
<use x="290.853516" xlink:href="#g"/>
</g>
</g>
<g clip-path="url(#a)">
<g transform="translate(1494.7 918.45) scale(.1 -.1)">
<use xlink:href="#f"/>
<use x="61.279297" xlink:href="#g"/>
<use x="124.658203" xlink:href="#af"/>
</g>
</g>
<g clip-path="url(#a)">
<g transform="translate(1548.4 918.45) scale(.1 -.1)">
<use xlink:href="#f"/>
</g>
</g>
<g clip-path="url(#a)">
<g transform="translate(1584 918.45) scale(.1 -.1)">
<use xlink:href="#i"/>
<use x="27.783203" xlink:href="#u"/>
<use x="88.964844" xlink:href="#an"/>
<use x="148.144531" xlink:href="#d"/>
<use x="209.667969" xlink:href="#i"/>
<use x="237.451172" xlink:href="#am"/>
</g>
</g>
<g clip-path="url(#a)">
<defs>
<path id="aw" d="m9.0781 75.984h9.0312v-44.875l26.812 23.578h11.469l-29-25.578 30.234-29.109h-11.719l-27.797 26.703v-26.703h-9.0312z"/>
</defs>
<g transform="translate(1626.6 918.45) scale(.1 -.1)">
<use xlink:href="#af"/>
<use x="63.476562" xlink:href="#d"/>
<use x="125" xlink:href="#y"/>
<use x="179.980469" xlink:href="#aw"/>
<use x="237.890625" xlink:href="#h"/>
<use x="265.673828" xlink:href="#g"/>
<use x="329.052734" xlink:href="#ak"/>
</g>
</g>
<g clip-path="url(#a)">
<g transform="translate(1682.3 918.45) scale(.1 -.1)">
<use xlink:href="#f"/>
<use x="61.279297" xlink:href="#j"/>
<use x="102.361328" xlink:href="#d"/>
<use x="163.884766" xlink:href="#f"/>
</g>
</g>
<g clip-path="url(#a)">
<defs>
<path id="e" d="m10.688 12.406h10.312v-12.406h-10.312z"/>
</defs>
<g transform="translate(1739.3 918.45) scale(.1 -.1)">
<use xlink:href="#e"/>
</g>
</g>
<g clip-path="url(#a)">
<defs>
<path id="c" d="m12.406 8.2969h16.109v55.625l-17.531-3.5156v8.9844l17.438 3.5156h9.8594v-64.609h16.109v-8.2969h-41.984z"/>
</defs>
<g transform="translate(1038.4 47.066) scale(.1 -.1)">
<use xlink:href="#c"/>
<use x="63.623047" xlink:href="#e"/>
<use x="95.410156" xlink:href="#c"/>
</g>
</g>
<g clip-path="url(#a)">
<defs>
<path id="o" d="m19.188 8.2969h34.422v-8.2969h-46.281v8.2969q5.6094 5.8125 15.297 15.594 9.7031 9.7969 12.188 12.641 4.7344 5.3125 6.6094 9 1.8906 3.6875 1.8906 7.25 0 5.8125-4.0781 9.4688-4.0781 3.6719-10.625 3.6719-4.6406 0-9.7969-1.6094-5.1406-1.6094-11-4.8906v9.9688q5.9531 2.3906 11.125 3.6094 5.1875 1.2188 9.4844 1.2188 11.328 0 18.062-5.6719 6.7344-5.6562 6.7344-15.125 0-4.5-1.6875-8.5312-1.6719-4.0156-6.125-9.4844-1.2188-1.4219-7.7656-8.1875-6.5312-6.7656-18.453-18.922z"/>
</defs>
<g transform="translate(618.24 165.33) scale(.1 -.1)">
<use xlink:href="#c"/>
<use x="63.623047" xlink:href="#e"/>
<use x="95.410156" xlink:href="#o"/>
</g>
</g>
<g clip-path="url(#a)">
<defs>
<path id="n" d="m40.578 39.312q7.0781-1.5156 11.047-6.3125 3.9844-4.7812 3.9844-11.812 0-10.781-7.4219-16.703-7.4219-5.9062-21.094-5.9062-4.5781 0-9.4375 0.90625t-10.031 2.7188v9.5156q4.0938-2.3906 8.9688-3.6094 4.8906-1.2188 10.219-1.2188 9.2656 0 14.125 3.6562t4.8594 10.641q0 6.4531-4.5156 10.078-4.5156 3.6406-12.562 3.6406h-8.5v8.1094h8.8906q7.2656 0 11.125 2.9062t3.8594 8.375q0 5.6094-3.9844 8.6094-3.9688 3.0156-11.391 3.0156-4.0625 0-8.7031-0.89062-4.6406-0.875-10.203-2.7188v8.7812q5.625 1.5625 10.531 2.3438t9.25 0.78125q11.234 0 17.766-5.1094 6.5469-5.0938 6.5469-13.781 0-6.0625-3.4688-10.234t-9.8594-5.7812z"/>
</defs>
<g transform="translate(122.49 815.31) scale(.1 -.1)">
<use xlink:href="#c"/>
<use x="63.623047" xlink:href="#e"/>
<use x="95.410156" xlink:href="#n"/>
</g>
</g>
<g clip-path="url(#a)">
<defs>
<path id="m" d="m37.797 64.312-24.906-38.922h24.906zm-2.5938 8.5938h12.406v-47.516h10.406v-8.2031h-10.406v-17.188h-9.8125v17.188h-32.906v9.5156z"/>
</defs>
<g transform="translate(75.119 815.31) scale(.1 -.1)">
<use xlink:href="#c"/>
<use x="63.623047" xlink:href="#e"/>
<use x="95.410156" xlink:href="#m"/>
</g>
</g>
<g clip-path="url(#a)">
<defs>
<path id="t" d="m10.797 72.906h38.719v-8.3125h-29.688v-17.859q2.1406 0.73438 4.2812 1.0938 2.1562 0.35938 4.3125 0.35938 12.203 0 19.328-6.6875 7.1406-6.6875 7.1406-18.109 0-11.766-7.3281-18.297-7.3281-6.5156-20.656-6.5156-4.5938 0-9.3594 0.78125-4.75 0.78125-9.8281 2.3438v9.9219q4.3906-2.3906 9.0781-3.5625t9.9062-1.1719q8.4531 0 13.375 4.4375 4.9375 4.4375 4.9375 12.062 0 7.6094-4.9375 12.047-4.9219 4.4531-13.375 4.4531-3.9531 0-7.8906-0.875-3.9219-0.875-8.0156-2.7344z"/>
</defs>
<g transform="translate(232.89 280.21) scale(.1 -.1)">
<use xlink:href="#c"/>
<use x="63.623047" xlink:href="#e"/>
<use x="95.410156" xlink:href="#t"/>
</g>
</g>
<g clip-path="url(#a)">
<defs>
<path id="ac" d="m33.016 40.375q-6.6406 0-10.531-4.5469-3.875-4.5312-3.875-12.438 0-7.8594 3.875-12.438 3.8906-4.5625 10.531-4.5625t10.516 4.5625q3.875 4.5781 3.875 12.438 0 7.9062-3.875 12.438-3.875 4.5469-10.516 4.5469zm19.578 30.922v-8.9844q-3.7188 1.75-7.5 2.6719-3.7812 0.9375-7.5 0.9375-9.7656 0-14.922-6.5938-5.1406-6.5938-5.875-19.922 2.875 4.25 7.2188 6.5156 4.3594 2.2656 9.5781 2.2656 10.984 0 17.359-6.6719 6.375-6.6562 6.375-18.125 0-11.234-6.6406-18.031-6.6406-6.7812-17.672-6.7812-12.656 0-19.344 9.6875-6.6875 9.7031-6.6875 28.109 0 17.281 8.2031 27.562t22.016 10.281q3.7188 0 7.5-0.73438t7.8906-2.1875z"/>
</defs>
<g transform="translate(264.59 815.31) scale(.1 -.1)">
<use xlink:href="#c"/>
<use x="63.623047" xlink:href="#e"/>
<use x="95.410156" xlink:href="#ac"/>
</g>
</g>
<g clip-path="url(#a)">
<defs>
<path id="ab" d="m8.2031 72.906h46.875v-4.2031l-26.469-68.703h-10.297l24.906 64.594h-35.016z"/>
</defs>
<g transform="translate(927.73 815.31) scale(.1 -.1)">
<use xlink:href="#c"/>
<use x="63.623047" xlink:href="#e"/>
<use x="95.410156" xlink:href="#ab"/>
</g>
</g>
<g clip-path="url(#a)">
<defs>
<path id="aa" d="m31.781 34.625q-7.0312 0-11.062-3.7656-4.0156-3.7656-4.0156-10.344 0-6.5938 4.0156-10.359 4.0312-3.7656 11.062-3.7656t11.078 3.7812q4.0625 3.7969 4.0625 10.344 0 6.5781-4.0312 10.344-4.0156 3.7656-11.109 3.7656zm-9.8594 4.1875q-6.3438 1.5625-9.8906 5.9062-3.5312 4.3594-3.5312 10.609 0 8.7344 6.2188 13.812 6.2344 5.0781 17.062 5.0781 10.891 0 17.094-5.0781t6.2031-13.812q0-6.25-3.5469-10.609-3.5312-4.3438-9.8281-5.9062 7.125-1.6562 11.094-6.5 3.9844-4.8281 3.9844-11.797 0-10.609-6.4688-16.281-6.4688-5.6562-18.531-5.6562-12.047 0-18.531 5.6562-6.4688 5.6719-6.4688 16.281 0 6.9688 4 11.797 4.0156 4.8438 11.141 6.5zm-3.6094 15.578q0-5.6562 3.5312-8.8281 3.5469-3.1719 9.9375-3.1719 6.3594 0 9.9375 3.1719 3.5938 3.1719 3.5938 8.8281 0 5.6719-3.5938 8.8438-3.5781 3.1719-9.9375 3.1719-6.3906 0-9.9375-3.1719-3.5312-3.1719-3.5312-8.8438z"/>
</defs>
<g transform="translate(1061.9 607.6) scale(.1 -.1)">
<use xlink:href="#c"/>
<use x="63.623047" xlink:href="#e"/>
<use x="95.410156" xlink:href="#aa"/>
</g>
</g>
<g clip-path="url(#a)">
<defs>
<path id="z" d="m10.984 1.5156v8.9844q3.7188-1.7656 7.5156-2.6875 3.8125-0.92188 7.4844-0.92188 9.7656 0 14.906 6.5625 5.1562 6.5625 5.8906 19.953-2.8281-4.2031-7.1875-6.4531-4.3438-2.25-9.6094-2.25-10.938 0-17.312 6.6094-6.375 6.625-6.375 18.109 0 11.219 6.6406 18 6.6406 6.7969 17.672 6.7969 12.656 0 19.312-9.7031 6.6719-9.6875 6.6719-28.141 0-17.234-8.1875-27.516-8.1719-10.281-21.984-10.281-3.7188 0-7.5312 0.73438-3.7969 0.73438-7.9062 2.2031zm19.625 30.906q6.6406 0 10.516 4.5312 3.8906 4.5469 3.8906 12.469 0 7.8594-3.8906 12.422-3.875 4.5625-10.516 4.5625t-10.516-4.5625-3.875-12.422q0-7.9219 3.875-12.469 3.875-4.5312 10.516-4.5312z"/>
</defs>
<g transform="translate(1117.2 815.31) scale(.1 -.1)">
<use xlink:href="#c"/>
<use x="63.623047" xlink:href="#e"/>
<use x="95.410156" xlink:href="#z"/>
</g>
</g>
<g clip-path="url(#a)">
<defs>
<path id="ad" d="m31.781 66.406q-7.6094 0-11.453-7.5-3.8281-7.4844-3.8281-22.531 0-14.984 3.8281-22.484 3.8438-7.5 11.453-7.5 7.6719 0 11.5 7.5 3.8438 7.5 3.8438 22.484 0 15.047-3.8438 22.531-3.8281 7.5-11.5 7.5zm0 7.8125q12.266 0 18.734-9.7031 6.4688-9.6875 6.4688-28.141 0-18.406-6.4688-28.109-6.4688-9.6875-18.734-9.6875-12.25 0-18.719 9.6875-6.4688 9.7031-6.4688 28.109 0 18.453 6.4688 28.141 6.4688 9.7031 18.719 9.7031z"/>
</defs>
<g transform="translate(1305.9 392) scale(.1 -.1)">
<use xlink:href="#c"/>
<use x="63.623047" xlink:href="#e"/>
<use x="95.410156" xlink:href="#c"/>
<use x="159.033203" xlink:href="#ad"/>
</g>
</g>
<g clip-path="url(#a)">
<g transform="translate(1256.1 815.31) scale(.1 -.1)">
<use xlink:href="#c"/>
<use x="63.623047" xlink:href="#e"/>
<use x="95.410156" xlink:href="#c"/>
<use x="159.033203" xlink:href="#c"/>
</g>
</g>
<g clip-path="url(#a)">
<g transform="translate(1729.8 815.31) scale(.1 -.1)">
<use xlink:href="#c"/>
<use x="63.623047" xlink:href="#e"/>
<use x="95.410156" xlink:href="#c"/>
<use x="159.033203" xlink:href="#o"/>
</g>
</g>
<g clip-path="url(#a)">
<g transform="translate(166.67 815.31) scale(.1 -.1)">
<use xlink:href="#c"/>
<use x="63.623047" xlink:href="#e"/>
<use x="95.410156" xlink:href="#c"/>
<use x="159.033203" xlink:href="#n"/>
</g>
</g>
<g clip-path="url(#a)">
<g transform="translate(214.04 815.31) scale(.1 -.1)">
<use xlink:href="#c"/>
<use x="63.623047" xlink:href="#e"/>
<use x="95.410156" xlink:href="#c"/>
<use x="159.033203" xlink:href="#m"/>
</g>
</g>
<g clip-path="url(#a)">
<g transform="translate(434.5 392) scale(.1 -.1)">
<use xlink:href="#c"/>
<use x="63.623047" xlink:href="#e"/>
<use x="95.410156" xlink:href="#c"/>
<use x="159.033203" xlink:href="#t"/>
</g>
</g>
<g clip-path="url(#a)">
<g transform="translate(450.88 815.31) scale(.1 -.1)">
<use xlink:href="#c"/>
<use x="63.623047" xlink:href="#e"/>
<use x="95.410156" xlink:href="#c"/>
<use x="159.033203" xlink:href="#ac"/>
</g>
</g>
<g clip-path="url(#a)">
<g transform="translate(995.6 712.17) scale(.1 -.1)">
<use xlink:href="#c"/>
<use x="63.623047" xlink:href="#e"/>
<use x="95.410156" xlink:href="#c"/>
<use x="159.033203" xlink:href="#ab"/>
</g>
</g>
<g clip-path="url(#a)">
<g transform="translate(1019.3 815.31) scale(.1 -.1)">
<use xlink:href="#c"/>
<use x="63.623047" xlink:href="#e"/>
<use x="95.410156" xlink:href="#c"/>
<use x="159.033203" xlink:href="#aa"/>
</g>
</g>
<g clip-path="url(#a)">
<g transform="translate(1066.7 815.31) scale(.1 -.1)">
<use xlink:href="#c"/>
<use x="63.623047" xlink:href="#e"/>
<use x="95.410156" xlink:href="#c"/>
<use x="159.033203" xlink:href="#z"/>
</g>
</g>
<g clip-path="url(#a)">
<g transform="translate(1161.4 815.31) scale(.1 -.1)">
<use xlink:href="#c"/>
<use x="63.623047" xlink:href="#e"/>
<use x="95.410156" xlink:href="#o"/>
<use x="159.033203" xlink:href="#ad"/>
</g>
</g>
<g clip-path="url(#a)">
<g transform="translate(1208.8 815.31) scale(.1 -.1)">
<use xlink:href="#c"/>
<use x="63.623047" xlink:href="#e"/>
<use x="95.410156" xlink:href="#o"/>
<use x="159.033203" xlink:href="#c"/>
</g>
</g>
<g clip-path="url(#a)">
<g transform="translate(1452.7 501.01) scale(.1 -.1)">
<use xlink:href="#c"/>
<use x="63.623047" xlink:href="#e"/>
<use x="95.410156" xlink:href="#o"/>
<use x="159.033203" xlink:href="#o"/>
</g>
</g>
<g clip-path="url(#a)">
<g transform="translate(1445.6 815.31) scale(.1 -.1)">
<use xlink:href="#c"/>
<use x="63.623047" xlink:href="#e"/>
<use x="95.410156" xlink:href="#o"/>
<use x="159.033203" xlink:href="#n"/>
</g>
</g>
<g clip-path="url(#a)">
<g transform="translate(308.78 815.31) scale(.1 -.1)">
<use xlink:href="#c"/>
<use x="63.623047" xlink:href="#e"/>
<use x="95.410156" xlink:href="#o"/>
<use x="159.033203" xlink:href="#m"/>
</g>
</g>
<g clip-path="url(#a)">
<g transform="translate(356.14 815.31) scale(.1 -.1)">
<use xlink:href="#c"/>
<use x="63.623047" xlink:href="#e"/>
<use x="95.410156" xlink:href="#o"/>
<use x="159.033203" xlink:href="#t"/>
</g>
</g>
<g clip-path="url(#a)">
<g transform="translate(427.19 712.17) scale(.1 -.1)">
<use xlink:href="#c"/>
<use x="63.623047" xlink:href="#e"/>
<use x="95.410156" xlink:href="#o"/>
<use x="159.033203" xlink:href="#ac"/>
</g>
</g>
<g clip-path="url(#a)">
<g transform="translate(403.51 815.31) scale(.1 -.1)">
<use xlink:href="#c"/>
<use x="63.623047" xlink:href="#e"/>
<use x="95.410156" xlink:href="#o"/>
<use x="159.033203" xlink:href="#ab"/>
</g>
</g>
<g clip-path="url(#a)">
<g transform="translate(629.49 501.01) scale(.1 -.1)">
<use xlink:href="#c"/>
<use x="63.623047" xlink:href="#e"/>
<use x="95.410156" xlink:href="#o"/>
<use x="159.033203" xlink:href="#aa"/>
</g>
</g>
<g clip-path="url(#a)">
<g transform="translate(498.24 815.31) scale(.1 -.1)">
<use xlink:href="#c"/>
<use x="63.623047" xlink:href="#e"/>
<use x="95.410156" xlink:href="#o"/>
<use x="159.033203" xlink:href="#z"/>
</g>
</g>
<g clip-path="url(#a)">
<g transform="translate(971.92 815.31) scale(.1 -.1)">
<use xlink:href="#c"/>
<use x="63.623047" xlink:href="#e"/>
<use x="95.410156" xlink:href="#n"/>
<use x="159.033203" xlink:href="#ad"/>
</g>
</g>
<g clip-path="url(#a)">
<g transform="translate(1303.5 815.31) scale(.1 -.1)">
<use xlink:href="#c"/>
<use x="63.623047" xlink:href="#e"/>
<use x="95.410156" xlink:href="#n"/>
<use x="159.033203" xlink:href="#c"/>
</g>
</g>
<g clip-path="url(#a)">
<g transform="translate(1398.2 712.17) scale(.1 -.1)">
<use xlink:href="#c"/>
<use x="63.623047" xlink:href="#e"/>
<use x="95.410156" xlink:href="#n"/>
<use x="159.033203" xlink:href="#o"/>
</g>
</g>
<g clip-path="url(#a)">
<g transform="translate(1398.2 815.31) scale(.1 -.1)">
<use xlink:href="#c"/>
<use x="63.623047" xlink:href="#e"/>
<use x="95.410156" xlink:href="#n"/>
<use x="159.033203" xlink:href="#n"/>
</g>
</g>
<g clip-path="url(#a)">
<g transform="translate(1493 815.31) scale(.1 -.1)">
<use xlink:href="#c"/>
<use x="63.623047" xlink:href="#e"/>
<use x="95.410156" xlink:href="#n"/>
<use x="159.033203" xlink:href="#m"/>
</g>
</g>
<g clip-path="url(#a)">
<g transform="translate(1623.2 607.6) scale(.1 -.1)">
<use xlink:href="#c"/>
<use x="63.623047" xlink:href="#e"/>
<use x="95.410156" xlink:href="#n"/>
<use x="159.033203" xlink:href="#t"/>
</g>
</g>
<g clip-path="url(#a)">
<g transform="translate(1682.4 815.31) scale(.1 -.1)">
<use xlink:href="#c"/>
<use x="63.623047" xlink:href="#e"/>
<use x="95.410156" xlink:href="#n"/>
<use x="159.033203" xlink:href="#ac"/>
</g>
</g>
<g clip-path="url(#a)">
<g transform="translate(545.61 815.31) scale(.1 -.1)">
<use xlink:href="#c"/>
<use x="63.623047" xlink:href="#e"/>
<use x="95.410156" xlink:href="#n"/>
<use x="159.033203" xlink:href="#ab"/>
</g>
</g>
<g clip-path="url(#a)">
<g transform="translate(592.98 815.31) scale(.1 -.1)">
<use xlink:href="#c"/>
<use x="63.623047" xlink:href="#e"/>
<use x="95.410156" xlink:href="#n"/>
<use x="159.033203" xlink:href="#aa"/>
</g>
</g>
<g clip-path="url(#a)">
<g transform="translate(640.35 815.31) scale(.1 -.1)">
<use xlink:href="#c"/>
<use x="63.623047" xlink:href="#e"/>
<use x="95.410156" xlink:href="#n"/>
<use x="159.033203" xlink:href="#z"/>
</g>
</g>
<g clip-path="url(#a)">
<g transform="translate(687.71 815.31) scale(.1 -.1)">
<use xlink:href="#c"/>
<use x="63.623047" xlink:href="#e"/>
<use x="95.410156" xlink:href="#m"/>
<use x="159.033203" xlink:href="#ad"/>
</g>
</g>
<g clip-path="url(#a)">
<g transform="translate(812.05 607.6) scale(.1 -.1)">
<use xlink:href="#c"/>
<use x="63.623047" xlink:href="#e"/>
<use x="95.410156" xlink:href="#m"/>
<use x="159.033203" xlink:href="#c"/>
</g>
</g>
<g clip-path="url(#a)">
<g transform="translate(877.18 815.31) scale(.1 -.1)">
<use xlink:href="#c"/>
<use x="63.623047" xlink:href="#e"/>
<use x="95.410156" xlink:href="#m"/>
<use x="159.033203" xlink:href="#o"/>
</g>
</g>
<g clip-path="url(#a)">
<g transform="translate(1350.9 815.31) scale(.1 -.1)">
<use xlink:href="#c"/>
<use x="63.623047" xlink:href="#e"/>
<use x="95.410156" xlink:href="#m"/>
<use x="159.033203" xlink:href="#n"/>
</g>
</g>
<g clip-path="url(#a)">
<g transform="translate(1540.3 815.31) scale(.1 -.1)">
<use xlink:href="#c"/>
<use x="63.623047" xlink:href="#e"/>
<use x="95.410156" xlink:href="#m"/>
<use x="159.033203" xlink:href="#m"/>
</g>
</g>
<g clip-path="url(#a)">
<g transform="translate(1635.1 712.17) scale(.1 -.1)">
<use xlink:href="#c"/>
<use x="63.623047" xlink:href="#e"/>
<use x="95.410156" xlink:href="#m"/>
<use x="159.033203" xlink:href="#t"/>
</g>
</g>
<g clip-path="url(#a)">
<g transform="translate(1587.7 815.31) scale(.1 -.1)">
<use xlink:href="#c"/>
<use x="63.623047" xlink:href="#e"/>
<use x="95.410156" xlink:href="#m"/>
<use x="159.033203" xlink:href="#ac"/>
</g>
</g>
<g clip-path="url(#a)">
<g transform="translate(1635.1 815.31) scale(.1 -.1)">
<use xlink:href="#c"/>
<use x="63.623047" xlink:href="#e"/>
<use x="95.410156" xlink:href="#m"/>
<use x="159.033203" xlink:href="#ab"/>
</g>
</g>
<g clip-path="url(#a)">
<g transform="translate(735.08 815.31) scale(.1 -.1)">
<use xlink:href="#c"/>
<use x="63.623047" xlink:href="#e"/>
<use x="95.410156" xlink:href="#m"/>
<use x="159.033203" xlink:href="#aa"/>
</g>
</g>
<g clip-path="url(#a)">
<g transform="translate(782.45 815.31) scale(.1 -.1)">
<use xlink:href="#c"/>
<use x="63.623047" xlink:href="#e"/>
<use x="95.410156" xlink:href="#m"/>
<use x="159.033203" xlink:href="#z"/>
</g>
</g>
<g clip-path="url(#a)">
<g transform="translate(853.5 712.17) scale(.1 -.1)">
<use xlink:href="#c"/>
<use x="63.623047" xlink:href="#e"/>
<use x="95.410156" xlink:href="#t"/>
<use x="159.033203" xlink:href="#ad"/>
</g>
</g>
<g clip-path="url(#a)">
<g transform="translate(829.82 815.31) scale(.1 -.1)">
<use xlink:href="#c"/>
<use x="63.623047" xlink:href="#e"/>
<use x="95.410156" xlink:href="#t"/>
<use x="159.033203" xlink:href="#c"/>
</g>
</g>
<defs>
<clipPath id="a">
<rect width="1824" height="960"/>
</clipPath>
</defs>
</svg>
