<?xml version="1.0" encoding="UTF-8"?>
<!DOCTYPE svg  PUBLIC '-//W3C//DTD SVG 1.1//EN'  'http://www.w3.org/Graphics/SVG/1.1/DTD/svg11.dtd'>
<svg width="1874.7pt" height="986.67pt" version="1.1" viewBox="0 0 1874.7 986.67" xmlns="http://www.w3.org/2000/svg" xmlns:xlink="http://www.w3.org/1999/xlink">
<defs>
<style type="text/css">*{stroke-linecap:butt;stroke-linejoin:round;}</style>
</defs>
<path d="m0 986.67h1874.7v-986.67h-1874.7z" fill="#fff"/>
<g fill="none" stroke="#000">
<path d="m803.73 45.623-225.61 399.11" clip-path="url(#a)"/>
<path d="m803.73 45.623-303.89 772.79" clip-path="url(#a)"/>
<path d="m803.73 45.623 529.5 136.58" clip-path="url(#a)"/>
<path d="m578.13 444.73-262.5 373.68" clip-path="url(#a)"/>
<path d="m578.13 444.73-423.68 126.73" clip-path="url(#a)"/>
<path d="m578.13 444.73-308.55 373.68" clip-path="url(#a)"/>
<path d="m578.13 444.73-170.39 251.06" clip-path="url(#a)"/>
<path d="m578.13 444.73 1165.1 373.68" clip-path="url(#a)"/>
<path d="m315.63 818.42v122.63" clip-path="url(#a)"/>
<path d="m154.44 571.46 69.078 246.96" clip-path="url(#a)"/>
<path d="m154.44 571.46-69.078 246.96" clip-path="url(#a)"/>
<path d="m154.44 571.46v124.33" clip-path="url(#a)"/>
<path d="m223.52 818.42v122.63" clip-path="url(#a)"/>
<path d="m269.57 818.42v122.63" clip-path="url(#a)"/>
<path d="m407.73 695.79v122.63" clip-path="url(#a)"/>
<path d="m407.73 695.79-46.052 122.63" clip-path="url(#a)"/>
<path d="m407.73 695.79 46.052 122.63" clip-path="url(#a)"/>
<path d="m407.73 818.42v122.63" clip-path="url(#a)"/>
<path d="m499.84 818.42v122.63" clip-path="url(#a)"/>
<path d="m1333.2 182.21 87.653 636.21" clip-path="url(#a)"/>
<path d="m1333.2 182.21-493.22 132.91" clip-path="url(#a)"/>
<path d="m1333.2 182.21 133.71 636.21" clip-path="url(#a)"/>
<path d="m1333.2 182.21 271.86 513.58" clip-path="url(#a)"/>
<path d="m1420.9 818.42v122.63" clip-path="url(#a)"/>
<path d="m1743.2 818.42v122.63" clip-path="url(#a)"/>
<path d="m85.365 818.42v122.63" clip-path="url(#a)"/>
<path d="m154.44 695.79 23.026 122.63" clip-path="url(#a)"/>
<path d="m154.44 695.79-23.026 122.63" clip-path="url(#a)"/>
<path d="m177.47 818.42v122.63" clip-path="url(#a)"/>
<path d="m361.68 818.42v122.63" clip-path="url(#a)"/>
<path d="m453.78 818.42v122.63" clip-path="url(#a)"/>
<path d="m840.01 315.12-248.07 503.3" clip-path="url(#a)"/>
<path d="m840.01 315.12-294.12 503.3" clip-path="url(#a)"/>
<path d="m840.01 315.12-163.64 129.61" clip-path="url(#a)"/>
<path d="m840.01 315.12 212.45 503.3" clip-path="url(#a)"/>
<path d="m840.01 315.12 493.37 256.34" clip-path="url(#a)"/>
<path d="m591.94 818.42v122.63" clip-path="url(#a)"/>
<path d="m1466.9 818.42v122.63" clip-path="url(#a)"/>
<path d="m1605.1 695.79 46.052 122.63" clip-path="url(#a)"/>
<path d="m1605.1 695.79-92.105 122.63" clip-path="url(#a)"/>
<path d="m1605.1 695.79-46.052 122.63" clip-path="url(#a)"/>
<path d="m1605.1 695.79v122.63" clip-path="url(#a)"/>
<path d="m1605.1 695.79 92.105 122.63" clip-path="url(#a)"/>
<path d="m1651.1 818.42v122.63" clip-path="url(#a)"/>
<path d="m131.42 818.42v122.63" clip-path="url(#a)"/>
<path d="m545.89 818.42v122.63" clip-path="url(#a)"/>
<path d="m676.37 444.73-84.429 373.68" clip-path="url(#a)" stroke-dasharray="3.7,1.6"/>
<path d="m676.37 444.73 7.6754 373.68" clip-path="url(#a)"/>
<path d="m676.37 444.73-38.377 373.68" clip-path="url(#a)"/>
<path d="m676.37 444.73 115.13 126.73" clip-path="url(#a)"/>
<path d="m684.05 818.42v122.63" clip-path="url(#a)"/>
<path d="m1052.5 818.42v122.63" clip-path="url(#a)"/>
<path d="m1333.4 571.46-96.71 246.96" clip-path="url(#a)"/>
<path d="m1333.4 571.46-211.84 246.96" clip-path="url(#a)"/>
<path d="m1333.4 571.46 455.92 369.58" clip-path="url(#a)"/>
<path d="m1333.4 571.46-142.76 246.96" clip-path="url(#a)"/>
<path d="m1333.4 571.46-4.6052 124.33" clip-path="url(#a)"/>
<path d="m1236.7 818.42v122.63" clip-path="url(#a)"/>
<path d="m1513 818.42v122.63" clip-path="url(#a)"/>
<path d="m1559 818.42v122.63" clip-path="url(#a)"/>
<path d="m1605.1 818.42v122.63" clip-path="url(#a)"/>
<path d="m1697.2 818.42v122.63" clip-path="url(#a)"/>
<path d="m637.99 818.42v122.63" clip-path="url(#a)"/>
<path d="m791.5 571.46-199.56 246.96" clip-path="url(#a)" stroke-dasharray="3.7,1.6"/>
<path d="m791.5 571.46 76.754 246.96" clip-path="url(#a)"/>
<path d="m791.5 571.46-61.403 246.96" clip-path="url(#a)"/>
<path d="m791.5 571.46-15.351 246.96" clip-path="url(#a)"/>
<path d="m791.5 571.46 30.702 246.96" clip-path="url(#a)"/>
<path d="m791.5 571.46 168.86 124.33" clip-path="url(#a)"/>
<path d="m868.25 818.42v122.63" clip-path="url(#a)"/>
<path d="m1121.5 818.42-23.026 122.63" clip-path="url(#a)"/>
<path d="m1121.5 818.42 23.026 122.63" clip-path="url(#a)"/>
<path d="m1190.6 818.42v122.63" clip-path="url(#a)"/>
<path d="m1328.8 695.79 46.052 122.63" clip-path="url(#a)"/>
<path d="m1328.8 695.79-46.052 122.63" clip-path="url(#a)"/>
<path d="m1328.8 695.79v122.63" clip-path="url(#a)"/>
<path d="m1374.8 818.42v122.63" clip-path="url(#a)"/>
<path d="m730.1 818.42v122.63" clip-path="url(#a)"/>
<path d="m776.15 818.42v122.63" clip-path="url(#a)"/>
<path d="m822.2 818.42v122.63" clip-path="url(#a)"/>
<path d="m960.36 695.79 46.052 122.63" clip-path="url(#a)"/>
<path d="m960.36 695.79-46.052 122.63" clip-path="url(#a)"/>
<path d="m960.36 695.79v122.63" clip-path="url(#a)"/>
<path d="m1006.4 818.42v122.63" clip-path="url(#a)"/>
<path d="m1282.7 818.42v122.63" clip-path="url(#a)"/>
<path d="m1328.8 818.42v122.63" clip-path="url(#a)"/>
<path d="m914.31 818.42v122.63" clip-path="url(#a)"/>
<path d="m960.36 818.42v122.63" clip-path="url(#a)"/>
</g>
<path d="m694.91 250.88 2.9606-5.2374q1.181-2.0893-0.90828-3.2703l-6.7402-3.81q-2.0893-1.181-3.2703 0.90828l-2.9606 5.2374q-1.181 2.0893 0.90828 3.2703l6.7402 3.81q2.0893 1.181 3.2703-0.90828z" clip-path="url(#a)" fill="#fff" stroke="#fff"/>
<g clip-path="url(#a)">
<defs>
<path id="ao" d="m9.8125 72.906h9.8594v-29.891h35.844v29.891h9.8594v-72.906h-9.8594v34.719h-35.844v-34.719h-9.8594z"/>
</defs>
<g transform="translate(691.37 248.88) rotate(-60.522) scale(.08 -.08)">
<use xlink:href="#ao"/>
</g>
</g>
<path d="m656.8 436.39 1.6313-4.1483q0.87831-2.2335-1.3552-3.1118l-7.2054-2.8335q-2.2335-0.87831-3.1118 1.3552l-1.6313 4.1483q-0.87831 2.2335 1.3552 3.1118l7.2054 2.8335q2.2335 0.87831 3.1118-1.3552z" clip-path="url(#a)" fill="#fff" stroke="#fff"/>
<g clip-path="url(#a)">
<defs>
<path id="at" d="m9.8125 72.906h9.8594v-64.609h35.5v-8.2969h-45.359z"/>
</defs>
<g transform="translate(653.02 434.9) rotate(-68.533) scale(.08 -.08)">
<use xlink:href="#at"/>
</g>
</g>
<path d="m1064 119.24 5.8256 1.5027q2.3239 0.59946 2.9234-1.7245l1.9339-7.4971q0.59946-2.3239-1.7245-2.9234l-5.8256-1.5027q-2.3239-0.59946-2.9234 1.7245l-1.9339 7.4971q-0.59946 2.3239 1.7245 2.9234z" clip-path="url(#a)" fill="#fff" stroke="#fff"/>
<g clip-path="url(#a)">
<g transform="translate(1065 115.3) rotate(14.464) scale(.08 -.08)">
<use xlink:href="#ao"/>
</g>
</g>
<path d="m450.62 637.15 2.7728-3.9472q1.3796-1.9639-0.58433-3.3434l-6.3356-4.4505q-1.9639-1.3796-3.3434 0.58433l-2.7728 3.9472q-1.3796 1.9639 0.58433 3.3434l6.3356 4.4505q1.9639 1.3796 3.3434-0.58433z" clip-path="url(#a)" fill="#fff" stroke="#fff"/>
<g clip-path="url(#a)">
<defs>
<path id="ag" d="m19.672 64.797v-27.391h12.406q6.8906 0 10.641 3.5625 3.7656 3.5625 3.7656 10.156 0 6.5469-3.7656 10.109-3.75 3.5625-10.641 3.5625zm-9.8594 8.1094h22.266q12.266 0 18.531-5.5469 6.2812-5.5469 6.2812-16.234 0-10.797-6.2812-16.312-6.2656-5.5156-18.531-5.5156h-12.406v-29.297h-9.8594z"/>
</defs>
<g transform="translate(447.3 634.82) rotate(-54.913) scale(.08 -.08)">
<use xlink:href="#ag"/>
</g>
</g>
<path d="m365.46 514.89 5.243-1.5682q2.2993-0.68775 1.6116-2.9871l-2.2187-7.4178q-0.68775-2.2993-2.9871-1.6116l-5.243 1.5682q-2.2993 0.68775-1.6116 2.9871l2.2187 7.4178q0.68775 2.2993 2.9871 1.6116z" clip-path="url(#a)" fill="#fff" stroke="#fff"/>
<g clip-path="url(#a)">
<defs>
<path id="r" d="m34.188 63.188-13.391-36.281h26.812zm-5.5781 9.7188h11.188l27.781-72.906h-10.25l-6.6406 18.703h-32.859l-6.6406-18.703h-10.406z"/>
</defs>
<g transform="translate(364.3 511) rotate(-16.652) scale(.08 -.08)">
<use xlink:href="#r"/>
</g>
</g>
<path d="m426.72 637.94 3.9221-4.75q1.5281-1.8507-0.32257-3.3788l-5.9703-4.9297q-1.8507-1.5281-3.3788 0.32257l-3.9221 4.75q-1.5281 1.8507 0.32257 3.3787l5.9703 4.9297q1.8507 1.5281 3.3787-0.32257z" clip-path="url(#a)" fill="#fff" stroke="#fff"/>
<g clip-path="url(#a)">
<defs>
<path id="al" d="m19.672 64.797v-56.688h11.922q15.094 0 22.094 6.8281 7 6.8438 7 21.594 0 14.641-7 21.453t-22.094 6.8125zm-9.8594 8.1094h20.266q21.188 0 31.094-8.8125 9.9219-8.8125 9.9219-27.562 0-18.859-9.9688-27.703-9.9531-8.8281-31.047-8.8281h-20.266z"/>
</defs>
<g transform="translate(423.59 635.36) rotate(-50.454) scale(.08 -.08)">
<use xlink:href="#al"/>
</g>
</g>
<path d="m496.39 576.33 3.4593-5.0969q1.3478-1.9858-0.63804-3.3336l-6.4063-4.348q-1.9858-1.3478-3.3336 0.63804l-3.4593 5.0969q-1.3478 1.9858 0.63804 3.3336l6.4063 4.348q1.9858 1.3478 3.3336-0.63804z" clip-path="url(#a)" fill="#fff" stroke="#fff"/>
<g clip-path="url(#a)">
<g transform="translate(493.03 574.05) rotate(-55.835) scale(.08 -.08)">
<use xlink:href="#al"/>
</g>
</g>
<path d="m1156 636.65 5.5753 1.7881q2.2853 0.73296 3.0183-1.5524l2.3646-7.3726q0.73296-2.2853-1.5524-3.0183l-5.5753-1.7881q-2.2853-0.73296-3.0183 1.5524l-2.3646 7.3726q-0.73296 2.2853 1.5524 3.0183z" clip-path="url(#a)" fill="#fff" stroke="#fff"/>
<g clip-path="url(#a)">
<defs>
<path id="ae" d="m8.6875 72.906h9.9219v-44.297q0-11.719 4.2344-16.875 4.25-5.1406 13.781-5.1406 9.4688 0 13.719 5.1406 4.25 5.1562 4.25 16.875v44.297h9.9062v-45.516q0-14.25-7.0625-21.531-7.0469-7.2812-20.812-7.2812-13.828 0-20.891 7.2812-7.0469 7.2812-7.0469 21.531z"/>
</defs>
<g transform="translate(1157.2 632.78) rotate(17.782) scale(.08 -.08)">
<use xlink:href="#ae"/>
</g>
</g>
<path d="m309.36 862.09v35.285q0 2.4 2.4 2.4h7.7425q2.4 0 2.4-2.4v-35.285q0-2.4-2.4-2.4h-7.7425q-2.4 0-2.4 2.4z" clip-path="url(#a)" fill="#fff" stroke="#fff"/>
<g clip-path="url(#a)">
<defs>
<path id="k" d="m-0.29688 72.906h61.672v-8.3125h-25.875v-64.594h-9.9062v64.594h-25.891z"/>
<path id="d" d="m56.203 29.594v-4.3906h-41.312q0.59375-9.2812 5.5938-14.141t13.938-4.8594q5.1719 0 10.031 1.2656t9.6562 3.8125v-8.5q-4.8438-2.0469-9.9219-3.125t-10.297-1.0781q-13.094 0-20.734 7.6094-7.6406 7.625-7.6406 20.625 0 13.422 7.25 21.297 7.25 7.8906 19.562 7.8906 11.031 0 17.453-7.1094 6.4219-7.0938 6.4219-19.297zm-8.9844 2.6406q-0.09375 7.3594-4.125 11.75-4.0312 4.4062-10.672 4.4062-7.5156 0-12.031-4.25t-5.2031-11.969z"/>
<path id="j" d="m41.109 46.297q-1.5156 0.875-3.2969 1.2812-1.7812 0.42188-3.9219 0.42188-7.625 0-11.703-4.9531t-4.0781-14.234v-28.812h-9.0312v54.688h9.0312v-8.5q2.8438 4.9844 7.375 7.3906 4.5469 2.4219 11.047 2.4219 0.92188 0 2.0469-0.125 1.125-0.10938 2.4844-0.35938z"/>
<path id="i" d="m52 44.188q3.375 6.0625 8.0625 8.9375t11.031 2.875q8.5469 0 13.188-5.9844 4.6406-5.9688 4.6406-17v-33.016h-9.0312v32.719q0 7.8594-2.7969 11.656-2.7812 3.8125-8.4844 3.8125-6.9844 0-11.047-4.6406-4.0469-4.625-4.0469-12.641v-30.906h-9.0312v32.719q0 7.9062-2.7812 11.688t-8.5938 3.7812q-6.8906 0-10.953-4.6562-4.0469-4.6562-4.0469-12.625v-30.906h-9.0312v54.688h9.0312v-8.5q3.0781 5.0312 7.375 7.4219t10.203 2.3906q5.9688 0 10.141-3.0312 4.1719-3.0156 6.1719-8.7812z"/>
<path id="h" d="m9.4219 54.688h8.9844v-54.688h-8.9844zm0 21.297h8.9844v-11.391h-8.9844z"/>
<path id="f" d="m54.891 33.016v-33.016h-8.9844v32.719q0 7.7656-3.0312 11.609-3.0312 3.8594-9.0781 3.8594-7.2812 0-11.484-4.6406-4.2031-4.625-4.2031-12.641v-30.906h-9.0312v54.688h9.0312v-8.5q3.2344 4.9375 7.5938 7.375 4.375 2.4375 10.094 2.4375 9.4219 0 14.25-5.8281 4.8438-5.8281 4.8438-17.156z"/>
<path id="l" d="m34.281 27.484q-10.891 0-15.094-2.4844t-4.2031-8.5q0-4.7812 3.1562-7.5938 3.1562-2.7969 8.5625-2.7969 7.4844 0 12 5.2969t4.5156 14.078v2zm17.922 3.7188v-31.203h-8.9844v8.2969q-3.0781-4.9688-7.6719-7.3438t-11.234-2.375q-8.3906 0-13.359 4.7188-4.9531 4.7188-4.9531 12.625 0 9.2188 6.1719 13.906 6.1875 4.6875 18.438 4.6875h12.609v0.89062q0 6.2031-4.0781 9.5938t-11.453 3.3906q-4.6875 0-9.1406-1.125-4.4375-1.125-8.5312-3.375v8.3125q4.9219 1.9062 9.5625 2.8438 4.6406 0.95312 9.0312 0.95312 11.875 0 17.734-6.1562 5.8594-6.1406 5.8594-18.641z"/>
<path id="g" d="m9.4219 75.984h8.9844v-75.984h-8.9844z"/>
</defs>
<g transform="translate(313.42 862.09) rotate(90) scale(.08 -.08)">
<use xlink:href="#k"/>
<use x="60.818359" xlink:href="#d"/>
<use x="122.341797" xlink:href="#j"/>
<use x="163.439453" xlink:href="#i"/>
<use x="260.851562" xlink:href="#h"/>
<use x="288.634766" xlink:href="#f"/>
<use x="352.013672" xlink:href="#l"/>
<use x="413.292969" xlink:href="#g"/>
</g>
</g>
<path d="m182.19 693.94 1.5048 5.3798q0.64651 2.3113 2.9578 1.6648l7.4563-2.0857q2.3113-0.64651 1.6648-2.9578l-1.5048-5.3798q-0.64651-2.3113-2.9578-1.6648l-7.4563 2.0857q-2.3113 0.64651-1.6648 2.9578z" clip-path="url(#a)" fill="#fff" stroke="#fff"/>
<g clip-path="url(#a)">
<defs>
<path id="x" d="m64.406 67.281v-10.391q-4.9844 4.6406-10.625 6.9219-5.6406 2.2969-11.984 2.2969-12.5 0-19.141-7.6406t-6.6406-22.094q0-14.406 6.6406-22.047t19.141-7.6406q6.3438 0 11.984 2.2969t10.625 6.9375v-10.312q-5.1719-3.5156-10.969-5.2812-5.7812-1.75-12.219-1.75-16.562 0-26.094 10.125-9.5156 10.141-9.5156 27.672 0 17.578 9.5156 27.703 9.5312 10.141 26.094 10.141 6.5312 0 12.312-1.7344 5.7969-1.7344 10.875-5.2031z"/>
</defs>
<g transform="translate(186.1 692.84) rotate(74.373) scale(.08 -.08)">
<use xlink:href="#x"/>
</g>
</g>
<path d="m125.32 698.84 1.2395-4.4312q0.64651-2.3113-1.6648-2.9578l-7.4563-2.0857q-2.3113-0.64651-2.9578 1.6648l-1.2395 4.4312q-0.64651 2.3113 1.6648 2.9578l7.4563 2.0857q2.3113 0.64651 2.9578-1.6648z" clip-path="url(#a)" fill="#fff" stroke="#fff"/>
<g clip-path="url(#a)">
<defs>
<path id="s" d="m9.8125 72.906h41.891v-8.3125h-32.031v-21.484h28.906v-8.2969h-28.906v-34.812h-9.8594z"/>
</defs>
<g transform="translate(121.41 697.75) rotate(-74.373) scale(.08 -.08)">
<use xlink:href="#s"/>
</g>
</g>
<path d="m148.17 631.1v5.055q0 2.4 2.4 2.4h7.7425q2.4 0 2.4-2.4v-5.055q0-2.4-2.4-2.4h-7.7425q-2.4 0-2.4 2.4z" clip-path="url(#a)" fill="#fff" stroke="#fff"/>
<g clip-path="url(#a)">
<defs>
<path id="ak" d="m9.8125 72.906h46.094v-8.3125h-36.234v-21.578h34.719v-8.2969h-34.719v-26.422h37.109v-8.2969h-46.969z"/>
</defs>
<g transform="translate(152.24 631.1) rotate(90) scale(.08 -.08)">
<use xlink:href="#ak"/>
</g>
</g>
<path d="m217.25 862.09v35.285q0 2.4 2.4 2.4h7.7425q2.4 0 2.4-2.4v-35.285q0-2.4-2.4-2.4h-7.7425q-2.4 0-2.4 2.4z" clip-path="url(#a)" fill="#fff" stroke="#fff"/>
<g clip-path="url(#a)">
<g transform="translate(221.31 862.09) rotate(90) scale(.08 -.08)">
<use xlink:href="#k"/>
<use x="60.818359" xlink:href="#d"/>
<use x="122.341797" xlink:href="#j"/>
<use x="163.439453" xlink:href="#i"/>
<use x="260.851562" xlink:href="#h"/>
<use x="288.634766" xlink:href="#f"/>
<use x="352.013672" xlink:href="#l"/>
<use x="413.292969" xlink:href="#g"/>
</g>
</g>
<path d="m263.3 862.09v35.285q0 2.4 2.4 2.4h7.7425q2.4 0 2.4-2.4v-35.285q0-2.4-2.4-2.4h-7.7425q-2.4 0-2.4 2.4z" clip-path="url(#a)" fill="#fff" stroke="#fff"/>
<g clip-path="url(#a)">
<g transform="translate(267.37 862.09) rotate(90) scale(.08 -.08)">
<use xlink:href="#k"/>
<use x="60.818359" xlink:href="#d"/>
<use x="122.341797" xlink:href="#j"/>
<use x="163.439453" xlink:href="#i"/>
<use x="260.851562" xlink:href="#h"/>
<use x="288.634766" xlink:href="#f"/>
<use x="352.013672" xlink:href="#l"/>
<use x="413.292969" xlink:href="#g"/>
</g>
</g>
<path d="m401.46 754.31v5.5862q0 2.4 2.4 2.4h7.7425q2.4 0 2.4-2.4v-5.5862q0-2.4-2.4-2.4h-7.7425q-2.4 0-2.4 2.4z" clip-path="url(#a)" fill="#fff" stroke="#fff"/>
<g clip-path="url(#a)">
<g transform="translate(405.52 754.31) rotate(90) scale(.08 -.08)">
<use xlink:href="#x"/>
</g>
</g>
<path d="m389.55 762.05 2.0585-5.4812q0.84378-2.2468-1.403-3.0906l-7.2482-2.7221q-2.2468-0.84378-3.0906 1.403l-2.0585 5.4812q-0.84378 2.2468 1.403 3.0906l7.2482 2.7221q2.2468 0.84378 3.0906-1.403z" clip-path="url(#a)" fill="#fff" stroke="#fff"/>
<g clip-path="url(#a)">
<g transform="translate(385.74 760.62) rotate(-69.416) scale(.08 -.08)">
<use xlink:href="#ae"/>
</g>
</g>
<path d="m423.86 756.57 2.0585 5.4812q0.84378 2.2468 3.0906 1.403l7.2482-2.7221q2.2468-0.84378 1.403-3.0906l-2.0585-5.4812q-0.84378-2.2468-3.0906-1.403l-7.2482 2.7221q-2.2468 0.84378-1.403 3.0906z" clip-path="url(#a)" fill="#fff" stroke="#fff"/>
<g clip-path="url(#a)">
<g transform="translate(427.66 755.14) rotate(69.416) scale(.08 -.08)">
<use xlink:href="#ae"/>
</g>
</g>
<path d="m401.46 862.09v35.285q0 2.4 2.4 2.4h7.7425q2.4 0 2.4-2.4v-35.285q0-2.4-2.4-2.4h-7.7425q-2.4 0-2.4 2.4z" clip-path="url(#a)" fill="#fff" stroke="#fff"/>
<g clip-path="url(#a)">
<g transform="translate(405.52 862.09) rotate(90) scale(.08 -.08)">
<use xlink:href="#k"/>
<use x="60.818359" xlink:href="#d"/>
<use x="122.341797" xlink:href="#j"/>
<use x="163.439453" xlink:href="#i"/>
<use x="260.851562" xlink:href="#h"/>
<use x="288.634766" xlink:href="#f"/>
<use x="352.013672" xlink:href="#l"/>
<use x="413.292969" xlink:href="#g"/>
</g>
</g>
<path d="m493.56 862.09v35.285q0 2.4 2.4 2.4h7.7425q2.4 0 2.4-2.4v-35.285q0-2.4-2.4-2.4h-7.7425q-2.4 0-2.4 2.4z" clip-path="url(#a)" fill="#fff" stroke="#fff"/>
<g clip-path="url(#a)">
<g transform="translate(497.63 862.09) rotate(90) scale(.08 -.08)">
<use xlink:href="#k"/>
<use x="60.818359" xlink:href="#d"/>
<use x="122.341797" xlink:href="#j"/>
<use x="163.439453" xlink:href="#i"/>
<use x="260.851562" xlink:href="#h"/>
<use x="288.634766" xlink:href="#f"/>
<use x="352.013672" xlink:href="#l"/>
<use x="413.292969" xlink:href="#g"/>
</g>
</g>
<path d="m1370.5 498.78 0.65837 4.7786q0.32756 2.3775 2.7051 2.05l7.67-1.0567q2.3775-0.32756 2.05-2.7051l-0.65837-4.7786q-0.32756-2.3775-2.7051-2.05l-7.67 1.0567q-2.3775 0.32756-2.05 2.7051z" clip-path="url(#a)" fill="#fff" stroke="#fff"/>
<g clip-path="url(#a)">
<g transform="translate(1374.5 498.22) rotate(82.156) scale(.08 -.08)">
<use xlink:href="#ag"/>
</g>
</g>
<path d="m1085.6 255.43 5.284-1.4239q2.3173-0.62447 1.6929-2.9418l-2.0146-7.4758q-0.62447-2.3173-2.9418-1.6929l-5.284 1.4239q-2.3173 0.62447-1.6929 2.9418l2.0146 7.4758q0.62447 2.3173 2.9418 1.6929z" clip-path="url(#a)" fill="#fff" stroke="#fff"/>
<g clip-path="url(#a)">
<g transform="translate(1084.6 251.51) rotate(-15.082) scale(.08 -.08)">
<use xlink:href="#r"/>
</g>
</g>
<path d="m1393.4 498.92 1.1255 5.3555q0.4936 2.3487 2.8423 1.8551l7.577-1.5924q2.3487-0.4936 1.8551-2.8423l-1.1255-5.3555q-0.4936-2.3487-2.8423-1.8551l-7.577 1.5924q-2.3487 0.4936-1.8551 2.8423z" clip-path="url(#a)" fill="#fff" stroke="#fff"/>
<g clip-path="url(#a)">
<g transform="translate(1397.4 498.09) rotate(78.131) scale(.08 -.08)">
<use xlink:href="#r"/>
</g>
</g>
<path d="m1462.3 439.51 2.5603 4.8367q1.1228 2.1212 3.244 0.99834l6.8429-3.6223q2.1212-1.1228 0.99833-3.244l-2.5603-4.8367q-1.1228-2.1212-3.244-0.99833l-6.8429 3.6223q-2.1212 1.1228-0.99833 3.244z" clip-path="url(#a)" fill="#fff" stroke="#fff"/>
<g clip-path="url(#a)">
<g transform="translate(1465.9 437.61) rotate(62.106) scale(.08 -.08)">
<use xlink:href="#r"/>
</g>
</g>
<path d="m1414.6 862.09v35.285q0 2.4 2.4 2.4h7.7425q2.4 0 2.4-2.4v-35.285q0-2.4-2.4-2.4h-7.7425q-2.4 0-2.4 2.4z" clip-path="url(#a)" fill="#fff" stroke="#fff"/>
<g clip-path="url(#a)">
<g transform="translate(1418.7 862.09) rotate(90) scale(.08 -.08)">
<use xlink:href="#k"/>
<use x="60.818359" xlink:href="#d"/>
<use x="122.341797" xlink:href="#j"/>
<use x="163.439453" xlink:href="#i"/>
<use x="260.851562" xlink:href="#h"/>
<use x="288.634766" xlink:href="#f"/>
<use x="352.013672" xlink:href="#l"/>
<use x="413.292969" xlink:href="#g"/>
</g>
</g>
<path d="m1737 862.09v35.285q0 2.4 2.4 2.4h7.7425q2.4 0 2.4-2.4v-35.285q0-2.4-2.4-2.4h-7.7425q-2.4 0-2.4 2.4z" clip-path="url(#a)" fill="#fff" stroke="#fff"/>
<g clip-path="url(#a)">
<g transform="translate(1741 862.09) rotate(90) scale(.08 -.08)">
<use xlink:href="#k"/>
<use x="60.818359" xlink:href="#d"/>
<use x="122.341797" xlink:href="#j"/>
<use x="163.439453" xlink:href="#i"/>
<use x="260.851562" xlink:href="#h"/>
<use x="288.634766" xlink:href="#f"/>
<use x="352.013672" xlink:href="#l"/>
<use x="413.292969" xlink:href="#g"/>
</g>
</g>
<path d="m79.094 862.09v35.285q0 2.4 2.4 2.4h7.7425q2.4 0 2.4-2.4v-35.285q0-2.4-2.4-2.4h-7.7425q-2.4 0-2.4 2.4z" clip-path="url(#a)" fill="#fff" stroke="#fff"/>
<g clip-path="url(#a)">
<g transform="translate(83.158 862.09) rotate(90) scale(.08 -.08)">
<use xlink:href="#k"/>
<use x="60.818359" xlink:href="#d"/>
<use x="122.341797" xlink:href="#j"/>
<use x="163.439453" xlink:href="#i"/>
<use x="260.851562" xlink:href="#h"/>
<use x="288.634766" xlink:href="#f"/>
<use x="352.013672" xlink:href="#l"/>
<use x="413.292969" xlink:href="#g"/>
</g>
</g>
<path d="m159.35 755.89 0.89022 4.7409q0.44292 2.3588 2.8017 1.9159l7.6095-1.4289q2.3588-0.44292 1.9159-2.8017l-0.89022-4.7409q-0.44292-2.3588-2.8017-1.9159l-7.6095 1.4289q-2.3588 0.44292-1.9159 2.8017z" clip-path="url(#a)" fill="#fff" stroke="#fff"/>
<g clip-path="url(#a)">
<g transform="translate(163.34 755.14) rotate(79.365) scale(.08 -.08)">
<use xlink:href="#ag"/>
</g>
</g>
<path d="m148.59 760.95 1.01-5.3785q0.44292-2.3588-1.9159-2.8017l-7.6095-1.4289q-2.3588-0.44292-2.8017 1.9159l-1.01 5.3785q-0.44292 2.3588 1.9159 2.8017l7.6095 1.4289q2.3588 0.44292 2.8017-1.9159z" clip-path="url(#a)" fill="#fff" stroke="#fff"/>
<g clip-path="url(#a)">
<g transform="translate(144.6 760.2) rotate(-79.365) scale(.08 -.08)">
<use xlink:href="#r"/>
</g>
</g>
<path d="m171.2 862.09v35.285q0 2.4 2.4 2.4h7.7425q2.4 0 2.4-2.4v-35.285q0-2.4-2.4-2.4h-7.7425q-2.4 0-2.4 2.4z" clip-path="url(#a)" fill="#fff" stroke="#fff"/>
<g clip-path="url(#a)">
<g transform="translate(175.26 862.09) rotate(90) scale(.08 -.08)">
<use xlink:href="#k"/>
<use x="60.818359" xlink:href="#d"/>
<use x="122.341797" xlink:href="#j"/>
<use x="163.439453" xlink:href="#i"/>
<use x="260.851562" xlink:href="#h"/>
<use x="288.634766" xlink:href="#f"/>
<use x="352.013672" xlink:href="#l"/>
<use x="413.292969" xlink:href="#g"/>
</g>
</g>
<path d="m355.41 862.09v35.285q0 2.4 2.4 2.4h7.7425q2.4 0 2.4-2.4v-35.285q0-2.4-2.4-2.4h-7.7425q-2.4 0-2.4 2.4z" clip-path="url(#a)" fill="#fff" stroke="#fff"/>
<g clip-path="url(#a)">
<g transform="translate(359.47 862.09) rotate(90) scale(.08 -.08)">
<use xlink:href="#k"/>
<use x="60.818359" xlink:href="#d"/>
<use x="122.341797" xlink:href="#j"/>
<use x="163.439453" xlink:href="#i"/>
<use x="260.851562" xlink:href="#h"/>
<use x="288.634766" xlink:href="#f"/>
<use x="352.013672" xlink:href="#l"/>
<use x="413.292969" xlink:href="#g"/>
</g>
</g>
<path d="m447.51 862.09v35.285q0 2.4 2.4 2.4h7.7425q2.4 0 2.4-2.4v-35.285q0-2.4-2.4-2.4h-7.7425q-2.4 0-2.4 2.4z" clip-path="url(#a)" fill="#fff" stroke="#fff"/>
<g clip-path="url(#a)">
<g transform="translate(451.58 862.09) rotate(90) scale(.08 -.08)">
<use xlink:href="#k"/>
<use x="60.818359" xlink:href="#d"/>
<use x="122.341797" xlink:href="#j"/>
<use x="163.439453" xlink:href="#i"/>
<use x="260.851562" xlink:href="#h"/>
<use x="288.634766" xlink:href="#f"/>
<use x="352.013672" xlink:href="#l"/>
<use x="413.292969" xlink:href="#g"/>
</g>
</g>
<path d="m720.37 572.05 2.4697-5.0107q1.061-2.1527-1.0917-3.2138l-6.9447-3.423q-2.1527-1.061-3.2138 1.0917l-2.4697 5.0107q-1.061 2.1527 1.0917 3.2138l6.9448 3.423q2.1527 1.061 3.2138-1.0917z" clip-path="url(#a)" fill="#fff" stroke="#fff"/>
<g clip-path="url(#a)">
<g transform="translate(716.72 570.25) rotate(-63.762) scale(.08 -.08)">
<use xlink:href="#x"/>
</g>
</g>
<path d="m697.2 571.92 2.3216-3.9726q1.2109-2.0721-0.8612-3.283l-6.6847-3.9065q-2.0721-1.2109-3.283 0.8612l-2.3216 3.9726q-1.2109 2.0721 0.8612 3.283l6.6847 3.9065q2.0721 1.2109 3.283-0.8612z" clip-path="url(#a)" fill="#fff" stroke="#fff"/>
<g clip-path="url(#a)">
<g transform="translate(693.69 569.87) rotate(-59.699) scale(.08 -.08)">
<use xlink:href="#s"/>
</g>
</g>
<path d="m760.1 386.41 3.9626-3.1386q1.8813-1.4902 0.39119-3.3715l-4.8073-6.0693q-1.4902-1.8813-3.3715-0.39119l-3.9626 3.1386q-1.8813 1.4902-0.39119 3.3715l4.8073 6.0693q1.4902 1.8813 3.3715 0.39119z" clip-path="url(#a)" fill="#fff" stroke="#fff"/>
<g clip-path="url(#a)">
<g transform="translate(757.58 383.23) rotate(-38.382) scale(.08 -.08)">
<use xlink:href="#ak"/>
</g>
</g>
<path d="m939.32 566.51 2.277 5.3941q0.93335 2.2111 3.1444 1.2777l7.133-3.011q2.2111-0.93335 1.2777-3.1444l-2.277-5.3941q-0.93335-2.2111-3.1444-1.2777l-7.133 3.011q-2.2111 0.93335-1.2777 3.1444z" clip-path="url(#a)" fill="#fff" stroke="#fff"/>
<g clip-path="url(#a)">
<g transform="translate(943.06 564.93) rotate(67.114) scale(.08 -.08)">
<use xlink:href="#ae"/>
</g>
</g>
<path d="m1081.6 447.69 4.4857 2.3306q2.1297 1.1065 3.2362-1.0232l3.5697-6.8705q1.1065-2.1297-1.0232-3.2362l-4.4857-2.3306q-2.1297-1.1065-3.2362 1.0232l-3.5697 6.8705q-1.1065 2.1297 1.0232 3.2362z" clip-path="url(#a)" fill="#fff" stroke="#fff"/>
<g clip-path="url(#a)">
<g transform="translate(1083.4 444.08) rotate(27.455) scale(.08 -.08)">
<use xlink:href="#ak"/>
</g>
</g>
<path d="m585.67 862.09v35.285q0 2.4 2.4 2.4h7.7425q2.4 0 2.4-2.4v-35.285q0-2.4-2.4-2.4h-7.7425q-2.4 0-2.4 2.4z" clip-path="url(#a)" fill="#fff" stroke="#fff"/>
<g clip-path="url(#a)">
<g transform="translate(589.73 862.09) rotate(90) scale(.08 -.08)">
<use xlink:href="#k"/>
<use x="60.818359" xlink:href="#d"/>
<use x="122.341797" xlink:href="#j"/>
<use x="163.439453" xlink:href="#i"/>
<use x="260.851562" xlink:href="#h"/>
<use x="288.634766" xlink:href="#f"/>
<use x="352.013672" xlink:href="#l"/>
<use x="413.292969" xlink:href="#g"/>
</g>
</g>
<path d="m1460.7 862.09v35.285q0 2.4 2.4 2.4h7.7425q2.4 0 2.4-2.4v-35.285q0-2.4-2.4-2.4h-7.7425q-2.4 0-2.4 2.4z" clip-path="url(#a)" fill="#fff" stroke="#fff"/>
<g clip-path="url(#a)">
<g transform="translate(1464.7 862.09) rotate(90) scale(.08 -.08)">
<use xlink:href="#k"/>
<use x="60.818359" xlink:href="#d"/>
<use x="122.341797" xlink:href="#j"/>
<use x="163.439453" xlink:href="#i"/>
<use x="260.851562" xlink:href="#h"/>
<use x="288.634766" xlink:href="#f"/>
<use x="352.013672" xlink:href="#l"/>
<use x="413.292969" xlink:href="#g"/>
</g>
</g>
<path d="m1621.4 756.93 1.7856 4.7545q0.84378 2.2468 3.0906 1.403l7.2482-2.7221q2.2468-0.84378 1.403-3.0906l-1.7856-4.7545q-0.84378-2.2468-3.0906-1.403l-7.2482 2.7221q-2.2468 0.84378-1.403 3.0906z" clip-path="url(#a)" fill="#fff" stroke="#fff"/>
<g clip-path="url(#a)">
<defs>
<path id="aj" d="m53.516 70.516v-9.625q-5.6094 2.6875-10.594 4-4.9844 1.3281-9.625 1.3281-8.0469 0-12.422-3.125t-4.375-8.8906q0-4.8438 2.9062-7.3125 2.9062-2.4531 11.016-3.9688l5.9531-1.2188q11.031-2.1094 16.281-7.4062t5.25-14.172q0-10.609-7.1094-16.078-7.0938-5.4688-20.812-5.4688-5.1719 0-11.016 1.1719-5.8281 1.1719-12.078 3.4688v10.156q6-3.3594 11.766-5.0781 5.7656-1.7031 11.328-1.7031 8.4375 0 13.031 3.3125 4.5938 3.3281 4.5938 9.4844 0 5.3594-3.2969 8.3906t-10.812 4.5469l-6.0156 1.1719q-11.031 2.1875-15.969 6.875-4.9219 4.6875-4.9219 13.047 0 9.6719 6.8125 15.234t18.766 5.5625q5.1406 0 10.453-0.9375 5.3281-0.92188 10.891-2.7656z"/>
</defs>
<g transform="translate(1625.2 755.5) rotate(69.416) scale(.08 -.08)">
<use xlink:href="#aj"/>
</g>
</g>
<path d="m1562.4 763.06 3.2866-4.3757q1.4414-1.919-0.47763-3.3603l-6.1907-4.6499q-1.919-1.4414-3.3603 0.47763l-3.2866 4.3757q-1.4414 1.919 0.47763 3.3603l6.1907 4.6499q1.919 1.4414 3.3603-0.47763z" clip-path="url(#a)" fill="#fff" stroke="#fff"/>
<g clip-path="url(#a)">
<g transform="translate(1559.2 760.62) rotate(-53.09) scale(.08 -.08)">
<use xlink:href="#r"/>
</g>
</g>
<path d="m1587.1 761.46 1.6177-4.3075q0.84378-2.2468-1.403-3.0906l-7.2482-2.7221q-2.2468-0.84378-3.0906 1.403l-1.6177 4.3075q-0.84378 2.2468 1.403 3.0906l7.2482 2.7221q2.2468 0.84378 3.0906-1.403z" clip-path="url(#a)" fill="#fff" stroke="#fff"/>
<g clip-path="url(#a)">
<g transform="translate(1583.3 760.03) rotate(-69.416) scale(.08 -.08)">
<use xlink:href="#s"/>
</g>
</g>
<path d="m1598.8 754.8v4.6012q0 2.4 2.4 2.4h7.7425q2.4 0 2.4-2.4v-4.6012q0-2.4-2.4-2.4h-7.7425q-2.4 0-2.4 2.4z" clip-path="url(#a)" fill="#fff" stroke="#fff"/>
<g clip-path="url(#a)">
<g transform="translate(1602.9 754.8) rotate(90) scale(.08 -.08)">
<use xlink:href="#s"/>
</g>
</g>
<path d="m1644.7 758.92 2.9345 3.9069q1.4414 1.919 3.3603 0.47763l6.1907-4.6499q1.919-1.4414 0.47763-3.3603l-2.9345-3.9069q-1.4414-1.919-3.3603-0.47763l-6.1907 4.6499q-1.919 1.4414-0.47763 3.3603z" clip-path="url(#a)" fill="#fff" stroke="#fff"/>
<g clip-path="url(#a)">
<g transform="translate(1647.9 756.48) rotate(53.09) scale(.08 -.08)">
<use xlink:href="#k"/>
</g>
</g>
<path d="m1644.9 862.09v35.285q0 2.4 2.4 2.4h7.7425q2.4 0 2.4-2.4v-35.285q0-2.4-2.4-2.4h-7.7425q-2.4 0-2.4 2.4z" clip-path="url(#a)" fill="#fff" stroke="#fff"/>
<g clip-path="url(#a)">
<g transform="translate(1648.9 862.09) rotate(90) scale(.08 -.08)">
<use xlink:href="#k"/>
<use x="60.818359" xlink:href="#d"/>
<use x="122.341797" xlink:href="#j"/>
<use x="163.439453" xlink:href="#i"/>
<use x="260.851562" xlink:href="#h"/>
<use x="288.634766" xlink:href="#f"/>
<use x="352.013672" xlink:href="#l"/>
<use x="413.292969" xlink:href="#g"/>
</g>
</g>
<path d="m125.15 862.09v35.285q0 2.4 2.4 2.4h7.7425q2.4 0 2.4-2.4v-35.285q0-2.4-2.4-2.4h-7.7425q-2.4 0-2.4 2.4z" clip-path="url(#a)" fill="#fff" stroke="#fff"/>
<g clip-path="url(#a)">
<g transform="translate(129.21 862.09) rotate(90) scale(.08 -.08)">
<use xlink:href="#k"/>
<use x="60.818359" xlink:href="#d"/>
<use x="122.341797" xlink:href="#j"/>
<use x="163.439453" xlink:href="#i"/>
<use x="260.851562" xlink:href="#h"/>
<use x="288.634766" xlink:href="#f"/>
<use x="352.013672" xlink:href="#l"/>
<use x="413.292969" xlink:href="#g"/>
</g>
</g>
<path d="m539.62 862.09v35.285q0 2.4 2.4 2.4h7.7425q2.4 0 2.4-2.4v-35.285q0-2.4-2.4-2.4h-7.7425q-2.4 0-2.4 2.4z" clip-path="url(#a)" fill="#fff" stroke="#fff"/>
<g clip-path="url(#a)">
<g transform="translate(543.68 862.09) rotate(90) scale(.08 -.08)">
<use xlink:href="#k"/>
<use x="60.818359" xlink:href="#d"/>
<use x="122.341797" xlink:href="#j"/>
<use x="163.439453" xlink:href="#i"/>
<use x="260.851562" xlink:href="#h"/>
<use x="288.634766" xlink:href="#f"/>
<use x="352.013672" xlink:href="#l"/>
<use x="413.292969" xlink:href="#g"/>
</g>
</g>
<path d="m639.67 635.63 1.206-5.338q0.52892-2.341-1.8121-2.8699l-7.5521-1.7063q-2.341-0.52892-2.8699 1.8121l-1.206 5.338q-0.52892 2.341 1.8121 2.8699l7.5521 1.7063q2.341 0.52892 2.8699-1.8121z" clip-path="url(#a)" fill="#fff" stroke="#fff"/>
<g clip-path="url(#a)">
<g transform="translate(635.71 634.73) rotate(-77.268) scale(.08 -.08)">
<use xlink:href="#r"/>
</g>
</g>
<path d="m673.89 629.29 0.099058 4.8227q0.049285 2.3995 2.4488 2.3502l7.7409-0.159q2.3995-0.049285 2.3502-2.4488l-0.099057-4.8227q-0.049286-2.3995-2.4488-2.3502l-7.7409 0.159q-2.3995 0.049286-2.3502 2.4488z" clip-path="url(#a)" fill="#fff" stroke="#fff"/>
<g clip-path="url(#a)">
<g transform="translate(677.95 629.21) rotate(88.823) scale(.08 -.08)">
<use xlink:href="#ag"/>
</g>
</g>
<path d="m663.14 634.98 0.56789-5.5297q0.24519-2.3874-2.1423-2.6326l-7.702-0.79099q-2.3874-0.24519-2.6326 2.1423l-0.56789 5.5297q-0.24519 2.3874 2.1423 2.6326l7.702 0.79099q2.3874 0.24519 2.6326-2.1423z" clip-path="url(#a)" fill="#fff" stroke="#fff"/>
<g clip-path="url(#a)">
<defs>
<path id="af" d="m44.391 34.188q3.1719-1.0781 6.1719-4.5938t6.0312-9.6719l10.016-19.922h-10.609l-9.3125 18.703q-3.625 7.3281-7.0156 9.7188t-9.25 2.3906h-10.75v-30.812h-9.8594v72.906h22.266q12.5 0 18.656-5.2344 6.1562-5.2188 6.1562-15.766 0-6.8906-3.2031-11.438-3.2031-4.5312-9.2969-6.2812zm-24.719 30.609v-25.875h12.406q7.125 0 10.766 3.2969t3.6406 9.6875-3.6406 9.6406-10.766 3.25z"/>
</defs>
<g transform="translate(659.09 634.57) rotate(-84.136) scale(.08 -.08)">
<use xlink:href="#af"/>
</g>
</g>
<path d="m727.45 510.29 3.6799 4.0505q1.6138 1.7764 3.3902 0.16254l5.7307-5.2063q1.7764-1.6138 0.16254-3.3902l-3.6799-4.0505q-1.6138-1.7764-3.3902-0.16254l-5.7307 5.2063q-1.7764 1.6138-0.16253 3.3902z" clip-path="url(#a)" fill="#fff" stroke="#fff"/>
<g clip-path="url(#a)">
<g transform="translate(730.46 507.56) rotate(47.745) scale(.08 -.08)">
<use xlink:href="#r"/>
</g>
</g>
<path d="m677.77 862.09v35.285q0 2.4 2.4 2.4h7.7425q2.4 0 2.4-2.4v-35.285q0-2.4-2.4-2.4h-7.7425q-2.4 0-2.4 2.4z" clip-path="url(#a)" fill="#fff" stroke="#fff"/>
<g clip-path="url(#a)">
<g transform="translate(681.84 862.09) rotate(90) scale(.08 -.08)">
<use xlink:href="#k"/>
<use x="60.818359" xlink:href="#d"/>
<use x="122.341797" xlink:href="#j"/>
<use x="163.439453" xlink:href="#i"/>
<use x="260.851562" xlink:href="#h"/>
<use x="288.634766" xlink:href="#f"/>
<use x="352.013672" xlink:href="#l"/>
<use x="413.292969" xlink:href="#g"/>
</g>
</g>
<path d="m1046.2 862.09v35.285q0 2.4 2.4 2.4h7.7425q2.4 0 2.4-2.4v-35.285q0-2.4-2.4-2.4h-7.7425q-2.4 0-2.4 2.4z" clip-path="url(#a)" fill="#fff" stroke="#fff"/>
<g clip-path="url(#a)">
<g transform="translate(1050.3 862.09) rotate(90) scale(.08 -.08)">
<use xlink:href="#k"/>
<use x="60.818359" xlink:href="#d"/>
<use x="122.341797" xlink:href="#j"/>
<use x="163.439453" xlink:href="#i"/>
<use x="260.851562" xlink:href="#h"/>
<use x="288.634766" xlink:href="#f"/>
<use x="352.013672" xlink:href="#l"/>
<use x="413.292969" xlink:href="#g"/>
</g>
</g>
<path d="m1289.9 699.59 1.8519-4.7291q0.87514-2.2348-1.3596-3.1099l-7.2094-2.8232q-2.2348-0.87514-3.1099 1.3596l-1.8519 4.7291q-0.87514 2.2348 1.3596 3.1099l7.2094 2.8232q2.2348 0.87514 3.1099-1.3596z" clip-path="url(#a)" fill="#fff" stroke="#fff"/>
<g clip-path="url(#a)">
<g transform="translate(1286.2 698.11) rotate(-68.614) scale(.08 -.08)">
<use xlink:href="#aj"/>
</g>
</g>
<path d="m1230.2 701.36 4.0106-4.6755q1.5626-1.8216-0.25903-3.3842l-5.8766-5.041q-1.8216-1.5626-3.3842 0.25903l-4.0106 4.6755q-1.5626 1.8216 0.25903 3.3842l5.8766 5.041q1.8216 1.5626 3.3842-0.25903z" clip-path="url(#a)" fill="#fff" stroke="#fff"/>
<g clip-path="url(#a)">
<g transform="translate(1227.1 698.71) rotate(-49.377) scale(.08 -.08)">
<use xlink:href="#al"/>
</g>
</g>
<path d="m1555.2 759.37 4.3182 3.5005q1.8644 1.5113 3.3757-0.35304l4.8756-6.0145q1.5113-1.8644-0.35304-3.3757l-4.3182-3.5005q-1.8644-1.5113-3.3757 0.35304l-4.8756 6.0145q-1.5113 1.8644 0.35304 3.3757z" clip-path="url(#a)" fill="#fff" stroke="#fff"/>
<g clip-path="url(#a)">
<g transform="translate(1557.8 756.22) rotate(39.029) scale(.08 -.08)">
<use xlink:href="#af"/>
</g>
</g>
<path d="m1266.3 700.07 2.3028-3.9835q1.2011-2.0778-0.87666-3.2789l-6.7031-3.8749q-2.0778-1.2011-3.2789 0.87666l-2.3028 3.9835q-1.2011 2.0778 0.87666 3.2789l6.7031 3.8749q2.0778 1.2011 3.2789-0.87666z" clip-path="url(#a)" fill="#fff" stroke="#fff"/>
<g clip-path="url(#a)">
<g transform="translate(1262.8 698.03) rotate(-59.969) scale(.08 -.08)">
<use xlink:href="#s"/>
</g>
</g>
<path d="m1337.2 636.59 0.20256-5.4688q0.088835-2.3984-2.3095-2.4872l-7.7372-0.28658q-2.3984-0.088835-2.4872 2.3095l-0.20256 5.4688q-0.088835 2.3984 2.3095 2.4872l7.7372 0.28658q2.3984 0.088834 2.4872-2.3095z" clip-path="url(#a)" fill="#fff" stroke="#fff"/>
<g clip-path="url(#a)">
<g transform="translate(1333.2 636.44) rotate(-87.879) scale(.08 -.08)">
<use xlink:href="#r"/>
</g>
</g>
<path d="m1230.4 862.09v35.285q0 2.4 2.4 2.4h7.7425q2.4 0 2.4-2.4v-35.285q0-2.4-2.4-2.4h-7.7425q-2.4 0-2.4 2.4z" clip-path="url(#a)" fill="#fff" stroke="#fff"/>
<g clip-path="url(#a)">
<g transform="translate(1234.5 862.09) rotate(90) scale(.08 -.08)">
<use xlink:href="#k"/>
<use x="60.818359" xlink:href="#d"/>
<use x="122.341797" xlink:href="#j"/>
<use x="163.439453" xlink:href="#i"/>
<use x="260.851562" xlink:href="#h"/>
<use x="288.634766" xlink:href="#f"/>
<use x="352.013672" xlink:href="#l"/>
<use x="413.292969" xlink:href="#g"/>
</g>
</g>
<path d="m1506.7 862.09v35.285q0 2.4 2.4 2.4h7.7425q2.4 0 2.4-2.4v-35.285q0-2.4-2.4-2.4h-7.7425q-2.4 0-2.4 2.4z" clip-path="url(#a)" fill="#fff" stroke="#fff"/>
<g clip-path="url(#a)">
<g transform="translate(1510.8 862.09) rotate(90) scale(.08 -.08)">
<use xlink:href="#k"/>
<use x="60.818359" xlink:href="#d"/>
<use x="122.341797" xlink:href="#j"/>
<use x="163.439453" xlink:href="#i"/>
<use x="260.851562" xlink:href="#h"/>
<use x="288.634766" xlink:href="#f"/>
<use x="352.013672" xlink:href="#l"/>
<use x="413.292969" xlink:href="#g"/>
</g>
</g>
<path d="m1552.8 862.09v35.285q0 2.4 2.4 2.4h7.7425q2.4 0 2.4-2.4v-35.285q0-2.4-2.4-2.4h-7.7425q-2.4 0-2.4 2.4z" clip-path="url(#a)" fill="#fff" stroke="#fff"/>
<g clip-path="url(#a)">
<g transform="translate(1556.8 862.09) rotate(90) scale(.08 -.08)">
<use xlink:href="#k"/>
<use x="60.818359" xlink:href="#d"/>
<use x="122.341797" xlink:href="#j"/>
<use x="163.439453" xlink:href="#i"/>
<use x="260.851562" xlink:href="#h"/>
<use x="288.634766" xlink:href="#f"/>
<use x="352.013672" xlink:href="#l"/>
<use x="413.292969" xlink:href="#g"/>
</g>
</g>
<path d="m1598.8 862.09v35.285q0 2.4 2.4 2.4h7.7425q2.4 0 2.4-2.4v-35.285q0-2.4-2.4-2.4h-7.7425q-2.4 0-2.4 2.4z" clip-path="url(#a)" fill="#fff" stroke="#fff"/>
<g clip-path="url(#a)">
<g transform="translate(1602.9 862.09) rotate(90) scale(.08 -.08)">
<use xlink:href="#k"/>
<use x="60.818359" xlink:href="#d"/>
<use x="122.341797" xlink:href="#j"/>
<use x="163.439453" xlink:href="#i"/>
<use x="260.851562" xlink:href="#h"/>
<use x="288.634766" xlink:href="#f"/>
<use x="352.013672" xlink:href="#l"/>
<use x="413.292969" xlink:href="#g"/>
</g>
</g>
<path d="m1690.9 862.09v35.285q0 2.4 2.4 2.4h7.7425q2.4 0 2.4-2.4v-35.285q0-2.4-2.4-2.4h-7.7425q-2.4 0-2.4 2.4z" clip-path="url(#a)" fill="#fff" stroke="#fff"/>
<g clip-path="url(#a)">
<g transform="translate(1695 862.09) rotate(90) scale(.08 -.08)">
<use xlink:href="#k"/>
<use x="60.818359" xlink:href="#d"/>
<use x="122.341797" xlink:href="#j"/>
<use x="163.439453" xlink:href="#i"/>
<use x="260.851562" xlink:href="#h"/>
<use x="288.634766" xlink:href="#f"/>
<use x="352.013672" xlink:href="#l"/>
<use x="413.292969" xlink:href="#g"/>
</g>
</g>
<path d="m631.72 862.09v35.285q0 2.4 2.4 2.4h7.7425q2.4 0 2.4-2.4v-35.285q0-2.4-2.4-2.4h-7.7425q-2.4 0-2.4 2.4z" clip-path="url(#a)" fill="#fff" stroke="#fff"/>
<g clip-path="url(#a)">
<g transform="translate(635.79 862.09) rotate(90) scale(.08 -.08)">
<use xlink:href="#k"/>
<use x="60.818359" xlink:href="#d"/>
<use x="122.341797" xlink:href="#j"/>
<use x="163.439453" xlink:href="#i"/>
<use x="260.851562" xlink:href="#h"/>
<use x="288.634766" xlink:href="#f"/>
<use x="352.013672" xlink:href="#l"/>
<use x="413.292969" xlink:href="#g"/>
</g>
</g>
<path d="m694.88 701.01 3.4396-4.2565q1.5084-1.8667-0.35827-3.3752l-6.0221-4.8663q-1.8667-1.5084-3.3752 0.35827l-3.4396 4.2565q-1.5084 1.8667 0.35827 3.3752l6.0221 4.8663q1.8667 1.5084 3.3752-0.35827z" clip-path="url(#a)" fill="#fff" stroke="#fff"/>
<g clip-path="url(#a)">
<g transform="translate(691.72 698.45) rotate(-51.059) scale(.08 -.08)">
<use xlink:href="#r"/>
</g>
</g>
<path d="m823.14 694.37 1.5073 4.8499q0.7123 2.2919 3.0042 1.5796l7.3936-2.2979q2.2919-0.7123 1.5796-3.0042l-1.5073-4.8499q-0.7123-2.2919-3.0042-1.5796l-7.3936 2.2979q-2.2919 0.7123-1.5796 3.0042z" clip-path="url(#a)" fill="#fff" stroke="#fff"/>
<g clip-path="url(#a)">
<g transform="translate(827.02 693.17) rotate(72.735) scale(.08 -.08)">
<use xlink:href="#aj"/>
</g>
</g>
<path d="m766.33 698.68 1.1102-4.4653q0.5791-2.3291-1.75-2.9082l-7.5137-1.8682q-2.3291-0.5791-2.9082 1.75l-1.1102 4.4653q-0.5791 2.3291 1.75 2.9082l7.5137 1.8682q2.3291 0.5791 2.9082-1.75z" clip-path="url(#a)" fill="#fff" stroke="#fff"/>
<g clip-path="url(#a)">
<g transform="translate(762.39 697.7) rotate(-76.037) scale(.08 -.08)">
<use xlink:href="#s"/>
</g>
</g>
<path d="m789.94 697.62 0.28546-4.5924q0.1489-2.3954-2.2465-2.5443l-7.7276-0.48034q-2.3954-0.1489-2.5443 2.2465l-0.28546 4.5924q-0.1489 2.3954 2.2465 2.5443l7.7276 0.48034q2.3954 0.1489 2.5443-2.2465z" clip-path="url(#a)" fill="#fff" stroke="#fff"/>
<g clip-path="url(#a)">
<g transform="translate(785.89 697.37) rotate(-86.443) scale(.08 -.08)">
<use xlink:href="#s"/>
</g>
</g>
<path d="m800.34 693.43 0.56765 4.5661q0.29609 2.3817 2.6778 2.0856l7.6834-0.95519q2.3817-0.29609 2.0856-2.6778l-0.56765-4.5661q-0.29609-2.3817-2.6778-2.0856l-7.6834 0.95519q-2.3817 0.29609-2.0856 2.6778z" clip-path="url(#a)" fill="#fff" stroke="#fff"/>
<g clip-path="url(#a)">
<g transform="translate(804.38 692.93) rotate(82.913) scale(.08 -.08)">
<use xlink:href="#s"/>
</g>
</g>
<path d="m870.01 637.05 4.4068 3.2448q1.9326 1.423 3.3556-0.50962l4.5907-6.2347q1.423-1.9326-0.50962-3.3556l-4.4068-3.2448q-1.9326-1.423-3.3556 0.50962l-4.5907 6.2347q-1.423 1.9326 0.50962 3.3556z" clip-path="url(#a)" fill="#fff" stroke="#fff"/>
<g clip-path="url(#a)">
<g transform="translate(872.42 633.78) rotate(36.365) scale(.08 -.08)">
<use xlink:href="#r"/>
</g>
</g>
<path d="m861.98 862.09v35.285q0 2.4 2.4 2.4h7.7425q2.4 0 2.4-2.4v-35.285q0-2.4-2.4-2.4h-7.7425q-2.4 0-2.4 2.4z" clip-path="url(#a)" fill="#fff" stroke="#fff"/>
<g clip-path="url(#a)">
<g transform="translate(866.05 862.09) rotate(90) scale(.08 -.08)">
<use xlink:href="#k"/>
<use x="60.818359" xlink:href="#d"/>
<use x="122.341797" xlink:href="#j"/>
<use x="163.439453" xlink:href="#i"/>
<use x="260.851562" xlink:href="#h"/>
<use x="288.634766" xlink:href="#f"/>
<use x="352.013672" xlink:href="#l"/>
<use x="413.292969" xlink:href="#g"/>
</g>
</g>
<path d="m1112.9 898.23 6.5119-34.679q0.44292-2.3588-1.9159-2.8017l-7.6095-1.4289q-2.3588-0.44292-2.8017 1.9159l-6.5119 34.679q-0.44292 2.3588 1.9159 2.8017l7.6095 1.4289q2.3588 0.44292 2.8017-1.9159z" clip-path="url(#a)" fill="#fff" stroke="#fff"/>
<g clip-path="url(#a)">
<g transform="translate(1108.9 897.48) rotate(-79.365) scale(.08 -.08)">
<use xlink:href="#k"/>
<use x="60.818359" xlink:href="#d"/>
<use x="122.341797" xlink:href="#j"/>
<use x="163.439453" xlink:href="#i"/>
<use x="260.851562" xlink:href="#h"/>
<use x="288.634766" xlink:href="#f"/>
<use x="352.013672" xlink:href="#l"/>
<use x="413.292969" xlink:href="#g"/>
</g>
</g>
<path d="m1123.6 863.55 6.5119 34.679q0.44292 2.3588 2.8017 1.9159l7.6095-1.4289q2.3588-0.44292 1.9159-2.8017l-6.5119-34.679q-0.44292-2.3588-2.8017-1.9159l-7.6095 1.4289q-2.3588 0.44292-1.9159 2.8017z" clip-path="url(#a)" fill="#fff" stroke="#fff"/>
<g clip-path="url(#a)">
<g transform="translate(1127.6 862.8) rotate(79.365) scale(.08 -.08)">
<use xlink:href="#k"/>
<use x="60.818359" xlink:href="#d"/>
<use x="122.341797" xlink:href="#j"/>
<use x="163.439453" xlink:href="#i"/>
<use x="260.851562" xlink:href="#h"/>
<use x="288.634766" xlink:href="#f"/>
<use x="352.013672" xlink:href="#l"/>
<use x="413.292969" xlink:href="#g"/>
</g>
</g>
<path d="m1184.3 862.09v35.285q0 2.4 2.4 2.4h7.7425q2.4 0 2.4-2.4v-35.285q0-2.4-2.4-2.4h-7.7425q-2.4 0-2.4 2.4z" clip-path="url(#a)" fill="#fff" stroke="#fff"/>
<g clip-path="url(#a)">
<g transform="translate(1188.4 862.09) rotate(90) scale(.08 -.08)">
<use xlink:href="#k"/>
<use x="60.818359" xlink:href="#d"/>
<use x="122.341797" xlink:href="#j"/>
<use x="163.439453" xlink:href="#i"/>
<use x="260.851562" xlink:href="#h"/>
<use x="288.634766" xlink:href="#f"/>
<use x="352.013672" xlink:href="#l"/>
<use x="413.292969" xlink:href="#g"/>
</g>
</g>
<path d="m1345 756.69 1.964 5.2296q0.84378 2.2468 3.0906 1.403l7.2482-2.7221q2.2468-0.84378 1.403-3.0906l-1.964-5.2296q-0.84378-2.2468-3.0906-1.403l-7.2482 2.7221q-2.2468 0.84378-1.403 3.0906z" clip-path="url(#a)" fill="#fff" stroke="#fff"/>
<g clip-path="url(#a)">
<g transform="translate(1348.8 755.27) rotate(69.416) scale(.08 -.08)">
<use xlink:href="#x"/>
</g>
</g>
<path d="m1310.6 761.91 1.9543-5.2039q0.84378-2.2468-1.403-3.0906l-7.2482-2.7221q-2.2468-0.84378-3.0906 1.403l-1.9543 5.2039q-0.84378 2.2468 1.403 3.0906l7.2482 2.7221q2.2468 0.84378 3.0906-1.403z" clip-path="url(#a)" fill="#fff" stroke="#fff"/>
<g clip-path="url(#a)">
<g transform="translate(1306.8 760.48) rotate(-69.416) scale(.08 -.08)">
<use xlink:href="#af"/>
</g>
</g>
<path d="m1322.5 754.8v4.6012q0 2.4 2.4 2.4h7.7425q2.4 0 2.4-2.4v-4.6012q0-2.4-2.4-2.4h-7.7425q-2.4 0-2.4 2.4z" clip-path="url(#a)" fill="#fff" stroke="#fff"/>
<g clip-path="url(#a)">
<g transform="translate(1326.6 754.8) rotate(90) scale(.08 -.08)">
<use xlink:href="#s"/>
</g>
</g>
<path d="m1368.6 862.09v35.285q0 2.4 2.4 2.4h7.7425q2.4 0 2.4-2.4v-35.285q0-2.4-2.4-2.4h-7.7425q-2.4 0-2.4 2.4z" clip-path="url(#a)" fill="#fff" stroke="#fff"/>
<g clip-path="url(#a)">
<g transform="translate(1372.6 862.09) rotate(90) scale(.08 -.08)">
<use xlink:href="#k"/>
<use x="60.818359" xlink:href="#d"/>
<use x="122.341797" xlink:href="#j"/>
<use x="163.439453" xlink:href="#i"/>
<use x="260.851562" xlink:href="#h"/>
<use x="288.634766" xlink:href="#f"/>
<use x="352.013672" xlink:href="#l"/>
<use x="413.292969" xlink:href="#g"/>
</g>
</g>
<path d="m723.83 862.09v35.285q0 2.4 2.4 2.4h7.7425q2.4 0 2.4-2.4v-35.285q0-2.4-2.4-2.4h-7.7425q-2.4 0-2.4 2.4z" clip-path="url(#a)" fill="#fff" stroke="#fff"/>
<g clip-path="url(#a)">
<g transform="translate(727.89 862.09) rotate(90) scale(.08 -.08)">
<use xlink:href="#k"/>
<use x="60.818359" xlink:href="#d"/>
<use x="122.341797" xlink:href="#j"/>
<use x="163.439453" xlink:href="#i"/>
<use x="260.851562" xlink:href="#h"/>
<use x="288.634766" xlink:href="#f"/>
<use x="352.013672" xlink:href="#l"/>
<use x="413.292969" xlink:href="#g"/>
</g>
</g>
<path d="m769.88 862.09v35.285q0 2.4 2.4 2.4h7.7425q2.4 0 2.4-2.4v-35.285q0-2.4-2.4-2.4h-7.7425q-2.4 0-2.4 2.4z" clip-path="url(#a)" fill="#fff" stroke="#fff"/>
<g clip-path="url(#a)">
<g transform="translate(773.94 862.09) rotate(90) scale(.08 -.08)">
<use xlink:href="#k"/>
<use x="60.818359" xlink:href="#d"/>
<use x="122.341797" xlink:href="#j"/>
<use x="163.439453" xlink:href="#i"/>
<use x="260.851562" xlink:href="#h"/>
<use x="288.634766" xlink:href="#f"/>
<use x="352.013672" xlink:href="#l"/>
<use x="413.292969" xlink:href="#g"/>
</g>
</g>
<path d="m815.93 862.09v35.285q0 2.4 2.4 2.4h7.7425q2.4 0 2.4-2.4v-35.285q0-2.4-2.4-2.4h-7.7425q-2.4 0-2.4 2.4z" clip-path="url(#a)" fill="#fff" stroke="#fff"/>
<g clip-path="url(#a)">
<g transform="translate(820 862.09) rotate(90) scale(.08 -.08)">
<use xlink:href="#k"/>
<use x="60.818359" xlink:href="#d"/>
<use x="122.341797" xlink:href="#j"/>
<use x="163.439453" xlink:href="#i"/>
<use x="260.851562" xlink:href="#h"/>
<use x="288.634766" xlink:href="#f"/>
<use x="352.013672" xlink:href="#l"/>
<use x="413.292969" xlink:href="#g"/>
</g>
</g>
<path d="m976.53 756.69 1.964 5.2296q0.84378 2.2468 3.0906 1.403l7.2482-2.7221q2.2468-0.84378 1.403-3.0906l-1.964-5.2296q-0.84378-2.2468-3.0906-1.403l-7.2482 2.7221q-2.2468 0.84378-1.403 3.0906z" clip-path="url(#a)" fill="#fff" stroke="#fff"/>
<g clip-path="url(#a)">
<g transform="translate(980.34 755.27) rotate(69.416) scale(.08 -.08)">
<use xlink:href="#x"/>
</g>
</g>
<path d="m942.23 761.91 1.9543-5.2039q0.84378-2.2468-1.403-3.0906l-7.2482-2.7221q-2.2468-0.84378-3.0906 1.403l-1.9543 5.2039q-0.84378 2.2468 1.403 3.0906l7.2482 2.7221q2.2468 0.84378 3.0906-1.403z" clip-path="url(#a)" fill="#fff" stroke="#fff"/>
<g clip-path="url(#a)">
<g transform="translate(938.42 760.48) rotate(-69.416) scale(.08 -.08)">
<use xlink:href="#af"/>
</g>
</g>
<path d="m954.09 754.8v4.6012q0 2.4 2.4 2.4h7.7425q2.4 0 2.4-2.4v-4.6012q0-2.4-2.4-2.4h-7.7425q-2.4 0-2.4 2.4z" clip-path="url(#a)" fill="#fff" stroke="#fff"/>
<g clip-path="url(#a)">
<g transform="translate(958.15 754.8) rotate(90) scale(.08 -.08)">
<use xlink:href="#s"/>
</g>
</g>
<path d="m1000.1 862.09v35.285q0 2.4 2.4 2.4h7.7425q2.4 0 2.4-2.4v-35.285q0-2.4-2.4-2.4h-7.7425q-2.4 0-2.4 2.4z" clip-path="url(#a)" fill="#fff" stroke="#fff"/>
<g clip-path="url(#a)">
<g transform="translate(1004.2 862.09) rotate(90) scale(.08 -.08)">
<use xlink:href="#k"/>
<use x="60.818359" xlink:href="#d"/>
<use x="122.341797" xlink:href="#j"/>
<use x="163.439453" xlink:href="#i"/>
<use x="260.851562" xlink:href="#h"/>
<use x="288.634766" xlink:href="#f"/>
<use x="352.013672" xlink:href="#l"/>
<use x="413.292969" xlink:href="#g"/>
</g>
</g>
<path d="m1276.5 862.09v35.285q0 2.4 2.4 2.4h7.7425q2.4 0 2.4-2.4v-35.285q0-2.4-2.4-2.4h-7.7425q-2.4 0-2.4 2.4z" clip-path="url(#a)" fill="#fff" stroke="#fff"/>
<g clip-path="url(#a)">
<g transform="translate(1280.5 862.09) rotate(90) scale(.08 -.08)">
<use xlink:href="#k"/>
<use x="60.818359" xlink:href="#d"/>
<use x="122.341797" xlink:href="#j"/>
<use x="163.439453" xlink:href="#i"/>
<use x="260.851562" xlink:href="#h"/>
<use x="288.634766" xlink:href="#f"/>
<use x="352.013672" xlink:href="#l"/>
<use x="413.292969" xlink:href="#g"/>
</g>
</g>
<path d="m1322.5 862.09v35.285q0 2.4 2.4 2.4h7.7425q2.4 0 2.4-2.4v-35.285q0-2.4-2.4-2.4h-7.7425q-2.4 0-2.4 2.4z" clip-path="url(#a)" fill="#fff" stroke="#fff"/>
<g clip-path="url(#a)">
<g transform="translate(1326.6 862.09) rotate(90) scale(.08 -.08)">
<use xlink:href="#k"/>
<use x="60.818359" xlink:href="#d"/>
<use x="122.341797" xlink:href="#j"/>
<use x="163.439453" xlink:href="#i"/>
<use x="260.851562" xlink:href="#h"/>
<use x="288.634766" xlink:href="#f"/>
<use x="352.013672" xlink:href="#l"/>
<use x="413.292969" xlink:href="#g"/>
</g>
</g>
<path d="m908.04 862.09v35.285q0 2.4 2.4 2.4h7.7425q2.4 0 2.4-2.4v-35.285q0-2.4-2.4-2.4h-7.7425q-2.4 0-2.4 2.4z" clip-path="url(#a)" fill="#fff" stroke="#fff"/>
<g clip-path="url(#a)">
<g transform="translate(912.1 862.09) rotate(90) scale(.08 -.08)">
<use xlink:href="#k"/>
<use x="60.818359" xlink:href="#d"/>
<use x="122.341797" xlink:href="#j"/>
<use x="163.439453" xlink:href="#i"/>
<use x="260.851562" xlink:href="#h"/>
<use x="288.634766" xlink:href="#f"/>
<use x="352.013672" xlink:href="#l"/>
<use x="413.292969" xlink:href="#g"/>
</g>
</g>
<path d="m954.09 862.09v35.285q0 2.4 2.4 2.4h7.7425q2.4 0 2.4-2.4v-35.285q0-2.4-2.4-2.4h-7.7425q-2.4 0-2.4 2.4z" clip-path="url(#a)" fill="#fff" stroke="#fff"/>
<g clip-path="url(#a)">
<g transform="translate(958.15 862.09) rotate(90) scale(.08 -.08)">
<use xlink:href="#k"/>
<use x="60.818359" xlink:href="#d"/>
<use x="122.341797" xlink:href="#j"/>
<use x="163.439453" xlink:href="#i"/>
<use x="260.851562" xlink:href="#h"/>
<use x="288.634766" xlink:href="#f"/>
<use x="352.013672" xlink:href="#l"/>
<use x="413.292969" xlink:href="#g"/>
</g>
</g>
<defs>
<path id="b" d="m0 8.6603c2.2967 0 4.4997-0.9125 6.1237-2.5365 1.624-1.624 2.5365-3.827 2.5365-6.1237s-0.9125-4.4997-2.5365-6.1237c-1.624-1.624-3.827-2.5365-6.1237-2.5365s-4.4997 0.9125-6.1237 2.5365c-1.624 1.624-2.5365 3.827-2.5365 6.1237s0.9125 4.4997 2.5365 6.1237c1.624 1.624 3.827 2.5365 6.1237 2.5365z"/>
</defs>
<g clip-path="url(#a)">
<use x="85.365297" y="941.043229" fill="#ffffff" stroke="#ffffff" xlink:href="#b"/>
</g>
<g clip-path="url(#a)">
<use x="131.417623" y="941.043229" fill="#ffffff" stroke="#ffffff" xlink:href="#b"/>
</g>
<g clip-path="url(#a)">
<use x="177.46995" y="941.043229" fill="#ffffff" stroke="#ffffff" xlink:href="#b"/>
</g>
<g clip-path="url(#a)">
<use x="223.522276" y="941.043229" fill="#ffffff" stroke="#ffffff" xlink:href="#b"/>
</g>
<g clip-path="url(#a)">
<use x="269.574602" y="941.043229" fill="#ffffff" stroke="#ffffff" xlink:href="#b"/>
</g>
<g clip-path="url(#a)">
<use x="315.626929" y="941.043229" fill="#ffffff" stroke="#ffffff" xlink:href="#b"/>
</g>
<g clip-path="url(#a)">
<use x="361.679255" y="941.043229" fill="#ffffff" stroke="#ffffff" xlink:href="#b"/>
</g>
<g clip-path="url(#a)">
<use x="407.731581" y="941.043229" fill="#ffffff" stroke="#ffffff" xlink:href="#b"/>
</g>
<g clip-path="url(#a)">
<use x="453.783907" y="941.043229" fill="#ffffff" stroke="#ffffff" xlink:href="#b"/>
</g>
<g clip-path="url(#a)">
<use x="499.836234" y="941.043229" fill="#ffffff" stroke="#ffffff" xlink:href="#b"/>
</g>
<g clip-path="url(#a)">
<use x="545.88856" y="941.043229" fill="#ffffff" stroke="#ffffff" xlink:href="#b"/>
</g>
<g clip-path="url(#a)">
<use x="591.940886" y="941.043229" fill="#ffffff" stroke="#ffffff" xlink:href="#b"/>
</g>
<g clip-path="url(#a)">
<use x="637.993213" y="941.043229" fill="#ffffff" stroke="#ffffff" xlink:href="#b"/>
</g>
<g clip-path="url(#a)">
<use x="684.045539" y="941.043229" fill="#ffffff" stroke="#ffffff" xlink:href="#b"/>
</g>
<g clip-path="url(#a)">
<use x="730.097865" y="941.043229" fill="#ffffff" stroke="#ffffff" xlink:href="#b"/>
</g>
<g clip-path="url(#a)">
<use x="776.150191" y="941.043229" fill="#ffffff" stroke="#ffffff" xlink:href="#b"/>
</g>
<g clip-path="url(#a)">
<use x="822.202518" y="941.043229" fill="#ffffff" stroke="#ffffff" xlink:href="#b"/>
</g>
<g clip-path="url(#a)">
<use x="868.254844" y="941.043229" fill="#ffffff" stroke="#ffffff" xlink:href="#b"/>
</g>
<g clip-path="url(#a)">
<use x="914.30717" y="941.043229" fill="#ffffff" stroke="#ffffff" xlink:href="#b"/>
</g>
<g clip-path="url(#a)">
<use x="960.359496" y="941.043229" fill="#ffffff" stroke="#ffffff" xlink:href="#b"/>
</g>
<g clip-path="url(#a)">
<use x="1006.411823" y="941.043229" fill="#ffffff" stroke="#ffffff" xlink:href="#b"/>
</g>
<g clip-path="url(#a)">
<use x="1052.464149" y="941.043229" fill="#ffffff" stroke="#ffffff" xlink:href="#b"/>
</g>
<g clip-path="url(#a)">
<use x="1098.516475" y="941.043229" fill="#ffffff" stroke="#ffffff" xlink:href="#b"/>
</g>
<g clip-path="url(#a)">
<use x="1144.568802" y="941.043229" fill="#ffffff" stroke="#ffffff" xlink:href="#b"/>
</g>
<g clip-path="url(#a)">
<use x="1190.621128" y="941.043229" fill="#ffffff" stroke="#ffffff" xlink:href="#b"/>
</g>
<g clip-path="url(#a)">
<use x="1236.673454" y="941.043229" fill="#ffffff" stroke="#ffffff" xlink:href="#b"/>
</g>
<g clip-path="url(#a)">
<use x="1282.72578" y="941.043229" fill="#ffffff" stroke="#ffffff" xlink:href="#b"/>
</g>
<g clip-path="url(#a)">
<use x="1328.778107" y="941.043229" fill="#ffffff" stroke="#ffffff" xlink:href="#b"/>
</g>
<g clip-path="url(#a)">
<use x="1374.830433" y="941.043229" fill="#ffffff" stroke="#ffffff" xlink:href="#b"/>
</g>
<g clip-path="url(#a)">
<use x="1420.882759" y="941.043229" fill="#ffffff" stroke="#ffffff" xlink:href="#b"/>
</g>
<g clip-path="url(#a)">
<use x="1466.935086" y="941.043229" fill="#ffffff" stroke="#ffffff" xlink:href="#b"/>
</g>
<g clip-path="url(#a)">
<use x="1512.987412" y="941.043229" fill="#ffffff" stroke="#ffffff" xlink:href="#b"/>
</g>
<g clip-path="url(#a)">
<use x="1559.039738" y="941.043229" fill="#ffffff" stroke="#ffffff" xlink:href="#b"/>
</g>
<g clip-path="url(#a)">
<use x="1605.092064" y="941.043229" fill="#ffffff" stroke="#ffffff" xlink:href="#b"/>
</g>
<g clip-path="url(#a)">
<use x="1651.144391" y="941.043229" fill="#ffffff" stroke="#ffffff" xlink:href="#b"/>
</g>
<g clip-path="url(#a)">
<use x="1697.196717" y="941.043229" fill="#ffffff" stroke="#ffffff" xlink:href="#b"/>
</g>
<g clip-path="url(#a)">
<use x="1743.249043" y="941.043229" fill="#ffffff" stroke="#ffffff" xlink:href="#b"/>
</g>
<g clip-path="url(#a)">
<use x="803.730418" y="45.623438" fill="#ffffff" stroke="#ffffff" xlink:href="#b"/>
</g>
<g clip-path="url(#a)">
<use x="578.125188" y="444.733352" fill="#ffffff" stroke="#ffffff" xlink:href="#b"/>
</g>
<g clip-path="url(#a)">
<use x="315.626929" y="818.417217" fill="#ffffff" stroke="#ffffff" xlink:href="#b"/>
</g>
<g clip-path="url(#a)">
<use x="154.443787" y="571.459331" fill="#ffffff" stroke="#ffffff" xlink:href="#b"/>
</g>
<g clip-path="url(#a)">
<use x="223.522276" y="818.417217" fill="#ffffff" stroke="#ffffff" xlink:href="#b"/>
</g>
<g clip-path="url(#a)">
<use x="269.574602" y="818.417217" fill="#ffffff" stroke="#ffffff" xlink:href="#b"/>
</g>
<g clip-path="url(#a)">
<use x="407.731581" y="695.791205" fill="#ffffff" stroke="#ffffff" xlink:href="#b"/>
</g>
<g clip-path="url(#a)">
<use x="407.731581" y="818.417217" fill="#ffffff" stroke="#ffffff" xlink:href="#b"/>
</g>
<g clip-path="url(#a)">
<use x="499.836234" y="818.417217" fill="#ffffff" stroke="#ffffff" xlink:href="#b"/>
</g>
<g clip-path="url(#a)">
<use x="1333.229832" y="182.207163" fill="#ffffff" stroke="#ffffff" xlink:href="#b"/>
</g>
<g clip-path="url(#a)">
<use x="1420.882759" y="818.417217" fill="#ffffff" stroke="#ffffff" xlink:href="#b"/>
</g>
<g clip-path="url(#a)">
<use x="1743.249043" y="818.417217" fill="#ffffff" stroke="#ffffff" xlink:href="#b"/>
</g>
<g clip-path="url(#a)">
<use x="85.365297" y="818.417217" fill="#ffffff" stroke="#ffffff" xlink:href="#b"/>
</g>
<g clip-path="url(#a)">
<use x="154.443787" y="695.791205" fill="#ffffff" stroke="#ffffff" xlink:href="#b"/>
</g>
<g clip-path="url(#a)">
<use x="177.46995" y="818.417217" fill="#ffffff" stroke="#ffffff" xlink:href="#b"/>
</g>
<g clip-path="url(#a)">
<use x="361.679255" y="818.417217" fill="#ffffff" stroke="#ffffff" xlink:href="#b"/>
</g>
<g clip-path="url(#a)">
<use x="453.783907" y="818.417217" fill="#ffffff" stroke="#ffffff" xlink:href="#b"/>
</g>
<g clip-path="url(#a)">
<use x="840.009417" y="315.119894" fill="#ffffff" stroke="#ffffff" xlink:href="#b"/>
</g>
<g clip-path="url(#a)">
<use x="591.940886" y="818.417217" fill="#ffffff" stroke="#ffffff" xlink:href="#b"/>
</g>
<g clip-path="url(#a)">
<use x="1466.935086" y="818.417217" fill="#ffffff" stroke="#ffffff" xlink:href="#b"/>
</g>
<g clip-path="url(#a)">
<use x="1605.092064" y="695.791205" fill="#ffffff" stroke="#ffffff" xlink:href="#b"/>
</g>
<g clip-path="url(#a)">
<use x="1651.144391" y="818.417217" fill="#ffffff" stroke="#ffffff" xlink:href="#b"/>
</g>
<g clip-path="url(#a)">
<use x="131.417623" y="818.417217" fill="#ffffff" stroke="#ffffff" xlink:href="#b"/>
</g>
<g clip-path="url(#a)">
<use x="545.88856" y="818.417217" fill="#ffffff" stroke="#ffffff" xlink:href="#b"/>
</g>
<g clip-path="url(#a)">
<use x="676.370151" y="444.733352" fill="#ffffff" stroke="#ffffff" xlink:href="#b"/>
</g>
<g clip-path="url(#a)">
<use x="684.045539" y="818.417217" fill="#ffffff" stroke="#ffffff" xlink:href="#b"/>
</g>
<g clip-path="url(#a)">
<use x="1052.464149" y="818.417217" fill="#ffffff" stroke="#ffffff" xlink:href="#b"/>
</g>
<g clip-path="url(#a)">
<use x="1333.383339" y="571.459331" fill="#ffffff" stroke="#ffffff" xlink:href="#b"/>
</g>
<g clip-path="url(#a)">
<use x="1236.673454" y="818.417217" fill="#ffffff" stroke="#ffffff" xlink:href="#b"/>
</g>
<g clip-path="url(#a)">
<use x="1512.987412" y="818.417217" fill="#ffffff" stroke="#ffffff" xlink:href="#b"/>
</g>
<g clip-path="url(#a)">
<use x="1559.039738" y="818.417217" fill="#ffffff" stroke="#ffffff" xlink:href="#b"/>
</g>
<g clip-path="url(#a)">
<use x="1605.092064" y="818.417217" fill="#ffffff" stroke="#ffffff" xlink:href="#b"/>
</g>
<g clip-path="url(#a)">
<use x="1697.196717" y="818.417217" fill="#ffffff" stroke="#ffffff" xlink:href="#b"/>
</g>
<g clip-path="url(#a)">
<use x="637.993213" y="818.417217" fill="#ffffff" stroke="#ffffff" xlink:href="#b"/>
</g>
<g clip-path="url(#a)">
<use x="791.500967" y="571.459331" fill="#ffffff" stroke="#ffffff" xlink:href="#b"/>
</g>
<g clip-path="url(#a)">
<use x="868.254844" y="818.417217" fill="#ffffff" stroke="#ffffff" xlink:href="#b"/>
</g>
<g clip-path="url(#a)">
<use x="1121.542638" y="818.417217" fill="#ffffff" stroke="#ffffff" xlink:href="#b"/>
</g>
<g clip-path="url(#a)">
<use x="1789.301369" y="941.043229" fill="#ffffff" stroke="#ffffff" xlink:href="#b"/>
</g>
<g clip-path="url(#a)">
<use x="1190.621128" y="818.417217" fill="#ffffff" stroke="#ffffff" xlink:href="#b"/>
</g>
<g clip-path="url(#a)">
<use x="1328.778107" y="695.791205" fill="#ffffff" stroke="#ffffff" xlink:href="#b"/>
</g>
<g clip-path="url(#a)">
<use x="1374.830433" y="818.417217" fill="#ffffff" stroke="#ffffff" xlink:href="#b"/>
</g>
<g clip-path="url(#a)">
<use x="730.097865" y="818.417217" fill="#ffffff" stroke="#ffffff" xlink:href="#b"/>
</g>
<g clip-path="url(#a)">
<use x="776.150191" y="818.417217" fill="#ffffff" stroke="#ffffff" xlink:href="#b"/>
</g>
<g clip-path="url(#a)">
<use x="822.202518" y="818.417217" fill="#ffffff" stroke="#ffffff" xlink:href="#b"/>
</g>
<g clip-path="url(#a)">
<use x="960.359496" y="695.791205" fill="#ffffff" stroke="#ffffff" xlink:href="#b"/>
</g>
<g clip-path="url(#a)">
<use x="1006.411823" y="818.417217" fill="#ffffff" stroke="#ffffff" xlink:href="#b"/>
</g>
<g clip-path="url(#a)">
<use x="1282.72578" y="818.417217" fill="#ffffff" stroke="#ffffff" xlink:href="#b"/>
</g>
<g clip-path="url(#a)">
<use x="1328.778107" y="818.417217" fill="#ffffff" stroke="#ffffff" xlink:href="#b"/>
</g>
<g clip-path="url(#a)">
<use x="914.30717" y="818.417217" fill="#ffffff" stroke="#ffffff" xlink:href="#b"/>
</g>
<g clip-path="url(#a)">
<use x="960.359496" y="818.417217" fill="#ffffff" stroke="#ffffff" xlink:href="#b"/>
</g>
<g clip-path="url(#a)">
<defs>
<path id="t" d="m54.891 33.016v-33.016h-8.9844v32.719q0 7.7656-3.0312 11.609-3.0312 3.8594-9.0781 3.8594-7.2812 0-11.484-4.6406-4.2031-4.625-4.2031-12.641v-30.906h-9.0312v75.984h9.0312v-29.797q3.2344 4.9375 7.5938 7.375 4.375 2.4375 10.094 2.4375 9.4219 0 14.25-5.8281 4.8438-5.8281 4.8438-17.156z"/>
</defs>
<g transform="translate(76.066 943.8) scale(.1 -.1)">
<use xlink:href="#k"/>
<use x="61.083984" xlink:href="#t"/>
<use x="124.462891" xlink:href="#d"/>
</g>
</g>
<g clip-path="url(#a)">
<defs>
<path id="p" d="m30.609 48.391q-7.2188 0-11.422-5.6406t-4.2031-15.453 4.1719-15.453q4.1875-5.6406 11.453-5.6406 7.1875 0 11.375 5.6562 4.2031 5.6719 4.2031 15.438 0 9.7188-4.2031 15.406-4.1875 5.6875-11.375 5.6875zm0 7.6094q11.719 0 18.406-7.625 6.7031-7.6094 6.7031-21.078 0-13.422-6.7031-21.078-6.6875-7.6406-18.406-7.6406-11.766 0-18.438 7.6406-6.6562 7.6562-6.6562 21.078 0 13.469 6.6562 21.078 6.6719 7.625 18.438 7.625z"/>
</defs>
<g transform="translate(118.94 943.8) scale(.1 -.1)">
<use xlink:href="#f"/>
<use x="63.378906" xlink:href="#d"/>
<use x="124.902344" xlink:href="#p"/>
<use x="186.083984" xlink:href="#f"/>
</g>
</g>
<g clip-path="url(#a)">
<defs>
<path id="ai" d="m45.406 27.984q0 9.7656-4.0312 15.125-4.0156 5.375-11.297 5.375-7.2188 0-11.25-5.375-4.0312-5.3594-4.0312-15.125 0-9.7188 4.0312-15.094t11.25-5.375q7.2812 0 11.297 5.375 4.0312 5.375 4.0312 15.094zm8.9844-21.203q0-13.953-6.2031-20.766-6.1875-6.8125-18.984-6.8125-4.7344 0-8.9375 0.70312t-8.1562 2.1719v8.7344q3.9531-2.1406 7.8125-3.1562 3.8594-1.0312 7.8594-1.0312 8.8438 0 13.234 4.6094t4.3906 13.938v4.4531q-2.7812-4.8438-7.125-7.2344t-10.406-2.3906q-10.047 0-16.203 7.6562-6.1562 7.6719-6.1562 20.328 0 12.688 6.1562 20.344 6.1562 7.6719 16.203 7.6719 6.0625 0 10.406-2.3906t7.125-7.2188v8.2969h8.9844z"/>
<path id="q" d="m18.312 70.219v-15.531h18.5v-6.9844h-18.5v-29.688q0-6.6875 1.8281-8.5938t7.4531-1.9062h9.2188v-7.5156h-9.2188q-10.406 0-14.359 3.875-3.9531 3.8906-3.9531 14.141v29.688h-6.5938v6.9844h6.5938v15.531z"/>
</defs>
<g transform="translate(158.66 943.8) scale(.1 -.1)">
<use xlink:href="#g"/>
<use x="27.783203" xlink:href="#h"/>
<use x="55.566406" xlink:href="#ai"/>
<use x="119.042969" xlink:href="#t"/>
<use x="182.421875" xlink:href="#q"/>
<use x="221.630859" xlink:href="#h"/>
<use x="249.414062" xlink:href="#f"/>
<use x="312.792969" xlink:href="#ai"/>
</g>
</g>
<g clip-path="url(#a)">
<defs>
<path id="u" d="m44.281 53.078v-8.5q-3.7969 1.9531-7.9062 2.9219-4.0938 0.98438-8.5 0.98438-6.6875 0-10.031-2.0469t-3.3438-6.1562q0-3.125 2.3906-4.9062t9.625-3.3906l3.0781-0.6875q9.5625-2.0469 13.594-5.7812t4.0312-10.422q0-7.625-6.0312-12.078-6.0312-4.4375-16.578-4.4375-4.3906 0-9.1562 0.85938t-10.031 2.5625v9.2812q4.9844-2.5938 9.8125-3.8906 4.8281-1.2812 9.5781-1.2812 6.3438 0 9.75 2.1719 3.4219 2.1719 3.4219 6.125 0 3.6562-2.4688 5.6094-2.4531 1.9531-10.812 3.7656l-3.125 0.73438q-8.3438 1.75-12.062 5.3906-3.7031 3.6406-3.7031 9.9844 0 7.7188 5.4688 11.906 5.4688 4.2031 15.531 4.2031 4.9688 0 9.3594-0.73438 4.4062-0.71875 8.1094-2.1875z"/>
</defs>
<g transform="translate(213.19 943.8) scale(.1 -.1)">
<use xlink:href="#u"/>
<use x="52.099609" xlink:href="#h"/>
<use x="79.882812" xlink:href="#ai"/>
<use x="143.359375" xlink:href="#f"/>
</g>
</g>
<g clip-path="url(#a)">
<g transform="translate(260.84 943.8) scale(.1 -.1)">
<use xlink:href="#u"/>
<use x="52.099609" xlink:href="#q"/>
<use x="91.308594" xlink:href="#h"/>
<use x="119.091797" xlink:href="#g"/>
<use x="146.875" xlink:href="#g"/>
</g>
</g>
<g clip-path="url(#a)">
<defs>
<path id="w" d="m45.406 46.391v29.594h8.9844v-75.984h-8.9844v8.2031q-2.8281-4.875-7.1562-7.25-4.3125-2.375-10.375-2.375-9.9062 0-16.141 7.9062-6.2188 7.9219-6.2188 20.812t6.2188 20.797q6.2344 7.9062 16.141 7.9062 6.0625 0 10.375-2.375 4.3281-2.3594 7.1562-7.2344zm-30.609-19.094q0-9.9062 4.0781-15.547t11.203-5.6406 11.219 5.6406q4.1094 5.6406 4.1094 15.547t-4.1094 15.547q-4.0938 5.6406-11.219 5.6406t-11.203-5.6406-4.0781-15.547z"/>
</defs>
<g transform="translate(305.39 943.8) scale(.1 -.1)">
<use xlink:href="#u"/>
<use x="52.099609" xlink:href="#l"/>
<use x="113.378906" xlink:href="#h"/>
<use x="141.162109" xlink:href="#w"/>
</g>
</g>
<g clip-path="url(#a)">
<defs>
<path id="ap" d="m17.922 72.906v-27.109h-8.2969v27.109zm18.453 0v-27.109h-8.2969v27.109z"/>
</defs>
<g transform="translate(359.38 943.8) scale(.1 -.1)">
<use xlink:href="#ap"/>
</g>
</g>
<g clip-path="url(#a)">
<g transform="translate(401.5 943.8) scale(.1 -.1)">
<use xlink:href="#p"/>
<use x="61.181641" xlink:href="#f"/>
</g>
</g>
<g clip-path="url(#a)">
<g transform="translate(451.48 943.8) scale(.1 -.1)">
<use xlink:href="#ap"/>
</g>
</g>
<g clip-path="url(#a)">
<defs>
<path id="am" d="m32.172-5.0781q-3.7969-9.7656-7.4219-12.734-3.6094-2.9844-9.6562-2.9844h-7.1875v7.5156h5.2812q3.7031 0 5.75 1.7656 2.0625 1.75 4.5469 8.2969l1.6094 4.0938-22.109 53.812h9.5156l17.094-42.766 17.094 42.766h9.5156z"/>
</defs>
<g transform="translate(491.84 943.8) scale(.1 -.1)">
<use xlink:href="#am"/>
<use x="59.179688" xlink:href="#d"/>
<use x="120.703125" xlink:href="#q"/>
</g>
</g>
<g clip-path="url(#a)">
<g transform="translate(532.28 943.8) scale(.1 -.1)">
<use xlink:href="#u"/>
<use x="52.099609" xlink:href="#p"/>
<use x="113.28125" xlink:href="#i"/>
<use x="210.693359" xlink:href="#d"/>
</g>
</g>
<g clip-path="url(#a)">
<defs>
<path id="ah" d="m8.5 21.578v33.109h8.9844v-32.766q0-7.7656 3.0156-11.656 3.0312-3.875 9.0938-3.875 7.2656 0 11.484 4.6406 4.2344 4.6406 4.2344 12.656v31h8.9844v-54.688h-8.9844v8.4062q-3.2656-4.9844-7.5938-7.4062-4.3125-2.4219-10.031-2.4219-9.4219 0-14.312 5.8594-4.875 5.8594-4.875 17.141z"/>
</defs>
<g transform="translate(582.64 943.8) scale(.1 -.1)">
<use xlink:href="#ai"/>
<use x="63.476562" xlink:href="#ah"/>
<use x="126.855469" xlink:href="#am"/>
</g>
</g>
<g clip-path="url(#a)">
<defs>
<path id="aq" d="m4.2031 54.688h8.9844l11.234-42.672 11.172 42.672h10.594l11.234-42.672 11.188 42.672h8.9844l-14.312-54.688h-10.594l-11.766 44.828-11.812-44.828h-10.609z"/>
</defs>
<g transform="translate(627.68 943.8) scale(.1 -.1)">
<use xlink:href="#aq"/>
<use x="81.787109" xlink:href="#t"/>
<use x="145.166016" xlink:href="#p"/>
</g>
</g>
<g clip-path="url(#a)">
<g transform="translate(664.17 943.8) scale(.1 -.1)">
<use xlink:href="#u"/>
<use x="52.099609" xlink:href="#d"/>
<use x="113.623047" xlink:href="#d"/>
<use x="175.146484" xlink:href="#i"/>
<use x="272.558594" xlink:href="#d"/>
<use x="334.082031" xlink:href="#w"/>
</g>
</g>
<g clip-path="url(#a)">
<g transform="translate(725.08 943.8) scale(.1 -.1)">
<use xlink:href="#q"/>
<use x="39.208984" xlink:href="#p"/>
</g>
</g>
<g clip-path="url(#a)">
<defs>
<path id="ad" d="m48.688 27.297q0 9.9062-4.0781 15.547t-11.203 5.6406q-7.1406 0-11.219-5.6406t-4.0781-15.547 4.0781-15.547 11.219-5.6406q7.125 0 11.203 5.6406t4.0781 15.547zm-30.578 19.094q2.8438 4.875 7.1562 7.2344 4.3281 2.375 10.328 2.375 9.9688 0 16.188-7.9062 6.2344-7.9062 6.2344-20.797t-6.2344-20.812q-6.2188-7.9062-16.188-7.9062-6 0-10.328 2.375-4.3125 2.375-7.1562 7.25v-8.2031h-9.0312v75.984h9.0312z"/>
</defs>
<g transform="translate(769.9 943.8) scale(.1 -.1)">
<use xlink:href="#ad"/>
<use x="63.476562" xlink:href="#d"/>
</g>
</g>
<g clip-path="url(#a)">
<g transform="translate(814 943.8) scale(.1 -.1)">
<use xlink:href="#q"/>
<use x="39.208984" xlink:href="#t"/>
<use x="102.587891" xlink:href="#d"/>
</g>
</g>
<g clip-path="url(#a)">
<g transform="translate(852.99 943.8) scale(.1 -.1)">
<use xlink:href="#p"/>
<use x="61.181641" xlink:href="#g"/>
<use x="88.964844" xlink:href="#w"/>
<use x="152.441406" xlink:href="#d"/>
<use x="213.964844" xlink:href="#u"/>
<use x="266.064453" xlink:href="#q"/>
</g>
</g>
<g clip-path="url(#a)">
<defs>
<path id="as" d="m37.109 75.984v-7.4844h-8.5938q-4.8281 0-6.7188-1.9531-1.875-1.9531-1.875-7.0312v-4.8281h14.797v-6.9844h-14.797v-47.703h-9.0312v47.703h-8.5938v6.9844h8.5938v3.8125q0 9.125 4.25 13.297 4.25 4.1875 13.469 4.1875z"/>
</defs>
<g transform="translate(909.49 943.8) scale(.1 -.1)">
<use xlink:href="#p"/>
<use x="61.181641" xlink:href="#as"/>
</g>
</g>
<g clip-path="url(#a)">
<g transform="translate(952.15 943.8) scale(.1 -.1)">
<use xlink:href="#q"/>
<use x="39.208984" xlink:href="#t"/>
<use x="102.587891" xlink:href="#d"/>
</g>
</g>
<g clip-path="url(#a)">
<defs>
<path id="an" d="m48.781 52.594v-8.4062q-3.8125 2.1094-7.6406 3.1562t-7.7344 1.0469q-8.75 0-13.594-5.5469-4.8281-5.5312-4.8281-15.547t4.8281-15.562q4.8438-5.5312 13.594-5.5312 3.9062 0 7.7344 1.0469t7.6406 3.1562v-8.3125q-3.7656-1.75-7.7969-2.625-4.0156-0.89062-8.5625-0.89062-12.359 0-19.641 7.7656-7.2656 7.7656-7.2656 20.953 0 13.375 7.3438 21.031 7.3594 7.6719 20.156 7.6719 4.1406 0 8.0938-0.85938 3.9531-0.84375 7.6719-2.5469z"/>
</defs>
<g transform="translate(990.98 943.8) scale(.1 -.1)">
<use xlink:href="#ad"/>
<use x="63.476562" xlink:href="#ah"/>
<use x="126.855469" xlink:href="#f"/>
<use x="190.234375" xlink:href="#an"/>
<use x="245.214844" xlink:href="#t"/>
</g>
</g>
<g clip-path="url(#a)">
<defs>
<path id="au" d="m11.719 12.406h10.297v-8.4062l-8-15.625h-6.2969l4 15.625z"/>
</defs>
<g transform="translate(1050.9 943.8) scale(.1 -.1)">
<use xlink:href="#au"/>
</g>
</g>
<g clip-path="url(#a)">
<g transform="translate(1085.5 943.8) scale(.1 -.1)">
<use xlink:href="#i"/>
<use x="97.412109" xlink:href="#p"/>
<use x="158.59375" xlink:href="#j"/>
<use x="199.675781" xlink:href="#d"/>
</g>
</g>
<g clip-path="url(#a)">
<defs>
<path id="ar" d="m9.0781 75.984h9.0312v-44.875l26.812 23.578h11.469l-29-25.578 30.234-29.109h-11.719l-27.797 26.703v-26.703h-9.0312z"/>
</defs>
<g transform="translate(1135.8 943.8) scale(.1 -.1)">
<use xlink:href="#g"/>
<use x="27.783203" xlink:href="#h"/>
<use x="55.566406" xlink:href="#ar"/>
<use x="113.429688" xlink:href="#d"/>
</g>
</g>
<g clip-path="url(#a)">
<g transform="translate(1182.4 943.8) scale(.1 -.1)">
<use xlink:href="#q"/>
<use x="39.208984" xlink:href="#t"/>
<use x="102.587891" xlink:href="#d"/>
</g>
</g>
<g clip-path="url(#a)">
<g transform="translate(1214.6 943.8) scale(.1 -.1)">
<use xlink:href="#w"/>
<use x="63.476562" xlink:href="#j"/>
<use x="104.589844" xlink:href="#ah"/>
<use x="167.96875" xlink:href="#f"/>
<use x="231.347656" xlink:href="#ar"/>
<use x="289.210938" xlink:href="#d"/>
<use x="350.734375" xlink:href="#u"/>
<use x="402.833984" xlink:href="#q"/>
</g>
</g>
<g clip-path="url(#a)">
<g transform="translate(1277.9 943.8) scale(.1 -.1)">
<use xlink:href="#p"/>
<use x="61.181641" xlink:href="#as"/>
</g>
</g>
<g clip-path="url(#a)">
<g transform="translate(1320.6 943.8) scale(.1 -.1)">
<use xlink:href="#q"/>
<use x="39.208984" xlink:href="#t"/>
<use x="102.587891" xlink:href="#d"/>
</g>
</g>
<g clip-path="url(#a)">
<g transform="translate(1359.4 943.8) scale(.1 -.1)">
<use xlink:href="#ad"/>
<use x="63.476562" xlink:href="#ah"/>
<use x="126.855469" xlink:href="#f"/>
<use x="190.234375" xlink:href="#an"/>
<use x="245.214844" xlink:href="#t"/>
</g>
</g>
<g clip-path="url(#a)">
<g transform="translate(1411.3 943.8) scale(.1 -.1)">
<use xlink:href="#q"/>
<use x="39.208984" xlink:href="#p"/>
<use x="100.390625" xlink:href="#g"/>
<use x="128.173828" xlink:href="#w"/>
</g>
</g>
<g clip-path="url(#a)">
<g transform="translate(1459 943.8) scale(.1 -.1)">
<use xlink:href="#i"/>
<use x="97.412109" xlink:href="#d"/>
</g>
</g>
<g clip-path="url(#a)">
<g transform="translate(1501.8 943.8) scale(.1 -.1)">
<use xlink:href="#q"/>
<use x="39.208984" xlink:href="#t"/>
<use x="102.587891" xlink:href="#d"/>
<use x="164.111328" xlink:href="#am"/>
</g>
</g>
<g clip-path="url(#a)">
<defs>
<path id="av" d="m17.922 72.906v-27.109h-8.2969v27.109z"/>
</defs>
<g transform="translate(1554.5 943.8) scale(.1 -.1)">
<use xlink:href="#av"/>
<use x="27.490234" xlink:href="#w"/>
</g>
</g>
<g clip-path="url(#a)">
<g transform="translate(1598.8 943.8) scale(.1 -.1)">
<use xlink:href="#ad"/>
<use x="63.476562" xlink:href="#d"/>
</g>
</g>
<g clip-path="url(#a)">
<defs>
<path id="aw" d="m18.109 8.2031v-29h-9.0312v75.484h9.0312v-8.2969q2.8438 4.875 7.1562 7.2344 4.3281 2.375 10.328 2.375 9.9688 0 16.188-7.9062 6.2344-7.9062 6.2344-20.797t-6.2344-20.812q-6.2188-7.9062-16.188-7.9062-6 0-10.328 2.375-4.3125 2.375-7.1562 7.25zm30.578 19.094q0 9.9062-4.0781 15.547t-11.203 5.6406q-7.1406 0-11.219-5.6406t-4.0781-15.547 4.0781-15.547 11.219-5.6406q7.125 0 11.203 5.6406t4.0781 15.547z"/>
</defs>
<g transform="translate(1638.7 943.8) scale(.1 -.1)">
<use xlink:href="#p"/>
<use x="61.181641" xlink:href="#aw"/>
<use x="124.658203" xlink:href="#d"/>
<use x="186.181641" xlink:href="#f"/>
</g>
</g>
<g clip-path="url(#a)">
<g transform="translate(1673 943.8) scale(.1 -.1)">
<use xlink:href="#q"/>
<use x="39.208984" xlink:href="#p"/>
<use x="100.390625" xlink:href="#i"/>
<use x="197.802734" xlink:href="#p"/>
<use x="258.984375" xlink:href="#j"/>
<use x="300.082031" xlink:href="#j"/>
<use x="341.164062" xlink:href="#p"/>
<use x="402.345703" xlink:href="#aq"/>
</g>
</g>
<g clip-path="url(#a)">
<defs>
<path id="e" d="m10.688 12.406h10.312v-12.406h-10.312z"/>
</defs>
<g transform="translate(1741.7 943.8) scale(.1 -.1)">
<use xlink:href="#e"/>
</g>
</g>
<g clip-path="url(#a)">
<defs>
<path id="c" d="m12.406 8.2969h16.109v55.625l-17.531-3.5156v8.9844l17.438 3.5156h9.8594v-64.609h16.109v-8.2969h-41.984z"/>
</defs>
<g transform="translate(795.78 48.383) scale(.1 -.1)">
<use xlink:href="#c"/>
<use x="63.623047" xlink:href="#e"/>
<use x="95.410156" xlink:href="#c"/>
</g>
</g>
<g clip-path="url(#a)">
<defs>
<path id="o" d="m19.188 8.2969h34.422v-8.2969h-46.281v8.2969q5.6094 5.8125 15.297 15.594 9.7031 9.7969 12.188 12.641 4.7344 5.3125 6.6094 9 1.8906 3.6875 1.8906 7.25 0 5.8125-4.0781 9.4688-4.0781 3.6719-10.625 3.6719-4.6406 0-9.7969-1.6094-5.1406-1.6094-11-4.8906v9.9688q5.9531 2.3906 11.125 3.6094 5.1875 1.2188 9.4844 1.2188 11.328 0 18.062-5.6719 6.7344-5.6562 6.7344-15.125 0-4.5-1.6875-8.5312-1.6719-4.0156-6.125-9.4844-1.2188-1.4219-7.7656-8.1875-6.5312-6.7656-18.453-18.922z"/>
</defs>
<g transform="translate(570.17 447.49) scale(.1 -.1)">
<use xlink:href="#c"/>
<use x="63.623047" xlink:href="#e"/>
<use x="95.410156" xlink:href="#o"/>
</g>
</g>
<g clip-path="url(#a)">
<defs>
<path id="n" d="m40.578 39.312q7.0781-1.5156 11.047-6.3125 3.9844-4.7812 3.9844-11.812 0-10.781-7.4219-16.703-7.4219-5.9062-21.094-5.9062-4.5781 0-9.4375 0.90625t-10.031 2.7188v9.5156q4.0938-2.3906 8.9688-3.6094 4.8906-1.2188 10.219-1.2188 9.2656 0 14.125 3.6562t4.8594 10.641q0 6.4531-4.5156 10.078-4.5156 3.6406-12.562 3.6406h-8.5v8.1094h8.8906q7.2656 0 11.125 2.9062t3.8594 8.375q0 5.6094-3.9844 8.6094-3.9688 3.0156-11.391 3.0156-4.0625 0-8.7031-0.89062-4.6406-0.875-10.203-2.7188v8.7812q5.625 1.5625 10.531 2.3438t9.25 0.78125q11.234 0 17.766-5.1094 6.5469-5.0938 6.5469-13.781 0-6.0625-3.4688-10.234t-9.8594-5.7812z"/>
</defs>
<g transform="translate(307.68 821.18) scale(.1 -.1)">
<use xlink:href="#c"/>
<use x="63.623047" xlink:href="#e"/>
<use x="95.410156" xlink:href="#n"/>
</g>
</g>
<g clip-path="url(#a)">
<defs>
<path id="m" d="m37.797 64.312-24.906-38.922h24.906zm-2.5938 8.5938h12.406v-47.516h10.406v-8.2031h-10.406v-17.188h-9.8125v17.188h-32.906v9.5156z"/>
</defs>
<g transform="translate(146.49 574.22) scale(.1 -.1)">
<use xlink:href="#c"/>
<use x="63.623047" xlink:href="#e"/>
<use x="95.410156" xlink:href="#m"/>
</g>
</g>
<g clip-path="url(#a)">
<defs>
<path id="v" d="m10.797 72.906h38.719v-8.3125h-29.688v-17.859q2.1406 0.73438 4.2812 1.0938 2.1562 0.35938 4.3125 0.35938 12.203 0 19.328-6.6875 7.1406-6.6875 7.1406-18.109 0-11.766-7.3281-18.297-7.3281-6.5156-20.656-6.5156-4.5938 0-9.3594 0.78125-4.75 0.78125-9.8281 2.3438v9.9219q4.3906-2.3906 9.0781-3.5625t9.9062-1.1719q8.4531 0 13.375 4.4375 4.9375 4.4375 4.9375 12.062 0 7.6094-4.9375 12.047-4.9219 4.4531-13.375 4.4531-3.9531 0-7.8906-0.875-3.9219-0.875-8.0156-2.7344z"/>
</defs>
<g transform="translate(215.57 821.18) scale(.1 -.1)">
<use xlink:href="#c"/>
<use x="63.623047" xlink:href="#e"/>
<use x="95.410156" xlink:href="#v"/>
</g>
</g>
<g clip-path="url(#a)">
<defs>
<path id="ab" d="m33.016 40.375q-6.6406 0-10.531-4.5469-3.875-4.5312-3.875-12.438 0-7.8594 3.875-12.438 3.8906-4.5625 10.531-4.5625t10.516 4.5625q3.875 4.5781 3.875 12.438 0 7.9062-3.875 12.438-3.875 4.5469-10.516 4.5469zm19.578 30.922v-8.9844q-3.7188 1.75-7.5 2.6719-3.7812 0.9375-7.5 0.9375-9.7656 0-14.922-6.5938-5.1406-6.5938-5.875-19.922 2.875 4.25 7.2188 6.5156 4.3594 2.2656 9.5781 2.2656 10.984 0 17.359-6.6719 6.375-6.6562 6.375-18.125 0-11.234-6.6406-18.031-6.6406-6.7812-17.672-6.7812-12.656 0-19.344 9.6875-6.6875 9.7031-6.6875 28.109 0 17.281 8.2031 27.562t22.016 10.281q3.7188 0 7.5-0.73438t7.8906-2.1875z"/>
</defs>
<g transform="translate(261.62 821.18) scale(.1 -.1)">
<use xlink:href="#c"/>
<use x="63.623047" xlink:href="#e"/>
<use x="95.410156" xlink:href="#ab"/>
</g>
</g>
<g clip-path="url(#a)">
<defs>
<path id="aa" d="m8.2031 72.906h46.875v-4.2031l-26.469-68.703h-10.297l24.906 64.594h-35.016z"/>
</defs>
<g transform="translate(399.78 698.55) scale(.1 -.1)">
<use xlink:href="#c"/>
<use x="63.623047" xlink:href="#e"/>
<use x="95.410156" xlink:href="#aa"/>
</g>
</g>
<g clip-path="url(#a)">
<defs>
<path id="z" d="m31.781 34.625q-7.0312 0-11.062-3.7656-4.0156-3.7656-4.0156-10.344 0-6.5938 4.0156-10.359 4.0312-3.7656 11.062-3.7656t11.078 3.7812q4.0625 3.7969 4.0625 10.344 0 6.5781-4.0312 10.344-4.0156 3.7656-11.109 3.7656zm-9.8594 4.1875q-6.3438 1.5625-9.8906 5.9062-3.5312 4.3594-3.5312 10.609 0 8.7344 6.2188 13.812 6.2344 5.0781 17.062 5.0781 10.891 0 17.094-5.0781t6.2031-13.812q0-6.25-3.5469-10.609-3.5312-4.3438-9.8281-5.9062 7.125-1.6562 11.094-6.5 3.9844-4.8281 3.9844-11.797 0-10.609-6.4688-16.281-6.4688-5.6562-18.531-5.6562-12.047 0-18.531 5.6562-6.4688 5.6719-6.4688 16.281 0 6.9688 4 11.797 4.0156 4.8438 11.141 6.5zm-3.6094 15.578q0-5.6562 3.5312-8.8281 3.5469-3.1719 9.9375-3.1719 6.3594 0 9.9375 3.1719 3.5938 3.1719 3.5938 8.8281 0 5.6719-3.5938 8.8438-3.5781 3.1719-9.9375 3.1719-6.3906 0-9.9375-3.1719-3.5312-3.1719-3.5312-8.8438z"/>
</defs>
<g transform="translate(399.78 821.18) scale(.1 -.1)">
<use xlink:href="#c"/>
<use x="63.623047" xlink:href="#e"/>
<use x="95.410156" xlink:href="#z"/>
</g>
</g>
<g clip-path="url(#a)">
<defs>
<path id="y" d="m10.984 1.5156v8.9844q3.7188-1.7656 7.5156-2.6875 3.8125-0.92188 7.4844-0.92188 9.7656 0 14.906 6.5625 5.1562 6.5625 5.8906 19.953-2.8281-4.2031-7.1875-6.4531-4.3438-2.25-9.6094-2.25-10.938 0-17.312 6.6094-6.375 6.625-6.375 18.109 0 11.219 6.6406 18 6.6406 6.7969 17.672 6.7969 12.656 0 19.312-9.7031 6.6719-9.6875 6.6719-28.141 0-17.234-8.1875-27.516-8.1719-10.281-21.984-10.281-3.7188 0-7.5312 0.73438-3.7969 0.73438-7.9062 2.2031zm19.625 30.906q6.6406 0 10.516 4.5312 3.8906 4.5469 3.8906 12.469 0 7.8594-3.8906 12.422-3.875 4.5625-10.516 4.5625t-10.516-4.5625-3.875-12.422q0-7.9219 3.875-12.469 3.875-4.5312 10.516-4.5312z"/>
</defs>
<g transform="translate(491.88 821.18) scale(.1 -.1)">
<use xlink:href="#c"/>
<use x="63.623047" xlink:href="#e"/>
<use x="95.410156" xlink:href="#y"/>
</g>
</g>
<g clip-path="url(#a)">
<defs>
<path id="ac" d="m31.781 66.406q-7.6094 0-11.453-7.5-3.8281-7.4844-3.8281-22.531 0-14.984 3.8281-22.484 3.8438-7.5 11.453-7.5 7.6719 0 11.5 7.5 3.8438 7.5 3.8438 22.484 0 15.047-3.8438 22.531-3.8281 7.5-11.5 7.5zm0 7.8125q12.266 0 18.734-9.7031 6.4688-9.6875 6.4688-28.141 0-18.406-6.4688-28.109-6.4688-9.6875-18.734-9.6875-12.25 0-18.719 9.6875-6.4688 9.7031-6.4688 28.109 0 18.453 6.4688 28.141 6.4688 9.7031 18.719 9.7031z"/>
</defs>
<g transform="translate(1322.1 184.97) scale(.1 -.1)">
<use xlink:href="#c"/>
<use x="63.623047" xlink:href="#e"/>
<use x="95.410156" xlink:href="#c"/>
<use x="159.033203" xlink:href="#ac"/>
</g>
</g>
<g clip-path="url(#a)">
<g transform="translate(1409.7 821.18) scale(.1 -.1)">
<use xlink:href="#c"/>
<use x="63.623047" xlink:href="#e"/>
<use x="95.410156" xlink:href="#c"/>
<use x="159.033203" xlink:href="#c"/>
</g>
</g>
<g clip-path="url(#a)">
<g transform="translate(1732.1 821.18) scale(.1 -.1)">
<use xlink:href="#c"/>
<use x="63.623047" xlink:href="#e"/>
<use x="95.410156" xlink:href="#c"/>
<use x="159.033203" xlink:href="#o"/>
</g>
</g>
<g clip-path="url(#a)">
<g transform="translate(74.232 821.18) scale(.1 -.1)">
<use xlink:href="#c"/>
<use x="63.623047" xlink:href="#e"/>
<use x="95.410156" xlink:href="#c"/>
<use x="159.033203" xlink:href="#n"/>
</g>
</g>
<g clip-path="url(#a)">
<g transform="translate(143.31 698.55) scale(.1 -.1)">
<use xlink:href="#c"/>
<use x="63.623047" xlink:href="#e"/>
<use x="95.410156" xlink:href="#c"/>
<use x="159.033203" xlink:href="#m"/>
</g>
</g>
<g clip-path="url(#a)">
<g transform="translate(166.34 821.18) scale(.1 -.1)">
<use xlink:href="#c"/>
<use x="63.623047" xlink:href="#e"/>
<use x="95.410156" xlink:href="#c"/>
<use x="159.033203" xlink:href="#v"/>
</g>
</g>
<g clip-path="url(#a)">
<g transform="translate(350.55 821.18) scale(.1 -.1)">
<use xlink:href="#c"/>
<use x="63.623047" xlink:href="#e"/>
<use x="95.410156" xlink:href="#c"/>
<use x="159.033203" xlink:href="#ab"/>
</g>
</g>
<g clip-path="url(#a)">
<g transform="translate(442.65 821.18) scale(.1 -.1)">
<use xlink:href="#c"/>
<use x="63.623047" xlink:href="#e"/>
<use x="95.410156" xlink:href="#c"/>
<use x="159.033203" xlink:href="#aa"/>
</g>
</g>
<g clip-path="url(#a)">
<g transform="translate(828.88 317.88) scale(.1 -.1)">
<use xlink:href="#c"/>
<use x="63.623047" xlink:href="#e"/>
<use x="95.410156" xlink:href="#c"/>
<use x="159.033203" xlink:href="#z"/>
</g>
</g>
<g clip-path="url(#a)">
<g transform="translate(580.81 821.18) scale(.1 -.1)">
<use xlink:href="#c"/>
<use x="63.623047" xlink:href="#e"/>
<use x="95.410156" xlink:href="#c"/>
<use x="159.033203" xlink:href="#y"/>
</g>
</g>
<g clip-path="url(#a)">
<g transform="translate(1455.8 821.18) scale(.1 -.1)">
<use xlink:href="#c"/>
<use x="63.623047" xlink:href="#e"/>
<use x="95.410156" xlink:href="#o"/>
<use x="159.033203" xlink:href="#ac"/>
</g>
</g>
<g clip-path="url(#a)">
<g transform="translate(1594 698.55) scale(.1 -.1)">
<use xlink:href="#c"/>
<use x="63.623047" xlink:href="#e"/>
<use x="95.410156" xlink:href="#o"/>
<use x="159.033203" xlink:href="#c"/>
</g>
</g>
<g clip-path="url(#a)">
<g transform="translate(1640 821.18) scale(.1 -.1)">
<use xlink:href="#c"/>
<use x="63.623047" xlink:href="#e"/>
<use x="95.410156" xlink:href="#o"/>
<use x="159.033203" xlink:href="#o"/>
</g>
</g>
<g clip-path="url(#a)">
<g transform="translate(120.28 821.18) scale(.1 -.1)">
<use xlink:href="#c"/>
<use x="63.623047" xlink:href="#e"/>
<use x="95.410156" xlink:href="#o"/>
<use x="159.033203" xlink:href="#n"/>
</g>
</g>
<g clip-path="url(#a)">
<g transform="translate(534.76 821.18) scale(.1 -.1)">
<use xlink:href="#c"/>
<use x="63.623047" xlink:href="#e"/>
<use x="95.410156" xlink:href="#o"/>
<use x="159.033203" xlink:href="#m"/>
</g>
</g>
<g clip-path="url(#a)">
<g transform="translate(665.24 447.49) scale(.1 -.1)">
<use xlink:href="#c"/>
<use x="63.623047" xlink:href="#e"/>
<use x="95.410156" xlink:href="#o"/>
<use x="159.033203" xlink:href="#v"/>
</g>
</g>
<g clip-path="url(#a)">
<g transform="translate(672.91 821.18) scale(.1 -.1)">
<use xlink:href="#c"/>
<use x="63.623047" xlink:href="#e"/>
<use x="95.410156" xlink:href="#o"/>
<use x="159.033203" xlink:href="#ab"/>
</g>
</g>
<g clip-path="url(#a)">
<g transform="translate(1041.3 821.18) scale(.1 -.1)">
<use xlink:href="#c"/>
<use x="63.623047" xlink:href="#e"/>
<use x="95.410156" xlink:href="#o"/>
<use x="159.033203" xlink:href="#aa"/>
</g>
</g>
<g clip-path="url(#a)">
<g transform="translate(1322.3 574.22) scale(.1 -.1)">
<use xlink:href="#c"/>
<use x="63.623047" xlink:href="#e"/>
<use x="95.410156" xlink:href="#o"/>
<use x="159.033203" xlink:href="#z"/>
</g>
</g>
<g clip-path="url(#a)">
<g transform="translate(1225.5 821.18) scale(.1 -.1)">
<use xlink:href="#c"/>
<use x="63.623047" xlink:href="#e"/>
<use x="95.410156" xlink:href="#o"/>
<use x="159.033203" xlink:href="#y"/>
</g>
</g>
<g clip-path="url(#a)">
<g transform="translate(1501.9 821.18) scale(.1 -.1)">
<use xlink:href="#c"/>
<use x="63.623047" xlink:href="#e"/>
<use x="95.410156" xlink:href="#n"/>
<use x="159.033203" xlink:href="#ac"/>
</g>
</g>
<g clip-path="url(#a)">
<g transform="translate(1547.9 821.18) scale(.1 -.1)">
<use xlink:href="#c"/>
<use x="63.623047" xlink:href="#e"/>
<use x="95.410156" xlink:href="#n"/>
<use x="159.033203" xlink:href="#c"/>
</g>
</g>
<g clip-path="url(#a)">
<g transform="translate(1594 821.18) scale(.1 -.1)">
<use xlink:href="#c"/>
<use x="63.623047" xlink:href="#e"/>
<use x="95.410156" xlink:href="#n"/>
<use x="159.033203" xlink:href="#o"/>
</g>
</g>
<g clip-path="url(#a)">
<g transform="translate(1686.1 821.18) scale(.1 -.1)">
<use xlink:href="#c"/>
<use x="63.623047" xlink:href="#e"/>
<use x="95.410156" xlink:href="#n"/>
<use x="159.033203" xlink:href="#n"/>
</g>
</g>
<g clip-path="url(#a)">
<g transform="translate(626.86 821.18) scale(.1 -.1)">
<use xlink:href="#c"/>
<use x="63.623047" xlink:href="#e"/>
<use x="95.410156" xlink:href="#n"/>
<use x="159.033203" xlink:href="#m"/>
</g>
</g>
<g clip-path="url(#a)">
<g transform="translate(780.37 574.22) scale(.1 -.1)">
<use xlink:href="#c"/>
<use x="63.623047" xlink:href="#e"/>
<use x="95.410156" xlink:href="#n"/>
<use x="159.033203" xlink:href="#v"/>
</g>
</g>
<g clip-path="url(#a)">
<g transform="translate(857.12 821.18) scale(.1 -.1)">
<use xlink:href="#c"/>
<use x="63.623047" xlink:href="#e"/>
<use x="95.410156" xlink:href="#n"/>
<use x="159.033203" xlink:href="#ab"/>
</g>
</g>
<g clip-path="url(#a)">
<g transform="translate(1110.4 821.18) scale(.1 -.1)">
<use xlink:href="#c"/>
<use x="63.623047" xlink:href="#e"/>
<use x="95.410156" xlink:href="#n"/>
<use x="159.033203" xlink:href="#aa"/>
</g>
</g>
<g clip-path="url(#a)">
<g transform="translate(1778.2 943.8) scale(.1 -.1)">
<use xlink:href="#c"/>
<use x="63.623047" xlink:href="#e"/>
<use x="95.410156" xlink:href="#n"/>
<use x="159.033203" xlink:href="#z"/>
</g>
</g>
<g clip-path="url(#a)">
<g transform="translate(1179.5 821.18) scale(.1 -.1)">
<use xlink:href="#c"/>
<use x="63.623047" xlink:href="#e"/>
<use x="95.410156" xlink:href="#n"/>
<use x="159.033203" xlink:href="#y"/>
</g>
</g>
<g clip-path="url(#a)">
<g transform="translate(1317.6 698.55) scale(.1 -.1)">
<use xlink:href="#c"/>
<use x="63.623047" xlink:href="#e"/>
<use x="95.410156" xlink:href="#m"/>
<use x="159.033203" xlink:href="#ac"/>
</g>
</g>
<g clip-path="url(#a)">
<g transform="translate(1363.7 821.18) scale(.1 -.1)">
<use xlink:href="#c"/>
<use x="63.623047" xlink:href="#e"/>
<use x="95.410156" xlink:href="#m"/>
<use x="159.033203" xlink:href="#c"/>
</g>
</g>
<g clip-path="url(#a)">
<g transform="translate(718.97 821.18) scale(.1 -.1)">
<use xlink:href="#c"/>
<use x="63.623047" xlink:href="#e"/>
<use x="95.410156" xlink:href="#m"/>
<use x="159.033203" xlink:href="#o"/>
</g>
</g>
<g clip-path="url(#a)">
<g transform="translate(765.02 821.18) scale(.1 -.1)">
<use xlink:href="#c"/>
<use x="63.623047" xlink:href="#e"/>
<use x="95.410156" xlink:href="#m"/>
<use x="159.033203" xlink:href="#n"/>
</g>
</g>
<g clip-path="url(#a)">
<g transform="translate(811.07 821.18) scale(.1 -.1)">
<use xlink:href="#c"/>
<use x="63.623047" xlink:href="#e"/>
<use x="95.410156" xlink:href="#m"/>
<use x="159.033203" xlink:href="#m"/>
</g>
</g>
<g clip-path="url(#a)">
<g transform="translate(949.23 698.55) scale(.1 -.1)">
<use xlink:href="#c"/>
<use x="63.623047" xlink:href="#e"/>
<use x="95.410156" xlink:href="#m"/>
<use x="159.033203" xlink:href="#v"/>
</g>
</g>
<g clip-path="url(#a)">
<g transform="translate(995.28 821.18) scale(.1 -.1)">
<use xlink:href="#c"/>
<use x="63.623047" xlink:href="#e"/>
<use x="95.410156" xlink:href="#m"/>
<use x="159.033203" xlink:href="#ab"/>
</g>
</g>
<g clip-path="url(#a)">
<g transform="translate(1271.6 821.18) scale(.1 -.1)">
<use xlink:href="#c"/>
<use x="63.623047" xlink:href="#e"/>
<use x="95.410156" xlink:href="#m"/>
<use x="159.033203" xlink:href="#aa"/>
</g>
</g>
<g clip-path="url(#a)">
<g transform="translate(1317.6 821.18) scale(.1 -.1)">
<use xlink:href="#c"/>
<use x="63.623047" xlink:href="#e"/>
<use x="95.410156" xlink:href="#m"/>
<use x="159.033203" xlink:href="#z"/>
</g>
</g>
<g clip-path="url(#a)">
<g transform="translate(903.17 821.18) scale(.1 -.1)">
<use xlink:href="#c"/>
<use x="63.623047" xlink:href="#e"/>
<use x="95.410156" xlink:href="#m"/>
<use x="159.033203" xlink:href="#y"/>
</g>
</g>
<g clip-path="url(#a)">
<g transform="translate(949.23 821.18) scale(.1 -.1)">
<use xlink:href="#c"/>
<use x="63.623047" xlink:href="#e"/>
<use x="95.410156" xlink:href="#v"/>
<use x="159.033203" xlink:href="#ac"/>
</g>
</g>
<defs>
<clipPath id="a">
<rect width="1874.7" height="986.67"/>
</clipPath>
</defs>
</svg>
