<?xml version="1.0" encoding="UTF-8"?>
<!DOCTYPE svg  PUBLIC '-//W3C//DTD SVG 1.1//EN'  'http://www.w3.org/Graphics/SVG/1.1/DTD/svg11.dtd'>
<svg width="1114.7pt" height="586.67pt" version="1.1" viewBox="0 0 1114.7 586.67" xmlns="http://www.w3.org/2000/svg" xmlns:xlink="http://www.w3.org/1999/xlink">
<defs>
<style type="text/css">*{stroke-linecap:butt;stroke-linejoin:round;}</style>
</defs>
<path d="m0 586.67h1114.7v-586.67h-1114.7z" fill="#fff"/>
<g fill="none" stroke="#000">
<path d="m492.27 27.441-139.46 81.116" clip-path="url(#a)"/>
<path d="m492.27 27.441 89.174 458.96" clip-path="url(#a)"/>
<path d="m492.27 27.441 50.29 160.05" clip-path="url(#a)"/>
<path d="m352.81 108.56-253.64 377.84" clip-path="url(#a)"/>
<path d="m352.81 108.56-301.87 377.84" clip-path="url(#a)"/>
<path d="m352.81 108.56-155.4 78.936" clip-path="url(#a)"/>
<path d="m352.81 108.56 710.92 377.84" clip-path="url(#a)"/>
<path d="m99.165 486.4v72.827" clip-path="url(#a)"/>
<path d="m50.936 486.4v72.827" clip-path="url(#a)"/>
<path d="m197.41 187.49-1.7862 298.91" clip-path="url(#a)"/>
<path d="m197.41 187.49-50.015 298.91" clip-path="url(#a)"/>
<path d="m197.41 187.49 51.801 76.977" clip-path="url(#a)"/>
<path d="m195.62 486.4v72.827" clip-path="url(#a)"/>
<path d="m581.45 486.4v72.827" clip-path="url(#a)"/>
<path d="m542.56 187.49-491.63 298.91" clip-path="url(#a)" stroke-dasharray="3.7,1.6"/>
<path d="m542.56 187.49 87.112 298.91" clip-path="url(#a)"/>
<path d="m542.56 187.49-9.3442 298.91" clip-path="url(#a)"/>
<path d="m542.56 187.49 135.34 298.91" clip-path="url(#a)"/>
<path d="m542.56 187.49 278.52 76.977" clip-path="url(#a)"/>
<path d="m629.68 486.4v72.827" clip-path="url(#a)"/>
<path d="m1063.7 486.4v72.827" clip-path="url(#a)"/>
<path d="m147.39 486.4v72.827" clip-path="url(#a)"/>
<path d="m249.21 264.47-101.82 221.93" clip-path="url(#a)" stroke-dasharray="3.7,1.6"/>
<path d="m249.21 264.47-5.3587 221.93" clip-path="url(#a)"/>
<path d="m249.21 264.47 107.17 75.262" clip-path="url(#a)"/>
<path d="m243.85 486.4v72.827" clip-path="url(#a)"/>
<path d="m533.22 486.4v72.827" clip-path="url(#a)"/>
<path d="m677.9 486.4v72.827" clip-path="url(#a)"/>
<path d="m821.08 264.47 1.5071 221.93" clip-path="url(#a)"/>
<path d="m821.08 264.47-94.949 221.93" clip-path="url(#a)"/>
<path d="m821.08 264.47-46.721 221.93" clip-path="url(#a)"/>
<path d="m821.08 264.47 140.16 75.262" clip-path="url(#a)"/>
<path d="m822.59 486.4v72.827" clip-path="url(#a)"/>
<path d="m356.38 339.73-16.076 146.67" clip-path="url(#a)"/>
<path d="m356.38 339.73-64.304 146.67" clip-path="url(#a)"/>
<path d="m356.38 339.73 80.38 73.84" clip-path="url(#a)"/>
<path d="m340.31 486.4v72.827" clip-path="url(#a)"/>
<path d="m726.13 486.4v72.827" clip-path="url(#a)"/>
<path d="m774.36 486.4v72.827" clip-path="url(#a)"/>
<path d="m961.25 339.73 54.257 146.67" clip-path="url(#a)"/>
<path d="m961.25 339.73-90.428 146.67" clip-path="url(#a)"/>
<path d="m961.25 339.73 6.0285 73.84" clip-path="url(#a)"/>
<path d="m961.25 339.73 30.143 73.84" clip-path="url(#a)"/>
<path d="m1015.5 486.4v72.827" clip-path="url(#a)"/>
<path d="m292.08 486.4v72.827" clip-path="url(#a)"/>
<path d="m436.76 413.57 48.228 72.827" clip-path="url(#a)"/>
<path d="m436.76 413.57-48.228 72.827" clip-path="url(#a)"/>
<path d="m436.76 413.57v72.827" clip-path="url(#a)"/>
<path d="m484.99 486.4v72.827" clip-path="url(#a)"/>
<path d="m870.82 486.4v72.827" clip-path="url(#a)"/>
<path d="m967.27 413.57 48.228 72.827" clip-path="url(#a)" stroke-dasharray="3.7,1.6"/>
<path d="m967.27 413.57-48.228 72.827" clip-path="url(#a)"/>
<path d="m919.05 486.4v72.827" clip-path="url(#a)"/>
<path d="m991.39 413.57 24.114 72.827" clip-path="url(#a)" stroke-dasharray="3.7,1.6"/>
<path d="m991.39 413.57-24.114 72.827" clip-path="url(#a)"/>
<path d="m967.27 486.4v72.827" clip-path="url(#a)"/>
<path d="m388.53 486.4v72.827" clip-path="url(#a)"/>
<path d="m436.76 486.4v72.827" clip-path="url(#a)"/>
</g>
<path d="m423.09 74.932 5.2006-3.0248q2.0746-1.2067 0.86795-3.2813l-3.8927-6.6928q-1.2067-2.0746-3.2813-0.86795l-5.2006 3.0248q-2.0746 1.2067-0.86795 3.2813l3.8927 6.6928q1.2067 2.0746 3.2813 0.86795z" clip-path="url(#a)" fill="#fff" stroke="#fff"/>
<g clip-path="url(#a)">
<defs>
<path id="ai" d="m9.8125 72.906h9.8594v-29.891h35.844v29.891h9.8594v-72.906h-9.8594v34.719h-35.844v-34.719h-9.8594z"/>
</defs>
<g transform="translate(421.05 71.42) rotate(-30.184) scale(.08 -.08)">
<use xlink:href="#ai"/>
</g>
</g>
<path d="m530.28 255.93 0.85018 4.3757q0.45775 2.3559 2.8137 1.8982l7.6004-1.4767q2.3559-0.45775 1.8982-2.8137l-0.85018-4.3757q-0.45775-2.3559-2.8137-1.8982l-7.6004 1.4767q-2.3559 0.45775-1.8982 2.8137z" clip-path="url(#a)" fill="#fff" stroke="#fff"/>
<g clip-path="url(#a)">
<defs>
<path id="ao" d="m9.8125 72.906h9.8594v-64.609h35.5v-8.2969h-45.359z"/>
</defs>
<g transform="translate(534.27 255.15) rotate(79.005) scale(.08 -.08)">
<use xlink:href="#ao"/>
</g>
</g>
<path d="m510.53 106.48 1.8034 5.7396q0.71942 2.2896 3.0091 1.5702l7.3865-2.3209q2.2896-0.71942 1.5702-3.0091l-1.8034-5.7396q-0.71942-2.2896-3.0091-1.5702l-7.3865 2.3209q-2.2896 0.71942-1.5702 3.0091z" clip-path="url(#a)" fill="#fff" stroke="#fff"/>
<g clip-path="url(#a)">
<g transform="translate(514.41 105.26) rotate(72.557) scale(.08 -.08)">
<use xlink:href="#ai"/>
</g>
</g>
<path d="m229.85 302.98 2.6886-4.005q1.3377-1.9926-0.65498-3.3303l-6.4284-4.3154q-1.9926-1.3377-3.3303 0.65498l-2.6886 4.005q-1.3377 1.9926 0.65499 3.3303l6.4284 4.3154q1.9926 1.3377 3.3303-0.65499z" clip-path="url(#a)" fill="#fff" stroke="#fff"/>
<g clip-path="url(#a)">
<defs>
<path id="r" d="m19.672 64.797v-27.391h12.406q6.8906 0 10.641 3.5625 3.7656 3.5625 3.7656 10.156 0 6.5469-3.7656 10.109-3.75 3.5625-10.641 3.5625zm-9.8594 8.1094h22.266q12.266 0 18.531-5.5469 6.2812-5.5469 6.2812-16.234 0-10.797-6.2812-16.312-6.2656-5.5156-18.531-5.5156h-12.406v-29.297h-9.8594z"/>
</defs>
<g transform="translate(226.48 300.71) rotate(-56.127) scale(.08 -.08)">
<use xlink:href="#r"/>
</g>
</g>
<path d="m205.06 303.53 3.4159-4.2755q1.4981-1.8751-0.377-3.3731l-6.049-4.8328q-1.8751-1.4981-3.3731 0.377l-3.4159 4.2755q-1.4981 1.8751 0.377 3.3731l6.049 4.8328q1.8751 1.4981 3.3731-0.377z" clip-path="url(#a)" fill="#fff" stroke="#fff"/>
<g clip-path="url(#a)">
<defs>
<path id="n" d="m34.188 63.188-13.391-36.281h26.812zm-5.5781 9.7188h11.188l27.781-72.906h-10.25l-6.6406 18.703h-32.859l-6.6406-18.703h-10.406z"/>
</defs>
<g transform="translate(201.89 300.99) rotate(-51.377) scale(.08 -.08)">
<use xlink:href="#n"/>
</g>
</g>
<path d="m275.51 154.86 4.8791-2.4783q2.1398-1.0869 1.0529-3.2267l-3.5064-6.903q-1.0869-2.1398-3.2267-1.0529l-4.8791 2.4784q-2.1398 1.0869-1.0529 3.2267l3.5064 6.903q1.0869 2.1398 3.2267 1.0529z" clip-path="url(#a)" fill="#fff" stroke="#fff"/>
<g clip-path="url(#a)">
<g transform="translate(273.67 151.23) rotate(-26.928) scale(.08 -.08)">
<use xlink:href="#n"/>
</g>
</g>
<path d="m702.74 301.64 5.1701 2.7478q2.1193 1.1264 3.2456-0.99292l3.6337-6.8369q1.1264-2.1193-0.99292-3.2456l-5.1701-2.7478q-2.1193-1.1264-3.2456 0.99292l-3.6337 6.8369q-1.1264 2.1193 0.99292 3.2456z" clip-path="url(#a)" fill="#fff" stroke="#fff"/>
<g clip-path="url(#a)">
<defs>
<path id="ah" d="m8.6875 72.906h9.9219v-44.297q0-11.719 4.2344-16.875 4.25-5.1406 13.781-5.1406 9.4688 0 13.719 5.1406 4.25 5.1562 4.25 16.875v44.297h9.9062v-45.516q0-14.25-7.0625-21.531-7.0469-7.2812-20.812-7.2812-13.828 0-20.891 7.2812-7.0469 7.2812-7.0469 21.531z"/>
</defs>
<g transform="translate(704.65 298.05) rotate(27.99) scale(.08 -.08)">
<use xlink:href="#ah"/>
</g>
</g>
<path d="m92.893 505.17v35.285q0 2.4 2.4 2.4h7.7425q2.4 0 2.4-2.4v-35.285q0-2.4-2.4-2.4h-7.7425q-2.4 0-2.4 2.4z" clip-path="url(#a)" fill="#fff" stroke="#fff"/>
<g clip-path="url(#a)">
<defs>
<path id="l" d="m-0.29688 72.906h61.672v-8.3125h-25.875v-64.594h-9.9062v64.594h-25.891z"/>
<path id="d" d="m56.203 29.594v-4.3906h-41.312q0.59375-9.2812 5.5938-14.141t13.938-4.8594q5.1719 0 10.031 1.2656t9.6562 3.8125v-8.5q-4.8438-2.0469-9.9219-3.125t-10.297-1.0781q-13.094 0-20.734 7.6094-7.6406 7.625-7.6406 20.625 0 13.422 7.25 21.297 7.25 7.8906 19.562 7.8906 11.031 0 17.453-7.1094 6.4219-7.0938 6.4219-19.297zm-8.9844 2.6406q-0.09375 7.3594-4.125 11.75-4.0312 4.4062-10.672 4.4062-7.5156 0-12.031-4.25t-5.2031-11.969z"/>
<path id="k" d="m41.109 46.297q-1.5156 0.875-3.2969 1.2812-1.7812 0.42188-3.9219 0.42188-7.625 0-11.703-4.9531t-4.0781-14.234v-28.812h-9.0312v54.688h9.0312v-8.5q2.8438 4.9844 7.375 7.3906 4.5469 2.4219 11.047 2.4219 0.92188 0 2.0469-0.125 1.125-0.10938 2.4844-0.35938z"/>
<path id="g" d="m52 44.188q3.375 6.0625 8.0625 8.9375t11.031 2.875q8.5469 0 13.188-5.9844 4.6406-5.9688 4.6406-17v-33.016h-9.0312v32.719q0 7.8594-2.7969 11.656-2.7812 3.8125-8.4844 3.8125-6.9844 0-11.047-4.6406-4.0469-4.625-4.0469-12.641v-30.906h-9.0312v32.719q0 7.9062-2.7812 11.688t-8.5938 3.7812q-6.8906 0-10.953-4.6562-4.0469-4.6562-4.0469-12.625v-30.906h-9.0312v54.688h9.0312v-8.5q3.0781 5.0312 7.375 7.4219t10.203 2.3906q5.9688 0 10.141-3.0312 4.1719-3.0156 6.1719-8.7812z"/>
<path id="i" d="m9.4219 54.688h8.9844v-54.688h-8.9844zm0 21.297h8.9844v-11.391h-8.9844z"/>
<path id="h" d="m54.891 33.016v-33.016h-8.9844v32.719q0 7.7656-3.0312 11.609-3.0312 3.8594-9.0781 3.8594-7.2812 0-11.484-4.6406-4.2031-4.625-4.2031-12.641v-30.906h-9.0312v54.688h9.0312v-8.5q3.2344 4.9375 7.5938 7.375 4.375 2.4375 10.094 2.4375 9.4219 0 14.25-5.8281 4.8438-5.8281 4.8438-17.156z"/>
<path id="f" d="m34.281 27.484q-10.891 0-15.094-2.4844t-4.2031-8.5q0-4.7812 3.1562-7.5938 3.1562-2.7969 8.5625-2.7969 7.4844 0 12 5.2969t4.5156 14.078v2zm17.922 3.7188v-31.203h-8.9844v8.2969q-3.0781-4.9688-7.6719-7.3438t-11.234-2.375q-8.3906 0-13.359 4.7188-4.9531 4.7188-4.9531 12.625 0 9.2188 6.1719 13.906 6.1875 4.6875 18.438 4.6875h12.609v0.89062q0 6.2031-4.0781 9.5938t-11.453 3.3906q-4.6875 0-9.1406-1.125-4.4375-1.125-8.5312-3.375v8.3125q4.9219 1.9062 9.5625 2.8438 4.6406 0.95312 9.0312 0.95312 11.875 0 17.734-6.1562 5.8594-6.1406 5.8594-18.641z"/>
<path id="j" d="m9.4219 75.984h8.9844v-75.984h-8.9844z"/>
</defs>
<g transform="translate(96.957 505.17) rotate(90) scale(.08 -.08)">
<use xlink:href="#l"/>
<use x="60.818359" xlink:href="#d"/>
<use x="122.341797" xlink:href="#k"/>
<use x="163.439453" xlink:href="#g"/>
<use x="260.851562" xlink:href="#i"/>
<use x="288.634766" xlink:href="#h"/>
<use x="352.013672" xlink:href="#f"/>
<use x="413.292969" xlink:href="#j"/>
</g>
</g>
<path d="m44.665 505.17v35.285q0 2.4 2.4 2.4h7.7425q2.4 0 2.4-2.4v-35.285q0-2.4-2.4-2.4h-7.7425q-2.4 0-2.4 2.4z" clip-path="url(#a)" fill="#fff" stroke="#fff"/>
<g clip-path="url(#a)">
<g transform="translate(48.729 505.17) rotate(90) scale(.08 -.08)">
<use xlink:href="#l"/>
<use x="60.818359" xlink:href="#d"/>
<use x="122.341797" xlink:href="#k"/>
<use x="163.439453" xlink:href="#g"/>
<use x="260.851562" xlink:href="#i"/>
<use x="288.634766" xlink:href="#h"/>
<use x="352.013672" xlink:href="#f"/>
<use x="413.292969" xlink:href="#j"/>
</g>
</g>
<path d="m202.77 339.4 0.028826-4.8237q0.014342-2.4-2.3856-2.4143l-7.7424-0.046267q-2.4-0.014342-2.4143 2.3856l-0.028826 4.8237q-0.014342 2.4 2.3856 2.4143l7.7424 0.046267q2.4 0.014342 2.4143-2.3856z" clip-path="url(#a)" fill="#fff" stroke="#fff"/>
<g clip-path="url(#a)">
<g transform="translate(198.71 339.37) rotate(-89.658) scale(.08 -.08)">
<use xlink:href="#r"/>
</g>
</g>
<path d="m178.13 340.68 0.90313-5.3975q0.39608-2.3671-1.971-2.7632l-7.6363-1.2778q-2.3671-0.39607-2.7632 1.971l-0.90313 5.3975q-0.39608 2.3671 1.971 2.7632l7.6363 1.2778q2.3671 0.39607 2.7632-1.971z" clip-path="url(#a)" fill="#fff" stroke="#fff"/>
<g clip-path="url(#a)">
<g transform="translate(174.13 340.01) rotate(-80.501) scale(.08 -.08)">
<use xlink:href="#n"/>
</g>
</g>
<path d="m216.58 227.21 3.0553 4.5402q1.3399 1.9911 3.3311 0.65122l6.4235-4.3226q1.9911-1.3399 0.65122-3.3311l-3.0553-4.5402q-1.3399-1.9911-3.3311-0.65122l-6.4235 4.3226q-1.9911 1.3399-0.65122 3.3311z" clip-path="url(#a)" fill="#fff" stroke="#fff"/>
<g clip-path="url(#a)">
<g transform="translate(219.95 224.94) rotate(56.062) scale(.08 -.08)">
<use xlink:href="#n"/>
</g>
</g>
<path d="m189.35 505.17v35.285q0 2.4 2.4 2.4h7.7425q2.4 0 2.4-2.4v-35.285q0-2.4-2.4-2.4h-7.7425q-2.4 0-2.4 2.4z" clip-path="url(#a)" fill="#fff" stroke="#fff"/>
<g clip-path="url(#a)">
<g transform="translate(193.41 505.17) rotate(90) scale(.08 -.08)">
<use xlink:href="#l"/>
<use x="60.818359" xlink:href="#d"/>
<use x="122.341797" xlink:href="#k"/>
<use x="163.439453" xlink:href="#g"/>
<use x="260.851562" xlink:href="#i"/>
<use x="288.634766" xlink:href="#h"/>
<use x="352.013672" xlink:href="#f"/>
<use x="413.292969" xlink:href="#j"/>
</g>
</g>
<path d="m575.18 505.17v35.285q0 2.4 2.4 2.4h7.7425q2.4 0 2.4-2.4v-35.285q0-2.4-2.4-2.4h-7.7425q-2.4 0-2.4 2.4z" clip-path="url(#a)" fill="#fff" stroke="#fff"/>
<g clip-path="url(#a)">
<g transform="translate(579.24 505.17) rotate(90) scale(.08 -.08)">
<use xlink:href="#l"/>
<use x="60.818359" xlink:href="#d"/>
<use x="122.341797" xlink:href="#k"/>
<use x="163.439453" xlink:href="#g"/>
<use x="260.851562" xlink:href="#i"/>
<use x="288.634766" xlink:href="#h"/>
<use x="352.013672" xlink:href="#f"/>
<use x="413.292969" xlink:href="#j"/>
</g>
</g>
<path d="m297.67 343.73 4.6761-2.843q2.0507-1.2468 0.8039-3.2975l-4.0223-6.6157q-1.2468-2.0507-3.2975-0.8039l-4.6761 2.843q-2.0507 1.2468-0.8039 3.2975l4.0223 6.6157q1.2468 2.0507 3.2975 0.8039z" clip-path="url(#a)" fill="#fff" stroke="#fff"/>
<g clip-path="url(#a)">
<g transform="translate(295.56 340.25) rotate(-31.299) scale(.08 -.08)">
<use xlink:href="#n"/>
</g>
</g>
<path d="m579.42 336.39 1.3497 4.6311q0.67151 2.3041 2.9757 1.6326l7.4333-2.1663q2.3041-0.67151 1.6326-2.9757l-1.3497-4.6311q-0.67151-2.3041-2.9757-1.6326l-7.4333 2.1663q-2.3041 0.67151-1.6326 2.9757z" clip-path="url(#a)" fill="#fff" stroke="#fff"/>
<g clip-path="url(#a)">
<g transform="translate(583.33 335.25) rotate(73.752) scale(.08 -.08)">
<use xlink:href="#r"/>
</g>
</g>
<path d="m544.07 340.07 0.18295-5.8521q0.074991-2.3988-2.3238-2.4738l-7.7387-0.24192q-2.3988-0.074991-2.4738 2.3238l-0.18295 5.8521q-0.074991 2.3988 2.3238 2.4738l7.7387 0.24192q2.3988 0.074991 2.4738-2.3238z" clip-path="url(#a)" fill="#fff" stroke="#fff"/>
<g clip-path="url(#a)">
<g transform="translate(540.01 339.94) rotate(-88.209) scale(.08 -.08)">
<use xlink:href="#ah"/>
</g>
</g>
<path d="m603.39 337.04 2.2573 4.9853q0.98994 2.1863 3.1763 1.1964l7.0532-3.1936q2.1863-0.98994 1.1964-3.1763l-2.2573-4.9853q-0.98994-2.1863-3.1763-1.1964l-7.0532 3.1936q-2.1863 0.98994-1.1964 3.1763z" clip-path="url(#a)" fill="#fff" stroke="#fff"/>
<g clip-path="url(#a)">
<g transform="translate(607.09 335.36) rotate(65.64) scale(.08 -.08)">
<use xlink:href="#n"/>
</g>
</g>
<path d="m677.51 231.3 5.2747 1.4578q2.3133 0.63934 2.9526-1.6739l2.0625-7.4627q0.63934-2.3133-1.6739-2.9526l-5.2747-1.4578q-2.3133-0.63934-2.9526 1.6739l-2.0625 7.4627q-0.63934 2.3133 1.6739 2.9526z" clip-path="url(#a)" fill="#fff" stroke="#fff"/>
<g clip-path="url(#a)">
<g transform="translate(678.6 227.38) rotate(15.45) scale(.08 -.08)">
<use xlink:href="#n"/>
</g>
</g>
<path d="m623.4 505.17v35.285q0 2.4 2.4 2.4h7.7425q2.4 0 2.4-2.4v-35.285q0-2.4-2.4-2.4h-7.7425q-2.4 0-2.4 2.4z" clip-path="url(#a)" fill="#fff" stroke="#fff"/>
<g clip-path="url(#a)">
<g transform="translate(627.47 505.17) rotate(90) scale(.08 -.08)">
<use xlink:href="#l"/>
<use x="60.818359" xlink:href="#d"/>
<use x="122.341797" xlink:href="#k"/>
<use x="163.439453" xlink:href="#g"/>
<use x="260.851562" xlink:href="#i"/>
<use x="288.634766" xlink:href="#h"/>
<use x="352.013672" xlink:href="#f"/>
<use x="413.292969" xlink:href="#j"/>
</g>
</g>
<path d="m1057.5 505.17v35.285q0 2.4 2.4 2.4h7.7425q2.4 0 2.4-2.4v-35.285q0-2.4-2.4-2.4h-7.7425q-2.4 0-2.4 2.4z" clip-path="url(#a)" fill="#fff" stroke="#fff"/>
<g clip-path="url(#a)">
<g transform="translate(1061.5 505.17) rotate(90) scale(.08 -.08)">
<use xlink:href="#l"/>
<use x="60.818359" xlink:href="#d"/>
<use x="122.341797" xlink:href="#k"/>
<use x="163.439453" xlink:href="#g"/>
<use x="260.851562" xlink:href="#i"/>
<use x="288.634766" xlink:href="#h"/>
<use x="352.013672" xlink:href="#f"/>
<use x="413.292969" xlink:href="#j"/>
</g>
</g>
<path d="m141.12 505.17v35.285q0 2.4 2.4 2.4h7.7425q2.4 0 2.4-2.4v-35.285q0-2.4-2.4-2.4h-7.7425q-2.4 0-2.4 2.4z" clip-path="url(#a)" fill="#fff" stroke="#fff"/>
<g clip-path="url(#a)">
<g transform="translate(145.19 505.17) rotate(90) scale(.08 -.08)">
<use xlink:href="#l"/>
<use x="60.818359" xlink:href="#d"/>
<use x="122.341797" xlink:href="#k"/>
<use x="163.439453" xlink:href="#g"/>
<use x="260.851562" xlink:href="#i"/>
<use x="288.634766" xlink:href="#h"/>
<use x="352.013672" xlink:href="#f"/>
<use x="413.292969" xlink:href="#j"/>
</g>
</g>
<path d="m202.86 380.54 2.282-4.974q1.0008-2.1814-1.1806-3.1822l-7.0373-3.2285q-2.1814-1.0008-3.1822 1.1806l-2.282 4.974q-1.0008 2.1814 1.1806 3.1822l7.0373 3.2285q2.1814 1.0008 3.1822-1.1806z" clip-path="url(#a)" fill="#fff" stroke="#fff"/>
<g clip-path="url(#a)">
<g transform="translate(199.17 378.84) rotate(-65.356) scale(.08 -.08)">
<use xlink:href="#n"/>
</g>
</g>
<path d="m252.74 378.12 0.1226-5.0773q0.057934-2.3993-2.3414-2.4572l-7.7402-0.1869q-2.3993-0.057933-2.4572 2.3414l-0.1226 5.0773q-0.057933 2.3993 2.3414 2.4572l7.7402 0.1869q2.3993 0.057933 2.4572-2.3414z" clip-path="url(#a)" fill="#fff" stroke="#fff"/>
<g clip-path="url(#a)">
<defs>
<path id="v" d="m53.516 70.516v-9.625q-5.6094 2.6875-10.594 4-4.9844 1.3281-9.625 1.3281-8.0469 0-12.422-3.125t-4.375-8.8906q0-4.8438 2.9062-7.3125 2.9062-2.4531 11.016-3.9688l5.9531-1.2188q11.031-2.1094 16.281-7.4062t5.25-14.172q0-10.609-7.1094-16.078-7.0938-5.4688-20.812-5.4688-5.1719 0-11.016 1.1719-5.8281 1.1719-12.078 3.4688v10.156q6-3.3594 11.766-5.0781 5.7656-1.7031 11.328-1.7031 8.4375 0 13.031 3.3125 4.5938 3.3281 4.5938 9.4844 0 5.3594-3.2969 8.3906t-10.812 4.5469l-6.0156 1.1719q-11.031 2.1875-15.969 6.875-4.9219 4.6875-4.9219 13.047 0 9.6719 6.8125 15.234t18.766 5.5625q5.1406 0 10.453-0.9375 5.3281-0.92188 10.891-2.7656z"/>
</defs>
<g transform="translate(248.67 378.03) rotate(-88.617) scale(.08 -.08)">
<use xlink:href="#v"/>
</g>
</g>
<path d="m296.74 305.51 4.8979 3.4395q1.9641 1.3793 3.3433-0.58482l4.4496-6.3362q1.3793-1.9641-0.58482-3.3433l-4.8979-3.4395q-1.9641-1.3793-3.3433 0.58482l-4.4496 6.3362q-1.3793 1.9641 0.58482 3.3433z" clip-path="url(#a)" fill="#fff" stroke="#fff"/>
<g clip-path="url(#a)">
<defs>
<path id="an" d="m9.8125 72.906h13.281l32.328-60.984v60.984h9.5625v-72.906h-13.281l-32.312 60.984v-60.984h-9.5781z"/>
</defs>
<g transform="translate(299.08 302.19) rotate(35.078) scale(.08 -.08)">
<use xlink:href="#an"/>
</g>
</g>
<path d="m237.58 505.17v35.285q0 2.4 2.4 2.4h7.7425q2.4 0 2.4-2.4v-35.285q0-2.4-2.4-2.4h-7.7425q-2.4 0-2.4 2.4z" clip-path="url(#a)" fill="#fff" stroke="#fff"/>
<g clip-path="url(#a)">
<g transform="translate(241.64 505.17) rotate(90) scale(.08 -.08)">
<use xlink:href="#l"/>
<use x="60.818359" xlink:href="#d"/>
<use x="122.341797" xlink:href="#k"/>
<use x="163.439453" xlink:href="#g"/>
<use x="260.851562" xlink:href="#i"/>
<use x="288.634766" xlink:href="#h"/>
<use x="352.013672" xlink:href="#f"/>
<use x="413.292969" xlink:href="#j"/>
</g>
</g>
<path d="m526.95 505.17v35.285q0 2.4 2.4 2.4h7.7425q2.4 0 2.4-2.4v-35.285q0-2.4-2.4-2.4h-7.7425q-2.4 0-2.4 2.4z" clip-path="url(#a)" fill="#fff" stroke="#fff"/>
<g clip-path="url(#a)">
<g transform="translate(531.01 505.17) rotate(90) scale(.08 -.08)">
<use xlink:href="#l"/>
<use x="60.818359" xlink:href="#d"/>
<use x="122.341797" xlink:href="#k"/>
<use x="163.439453" xlink:href="#g"/>
<use x="260.851562" xlink:href="#i"/>
<use x="288.634766" xlink:href="#h"/>
<use x="352.013672" xlink:href="#f"/>
<use x="413.292969" xlink:href="#j"/>
</g>
</g>
<path d="m671.63 505.17v35.285q0 2.4 2.4 2.4h7.7425q2.4 0 2.4-2.4v-35.285q0-2.4-2.4-2.4h-7.7425q-2.4 0-2.4 2.4z" clip-path="url(#a)" fill="#fff" stroke="#fff"/>
<g clip-path="url(#a)">
<g transform="translate(675.7 505.17) rotate(90) scale(.08 -.08)">
<use xlink:href="#l"/>
<use x="60.818359" xlink:href="#d"/>
<use x="122.341797" xlink:href="#k"/>
<use x="163.439453" xlink:href="#g"/>
<use x="260.851562" xlink:href="#i"/>
<use x="288.634766" xlink:href="#h"/>
<use x="352.013672" xlink:href="#f"/>
<use x="413.292969" xlink:href="#j"/>
</g>
</g>
<path d="m815.55 373.07 0.032758 4.8236q0.016298 2.3999 2.4162 2.3836l7.7423-0.052578q2.3999-0.016299 2.3836-2.4162l-0.032758-4.8236q-0.016298-2.3999-2.4162-2.3836l-7.7423 0.052578q-2.3999 0.016298-2.3836 2.4162z" clip-path="url(#a)" fill="#fff" stroke="#fff"/>
<g clip-path="url(#a)">
<g transform="translate(819.61 373.04) rotate(89.611) scale(.08 -.08)">
<use xlink:href="#r"/>
</g>
</g>
<path d="m778.28 380.46 2.1865-5.1107q0.94404-2.2065-1.2625-3.1506l-7.1184-3.0455q-2.2065-0.94404-3.1506 1.2625l-2.1865 5.1107q-0.94404 2.2065 1.2625 3.1506l7.1184 3.0455q2.2065 0.94404 3.1506-1.2625z" clip-path="url(#a)" fill="#fff" stroke="#fff"/>
<g clip-path="url(#a)">
<defs>
<path id="w" d="m44.391 34.188q3.1719-1.0781 6.1719-4.5938t6.0312-9.6719l10.016-19.922h-10.609l-9.3125 18.703q-3.625 7.3281-7.0156 9.7188t-9.25 2.3906h-10.75v-30.812h-9.8594v72.906h22.266q12.5 0 18.656-5.2344 6.1562-5.2188 6.1562-15.766 0-6.8906-3.2031-11.438-3.2031-4.5312-9.2969-6.2812zm-24.719 30.609v-25.875h12.406q7.125 0 10.766 3.2969t3.6406 9.6875-3.6406 9.6406-10.766 3.25z"/>
</defs>
<g transform="translate(774.54 378.86) rotate(-66.837) scale(.08 -.08)">
<use xlink:href="#w"/>
</g>
</g>
<path d="m803.38 378.98 0.94789-4.5026q0.49442-2.3485-1.8541-2.8429l-7.5764-1.595q-2.3485-0.49442-2.8429 1.8541l-0.94789 4.5026q-0.49442 2.3485 1.8541 2.8429l7.5764 1.595q2.3485 0.49442 2.8429-1.8541z" clip-path="url(#a)" fill="#fff" stroke="#fff"/>
<g clip-path="url(#a)">
<defs>
<path id="aj" d="m9.8125 72.906h41.891v-8.3125h-32.031v-21.484h28.906v-8.2969h-28.906v-34.812h-9.8594z"/>
</defs>
<g transform="translate(799.41 378.14) rotate(-78.112) scale(.08 -.08)">
<use xlink:href="#aj"/>
</g>
</g>
<path d="m885.48 306.17 5.4271 2.9141q2.1145 1.1354 3.2498-0.97908l3.6628-6.8213q1.1354-2.1145-0.97908-3.2498l-5.4271-2.9141q-2.1145-1.1354-3.2498 0.97908l-3.6628 6.8213q-1.1354 2.1145 0.97908 3.2498z" clip-path="url(#a)" fill="#fff" stroke="#fff"/>
<g clip-path="url(#a)">
<defs>
<path id="ap" d="m19.672 64.797v-56.688h11.922q15.094 0 22.094 6.8281 7 6.8438 7 21.594 0 14.641-7 21.453t-22.094 6.8125zm-9.8594 8.1094h20.266q21.188 0 31.094-8.8125 9.9219-8.8125 9.9219-27.562 0-18.859-9.9688-27.703-9.9531-8.8281-31.047-8.8281h-20.266z"/>
</defs>
<g transform="translate(887.41 302.59) rotate(28.234) scale(.08 -.08)">
<use xlink:href="#ap"/>
</g>
</g>
<path d="m816.32 505.17v35.285q0 2.4 2.4 2.4h7.7425q2.4 0 2.4-2.4v-35.285q0-2.4-2.4-2.4h-7.7425q-2.4 0-2.4 2.4z" clip-path="url(#a)" fill="#fff" stroke="#fff"/>
<g clip-path="url(#a)">
<g transform="translate(820.38 505.17) rotate(90) scale(.08 -.08)">
<use xlink:href="#l"/>
<use x="60.818359" xlink:href="#d"/>
<use x="122.341797" xlink:href="#k"/>
<use x="163.439453" xlink:href="#g"/>
<use x="260.851562" xlink:href="#i"/>
<use x="288.634766" xlink:href="#h"/>
<use x="352.013672" xlink:href="#f"/>
<use x="413.292969" xlink:href="#j"/>
</g>
</g>
<path d="m354.27 416.53 0.60866-5.553q0.2615-2.3857-2.1242-2.6472l-7.6964-0.8436q-2.3857-0.2615-2.6472 2.1242l-0.60866 5.553q-0.2615 2.3857 2.1242 2.6472l7.6964 0.8436q2.3857 0.2615 2.6472-2.1242z" clip-path="url(#a)" fill="#fff" stroke="#fff"/>
<g clip-path="url(#a)">
<defs>
<path id="ak" d="m64.406 67.281v-10.391q-4.9844 4.6406-10.625 6.9219-5.6406 2.2969-11.984 2.2969-12.5 0-19.141-7.6406t-6.6406-22.094q0-14.406 6.6406-22.047t19.141-7.6406q6.3438 0 11.984 2.2969t10.625 6.9375v-10.312q-5.1719-3.5156-10.969-5.2812-5.7812-1.75-12.219-1.75-16.562 0-26.094 10.125-9.5156 10.141-9.5156 27.672 0 17.578 9.5156 27.703 9.5312 10.141 26.094 10.141 6.5312 0 12.312-1.7344 5.7969-1.7344 10.875-5.2031z"/>
</defs>
<g transform="translate(350.23 416.08) rotate(-83.745) scale(.08 -.08)">
<use xlink:href="#ak"/>
</g>
</g>
<path d="m328.86 418.13 2.2321-5.0909q0.9637-2.198-1.2343-3.1617l-7.0909-3.1089q-2.198-0.9637-3.1617 1.2343l-2.2321 5.0909q-0.9637 2.198 1.2343 3.1617l7.0909 3.1089q2.198 0.9637 3.1617-1.2343z" clip-path="url(#a)" fill="#fff" stroke="#fff"/>
<g clip-path="url(#a)">
<g transform="translate(325.14 416.5) rotate(-66.326) scale(.08 -.08)">
<use xlink:href="#w"/>
</g>
</g>
<path d="m390.47 379.56 3.7227 3.4198q1.7674 1.6236 3.3911-0.14381l5.2379-5.7018q1.6236-1.7674-0.14381-3.3911l-3.7227-3.4198q-1.7674-1.6236-3.3911 0.14381l-5.2379 5.7018q-1.6236 1.7674 0.14381 3.3911z" clip-path="url(#a)" fill="#fff" stroke="#fff"/>
<g clip-path="url(#a)">
<defs>
<path id="x" d="m9.8125 72.906h46.094v-8.3125h-36.234v-21.578h34.719v-8.2969h-34.719v-26.422h37.109v-8.2969h-46.969z"/>
</defs>
<g transform="translate(393.22 376.57) rotate(42.572) scale(.08 -.08)">
<use xlink:href="#x"/>
</g>
</g>
<path d="m334.03 505.17v35.285q0 2.4 2.4 2.4h7.7425q2.4 0 2.4-2.4v-35.285q0-2.4-2.4-2.4h-7.7425q-2.4 0-2.4 2.4z" clip-path="url(#a)" fill="#fff" stroke="#fff"/>
<g clip-path="url(#a)">
<g transform="translate(338.1 505.17) rotate(90) scale(.08 -.08)">
<use xlink:href="#l"/>
<use x="60.818359" xlink:href="#d"/>
<use x="122.341797" xlink:href="#k"/>
<use x="163.439453" xlink:href="#g"/>
<use x="260.851562" xlink:href="#i"/>
<use x="288.634766" xlink:href="#h"/>
<use x="352.013672" xlink:href="#f"/>
<use x="413.292969" xlink:href="#j"/>
</g>
</g>
<path d="m719.86 505.17v35.285q0 2.4 2.4 2.4h7.7425q2.4 0 2.4-2.4v-35.285q0-2.4-2.4-2.4h-7.7425q-2.4 0-2.4 2.4z" clip-path="url(#a)" fill="#fff" stroke="#fff"/>
<g clip-path="url(#a)">
<g transform="translate(723.92 505.17) rotate(90) scale(.08 -.08)">
<use xlink:href="#l"/>
<use x="60.818359" xlink:href="#d"/>
<use x="122.341797" xlink:href="#k"/>
<use x="163.439453" xlink:href="#g"/>
<use x="260.851562" xlink:href="#i"/>
<use x="288.634766" xlink:href="#h"/>
<use x="352.013672" xlink:href="#f"/>
<use x="413.292969" xlink:href="#j"/>
</g>
</g>
<path d="m768.09 505.17v35.285q0 2.4 2.4 2.4h7.7425q2.4 0 2.4-2.4v-35.285q0-2.4-2.4-2.4h-7.7425q-2.4 0-2.4 2.4z" clip-path="url(#a)" fill="#fff" stroke="#fff"/>
<g clip-path="url(#a)">
<g transform="translate(772.15 505.17) rotate(90) scale(.08 -.08)">
<use xlink:href="#l"/>
<use x="60.818359" xlink:href="#d"/>
<use x="122.341797" xlink:href="#k"/>
<use x="163.439453" xlink:href="#g"/>
<use x="260.851562" xlink:href="#i"/>
<use x="288.634766" xlink:href="#h"/>
<use x="352.013672" xlink:href="#f"/>
<use x="413.292969" xlink:href="#j"/>
</g>
</g>
<path d="m981.52 412.62 1.9382 5.2392q0.83269 2.2509 3.0836 1.4182l7.2616-2.6863q2.2509-0.83269 1.4182-3.0836l-1.9382-5.2392q-0.83269-2.2509-3.0836-1.4182l-7.2616 2.6863q-2.2509 0.83269-1.4182 3.0836z" clip-path="url(#a)" fill="#fff" stroke="#fff"/>
<g clip-path="url(#a)">
<g transform="translate(985.33 411.21) rotate(69.699) scale(.08 -.08)">
<use xlink:href="#ak"/>
</g>
</g>
<path d="m919.91 418.72 2.9173-4.7317q1.2596-2.0429-0.78335-3.3025l-6.5905-4.0634q-2.0429-1.2596-3.3025 0.78335l-2.9173 4.7317q-1.2596 2.0429 0.78335 3.3025l6.5905 4.0634q2.0429 1.2596 3.3025-0.78335z" clip-path="url(#a)" fill="#fff" stroke="#fff"/>
<g clip-path="url(#a)">
<g transform="translate(916.45 416.59) rotate(-58.344) scale(.08 -.08)">
<use xlink:href="#w"/>
</g>
</g>
<path d="m957.8 374.64 0.41134 5.0382q0.19529 2.392 2.5873 2.1967l7.7168-0.63003q2.392-0.19529 2.1967-2.5873l-0.41134-5.0382q-0.19529-2.392-2.5873-2.1967l-7.7168 0.63002q-2.392 0.19529-2.1967 2.5873z" clip-path="url(#a)" fill="#fff" stroke="#fff"/>
<g clip-path="url(#a)">
<g transform="translate(961.85 374.31) rotate(85.333) scale(.08 -.08)">
<use xlink:href="#x"/>
</g>
</g>
<path d="m969.56 376.68 1.9105 4.6801q0.90705 2.222 3.129 1.3149l7.1682-2.9262q2.222-0.90705 1.3149-3.129l-1.9105-4.6801q-0.90705-2.222-3.129-1.3149l-7.1682 2.9262q-2.222 0.90705-1.3149 3.129z" clip-path="url(#a)" fill="#fff" stroke="#fff"/>
<g clip-path="url(#a)">
<g transform="translate(973.32 375.15) rotate(67.794) scale(.08 -.08)">
<use xlink:href="#x"/>
</g>
</g>
<path d="m1009.2 505.17v35.285q0 2.4 2.4 2.4h7.7425q2.4 0 2.4-2.4v-35.285q0-2.4-2.4-2.4h-7.7425q-2.4 0-2.4 2.4z" clip-path="url(#a)" fill="#fff" stroke="#fff"/>
<g clip-path="url(#a)">
<g transform="translate(1013.3 505.17) rotate(90) scale(.08 -.08)">
<use xlink:href="#l"/>
<use x="60.818359" xlink:href="#d"/>
<use x="122.341797" xlink:href="#k"/>
<use x="163.439453" xlink:href="#g"/>
<use x="260.851562" xlink:href="#i"/>
<use x="288.634766" xlink:href="#h"/>
<use x="352.013672" xlink:href="#f"/>
<use x="413.292969" xlink:href="#j"/>
</g>
</g>
<path d="m285.81 505.17v35.285q0 2.4 2.4 2.4h7.7425q2.4 0 2.4-2.4v-35.285q0-2.4-2.4-2.4h-7.7425q-2.4 0-2.4 2.4z" clip-path="url(#a)" fill="#fff" stroke="#fff"/>
<g clip-path="url(#a)">
<g transform="translate(289.87 505.17) rotate(90) scale(.08 -.08)">
<use xlink:href="#l"/>
<use x="60.818359" xlink:href="#d"/>
<use x="122.341797" xlink:href="#k"/>
<use x="163.439453" xlink:href="#g"/>
<use x="260.851562" xlink:href="#i"/>
<use x="288.634766" xlink:href="#h"/>
<use x="352.013672" xlink:href="#f"/>
<use x="413.292969" xlink:href="#j"/>
</g>
</g>
<path d="m454.32 451.44 2.6634 4.0218q1.3251 2.001 3.3261 0.67588l6.4553-4.2749q2.001-1.3251 0.67588-3.3261l-2.6634-4.0218q-1.3251-2.001-3.3261-0.67588l-6.4553 4.2749q-2.001 1.3251-0.67588 3.3261z" clip-path="url(#a)" fill="#fff" stroke="#fff"/>
<g clip-path="url(#a)">
<g transform="translate(457.7 449.19) rotate(56.486) scale(.08 -.08)">
<use xlink:href="#r"/>
</g>
</g>
<path d="m416.37 455.73 3.0216-4.5627q1.3251-2.001-0.67588-3.3261l-6.4553-4.2749q-2.001-1.3251-3.3261 0.67588l-3.0216 4.5627q-1.3251 2.001 0.67588 3.3261l6.4553 4.2749q2.001 1.3251 3.3261-0.67588z" clip-path="url(#a)" fill="#fff" stroke="#fff"/>
<g clip-path="url(#a)">
<g transform="translate(412.98 453.49) rotate(-56.486) scale(.08 -.08)">
<use xlink:href="#n"/>
</g>
</g>
<path d="m430.49 447.68v4.6012q0 2.4 2.4 2.4h7.7425q2.4 0 2.4-2.4v-4.6012q0-2.4-2.4-2.4h-7.7425q-2.4 0-2.4 2.4z" clip-path="url(#a)" fill="#fff" stroke="#fff"/>
<g clip-path="url(#a)">
<g transform="translate(434.56 447.68) rotate(90) scale(.08 -.08)">
<use xlink:href="#aj"/>
</g>
</g>
<path d="m478.72 505.17v35.285q0 2.4 2.4 2.4h7.7425q2.4 0 2.4-2.4v-35.285q0-2.4-2.4-2.4h-7.7425q-2.4 0-2.4 2.4z" clip-path="url(#a)" fill="#fff" stroke="#fff"/>
<g clip-path="url(#a)">
<g transform="translate(482.78 505.17) rotate(90) scale(.08 -.08)">
<use xlink:href="#l"/>
<use x="60.818359" xlink:href="#d"/>
<use x="122.341797" xlink:href="#k"/>
<use x="163.439453" xlink:href="#g"/>
<use x="260.851562" xlink:href="#i"/>
<use x="288.634766" xlink:href="#h"/>
<use x="352.013672" xlink:href="#f"/>
<use x="413.292969" xlink:href="#j"/>
</g>
</g>
<path d="m864.55 505.17v35.285q0 2.4 2.4 2.4h7.7425q2.4 0 2.4-2.4v-35.285q0-2.4-2.4-2.4h-7.7425q-2.4 0-2.4 2.4z" clip-path="url(#a)" fill="#fff" stroke="#fff"/>
<g clip-path="url(#a)">
<g transform="translate(868.61 505.17) rotate(90) scale(.08 -.08)">
<use xlink:href="#l"/>
<use x="60.818359" xlink:href="#d"/>
<use x="122.341797" xlink:href="#k"/>
<use x="163.439453" xlink:href="#g"/>
<use x="260.851562" xlink:href="#i"/>
<use x="288.634766" xlink:href="#h"/>
<use x="352.013672" xlink:href="#f"/>
<use x="413.292969" xlink:href="#j"/>
</g>
</g>
<path d="m984.65 451.17 3.0216 4.5627q1.3251 2.001 3.3261 0.67588l6.4553-4.2749q2.001-1.3251 0.67588-3.3261l-3.0216-4.5627q-1.3251-2.001-3.3261-0.67588l-6.4553 4.2749q-2.001 1.3251-0.67588 3.3261z" clip-path="url(#a)" fill="#fff" stroke="#fff"/>
<g clip-path="url(#a)">
<g transform="translate(988.04 448.92) rotate(56.486) scale(.08 -.08)">
<use xlink:href="#n"/>
</g>
</g>
<path d="m944.84 459.04 7.3137-11.044q1.3251-2.001-0.67588-3.3261l-6.67-4.4171q-2.001-1.3251-3.3261 0.67588l-7.3137 11.044q-1.3251 2.001 0.67588 3.3261l6.67 4.4171q2.001 1.3251 3.3261-0.67588z" clip-path="url(#a)" fill="#fff" stroke="#fff"/>
<g clip-path="url(#a)">
<defs>
<path id="ar" d="m21 76.422v-100h-8.2969v100z"/>
</defs>
<g transform="translate(941.26 456.67) rotate(-56.486) scale(.08 -.08)">
<use xlink:href="#v"/>
<use x="63.476562" xlink:href="#ar"/>
<use x="97.167969" xlink:href="#n"/>
</g>
</g>
<path d="m912.77 505.17v35.285q0 2.4 2.4 2.4h7.7425q2.4 0 2.4-2.4v-35.285q0-2.4-2.4-2.4h-7.7425q-2.4 0-2.4 2.4z" clip-path="url(#a)" fill="#fff" stroke="#fff"/>
<g clip-path="url(#a)">
<g transform="translate(916.84 505.17) rotate(90) scale(.08 -.08)">
<use xlink:href="#l"/>
<use x="60.818359" xlink:href="#d"/>
<use x="122.341797" xlink:href="#k"/>
<use x="163.439453" xlink:href="#g"/>
<use x="260.851562" xlink:href="#i"/>
<use x="288.634766" xlink:href="#h"/>
<use x="352.013672" xlink:href="#f"/>
<use x="413.292969" xlink:href="#j"/>
</g>
</g>
<path d="m996.63 449.36 1.7202 5.1951q0.7544 2.2784 3.0327 1.524l7.3501-2.4337q2.2784-0.7544 1.524-3.0327l-1.7202-5.1951q-0.7544-2.2784-3.0327-1.524l-7.3501 2.4337q-2.2784 0.7544-1.524 3.0327z" clip-path="url(#a)" fill="#fff" stroke="#fff"/>
<g clip-path="url(#a)">
<g transform="translate(1000.5 448.08) rotate(71.679) scale(.08 -.08)">
<use xlink:href="#n"/>
</g>
</g>
<path d="m984.49 454.37 1.5964-4.8213q0.7544-2.2784-1.524-3.0327l-7.3501-2.4337q-2.2784-0.7544-3.0327 1.524l-1.5964 4.8213q-0.7544 2.2784 1.524 3.0327l7.3501 2.4337q2.2784 0.7544 3.0327-1.524z" clip-path="url(#a)" fill="#fff" stroke="#fff"/>
<g clip-path="url(#a)">
<g transform="translate(980.63 453.09) rotate(-71.679) scale(.08 -.08)">
<use xlink:href="#v"/>
</g>
</g>
<path d="m961 505.17v35.285q0 2.4 2.4 2.4h7.7425q2.4 0 2.4-2.4v-35.285q0-2.4-2.4-2.4h-7.7425q-2.4 0-2.4 2.4z" clip-path="url(#a)" fill="#fff" stroke="#fff"/>
<g clip-path="url(#a)">
<g transform="translate(965.07 505.17) rotate(90) scale(.08 -.08)">
<use xlink:href="#l"/>
<use x="60.818359" xlink:href="#d"/>
<use x="122.341797" xlink:href="#k"/>
<use x="163.439453" xlink:href="#g"/>
<use x="260.851562" xlink:href="#i"/>
<use x="288.634766" xlink:href="#h"/>
<use x="352.013672" xlink:href="#f"/>
<use x="413.292969" xlink:href="#j"/>
</g>
</g>
<path d="m382.26 505.17v35.285q0 2.4 2.4 2.4h7.7425q2.4 0 2.4-2.4v-35.285q0-2.4-2.4-2.4h-7.7425q-2.4 0-2.4 2.4z" clip-path="url(#a)" fill="#fff" stroke="#fff"/>
<g clip-path="url(#a)">
<g transform="translate(386.33 505.17) rotate(90) scale(.08 -.08)">
<use xlink:href="#l"/>
<use x="60.818359" xlink:href="#d"/>
<use x="122.341797" xlink:href="#k"/>
<use x="163.439453" xlink:href="#g"/>
<use x="260.851562" xlink:href="#i"/>
<use x="288.634766" xlink:href="#h"/>
<use x="352.013672" xlink:href="#f"/>
<use x="413.292969" xlink:href="#j"/>
</g>
</g>
<path d="m430.49 505.17v35.285q0 2.4 2.4 2.4h7.7425q2.4 0 2.4-2.4v-35.285q0-2.4-2.4-2.4h-7.7425q-2.4 0-2.4 2.4z" clip-path="url(#a)" fill="#fff" stroke="#fff"/>
<g clip-path="url(#a)">
<g transform="translate(434.56 505.17) rotate(90) scale(.08 -.08)">
<use xlink:href="#l"/>
<use x="60.818359" xlink:href="#d"/>
<use x="122.341797" xlink:href="#k"/>
<use x="163.439453" xlink:href="#g"/>
<use x="260.851562" xlink:href="#i"/>
<use x="288.634766" xlink:href="#h"/>
<use x="352.013672" xlink:href="#f"/>
<use x="413.292969" xlink:href="#j"/>
</g>
</g>
<defs>
<path id="b" d="m0 8.6603c2.2967 0 4.4997-0.9125 6.1237-2.5365 1.624-1.624 2.5365-3.827 2.5365-6.1237s-0.9125-4.4997-2.5365-6.1237c-1.624-1.624-3.827-2.5365-6.1237-2.5365s-4.4997 0.9125-6.1237 2.5365c-1.624 1.624-2.5365 3.827-2.5365 6.1237s0.9125 4.4997 2.5365 6.1237c1.624 1.624 3.827 2.5365 6.1237 2.5365z"/>
</defs>
<g clip-path="url(#a)">
<use x="50.936453" y="559.225959" fill="#ffffff" stroke="#ffffff" xlink:href="#b"/>
</g>
<g clip-path="url(#a)">
<use x="99.164727" y="559.225959" fill="#ffffff" stroke="#ffffff" xlink:href="#b"/>
</g>
<g clip-path="url(#a)">
<use x="147.393002" y="559.225959" fill="#ffffff" stroke="#ffffff" xlink:href="#b"/>
</g>
<g clip-path="url(#a)">
<use x="195.621276" y="559.225959" fill="#ffffff" stroke="#ffffff" xlink:href="#b"/>
</g>
<g clip-path="url(#a)">
<use x="243.84955" y="559.225959" fill="#ffffff" stroke="#ffffff" xlink:href="#b"/>
</g>
<g clip-path="url(#a)">
<use x="292.077825" y="559.225959" fill="#ffffff" stroke="#ffffff" xlink:href="#b"/>
</g>
<g clip-path="url(#a)">
<use x="340.306099" y="559.225959" fill="#ffffff" stroke="#ffffff" xlink:href="#b"/>
</g>
<g clip-path="url(#a)">
<use x="388.534373" y="559.225959" fill="#ffffff" stroke="#ffffff" xlink:href="#b"/>
</g>
<g clip-path="url(#a)">
<use x="436.762648" y="559.225959" fill="#ffffff" stroke="#ffffff" xlink:href="#b"/>
</g>
<g clip-path="url(#a)">
<use x="484.990922" y="559.225959" fill="#ffffff" stroke="#ffffff" xlink:href="#b"/>
</g>
<g clip-path="url(#a)">
<use x="533.219196" y="559.225959" fill="#ffffff" stroke="#ffffff" xlink:href="#b"/>
</g>
<g clip-path="url(#a)">
<use x="581.44747" y="559.225959" fill="#ffffff" stroke="#ffffff" xlink:href="#b"/>
</g>
<g clip-path="url(#a)">
<use x="629.675745" y="559.225959" fill="#ffffff" stroke="#ffffff" xlink:href="#b"/>
</g>
<g clip-path="url(#a)">
<use x="677.904019" y="559.225959" fill="#ffffff" stroke="#ffffff" xlink:href="#b"/>
</g>
<g clip-path="url(#a)">
<use x="726.132293" y="559.225959" fill="#ffffff" stroke="#ffffff" xlink:href="#b"/>
</g>
<g clip-path="url(#a)">
<use x="774.360568" y="559.225959" fill="#ffffff" stroke="#ffffff" xlink:href="#b"/>
</g>
<g clip-path="url(#a)">
<use x="822.588842" y="559.225959" fill="#ffffff" stroke="#ffffff" xlink:href="#b"/>
</g>
<g clip-path="url(#a)">
<use x="870.817116" y="559.225959" fill="#ffffff" stroke="#ffffff" xlink:href="#b"/>
</g>
<g clip-path="url(#a)">
<use x="919.045391" y="559.225959" fill="#ffffff" stroke="#ffffff" xlink:href="#b"/>
</g>
<g clip-path="url(#a)">
<use x="967.273665" y="559.225959" fill="#ffffff" stroke="#ffffff" xlink:href="#b"/>
</g>
<g clip-path="url(#a)">
<use x="1015.501939" y="559.225959" fill="#ffffff" stroke="#ffffff" xlink:href="#b"/>
</g>
<g clip-path="url(#a)">
<use x="1063.730214" y="559.225959" fill="#ffffff" stroke="#ffffff" xlink:href="#b"/>
</g>
<g clip-path="url(#a)">
<use x="492.27354" y="27.440708" fill="#ffffff" stroke="#ffffff" xlink:href="#b"/>
</g>
<g clip-path="url(#a)">
<use x="352.809726" y="108.557086" fill="#ffffff" stroke="#ffffff" xlink:href="#b"/>
</g>
<g clip-path="url(#a)">
<use x="99.164727" y="486.398996" fill="#ffffff" stroke="#ffffff" xlink:href="#b"/>
</g>
<g clip-path="url(#a)">
<use x="50.936453" y="486.398996" fill="#ffffff" stroke="#ffffff" xlink:href="#b"/>
</g>
<g clip-path="url(#a)">
<use x="197.407508" y="187.49328" fill="#ffffff" stroke="#ffffff" xlink:href="#b"/>
</g>
<g clip-path="url(#a)">
<use x="195.621276" y="486.398996" fill="#ffffff" stroke="#ffffff" xlink:href="#b"/>
</g>
<g clip-path="url(#a)">
<use x="581.44747" y="486.398996" fill="#ffffff" stroke="#ffffff" xlink:href="#b"/>
</g>
<g clip-path="url(#a)">
<use x="542.563424" y="187.49328" fill="#ffffff" stroke="#ffffff" xlink:href="#b"/>
</g>
<g clip-path="url(#a)">
<use x="629.675745" y="486.398996" fill="#ffffff" stroke="#ffffff" xlink:href="#b"/>
</g>
<g clip-path="url(#a)">
<use x="1063.730214" y="486.398996" fill="#ffffff" stroke="#ffffff" xlink:href="#b"/>
</g>
<g clip-path="url(#a)">
<use x="147.393002" y="486.398996" fill="#ffffff" stroke="#ffffff" xlink:href="#b"/>
</g>
<g clip-path="url(#a)">
<use x="249.208247" y="264.470052" fill="#ffffff" stroke="#ffffff" xlink:href="#b"/>
</g>
<g clip-path="url(#a)">
<use x="243.84955" y="486.398996" fill="#ffffff" stroke="#ffffff" xlink:href="#b"/>
</g>
<g clip-path="url(#a)">
<use x="533.219196" y="486.398996" fill="#ffffff" stroke="#ffffff" xlink:href="#b"/>
</g>
<g clip-path="url(#a)">
<use x="677.904019" y="486.398996" fill="#ffffff" stroke="#ffffff" xlink:href="#b"/>
</g>
<g clip-path="url(#a)">
<use x="821.081709" y="264.470052" fill="#ffffff" stroke="#ffffff" xlink:href="#b"/>
</g>
<g clip-path="url(#a)">
<use x="822.588842" y="486.398996" fill="#ffffff" stroke="#ffffff" xlink:href="#b"/>
</g>
<g clip-path="url(#a)">
<use x="356.38219" y="339.731965" fill="#ffffff" stroke="#ffffff" xlink:href="#b"/>
</g>
<g clip-path="url(#a)">
<use x="340.306099" y="486.398996" fill="#ffffff" stroke="#ffffff" xlink:href="#b"/>
</g>
<g clip-path="url(#a)">
<use x="726.132293" y="486.398996" fill="#ffffff" stroke="#ffffff" xlink:href="#b"/>
</g>
<g clip-path="url(#a)">
<use x="774.360568" y="486.398996" fill="#ffffff" stroke="#ffffff" xlink:href="#b"/>
</g>
<g clip-path="url(#a)">
<use x="961.245131" y="339.731965" fill="#ffffff" stroke="#ffffff" xlink:href="#b"/>
</g>
<g clip-path="url(#a)">
<use x="1015.501939" y="486.398996" fill="#ffffff" stroke="#ffffff" xlink:href="#b"/>
</g>
<g clip-path="url(#a)">
<use x="292.077825" y="486.398996" fill="#ffffff" stroke="#ffffff" xlink:href="#b"/>
</g>
<g clip-path="url(#a)">
<use x="436.762648" y="413.572032" fill="#ffffff" stroke="#ffffff" xlink:href="#b"/>
</g>
<g clip-path="url(#a)">
<use x="484.990922" y="486.398996" fill="#ffffff" stroke="#ffffff" xlink:href="#b"/>
</g>
<g clip-path="url(#a)">
<use x="870.817116" y="486.398996" fill="#ffffff" stroke="#ffffff" xlink:href="#b"/>
</g>
<g clip-path="url(#a)">
<use x="967.273665" y="413.572032" fill="#ffffff" stroke="#ffffff" xlink:href="#b"/>
</g>
<g clip-path="url(#a)">
<use x="919.045391" y="486.398996" fill="#ffffff" stroke="#ffffff" xlink:href="#b"/>
</g>
<g clip-path="url(#a)">
<use x="991.387802" y="413.572032" fill="#ffffff" stroke="#ffffff" xlink:href="#b"/>
</g>
<g clip-path="url(#a)">
<use x="967.273665" y="486.398996" fill="#ffffff" stroke="#ffffff" xlink:href="#b"/>
</g>
<g clip-path="url(#a)">
<use x="388.534373" y="486.398996" fill="#ffffff" stroke="#ffffff" xlink:href="#b"/>
</g>
<g clip-path="url(#a)">
<use x="436.762648" y="486.398996" fill="#ffffff" stroke="#ffffff" xlink:href="#b"/>
</g>
<g clip-path="url(#a)">
<defs>
<path id="t" d="m54.891 33.016v-33.016h-8.9844v32.719q0 7.7656-3.0312 11.609-3.0312 3.8594-9.0781 3.8594-7.2812 0-11.484-4.6406-4.2031-4.625-4.2031-12.641v-30.906h-9.0312v75.984h9.0312v-29.797q3.2344 4.9375 7.5938 7.375 4.375 2.4375 10.094 2.4375 9.4219 0 14.25-5.8281 4.8438-5.8281 4.8438-17.156z"/>
<path id="af" d="m32.172-5.0781q-3.7969-9.7656-7.4219-12.734-3.6094-2.9844-9.6562-2.9844h-7.1875v7.5156h5.2812q3.7031 0 5.75 1.7656 2.0625 1.75 4.5469 8.2969l1.6094 4.0938-22.109 53.812h9.5156l17.094-42.766 17.094 42.766h9.5156z"/>
</defs>
<g transform="translate(38.678 561.99) scale(.1 -.1)">
<use xlink:href="#l"/>
<use x="61.083984" xlink:href="#t"/>
<use x="124.462891" xlink:href="#d"/>
<use x="185.986328" xlink:href="#af"/>
</g>
</g>
<g clip-path="url(#a)">
<defs>
<path id="q" d="m45.406 46.391v29.594h8.9844v-75.984h-8.9844v8.2031q-2.8281-4.875-7.1562-7.25-4.3125-2.375-10.375-2.375-9.9062 0-16.141 7.9062-6.2188 7.9219-6.2188 20.812t6.2188 20.797q6.2344 7.9062 16.141 7.9062 6.0625 0 10.375-2.375 4.3281-2.3594 7.1562-7.2344zm-30.609-19.094q0-9.9062 4.0781-15.547t11.203-5.6406 11.219 5.6406q4.1094 5.6406 4.1094 15.547t-4.1094 15.547q-4.0938 5.6406-11.219 5.6406t-11.203-5.6406-4.0781-15.547z"/>
</defs>
<g transform="translate(84.98 561.99) scale(.1 -.1)">
<use xlink:href="#g"/>
<use x="97.412109" xlink:href="#f"/>
<use x="158.691406" xlink:href="#q"/>
<use x="222.167969" xlink:href="#d"/>
</g>
</g>
<g clip-path="url(#a)">
<g transform="translate(139.45 561.99) scale(.1 -.1)">
<use xlink:href="#g"/>
<use x="97.412109" xlink:href="#d"/>
</g>
</g>
<g clip-path="url(#a)">
<defs>
<path id="u" d="m37.109 75.984v-7.4844h-8.5938q-4.8281 0-6.7188-1.9531-1.875-1.9531-1.875-7.0312v-4.8281h14.797v-6.9844h-14.797v-47.703h-9.0312v47.703h-8.5938v6.9844h8.5938v3.8125q0 9.125 4.25 13.297 4.25 4.1875 13.469 4.1875z"/>
</defs>
<g transform="translate(186.32 561.99) scale(.1 -.1)">
<use xlink:href="#u"/>
<use x="35.205078" xlink:href="#d"/>
<use x="96.728516" xlink:href="#d"/>
<use x="158.251953" xlink:href="#j"/>
</g>
</g>
<g clip-path="url(#a)">
<defs>
<path id="al" d="m48.781 52.594v-8.4062q-3.8125 2.1094-7.6406 3.1562t-7.7344 1.0469q-8.75 0-13.594-5.5469-4.8281-5.5312-4.8281-15.547t4.8281-15.562q4.8438-5.5312 13.594-5.5312 3.9062 0 7.7344 1.0469t7.6406 3.1562v-8.3125q-3.7656-1.75-7.7969-2.625-4.0156-0.89062-8.5625-0.89062-12.359 0-19.641 7.7656-7.2656 7.7656-7.2656 20.953 0 13.375 7.3438 21.031 7.3594 7.6719 20.156 7.6719 4.1406 0 8.0938-0.85938 3.9531-0.84375 7.6719-2.5469z"/>
<path id="s" d="m30.609 48.391q-7.2188 0-11.422-5.6406t-4.2031-15.453 4.1719-15.453q4.1875-5.6406 11.453-5.6406 7.1875 0 11.375 5.6562 4.2031 5.6719 4.2031 15.438 0 9.7188-4.2031 15.406-4.1875 5.6875-11.375 5.6875zm0 7.6094q11.719 0 18.406-7.625 6.7031-7.6094 6.7031-21.078 0-13.422-6.7031-21.078-6.6875-7.6406-18.406-7.6406-11.766 0-18.438 7.6406-6.6562 7.6562-6.6562 21.078 0 13.469 6.6562 21.078 6.6719 7.625 18.438 7.625z"/>
<path id="p" d="m18.312 70.219v-15.531h18.5v-6.9844h-18.5v-29.688q0-6.6875 1.8281-8.5938t7.4531-1.9062h9.2188v-7.5156h-9.2188q-10.406 0-14.359 3.875-3.9531 3.8906-3.9531 14.141v29.688h-6.5938v6.9844h6.5938v15.531z"/>
</defs>
<g transform="translate(220.34 561.99) scale(.1 -.1)">
<use xlink:href="#al"/>
<use x="54.980469" xlink:href="#s"/>
<use x="116.162109" xlink:href="#h"/>
<use x="179.541016" xlink:href="#u"/>
<use x="214.746094" xlink:href="#i"/>
<use x="242.529297" xlink:href="#q"/>
<use x="306.005859" xlink:href="#d"/>
<use x="367.529297" xlink:href="#h"/>
<use x="430.908203" xlink:href="#p"/>
</g>
</g>
<g clip-path="url(#a)">
<g transform="translate(287.52 561.99) scale(.1 -.1)">
<use xlink:href="#i"/>
<use x="27.783203" xlink:href="#h"/>
</g>
</g>
<g clip-path="url(#a)">
<defs>
<path id="ag" d="m4.2031 54.688h8.9844l11.234-42.672 11.172 42.672h10.594l11.234-42.672 11.188 42.672h8.9844l-14.312-54.688h-10.594l-11.766 44.828-11.812-44.828h-10.609z"/>
</defs>
<g transform="translate(328.02 561.99) scale(.1 -.1)">
<use xlink:href="#ag"/>
<use x="81.787109" xlink:href="#t"/>
<use x="145.166016" xlink:href="#f"/>
<use x="206.445312" xlink:href="#p"/>
</g>
</g>
<g clip-path="url(#a)">
<g transform="translate(377.37 561.99) scale(.1 -.1)">
<use xlink:href="#p"/>
<use x="39.208984" xlink:href="#t"/>
<use x="102.587891" xlink:href="#d"/>
<use x="164.111328" xlink:href="#af"/>
</g>
</g>
<g clip-path="url(#a)">
<defs>
<path id="as" d="m8.5 21.578v33.109h8.9844v-32.766q0-7.7656 3.0156-11.656 3.0312-3.875 9.0938-3.875 7.2656 0 11.484 4.6406 4.2344 4.6406 4.2344 12.656v31h8.9844v-54.688h-8.9844v8.4062q-3.2656-4.9844-7.5938-7.4062-4.3125-2.4219-10.031-2.4219-9.4219 0-14.312 5.8594-4.875 5.8594-4.875 17.141z"/>
</defs>
<g transform="translate(421.88 561.99) scale(.1 -.1)">
<use xlink:href="#ag"/>
<use x="81.787109" xlink:href="#s"/>
<use x="142.96875" xlink:href="#as"/>
<use x="206.347656" xlink:href="#j"/>
<use x="234.130859" xlink:href="#q"/>
</g>
</g>
<g clip-path="url(#a)">
<g transform="translate(478.76 561.99) scale(.1 -.1)">
<use xlink:href="#q"/>
<use x="63.476562" xlink:href="#s"/>
</g>
</g>
<g clip-path="url(#a)">
<defs>
<path id="aq" d="m11.719 12.406h10.297v-8.4062l-8-15.625h-6.2969l4 15.625z"/>
</defs>
<g transform="translate(531.63 561.99) scale(.1 -.1)">
<use xlink:href="#aq"/>
</g>
</g>
<g clip-path="url(#a)">
<g transform="translate(572.04 561.99) scale(.1 -.1)">
<use xlink:href="#f"/>
<use x="61.279297" xlink:href="#h"/>
<use x="124.658203" xlink:href="#q"/>
</g>
</g>
<g clip-path="url(#a)">
<g transform="translate(611.31 561.99) scale(.1 -.1)">
<use xlink:href="#p"/>
<use x="39.208984" xlink:href="#k"/>
<use x="80.291016" xlink:href="#d"/>
<use x="141.814453" xlink:href="#f"/>
<use x="203.09375" xlink:href="#p"/>
<use x="242.302734" xlink:href="#d"/>
<use x="303.826172" xlink:href="#q"/>
</g>
</g>
<g clip-path="url(#a)">
<g transform="translate(669.96 561.99) scale(.1 -.1)">
<use xlink:href="#g"/>
<use x="97.412109" xlink:href="#d"/>
</g>
</g>
<g clip-path="url(#a)">
<defs>
<path id="at" d="m9.0781 75.984h9.0312v-44.875l26.812 23.578h11.469l-29-25.578 30.234-29.109h-11.719l-27.797 26.703v-26.703h-9.0312z"/>
</defs>
<g transform="translate(717.38 561.99) scale(.1 -.1)">
<use xlink:href="#j"/>
<use x="27.783203" xlink:href="#i"/>
<use x="55.566406" xlink:href="#at"/>
<use x="113.429688" xlink:href="#d"/>
</g>
</g>
<g clip-path="url(#a)">
<g transform="translate(771.3 561.99) scale(.1 -.1)">
<use xlink:href="#f"/>
</g>
</g>
<g clip-path="url(#a)">
<defs>
<path id="am" d="m48.688 27.297q0 9.9062-4.0781 15.547t-11.203 5.6406q-7.1406 0-11.219-5.6406t-4.0781-15.547 4.0781-15.547 11.219-5.6406q7.125 0 11.203 5.6406t4.0781 15.547zm-30.578 19.094q2.8438 4.875 7.1562 7.2344 4.3281 2.375 10.328 2.375 9.9688 0 16.188-7.9062 6.2344-7.9062 6.2344-20.797t-6.2344-20.812q-6.2188-7.9062-16.188-7.9062-6 0-10.328 2.375-4.3125 2.375-7.1562 7.25v-8.2031h-9.0312v75.984h9.0312z"/>
</defs>
<g transform="translate(801.47 561.99) scale(.1 -.1)">
<use xlink:href="#g"/>
<use x="97.412109" xlink:href="#d"/>
<use x="158.935547" xlink:href="#g"/>
<use x="256.347656" xlink:href="#am"/>
<use x="319.824219" xlink:href="#d"/>
<use x="381.347656" xlink:href="#k"/>
</g>
</g>
<g clip-path="url(#a)">
<g transform="translate(866 561.99) scale(.1 -.1)">
<use xlink:href="#s"/>
<use x="61.181641" xlink:href="#u"/>
</g>
</g>
<g clip-path="url(#a)">
<g transform="translate(907.4 561.99) scale(.1 -.1)">
<use xlink:href="#p"/>
<use x="39.208984" xlink:href="#t"/>
<use x="102.587891" xlink:href="#d"/>
<use x="164.111328" xlink:href="#i"/>
<use x="191.894531" xlink:href="#k"/>
</g>
</g>
<g clip-path="url(#a)">
<g transform="translate(956.96 561.99) scale(.1 -.1)">
<use xlink:href="#s"/>
<use x="61.181641" xlink:href="#ag"/>
<use x="142.96875" xlink:href="#h"/>
</g>
</g>
<g clip-path="url(#a)">
<g transform="translate(1000.1 561.99) scale(.1 -.1)">
<use xlink:href="#u"/>
<use x="35.205078" xlink:href="#f"/>
<use x="96.484375" xlink:href="#g"/>
<use x="193.896484" xlink:href="#i"/>
<use x="221.679688" xlink:href="#j"/>
<use x="249.462891" xlink:href="#af"/>
</g>
</g>
<g clip-path="url(#a)">
<defs>
<path id="e" d="m10.688 12.406h10.312v-12.406h-10.312z"/>
</defs>
<g transform="translate(1062.1 561.99) scale(.1 -.1)">
<use xlink:href="#e"/>
</g>
</g>
<g clip-path="url(#a)">
<defs>
<path id="c" d="m12.406 8.2969h16.109v55.625l-17.531-3.5156v8.9844l17.438 3.5156h9.8594v-64.609h16.109v-8.2969h-41.984z"/>
</defs>
<g transform="translate(484.32 30.2) scale(.1 -.1)">
<use xlink:href="#c"/>
<use x="63.623047" xlink:href="#e"/>
<use x="95.410156" xlink:href="#c"/>
</g>
</g>
<g clip-path="url(#a)">
<defs>
<path id="m" d="m19.188 8.2969h34.422v-8.2969h-46.281v8.2969q5.6094 5.8125 15.297 15.594 9.7031 9.7969 12.188 12.641 4.7344 5.3125 6.6094 9 1.8906 3.6875 1.8906 7.25 0 5.8125-4.0781 9.4688-4.0781 3.6719-10.625 3.6719-4.6406 0-9.7969-1.6094-5.1406-1.6094-11-4.8906v9.9688q5.9531 2.3906 11.125 3.6094 5.1875 1.2188 9.4844 1.2188 11.328 0 18.062-5.6719 6.7344-5.6562 6.7344-15.125 0-4.5-1.6875-8.5312-1.6719-4.0156-6.125-9.4844-1.2188-1.4219-7.7656-8.1875-6.5312-6.7656-18.453-18.922z"/>
</defs>
<g transform="translate(344.86 111.32) scale(.1 -.1)">
<use xlink:href="#c"/>
<use x="63.623047" xlink:href="#e"/>
<use x="95.410156" xlink:href="#m"/>
</g>
</g>
<g clip-path="url(#a)">
<defs>
<path id="o" d="m40.578 39.312q7.0781-1.5156 11.047-6.3125 3.9844-4.7812 3.9844-11.812 0-10.781-7.4219-16.703-7.4219-5.9062-21.094-5.9062-4.5781 0-9.4375 0.90625t-10.031 2.7188v9.5156q4.0938-2.3906 8.9688-3.6094 4.8906-1.2188 10.219-1.2188 9.2656 0 14.125 3.6562t4.8594 10.641q0 6.4531-4.5156 10.078-4.5156 3.6406-12.562 3.6406h-8.5v8.1094h8.8906q7.2656 0 11.125 2.9062t3.8594 8.375q0 5.6094-3.9844 8.6094-3.9688 3.0156-11.391 3.0156-4.0625 0-8.7031-0.89062-4.6406-0.875-10.203-2.7188v8.7812q5.625 1.5625 10.531 2.3438t9.25 0.78125q11.234 0 17.766-5.1094 6.5469-5.0938 6.5469-13.781 0-6.0625-3.4688-10.234t-9.8594-5.7812z"/>
</defs>
<g transform="translate(91.213 489.16) scale(.1 -.1)">
<use xlink:href="#c"/>
<use x="63.623047" xlink:href="#e"/>
<use x="95.410156" xlink:href="#o"/>
</g>
</g>
<g clip-path="url(#a)">
<defs>
<path id="ad" d="m37.797 64.312-24.906-38.922h24.906zm-2.5938 8.5938h12.406v-47.516h10.406v-8.2031h-10.406v-17.188h-9.8125v17.188h-32.906v9.5156z"/>
</defs>
<g transform="translate(42.985 489.16) scale(.1 -.1)">
<use xlink:href="#c"/>
<use x="63.623047" xlink:href="#e"/>
<use x="95.410156" xlink:href="#ad"/>
</g>
</g>
<g clip-path="url(#a)">
<defs>
<path id="ac" d="m10.797 72.906h38.719v-8.3125h-29.688v-17.859q2.1406 0.73438 4.2812 1.0938 2.1562 0.35938 4.3125 0.35938 12.203 0 19.328-6.6875 7.1406-6.6875 7.1406-18.109 0-11.766-7.3281-18.297-7.3281-6.5156-20.656-6.5156-4.5938 0-9.3594 0.78125-4.75 0.78125-9.8281 2.3438v9.9219q4.3906-2.3906 9.0781-3.5625t9.9062-1.1719q8.4531 0 13.375 4.4375 4.9375 4.4375 4.9375 12.062 0 7.6094-4.9375 12.047-4.9219 4.4531-13.375 4.4531-3.9531 0-7.8906-0.875-3.9219-0.875-8.0156-2.7344z"/>
</defs>
<g transform="translate(189.46 190.25) scale(.1 -.1)">
<use xlink:href="#c"/>
<use x="63.623047" xlink:href="#e"/>
<use x="95.410156" xlink:href="#ac"/>
</g>
</g>
<g clip-path="url(#a)">
<defs>
<path id="ab" d="m33.016 40.375q-6.6406 0-10.531-4.5469-3.875-4.5312-3.875-12.438 0-7.8594 3.875-12.438 3.8906-4.5625 10.531-4.5625t10.516 4.5625q3.875 4.5781 3.875 12.438 0 7.9062-3.875 12.438-3.875 4.5469-10.516 4.5469zm19.578 30.922v-8.9844q-3.7188 1.75-7.5 2.6719-3.7812 0.9375-7.5 0.9375-9.7656 0-14.922-6.5938-5.1406-6.5938-5.875-19.922 2.875 4.25 7.2188 6.5156 4.3594 2.2656 9.5781 2.2656 10.984 0 17.359-6.6719 6.375-6.6562 6.375-18.125 0-11.234-6.6406-18.031-6.6406-6.7812-17.672-6.7812-12.656 0-19.344 9.6875-6.6875 9.7031-6.6875 28.109 0 17.281 8.2031 27.562t22.016 10.281q3.7188 0 7.5-0.73438t7.8906-2.1875z"/>
</defs>
<g transform="translate(187.67 489.16) scale(.1 -.1)">
<use xlink:href="#c"/>
<use x="63.623047" xlink:href="#e"/>
<use x="95.410156" xlink:href="#ab"/>
</g>
</g>
<g clip-path="url(#a)">
<defs>
<path id="aa" d="m8.2031 72.906h46.875v-4.2031l-26.469-68.703h-10.297l24.906 64.594h-35.016z"/>
</defs>
<g transform="translate(573.5 489.16) scale(.1 -.1)">
<use xlink:href="#c"/>
<use x="63.623047" xlink:href="#e"/>
<use x="95.410156" xlink:href="#aa"/>
</g>
</g>
<g clip-path="url(#a)">
<defs>
<path id="z" d="m31.781 34.625q-7.0312 0-11.062-3.7656-4.0156-3.7656-4.0156-10.344 0-6.5938 4.0156-10.359 4.0312-3.7656 11.062-3.7656t11.078 3.7812q4.0625 3.7969 4.0625 10.344 0 6.5781-4.0312 10.344-4.0156 3.7656-11.109 3.7656zm-9.8594 4.1875q-6.3438 1.5625-9.8906 5.9062-3.5312 4.3594-3.5312 10.609 0 8.7344 6.2188 13.812 6.2344 5.0781 17.062 5.0781 10.891 0 17.094-5.0781t6.2031-13.812q0-6.25-3.5469-10.609-3.5312-4.3438-9.8281-5.9062 7.125-1.6562 11.094-6.5 3.9844-4.8281 3.9844-11.797 0-10.609-6.4688-16.281-6.4688-5.6562-18.531-5.6562-12.047 0-18.531 5.6562-6.4688 5.6719-6.4688 16.281 0 6.9688 4 11.797 4.0156 4.8438 11.141 6.5zm-3.6094 15.578q0-5.6562 3.5312-8.8281 3.5469-3.1719 9.9375-3.1719 6.3594 0 9.9375 3.1719 3.5938 3.1719 3.5938 8.8281 0 5.6719-3.5938 8.8438-3.5781 3.1719-9.9375 3.1719-6.3906 0-9.9375-3.1719-3.5312-3.1719-3.5312-8.8438z"/>
</defs>
<g transform="translate(534.61 190.25) scale(.1 -.1)">
<use xlink:href="#c"/>
<use x="63.623047" xlink:href="#e"/>
<use x="95.410156" xlink:href="#z"/>
</g>
</g>
<g clip-path="url(#a)">
<defs>
<path id="y" d="m10.984 1.5156v8.9844q3.7188-1.7656 7.5156-2.6875 3.8125-0.92188 7.4844-0.92188 9.7656 0 14.906 6.5625 5.1562 6.5625 5.8906 19.953-2.8281-4.2031-7.1875-6.4531-4.3438-2.25-9.6094-2.25-10.938 0-17.312 6.6094-6.375 6.625-6.375 18.109 0 11.219 6.6406 18 6.6406 6.7969 17.672 6.7969 12.656 0 19.312-9.7031 6.6719-9.6875 6.6719-28.141 0-17.234-8.1875-27.516-8.1719-10.281-21.984-10.281-3.7188 0-7.5312 0.73438-3.7969 0.73438-7.9062 2.2031zm19.625 30.906q6.6406 0 10.516 4.5312 3.8906 4.5469 3.8906 12.469 0 7.8594-3.8906 12.422-3.875 4.5625-10.516 4.5625t-10.516-4.5625-3.875-12.422q0-7.9219 3.875-12.469 3.875-4.5312 10.516-4.5312z"/>
</defs>
<g transform="translate(621.72 489.16) scale(.1 -.1)">
<use xlink:href="#c"/>
<use x="63.623047" xlink:href="#e"/>
<use x="95.410156" xlink:href="#y"/>
</g>
</g>
<g clip-path="url(#a)">
<defs>
<path id="ae" d="m31.781 66.406q-7.6094 0-11.453-7.5-3.8281-7.4844-3.8281-22.531 0-14.984 3.8281-22.484 3.8438-7.5 11.453-7.5 7.6719 0 11.5 7.5 3.8438 7.5 3.8438 22.484 0 15.047-3.8438 22.531-3.8281 7.5-11.5 7.5zm0 7.8125q12.266 0 18.734-9.7031 6.4688-9.6875 6.4688-28.141 0-18.406-6.4688-28.109-6.4688-9.6875-18.734-9.6875-12.25 0-18.719 9.6875-6.4688 9.7031-6.4688 28.109 0 18.453 6.4688 28.141 6.4688 9.7031 18.719 9.7031z"/>
</defs>
<g transform="translate(1052.6 489.16) scale(.1 -.1)">
<use xlink:href="#c"/>
<use x="63.623047" xlink:href="#e"/>
<use x="95.410156" xlink:href="#c"/>
<use x="159.033203" xlink:href="#ae"/>
</g>
</g>
<g clip-path="url(#a)">
<g transform="translate(136.26 489.16) scale(.1 -.1)">
<use xlink:href="#c"/>
<use x="63.623047" xlink:href="#e"/>
<use x="95.410156" xlink:href="#c"/>
<use x="159.033203" xlink:href="#c"/>
</g>
</g>
<g clip-path="url(#a)">
<g transform="translate(238.08 267.23) scale(.1 -.1)">
<use xlink:href="#c"/>
<use x="63.623047" xlink:href="#e"/>
<use x="95.410156" xlink:href="#c"/>
<use x="159.033203" xlink:href="#m"/>
</g>
</g>
<g clip-path="url(#a)">
<g transform="translate(232.72 489.16) scale(.1 -.1)">
<use xlink:href="#c"/>
<use x="63.623047" xlink:href="#e"/>
<use x="95.410156" xlink:href="#c"/>
<use x="159.033203" xlink:href="#o"/>
</g>
</g>
<g clip-path="url(#a)">
<g transform="translate(522.09 489.16) scale(.1 -.1)">
<use xlink:href="#c"/>
<use x="63.623047" xlink:href="#e"/>
<use x="95.410156" xlink:href="#c"/>
<use x="159.033203" xlink:href="#ad"/>
</g>
</g>
<g clip-path="url(#a)">
<g transform="translate(666.77 489.16) scale(.1 -.1)">
<use xlink:href="#c"/>
<use x="63.623047" xlink:href="#e"/>
<use x="95.410156" xlink:href="#c"/>
<use x="159.033203" xlink:href="#ac"/>
</g>
</g>
<g clip-path="url(#a)">
<g transform="translate(809.95 267.23) scale(.1 -.1)">
<use xlink:href="#c"/>
<use x="63.623047" xlink:href="#e"/>
<use x="95.410156" xlink:href="#c"/>
<use x="159.033203" xlink:href="#ab"/>
</g>
</g>
<g clip-path="url(#a)">
<g transform="translate(811.46 489.16) scale(.1 -.1)">
<use xlink:href="#c"/>
<use x="63.623047" xlink:href="#e"/>
<use x="95.410156" xlink:href="#c"/>
<use x="159.033203" xlink:href="#aa"/>
</g>
</g>
<g clip-path="url(#a)">
<g transform="translate(345.25 342.49) scale(.1 -.1)">
<use xlink:href="#c"/>
<use x="63.623047" xlink:href="#e"/>
<use x="95.410156" xlink:href="#c"/>
<use x="159.033203" xlink:href="#z"/>
</g>
</g>
<g clip-path="url(#a)">
<g transform="translate(329.17 489.16) scale(.1 -.1)">
<use xlink:href="#c"/>
<use x="63.623047" xlink:href="#e"/>
<use x="95.410156" xlink:href="#c"/>
<use x="159.033203" xlink:href="#y"/>
</g>
</g>
<g clip-path="url(#a)">
<g transform="translate(715 489.16) scale(.1 -.1)">
<use xlink:href="#c"/>
<use x="63.623047" xlink:href="#e"/>
<use x="95.410156" xlink:href="#m"/>
<use x="159.033203" xlink:href="#ae"/>
</g>
</g>
<g clip-path="url(#a)">
<g transform="translate(763.23 489.16) scale(.1 -.1)">
<use xlink:href="#c"/>
<use x="63.623047" xlink:href="#e"/>
<use x="95.410156" xlink:href="#m"/>
<use x="159.033203" xlink:href="#c"/>
</g>
</g>
<g clip-path="url(#a)">
<g transform="translate(950.11 342.49) scale(.1 -.1)">
<use xlink:href="#c"/>
<use x="63.623047" xlink:href="#e"/>
<use x="95.410156" xlink:href="#m"/>
<use x="159.033203" xlink:href="#m"/>
</g>
</g>
<g clip-path="url(#a)">
<g transform="translate(1004.4 489.16) scale(.1 -.1)">
<use xlink:href="#c"/>
<use x="63.623047" xlink:href="#e"/>
<use x="95.410156" xlink:href="#m"/>
<use x="159.033203" xlink:href="#o"/>
</g>
</g>
<g clip-path="url(#a)">
<g transform="translate(280.95 489.16) scale(.1 -.1)">
<use xlink:href="#c"/>
<use x="63.623047" xlink:href="#e"/>
<use x="95.410156" xlink:href="#m"/>
<use x="159.033203" xlink:href="#ad"/>
</g>
</g>
<g clip-path="url(#a)">
<g transform="translate(425.63 416.33) scale(.1 -.1)">
<use xlink:href="#c"/>
<use x="63.623047" xlink:href="#e"/>
<use x="95.410156" xlink:href="#m"/>
<use x="159.033203" xlink:href="#ac"/>
</g>
</g>
<g clip-path="url(#a)">
<g transform="translate(473.86 489.16) scale(.1 -.1)">
<use xlink:href="#c"/>
<use x="63.623047" xlink:href="#e"/>
<use x="95.410156" xlink:href="#m"/>
<use x="159.033203" xlink:href="#ab"/>
</g>
</g>
<g clip-path="url(#a)">
<g transform="translate(859.68 489.16) scale(.1 -.1)">
<use xlink:href="#c"/>
<use x="63.623047" xlink:href="#e"/>
<use x="95.410156" xlink:href="#m"/>
<use x="159.033203" xlink:href="#aa"/>
</g>
</g>
<g clip-path="url(#a)">
<g transform="translate(956.14 416.33) scale(.1 -.1)">
<use xlink:href="#c"/>
<use x="63.623047" xlink:href="#e"/>
<use x="95.410156" xlink:href="#m"/>
<use x="159.033203" xlink:href="#z"/>
</g>
</g>
<g clip-path="url(#a)">
<g transform="translate(907.91 489.16) scale(.1 -.1)">
<use xlink:href="#c"/>
<use x="63.623047" xlink:href="#e"/>
<use x="95.410156" xlink:href="#m"/>
<use x="159.033203" xlink:href="#y"/>
</g>
</g>
<g clip-path="url(#a)">
<g transform="translate(980.25 416.33) scale(.1 -.1)">
<use xlink:href="#c"/>
<use x="63.623047" xlink:href="#e"/>
<use x="95.410156" xlink:href="#o"/>
<use x="159.033203" xlink:href="#ae"/>
</g>
</g>
<g clip-path="url(#a)">
<g transform="translate(956.14 489.16) scale(.1 -.1)">
<use xlink:href="#c"/>
<use x="63.623047" xlink:href="#e"/>
<use x="95.410156" xlink:href="#o"/>
<use x="159.033203" xlink:href="#c"/>
</g>
</g>
<g clip-path="url(#a)">
<g transform="translate(377.4 489.16) scale(.1 -.1)">
<use xlink:href="#c"/>
<use x="63.623047" xlink:href="#e"/>
<use x="95.410156" xlink:href="#o"/>
<use x="159.033203" xlink:href="#m"/>
</g>
</g>
<g clip-path="url(#a)">
<g transform="translate(425.63 489.16) scale(.1 -.1)">
<use xlink:href="#c"/>
<use x="63.623047" xlink:href="#e"/>
<use x="95.410156" xlink:href="#o"/>
<use x="159.033203" xlink:href="#o"/>
</g>
</g>
<defs>
<clipPath id="a">
<rect width="1114.7" height="586.67"/>
</clipPath>
</defs>
</svg>
