<?xml version="1.0" encoding="UTF-8"?>
<!DOCTYPE svg  PUBLIC '-//W3C//DTD SVG 1.1//EN'  'http://www.w3.org/Graphics/SVG/1.1/DTD/svg11.dtd'>
<svg width="2026.7pt" height="1066.7pt" version="1.1" viewBox="0 0 2026.7 1066.7" xmlns="http://www.w3.org/2000/svg" xmlns:xlink="http://www.w3.org/1999/xlink">
<defs>
<style type="text/css">*{stroke-linecap:butt;stroke-linejoin:round;}</style>
</defs>
<path d="m0 1066.7h2026.7v-1066.7h-2026.7z" fill="#fff"/>
<g fill="none" stroke="#000">
<path d="m765.18 49.399 158.29 496.48" clip-path="url(#a)"/>
<path d="m765.18 49.399-448.27 811.46" clip-path="url(#a)"/>
<path d="m765.18 49.399-478.23 655.06" clip-path="url(#a)"/>
<path d="m765.18 49.399 45.962 811.46" clip-path="url(#a)"/>
<path d="m765.18 49.399 273.42 496.48" clip-path="url(#a)"/>
<path d="m765.18 49.399-313.48 811.46" clip-path="url(#a)"/>
<path d="m765.18 49.399-209.58 334.84" clip-path="url(#a)"/>
<path d="m765.18 49.399 298.7 496.48" clip-path="url(#a)"/>
<path d="m765.18 49.399 673.19 169.53" clip-path="url(#a)"/>
<path d="m923.47 545.88-718.89 314.99" clip-path="url(#a)"/>
<path d="m923.47 545.88-831.21 314.99" clip-path="url(#a)"/>
<path d="m923.47 545.88-718.89 158.58" clip-path="url(#a)"/>
<path d="m923.47 545.88 1010.9 471.39" clip-path="url(#a)"/>
<path d="m923.47 545.88 336.98 314.99" clip-path="url(#a)"/>
<path d="m923.47 545.88 921.07 314.99" clip-path="url(#a)"/>
<path d="m204.59 860.86-67.396 156.41" clip-path="url(#a)"/>
<path d="m204.59 860.86 67.396 156.41" clip-path="url(#a)"/>
<path d="m92.259 860.86v156.41" clip-path="url(#a)"/>
<path d="m204.59 704.46 22.465 156.41" clip-path="url(#a)"/>
<path d="m204.59 704.46-22.465 156.41" clip-path="url(#a)"/>
<path d="m227.05 860.86v156.41" clip-path="url(#a)"/>
<path d="m316.91 860.86v156.41" clip-path="url(#a)"/>
<path d="m286.96 704.46-194.7 156.41" clip-path="url(#a)" stroke-dasharray="3.7,1.6"/>
<path d="m286.96 704.46 74.884 156.41" clip-path="url(#a)"/>
<path d="m286.96 704.46 119.81 156.41" clip-path="url(#a)"/>
<path d="m361.84 860.86v156.41" clip-path="url(#a)"/>
<path d="m811.15 860.86v156.41" clip-path="url(#a)"/>
<path d="m1038.6 545.88-137.6 314.99" clip-path="url(#a)"/>
<path d="m1038.6 545.88-182.53 314.99" clip-path="url(#a)"/>
<path d="m1038.6 545.88-92.669 314.99" clip-path="url(#a)"/>
<path d="m1038.6 545.88 412.8 158.58" clip-path="url(#a)"/>
<path d="m901.01 860.86v156.41" clip-path="url(#a)"/>
<path d="m1260.5 860.86v156.41" clip-path="url(#a)"/>
<path d="m1844.5 860.86v156.41" clip-path="url(#a)"/>
<path d="m182.12 860.86v156.41" clip-path="url(#a)"/>
<path d="m406.77 860.86v156.41" clip-path="url(#a)"/>
<path d="m451.7 860.86v156.41" clip-path="url(#a)"/>
<path d="m555.6 384.24-58.971 476.62" clip-path="url(#a)"/>
<path d="m555.6 384.24 58.971 161.63" clip-path="url(#a)"/>
<path d="m496.63 860.86v156.41" clip-path="url(#a)"/>
<path d="m856.08 860.86v156.41" clip-path="url(#a)"/>
<path d="m945.94 860.86v156.41" clip-path="url(#a)"/>
<path d="m1451.4 704.46-438.07 156.41" clip-path="url(#a)"/>
<path d="m1451.4 704.46 438.07 312.81" clip-path="url(#a)"/>
<path d="m1013.3 860.86-22.465 156.41" clip-path="url(#a)"/>
<path d="m1013.3 860.86 22.465 156.41" clip-path="url(#a)"/>
<path d="m1063.9 545.88-207.8 314.99" clip-path="url(#a)" stroke-dasharray="3.7,1.6"/>
<path d="m1063.9 545.88 61.779 314.99" clip-path="url(#a)"/>
<path d="m1063.9 545.88 16.849 314.99" clip-path="url(#a)"/>
<path d="m1063.9 545.88 129.17 158.58" clip-path="url(#a)"/>
<path d="m1125.7 860.86v156.41" clip-path="url(#a)"/>
<path d="m614.58 545.88 16.849 314.99" clip-path="url(#a)"/>
<path d="m614.58 545.88-73.012 314.99" clip-path="url(#a)"/>
<path d="m614.58 545.88-28.082 314.99" clip-path="url(#a)"/>
<path d="m614.58 545.88 84.245 158.58" clip-path="url(#a)"/>
<path d="m631.42 860.86v156.41" clip-path="url(#a)"/>
<path d="m1080.7 860.86v156.41" clip-path="url(#a)"/>
<path d="m1193.1 704.46 22.465 156.41" clip-path="url(#a)"/>
<path d="m1193.1 704.46-22.465 156.41" clip-path="url(#a)"/>
<path d="m1215.5 860.86v156.41" clip-path="url(#a)"/>
<path d="m1438.4 218.92 46.728 641.94" clip-path="url(#a)"/>
<path d="m1438.4 218.92-132.99 641.94" clip-path="url(#a)"/>
<path d="m1438.4 218.92-88.064 641.94" clip-path="url(#a)"/>
<path d="m1438.4 218.92-20.668 485.53" clip-path="url(#a)"/>
<path d="m1438.4 218.92 195 165.32" clip-path="url(#a)"/>
<path d="m1485.1 860.86v156.41" clip-path="url(#a)"/>
<path d="m541.56 860.86v156.41" clip-path="url(#a)"/>
<path d="m586.49 860.86v156.41" clip-path="url(#a)"/>
<path d="m698.82 704.46-67.396 156.41" clip-path="url(#a)" stroke-dasharray="3.7,1.6"/>
<path d="m698.82 704.46 67.396 156.41" clip-path="url(#a)"/>
<path d="m698.82 704.46-22.465 156.41" clip-path="url(#a)"/>
<path d="m698.82 704.46 22.465 156.41" clip-path="url(#a)"/>
<path d="m766.22 860.86v156.41" clip-path="url(#a)"/>
<path d="m1170.6 860.86v156.41" clip-path="url(#a)"/>
<path d="m1305.4 860.86v156.41" clip-path="url(#a)"/>
<path d="m1350.3 860.86v156.41" clip-path="url(#a)"/>
<path d="m1417.7 704.46 22.465 156.41" clip-path="url(#a)"/>
<path d="m1417.7 704.46-22.465 156.41" clip-path="url(#a)"/>
<path d="m1440.2 860.86v156.41" clip-path="url(#a)"/>
<path d="m1633.4 384.24 31.451 476.62" clip-path="url(#a)"/>
<path d="m1633.4 384.24-103.34 476.62" clip-path="url(#a)"/>
<path d="m1633.4 384.24-58.41 476.62" clip-path="url(#a)"/>
<path d="m1633.4 384.24-13.479 476.62" clip-path="url(#a)"/>
<path d="m1633.4 384.24 143.78 161.63" clip-path="url(#a)"/>
<path d="m1664.8 860.86v156.41" clip-path="url(#a)"/>
<path d="m676.36 860.86v156.41" clip-path="url(#a)"/>
<path d="m721.29 860.86v156.41" clip-path="url(#a)"/>
<path d="m1395.2 860.86v156.41" clip-path="url(#a)"/>
<path d="m1530 860.86v156.41" clip-path="url(#a)"/>
<path d="m1575 860.86v156.41" clip-path="url(#a)"/>
<path d="m1619.9 860.86v156.41" clip-path="url(#a)"/>
<path d="m1777.2 545.88 22.465 314.99" clip-path="url(#a)"/>
<path d="m1777.2 545.88-22.465 158.58" clip-path="url(#a)"/>
<path d="m1799.6 860.86v156.41" clip-path="url(#a)"/>
<path d="m1754.7 704.46 44.93 156.41" clip-path="url(#a)" stroke-dasharray="3.7,1.6"/>
<path d="m1754.7 704.46v156.41" clip-path="url(#a)"/>
<path d="m1754.7 704.46-44.93 156.41" clip-path="url(#a)"/>
<path d="m1754.7 860.86v156.41" clip-path="url(#a)"/>
<path d="m1709.8 860.86v156.41" clip-path="url(#a)"/>
</g>
<path d="m837.44 296.68 1.8275 5.732q0.72902 2.2866 3.0156 1.5576l7.3767-2.3518q2.2866-0.72902 1.5576-3.0156l-1.8275-5.732q-0.72902-2.2866-3.0156-1.5576l-7.3767 2.3518q-2.2866 0.72902-1.5576 3.0156z" clip-path="url(#a)" fill="#fff" stroke="#fff"/>
<g clip-path="url(#a)">
<defs>
<path id="x" d="m9.8125 72.906h9.8594v-29.891h35.844v29.891h9.8594v-72.906h-9.8594v34.719h-35.844v-34.719h-9.8594z"/>
</defs>
<g transform="translate(841.31 295.44) rotate(72.317) scale(.08 -.08)">
<use xlink:href="#x"/>
</g>
</g>
<path d="m545.46 460.11 2.1554-3.9017q1.1605-2.1008-0.94025-3.2613l-6.7772-3.7439q-2.1008-1.1605-3.2613 0.94025l-2.1554 3.9017q-1.1605 2.1008 0.94025 3.2613l6.7772 3.7439q2.1008 1.1605 3.2613-0.94025z" clip-path="url(#a)" fill="#fff" stroke="#fff"/>
<g clip-path="url(#a)">
<defs>
<path id="an" d="m9.8125 72.906h9.8594v-64.609h35.5v-8.2969h-45.359z"/>
</defs>
<g transform="translate(541.9 458.15) rotate(-61.083) scale(.08 -.08)">
<use xlink:href="#an"/>
</g>
</g>
<path d="m529.36 383.06 3.5474-4.8591q1.4151-1.9384-0.52327-3.3535l-6.2534-4.5653q-1.9384-1.4151-3.3535 0.52327l-3.5474 4.8591q-1.4151 1.9384 0.52327 3.3535l6.2534 4.5653q1.9384 1.4151 3.3535-0.52327z" clip-path="url(#a)" fill="#fff" stroke="#fff"/>
<g clip-path="url(#a)">
<g transform="translate(526.08 380.66) rotate(-53.869) scale(.08 -.08)">
<use xlink:href="#x"/>
</g>
</g>
<path d="m781.78 453.26 0.25207 4.4504q0.13572 2.3962 2.5319 2.2604l7.7301-0.43784q2.3962-0.13572 2.2604-2.5319l-0.25207-4.4504q-0.13572-2.3962-2.5319-2.2604l-7.7301 0.43784q-2.3962 0.13572-2.2604 2.5319z" clip-path="url(#a)" fill="#fff" stroke="#fff"/>
<g clip-path="url(#a)">
<g transform="translate(785.84 453.03) rotate(86.758) scale(.08 -.08)">
<use xlink:href="#an"/>
</g>
</g>
<path d="m894.95 298.03 2.9023 5.2699q1.1578 2.1023 3.26 0.9445l6.782-3.735q2.1023-1.1578 0.9445-3.26l-2.9023-5.2699q-1.1578-2.1023-3.26-0.9445l-6.782 3.735q-2.1023 1.1578-0.9445 3.26z" clip-path="url(#a)" fill="#fff" stroke="#fff"/>
<g clip-path="url(#a)">
<g transform="translate(898.51 296.07) rotate(61.157) scale(.08 -.08)">
<use xlink:href="#x"/>
</g>
</g>
<path d="m613.49 459.47 1.6063-4.158q0.86487-2.2388-1.3739-3.1036l-7.2223-2.7901q-2.2388-0.86487-3.1036 1.3739l-1.6063 4.158q-0.86487 2.2388 1.3739 3.1036l7.2223 2.7901q2.2388 0.86487 3.1036-1.3739z" clip-path="url(#a)" fill="#fff" stroke="#fff"/>
<g clip-path="url(#a)">
<g transform="translate(609.7 458.01) rotate(-68.878) scale(.08 -.08)">
<use xlink:href="#an"/>
</g>
</g>
<path d="m664.11 222.7 3.1919-5.0997q1.2733-2.0344-0.76105-3.3077l-6.563-4.1078q-2.0344-1.2733-3.3077 0.76105l-3.1919 5.0997q-1.2733 2.0344 0.76105 3.3077l6.563 4.1078q2.0344 1.2733 3.3077-0.76105z" clip-path="url(#a)" fill="#fff" stroke="#fff"/>
<g clip-path="url(#a)">
<g transform="translate(660.67 220.54) rotate(-57.957) scale(.08 -.08)">
<use xlink:href="#x"/>
</g>
</g>
<path d="m907.61 298.29 3.1015 5.1552q1.2373 2.0565 3.2938 0.81925l6.6344-3.9914q2.0565-1.2373 0.81925-3.2938l-3.1015-5.1552q-1.2373-2.0565-3.2938-0.81925l-6.6344 3.9914q-2.0565 1.2373-0.81925 3.2938z" clip-path="url(#a)" fill="#fff" stroke="#fff"/>
<g clip-path="url(#a)">
<g transform="translate(911.09 296.2) rotate(58.968) scale(.08 -.08)">
<use xlink:href="#x"/>
</g>
</g>
<path d="m1097.3 139.51 5.8341 1.4692q2.3273 0.58608 2.9134-1.7413l1.8907-7.5081q0.58608-2.3273-1.7413-2.9134l-5.8341-1.4692q-2.3273-0.58608-2.9134 1.7413l-1.8907 7.5081q-0.58608 2.3273 1.7413 2.9134z" clip-path="url(#a)" fill="#fff" stroke="#fff"/>
<g clip-path="url(#a)">
<g transform="translate(1098.3 135.57) rotate(14.135) scale(.08 -.08)">
<use xlink:href="#x"/>
</g>
</g>
<path d="m564.34 710.08 4.4182-1.9359q2.1982-0.96318 1.2351-3.1614l-3.1073-7.0916q-0.96318-2.1982-3.1614-1.2351l-4.4182 1.9359q-2.1982 0.96318-1.2351 3.1614l3.1073 7.0916q0.96318 2.1982 3.1614 1.2351z" clip-path="url(#a)" fill="#fff" stroke="#fff"/>
<g clip-path="url(#a)">
<defs>
<path id="v" d="m19.672 64.797v-27.391h12.406q6.8906 0 10.641 3.5625 3.7656 3.5625 3.7656 10.156 0 6.5469-3.7656 10.109-3.75 3.5625-10.641 3.5625zm-9.8594 8.1094h22.266q12.266 0 18.531-5.5469 6.2812-5.5469 6.2812-16.234 0-10.797-6.2812-16.312-6.2656-5.5156-18.531-5.5156h-12.406v-29.297h-9.8594z"/>
</defs>
<g transform="translate(562.71 706.36) rotate(-23.661) scale(.08 -.08)">
<use xlink:href="#v"/>
</g>
</g>
<path d="m507.53 710.2 5.1174-1.9392q2.2443-0.85046 1.3938-3.0947l-2.7436-7.2401q-0.85046-2.2443-3.0947-1.3938l-5.1174 1.9392q-2.2443 0.85046-1.3938 3.0947l2.7436 7.2401q0.85046 2.2443 3.0947 1.3938z" clip-path="url(#a)" fill="#fff" stroke="#fff"/>
<g clip-path="url(#a)">
<defs>
<path id="p" d="m34.188 63.188-13.391-36.281h26.812zm-5.5781 9.7188h11.188l27.781-72.906h-10.25l-6.6406 18.703h-32.859l-6.6406-18.703h-10.406z"/>
</defs>
<g transform="translate(506.09 706.4) rotate(-20.754) scale(.08 -.08)">
<use xlink:href="#p"/>
</g>
</g>
<path d="m562.99 631.82 4.7715-1.0526q2.3437-0.51699 1.8267-2.8606l-1.6678-7.5607q-0.51699-2.3437-2.8606-1.8267l-4.7715 1.0526q-2.3437 0.51699-1.8267 2.8606l1.6678 7.5607q0.51699 2.3437 2.8606 1.8267z" clip-path="url(#a)" fill="#fff" stroke="#fff"/>
<g clip-path="url(#a)">
<defs>
<path id="l" d="m-0.29688 72.906h61.672v-8.3125h-25.875v-64.594h-9.9062v64.594h-25.891z"/>
</defs>
<g transform="translate(562.12 627.85) rotate(-12.44) scale(.08 -.08)">
<use xlink:href="#l"/>
</g>
</g>
<path d="m1424 786.19 4.5814 2.1363q2.1752 1.0143 3.1894-1.1609l3.272-7.0171q1.0143-2.1752-1.1609-3.1894l-4.5814-2.1363q-2.1752-1.0143-3.1894 1.1609l-3.272 7.0171q-1.0143 2.1752 1.1609 3.1894z" clip-path="url(#a)" fill="#fff" stroke="#fff"/>
<g clip-path="url(#a)">
<defs>
<path id="ai" d="m9.8125 72.906h46.094v-8.3125h-36.234v-21.578h34.719v-8.2969h-34.719v-26.422h37.109v-8.2969h-46.969z"/>
</defs>
<g transform="translate(1425.7 782.5) rotate(24.999) scale(.08 -.08)">
<use xlink:href="#ai"/>
</g>
</g>
<path d="m1085.5 705.95 4.2773 3.9982q1.7533 1.6389 3.3922-0.11443l5.2871-5.6562q1.6389-1.7533-0.11443-3.3922l-4.2773-3.9982q-1.7533-1.6389-3.3922 0.11443l-5.2871 5.6562q-1.6389 1.7533 0.11443 3.3922z" clip-path="url(#a)" fill="#fff" stroke="#fff"/>
<g clip-path="url(#a)">
<defs>
<path id="ap" d="m8.6875 72.906h9.9219v-44.297q0-11.719 4.2344-16.875 4.25-5.1406 13.781-5.1406 9.4688 0 13.719 5.1406 4.25 5.1562 4.25 16.875v44.297h9.9062v-45.516q0-14.25-7.0625-21.531-7.0469-7.2812-20.812-7.2812-13.828 0-20.891 7.2812-7.0469 7.2812-7.0469 21.531z"/>
</defs>
<g transform="translate(1088.3 702.98) rotate(43.068) scale(.08 -.08)">
<use xlink:href="#ap"/>
</g>
</g>
<path d="m1379.2 708.36 5.54 1.8946q2.2709 0.77659 3.0475-1.4943l2.5053-7.326q0.77659-2.2709-1.4943-3.0475l-5.54-1.8946q-2.2709-0.77659-3.0475 1.4943l-2.5053 7.326q-0.77659 2.2709 1.4943 3.0475z" clip-path="url(#a)" fill="#fff" stroke="#fff"/>
<g clip-path="url(#a)">
<g transform="translate(1380.5 704.51) rotate(18.88) scale(.08 -.08)">
<use xlink:href="#ap"/>
</g>
</g>
<path d="m169.67 957.75 13.963-32.405q0.94975-2.2041-1.2543-3.1538l-7.1105-3.0639q-2.2041-0.94975-3.1538 1.2543l-13.963 32.405q-0.94975 2.2041 1.2543 3.1538l7.1105 3.0639q2.2041 0.94975 3.1538-1.2543z" clip-path="url(#a)" fill="#fff" stroke="#fff"/>
<g clip-path="url(#a)">
<defs>
<path id="d" d="m56.203 29.594v-4.3906h-41.312q0.59375-9.2812 5.5938-14.141t13.938-4.8594q5.1719 0 10.031 1.2656t9.6562 3.8125v-8.5q-4.8438-2.0469-9.9219-3.125t-10.297-1.0781q-13.094 0-20.734 7.6094-7.6406 7.625-7.6406 20.625 0 13.422 7.25 21.297 7.25 7.8906 19.562 7.8906 11.031 0 17.453-7.1094 6.4219-7.0938 6.4219-19.297zm-8.9844 2.6406q-0.09375 7.3594-4.125 11.75-4.0312 4.4062-10.672 4.4062-7.5156 0-12.031-4.25t-5.2031-11.969z"/>
<path id="h" d="m41.109 46.297q-1.5156 0.875-3.2969 1.2812-1.7812 0.42188-3.9219 0.42188-7.625 0-11.703-4.9531t-4.0781-14.234v-28.812h-9.0312v54.688h9.0312v-8.5q2.8438 4.9844 7.375 7.3906 4.5469 2.4219 11.047 2.4219 0.92188 0 2.0469-0.125 1.125-0.10938 2.4844-0.35938z"/>
<path id="i" d="m52 44.188q3.375 6.0625 8.0625 8.9375t11.031 2.875q8.5469 0 13.188-5.9844 4.6406-5.9688 4.6406-17v-33.016h-9.0312v32.719q0 7.8594-2.7969 11.656-2.7812 3.8125-8.4844 3.8125-6.9844 0-11.047-4.6406-4.0469-4.625-4.0469-12.641v-30.906h-9.0312v32.719q0 7.9062-2.7812 11.688t-8.5938 3.7812q-6.8906 0-10.953-4.6562-4.0469-4.6562-4.0469-12.625v-30.906h-9.0312v54.688h9.0312v-8.5q3.0781 5.0312 7.375 7.4219t10.203 2.3906q5.9688 0 10.141-3.0312 4.1719-3.0156 6.1719-8.7812z"/>
<path id="j" d="m9.4219 54.688h8.9844v-54.688h-8.9844zm0 21.297h8.9844v-11.391h-8.9844z"/>
<path id="g" d="m54.891 33.016v-33.016h-8.9844v32.719q0 7.7656-3.0312 11.609-3.0312 3.8594-9.0781 3.8594-7.2812 0-11.484-4.6406-4.2031-4.625-4.2031-12.641v-30.906h-9.0312v54.688h9.0312v-8.5q3.2344 4.9375 7.5938 7.375 4.375 2.4375 10.094 2.4375 9.4219 0 14.25-5.8281 4.8438-5.8281 4.8438-17.156z"/>
<path id="f" d="m34.281 27.484q-10.891 0-15.094-2.4844t-4.2031-8.5q0-4.7812 3.1562-7.5938 3.1562-2.7969 8.5625-2.7969 7.4844 0 12 5.2969t4.5156 14.078v2zm17.922 3.7188v-31.203h-8.9844v8.2969q-3.0781-4.9688-7.6719-7.3438t-11.234-2.375q-8.3906 0-13.359 4.7188-4.9531 4.7188-4.9531 12.625 0 9.2188 6.1719 13.906 6.1875 4.6875 18.438 4.6875h12.609v0.89062q0 6.2031-4.0781 9.5938t-11.453 3.3906q-4.6875 0-9.1406-1.125-4.4375-1.125-8.5312-3.375v8.3125q4.9219 1.9062 9.5625 2.8438 4.6406 0.95312 9.0312 0.95312 11.875 0 17.734-6.1562 5.8594-6.1406 5.8594-18.641z"/>
<path id="k" d="m9.4219 75.984h8.9844v-75.984h-8.9844z"/>
</defs>
<g transform="translate(165.93 956.14) rotate(-66.689) scale(.08 -.08)">
<use xlink:href="#l"/>
<use x="60.818359" xlink:href="#d"/>
<use x="122.341797" xlink:href="#h"/>
<use x="163.439453" xlink:href="#i"/>
<use x="260.851562" xlink:href="#j"/>
<use x="288.634766" xlink:href="#g"/>
<use x="352.013672" xlink:href="#f"/>
<use x="413.292969" xlink:href="#k"/>
</g>
</g>
<path d="m225.54 925.34 13.963 32.405q0.94975 2.2041 3.1538 1.2543l7.1105-3.0639q2.2041-0.94975 1.2543-3.1538l-13.963-32.405q-0.94975-2.2041-3.1538-1.2543l-7.1105 3.0639q-2.2041 0.94975-1.2543 3.1538z" clip-path="url(#a)" fill="#fff" stroke="#fff"/>
<g clip-path="url(#a)">
<g transform="translate(229.27 923.74) rotate(66.689) scale(.08 -.08)">
<use xlink:href="#l"/>
<use x="60.818359" xlink:href="#d"/>
<use x="122.341797" xlink:href="#h"/>
<use x="163.439453" xlink:href="#i"/>
<use x="260.851562" xlink:href="#j"/>
<use x="288.634766" xlink:href="#g"/>
<use x="352.013672" xlink:href="#f"/>
<use x="413.292969" xlink:href="#k"/>
</g>
</g>
<path d="m85.988 921.42v35.285q0 2.4 2.4 2.4h7.7425q2.4 0 2.4-2.4v-35.285q0-2.4-2.4-2.4h-7.7425q-2.4 0-2.4 2.4z" clip-path="url(#a)" fill="#fff" stroke="#fff"/>
<g clip-path="url(#a)">
<g transform="translate(90.052 921.42) rotate(90) scale(.08 -.08)">
<use xlink:href="#l"/>
<use x="60.818359" xlink:href="#d"/>
<use x="122.341797" xlink:href="#h"/>
<use x="163.439453" xlink:href="#i"/>
<use x="260.851562" xlink:href="#j"/>
<use x="288.634766" xlink:href="#g"/>
<use x="352.013672" xlink:href="#f"/>
<use x="413.292969" xlink:href="#k"/>
</g>
</g>
<path d="m209.21 780.79 0.79423 5.5295q0.34122 2.3756 2.7168 2.0344l7.6638-1.1008q2.3756-0.34122 2.0344-2.7168l-0.79423-5.5295q-0.34122-2.3756-2.7168-2.0344l-7.6638 1.1008q-2.3756 0.34122-2.0344 2.7168z" clip-path="url(#a)" fill="#fff" stroke="#fff"/>
<g clip-path="url(#a)">
<defs>
<path id="ab" d="m64.406 67.281v-10.391q-4.9844 4.6406-10.625 6.9219-5.6406 2.2969-11.984 2.2969-12.5 0-19.141-7.6406t-6.6406-22.094q0-14.406 6.6406-22.047t19.141-7.6406q6.3438 0 11.984 2.2969t10.625 6.9375v-10.312q-5.1719-3.5156-10.969-5.2812-5.7812-1.75-12.219-1.75-16.562 0-26.094 10.125-9.5156 10.141-9.5156 27.672 0 17.578 9.5156 27.703 9.5312 10.141 26.094 10.141 6.5312 0 12.312-1.7344 5.7969-1.7344 10.875-5.2031z"/>
</defs>
<g transform="translate(213.24 780.21) rotate(81.826) scale(.08 -.08)">
<use xlink:href="#ab"/>
</g>
</g>
<path d="m199.23 785.83 0.65418-4.5545q0.34122-2.3756-2.0344-2.7168l-7.6638-1.1008q-2.3756-0.34122-2.7168 2.0344l-0.65419 4.5545q-0.34122 2.3756 2.0344 2.7168l7.6638 1.1008q2.3756 0.34122 2.7168-2.0344z" clip-path="url(#a)" fill="#fff" stroke="#fff"/>
<g clip-path="url(#a)">
<defs>
<path id="w" d="m9.8125 72.906h41.891v-8.3125h-32.031v-21.484h28.906v-8.2969h-28.906v-34.812h-9.8594z"/>
</defs>
<g transform="translate(195.21 785.25) rotate(-81.826) scale(.08 -.08)">
<use xlink:href="#w"/>
</g>
</g>
<path d="m220.78 921.42v35.285q0 2.4 2.4 2.4h7.7425q2.4 0 2.4-2.4v-35.285q0-2.4-2.4-2.4h-7.7425q-2.4 0-2.4 2.4z" clip-path="url(#a)" fill="#fff" stroke="#fff"/>
<g clip-path="url(#a)">
<g transform="translate(224.84 921.42) rotate(90) scale(.08 -.08)">
<use xlink:href="#l"/>
<use x="60.818359" xlink:href="#d"/>
<use x="122.341797" xlink:href="#h"/>
<use x="163.439453" xlink:href="#i"/>
<use x="260.851562" xlink:href="#j"/>
<use x="288.634766" xlink:href="#g"/>
<use x="352.013672" xlink:href="#f"/>
<use x="413.292969" xlink:href="#k"/>
</g>
</g>
<path d="m310.64 921.42v35.285q0 2.4 2.4 2.4h7.7425q2.4 0 2.4-2.4v-35.285q0-2.4-2.4-2.4h-7.7425q-2.4 0-2.4 2.4z" clip-path="url(#a)" fill="#fff" stroke="#fff"/>
<g clip-path="url(#a)">
<g transform="translate(314.7 921.42) rotate(90) scale(.08 -.08)">
<use xlink:href="#l"/>
<use x="60.818359" xlink:href="#d"/>
<use x="122.341797" xlink:href="#h"/>
<use x="163.439453" xlink:href="#i"/>
<use x="260.851562" xlink:href="#j"/>
<use x="288.634766" xlink:href="#g"/>
<use x="352.013672" xlink:href="#f"/>
<use x="413.292969" xlink:href="#k"/>
</g>
</g>
<path d="m191.4 789.26 4.2664-3.4273q1.8711-1.5031 0.368-3.3741l-4.8489-6.0361q-1.5031-1.8711-3.3741-0.368l-4.2664 3.4273q-1.8711 1.5031-0.368 3.3741l4.8489 6.0361q1.5031 1.8711 3.3741 0.368z" clip-path="url(#a)" fill="#fff" stroke="#fff"/>
<g clip-path="url(#a)">
<g transform="translate(188.86 786.09) rotate(-38.776) scale(.08 -.08)">
<use xlink:href="#p"/>
</g>
</g>
<path d="m317.7 783.19 2.0831 4.3508q1.0364 2.1647 3.2011 1.1283l6.9834-3.3435q2.1647-1.0364 1.1283-3.2011l-2.0831-4.3508q-1.0364-2.1647-3.2011-1.1283l-6.9834 3.3435q-2.1647 1.0364-1.1283 3.2011z" clip-path="url(#a)" fill="#fff" stroke="#fff"/>
<g clip-path="url(#a)">
<g transform="translate(321.37 781.44) rotate(64.416) scale(.08 -.08)">
<use xlink:href="#v"/>
</g>
</g>
<path d="m340.01 784.03 3.746 4.8901q1.4595 1.9052 3.3647 0.44572l6.1463-4.7084q1.9052-1.4595 0.44572-3.3647l-3.746-4.8901q-1.4595-1.9052-3.3647-0.44572l-6.1463 4.7084q-1.9052 1.4595-0.44572 3.3647z" clip-path="url(#a)" fill="#fff" stroke="#fff"/>
<g clip-path="url(#a)">
<defs>
<path id="aa" d="m19.672 64.797v-56.688h11.922q15.094 0 22.094 6.8281 7 6.8438 7 21.594 0 14.641-7 21.453t-22.094 6.8125zm-9.8594 8.1094h20.266q21.188 0 31.094-8.8125 9.9219-8.8125 9.9219-27.562 0-18.859-9.9688-27.703-9.9531-8.8281-31.047-8.8281h-20.266z"/>
</defs>
<g transform="translate(343.24 781.56) rotate(52.546) scale(.08 -.08)">
<use xlink:href="#aa"/>
</g>
</g>
<path d="m355.57 921.42v35.285q0 2.4 2.4 2.4h7.7425q2.4 0 2.4-2.4v-35.285q0-2.4-2.4-2.4h-7.7425q-2.4 0-2.4 2.4z" clip-path="url(#a)" fill="#fff" stroke="#fff"/>
<g clip-path="url(#a)">
<g transform="translate(359.63 921.42) rotate(90) scale(.08 -.08)">
<use xlink:href="#l"/>
<use x="60.818359" xlink:href="#d"/>
<use x="122.341797" xlink:href="#h"/>
<use x="163.439453" xlink:href="#i"/>
<use x="260.851562" xlink:href="#j"/>
<use x="288.634766" xlink:href="#g"/>
<use x="352.013672" xlink:href="#f"/>
<use x="413.292969" xlink:href="#k"/>
</g>
</g>
<path d="m804.88 921.42v35.285q0 2.4 2.4 2.4h7.7425q2.4 0 2.4-2.4v-35.285q0-2.4-2.4-2.4h-7.7425q-2.4 0-2.4 2.4z" clip-path="url(#a)" fill="#fff" stroke="#fff"/>
<g clip-path="url(#a)">
<g transform="translate(808.94 921.42) rotate(90) scale(.08 -.08)">
<use xlink:href="#l"/>
<use x="60.818359" xlink:href="#d"/>
<use x="122.341797" xlink:href="#h"/>
<use x="163.439453" xlink:href="#i"/>
<use x="260.851562" xlink:href="#j"/>
<use x="288.634766" xlink:href="#g"/>
<use x="352.013672" xlink:href="#f"/>
<use x="413.292969" xlink:href="#k"/>
</g>
</g>
<path d="m974.59 708.09 1.931-4.4204q0.96075-2.1993-1.2386-3.1601l-7.0951-3.0994q-2.1993-0.96075-3.1601 1.2386l-1.931 4.4204q-0.96075 2.1993 1.2386 3.1601l7.0951 3.0994q2.1993 0.96075 3.1601-1.2386z" clip-path="url(#a)" fill="#fff" stroke="#fff"/>
<g clip-path="url(#a)">
<g transform="translate(970.86 706.46) rotate(-66.402) scale(.08 -.08)">
<use xlink:href="#v"/>
</g>
</g>
<path d="m951.4 708.88 2.7438-4.7349q1.2033-2.0765-0.87321-3.2799l-6.699-3.882q-2.0765-1.2033-3.2799 0.87321l-2.7438 4.7349q-1.2033 2.0765 0.87321 3.2799l6.699 3.882q2.0765 1.2033 3.2799-0.87321z" clip-path="url(#a)" fill="#fff" stroke="#fff"/>
<g clip-path="url(#a)">
<g transform="translate(947.88 706.84) rotate(-59.908) scale(.08 -.08)">
<use xlink:href="#p"/>
</g>
</g>
<path d="m997.52 707.76 1.5446-5.25q0.67738-2.3024-1.6251-2.9798l-7.4277-2.1852q-2.3024-0.67738-2.9798 1.6251l-1.5446 5.25q-0.67738 2.3024 1.6251 2.9798l7.4277 2.1852q2.3024 0.67738 2.9798-1.6251z" clip-path="url(#a)" fill="#fff" stroke="#fff"/>
<g clip-path="url(#a)">
<g transform="translate(993.62 706.62) rotate(-73.606) scale(.08 -.08)">
<use xlink:href="#p"/>
</g>
</g>
<path d="m1239.9 629.92 5.7503 2.209q2.2404 0.86066 3.101-1.3797l2.7765-7.2275q0.86066-2.2404-1.3797-3.101l-5.7503-2.209q-2.2404-0.86066-3.101 1.3797l-2.7765 7.2275q-0.86066 2.2404 1.3797 3.101z" clip-path="url(#a)" fill="#fff" stroke="#fff"/>
<g clip-path="url(#a)">
<g transform="translate(1241.3 626.12) rotate(21.015) scale(.08 -.08)">
<use xlink:href="#aa"/>
</g>
</g>
<path d="m894.74 921.42v35.285q0 2.4 2.4 2.4h7.7425q2.4 0 2.4-2.4v-35.285q0-2.4-2.4-2.4h-7.7425q-2.4 0-2.4 2.4z" clip-path="url(#a)" fill="#fff" stroke="#fff"/>
<g clip-path="url(#a)">
<g transform="translate(898.8 921.42) rotate(90) scale(.08 -.08)">
<use xlink:href="#l"/>
<use x="60.818359" xlink:href="#d"/>
<use x="122.341797" xlink:href="#h"/>
<use x="163.439453" xlink:href="#i"/>
<use x="260.851562" xlink:href="#j"/>
<use x="288.634766" xlink:href="#g"/>
<use x="352.013672" xlink:href="#f"/>
<use x="413.292969" xlink:href="#k"/>
</g>
</g>
<path d="m1254.2 921.42v35.285q0 2.4 2.4 2.4h7.7425q2.4 0 2.4-2.4v-35.285q0-2.4-2.4-2.4h-7.7425q-2.4 0-2.4 2.4z" clip-path="url(#a)" fill="#fff" stroke="#fff"/>
<g clip-path="url(#a)">
<g transform="translate(1258.2 921.42) rotate(90) scale(.08 -.08)">
<use xlink:href="#l"/>
<use x="60.818359" xlink:href="#d"/>
<use x="122.341797" xlink:href="#h"/>
<use x="163.439453" xlink:href="#i"/>
<use x="260.851562" xlink:href="#j"/>
<use x="288.634766" xlink:href="#g"/>
<use x="352.013672" xlink:href="#f"/>
<use x="413.292969" xlink:href="#k"/>
</g>
</g>
<path d="m1838.3 921.42v35.285q0 2.4 2.4 2.4h7.7425q2.4 0 2.4-2.4v-35.285q0-2.4-2.4-2.4h-7.7425q-2.4 0-2.4 2.4z" clip-path="url(#a)" fill="#fff" stroke="#fff"/>
<g clip-path="url(#a)">
<g transform="translate(1842.3 921.42) rotate(90) scale(.08 -.08)">
<use xlink:href="#l"/>
<use x="60.818359" xlink:href="#d"/>
<use x="122.341797" xlink:href="#h"/>
<use x="163.439453" xlink:href="#i"/>
<use x="260.851562" xlink:href="#j"/>
<use x="288.634766" xlink:href="#g"/>
<use x="352.013672" xlink:href="#f"/>
<use x="413.292969" xlink:href="#k"/>
</g>
</g>
<path d="m175.85 921.42v35.285q0 2.4 2.4 2.4h7.7425q2.4 0 2.4-2.4v-35.285q0-2.4-2.4-2.4h-7.7425q-2.4 0-2.4 2.4z" clip-path="url(#a)" fill="#fff" stroke="#fff"/>
<g clip-path="url(#a)">
<g transform="translate(179.91 921.42) rotate(90) scale(.08 -.08)">
<use xlink:href="#l"/>
<use x="60.818359" xlink:href="#d"/>
<use x="122.341797" xlink:href="#h"/>
<use x="163.439453" xlink:href="#i"/>
<use x="260.851562" xlink:href="#j"/>
<use x="288.634766" xlink:href="#g"/>
<use x="352.013672" xlink:href="#f"/>
<use x="413.292969" xlink:href="#k"/>
</g>
</g>
<path d="m400.5 921.42v35.285q0 2.4 2.4 2.4h7.7425q2.4 0 2.4-2.4v-35.285q0-2.4-2.4-2.4h-7.7425q-2.4 0-2.4 2.4z" clip-path="url(#a)" fill="#fff" stroke="#fff"/>
<g clip-path="url(#a)">
<g transform="translate(404.56 921.42) rotate(90) scale(.08 -.08)">
<use xlink:href="#l"/>
<use x="60.818359" xlink:href="#d"/>
<use x="122.341797" xlink:href="#h"/>
<use x="163.439453" xlink:href="#i"/>
<use x="260.851562" xlink:href="#j"/>
<use x="288.634766" xlink:href="#g"/>
<use x="352.013672" xlink:href="#f"/>
<use x="413.292969" xlink:href="#k"/>
</g>
</g>
<path d="m445.43 921.42v35.285q0 2.4 2.4 2.4h7.7425q2.4 0 2.4-2.4v-35.285q0-2.4-2.4-2.4h-7.7425q-2.4 0-2.4 2.4z" clip-path="url(#a)" fill="#fff" stroke="#fff"/>
<g clip-path="url(#a)">
<g transform="translate(449.5 921.42) rotate(90) scale(.08 -.08)">
<use xlink:href="#l"/>
<use x="60.818359" xlink:href="#d"/>
<use x="122.341797" xlink:href="#h"/>
<use x="163.439453" xlink:href="#i"/>
<use x="260.851562" xlink:href="#j"/>
<use x="288.634766" xlink:href="#g"/>
<use x="352.013672" xlink:href="#f"/>
<use x="413.292969" xlink:href="#k"/>
</g>
</g>
<path d="m532.05 625.72 0.59232-4.7872q0.2947-2.3818-2.0871-2.6765l-7.6839-0.95071q-2.3818-0.2947-2.6765 2.0871l-0.59232 4.7872q-0.2947 2.3818 2.0871 2.6765l7.6839 0.95071q2.3818 0.2947 2.6765-2.0871z" clip-path="url(#a)" fill="#fff" stroke="#fff"/>
<g clip-path="url(#a)">
<g transform="translate(528.01 625.22) rotate(-82.947) scale(.08 -.08)">
<use xlink:href="#v"/>
</g>
</g>
<path d="m578.26 464.64 1.8757 5.141q0.82258 2.2546 3.0772 1.432l7.2735-2.6537q2.2546-0.82259 1.432-3.0772l-1.8757-5.141q-0.82259-2.2546-3.0772-1.432l-7.2735 2.6537q-2.2546 0.82258-1.432 3.0772z" clip-path="url(#a)" fill="#fff" stroke="#fff"/>
<g clip-path="url(#a)">
<g transform="translate(582.08 463.25) rotate(69.956) scale(.08 -.08)">
<use xlink:href="#p"/>
</g>
</g>
<path d="m490.36 921.42v35.285q0 2.4 2.4 2.4h7.7425q2.4 0 2.4-2.4v-35.285q0-2.4-2.4-2.4h-7.7425q-2.4 0-2.4 2.4z" clip-path="url(#a)" fill="#fff" stroke="#fff"/>
<g clip-path="url(#a)">
<g transform="translate(494.43 921.42) rotate(90) scale(.08 -.08)">
<use xlink:href="#l"/>
<use x="60.818359" xlink:href="#d"/>
<use x="122.341797" xlink:href="#h"/>
<use x="163.439453" xlink:href="#i"/>
<use x="260.851562" xlink:href="#j"/>
<use x="288.634766" xlink:href="#g"/>
<use x="352.013672" xlink:href="#f"/>
<use x="413.292969" xlink:href="#k"/>
</g>
</g>
<path d="m849.81 921.42v35.285q0 2.4 2.4 2.4h7.7425q2.4 0 2.4-2.4v-35.285q0-2.4-2.4-2.4h-7.7425q-2.4 0-2.4 2.4z" clip-path="url(#a)" fill="#fff" stroke="#fff"/>
<g clip-path="url(#a)">
<g transform="translate(853.87 921.42) rotate(90) scale(.08 -.08)">
<use xlink:href="#l"/>
<use x="60.818359" xlink:href="#d"/>
<use x="122.341797" xlink:href="#h"/>
<use x="163.439453" xlink:href="#i"/>
<use x="260.851562" xlink:href="#j"/>
<use x="288.634766" xlink:href="#g"/>
<use x="352.013672" xlink:href="#f"/>
<use x="413.292969" xlink:href="#k"/>
</g>
</g>
<path d="m939.67 921.42v35.285q0 2.4 2.4 2.4h7.7425q2.4 0 2.4-2.4v-35.285q0-2.4-2.4-2.4h-7.7425q-2.4 0-2.4 2.4z" clip-path="url(#a)" fill="#fff" stroke="#fff"/>
<g clip-path="url(#a)">
<g transform="translate(943.73 921.42) rotate(90) scale(.08 -.08)">
<use xlink:href="#l"/>
<use x="60.818359" xlink:href="#d"/>
<use x="122.341797" xlink:href="#h"/>
<use x="163.439453" xlink:href="#i"/>
<use x="260.851562" xlink:href="#j"/>
<use x="288.634766" xlink:href="#g"/>
<use x="352.013672" xlink:href="#f"/>
<use x="413.292969" xlink:href="#k"/>
</g>
</g>
<path d="m1231.8 789.51 5.261-1.8783q2.2603-0.80698 1.4533-3.0672l-2.6034-7.2917q-0.80698-2.2603-3.0672-1.4533l-5.261 1.8783q-2.2603 0.80698-1.4533 3.0672l2.6034 7.2917q0.80698 2.2603 3.0672 1.4533z" clip-path="url(#a)" fill="#fff" stroke="#fff"/>
<g clip-path="url(#a)">
<g transform="translate(1230.5 785.68) rotate(-19.648) scale(.08 -.08)">
<use xlink:href="#ab"/>
</g>
</g>
<path d="m1664.7 864.5 4.1139 2.9375q1.9532 1.3947 3.3478-0.55849l4.4993-6.301q1.3947-1.9532-0.55849-3.3478l-4.1139-2.9375q-1.9532-1.3947-3.3478 0.55849l-4.4993 6.301q-1.3947 1.9532 0.55848 3.3478z" clip-path="url(#a)" fill="#fff" stroke="#fff"/>
<g clip-path="url(#a)">
<g transform="translate(1667.1 861.19) rotate(35.529) scale(.08 -.08)">
<use xlink:href="#ai"/>
</g>
</g>
<path d="m1005.8 957.42 5.0167-34.927q0.34122-2.3756-2.0344-2.7168l-7.6638-1.1008q-2.3756-0.34122-2.7168 2.0344l-5.0167 34.927q-0.34122 2.3756 2.0344 2.7168l7.6638 1.1008q2.3756 0.34122 2.7168-2.0344z" clip-path="url(#a)" fill="#fff" stroke="#fff"/>
<g clip-path="url(#a)">
<g transform="translate(1001.8 956.84) rotate(-81.826) scale(.08 -.08)">
<use xlink:href="#l"/>
<use x="60.818359" xlink:href="#d"/>
<use x="122.341797" xlink:href="#h"/>
<use x="163.439453" xlink:href="#i"/>
<use x="260.851562" xlink:href="#j"/>
<use x="288.634766" xlink:href="#g"/>
<use x="352.013672" xlink:href="#f"/>
<use x="413.292969" xlink:href="#k"/>
</g>
</g>
<path d="m1015.9 922.49 5.0167 34.927q0.34122 2.3756 2.7168 2.0344l7.6638-1.1008q2.3756-0.34122 2.0344-2.7168l-5.0167-34.927q-0.34122-2.3756-2.7168-2.0344l-7.6638 1.1008q-2.3756 0.34122-2.0344 2.7168z" clip-path="url(#a)" fill="#fff" stroke="#fff"/>
<g clip-path="url(#a)">
<g transform="translate(1019.9 921.92) rotate(81.826) scale(.08 -.08)">
<use xlink:href="#l"/>
<use x="60.818359" xlink:href="#d"/>
<use x="122.341797" xlink:href="#h"/>
<use x="163.439453" xlink:href="#i"/>
<use x="260.851562" xlink:href="#j"/>
<use x="288.634766" xlink:href="#g"/>
<use x="352.013672" xlink:href="#f"/>
<use x="413.292969" xlink:href="#k"/>
</g>
</g>
<path d="m963.71 709.11 3.0136-4.568q1.3216-2.0033-0.68168-3.325l-6.4628-4.2636q-2.0033-1.3216-3.325 0.68168l-3.0136 4.568q-1.3216 2.0033 0.68168 3.325l6.4628 4.2636q2.0033 1.3216 3.325-0.68168z" clip-path="url(#a)" fill="#fff" stroke="#fff"/>
<g clip-path="url(#a)">
<g transform="translate(960.31 706.87) rotate(-56.586) scale(.08 -.08)">
<use xlink:href="#p"/>
</g>
</g>
<path d="m1088.2 702.21 0.92841 4.7336q0.46192 2.3551 2.817 1.8932l7.5977-1.4902q2.3551-0.46192 1.8932-2.817l-0.92841-4.7336q-0.46192-2.3551-2.817-1.8932l-7.5977 1.4902q-2.3551 0.46192-1.8932 2.817z" clip-path="url(#a)" fill="#fff" stroke="#fff"/>
<g clip-path="url(#a)">
<g transform="translate(1092.1 701.43) rotate(78.903) scale(.08 -.08)">
<use xlink:href="#v"/>
</g>
</g>
<path d="m1065.9 700.63 0.32903 6.1512q0.1282 2.3966 2.5248 2.2684l7.7314-0.41356q2.3966-0.1282 2.2684-2.5248l-0.32904-6.1512q-0.1282-2.3966-2.5248-2.2684l-7.7314 0.41356q-2.3966 0.1282-2.2684 2.5248z" clip-path="url(#a)" fill="#fff" stroke="#fff"/>
<g clip-path="url(#a)">
<g transform="translate(1069.9 700.41) rotate(86.938) scale(.08 -.08)">
<use xlink:href="#aa"/>
</g>
</g>
<path d="m1121.9 627.01 3.4562 4.243q1.5157 1.8608 3.3765 0.34505l6.003-4.8898q1.8608-1.5157 0.34505-3.3765l-3.4562-4.243q-1.5157-1.8608-3.3765-0.34505l-6.003 4.8898q-1.8608 1.5157-0.34505 3.3765z" clip-path="url(#a)" fill="#fff" stroke="#fff"/>
<g clip-path="url(#a)">
<g transform="translate(1125 624.44) rotate(50.835) scale(.08 -.08)">
<use xlink:href="#p"/>
</g>
</g>
<path d="m1119.4 921.42v35.285q0 2.4 2.4 2.4h7.7425q2.4 0 2.4-2.4v-35.285q0-2.4-2.4-2.4h-7.7425q-2.4 0-2.4 2.4z" clip-path="url(#a)" fill="#fff" stroke="#fff"/>
<g clip-path="url(#a)">
<g transform="translate(1123.5 921.42) rotate(90) scale(.08 -.08)">
<use xlink:href="#l"/>
<use x="60.818359" xlink:href="#d"/>
<use x="122.341797" xlink:href="#h"/>
<use x="163.439453" xlink:href="#i"/>
<use x="260.851562" xlink:href="#j"/>
<use x="288.634766" xlink:href="#g"/>
<use x="352.013672" xlink:href="#f"/>
<use x="413.292969" xlink:href="#k"/>
</g>
</g>
<path d="m616.61 701.3 0.25766 4.8169q0.1282 2.3966 2.5248 2.2684l7.7314-0.41356q2.3966-0.1282 2.2684-2.5248l-0.25766-4.8169q-0.1282-2.3966-2.5248-2.2684l-7.7314 0.41356q-2.3966 0.1282-2.2684 2.5248z" clip-path="url(#a)" fill="#fff" stroke="#fff"/>
<g clip-path="url(#a)">
<g transform="translate(620.67 701.08) rotate(86.938) scale(.08 -.08)">
<use xlink:href="#v"/>
</g>
</g>
<path d="m583.55 707.49 1.2552-5.4152q0.54194-2.338-1.7961-2.88l-7.5425-1.7483q-2.338-0.54194-2.88 1.7961l-1.2552 5.4152q-0.54194 2.338 1.7961 2.88l7.5425 1.7483q2.338 0.54194 2.88-1.7961z" clip-path="url(#a)" fill="#fff" stroke="#fff"/>
<g clip-path="url(#a)">
<defs>
<path id="am" d="m44.391 34.188q3.1719-1.0781 6.1719-4.5938t6.0312-9.6719l10.016-19.922h-10.609l-9.3125 18.703q-3.625 7.3281-7.0156 9.7188t-9.25 2.3906h-10.75v-30.812h-9.8594v72.906h22.266q12.5 0 18.656-5.2344 6.1562-5.2188 6.1562-15.766 0-6.8906-3.2031-11.438-3.2031-4.5312-9.2969-6.2812zm-24.719 30.609v-25.875h12.406q7.125 0 10.766 3.2969t3.6406 9.6875-3.6406 9.6406-10.766 3.25z"/>
</defs>
<g transform="translate(579.59 706.58) rotate(-76.95) scale(.08 -.08)">
<use xlink:href="#am"/>
</g>
</g>
<path d="m606.58 706.22 0.40859-4.5831q0.21312-2.3905-2.1774-2.6036l-7.7119-0.68753q-2.3905-0.21312-2.6036 2.1774l-0.40859 4.5831q-0.21312 2.3905 2.1774 2.6036l7.7119 0.68753q2.3905 0.21312 2.6036-2.1774z" clip-path="url(#a)" fill="#fff" stroke="#fff"/>
<g clip-path="url(#a)">
<g transform="translate(602.53 705.86) rotate(-84.905) scale(.08 -.08)">
<use xlink:href="#w"/>
</g>
</g>
<path d="m649.71 625.39 2.89 5.44q1.126 2.1195 3.2454 0.99353l6.8376-3.6324q2.1195-1.126 0.99353-3.2454l-2.89-5.44q-1.126-2.1195-3.2454-0.99353l-6.8376 3.6324q-2.1195 1.126-0.99353 3.2454z" clip-path="url(#a)" fill="#fff" stroke="#fff"/>
<g clip-path="url(#a)">
<g transform="translate(653.3 623.48) rotate(62.021) scale(.08 -.08)">
<use xlink:href="#aa"/>
</g>
</g>
<path d="m625.15 921.42v35.285q0 2.4 2.4 2.4h7.7425q2.4 0 2.4-2.4v-35.285q0-2.4-2.4-2.4h-7.7425q-2.4 0-2.4 2.4z" clip-path="url(#a)" fill="#fff" stroke="#fff"/>
<g clip-path="url(#a)">
<g transform="translate(629.22 921.42) rotate(90) scale(.08 -.08)">
<use xlink:href="#l"/>
<use x="60.818359" xlink:href="#d"/>
<use x="122.341797" xlink:href="#h"/>
<use x="163.439453" xlink:href="#i"/>
<use x="260.851562" xlink:href="#j"/>
<use x="288.634766" xlink:href="#g"/>
<use x="352.013672" xlink:href="#f"/>
<use x="413.292969" xlink:href="#k"/>
</g>
</g>
<path d="m1074.5 921.42v35.285q0 2.4 2.4 2.4h7.7425q2.4 0 2.4-2.4v-35.285q0-2.4-2.4-2.4h-7.7425q-2.4 0-2.4 2.4z" clip-path="url(#a)" fill="#fff" stroke="#fff"/>
<g clip-path="url(#a)">
<g transform="translate(1078.5 921.42) rotate(90) scale(.08 -.08)">
<use xlink:href="#l"/>
<use x="60.818359" xlink:href="#d"/>
<use x="122.341797" xlink:href="#h"/>
<use x="163.439453" xlink:href="#i"/>
<use x="260.851562" xlink:href="#j"/>
<use x="288.634766" xlink:href="#g"/>
<use x="352.013672" xlink:href="#f"/>
<use x="413.292969" xlink:href="#k"/>
</g>
</g>
<path d="m1197.7 780.79 0.79423 5.5295q0.34122 2.3756 2.7168 2.0344l7.6638-1.1008q2.3756-0.34122 2.0344-2.7168l-0.79423-5.5295q-0.34122-2.3756-2.7168-2.0344l-7.6638 1.1008q-2.3756 0.34122-2.0344 2.7168z" clip-path="url(#a)" fill="#fff" stroke="#fff"/>
<g clip-path="url(#a)">
<g transform="translate(1201.7 780.21) rotate(81.826) scale(.08 -.08)">
<use xlink:href="#ab"/>
</g>
</g>
<path d="m1187.7 786.05 0.7187-5.0036q0.34122-2.3756-2.0344-2.7168l-7.6638-1.1008q-2.3756-0.34122-2.7168 2.0344l-0.7187 5.0036q-0.34122 2.3756 2.0344 2.7168l7.6638 1.1008q2.3756 0.34122 2.7168-2.0344z" clip-path="url(#a)" fill="#fff" stroke="#fff"/>
<g clip-path="url(#a)">
<g transform="translate(1183.6 785.48) rotate(-81.826) scale(.08 -.08)">
<use xlink:href="#ai"/>
</g>
</g>
<path d="m1209.2 921.42v35.285q0 2.4 2.4 2.4h7.7425q2.4 0 2.4-2.4v-35.285q0-2.4-2.4-2.4h-7.7425q-2.4 0-2.4 2.4z" clip-path="url(#a)" fill="#fff" stroke="#fff"/>
<g clip-path="url(#a)">
<g transform="translate(1213.3 921.42) rotate(90) scale(.08 -.08)">
<use xlink:href="#l"/>
<use x="60.818359" xlink:href="#d"/>
<use x="122.341797" xlink:href="#h"/>
<use x="163.439453" xlink:href="#i"/>
<use x="260.851562" xlink:href="#j"/>
<use x="288.634766" xlink:href="#g"/>
<use x="352.013672" xlink:href="#f"/>
<use x="413.292969" xlink:href="#k"/>
</g>
</g>
<path d="m1455.3 537.82 0.36872 5.0653q0.17424 2.3937 2.5679 2.2194l7.7221-0.5621q2.3937-0.17424 2.2194-2.5679l-0.36871-5.0653q-0.17424-2.3937-2.5679-2.2194l-7.7221 0.5621q-2.3937 0.17424-2.2194 2.5679z" clip-path="url(#a)" fill="#fff" stroke="#fff"/>
<g clip-path="url(#a)">
<defs>
<path id="aq" d="m53.516 70.516v-9.625q-5.6094 2.6875-10.594 4-4.9844 1.3281-9.625 1.3281-8.0469 0-12.422-3.125t-4.375-8.8906q0-4.8438 2.9062-7.3125 2.9062-2.4531 11.016-3.9688l5.9531-1.2188q11.031-2.1094 16.281-7.4062t5.25-14.172q0-10.609-7.1094-16.078-7.0938-5.4688-20.812-5.4688-5.1719 0-11.016 1.1719-5.8281 1.1719-12.078 3.4688v10.156q6-3.3594 11.766-5.0781 5.7656-1.7031 11.328-1.7031 8.4375 0 13.031 3.3125 4.5938 3.3281 4.5938 9.4844 0 5.3594-3.2969 8.3906t-10.812 4.5469l-6.0156 1.1719q-11.031 2.1875-15.969 6.875-4.9219 4.6875-4.9219 13.047 0 9.6719 6.8125 15.234t18.766 5.5625q5.1406 0 10.453-0.9375 5.3281-0.92188 10.891-2.7656z"/>
</defs>
<g transform="translate(1459.4 537.52) rotate(85.837) scale(.08 -.08)">
<use xlink:href="#aq"/>
</g>
</g>
<path d="m1377.5 543.85 1.1102-5.3587q0.48688-2.3501-1.8632-2.837l-7.5815-1.5707q-2.3501-0.48688-2.837 1.8632l-1.1102 5.3587q-0.48688 2.3501 1.8632 2.837l7.5815 1.5707q2.3501 0.48688 2.837-1.8632z" clip-path="url(#a)" fill="#fff" stroke="#fff"/>
<g clip-path="url(#a)">
<g transform="translate(1373.5 543.02) rotate(-78.295) scale(.08 -.08)">
<use xlink:href="#p"/>
</g>
</g>
<path d="m1400.2 543.03 0.62536-4.5586q0.32619-2.3777-2.0515-2.7039l-7.6707-1.0523q-2.3777-0.32619-2.7039 2.0515l-0.62536 4.5586q-0.32619 2.3777 2.0515 2.7039l7.6707 1.0523q2.3777 0.32619 2.7039-2.0515z" clip-path="url(#a)" fill="#fff" stroke="#fff"/>
<g clip-path="url(#a)">
<g transform="translate(1396.2 542.47) rotate(-82.189) scale(.08 -.08)">
<use xlink:href="#w"/>
</g>
</g>
<path d="m1434.2 464.69 0.23274-5.4675q0.10207-2.3978-2.2958-2.4999l-7.7355-0.32928q-2.3978-0.10207-2.4999 2.2958l-0.23274 5.4675q-0.10207 2.3978 2.2958 2.4999l7.7355 0.32928q2.3978 0.10207 2.4999-2.2958z" clip-path="url(#a)" fill="#fff" stroke="#fff"/>
<g clip-path="url(#a)">
<g transform="translate(1430.1 464.52) rotate(-87.563) scale(.08 -.08)">
<use xlink:href="#p"/>
</g>
</g>
<path d="m1529.7 304.6 4.1743 3.5389q1.8306 1.552 3.3827-0.27864l5.0068-5.9058q1.552-1.8306-0.27864-3.3827l-4.1743-3.5389q-1.8306-1.552-3.3827 0.27864l-5.0068 5.9058q-1.552 1.8306 0.27864 3.3827z" clip-path="url(#a)" fill="#fff" stroke="#fff"/>
<g clip-path="url(#a)">
<g transform="translate(1532.4 301.5) rotate(40.291) scale(.08 -.08)">
<use xlink:href="#p"/>
</g>
</g>
<path d="m1478.8 921.42v35.285q0 2.4 2.4 2.4h7.7425q2.4 0 2.4-2.4v-35.285q0-2.4-2.4-2.4h-7.7425q-2.4 0-2.4 2.4z" clip-path="url(#a)" fill="#fff" stroke="#fff"/>
<g clip-path="url(#a)">
<g transform="translate(1482.9 921.42) rotate(90) scale(.08 -.08)">
<use xlink:href="#l"/>
<use x="60.818359" xlink:href="#d"/>
<use x="122.341797" xlink:href="#h"/>
<use x="163.439453" xlink:href="#i"/>
<use x="260.851562" xlink:href="#j"/>
<use x="288.634766" xlink:href="#g"/>
<use x="352.013672" xlink:href="#f"/>
<use x="413.292969" xlink:href="#k"/>
</g>
</g>
<path d="m535.29 921.42v35.285q0 2.4 2.4 2.4h7.7425q2.4 0 2.4-2.4v-35.285q0-2.4-2.4-2.4h-7.7425q-2.4 0-2.4 2.4z" clip-path="url(#a)" fill="#fff" stroke="#fff"/>
<g clip-path="url(#a)">
<g transform="translate(539.36 921.42) rotate(90) scale(.08 -.08)">
<use xlink:href="#l"/>
<use x="60.818359" xlink:href="#d"/>
<use x="122.341797" xlink:href="#h"/>
<use x="163.439453" xlink:href="#i"/>
<use x="260.851562" xlink:href="#j"/>
<use x="288.634766" xlink:href="#g"/>
<use x="352.013672" xlink:href="#f"/>
<use x="413.292969" xlink:href="#k"/>
</g>
</g>
<path d="m580.22 921.42v35.285q0 2.4 2.4 2.4h7.7425q2.4 0 2.4-2.4v-35.285q0-2.4-2.4-2.4h-7.7425q-2.4 0-2.4 2.4z" clip-path="url(#a)" fill="#fff" stroke="#fff"/>
<g clip-path="url(#a)">
<g transform="translate(584.29 921.42) rotate(90) scale(.08 -.08)">
<use xlink:href="#l"/>
<use x="60.818359" xlink:href="#d"/>
<use x="122.341797" xlink:href="#h"/>
<use x="163.439453" xlink:href="#i"/>
<use x="260.851562" xlink:href="#j"/>
<use x="288.634766" xlink:href="#g"/>
<use x="352.013672" xlink:href="#f"/>
<use x="413.292969" xlink:href="#k"/>
</g>
</g>
<path d="m669.8 787.65 2.1656-5.0258q0.94975-2.2041-1.2543-3.1538l-7.1105-3.0639q-2.2041-0.94975-3.1538 1.2543l-2.1656 5.0258q-0.94975 2.2041 1.2543 3.1538l7.1105 3.0639q2.2041 0.94975 3.1538-1.2543z" clip-path="url(#a)" fill="#fff" stroke="#fff"/>
<g clip-path="url(#a)">
<g transform="translate(666.07 786.05) rotate(-66.689) scale(.08 -.08)">
<use xlink:href="#p"/>
</g>
</g>
<path d="m725.8 782.93 1.9089 4.43q0.94975 2.2041 3.1538 1.2543l7.1105-3.0639q2.2041-0.94975 1.2543-3.1538l-1.9089-4.43q-0.94975-2.2041-3.1538-1.2543l-7.1105 3.0639q-2.2041 0.94975-1.2543 3.1538z" clip-path="url(#a)" fill="#fff" stroke="#fff"/>
<g clip-path="url(#a)">
<g transform="translate(729.54 781.32) rotate(66.689) scale(.08 -.08)">
<use xlink:href="#v"/>
</g>
</g>
<path d="m693.4 786.3 0.79032-5.5023q0.34122-2.3756-2.0344-2.7168l-7.6638-1.1008q-2.3756-0.34122-2.7168 2.0344l-0.79032 5.5023q-0.34122 2.3756 2.0344 2.7168l7.6638 1.1008q2.3756 0.34122 2.7168-2.0344z" clip-path="url(#a)" fill="#fff" stroke="#fff"/>
<g clip-path="url(#a)">
<g transform="translate(689.38 785.72) rotate(-81.826) scale(.08 -.08)">
<use xlink:href="#am"/>
</g>
</g>
<path d="m703.52 781.27 0.65419 4.5545q0.34122 2.3756 2.7168 2.0344l7.6638-1.1008q2.3756-0.34122 2.0344-2.7168l-0.65419-4.5545q-0.34122-2.3756-2.7168-2.0344l-7.6638 1.1008q-2.3756 0.34122-2.0344 2.7168z" clip-path="url(#a)" fill="#fff" stroke="#fff"/>
<g clip-path="url(#a)">
<g transform="translate(707.54 780.7) rotate(81.826) scale(.08 -.08)">
<use xlink:href="#w"/>
</g>
</g>
<path d="m759.94 921.42v35.285q0 2.4 2.4 2.4h7.7425q2.4 0 2.4-2.4v-35.285q0-2.4-2.4-2.4h-7.7425q-2.4 0-2.4 2.4z" clip-path="url(#a)" fill="#fff" stroke="#fff"/>
<g clip-path="url(#a)">
<g transform="translate(764.01 921.42) rotate(90) scale(.08 -.08)">
<use xlink:href="#l"/>
<use x="60.818359" xlink:href="#d"/>
<use x="122.341797" xlink:href="#h"/>
<use x="163.439453" xlink:href="#i"/>
<use x="260.851562" xlink:href="#j"/>
<use x="288.634766" xlink:href="#g"/>
<use x="352.013672" xlink:href="#f"/>
<use x="413.292969" xlink:href="#k"/>
</g>
</g>
<path d="m1164.3 921.42v35.285q0 2.4 2.4 2.4h7.7425q2.4 0 2.4-2.4v-35.285q0-2.4-2.4-2.4h-7.7425q-2.4 0-2.4 2.4z" clip-path="url(#a)" fill="#fff" stroke="#fff"/>
<g clip-path="url(#a)">
<g transform="translate(1168.4 921.42) rotate(90) scale(.08 -.08)">
<use xlink:href="#l"/>
<use x="60.818359" xlink:href="#d"/>
<use x="122.341797" xlink:href="#h"/>
<use x="163.439453" xlink:href="#i"/>
<use x="260.851562" xlink:href="#j"/>
<use x="288.634766" xlink:href="#g"/>
<use x="352.013672" xlink:href="#f"/>
<use x="413.292969" xlink:href="#k"/>
</g>
</g>
<path d="m1299.1 921.42v35.285q0 2.4 2.4 2.4h7.7425q2.4 0 2.4-2.4v-35.285q0-2.4-2.4-2.4h-7.7425q-2.4 0-2.4 2.4z" clip-path="url(#a)" fill="#fff" stroke="#fff"/>
<g clip-path="url(#a)">
<g transform="translate(1303.2 921.42) rotate(90) scale(.08 -.08)">
<use xlink:href="#l"/>
<use x="60.818359" xlink:href="#d"/>
<use x="122.341797" xlink:href="#h"/>
<use x="163.439453" xlink:href="#i"/>
<use x="260.851562" xlink:href="#j"/>
<use x="288.634766" xlink:href="#g"/>
<use x="352.013672" xlink:href="#f"/>
<use x="413.292969" xlink:href="#k"/>
</g>
</g>
<path d="m1344 921.42v35.285q0 2.4 2.4 2.4h7.7425q2.4 0 2.4-2.4v-35.285q0-2.4-2.4-2.4h-7.7425q-2.4 0-2.4 2.4z" clip-path="url(#a)" fill="#fff" stroke="#fff"/>
<g clip-path="url(#a)">
<g transform="translate(1348.1 921.42) rotate(90) scale(.08 -.08)">
<use xlink:href="#l"/>
<use x="60.818359" xlink:href="#d"/>
<use x="122.341797" xlink:href="#h"/>
<use x="163.439453" xlink:href="#i"/>
<use x="260.851562" xlink:href="#j"/>
<use x="288.634766" xlink:href="#g"/>
<use x="352.013672" xlink:href="#f"/>
<use x="413.292969" xlink:href="#k"/>
</g>
</g>
<path d="m1422.3 780.79 0.79423 5.5295q0.34122 2.3756 2.7168 2.0344l7.6638-1.1008q2.3756-0.34122 2.0344-2.7168l-0.79423-5.5295q-0.34122-2.3756-2.7168-2.0344l-7.6638 1.1008q-2.3756 0.34122-2.0344 2.7168z" clip-path="url(#a)" fill="#fff" stroke="#fff"/>
<g clip-path="url(#a)">
<g transform="translate(1426.4 780.21) rotate(81.826) scale(.08 -.08)">
<use xlink:href="#ab"/>
</g>
</g>
<path d="m1412.4 785.83 0.65419-4.5545q0.34122-2.3756-2.0344-2.7168l-7.6638-1.1008q-2.3756-0.34122-2.7168 2.0344l-0.65419 4.5545q-0.34122 2.3756 2.0344 2.7168l7.6638 1.1008q2.3756 0.34122 2.7168-2.0344z" clip-path="url(#a)" fill="#fff" stroke="#fff"/>
<g clip-path="url(#a)">
<g transform="translate(1408.3 785.25) rotate(-81.826) scale(.08 -.08)">
<use xlink:href="#w"/>
</g>
</g>
<path d="m1433.9 921.42v35.285q0 2.4 2.4 2.4h7.7425q2.4 0 2.4-2.4v-35.285q0-2.4-2.4-2.4h-7.7425q-2.4 0-2.4 2.4z" clip-path="url(#a)" fill="#fff" stroke="#fff"/>
<g clip-path="url(#a)">
<g transform="translate(1438 921.42) rotate(90) scale(.08 -.08)">
<use xlink:href="#l"/>
<use x="60.818359" xlink:href="#d"/>
<use x="122.341797" xlink:href="#h"/>
<use x="163.439453" xlink:href="#i"/>
<use x="260.851562" xlink:href="#j"/>
<use x="288.634766" xlink:href="#g"/>
<use x="352.013672" xlink:href="#f"/>
<use x="413.292969" xlink:href="#k"/>
</g>
</g>
<path d="m1642.7 620.67 0.30297 4.5913q0.15803 2.3948 2.5528 2.2368l7.7257-0.5098q2.3948-0.15803 2.2368-2.5528l-0.30297-4.5913q-0.15803-2.3948-2.5528-2.2368l-7.7257 0.5098q-2.3948 0.15803-2.2368 2.5528z" clip-path="url(#a)" fill="#fff" stroke="#fff"/>
<g clip-path="url(#a)">
<g transform="translate(1646.7 620.4) rotate(86.225) scale(.08 -.08)">
<use xlink:href="#w"/>
</g>
</g>
<path d="m1587.2 626.6 1.1779-5.4325q0.50855-2.3455-1.837-2.854l-7.5667-1.6406q-2.3455-0.50855-2.854 1.837l-1.1779 5.4325q-0.50855 2.3455 1.837 2.854l7.5667 1.6406q2.3455 0.50855 2.854-1.837z" clip-path="url(#a)" fill="#fff" stroke="#fff"/>
<g clip-path="url(#a)">
<g transform="translate(1583.3 625.74) rotate(-77.767) scale(.08 -.08)">
<use xlink:href="#am"/>
</g>
</g>
<path d="m1610.1 626.03 0.66567-5.4319q0.29193-2.3822-2.0902-2.6741l-7.685-0.94179q-2.3822-0.29194-2.6741 2.0902l-0.66567 5.4319q-0.29194 2.3822 2.0902 2.6741l7.685 0.94179q2.3822 0.29193 2.6741-2.0902z" clip-path="url(#a)" fill="#fff" stroke="#fff"/>
<g clip-path="url(#a)">
<g transform="translate(1606 625.54) rotate(-83.013) scale(.08 -.08)">
<use xlink:href="#p"/>
</g>
</g>
<path d="m1632.8 625.03 0.13007-4.5994q0.067847-2.399-2.3312-2.4669l-7.7394-0.21888q-2.399-0.067846-2.4669 2.3312l-0.13007 4.5994q-0.067847 2.399 2.3312 2.4669l7.7394 0.21888q2.399 0.067847 2.4669-2.3312z" clip-path="url(#a)" fill="#fff" stroke="#fff"/>
<g clip-path="url(#a)">
<g transform="translate(1628.8 624.91) rotate(-88.38) scale(.08 -.08)">
<use xlink:href="#w"/>
</g>
</g>
<path d="m1698.8 467.18 3.6372 4.0889q1.5951 1.7932 3.3883 0.19811l5.785-5.1459q1.7932-1.5951 0.19811-3.3883l-3.6372-4.0889q-1.5951-1.7932-3.3883-0.19811l-5.785 5.1459q-1.7932 1.5951-0.19811 3.3883z" clip-path="url(#a)" fill="#fff" stroke="#fff"/>
<g clip-path="url(#a)">
<g transform="translate(1701.8 464.48) rotate(48.346) scale(.08 -.08)">
<use xlink:href="#p"/>
</g>
</g>
<path d="m1658.6 921.42v35.285q0 2.4 2.4 2.4h7.7425q2.4 0 2.4-2.4v-35.285q0-2.4-2.4-2.4h-7.7425q-2.4 0-2.4 2.4z" clip-path="url(#a)" fill="#fff" stroke="#fff"/>
<g clip-path="url(#a)">
<g transform="translate(1662.6 921.42) rotate(90) scale(.08 -.08)">
<use xlink:href="#l"/>
<use x="60.818359" xlink:href="#d"/>
<use x="122.341797" xlink:href="#h"/>
<use x="163.439453" xlink:href="#i"/>
<use x="260.851562" xlink:href="#j"/>
<use x="288.634766" xlink:href="#g"/>
<use x="352.013672" xlink:href="#f"/>
<use x="413.292969" xlink:href="#k"/>
</g>
</g>
<path d="m670.08 921.42v35.285q0 2.4 2.4 2.4h7.7425q2.4 0 2.4-2.4v-35.285q0-2.4-2.4-2.4h-7.7425q-2.4 0-2.4 2.4z" clip-path="url(#a)" fill="#fff" stroke="#fff"/>
<g clip-path="url(#a)">
<g transform="translate(674.15 921.42) rotate(90) scale(.08 -.08)">
<use xlink:href="#l"/>
<use x="60.818359" xlink:href="#d"/>
<use x="122.341797" xlink:href="#h"/>
<use x="163.439453" xlink:href="#i"/>
<use x="260.851562" xlink:href="#j"/>
<use x="288.634766" xlink:href="#g"/>
<use x="352.013672" xlink:href="#f"/>
<use x="413.292969" xlink:href="#k"/>
</g>
</g>
<path d="m715.01 921.42v35.285q0 2.4 2.4 2.4h7.7425q2.4 0 2.4-2.4v-35.285q0-2.4-2.4-2.4h-7.7425q-2.4 0-2.4 2.4z" clip-path="url(#a)" fill="#fff" stroke="#fff"/>
<g clip-path="url(#a)">
<g transform="translate(719.08 921.42) rotate(90) scale(.08 -.08)">
<use xlink:href="#l"/>
<use x="60.818359" xlink:href="#d"/>
<use x="122.341797" xlink:href="#h"/>
<use x="163.439453" xlink:href="#i"/>
<use x="260.851562" xlink:href="#j"/>
<use x="288.634766" xlink:href="#g"/>
<use x="352.013672" xlink:href="#f"/>
<use x="413.292969" xlink:href="#k"/>
</g>
</g>
<path d="m1389 921.42v35.285q0 2.4 2.4 2.4h7.7425q2.4 0 2.4-2.4v-35.285q0-2.4-2.4-2.4h-7.7425q-2.4 0-2.4 2.4z" clip-path="url(#a)" fill="#fff" stroke="#fff"/>
<g clip-path="url(#a)">
<g transform="translate(1393 921.42) rotate(90) scale(.08 -.08)">
<use xlink:href="#l"/>
<use x="60.818359" xlink:href="#d"/>
<use x="122.341797" xlink:href="#h"/>
<use x="163.439453" xlink:href="#i"/>
<use x="260.851562" xlink:href="#j"/>
<use x="288.634766" xlink:href="#g"/>
<use x="352.013672" xlink:href="#f"/>
<use x="413.292969" xlink:href="#k"/>
</g>
</g>
<path d="m1523.8 921.42v35.285q0 2.4 2.4 2.4h7.7425q2.4 0 2.4-2.4v-35.285q0-2.4-2.4-2.4h-7.7425q-2.4 0-2.4 2.4z" clip-path="url(#a)" fill="#fff" stroke="#fff"/>
<g clip-path="url(#a)">
<g transform="translate(1527.8 921.42) rotate(90) scale(.08 -.08)">
<use xlink:href="#l"/>
<use x="60.818359" xlink:href="#d"/>
<use x="122.341797" xlink:href="#h"/>
<use x="163.439453" xlink:href="#i"/>
<use x="260.851562" xlink:href="#j"/>
<use x="288.634766" xlink:href="#g"/>
<use x="352.013672" xlink:href="#f"/>
<use x="413.292969" xlink:href="#k"/>
</g>
</g>
<path d="m1568.7 921.42v35.285q0 2.4 2.4 2.4h7.7425q2.4 0 2.4-2.4v-35.285q0-2.4-2.4-2.4h-7.7425q-2.4 0-2.4 2.4z" clip-path="url(#a)" fill="#fff" stroke="#fff"/>
<g clip-path="url(#a)">
<g transform="translate(1572.8 921.42) rotate(90) scale(.08 -.08)">
<use xlink:href="#l"/>
<use x="60.818359" xlink:href="#d"/>
<use x="122.341797" xlink:href="#h"/>
<use x="163.439453" xlink:href="#i"/>
<use x="260.851562" xlink:href="#j"/>
<use x="288.634766" xlink:href="#g"/>
<use x="352.013672" xlink:href="#f"/>
<use x="413.292969" xlink:href="#k"/>
</g>
</g>
<path d="m1613.6 921.42v35.285q0 2.4 2.4 2.4h7.7425q2.4 0 2.4-2.4v-35.285q0-2.4-2.4-2.4h-7.7425q-2.4 0-2.4 2.4z" clip-path="url(#a)" fill="#fff" stroke="#fff"/>
<g clip-path="url(#a)">
<g transform="translate(1617.7 921.42) rotate(90) scale(.08 -.08)">
<use xlink:href="#l"/>
<use x="60.818359" xlink:href="#d"/>
<use x="122.341797" xlink:href="#h"/>
<use x="163.439453" xlink:href="#i"/>
<use x="260.851562" xlink:href="#j"/>
<use x="288.634766" xlink:href="#g"/>
<use x="352.013672" xlink:href="#f"/>
<use x="413.292969" xlink:href="#k"/>
</g>
</g>
<path d="m1781.9 701.03 0.39741 5.5721q0.17074 2.3939 2.5647 2.2232l7.7229-0.55081q2.3939-0.17074 2.2232-2.5647l-0.39741-5.5721q-0.17074-2.3939-2.5647-2.2232l-7.7229 0.55081q-2.3939 0.17074-2.2232 2.5647z" clip-path="url(#a)" fill="#fff" stroke="#fff"/>
<g clip-path="url(#a)">
<g transform="translate(1786 700.74) rotate(85.92) scale(.08 -.08)">
<use xlink:href="#ab"/>
</g>
</g>
<path d="m1771.8 628.55 0.70903-5.005q0.33663-2.3763-2.0396-2.7129l-7.666-1.086q-2.3763-0.33663-2.7129 2.0396l-0.70903 5.005q-0.33663 2.3763 2.0396 2.7129l7.666 1.086q2.3763 0.33663 2.7129-2.0396z" clip-path="url(#a)" fill="#fff" stroke="#fff"/>
<g clip-path="url(#a)">
<g transform="translate(1767.7 627.98) rotate(-81.937) scale(.08 -.08)">
<use xlink:href="#ai"/>
</g>
</g>
<path d="m1793.3 921.42v35.285q0 2.4 2.4 2.4h7.7425q2.4 0 2.4-2.4v-35.285q0-2.4-2.4-2.4h-7.7425q-2.4 0-2.4 2.4z" clip-path="url(#a)" fill="#fff" stroke="#fff"/>
<g clip-path="url(#a)">
<g transform="translate(1797.4 921.42) rotate(90) scale(.08 -.08)">
<use xlink:href="#l"/>
<use x="60.818359" xlink:href="#d"/>
<use x="122.341797" xlink:href="#h"/>
<use x="163.439453" xlink:href="#i"/>
<use x="260.851562" xlink:href="#j"/>
<use x="288.634766" xlink:href="#g"/>
<use x="352.013672" xlink:href="#f"/>
<use x="413.292969" xlink:href="#k"/>
</g>
</g>
<path d="m1770.4 781.76 1.511 5.2598q0.66265 2.3067 2.9694 1.6441l7.4415-2.1377q2.3067-0.66265 1.6441-2.9694l-1.511-5.2598q-0.66265-2.3067-2.9694-1.6441l-7.4415 2.1377q-2.3067 0.66265-1.6441 2.9694z" clip-path="url(#a)" fill="#fff" stroke="#fff"/>
<g clip-path="url(#a)">
<g transform="translate(1774.3 780.64) rotate(73.972) scale(.08 -.08)">
<use xlink:href="#p"/>
</g>
</g>
<path d="m1748.4 780.12v5.0788q0 2.4 2.4 2.4h7.7425q2.4 0 2.4-2.4v-5.0788q0-2.4-2.4-2.4h-7.7425q-2.4 0-2.4 2.4z" clip-path="url(#a)" fill="#fff" stroke="#fff"/>
<g clip-path="url(#a)">
<g transform="translate(1752.5 780.12) rotate(90) scale(.08 -.08)">
<use xlink:href="#aq"/>
</g>
</g>
<path d="m1737.4 787.35 1.7008-5.9205q0.66265-2.3067-1.6441-2.9694l-7.4415-2.1377q-2.3067-0.66265-2.9694 1.6441l-1.7008 5.9205q-0.66265 2.3067 1.6441 2.9694l7.4415 2.1377q2.3067 0.66265 2.9694-1.6441z" clip-path="url(#a)" fill="#fff" stroke="#fff"/>
<g clip-path="url(#a)">
<g transform="translate(1733.5 786.23) rotate(-73.972) scale(.08 -.08)">
<use xlink:href="#aa"/>
</g>
</g>
<path d="m1748.4 921.42v35.285q0 2.4 2.4 2.4h7.7425q2.4 0 2.4-2.4v-35.285q0-2.4-2.4-2.4h-7.7425q-2.4 0-2.4 2.4z" clip-path="url(#a)" fill="#fff" stroke="#fff"/>
<g clip-path="url(#a)">
<g transform="translate(1752.5 921.42) rotate(90) scale(.08 -.08)">
<use xlink:href="#l"/>
<use x="60.818359" xlink:href="#d"/>
<use x="122.341797" xlink:href="#h"/>
<use x="163.439453" xlink:href="#i"/>
<use x="260.851562" xlink:href="#j"/>
<use x="288.634766" xlink:href="#g"/>
<use x="352.013672" xlink:href="#f"/>
<use x="413.292969" xlink:href="#k"/>
</g>
</g>
<path d="m1703.5 921.42v35.285q0 2.4 2.4 2.4h7.7425q2.4 0 2.4-2.4v-35.285q0-2.4-2.4-2.4h-7.7425q-2.4 0-2.4 2.4z" clip-path="url(#a)" fill="#fff" stroke="#fff"/>
<g clip-path="url(#a)">
<g transform="translate(1707.5 921.42) rotate(90) scale(.08 -.08)">
<use xlink:href="#l"/>
<use x="60.818359" xlink:href="#d"/>
<use x="122.341797" xlink:href="#h"/>
<use x="163.439453" xlink:href="#i"/>
<use x="260.851562" xlink:href="#j"/>
<use x="288.634766" xlink:href="#g"/>
<use x="352.013672" xlink:href="#f"/>
<use x="413.292969" xlink:href="#k"/>
</g>
</g>
<defs>
<path id="b" d="m0 8.6603c2.2967 0 4.4997-0.9125 6.1237-2.5365 1.624-1.624 2.5365-3.827 2.5365-6.1237s-0.9125-4.4997-2.5365-6.1237c-1.624-1.624-3.827-2.5365-6.1237-2.5365s-4.4997 0.9125-6.1237 2.5365c-1.624 1.624-2.5365 3.827-2.5365 6.1237s0.9125 4.4997 2.5365 6.1237c1.624 1.624 3.827 2.5365 6.1237 2.5365z"/>
</defs>
<g clip-path="url(#a)">
<use x="92.259448" y="1017.267525" fill="#ffffff" stroke="#ffffff" xlink:href="#b"/>
</g>
<g clip-path="url(#a)">
<use x="137.189882" y="1017.267525" fill="#ffffff" stroke="#ffffff" xlink:href="#b"/>
</g>
<g clip-path="url(#a)">
<use x="182.120315" y="1017.267525" fill="#ffffff" stroke="#ffffff" xlink:href="#b"/>
</g>
<g clip-path="url(#a)">
<use x="227.050748" y="1017.267525" fill="#ffffff" stroke="#ffffff" xlink:href="#b"/>
</g>
<g clip-path="url(#a)">
<use x="271.981182" y="1017.267525" fill="#ffffff" stroke="#ffffff" xlink:href="#b"/>
</g>
<g clip-path="url(#a)">
<use x="316.911615" y="1017.267525" fill="#ffffff" stroke="#ffffff" xlink:href="#b"/>
</g>
<g clip-path="url(#a)">
<use x="361.842049" y="1017.267525" fill="#ffffff" stroke="#ffffff" xlink:href="#b"/>
</g>
<g clip-path="url(#a)">
<use x="406.772482" y="1017.267525" fill="#ffffff" stroke="#ffffff" xlink:href="#b"/>
</g>
<g clip-path="url(#a)">
<use x="451.702916" y="1017.267525" fill="#ffffff" stroke="#ffffff" xlink:href="#b"/>
</g>
<g clip-path="url(#a)">
<use x="496.633349" y="1017.267525" fill="#ffffff" stroke="#ffffff" xlink:href="#b"/>
</g>
<g clip-path="url(#a)">
<use x="541.563782" y="1017.267525" fill="#ffffff" stroke="#ffffff" xlink:href="#b"/>
</g>
<g clip-path="url(#a)">
<use x="586.494216" y="1017.267525" fill="#ffffff" stroke="#ffffff" xlink:href="#b"/>
</g>
<g clip-path="url(#a)">
<use x="631.424649" y="1017.267525" fill="#ffffff" stroke="#ffffff" xlink:href="#b"/>
</g>
<g clip-path="url(#a)">
<use x="676.355083" y="1017.267525" fill="#ffffff" stroke="#ffffff" xlink:href="#b"/>
</g>
<g clip-path="url(#a)">
<use x="721.285516" y="1017.267525" fill="#ffffff" stroke="#ffffff" xlink:href="#b"/>
</g>
<g clip-path="url(#a)">
<use x="766.21595" y="1017.267525" fill="#ffffff" stroke="#ffffff" xlink:href="#b"/>
</g>
<g clip-path="url(#a)">
<use x="811.146383" y="1017.267525" fill="#ffffff" stroke="#ffffff" xlink:href="#b"/>
</g>
<g clip-path="url(#a)">
<use x="856.076816" y="1017.267525" fill="#ffffff" stroke="#ffffff" xlink:href="#b"/>
</g>
<g clip-path="url(#a)">
<use x="901.00725" y="1017.267525" fill="#ffffff" stroke="#ffffff" xlink:href="#b"/>
</g>
<g clip-path="url(#a)">
<use x="945.937683" y="1017.267525" fill="#ffffff" stroke="#ffffff" xlink:href="#b"/>
</g>
<g clip-path="url(#a)">
<use x="990.868117" y="1017.267525" fill="#ffffff" stroke="#ffffff" xlink:href="#b"/>
</g>
<g clip-path="url(#a)">
<use x="1035.79855" y="1017.267525" fill="#ffffff" stroke="#ffffff" xlink:href="#b"/>
</g>
<g clip-path="url(#a)">
<use x="1080.728983" y="1017.267525" fill="#ffffff" stroke="#ffffff" xlink:href="#b"/>
</g>
<g clip-path="url(#a)">
<use x="1125.659417" y="1017.267525" fill="#ffffff" stroke="#ffffff" xlink:href="#b"/>
</g>
<g clip-path="url(#a)">
<use x="1170.58985" y="1017.267525" fill="#ffffff" stroke="#ffffff" xlink:href="#b"/>
</g>
<g clip-path="url(#a)">
<use x="1215.520284" y="1017.267525" fill="#ffffff" stroke="#ffffff" xlink:href="#b"/>
</g>
<g clip-path="url(#a)">
<use x="1260.450717" y="1017.267525" fill="#ffffff" stroke="#ffffff" xlink:href="#b"/>
</g>
<g clip-path="url(#a)">
<use x="1305.381151" y="1017.267525" fill="#ffffff" stroke="#ffffff" xlink:href="#b"/>
</g>
<g clip-path="url(#a)">
<use x="1350.311584" y="1017.267525" fill="#ffffff" stroke="#ffffff" xlink:href="#b"/>
</g>
<g clip-path="url(#a)">
<use x="1395.242017" y="1017.267525" fill="#ffffff" stroke="#ffffff" xlink:href="#b"/>
</g>
<g clip-path="url(#a)">
<use x="1440.172451" y="1017.267525" fill="#ffffff" stroke="#ffffff" xlink:href="#b"/>
</g>
<g clip-path="url(#a)">
<use x="1485.102884" y="1017.267525" fill="#ffffff" stroke="#ffffff" xlink:href="#b"/>
</g>
<g clip-path="url(#a)">
<use x="1530.033318" y="1017.267525" fill="#ffffff" stroke="#ffffff" xlink:href="#b"/>
</g>
<g clip-path="url(#a)">
<use x="1574.963751" y="1017.267525" fill="#ffffff" stroke="#ffffff" xlink:href="#b"/>
</g>
<g clip-path="url(#a)">
<use x="1619.894185" y="1017.267525" fill="#ffffff" stroke="#ffffff" xlink:href="#b"/>
</g>
<g clip-path="url(#a)">
<use x="1664.824618" y="1017.267525" fill="#ffffff" stroke="#ffffff" xlink:href="#b"/>
</g>
<g clip-path="url(#a)">
<use x="1709.755051" y="1017.267525" fill="#ffffff" stroke="#ffffff" xlink:href="#b"/>
</g>
<g clip-path="url(#a)">
<use x="1754.685485" y="1017.267525" fill="#ffffff" stroke="#ffffff" xlink:href="#b"/>
</g>
<g clip-path="url(#a)">
<use x="1799.615918" y="1017.267525" fill="#ffffff" stroke="#ffffff" xlink:href="#b"/>
</g>
<g clip-path="url(#a)">
<use x="1844.546352" y="1017.267525" fill="#ffffff" stroke="#ffffff" xlink:href="#b"/>
</g>
<g clip-path="url(#a)">
<use x="765.184214" y="49.399141" fill="#ffffff" stroke="#ffffff" xlink:href="#b"/>
</g>
<g clip-path="url(#a)">
<use x="923.472466" y="545.876423" fill="#ffffff" stroke="#ffffff" xlink:href="#b"/>
</g>
<g clip-path="url(#a)">
<use x="204.585532" y="860.862413" fill="#ffffff" stroke="#ffffff" xlink:href="#b"/>
</g>
<g clip-path="url(#a)">
<use x="92.259448" y="860.862413" fill="#ffffff" stroke="#ffffff" xlink:href="#b"/>
</g>
<g clip-path="url(#a)">
<use x="204.585532" y="704.457302" fill="#ffffff" stroke="#ffffff" xlink:href="#b"/>
</g>
<g clip-path="url(#a)">
<use x="227.050748" y="860.862413" fill="#ffffff" stroke="#ffffff" xlink:href="#b"/>
</g>
<g clip-path="url(#a)">
<use x="1934.407218" y="1017.267525" fill="#ffffff" stroke="#ffffff" xlink:href="#b"/>
</g>
<g clip-path="url(#a)">
<use x="316.911615" y="860.862413" fill="#ffffff" stroke="#ffffff" xlink:href="#b"/>
</g>
<g clip-path="url(#a)">
<use x="286.957993" y="704.457302" fill="#ffffff" stroke="#ffffff" xlink:href="#b"/>
</g>
<g clip-path="url(#a)">
<use x="361.842049" y="860.862413" fill="#ffffff" stroke="#ffffff" xlink:href="#b"/>
</g>
<g clip-path="url(#a)">
<use x="811.146383" y="860.862413" fill="#ffffff" stroke="#ffffff" xlink:href="#b"/>
</g>
<g clip-path="url(#a)">
<use x="1038.606702" y="545.876423" fill="#ffffff" stroke="#ffffff" xlink:href="#b"/>
</g>
<g clip-path="url(#a)">
<use x="901.00725" y="860.862413" fill="#ffffff" stroke="#ffffff" xlink:href="#b"/>
</g>
<g clip-path="url(#a)">
<use x="1260.450717" y="860.862413" fill="#ffffff" stroke="#ffffff" xlink:href="#b"/>
</g>
<g clip-path="url(#a)">
<use x="1844.546352" y="860.862413" fill="#ffffff" stroke="#ffffff" xlink:href="#b"/>
</g>
<g clip-path="url(#a)">
<use x="182.120315" y="860.862413" fill="#ffffff" stroke="#ffffff" xlink:href="#b"/>
</g>
<g clip-path="url(#a)">
<use x="406.772482" y="860.862413" fill="#ffffff" stroke="#ffffff" xlink:href="#b"/>
</g>
<g clip-path="url(#a)">
<use x="451.702916" y="860.862413" fill="#ffffff" stroke="#ffffff" xlink:href="#b"/>
</g>
<g clip-path="url(#a)">
<use x="555.604543" y="384.241949" fill="#ffffff" stroke="#ffffff" xlink:href="#b"/>
</g>
<g clip-path="url(#a)">
<use x="496.633349" y="860.862413" fill="#ffffff" stroke="#ffffff" xlink:href="#b"/>
</g>
<g clip-path="url(#a)">
<use x="856.076816" y="860.862413" fill="#ffffff" stroke="#ffffff" xlink:href="#b"/>
</g>
<g clip-path="url(#a)">
<use x="945.937683" y="860.862413" fill="#ffffff" stroke="#ffffff" xlink:href="#b"/>
</g>
<g clip-path="url(#a)">
<use x="1451.405059" y="704.457302" fill="#ffffff" stroke="#ffffff" xlink:href="#b"/>
</g>
<g clip-path="url(#a)">
<use x="1013.333333" y="860.862413" fill="#ffffff" stroke="#ffffff" xlink:href="#b"/>
</g>
<g clip-path="url(#a)">
<use x="1063.880071" y="545.876423" fill="#ffffff" stroke="#ffffff" xlink:href="#b"/>
</g>
<g clip-path="url(#a)">
<use x="1125.659417" y="860.862413" fill="#ffffff" stroke="#ffffff" xlink:href="#b"/>
</g>
<g clip-path="url(#a)">
<use x="614.575737" y="545.876423" fill="#ffffff" stroke="#ffffff" xlink:href="#b"/>
</g>
<g clip-path="url(#a)">
<use x="631.424649" y="860.862413" fill="#ffffff" stroke="#ffffff" xlink:href="#b"/>
</g>
<g clip-path="url(#a)">
<use x="1889.476785" y="1017.267525" fill="#ffffff" stroke="#ffffff" xlink:href="#b"/>
</g>
<g clip-path="url(#a)">
<use x="1080.728983" y="860.862413" fill="#ffffff" stroke="#ffffff" xlink:href="#b"/>
</g>
<g clip-path="url(#a)">
<use x="1193.055067" y="704.457302" fill="#ffffff" stroke="#ffffff" xlink:href="#b"/>
</g>
<g clip-path="url(#a)">
<use x="1215.520284" y="860.862413" fill="#ffffff" stroke="#ffffff" xlink:href="#b"/>
</g>
<g clip-path="url(#a)">
<use x="1438.375233" y="218.924597" fill="#ffffff" stroke="#ffffff" xlink:href="#b"/>
</g>
<g clip-path="url(#a)">
<use x="1485.102884" y="860.862413" fill="#ffffff" stroke="#ffffff" xlink:href="#b"/>
</g>
<g clip-path="url(#a)">
<use x="541.563782" y="860.862413" fill="#ffffff" stroke="#ffffff" xlink:href="#b"/>
</g>
<g clip-path="url(#a)">
<use x="586.494216" y="860.862413" fill="#ffffff" stroke="#ffffff" xlink:href="#b"/>
</g>
<g clip-path="url(#a)">
<use x="698.820299" y="704.457302" fill="#ffffff" stroke="#ffffff" xlink:href="#b"/>
</g>
<g clip-path="url(#a)">
<use x="766.21595" y="860.862413" fill="#ffffff" stroke="#ffffff" xlink:href="#b"/>
</g>
<g clip-path="url(#a)">
<use x="1170.58985" y="860.862413" fill="#ffffff" stroke="#ffffff" xlink:href="#b"/>
</g>
<g clip-path="url(#a)">
<use x="1305.381151" y="860.862413" fill="#ffffff" stroke="#ffffff" xlink:href="#b"/>
</g>
<g clip-path="url(#a)">
<use x="1350.311584" y="860.862413" fill="#ffffff" stroke="#ffffff" xlink:href="#b"/>
</g>
<g clip-path="url(#a)">
<use x="1417.707234" y="704.457302" fill="#ffffff" stroke="#ffffff" xlink:href="#b"/>
</g>
<g clip-path="url(#a)">
<use x="1440.172451" y="860.862413" fill="#ffffff" stroke="#ffffff" xlink:href="#b"/>
</g>
<g clip-path="url(#a)">
<use x="1633.373315" y="384.241949" fill="#ffffff" stroke="#ffffff" xlink:href="#b"/>
</g>
<g clip-path="url(#a)">
<use x="1664.824618" y="860.862413" fill="#ffffff" stroke="#ffffff" xlink:href="#b"/>
</g>
<g clip-path="url(#a)">
<use x="676.355083" y="860.862413" fill="#ffffff" stroke="#ffffff" xlink:href="#b"/>
</g>
<g clip-path="url(#a)">
<use x="721.285516" y="860.862413" fill="#ffffff" stroke="#ffffff" xlink:href="#b"/>
</g>
<g clip-path="url(#a)">
<use x="1395.242017" y="860.862413" fill="#ffffff" stroke="#ffffff" xlink:href="#b"/>
</g>
<g clip-path="url(#a)">
<use x="1530.033318" y="860.862413" fill="#ffffff" stroke="#ffffff" xlink:href="#b"/>
</g>
<g clip-path="url(#a)">
<use x="1574.963751" y="860.862413" fill="#ffffff" stroke="#ffffff" xlink:href="#b"/>
</g>
<g clip-path="url(#a)">
<use x="1619.894185" y="860.862413" fill="#ffffff" stroke="#ffffff" xlink:href="#b"/>
</g>
<g clip-path="url(#a)">
<use x="1777.150701" y="545.876423" fill="#ffffff" stroke="#ffffff" xlink:href="#b"/>
</g>
<g clip-path="url(#a)">
<use x="1799.615918" y="860.862413" fill="#ffffff" stroke="#ffffff" xlink:href="#b"/>
</g>
<g clip-path="url(#a)">
<use x="1754.685485" y="704.457302" fill="#ffffff" stroke="#ffffff" xlink:href="#b"/>
</g>
<g clip-path="url(#a)">
<use x="1754.685485" y="860.862413" fill="#ffffff" stroke="#ffffff" xlink:href="#b"/>
</g>
<g clip-path="url(#a)">
<use x="1709.755051" y="860.862413" fill="#ffffff" stroke="#ffffff" xlink:href="#b"/>
</g>
<g clip-path="url(#a)">
<defs>
<path id="ar" d="m9.8125 72.906h9.8594v-72.906h-9.8594z"/>
</defs>
<g transform="translate(90.784 1020) scale(.1 -.1)">
<use xlink:href="#ar"/>
</g>
</g>
<g clip-path="url(#a)">
<defs>
<path id="r" d="m18.312 70.219v-15.531h18.5v-6.9844h-18.5v-29.688q0-6.6875 1.8281-8.5938t7.4531-1.9062h9.2188v-7.5156h-9.2188q-10.406 0-14.359 3.875-3.9531 3.8906-3.9531 14.141v29.688h-6.5938v6.9844h6.5938v15.531z"/>
<path id="s" d="m30.609 48.391q-7.2188 0-11.422-5.6406t-4.2031-15.453 4.1719-15.453q4.1875-5.6406 11.453-5.6406 7.1875 0 11.375 5.6562 4.2031 5.6719 4.2031 15.438 0 9.7188-4.2031 15.406-4.1875 5.6875-11.375 5.6875zm0 7.6094q11.719 0 18.406-7.625 6.7031-7.6094 6.7031-21.078 0-13.422-6.7031-21.078-6.6875-7.6406-18.406-7.6406-11.766 0-18.438 7.6406-6.6562 7.6562-6.6562 21.078 0 13.469 6.6562 21.078 6.6719 7.625 18.438 7.625z"/>
<path id="aj" d="m9.0781 75.984h9.0312v-44.875l26.812 23.578h11.469l-29-25.578 30.234-29.109h-11.719l-27.797 26.703v-26.703h-9.0312z"/>
</defs>
<g transform="translate(126.22 1020) scale(.1 -.1)">
<use xlink:href="#r"/>
<use x="39.208984" xlink:href="#s"/>
<use x="100.390625" xlink:href="#s"/>
<use x="161.572266" xlink:href="#aj"/>
</g>
</g>
<g clip-path="url(#a)">
<defs>
<path id="t" d="m54.891 33.016v-33.016h-8.9844v32.719q0 7.7656-3.0312 11.609-3.0312 3.8594-9.0781 3.8594-7.2812 0-11.484-4.6406-4.2031-4.625-4.2031-12.641v-30.906h-9.0312v75.984h9.0312v-29.797q3.2344 4.9375 7.5938 7.375 4.375 2.4375 10.094 2.4375 9.4219 0 14.25-5.8281 4.8438-5.8281 4.8438-17.156z"/>
</defs>
<g transform="translate(173.91 1020) scale(.1 -.1)">
<use xlink:href="#r"/>
<use x="39.208984" xlink:href="#t"/>
<use x="102.587891" xlink:href="#d"/>
</g>
</g>
<g clip-path="url(#a)">
<defs>
<path id="ag" d="m4.2031 54.688h8.9844l11.234-42.672 11.172 42.672h10.594l11.234-42.672 11.188 42.672h8.9844l-14.312-54.688h-10.594l-11.766 44.828-11.812-44.828h-10.609z"/>
<path id="u" d="m45.406 46.391v29.594h8.9844v-75.984h-8.9844v8.2031q-2.8281-4.875-7.1562-7.25-4.3125-2.375-10.375-2.375-9.9062 0-16.141 7.9062-6.2188 7.9219-6.2188 20.812t6.2188 20.797q6.2344 7.9062 16.141 7.9062 6.0625 0 10.375-2.375 4.3281-2.3594 7.1562-7.2344zm-30.609-19.094q0-9.9062 4.0781-15.547t11.203-5.6406 11.219 5.6406q4.1094 5.6406 4.1094 15.547t-4.1094 15.547q-4.0938 5.6406-11.219 5.6406t-11.203-5.6406-4.0781-15.547z"/>
</defs>
<g transform="translate(204.5 1020) scale(.1 -.1)">
<use xlink:href="#ag"/>
<use x="81.787109" xlink:href="#d"/>
<use x="143.310547" xlink:href="#d"/>
<use x="204.833984" xlink:href="#aj"/>
<use x="262.697266" xlink:href="#d"/>
<use x="324.220703" xlink:href="#g"/>
<use x="387.599609" xlink:href="#u"/>
</g>
</g>
<g clip-path="url(#a)">
<defs>
<path id="ah" d="m37.109 75.984v-7.4844h-8.5938q-4.8281 0-6.7188-1.9531-1.875-1.9531-1.875-7.0312v-4.8281h14.797v-6.9844h-14.797v-47.703h-9.0312v47.703h-8.5938v6.9844h8.5938v3.8125q0 9.125 4.25 13.297 4.25 4.1875 13.469 4.1875z"/>
</defs>
<g transform="translate(265.4 1020) scale(.1 -.1)">
<use xlink:href="#s"/>
<use x="61.181641" xlink:href="#ah"/>
<use x="96.386719" xlink:href="#ah"/>
</g>
</g>
<g clip-path="url(#a)">
<g transform="translate(307.5 1020) scale(.1 -.1)">
<use xlink:href="#f"/>
<use x="61.279297" xlink:href="#g"/>
<use x="124.658203" xlink:href="#u"/>
</g>
</g>
<g clip-path="url(#a)">
<defs>
<path id="ak" d="m48.781 52.594v-8.4062q-3.8125 2.1094-7.6406 3.1562t-7.7344 1.0469q-8.75 0-13.594-5.5469-4.8281-5.5312-4.8281-15.547t4.8281-15.562q4.8438-5.5312 13.594-5.5312 3.9062 0 7.7344 1.0469t7.6406 3.1562v-8.3125q-3.7656-1.75-7.7969-2.625-4.0156-0.89062-8.5625-0.89062-12.359 0-19.641 7.7656-7.2656 7.7656-7.2656 20.953 0 13.375 7.3438 21.031 7.3594 7.6719 20.156 7.6719 4.1406 0 8.0938-0.85938 3.9531-0.84375 7.6719-2.5469z"/>
</defs>
<g transform="translate(348.08 1020) scale(.1 -.1)">
<use xlink:href="#ak"/>
<use x="54.980469" xlink:href="#f"/>
<use x="116.259766" xlink:href="#i"/>
<use x="213.671875" xlink:href="#d"/>
</g>
</g>
<g clip-path="url(#a)">
<g transform="translate(402.21 1020) scale(.1 -.1)">
<use xlink:href="#j"/>
<use x="27.783203" xlink:href="#g"/>
</g>
</g>
<g clip-path="url(#a)">
<g transform="translate(442.3 1020) scale(.1 -.1)">
<use xlink:href="#f"/>
<use x="61.279297" xlink:href="#g"/>
<use x="124.658203" xlink:href="#u"/>
</g>
</g>
<g clip-path="url(#a)">
<defs>
<path id="z" d="m44.281 53.078v-8.5q-3.7969 1.9531-7.9062 2.9219-4.0938 0.98438-8.5 0.98438-6.6875 0-10.031-2.0469t-3.3438-6.1562q0-3.125 2.3906-4.9062t9.625-3.3906l3.0781-0.6875q9.5625-2.0469 13.594-5.7812t4.0312-10.422q0-7.625-6.0312-12.078-6.0312-4.4375-16.578-4.4375-4.3906 0-9.1562 0.85938t-10.031 2.5625v9.2812q4.9844-2.5938 9.8125-3.8906 4.8281-1.2812 9.5781-1.2812 6.3438 0 9.75 2.1719 3.4219 2.1719 3.4219 6.125 0 3.6562-2.4688 5.6094-2.4531 1.9531-10.812 3.7656l-3.125 0.73438q-8.3438 1.75-12.062 5.3906-3.7031 3.6406-3.7031 9.9844 0 7.7188 5.4688 11.906 5.4688 4.2031 15.531 4.2031 4.9688 0 9.3594-0.73438 4.4062-0.71875 8.1094-2.1875z"/>
</defs>
<g transform="translate(481.82 1020) scale(.1 -.1)">
<use xlink:href="#f"/>
<use x="61.279297" xlink:href="#z"/>
<use x="113.378906" xlink:href="#aj"/>
<use x="171.242188" xlink:href="#d"/>
<use x="232.765625" xlink:href="#u"/>
</g>
</g>
<g clip-path="url(#a)">
<g transform="translate(534.69 1020) scale(.1 -.1)">
<use xlink:href="#ah"/>
<use x="35.205078" xlink:href="#s"/>
<use x="96.386719" xlink:href="#h"/>
</g>
</g>
<g clip-path="url(#a)">
<g transform="translate(578.29 1020) scale(.1 -.1)">
<use xlink:href="#r"/>
<use x="39.208984" xlink:href="#t"/>
<use x="102.587891" xlink:href="#d"/>
</g>
</g>
<g clip-path="url(#a)">
<defs>
<path id="ao" d="m45.406 27.984q0 9.7656-4.0312 15.125-4.0156 5.375-11.297 5.375-7.2188 0-11.25-5.375-4.0312-5.3594-4.0312-15.125 0-9.7188 4.0312-15.094t11.25-5.375q7.2812 0 11.297 5.375 4.0312 5.375 4.0312 15.094zm8.9844-21.203q0-13.953-6.2031-20.766-6.1875-6.8125-18.984-6.8125-4.7344 0-8.9375 0.70312t-8.1562 2.1719v8.7344q3.9531-2.1406 7.8125-3.1562 3.8594-1.0312 7.8594-1.0312 8.8438 0 13.234 4.6094t4.3906 13.938v4.4531q-2.7812-4.8438-7.125-7.2344t-10.406-2.3906q-10.047 0-16.203 7.6562-6.1562 7.6719-6.1562 20.328 0 12.688 6.1562 20.344 6.1562 7.6719 16.203 7.6719 6.0625 0 10.406-2.3906t7.125-7.2188v8.2969h8.9844z"/>
</defs>
<g transform="translate(608.95 1020) scale(.1 -.1)">
<use xlink:href="#i"/>
<use x="97.412109" xlink:href="#f"/>
<use x="158.691406" xlink:href="#g"/>
<use x="222.070312" xlink:href="#f"/>
<use x="283.349609" xlink:href="#ao"/>
<use x="346.826172" xlink:href="#d"/>
<use x="408.349609" xlink:href="#h"/>
</g>
</g>
<g clip-path="url(#a)">
<g transform="translate(666.04 1020) scale(.1 -.1)">
<use xlink:href="#ag"/>
<use x="81.787109" xlink:href="#t"/>
<use x="145.166016" xlink:href="#s"/>
</g>
</g>
<g clip-path="url(#a)">
<g transform="translate(717.29 1020) scale(.1 -.1)">
<use xlink:href="#j"/>
<use x="27.783203" xlink:href="#z"/>
</g>
</g>
<g clip-path="url(#a)">
<defs>
<path id="at" d="m9.8125 72.906h9.8594v-67.828q0-13.188-5-19.141t-16.094-5.9531h-3.75v8.2969h3.0781q6.5312 0 9.2188 3.6719 2.6875 3.6562 2.6875 13.125z"/>
</defs>
<g transform="translate(758.14 1020) scale(.1 -.1)">
<use xlink:href="#at"/>
<use x="29.492188" xlink:href="#d"/>
<use x="91.015625" xlink:href="#ah"/>
<use x="126.220703" xlink:href="#ah"/>
</g>
</g>
<g clip-path="url(#a)">
<g transform="translate(801.74 1020) scale(.1 -.1)">
<use xlink:href="#f"/>
<use x="61.279297" xlink:href="#g"/>
<use x="124.658203" xlink:href="#u"/>
</g>
</g>
<g clip-path="url(#a)">
<g transform="translate(849.83 1020) scale(.1 -.1)">
<use xlink:href="#t"/>
<use x="63.378906" xlink:href="#d"/>
</g>
</g>
<g clip-path="url(#a)">
<defs>
<path id="al" d="m48.688 27.297q0 9.9062-4.0781 15.547t-11.203 5.6406q-7.1406 0-11.219-5.6406t-4.0781-15.547 4.0781-15.547 11.219-5.6406q7.125 0 11.203 5.6406t4.0781 15.547zm-30.578 19.094q2.8438 4.875 7.1562 7.2344 4.3281 2.375 10.328 2.375 9.9688 0 16.188-7.9062 6.2344-7.9062 6.2344-20.797t-6.2344-20.812q-6.2188-7.9062-16.188-7.9062-6 0-10.328 2.375-4.3125 2.375-7.1562 7.25v-8.2031h-9.0312v75.984h9.0312z"/>
</defs>
<g transform="translate(868.5 1020) scale(.1 -.1)">
<use xlink:href="#h"/>
<use x="41.082031" xlink:href="#d"/>
<use x="102.605469" xlink:href="#i"/>
<use x="200.017578" xlink:href="#d"/>
<use x="261.541016" xlink:href="#i"/>
<use x="358.953125" xlink:href="#al"/>
<use x="422.429688" xlink:href="#d"/>
<use x="483.953125" xlink:href="#h"/>
<use x="525.035156" xlink:href="#d"/>
<use x="586.558594" xlink:href="#u"/>
</g>
</g>
<g clip-path="url(#a)">
<g transform="translate(937.64 1020) scale(.1 -.1)">
<use xlink:href="#t"/>
<use x="63.378906" xlink:href="#d"/>
<use x="124.902344" xlink:href="#h"/>
</g>
</g>
<g clip-path="url(#a)">
<g transform="translate(979.12 1020) scale(.1 -.1)">
<use xlink:href="#h"/>
<use x="41.113281" xlink:href="#j"/>
<use x="68.896484" xlink:href="#ao"/>
<use x="132.373047" xlink:href="#t"/>
<use x="195.751953" xlink:href="#r"/>
</g>
</g>
<g clip-path="url(#a)">
<defs>
<path id="as" d="m32.172-5.0781q-3.7969-9.7656-7.4219-12.734-3.6094-2.9844-9.6562-2.9844h-7.1875v7.5156h5.2812q3.7031 0 5.75 1.7656 2.0625 1.75 4.5469 8.2969l1.6094 4.0938-22.109 53.812h9.5156l17.094-42.766 17.094 42.766h9.5156z"/>
</defs>
<g transform="translate(1022.6 1020) scale(.1 -.1)">
<use xlink:href="#f"/>
<use x="61.279297" xlink:href="#ag"/>
<use x="143.066406" xlink:href="#f"/>
<use x="204.345703" xlink:href="#as"/>
</g>
</g>
<g clip-path="url(#a)">
<defs>
<path id="av" d="m2.9844 54.688h9.5156l17.094-45.891 17.094 45.891h9.5156l-20.516-54.688h-12.203z"/>
</defs>
<g transform="translate(1068.4 1020) scale(.1 -.1)">
<use xlink:href="#d"/>
<use x="61.523438" xlink:href="#av"/>
<use x="120.703125" xlink:href="#d"/>
<use x="182.226562" xlink:href="#g"/>
</g>
</g>
<g clip-path="url(#a)">
<g transform="translate(1093.2 1020) scale(.1 -.1)">
<use xlink:href="#h"/>
<use x="41.082031" xlink:href="#d"/>
<use x="102.605469" xlink:href="#i"/>
<use x="200.017578" xlink:href="#d"/>
<use x="261.541016" xlink:href="#i"/>
<use x="358.953125" xlink:href="#al"/>
<use x="422.429688" xlink:href="#d"/>
<use x="483.953125" xlink:href="#h"/>
<use x="525.035156" xlink:href="#d"/>
<use x="586.558594" xlink:href="#u"/>
</g>
</g>
<g clip-path="url(#a)">
<g transform="translate(1162.3 1020) scale(.1 -.1)">
<use xlink:href="#t"/>
<use x="63.378906" xlink:href="#d"/>
<use x="124.902344" xlink:href="#h"/>
</g>
</g>
<g clip-path="url(#a)">
<g transform="translate(1206.1 1020) scale(.1 -.1)">
<use xlink:href="#u"/>
<use x="63.476562" xlink:href="#s"/>
<use x="124.658203" xlink:href="#ao"/>
</g>
</g>
<g clip-path="url(#a)">
<defs>
<path id="au" d="m11.719 12.406h10.297v-8.4062l-8-15.625h-6.2969l4 15.625z"/>
</defs>
<g transform="translate(1258.9 1020) scale(.1 -.1)">
<use xlink:href="#au"/>
</g>
</g>
<g clip-path="url(#a)">
<g transform="translate(1303.9 1020) scale(.1 -.1)">
<use xlink:href="#ar"/>
</g>
</g>
<g clip-path="url(#a)">
<g transform="translate(1340.6 1020) scale(.1 -.1)">
<use xlink:href="#ag"/>
<use x="81.787109" xlink:href="#f"/>
<use x="143.066406" xlink:href="#z"/>
</g>
</g>
<g clip-path="url(#a)">
<g transform="translate(1392.2 1020) scale(.1 -.1)">
<use xlink:href="#f"/>
</g>
</g>
<g clip-path="url(#a)">
<g transform="translate(1433.6 1020) scale(.1 -.1)">
<use xlink:href="#al"/>
<use x="63.476562" xlink:href="#j"/>
<use x="91.259766" xlink:href="#r"/>
</g>
</g>
<g clip-path="url(#a)">
<g transform="translate(1464.4 1020) scale(.1 -.1)">
<use xlink:href="#z"/>
<use x="52.099609" xlink:href="#t"/>
<use x="115.478516" xlink:href="#s"/>
<use x="176.660156" xlink:href="#ak"/>
<use x="231.640625" xlink:href="#aj"/>
<use x="289.503906" xlink:href="#d"/>
<use x="351.027344" xlink:href="#u"/>
</g>
</g>
<g clip-path="url(#a)">
<g transform="translate(1519.9 1020) scale(.1 -.1)">
<use xlink:href="#r"/>
<use x="39.208984" xlink:href="#t"/>
<use x="102.587891" xlink:href="#f"/>
<use x="163.867188" xlink:href="#r"/>
</g>
</g>
<g clip-path="url(#a)">
<g transform="translate(1552 1020) scale(.1 -.1)">
<use xlink:href="#z"/>
<use x="52.099609" xlink:href="#s"/>
<use x="113.28125" xlink:href="#i"/>
<use x="210.693359" xlink:href="#d"/>
<use x="272.216797" xlink:href="#s"/>
<use x="333.398438" xlink:href="#g"/>
<use x="396.777344" xlink:href="#d"/>
</g>
</g>
<g clip-path="url(#a)">
<defs>
<path id="aw" d="m8.5 21.578v33.109h8.9844v-32.766q0-7.7656 3.0156-11.656 3.0312-3.875 9.0938-3.875 7.2656 0 11.484 4.6406 4.2344 4.6406 4.2344 12.656v31h8.9844v-54.688h-8.9844v8.4062q-3.2656-4.9844-7.5938-7.4062-4.3125-2.4219-10.031-2.4219-9.4219 0-14.312 5.8594-4.875 5.8594-4.875 17.141z"/>
</defs>
<g transform="translate(1605 1020) scale(.1 -.1)">
<use xlink:href="#ag"/>
<use x="81.787109" xlink:href="#s"/>
<use x="142.96875" xlink:href="#aw"/>
<use x="206.347656" xlink:href="#k"/>
<use x="234.130859" xlink:href="#u"/>
</g>
</g>
<g clip-path="url(#a)">
<defs>
<path id="ax" d="m18.109 8.2031v-29h-9.0312v75.484h9.0312v-8.2969q2.8438 4.875 7.1562 7.2344 4.3281 2.375 10.328 2.375 9.9688 0 16.188-7.9062 6.2344-7.9062 6.2344-20.797t-6.2344-20.812q-6.2188-7.9062-16.188-7.9062-6 0-10.328 2.375-4.3125 2.375-7.1562 7.25zm30.578 19.094q0 9.9062-4.0781 15.547t-11.203 5.6406q-7.1406 0-11.219-5.6406t-4.0781-15.547 4.0781-15.547 11.219-5.6406q7.125 0 11.203 5.6406t4.0781 15.547z"/>
</defs>
<g transform="translate(1655.6 1020) scale(.1 -.1)">
<use xlink:href="#ax"/>
<use x="63.476562" xlink:href="#f"/>
<use x="124.755859" xlink:href="#as"/>
</g>
</g>
<g clip-path="url(#a)">
<g transform="translate(1699.6 1020) scale(.1 -.1)">
<use xlink:href="#r"/>
<use x="39.208984" xlink:href="#t"/>
<use x="102.587891" xlink:href="#f"/>
<use x="163.867188" xlink:href="#r"/>
</g>
</g>
<g clip-path="url(#a)">
<g transform="translate(1741.8 1020) scale(.1 -.1)">
<use xlink:href="#ak"/>
<use x="54.980469" xlink:href="#k"/>
<use x="82.763672" xlink:href="#s"/>
<use x="143.945312" xlink:href="#z"/>
<use x="196.044922" xlink:href="#d"/>
</g>
</g>
<g clip-path="url(#a)">
<g transform="translate(1776.8 1020) scale(.1 -.1)">
<use xlink:href="#f"/>
<use x="61.279297" xlink:href="#r"/>
<use x="100.488281" xlink:href="#r"/>
<use x="139.697266" xlink:href="#d"/>
<use x="201.220703" xlink:href="#g"/>
<use x="264.599609" xlink:href="#r"/>
<use x="303.808594" xlink:href="#j"/>
<use x="331.591797" xlink:href="#s"/>
<use x="392.773438" xlink:href="#g"/>
</g>
</g>
<g clip-path="url(#a)">
<defs>
<path id="e" d="m10.688 12.406h10.312v-12.406h-10.312z"/>
</defs>
<g transform="translate(1843 1020) scale(.1 -.1)">
<use xlink:href="#e"/>
</g>
</g>
<g clip-path="url(#a)">
<defs>
<path id="c" d="m12.406 8.2969h16.109v55.625l-17.531-3.5156v8.9844l17.438 3.5156h9.8594v-64.609h16.109v-8.2969h-41.984z"/>
</defs>
<g transform="translate(757.23 52.159) scale(.1 -.1)">
<use xlink:href="#c"/>
<use x="63.623047" xlink:href="#e"/>
<use x="95.410156" xlink:href="#c"/>
</g>
</g>
<g clip-path="url(#a)">
<defs>
<path id="o" d="m19.188 8.2969h34.422v-8.2969h-46.281v8.2969q5.6094 5.8125 15.297 15.594 9.7031 9.7969 12.188 12.641 4.7344 5.3125 6.6094 9 1.8906 3.6875 1.8906 7.25 0 5.8125-4.0781 9.4688-4.0781 3.6719-10.625 3.6719-4.6406 0-9.7969-1.6094-5.1406-1.6094-11-4.8906v9.9688q5.9531 2.3906 11.125 3.6094 5.1875 1.2188 9.4844 1.2188 11.328 0 18.062-5.6719 6.7344-5.6562 6.7344-15.125 0-4.5-1.6875-8.5312-1.6719-4.0156-6.125-9.4844-1.2188-1.4219-7.7656-8.1875-6.5312-6.7656-18.453-18.922z"/>
</defs>
<g transform="translate(915.52 548.64) scale(.1 -.1)">
<use xlink:href="#c"/>
<use x="63.623047" xlink:href="#e"/>
<use x="95.410156" xlink:href="#o"/>
</g>
</g>
<g clip-path="url(#a)">
<defs>
<path id="n" d="m40.578 39.312q7.0781-1.5156 11.047-6.3125 3.9844-4.7812 3.9844-11.812 0-10.781-7.4219-16.703-7.4219-5.9062-21.094-5.9062-4.5781 0-9.4375 0.90625t-10.031 2.7188v9.5156q4.0938-2.3906 8.9688-3.6094 4.8906-1.2188 10.219-1.2188 9.2656 0 14.125 3.6562t4.8594 10.641q0 6.4531-4.5156 10.078-4.5156 3.6406-12.562 3.6406h-8.5v8.1094h8.8906q7.2656 0 11.125 2.9062t3.8594 8.375q0 5.6094-3.9844 8.6094-3.9688 3.0156-11.391 3.0156-4.0625 0-8.7031-0.89062-4.6406-0.875-10.203-2.7188v8.7812q5.625 1.5625 10.531 2.3438t9.25 0.78125q11.234 0 17.766-5.1094 6.5469-5.0938 6.5469-13.781 0-6.0625-3.4688-10.234t-9.8594-5.7812z"/>
</defs>
<g transform="translate(196.63 863.62) scale(.1 -.1)">
<use xlink:href="#c"/>
<use x="63.623047" xlink:href="#e"/>
<use x="95.410156" xlink:href="#n"/>
</g>
</g>
<g clip-path="url(#a)">
<defs>
<path id="m" d="m37.797 64.312-24.906-38.922h24.906zm-2.5938 8.5938h12.406v-47.516h10.406v-8.2031h-10.406v-17.188h-9.8125v17.188h-32.906v9.5156z"/>
</defs>
<g transform="translate(84.308 863.62) scale(.1 -.1)">
<use xlink:href="#c"/>
<use x="63.623047" xlink:href="#e"/>
<use x="95.410156" xlink:href="#m"/>
</g>
</g>
<g clip-path="url(#a)">
<defs>
<path id="q" d="m10.797 72.906h38.719v-8.3125h-29.688v-17.859q2.1406 0.73438 4.2812 1.0938 2.1562 0.35938 4.3125 0.35938 12.203 0 19.328-6.6875 7.1406-6.6875 7.1406-18.109 0-11.766-7.3281-18.297-7.3281-6.5156-20.656-6.5156-4.5938 0-9.3594 0.78125-4.75 0.78125-9.8281 2.3438v9.9219q4.3906-2.3906 9.0781-3.5625t9.9062-1.1719q8.4531 0 13.375 4.4375 4.9375 4.4375 4.9375 12.062 0 7.6094-4.9375 12.047-4.9219 4.4531-13.375 4.4531-3.9531 0-7.8906-0.875-3.9219-0.875-8.0156-2.7344z"/>
</defs>
<g transform="translate(196.63 707.22) scale(.1 -.1)">
<use xlink:href="#c"/>
<use x="63.623047" xlink:href="#e"/>
<use x="95.410156" xlink:href="#q"/>
</g>
</g>
<g clip-path="url(#a)">
<defs>
<path id="y" d="m33.016 40.375q-6.6406 0-10.531-4.5469-3.875-4.5312-3.875-12.438 0-7.8594 3.875-12.438 3.8906-4.5625 10.531-4.5625t10.516 4.5625q3.875 4.5781 3.875 12.438 0 7.9062-3.875 12.438-3.875 4.5469-10.516 4.5469zm19.578 30.922v-8.9844q-3.7188 1.75-7.5 2.6719-3.7812 0.9375-7.5 0.9375-9.7656 0-14.922-6.5938-5.1406-6.5938-5.875-19.922 2.875 4.25 7.2188 6.5156 4.3594 2.2656 9.5781 2.2656 10.984 0 17.359-6.6719 6.375-6.6562 6.375-18.125 0-11.234-6.6406-18.031-6.6406-6.7812-17.672-6.7812-12.656 0-19.344 9.6875-6.6875 9.7031-6.6875 28.109 0 17.281 8.2031 27.562t22.016 10.281q3.7188 0 7.5-0.73438t7.8906-2.1875z"/>
</defs>
<g transform="translate(219.1 863.62) scale(.1 -.1)">
<use xlink:href="#c"/>
<use x="63.623047" xlink:href="#e"/>
<use x="95.410156" xlink:href="#y"/>
</g>
</g>
<g clip-path="url(#a)">
<defs>
<path id="ae" d="m8.2031 72.906h46.875v-4.2031l-26.469-68.703h-10.297l24.906 64.594h-35.016z"/>
</defs>
<g transform="translate(1926.5 1020) scale(.1 -.1)">
<use xlink:href="#c"/>
<use x="63.623047" xlink:href="#e"/>
<use x="95.410156" xlink:href="#ae"/>
</g>
</g>
<g clip-path="url(#a)">
<defs>
<path id="ad" d="m31.781 34.625q-7.0312 0-11.062-3.7656-4.0156-3.7656-4.0156-10.344 0-6.5938 4.0156-10.359 4.0312-3.7656 11.062-3.7656t11.078 3.7812q4.0625 3.7969 4.0625 10.344 0 6.5781-4.0312 10.344-4.0156 3.7656-11.109 3.7656zm-9.8594 4.1875q-6.3438 1.5625-9.8906 5.9062-3.5312 4.3594-3.5312 10.609 0 8.7344 6.2188 13.812 6.2344 5.0781 17.062 5.0781 10.891 0 17.094-5.0781t6.2031-13.812q0-6.25-3.5469-10.609-3.5312-4.3438-9.8281-5.9062 7.125-1.6562 11.094-6.5 3.9844-4.8281 3.9844-11.797 0-10.609-6.4688-16.281-6.4688-5.6562-18.531-5.6562-12.047 0-18.531 5.6562-6.4688 5.6719-6.4688 16.281 0 6.9688 4 11.797 4.0156 4.8438 11.141 6.5zm-3.6094 15.578q0-5.6562 3.5312-8.8281 3.5469-3.1719 9.9375-3.1719 6.3594 0 9.9375 3.1719 3.5938 3.1719 3.5938 8.8281 0 5.6719-3.5938 8.8438-3.5781 3.1719-9.9375 3.1719-6.3906 0-9.9375-3.1719-3.5312-3.1719-3.5312-8.8438z"/>
</defs>
<g transform="translate(308.96 863.62) scale(.1 -.1)">
<use xlink:href="#c"/>
<use x="63.623047" xlink:href="#e"/>
<use x="95.410156" xlink:href="#ad"/>
</g>
</g>
<g clip-path="url(#a)">
<defs>
<path id="ac" d="m10.984 1.5156v8.9844q3.7188-1.7656 7.5156-2.6875 3.8125-0.92188 7.4844-0.92188 9.7656 0 14.906 6.5625 5.1562 6.5625 5.8906 19.953-2.8281-4.2031-7.1875-6.4531-4.3438-2.25-9.6094-2.25-10.938 0-17.312 6.6094-6.375 6.625-6.375 18.109 0 11.219 6.6406 18 6.6406 6.7969 17.672 6.7969 12.656 0 19.312-9.7031 6.6719-9.6875 6.6719-28.141 0-17.234-8.1875-27.516-8.1719-10.281-21.984-10.281-3.7188 0-7.5312 0.73438-3.7969 0.73438-7.9062 2.2031zm19.625 30.906q6.6406 0 10.516 4.5312 3.8906 4.5469 3.8906 12.469 0 7.8594-3.8906 12.422-3.875 4.5625-10.516 4.5625t-10.516-4.5625-3.875-12.422q0-7.9219 3.875-12.469 3.875-4.5312 10.516-4.5312z"/>
</defs>
<g transform="translate(279.01 707.22) scale(.1 -.1)">
<use xlink:href="#c"/>
<use x="63.623047" xlink:href="#e"/>
<use x="95.410156" xlink:href="#ac"/>
</g>
</g>
<g clip-path="url(#a)">
<defs>
<path id="af" d="m31.781 66.406q-7.6094 0-11.453-7.5-3.8281-7.4844-3.8281-22.531 0-14.984 3.8281-22.484 3.8438-7.5 11.453-7.5 7.6719 0 11.5 7.5 3.8438 7.5 3.8438 22.484 0 15.047-3.8438 22.531-3.8281 7.5-11.5 7.5zm0 7.8125q12.266 0 18.734-9.7031 6.4688-9.6875 6.4688-28.141 0-18.406-6.4688-28.109-6.4688-9.6875-18.734-9.6875-12.25 0-18.719 9.6875-6.4688 9.7031-6.4688 28.109 0 18.453 6.4688 28.141 6.4688 9.7031 18.719 9.7031z"/>
</defs>
<g transform="translate(350.71 863.62) scale(.1 -.1)">
<use xlink:href="#c"/>
<use x="63.623047" xlink:href="#e"/>
<use x="95.410156" xlink:href="#c"/>
<use x="159.033203" xlink:href="#af"/>
</g>
</g>
<g clip-path="url(#a)">
<g transform="translate(800.01 863.62) scale(.1 -.1)">
<use xlink:href="#c"/>
<use x="63.623047" xlink:href="#e"/>
<use x="95.410156" xlink:href="#c"/>
<use x="159.033203" xlink:href="#c"/>
</g>
</g>
<g clip-path="url(#a)">
<g transform="translate(1027.5 548.64) scale(.1 -.1)">
<use xlink:href="#c"/>
<use x="63.623047" xlink:href="#e"/>
<use x="95.410156" xlink:href="#c"/>
<use x="159.033203" xlink:href="#o"/>
</g>
</g>
<g clip-path="url(#a)">
<g transform="translate(889.87 863.62) scale(.1 -.1)">
<use xlink:href="#c"/>
<use x="63.623047" xlink:href="#e"/>
<use x="95.410156" xlink:href="#c"/>
<use x="159.033203" xlink:href="#n"/>
</g>
</g>
<g clip-path="url(#a)">
<g transform="translate(1249.3 863.62) scale(.1 -.1)">
<use xlink:href="#c"/>
<use x="63.623047" xlink:href="#e"/>
<use x="95.410156" xlink:href="#c"/>
<use x="159.033203" xlink:href="#m"/>
</g>
</g>
<g clip-path="url(#a)">
<g transform="translate(1833.4 863.62) scale(.1 -.1)">
<use xlink:href="#c"/>
<use x="63.623047" xlink:href="#e"/>
<use x="95.410156" xlink:href="#c"/>
<use x="159.033203" xlink:href="#q"/>
</g>
</g>
<g clip-path="url(#a)">
<g transform="translate(170.99 863.62) scale(.1 -.1)">
<use xlink:href="#c"/>
<use x="63.623047" xlink:href="#e"/>
<use x="95.410156" xlink:href="#c"/>
<use x="159.033203" xlink:href="#y"/>
</g>
</g>
<g clip-path="url(#a)">
<g transform="translate(395.64 863.62) scale(.1 -.1)">
<use xlink:href="#c"/>
<use x="63.623047" xlink:href="#e"/>
<use x="95.410156" xlink:href="#c"/>
<use x="159.033203" xlink:href="#ae"/>
</g>
</g>
<g clip-path="url(#a)">
<g transform="translate(440.57 863.62) scale(.1 -.1)">
<use xlink:href="#c"/>
<use x="63.623047" xlink:href="#e"/>
<use x="95.410156" xlink:href="#c"/>
<use x="159.033203" xlink:href="#ad"/>
</g>
</g>
<g clip-path="url(#a)">
<g transform="translate(544.47 387) scale(.1 -.1)">
<use xlink:href="#c"/>
<use x="63.623047" xlink:href="#e"/>
<use x="95.410156" xlink:href="#c"/>
<use x="159.033203" xlink:href="#ac"/>
</g>
</g>
<g clip-path="url(#a)">
<g transform="translate(485.5 863.62) scale(.1 -.1)">
<use xlink:href="#c"/>
<use x="63.623047" xlink:href="#e"/>
<use x="95.410156" xlink:href="#o"/>
<use x="159.033203" xlink:href="#af"/>
</g>
</g>
<g clip-path="url(#a)">
<g transform="translate(844.94 863.62) scale(.1 -.1)">
<use xlink:href="#c"/>
<use x="63.623047" xlink:href="#e"/>
<use x="95.410156" xlink:href="#o"/>
<use x="159.033203" xlink:href="#c"/>
</g>
</g>
<g clip-path="url(#a)">
<g transform="translate(934.8 863.62) scale(.1 -.1)">
<use xlink:href="#c"/>
<use x="63.623047" xlink:href="#e"/>
<use x="95.410156" xlink:href="#o"/>
<use x="159.033203" xlink:href="#o"/>
</g>
</g>
<g clip-path="url(#a)">
<g transform="translate(1440.3 707.22) scale(.1 -.1)">
<use xlink:href="#c"/>
<use x="63.623047" xlink:href="#e"/>
<use x="95.410156" xlink:href="#o"/>
<use x="159.033203" xlink:href="#n"/>
</g>
</g>
<g clip-path="url(#a)">
<g transform="translate(1002.2 863.62) scale(.1 -.1)">
<use xlink:href="#c"/>
<use x="63.623047" xlink:href="#e"/>
<use x="95.410156" xlink:href="#o"/>
<use x="159.033203" xlink:href="#m"/>
</g>
</g>
<g clip-path="url(#a)">
<g transform="translate(1052.7 548.64) scale(.1 -.1)">
<use xlink:href="#c"/>
<use x="63.623047" xlink:href="#e"/>
<use x="95.410156" xlink:href="#o"/>
<use x="159.033203" xlink:href="#q"/>
</g>
</g>
<g clip-path="url(#a)">
<g transform="translate(1114.5 863.62) scale(.1 -.1)">
<use xlink:href="#c"/>
<use x="63.623047" xlink:href="#e"/>
<use x="95.410156" xlink:href="#o"/>
<use x="159.033203" xlink:href="#y"/>
</g>
</g>
<g clip-path="url(#a)">
<g transform="translate(603.44 548.64) scale(.1 -.1)">
<use xlink:href="#c"/>
<use x="63.623047" xlink:href="#e"/>
<use x="95.410156" xlink:href="#o"/>
<use x="159.033203" xlink:href="#ae"/>
</g>
</g>
<g clip-path="url(#a)">
<g transform="translate(620.29 863.62) scale(.1 -.1)">
<use xlink:href="#c"/>
<use x="63.623047" xlink:href="#e"/>
<use x="95.410156" xlink:href="#o"/>
<use x="159.033203" xlink:href="#ad"/>
</g>
</g>
<g clip-path="url(#a)">
<g transform="translate(1878.3 1020) scale(.1 -.1)">
<use xlink:href="#c"/>
<use x="63.623047" xlink:href="#e"/>
<use x="95.410156" xlink:href="#o"/>
<use x="159.033203" xlink:href="#ac"/>
</g>
</g>
<g clip-path="url(#a)">
<g transform="translate(1069.6 863.62) scale(.1 -.1)">
<use xlink:href="#c"/>
<use x="63.623047" xlink:href="#e"/>
<use x="95.410156" xlink:href="#n"/>
<use x="159.033203" xlink:href="#af"/>
</g>
</g>
<g clip-path="url(#a)">
<g transform="translate(1181.9 707.22) scale(.1 -.1)">
<use xlink:href="#c"/>
<use x="63.623047" xlink:href="#e"/>
<use x="95.410156" xlink:href="#n"/>
<use x="159.033203" xlink:href="#c"/>
</g>
</g>
<g clip-path="url(#a)">
<g transform="translate(1204.4 863.62) scale(.1 -.1)">
<use xlink:href="#c"/>
<use x="63.623047" xlink:href="#e"/>
<use x="95.410156" xlink:href="#n"/>
<use x="159.033203" xlink:href="#o"/>
</g>
</g>
<g clip-path="url(#a)">
<g transform="translate(1427.2 221.68) scale(.1 -.1)">
<use xlink:href="#c"/>
<use x="63.623047" xlink:href="#e"/>
<use x="95.410156" xlink:href="#n"/>
<use x="159.033203" xlink:href="#n"/>
</g>
</g>
<g clip-path="url(#a)">
<g transform="translate(1474 863.62) scale(.1 -.1)">
<use xlink:href="#c"/>
<use x="63.623047" xlink:href="#e"/>
<use x="95.410156" xlink:href="#n"/>
<use x="159.033203" xlink:href="#m"/>
</g>
</g>
<g clip-path="url(#a)">
<g transform="translate(530.43 863.62) scale(.1 -.1)">
<use xlink:href="#c"/>
<use x="63.623047" xlink:href="#e"/>
<use x="95.410156" xlink:href="#n"/>
<use x="159.033203" xlink:href="#q"/>
</g>
</g>
<g clip-path="url(#a)">
<g transform="translate(575.36 863.62) scale(.1 -.1)">
<use xlink:href="#c"/>
<use x="63.623047" xlink:href="#e"/>
<use x="95.410156" xlink:href="#n"/>
<use x="159.033203" xlink:href="#y"/>
</g>
</g>
<g clip-path="url(#a)">
<g transform="translate(687.69 707.22) scale(.1 -.1)">
<use xlink:href="#c"/>
<use x="63.623047" xlink:href="#e"/>
<use x="95.410156" xlink:href="#n"/>
<use x="159.033203" xlink:href="#ae"/>
</g>
</g>
<g clip-path="url(#a)">
<g transform="translate(755.08 863.62) scale(.1 -.1)">
<use xlink:href="#c"/>
<use x="63.623047" xlink:href="#e"/>
<use x="95.410156" xlink:href="#n"/>
<use x="159.033203" xlink:href="#ad"/>
</g>
</g>
<g clip-path="url(#a)">
<g transform="translate(1159.5 863.62) scale(.1 -.1)">
<use xlink:href="#c"/>
<use x="63.623047" xlink:href="#e"/>
<use x="95.410156" xlink:href="#n"/>
<use x="159.033203" xlink:href="#ac"/>
</g>
</g>
<g clip-path="url(#a)">
<g transform="translate(1294.2 863.62) scale(.1 -.1)">
<use xlink:href="#c"/>
<use x="63.623047" xlink:href="#e"/>
<use x="95.410156" xlink:href="#m"/>
<use x="159.033203" xlink:href="#af"/>
</g>
</g>
<g clip-path="url(#a)">
<g transform="translate(1339.2 863.62) scale(.1 -.1)">
<use xlink:href="#c"/>
<use x="63.623047" xlink:href="#e"/>
<use x="95.410156" xlink:href="#m"/>
<use x="159.033203" xlink:href="#c"/>
</g>
</g>
<g clip-path="url(#a)">
<g transform="translate(1406.6 707.22) scale(.1 -.1)">
<use xlink:href="#c"/>
<use x="63.623047" xlink:href="#e"/>
<use x="95.410156" xlink:href="#m"/>
<use x="159.033203" xlink:href="#o"/>
</g>
</g>
<g clip-path="url(#a)">
<g transform="translate(1429 863.62) scale(.1 -.1)">
<use xlink:href="#c"/>
<use x="63.623047" xlink:href="#e"/>
<use x="95.410156" xlink:href="#m"/>
<use x="159.033203" xlink:href="#n"/>
</g>
</g>
<g clip-path="url(#a)">
<g transform="translate(1622.2 387) scale(.1 -.1)">
<use xlink:href="#c"/>
<use x="63.623047" xlink:href="#e"/>
<use x="95.410156" xlink:href="#m"/>
<use x="159.033203" xlink:href="#m"/>
</g>
</g>
<g clip-path="url(#a)">
<g transform="translate(1653.7 863.62) scale(.1 -.1)">
<use xlink:href="#c"/>
<use x="63.623047" xlink:href="#e"/>
<use x="95.410156" xlink:href="#m"/>
<use x="159.033203" xlink:href="#q"/>
</g>
</g>
<g clip-path="url(#a)">
<g transform="translate(665.22 863.62) scale(.1 -.1)">
<use xlink:href="#c"/>
<use x="63.623047" xlink:href="#e"/>
<use x="95.410156" xlink:href="#m"/>
<use x="159.033203" xlink:href="#y"/>
</g>
</g>
<g clip-path="url(#a)">
<g transform="translate(710.15 863.62) scale(.1 -.1)">
<use xlink:href="#c"/>
<use x="63.623047" xlink:href="#e"/>
<use x="95.410156" xlink:href="#m"/>
<use x="159.033203" xlink:href="#ae"/>
</g>
</g>
<g clip-path="url(#a)">
<g transform="translate(1384.1 863.62) scale(.1 -.1)">
<use xlink:href="#c"/>
<use x="63.623047" xlink:href="#e"/>
<use x="95.410156" xlink:href="#m"/>
<use x="159.033203" xlink:href="#ad"/>
</g>
</g>
<g clip-path="url(#a)">
<g transform="translate(1518.9 863.62) scale(.1 -.1)">
<use xlink:href="#c"/>
<use x="63.623047" xlink:href="#e"/>
<use x="95.410156" xlink:href="#m"/>
<use x="159.033203" xlink:href="#ac"/>
</g>
</g>
<g clip-path="url(#a)">
<g transform="translate(1563.8 863.62) scale(.1 -.1)">
<use xlink:href="#c"/>
<use x="63.623047" xlink:href="#e"/>
<use x="95.410156" xlink:href="#q"/>
<use x="159.033203" xlink:href="#af"/>
</g>
</g>
<g clip-path="url(#a)">
<g transform="translate(1608.8 863.62) scale(.1 -.1)">
<use xlink:href="#c"/>
<use x="63.623047" xlink:href="#e"/>
<use x="95.410156" xlink:href="#q"/>
<use x="159.033203" xlink:href="#c"/>
</g>
</g>
<g clip-path="url(#a)">
<g transform="translate(1766 548.64) scale(.1 -.1)">
<use xlink:href="#c"/>
<use x="63.623047" xlink:href="#e"/>
<use x="95.410156" xlink:href="#q"/>
<use x="159.033203" xlink:href="#o"/>
</g>
</g>
<g clip-path="url(#a)">
<g transform="translate(1788.5 863.62) scale(.1 -.1)">
<use xlink:href="#c"/>
<use x="63.623047" xlink:href="#e"/>
<use x="95.410156" xlink:href="#q"/>
<use x="159.033203" xlink:href="#n"/>
</g>
</g>
<g clip-path="url(#a)">
<g transform="translate(1743.6 707.22) scale(.1 -.1)">
<use xlink:href="#c"/>
<use x="63.623047" xlink:href="#e"/>
<use x="95.410156" xlink:href="#q"/>
<use x="159.033203" xlink:href="#m"/>
</g>
</g>
<g clip-path="url(#a)">
<g transform="translate(1743.6 863.62) scale(.1 -.1)">
<use xlink:href="#c"/>
<use x="63.623047" xlink:href="#e"/>
<use x="95.410156" xlink:href="#q"/>
<use x="159.033203" xlink:href="#q"/>
</g>
</g>
<g clip-path="url(#a)">
<g transform="translate(1698.6 863.62) scale(.1 -.1)">
<use xlink:href="#c"/>
<use x="63.623047" xlink:href="#e"/>
<use x="95.410156" xlink:href="#q"/>
<use x="159.033203" xlink:href="#y"/>
</g>
</g>
<defs>
<clipPath id="a">
<rect width="2026.7" height="1066.7"/>
</clipPath>
</defs>
</svg>
