<?xml version="1.0" encoding="UTF-8"?>
<!DOCTYPE svg  PUBLIC '-//W3C//DTD SVG 1.1//EN'  'http://www.w3.org/Graphics/SVG/1.1/DTD/svg11.dtd'>
<svg width="1216pt" height="640pt" version="1.1" viewBox="0 0 1216 640" xmlns="http://www.w3.org/2000/svg" xmlns:xlink="http://www.w3.org/1999/xlink">
<defs>
<style type="text/css">*{stroke-linecap:butt;stroke-linejoin:round;}</style>
</defs>
<path d="m0 640h1216v-640h-1216z" fill="#fff"/>
<g fill="none" stroke="#000">
<path d="m684.87 30.485-275.04 147.85" clip-path="url(#a)"/>
<path d="m684.87 30.485-148.93 435.97" clip-path="url(#a)"/>
<path d="m684.87 30.485-22.82 147.85" clip-path="url(#a)"/>
<path d="m684.87 30.485 139.32 435.97" clip-path="url(#a)"/>
<path d="m684.87 30.485 307.47 292.9" clip-path="url(#a)"/>
<path d="m409.83 178.33-306.27 288.12" clip-path="url(#a)"/>
<path d="m409.83 178.33-354.31 288.12" clip-path="url(#a)"/>
<path d="m409.83 178.33-90.078 145.05" clip-path="url(#a)"/>
<path d="m409.83 178.33 750.65 288.12" clip-path="url(#a)"/>
<path d="m103.56 466.45v143.06" clip-path="url(#a)"/>
<path d="m55.519 466.45v143.06" clip-path="url(#a)"/>
<path d="m319.75 323.39 168.15 143.06" clip-path="url(#a)"/>
<path d="m319.75 323.39-168.15 143.06" clip-path="url(#a)"/>
<path d="m319.75 323.39-120.1 143.06" clip-path="url(#a)"/>
<path d="m319.75 323.39-72.063 143.06" clip-path="url(#a)"/>
<path d="m319.75 323.39-24.021 143.06" clip-path="url(#a)"/>
<path d="m319.75 323.39 24.021 143.06" clip-path="url(#a)"/>
<path d="m319.75 323.39 72.063 143.06" clip-path="url(#a)"/>
<path d="m319.75 323.39 120.1 143.06" clip-path="url(#a)"/>
<path d="m487.9 466.45v143.06" clip-path="url(#a)"/>
<path d="m535.94 466.45v143.06" clip-path="url(#a)"/>
<path d="m662.05 178.33 18.016 288.12" clip-path="url(#a)"/>
<path d="m662.05 178.33-78.068 288.12" clip-path="url(#a)"/>
<path d="m662.05 178.33-30.026 288.12" clip-path="url(#a)"/>
<path d="m662.05 178.33 90.078 145.05" clip-path="url(#a)"/>
<path d="m680.06 466.45v143.06" clip-path="url(#a)"/>
<path d="m1160.5 466.45v143.06" clip-path="url(#a)"/>
<path d="m151.6 466.45v143.06" clip-path="url(#a)"/>
<path d="m199.64 466.45v143.06" clip-path="url(#a)"/>
<path d="m247.69 466.45v143.06" clip-path="url(#a)"/>
<path d="m295.73 466.45v143.06" clip-path="url(#a)"/>
<path d="m343.77 466.45v143.06" clip-path="url(#a)"/>
<path d="m391.81 466.45v143.06" clip-path="url(#a)"/>
<path d="m439.85 466.45v143.06" clip-path="url(#a)"/>
<path d="m583.98 466.45v143.06" clip-path="url(#a)"/>
<path d="m632.02 466.45v143.06" clip-path="url(#a)"/>
<path d="m752.13 323.39 24.021 143.06" clip-path="url(#a)"/>
<path d="m752.13 323.39-24.021 143.06" clip-path="url(#a)"/>
<path d="m776.15 466.45v143.06" clip-path="url(#a)"/>
<path d="m824.19 466.45v143.06" clip-path="url(#a)"/>
<path d="m992.33 323.39 120.1 143.06" clip-path="url(#a)"/>
<path d="m992.33 323.39-120.1 143.06" clip-path="url(#a)"/>
<path d="m992.33 323.39-72.063 143.06" clip-path="url(#a)"/>
<path d="m992.33 323.39-24.021 143.06" clip-path="url(#a)"/>
<path d="m992.33 323.39 24.021 143.06" clip-path="url(#a)"/>
<path d="m992.33 323.39 72.063 143.06" clip-path="url(#a)"/>
<path d="m1112.4 466.45v143.06" clip-path="url(#a)"/>
<path d="m728.1 466.45v143.06" clip-path="url(#a)"/>
<path d="m872.23 466.45v143.06" clip-path="url(#a)"/>
<path d="m920.27 466.45v143.06" clip-path="url(#a)"/>
<path d="m968.31 466.45v143.06" clip-path="url(#a)"/>
<path d="m1016.4 466.45v143.06" clip-path="url(#a)"/>
<path d="m1064.4 466.45v143.06" clip-path="url(#a)"/>
</g>
<path d="m547.67 111.36 5.2991-2.8486q2.1139-1.1363 0.97759-3.2503l-3.6659-6.8196q-1.1363-2.1139-3.2503-0.97759l-5.2991 2.8486q-2.1139 1.1363-0.97759 3.2503l3.6659 6.8196q1.1363 2.1139 3.2503 0.97759z" clip-path="url(#a)" fill="#fff" stroke="#fff"/>
<g clip-path="url(#a)">
<defs>
<path id="z" d="m9.8125 72.906h9.8594v-29.891h35.844v29.891h9.8594v-72.906h-9.8594v34.719h-35.844v-34.719h-9.8594z"/>
</defs>
<g transform="translate(545.74 107.78) rotate(-28.26) scale(.08 -.08)">
<use xlink:href="#z"/>
</g>
</g>
<path d="m615.62 252.6 1.441-4.2182q0.77584-2.2711-1.4953-3.047l-7.3268-2.5029q-2.2711-0.77584-3.047 1.4953l-1.441 4.2182q-0.77584 2.2711 1.4953 3.047l7.3268 2.5029q2.2711 0.77584 3.047-1.4953z" clip-path="url(#a)" fill="#fff" stroke="#fff"/>
<g clip-path="url(#a)">
<defs>
<path id="al" d="m9.8125 72.906h9.8594v-64.609h35.5v-8.2969h-45.359z"/>
</defs>
<g transform="translate(611.77 251.29) rotate(-71.139) scale(.08 -.08)">
<use xlink:href="#al"/>
</g>
</g>
<path d="m679.2 108.34 0.91772-5.9458q0.3661-2.3719-2.0058-2.738l-7.6519-1.181q-2.3719-0.3661-2.738 2.0058l-0.91772 5.9458q-0.3661 2.3719 2.0058 2.738l7.6519 1.181q2.3719 0.3661 2.738-2.0058z" clip-path="url(#a)" fill="#fff" stroke="#fff"/>
<g clip-path="url(#a)">
<g transform="translate(675.18 107.72) rotate(-81.226) scale(.08 -.08)">
<use xlink:href="#z"/>
</g>
</g>
<path d="m747.88 248.25 1.3569 4.246q0.73057 2.2861 3.0167 1.5555l7.3751-2.3568q2.2861-0.73057 1.5555-3.0167l-1.3569-4.246q-0.73057-2.2861-3.0167-1.5555l-7.3751 2.3568q-2.2861 0.73057-1.5555 3.0167z" clip-path="url(#a)" fill="#fff" stroke="#fff"/>
<g clip-path="url(#a)">
<g transform="translate(751.75 247.02) rotate(72.278) scale(.08 -.08)">
<use xlink:href="#al"/>
</g>
</g>
<path d="m832.1 179.4 4.3561 4.1497q1.7377 1.6554 3.3931-0.08232l5.3404-5.6059q1.6554-1.7377-0.082321-3.3931l-4.3561-4.1497q-1.7377-1.6554-3.3931 0.082321l-5.3404 5.6059q-1.6554 1.7377 0.082321 3.3931z" clip-path="url(#a)" fill="#fff" stroke="#fff"/>
<g clip-path="url(#a)">
<g transform="translate(834.9 176.46) rotate(43.61) scale(.08 -.08)">
<use xlink:href="#z"/>
</g>
</g>
<path d="m259.23 328.61 3.5134-3.3052q1.7481-1.6445 0.10358-3.3925l-5.3051-5.6393q-1.6445-1.7481-3.3925-0.10358l-3.5134 3.3052q-1.7481 1.6445-0.10358 3.3925l5.3051 5.6393q1.6445 1.7481 3.3925 0.10358z" clip-path="url(#a)" fill="#fff" stroke="#fff"/>
<g clip-path="url(#a)">
<defs>
<path id="y" d="m19.672 64.797v-27.391h12.406q6.8906 0 10.641 3.5625 3.7656 3.5625 3.7656 10.156 0 6.5469-3.7656 10.109-3.75 3.5625-10.641 3.5625zm-9.8594 8.1094h22.266q12.266 0 18.531-5.5469 6.2812-5.5469 6.2812-16.234 0-10.797-6.2812-16.312-6.2656-5.5156-18.531-5.5156h-12.406v-29.297h-9.8594z"/>
</defs>
<g transform="translate(256.45 325.65) rotate(-43.251) scale(.08 -.08)">
<use xlink:href="#y"/>
</g>
</g>
<path d="m234.51 328.98 4.2459-3.4527q1.862-1.5142 0.34786-3.3762l-4.8848-6.007q-1.5142-1.862-3.3762-0.34786l-4.2459 3.4527q-1.862 1.5142-0.34786 3.3762l4.8848 6.007q1.5142 1.862 3.3762 0.34786z" clip-path="url(#a)" fill="#fff" stroke="#fff"/>
<g clip-path="url(#a)">
<defs>
<path id="p" d="m34.188 63.188-13.391-36.281h26.812zm-5.5781 9.7188h11.188l27.781-72.906h-10.25l-6.6406 18.703h-32.859l-6.6406-18.703h-10.406z"/>
</defs>
<g transform="translate(231.94 325.83) rotate(-39.118) scale(.08 -.08)">
<use xlink:href="#p"/>
</g>
</g>
<path d="m368.67 256.49 2.887-4.649q1.2661-2.0389-0.77273-3.305l-6.5774-4.0846q-2.0389-1.2661-3.305 0.77273l-2.887 4.649q-1.2661 2.0389 0.77273 3.305l6.5774 4.0846q2.0389 1.2661 3.305-0.77273z" clip-path="url(#a)" fill="#fff" stroke="#fff"/>
<g clip-path="url(#a)">
<g transform="translate(365.22 254.35) rotate(-58.16) scale(.08 -.08)">
<use xlink:href="#p"/>
</g>
</g>
<path d="m780.17 327.2 5.4662 2.0981q2.2406 0.86 3.1006-1.3806l2.7744-7.2283q0.86-2.2406-1.3806-3.1006l-5.4662-2.0981q-2.2406-0.86-3.1006 1.3806l-2.7744 7.2283q-0.86 2.2406 1.3806 3.1006z" clip-path="url(#a)" fill="#fff" stroke="#fff"/>
<g clip-path="url(#a)">
<defs>
<path id="ap" d="m8.6875 72.906h9.9219v-44.297q0-11.719 4.2344-16.875 4.25-5.1406 13.781-5.1406 9.4688 0 13.719 5.1406 4.25 5.1562 4.25 16.875v44.297h9.9062v-45.516q0-14.25-7.0625-21.531-7.0469-7.2812-20.812-7.2812-13.828 0-20.891 7.2812-7.0469 7.2812-7.0469 21.531z"/>
</defs>
<g transform="translate(781.63 323.4) rotate(20.998) scale(.08 -.08)">
<use xlink:href="#ap"/>
</g>
</g>
<path d="m97.29 520.34v35.285q0 2.4 2.4 2.4h7.7425q2.4 0 2.4-2.4v-35.285q0-2.4-2.4-2.4h-7.7425q-2.4 0-2.4 2.4z" clip-path="url(#a)" fill="#fff" stroke="#fff"/>
<g clip-path="url(#a)">
<defs>
<path id="l" d="m-0.29688 72.906h61.672v-8.3125h-25.875v-64.594h-9.9062v64.594h-25.891z"/>
<path id="d" d="m56.203 29.594v-4.3906h-41.312q0.59375-9.2812 5.5938-14.141t13.938-4.8594q5.1719 0 10.031 1.2656t9.6562 3.8125v-8.5q-4.8438-2.0469-9.9219-3.125t-10.297-1.0781q-13.094 0-20.734 7.6094-7.6406 7.625-7.6406 20.625 0 13.422 7.25 21.297 7.25 7.8906 19.562 7.8906 11.031 0 17.453-7.1094 6.4219-7.0938 6.4219-19.297zm-8.9844 2.6406q-0.09375 7.3594-4.125 11.75-4.0312 4.4062-10.672 4.4062-7.5156 0-12.031-4.25t-5.2031-11.969z"/>
<path id="f" d="m41.109 46.297q-1.5156 0.875-3.2969 1.2812-1.7812 0.42188-3.9219 0.42188-7.625 0-11.703-4.9531t-4.0781-14.234v-28.812h-9.0312v54.688h9.0312v-8.5q2.8438 4.9844 7.375 7.3906 4.5469 2.4219 11.047 2.4219 0.92188 0 2.0469-0.125 1.125-0.10938 2.4844-0.35938z"/>
<path id="k" d="m52 44.188q3.375 6.0625 8.0625 8.9375t11.031 2.875q8.5469 0 13.188-5.9844 4.6406-5.9688 4.6406-17v-33.016h-9.0312v32.719q0 7.8594-2.7969 11.656-2.7812 3.8125-8.4844 3.8125-6.9844 0-11.047-4.6406-4.0469-4.625-4.0469-12.641v-30.906h-9.0312v32.719q0 7.9062-2.7812 11.688t-8.5938 3.7812q-6.8906 0-10.953-4.6562-4.0469-4.6562-4.0469-12.625v-30.906h-9.0312v54.688h9.0312v-8.5q3.0781 5.0312 7.375 7.4219t10.203 2.3906q5.9688 0 10.141-3.0312 4.1719-3.0156 6.1719-8.7812z"/>
<path id="j" d="m9.4219 54.688h8.9844v-54.688h-8.9844zm0 21.297h8.9844v-11.391h-8.9844z"/>
<path id="h" d="m54.891 33.016v-33.016h-8.9844v32.719q0 7.7656-3.0312 11.609-3.0312 3.8594-9.0781 3.8594-7.2812 0-11.484-4.6406-4.2031-4.625-4.2031-12.641v-30.906h-9.0312v54.688h9.0312v-8.5q3.2344 4.9375 7.5938 7.375 4.375 2.4375 10.094 2.4375 9.4219 0 14.25-5.8281 4.8438-5.8281 4.8438-17.156z"/>
<path id="g" d="m34.281 27.484q-10.891 0-15.094-2.4844t-4.2031-8.5q0-4.7812 3.1562-7.5938 3.1562-2.7969 8.5625-2.7969 7.4844 0 12 5.2969t4.5156 14.078v2zm17.922 3.7188v-31.203h-8.9844v8.2969q-3.0781-4.9688-7.6719-7.3438t-11.234-2.375q-8.3906 0-13.359 4.7188-4.9531 4.7188-4.9531 12.625 0 9.2188 6.1719 13.906 6.1875 4.6875 18.438 4.6875h12.609v0.89062q0 6.2031-4.0781 9.5938t-11.453 3.3906q-4.6875 0-9.1406-1.125-4.4375-1.125-8.5312-3.375v8.3125q4.9219 1.9062 9.5625 2.8438 4.6406 0.95312 9.0312 0.95312 11.875 0 17.734-6.1562 5.8594-6.1406 5.8594-18.641z"/>
<path id="i" d="m9.4219 75.984h8.9844v-75.984h-8.9844z"/>
</defs>
<g transform="translate(101.35 520.34) rotate(90) scale(.08 -.08)">
<use xlink:href="#l"/>
<use x="60.818359" xlink:href="#d"/>
<use x="122.341797" xlink:href="#f"/>
<use x="163.439453" xlink:href="#k"/>
<use x="260.851562" xlink:href="#j"/>
<use x="288.634766" xlink:href="#h"/>
<use x="352.013672" xlink:href="#g"/>
<use x="413.292969" xlink:href="#i"/>
</g>
</g>
<path d="m49.248 520.34v35.285q0 2.4 2.4 2.4h7.7425q2.4 0 2.4-2.4v-35.285q0-2.4-2.4-2.4h-7.7425q-2.4 0-2.4 2.4z" clip-path="url(#a)" fill="#fff" stroke="#fff"/>
<g clip-path="url(#a)">
<g transform="translate(53.312 520.34) rotate(90) scale(.08 -.08)">
<use xlink:href="#l"/>
<use x="60.818359" xlink:href="#d"/>
<use x="122.341797" xlink:href="#f"/>
<use x="163.439453" xlink:href="#k"/>
<use x="260.851562" xlink:href="#j"/>
<use x="288.634766" xlink:href="#h"/>
<use x="352.013672" xlink:href="#g"/>
<use x="413.292969" xlink:href="#i"/>
</g>
</g>
<path d="m397.92 398.13 3.6739 3.1259q1.8279 1.5552 3.3831-0.27266l5.0173-5.8969q1.5552-1.8279-0.27266-3.3831l-3.6739-3.1259q-1.8279-1.5552-3.3831 0.27267l-5.0173 5.8969q-1.5552 1.8279 0.27267 3.3831z" clip-path="url(#a)" fill="#fff" stroke="#fff"/>
<g clip-path="url(#a)">
<g transform="translate(400.55 395.04) rotate(40.392) scale(.08 -.08)">
<use xlink:href="#y"/>
</g>
</g>
<path d="m237.66 401.47 4.168-3.5463q1.8279-1.5552 0.27267-3.3831l-5.0173-5.8969q-1.5552-1.8279-3.3831-0.27266l-4.168 3.5463q-1.8279 1.5552-0.27267 3.3831l5.0173 5.8969q1.5552 1.8279 3.3831 0.27266z" clip-path="url(#a)" fill="#fff" stroke="#fff"/>
<g clip-path="url(#a)">
<g transform="translate(235.02 398.37) rotate(-40.392) scale(.08 -.08)">
<use xlink:href="#p"/>
</g>
</g>
<path d="m263.02 400.71 2.9585-3.524q1.5431-1.8381-0.29499-3.3813l-5.9299-4.9782q-1.8381-1.5431-3.3813 0.29499l-2.9585 3.524q-1.5431 1.8381 0.29499 3.3813l5.9299 4.9782q1.8381 1.5431 3.3813-0.29499z" clip-path="url(#a)" fill="#fff" stroke="#fff"/>
<g clip-path="url(#a)">
<defs>
<path id="s" d="m9.8125 72.906h41.891v-8.3125h-32.031v-21.484h28.906v-8.2969h-28.906v-34.812h-9.8594z"/>
</defs>
<g transform="translate(259.91 398.1) rotate(-49.986) scale(.08 -.08)">
<use xlink:href="#s"/>
</g>
</g>
<path d="m288.28 399.79 2.0699-4.1094q1.0797-2.1434-1.0638-3.2231l-6.9148-3.4831q-2.1434-1.0797-3.2231 1.0638l-2.0699 4.1094q-1.0797 2.1434 1.0638 3.2231l6.9148 3.4831q2.1434 1.0797 3.2231-1.0638z" clip-path="url(#a)" fill="#fff" stroke="#fff"/>
<g clip-path="url(#a)">
<g transform="translate(284.65 397.97) rotate(-63.265) scale(.08 -.08)">
<use xlink:href="#s"/>
</g>
</g>
<path d="m313.46 398.7 0.92045-5.482q0.3974-2.3669-1.9695-2.7643l-7.6356-1.282q-2.3669-0.3974-2.7643 1.9695l-0.92045 5.482q-0.3974 2.3669 1.9695 2.7643l7.6356 1.282q2.3669 0.3974 2.7643-1.9695z" clip-path="url(#a)" fill="#fff" stroke="#fff"/>
<g clip-path="url(#a)">
<defs>
<path id="x" d="m44.391 34.188q3.1719-1.0781 6.1719-4.5938t6.0312-9.6719l10.016-19.922h-10.609l-9.3125 18.703q-3.625 7.3281-7.0156 9.7188t-9.25 2.3906h-10.75v-30.812h-9.8594v72.906h22.266q12.5 0 18.656-5.2344 6.1562-5.2188 6.1562-15.766 0-6.8906-3.2031-11.438-3.2031-4.5312-9.2969-6.2812zm-24.719 30.609v-25.875h12.406q7.125 0 10.766 3.2969t3.6406 9.6875-3.6406 9.6406-10.766 3.25z"/>
</defs>
<g transform="translate(309.46 398.03) rotate(-80.469) scale(.08 -.08)">
<use xlink:href="#x"/>
</g>
</g>
<path d="m325.11 393.22 0.92045 5.482q0.3974 2.3669 2.7643 1.9695l7.6356-1.282q2.3669-0.3974 1.9695-2.7643l-0.92045-5.482q-0.3974-2.3669-2.7643-1.9695l-7.6356 1.282q-2.3669 0.3974-1.9695 2.7643z" clip-path="url(#a)" fill="#fff" stroke="#fff"/>
<g clip-path="url(#a)">
<g transform="translate(329.12 392.54) rotate(80.469) scale(.08 -.08)">
<use xlink:href="#x"/>
</g>
</g>
<path d="m349.04 395.48 2.274 4.5146q1.0797 2.1434 3.2231 1.0638l6.9148-3.4831q2.1434-1.0797 1.0638-3.2231l-2.274-4.5146q-1.0797-2.1434-3.2231-1.0638l-6.9148 3.4831q-2.1434 1.0797-1.0638 3.2231z" clip-path="url(#a)" fill="#fff" stroke="#fff"/>
<g clip-path="url(#a)">
<defs>
<path id="an" d="m9.8125 72.906h46.094v-8.3125h-36.234v-21.578h34.719v-8.2969h-34.719v-26.422h37.109v-8.2969h-46.969z"/>
</defs>
<g transform="translate(352.67 393.65) rotate(63.265) scale(.08 -.08)">
<use xlink:href="#an"/>
</g>
</g>
<path d="m373.37 397.02 3.2502 3.8716q1.5431 1.8381 3.3813 0.29499l5.9299-4.9782q1.8381-1.5431 0.29499-3.3813l-3.2502-3.8716q-1.5431-1.8381-3.3813-0.29499l-5.9299 4.9782q-1.8381 1.5431-0.29499 3.3813z" clip-path="url(#a)" fill="#fff" stroke="#fff"/>
<g clip-path="url(#a)">
<g transform="translate(376.49 394.4) rotate(49.986) scale(.08 -.08)">
<use xlink:href="#an"/>
</g>
</g>
<path d="m481.62 520.34v35.285q0 2.4 2.4 2.4h7.7425q2.4 0 2.4-2.4v-35.285q0-2.4-2.4-2.4h-7.7425q-2.4 0-2.4 2.4z" clip-path="url(#a)" fill="#fff" stroke="#fff"/>
<g clip-path="url(#a)">
<g transform="translate(485.69 520.34) rotate(90) scale(.08 -.08)">
<use xlink:href="#l"/>
<use x="60.818359" xlink:href="#d"/>
<use x="122.341797" xlink:href="#f"/>
<use x="163.439453" xlink:href="#k"/>
<use x="260.851562" xlink:href="#j"/>
<use x="288.634766" xlink:href="#h"/>
<use x="352.013672" xlink:href="#g"/>
<use x="413.292969" xlink:href="#i"/>
</g>
</g>
<path d="m529.67 520.34v35.285q0 2.4 2.4 2.4h7.7425q2.4 0 2.4-2.4v-35.285q0-2.4-2.4-2.4h-7.7425q-2.4 0-2.4 2.4z" clip-path="url(#a)" fill="#fff" stroke="#fff"/>
<g clip-path="url(#a)">
<g transform="translate(533.73 520.34) rotate(90) scale(.08 -.08)">
<use xlink:href="#l"/>
<use x="60.818359" xlink:href="#d"/>
<use x="122.341797" xlink:href="#f"/>
<use x="163.439453" xlink:href="#k"/>
<use x="260.851562" xlink:href="#j"/>
<use x="288.634766" xlink:href="#h"/>
<use x="352.013672" xlink:href="#g"/>
<use x="413.292969" xlink:href="#i"/>
</g>
</g>
<path d="m664.65 320.38 0.30104 4.8143q0.14978 2.3953 2.5451 2.2455l7.7274-0.48318q2.3953-0.14978 2.2455-2.5451l-0.30104-4.8143q-0.14978-2.3953-2.5451-2.2455l-7.7274 0.48318q-2.3953 0.14978-2.2455 2.5451z" clip-path="url(#a)" fill="#fff" stroke="#fff"/>
<g clip-path="url(#a)">
<g transform="translate(668.7 320.12) rotate(86.422) scale(.08 -.08)">
<use xlink:href="#y"/>
</g>
</g>
<path d="m628.35 326.67 1.4312-5.282q0.62766-2.3165-1.6888-2.9441l-7.473-2.0249q-2.3165-0.62766-2.9441 1.6888l-1.4312 5.282q-0.62767 2.3165 1.6888 2.9441l7.473 2.0249q2.3165 0.62766 2.9441-1.6888z" clip-path="url(#a)" fill="#fff" stroke="#fff"/>
<g clip-path="url(#a)">
<g transform="translate(624.43 325.61) rotate(-74.839) scale(.08 -.08)">
<use xlink:href="#p"/>
</g>
</g>
<path d="m652.95 326.11 0.6385-6.1268q0.24877-2.3871-2.1383-2.6358l-7.7008-0.80253q-2.3871-0.24877-2.6358 2.1383l-0.6385 6.1268q-0.24877 2.3871 2.1383 2.6358l7.7008 0.80253q2.3871 0.24877 2.6358-2.1383z" clip-path="url(#a)" fill="#fff" stroke="#fff"/>
<g clip-path="url(#a)">
<defs>
<path id="aa" d="m19.672 64.797v-56.688h11.922q15.094 0 22.094 6.8281 7 6.8438 7 21.594 0 14.641-7 21.453t-22.094 6.8125zm-9.8594 8.1094h20.266q21.188 0 31.094-8.8125 9.9219-8.8125 9.9219-27.562 0-18.859-9.9688-27.703-9.9531-8.8281-31.047-8.8281h-20.266z"/>
</defs>
<g transform="translate(648.91 325.68) rotate(-84.05) scale(.08 -.08)">
<use xlink:href="#aa"/>
</g>
</g>
<path d="m700.32 251.84 2.887 4.649q1.2661 2.0389 3.305 0.77273l6.5774-4.0846q2.0389-1.2661 0.77273-3.305l-2.887-4.649q-1.2661-2.0389-3.305-0.77273l-6.5774 4.0846q-2.0389 1.2661-0.77273 3.305z" clip-path="url(#a)" fill="#fff" stroke="#fff"/>
<g clip-path="url(#a)">
<g transform="translate(703.77 249.7) rotate(58.16) scale(.08 -.08)">
<use xlink:href="#p"/>
</g>
</g>
<path d="m673.79 520.34v35.285q0 2.4 2.4 2.4h7.7425q2.4 0 2.4-2.4v-35.285q0-2.4-2.4-2.4h-7.7425q-2.4 0-2.4 2.4z" clip-path="url(#a)" fill="#fff" stroke="#fff"/>
<g clip-path="url(#a)">
<g transform="translate(677.86 520.34) rotate(90) scale(.08 -.08)">
<use xlink:href="#l"/>
<use x="60.818359" xlink:href="#d"/>
<use x="122.341797" xlink:href="#f"/>
<use x="163.439453" xlink:href="#k"/>
<use x="260.851562" xlink:href="#j"/>
<use x="288.634766" xlink:href="#h"/>
<use x="352.013672" xlink:href="#g"/>
<use x="413.292969" xlink:href="#i"/>
</g>
</g>
<path d="m1154.2 520.34v35.285q0 2.4 2.4 2.4h7.7425q2.4 0 2.4-2.4v-35.285q0-2.4-2.4-2.4h-7.7425q-2.4 0-2.4 2.4z" clip-path="url(#a)" fill="#fff" stroke="#fff"/>
<g clip-path="url(#a)">
<g transform="translate(1158.3 520.34) rotate(90) scale(.08 -.08)">
<use xlink:href="#l"/>
<use x="60.818359" xlink:href="#d"/>
<use x="122.341797" xlink:href="#f"/>
<use x="163.439453" xlink:href="#k"/>
<use x="260.851562" xlink:href="#j"/>
<use x="288.634766" xlink:href="#h"/>
<use x="352.013672" xlink:href="#g"/>
<use x="413.292969" xlink:href="#i"/>
</g>
</g>
<path d="m145.33 520.34v35.285q0 2.4 2.4 2.4h7.7425q2.4 0 2.4-2.4v-35.285q0-2.4-2.4-2.4h-7.7425q-2.4 0-2.4 2.4z" clip-path="url(#a)" fill="#fff" stroke="#fff"/>
<g clip-path="url(#a)">
<g transform="translate(149.4 520.34) rotate(90) scale(.08 -.08)">
<use xlink:href="#l"/>
<use x="60.818359" xlink:href="#d"/>
<use x="122.341797" xlink:href="#f"/>
<use x="163.439453" xlink:href="#k"/>
<use x="260.851562" xlink:href="#j"/>
<use x="288.634766" xlink:href="#h"/>
<use x="352.013672" xlink:href="#g"/>
<use x="413.292969" xlink:href="#i"/>
</g>
</g>
<path d="m193.37 520.34v35.285q0 2.4 2.4 2.4h7.7425q2.4 0 2.4-2.4v-35.285q0-2.4-2.4-2.4h-7.7425q-2.4 0-2.4 2.4z" clip-path="url(#a)" fill="#fff" stroke="#fff"/>
<g clip-path="url(#a)">
<g transform="translate(197.44 520.34) rotate(90) scale(.08 -.08)">
<use xlink:href="#l"/>
<use x="60.818359" xlink:href="#d"/>
<use x="122.341797" xlink:href="#f"/>
<use x="163.439453" xlink:href="#k"/>
<use x="260.851562" xlink:href="#j"/>
<use x="288.634766" xlink:href="#h"/>
<use x="352.013672" xlink:href="#g"/>
<use x="413.292969" xlink:href="#i"/>
</g>
</g>
<path d="m241.42 520.34v35.285q0 2.4 2.4 2.4h7.7425q2.4 0 2.4-2.4v-35.285q0-2.4-2.4-2.4h-7.7425q-2.4 0-2.4 2.4z" clip-path="url(#a)" fill="#fff" stroke="#fff"/>
<g clip-path="url(#a)">
<g transform="translate(245.48 520.34) rotate(90) scale(.08 -.08)">
<use xlink:href="#l"/>
<use x="60.818359" xlink:href="#d"/>
<use x="122.341797" xlink:href="#f"/>
<use x="163.439453" xlink:href="#k"/>
<use x="260.851562" xlink:href="#j"/>
<use x="288.634766" xlink:href="#h"/>
<use x="352.013672" xlink:href="#g"/>
<use x="413.292969" xlink:href="#i"/>
</g>
</g>
<path d="m289.46 520.34v35.285q0 2.4 2.4 2.4h7.7425q2.4 0 2.4-2.4v-35.285q0-2.4-2.4-2.4h-7.7425q-2.4 0-2.4 2.4z" clip-path="url(#a)" fill="#fff" stroke="#fff"/>
<g clip-path="url(#a)">
<g transform="translate(293.52 520.34) rotate(90) scale(.08 -.08)">
<use xlink:href="#l"/>
<use x="60.818359" xlink:href="#d"/>
<use x="122.341797" xlink:href="#f"/>
<use x="163.439453" xlink:href="#k"/>
<use x="260.851562" xlink:href="#j"/>
<use x="288.634766" xlink:href="#h"/>
<use x="352.013672" xlink:href="#g"/>
<use x="413.292969" xlink:href="#i"/>
</g>
</g>
<path d="m337.5 520.34v35.285q0 2.4 2.4 2.4h7.7425q2.4 0 2.4-2.4v-35.285q0-2.4-2.4-2.4h-7.7425q-2.4 0-2.4 2.4z" clip-path="url(#a)" fill="#fff" stroke="#fff"/>
<g clip-path="url(#a)">
<g transform="translate(341.56 520.34) rotate(90) scale(.08 -.08)">
<use xlink:href="#l"/>
<use x="60.818359" xlink:href="#d"/>
<use x="122.341797" xlink:href="#f"/>
<use x="163.439453" xlink:href="#k"/>
<use x="260.851562" xlink:href="#j"/>
<use x="288.634766" xlink:href="#h"/>
<use x="352.013672" xlink:href="#g"/>
<use x="413.292969" xlink:href="#i"/>
</g>
</g>
<path d="m385.54 520.34v35.285q0 2.4 2.4 2.4h7.7425q2.4 0 2.4-2.4v-35.285q0-2.4-2.4-2.4h-7.7425q-2.4 0-2.4 2.4z" clip-path="url(#a)" fill="#fff" stroke="#fff"/>
<g clip-path="url(#a)">
<g transform="translate(389.6 520.34) rotate(90) scale(.08 -.08)">
<use xlink:href="#l"/>
<use x="60.818359" xlink:href="#d"/>
<use x="122.341797" xlink:href="#f"/>
<use x="163.439453" xlink:href="#k"/>
<use x="260.851562" xlink:href="#j"/>
<use x="288.634766" xlink:href="#h"/>
<use x="352.013672" xlink:href="#g"/>
<use x="413.292969" xlink:href="#i"/>
</g>
</g>
<path d="m433.58 520.34v35.285q0 2.4 2.4 2.4h7.7425q2.4 0 2.4-2.4v-35.285q0-2.4-2.4-2.4h-7.7425q-2.4 0-2.4 2.4z" clip-path="url(#a)" fill="#fff" stroke="#fff"/>
<g clip-path="url(#a)">
<g transform="translate(437.65 520.34) rotate(90) scale(.08 -.08)">
<use xlink:href="#l"/>
<use x="60.818359" xlink:href="#d"/>
<use x="122.341797" xlink:href="#f"/>
<use x="163.439453" xlink:href="#k"/>
<use x="260.851562" xlink:href="#j"/>
<use x="288.634766" xlink:href="#h"/>
<use x="352.013672" xlink:href="#g"/>
<use x="413.292969" xlink:href="#i"/>
</g>
</g>
<path d="m577.71 520.34v35.285q0 2.4 2.4 2.4h7.7425q2.4 0 2.4-2.4v-35.285q0-2.4-2.4-2.4h-7.7425q-2.4 0-2.4 2.4z" clip-path="url(#a)" fill="#fff" stroke="#fff"/>
<g clip-path="url(#a)">
<g transform="translate(581.77 520.34) rotate(90) scale(.08 -.08)">
<use xlink:href="#l"/>
<use x="60.818359" xlink:href="#d"/>
<use x="122.341797" xlink:href="#f"/>
<use x="163.439453" xlink:href="#k"/>
<use x="260.851562" xlink:href="#j"/>
<use x="288.634766" xlink:href="#h"/>
<use x="352.013672" xlink:href="#g"/>
<use x="413.292969" xlink:href="#i"/>
</g>
</g>
<path d="m625.75 520.34v35.285q0 2.4 2.4 2.4h7.7425q2.4 0 2.4-2.4v-35.285q0-2.4-2.4-2.4h-7.7425q-2.4 0-2.4 2.4z" clip-path="url(#a)" fill="#fff" stroke="#fff"/>
<g clip-path="url(#a)">
<g transform="translate(629.81 520.34) rotate(90) scale(.08 -.08)">
<use xlink:href="#l"/>
<use x="60.818359" xlink:href="#d"/>
<use x="122.341797" xlink:href="#f"/>
<use x="163.439453" xlink:href="#k"/>
<use x="260.851562" xlink:href="#j"/>
<use x="288.634766" xlink:href="#h"/>
<use x="352.013672" xlink:href="#g"/>
<use x="413.292969" xlink:href="#i"/>
</g>
</g>
<path d="m757.49 393.2 0.925 5.5091q0.3974 2.3669 2.7643 1.9695l7.6356-1.282q2.3669-0.3974 1.9695-2.7643l-0.925-5.5091q-0.3974-2.3669-2.7643-1.9695l-7.6356 1.282q-2.3669 0.3974-1.9695 2.7643z" clip-path="url(#a)" fill="#fff" stroke="#fff"/>
<g clip-path="url(#a)">
<defs>
<path id="ar" d="m64.406 67.281v-10.391q-4.9844 4.6406-10.625 6.9219-5.6406 2.2969-11.984 2.2969-12.5 0-19.141-7.6406t-6.6406-22.094q0-14.406 6.6406-22.047t19.141-7.6406q6.3438 0 11.984 2.2969t10.625 6.9375v-10.312q-5.1719-3.5156-10.969-5.2812-5.7812-1.75-12.219-1.75-16.562 0-26.094 10.125-9.5156 10.141-9.5156 27.672 0 17.578 9.5156 27.703 9.5312 10.141 26.094 10.141 6.5312 0 12.312-1.7344 5.7969-1.7344 10.875-5.2031z"/>
</defs>
<g transform="translate(761.5 392.53) rotate(80.469) scale(.08 -.08)">
<use xlink:href="#ar"/>
</g>
</g>
<path d="m745.84 398.7 0.92045-5.482q0.3974-2.3669-1.9695-2.7643l-7.6356-1.282q-2.3669-0.3974-2.7643 1.9695l-0.92045 5.482q-0.3974 2.3669 1.9695 2.7643l7.6356 1.282q2.3669 0.3974 2.7643-1.9695z" clip-path="url(#a)" fill="#fff" stroke="#fff"/>
<g clip-path="url(#a)">
<g transform="translate(741.83 398.03) rotate(-80.469) scale(.08 -.08)">
<use xlink:href="#x"/>
</g>
</g>
<path d="m769.88 520.34v35.285q0 2.4 2.4 2.4h7.7425q2.4 0 2.4-2.4v-35.285q0-2.4-2.4-2.4h-7.7425q-2.4 0-2.4 2.4z" clip-path="url(#a)" fill="#fff" stroke="#fff"/>
<g clip-path="url(#a)">
<g transform="translate(773.94 520.34) rotate(90) scale(.08 -.08)">
<use xlink:href="#l"/>
<use x="60.818359" xlink:href="#d"/>
<use x="122.341797" xlink:href="#f"/>
<use x="163.439453" xlink:href="#k"/>
<use x="260.851562" xlink:href="#j"/>
<use x="288.634766" xlink:href="#h"/>
<use x="352.013672" xlink:href="#g"/>
<use x="413.292969" xlink:href="#i"/>
</g>
</g>
<path d="m817.92 520.34v35.285q0 2.4 2.4 2.4h7.7425q2.4 0 2.4-2.4v-35.285q0-2.4-2.4-2.4h-7.7425q-2.4 0-2.4 2.4z" clip-path="url(#a)" fill="#fff" stroke="#fff"/>
<g clip-path="url(#a)">
<g transform="translate(821.98 520.34) rotate(90) scale(.08 -.08)">
<use xlink:href="#l"/>
<use x="60.818359" xlink:href="#d"/>
<use x="122.341797" xlink:href="#f"/>
<use x="163.439453" xlink:href="#k"/>
<use x="260.851562" xlink:href="#j"/>
<use x="288.634766" xlink:href="#h"/>
<use x="352.013672" xlink:href="#g"/>
<use x="413.292969" xlink:href="#i"/>
</g>
</g>
<path d="m1046 397.01 3.2655 3.8898q1.5431 1.8381 3.3813 0.29499l5.9299-4.9782q1.8381-1.5431 0.29499-3.3813l-3.2655-3.8898q-1.5431-1.8381-3.3813-0.29499l-5.9299 4.9782q-1.8381 1.5431-0.29499 3.3813z" clip-path="url(#a)" fill="#fff" stroke="#fff"/>
<g clip-path="url(#a)">
<defs>
<path id="aq" d="m53.516 70.516v-9.625q-5.6094 2.6875-10.594 4-4.9844 1.3281-9.625 1.3281-8.0469 0-12.422-3.125t-4.375-8.8906q0-4.8438 2.9062-7.3125 2.9062-2.4531 11.016-3.9688l5.9531-1.2188q11.031-2.1094 16.281-7.4062t5.25-14.172q0-10.609-7.1094-16.078-7.0938-5.4688-20.812-5.4688-5.1719 0-11.016 1.1719-5.8281 1.1719-12.078 3.4688v10.156q6-3.3594 11.766-5.0781 5.7656-1.7031 11.328-1.7031 8.4375 0 13.031 3.3125 4.5938 3.3281 4.5938 9.4844 0 5.3594-3.2969 8.3906t-10.812 4.5469l-6.0156 1.1719q-11.031 2.1875-15.969 6.875-4.9219 4.6875-4.9219 13.047 0 9.6719 6.8125 15.234t18.766 5.5625q5.1406 0 10.453-0.9375 5.3281-0.92188 10.891-2.7656z"/>
</defs>
<g transform="translate(1049.1 394.39) rotate(49.986) scale(.08 -.08)">
<use xlink:href="#aq"/>
</g>
</g>
<path d="m935.1 401.31 3.9607-4.7179q1.5431-1.8381-0.29499-3.3813l-5.9299-4.9782q-1.8381-1.5431-3.3813 0.29499l-3.9607 4.7179q-1.5431 1.8381 0.29499 3.3813l5.9299 4.9782q1.8381 1.5431 3.3813-0.29499z" clip-path="url(#a)" fill="#fff" stroke="#fff"/>
<g clip-path="url(#a)">
<g transform="translate(931.99 398.7) rotate(-49.986) scale(.08 -.08)">
<use xlink:href="#aa"/>
</g>
</g>
<path d="m960.67 400.18 2.4619-4.8875q1.0797-2.1434-1.0638-3.2231l-6.9148-3.4831q-2.1434-1.0797-3.2231 1.0638l-2.4619 4.8875q-1.0797 2.1434 1.0638 3.2231l6.9148 3.4831q2.1434 1.0797 3.2231-1.0638z" clip-path="url(#a)" fill="#fff" stroke="#fff"/>
<g clip-path="url(#a)">
<g transform="translate(957.04 398.36) rotate(-63.265) scale(.08 -.08)">
<use xlink:href="#p"/>
</g>
</g>
<path d="m986.13 398.23 0.7619-4.5377q0.3974-2.3669-1.9695-2.7643l-7.6356-1.282q-2.3669-0.3974-2.7643 1.9695l-0.7619 4.5377q-0.3974 2.3669 1.9695 2.7643l7.6356 1.282q2.3669 0.3974 2.7643-1.9695z" clip-path="url(#a)" fill="#fff" stroke="#fff"/>
<g clip-path="url(#a)">
<g transform="translate(982.12 397.55) rotate(-80.469) scale(.08 -.08)">
<use xlink:href="#s"/>
</g>
</g>
<path d="m997.65 392.92 1.02 6.075q0.3974 2.3669 2.7643 1.9695l7.6356-1.282q2.3669-0.3974 1.9695-2.7643l-1.02-6.075q-0.3974-2.3669-2.7643-1.9695l-7.6356 1.282q-2.3669 0.3974-1.9695 2.7643z" clip-path="url(#a)" fill="#fff" stroke="#fff"/>
<g clip-path="url(#a)">
<g transform="translate(1001.7 392.25) rotate(80.469) scale(.08 -.08)">
<use xlink:href="#aa"/>
</g>
</g>
<path d="m1021.7 395.69 2.0699 4.1094q1.0797 2.1434 3.2231 1.0638l6.9148-3.4831q2.1434-1.0797 1.0638-3.2231l-2.0699-4.1094q-1.0797-2.1434-3.2231-1.0638l-6.9148 3.4831q-2.1434 1.0797-1.0638 3.2231z" clip-path="url(#a)" fill="#fff" stroke="#fff"/>
<g clip-path="url(#a)">
<g transform="translate(1025.4 393.86) rotate(63.265) scale(.08 -.08)">
<use xlink:href="#s"/>
</g>
</g>
<path d="m1106.2 520.34v35.285q0 2.4 2.4 2.4h7.7425q2.4 0 2.4-2.4v-35.285q0-2.4-2.4-2.4h-7.7425q-2.4 0-2.4 2.4z" clip-path="url(#a)" fill="#fff" stroke="#fff"/>
<g clip-path="url(#a)">
<g transform="translate(1110.2 520.34) rotate(90) scale(.08 -.08)">
<use xlink:href="#l"/>
<use x="60.818359" xlink:href="#d"/>
<use x="122.341797" xlink:href="#f"/>
<use x="163.439453" xlink:href="#k"/>
<use x="260.851562" xlink:href="#j"/>
<use x="288.634766" xlink:href="#h"/>
<use x="352.013672" xlink:href="#g"/>
<use x="413.292969" xlink:href="#i"/>
</g>
</g>
<path d="m721.83 520.34v35.285q0 2.4 2.4 2.4h7.7425q2.4 0 2.4-2.4v-35.285q0-2.4-2.4-2.4h-7.7425q-2.4 0-2.4 2.4z" clip-path="url(#a)" fill="#fff" stroke="#fff"/>
<g clip-path="url(#a)">
<g transform="translate(725.9 520.34) rotate(90) scale(.08 -.08)">
<use xlink:href="#l"/>
<use x="60.818359" xlink:href="#d"/>
<use x="122.341797" xlink:href="#f"/>
<use x="163.439453" xlink:href="#k"/>
<use x="260.851562" xlink:href="#j"/>
<use x="288.634766" xlink:href="#h"/>
<use x="352.013672" xlink:href="#g"/>
<use x="413.292969" xlink:href="#i"/>
</g>
</g>
<path d="m865.96 520.34v35.285q0 2.4 2.4 2.4h7.7425q2.4 0 2.4-2.4v-35.285q0-2.4-2.4-2.4h-7.7425q-2.4 0-2.4 2.4z" clip-path="url(#a)" fill="#fff" stroke="#fff"/>
<g clip-path="url(#a)">
<g transform="translate(870.02 520.34) rotate(90) scale(.08 -.08)">
<use xlink:href="#l"/>
<use x="60.818359" xlink:href="#d"/>
<use x="122.341797" xlink:href="#f"/>
<use x="163.439453" xlink:href="#k"/>
<use x="260.851562" xlink:href="#j"/>
<use x="288.634766" xlink:href="#h"/>
<use x="352.013672" xlink:href="#g"/>
<use x="413.292969" xlink:href="#i"/>
</g>
</g>
<path d="m914 520.34v35.285q0 2.4 2.4 2.4h7.7425q2.4 0 2.4-2.4v-35.285q0-2.4-2.4-2.4h-7.7425q-2.4 0-2.4 2.4z" clip-path="url(#a)" fill="#fff" stroke="#fff"/>
<g clip-path="url(#a)">
<g transform="translate(918.06 520.34) rotate(90) scale(.08 -.08)">
<use xlink:href="#l"/>
<use x="60.818359" xlink:href="#d"/>
<use x="122.341797" xlink:href="#f"/>
<use x="163.439453" xlink:href="#k"/>
<use x="260.851562" xlink:href="#j"/>
<use x="288.634766" xlink:href="#h"/>
<use x="352.013672" xlink:href="#g"/>
<use x="413.292969" xlink:href="#i"/>
</g>
</g>
<path d="m962.04 520.34v35.285q0 2.4 2.4 2.4h7.7425q2.4 0 2.4-2.4v-35.285q0-2.4-2.4-2.4h-7.7425q-2.4 0-2.4 2.4z" clip-path="url(#a)" fill="#fff" stroke="#fff"/>
<g clip-path="url(#a)">
<g transform="translate(966.11 520.34) rotate(90) scale(.08 -.08)">
<use xlink:href="#l"/>
<use x="60.818359" xlink:href="#d"/>
<use x="122.341797" xlink:href="#f"/>
<use x="163.439453" xlink:href="#k"/>
<use x="260.851562" xlink:href="#j"/>
<use x="288.634766" xlink:href="#h"/>
<use x="352.013672" xlink:href="#g"/>
<use x="413.292969" xlink:href="#i"/>
</g>
</g>
<path d="m1010.1 520.34v35.285q0 2.4 2.4 2.4h7.7425q2.4 0 2.4-2.4v-35.285q0-2.4-2.4-2.4h-7.7425q-2.4 0-2.4 2.4z" clip-path="url(#a)" fill="#fff" stroke="#fff"/>
<g clip-path="url(#a)">
<g transform="translate(1014.1 520.34) rotate(90) scale(.08 -.08)">
<use xlink:href="#l"/>
<use x="60.818359" xlink:href="#d"/>
<use x="122.341797" xlink:href="#f"/>
<use x="163.439453" xlink:href="#k"/>
<use x="260.851562" xlink:href="#j"/>
<use x="288.634766" xlink:href="#h"/>
<use x="352.013672" xlink:href="#g"/>
<use x="413.292969" xlink:href="#i"/>
</g>
</g>
<path d="m1058.1 520.34v35.285q0 2.4 2.4 2.4h7.7425q2.4 0 2.4-2.4v-35.285q0-2.4-2.4-2.4h-7.7425q-2.4 0-2.4 2.4z" clip-path="url(#a)" fill="#fff" stroke="#fff"/>
<g clip-path="url(#a)">
<g transform="translate(1062.2 520.34) rotate(90) scale(.08 -.08)">
<use xlink:href="#l"/>
<use x="60.818359" xlink:href="#d"/>
<use x="122.341797" xlink:href="#f"/>
<use x="163.439453" xlink:href="#k"/>
<use x="260.851562" xlink:href="#j"/>
<use x="288.634766" xlink:href="#h"/>
<use x="352.013672" xlink:href="#g"/>
<use x="413.292969" xlink:href="#i"/>
</g>
</g>
<defs>
<path id="b" d="m0 8.6603c2.2967 0 4.4997-0.9125 6.1237-2.5365 1.624-1.624 2.5365-3.827 2.5365-6.1237s-0.9125-4.4997-2.5365-6.1237c-1.624-1.624-3.827-2.5365-6.1237-2.5365s-4.4997 0.9125-6.1237 2.5365c-1.624 1.624-2.5365 3.827-2.5365 6.1237s0.9125 4.4997 2.5365 6.1237c1.624 1.624 3.827 2.5365 6.1237 2.5365z"/>
</defs>
<g clip-path="url(#a)">
<use x="55.519075" y="609.515247" fill="#ffffff" stroke="#ffffff" xlink:href="#b"/>
</g>
<g clip-path="url(#a)">
<use x="103.560895" y="609.515247" fill="#ffffff" stroke="#ffffff" xlink:href="#b"/>
</g>
<g clip-path="url(#a)">
<use x="151.602714" y="609.515247" fill="#ffffff" stroke="#ffffff" xlink:href="#b"/>
</g>
<g clip-path="url(#a)">
<use x="199.644534" y="609.515247" fill="#ffffff" stroke="#ffffff" xlink:href="#b"/>
</g>
<g clip-path="url(#a)">
<use x="247.686353" y="609.515247" fill="#ffffff" stroke="#ffffff" xlink:href="#b"/>
</g>
<g clip-path="url(#a)">
<use x="295.728173" y="609.515247" fill="#ffffff" stroke="#ffffff" xlink:href="#b"/>
</g>
<g clip-path="url(#a)">
<use x="343.769993" y="609.515247" fill="#ffffff" stroke="#ffffff" xlink:href="#b"/>
</g>
<g clip-path="url(#a)">
<use x="391.811812" y="609.515247" fill="#ffffff" stroke="#ffffff" xlink:href="#b"/>
</g>
<g clip-path="url(#a)">
<use x="439.853632" y="609.515247" fill="#ffffff" stroke="#ffffff" xlink:href="#b"/>
</g>
<g clip-path="url(#a)">
<use x="487.895451" y="609.515247" fill="#ffffff" stroke="#ffffff" xlink:href="#b"/>
</g>
<g clip-path="url(#a)">
<use x="535.937271" y="609.515247" fill="#ffffff" stroke="#ffffff" xlink:href="#b"/>
</g>
<g clip-path="url(#a)">
<use x="583.97909" y="609.515247" fill="#ffffff" stroke="#ffffff" xlink:href="#b"/>
</g>
<g clip-path="url(#a)">
<use x="632.02091" y="609.515247" fill="#ffffff" stroke="#ffffff" xlink:href="#b"/>
</g>
<g clip-path="url(#a)">
<use x="680.062729" y="609.515247" fill="#ffffff" stroke="#ffffff" xlink:href="#b"/>
</g>
<g clip-path="url(#a)">
<use x="728.104549" y="609.515247" fill="#ffffff" stroke="#ffffff" xlink:href="#b"/>
</g>
<g clip-path="url(#a)">
<use x="776.146368" y="609.515247" fill="#ffffff" stroke="#ffffff" xlink:href="#b"/>
</g>
<g clip-path="url(#a)">
<use x="824.188188" y="609.515247" fill="#ffffff" stroke="#ffffff" xlink:href="#b"/>
</g>
<g clip-path="url(#a)">
<use x="872.230007" y="609.515247" fill="#ffffff" stroke="#ffffff" xlink:href="#b"/>
</g>
<g clip-path="url(#a)">
<use x="920.271827" y="609.515247" fill="#ffffff" stroke="#ffffff" xlink:href="#b"/>
</g>
<g clip-path="url(#a)">
<use x="968.313647" y="609.515247" fill="#ffffff" stroke="#ffffff" xlink:href="#b"/>
</g>
<g clip-path="url(#a)">
<use x="1016.355466" y="609.515247" fill="#ffffff" stroke="#ffffff" xlink:href="#b"/>
</g>
<g clip-path="url(#a)">
<use x="1064.397286" y="609.515247" fill="#ffffff" stroke="#ffffff" xlink:href="#b"/>
</g>
<g clip-path="url(#a)">
<use x="1112.439105" y="609.515247" fill="#ffffff" stroke="#ffffff" xlink:href="#b"/>
</g>
<g clip-path="url(#a)">
<use x="1160.480925" y="609.515247" fill="#ffffff" stroke="#ffffff" xlink:href="#b"/>
</g>
<g clip-path="url(#a)">
<use x="684.866911" y="30.484753" fill="#ffffff" stroke="#ffffff" xlink:href="#b"/>
</g>
<g clip-path="url(#a)">
<use x="409.827494" y="178.332317" fill="#ffffff" stroke="#ffffff" xlink:href="#b"/>
</g>
<g clip-path="url(#a)">
<use x="103.560895" y="466.450997" fill="#ffffff" stroke="#ffffff" xlink:href="#b"/>
</g>
<g clip-path="url(#a)">
<use x="55.519075" y="466.450997" fill="#ffffff" stroke="#ffffff" xlink:href="#b"/>
</g>
<g clip-path="url(#a)">
<use x="319.749083" y="323.386747" fill="#ffffff" stroke="#ffffff" xlink:href="#b"/>
</g>
<g clip-path="url(#a)">
<use x="487.895451" y="466.450997" fill="#ffffff" stroke="#ffffff" xlink:href="#b"/>
</g>
<g clip-path="url(#a)">
<use x="535.937271" y="466.450997" fill="#ffffff" stroke="#ffffff" xlink:href="#b"/>
</g>
<g clip-path="url(#a)">
<use x="662.047047" y="178.332317" fill="#ffffff" stroke="#ffffff" xlink:href="#b"/>
</g>
<g clip-path="url(#a)">
<use x="680.062729" y="466.450997" fill="#ffffff" stroke="#ffffff" xlink:href="#b"/>
</g>
<g clip-path="url(#a)">
<use x="1160.480925" y="466.450997" fill="#ffffff" stroke="#ffffff" xlink:href="#b"/>
</g>
<g clip-path="url(#a)">
<use x="151.602714" y="466.450997" fill="#ffffff" stroke="#ffffff" xlink:href="#b"/>
</g>
<g clip-path="url(#a)">
<use x="199.644534" y="466.450997" fill="#ffffff" stroke="#ffffff" xlink:href="#b"/>
</g>
<g clip-path="url(#a)">
<use x="247.686353" y="466.450997" fill="#ffffff" stroke="#ffffff" xlink:href="#b"/>
</g>
<g clip-path="url(#a)">
<use x="295.728173" y="466.450997" fill="#ffffff" stroke="#ffffff" xlink:href="#b"/>
</g>
<g clip-path="url(#a)">
<use x="343.769993" y="466.450997" fill="#ffffff" stroke="#ffffff" xlink:href="#b"/>
</g>
<g clip-path="url(#a)">
<use x="391.811812" y="466.450997" fill="#ffffff" stroke="#ffffff" xlink:href="#b"/>
</g>
<g clip-path="url(#a)">
<use x="439.853632" y="466.450997" fill="#ffffff" stroke="#ffffff" xlink:href="#b"/>
</g>
<g clip-path="url(#a)">
<use x="583.97909" y="466.450997" fill="#ffffff" stroke="#ffffff" xlink:href="#b"/>
</g>
<g clip-path="url(#a)">
<use x="632.02091" y="466.450997" fill="#ffffff" stroke="#ffffff" xlink:href="#b"/>
</g>
<g clip-path="url(#a)">
<use x="752.125459" y="323.386747" fill="#ffffff" stroke="#ffffff" xlink:href="#b"/>
</g>
<g clip-path="url(#a)">
<use x="776.146368" y="466.450997" fill="#ffffff" stroke="#ffffff" xlink:href="#b"/>
</g>
<g clip-path="url(#a)">
<use x="824.188188" y="466.450997" fill="#ffffff" stroke="#ffffff" xlink:href="#b"/>
</g>
<g clip-path="url(#a)">
<use x="992.334556" y="323.386747" fill="#ffffff" stroke="#ffffff" xlink:href="#b"/>
</g>
<g clip-path="url(#a)">
<use x="1112.439105" y="466.450997" fill="#ffffff" stroke="#ffffff" xlink:href="#b"/>
</g>
<g clip-path="url(#a)">
<use x="728.104549" y="466.450997" fill="#ffffff" stroke="#ffffff" xlink:href="#b"/>
</g>
<g clip-path="url(#a)">
<use x="872.230007" y="466.450997" fill="#ffffff" stroke="#ffffff" xlink:href="#b"/>
</g>
<g clip-path="url(#a)">
<use x="920.271827" y="466.450997" fill="#ffffff" stroke="#ffffff" xlink:href="#b"/>
</g>
<g clip-path="url(#a)">
<use x="968.313647" y="466.450997" fill="#ffffff" stroke="#ffffff" xlink:href="#b"/>
</g>
<g clip-path="url(#a)">
<use x="1016.355466" y="466.450997" fill="#ffffff" stroke="#ffffff" xlink:href="#b"/>
</g>
<g clip-path="url(#a)">
<use x="1064.397286" y="466.450997" fill="#ffffff" stroke="#ffffff" xlink:href="#b"/>
</g>
<g clip-path="url(#a)">
<defs>
<path id="am" d="m9.8125 72.906h9.8594v-72.906h-9.8594z"/>
</defs>
<g transform="translate(54.044 612.27) scale(.1 -.1)">
<use xlink:href="#am"/>
</g>
</g>
<g clip-path="url(#a)">
<defs>
<path id="n" d="m18.312 70.219v-15.531h18.5v-6.9844h-18.5v-29.688q0-6.6875 1.8281-8.5938t7.4531-1.9062h9.2188v-7.5156h-9.2188q-10.406 0-14.359 3.875-3.9531 3.8906-3.9531 14.141v29.688h-6.5938v6.9844h6.5938v15.531z"/>
<path id="r" d="m54.891 33.016v-33.016h-8.9844v32.719q0 7.7656-3.0312 11.609-3.0312 3.8594-9.0781 3.8594-7.2812 0-11.484-4.6406-4.2031-4.625-4.2031-12.641v-30.906h-9.0312v75.984h9.0312v-29.797q3.2344 4.9375 7.5938 7.375 4.375 2.4375 10.094 2.4375 9.4219 0 14.25-5.8281 4.8438-5.8281 4.8438-17.156z"/>
<path id="o" d="m30.609 48.391q-7.2188 0-11.422-5.6406t-4.2031-15.453 4.1719-15.453q4.1875-5.6406 11.453-5.6406 7.1875 0 11.375 5.6562 4.2031 5.6719 4.2031 15.438 0 9.7188-4.2031 15.406-4.1875 5.6875-11.375 5.6875zm0 7.6094q11.719 0 18.406-7.625 6.7031-7.6094 6.7031-21.078 0-13.422-6.7031-21.078-6.6875-7.6406-18.406-7.6406-11.766 0-18.438 7.6406-6.6562 7.6562-6.6562 21.078 0 13.469 6.6562 21.078 6.6719 7.625 18.438 7.625z"/>
<path id="q" d="m8.5 21.578v33.109h8.9844v-32.766q0-7.7656 3.0156-11.656 3.0312-3.875 9.0938-3.875 7.2656 0 11.484 4.6406 4.2344 4.6406 4.2344 12.656v31h8.9844v-54.688h-8.9844v8.4062q-3.2656-4.9844-7.5938-7.4062-4.3125-2.4219-10.031-2.4219-9.4219 0-14.312 5.8594-4.875 5.8594-4.875 17.141z"/>
<path id="ao" d="m45.406 27.984q0 9.7656-4.0312 15.125-4.0156 5.375-11.297 5.375-7.2188 0-11.25-5.375-4.0312-5.3594-4.0312-15.125 0-9.7188 4.0312-15.094t11.25-5.375q7.2812 0 11.297 5.375 4.0312 5.375 4.0312 15.094zm8.9844-21.203q0-13.953-6.2031-20.766-6.1875-6.8125-18.984-6.8125-4.7344 0-8.9375 0.70312t-8.1562 2.1719v8.7344q3.9531-2.1406 7.8125-3.1562 3.8594-1.0312 7.8594-1.0312 8.8438 0 13.234 4.6094t4.3906 13.938v4.4531q-2.7812-4.8438-7.125-7.2344t-10.406-2.3906q-10.047 0-16.203 7.6562-6.1562 7.6719-6.1562 20.328 0 12.688 6.1562 20.344 6.1562 7.6719 16.203 7.6719 6.0625 0 10.406-2.3906t7.125-7.2188v8.2969h8.9844z"/>
</defs>
<g transform="translate(83.901 612.27) scale(.1 -.1)">
<use xlink:href="#n"/>
<use x="39.208984" xlink:href="#r"/>
<use x="102.587891" xlink:href="#o"/>
<use x="163.769531" xlink:href="#q"/>
<use x="227.148438" xlink:href="#r"/>
<use x="290.527344" xlink:href="#ao"/>
<use x="354.003906" xlink:href="#n"/>
</g>
</g>
<g clip-path="url(#a)">
<g transform="translate(148.25 612.27) scale(.1 -.1)">
<use xlink:href="#j"/>
<use x="27.783203" xlink:href="#n"/>
</g>
</g>
<g clip-path="url(#a)">
<defs>
<path id="u" d="m4.2031 54.688h8.9844l11.234-42.672 11.172 42.672h10.594l11.234-42.672 11.188 42.672h8.9844l-14.312-54.688h-10.594l-11.766 44.828-11.812-44.828h-10.609z"/>
<path id="v" d="m45.406 46.391v29.594h8.9844v-75.984h-8.9844v8.2031q-2.8281-4.875-7.1562-7.25-4.3125-2.375-10.375-2.375-9.9062 0-16.141 7.9062-6.2188 7.9219-6.2188 20.812t6.2188 20.797q6.2344 7.9062 16.141 7.9062 6.0625 0 10.375-2.375 4.3281-2.3594 7.1562-7.2344zm-30.609-19.094q0-9.9062 4.0781-15.547t11.203-5.6406 11.219 5.6406q4.1094 5.6406 4.1094 15.547t-4.1094 15.547q-4.0938 5.6406-11.219 5.6406t-11.203-5.6406-4.0781-15.547z"/>
</defs>
<g transform="translate(184.76 612.27) scale(.1 -.1)">
<use xlink:href="#u"/>
<use x="81.787109" xlink:href="#o"/>
<use x="142.96875" xlink:href="#q"/>
<use x="206.347656" xlink:href="#i"/>
<use x="234.130859" xlink:href="#v"/>
</g>
</g>
<g clip-path="url(#a)">
<defs>
<path id="w" d="m48.688 27.297q0 9.9062-4.0781 15.547t-11.203 5.6406q-7.1406 0-11.219-5.6406t-4.0781-15.547 4.0781-15.547 11.219-5.6406q7.125 0 11.203 5.6406t4.0781 15.547zm-30.578 19.094q2.8438 4.875 7.1562 7.2344 4.3281 2.375 10.328 2.375 9.9688 0 16.188-7.9062 6.2344-7.9062 6.2344-20.797t-6.2344-20.812q-6.2188-7.9062-16.188-7.9062-6 0-10.328 2.375-4.3125 2.375-7.1562 7.25v-8.2031h-9.0312v75.984h9.0312z"/>
</defs>
<g transform="translate(241.44 612.27) scale(.1 -.1)">
<use xlink:href="#w"/>
<use x="63.476562" xlink:href="#d"/>
</g>
</g>
<g clip-path="url(#a)">
<g transform="translate(287.54 612.27) scale(.1 -.1)">
<use xlink:href="#o"/>
<use x="61.181641" xlink:href="#q"/>
<use x="124.560547" xlink:href="#n"/>
</g>
</g>
<g clip-path="url(#a)">
<defs>
<path id="at" d="m37.109 75.984v-7.4844h-8.5938q-4.8281 0-6.7188-1.9531-1.875-1.9531-1.875-7.0312v-4.8281h14.797v-6.9844h-14.797v-47.703h-9.0312v47.703h-8.5938v6.9844h8.5938v3.8125q0 9.125 4.25 13.297 4.25 4.1875 13.469 4.1875z"/>
</defs>
<g transform="translate(338.95 612.27) scale(.1 -.1)">
<use xlink:href="#o"/>
<use x="61.181641" xlink:href="#at"/>
</g>
</g>
<g clip-path="url(#a)">
<defs>
<path id="ai" d="m32.172-5.0781q-3.7969-9.7656-7.4219-12.734-3.6094-2.9844-9.6562-2.9844h-7.1875v7.5156h5.2812q3.7031 0 5.75 1.7656 2.0625 1.75 4.5469 8.2969l1.6094 4.0938-22.109 53.812h9.5156l17.094-42.766 17.094 42.766h9.5156z"/>
</defs>
<g transform="translate(383.98 612.27) scale(.1 -.1)">
<use xlink:href="#k"/>
<use x="97.412109" xlink:href="#ai"/>
</g>
</g>
<g clip-path="url(#a)">
<defs>
<path id="aj" d="m18.109 8.2031v-29h-9.0312v75.484h9.0312v-8.2969q2.8438 4.875 7.1562 7.2344 4.3281 2.375 10.328 2.375 9.9688 0 16.188-7.9062 6.2344-7.9062 6.2344-20.797t-6.2344-20.812q-6.2188-7.9062-16.188-7.9062-6 0-10.328 2.375-4.3125 2.375-7.1562 7.25zm30.578 19.094q0 9.9062-4.0781 15.547t-11.203 5.6406q-7.1406 0-11.219-5.6406t-4.0781-15.547 4.0781-15.547 11.219-5.6406q7.125 0 11.203 5.6406t4.0781 15.547z"/>
<path id="ak" d="m48.781 52.594v-8.4062q-3.8125 2.1094-7.6406 3.1562t-7.7344 1.0469q-8.75 0-13.594-5.5469-4.8281-5.5312-4.8281-15.547t4.8281-15.562q4.8438-5.5312 13.594-5.5312 3.9062 0 7.7344 1.0469t7.6406 3.1562v-8.3125q-3.7656-1.75-7.7969-2.625-4.0156-0.89062-8.5625-0.89062-12.359 0-19.641 7.7656-7.2656 7.7656-7.2656 20.953 0 13.375 7.3438 21.031 7.3594 7.6719 20.156 7.6719 4.1406 0 8.0938-0.85938 3.9531-0.84375 7.6719-2.5469z"/>
</defs>
<g transform="translate(427.41 612.27) scale(.1 -.1)">
<use xlink:href="#aj"/>
<use x="63.476562" xlink:href="#f"/>
<use x="104.589844" xlink:href="#j"/>
<use x="132.373047" xlink:href="#ak"/>
<use x="187.353516" xlink:href="#d"/>
</g>
</g>
<g clip-path="url(#a)">
<g transform="translate(473.36 612.27) scale(.1 -.1)">
<use xlink:href="#f"/>
<use x="41.113281" xlink:href="#g"/>
<use x="102.392578" xlink:href="#h"/>
<use x="165.771484" xlink:href="#ao"/>
<use x="229.248047" xlink:href="#d"/>
</g>
</g>
<g clip-path="url(#a)">
<g transform="translate(527.63 612.27) scale(.1 -.1)">
<use xlink:href="#w"/>
<use x="63.476562" xlink:href="#q"/>
<use x="126.855469" xlink:href="#n"/>
</g>
</g>
<g clip-path="url(#a)">
<g transform="translate(572.81 612.27) scale(.1 -.1)">
<use xlink:href="#n"/>
<use x="39.208984" xlink:href="#r"/>
<use x="102.587891" xlink:href="#d"/>
<use x="164.111328" xlink:href="#ai"/>
</g>
</g>
<g clip-path="url(#a)">
<g transform="translate(618.09 612.27) scale(.1 -.1)">
<use xlink:href="#f"/>
<use x="41.082031" xlink:href="#d"/>
<use x="102.605469" xlink:href="#g"/>
<use x="163.884766" xlink:href="#i"/>
<use x="191.667969" xlink:href="#i"/>
<use x="219.451172" xlink:href="#ai"/>
</g>
</g>
<g clip-path="url(#a)">
<defs>
<path id="as" d="m9.0781 75.984h9.0312v-44.875l26.812 23.578h11.469l-29-25.578 30.234-29.109h-11.719l-27.797 26.703v-26.703h-9.0312z"/>
</defs>
<g transform="translate(661.72 612.27) scale(.1 -.1)">
<use xlink:href="#u"/>
<use x="81.787109" xlink:href="#o"/>
<use x="142.96875" xlink:href="#f"/>
<use x="184.082031" xlink:href="#as"/>
<use x="241.945312" xlink:href="#d"/>
<use x="303.46875" xlink:href="#v"/>
</g>
</g>
<g clip-path="url(#a)">
<g transform="translate(717.5 612.27) scale(.1 -.1)">
<use xlink:href="#u"/>
<use x="81.787109" xlink:href="#j"/>
<use x="109.570312" xlink:href="#n"/>
<use x="148.779297" xlink:href="#r"/>
</g>
</g>
<g clip-path="url(#a)">
<g transform="translate(768.2 612.27) scale(.1 -.1)">
<use xlink:href="#k"/>
<use x="97.412109" xlink:href="#d"/>
</g>
</g>
<g clip-path="url(#a)">
<g transform="translate(814.78 612.27) scale(.1 -.1)">
<use xlink:href="#g"/>
<use x="61.279297" xlink:href="#h"/>
<use x="124.658203" xlink:href="#v"/>
</g>
</g>
<g clip-path="url(#a)">
<g transform="translate(861.91 612.27) scale(.1 -.1)">
<use xlink:href="#h"/>
<use x="63.378906" xlink:href="#o"/>
<use x="124.560547" xlink:href="#u"/>
</g>
</g>
<g clip-path="url(#a)">
<g transform="translate(918.8 612.27) scale(.1 -.1)">
<use xlink:href="#am"/>
</g>
</g>
<g clip-path="url(#a)">
<g transform="translate(954.77 612.27) scale(.1 -.1)">
<use xlink:href="#ak"/>
<use x="54.980469" xlink:href="#o"/>
<use x="116.162109" xlink:href="#q"/>
<use x="179.541016" xlink:href="#i"/>
<use x="207.324219" xlink:href="#v"/>
</g>
</g>
<g clip-path="url(#a)">
<g transform="translate(1011.2 612.27) scale(.1 -.1)">
<use xlink:href="#h"/>
<use x="63.378906" xlink:href="#n"/>
</g>
</g>
<g clip-path="url(#a)">
<g transform="translate(1058.1 612.27) scale(.1 -.1)">
<use xlink:href="#w"/>
<use x="63.476562" xlink:href="#d"/>
</g>
</g>
<g clip-path="url(#a)">
<g transform="translate(1093.3 612.27) scale(.1 -.1)">
<use xlink:href="#r"/>
<use x="63.378906" xlink:href="#g"/>
<use x="124.658203" xlink:href="#aj"/>
<use x="188.134766" xlink:href="#aj"/>
<use x="251.611328" xlink:href="#j"/>
<use x="279.394531" xlink:href="#d"/>
<use x="340.917969" xlink:href="#f"/>
</g>
</g>
<g clip-path="url(#a)">
<defs>
<path id="e" d="m10.688 12.406h10.312v-12.406h-10.312z"/>
</defs>
<g transform="translate(1158.9 612.27) scale(.1 -.1)">
<use xlink:href="#e"/>
</g>
</g>
<g clip-path="url(#a)">
<defs>
<path id="c" d="m12.406 8.2969h16.109v55.625l-17.531-3.5156v8.9844l17.438 3.5156h9.8594v-64.609h16.109v-8.2969h-41.984z"/>
</defs>
<g transform="translate(676.92 33.244) scale(.1 -.1)">
<use xlink:href="#c"/>
<use x="63.623047" xlink:href="#e"/>
<use x="95.410156" xlink:href="#c"/>
</g>
</g>
<g clip-path="url(#a)">
<defs>
<path id="m" d="m19.188 8.2969h34.422v-8.2969h-46.281v8.2969q5.6094 5.8125 15.297 15.594 9.7031 9.7969 12.188 12.641 4.7344 5.3125 6.6094 9 1.8906 3.6875 1.8906 7.25 0 5.8125-4.0781 9.4688-4.0781 3.6719-10.625 3.6719-4.6406 0-9.7969-1.6094-5.1406-1.6094-11-4.8906v9.9688q5.9531 2.3906 11.125 3.6094 5.1875 1.2188 9.4844 1.2188 11.328 0 18.062-5.6719 6.7344-5.6562 6.7344-15.125 0-4.5-1.6875-8.5312-1.6719-4.0156-6.125-9.4844-1.2188-1.4219-7.7656-8.1875-6.5312-6.7656-18.453-18.922z"/>
</defs>
<g transform="translate(401.88 181.09) scale(.1 -.1)">
<use xlink:href="#c"/>
<use x="63.623047" xlink:href="#e"/>
<use x="95.410156" xlink:href="#m"/>
</g>
</g>
<g clip-path="url(#a)">
<defs>
<path id="t" d="m40.578 39.312q7.0781-1.5156 11.047-6.3125 3.9844-4.7812 3.9844-11.812 0-10.781-7.4219-16.703-7.4219-5.9062-21.094-5.9062-4.5781 0-9.4375 0.90625t-10.031 2.7188v9.5156q4.0938-2.3906 8.9688-3.6094 4.8906-1.2188 10.219-1.2188 9.2656 0 14.125 3.6562t4.8594 10.641q0 6.4531-4.5156 10.078-4.5156 3.6406-12.562 3.6406h-8.5v8.1094h8.8906q7.2656 0 11.125 2.9062t3.8594 8.375q0 5.6094-3.9844 8.6094-3.9688 3.0156-11.391 3.0156-4.0625 0-8.7031-0.89062-4.6406-0.875-10.203-2.7188v8.7812q5.625 1.5625 10.531 2.3438t9.25 0.78125q11.234 0 17.766-5.1094 6.5469-5.0938 6.5469-13.781 0-6.0625-3.4688-10.234t-9.8594-5.7812z"/>
</defs>
<g transform="translate(95.609 469.21) scale(.1 -.1)">
<use xlink:href="#c"/>
<use x="63.623047" xlink:href="#e"/>
<use x="95.410156" xlink:href="#t"/>
</g>
</g>
<g clip-path="url(#a)">
<defs>
<path id="ag" d="m37.797 64.312-24.906-38.922h24.906zm-2.5938 8.5938h12.406v-47.516h10.406v-8.2031h-10.406v-17.188h-9.8125v17.188h-32.906v9.5156z"/>
</defs>
<g transform="translate(47.568 469.21) scale(.1 -.1)">
<use xlink:href="#c"/>
<use x="63.623047" xlink:href="#e"/>
<use x="95.410156" xlink:href="#ag"/>
</g>
</g>
<g clip-path="url(#a)">
<defs>
<path id="af" d="m10.797 72.906h38.719v-8.3125h-29.688v-17.859q2.1406 0.73438 4.2812 1.0938 2.1562 0.35938 4.3125 0.35938 12.203 0 19.328-6.6875 7.1406-6.6875 7.1406-18.109 0-11.766-7.3281-18.297-7.3281-6.5156-20.656-6.5156-4.5938 0-9.3594 0.78125-4.75 0.78125-9.8281 2.3438v9.9219q4.3906-2.3906 9.0781-3.5625t9.9062-1.1719q8.4531 0 13.375 4.4375 4.9375 4.4375 4.9375 12.062 0 7.6094-4.9375 12.047-4.9219 4.4531-13.375 4.4531-3.9531 0-7.8906-0.875-3.9219-0.875-8.0156-2.7344z"/>
</defs>
<g transform="translate(311.8 326.15) scale(.1 -.1)">
<use xlink:href="#c"/>
<use x="63.623047" xlink:href="#e"/>
<use x="95.410156" xlink:href="#af"/>
</g>
</g>
<g clip-path="url(#a)">
<defs>
<path id="ae" d="m33.016 40.375q-6.6406 0-10.531-4.5469-3.875-4.5312-3.875-12.438 0-7.8594 3.875-12.438 3.8906-4.5625 10.531-4.5625t10.516 4.5625q3.875 4.5781 3.875 12.438 0 7.9062-3.875 12.438-3.875 4.5469-10.516 4.5469zm19.578 30.922v-8.9844q-3.7188 1.75-7.5 2.6719-3.7812 0.9375-7.5 0.9375-9.7656 0-14.922-6.5938-5.1406-6.5938-5.875-19.922 2.875 4.25 7.2188 6.5156 4.3594 2.2656 9.5781 2.2656 10.984 0 17.359-6.6719 6.375-6.6562 6.375-18.125 0-11.234-6.6406-18.031-6.6406-6.7812-17.672-6.7812-12.656 0-19.344 9.6875-6.6875 9.7031-6.6875 28.109 0 17.281 8.2031 27.562t22.016 10.281q3.7188 0 7.5-0.73438t7.8906-2.1875z"/>
</defs>
<g transform="translate(479.94 469.21) scale(.1 -.1)">
<use xlink:href="#c"/>
<use x="63.623047" xlink:href="#e"/>
<use x="95.410156" xlink:href="#ae"/>
</g>
</g>
<g clip-path="url(#a)">
<defs>
<path id="ad" d="m8.2031 72.906h46.875v-4.2031l-26.469-68.703h-10.297l24.906 64.594h-35.016z"/>
</defs>
<g transform="translate(527.99 469.21) scale(.1 -.1)">
<use xlink:href="#c"/>
<use x="63.623047" xlink:href="#e"/>
<use x="95.410156" xlink:href="#ad"/>
</g>
</g>
<g clip-path="url(#a)">
<defs>
<path id="ac" d="m31.781 34.625q-7.0312 0-11.062-3.7656-4.0156-3.7656-4.0156-10.344 0-6.5938 4.0156-10.359 4.0312-3.7656 11.062-3.7656t11.078 3.7812q4.0625 3.7969 4.0625 10.344 0 6.5781-4.0312 10.344-4.0156 3.7656-11.109 3.7656zm-9.8594 4.1875q-6.3438 1.5625-9.8906 5.9062-3.5312 4.3594-3.5312 10.609 0 8.7344 6.2188 13.812 6.2344 5.0781 17.062 5.0781 10.891 0 17.094-5.0781t6.2031-13.812q0-6.25-3.5469-10.609-3.5312-4.3438-9.8281-5.9062 7.125-1.6562 11.094-6.5 3.9844-4.8281 3.9844-11.797 0-10.609-6.4688-16.281-6.4688-5.6562-18.531-5.6562-12.047 0-18.531 5.6562-6.4688 5.6719-6.4688 16.281 0 6.9688 4 11.797 4.0156 4.8438 11.141 6.5zm-3.6094 15.578q0-5.6562 3.5312-8.8281 3.5469-3.1719 9.9375-3.1719 6.3594 0 9.9375 3.1719 3.5938 3.1719 3.5938 8.8281 0 5.6719-3.5938 8.8438-3.5781 3.1719-9.9375 3.1719-6.3906 0-9.9375-3.1719-3.5312-3.1719-3.5312-8.8438z"/>
</defs>
<g transform="translate(654.1 181.09) scale(.1 -.1)">
<use xlink:href="#c"/>
<use x="63.623047" xlink:href="#e"/>
<use x="95.410156" xlink:href="#ac"/>
</g>
</g>
<g clip-path="url(#a)">
<defs>
<path id="ab" d="m10.984 1.5156v8.9844q3.7188-1.7656 7.5156-2.6875 3.8125-0.92188 7.4844-0.92188 9.7656 0 14.906 6.5625 5.1562 6.5625 5.8906 19.953-2.8281-4.2031-7.1875-6.4531-4.3438-2.25-9.6094-2.25-10.938 0-17.312 6.6094-6.375 6.625-6.375 18.109 0 11.219 6.6406 18 6.6406 6.7969 17.672 6.7969 12.656 0 19.312-9.7031 6.6719-9.6875 6.6719-28.141 0-17.234-8.1875-27.516-8.1719-10.281-21.984-10.281-3.7188 0-7.5312 0.73438-3.7969 0.73438-7.9062 2.2031zm19.625 30.906q6.6406 0 10.516 4.5312 3.8906 4.5469 3.8906 12.469 0 7.8594-3.8906 12.422-3.875 4.5625-10.516 4.5625t-10.516-4.5625-3.875-12.422q0-7.9219 3.875-12.469 3.875-4.5312 10.516-4.5312z"/>
</defs>
<g transform="translate(672.11 469.21) scale(.1 -.1)">
<use xlink:href="#c"/>
<use x="63.623047" xlink:href="#e"/>
<use x="95.410156" xlink:href="#ab"/>
</g>
</g>
<g clip-path="url(#a)">
<defs>
<path id="ah" d="m31.781 66.406q-7.6094 0-11.453-7.5-3.8281-7.4844-3.8281-22.531 0-14.984 3.8281-22.484 3.8438-7.5 11.453-7.5 7.6719 0 11.5 7.5 3.8438 7.5 3.8438 22.484 0 15.047-3.8438 22.531-3.8281 7.5-11.5 7.5zm0 7.8125q12.266 0 18.734-9.7031 6.4688-9.6875 6.4688-28.141 0-18.406-6.4688-28.109-6.4688-9.6875-18.734-9.6875-12.25 0-18.719 9.6875-6.4688 9.7031-6.4688 28.109 0 18.453 6.4688 28.141 6.4688 9.7031 18.719 9.7031z"/>
</defs>
<g transform="translate(1149.3 469.21) scale(.1 -.1)">
<use xlink:href="#c"/>
<use x="63.623047" xlink:href="#e"/>
<use x="95.410156" xlink:href="#c"/>
<use x="159.033203" xlink:href="#ah"/>
</g>
</g>
<g clip-path="url(#a)">
<g transform="translate(140.47 469.21) scale(.1 -.1)">
<use xlink:href="#c"/>
<use x="63.623047" xlink:href="#e"/>
<use x="95.410156" xlink:href="#c"/>
<use x="159.033203" xlink:href="#c"/>
</g>
</g>
<g clip-path="url(#a)">
<g transform="translate(188.51 469.21) scale(.1 -.1)">
<use xlink:href="#c"/>
<use x="63.623047" xlink:href="#e"/>
<use x="95.410156" xlink:href="#c"/>
<use x="159.033203" xlink:href="#m"/>
</g>
</g>
<g clip-path="url(#a)">
<g transform="translate(236.55 469.21) scale(.1 -.1)">
<use xlink:href="#c"/>
<use x="63.623047" xlink:href="#e"/>
<use x="95.410156" xlink:href="#c"/>
<use x="159.033203" xlink:href="#t"/>
</g>
</g>
<g clip-path="url(#a)">
<g transform="translate(284.6 469.21) scale(.1 -.1)">
<use xlink:href="#c"/>
<use x="63.623047" xlink:href="#e"/>
<use x="95.410156" xlink:href="#c"/>
<use x="159.033203" xlink:href="#ag"/>
</g>
</g>
<g clip-path="url(#a)">
<g transform="translate(332.64 469.21) scale(.1 -.1)">
<use xlink:href="#c"/>
<use x="63.623047" xlink:href="#e"/>
<use x="95.410156" xlink:href="#c"/>
<use x="159.033203" xlink:href="#af"/>
</g>
</g>
<g clip-path="url(#a)">
<g transform="translate(380.68 469.21) scale(.1 -.1)">
<use xlink:href="#c"/>
<use x="63.623047" xlink:href="#e"/>
<use x="95.410156" xlink:href="#c"/>
<use x="159.033203" xlink:href="#ae"/>
</g>
</g>
<g clip-path="url(#a)">
<g transform="translate(428.72 469.21) scale(.1 -.1)">
<use xlink:href="#c"/>
<use x="63.623047" xlink:href="#e"/>
<use x="95.410156" xlink:href="#c"/>
<use x="159.033203" xlink:href="#ad"/>
</g>
</g>
<g clip-path="url(#a)">
<g transform="translate(572.85 469.21) scale(.1 -.1)">
<use xlink:href="#c"/>
<use x="63.623047" xlink:href="#e"/>
<use x="95.410156" xlink:href="#c"/>
<use x="159.033203" xlink:href="#ac"/>
</g>
</g>
<g clip-path="url(#a)">
<g transform="translate(620.89 469.21) scale(.1 -.1)">
<use xlink:href="#c"/>
<use x="63.623047" xlink:href="#e"/>
<use x="95.410156" xlink:href="#c"/>
<use x="159.033203" xlink:href="#ab"/>
</g>
</g>
<g clip-path="url(#a)">
<g transform="translate(740.99 326.15) scale(.1 -.1)">
<use xlink:href="#c"/>
<use x="63.623047" xlink:href="#e"/>
<use x="95.410156" xlink:href="#m"/>
<use x="159.033203" xlink:href="#ah"/>
</g>
</g>
<g clip-path="url(#a)">
<g transform="translate(765.01 469.21) scale(.1 -.1)">
<use xlink:href="#c"/>
<use x="63.623047" xlink:href="#e"/>
<use x="95.410156" xlink:href="#m"/>
<use x="159.033203" xlink:href="#c"/>
</g>
</g>
<g clip-path="url(#a)">
<g transform="translate(813.06 469.21) scale(.1 -.1)">
<use xlink:href="#c"/>
<use x="63.623047" xlink:href="#e"/>
<use x="95.410156" xlink:href="#m"/>
<use x="159.033203" xlink:href="#m"/>
</g>
</g>
<g clip-path="url(#a)">
<g transform="translate(981.2 326.15) scale(.1 -.1)">
<use xlink:href="#c"/>
<use x="63.623047" xlink:href="#e"/>
<use x="95.410156" xlink:href="#m"/>
<use x="159.033203" xlink:href="#t"/>
</g>
</g>
<g clip-path="url(#a)">
<g transform="translate(1101.3 469.21) scale(.1 -.1)">
<use xlink:href="#c"/>
<use x="63.623047" xlink:href="#e"/>
<use x="95.410156" xlink:href="#m"/>
<use x="159.033203" xlink:href="#ag"/>
</g>
</g>
<g clip-path="url(#a)">
<g transform="translate(716.97 469.21) scale(.1 -.1)">
<use xlink:href="#c"/>
<use x="63.623047" xlink:href="#e"/>
<use x="95.410156" xlink:href="#m"/>
<use x="159.033203" xlink:href="#af"/>
</g>
</g>
<g clip-path="url(#a)">
<g transform="translate(861.1 469.21) scale(.1 -.1)">
<use xlink:href="#c"/>
<use x="63.623047" xlink:href="#e"/>
<use x="95.410156" xlink:href="#m"/>
<use x="159.033203" xlink:href="#ae"/>
</g>
</g>
<g clip-path="url(#a)">
<g transform="translate(909.14 469.21) scale(.1 -.1)">
<use xlink:href="#c"/>
<use x="63.623047" xlink:href="#e"/>
<use x="95.410156" xlink:href="#m"/>
<use x="159.033203" xlink:href="#ad"/>
</g>
</g>
<g clip-path="url(#a)">
<g transform="translate(957.18 469.21) scale(.1 -.1)">
<use xlink:href="#c"/>
<use x="63.623047" xlink:href="#e"/>
<use x="95.410156" xlink:href="#m"/>
<use x="159.033203" xlink:href="#ac"/>
</g>
</g>
<g clip-path="url(#a)">
<g transform="translate(1005.2 469.21) scale(.1 -.1)">
<use xlink:href="#c"/>
<use x="63.623047" xlink:href="#e"/>
<use x="95.410156" xlink:href="#m"/>
<use x="159.033203" xlink:href="#ab"/>
</g>
</g>
<g clip-path="url(#a)">
<g transform="translate(1053.3 469.21) scale(.1 -.1)">
<use xlink:href="#c"/>
<use x="63.623047" xlink:href="#e"/>
<use x="95.410156" xlink:href="#t"/>
<use x="159.033203" xlink:href="#ah"/>
</g>
</g>
<defs>
<clipPath id="a">
<rect width="1216" height="640"/>
</clipPath>
</defs>
</svg>
