<?xml version="1.0" encoding="UTF-8"?>
<!DOCTYPE svg  PUBLIC '-//W3C//DTD SVG 1.1//EN'  'http://www.w3.org/Graphics/SVG/1.1/DTD/svg11.dtd'>
<svg width="1317.3pt" height="693.33pt" version="1.1" viewBox="0 0 1317.3 693.33" xmlns="http://www.w3.org/2000/svg" xmlns:xlink="http://www.w3.org/1999/xlink">
<defs>
<style type="text/css">*{stroke-linecap:butt;stroke-linejoin:round;}</style>
</defs>
<path d="m0 693.33h1317.3v-693.33h-1317.3z" fill="#fff"/>
<g fill="none" stroke="#000">
<path d="m407.37 32.29v95.908" clip-path="url(#a)"/>
<path d="m407.37 128.2-203.61 446.74" clip-path="url(#a)"/>
<path d="m407.37 128.2-347.26 446.74" clip-path="url(#a)"/>
<path d="m407.37 128.2-299.38 446.74" clip-path="url(#a)"/>
<path d="m407.37 128.2-251.49 446.74" clip-path="url(#a)"/>
<path d="m407.37 128.2 251.87 93.33" clip-path="url(#a)"/>
<path d="m407.37 128.2 849.86 446.74" clip-path="url(#a)"/>
<path d="m203.76 574.94v86.107" clip-path="url(#a)"/>
<path d="m60.105 574.94v86.107" clip-path="url(#a)"/>
<path d="m107.99 574.94v86.107" clip-path="url(#a)"/>
<path d="m155.88 574.94v86.107" clip-path="url(#a)"/>
<path d="m659.24 221.53-407.59 353.41" clip-path="url(#a)"/>
<path d="m659.24 221.53-186.12 180" clip-path="url(#a)"/>
<path d="m659.24 221.53-359.71 353.41" clip-path="url(#a)"/>
<path d="m659.24 221.53-24.513 353.41" clip-path="url(#a)"/>
<path d="m659.24 221.53 147.08 180" clip-path="url(#a)"/>
<path d="m659.24 221.53 358.57 353.41" clip-path="url(#a)"/>
<path d="m659.24 221.53 472.29 91.013" clip-path="url(#a)"/>
<path d="m251.65 574.94v86.107" clip-path="url(#a)"/>
<path d="m1257.2 574.94v86.107" clip-path="url(#a)"/>
<path d="m473.11 401.53-125.7 173.41" clip-path="url(#a)"/>
<path d="m473.11 401.53-29.928 87.305" clip-path="url(#a)"/>
<path d="m473.11 401.53 41.899 87.305" clip-path="url(#a)"/>
<path d="m473.11 401.53 113.73 173.41" clip-path="url(#a)"/>
<path d="m347.41 574.94v86.107" clip-path="url(#a)"/>
<path d="m299.53 574.94v86.107" clip-path="url(#a)"/>
<path d="m443.18 488.83 47.885 86.107" clip-path="url(#a)"/>
<path d="m443.18 488.83-47.885 86.107" clip-path="url(#a)"/>
<path d="m443.18 488.83v86.107" clip-path="url(#a)"/>
<path d="m491.07 574.94v86.107" clip-path="url(#a)"/>
<path d="m515.01 488.83-23.942 86.107" clip-path="url(#a)" stroke-dasharray="3.7,1.6"/>
<path d="m515.01 488.83 23.942 86.107" clip-path="url(#a)"/>
<path d="m538.95 574.94v86.107" clip-path="url(#a)"/>
<path d="m586.84 574.94v86.107" clip-path="url(#a)"/>
<path d="m634.72 574.94v86.107" clip-path="url(#a)"/>
<path d="m806.31 401.53 67.837 173.41" clip-path="url(#a)"/>
<path d="m806.31 401.53-123.7 173.41" clip-path="url(#a)"/>
<path d="m806.31 401.53-75.818 173.41" clip-path="url(#a)"/>
<path d="m806.31 401.53-27.933 173.41" clip-path="url(#a)"/>
<path d="m806.31 401.53 19.952 173.41" clip-path="url(#a)"/>
<path d="m806.31 401.53 139.66 87.305" clip-path="url(#a)"/>
<path d="m874.15 574.94v86.107" clip-path="url(#a)"/>
<path d="m395.3 574.94v86.107" clip-path="url(#a)"/>
<path d="m443.18 574.94v86.107" clip-path="url(#a)"/>
<path d="m682.61 574.94v86.107" clip-path="url(#a)"/>
<path d="m730.49 574.94v86.107" clip-path="url(#a)"/>
<path d="m778.38 574.94v86.107" clip-path="url(#a)"/>
<path d="m826.26 574.94v86.107" clip-path="url(#a)"/>
<path d="m945.98 488.83 23.942 86.107" clip-path="url(#a)"/>
<path d="m945.98 488.83-23.942 86.107" clip-path="url(#a)"/>
<path d="m969.92 574.94v86.107" clip-path="url(#a)"/>
<path d="m1017.8 574.94v86.107" clip-path="url(#a)"/>
<path d="m1131.5 312.54-17.957 262.4" clip-path="url(#a)"/>
<path d="m1131.5 312.54-65.842 262.4" clip-path="url(#a)"/>
<path d="m1131.5 312.54 29.928 262.4" clip-path="url(#a)"/>
<path d="m1131.5 312.54 53.871 88.986" clip-path="url(#a)"/>
<path d="m1113.6 574.94v86.107" clip-path="url(#a)"/>
<path d="m922.03 574.94v86.107" clip-path="url(#a)"/>
<path d="m1065.7 574.94v86.107" clip-path="url(#a)"/>
<path d="m1161.5 574.94v86.107" clip-path="url(#a)"/>
<path d="m1185.4 488.83-23.942 86.107" clip-path="url(#a)" stroke-dasharray="3.7,1.6"/>
<path d="m1185.4 488.83 23.942 86.107" clip-path="url(#a)"/>
<path d="m1209.3 574.94v86.107" clip-path="url(#a)"/>
<path d="m1185.4 401.53v87.305" clip-path="url(#a)"/>
</g>
<path d="m401.09 77.235v6.0162q0 2.4 2.4 2.4h7.7425q2.4 0 2.4-2.4v-6.0162q0-2.4-2.4-2.4h-7.7425q-2.4 0-2.4 2.4z" clip-path="url(#a)" fill="#fff" stroke="#fff"/>
<g clip-path="url(#a)">
<defs>
<path id="ab" d="m9.8125 72.906h9.8594v-29.891h35.844v29.891h9.8594v-72.906h-9.8594v34.719h-35.844v-34.719h-9.8594z"/>
</defs>
<g transform="translate(405.16 77.235) rotate(90) scale(.08 -.08)">
<use xlink:href="#ab"/>
</g>
</g>
<path d="m310.27 356.36 2.0005-4.3894q0.99532-2.1839-1.1886-3.1792l-7.0453-3.211q-2.1839-0.99532-3.1792 1.1886l-2.0005 4.3894q-0.99532 2.1839 1.1886 3.1792l7.0453 3.211q2.1839 0.99532 3.1792-1.1886z" clip-path="url(#a)" fill="#fff" stroke="#fff"/>
<g clip-path="url(#a)">
<defs>
<path id="s" d="m19.672 64.797v-27.391h12.406q6.8906 0 10.641 3.5625 3.7656 3.5625 3.7656 10.156 0 6.5469-3.7656 10.109-3.75 3.5625-10.641 3.5625zm-9.8594 8.1094h22.266q12.266 0 18.531-5.5469 6.2812-5.5469 6.2812-16.234 0-10.797-6.2812-16.312-6.2656-5.5156-18.531-5.5156h-12.406v-29.297h-9.8594z"/>
</defs>
<g transform="translate(306.57 354.68) rotate(-65.498) scale(.08 -.08)">
<use xlink:href="#s"/>
</g>
</g>
<path d="m237.01 357.58 3.3586-4.3207q1.4729-1.8949-0.42194-3.3678l-6.1129-4.7517q-1.8949-1.4729-3.3678 0.42195l-3.3586 4.3207q-1.4729 1.8949 0.42195 3.3678l6.1129 4.7517q1.8949 1.4729 3.3678-0.42195z" clip-path="url(#a)" fill="#fff" stroke="#fff"/>
<g clip-path="url(#a)">
<defs>
<path id="p" d="m34.188 63.188-13.391-36.281h26.812zm-5.5781 9.7188h11.188l27.781-72.906h-10.25l-6.6406 18.703h-32.859l-6.6406-18.703h-10.406z"/>
</defs>
<g transform="translate(233.8 355.08) rotate(-52.141) scale(.08 -.08)">
<use xlink:href="#p"/>
</g>
</g>
<path d="m261.61 356.97 2.5615-3.8223q1.3361-1.9937-0.65766-3.3298l-6.4318-4.3102q-1.9937-1.3361-3.3298 0.65766l-2.5615 3.8223q-1.3361 1.9937 0.65766 3.3298l6.4318 4.3102q1.9937 1.3361 3.3298-0.65766z" clip-path="url(#a)" fill="#fff" stroke="#fff"/>
<g clip-path="url(#a)">
<defs>
<path id="aj" d="m9.8125 72.906h41.891v-8.3125h-32.031v-21.484h28.906v-8.2969h-28.906v-34.812h-9.8594z"/>
</defs>
<g transform="translate(258.23 354.71) rotate(-56.173) scale(.08 -.08)">
<use xlink:href="#aj"/>
</g>
</g>
<path d="m285.57 357.33 3.0218-5.3679q1.1773-2.0914-0.91405-3.2687l-6.7469-3.7981q-2.0914-1.1773-3.2687 0.91405l-3.0218 5.3679q-1.1773 2.0914 0.91404 3.2687l6.7469 3.7981q2.0914 1.1773 3.2687-0.91405z" clip-path="url(#a)" fill="#fff" stroke="#fff"/>
<g clip-path="url(#a)">
<defs>
<path id="ak" d="m19.672 64.797v-56.688h11.922q15.094 0 22.094 6.8281 7 6.8438 7 21.594 0 14.641-7 21.453t-22.094 6.8125zm-9.8594 8.1094h20.266q21.188 0 31.094-8.8125 9.9219-8.8125 9.9219-27.562 0-18.859-9.9688-27.703-9.9531-8.8281-31.047-8.8281h-20.266z"/>
</defs>
<g transform="translate(282.03 355.33) rotate(-60.623) scale(.08 -.08)">
<use xlink:href="#ak"/>
</g>
</g>
<path d="m528.56 179.79 5.1315 1.9015q2.2505 0.8339 3.0844-1.4166l2.6902-7.2601q0.8339-2.2505-1.4166-3.0844l-5.1315-1.9015q-2.2505-0.8339-3.0844 1.4166l-2.6902 7.2601q-0.8339 2.2505 1.4166 3.0844z" clip-path="url(#a)" fill="#fff" stroke="#fff"/>
<g clip-path="url(#a)">
<g transform="translate(529.97 175.98) rotate(20.332) scale(.08 -.08)">
<use xlink:href="#p"/>
</g>
</g>
<path d="m826.79 355.76 5.1826 2.7243q2.1244 1.1167 3.2411-1.0077l3.6025-6.8533q1.1167-2.1244-1.0077-3.2411l-5.1826-2.7243q-2.1244-1.1167-3.2411 1.0077l-3.6025 6.8533q-1.1167 2.1244 1.0077 3.2411z" clip-path="url(#a)" fill="#fff" stroke="#fff"/>
<g clip-path="url(#a)">
<defs>
<path id="z" d="m8.6875 72.906h9.9219v-44.297q0-11.719 4.2344-16.875 4.25-5.1406 13.781-5.1406 9.4688 0 13.719 5.1406 4.25 5.1562 4.25 16.875v44.297h9.9062v-45.516q0-14.25-7.0625-21.531-7.0469-7.2812-20.812-7.2812-13.828 0-20.891 7.2812-7.0469 7.2812-7.0469 21.531z"/>
</defs>
<g transform="translate(828.68 352.16) rotate(27.729) scale(.08 -.08)">
<use xlink:href="#z"/>
</g>
</g>
<path d="m197.49 600.35v35.285q0 2.4 2.4 2.4h7.7425q2.4 0 2.4-2.4v-35.285q0-2.4-2.4-2.4h-7.7425q-2.4 0-2.4 2.4z" clip-path="url(#a)" fill="#fff" stroke="#fff"/>
<g clip-path="url(#a)">
<defs>
<path id="k" d="m-0.29688 72.906h61.672v-8.3125h-25.875v-64.594h-9.9062v64.594h-25.891z"/>
<path id="d" d="m56.203 29.594v-4.3906h-41.312q0.59375-9.2812 5.5938-14.141t13.938-4.8594q5.1719 0 10.031 1.2656t9.6562 3.8125v-8.5q-4.8438-2.0469-9.9219-3.125t-10.297-1.0781q-13.094 0-20.734 7.6094-7.6406 7.625-7.6406 20.625 0 13.422 7.25 21.297 7.25 7.8906 19.562 7.8906 11.031 0 17.453-7.1094 6.4219-7.0938 6.4219-19.297zm-8.9844 2.6406q-0.09375 7.3594-4.125 11.75-4.0312 4.4062-10.672 4.4062-7.5156 0-12.031-4.25t-5.2031-11.969z"/>
<path id="h" d="m41.109 46.297q-1.5156 0.875-3.2969 1.2812-1.7812 0.42188-3.9219 0.42188-7.625 0-11.703-4.9531t-4.0781-14.234v-28.812h-9.0312v54.688h9.0312v-8.5q2.8438 4.9844 7.375 7.3906 4.5469 2.4219 11.047 2.4219 0.92188 0 2.0469-0.125 1.125-0.10938 2.4844-0.35938z"/>
<path id="f" d="m52 44.188q3.375 6.0625 8.0625 8.9375t11.031 2.875q8.5469 0 13.188-5.9844 4.6406-5.9688 4.6406-17v-33.016h-9.0312v32.719q0 7.8594-2.7969 11.656-2.7812 3.8125-8.4844 3.8125-6.9844 0-11.047-4.6406-4.0469-4.625-4.0469-12.641v-30.906h-9.0312v32.719q0 7.9062-2.7812 11.688t-8.5938 3.7812q-6.8906 0-10.953-4.6562-4.0469-4.6562-4.0469-12.625v-30.906h-9.0312v54.688h9.0312v-8.5q3.0781 5.0312 7.375 7.4219t10.203 2.3906q5.9688 0 10.141-3.0312 4.1719-3.0156 6.1719-8.7812z"/>
<path id="j" d="m9.4219 54.688h8.9844v-54.688h-8.9844zm0 21.297h8.9844v-11.391h-8.9844z"/>
<path id="i" d="m54.891 33.016v-33.016h-8.9844v32.719q0 7.7656-3.0312 11.609-3.0312 3.8594-9.0781 3.8594-7.2812 0-11.484-4.6406-4.2031-4.625-4.2031-12.641v-30.906h-9.0312v54.688h9.0312v-8.5q3.2344 4.9375 7.5938 7.375 4.375 2.4375 10.094 2.4375 9.4219 0 14.25-5.8281 4.8438-5.8281 4.8438-17.156z"/>
<path id="g" d="m34.281 27.484q-10.891 0-15.094-2.4844t-4.2031-8.5q0-4.7812 3.1562-7.5938 3.1562-2.7969 8.5625-2.7969 7.4844 0 12 5.2969t4.5156 14.078v2zm17.922 3.7188v-31.203h-8.9844v8.2969q-3.0781-4.9688-7.6719-7.3438t-11.234-2.375q-8.3906 0-13.359 4.7188-4.9531 4.7188-4.9531 12.625 0 9.2188 6.1719 13.906 6.1875 4.6875 18.438 4.6875h12.609v0.89062q0 6.2031-4.0781 9.5938t-11.453 3.3906q-4.6875 0-9.1406-1.125-4.4375-1.125-8.5312-3.375v8.3125q4.9219 1.9062 9.5625 2.8438 4.6406 0.95312 9.0312 0.95312 11.875 0 17.734-6.1562 5.8594-6.1406 5.8594-18.641z"/>
<path id="l" d="m9.4219 75.984h8.9844v-75.984h-8.9844z"/>
</defs>
<g transform="translate(201.55 600.35) rotate(90) scale(.08 -.08)">
<use xlink:href="#k"/>
<use x="60.818359" xlink:href="#d"/>
<use x="122.341797" xlink:href="#h"/>
<use x="163.439453" xlink:href="#f"/>
<use x="260.851562" xlink:href="#j"/>
<use x="288.634766" xlink:href="#i"/>
<use x="352.013672" xlink:href="#g"/>
<use x="413.292969" xlink:href="#l"/>
</g>
</g>
<path d="m53.834 600.35v35.285q0 2.4 2.4 2.4h7.7425q2.4 0 2.4-2.4v-35.285q0-2.4-2.4-2.4h-7.7425q-2.4 0-2.4 2.4z" clip-path="url(#a)" fill="#fff" stroke="#fff"/>
<g clip-path="url(#a)">
<g transform="translate(57.898 600.35) rotate(90) scale(.08 -.08)">
<use xlink:href="#k"/>
<use x="60.818359" xlink:href="#d"/>
<use x="122.341797" xlink:href="#h"/>
<use x="163.439453" xlink:href="#f"/>
<use x="260.851562" xlink:href="#j"/>
<use x="288.634766" xlink:href="#i"/>
<use x="352.013672" xlink:href="#g"/>
<use x="413.292969" xlink:href="#l"/>
</g>
</g>
<path d="m101.72 600.35v35.285q0 2.4 2.4 2.4h7.7425q2.4 0 2.4-2.4v-35.285q0-2.4-2.4-2.4h-7.7425q-2.4 0-2.4 2.4z" clip-path="url(#a)" fill="#fff" stroke="#fff"/>
<g clip-path="url(#a)">
<g transform="translate(105.78 600.35) rotate(90) scale(.08 -.08)">
<use xlink:href="#k"/>
<use x="60.818359" xlink:href="#d"/>
<use x="122.341797" xlink:href="#h"/>
<use x="163.439453" xlink:href="#f"/>
<use x="260.851562" xlink:href="#j"/>
<use x="288.634766" xlink:href="#i"/>
<use x="352.013672" xlink:href="#g"/>
<use x="413.292969" xlink:href="#l"/>
</g>
</g>
<path d="m149.6 600.35v35.285q0 2.4 2.4 2.4h7.7425q2.4 0 2.4-2.4v-35.285q0-2.4-2.4-2.4h-7.7425q-2.4 0-2.4 2.4z" clip-path="url(#a)" fill="#fff" stroke="#fff"/>
<g clip-path="url(#a)">
<g transform="translate(153.67 600.35) rotate(90) scale(.08 -.08)">
<use xlink:href="#k"/>
<use x="60.818359" xlink:href="#d"/>
<use x="122.341797" xlink:href="#h"/>
<use x="163.439453" xlink:href="#f"/>
<use x="260.851562" xlink:href="#j"/>
<use x="288.634766" xlink:href="#i"/>
<use x="352.013672" xlink:href="#g"/>
<use x="413.292969" xlink:href="#l"/>
</g>
</g>
<path d="m457.44 404.8 4.2206-3.6596q1.8133-1.5722 0.24104-3.3855l-5.0721-5.8498q-1.5722-1.8133-3.3855-0.24104l-4.2206 3.6596q-1.8133 1.5722-0.24104 3.3855l5.0721 5.8498q1.5722 1.8133 3.3855 0.24104z" clip-path="url(#a)" fill="#fff" stroke="#fff"/>
<g clip-path="url(#a)">
<defs>
<path id="ad" d="m64.406 67.281v-10.391q-4.9844 4.6406-10.625 6.9219-5.6406 2.2969-11.984 2.2969-12.5 0-19.141-7.6406t-6.6406-22.094q0-14.406 6.6406-22.047t19.141-7.6406q6.3438 0 11.984 2.2969t10.625 6.9375v-10.312q-5.1719-3.5156-10.969-5.2812-5.7812-1.75-12.219-1.75-16.562 0-26.094 10.125-9.5156 10.141-9.5156 27.672 0 17.578 9.5156 27.703 9.5312 10.141 26.094 10.141 6.5312 0 12.312-1.7344 5.7969-1.7344 10.875-5.2031z"/>
</defs>
<g transform="translate(454.78 401.73) rotate(-40.928) scale(.08 -.08)">
<use xlink:href="#ad"/>
</g>
</g>
<path d="m568.72 317.79 3.6337-3.5141q1.7252-1.6684 0.056775-3.3936l-5.3824-5.5656q-1.6684-1.7252-3.3936-0.056775l-3.6337 3.5141q-1.7252 1.6684-0.056776 3.3936l5.3824 5.5656q1.6684 1.7252 3.3936 0.056775z" clip-path="url(#a)" fill="#fff" stroke="#fff"/>
<g clip-path="url(#a)">
<defs>
<path id="ac" d="m9.8125 72.906h46.094v-8.3125h-36.234v-21.578h34.719v-8.2969h-34.719v-26.422h37.109v-8.2969h-46.969z"/>
</defs>
<g transform="translate(565.89 314.87) rotate(-44.042) scale(.08 -.08)">
<use xlink:href="#ac"/>
</g>
</g>
<path d="m482.19 404.27 3.1796-3.124q1.712-1.682 0.029969-3.394l-5.4262-5.5229q-1.682-1.712-3.394-0.029969l-3.1796 3.124q-1.712 1.682-0.029969 3.394l5.4262 5.5229q1.682 1.712 3.394 0.029968z" clip-path="url(#a)" fill="#fff" stroke="#fff"/>
<g clip-path="url(#a)">
<defs>
<path id="aa" d="m9.8125 72.906h9.8594v-64.609h35.5v-8.2969h-45.359z"/>
</defs>
<g transform="translate(479.34 401.37) rotate(-44.494) scale(.08 -.08)">
<use xlink:href="#aa"/>
</g>
</g>
<path d="m653.08 400.89 0.30843-4.4468q0.16606-2.3942-2.2282-2.5603l-7.7239-0.53573q-2.3942-0.16606-2.5603 2.2282l-0.30843 4.4468q-0.16606 2.3942 2.2282 2.5603l7.7239 0.53573q2.3942 0.16606 2.5603-2.2282z" clip-path="url(#a)" fill="#fff" stroke="#fff"/>
<g clip-path="url(#a)">
<g transform="translate(649.03 400.61) rotate(-86.032) scale(.08 -.08)">
<use xlink:href="#aa"/>
</g>
</g>
<path d="m726.01 313.17 3.8067 4.6588q1.5186 1.8585 3.377 0.33994l5.9956-4.8989q1.8585-1.5186 0.33994-3.377l-3.8067-4.6588q-1.5186-1.8585-3.377-0.33994l-5.9956 4.8989q-1.8585 1.5186-0.33994 3.377z" clip-path="url(#a)" fill="#fff" stroke="#fff"/>
<g clip-path="url(#a)">
<g transform="translate(729.16 310.59) rotate(50.748) scale(.08 -.08)">
<use xlink:href="#ab"/>
</g>
</g>
<path d="m832.53 401.13 3.1747 3.129q1.7093 1.6847 3.394-0.024581l5.435-5.5143q1.6847-1.7093-0.024582-3.394l-3.1747-3.129q-1.7093-1.6847-3.394 0.024582l-5.435 5.5143q-1.6847 1.7093 0.024581 3.394z" clip-path="url(#a)" fill="#fff" stroke="#fff"/>
<g clip-path="url(#a)">
<g transform="translate(835.38 398.24) rotate(44.585) scale(.08 -.08)">
<use xlink:href="#aa"/>
</g>
</g>
<path d="m891.24 272.62 5.9076 1.1384q2.3566 0.45414 2.8108-1.9025l1.4651-7.6026q0.45414-2.3566-1.9025-2.8108l-5.9076-1.1384q-2.3566-0.45414-2.8108 1.9025l-1.4651 7.6026q-0.45414 2.3566 1.9025 2.8108z" clip-path="url(#a)" fill="#fff" stroke="#fff"/>
<g clip-path="url(#a)">
<g transform="translate(892.01 268.63) rotate(10.907) scale(.08 -.08)">
<use xlink:href="#ab"/>
</g>
</g>
<path d="m245.37 600.35v35.285q0 2.4 2.4 2.4h7.7425q2.4 0 2.4-2.4v-35.285q0-2.4-2.4-2.4h-7.7425q-2.4 0-2.4 2.4z" clip-path="url(#a)" fill="#fff" stroke="#fff"/>
<g clip-path="url(#a)">
<g transform="translate(249.44 600.35) rotate(90) scale(.08 -.08)">
<use xlink:href="#k"/>
<use x="60.818359" xlink:href="#d"/>
<use x="122.341797" xlink:href="#h"/>
<use x="163.439453" xlink:href="#f"/>
<use x="260.851562" xlink:href="#j"/>
<use x="288.634766" xlink:href="#i"/>
<use x="352.013672" xlink:href="#g"/>
<use x="413.292969" xlink:href="#l"/>
</g>
</g>
<path d="m1251 600.35v35.285q0 2.4 2.4 2.4h7.7425q2.4 0 2.4-2.4v-35.285q0-2.4-2.4-2.4h-7.7425q-2.4 0-2.4 2.4z" clip-path="url(#a)" fill="#fff" stroke="#fff"/>
<g clip-path="url(#a)">
<g transform="translate(1255 600.35) rotate(90) scale(.08 -.08)">
<use xlink:href="#k"/>
<use x="60.818359" xlink:href="#d"/>
<use x="122.341797" xlink:href="#h"/>
<use x="163.439453" xlink:href="#f"/>
<use x="260.851562" xlink:href="#j"/>
<use x="288.634766" xlink:href="#i"/>
<use x="352.013672" xlink:href="#g"/>
<use x="413.292969" xlink:href="#l"/>
</g>
</g>
<path d="m413.93 493.86 2.831-3.9056q1.4085-1.9432-0.53466-3.3517l-6.2688-4.544q-1.9432-1.4085-3.3517 0.53466l-2.831 3.9056q-1.4085 1.9432 0.53466 3.3517l6.2688 4.544q1.9432 1.4085 3.3517-0.53466z" clip-path="url(#a)" fill="#fff" stroke="#fff"/>
<g clip-path="url(#a)">
<g transform="translate(410.64 491.48) rotate(-54.063) scale(.08 -.08)">
<use xlink:href="#s"/>
</g>
</g>
<path d="m463.19 449.8 1.7746-5.1768q0.77826-2.2703-1.492-3.0486l-7.3241-2.5107q-2.2703-0.77826-3.0486 1.492l-1.7746 5.1768q-0.77826 2.2703 1.492 3.0486l7.3241 2.5107q2.2703 0.77826 3.0486-1.492z" clip-path="url(#a)" fill="#fff" stroke="#fff"/>
<g clip-path="url(#a)">
<g transform="translate(459.35 448.48) rotate(-71.078) scale(.08 -.08)">
<use xlink:href="#p"/>
</g>
</g>
<path d="m487.22 445.42 2.3678 4.9337q1.0384 2.1637 3.2021 1.1253l6.9803-3.35q2.1637-1.0384 1.1253-3.2021l-2.3678-4.9337q-1.0384-2.1637-3.2021-1.1253l-6.9803 3.35q-2.1637 1.0384-1.1253 3.2021z" clip-path="url(#a)" fill="#fff" stroke="#fff"/>
<g clip-path="url(#a)">
<g transform="translate(490.89 443.67) rotate(64.363) scale(.08 -.08)">
<use xlink:href="#p"/>
</g>
</g>
<path d="m523.13 489.22 3.2109 4.896q1.3162 2.0069 3.3231 0.69074l6.4744-4.246q2.0069-1.3162 0.69074-3.3231l-3.2109-4.896q-1.3162-2.0069-3.3231-0.69074l-6.4744 4.246q-2.0069 1.3162-0.69074 3.3231z" clip-path="url(#a)" fill="#fff" stroke="#fff"/>
<g clip-path="url(#a)">
<g transform="translate(526.52 486.99) rotate(56.742) scale(.08 -.08)">
<use xlink:href="#z"/>
</g>
</g>
<path d="m341.14 600.35v35.285q0 2.4 2.4 2.4h7.7425q2.4 0 2.4-2.4v-35.285q0-2.4-2.4-2.4h-7.7425q-2.4 0-2.4 2.4z" clip-path="url(#a)" fill="#fff" stroke="#fff"/>
<g clip-path="url(#a)">
<g transform="translate(345.21 600.35) rotate(90) scale(.08 -.08)">
<use xlink:href="#k"/>
<use x="60.818359" xlink:href="#d"/>
<use x="122.341797" xlink:href="#h"/>
<use x="163.439453" xlink:href="#f"/>
<use x="260.851562" xlink:href="#j"/>
<use x="288.634766" xlink:href="#i"/>
<use x="352.013672" xlink:href="#g"/>
<use x="413.292969" xlink:href="#l"/>
</g>
</g>
<path d="m293.26 600.35v35.285q0 2.4 2.4 2.4h7.7425q2.4 0 2.4-2.4v-35.285q0-2.4-2.4-2.4h-7.7425q-2.4 0-2.4 2.4z" clip-path="url(#a)" fill="#fff" stroke="#fff"/>
<g clip-path="url(#a)">
<g transform="translate(297.32 600.35) rotate(90) scale(.08 -.08)">
<use xlink:href="#k"/>
<use x="60.818359" xlink:href="#d"/>
<use x="122.341797" xlink:href="#h"/>
<use x="163.439453" xlink:href="#f"/>
<use x="260.851562" xlink:href="#j"/>
<use x="288.634766" xlink:href="#i"/>
<use x="352.013672" xlink:href="#g"/>
<use x="413.292969" xlink:href="#l"/>
</g>
</g>
<path d="m460.29 532.49 2.715 4.8821q1.1664 2.0975 3.2639 0.93105l6.7666-3.763q2.0975-1.1664 0.93105-3.2639l-2.715-4.8821q-1.1664-2.0975-3.2639-0.93105l-6.7666 3.763q-2.0975 1.1664-0.93105 3.2639z" clip-path="url(#a)" fill="#fff" stroke="#fff"/>
<g clip-path="url(#a)">
<g transform="translate(463.84 530.52) rotate(60.921) scale(.08 -.08)">
<use xlink:href="#ad"/>
</g>
</g>
<path d="m423.49 537.14 2.4568-4.4178q1.1664-2.0975-0.93105-3.2639l-6.7666-3.763q-2.0975-1.1664-3.2639 0.93105l-2.4568 4.4178q-1.1664 2.0975 0.93105 3.2639l6.7666 3.763q2.0975 1.1664 3.2639-0.93105z" clip-path="url(#a)" fill="#fff" stroke="#fff"/>
<g clip-path="url(#a)">
<g transform="translate(419.94 535.17) rotate(-60.921) scale(.08 -.08)">
<use xlink:href="#ac"/>
</g>
</g>
<path d="m436.91 528.96v5.855q0 2.4 2.4 2.4h7.7425q2.4 0 2.4-2.4v-5.855q0-2.4-2.4-2.4h-7.7425q-2.4 0-2.4 2.4z" clip-path="url(#a)" fill="#fff" stroke="#fff"/>
<g clip-path="url(#a)">
<g transform="translate(440.98 528.96) rotate(90) scale(.08 -.08)">
<use xlink:href="#z"/>
</g>
</g>
<path d="m484.8 600.35v35.285q0 2.4 2.4 2.4h7.7425q2.4 0 2.4-2.4v-35.285q0-2.4-2.4-2.4h-7.7425q-2.4 0-2.4 2.4z" clip-path="url(#a)" fill="#fff" stroke="#fff"/>
<g clip-path="url(#a)">
<g transform="translate(488.86 600.35) rotate(90) scale(.08 -.08)">
<use xlink:href="#k"/>
<use x="60.818359" xlink:href="#d"/>
<use x="122.341797" xlink:href="#h"/>
<use x="163.439453" xlink:href="#f"/>
<use x="260.851562" xlink:href="#j"/>
<use x="288.634766" xlink:href="#i"/>
<use x="352.013672" xlink:href="#g"/>
<use x="413.292969" xlink:href="#l"/>
</g>
</g>
<path d="m508.35 536.2 1.466-5.2725q0.64294-2.3123-1.6693-2.9552l-7.4595-2.0742q-2.3123-0.64294-2.9552 1.6693l-1.466 5.2725q-0.64294 2.3123 1.6693 2.9552l7.4595 2.0742q2.3123 0.64294 2.9552-1.6693z" clip-path="url(#a)" fill="#fff" stroke="#fff"/>
<g clip-path="url(#a)">
<g transform="translate(504.43 535.11) rotate(-74.461) scale(.08 -.08)">
<use xlink:href="#p"/>
</g>
</g>
<path d="m520.26 531.12 1.3606 4.8931q0.64294 2.3123 2.9552 1.6693l7.4595-2.0742q2.3123-0.64294 1.6693-2.9552l-1.3606-4.8931q-0.64294-2.3123-2.9552-1.6693l-7.4595 2.0742q-2.3123 0.64294-1.6693 2.9552z" clip-path="url(#a)" fill="#fff" stroke="#fff"/>
<g clip-path="url(#a)">
<defs>
<path id="ai" d="m53.516 70.516v-9.625q-5.6094 2.6875-10.594 4-4.9844 1.3281-9.625 1.3281-8.0469 0-12.422-3.125t-4.375-8.8906q0-4.8438 2.9062-7.3125 2.9062-2.4531 11.016-3.9688l5.9531-1.2188q11.031-2.1094 16.281-7.4062t5.25-14.172q0-10.609-7.1094-16.078-7.0938-5.4688-20.812-5.4688-5.1719 0-11.016 1.1719-5.8281 1.1719-12.078 3.4688v10.156q6-3.3594 11.766-5.0781 5.7656-1.7031 11.328-1.7031 8.4375 0 13.031 3.3125 4.5938 3.3281 4.5938 9.4844 0 5.3594-3.2969 8.3906t-10.812 4.5469l-6.0156 1.1719q-11.031 2.1875-15.969 6.875-4.9219 4.6875-4.9219 13.047 0 9.6719 6.8125 15.234t18.766 5.5625q5.1406 0 10.453-0.9375 5.3281-0.92188 10.891-2.7656z"/>
</defs>
<g transform="translate(524.18 530.03) rotate(74.461) scale(.08 -.08)">
<use xlink:href="#ai"/>
</g>
</g>
<path d="m532.68 600.35v35.285q0 2.4 2.4 2.4h7.7425q2.4 0 2.4-2.4v-35.285q0-2.4-2.4-2.4h-7.7425q-2.4 0-2.4 2.4z" clip-path="url(#a)" fill="#fff" stroke="#fff"/>
<g clip-path="url(#a)">
<g transform="translate(536.75 600.35) rotate(90) scale(.08 -.08)">
<use xlink:href="#k"/>
<use x="60.818359" xlink:href="#d"/>
<use x="122.341797" xlink:href="#h"/>
<use x="163.439453" xlink:href="#f"/>
<use x="260.851562" xlink:href="#j"/>
<use x="288.634766" xlink:href="#i"/>
<use x="352.013672" xlink:href="#g"/>
<use x="413.292969" xlink:href="#l"/>
</g>
</g>
<path d="m580.57 600.35v35.285q0 2.4 2.4 2.4h7.7425q2.4 0 2.4-2.4v-35.285q0-2.4-2.4-2.4h-7.7425q-2.4 0-2.4 2.4z" clip-path="url(#a)" fill="#fff" stroke="#fff"/>
<g clip-path="url(#a)">
<g transform="translate(584.63 600.35) rotate(90) scale(.08 -.08)">
<use xlink:href="#k"/>
<use x="60.818359" xlink:href="#d"/>
<use x="122.341797" xlink:href="#h"/>
<use x="163.439453" xlink:href="#f"/>
<use x="260.851562" xlink:href="#j"/>
<use x="288.634766" xlink:href="#i"/>
<use x="352.013672" xlink:href="#g"/>
<use x="413.292969" xlink:href="#l"/>
</g>
</g>
<path d="m628.45 600.35v35.285q0 2.4 2.4 2.4h7.7425q2.4 0 2.4-2.4v-35.285q0-2.4-2.4-2.4h-7.7425q-2.4 0-2.4 2.4z" clip-path="url(#a)" fill="#fff" stroke="#fff"/>
<g clip-path="url(#a)">
<g transform="translate(632.52 600.35) rotate(90) scale(.08 -.08)">
<use xlink:href="#k"/>
<use x="60.818359" xlink:href="#d"/>
<use x="122.341797" xlink:href="#h"/>
<use x="163.439453" xlink:href="#f"/>
<use x="260.851562" xlink:href="#j"/>
<use x="288.634766" xlink:href="#i"/>
<use x="352.013672" xlink:href="#g"/>
<use x="413.292969" xlink:href="#l"/>
</g>
</g>
<path d="m833.46 488.15 1.8502 4.7297q0.87434 2.2351 3.1094 1.3607l7.2104-2.8207q2.2351-0.87434 1.3607-3.1094l-1.8502-4.7297q-0.87434-2.2351-3.1094-1.3607l-7.2104 2.8207q-2.2351 0.87434-1.3607 3.1094z" clip-path="url(#a)" fill="#fff" stroke="#fff"/>
<g clip-path="url(#a)">
<g transform="translate(837.25 486.67) rotate(68.635) scale(.08 -.08)">
<use xlink:href="#ai"/>
</g>
</g>
<path d="m747.98 494.1 3.1781-4.4551q1.3938-1.9538-0.56007-3.3476l-6.3031-4.4963q-1.9538-1.3938-3.3476 0.56007l-3.1781 4.4551q-1.3938 1.9538 0.56007 3.3476l6.3031 4.4963q1.9538 1.3938 3.3476-0.56007z" clip-path="url(#a)" fill="#fff" stroke="#fff"/>
<g clip-path="url(#a)">
<g transform="translate(744.67 491.74) rotate(-54.498) scale(.08 -.08)">
<use xlink:href="#p"/>
</g>
</g>
<path d="m773.23 492.85 1.8433-4.2159q0.96144-2.199-1.2376-3.1604l-7.0941-3.1016q-2.199-0.96144-3.1604 1.2376l-1.8433 4.2159q-0.96144 2.199 1.2376 3.1604l7.0941 3.1016q2.199 0.96144 3.1604-1.2376z" clip-path="url(#a)" fill="#fff" stroke="#fff"/>
<g clip-path="url(#a)">
<g transform="translate(769.5 491.22) rotate(-66.384) scale(.08 -.08)">
<use xlink:href="#aj"/>
</g>
</g>
<path d="m798.05 492.27 0.97962-6.0816q0.38167-2.3695-1.9878-2.7511l-7.644-1.2313q-2.3695-0.38167-2.7511 1.9878l-0.97962 6.0816q-0.38167 2.3695 1.9878 2.7511l7.644 1.2313q2.3695 0.38167 2.7511-1.9878z" clip-path="url(#a)" fill="#fff" stroke="#fff"/>
<g clip-path="url(#a)">
<g transform="translate(794.03 491.62) rotate(-80.849) scale(.08 -.08)">
<use xlink:href="#ak"/>
</g>
</g>
<path d="m809.77 486.44 0.5778 5.0219q0.27432 2.3843 2.6586 2.1099l7.6918-0.88498q2.3843-0.27433 2.1099-2.6586l-0.5778-5.0219q-0.27433-2.3843-2.6586-2.1099l-7.6918 0.88498q-2.3843 0.27433-2.1099 2.6586z" clip-path="url(#a)" fill="#fff" stroke="#fff"/>
<g clip-path="url(#a)">
<g transform="translate(813.81 485.97) rotate(83.437) scale(.08 -.08)">
<use xlink:href="#ac"/>
</g>
</g>
<path d="m870.5 449.05 4.6405 2.9008q2.0351 1.2721 3.3072-0.76296l4.104-6.5653q1.2721-2.0351-0.76295-3.3072l-4.6405-2.9008q-2.0351-1.2721-3.3072 0.76295l-4.104 6.5653q-1.2721 2.0351 0.76295 3.3072z" clip-path="url(#a)" fill="#fff" stroke="#fff"/>
<g clip-path="url(#a)">
<g transform="translate(872.65 445.6) rotate(32.01) scale(.08 -.08)">
<use xlink:href="#p"/>
</g>
</g>
<path d="m867.88 600.35v35.285q0 2.4 2.4 2.4h7.7425q2.4 0 2.4-2.4v-35.285q0-2.4-2.4-2.4h-7.7425q-2.4 0-2.4 2.4z" clip-path="url(#a)" fill="#fff" stroke="#fff"/>
<g clip-path="url(#a)">
<g transform="translate(871.94 600.35) rotate(90) scale(.08 -.08)">
<use xlink:href="#k"/>
<use x="60.818359" xlink:href="#d"/>
<use x="122.341797" xlink:href="#h"/>
<use x="163.439453" xlink:href="#f"/>
<use x="260.851562" xlink:href="#j"/>
<use x="288.634766" xlink:href="#i"/>
<use x="352.013672" xlink:href="#g"/>
<use x="413.292969" xlink:href="#l"/>
</g>
</g>
<path d="m389.03 600.35v35.285q0 2.4 2.4 2.4h7.7425q2.4 0 2.4-2.4v-35.285q0-2.4-2.4-2.4h-7.7425q-2.4 0-2.4 2.4z" clip-path="url(#a)" fill="#fff" stroke="#fff"/>
<g clip-path="url(#a)">
<g transform="translate(393.09 600.35) rotate(90) scale(.08 -.08)">
<use xlink:href="#k"/>
<use x="60.818359" xlink:href="#d"/>
<use x="122.341797" xlink:href="#h"/>
<use x="163.439453" xlink:href="#f"/>
<use x="260.851562" xlink:href="#j"/>
<use x="288.634766" xlink:href="#i"/>
<use x="352.013672" xlink:href="#g"/>
<use x="413.292969" xlink:href="#l"/>
</g>
</g>
<path d="m436.91 600.35v35.285q0 2.4 2.4 2.4h7.7425q2.4 0 2.4-2.4v-35.285q0-2.4-2.4-2.4h-7.7425q-2.4 0-2.4 2.4z" clip-path="url(#a)" fill="#fff" stroke="#fff"/>
<g clip-path="url(#a)">
<g transform="translate(440.98 600.35) rotate(90) scale(.08 -.08)">
<use xlink:href="#k"/>
<use x="60.818359" xlink:href="#d"/>
<use x="122.341797" xlink:href="#h"/>
<use x="163.439453" xlink:href="#f"/>
<use x="260.851562" xlink:href="#j"/>
<use x="288.634766" xlink:href="#i"/>
<use x="352.013672" xlink:href="#g"/>
<use x="413.292969" xlink:href="#l"/>
</g>
</g>
<path d="m676.34 600.35v35.285q0 2.4 2.4 2.4h7.7425q2.4 0 2.4-2.4v-35.285q0-2.4-2.4-2.4h-7.7425q-2.4 0-2.4 2.4z" clip-path="url(#a)" fill="#fff" stroke="#fff"/>
<g clip-path="url(#a)">
<g transform="translate(680.4 600.35) rotate(90) scale(.08 -.08)">
<use xlink:href="#k"/>
<use x="60.818359" xlink:href="#d"/>
<use x="122.341797" xlink:href="#h"/>
<use x="163.439453" xlink:href="#f"/>
<use x="260.851562" xlink:href="#j"/>
<use x="288.634766" xlink:href="#i"/>
<use x="352.013672" xlink:href="#g"/>
<use x="413.292969" xlink:href="#l"/>
</g>
</g>
<path d="m724.22 600.35v35.285q0 2.4 2.4 2.4h7.7425q2.4 0 2.4-2.4v-35.285q0-2.4-2.4-2.4h-7.7425q-2.4 0-2.4 2.4z" clip-path="url(#a)" fill="#fff" stroke="#fff"/>
<g clip-path="url(#a)">
<g transform="translate(728.29 600.35) rotate(90) scale(.08 -.08)">
<use xlink:href="#k"/>
<use x="60.818359" xlink:href="#d"/>
<use x="122.341797" xlink:href="#h"/>
<use x="163.439453" xlink:href="#f"/>
<use x="260.851562" xlink:href="#j"/>
<use x="288.634766" xlink:href="#i"/>
<use x="352.013672" xlink:href="#g"/>
<use x="413.292969" xlink:href="#l"/>
</g>
</g>
<path d="m772.11 600.35v35.285q0 2.4 2.4 2.4h7.7425q2.4 0 2.4-2.4v-35.285q0-2.4-2.4-2.4h-7.7425q-2.4 0-2.4 2.4z" clip-path="url(#a)" fill="#fff" stroke="#fff"/>
<g clip-path="url(#a)">
<g transform="translate(776.17 600.35) rotate(90) scale(.08 -.08)">
<use xlink:href="#k"/>
<use x="60.818359" xlink:href="#d"/>
<use x="122.341797" xlink:href="#h"/>
<use x="163.439453" xlink:href="#f"/>
<use x="260.851562" xlink:href="#j"/>
<use x="288.634766" xlink:href="#i"/>
<use x="352.013672" xlink:href="#g"/>
<use x="413.292969" xlink:href="#l"/>
</g>
</g>
<path d="m819.99 600.35v35.285q0 2.4 2.4 2.4h7.7425q2.4 0 2.4-2.4v-35.285q0-2.4-2.4-2.4h-7.7425q-2.4 0-2.4 2.4z" clip-path="url(#a)" fill="#fff" stroke="#fff"/>
<g clip-path="url(#a)">
<g transform="translate(824.06 600.35) rotate(90) scale(.08 -.08)">
<use xlink:href="#k"/>
<use x="60.818359" xlink:href="#d"/>
<use x="122.341797" xlink:href="#h"/>
<use x="163.439453" xlink:href="#f"/>
<use x="260.851562" xlink:href="#j"/>
<use x="288.634766" xlink:href="#i"/>
<use x="352.013672" xlink:href="#g"/>
<use x="413.292969" xlink:href="#l"/>
</g>
</g>
<path d="m951.16 530.87 1.4965 5.3821q0.64294 2.3123 2.9552 1.6693l7.4595-2.0742q2.3123-0.64294 1.6693-2.9552l-1.4965-5.3821q-0.64294-2.3123-2.9552-1.6693l-7.4595 2.0742q-2.3123 0.64294-1.6693 2.9552z" clip-path="url(#a)" fill="#fff" stroke="#fff"/>
<g clip-path="url(#a)">
<g transform="translate(955.07 529.78) rotate(74.461) scale(.08 -.08)">
<use xlink:href="#ad"/>
</g>
</g>
<path d="m939.3 536.24 1.4891-5.3556q0.64294-2.3123-1.6693-2.9552l-7.4595-2.0742q-2.3123-0.64294-2.9552 1.6693l-1.4891 5.3556q-0.64294 2.3123 1.6693 2.9552l7.4595 2.0742q2.3123 0.64294 2.9552-1.6693z" clip-path="url(#a)" fill="#fff" stroke="#fff"/>
<g clip-path="url(#a)">
<defs>
<path id="aq" d="m44.391 34.188q3.1719-1.0781 6.1719-4.5938t6.0312-9.6719l10.016-19.922h-10.609l-9.3125 18.703q-3.625 7.3281-7.0156 9.7188t-9.25 2.3906h-10.75v-30.812h-9.8594v72.906h22.266q12.5 0 18.656-5.2344 6.1562-5.2188 6.1562-15.766 0-6.8906-3.2031-11.438-3.2031-4.5312-9.2969-6.2812zm-24.719 30.609v-25.875h12.406q7.125 0 10.766 3.2969t3.6406 9.6875-3.6406 9.6406-10.766 3.25z"/>
</defs>
<g transform="translate(935.39 535.15) rotate(-74.461) scale(.08 -.08)">
<use xlink:href="#aq"/>
</g>
</g>
<path d="m963.65 600.35v35.285q0 2.4 2.4 2.4h7.7425q2.4 0 2.4-2.4v-35.285q0-2.4-2.4-2.4h-7.7425q-2.4 0-2.4 2.4z" clip-path="url(#a)" fill="#fff" stroke="#fff"/>
<g clip-path="url(#a)">
<g transform="translate(967.71 600.35) rotate(90) scale(.08 -.08)">
<use xlink:href="#k"/>
<use x="60.818359" xlink:href="#d"/>
<use x="122.341797" xlink:href="#h"/>
<use x="163.439453" xlink:href="#f"/>
<use x="260.851562" xlink:href="#j"/>
<use x="288.634766" xlink:href="#i"/>
<use x="352.013672" xlink:href="#g"/>
<use x="413.292969" xlink:href="#l"/>
</g>
</g>
<path d="m1011.5 600.35v35.285q0 2.4 2.4 2.4h7.7425q2.4 0 2.4-2.4v-35.285q0-2.4-2.4-2.4h-7.7425q-2.4 0-2.4 2.4z" clip-path="url(#a)" fill="#fff" stroke="#fff"/>
<g clip-path="url(#a)">
<g transform="translate(1015.6 600.35) rotate(90) scale(.08 -.08)">
<use xlink:href="#k"/>
<use x="60.818359" xlink:href="#d"/>
<use x="122.341797" xlink:href="#h"/>
<use x="163.439453" xlink:href="#f"/>
<use x="260.851562" xlink:href="#j"/>
<use x="288.634766" xlink:href="#i"/>
<use x="352.013672" xlink:href="#g"/>
<use x="413.292969" xlink:href="#l"/>
</g>
</g>
<path d="m1128.6 446.57 0.32934-4.8125q0.16386-2.3944-2.2305-2.5583l-7.7244-0.52861q-2.3944-0.16386-2.5583 2.2305l-0.32934 4.8125q-0.16386 2.3944 2.2305 2.5583l7.7244 0.52861q2.3944 0.16386 2.5583-2.2305z" clip-path="url(#a)" fill="#fff" stroke="#fff"/>
<g clip-path="url(#a)">
<g transform="translate(1124.6 446.3) rotate(-86.085) scale(.08 -.08)">
<use xlink:href="#s"/>
</g>
</g>
<path d="m1104 447.92 1.3319-5.3079q0.58411-2.3278-1.7437-2.9119l-7.5097-1.8844q-2.3278-0.58411-2.9119 1.7437l-1.3319 5.3079q-0.58411 2.3278 1.7437 2.9119l7.5097 1.8844q2.3278 0.58411 2.9119-1.7437z" clip-path="url(#a)" fill="#fff" stroke="#fff"/>
<g clip-path="url(#a)">
<g transform="translate(1100.1 446.93) rotate(-75.914) scale(.08 -.08)">
<use xlink:href="#p"/>
</g>
</g>
<path d="m1140 441.73 0.62015 5.4372q0.27197 2.3845 2.6565 2.1126l7.6926-0.87739q2.3845-0.27197 2.1126-2.6565l-0.62015-5.4372q-0.27197-2.3845-2.6565-2.1126l-7.6926 0.87739q-2.3845 0.27197-2.1126 2.6565z" clip-path="url(#a)" fill="#fff" stroke="#fff"/>
<g clip-path="url(#a)">
<g transform="translate(1144 441.27) rotate(83.493) scale(.08 -.08)">
<use xlink:href="#p"/>
</g>
</g>
<path d="m1151.9 358.22 2.4981 4.1265q1.2429 2.0531 3.296 0.81018l6.6234-4.0097q2.0531-1.2429 0.81018-3.296l-2.4981-4.1265q-1.2429-2.0531-3.296-0.81018l-6.6234 4.0097q-2.0531 1.2429-0.81018 3.296z" clip-path="url(#a)" fill="#fff" stroke="#fff"/>
<g clip-path="url(#a)">
<g transform="translate(1155.3 356.11) rotate(58.81) scale(.08 -.08)">
<use xlink:href="#s"/>
</g>
</g>
<path d="m1107.3 600.35v35.285q0 2.4 2.4 2.4h7.7425q2.4 0 2.4-2.4v-35.285q0-2.4-2.4-2.4h-7.7425q-2.4 0-2.4 2.4z" clip-path="url(#a)" fill="#fff" stroke="#fff"/>
<g clip-path="url(#a)">
<g transform="translate(1111.4 600.35) rotate(90) scale(.08 -.08)">
<use xlink:href="#k"/>
<use x="60.818359" xlink:href="#d"/>
<use x="122.341797" xlink:href="#h"/>
<use x="163.439453" xlink:href="#f"/>
<use x="260.851562" xlink:href="#j"/>
<use x="288.634766" xlink:href="#i"/>
<use x="352.013672" xlink:href="#g"/>
<use x="413.292969" xlink:href="#l"/>
</g>
</g>
<path d="m915.76 600.35v35.285q0 2.4 2.4 2.4h7.7425q2.4 0 2.4-2.4v-35.285q0-2.4-2.4-2.4h-7.7425q-2.4 0-2.4 2.4z" clip-path="url(#a)" fill="#fff" stroke="#fff"/>
<g clip-path="url(#a)">
<g transform="translate(919.83 600.35) rotate(90) scale(.08 -.08)">
<use xlink:href="#k"/>
<use x="60.818359" xlink:href="#d"/>
<use x="122.341797" xlink:href="#h"/>
<use x="163.439453" xlink:href="#f"/>
<use x="260.851562" xlink:href="#j"/>
<use x="288.634766" xlink:href="#i"/>
<use x="352.013672" xlink:href="#g"/>
<use x="413.292969" xlink:href="#l"/>
</g>
</g>
<path d="m1059.4 600.35v35.285q0 2.4 2.4 2.4h7.7425q2.4 0 2.4-2.4v-35.285q0-2.4-2.4-2.4h-7.7425q-2.4 0-2.4 2.4z" clip-path="url(#a)" fill="#fff" stroke="#fff"/>
<g clip-path="url(#a)">
<g transform="translate(1063.5 600.35) rotate(90) scale(.08 -.08)">
<use xlink:href="#k"/>
<use x="60.818359" xlink:href="#d"/>
<use x="122.341797" xlink:href="#h"/>
<use x="163.439453" xlink:href="#f"/>
<use x="260.851562" xlink:href="#j"/>
<use x="288.634766" xlink:href="#i"/>
<use x="352.013672" xlink:href="#g"/>
<use x="413.292969" xlink:href="#l"/>
</g>
</g>
<path d="m1155.2 600.35v35.285q0 2.4 2.4 2.4h7.7425q2.4 0 2.4-2.4v-35.285q0-2.4-2.4-2.4h-7.7425q-2.4 0-2.4 2.4z" clip-path="url(#a)" fill="#fff" stroke="#fff"/>
<g clip-path="url(#a)">
<g transform="translate(1159.3 600.35) rotate(90) scale(.08 -.08)">
<use xlink:href="#k"/>
<use x="60.818359" xlink:href="#d"/>
<use x="122.341797" xlink:href="#h"/>
<use x="163.439453" xlink:href="#f"/>
<use x="260.851562" xlink:href="#j"/>
<use x="288.634766" xlink:href="#i"/>
<use x="352.013672" xlink:href="#g"/>
<use x="413.292969" xlink:href="#l"/>
</g>
</g>
<path d="m1178.7 536.2 1.466-5.2725q0.64294-2.3123-1.6693-2.9552l-7.4595-2.0742q-2.3123-0.64294-2.9552 1.6693l-1.466 5.2725q-0.64294 2.3123 1.6693 2.9552l7.4595 2.0742q2.3123 0.64294 2.9552-1.6693z" clip-path="url(#a)" fill="#fff" stroke="#fff"/>
<g clip-path="url(#a)">
<g transform="translate(1174.8 535.11) rotate(-74.461) scale(.08 -.08)">
<use xlink:href="#p"/>
</g>
</g>
<path d="m1190.7 531.24 1.2922 4.6474q0.64294 2.3123 2.9552 1.6693l7.4595-2.0742q2.3123-0.64294 1.6693-2.9552l-1.2922-4.6474q-0.64294-2.3123-2.9552-1.6693l-7.4595 2.0742q-2.3123 0.64294-1.6693 2.9552z" clip-path="url(#a)" fill="#fff" stroke="#fff"/>
<g clip-path="url(#a)">
<g transform="translate(1194.6 530.15) rotate(74.461) scale(.08 -.08)">
<use xlink:href="#s"/>
</g>
</g>
<path d="m1203.1 600.35v35.285q0 2.4 2.4 2.4h7.7425q2.4 0 2.4-2.4v-35.285q0-2.4-2.4-2.4h-7.7425q-2.4 0-2.4 2.4z" clip-path="url(#a)" fill="#fff" stroke="#fff"/>
<g clip-path="url(#a)">
<g transform="translate(1207.1 600.35) rotate(90) scale(.08 -.08)">
<use xlink:href="#k"/>
<use x="60.818359" xlink:href="#d"/>
<use x="122.341797" xlink:href="#h"/>
<use x="163.439453" xlink:href="#f"/>
<use x="260.851562" xlink:href="#j"/>
<use x="288.634766" xlink:href="#i"/>
<use x="352.013672" xlink:href="#g"/>
<use x="413.292969" xlink:href="#l"/>
</g>
</g>
<path d="m1179.1 442.44v5.4725q0 2.4 2.4 2.4h7.7425q2.4 0 2.4-2.4v-5.4725q0-2.4-2.4-2.4h-7.7425q-2.4 0-2.4 2.4z" clip-path="url(#a)" fill="#fff" stroke="#fff"/>
<g clip-path="url(#a)">
<g transform="translate(1183.2 442.44) rotate(90) scale(.08 -.08)">
<use xlink:href="#p"/>
</g>
</g>
<defs>
<path id="b" d="m0 8.6603c2.2967 0 4.4997-0.9125 6.1237-2.5365 1.624-1.624 2.5365-3.827 2.5365-6.1237s-0.9125-4.4997-2.5365-6.1237c-1.624-1.624-3.827-2.5365-6.1237-2.5365s-4.4997 0.9125-6.1237 2.5365c-1.624 1.624-2.5365 3.827-2.5365 6.1237s0.9125 4.4997 2.5365 6.1237c1.624 1.624 3.827 2.5365 6.1237 2.5365z"/>
</defs>
<g clip-path="url(#a)">
<use x="60.105443" y="661.043795" fill="#ffffff" stroke="#ffffff" xlink:href="#b"/>
</g>
<g clip-path="url(#a)">
<use x="107.990341" y="661.043795" fill="#ffffff" stroke="#ffffff" xlink:href="#b"/>
</g>
<g clip-path="url(#a)">
<use x="155.875239" y="661.043795" fill="#ffffff" stroke="#ffffff" xlink:href="#b"/>
</g>
<g clip-path="url(#a)">
<use x="203.760137" y="661.043795" fill="#ffffff" stroke="#ffffff" xlink:href="#b"/>
</g>
<g clip-path="url(#a)">
<use x="251.645035" y="661.043795" fill="#ffffff" stroke="#ffffff" xlink:href="#b"/>
</g>
<g clip-path="url(#a)">
<use x="299.529933" y="661.043795" fill="#ffffff" stroke="#ffffff" xlink:href="#b"/>
</g>
<g clip-path="url(#a)">
<use x="347.41483" y="661.043795" fill="#ffffff" stroke="#ffffff" xlink:href="#b"/>
</g>
<g clip-path="url(#a)">
<use x="395.299728" y="661.043795" fill="#ffffff" stroke="#ffffff" xlink:href="#b"/>
</g>
<g clip-path="url(#a)">
<use x="443.184626" y="661.043795" fill="#ffffff" stroke="#ffffff" xlink:href="#b"/>
</g>
<g clip-path="url(#a)">
<use x="491.069524" y="661.043795" fill="#ffffff" stroke="#ffffff" xlink:href="#b"/>
</g>
<g clip-path="url(#a)">
<use x="538.954422" y="661.043795" fill="#ffffff" stroke="#ffffff" xlink:href="#b"/>
</g>
<g clip-path="url(#a)">
<use x="586.83932" y="661.043795" fill="#ffffff" stroke="#ffffff" xlink:href="#b"/>
</g>
<g clip-path="url(#a)">
<use x="634.724218" y="661.043795" fill="#ffffff" stroke="#ffffff" xlink:href="#b"/>
</g>
<g clip-path="url(#a)">
<use x="682.609116" y="661.043795" fill="#ffffff" stroke="#ffffff" xlink:href="#b"/>
</g>
<g clip-path="url(#a)">
<use x="730.494013" y="661.043795" fill="#ffffff" stroke="#ffffff" xlink:href="#b"/>
</g>
<g clip-path="url(#a)">
<use x="778.378911" y="661.043795" fill="#ffffff" stroke="#ffffff" xlink:href="#b"/>
</g>
<g clip-path="url(#a)">
<use x="826.263809" y="661.043795" fill="#ffffff" stroke="#ffffff" xlink:href="#b"/>
</g>
<g clip-path="url(#a)">
<use x="874.148707" y="661.043795" fill="#ffffff" stroke="#ffffff" xlink:href="#b"/>
</g>
<g clip-path="url(#a)">
<use x="922.033605" y="661.043795" fill="#ffffff" stroke="#ffffff" xlink:href="#b"/>
</g>
<g clip-path="url(#a)">
<use x="969.918503" y="661.043795" fill="#ffffff" stroke="#ffffff" xlink:href="#b"/>
</g>
<g clip-path="url(#a)">
<use x="1017.803401" y="661.043795" fill="#ffffff" stroke="#ffffff" xlink:href="#b"/>
</g>
<g clip-path="url(#a)">
<use x="1065.688299" y="661.043795" fill="#ffffff" stroke="#ffffff" xlink:href="#b"/>
</g>
<g clip-path="url(#a)">
<use x="1113.573196" y="661.043795" fill="#ffffff" stroke="#ffffff" xlink:href="#b"/>
</g>
<g clip-path="url(#a)">
<use x="1161.458094" y="661.043795" fill="#ffffff" stroke="#ffffff" xlink:href="#b"/>
</g>
<g clip-path="url(#a)">
<use x="1209.342992" y="661.043795" fill="#ffffff" stroke="#ffffff" xlink:href="#b"/>
</g>
<g clip-path="url(#a)">
<use x="1257.22789" y="661.043795" fill="#ffffff" stroke="#ffffff" xlink:href="#b"/>
</g>
<g clip-path="url(#a)">
<use x="407.365963" y="32.289538" fill="#ffffff" stroke="#ffffff" xlink:href="#b"/>
</g>
<g clip-path="url(#a)">
<use x="407.365963" y="128.197178" fill="#ffffff" stroke="#ffffff" xlink:href="#b"/>
</g>
<g clip-path="url(#a)">
<use x="203.760137" y="574.937113" fill="#ffffff" stroke="#ffffff" xlink:href="#b"/>
</g>
<g clip-path="url(#a)">
<use x="60.105443" y="574.937113" fill="#ffffff" stroke="#ffffff" xlink:href="#b"/>
</g>
<g clip-path="url(#a)">
<use x="107.990341" y="574.937113" fill="#ffffff" stroke="#ffffff" xlink:href="#b"/>
</g>
<g clip-path="url(#a)">
<use x="155.875239" y="574.937113" fill="#ffffff" stroke="#ffffff" xlink:href="#b"/>
</g>
<g clip-path="url(#a)">
<use x="659.236725" y="221.527084" fill="#ffffff" stroke="#ffffff" xlink:href="#b"/>
</g>
<g clip-path="url(#a)">
<use x="251.645035" y="574.937113" fill="#ffffff" stroke="#ffffff" xlink:href="#b"/>
</g>
<g clip-path="url(#a)">
<use x="1257.22789" y="574.937113" fill="#ffffff" stroke="#ffffff" xlink:href="#b"/>
</g>
<g clip-path="url(#a)">
<use x="473.112687" y="401.525912" fill="#ffffff" stroke="#ffffff" xlink:href="#b"/>
</g>
<g clip-path="url(#a)">
<use x="347.41483" y="574.937113" fill="#ffffff" stroke="#ffffff" xlink:href="#b"/>
</g>
<g clip-path="url(#a)">
<use x="299.529933" y="574.937113" fill="#ffffff" stroke="#ffffff" xlink:href="#b"/>
</g>
<g clip-path="url(#a)">
<use x="443.184626" y="488.830432" fill="#ffffff" stroke="#ffffff" xlink:href="#b"/>
</g>
<g clip-path="url(#a)">
<use x="491.069524" y="574.937113" fill="#ffffff" stroke="#ffffff" xlink:href="#b"/>
</g>
<g clip-path="url(#a)">
<use x="515.011973" y="488.830432" fill="#ffffff" stroke="#ffffff" xlink:href="#b"/>
</g>
<g clip-path="url(#a)">
<use x="538.954422" y="574.937113" fill="#ffffff" stroke="#ffffff" xlink:href="#b"/>
</g>
<g clip-path="url(#a)">
<use x="586.83932" y="574.937113" fill="#ffffff" stroke="#ffffff" xlink:href="#b"/>
</g>
<g clip-path="url(#a)">
<use x="634.724218" y="574.937113" fill="#ffffff" stroke="#ffffff" xlink:href="#b"/>
</g>
<g clip-path="url(#a)">
<use x="806.311768" y="401.525912" fill="#ffffff" stroke="#ffffff" xlink:href="#b"/>
</g>
<g clip-path="url(#a)">
<use x="874.148707" y="574.937113" fill="#ffffff" stroke="#ffffff" xlink:href="#b"/>
</g>
<g clip-path="url(#a)">
<use x="395.299728" y="574.937113" fill="#ffffff" stroke="#ffffff" xlink:href="#b"/>
</g>
<g clip-path="url(#a)">
<use x="443.184626" y="574.937113" fill="#ffffff" stroke="#ffffff" xlink:href="#b"/>
</g>
<g clip-path="url(#a)">
<use x="682.609116" y="574.937113" fill="#ffffff" stroke="#ffffff" xlink:href="#b"/>
</g>
<g clip-path="url(#a)">
<use x="730.494013" y="574.937113" fill="#ffffff" stroke="#ffffff" xlink:href="#b"/>
</g>
<g clip-path="url(#a)">
<use x="778.378911" y="574.937113" fill="#ffffff" stroke="#ffffff" xlink:href="#b"/>
</g>
<g clip-path="url(#a)">
<use x="826.263809" y="574.937113" fill="#ffffff" stroke="#ffffff" xlink:href="#b"/>
</g>
<g clip-path="url(#a)">
<use x="945.976054" y="488.830432" fill="#ffffff" stroke="#ffffff" xlink:href="#b"/>
</g>
<g clip-path="url(#a)">
<use x="969.918503" y="574.937113" fill="#ffffff" stroke="#ffffff" xlink:href="#b"/>
</g>
<g clip-path="url(#a)">
<use x="1017.803401" y="574.937113" fill="#ffffff" stroke="#ffffff" xlink:href="#b"/>
</g>
<g clip-path="url(#a)">
<use x="1131.530033" y="312.540277" fill="#ffffff" stroke="#ffffff" xlink:href="#b"/>
</g>
<g clip-path="url(#a)">
<use x="1113.573196" y="574.937113" fill="#ffffff" stroke="#ffffff" xlink:href="#b"/>
</g>
<g clip-path="url(#a)">
<use x="922.033605" y="574.937113" fill="#ffffff" stroke="#ffffff" xlink:href="#b"/>
</g>
<g clip-path="url(#a)">
<use x="1065.688299" y="574.937113" fill="#ffffff" stroke="#ffffff" xlink:href="#b"/>
</g>
<g clip-path="url(#a)">
<use x="1161.458094" y="574.937113" fill="#ffffff" stroke="#ffffff" xlink:href="#b"/>
</g>
<g clip-path="url(#a)">
<use x="1185.400543" y="488.830432" fill="#ffffff" stroke="#ffffff" xlink:href="#b"/>
</g>
<g clip-path="url(#a)">
<use x="1209.342992" y="574.937113" fill="#ffffff" stroke="#ffffff" xlink:href="#b"/>
</g>
<g clip-path="url(#a)">
<use x="1185.400543" y="401.525912" fill="#ffffff" stroke="#ffffff" xlink:href="#b"/>
</g>
<g clip-path="url(#a)">
<defs>
<path id="y" d="m54.891 33.016v-33.016h-8.9844v32.719q0 7.7656-3.0312 11.609-3.0312 3.8594-9.0781 3.8594-7.2812 0-11.484-4.6406-4.2031-4.625-4.2031-12.641v-30.906h-9.0312v75.984h9.0312v-29.797q3.2344 4.9375 7.5938 7.375 4.375 2.4375 10.094 2.4375 9.4219 0 14.25-5.8281 4.8438-5.8281 4.8438-17.156z"/>
<path id="al" d="m32.172-5.0781q-3.7969-9.7656-7.4219-12.734-3.6094-2.9844-9.6562-2.9844h-7.1875v7.5156h5.2812q3.7031 0 5.75 1.7656 2.0625 1.75 4.5469 8.2969l1.6094 4.0938-22.109 53.812h9.5156l17.094-42.766 17.094 42.766h9.5156z"/>
</defs>
<g transform="translate(47.847 663.8) scale(.1 -.1)">
<use xlink:href="#k"/>
<use x="61.083984" xlink:href="#y"/>
<use x="124.462891" xlink:href="#d"/>
<use x="185.986328" xlink:href="#al"/>
</g>
</g>
<g clip-path="url(#a)">
<defs>
<path id="x" d="m8.5 21.578v33.109h8.9844v-32.766q0-7.7656 3.0156-11.656 3.0312-3.875 9.0938-3.875 7.2656 0 11.484 4.6406 4.2344 4.6406 4.2344 12.656v31h8.9844v-54.688h-8.9844v8.4062q-3.2656-4.9844-7.5938-7.4062-4.3125-2.4219-10.031-2.4219-9.4219 0-14.312 5.8594-4.875 5.8594-4.875 17.141z"/>
<path id="r" d="m44.281 53.078v-8.5q-3.7969 1.9531-7.9062 2.9219-4.0938 0.98438-8.5 0.98438-6.6875 0-10.031-2.0469t-3.3438-6.1562q0-3.125 2.3906-4.9062t9.625-3.3906l3.0781-0.6875q9.5625-2.0469 13.594-5.7812t4.0312-10.422q0-7.625-6.0312-12.078-6.0312-4.4375-16.578-4.4375-4.3906 0-9.1562 0.85938t-10.031 2.5625v9.2812q4.9844-2.5938 9.8125-3.8906 4.8281-1.2812 9.5781-1.2812 6.3438 0 9.75 2.1719 3.4219 2.1719 3.4219 6.125 0 3.6562-2.4688 5.6094-2.4531 1.9531-10.812 3.7656l-3.125 0.73438q-8.3438 1.75-12.062 5.3906-3.7031 3.6406-3.7031 9.9844 0 7.7188 5.4688 11.906 5.4688 4.2031 15.531 4.2031 4.9688 0 9.3594-0.73438 4.4062-0.71875 8.1094-2.1875z"/>
<path id="n" d="m18.312 70.219v-15.531h18.5v-6.9844h-18.5v-29.688q0-6.6875 1.8281-8.5938t7.4531-1.9062h9.2188v-7.5156h-9.2188q-10.406 0-14.359 3.875-3.9531 3.8906-3.9531 14.141v29.688h-6.5938v6.9844h6.5938v15.531z"/>
</defs>
<g transform="translate(95.386 663.8) scale(.1 -.1)">
<use xlink:href="#f"/>
<use x="97.412109" xlink:href="#x"/>
<use x="160.791016" xlink:href="#r"/>
<use x="212.890625" xlink:href="#n"/>
</g>
</g>
<g clip-path="url(#a)">
<defs>
<path id="q" d="m30.609 48.391q-7.2188 0-11.422-5.6406t-4.2031-15.453 4.1719-15.453q4.1875-5.6406 11.453-5.6406 7.1875 0 11.375 5.6562 4.2031 5.6719 4.2031 15.438 0 9.7188-4.2031 15.406-4.1875 5.6875-11.375 5.6875zm0 7.6094q11.719 0 18.406-7.625 6.7031-7.6094 6.7031-21.078 0-13.422-6.7031-21.078-6.6875-7.6406-18.406-7.6406-11.766 0-18.438 7.6406-6.6562 7.6562-6.6562 21.078 0 13.469 6.6562 21.078 6.6719 7.625 18.438 7.625z"/>
</defs>
<g transform="translate(145.76 663.8) scale(.1 -.1)">
<use xlink:href="#g"/>
<use x="61.279297" xlink:href="#l"/>
<use x="89.0625" xlink:href="#r"/>
<use x="141.162109" xlink:href="#q"/>
</g>
</g>
<g clip-path="url(#a)">
<defs>
<path id="ah" d="m45.406 27.984q0 9.7656-4.0312 15.125-4.0156 5.375-11.297 5.375-7.2188 0-11.25-5.375-4.0312-5.3594-4.0312-15.125 0-9.7188 4.0312-15.094t11.25-5.375q7.2812 0 11.297 5.375 4.0312 5.375 4.0312 15.094zm8.9844-21.203q0-13.953-6.2031-20.766-6.1875-6.8125-18.984-6.8125-4.7344 0-8.9375 0.70312t-8.1562 2.1719v8.7344q3.9531-2.1406 7.8125-3.1562 3.8594-1.0312 7.8594-1.0312 8.8438 0 13.234 4.6094t4.3906 13.938v4.4531q-2.7812-4.8438-7.125-7.2344t-10.406-2.3906q-10.047 0-16.203 7.6562-6.1562 7.6719-6.1562 20.328 0 12.688 6.1562 20.344 6.1562 7.6719 16.203 7.6719 6.0625 0 10.406-2.3906t7.125-7.2188v8.2969h8.9844z"/>
</defs>
<g transform="translate(195.55 663.8) scale(.1 -.1)">
<use xlink:href="#ah"/>
<use x="63.476562" xlink:href="#d"/>
<use x="125" xlink:href="#n"/>
</g>
</g>
<g clip-path="url(#a)">
<g transform="translate(225.17 663.8) scale(.1 -.1)">
<use xlink:href="#r"/>
<use x="52.099609" xlink:href="#q"/>
<use x="113.28125" xlink:href="#f"/>
<use x="210.693359" xlink:href="#d"/>
<use x="272.216797" xlink:href="#n"/>
<use x="311.425781" xlink:href="#y"/>
<use x="374.804688" xlink:href="#j"/>
<use x="402.587891" xlink:href="#i"/>
<use x="465.966797" xlink:href="#ah"/>
</g>
</g>
<g clip-path="url(#a)">
<g transform="translate(294.51 663.8) scale(.1 -.1)">
<use xlink:href="#n"/>
<use x="39.208984" xlink:href="#q"/>
</g>
</g>
<g clip-path="url(#a)">
<defs>
<path id="ao" d="m9.0781 75.984h9.0312v-44.875l26.812 23.578h11.469l-29-25.578 30.234-29.109h-11.719l-27.797 26.703v-26.703h-9.0312z"/>
<path id="an" d="m18.109 8.2031v-29h-9.0312v75.484h9.0312v-8.2969q2.8438 4.875 7.1562 7.2344 4.3281 2.375 10.328 2.375 9.9688 0 16.188-7.9062 6.2344-7.9062 6.2344-20.797t-6.2344-20.812q-6.2188-7.9062-16.188-7.9062-6 0-10.328 2.375-4.3125 2.375-7.1562 7.25zm30.578 19.094q0 9.9062-4.0781 15.547t-11.203 5.6406q-7.1406 0-11.219-5.6406t-4.0781-15.547 4.0781-15.547 11.219-5.6406q7.125 0 11.203 5.6406t4.0781 15.547z"/>
</defs>
<g transform="translate(335.19 663.8) scale(.1 -.1)">
<use xlink:href="#ao"/>
<use x="57.863281" xlink:href="#d"/>
<use x="119.386719" xlink:href="#d"/>
<use x="180.910156" xlink:href="#an"/>
</g>
</g>
<g clip-path="url(#a)">
<g transform="translate(384.31 663.8) scale(.1 -.1)">
<use xlink:href="#n"/>
<use x="39.208984" xlink:href="#g"/>
<use x="100.488281" xlink:href="#ao"/>
<use x="158.351562" xlink:href="#d"/>
</g>
</g>
<g clip-path="url(#a)">
<defs>
<path id="ar" d="m4.8906 31.391h26.312v-8h-26.312z"/>
</defs>
<g transform="translate(441.38 663.8) scale(.1 -.1)">
<use xlink:href="#ar"/>
</g>
</g>
<g clip-path="url(#a)">
<g transform="translate(482.88 663.8) scale(.1 -.1)">
<use xlink:href="#q"/>
<use x="61.181641" xlink:href="#x"/>
<use x="124.560547" xlink:href="#n"/>
</g>
</g>
<g clip-path="url(#a)">
<defs>
<path id="am" d="m4.2031 54.688h8.9844l11.234-42.672 11.172 42.672h10.594l11.234-42.672 11.188 42.672h8.9844l-14.312-54.688h-10.594l-11.766 44.828-11.812-44.828h-10.609z"/>
</defs>
<g transform="translate(524.88 663.8) scale(.1 -.1)">
<use xlink:href="#am"/>
<use x="81.787109" xlink:href="#g"/>
<use x="143.066406" xlink:href="#h"/>
<use x="184.164062" xlink:href="#f"/>
</g>
</g>
<g clip-path="url(#a)">
<defs>
<path id="as" d="m11.719 12.406h10.297v-8.4062l-8-15.625h-6.2969l4 15.625z"/>
</defs>
<g transform="translate(585.25 663.8) scale(.1 -.1)">
<use xlink:href="#as"/>
</g>
</g>
<g clip-path="url(#a)">
<g transform="translate(629.06 663.8) scale(.1 -.1)">
<use xlink:href="#r"/>
<use x="52.099609" xlink:href="#q"/>
</g>
</g>
<g clip-path="url(#a)">
<g transform="translate(679.26 663.8) scale(.1 -.1)">
<use xlink:href="#j"/>
<use x="27.783203" xlink:href="#n"/>
</g>
</g>
<g clip-path="url(#a)">
<defs>
<path id="at" d="m17.922 72.906v-27.109h-8.2969v27.109z"/>
</defs>
<g transform="translate(726.52 663.8) scale(.1 -.1)">
<use xlink:href="#at"/>
<use x="27.490234" xlink:href="#r"/>
</g>
</g>
<g clip-path="url(#a)">
<g transform="translate(770.19 663.8) scale(.1 -.1)">
<use xlink:href="#i"/>
<use x="63.378906" xlink:href="#q"/>
<use x="124.560547" xlink:href="#n"/>
</g>
</g>
<g clip-path="url(#a)">
<g transform="translate(813.22 663.8) scale(.1 -.1)">
<use xlink:href="#h"/>
<use x="41.082031" xlink:href="#q"/>
<use x="102.263672" xlink:href="#q"/>
<use x="163.445312" xlink:href="#f"/>
</g>
</g>
<g clip-path="url(#a)">
<g transform="translate(842.61 663.8) scale(.1 -.1)">
<use xlink:href="#n"/>
<use x="39.208984" xlink:href="#d"/>
<use x="100.732422" xlink:href="#f"/>
<use x="198.144531" xlink:href="#an"/>
<use x="261.621094" xlink:href="#d"/>
<use x="323.144531" xlink:href="#h"/>
<use x="364.257812" xlink:href="#g"/>
<use x="425.537109" xlink:href="#n"/>
<use x="464.746094" xlink:href="#x"/>
<use x="528.125" xlink:href="#h"/>
<use x="569.207031" xlink:href="#d"/>
</g>
</g>
<g clip-path="url(#a)">
<g transform="translate(917.01 663.8) scale(.1 -.1)">
<use xlink:href="#g"/>
<use x="61.279297" xlink:href="#n"/>
</g>
</g>
<g clip-path="url(#a)">
<defs>
<path id="ap" d="m48.688 27.297q0 9.9062-4.0781 15.547t-11.203 5.6406q-7.1406 0-11.219-5.6406t-4.0781-15.547 4.0781-15.547 11.219-5.6406q7.125 0 11.203 5.6406t4.0781 15.547zm-30.578 19.094q2.8438 4.875 7.1562 7.2344 4.3281 2.375 10.328 2.375 9.9688 0 16.188-7.9062 6.2344-7.9062 6.2344-20.797t-6.2344-20.812q-6.2188-7.9062-16.188-7.9062-6 0-10.328 2.375-4.3125 2.375-7.1562 7.25v-8.2031h-9.0312v75.984h9.0312z"/>
</defs>
<g transform="translate(959.1 663.8) scale(.1 -.1)">
<use xlink:href="#ap"/>
<use x="63.476562" xlink:href="#d"/>
<use x="125" xlink:href="#r"/>
<use x="177.099609" xlink:href="#n"/>
</g>
</g>
<g clip-path="url(#a)">
<g transform="translate(1004.3 663.8) scale(.1 -.1)">
<use xlink:href="#am"/>
<use x="81.787109" xlink:href="#y"/>
<use x="145.166016" xlink:href="#d"/>
<use x="206.689453" xlink:href="#i"/>
</g>
</g>
<g clip-path="url(#a)">
<g transform="translate(1056.5 663.8) scale(.1 -.1)">
<use xlink:href="#al"/>
<use x="59.179688" xlink:href="#q"/>
<use x="120.361328" xlink:href="#x"/>
</g>
</g>
<g clip-path="url(#a)">
<g transform="translate(1105.4 663.8) scale(.1 -.1)">
<use xlink:href="#ah"/>
<use x="63.476562" xlink:href="#d"/>
<use x="125" xlink:href="#n"/>
</g>
</g>
<g clip-path="url(#a)">
<g transform="translate(1158.1 663.8) scale(.1 -.1)">
<use xlink:href="#j"/>
<use x="27.783203" xlink:href="#n"/>
</g>
</g>
<g clip-path="url(#a)">
<g transform="translate(1195.2 663.8) scale(.1 -.1)">
<use xlink:href="#y"/>
<use x="63.378906" xlink:href="#q"/>
<use x="124.560547" xlink:href="#f"/>
<use x="221.972656" xlink:href="#d"/>
</g>
</g>
<g clip-path="url(#a)">
<defs>
<path id="e" d="m10.688 12.406h10.312v-12.406h-10.312z"/>
</defs>
<g transform="translate(1255.6 663.8) scale(.1 -.1)">
<use xlink:href="#e"/>
</g>
</g>
<g clip-path="url(#a)">
<defs>
<path id="c" d="m12.406 8.2969h16.109v55.625l-17.531-3.5156v8.9844l17.438 3.5156h9.8594v-64.609h16.109v-8.2969h-41.984z"/>
</defs>
<g transform="translate(399.41 35.049) scale(.1 -.1)">
<use xlink:href="#c"/>
<use x="63.623047" xlink:href="#e"/>
<use x="95.410156" xlink:href="#c"/>
</g>
</g>
<g clip-path="url(#a)">
<defs>
<path id="m" d="m19.188 8.2969h34.422v-8.2969h-46.281v8.2969q5.6094 5.8125 15.297 15.594 9.7031 9.7969 12.188 12.641 4.7344 5.3125 6.6094 9 1.8906 3.6875 1.8906 7.25 0 5.8125-4.0781 9.4688-4.0781 3.6719-10.625 3.6719-4.6406 0-9.7969-1.6094-5.1406-1.6094-11-4.8906v9.9688q5.9531 2.3906 11.125 3.6094 5.1875 1.2188 9.4844 1.2188 11.328 0 18.062-5.6719 6.7344-5.6562 6.7344-15.125 0-4.5-1.6875-8.5312-1.6719-4.0156-6.125-9.4844-1.2188-1.4219-7.7656-8.1875-6.5312-6.7656-18.453-18.922z"/>
</defs>
<g transform="translate(399.41 130.96) scale(.1 -.1)">
<use xlink:href="#c"/>
<use x="63.623047" xlink:href="#e"/>
<use x="95.410156" xlink:href="#m"/>
</g>
</g>
<g clip-path="url(#a)">
<defs>
<path id="o" d="m40.578 39.312q7.0781-1.5156 11.047-6.3125 3.9844-4.7812 3.9844-11.812 0-10.781-7.4219-16.703-7.4219-5.9062-21.094-5.9062-4.5781 0-9.4375 0.90625t-10.031 2.7188v9.5156q4.0938-2.3906 8.9688-3.6094 4.8906-1.2188 10.219-1.2188 9.2656 0 14.125 3.6562t4.8594 10.641q0 6.4531-4.5156 10.078-4.5156 3.6406-12.562 3.6406h-8.5v8.1094h8.8906q7.2656 0 11.125 2.9062t3.8594 8.375q0 5.6094-3.9844 8.6094-3.9688 3.0156-11.391 3.0156-4.0625 0-8.7031-0.89062-4.6406-0.875-10.203-2.7188v8.7812q5.625 1.5625 10.531 2.3438t9.25 0.78125q11.234 0 17.766-5.1094 6.5469-5.0938 6.5469-13.781 0-6.0625-3.4688-10.234t-9.8594-5.7812z"/>
</defs>
<g transform="translate(195.81 577.7) scale(.1 -.1)">
<use xlink:href="#c"/>
<use x="63.623047" xlink:href="#e"/>
<use x="95.410156" xlink:href="#o"/>
</g>
</g>
<g clip-path="url(#a)">
<defs>
<path id="w" d="m37.797 64.312-24.906-38.922h24.906zm-2.5938 8.5938h12.406v-47.516h10.406v-8.2031h-10.406v-17.188h-9.8125v17.188h-32.906v9.5156z"/>
</defs>
<g transform="translate(52.154 577.7) scale(.1 -.1)">
<use xlink:href="#c"/>
<use x="63.623047" xlink:href="#e"/>
<use x="95.410156" xlink:href="#w"/>
</g>
</g>
<g clip-path="url(#a)">
<defs>
<path id="v" d="m10.797 72.906h38.719v-8.3125h-29.688v-17.859q2.1406 0.73438 4.2812 1.0938 2.1562 0.35938 4.3125 0.35938 12.203 0 19.328-6.6875 7.1406-6.6875 7.1406-18.109 0-11.766-7.3281-18.297-7.3281-6.5156-20.656-6.5156-4.5938 0-9.3594 0.78125-4.75 0.78125-9.8281 2.3438v9.9219q4.3906-2.3906 9.0781-3.5625t9.9062-1.1719q8.4531 0 13.375 4.4375 4.9375 4.4375 4.9375 12.062 0 7.6094-4.9375 12.047-4.9219 4.4531-13.375 4.4531-3.9531 0-7.8906-0.875-3.9219-0.875-8.0156-2.7344z"/>
</defs>
<g transform="translate(100.04 577.7) scale(.1 -.1)">
<use xlink:href="#c"/>
<use x="63.623047" xlink:href="#e"/>
<use x="95.410156" xlink:href="#v"/>
</g>
</g>
<g clip-path="url(#a)">
<defs>
<path id="u" d="m33.016 40.375q-6.6406 0-10.531-4.5469-3.875-4.5312-3.875-12.438 0-7.8594 3.875-12.438 3.8906-4.5625 10.531-4.5625t10.516 4.5625q3.875 4.5781 3.875 12.438 0 7.9062-3.875 12.438-3.875 4.5469-10.516 4.5469zm19.578 30.922v-8.9844q-3.7188 1.75-7.5 2.6719-3.7812 0.9375-7.5 0.9375-9.7656 0-14.922-6.5938-5.1406-6.5938-5.875-19.922 2.875 4.25 7.2188 6.5156 4.3594 2.2656 9.5781 2.2656 10.984 0 17.359-6.6719 6.375-6.6562 6.375-18.125 0-11.234-6.6406-18.031-6.6406-6.7812-17.672-6.7812-12.656 0-19.344 9.6875-6.6875 9.7031-6.6875 28.109 0 17.281 8.2031 27.562t22.016 10.281q3.7188 0 7.5-0.73438t7.8906-2.1875z"/>
</defs>
<g transform="translate(147.92 577.7) scale(.1 -.1)">
<use xlink:href="#c"/>
<use x="63.623047" xlink:href="#e"/>
<use x="95.410156" xlink:href="#u"/>
</g>
</g>
<g clip-path="url(#a)">
<defs>
<path id="t" d="m8.2031 72.906h46.875v-4.2031l-26.469-68.703h-10.297l24.906 64.594h-35.016z"/>
</defs>
<g transform="translate(651.29 224.29) scale(.1 -.1)">
<use xlink:href="#c"/>
<use x="63.623047" xlink:href="#e"/>
<use x="95.410156" xlink:href="#t"/>
</g>
</g>
<g clip-path="url(#a)">
<defs>
<path id="af" d="m31.781 34.625q-7.0312 0-11.062-3.7656-4.0156-3.7656-4.0156-10.344 0-6.5938 4.0156-10.359 4.0312-3.7656 11.062-3.7656t11.078 3.7812q4.0625 3.7969 4.0625 10.344 0 6.5781-4.0312 10.344-4.0156 3.7656-11.109 3.7656zm-9.8594 4.1875q-6.3438 1.5625-9.8906 5.9062-3.5312 4.3594-3.5312 10.609 0 8.7344 6.2188 13.812 6.2344 5.0781 17.062 5.0781 10.891 0 17.094-5.0781t6.2031-13.812q0-6.25-3.5469-10.609-3.5312-4.3438-9.8281-5.9062 7.125-1.6562 11.094-6.5 3.9844-4.8281 3.9844-11.797 0-10.609-6.4688-16.281-6.4688-5.6562-18.531-5.6562-12.047 0-18.531 5.6562-6.4688 5.6719-6.4688 16.281 0 6.9688 4 11.797 4.0156 4.8438 11.141 6.5zm-3.6094 15.578q0-5.6562 3.5312-8.8281 3.5469-3.1719 9.9375-3.1719 6.3594 0 9.9375 3.1719 3.5938 3.1719 3.5938 8.8281 0 5.6719-3.5938 8.8438-3.5781 3.1719-9.9375 3.1719-6.3906 0-9.9375-3.1719-3.5312-3.1719-3.5312-8.8438z"/>
</defs>
<g transform="translate(243.69 577.7) scale(.1 -.1)">
<use xlink:href="#c"/>
<use x="63.623047" xlink:href="#e"/>
<use x="95.410156" xlink:href="#af"/>
</g>
</g>
<g clip-path="url(#a)">
<defs>
<path id="ae" d="m10.984 1.5156v8.9844q3.7188-1.7656 7.5156-2.6875 3.8125-0.92188 7.4844-0.92188 9.7656 0 14.906 6.5625 5.1562 6.5625 5.8906 19.953-2.8281-4.2031-7.1875-6.4531-4.3438-2.25-9.6094-2.25-10.938 0-17.312 6.6094-6.375 6.625-6.375 18.109 0 11.219 6.6406 18 6.6406 6.7969 17.672 6.7969 12.656 0 19.312-9.7031 6.6719-9.6875 6.6719-28.141 0-17.234-8.1875-27.516-8.1719-10.281-21.984-10.281-3.7188 0-7.5312 0.73438-3.7969 0.73438-7.9062 2.2031zm19.625 30.906q6.6406 0 10.516 4.5312 3.8906 4.5469 3.8906 12.469 0 7.8594-3.8906 12.422-3.875 4.5625-10.516 4.5625t-10.516-4.5625-3.875-12.422q0-7.9219 3.875-12.469 3.875-4.5312 10.516-4.5312z"/>
</defs>
<g transform="translate(1249.3 577.7) scale(.1 -.1)">
<use xlink:href="#c"/>
<use x="63.623047" xlink:href="#e"/>
<use x="95.410156" xlink:href="#ae"/>
</g>
</g>
<g clip-path="url(#a)">
<defs>
<path id="ag" d="m31.781 66.406q-7.6094 0-11.453-7.5-3.8281-7.4844-3.8281-22.531 0-14.984 3.8281-22.484 3.8438-7.5 11.453-7.5 7.6719 0 11.5 7.5 3.8438 7.5 3.8438 22.484 0 15.047-3.8438 22.531-3.8281 7.5-11.5 7.5zm0 7.8125q12.266 0 18.734-9.7031 6.4688-9.6875 6.4688-28.141 0-18.406-6.4688-28.109-6.4688-9.6875-18.734-9.6875-12.25 0-18.719 9.6875-6.4688 9.7031-6.4688 28.109 0 18.453 6.4688 28.141 6.4688 9.7031 18.719 9.7031z"/>
</defs>
<g transform="translate(461.98 404.29) scale(.1 -.1)">
<use xlink:href="#c"/>
<use x="63.623047" xlink:href="#e"/>
<use x="95.410156" xlink:href="#c"/>
<use x="159.033203" xlink:href="#ag"/>
</g>
</g>
<g clip-path="url(#a)">
<g transform="translate(336.28 577.7) scale(.1 -.1)">
<use xlink:href="#c"/>
<use x="63.623047" xlink:href="#e"/>
<use x="95.410156" xlink:href="#c"/>
<use x="159.033203" xlink:href="#c"/>
</g>
</g>
<g clip-path="url(#a)">
<g transform="translate(288.4 577.7) scale(.1 -.1)">
<use xlink:href="#c"/>
<use x="63.623047" xlink:href="#e"/>
<use x="95.410156" xlink:href="#c"/>
<use x="159.033203" xlink:href="#m"/>
</g>
</g>
<g clip-path="url(#a)">
<g transform="translate(432.05 491.59) scale(.1 -.1)">
<use xlink:href="#c"/>
<use x="63.623047" xlink:href="#e"/>
<use x="95.410156" xlink:href="#c"/>
<use x="159.033203" xlink:href="#o"/>
</g>
</g>
<g clip-path="url(#a)">
<g transform="translate(479.94 577.7) scale(.1 -.1)">
<use xlink:href="#c"/>
<use x="63.623047" xlink:href="#e"/>
<use x="95.410156" xlink:href="#c"/>
<use x="159.033203" xlink:href="#w"/>
</g>
</g>
<g clip-path="url(#a)">
<g transform="translate(503.88 491.59) scale(.1 -.1)">
<use xlink:href="#c"/>
<use x="63.623047" xlink:href="#e"/>
<use x="95.410156" xlink:href="#c"/>
<use x="159.033203" xlink:href="#v"/>
</g>
</g>
<g clip-path="url(#a)">
<g transform="translate(527.82 577.7) scale(.1 -.1)">
<use xlink:href="#c"/>
<use x="63.623047" xlink:href="#e"/>
<use x="95.410156" xlink:href="#c"/>
<use x="159.033203" xlink:href="#u"/>
</g>
</g>
<g clip-path="url(#a)">
<g transform="translate(575.71 577.7) scale(.1 -.1)">
<use xlink:href="#c"/>
<use x="63.623047" xlink:href="#e"/>
<use x="95.410156" xlink:href="#c"/>
<use x="159.033203" xlink:href="#t"/>
</g>
</g>
<g clip-path="url(#a)">
<g transform="translate(623.59 577.7) scale(.1 -.1)">
<use xlink:href="#c"/>
<use x="63.623047" xlink:href="#e"/>
<use x="95.410156" xlink:href="#c"/>
<use x="159.033203" xlink:href="#af"/>
</g>
</g>
<g clip-path="url(#a)">
<g transform="translate(795.18 404.29) scale(.1 -.1)">
<use xlink:href="#c"/>
<use x="63.623047" xlink:href="#e"/>
<use x="95.410156" xlink:href="#c"/>
<use x="159.033203" xlink:href="#ae"/>
</g>
</g>
<g clip-path="url(#a)">
<g transform="translate(863.02 577.7) scale(.1 -.1)">
<use xlink:href="#c"/>
<use x="63.623047" xlink:href="#e"/>
<use x="95.410156" xlink:href="#m"/>
<use x="159.033203" xlink:href="#ag"/>
</g>
</g>
<g clip-path="url(#a)">
<g transform="translate(384.17 577.7) scale(.1 -.1)">
<use xlink:href="#c"/>
<use x="63.623047" xlink:href="#e"/>
<use x="95.410156" xlink:href="#m"/>
<use x="159.033203" xlink:href="#c"/>
</g>
</g>
<g clip-path="url(#a)">
<g transform="translate(432.05 577.7) scale(.1 -.1)">
<use xlink:href="#c"/>
<use x="63.623047" xlink:href="#e"/>
<use x="95.410156" xlink:href="#m"/>
<use x="159.033203" xlink:href="#m"/>
</g>
</g>
<g clip-path="url(#a)">
<g transform="translate(671.48 577.7) scale(.1 -.1)">
<use xlink:href="#c"/>
<use x="63.623047" xlink:href="#e"/>
<use x="95.410156" xlink:href="#m"/>
<use x="159.033203" xlink:href="#o"/>
</g>
</g>
<g clip-path="url(#a)">
<g transform="translate(719.36 577.7) scale(.1 -.1)">
<use xlink:href="#c"/>
<use x="63.623047" xlink:href="#e"/>
<use x="95.410156" xlink:href="#m"/>
<use x="159.033203" xlink:href="#w"/>
</g>
</g>
<g clip-path="url(#a)">
<g transform="translate(767.25 577.7) scale(.1 -.1)">
<use xlink:href="#c"/>
<use x="63.623047" xlink:href="#e"/>
<use x="95.410156" xlink:href="#m"/>
<use x="159.033203" xlink:href="#v"/>
</g>
</g>
<g clip-path="url(#a)">
<g transform="translate(815.13 577.7) scale(.1 -.1)">
<use xlink:href="#c"/>
<use x="63.623047" xlink:href="#e"/>
<use x="95.410156" xlink:href="#m"/>
<use x="159.033203" xlink:href="#u"/>
</g>
</g>
<g clip-path="url(#a)">
<g transform="translate(934.84 491.59) scale(.1 -.1)">
<use xlink:href="#c"/>
<use x="63.623047" xlink:href="#e"/>
<use x="95.410156" xlink:href="#m"/>
<use x="159.033203" xlink:href="#t"/>
</g>
</g>
<g clip-path="url(#a)">
<g transform="translate(958.79 577.7) scale(.1 -.1)">
<use xlink:href="#c"/>
<use x="63.623047" xlink:href="#e"/>
<use x="95.410156" xlink:href="#m"/>
<use x="159.033203" xlink:href="#af"/>
</g>
</g>
<g clip-path="url(#a)">
<g transform="translate(1006.7 577.7) scale(.1 -.1)">
<use xlink:href="#c"/>
<use x="63.623047" xlink:href="#e"/>
<use x="95.410156" xlink:href="#m"/>
<use x="159.033203" xlink:href="#ae"/>
</g>
</g>
<g clip-path="url(#a)">
<g transform="translate(1120.4 315.3) scale(.1 -.1)">
<use xlink:href="#c"/>
<use x="63.623047" xlink:href="#e"/>
<use x="95.410156" xlink:href="#o"/>
<use x="159.033203" xlink:href="#ag"/>
</g>
</g>
<g clip-path="url(#a)">
<g transform="translate(1102.4 577.7) scale(.1 -.1)">
<use xlink:href="#c"/>
<use x="63.623047" xlink:href="#e"/>
<use x="95.410156" xlink:href="#o"/>
<use x="159.033203" xlink:href="#c"/>
</g>
</g>
<g clip-path="url(#a)">
<g transform="translate(910.9 577.7) scale(.1 -.1)">
<use xlink:href="#c"/>
<use x="63.623047" xlink:href="#e"/>
<use x="95.410156" xlink:href="#o"/>
<use x="159.033203" xlink:href="#m"/>
</g>
</g>
<g clip-path="url(#a)">
<g transform="translate(1054.6 577.7) scale(.1 -.1)">
<use xlink:href="#c"/>
<use x="63.623047" xlink:href="#e"/>
<use x="95.410156" xlink:href="#o"/>
<use x="159.033203" xlink:href="#o"/>
</g>
</g>
<g clip-path="url(#a)">
<g transform="translate(1150.3 577.7) scale(.1 -.1)">
<use xlink:href="#c"/>
<use x="63.623047" xlink:href="#e"/>
<use x="95.410156" xlink:href="#o"/>
<use x="159.033203" xlink:href="#w"/>
</g>
</g>
<g clip-path="url(#a)">
<g transform="translate(1174.3 491.59) scale(.1 -.1)">
<use xlink:href="#c"/>
<use x="63.623047" xlink:href="#e"/>
<use x="95.410156" xlink:href="#o"/>
<use x="159.033203" xlink:href="#v"/>
</g>
</g>
<g clip-path="url(#a)">
<g transform="translate(1198.2 577.7) scale(.1 -.1)">
<use xlink:href="#c"/>
<use x="63.623047" xlink:href="#e"/>
<use x="95.410156" xlink:href="#o"/>
<use x="159.033203" xlink:href="#u"/>
</g>
</g>
<g clip-path="url(#a)">
<g transform="translate(1174.3 404.29) scale(.1 -.1)">
<use xlink:href="#c"/>
<use x="63.623047" xlink:href="#e"/>
<use x="95.410156" xlink:href="#o"/>
<use x="159.033203" xlink:href="#t"/>
</g>
</g>
<defs>
<clipPath id="a">
<rect width="1317.3" height="693.33"/>
</clipPath>
</defs>
</svg>
