<?xml version="1.0" encoding="UTF-8"?>
<!DOCTYPE svg  PUBLIC '-//W3C//DTD SVG 1.1//EN'  'http://www.w3.org/Graphics/SVG/1.1/DTD/svg11.dtd'>
<svg width="1621.3pt" height="853.33pt" version="1.1" viewBox="0 0 1621.3 853.33" xmlns="http://www.w3.org/2000/svg" xmlns:xlink="http://www.w3.org/1999/xlink">
<defs>
<style type="text/css">*{stroke-linecap:butt;stroke-linejoin:round;}</style>
</defs>
<path d="m0 853.33h1621.3v-853.33h-1621.3z" fill="#fff"/>
<g fill="none" stroke="#000">
<path d="m627.51 39.702 555.26 267.75" clip-path="url(#a)"/>
<path d="m627.51 39.702-506.1 648.86" clip-path="url(#a)"/>
<path d="m627.51 39.702-393.7 135.56" clip-path="url(#a)"/>
<path d="m627.51 39.702 111.85 648.86" clip-path="url(#a)"/>
<path d="m627.51 39.702 232.67 267.75" clip-path="url(#a)"/>
<path d="m1182.8 307.45 31.937 381.12" clip-path="url(#a)"/>
<path d="m1182.8 307.45-490.94 381.12" clip-path="url(#a)"/>
<path d="m1182.8 307.45-110.67 381.12" clip-path="url(#a)"/>
<path d="m1182.8 307.45-63.132 381.12" clip-path="url(#a)"/>
<path d="m1182.8 307.45-15.597 381.12" clip-path="url(#a)"/>
<path d="m1182.8 307.45 79.472 381.12" clip-path="url(#a)"/>
<path d="m1182.8 307.45 204.25 129.25" clip-path="url(#a)"/>
<path d="m1182.8 307.45 364.68 381.12" clip-path="url(#a)"/>
<path d="m1214.7 688.57v125.07" clip-path="url(#a)"/>
<path d="m121.41 688.57v125.07" clip-path="url(#a)"/>
<path d="m233.81 175.26 77.739 513.31" clip-path="url(#a)"/>
<path d="m233.81 175.26-159.93 513.31" clip-path="url(#a)"/>
<path d="m233.81 175.26-64.865 513.31" clip-path="url(#a)"/>
<path d="m233.81 175.26-17.33 513.31" clip-path="url(#a)"/>
<path d="m233.81 175.26 30.204 513.31" clip-path="url(#a)"/>
<path d="m233.81 175.26 134.19 132.19" clip-path="url(#a)"/>
<path d="m311.55 688.57v125.07" clip-path="url(#a)"/>
<path d="m691.83 688.57v125.07" clip-path="url(#a)"/>
<path d="m739.36 688.57v125.07" clip-path="url(#a)"/>
<path d="m860.18 307.45-25.748 381.12" clip-path="url(#a)"/>
<path d="m860.18 307.45-73.283 381.12" clip-path="url(#a)"/>
<path d="m860.18 307.45 99.03 129.25" clip-path="url(#a)"/>
<path d="m834.43 688.57v125.07" clip-path="url(#a)"/>
<path d="m1072.1 688.57v125.07" clip-path="url(#a)"/>
<path d="m1119.6 688.57v125.07" clip-path="url(#a)"/>
<path d="m1167.2 688.57v125.07" clip-path="url(#a)"/>
<path d="m1262.2 688.57v125.07" clip-path="url(#a)"/>
<path d="m1387 436.7 17.825 251.87" clip-path="url(#a)"/>
<path d="m1387 436.7-77.244 251.87" clip-path="url(#a)"/>
<path d="m1387 436.7-29.709 251.87" clip-path="url(#a)"/>
<path d="m1387 436.7 89.127 126.8" clip-path="url(#a)"/>
<path d="m1404.8 688.57v125.07" clip-path="url(#a)"/>
<path d="m1547.5 688.57v125.07" clip-path="url(#a)"/>
<path d="m73.88 688.57v125.07" clip-path="url(#a)"/>
<path d="m168.95 688.57v125.07" clip-path="url(#a)"/>
<path d="m216.48 688.57v125.07" clip-path="url(#a)"/>
<path d="m264.02 688.57v125.07" clip-path="url(#a)"/>
<path d="m368 307.45-199.05 381.12" clip-path="url(#a)" stroke-dasharray="3.7,1.6"/>
<path d="m368 307.45 38.622 381.12" clip-path="url(#a)"/>
<path d="m368 307.45-8.9127 381.12" clip-path="url(#a)"/>
<path d="m368 307.45 169.34 129.25" clip-path="url(#a)"/>
<path d="m406.62 688.57v125.07" clip-path="url(#a)"/>
<path d="m786.9 688.57v125.07" clip-path="url(#a)"/>
<path d="m959.21 436.7 65.36 251.87" clip-path="url(#a)"/>
<path d="m959.21 436.7-77.244 251.87" clip-path="url(#a)"/>
<path d="m959.21 436.7-29.709 251.87" clip-path="url(#a)"/>
<path d="m959.21 436.7 41.593 126.8" clip-path="url(#a)"/>
<path d="m1024.6 688.57v125.07" clip-path="url(#a)"/>
<path d="m1309.8 688.57v125.07" clip-path="url(#a)"/>
<path d="m1357.3 688.57v125.07" clip-path="url(#a)"/>
<path d="m1476.2 563.5 23.767 125.07" clip-path="url(#a)"/>
<path d="m1476.2 563.5-23.767 125.07" clip-path="url(#a)"/>
<path d="m1499.9 688.57v125.07" clip-path="url(#a)"/>
<path d="m359.09 688.57v125.07" clip-path="url(#a)"/>
<path d="m537.34 436.7 11.884 251.87" clip-path="url(#a)"/>
<path d="m537.34 436.7-83.186 251.87" clip-path="url(#a)"/>
<path d="m537.34 436.7-11.884 126.8" clip-path="url(#a)"/>
<path d="m537.34 436.7 83.186 126.8" clip-path="url(#a)"/>
<path d="m549.23 688.57v125.07" clip-path="url(#a)"/>
<path d="m881.97 688.57v125.07" clip-path="url(#a)"/>
<path d="m929.5 688.57v125.07" clip-path="url(#a)"/>
<path d="m1000.8 563.5 23.767 125.07" clip-path="url(#a)" stroke-dasharray="3.7,1.6"/>
<path d="m1000.8 563.5-23.767 125.07" clip-path="url(#a)"/>
<path d="m977.04 688.57v125.07" clip-path="url(#a)"/>
<path d="m1452.4 688.57v125.07" clip-path="url(#a)"/>
<path d="m454.16 688.57v125.07" clip-path="url(#a)"/>
<path d="m525.46 563.5 23.767 125.07" clip-path="url(#a)" stroke-dasharray="3.7,1.6"/>
<path d="m525.46 563.5-23.767 125.07" clip-path="url(#a)"/>
<path d="m501.69 688.57v125.07" clip-path="url(#a)"/>
<path d="m620.53 563.5 23.767 125.07" clip-path="url(#a)"/>
<path d="m620.53 563.5-23.767 125.07" clip-path="url(#a)"/>
<path d="m644.3 688.57v125.07" clip-path="url(#a)"/>
<path d="m596.76 688.57v125.07" clip-path="url(#a)"/>
</g>
<path d="m899.71 177.92 5.4191 2.6131q2.1618 1.0424 3.2042-1.1194l3.3629-6.974q1.0424-2.1618-1.1194-3.2042l-5.4191-2.6131q-2.1618-1.0424-3.2042 1.1194l-3.3629 6.974q-1.0424 2.1618 1.1194 3.2042z" clip-path="url(#a)" fill="#fff" stroke="#fff"/>
<g clip-path="url(#a)">
<defs>
<path id="am" d="m9.8125 72.906h9.8594v-29.891h35.844v29.891h9.8594v-72.906h-9.8594v34.719h-35.844v-34.719h-9.8594z"/>
</defs>
<g transform="translate(901.47 174.26) rotate(25.743) scale(.08 -.08)">
<use xlink:href="#am"/>
</g>
</g>
<path d="m378.04 369.75 2.7414-3.5148q1.476-1.8924-0.41639-3.3685l-6.1051-4.7618q-1.8924-1.476-3.3685 0.41639l-2.7414 3.5148q-1.476 1.8924 0.41639 3.3685l6.1051 4.7618q1.8924 1.476 3.3685-0.41639z" clip-path="url(#a)" fill="#fff" stroke="#fff"/>
<g clip-path="url(#a)">
<defs>
<path id="ar" d="m9.8125 72.906h9.8594v-64.609h35.5v-8.2969h-45.359z"/>
</defs>
<g transform="translate(374.83 367.25) rotate(-52.047) scale(.08 -.08)">
<use xlink:href="#ar"/>
</g>
</g>
<path d="m429.86 114.39 5.6885-1.9586q2.2693-0.78134 1.4879-3.0506l-2.5206-7.3207q-0.78134-2.2693-3.0506-1.4879l-5.6885 1.9586q-2.2693 0.78134-1.4879 3.0506l2.5206 7.3207q0.78134 2.2693 3.0506 1.4879z" clip-path="url(#a)" fill="#fff" stroke="#fff"/>
<g clip-path="url(#a)">
<g transform="translate(428.54 110.55) rotate(-18.999) scale(.08 -.08)">
<use xlink:href="#am"/>
</g>
</g>
<path d="m676.88 363 0.75724 4.3927q0.40771 2.3651 2.7728 1.9574l7.63-1.3153q2.3651-0.40771 1.9574-2.7728l-0.75724-4.3927q-0.40771-2.3651-2.7728-1.9574l-7.63 1.3153q-2.3651 0.40771-1.9574 2.7728z" clip-path="url(#a)" fill="#fff" stroke="#fff"/>
<g clip-path="url(#a)">
<g transform="translate(680.88 362.31) rotate(80.219) scale(.08 -.08)">
<use xlink:href="#ar"/>
</g>
</g>
<path d="m737.14 175.42 3.9463 4.5412q1.5742 1.8116 3.3858 0.23732l5.8442-5.0786q1.8116-1.5742 0.23732-3.3858l-3.9463-4.5412q-1.5742-1.8116-3.3858-0.23732l-5.8442 5.0786q-1.8116 1.5742-0.23732 3.3858z" clip-path="url(#a)" fill="#fff" stroke="#fff"/>
<g clip-path="url(#a)">
<g transform="translate(740.21 172.75) rotate(49.009) scale(.08 -.08)">
<use xlink:href="#am"/>
</g>
</g>
<path d="m1192.3 496.13 0.40282 4.8069q0.20042 2.3916 2.592 2.1912l7.7155-0.64655q2.3916-0.20042 2.1912-2.592l-0.40282-4.8069q-0.20042-2.3916-2.592-2.1912l-7.7155 0.64655q-2.3916 0.20042-2.1912 2.592z" clip-path="url(#a)" fill="#fff" stroke="#fff"/>
<g clip-path="url(#a)">
<defs>
<path id="ac" d="m19.672 64.797v-27.391h12.406q6.8906 0 10.641 3.5625 3.7656 3.5625 3.7656 10.156 0 6.5469-3.7656 10.109-3.75 3.5625-10.641 3.5625zm-9.8594 8.1094h22.266q12.266 0 18.531-5.5469 6.2812-5.5469 6.2812-16.234 0-10.797-6.2812-16.312-6.2656-5.5156-18.531-5.5156h-12.406v-29.297h-9.8594z"/>
</defs>
<g transform="translate(1196.3 495.79) rotate(85.21) scale(.08 -.08)">
<use xlink:href="#ac"/>
</g>
</g>
<path d="m938.84 504.76 4.625-3.5903q1.8958-1.4717 0.4241-3.3675l-4.7478-6.116q-1.4717-1.8958-3.3675-0.4241l-4.625 3.5903q-1.8958 1.4717-0.4241 3.3675l4.7478 6.116q1.4717 1.8958 3.3675 0.4241z" clip-path="url(#a)" fill="#fff" stroke="#fff"/>
<g clip-path="url(#a)">
<defs>
<path id="al" d="m8.6875 72.906h9.9219v-44.297q0-11.719 4.2344-16.875 4.25-5.1406 13.781-5.1406 9.4688 0 13.719 5.1406 4.25 5.1562 4.25 16.875v44.297h9.9062v-45.516q0-14.25-7.0625-21.531-7.0469-7.2812-20.812-7.2812-13.828 0-20.891 7.2812-7.0469 7.2812-7.0469 21.531z"/>
</defs>
<g transform="translate(936.34 501.55) rotate(-37.822) scale(.08 -.08)">
<use xlink:href="#al"/>
</g>
</g>
<path d="m1132.6 502.57 1.6327-5.6227q0.66926-2.3048-1.6355-2.9741l-7.4354-2.159q-2.3048-0.66926-2.9741 1.6355l-1.6327 5.6227q-0.66926 2.3048 1.6355 2.9741l7.4354 2.159q2.3048 0.66926 2.9741-1.6355z" clip-path="url(#a)" fill="#fff" stroke="#fff"/>
<g clip-path="url(#a)">
<g transform="translate(1128.7 501.44) rotate(-73.808) scale(.08 -.08)">
<use xlink:href="#al"/>
</g>
</g>
<path d="m1156.9 501.73 0.89433-5.3989q0.39222-2.3677-1.9755-2.76l-7.6384-1.2653q-2.3677-0.39222-2.76 1.9755l-0.89433 5.3989q-0.39222 2.3677 1.9755 2.7599l7.6384 1.2653q2.3677 0.39222 2.76-1.9755z" clip-path="url(#a)" fill="#fff" stroke="#fff"/>
<g clip-path="url(#a)">
<defs>
<path id="q" d="m34.188 63.188-13.391-36.281h26.812zm-5.5781 9.7188h11.188l27.781-72.906h-10.25l-6.6406 18.703h-32.859l-6.6406-18.703h-10.406z"/>
</defs>
<g transform="translate(1152.9 501.07) rotate(-80.594) scale(.08 -.08)">
<use xlink:href="#q"/>
</g>
</g>
<path d="m1181.1 500.56 0.18815-4.5974q0.098138-2.398-2.2999-2.4961l-7.736-0.3166q-2.398-0.098138-2.4961 2.2999l-0.18815 4.5974q-0.098138 2.398 2.2999 2.4961l7.736 0.3166q2.398 0.098139 2.4961-2.2999z" clip-path="url(#a)" fill="#fff" stroke="#fff"/>
<g clip-path="url(#a)">
<defs>
<path id="x" d="m9.8125 72.906h41.891v-8.3125h-32.031v-21.484h28.906v-8.2969h-28.906v-34.812h-9.8594z"/>
</defs>
<g transform="translate(1177.1 500.4) rotate(-87.656) scale(.08 -.08)">
<use xlink:href="#x"/>
</g>
</g>
<path d="m1215.7 496.27 1.2575 6.0303q0.48992 2.3495 2.8394 1.8595l7.5795-1.5805q2.3495-0.48992 1.8595-2.8394l-1.2575-6.0303q-0.48992-2.3495-2.8394-1.8595l-7.5795 1.5805q-2.3495 0.48992-1.8595 2.8394z" clip-path="url(#a)" fill="#fff" stroke="#fff"/>
<g clip-path="url(#a)">
<defs>
<path id="an" d="m19.672 64.797v-56.688h11.922q15.094 0 22.094 6.8281 7 6.8438 7 21.594 0 14.641-7 21.453t-22.094 6.8125zm-9.8594 8.1094h20.266q21.188 0 31.094-8.8125 9.9219-8.8125 9.9219-27.562 0-18.859-9.9688-27.703-9.9531-8.8281-31.047-8.8281h-20.266z"/>
</defs>
<g transform="translate(1219.7 495.44) rotate(78.221) scale(.08 -.08)">
<use xlink:href="#an"/>
</g>
</g>
<path d="m1279.2 375.91 4.6244 2.9263q2.0281 1.2833 3.3114-0.74474l4.1401-6.5426q1.2833-2.0281-0.74474-3.3114l-4.6244-2.9263q-2.0281-1.2833-3.3114 0.74474l-4.1401 6.5426q-1.2833 2.0281 0.74474 3.3114z" clip-path="url(#a)" fill="#fff" stroke="#fff"/>
<g clip-path="url(#a)">
<g transform="translate(1281.4 372.48) rotate(32.325) scale(.08 -.08)">
<use xlink:href="#q"/>
</g>
</g>
<path d="m1358.6 500.23 4.0479 4.2303q1.6593 1.734 3.3933 0.074786l5.5941-5.3528q1.734-1.6593 0.074786-3.3933l-4.0479-4.2303q-1.6593-1.734-3.3933-0.074786l-5.5941 5.3528q-1.734 1.6593-0.074786 3.3933z" clip-path="url(#a)" fill="#fff" stroke="#fff"/>
<g clip-path="url(#a)">
<g transform="translate(1361.5 497.42) rotate(46.263) scale(.08 -.08)">
<use xlink:href="#al"/>
</g>
</g>
<path d="m1208.4 733.46v35.285q0 2.4 2.4 2.4h7.7425q2.4 0 2.4-2.4v-35.285q0-2.4-2.4-2.4h-7.7425q-2.4 0-2.4 2.4z" clip-path="url(#a)" fill="#fff" stroke="#fff"/>
<g clip-path="url(#a)">
<defs>
<path id="k" d="m-0.29688 72.906h61.672v-8.3125h-25.875v-64.594h-9.9062v64.594h-25.891z"/>
<path id="d" d="m56.203 29.594v-4.3906h-41.312q0.59375-9.2812 5.5938-14.141t13.938-4.8594q5.1719 0 10.031 1.2656t9.6562 3.8125v-8.5q-4.8438-2.0469-9.9219-3.125t-10.297-1.0781q-13.094 0-20.734 7.6094-7.6406 7.625-7.6406 20.625 0 13.422 7.25 21.297 7.25 7.8906 19.562 7.8906 11.031 0 17.453-7.1094 6.4219-7.0938 6.4219-19.297zm-8.9844 2.6406q-0.09375 7.3594-4.125 11.75-4.0312 4.4062-10.672 4.4062-7.5156 0-12.031-4.25t-5.2031-11.969z"/>
<path id="h" d="m41.109 46.297q-1.5156 0.875-3.2969 1.2812-1.7812 0.42188-3.9219 0.42188-7.625 0-11.703-4.9531t-4.0781-14.234v-28.812h-9.0312v54.688h9.0312v-8.5q2.8438 4.9844 7.375 7.3906 4.5469 2.4219 11.047 2.4219 0.92188 0 2.0469-0.125 1.125-0.10938 2.4844-0.35938z"/>
<path id="l" d="m52 44.188q3.375 6.0625 8.0625 8.9375t11.031 2.875q8.5469 0 13.188-5.9844 4.6406-5.9688 4.6406-17v-33.016h-9.0312v32.719q0 7.8594-2.7969 11.656-2.7812 3.8125-8.4844 3.8125-6.9844 0-11.047-4.6406-4.0469-4.625-4.0469-12.641v-30.906h-9.0312v32.719q0 7.9062-2.7812 11.688t-8.5938 3.7812q-6.8906 0-10.953-4.6562-4.0469-4.6562-4.0469-12.625v-30.906h-9.0312v54.688h9.0312v-8.5q3.0781 5.0312 7.375 7.4219t10.203 2.3906q5.9688 0 10.141-3.0312 4.1719-3.0156 6.1719-8.7812z"/>
<path id="g" d="m9.4219 54.688h8.9844v-54.688h-8.9844zm0 21.297h8.9844v-11.391h-8.9844z"/>
<path id="i" d="m54.891 33.016v-33.016h-8.9844v32.719q0 7.7656-3.0312 11.609-3.0312 3.8594-9.0781 3.8594-7.2812 0-11.484-4.6406-4.2031-4.625-4.2031-12.641v-30.906h-9.0312v54.688h9.0312v-8.5q3.2344 4.9375 7.5938 7.375 4.375 2.4375 10.094 2.4375 9.4219 0 14.25-5.8281 4.8438-5.8281 4.8438-17.156z"/>
<path id="f" d="m34.281 27.484q-10.891 0-15.094-2.4844t-4.2031-8.5q0-4.7812 3.1562-7.5938 3.1562-2.7969 8.5625-2.7969 7.4844 0 12 5.2969t4.5156 14.078v2zm17.922 3.7188v-31.203h-8.9844v8.2969q-3.0781-4.9688-7.6719-7.3438t-11.234-2.375q-8.3906 0-13.359 4.7188-4.9531 4.7188-4.9531 12.625 0 9.2188 6.1719 13.906 6.1875 4.6875 18.438 4.6875h12.609v0.89062q0 6.2031-4.0781 9.5938t-11.453 3.3906q-4.6875 0-9.1406-1.125-4.4375-1.125-8.5312-3.375v8.3125q4.9219 1.9062 9.5625 2.8438 4.6406 0.95312 9.0312 0.95312 11.875 0 17.734-6.1562 5.8594-6.1406 5.8594-18.641z"/>
<path id="j" d="m9.4219 75.984h8.9844v-75.984h-8.9844z"/>
</defs>
<g transform="translate(1212.5 733.46) rotate(90) scale(.08 -.08)">
<use xlink:href="#k"/>
<use x="60.818359" xlink:href="#d"/>
<use x="122.341797" xlink:href="#h"/>
<use x="163.439453" xlink:href="#l"/>
<use x="260.851562" xlink:href="#g"/>
<use x="288.634766" xlink:href="#i"/>
<use x="352.013672" xlink:href="#f"/>
<use x="413.292969" xlink:href="#j"/>
</g>
</g>
<path d="m115.14 733.46v35.285q0 2.4 2.4 2.4h7.7425q2.4 0 2.4-2.4v-35.285q0-2.4-2.4-2.4h-7.7425q-2.4 0-2.4 2.4z" clip-path="url(#a)" fill="#fff" stroke="#fff"/>
<g clip-path="url(#a)">
<g transform="translate(119.21 733.46) rotate(90) scale(.08 -.08)">
<use xlink:href="#k"/>
<use x="60.818359" xlink:href="#d"/>
<use x="122.341797" xlink:href="#h"/>
<use x="163.439453" xlink:href="#l"/>
<use x="260.851562" xlink:href="#g"/>
<use x="288.634766" xlink:href="#i"/>
<use x="352.013672" xlink:href="#f"/>
<use x="413.292969" xlink:href="#j"/>
</g>
</g>
<path d="m266.12 430.47 0.72231 4.7694q0.35937 2.3729 2.7323 2.0136l7.6552-1.1594q2.3729-0.35937 2.0136-2.7323l-0.7223-4.7694q-0.35938-2.3729-2.7323-2.0136l-7.6552 1.1594q-2.3729 0.35937-2.0136 2.7323z" clip-path="url(#a)" fill="#fff" stroke="#fff"/>
<g clip-path="url(#a)">
<g transform="translate(270.14 429.86) rotate(81.388) scale(.08 -.08)">
<use xlink:href="#ac"/>
</g>
</g>
<path d="m158.92 436.72 1.8324-5.8811q0.71393-2.2914-1.5774-3.0053l-7.392-2.3032q-2.2914-0.71393-3.0053 1.5774l-1.8324 5.8811q-0.71393 2.2914 1.5774 3.0053l7.392 2.3032q2.2914 0.71393 3.0053-1.5774z" clip-path="url(#a)" fill="#fff" stroke="#fff"/>
<g clip-path="url(#a)">
<g transform="translate(155.04 435.51) rotate(-72.694) scale(.08 -.08)">
<use xlink:href="#an"/>
</g>
</g>
<path d="m207.26 435.41 0.68608-5.4293q0.30089-2.3811-2.0802-2.682l-7.6814-0.97067q-2.3811-0.30089-2.682 2.0802l-0.68608 5.4293q-0.30089 2.3811 2.0802 2.682l7.6814 0.97067q2.3811 0.30089 2.682-2.0802z" clip-path="url(#a)" fill="#fff" stroke="#fff"/>
<g clip-path="url(#a)">
<g transform="translate(203.23 434.9) rotate(-82.798) scale(.08 -.08)">
<use xlink:href="#q"/>
</g>
</g>
<path d="m231.34 434.42 0.15526-4.5986q0.080983-2.3986-2.3176-2.4796l-7.7381-0.26125q-2.3986-0.080983-2.4796 2.3177l-0.15526 4.5986q-0.080983 2.3986 2.3176 2.4796l7.7381 0.26125q2.3986 0.080983 2.4796-2.3176z" clip-path="url(#a)" fill="#fff" stroke="#fff"/>
<g clip-path="url(#a)">
<g transform="translate(227.28 434.29) rotate(-88.066) scale(.08 -.08)">
<use xlink:href="#x"/>
</g>
</g>
<path d="m242.47 429.21 0.36184 6.1494q0.14098 2.3959 2.5368 2.2549l7.7291-0.4548q2.3959-0.14098 2.2549-2.5368l-0.36184-6.1494q-0.14098-2.3959-2.5368-2.2549l-7.7291 0.4548q-2.3959 0.14098-2.2549 2.5368z" clip-path="url(#a)" fill="#fff" stroke="#fff"/>
<g clip-path="url(#a)">
<g transform="translate(246.53 428.97) rotate(86.632) scale(.08 -.08)">
<use xlink:href="#an"/>
</g>
</g>
<path d="m294.56 243.9 3.8985 3.8406q1.7097 1.6843 3.394-0.025415l5.4336-5.5156q1.6843-1.7097-0.025416-3.394l-3.8985-3.8406q-1.7097-1.6843-3.394 0.025416l-5.4336 5.5156q-1.6843 1.7097 0.025416 3.394z" clip-path="url(#a)" fill="#fff" stroke="#fff"/>
<g clip-path="url(#a)">
<g transform="translate(297.41 241.01) rotate(44.571) scale(.08 -.08)">
<use xlink:href="#q"/>
</g>
</g>
<path d="m305.28 733.46v35.285q0 2.4 2.4 2.4h7.7425q2.4 0 2.4-2.4v-35.285q0-2.4-2.4-2.4h-7.7425q-2.4 0-2.4 2.4z" clip-path="url(#a)" fill="#fff" stroke="#fff"/>
<g clip-path="url(#a)">
<g transform="translate(309.35 733.46) rotate(90) scale(.08 -.08)">
<use xlink:href="#k"/>
<use x="60.818359" xlink:href="#d"/>
<use x="122.341797" xlink:href="#h"/>
<use x="163.439453" xlink:href="#l"/>
<use x="260.851562" xlink:href="#g"/>
<use x="288.634766" xlink:href="#i"/>
<use x="352.013672" xlink:href="#f"/>
<use x="413.292969" xlink:href="#j"/>
</g>
</g>
<path d="m685.56 733.46v35.285q0 2.4 2.4 2.4h7.7425q2.4 0 2.4-2.4v-35.285q0-2.4-2.4-2.4h-7.7425q-2.4 0-2.4 2.4z" clip-path="url(#a)" fill="#fff" stroke="#fff"/>
<g clip-path="url(#a)">
<g transform="translate(689.62 733.46) rotate(90) scale(.08 -.08)">
<use xlink:href="#k"/>
<use x="60.818359" xlink:href="#d"/>
<use x="122.341797" xlink:href="#h"/>
<use x="163.439453" xlink:href="#l"/>
<use x="260.851562" xlink:href="#g"/>
<use x="288.634766" xlink:href="#i"/>
<use x="352.013672" xlink:href="#f"/>
<use x="413.292969" xlink:href="#j"/>
</g>
</g>
<path d="m733.09 733.46v35.285q0 2.4 2.4 2.4h7.7425q2.4 0 2.4-2.4v-35.285q0-2.4-2.4-2.4h-7.7425q-2.4 0-2.4 2.4z" clip-path="url(#a)" fill="#fff" stroke="#fff"/>
<g clip-path="url(#a)">
<g transform="translate(737.16 733.46) rotate(90) scale(.08 -.08)">
<use xlink:href="#k"/>
<use x="60.818359" xlink:href="#d"/>
<use x="122.341797" xlink:href="#h"/>
<use x="163.439453" xlink:href="#l"/>
<use x="260.851562" xlink:href="#g"/>
<use x="288.634766" xlink:href="#i"/>
<use x="352.013672" xlink:href="#f"/>
<use x="413.292969" xlink:href="#j"/>
</g>
</g>
<path d="m853.4 500.84 0.32515-4.8128q0.16177-2.3945-2.2328-2.5563l-7.7249-0.52189q-2.3945-0.16177-2.5563 2.2328l-0.32515 4.8128q-0.16177 2.3945 2.2328 2.5563l7.7249 0.52189q2.3945 0.16177 2.5563-2.2328z" clip-path="url(#a)" fill="#fff" stroke="#fff"/>
<g clip-path="url(#a)">
<g transform="translate(849.35 500.56) rotate(-86.135) scale(.08 -.08)">
<use xlink:href="#ac"/>
</g>
</g>
<path d="m829.18 501.88 1.0333-5.3741q0.45318-2.3568-1.9036-2.81l-7.6032-1.462q-2.3568-0.45318-2.81 1.9036l-1.0333 5.3741q-0.45318 2.3568 1.9036 2.81l7.6032 1.462q2.3568 0.45318 2.81-1.9036z" clip-path="url(#a)" fill="#fff" stroke="#fff"/>
<g clip-path="url(#a)">
<g transform="translate(825.19 501.11) rotate(-79.116) scale(.08 -.08)">
<use xlink:href="#q"/>
</g>
</g>
<path d="m903.05 373.72 3.3284 4.344q1.4597 1.9051 3.3648 0.44538l6.1458-4.709q1.9051-1.4597 0.44538-3.3648l-3.3284-4.344q-1.4597-1.9051-3.3648-0.44538l-6.1458 4.709q-1.9051 1.4597-0.44538 3.3648z" clip-path="url(#a)" fill="#fff" stroke="#fff"/>
<g clip-path="url(#a)">
<g transform="translate(906.28 371.24) rotate(52.54) scale(.08 -.08)">
<use xlink:href="#q"/>
</g>
</g>
<path d="m828.16 733.46v35.285q0 2.4 2.4 2.4h7.7425q2.4 0 2.4-2.4v-35.285q0-2.4-2.4-2.4h-7.7425q-2.4 0-2.4 2.4z" clip-path="url(#a)" fill="#fff" stroke="#fff"/>
<g clip-path="url(#a)">
<g transform="translate(832.23 733.46) rotate(90) scale(.08 -.08)">
<use xlink:href="#k"/>
<use x="60.818359" xlink:href="#d"/>
<use x="122.341797" xlink:href="#h"/>
<use x="163.439453" xlink:href="#l"/>
<use x="260.851562" xlink:href="#g"/>
<use x="288.634766" xlink:href="#i"/>
<use x="352.013672" xlink:href="#f"/>
<use x="413.292969" xlink:href="#j"/>
</g>
</g>
<path d="m1065.8 733.46v35.285q0 2.4 2.4 2.4h7.7425q2.4 0 2.4-2.4v-35.285q0-2.4-2.4-2.4h-7.7425q-2.4 0-2.4 2.4z" clip-path="url(#a)" fill="#fff" stroke="#fff"/>
<g clip-path="url(#a)">
<g transform="translate(1069.9 733.46) rotate(90) scale(.08 -.08)">
<use xlink:href="#k"/>
<use x="60.818359" xlink:href="#d"/>
<use x="122.341797" xlink:href="#h"/>
<use x="163.439453" xlink:href="#l"/>
<use x="260.851562" xlink:href="#g"/>
<use x="288.634766" xlink:href="#i"/>
<use x="352.013672" xlink:href="#f"/>
<use x="413.292969" xlink:href="#j"/>
</g>
</g>
<path d="m1113.4 733.46v35.285q0 2.4 2.4 2.4h7.7425q2.4 0 2.4-2.4v-35.285q0-2.4-2.4-2.4h-7.7425q-2.4 0-2.4 2.4z" clip-path="url(#a)" fill="#fff" stroke="#fff"/>
<g clip-path="url(#a)">
<g transform="translate(1117.4 733.46) rotate(90) scale(.08 -.08)">
<use xlink:href="#k"/>
<use x="60.818359" xlink:href="#d"/>
<use x="122.341797" xlink:href="#h"/>
<use x="163.439453" xlink:href="#l"/>
<use x="260.851562" xlink:href="#g"/>
<use x="288.634766" xlink:href="#i"/>
<use x="352.013672" xlink:href="#f"/>
<use x="413.292969" xlink:href="#j"/>
</g>
</g>
<path d="m1160.9 733.46v35.285q0 2.4 2.4 2.4h7.7425q2.4 0 2.4-2.4v-35.285q0-2.4-2.4-2.4h-7.7425q-2.4 0-2.4 2.4z" clip-path="url(#a)" fill="#fff" stroke="#fff"/>
<g clip-path="url(#a)">
<g transform="translate(1165 733.46) rotate(90) scale(.08 -.08)">
<use xlink:href="#k"/>
<use x="60.818359" xlink:href="#d"/>
<use x="122.341797" xlink:href="#h"/>
<use x="163.439453" xlink:href="#l"/>
<use x="260.851562" xlink:href="#g"/>
<use x="288.634766" xlink:href="#i"/>
<use x="352.013672" xlink:href="#f"/>
<use x="413.292969" xlink:href="#j"/>
</g>
</g>
<path d="m1256 733.46v35.285q0 2.4 2.4 2.4h7.7425q2.4 0 2.4-2.4v-35.285q0-2.4-2.4-2.4h-7.7425q-2.4 0-2.4 2.4z" clip-path="url(#a)" fill="#fff" stroke="#fff"/>
<g clip-path="url(#a)">
<g transform="translate(1260 733.46) rotate(90) scale(.08 -.08)">
<use xlink:href="#k"/>
<use x="60.818359" xlink:href="#d"/>
<use x="122.341797" xlink:href="#h"/>
<use x="163.439453" xlink:href="#l"/>
<use x="260.851562" xlink:href="#g"/>
<use x="288.634766" xlink:href="#i"/>
<use x="352.013672" xlink:href="#f"/>
<use x="413.292969" xlink:href="#j"/>
</g>
</g>
<path d="m1389.5 560.29 0.39437 5.5723q0.16943 2.394 2.5634 2.2246l7.7232-0.54659q2.394-0.16943 2.2246-2.5634l-0.39437-5.5723q-0.16943-2.394-2.5634-2.2246l-7.7232 0.54659q-2.394 0.16943-2.2246 2.5634z" clip-path="url(#a)" fill="#fff" stroke="#fff"/>
<g clip-path="url(#a)">
<defs>
<path id="z" d="m64.406 67.281v-10.391q-4.9844 4.6406-10.625 6.9219-5.6406 2.2969-11.984 2.2969-12.5 0-19.141-7.6406t-6.6406-22.094q0-14.406 6.6406-22.047t19.141-7.6406q6.3438 0 11.984 2.2969t10.625 6.9375v-10.312q-5.1719-3.5156-10.969-5.2812-5.7812-1.75-12.219-1.75-16.562 0-26.094 10.125-9.5156 10.141-9.5156 27.672 0 17.578 9.5156 27.703 9.5312 10.141 26.094 10.141 6.5312 0 12.312-1.7344 5.7969-1.7344 10.875-5.2031z"/>
</defs>
<g transform="translate(1393.5 560) rotate(85.952) scale(.08 -.08)">
<use xlink:href="#z"/>
</g>
</g>
<path d="m1353.6 567.13 1.6298-5.3144q0.70369-2.2945-1.5908-2.9982l-7.4022-2.2701q-2.2945-0.70369-2.9982 1.5908l-1.6298 5.3144q-0.70369 2.2945 1.5908 2.9982l7.4022 2.2701q2.2945 0.70369 2.9982-1.5908z" clip-path="url(#a)" fill="#fff" stroke="#fff"/>
<g clip-path="url(#a)">
<defs>
<path id="w" d="m44.391 34.188q3.1719-1.0781 6.1719-4.5938t6.0312-9.6719l10.016-19.922h-10.609l-9.3125 18.703q-3.625 7.3281-7.0156 9.7188t-9.25 2.3906h-10.75v-30.812h-9.8594v72.906h22.266q12.5 0 18.656-5.2344 6.1562-5.2188 6.1562-15.766 0-6.8906-3.2031-11.438-3.2031-4.5312-9.2969-6.2812zm-24.719 30.609v-25.875h12.406q7.125 0 10.766 3.2969t3.6406 9.6875-3.6406 9.6406-10.766 3.25z"/>
</defs>
<g transform="translate(1349.7 565.94) rotate(-72.95) scale(.08 -.08)">
<use xlink:href="#w"/>
</g>
</g>
<path d="m1378.1 565.65 0.539-4.5696q0.28114-2.3835-2.1023-2.6646l-7.6892-0.90697q-2.3835-0.28114-2.6646 2.1023l-0.539 4.5696q-0.28114 2.3835 2.1023 2.6646l7.6892 0.90697q2.3835 0.28114 2.6646-2.1023z" clip-path="url(#a)" fill="#fff" stroke="#fff"/>
<g clip-path="url(#a)">
<g transform="translate(1374.1 565.17) rotate(-83.273) scale(.08 -.08)">
<use xlink:href="#x"/>
</g>
</g>
<path d="m1425 501.64 2.9068 4.1356q1.3801 1.9635 3.3436 0.58342l6.3343-4.4522q1.9635-1.3801 0.58342-3.3436l-2.9068-4.1356q-1.3801-1.9635-3.3436-0.58342l-6.3343 4.4522q-1.9635 1.3801-0.58342 3.3436z" clip-path="url(#a)" fill="#fff" stroke="#fff"/>
<g clip-path="url(#a)">
<defs>
<path id="y" d="m9.8125 72.906h46.094v-8.3125h-36.234v-21.578h34.719v-8.2969h-34.719v-26.422h37.109v-8.2969h-46.969z"/>
</defs>
<g transform="translate(1428.3 499.3) rotate(54.898) scale(.08 -.08)">
<use xlink:href="#y"/>
</g>
</g>
<path d="m1398.6 733.46v35.285q0 2.4 2.4 2.4h7.7425q2.4 0 2.4-2.4v-35.285q0-2.4-2.4-2.4h-7.7425q-2.4 0-2.4 2.4z" clip-path="url(#a)" fill="#fff" stroke="#fff"/>
<g clip-path="url(#a)">
<g transform="translate(1402.6 733.46) rotate(90) scale(.08 -.08)">
<use xlink:href="#k"/>
<use x="60.818359" xlink:href="#d"/>
<use x="122.341797" xlink:href="#h"/>
<use x="163.439453" xlink:href="#l"/>
<use x="260.851562" xlink:href="#g"/>
<use x="288.634766" xlink:href="#i"/>
<use x="352.013672" xlink:href="#f"/>
<use x="413.292969" xlink:href="#j"/>
</g>
</g>
<path d="m1541.2 733.46v35.285q0 2.4 2.4 2.4h7.7425q2.4 0 2.4-2.4v-35.285q0-2.4-2.4-2.4h-7.7425q-2.4 0-2.4 2.4z" clip-path="url(#a)" fill="#fff" stroke="#fff"/>
<g clip-path="url(#a)">
<g transform="translate(1545.2 733.46) rotate(90) scale(.08 -.08)">
<use xlink:href="#k"/>
<use x="60.818359" xlink:href="#d"/>
<use x="122.341797" xlink:href="#h"/>
<use x="163.439453" xlink:href="#l"/>
<use x="260.851562" xlink:href="#g"/>
<use x="288.634766" xlink:href="#i"/>
<use x="352.013672" xlink:href="#f"/>
<use x="413.292969" xlink:href="#j"/>
</g>
</g>
<path d="m67.609 733.46v35.285q0 2.4 2.4 2.4h7.7425q2.4 0 2.4-2.4v-35.285q0-2.4-2.4-2.4h-7.7425q-2.4 0-2.4 2.4z" clip-path="url(#a)" fill="#fff" stroke="#fff"/>
<g clip-path="url(#a)">
<g transform="translate(71.672 733.46) rotate(90) scale(.08 -.08)">
<use xlink:href="#k"/>
<use x="60.818359" xlink:href="#d"/>
<use x="122.341797" xlink:href="#h"/>
<use x="163.439453" xlink:href="#l"/>
<use x="260.851562" xlink:href="#g"/>
<use x="288.634766" xlink:href="#i"/>
<use x="352.013672" xlink:href="#f"/>
<use x="413.292969" xlink:href="#j"/>
</g>
</g>
<path d="m162.68 733.46v35.285q0 2.4 2.4 2.4h7.7425q2.4 0 2.4-2.4v-35.285q0-2.4-2.4-2.4h-7.7425q-2.4 0-2.4 2.4z" clip-path="url(#a)" fill="#fff" stroke="#fff"/>
<g clip-path="url(#a)">
<g transform="translate(166.74 733.46) rotate(90) scale(.08 -.08)">
<use xlink:href="#k"/>
<use x="60.818359" xlink:href="#d"/>
<use x="122.341797" xlink:href="#h"/>
<use x="163.439453" xlink:href="#l"/>
<use x="260.851562" xlink:href="#g"/>
<use x="288.634766" xlink:href="#i"/>
<use x="352.013672" xlink:href="#f"/>
<use x="413.292969" xlink:href="#j"/>
</g>
</g>
<path d="m210.21 733.46v35.285q0 2.4 2.4 2.4h7.7425q2.4 0 2.4-2.4v-35.285q0-2.4-2.4-2.4h-7.7425q-2.4 0-2.4 2.4z" clip-path="url(#a)" fill="#fff" stroke="#fff"/>
<g clip-path="url(#a)">
<g transform="translate(214.28 733.46) rotate(90) scale(.08 -.08)">
<use xlink:href="#k"/>
<use x="60.818359" xlink:href="#d"/>
<use x="122.341797" xlink:href="#h"/>
<use x="163.439453" xlink:href="#l"/>
<use x="260.851562" xlink:href="#g"/>
<use x="288.634766" xlink:href="#i"/>
<use x="352.013672" xlink:href="#f"/>
<use x="413.292969" xlink:href="#j"/>
</g>
</g>
<path d="m257.75 733.46v35.285q0 2.4 2.4 2.4h7.7425q2.4 0 2.4-2.4v-35.285q0-2.4-2.4-2.4h-7.7425q-2.4 0-2.4 2.4z" clip-path="url(#a)" fill="#fff" stroke="#fff"/>
<g clip-path="url(#a)">
<g transform="translate(261.81 733.46) rotate(90) scale(.08 -.08)">
<use xlink:href="#k"/>
<use x="60.818359" xlink:href="#d"/>
<use x="122.341797" xlink:href="#h"/>
<use x="163.439453" xlink:href="#l"/>
<use x="260.851562" xlink:href="#g"/>
<use x="288.634766" xlink:href="#i"/>
<use x="352.013672" xlink:href="#f"/>
<use x="413.292969" xlink:href="#j"/>
</g>
</g>
<path d="m272.77 503.34 2.5335-4.8508q1.1111-2.1273-1.0163-3.2384l-6.8628-3.5844q-2.1273-1.1111-3.2384 1.0163l-2.5335 4.8508q-1.1111 2.1273 1.0163 3.2384l6.8628 3.5844q2.1273 1.1111 3.2384-1.0163z" clip-path="url(#a)" fill="#fff" stroke="#fff"/>
<g clip-path="url(#a)">
<g transform="translate(269.16 501.46) rotate(-62.423) scale(.08 -.08)">
<use xlink:href="#q"/>
</g>
</g>
<path d="m380.83 496.24 0.48634 4.7992q0.24197 2.3878 2.6297 2.1458l7.703-0.78062q2.3878-0.24197 2.1458-2.6297l-0.48634-4.7992q-0.24197-2.3878-2.6297-2.1458l-7.703 0.78062q-2.3878 0.24197-2.1458 2.6297z" clip-path="url(#a)" fill="#fff" stroke="#fff"/>
<g clip-path="url(#a)">
<g transform="translate(384.87 495.83) rotate(84.213) scale(.08 -.08)">
<use xlink:href="#ac"/>
</g>
</g>
<path d="m369.75 500.93 0.12996-5.5572q0.05611-2.3993-2.3432-2.4555l-7.7404-0.18102q-2.3993-0.05611-2.4555 2.3432l-0.12996 5.5572q-0.05611 2.3993 2.3432 2.4555l7.7404 0.18102q2.3993 0.056111 2.4555-2.3432z" clip-path="url(#a)" fill="#fff" stroke="#fff"/>
<g clip-path="url(#a)">
<g transform="translate(365.69 500.84) rotate(-88.66) scale(.08 -.08)">
<use xlink:href="#w"/>
</g>
</g>
<path d="m446.69 375.4 4.3502 3.3202q1.9078 1.4561 3.3639-0.45172l4.6974-6.1547q1.4561-1.9078-0.45172-3.3639l-4.3502-3.3202q-1.9078-1.4561-3.3639 0.45172l-4.6974 6.1547q-1.4561 1.9078 0.45172 3.3639z" clip-path="url(#a)" fill="#fff" stroke="#fff"/>
<g clip-path="url(#a)">
<g transform="translate(449.16 372.17) rotate(37.352) scale(.08 -.08)">
<use xlink:href="#q"/>
</g>
</g>
<path d="m400.35 733.46v35.285q0 2.4 2.4 2.4h7.7425q2.4 0 2.4-2.4v-35.285q0-2.4-2.4-2.4h-7.7425q-2.4 0-2.4 2.4z" clip-path="url(#a)" fill="#fff" stroke="#fff"/>
<g clip-path="url(#a)">
<g transform="translate(404.41 733.46) rotate(90) scale(.08 -.08)">
<use xlink:href="#k"/>
<use x="60.818359" xlink:href="#d"/>
<use x="122.341797" xlink:href="#h"/>
<use x="163.439453" xlink:href="#l"/>
<use x="260.851562" xlink:href="#g"/>
<use x="288.634766" xlink:href="#i"/>
<use x="352.013672" xlink:href="#f"/>
<use x="413.292969" xlink:href="#j"/>
</g>
</g>
<path d="m780.63 733.46v35.285q0 2.4 2.4 2.4h7.7425q2.4 0 2.4-2.4v-35.285q0-2.4-2.4-2.4h-7.7425q-2.4 0-2.4 2.4z" clip-path="url(#a)" fill="#fff" stroke="#fff"/>
<g clip-path="url(#a)">
<g transform="translate(784.69 733.46) rotate(90) scale(.08 -.08)">
<use xlink:href="#k"/>
<use x="60.818359" xlink:href="#d"/>
<use x="122.341797" xlink:href="#h"/>
<use x="163.439453" xlink:href="#l"/>
<use x="260.851562" xlink:href="#g"/>
<use x="288.634766" xlink:href="#i"/>
<use x="352.013672" xlink:href="#f"/>
<use x="413.292969" xlink:href="#j"/>
</g>
</g>
<path d="m985.12 561.5 1.4032 5.4072q0.60283 2.3231 2.9259 1.7202l7.4943-1.9448q2.3231-0.60283 1.7202-2.9259l-1.4032-5.4072q-0.60283-2.3231-2.9259-1.7202l-7.4943 1.9448q-2.3231 0.60283-1.7202 2.9259z" clip-path="url(#a)" fill="#fff" stroke="#fff"/>
<g clip-path="url(#a)">
<g transform="translate(989.05 560.48) rotate(75.453) scale(.08 -.08)">
<use xlink:href="#z"/>
</g>
</g>
<path d="m925.77 567.13 1.6298-5.3144q0.70369-2.2945-1.5908-2.9982l-7.4022-2.2701q-2.2945-0.70369-2.9982 1.5908l-1.6298 5.3144q-0.70369 2.2945 1.5908 2.9982l7.4022 2.2701q2.2945 0.70369 2.9982-1.5908z" clip-path="url(#a)" fill="#fff" stroke="#fff"/>
<g clip-path="url(#a)">
<g transform="translate(921.89 565.94) rotate(-72.95) scale(.08 -.08)">
<use xlink:href="#w"/>
</g>
</g>
<path d="m950.32 565.65 0.539-4.5696q0.28114-2.3835-2.1023-2.6646l-7.6892-0.90697q-2.3835-0.28114-2.6646 2.1023l-0.539 4.5696q-0.28114 2.3835 2.1023 2.6646l7.6892 0.90697q2.3835 0.28114 2.6646-2.1023z" clip-path="url(#a)" fill="#fff" stroke="#fff"/>
<g clip-path="url(#a)">
<g transform="translate(946.28 565.17) rotate(-83.273) scale(.08 -.08)">
<use xlink:href="#x"/>
</g>
</g>
<path d="m973.26 499.65 1.5755 4.8032q0.748 2.2805 3.0285 1.5325l7.3569-2.4131q2.2805-0.748 1.5325-3.0285l-1.5755-4.8032q-0.748-2.2805-3.0285-1.5325l-7.3569 2.4131q-2.2805 0.748-1.5325 3.0285z" clip-path="url(#a)" fill="#fff" stroke="#fff"/>
<g clip-path="url(#a)">
<g transform="translate(977.12 498.39) rotate(71.84) scale(.08 -.08)">
<use xlink:href="#y"/>
</g>
</g>
<path d="m1018.3 733.46v35.285q0 2.4 2.4 2.4h7.7425q2.4 0 2.4-2.4v-35.285q0-2.4-2.4-2.4h-7.7425q-2.4 0-2.4 2.4z" clip-path="url(#a)" fill="#fff" stroke="#fff"/>
<g clip-path="url(#a)">
<g transform="translate(1022.4 733.46) rotate(90) scale(.08 -.08)">
<use xlink:href="#k"/>
<use x="60.818359" xlink:href="#d"/>
<use x="122.341797" xlink:href="#h"/>
<use x="163.439453" xlink:href="#l"/>
<use x="260.851562" xlink:href="#g"/>
<use x="288.634766" xlink:href="#i"/>
<use x="352.013672" xlink:href="#f"/>
<use x="413.292969" xlink:href="#j"/>
</g>
</g>
<path d="m1303.5 733.46v35.285q0 2.4 2.4 2.4h7.7425q2.4 0 2.4-2.4v-35.285q0-2.4-2.4-2.4h-7.7425q-2.4 0-2.4 2.4z" clip-path="url(#a)" fill="#fff" stroke="#fff"/>
<g clip-path="url(#a)">
<g transform="translate(1307.6 733.46) rotate(90) scale(.08 -.08)">
<use xlink:href="#k"/>
<use x="60.818359" xlink:href="#d"/>
<use x="122.341797" xlink:href="#h"/>
<use x="163.439453" xlink:href="#l"/>
<use x="260.851562" xlink:href="#g"/>
<use x="288.634766" xlink:href="#i"/>
<use x="352.013672" xlink:href="#f"/>
<use x="413.292969" xlink:href="#j"/>
</g>
</g>
<path d="m1351 733.46v35.285q0 2.4 2.4 2.4h7.7425q2.4 0 2.4-2.4v-35.285q0-2.4-2.4-2.4h-7.7425q-2.4 0-2.4 2.4z" clip-path="url(#a)" fill="#fff" stroke="#fff"/>
<g clip-path="url(#a)">
<g transform="translate(1355.1 733.46) rotate(90) scale(.08 -.08)">
<use xlink:href="#k"/>
<use x="60.818359" xlink:href="#d"/>
<use x="122.341797" xlink:href="#h"/>
<use x="163.439453" xlink:href="#l"/>
<use x="260.851562" xlink:href="#g"/>
<use x="288.634766" xlink:href="#i"/>
<use x="352.013672" xlink:href="#f"/>
<use x="413.292969" xlink:href="#j"/>
</g>
</g>
<path d="m1481.4 624.46 1.0429 5.488q0.44808 2.3578 2.8059 1.9097l7.6064-1.4455q2.3578-0.44808 1.9097-2.8059l-1.0429-5.488q-0.44808-2.3578-2.8059-1.9097l-7.6064 1.4455q-2.3578 0.44808-1.9097 2.8059z" clip-path="url(#a)" fill="#fff" stroke="#fff"/>
<g clip-path="url(#a)">
<g transform="translate(1485.3 623.7) rotate(79.24) scale(.08 -.08)">
<use xlink:href="#z"/>
</g>
</g>
<path d="m1469.9 629.94 1.0378-5.461q0.44808-2.3578-1.9097-2.8059l-7.6064-1.4455q-2.3578-0.44808-2.8059 1.9097l-1.0378 5.461q-0.44808 2.3578 1.9097 2.8059l7.6064 1.4455q2.3578 0.44808 2.8059-1.9097z" clip-path="url(#a)" fill="#fff" stroke="#fff"/>
<g clip-path="url(#a)">
<g transform="translate(1465.9 629.18) rotate(-79.24) scale(.08 -.08)">
<use xlink:href="#w"/>
</g>
</g>
<path d="m1493.6 733.46v35.285q0 2.4 2.4 2.4h7.7425q2.4 0 2.4-2.4v-35.285q0-2.4-2.4-2.4h-7.7425q-2.4 0-2.4 2.4z" clip-path="url(#a)" fill="#fff" stroke="#fff"/>
<g clip-path="url(#a)">
<g transform="translate(1497.7 733.46) rotate(90) scale(.08 -.08)">
<use xlink:href="#k"/>
<use x="60.818359" xlink:href="#d"/>
<use x="122.341797" xlink:href="#h"/>
<use x="163.439453" xlink:href="#l"/>
<use x="260.851562" xlink:href="#g"/>
<use x="288.634766" xlink:href="#i"/>
<use x="352.013672" xlink:href="#f"/>
<use x="413.292969" xlink:href="#j"/>
</g>
</g>
<path d="m352.82 733.46v35.285q0 2.4 2.4 2.4h7.7425q2.4 0 2.4-2.4v-35.285q0-2.4-2.4-2.4h-7.7425q-2.4 0-2.4 2.4z" clip-path="url(#a)" fill="#fff" stroke="#fff"/>
<g clip-path="url(#a)">
<g transform="translate(356.88 733.46) rotate(90) scale(.08 -.08)">
<use xlink:href="#k"/>
<use x="60.818359" xlink:href="#d"/>
<use x="122.341797" xlink:href="#h"/>
<use x="163.439453" xlink:href="#l"/>
<use x="260.851562" xlink:href="#g"/>
<use x="288.634766" xlink:href="#i"/>
<use x="352.013672" xlink:href="#f"/>
<use x="413.292969" xlink:href="#j"/>
</g>
</g>
<path d="m536.89 560.14 0.26328 5.58q0.11311 2.3973 2.5104 2.2842l7.7339-0.3649q2.3973-0.11311 2.2842-2.5104l-0.26328-5.58q-0.11311-2.3973-2.5104-2.2842l-7.7339 0.3649q-2.3973 0.11311-2.2842 2.5104z" clip-path="url(#a)" fill="#fff" stroke="#fff"/>
<g clip-path="url(#a)">
<g transform="translate(540.95 559.95) rotate(87.299) scale(.08 -.08)">
<use xlink:href="#z"/>
</g>
</g>
<path d="m500.98 566.78 1.443-4.3691q0.75266-2.2789-1.5263-3.0316l-7.3519-2.4281q-2.2789-0.75266-3.0316 1.5263l-1.443 4.3691q-0.75266 2.2789 1.5263 3.0316l7.3519 2.4281q2.2789 0.75266 3.0316-1.5263z" clip-path="url(#a)" fill="#fff" stroke="#fff"/>
<g clip-path="url(#a)">
<g transform="translate(497.12 565.51) rotate(-71.723) scale(.08 -.08)">
<use xlink:href="#x"/>
</g>
</g>
<path d="m537.41 503.2 0.47167-5.0329q0.22394-2.3895-2.1656-2.6135l-7.7087-0.72243q-2.3895-0.22394-2.6135 2.1656l-0.47167 5.0329q-0.22394 2.3895 2.1656 2.6135l7.7087 0.72243q2.3895 0.22394 2.6135-2.1656z" clip-path="url(#a)" fill="#fff" stroke="#fff"/>
<g clip-path="url(#a)">
<g transform="translate(533.36 502.82) rotate(-84.646) scale(.08 -.08)">
<use xlink:href="#y"/>
</g>
</g>
<path d="m572.31 501.43 2.7728 4.2267q1.3164 2.0067 3.3232 0.69029l6.4738-4.2469q2.0067-1.3164 0.69029-3.3232l-2.7728-4.2267q-1.3164-2.0067-3.3232-0.69029l-6.4738 4.2469q-2.0067 1.3164-0.69029 3.3232z" clip-path="url(#a)" fill="#fff" stroke="#fff"/>
<g clip-path="url(#a)">
<g transform="translate(575.7 499.2) rotate(56.735) scale(.08 -.08)">
<use xlink:href="#y"/>
</g>
</g>
<path d="m542.95 733.46v35.285q0 2.4 2.4 2.4h7.7425q2.4 0 2.4-2.4v-35.285q0-2.4-2.4-2.4h-7.7425q-2.4 0-2.4 2.4z" clip-path="url(#a)" fill="#fff" stroke="#fff"/>
<g clip-path="url(#a)">
<g transform="translate(547.02 733.46) rotate(90) scale(.08 -.08)">
<use xlink:href="#k"/>
<use x="60.818359" xlink:href="#d"/>
<use x="122.341797" xlink:href="#h"/>
<use x="163.439453" xlink:href="#l"/>
<use x="260.851562" xlink:href="#g"/>
<use x="288.634766" xlink:href="#i"/>
<use x="352.013672" xlink:href="#f"/>
<use x="413.292969" xlink:href="#j"/>
</g>
</g>
<path d="m875.7 733.46v35.285q0 2.4 2.4 2.4h7.7425q2.4 0 2.4-2.4v-35.285q0-2.4-2.4-2.4h-7.7425q-2.4 0-2.4 2.4z" clip-path="url(#a)" fill="#fff" stroke="#fff"/>
<g clip-path="url(#a)">
<g transform="translate(879.76 733.46) rotate(90) scale(.08 -.08)">
<use xlink:href="#k"/>
<use x="60.818359" xlink:href="#d"/>
<use x="122.341797" xlink:href="#h"/>
<use x="163.439453" xlink:href="#l"/>
<use x="260.851562" xlink:href="#g"/>
<use x="288.634766" xlink:href="#i"/>
<use x="352.013672" xlink:href="#f"/>
<use x="413.292969" xlink:href="#j"/>
</g>
</g>
<path d="m923.23 733.46v35.285q0 2.4 2.4 2.4h7.7425q2.4 0 2.4-2.4v-35.285q0-2.4-2.4-2.4h-7.7425q-2.4 0-2.4 2.4z" clip-path="url(#a)" fill="#fff" stroke="#fff"/>
<g clip-path="url(#a)">
<g transform="translate(927.3 733.46) rotate(90) scale(.08 -.08)">
<use xlink:href="#k"/>
<use x="60.818359" xlink:href="#d"/>
<use x="122.341797" xlink:href="#h"/>
<use x="163.439453" xlink:href="#l"/>
<use x="260.851562" xlink:href="#g"/>
<use x="288.634766" xlink:href="#i"/>
<use x="352.013672" xlink:href="#f"/>
<use x="413.292969" xlink:href="#j"/>
</g>
</g>
<path d="m1006 624.52 1.0217 5.3763q0.44808 2.3578 2.8059 1.9097l7.6064-1.4455q2.3578-0.44808 1.9097-2.8059l-1.0217-5.3763q-0.44808-2.3578-2.8059-1.9097l-7.6064 1.4455q-2.3578 0.44808-1.9097 2.8059z" clip-path="url(#a)" fill="#fff" stroke="#fff"/>
<g clip-path="url(#a)">
<g transform="translate(1010 623.76) rotate(79.24) scale(.08 -.08)">
<use xlink:href="#q"/>
</g>
</g>
<path d="m994.61 629.7 0.94819-4.9895q0.44808-2.3578-1.9097-2.8059l-7.6064-1.4455q-2.3578-0.44808-2.8059 1.9097l-0.94819 4.9895q-0.44808 2.3578 1.9097 2.8059l7.6064 1.4455q2.3578 0.44808 2.8059-1.9097z" clip-path="url(#a)" fill="#fff" stroke="#fff"/>
<g clip-path="url(#a)">
<defs>
<path id="aq" d="m53.516 70.516v-9.625q-5.6094 2.6875-10.594 4-4.9844 1.3281-9.625 1.3281-8.0469 0-12.422-3.125t-4.375-8.8906q0-4.8438 2.9062-7.3125 2.9062-2.4531 11.016-3.9688l5.9531-1.2188q11.031-2.1094 16.281-7.4062t5.25-14.172q0-10.609-7.1094-16.078-7.0938-5.4688-20.812-5.4688-5.1719 0-11.016 1.1719-5.8281 1.1719-12.078 3.4688v10.156q6-3.3594 11.766-5.0781 5.7656-1.7031 11.328-1.7031 8.4375 0 13.031 3.3125 4.5938 3.3281 4.5938 9.4844 0 5.3594-3.2969 8.3906t-10.812 4.5469l-6.0156 1.1719q-11.031 2.1875-15.969 6.875-4.9219 4.6875-4.9219 13.047 0 9.6719 6.8125 15.234t18.766 5.5625q5.1406 0 10.453-0.9375 5.3281-0.92188 10.891-2.7656z"/>
</defs>
<g transform="translate(990.62 628.94) rotate(-79.24) scale(.08 -.08)">
<use xlink:href="#aq"/>
</g>
</g>
<path d="m970.77 733.46v35.285q0 2.4 2.4 2.4h7.7425q2.4 0 2.4-2.4v-35.285q0-2.4-2.4-2.4h-7.7425q-2.4 0-2.4 2.4z" clip-path="url(#a)" fill="#fff" stroke="#fff"/>
<g clip-path="url(#a)">
<g transform="translate(974.83 733.46) rotate(90) scale(.08 -.08)">
<use xlink:href="#k"/>
<use x="60.818359" xlink:href="#d"/>
<use x="122.341797" xlink:href="#h"/>
<use x="163.439453" xlink:href="#l"/>
<use x="260.851562" xlink:href="#g"/>
<use x="288.634766" xlink:href="#i"/>
<use x="352.013672" xlink:href="#f"/>
<use x="413.292969" xlink:href="#j"/>
</g>
</g>
<path d="m1446.1 733.46v35.285q0 2.4 2.4 2.4h7.7425q2.4 0 2.4-2.4v-35.285q0-2.4-2.4-2.4h-7.7425q-2.4 0-2.4 2.4z" clip-path="url(#a)" fill="#fff" stroke="#fff"/>
<g clip-path="url(#a)">
<g transform="translate(1450.2 733.46) rotate(90) scale(.08 -.08)">
<use xlink:href="#k"/>
<use x="60.818359" xlink:href="#d"/>
<use x="122.341797" xlink:href="#h"/>
<use x="163.439453" xlink:href="#l"/>
<use x="260.851562" xlink:href="#g"/>
<use x="288.634766" xlink:href="#i"/>
<use x="352.013672" xlink:href="#f"/>
<use x="413.292969" xlink:href="#j"/>
</g>
</g>
<path d="m447.89 733.46v35.285q0 2.4 2.4 2.4h7.7425q2.4 0 2.4-2.4v-35.285q0-2.4-2.4-2.4h-7.7425q-2.4 0-2.4 2.4z" clip-path="url(#a)" fill="#fff" stroke="#fff"/>
<g clip-path="url(#a)">
<g transform="translate(451.95 733.46) rotate(90) scale(.08 -.08)">
<use xlink:href="#k"/>
<use x="60.818359" xlink:href="#d"/>
<use x="122.341797" xlink:href="#h"/>
<use x="163.439453" xlink:href="#l"/>
<use x="260.851562" xlink:href="#g"/>
<use x="288.634766" xlink:href="#i"/>
<use x="352.013672" xlink:href="#f"/>
<use x="413.292969" xlink:href="#j"/>
</g>
</g>
<path d="m530.67 624.52 1.0217 5.3763q0.44808 2.3578 2.8059 1.9097l7.6064-1.4455q2.3578-0.44808 1.9097-2.8059l-1.0217-5.3763q-0.44808-2.3578-2.8059-1.9097l-7.6064 1.4455q-2.3578 0.44808-1.9097 2.8059z" clip-path="url(#a)" fill="#fff" stroke="#fff"/>
<g clip-path="url(#a)">
<g transform="translate(534.66 623.76) rotate(79.24) scale(.08 -.08)">
<use xlink:href="#q"/>
</g>
</g>
<path d="m519.26 629.7 0.94819-4.9895q0.44808-2.3578-1.9097-2.8059l-7.6064-1.4455q-2.3578-0.44808-2.8059 1.9097l-0.94819 4.9895q-0.44808 2.3578 1.9097 2.8059l7.6064 1.4455q2.3578 0.44808 2.8059-1.9097z" clip-path="url(#a)" fill="#fff" stroke="#fff"/>
<g clip-path="url(#a)">
<g transform="translate(515.27 628.94) rotate(-79.24) scale(.08 -.08)">
<use xlink:href="#aq"/>
</g>
</g>
<path d="m495.42 733.46v35.285q0 2.4 2.4 2.4h7.7425q2.4 0 2.4-2.4v-35.285q0-2.4-2.4-2.4h-7.7425q-2.4 0-2.4 2.4z" clip-path="url(#a)" fill="#fff" stroke="#fff"/>
<g clip-path="url(#a)">
<g transform="translate(499.48 733.46) rotate(90) scale(.08 -.08)">
<use xlink:href="#k"/>
<use x="60.818359" xlink:href="#d"/>
<use x="122.341797" xlink:href="#h"/>
<use x="163.439453" xlink:href="#l"/>
<use x="260.851562" xlink:href="#g"/>
<use x="288.634766" xlink:href="#i"/>
<use x="352.013672" xlink:href="#f"/>
<use x="413.292969" xlink:href="#j"/>
</g>
</g>
<path d="m625.73 624.46 1.0429 5.488q0.44808 2.3578 2.8059 1.9097l7.6064-1.4455q2.3578-0.44808 1.9097-2.8059l-1.0429-5.488q-0.44808-2.3578-2.8059-1.9097l-7.6064 1.4455q-2.3578 0.44808-1.9097 2.8059z" clip-path="url(#a)" fill="#fff" stroke="#fff"/>
<g clip-path="url(#a)">
<g transform="translate(629.72 623.7) rotate(79.24) scale(.08 -.08)">
<use xlink:href="#z"/>
</g>
</g>
<path d="m614.29 629.94 1.0378-5.461q0.44808-2.3578-1.9097-2.8059l-7.6064-1.4455q-2.3578-0.44808-2.8059 1.9097l-1.0378 5.461q-0.44808 2.3578 1.9097 2.8059l7.6064 1.4455q2.3578 0.44808 2.8059-1.9097z" clip-path="url(#a)" fill="#fff" stroke="#fff"/>
<g clip-path="url(#a)">
<g transform="translate(610.29 629.18) rotate(-79.24) scale(.08 -.08)">
<use xlink:href="#w"/>
</g>
</g>
<path d="m638.02 733.46v35.285q0 2.4 2.4 2.4h7.7425q2.4 0 2.4-2.4v-35.285q0-2.4-2.4-2.4h-7.7425q-2.4 0-2.4 2.4z" clip-path="url(#a)" fill="#fff" stroke="#fff"/>
<g clip-path="url(#a)">
<g transform="translate(642.09 733.46) rotate(90) scale(.08 -.08)">
<use xlink:href="#k"/>
<use x="60.818359" xlink:href="#d"/>
<use x="122.341797" xlink:href="#h"/>
<use x="163.439453" xlink:href="#l"/>
<use x="260.851562" xlink:href="#g"/>
<use x="288.634766" xlink:href="#i"/>
<use x="352.013672" xlink:href="#f"/>
<use x="413.292969" xlink:href="#j"/>
</g>
</g>
<path d="m590.49 733.46v35.285q0 2.4 2.4 2.4h7.7425q2.4 0 2.4-2.4v-35.285q0-2.4-2.4-2.4h-7.7425q-2.4 0-2.4 2.4z" clip-path="url(#a)" fill="#fff" stroke="#fff"/>
<g clip-path="url(#a)">
<g transform="translate(594.55 733.46) rotate(90) scale(.08 -.08)">
<use xlink:href="#k"/>
<use x="60.818359" xlink:href="#d"/>
<use x="122.341797" xlink:href="#h"/>
<use x="163.439453" xlink:href="#l"/>
<use x="260.851562" xlink:href="#g"/>
<use x="288.634766" xlink:href="#i"/>
<use x="352.013672" xlink:href="#f"/>
<use x="413.292969" xlink:href="#j"/>
</g>
</g>
<defs>
<path id="b" d="m0 8.6603c2.2967 0 4.4997-0.9125 6.1237-2.5365 1.624-1.624 2.5365-3.827 2.5365-6.1237s-0.9125-4.4997-2.5365-6.1237c-1.624-1.624-3.827-2.5365-6.1237-2.5365s-4.4997 0.9125-6.1237 2.5365c-1.624 1.624-2.5365 3.827-2.5365 6.1237s0.9125 4.4997 2.5365 6.1237c1.624 1.624 3.827 2.5365 6.1237 2.5365z"/>
</defs>
<g clip-path="url(#a)">
<use x="73.87978" y="813.631592" fill="#ffffff" stroke="#ffffff" xlink:href="#b"/>
</g>
<g clip-path="url(#a)">
<use x="121.414418" y="813.631592" fill="#ffffff" stroke="#ffffff" xlink:href="#b"/>
</g>
<g clip-path="url(#a)">
<use x="168.949056" y="813.631592" fill="#ffffff" stroke="#ffffff" xlink:href="#b"/>
</g>
<g clip-path="url(#a)">
<use x="216.483694" y="813.631592" fill="#ffffff" stroke="#ffffff" xlink:href="#b"/>
</g>
<g clip-path="url(#a)">
<use x="264.018332" y="813.631592" fill="#ffffff" stroke="#ffffff" xlink:href="#b"/>
</g>
<g clip-path="url(#a)">
<use x="311.552969" y="813.631592" fill="#ffffff" stroke="#ffffff" xlink:href="#b"/>
</g>
<g clip-path="url(#a)">
<use x="359.087607" y="813.631592" fill="#ffffff" stroke="#ffffff" xlink:href="#b"/>
</g>
<g clip-path="url(#a)">
<use x="406.622245" y="813.631592" fill="#ffffff" stroke="#ffffff" xlink:href="#b"/>
</g>
<g clip-path="url(#a)">
<use x="454.156883" y="813.631592" fill="#ffffff" stroke="#ffffff" xlink:href="#b"/>
</g>
<g clip-path="url(#a)">
<use x="501.691521" y="813.631592" fill="#ffffff" stroke="#ffffff" xlink:href="#b"/>
</g>
<g clip-path="url(#a)">
<use x="549.226159" y="813.631592" fill="#ffffff" stroke="#ffffff" xlink:href="#b"/>
</g>
<g clip-path="url(#a)">
<use x="596.760796" y="813.631592" fill="#ffffff" stroke="#ffffff" xlink:href="#b"/>
</g>
<g clip-path="url(#a)">
<use x="644.295434" y="813.631592" fill="#ffffff" stroke="#ffffff" xlink:href="#b"/>
</g>
<g clip-path="url(#a)">
<use x="691.830072" y="813.631592" fill="#ffffff" stroke="#ffffff" xlink:href="#b"/>
</g>
<g clip-path="url(#a)">
<use x="739.36471" y="813.631592" fill="#ffffff" stroke="#ffffff" xlink:href="#b"/>
</g>
<g clip-path="url(#a)">
<use x="786.899348" y="813.631592" fill="#ffffff" stroke="#ffffff" xlink:href="#b"/>
</g>
<g clip-path="url(#a)">
<use x="834.433986" y="813.631592" fill="#ffffff" stroke="#ffffff" xlink:href="#b"/>
</g>
<g clip-path="url(#a)">
<use x="881.968623" y="813.631592" fill="#ffffff" stroke="#ffffff" xlink:href="#b"/>
</g>
<g clip-path="url(#a)">
<use x="929.503261" y="813.631592" fill="#ffffff" stroke="#ffffff" xlink:href="#b"/>
</g>
<g clip-path="url(#a)">
<use x="977.037899" y="813.631592" fill="#ffffff" stroke="#ffffff" xlink:href="#b"/>
</g>
<g clip-path="url(#a)">
<use x="1024.572537" y="813.631592" fill="#ffffff" stroke="#ffffff" xlink:href="#b"/>
</g>
<g clip-path="url(#a)">
<use x="1072.107175" y="813.631592" fill="#ffffff" stroke="#ffffff" xlink:href="#b"/>
</g>
<g clip-path="url(#a)">
<use x="1119.641813" y="813.631592" fill="#ffffff" stroke="#ffffff" xlink:href="#b"/>
</g>
<g clip-path="url(#a)">
<use x="1167.17645" y="813.631592" fill="#ffffff" stroke="#ffffff" xlink:href="#b"/>
</g>
<g clip-path="url(#a)">
<use x="1214.711088" y="813.631592" fill="#ffffff" stroke="#ffffff" xlink:href="#b"/>
</g>
<g clip-path="url(#a)">
<use x="1262.245726" y="813.631592" fill="#ffffff" stroke="#ffffff" xlink:href="#b"/>
</g>
<g clip-path="url(#a)">
<use x="1309.780364" y="813.631592" fill="#ffffff" stroke="#ffffff" xlink:href="#b"/>
</g>
<g clip-path="url(#a)">
<use x="1357.315002" y="813.631592" fill="#ffffff" stroke="#ffffff" xlink:href="#b"/>
</g>
<g clip-path="url(#a)">
<use x="1404.84964" y="813.631592" fill="#ffffff" stroke="#ffffff" xlink:href="#b"/>
</g>
<g clip-path="url(#a)">
<use x="1452.384278" y="813.631592" fill="#ffffff" stroke="#ffffff" xlink:href="#b"/>
</g>
<g clip-path="url(#a)">
<use x="1499.918915" y="813.631592" fill="#ffffff" stroke="#ffffff" xlink:href="#b"/>
</g>
<g clip-path="url(#a)">
<use x="1547.453553" y="813.631592" fill="#ffffff" stroke="#ffffff" xlink:href="#b"/>
</g>
<g clip-path="url(#a)">
<use x="627.509765" y="39.701741" fill="#ffffff" stroke="#ffffff" xlink:href="#b"/>
</g>
<g clip-path="url(#a)">
<use x="1182.773754" y="307.449762" fill="#ffffff" stroke="#ffffff" xlink:href="#b"/>
</g>
<g clip-path="url(#a)">
<use x="1214.711088" y="688.566463" fill="#ffffff" stroke="#ffffff" xlink:href="#b"/>
</g>
<g clip-path="url(#a)">
<use x="121.414418" y="688.566463" fill="#ffffff" stroke="#ffffff" xlink:href="#b"/>
</g>
<g clip-path="url(#a)">
<use x="233.81403" y="175.2582" fill="#ffffff" stroke="#ffffff" xlink:href="#b"/>
</g>
<g clip-path="url(#a)">
<use x="311.552969" y="688.566463" fill="#ffffff" stroke="#ffffff" xlink:href="#b"/>
</g>
<g clip-path="url(#a)">
<use x="691.830072" y="688.566463" fill="#ffffff" stroke="#ffffff" xlink:href="#b"/>
</g>
<g clip-path="url(#a)">
<use x="739.36471" y="688.566463" fill="#ffffff" stroke="#ffffff" xlink:href="#b"/>
</g>
<g clip-path="url(#a)">
<use x="860.181914" y="307.449762" fill="#ffffff" stroke="#ffffff" xlink:href="#b"/>
</g>
<g clip-path="url(#a)">
<use x="834.433986" y="688.566463" fill="#ffffff" stroke="#ffffff" xlink:href="#b"/>
</g>
<g clip-path="url(#a)">
<use x="1072.107175" y="688.566463" fill="#ffffff" stroke="#ffffff" xlink:href="#b"/>
</g>
<g clip-path="url(#a)">
<use x="1119.641813" y="688.566463" fill="#ffffff" stroke="#ffffff" xlink:href="#b"/>
</g>
<g clip-path="url(#a)">
<use x="1167.17645" y="688.566463" fill="#ffffff" stroke="#ffffff" xlink:href="#b"/>
</g>
<g clip-path="url(#a)">
<use x="1262.245726" y="688.566463" fill="#ffffff" stroke="#ffffff" xlink:href="#b"/>
</g>
<g clip-path="url(#a)">
<use x="1387.02415" y="436.69641" fill="#ffffff" stroke="#ffffff" xlink:href="#b"/>
</g>
<g clip-path="url(#a)">
<use x="1404.84964" y="688.566463" fill="#ffffff" stroke="#ffffff" xlink:href="#b"/>
</g>
<g clip-path="url(#a)">
<use x="1547.453553" y="688.566463" fill="#ffffff" stroke="#ffffff" xlink:href="#b"/>
</g>
<g clip-path="url(#a)">
<use x="73.87978" y="688.566463" fill="#ffffff" stroke="#ffffff" xlink:href="#b"/>
</g>
<g clip-path="url(#a)">
<use x="168.949056" y="688.566463" fill="#ffffff" stroke="#ffffff" xlink:href="#b"/>
</g>
<g clip-path="url(#a)">
<use x="216.483694" y="688.566463" fill="#ffffff" stroke="#ffffff" xlink:href="#b"/>
</g>
<g clip-path="url(#a)">
<use x="264.018332" y="688.566463" fill="#ffffff" stroke="#ffffff" xlink:href="#b"/>
</g>
<g clip-path="url(#a)">
<use x="368.000352" y="307.449762" fill="#ffffff" stroke="#ffffff" xlink:href="#b"/>
</g>
<g clip-path="url(#a)">
<use x="406.622245" y="688.566463" fill="#ffffff" stroke="#ffffff" xlink:href="#b"/>
</g>
<g clip-path="url(#a)">
<use x="786.899348" y="688.566463" fill="#ffffff" stroke="#ffffff" xlink:href="#b"/>
</g>
<g clip-path="url(#a)">
<use x="959.21241" y="436.69641" fill="#ffffff" stroke="#ffffff" xlink:href="#b"/>
</g>
<g clip-path="url(#a)">
<use x="1024.572537" y="688.566463" fill="#ffffff" stroke="#ffffff" xlink:href="#b"/>
</g>
<g clip-path="url(#a)">
<use x="1309.780364" y="688.566463" fill="#ffffff" stroke="#ffffff" xlink:href="#b"/>
</g>
<g clip-path="url(#a)">
<use x="1357.315002" y="688.566463" fill="#ffffff" stroke="#ffffff" xlink:href="#b"/>
</g>
<g clip-path="url(#a)">
<use x="1476.151596" y="563.501333" fill="#ffffff" stroke="#ffffff" xlink:href="#b"/>
</g>
<g clip-path="url(#a)">
<use x="1499.918915" y="688.566463" fill="#ffffff" stroke="#ffffff" xlink:href="#b"/>
</g>
<g clip-path="url(#a)">
<use x="359.087607" y="688.566463" fill="#ffffff" stroke="#ffffff" xlink:href="#b"/>
</g>
<g clip-path="url(#a)">
<use x="537.342499" y="436.69641" fill="#ffffff" stroke="#ffffff" xlink:href="#b"/>
</g>
<g clip-path="url(#a)">
<use x="549.226159" y="688.566463" fill="#ffffff" stroke="#ffffff" xlink:href="#b"/>
</g>
<g clip-path="url(#a)">
<use x="881.968623" y="688.566463" fill="#ffffff" stroke="#ffffff" xlink:href="#b"/>
</g>
<g clip-path="url(#a)">
<use x="929.503261" y="688.566463" fill="#ffffff" stroke="#ffffff" xlink:href="#b"/>
</g>
<g clip-path="url(#a)">
<use x="1000.805218" y="563.501333" fill="#ffffff" stroke="#ffffff" xlink:href="#b"/>
</g>
<g clip-path="url(#a)">
<use x="977.037899" y="688.566463" fill="#ffffff" stroke="#ffffff" xlink:href="#b"/>
</g>
<g clip-path="url(#a)">
<use x="1452.384278" y="688.566463" fill="#ffffff" stroke="#ffffff" xlink:href="#b"/>
</g>
<g clip-path="url(#a)">
<use x="454.156883" y="688.566463" fill="#ffffff" stroke="#ffffff" xlink:href="#b"/>
</g>
<g clip-path="url(#a)">
<use x="525.45884" y="563.501333" fill="#ffffff" stroke="#ffffff" xlink:href="#b"/>
</g>
<g clip-path="url(#a)">
<use x="501.691521" y="688.566463" fill="#ffffff" stroke="#ffffff" xlink:href="#b"/>
</g>
<g clip-path="url(#a)">
<use x="620.528115" y="563.501333" fill="#ffffff" stroke="#ffffff" xlink:href="#b"/>
</g>
<g clip-path="url(#a)">
<use x="644.295434" y="688.566463" fill="#ffffff" stroke="#ffffff" xlink:href="#b"/>
</g>
<g clip-path="url(#a)">
<use x="596.760796" y="688.566463" fill="#ffffff" stroke="#ffffff" xlink:href="#b"/>
</g>
<g clip-path="url(#a)">
<defs>
<path id="au" d="m2.9844 54.688h9.5156l17.094-45.891 17.094 45.891h9.5156l-20.516-54.688h-12.203z"/>
</defs>
<g transform="translate(61.516 816.39) scale(.1 -.1)">
<use xlink:href="#y"/>
<use x="63.183594" xlink:href="#au"/>
<use x="122.363281" xlink:href="#d"/>
<use x="183.886719" xlink:href="#i"/>
</g>
</g>
<g clip-path="url(#a)">
<defs>
<path id="o" d="m18.312 70.219v-15.531h18.5v-6.9844h-18.5v-29.688q0-6.6875 1.8281-8.5938t7.4531-1.9062h9.2188v-7.5156h-9.2188q-10.406 0-14.359 3.875-3.9531 3.8906-3.9531 14.141v29.688h-6.5938v6.9844h6.5938v15.531z"/>
<path id="t" d="m54.891 33.016v-33.016h-8.9844v32.719q0 7.7656-3.0312 11.609-3.0312 3.8594-9.0781 3.8594-7.2812 0-11.484-4.6406-4.2031-4.625-4.2031-12.641v-30.906h-9.0312v75.984h9.0312v-29.797q3.2344 4.9375 7.5938 7.375 4.375 2.4375 10.094 2.4375 9.4219 0 14.25-5.8281 4.8438-5.8281 4.8438-17.156z"/>
<path id="p" d="m30.609 48.391q-7.2188 0-11.422-5.6406t-4.2031-15.453 4.1719-15.453q4.1875-5.6406 11.453-5.6406 7.1875 0 11.375 5.6562 4.2031 5.6719 4.2031 15.438 0 9.7188-4.2031 15.406-4.1875 5.6875-11.375 5.6875zm0 7.6094q11.719 0 18.406-7.625 6.7031-7.6094 6.7031-21.078 0-13.422-6.7031-21.078-6.6875-7.6406-18.406-7.6406-11.766 0-18.438 7.6406-6.6562 7.6562-6.6562 21.078 0 13.469 6.6562 21.078 6.6719 7.625 18.438 7.625z"/>
<path id="u" d="m8.5 21.578v33.109h8.9844v-32.766q0-7.7656 3.0156-11.656 3.0312-3.875 9.0938-3.875 7.2656 0 11.484 4.6406 4.2344 4.6406 4.2344 12.656v31h8.9844v-54.688h-8.9844v8.4062q-3.2656-4.9844-7.5938-7.4062-4.3125-2.4219-10.031-2.4219-9.4219 0-14.312 5.8594-4.875 5.8594-4.875 17.141z"/>
<path id="aj" d="m45.406 27.984q0 9.7656-4.0312 15.125-4.0156 5.375-11.297 5.375-7.2188 0-11.25-5.375-4.0312-5.3594-4.0312-15.125 0-9.7188 4.0312-15.094t11.25-5.375q7.2812 0 11.297 5.375 4.0312 5.375 4.0312 15.094zm8.9844-21.203q0-13.953-6.2031-20.766-6.1875-6.8125-18.984-6.8125-4.7344 0-8.9375 0.70312t-8.1562 2.1719v8.7344q3.9531-2.1406 7.8125-3.1562 3.8594-1.0312 7.8594-1.0312 8.8438 0 13.234 4.6094t4.3906 13.938v4.4531q-2.7812-4.8438-7.125-7.2344t-10.406-2.3906q-10.047 0-16.203 7.6562-6.1562 7.6719-6.1562 20.328 0 12.688 6.1562 20.344 6.1562 7.6719 16.203 7.6719 6.0625 0 10.406-2.3906t7.125-7.2188v8.2969h8.9844z"/>
</defs>
<g transform="translate(103.71 816.39) scale(.1 -.1)">
<use xlink:href="#o"/>
<use x="39.208984" xlink:href="#t"/>
<use x="102.587891" xlink:href="#p"/>
<use x="163.769531" xlink:href="#u"/>
<use x="227.148438" xlink:href="#aj"/>
<use x="290.625" xlink:href="#t"/>
</g>
</g>
<g clip-path="url(#a)">
<defs>
<path id="aa" d="m4.2031 54.688h8.9844l11.234-42.672 11.172 42.672h10.594l11.234-42.672 11.188 42.672h8.9844l-14.312-54.688h-10.594l-11.766 44.828-11.812-44.828h-10.609z"/>
</defs>
<g transform="translate(161.78 816.39) scale(.1 -.1)">
<use xlink:href="#aa"/>
<use x="81.787109" xlink:href="#d"/>
</g>
</g>
<g clip-path="url(#a)">
<g transform="translate(204.19 816.39) scale(.1 -.1)">
<use xlink:href="#aa"/>
<use x="81.787109" xlink:href="#d"/>
<use x="143.310547" xlink:href="#h"/>
<use x="184.392578" xlink:href="#d"/>
</g>
</g>
<g clip-path="url(#a)">
<defs>
<path id="ao" d="m32.172-5.0781q-3.7969-9.7656-7.4219-12.734-3.6094-2.9844-9.6562-2.9844h-7.1875v7.5156h5.2812q3.7031 0 5.75 1.7656 2.0625 1.75 4.5469 8.2969l1.6094 4.0938-22.109 53.812h9.5156l17.094-42.766 17.094 42.766h9.5156z"/>
</defs>
<g transform="translate(253.44 816.39) scale(.1 -.1)">
<use xlink:href="#p"/>
<use x="61.181641" xlink:href="#i"/>
<use x="124.560547" xlink:href="#j"/>
<use x="152.34375" xlink:href="#ao"/>
</g>
</g>
<g clip-path="url(#a)">
<defs>
<path id="s" d="m44.281 53.078v-8.5q-3.7969 1.9531-7.9062 2.9219-4.0938 0.98438-8.5 0.98438-6.6875 0-10.031-2.0469t-3.3438-6.1562q0-3.125 2.3906-4.9062t9.625-3.3906l3.0781-0.6875q9.5625-2.0469 13.594-5.7812t4.0312-10.422q0-7.625-6.0312-12.078-6.0312-4.4375-16.578-4.4375-4.3906 0-9.1562 0.85938t-10.031 2.5625v9.2812q4.9844-2.5938 9.8125-3.8906 4.8281-1.2812 9.5781-1.2812 6.3438 0 9.75 2.1719 3.4219 2.1719 3.4219 6.125 0 3.6562-2.4688 5.6094-2.4531 1.9531-10.812 3.7656l-3.125 0.73438q-8.3438 1.75-12.062 5.3906-3.7031 3.6406-3.7031 9.9844 0 7.7188 5.4688 11.906 5.4688 4.2031 15.531 4.2031 4.9688 0 9.3594-0.73438 4.4062-0.71875 8.1094-2.1875z"/>
<path id="v" d="m18.109 8.2031v-29h-9.0312v75.484h9.0312v-8.2969q2.8438 4.875 7.1562 7.2344 4.3281 2.375 10.328 2.375 9.9688 0 16.188-7.9062 6.2344-7.9062 6.2344-20.797t-6.2344-20.812q-6.2188-7.9062-16.188-7.9062-6 0-10.328 2.375-4.3125 2.375-7.1562 7.25zm30.578 19.094q0 9.9062-4.0781 15.547t-11.203 5.6406q-7.1406 0-11.219-5.6406t-4.0781-15.547 4.0781-15.547 11.219-5.6406q7.125 0 11.203 5.6406t4.0781 15.547z"/>
<path id="ap" d="m45.406 46.391v29.594h8.9844v-75.984h-8.9844v8.2031q-2.8281-4.875-7.1562-7.25-4.3125-2.375-10.375-2.375-9.9062 0-16.141 7.9062-6.2188 7.9219-6.2188 20.812t6.2188 20.797q6.2344 7.9062 16.141 7.9062 6.0625 0 10.375-2.375 4.3281-2.3594 7.1562-7.2344zm-30.609-19.094q0-9.9062 4.0781-15.547t11.203-5.6406 11.219 5.6406q4.1094 5.6406 4.1094 15.547t-4.1094 15.547q-4.0938 5.6406-11.219 5.6406t-11.203-5.6406-4.0781-15.547z"/>
</defs>
<g transform="translate(287.52 816.39) scale(.1 -.1)">
<use xlink:href="#s"/>
<use x="52.099609" xlink:href="#u"/>
<use x="115.478516" xlink:href="#v"/>
<use x="178.955078" xlink:href="#v"/>
<use x="242.431641" xlink:href="#p"/>
<use x="303.613281" xlink:href="#s"/>
<use x="355.712891" xlink:href="#d"/>
<use x="417.236328" xlink:href="#ap"/>
</g>
</g>
<g clip-path="url(#a)">
<g transform="translate(354.07 816.39) scale(.1 -.1)">
<use xlink:href="#o"/>
<use x="39.208984" xlink:href="#p"/>
</g>
</g>
<g clip-path="url(#a)">
<g transform="translate(394.35 816.39) scale(.1 -.1)">
<use xlink:href="#t"/>
<use x="63.378906" xlink:href="#f"/>
<use x="124.658203" xlink:href="#au"/>
<use x="183.837891" xlink:href="#d"/>
</g>
</g>
<g clip-path="url(#a)">
<g transform="translate(440.29 816.39) scale(.1 -.1)">
<use xlink:href="#o"/>
<use x="39.208984" xlink:href="#t"/>
<use x="102.587891" xlink:href="#p"/>
<use x="163.769531" xlink:href="#s"/>
<use x="215.869141" xlink:href="#d"/>
</g>
</g>
<g clip-path="url(#a)">
<defs>
<path id="ak" d="m48.781 52.594v-8.4062q-3.8125 2.1094-7.6406 3.1562t-7.7344 1.0469q-8.75 0-13.594-5.5469-4.8281-5.5312-4.8281-15.547t4.8281-15.562q4.8438-5.5312 13.594-5.5312 3.9062 0 7.7344 1.0469t7.6406 3.1562v-8.3125q-3.7656-1.75-7.7969-2.625-4.0156-0.89062-8.5625-0.89062-12.359 0-19.641 7.7656-7.2656 7.7656-7.2656 20.953 0 13.375 7.3438 21.031 7.3594 7.6719 20.156 7.6719 4.1406 0 8.0938-0.85938 3.9531-0.84375 7.6719-2.5469z"/>
<path id="ab" d="m37.109 75.984v-7.4844h-8.5938q-4.8281 0-6.7188-1.9531-1.875-1.9531-1.875-7.0312v-4.8281h14.797v-6.9844h-14.797v-47.703h-9.0312v47.703h-8.5938v6.9844h8.5938v3.8125q0 9.125 4.25 13.297 4.25 4.1875 13.469 4.1875z"/>
</defs>
<g transform="translate(482.8 816.39) scale(.1 -.1)">
<use xlink:href="#s"/>
<use x="52.099609" xlink:href="#v"/>
<use x="115.576172" xlink:href="#d"/>
<use x="177.099609" xlink:href="#ak"/>
<use x="232.080078" xlink:href="#g"/>
<use x="259.863281" xlink:href="#ab"/>
<use x="295.068359" xlink:href="#g"/>
<use x="322.851562" xlink:href="#ak"/>
</g>
</g>
<g clip-path="url(#a)">
<g transform="translate(535.45 816.39) scale(.1 -.1)">
<use xlink:href="#o"/>
<use x="39.208984" xlink:href="#ao"/>
<use x="98.388672" xlink:href="#v"/>
<use x="161.865234" xlink:href="#d"/>
<use x="223.388672" xlink:href="#s"/>
</g>
</g>
<g clip-path="url(#a)">
<g transform="translate(591.94 816.39) scale(.1 -.1)">
<use xlink:href="#p"/>
<use x="61.181641" xlink:href="#ab"/>
</g>
</g>
<g clip-path="url(#a)">
<defs>
<path id="at" d="m5.5156 54.688h42.672v-8.2031l-33.781-39.312h33.781v-7.1719h-43.891v8.2031l33.797 39.312h-32.578z"/>
</defs>
<g transform="translate(631.42 816.39) scale(.1 -.1)">
<use xlink:href="#v"/>
<use x="63.476562" xlink:href="#g"/>
<use x="91.259766" xlink:href="#at"/>
<use x="143.75" xlink:href="#at"/>
<use x="196.240234" xlink:href="#f"/>
</g>
</g>
<g clip-path="url(#a)">
<defs>
<path id="as" d="m11.719 12.406h10.297v-8.4062l-8-15.625h-6.2969l4 15.625z"/>
</defs>
<g transform="translate(690.24 816.39) scale(.1 -.1)">
<use xlink:href="#as"/>
</g>
</g>
<g clip-path="url(#a)">
<g transform="translate(725.86 816.39) scale(.1 -.1)">
<use xlink:href="#aa"/>
<use x="81.787109" xlink:href="#t"/>
<use x="145.166016" xlink:href="#d"/>
<use x="206.689453" xlink:href="#i"/>
</g>
</g>
<g clip-path="url(#a)">
<g transform="translate(770.31 816.39) scale(.1 -.1)">
<use xlink:href="#aj"/>
<use x="63.476562" xlink:href="#u"/>
<use x="126.855469" xlink:href="#d"/>
<use x="188.378906" xlink:href="#s"/>
<use x="240.478516" xlink:href="#o"/>
<use x="279.6875" xlink:href="#s"/>
</g>
</g>
<g clip-path="url(#a)">
<defs>
<path id="ax" d="m9.0781 75.984h9.0312v-44.875l26.812 23.578h11.469l-29-25.578 30.234-29.109h-11.719l-27.797 26.703v-26.703h-9.0312z"/>
</defs>
<g transform="translate(819.62 816.39) scale(.1 -.1)">
<use xlink:href="#f"/>
<use x="61.279297" xlink:href="#s"/>
<use x="113.378906" xlink:href="#ax"/>
<use x="171.242188" xlink:href="#d"/>
<use x="232.765625" xlink:href="#ap"/>
</g>
</g>
<g clip-path="url(#a)">
<g transform="translate(875.09 816.39) scale(.1 -.1)">
<use xlink:href="#ab"/>
<use x="35.205078" xlink:href="#p"/>
<use x="96.386719" xlink:href="#h"/>
</g>
</g>
<g clip-path="url(#a)">
<g transform="translate(926.44 816.39) scale(.1 -.1)">
<use xlink:href="#f"/>
</g>
</g>
<g clip-path="url(#a)">
<g transform="translate(955.62 816.39) scale(.1 -.1)">
<use xlink:href="#ap"/>
<use x="63.476562" xlink:href="#g"/>
<use x="91.259766" xlink:href="#ab"/>
<use x="126.464844" xlink:href="#ab"/>
<use x="161.669922" xlink:href="#d"/>
<use x="223.193359" xlink:href="#h"/>
<use x="264.275391" xlink:href="#d"/>
<use x="325.798828" xlink:href="#i"/>
<use x="389.177734" xlink:href="#o"/>
</g>
</g>
<g clip-path="url(#a)">
<g transform="translate(1013.4 816.39) scale(.1 -.1)">
<use xlink:href="#o"/>
<use x="39.208984" xlink:href="#ao"/>
<use x="98.388672" xlink:href="#v"/>
<use x="161.865234" xlink:href="#d"/>
</g>
</g>
<g clip-path="url(#a)">
<g transform="translate(1070.5 816.39) scale(.1 -.1)">
<use xlink:href="#as"/>
</g>
</g>
<g clip-path="url(#a)">
<g transform="translate(1116.3 816.39) scale(.1 -.1)">
<use xlink:href="#g"/>
<use x="27.783203" xlink:href="#o"/>
</g>
</g>
<g clip-path="url(#a)">
<g transform="translate(1157.4 816.39) scale(.1 -.1)">
<use xlink:href="#aa"/>
<use x="81.787109" xlink:href="#f"/>
<use x="143.066406" xlink:href="#s"/>
</g>
</g>
<g clip-path="url(#a)">
<defs>
<path id="av" d="m48.688 27.297q0 9.9062-4.0781 15.547t-11.203 5.6406q-7.1406 0-11.219-5.6406t-4.0781-15.547 4.0781-15.547 11.219-5.6406q7.125 0 11.203 5.6406t4.0781 15.547zm-30.578 19.094q2.8438 4.875 7.1562 7.2344 4.3281 2.375 10.328 2.375 9.9688 0 16.188-7.9062 6.2344-7.9062 6.2344-20.797t-6.2344-20.812q-6.2188-7.9062-16.188-7.9062-6 0-10.328 2.375-4.3125 2.375-7.1562 7.25v-8.2031h-9.0312v75.984h9.0312z"/>
</defs>
<g transform="translate(1195 816.39) scale(.1 -.1)">
<use xlink:href="#av"/>
<use x="63.476562" xlink:href="#h"/>
<use x="104.558594" xlink:href="#p"/>
<use x="165.740234" xlink:href="#u"/>
<use x="229.119141" xlink:href="#aj"/>
<use x="292.595703" xlink:href="#t"/>
<use x="355.974609" xlink:href="#o"/>
</g>
</g>
<g clip-path="url(#a)">
<g transform="translate(1254.1 816.39) scale(.1 -.1)">
<use xlink:href="#p"/>
<use x="61.181641" xlink:href="#u"/>
<use x="124.560547" xlink:href="#o"/>
</g>
</g>
<g clip-path="url(#a)">
<g transform="translate(1299.2 816.39) scale(.1 -.1)">
<use xlink:href="#aa"/>
<use x="81.787109" xlink:href="#g"/>
<use x="109.570312" xlink:href="#o"/>
<use x="148.779297" xlink:href="#t"/>
</g>
</g>
<g clip-path="url(#a)">
<g transform="translate(1351.1 816.39) scale(.1 -.1)">
<use xlink:href="#i"/>
<use x="63.378906" xlink:href="#p"/>
</g>
</g>
<g clip-path="url(#a)">
<g transform="translate(1387.6 816.39) scale(.1 -.1)">
<use xlink:href="#ak"/>
<use x="54.980469" xlink:href="#t"/>
<use x="118.359375" xlink:href="#f"/>
<use x="179.638672" xlink:href="#h"/>
<use x="220.736328" xlink:href="#aj"/>
<use x="284.212891" xlink:href="#d"/>
</g>
</g>
<g clip-path="url(#a)">
<g transform="translate(1447.4 816.39) scale(.1 -.1)">
<use xlink:href="#o"/>
<use x="39.208984" xlink:href="#p"/>
</g>
</g>
<g clip-path="url(#a)">
<g transform="translate(1494.1 816.39) scale(.1 -.1)">
<use xlink:href="#u"/>
<use x="63.378906" xlink:href="#s"/>
</g>
</g>
<g clip-path="url(#a)">
<defs>
<path id="aw" d="m15.094 12.406h9.9062v-12.406h-9.9062zm0 60.5h9.9062v-31.984l-0.96875-17.438h-7.9219l-1.0156 17.438z"/>
</defs>
<g transform="translate(1545.4 816.39) scale(.1 -.1)">
<use xlink:href="#aw"/>
</g>
</g>
<g clip-path="url(#a)">
<defs>
<path id="c" d="m12.406 8.2969h16.109v55.625l-17.531-3.5156v8.9844l17.438 3.5156h9.8594v-64.609h16.109v-8.2969h-41.984z"/>
<path id="e" d="m10.688 12.406h10.312v-12.406h-10.312z"/>
</defs>
<g transform="translate(619.56 42.461) scale(.1 -.1)">
<use xlink:href="#c"/>
<use x="63.623047" xlink:href="#e"/>
<use x="95.410156" xlink:href="#c"/>
</g>
</g>
<g clip-path="url(#a)">
<defs>
<path id="n" d="m19.188 8.2969h34.422v-8.2969h-46.281v8.2969q5.6094 5.8125 15.297 15.594 9.7031 9.7969 12.188 12.641 4.7344 5.3125 6.6094 9 1.8906 3.6875 1.8906 7.25 0 5.8125-4.0781 9.4688-4.0781 3.6719-10.625 3.6719-4.6406 0-9.7969-1.6094-5.1406-1.6094-11-4.8906v9.9688q5.9531 2.3906 11.125 3.6094 5.1875 1.2188 9.4844 1.2188 11.328 0 18.062-5.6719 6.7344-5.6562 6.7344-15.125 0-4.5-1.6875-8.5312-1.6719-4.0156-6.125-9.4844-1.2188-1.4219-7.7656-8.1875-6.5312-6.7656-18.453-18.922z"/>
</defs>
<g transform="translate(1174.8 310.21) scale(.1 -.1)">
<use xlink:href="#c"/>
<use x="63.623047" xlink:href="#e"/>
<use x="95.410156" xlink:href="#n"/>
</g>
</g>
<g clip-path="url(#a)">
<defs>
<path id="m" d="m40.578 39.312q7.0781-1.5156 11.047-6.3125 3.9844-4.7812 3.9844-11.812 0-10.781-7.4219-16.703-7.4219-5.9062-21.094-5.9062-4.5781 0-9.4375 0.90625t-10.031 2.7188v9.5156q4.0938-2.3906 8.9688-3.6094 4.8906-1.2188 10.219-1.2188 9.2656 0 14.125 3.6562t4.8594 10.641q0 6.4531-4.5156 10.078-4.5156 3.6406-12.562 3.6406h-8.5v8.1094h8.8906q7.2656 0 11.125 2.9062t3.8594 8.375q0 5.6094-3.9844 8.6094-3.9688 3.0156-11.391 3.0156-4.0625 0-8.7031-0.89062-4.6406-0.875-10.203-2.7188v8.7812q5.625 1.5625 10.531 2.3438t9.25 0.78125q11.234 0 17.766-5.1094 6.5469-5.0938 6.5469-13.781 0-6.0625-3.4688-10.234t-9.8594-5.7812z"/>
</defs>
<g transform="translate(1206.8 691.33) scale(.1 -.1)">
<use xlink:href="#c"/>
<use x="63.623047" xlink:href="#e"/>
<use x="95.410156" xlink:href="#m"/>
</g>
</g>
<g clip-path="url(#a)">
<defs>
<path id="r" d="m37.797 64.312-24.906-38.922h24.906zm-2.5938 8.5938h12.406v-47.516h10.406v-8.2031h-10.406v-17.188h-9.8125v17.188h-32.906v9.5156z"/>
</defs>
<g transform="translate(113.46 691.33) scale(.1 -.1)">
<use xlink:href="#c"/>
<use x="63.623047" xlink:href="#e"/>
<use x="95.410156" xlink:href="#r"/>
</g>
</g>
<g clip-path="url(#a)">
<defs>
<path id="ah" d="m10.797 72.906h38.719v-8.3125h-29.688v-17.859q2.1406 0.73438 4.2812 1.0938 2.1562 0.35938 4.3125 0.35938 12.203 0 19.328-6.6875 7.1406-6.6875 7.1406-18.109 0-11.766-7.3281-18.297-7.3281-6.5156-20.656-6.5156-4.5938 0-9.3594 0.78125-4.75 0.78125-9.8281 2.3438v9.9219q4.3906-2.3906 9.0781-3.5625t9.9062-1.1719q8.4531 0 13.375 4.4375 4.9375 4.4375 4.9375 12.062 0 7.6094-4.9375 12.047-4.9219 4.4531-13.375 4.4531-3.9531 0-7.8906-0.875-3.9219-0.875-8.0156-2.7344z"/>
</defs>
<g transform="translate(225.86 178.02) scale(.1 -.1)">
<use xlink:href="#c"/>
<use x="63.623047" xlink:href="#e"/>
<use x="95.410156" xlink:href="#ah"/>
</g>
</g>
<g clip-path="url(#a)">
<defs>
<path id="ag" d="m33.016 40.375q-6.6406 0-10.531-4.5469-3.875-4.5312-3.875-12.438 0-7.8594 3.875-12.438 3.8906-4.5625 10.531-4.5625t10.516 4.5625q3.875 4.5781 3.875 12.438 0 7.9062-3.875 12.438-3.875 4.5469-10.516 4.5469zm19.578 30.922v-8.9844q-3.7188 1.75-7.5 2.6719-3.7812 0.9375-7.5 0.9375-9.7656 0-14.922-6.5938-5.1406-6.5938-5.875-19.922 2.875 4.25 7.2188 6.5156 4.3594 2.2656 9.5781 2.2656 10.984 0 17.359-6.6719 6.375-6.6562 6.375-18.125 0-11.234-6.6406-18.031-6.6406-6.7812-17.672-6.7812-12.656 0-19.344 9.6875-6.6875 9.7031-6.6875 28.109 0 17.281 8.2031 27.562t22.016 10.281q3.7188 0 7.5-0.73438t7.8906-2.1875z"/>
</defs>
<g transform="translate(303.6 691.33) scale(.1 -.1)">
<use xlink:href="#c"/>
<use x="63.623047" xlink:href="#e"/>
<use x="95.410156" xlink:href="#ag"/>
</g>
</g>
<g clip-path="url(#a)">
<defs>
<path id="af" d="m8.2031 72.906h46.875v-4.2031l-26.469-68.703h-10.297l24.906 64.594h-35.016z"/>
</defs>
<g transform="translate(683.88 691.33) scale(.1 -.1)">
<use xlink:href="#c"/>
<use x="63.623047" xlink:href="#e"/>
<use x="95.410156" xlink:href="#af"/>
</g>
</g>
<g clip-path="url(#a)">
<defs>
<path id="ae" d="m31.781 34.625q-7.0312 0-11.062-3.7656-4.0156-3.7656-4.0156-10.344 0-6.5938 4.0156-10.359 4.0312-3.7656 11.062-3.7656t11.078 3.7812q4.0625 3.7969 4.0625 10.344 0 6.5781-4.0312 10.344-4.0156 3.7656-11.109 3.7656zm-9.8594 4.1875q-6.3438 1.5625-9.8906 5.9062-3.5312 4.3594-3.5312 10.609 0 8.7344 6.2188 13.812 6.2344 5.0781 17.062 5.0781 10.891 0 17.094-5.0781t6.2031-13.812q0-6.25-3.5469-10.609-3.5312-4.3438-9.8281-5.9062 7.125-1.6562 11.094-6.5 3.9844-4.8281 3.9844-11.797 0-10.609-6.4688-16.281-6.4688-5.6562-18.531-5.6562-12.047 0-18.531 5.6562-6.4688 5.6719-6.4688 16.281 0 6.9688 4 11.797 4.0156 4.8438 11.141 6.5zm-3.6094 15.578q0-5.6562 3.5312-8.8281 3.5469-3.1719 9.9375-3.1719 6.3594 0 9.9375 3.1719 3.5938 3.1719 3.5938 8.8281 0 5.6719-3.5938 8.8438-3.5781 3.1719-9.9375 3.1719-6.3906 0-9.9375-3.1719-3.5312-3.1719-3.5312-8.8438z"/>
</defs>
<g transform="translate(731.41 691.33) scale(.1 -.1)">
<use xlink:href="#c"/>
<use x="63.623047" xlink:href="#e"/>
<use x="95.410156" xlink:href="#ae"/>
</g>
</g>
<g clip-path="url(#a)">
<defs>
<path id="ad" d="m10.984 1.5156v8.9844q3.7188-1.7656 7.5156-2.6875 3.8125-0.92188 7.4844-0.92188 9.7656 0 14.906 6.5625 5.1562 6.5625 5.8906 19.953-2.8281-4.2031-7.1875-6.4531-4.3438-2.25-9.6094-2.25-10.938 0-17.312 6.6094-6.375 6.625-6.375 18.109 0 11.219 6.6406 18 6.6406 6.7969 17.672 6.7969 12.656 0 19.312-9.7031 6.6719-9.6875 6.6719-28.141 0-17.234-8.1875-27.516-8.1719-10.281-21.984-10.281-3.7188 0-7.5312 0.73438-3.7969 0.73438-7.9062 2.2031zm19.625 30.906q6.6406 0 10.516 4.5312 3.8906 4.5469 3.8906 12.469 0 7.8594-3.8906 12.422-3.875 4.5625-10.516 4.5625t-10.516-4.5625-3.875-12.422q0-7.9219 3.875-12.469 3.875-4.5312 10.516-4.5312z"/>
</defs>
<g transform="translate(852.23 310.21) scale(.1 -.1)">
<use xlink:href="#c"/>
<use x="63.623047" xlink:href="#e"/>
<use x="95.410156" xlink:href="#ad"/>
</g>
</g>
<g clip-path="url(#a)">
<defs>
<path id="ai" d="m31.781 66.406q-7.6094 0-11.453-7.5-3.8281-7.4844-3.8281-22.531 0-14.984 3.8281-22.484 3.8438-7.5 11.453-7.5 7.6719 0 11.5 7.5 3.8438 7.5 3.8438 22.484 0 15.047-3.8438 22.531-3.8281 7.5-11.5 7.5zm0 7.8125q12.266 0 18.734-9.7031 6.4688-9.6875 6.4688-28.141 0-18.406-6.4688-28.109-6.4688-9.6875-18.734-9.6875-12.25 0-18.719 9.6875-6.4688 9.7031-6.4688 28.109 0 18.453 6.4688 28.141 6.4688 9.7031 18.719 9.7031z"/>
</defs>
<g transform="translate(823.3 691.33) scale(.1 -.1)">
<use xlink:href="#c"/>
<use x="63.623047" xlink:href="#e"/>
<use x="95.410156" xlink:href="#c"/>
<use x="159.033203" xlink:href="#ai"/>
</g>
</g>
<g clip-path="url(#a)">
<g transform="translate(1061 691.33) scale(.1 -.1)">
<use xlink:href="#c"/>
<use x="63.623047" xlink:href="#e"/>
<use x="95.410156" xlink:href="#c"/>
<use x="159.033203" xlink:href="#c"/>
</g>
</g>
<g clip-path="url(#a)">
<g transform="translate(1108.5 691.33) scale(.1 -.1)">
<use xlink:href="#c"/>
<use x="63.623047" xlink:href="#e"/>
<use x="95.410156" xlink:href="#c"/>
<use x="159.033203" xlink:href="#n"/>
</g>
</g>
<g clip-path="url(#a)">
<g transform="translate(1156 691.33) scale(.1 -.1)">
<use xlink:href="#c"/>
<use x="63.623047" xlink:href="#e"/>
<use x="95.410156" xlink:href="#c"/>
<use x="159.033203" xlink:href="#m"/>
</g>
</g>
<g clip-path="url(#a)">
<g transform="translate(1251.1 691.33) scale(.1 -.1)">
<use xlink:href="#c"/>
<use x="63.623047" xlink:href="#e"/>
<use x="95.410156" xlink:href="#c"/>
<use x="159.033203" xlink:href="#r"/>
</g>
</g>
<g clip-path="url(#a)">
<g transform="translate(1375.9 439.46) scale(.1 -.1)">
<use xlink:href="#c"/>
<use x="63.623047" xlink:href="#e"/>
<use x="95.410156" xlink:href="#c"/>
<use x="159.033203" xlink:href="#ah"/>
</g>
</g>
<g clip-path="url(#a)">
<g transform="translate(1393.7 691.33) scale(.1 -.1)">
<use xlink:href="#c"/>
<use x="63.623047" xlink:href="#e"/>
<use x="95.410156" xlink:href="#c"/>
<use x="159.033203" xlink:href="#ag"/>
</g>
</g>
<g clip-path="url(#a)">
<g transform="translate(1536.3 691.33) scale(.1 -.1)">
<use xlink:href="#c"/>
<use x="63.623047" xlink:href="#e"/>
<use x="95.410156" xlink:href="#c"/>
<use x="159.033203" xlink:href="#af"/>
</g>
</g>
<g clip-path="url(#a)">
<g transform="translate(62.747 691.33) scale(.1 -.1)">
<use xlink:href="#c"/>
<use x="63.623047" xlink:href="#e"/>
<use x="95.410156" xlink:href="#c"/>
<use x="159.033203" xlink:href="#ae"/>
</g>
</g>
<g clip-path="url(#a)">
<g transform="translate(157.82 691.33) scale(.1 -.1)">
<use xlink:href="#c"/>
<use x="63.623047" xlink:href="#e"/>
<use x="95.410156" xlink:href="#c"/>
<use x="159.033203" xlink:href="#ad"/>
</g>
</g>
<g clip-path="url(#a)">
<g transform="translate(205.35 691.33) scale(.1 -.1)">
<use xlink:href="#c"/>
<use x="63.623047" xlink:href="#e"/>
<use x="95.410156" xlink:href="#n"/>
<use x="159.033203" xlink:href="#ai"/>
</g>
</g>
<g clip-path="url(#a)">
<g transform="translate(252.89 691.33) scale(.1 -.1)">
<use xlink:href="#c"/>
<use x="63.623047" xlink:href="#e"/>
<use x="95.410156" xlink:href="#n"/>
<use x="159.033203" xlink:href="#c"/>
</g>
</g>
<g clip-path="url(#a)">
<g transform="translate(356.87 310.21) scale(.1 -.1)">
<use xlink:href="#c"/>
<use x="63.623047" xlink:href="#e"/>
<use x="95.410156" xlink:href="#n"/>
<use x="159.033203" xlink:href="#n"/>
</g>
</g>
<g clip-path="url(#a)">
<g transform="translate(395.49 691.33) scale(.1 -.1)">
<use xlink:href="#c"/>
<use x="63.623047" xlink:href="#e"/>
<use x="95.410156" xlink:href="#n"/>
<use x="159.033203" xlink:href="#m"/>
</g>
</g>
<g clip-path="url(#a)">
<g transform="translate(775.77 691.33) scale(.1 -.1)">
<use xlink:href="#c"/>
<use x="63.623047" xlink:href="#e"/>
<use x="95.410156" xlink:href="#n"/>
<use x="159.033203" xlink:href="#r"/>
</g>
</g>
<g clip-path="url(#a)">
<g transform="translate(948.08 439.46) scale(.1 -.1)">
<use xlink:href="#c"/>
<use x="63.623047" xlink:href="#e"/>
<use x="95.410156" xlink:href="#n"/>
<use x="159.033203" xlink:href="#ah"/>
</g>
</g>
<g clip-path="url(#a)">
<g transform="translate(1013.4 691.33) scale(.1 -.1)">
<use xlink:href="#c"/>
<use x="63.623047" xlink:href="#e"/>
<use x="95.410156" xlink:href="#n"/>
<use x="159.033203" xlink:href="#ag"/>
</g>
</g>
<g clip-path="url(#a)">
<g transform="translate(1298.6 691.33) scale(.1 -.1)">
<use xlink:href="#c"/>
<use x="63.623047" xlink:href="#e"/>
<use x="95.410156" xlink:href="#n"/>
<use x="159.033203" xlink:href="#af"/>
</g>
</g>
<g clip-path="url(#a)">
<g transform="translate(1346.2 691.33) scale(.1 -.1)">
<use xlink:href="#c"/>
<use x="63.623047" xlink:href="#e"/>
<use x="95.410156" xlink:href="#n"/>
<use x="159.033203" xlink:href="#ae"/>
</g>
</g>
<g clip-path="url(#a)">
<g transform="translate(1465 566.26) scale(.1 -.1)">
<use xlink:href="#c"/>
<use x="63.623047" xlink:href="#e"/>
<use x="95.410156" xlink:href="#n"/>
<use x="159.033203" xlink:href="#ad"/>
</g>
</g>
<g clip-path="url(#a)">
<g transform="translate(1488.8 691.33) scale(.1 -.1)">
<use xlink:href="#c"/>
<use x="63.623047" xlink:href="#e"/>
<use x="95.410156" xlink:href="#m"/>
<use x="159.033203" xlink:href="#ai"/>
</g>
</g>
<g clip-path="url(#a)">
<g transform="translate(347.95 691.33) scale(.1 -.1)">
<use xlink:href="#c"/>
<use x="63.623047" xlink:href="#e"/>
<use x="95.410156" xlink:href="#m"/>
<use x="159.033203" xlink:href="#c"/>
</g>
</g>
<g clip-path="url(#a)">
<g transform="translate(526.21 439.46) scale(.1 -.1)">
<use xlink:href="#c"/>
<use x="63.623047" xlink:href="#e"/>
<use x="95.410156" xlink:href="#m"/>
<use x="159.033203" xlink:href="#n"/>
</g>
</g>
<g clip-path="url(#a)">
<g transform="translate(538.09 691.33) scale(.1 -.1)">
<use xlink:href="#c"/>
<use x="63.623047" xlink:href="#e"/>
<use x="95.410156" xlink:href="#m"/>
<use x="159.033203" xlink:href="#m"/>
</g>
</g>
<g clip-path="url(#a)">
<g transform="translate(870.84 691.33) scale(.1 -.1)">
<use xlink:href="#c"/>
<use x="63.623047" xlink:href="#e"/>
<use x="95.410156" xlink:href="#m"/>
<use x="159.033203" xlink:href="#r"/>
</g>
</g>
<g clip-path="url(#a)">
<g transform="translate(918.37 691.33) scale(.1 -.1)">
<use xlink:href="#c"/>
<use x="63.623047" xlink:href="#e"/>
<use x="95.410156" xlink:href="#m"/>
<use x="159.033203" xlink:href="#ah"/>
</g>
</g>
<g clip-path="url(#a)">
<g transform="translate(989.67 566.26) scale(.1 -.1)">
<use xlink:href="#c"/>
<use x="63.623047" xlink:href="#e"/>
<use x="95.410156" xlink:href="#m"/>
<use x="159.033203" xlink:href="#ag"/>
</g>
</g>
<g clip-path="url(#a)">
<g transform="translate(965.91 691.33) scale(.1 -.1)">
<use xlink:href="#c"/>
<use x="63.623047" xlink:href="#e"/>
<use x="95.410156" xlink:href="#m"/>
<use x="159.033203" xlink:href="#af"/>
</g>
</g>
<g clip-path="url(#a)">
<g transform="translate(1441.3 691.33) scale(.1 -.1)">
<use xlink:href="#c"/>
<use x="63.623047" xlink:href="#e"/>
<use x="95.410156" xlink:href="#m"/>
<use x="159.033203" xlink:href="#ae"/>
</g>
</g>
<g clip-path="url(#a)">
<g transform="translate(443.02 691.33) scale(.1 -.1)">
<use xlink:href="#c"/>
<use x="63.623047" xlink:href="#e"/>
<use x="95.410156" xlink:href="#m"/>
<use x="159.033203" xlink:href="#ad"/>
</g>
</g>
<g clip-path="url(#a)">
<g transform="translate(514.33 566.26) scale(.1 -.1)">
<use xlink:href="#c"/>
<use x="63.623047" xlink:href="#e"/>
<use x="95.410156" xlink:href="#r"/>
<use x="159.033203" xlink:href="#ai"/>
</g>
</g>
<g clip-path="url(#a)">
<g transform="translate(490.56 691.33) scale(.1 -.1)">
<use xlink:href="#c"/>
<use x="63.623047" xlink:href="#e"/>
<use x="95.410156" xlink:href="#r"/>
<use x="159.033203" xlink:href="#c"/>
</g>
</g>
<g clip-path="url(#a)">
<g transform="translate(609.4 566.26) scale(.1 -.1)">
<use xlink:href="#c"/>
<use x="63.623047" xlink:href="#e"/>
<use x="95.410156" xlink:href="#r"/>
<use x="159.033203" xlink:href="#n"/>
</g>
</g>
<g clip-path="url(#a)">
<g transform="translate(633.16 691.33) scale(.1 -.1)">
<use xlink:href="#c"/>
<use x="63.623047" xlink:href="#e"/>
<use x="95.410156" xlink:href="#r"/>
<use x="159.033203" xlink:href="#m"/>
</g>
</g>
<g clip-path="url(#a)">
<g transform="translate(585.63 691.33) scale(.1 -.1)">
<use xlink:href="#c"/>
<use x="63.623047" xlink:href="#e"/>
<use x="95.410156" xlink:href="#r"/>
<use x="159.033203" xlink:href="#r"/>
</g>
</g>
<defs>
<clipPath id="a">
<rect width="1621.3" height="853.33"/>
</clipPath>
</defs>
</svg>
