<?xml version="1.0" encoding="UTF-8"?>
<!DOCTYPE svg  PUBLIC '-//W3C//DTD SVG 1.1//EN'  'http://www.w3.org/Graphics/SVG/1.1/DTD/svg11.dtd'>
<svg width="1165.3pt" height="613.33pt" version="1.1" viewBox="0 0 1165.3 613.33" xmlns="http://www.w3.org/2000/svg" xmlns:xlink="http://www.w3.org/1999/xlink">
<defs>
<style type="text/css">*{stroke-linecap:butt;stroke-linejoin:round;}</style>
</defs>
<path d="m0 613.33h1165.3v-613.33h-1165.3z" fill="#fff"/>
<g fill="none" stroke="#000">
<path d="m338.72 28.548v75.491" clip-path="url(#a)"/>
<path d="m338.72 104.04-189.23 414.91" clip-path="url(#a)"/>
<path d="m338.72 104.04-285.49 414.91" clip-path="url(#a)"/>
<path d="m338.72 104.04-237.36 414.91" clip-path="url(#a)"/>
<path d="m338.72 104.04-117.04 414.91" clip-path="url(#a)"/>
<path d="m338.72 104.04 55.745 73.331" clip-path="url(#a)"/>
<path d="m338.72 104.04 773.38 414.91" clip-path="url(#a)"/>
<path d="m149.49 518.95v65.837" clip-path="url(#a)"/>
<path d="m53.227 518.95v65.837" clip-path="url(#a)"/>
<path d="m101.36 518.95v65.837" clip-path="url(#a)"/>
<path d="m221.69 518.95-24.065 65.837" clip-path="url(#a)"/>
<path d="m221.69 518.95 24.065 65.837" clip-path="url(#a)"/>
<path d="m394.47 177.37-52.455 341.58" clip-path="url(#a)"/>
<path d="m394.47 177.37-100.59 341.58" clip-path="url(#a)"/>
<path d="m394.47 177.37 153.04 71.36" clip-path="url(#a)"/>
<path d="m342.01 518.95v65.837" clip-path="url(#a)"/>
<path d="m1112.1 518.95v65.837" clip-path="url(#a)"/>
<path d="m293.88 518.95v65.837" clip-path="url(#a)"/>
<path d="m547.51 248.73-205.5 270.22" clip-path="url(#a)" stroke-dasharray="3.7,1.6"/>
<path d="m547.51 248.73-12.973 270.22" clip-path="url(#a)"/>
<path d="m547.51 248.73-157.37 270.22" clip-path="url(#a)"/>
<path d="m547.51 248.73-109.23 270.22" clip-path="url(#a)"/>
<path d="m547.51 248.73-61.104 270.22" clip-path="url(#a)"/>
<path d="m547.51 248.73 107.35 204.38" clip-path="url(#a)"/>
<path d="m547.51 248.73 227.68 270.22" clip-path="url(#a)"/>
<path d="m547.51 248.73 211.14 69.589" clip-path="url(#a)"/>
<path d="m534.54 518.95v65.837" clip-path="url(#a)"/>
<path d="m390.14 518.95v65.837" clip-path="url(#a)"/>
<path d="m438.27 518.95v65.837" clip-path="url(#a)"/>
<path d="m486.4 518.95v65.837" clip-path="url(#a)"/>
<path d="m654.86 453.11 72.196 65.837" clip-path="url(#a)"/>
<path d="m654.86 453.11-72.196 65.837" clip-path="url(#a)"/>
<path d="m654.86 453.11-24.065 65.837" clip-path="url(#a)"/>
<path d="m654.86 453.11 24.065 65.837" clip-path="url(#a)"/>
<path d="m727.06 518.95v65.837" clip-path="url(#a)"/>
<path d="m775.19 518.95v65.837" clip-path="url(#a)"/>
<path d="m758.65 318.32-416.63 200.63" clip-path="url(#a)" stroke-dasharray="3.7,1.6"/>
<path d="m758.65 318.32 112.81 200.63" clip-path="url(#a)"/>
<path d="m758.65 318.32 64.676 200.63" clip-path="url(#a)"/>
<path d="m758.65 318.32 239.15 68.039" clip-path="url(#a)"/>
<path d="m871.45 518.95v65.837" clip-path="url(#a)"/>
<path d="m582.67 518.95v65.837" clip-path="url(#a)"/>
<path d="m630.8 518.95v65.837" clip-path="url(#a)"/>
<path d="m678.93 518.95v65.837" clip-path="url(#a)"/>
<path d="m823.32 518.95v65.837" clip-path="url(#a)"/>
<path d="m997.8 386.36 66.18 132.59" clip-path="url(#a)"/>
<path d="m997.8 386.36-78.213 132.59" clip-path="url(#a)"/>
<path d="m997.8 386.36-30.082 132.59" clip-path="url(#a)"/>
<path d="m997.8 386.36 42.115 66.753" clip-path="url(#a)"/>
<path d="m1064 518.95v65.837" clip-path="url(#a)"/>
<path d="m919.58 518.95v65.837" clip-path="url(#a)"/>
<path d="m967.71 518.95v65.837" clip-path="url(#a)"/>
<path d="m1039.9 453.11 24.065 65.837" clip-path="url(#a)" stroke-dasharray="3.7,1.6"/>
<path d="m1039.9 453.11-24.065 65.837" clip-path="url(#a)"/>
<path d="m1015.8 518.95v65.837" clip-path="url(#a)"/>
</g>
<path d="m332.45 63.285v6.0162q0 2.4 2.4 2.4h7.7425q2.4 0 2.4-2.4v-6.0162q0-2.4-2.4-2.4h-7.7425q-2.4 0-2.4 2.4z" clip-path="url(#a)" fill="#fff" stroke="#fff"/>
<g clip-path="url(#a)">
<defs>
<path id="aq" d="m9.8125 72.906h9.8594v-29.891h35.844v29.891h9.8594v-72.906h-9.8594v34.719h-35.844v-34.719h-9.8594z"/>
</defs>
<g transform="translate(336.51 63.285) rotate(90) scale(.08 -.08)">
<use xlink:href="#aq"/>
</g>
</g>
<path d="m248.81 316.29 2.0017-4.3888q0.99591-2.1836-1.1877-3.1795l-7.0444-3.2128q-2.1836-0.99591-3.1795 1.1877l-2.0017 4.3888q-0.99591 2.1836 1.1877 3.1795l7.0444 3.2128q2.1836 0.99591 3.1795-1.1877z" clip-path="url(#a)" fill="#fff" stroke="#fff"/>
<g clip-path="url(#a)">
<defs>
<path id="s" d="m19.672 64.797v-27.391h12.406q6.8906 0 10.641 3.5625 3.7656 3.5625 3.7656 10.156 0 6.5469-3.7656 10.109-3.75 3.5625-10.641 3.5625zm-9.8594 8.1094h22.266q12.266 0 18.531-5.5469 6.2812-5.5469 6.2812-16.234 0-10.797-6.2812-16.312-6.2656-5.5156-18.531-5.5156h-12.406v-29.297h-9.8594z"/>
</defs>
<g transform="translate(245.11 314.6) rotate(-65.483) scale(.08 -.08)">
<use xlink:href="#s"/>
</g>
</g>
<path d="m199.59 317.3 3.1021-4.5083q1.3605-1.9772-0.61669-3.3376l-6.3784-4.3889q-1.9772-1.3605-3.3376 0.61669l-3.1021 4.5083q-1.3605 1.9772 0.61669 3.3376l6.3784 4.3889q1.9772 1.3605 3.3376-0.61669z" clip-path="url(#a)" fill="#fff" stroke="#fff"/>
<g clip-path="url(#a)">
<defs>
<path id="o" d="m34.188 63.188-13.391-36.281h26.812zm-5.5781 9.7188h11.188l27.781-72.906h-10.25l-6.6406 18.703h-32.859l-6.6406-18.703h-10.406z"/>
</defs>
<g transform="translate(196.24 315) rotate(-55.469) scale(.08 -.08)">
<use xlink:href="#o"/>
</g>
</g>
<path d="m224.34 316.6 2.2848-3.9939q1.1918-2.0832-0.89142-3.275l-6.7205-3.8447q-2.0832-1.1918-3.275 0.89142l-2.2848 3.9939q-1.1918 2.0832 0.89142 3.275l6.7205 3.8447q2.0832 1.1918 3.275-0.89142z" clip-path="url(#a)" fill="#fff" stroke="#fff"/>
<g clip-path="url(#a)">
<defs>
<path id="t" d="m9.8125 72.906h41.891v-8.3125h-32.031v-21.484h28.906v-8.2969h-28.906v-34.812h-9.8594z"/>
</defs>
<g transform="translate(220.81 314.59) rotate(-60.227) scale(.08 -.08)">
<use xlink:href="#t"/>
</g>
</g>
<path d="m285.5 315.83 1.4857-5.267q0.65156-2.3099-1.6583-2.9614l-7.4517-2.102q-2.3099-0.65156-2.9614 1.6583l-1.4857 5.267q-0.65156 2.3099 1.6583 2.9614l7.4517 2.102q2.3099 0.65156 2.9614-1.6583z" clip-path="url(#a)" fill="#fff" stroke="#fff"/>
<g clip-path="url(#a)">
<g transform="translate(281.59 314.73) rotate(-74.247) scale(.08 -.08)">
<use xlink:href="#o"/>
</g>
</g>
<path d="m359.95 142.32 3.3118 4.3566q1.4524 1.9106 3.363 0.45819l6.1637-4.6856q1.9106-1.4524 0.45819-3.363l-3.3118-4.3566q-1.4524-1.9106-3.363-0.45819l-6.1637 4.6856q-1.9106 1.4524-0.45819 3.363z" clip-path="url(#a)" fill="#fff" stroke="#fff"/>
<g clip-path="url(#a)">
<g transform="translate(363.18 139.86) rotate(52.758) scale(.08 -.08)">
<use xlink:href="#o"/>
</g>
</g>
<path d="m719.87 315.64 5.1594 2.7679q2.1149 1.1346 3.2495-0.98028l3.6603-6.8227q1.1346-2.1149-0.98028-3.2495l-5.1594-2.7679q-2.1149-1.1346-3.2495 0.98028l-3.6603 6.8227q-1.1346 2.1149 0.98028 3.2495z" clip-path="url(#a)" fill="#fff" stroke="#fff"/>
<g clip-path="url(#a)">
<defs>
<path id="an" d="m8.6875 72.906h9.9219v-44.297q0-11.719 4.2344-16.875 4.25-5.1406 13.781-5.1406 9.4688 0 13.719 5.1406 4.25 5.1562 4.25 16.875v44.297h9.9062v-45.516q0-14.25-7.0625-21.531-7.0469-7.2812-20.812-7.2812-13.828 0-20.891 7.2812-7.0469 7.2812-7.0469 21.531z"/>
</defs>
<g transform="translate(721.79 312.05) rotate(28.213) scale(.08 -.08)">
<use xlink:href="#an"/>
</g>
</g>
<path d="m143.22 534.22v35.285q0 2.4 2.4 2.4h7.7425q2.4 0 2.4-2.4v-35.285q0-2.4-2.4-2.4h-7.7425q-2.4 0-2.4 2.4z" clip-path="url(#a)" fill="#fff" stroke="#fff"/>
<g clip-path="url(#a)">
<defs>
<path id="l" d="m-0.29688 72.906h61.672v-8.3125h-25.875v-64.594h-9.9062v64.594h-25.891z"/>
<path id="g" d="m56.203 29.594v-4.3906h-41.312q0.59375-9.2812 5.5938-14.141t13.938-4.8594q5.1719 0 10.031 1.2656t9.6562 3.8125v-8.5q-4.8438-2.0469-9.9219-3.125t-10.297-1.0781q-13.094 0-20.734 7.6094-7.6406 7.625-7.6406 20.625 0 13.422 7.25 21.297 7.25 7.8906 19.562 7.8906 11.031 0 17.453-7.1094 6.4219-7.0938 6.4219-19.297zm-8.9844 2.6406q-0.09375 7.3594-4.125 11.75-4.0312 4.4062-10.672 4.4062-7.5156 0-12.031-4.25t-5.2031-11.969z"/>
<path id="f" d="m41.109 46.297q-1.5156 0.875-3.2969 1.2812-1.7812 0.42188-3.9219 0.42188-7.625 0-11.703-4.9531t-4.0781-14.234v-28.812h-9.0312v54.688h9.0312v-8.5q2.8438 4.9844 7.375 7.3906 4.5469 2.4219 11.047 2.4219 0.92188 0 2.0469-0.125 1.125-0.10938 2.4844-0.35938z"/>
<path id="j" d="m52 44.188q3.375 6.0625 8.0625 8.9375t11.031 2.875q8.5469 0 13.188-5.9844 4.6406-5.9688 4.6406-17v-33.016h-9.0312v32.719q0 7.8594-2.7969 11.656-2.7812 3.8125-8.4844 3.8125-6.9844 0-11.047-4.6406-4.0469-4.625-4.0469-12.641v-30.906h-9.0312v32.719q0 7.9062-2.7812 11.688t-8.5938 3.7812q-6.8906 0-10.953-4.6562-4.0469-4.6562-4.0469-12.625v-30.906h-9.0312v54.688h9.0312v-8.5q3.0781 5.0312 7.375 7.4219t10.203 2.3906q5.9688 0 10.141-3.0312 4.1719-3.0156 6.1719-8.7812z"/>
<path id="e" d="m9.4219 54.688h8.9844v-54.688h-8.9844zm0 21.297h8.9844v-11.391h-8.9844z"/>
<path id="d" d="m54.891 33.016v-33.016h-8.9844v32.719q0 7.7656-3.0312 11.609-3.0312 3.8594-9.0781 3.8594-7.2812 0-11.484-4.6406-4.2031-4.625-4.2031-12.641v-30.906h-9.0312v54.688h9.0312v-8.5q3.2344 4.9375 7.5938 7.375 4.375 2.4375 10.094 2.4375 9.4219 0 14.25-5.8281 4.8438-5.8281 4.8438-17.156z"/>
<path id="i" d="m34.281 27.484q-10.891 0-15.094-2.4844t-4.2031-8.5q0-4.7812 3.1562-7.5938 3.1562-2.7969 8.5625-2.7969 7.4844 0 12 5.2969t4.5156 14.078v2zm17.922 3.7188v-31.203h-8.9844v8.2969q-3.0781-4.9688-7.6719-7.3438t-11.234-2.375q-8.3906 0-13.359 4.7188-4.9531 4.7188-4.9531 12.625 0 9.2188 6.1719 13.906 6.1875 4.6875 18.438 4.6875h12.609v0.89062q0 6.2031-4.0781 9.5938t-11.453 3.3906q-4.6875 0-9.1406-1.125-4.4375-1.125-8.5312-3.375v8.3125q4.9219 1.9062 9.5625 2.8438 4.6406 0.95312 9.0312 0.95312 11.875 0 17.734-6.1562 5.8594-6.1406 5.8594-18.641z"/>
<path id="k" d="m9.4219 75.984h8.9844v-75.984h-8.9844z"/>
</defs>
<g transform="translate(147.28 534.22) rotate(90) scale(.08 -.08)">
<use xlink:href="#l"/>
<use x="60.818359" xlink:href="#g"/>
<use x="122.341797" xlink:href="#f"/>
<use x="163.439453" xlink:href="#j"/>
<use x="260.851562" xlink:href="#e"/>
<use x="288.634766" xlink:href="#d"/>
<use x="352.013672" xlink:href="#i"/>
<use x="413.292969" xlink:href="#k"/>
</g>
</g>
<path d="m46.956 534.22v35.285q0 2.4 2.4 2.4h7.7425q2.4 0 2.4-2.4v-35.285q0-2.4-2.4-2.4h-7.7425q-2.4 0-2.4 2.4z" clip-path="url(#a)" fill="#fff" stroke="#fff"/>
<g clip-path="url(#a)">
<g transform="translate(51.02 534.22) rotate(90) scale(.08 -.08)">
<use xlink:href="#l"/>
<use x="60.818359" xlink:href="#g"/>
<use x="122.341797" xlink:href="#f"/>
<use x="163.439453" xlink:href="#j"/>
<use x="260.851562" xlink:href="#e"/>
<use x="288.634766" xlink:href="#d"/>
<use x="352.013672" xlink:href="#i"/>
<use x="413.292969" xlink:href="#k"/>
</g>
</g>
<path d="m95.087 534.22v35.285q0 2.4 2.4 2.4h7.7425q2.4 0 2.4-2.4v-35.285q0-2.4-2.4-2.4h-7.7425q-2.4 0-2.4 2.4z" clip-path="url(#a)" fill="#fff" stroke="#fff"/>
<g clip-path="url(#a)">
<g transform="translate(99.151 534.22) rotate(90) scale(.08 -.08)">
<use xlink:href="#l"/>
<use x="60.818359" xlink:href="#g"/>
<use x="122.341797" xlink:href="#f"/>
<use x="163.439453" xlink:href="#j"/>
<use x="260.851562" xlink:href="#e"/>
<use x="288.634766" xlink:href="#d"/>
<use x="352.013672" xlink:href="#i"/>
<use x="413.292969" xlink:href="#k"/>
</g>
</g>
<path d="m209.49 570.59 12.114-33.14q0.82395-2.2541-1.4302-3.0781l-7.2719-2.6581q-2.2541-0.82395-3.0781 1.4302l-12.114 33.14q-0.82395 2.2541 1.4302 3.0781l7.2719 2.6581q2.2541 0.82395 3.0781-1.4302z" clip-path="url(#a)" fill="#fff" stroke="#fff"/>
<g clip-path="url(#a)">
<g transform="translate(205.67 569.19) rotate(-69.921) scale(.08 -.08)">
<use xlink:href="#l"/>
<use x="60.818359" xlink:href="#g"/>
<use x="122.341797" xlink:href="#f"/>
<use x="163.439453" xlink:href="#j"/>
<use x="260.851562" xlink:href="#e"/>
<use x="288.634766" xlink:href="#d"/>
<use x="352.013672" xlink:href="#i"/>
<use x="413.292969" xlink:href="#k"/>
</g>
</g>
<path d="m221.77 537.45 12.114 33.14q0.82395 2.2541 3.0781 1.4302l7.2719-2.6581q2.2541-0.82395 1.4302-3.0781l-12.114-33.14q-0.82395-2.2541-3.0781-1.4302l-7.2719 2.6581q-2.2541 0.82395-1.4302 3.0781z" clip-path="url(#a)" fill="#fff" stroke="#fff"/>
<g clip-path="url(#a)">
<g transform="translate(225.59 536.05) rotate(69.921) scale(.08 -.08)">
<use xlink:href="#l"/>
<use x="60.818359" xlink:href="#g"/>
<use x="122.341797" xlink:href="#f"/>
<use x="163.439453" xlink:href="#j"/>
<use x="260.851562" xlink:href="#e"/>
<use x="288.634766" xlink:href="#d"/>
<use x="352.013672" xlink:href="#i"/>
<use x="413.292969" xlink:href="#k"/>
</g>
</g>
<path d="m374.01 351.87 0.84792-5.5215q0.36429-2.3722-2.0079-2.7365l-7.6528-1.1752q-2.3722-0.36429-2.7365 2.0079l-0.84792 5.5215q-0.36429 2.3722 2.0079 2.7365l7.6528 1.1752q2.3722 0.36429 2.7365-2.0079z" clip-path="url(#a)" fill="#fff" stroke="#fff"/>
<g clip-path="url(#a)">
<defs>
<path id="aj" d="m64.406 67.281v-10.391q-4.9844 4.6406-10.625 6.9219-5.6406 2.2969-11.984 2.2969-12.5 0-19.141-7.6406t-6.6406-22.094q0-14.406 6.6406-22.047t19.141-7.6406q6.3438 0 11.984 2.2969t10.625 6.9375v-10.312q-5.1719-3.5156-10.969-5.2812-5.7812-1.75-12.219-1.75-16.562 0-26.094 10.125-9.5156 10.141-9.5156 27.672 0 17.578 9.5156 27.703 9.5312 10.141 26.094 10.141 6.5312 0 12.312-1.7344 5.7969-1.7344 10.875-5.2031z"/>
</defs>
<g transform="translate(370 351.25) rotate(-81.269) scale(.08 -.08)">
<use xlink:href="#aj"/>
</g>
</g>
<path d="m349.41 352.6 1.5702-5.3324q0.67796-2.3023-1.6243-2.9802l-7.4272-2.1871q-2.3023-0.67796-2.9802 1.6243l-1.5702 5.3324q-0.67796 2.3023 1.6243 2.9802l7.4272 2.1871q2.3023 0.67796 2.9802-1.6243z" clip-path="url(#a)" fill="#fff" stroke="#fff"/>
<g clip-path="url(#a)">
<defs>
<path id="r" d="m44.391 34.188q3.1719-1.0781 6.1719-4.5938t6.0312-9.6719l10.016-19.922h-10.609l-9.3125 18.703q-3.625 7.3281-7.0156 9.7188t-9.25 2.3906h-10.75v-30.812h-9.8594v72.906h22.266q12.5 0 18.656-5.2344 6.1562-5.2188 6.1562-15.766 0-6.8906-3.2031-11.438-3.2031-4.5312-9.2969-6.2812zm-24.719 30.609v-25.875h12.406q7.125 0 10.766 3.2969t3.6406 9.6875-3.6406 9.6406-10.766 3.25z"/>
</defs>
<g transform="translate(345.51 351.45) rotate(-73.592) scale(.08 -.08)">
<use xlink:href="#r"/>
</g>
</g>
<path d="m466.05 217.67 4.5814 2.1362q2.1752 1.0142 3.1894-1.1609l3.272-7.0172q1.0142-2.1752-1.1609-3.1894l-4.5814-2.1362q-2.1752-1.0142-3.1894 1.1609l-3.272 7.0172q-1.0142 2.1752 1.1609 3.1894z" clip-path="url(#a)" fill="#fff" stroke="#fff"/>
<g clip-path="url(#a)">
<defs>
<path id="z" d="m9.8125 72.906h46.094v-8.3125h-36.234v-21.578h34.719v-8.2969h-34.719v-26.422h37.109v-8.2969h-46.969z"/>
</defs>
<g transform="translate(467.76 213.98) rotate(24.999) scale(.08 -.08)">
<use xlink:href="#z"/>
</g>
</g>
<path d="m335.74 534.22v35.285q0 2.4 2.4 2.4h7.7425q2.4 0 2.4-2.4v-35.285q0-2.4-2.4-2.4h-7.7425q-2.4 0-2.4 2.4z" clip-path="url(#a)" fill="#fff" stroke="#fff"/>
<g clip-path="url(#a)">
<g transform="translate(339.8 534.22) rotate(90) scale(.08 -.08)">
<use xlink:href="#l"/>
<use x="60.818359" xlink:href="#g"/>
<use x="122.341797" xlink:href="#f"/>
<use x="163.439453" xlink:href="#j"/>
<use x="260.851562" xlink:href="#e"/>
<use x="288.634766" xlink:href="#d"/>
<use x="352.013672" xlink:href="#i"/>
<use x="413.292969" xlink:href="#k"/>
</g>
</g>
<path d="m1105.8 534.22v35.285q0 2.4 2.4 2.4h7.7425q2.4 0 2.4-2.4v-35.285q0-2.4-2.4-2.4h-7.7425q-2.4 0-2.4 2.4z" clip-path="url(#a)" fill="#fff" stroke="#fff"/>
<g clip-path="url(#a)">
<g transform="translate(1109.9 534.22) rotate(90) scale(.08 -.08)">
<use xlink:href="#l"/>
<use x="60.818359" xlink:href="#g"/>
<use x="122.341797" xlink:href="#f"/>
<use x="163.439453" xlink:href="#j"/>
<use x="260.851562" xlink:href="#e"/>
<use x="288.634766" xlink:href="#d"/>
<use x="352.013672" xlink:href="#i"/>
<use x="413.292969" xlink:href="#k"/>
</g>
</g>
<path d="m287.61 534.22v35.285q0 2.4 2.4 2.4h7.7425q2.4 0 2.4-2.4v-35.285q0-2.4-2.4-2.4h-7.7425q-2.4 0-2.4 2.4z" clip-path="url(#a)" fill="#fff" stroke="#fff"/>
<g clip-path="url(#a)">
<g transform="translate(291.67 534.22) rotate(90) scale(.08 -.08)">
<use xlink:href="#l"/>
<use x="60.818359" xlink:href="#g"/>
<use x="122.341797" xlink:href="#f"/>
<use x="163.439453" xlink:href="#j"/>
<use x="260.851562" xlink:href="#e"/>
<use x="288.634766" xlink:href="#d"/>
<use x="352.013672" xlink:href="#i"/>
<use x="413.292969" xlink:href="#k"/>
</g>
</g>
<path d="m448.1 389.81 3.3127-4.356q1.4528-1.9103-0.45756-3.3631l-6.1628-4.6867q-1.9103-1.4528-3.3631 0.45756l-3.3127 4.356q-1.4528 1.9103 0.45756 3.3631l6.1628 4.6867q1.9103 1.4528 3.3631-0.45756z" clip-path="url(#a)" fill="#fff" stroke="#fff"/>
<g clip-path="url(#a)">
<g transform="translate(444.86 387.35) rotate(-52.748) scale(.08 -.08)">
<use xlink:href="#o"/>
</g>
</g>
<path d="m547.17 386.55 0.23132-4.8182q0.11509-2.3972-2.2822-2.5123l-7.7336-0.37128q-2.3972-0.11509-2.5123 2.2822l-0.23132 4.8182q-0.11509 2.3972 2.2822 2.5123l7.7336 0.37128q2.3972 0.11509 2.5123-2.2822z" clip-path="url(#a)" fill="#fff" stroke="#fff"/>
<g clip-path="url(#a)">
<g transform="translate(543.11 386.35) rotate(-87.251) scale(.08 -.08)">
<use xlink:href="#s"/>
</g>
</g>
<path d="m472.85 389.4 2.7974-4.8036q1.2078-2.0739-0.86615-3.2817l-6.6906-3.8964q-2.0739-1.2078-3.2817 0.86615l-2.7974 4.8036q-1.2078 2.0739 0.86615 3.2817l6.6906 3.8964q2.0739 1.2078 3.2817-0.86615z" clip-path="url(#a)" fill="#fff" stroke="#fff"/>
<g clip-path="url(#a)">
<g transform="translate(469.33 387.35) rotate(-59.785) scale(.08 -.08)">
<use xlink:href="#r"/>
</g>
</g>
<path d="m497.84 388.32 1.7245-4.2659q0.89948-2.2251-1.3256-3.1245l-7.1782-2.9017q-2.2251-0.89948-3.1245 1.3256l-1.7245 4.2659q-0.89948 2.2251 1.3256 3.1245l7.1782 2.9017q2.2251 0.89948 3.1245-1.3256z" clip-path="url(#a)" fill="#fff" stroke="#fff"/>
<g clip-path="url(#a)">
<g transform="translate(494.08 386.8) rotate(-67.989) scale(.08 -.08)">
<use xlink:href="#t"/>
</g>
</g>
<path d="m522.46 387.93 1.226-5.4219q0.52934-2.3409-1.8116-2.8702l-7.5518-1.7077q-2.3409-0.52934-2.8702 1.8116l-1.226 5.4219q-0.52934 2.3409 1.8116 2.8702l7.5518 1.7077q2.3409 0.52934 2.8702-1.8116z" clip-path="url(#a)" fill="#fff" stroke="#fff"/>
<g clip-path="url(#a)">
<g transform="translate(518.5 387.04) rotate(-77.258) scale(.08 -.08)">
<use xlink:href="#r"/>
</g>
</g>
<path d="m594.46 351.6 2.3507 4.4752q1.116 2.1247 3.2408 1.0087l6.8544-3.6004q2.1247-1.116 1.0087-3.2408l-2.3507-4.4752q-1.116-2.1247-3.2408-1.0087l-6.8544 3.6004q-2.1247 1.116-1.0087 3.2408z" clip-path="url(#a)" fill="#fff" stroke="#fff"/>
<g clip-path="url(#a)">
<g transform="translate(598.06 349.71) rotate(62.289) scale(.08 -.08)">
<use xlink:href="#z"/>
</g>
</g>
<path d="m654.63 385.59 3.8564 4.5769q1.5464 1.8354 3.3818 0.28891l5.9209-4.9889q1.8354-1.5464 0.28891-3.3818l-3.8564-4.5769q-1.5464-1.8354-3.3818-0.28891l-5.9209 4.9889q-1.8354 1.5464-0.28891 3.3818z" clip-path="url(#a)" fill="#fff" stroke="#fff"/>
<g clip-path="url(#a)">
<defs>
<path id="ao" d="m9.8125 72.906h13.281l32.328-60.984v60.984h9.5625v-72.906h-13.281l-32.312 60.984v-60.984h-9.5781z"/>
</defs>
<g transform="translate(657.73 382.97) rotate(49.883) scale(.08 -.08)">
<use xlink:href="#ao"/>
</g>
</g>
<path d="m648.82 288.73 4.5813 1.51q2.2794 0.75127 3.0307-1.5281l2.4236-7.3534q0.75127-2.2794-1.5281-3.0307l-4.5813-1.51q-2.2794-0.75127-3.0307 1.5281l-2.4236 7.3534q-0.75127 2.2794 1.5281 3.0307z" clip-path="url(#a)" fill="#fff" stroke="#fff"/>
<g clip-path="url(#a)">
<g transform="translate(650.1 284.87) rotate(18.242) scale(.08 -.08)">
<use xlink:href="#s"/>
</g>
</g>
<path d="m528.26 534.22v35.285q0 2.4 2.4 2.4h7.7425q2.4 0 2.4-2.4v-35.285q0-2.4-2.4-2.4h-7.7425q-2.4 0-2.4 2.4z" clip-path="url(#a)" fill="#fff" stroke="#fff"/>
<g clip-path="url(#a)">
<g transform="translate(532.33 534.22) rotate(90) scale(.08 -.08)">
<use xlink:href="#l"/>
<use x="60.818359" xlink:href="#g"/>
<use x="122.341797" xlink:href="#f"/>
<use x="163.439453" xlink:href="#j"/>
<use x="260.851562" xlink:href="#e"/>
<use x="288.634766" xlink:href="#d"/>
<use x="352.013672" xlink:href="#i"/>
<use x="413.292969" xlink:href="#k"/>
</g>
</g>
<path d="m383.87 534.22v35.285q0 2.4 2.4 2.4h7.7425q2.4 0 2.4-2.4v-35.285q0-2.4-2.4-2.4h-7.7425q-2.4 0-2.4 2.4z" clip-path="url(#a)" fill="#fff" stroke="#fff"/>
<g clip-path="url(#a)">
<g transform="translate(387.94 534.22) rotate(90) scale(.08 -.08)">
<use xlink:href="#l"/>
<use x="60.818359" xlink:href="#g"/>
<use x="122.341797" xlink:href="#f"/>
<use x="163.439453" xlink:href="#j"/>
<use x="260.851562" xlink:href="#e"/>
<use x="288.634766" xlink:href="#d"/>
<use x="352.013672" xlink:href="#i"/>
<use x="413.292969" xlink:href="#k"/>
</g>
</g>
<path d="m432 534.22v35.285q0 2.4 2.4 2.4h7.7425q2.4 0 2.4-2.4v-35.285q0-2.4-2.4-2.4h-7.7425q-2.4 0-2.4 2.4z" clip-path="url(#a)" fill="#fff" stroke="#fff"/>
<g clip-path="url(#a)">
<g transform="translate(436.07 534.22) rotate(90) scale(.08 -.08)">
<use xlink:href="#l"/>
<use x="60.818359" xlink:href="#g"/>
<use x="122.341797" xlink:href="#f"/>
<use x="163.439453" xlink:href="#j"/>
<use x="260.851562" xlink:href="#e"/>
<use x="288.634766" xlink:href="#d"/>
<use x="352.013672" xlink:href="#i"/>
<use x="413.292969" xlink:href="#k"/>
</g>
</g>
<path d="m480.13 534.22v35.285q0 2.4 2.4 2.4h7.7425q2.4 0 2.4-2.4v-35.285q0-2.4-2.4-2.4h-7.7425q-2.4 0-2.4 2.4z" clip-path="url(#a)" fill="#fff" stroke="#fff"/>
<g clip-path="url(#a)">
<g transform="translate(484.2 534.22) rotate(90) scale(.08 -.08)">
<use xlink:href="#l"/>
<use x="60.818359" xlink:href="#g"/>
<use x="122.341797" xlink:href="#f"/>
<use x="163.439453" xlink:href="#j"/>
<use x="260.851562" xlink:href="#e"/>
<use x="288.634766" xlink:href="#d"/>
<use x="352.013672" xlink:href="#i"/>
<use x="413.292969" xlink:href="#k"/>
</g>
</g>
<path d="m684.95 489.04 3.5643 3.2503q1.7734 1.6172 3.3905-0.1562l5.217-5.7209q1.6172-1.7734-0.1562-3.3905l-3.5643-3.2503q-1.7734-1.6172-3.3905 0.1562l-5.217 5.7209q-1.6172 1.7734 0.1562 3.3905z" clip-path="url(#a)" fill="#fff" stroke="#fff"/>
<g clip-path="url(#a)">
<g transform="translate(687.69 486.04) rotate(42.362) scale(.08 -.08)">
<use xlink:href="#s"/>
</g>
</g>
<path d="m620.94 492.54 4.1074-3.7456q1.7734-1.6172 0.1562-3.3905l-5.217-5.7209q-1.6172-1.7734-3.3905-0.1562l-4.1074 3.7456q-1.7734 1.6172-0.1562 3.3905l5.217 5.7209q1.6172 1.7734 3.3905 0.1562z" clip-path="url(#a)" fill="#fff" stroke="#fff"/>
<g clip-path="url(#a)">
<g transform="translate(618.2 489.53) rotate(-42.362) scale(.08 -.08)">
<use xlink:href="#r"/>
</g>
</g>
<path d="m647.93 490.34 1.5797-4.3216q0.82395-2.2541-1.4302-3.0781l-7.2719-2.6581q-2.2541-0.82395-3.0781 1.4302l-1.5797 4.3216q-0.82395 2.2541 1.4302 3.0781l7.2719 2.6581q2.2541 0.82395 3.0781-1.4302z" clip-path="url(#a)" fill="#fff" stroke="#fff"/>
<g clip-path="url(#a)">
<g transform="translate(644.11 488.95) rotate(-69.921) scale(.08 -.08)">
<use xlink:href="#t"/>
</g>
</g>
<path d="m659.95 485.29 2.1148 5.7856q0.82395 2.2541 3.0781 1.4302l7.2719-2.6581q2.2541-0.82395 1.4302-3.0781l-2.1148-5.7856q-0.82395-2.2541-3.0781-1.4302l-7.2719 2.6581q-2.2541 0.82395-1.4302 3.0781z" clip-path="url(#a)" fill="#fff" stroke="#fff"/>
<g clip-path="url(#a)">
<defs>
<path id="ar" d="m19.672 64.797v-56.688h11.922q15.094 0 22.094 6.8281 7 6.8438 7 21.594 0 14.641-7 21.453t-22.094 6.8125zm-9.8594 8.1094h20.266q21.188 0 31.094-8.8125 9.9219-8.8125 9.9219-27.562 0-18.859-9.9688-27.703-9.9531-8.8281-31.047-8.8281h-20.266z"/>
</defs>
<g transform="translate(663.76 483.89) rotate(69.921) scale(.08 -.08)">
<use xlink:href="#ar"/>
</g>
</g>
<path d="m720.79 534.22v35.285q0 2.4 2.4 2.4h7.7425q2.4 0 2.4-2.4v-35.285q0-2.4-2.4-2.4h-7.7425q-2.4 0-2.4 2.4z" clip-path="url(#a)" fill="#fff" stroke="#fff"/>
<g clip-path="url(#a)">
<g transform="translate(724.85 534.22) rotate(90) scale(.08 -.08)">
<use xlink:href="#l"/>
<use x="60.818359" xlink:href="#g"/>
<use x="122.341797" xlink:href="#f"/>
<use x="163.439453" xlink:href="#j"/>
<use x="260.851562" xlink:href="#e"/>
<use x="288.634766" xlink:href="#d"/>
<use x="352.013672" xlink:href="#i"/>
<use x="413.292969" xlink:href="#k"/>
</g>
</g>
<path d="m768.92 534.22v35.285q0 2.4 2.4 2.4h7.7425q2.4 0 2.4-2.4v-35.285q0-2.4-2.4-2.4h-7.7425q-2.4 0-2.4 2.4z" clip-path="url(#a)" fill="#fff" stroke="#fff"/>
<g clip-path="url(#a)">
<g transform="translate(772.98 534.22) rotate(90) scale(.08 -.08)">
<use xlink:href="#l"/>
<use x="60.818359" xlink:href="#g"/>
<use x="122.341797" xlink:href="#f"/>
<use x="163.439453" xlink:href="#j"/>
<use x="260.851562" xlink:href="#e"/>
<use x="288.634766" xlink:href="#d"/>
<use x="352.013672" xlink:href="#i"/>
<use x="413.292969" xlink:href="#k"/>
</g>
</g>
<path d="m550.58 425.47 4.9306-2.3743q2.1623-1.0413 1.1211-3.2036l-3.3592-6.9758q-1.0413-2.1623-3.2036-1.1211l-4.9306 2.3743q-2.1623 1.0413-1.1211 3.2036l3.3592 6.9758q1.0413 2.1623 3.2036 1.1211z" clip-path="url(#a)" fill="#fff" stroke="#fff"/>
<g clip-path="url(#a)">
<g transform="translate(548.82 421.81) rotate(-25.713) scale(.08 -.08)">
<use xlink:href="#o"/>
</g>
</g>
<path d="m808.4 419.6 2.3641 4.2047q1.1763 2.092 3.2682 0.91574l6.7488-3.7946q2.092-1.1763 0.91574-3.2682l-2.3641-4.2047q-1.1763-2.092-3.2682-0.91574l-6.7488 3.7946q-2.092 1.1763-0.91574 3.2682z" clip-path="url(#a)" fill="#fff" stroke="#fff"/>
<g clip-path="url(#a)">
<g transform="translate(811.94 417.61) rotate(60.652) scale(.08 -.08)">
<use xlink:href="#s"/>
</g>
</g>
<path d="m784.31 418.37 1.4117 4.3793q0.73636 2.2842 3.0206 1.5479l7.3691-2.3755q2.2842-0.73636 1.5479-3.0206l-1.4117-4.3793q-0.73636-2.2842-3.0206-1.5479l-7.3691 2.3755q-2.2842 0.73636-1.5479 3.0206z" clip-path="url(#a)" fill="#fff" stroke="#fff"/>
<g clip-path="url(#a)">
<g transform="translate(788.18 417.12) rotate(72.132) scale(.08 -.08)">
<use xlink:href="#t"/>
</g>
</g>
<path d="m873.87 357.62 5.2636 1.4975q2.3084 0.65674 2.9651-1.6517l2.1187-7.447q0.65674-2.3084-1.6517-2.9651l-5.2636-1.4975q-2.3084-0.65674-2.9651 1.6517l-2.1187 7.447q-0.65674 2.3084 1.6517 2.9651z" clip-path="url(#a)" fill="#fff" stroke="#fff"/>
<g clip-path="url(#a)">
<g transform="translate(874.98 353.71) rotate(15.881) scale(.08 -.08)">
<use xlink:href="#o"/>
</g>
</g>
<path d="m865.18 534.22v35.285q0 2.4 2.4 2.4h7.7425q2.4 0 2.4-2.4v-35.285q0-2.4-2.4-2.4h-7.7425q-2.4 0-2.4 2.4z" clip-path="url(#a)" fill="#fff" stroke="#fff"/>
<g clip-path="url(#a)">
<g transform="translate(869.24 534.22) rotate(90) scale(.08 -.08)">
<use xlink:href="#l"/>
<use x="60.818359" xlink:href="#g"/>
<use x="122.341797" xlink:href="#f"/>
<use x="163.439453" xlink:href="#j"/>
<use x="260.851562" xlink:href="#e"/>
<use x="288.634766" xlink:href="#d"/>
<use x="352.013672" xlink:href="#i"/>
<use x="413.292969" xlink:href="#k"/>
</g>
</g>
<path d="m576.4 534.22v35.285q0 2.4 2.4 2.4h7.7425q2.4 0 2.4-2.4v-35.285q0-2.4-2.4-2.4h-7.7425q-2.4 0-2.4 2.4z" clip-path="url(#a)" fill="#fff" stroke="#fff"/>
<g clip-path="url(#a)">
<g transform="translate(580.46 534.22) rotate(90) scale(.08 -.08)">
<use xlink:href="#l"/>
<use x="60.818359" xlink:href="#g"/>
<use x="122.341797" xlink:href="#f"/>
<use x="163.439453" xlink:href="#j"/>
<use x="260.851562" xlink:href="#e"/>
<use x="288.634766" xlink:href="#d"/>
<use x="352.013672" xlink:href="#i"/>
<use x="413.292969" xlink:href="#k"/>
</g>
</g>
<path d="m624.53 534.22v35.285q0 2.4 2.4 2.4h7.7425q2.4 0 2.4-2.4v-35.285q0-2.4-2.4-2.4h-7.7425q-2.4 0-2.4 2.4z" clip-path="url(#a)" fill="#fff" stroke="#fff"/>
<g clip-path="url(#a)">
<g transform="translate(628.59 534.22) rotate(90) scale(.08 -.08)">
<use xlink:href="#l"/>
<use x="60.818359" xlink:href="#g"/>
<use x="122.341797" xlink:href="#f"/>
<use x="163.439453" xlink:href="#j"/>
<use x="260.851562" xlink:href="#e"/>
<use x="288.634766" xlink:href="#d"/>
<use x="352.013672" xlink:href="#i"/>
<use x="413.292969" xlink:href="#k"/>
</g>
</g>
<path d="m672.66 534.22v35.285q0 2.4 2.4 2.4h7.7425q2.4 0 2.4-2.4v-35.285q0-2.4-2.4-2.4h-7.7425q-2.4 0-2.4 2.4z" clip-path="url(#a)" fill="#fff" stroke="#fff"/>
<g clip-path="url(#a)">
<g transform="translate(676.72 534.22) rotate(90) scale(.08 -.08)">
<use xlink:href="#l"/>
<use x="60.818359" xlink:href="#g"/>
<use x="122.341797" xlink:href="#f"/>
<use x="163.439453" xlink:href="#j"/>
<use x="260.851562" xlink:href="#e"/>
<use x="288.634766" xlink:href="#d"/>
<use x="352.013672" xlink:href="#i"/>
<use x="413.292969" xlink:href="#k"/>
</g>
</g>
<path d="m817.05 534.22v35.285q0 2.4 2.4 2.4h7.7425q2.4 0 2.4-2.4v-35.285q0-2.4-2.4-2.4h-7.7425q-2.4 0-2.4 2.4z" clip-path="url(#a)" fill="#fff" stroke="#fff"/>
<g clip-path="url(#a)">
<g transform="translate(821.11 534.22) rotate(90) scale(.08 -.08)">
<use xlink:href="#l"/>
<use x="60.818359" xlink:href="#g"/>
<use x="122.341797" xlink:href="#f"/>
<use x="163.439453" xlink:href="#j"/>
<use x="260.851562" xlink:href="#e"/>
<use x="288.634766" xlink:href="#d"/>
<use x="352.013672" xlink:href="#i"/>
<use x="413.292969" xlink:href="#k"/>
</g>
</g>
<path d="m1024.1 453.18 2.2681 4.5442q1.0718 2.1474 3.2192 1.0756l6.9275-3.4577q2.1474-1.0718 1.0756-3.2192l-2.2681-4.5442q-1.0718-2.1474-3.2192-1.0756l-6.9275 3.4577q-2.1474 1.0718-1.0756 3.2192z" clip-path="url(#a)" fill="#fff" stroke="#fff"/>
<g clip-path="url(#a)">
<defs>
<path id="ai" d="m53.516 70.516v-9.625q-5.6094 2.6875-10.594 4-4.9844 1.3281-9.625 1.3281-8.0469 0-12.422-3.125t-4.375-8.8906q0-4.8438 2.9062-7.3125 2.9062-2.4531 11.016-3.9688l5.9531-1.2188q11.031-2.1094 16.281-7.4062t5.25-14.172q0-10.609-7.1094-16.078-7.0938-5.4688-20.812-5.4688-5.1719 0-11.016 1.1719-5.8281 1.1719-12.078 3.4688v10.156q6-3.3594 11.766-5.0781 5.7656-1.7031 11.328-1.7031 8.4375 0 13.031 3.3125 4.5938 3.3281 4.5938 9.4844 0 5.3594-3.2969 8.3906t-10.812 4.5469l-6.0156 1.1719q-11.031 2.1875-15.969 6.875-4.9219 4.6875-4.9219 13.047 0 9.6719 6.8125 15.234t18.766 5.5625q5.1406 0 10.453-0.9375 5.3281-0.92188 10.891-2.7656z"/>
</defs>
<g transform="translate(1027.8 451.37) rotate(63.475) scale(.08 -.08)">
<use xlink:href="#ai"/>
</g>
</g>
<path d="m962.68 458.23 2.8243-4.7878q1.2194-2.0672-0.84778-3.2865l-6.6687-3.9338q-2.0672-1.2194-3.2865 0.84778l-2.8243 4.7878q-1.2194 2.0672 0.84778 3.2865l6.6687 3.9338q2.0672 1.2194 3.2865-0.84778z" clip-path="url(#a)" fill="#fff" stroke="#fff"/>
<g clip-path="url(#a)">
<g transform="translate(959.18 456.17) rotate(-59.464) scale(.08 -.08)">
<use xlink:href="#r"/>
</g>
</g>
<path d="m988.36 456.28 1.018-4.4872q0.53101-2.3405-1.8095-2.8715l-7.5506-1.7131q-2.3405-0.53101-2.8715 1.8095l-1.018 4.4872q-0.53101 2.3405 1.8095 2.8715l7.5506 1.7131q2.3405 0.53101 2.8715-1.8095z" clip-path="url(#a)" fill="#fff" stroke="#fff"/>
<g clip-path="url(#a)">
<g transform="translate(984.4 455.38) rotate(-77.217) scale(.08 -.08)">
<use xlink:href="#t"/>
</g>
</g>
<path d="m1012.2 420.94 2.6973 4.2753q1.2806 2.0298 3.3104 0.7492l6.5482-4.1313q2.0298-1.2806 0.7492-3.3104l-2.6973-4.2753q-1.2806-2.0298-3.3104-0.7492l-6.5482 4.1313q-2.0298 1.2806-0.7492 3.3104z" clip-path="url(#a)" fill="#fff" stroke="#fff"/>
<g clip-path="url(#a)">
<g transform="translate(1015.6 418.77) rotate(57.752) scale(.08 -.08)">
<use xlink:href="#z"/>
</g>
</g>
<path d="m1057.7 534.22v35.285q0 2.4 2.4 2.4h7.7425q2.4 0 2.4-2.4v-35.285q0-2.4-2.4-2.4h-7.7425q-2.4 0-2.4 2.4z" clip-path="url(#a)" fill="#fff" stroke="#fff"/>
<g clip-path="url(#a)">
<g transform="translate(1061.8 534.22) rotate(90) scale(.08 -.08)">
<use xlink:href="#l"/>
<use x="60.818359" xlink:href="#g"/>
<use x="122.341797" xlink:href="#f"/>
<use x="163.439453" xlink:href="#j"/>
<use x="260.851562" xlink:href="#e"/>
<use x="288.634766" xlink:href="#d"/>
<use x="352.013672" xlink:href="#i"/>
<use x="413.292969" xlink:href="#k"/>
</g>
</g>
<path d="m913.31 534.22v35.285q0 2.4 2.4 2.4h7.7425q2.4 0 2.4-2.4v-35.285q0-2.4-2.4-2.4h-7.7425q-2.4 0-2.4 2.4z" clip-path="url(#a)" fill="#fff" stroke="#fff"/>
<g clip-path="url(#a)">
<g transform="translate(917.38 534.22) rotate(90) scale(.08 -.08)">
<use xlink:href="#l"/>
<use x="60.818359" xlink:href="#g"/>
<use x="122.341797" xlink:href="#f"/>
<use x="163.439453" xlink:href="#j"/>
<use x="260.851562" xlink:href="#e"/>
<use x="288.634766" xlink:href="#d"/>
<use x="352.013672" xlink:href="#i"/>
<use x="413.292969" xlink:href="#k"/>
</g>
</g>
<path d="m961.44 534.22v35.285q0 2.4 2.4 2.4h7.7425q2.4 0 2.4-2.4v-35.285q0-2.4-2.4-2.4h-7.7425q-2.4 0-2.4 2.4z" clip-path="url(#a)" fill="#fff" stroke="#fff"/>
<g clip-path="url(#a)">
<g transform="translate(965.51 534.22) rotate(90) scale(.08 -.08)">
<use xlink:href="#l"/>
<use x="60.818359" xlink:href="#g"/>
<use x="122.341797" xlink:href="#f"/>
<use x="163.439453" xlink:href="#j"/>
<use x="260.851562" xlink:href="#e"/>
<use x="288.634766" xlink:href="#d"/>
<use x="352.013672" xlink:href="#i"/>
<use x="413.292969" xlink:href="#k"/>
</g>
</g>
<path d="m1045.1 485.61 1.8788 5.1399q0.82395 2.2541 3.0781 1.4302l7.2719-2.6581q2.2541-0.82395 1.4302-3.0781l-1.8788-5.1399q-0.82395-2.2541-3.0781-1.4302l-7.2719 2.6581q-2.2541 0.82395-1.4302 3.0781z" clip-path="url(#a)" fill="#fff" stroke="#fff"/>
<g clip-path="url(#a)">
<g transform="translate(1048.9 484.22) rotate(69.921) scale(.08 -.08)">
<use xlink:href="#o"/>
</g>
</g>
<path d="m1032.9 490.57 1.7436-4.7701q0.82395-2.2541-1.4302-3.0781l-7.2719-2.6581q-2.2541-0.82395-3.0781 1.4302l-1.7436 4.7701q-0.82395 2.2541 1.4302 3.0781l7.2719 2.6581q2.2541 0.82395 3.0781-1.4302z" clip-path="url(#a)" fill="#fff" stroke="#fff"/>
<g clip-path="url(#a)">
<g transform="translate(1029.1 489.17) rotate(-69.921) scale(.08 -.08)">
<use xlink:href="#ai"/>
</g>
</g>
<path d="m1009.6 534.22v35.285q0 2.4 2.4 2.4h7.7425q2.4 0 2.4-2.4v-35.285q0-2.4-2.4-2.4h-7.7425q-2.4 0-2.4 2.4z" clip-path="url(#a)" fill="#fff" stroke="#fff"/>
<g clip-path="url(#a)">
<g transform="translate(1013.6 534.22) rotate(90) scale(.08 -.08)">
<use xlink:href="#l"/>
<use x="60.818359" xlink:href="#g"/>
<use x="122.341797" xlink:href="#f"/>
<use x="163.439453" xlink:href="#j"/>
<use x="260.851562" xlink:href="#e"/>
<use x="288.634766" xlink:href="#d"/>
<use x="352.013672" xlink:href="#i"/>
<use x="413.292969" xlink:href="#k"/>
</g>
</g>
<defs>
<path id="b" d="m0 8.6603c2.2967 0 4.4997-0.9125 6.1237-2.5365 1.624-1.624 2.5365-3.827 2.5365-6.1237s-0.9125-4.4997-2.5365-6.1237c-1.624-1.624-3.827-2.5365-6.1237-2.5365s-4.4997 0.9125-6.1237 2.5365c-1.624 1.624-2.5365 3.827-2.5365 6.1237s0.9125 4.4997 2.5365 6.1237c1.624 1.624 3.827 2.5365 6.1237 2.5365z"/>
</defs>
<g clip-path="url(#a)">
<use x="53.227232" y="584.785218" fill="#ffffff" stroke="#ffffff" xlink:href="#b"/>
</g>
<g clip-path="url(#a)">
<use x="101.35809" y="584.785218" fill="#ffffff" stroke="#ffffff" xlink:href="#b"/>
</g>
<g clip-path="url(#a)">
<use x="149.488948" y="584.785218" fill="#ffffff" stroke="#ffffff" xlink:href="#b"/>
</g>
<g clip-path="url(#a)">
<use x="197.619805" y="584.785218" fill="#ffffff" stroke="#ffffff" xlink:href="#b"/>
</g>
<g clip-path="url(#a)">
<use x="245.750663" y="584.785218" fill="#ffffff" stroke="#ffffff" xlink:href="#b"/>
</g>
<g clip-path="url(#a)">
<use x="293.881521" y="584.785218" fill="#ffffff" stroke="#ffffff" xlink:href="#b"/>
</g>
<g clip-path="url(#a)">
<use x="342.012378" y="584.785218" fill="#ffffff" stroke="#ffffff" xlink:href="#b"/>
</g>
<g clip-path="url(#a)">
<use x="390.143236" y="584.785218" fill="#ffffff" stroke="#ffffff" xlink:href="#b"/>
</g>
<g clip-path="url(#a)">
<use x="438.274094" y="584.785218" fill="#ffffff" stroke="#ffffff" xlink:href="#b"/>
</g>
<g clip-path="url(#a)">
<use x="486.404951" y="584.785218" fill="#ffffff" stroke="#ffffff" xlink:href="#b"/>
</g>
<g clip-path="url(#a)">
<use x="534.535809" y="584.785218" fill="#ffffff" stroke="#ffffff" xlink:href="#b"/>
</g>
<g clip-path="url(#a)">
<use x="582.666667" y="584.785218" fill="#ffffff" stroke="#ffffff" xlink:href="#b"/>
</g>
<g clip-path="url(#a)">
<use x="630.797524" y="584.785218" fill="#ffffff" stroke="#ffffff" xlink:href="#b"/>
</g>
<g clip-path="url(#a)">
<use x="678.928382" y="584.785218" fill="#ffffff" stroke="#ffffff" xlink:href="#b"/>
</g>
<g clip-path="url(#a)">
<use x="727.05924" y="584.785218" fill="#ffffff" stroke="#ffffff" xlink:href="#b"/>
</g>
<g clip-path="url(#a)">
<use x="775.190097" y="584.785218" fill="#ffffff" stroke="#ffffff" xlink:href="#b"/>
</g>
<g clip-path="url(#a)">
<use x="823.320955" y="584.785218" fill="#ffffff" stroke="#ffffff" xlink:href="#b"/>
</g>
<g clip-path="url(#a)">
<use x="871.451813" y="584.785218" fill="#ffffff" stroke="#ffffff" xlink:href="#b"/>
</g>
<g clip-path="url(#a)">
<use x="919.58267" y="584.785218" fill="#ffffff" stroke="#ffffff" xlink:href="#b"/>
</g>
<g clip-path="url(#a)">
<use x="967.713528" y="584.785218" fill="#ffffff" stroke="#ffffff" xlink:href="#b"/>
</g>
<g clip-path="url(#a)">
<use x="1015.844386" y="584.785218" fill="#ffffff" stroke="#ffffff" xlink:href="#b"/>
</g>
<g clip-path="url(#a)">
<use x="1063.975244" y="584.785218" fill="#ffffff" stroke="#ffffff" xlink:href="#b"/>
</g>
<g clip-path="url(#a)">
<use x="1112.106101" y="584.785218" fill="#ffffff" stroke="#ffffff" xlink:href="#b"/>
</g>
<g clip-path="url(#a)">
<use x="338.722183" y="28.548115" fill="#ffffff" stroke="#ffffff" xlink:href="#b"/>
</g>
<g clip-path="url(#a)">
<use x="338.722183" y="104.039" fill="#ffffff" stroke="#ffffff" xlink:href="#b"/>
</g>
<g clip-path="url(#a)">
<use x="149.488948" y="518.947952" fill="#ffffff" stroke="#ffffff" xlink:href="#b"/>
</g>
<g clip-path="url(#a)">
<use x="53.227232" y="518.947952" fill="#ffffff" stroke="#ffffff" xlink:href="#b"/>
</g>
<g clip-path="url(#a)">
<use x="101.35809" y="518.947952" fill="#ffffff" stroke="#ffffff" xlink:href="#b"/>
</g>
<g clip-path="url(#a)">
<use x="221.685234" y="518.947952" fill="#ffffff" stroke="#ffffff" xlink:href="#b"/>
</g>
<g clip-path="url(#a)">
<use x="394.467493" y="177.37009" fill="#ffffff" stroke="#ffffff" xlink:href="#b"/>
</g>
<g clip-path="url(#a)">
<use x="342.012378" y="518.947952" fill="#ffffff" stroke="#ffffff" xlink:href="#b"/>
</g>
<g clip-path="url(#a)">
<use x="1112.106101" y="518.947952" fill="#ffffff" stroke="#ffffff" xlink:href="#b"/>
</g>
<g clip-path="url(#a)">
<use x="293.881521" y="518.947952" fill="#ffffff" stroke="#ffffff" xlink:href="#b"/>
</g>
<g clip-path="url(#a)">
<use x="547.508579" y="248.730243" fill="#ffffff" stroke="#ffffff" xlink:href="#b"/>
</g>
<g clip-path="url(#a)">
<use x="534.535809" y="518.947952" fill="#ffffff" stroke="#ffffff" xlink:href="#b"/>
</g>
<g clip-path="url(#a)">
<use x="390.143236" y="518.947952" fill="#ffffff" stroke="#ffffff" xlink:href="#b"/>
</g>
<g clip-path="url(#a)">
<use x="438.274094" y="518.947952" fill="#ffffff" stroke="#ffffff" xlink:href="#b"/>
</g>
<g clip-path="url(#a)">
<use x="486.404951" y="518.947952" fill="#ffffff" stroke="#ffffff" xlink:href="#b"/>
</g>
<g clip-path="url(#a)">
<use x="654.862953" y="453.110686" fill="#ffffff" stroke="#ffffff" xlink:href="#b"/>
</g>
<g clip-path="url(#a)">
<use x="727.05924" y="518.947952" fill="#ffffff" stroke="#ffffff" xlink:href="#b"/>
</g>
<g clip-path="url(#a)">
<use x="775.190097" y="518.947952" fill="#ffffff" stroke="#ffffff" xlink:href="#b"/>
</g>
<g clip-path="url(#a)">
<use x="758.645115" y="318.319033" fill="#ffffff" stroke="#ffffff" xlink:href="#b"/>
</g>
<g clip-path="url(#a)">
<use x="871.451813" y="518.947952" fill="#ffffff" stroke="#ffffff" xlink:href="#b"/>
</g>
<g clip-path="url(#a)">
<use x="582.666667" y="518.947952" fill="#ffffff" stroke="#ffffff" xlink:href="#b"/>
</g>
<g clip-path="url(#a)">
<use x="630.797524" y="518.947952" fill="#ffffff" stroke="#ffffff" xlink:href="#b"/>
</g>
<g clip-path="url(#a)">
<use x="678.928382" y="518.947952" fill="#ffffff" stroke="#ffffff" xlink:href="#b"/>
</g>
<g clip-path="url(#a)">
<use x="823.320955" y="518.947952" fill="#ffffff" stroke="#ffffff" xlink:href="#b"/>
</g>
<g clip-path="url(#a)">
<use x="997.795314" y="386.35755" fill="#ffffff" stroke="#ffffff" xlink:href="#b"/>
</g>
<g clip-path="url(#a)">
<use x="1063.975244" y="518.947952" fill="#ffffff" stroke="#ffffff" xlink:href="#b"/>
</g>
<g clip-path="url(#a)">
<use x="919.58267" y="518.947952" fill="#ffffff" stroke="#ffffff" xlink:href="#b"/>
</g>
<g clip-path="url(#a)">
<use x="967.713528" y="518.947952" fill="#ffffff" stroke="#ffffff" xlink:href="#b"/>
</g>
<g clip-path="url(#a)">
<use x="1039.909815" y="453.110686" fill="#ffffff" stroke="#ffffff" xlink:href="#b"/>
</g>
<g clip-path="url(#a)">
<use x="1015.844386" y="518.947952" fill="#ffffff" stroke="#ffffff" xlink:href="#b"/>
</g>
<g clip-path="url(#a)">
<defs>
<path id="ap" d="m9.8125 72.906h9.8594v-72.906h-9.8594z"/>
</defs>
<g transform="translate(51.752 587.54) scale(.1 -.1)">
<use xlink:href="#ap"/>
</g>
</g>
<g clip-path="url(#a)">
<defs>
<path id="al" d="m4.2031 54.688h8.9844l11.234-42.672 11.172 42.672h10.594l11.234-42.672 11.188 42.672h8.9844l-14.312-54.688h-10.594l-11.766 44.828-11.812-44.828h-10.609z"/>
<path id="n" d="m30.609 48.391q-7.2188 0-11.422-5.6406t-4.2031-15.453 4.1719-15.453q4.1875-5.6406 11.453-5.6406 7.1875 0 11.375 5.6562 4.2031 5.6719 4.2031 15.438 0 9.7188-4.2031 15.406-4.1875 5.6875-11.375 5.6875zm0 7.6094q11.719 0 18.406-7.625 6.7031-7.6094 6.7031-21.078 0-13.422-6.7031-21.078-6.6875-7.6406-18.406-7.6406-11.766 0-18.438 7.6406-6.6562 7.6562-6.6562 21.078 0 13.469 6.6562 21.078 6.6719 7.625 18.438 7.625z"/>
<path id="x" d="m8.5 21.578v33.109h8.9844v-32.766q0-7.7656 3.0156-11.656 3.0312-3.875 9.0938-3.875 7.2656 0 11.484 4.6406 4.2344 4.6406 4.2344 12.656v31h8.9844v-54.688h-8.9844v8.4062q-3.2656-4.9844-7.5938-7.4062-4.3125-2.4219-10.031-2.4219-9.4219 0-14.312 5.8594-4.875 5.8594-4.875 17.141z"/>
<path id="q" d="m45.406 46.391v29.594h8.9844v-75.984h-8.9844v8.2031q-2.8281-4.875-7.1562-7.25-4.3125-2.375-10.375-2.375-9.9062 0-16.141 7.9062-6.2188 7.9219-6.2188 20.812t6.2188 20.797q6.2344 7.9062 16.141 7.9062 6.0625 0 10.375-2.375 4.3281-2.3594 7.1562-7.2344zm-30.609-19.094q0-9.9062 4.0781-15.547t11.203-5.6406 11.219 5.6406q4.1094 5.6406 4.1094 15.547t-4.1094 15.547q-4.0938 5.6406-11.219 5.6406t-11.203-5.6406-4.0781-15.547z"/>
</defs>
<g transform="translate(86.478 587.54) scale(.1 -.1)">
<use xlink:href="#al"/>
<use x="81.787109" xlink:href="#n"/>
<use x="142.96875" xlink:href="#x"/>
<use x="206.347656" xlink:href="#k"/>
<use x="234.130859" xlink:href="#q"/>
</g>
</g>
<g clip-path="url(#a)">
<defs>
<path id="p" d="m48.781 52.594v-8.4062q-3.8125 2.1094-7.6406 3.1562t-7.7344 1.0469q-8.75 0-13.594-5.5469-4.8281-5.5312-4.8281-15.547t4.8281-15.562q4.8438-5.5312 13.594-5.5312 3.9062 0 7.7344 1.0469t7.6406 3.1562v-8.3125q-3.7656-1.75-7.7969-2.625-4.0156-0.89062-8.5625-0.89062-12.359 0-19.641 7.7656-7.2656 7.7656-7.2656 20.953 0 13.375 7.3438 21.031 7.3594 7.6719 20.156 7.6719 4.1406 0 8.0938-0.85938 3.9531-0.84375 7.6719-2.5469z"/>
</defs>
<g transform="translate(119.39 587.54) scale(.1 -.1)">
<use xlink:href="#f"/>
<use x="41.082031" xlink:href="#g"/>
<use x="102.605469" xlink:href="#p"/>
<use x="157.585938" xlink:href="#n"/>
<use x="218.767578" xlink:href="#j"/>
<use x="316.179688" xlink:href="#j"/>
<use x="413.591797" xlink:href="#g"/>
<use x="475.115234" xlink:href="#d"/>
<use x="538.494141" xlink:href="#q"/>
</g>
</g>
<g clip-path="url(#a)">
<defs>
<path id="as" d="m19.672 34.812v-26.703h15.828q7.9531 0 11.781 3.2969 3.8438 3.2969 3.8438 10.078 0 6.8438-3.8438 10.078-3.8281 3.25-11.781 3.25zm0 29.984v-21.969h14.609q7.2188 0 10.75 2.7031 3.5469 2.7188 3.5469 8.2812 0 5.5156-3.5469 8.25-3.5312 2.7344-10.75 2.7344zm-9.8594 8.1094h25.203q11.281 0 17.375-4.6875 6.1094-4.6875 6.1094-13.328 0-6.7031-3.125-10.656t-9.1875-4.9219q7.2812-1.5625 11.312-6.5312 4.0312-4.9531 4.0312-12.375 0-9.7656-6.6406-15.094-6.6406-5.3125-18.906-5.3125h-26.172z"/>
<path id="ak" d="m32.172-5.0781q-3.7969-9.7656-7.4219-12.734-3.6094-2.9844-9.6562-2.9844h-7.1875v7.5156h5.2812q3.7031 0 5.75 1.7656 2.0625 1.75 4.5469 8.2969l1.6094 4.0938-22.109 53.812h9.5156l17.094-42.766 17.094 42.766h9.5156z"/>
<path id="v" d="m44.281 53.078v-8.5q-3.7969 1.9531-7.9062 2.9219-4.0938 0.98438-8.5 0.98438-6.6875 0-10.031-2.0469t-3.3438-6.1562q0-3.125 2.3906-4.9062t9.625-3.3906l3.0781-0.6875q9.5625-2.0469 13.594-5.7812t4.0312-10.422q0-7.625-6.0312-12.078-6.0312-4.4375-16.578-4.4375-4.3906 0-9.1562 0.85938t-10.031 2.5625v9.2812q4.9844-2.5938 9.8125-3.8906 4.8281-1.2812 9.5781-1.2812 6.3438 0 9.75 2.1719 3.4219 2.1719 3.4219 6.125 0 3.6562-2.4688 5.6094-2.4531 1.9531-10.812 3.7656l-3.125 0.73438q-8.3438 1.75-12.062 5.3906-3.7031 3.6406-3.7031 9.9844 0 7.7188 5.4688 11.906 5.4688 4.2031 15.531 4.2031 4.9688 0 9.3594-0.73438 4.4062-0.71875 8.1094-2.1875z"/>
</defs>
<g transform="translate(177.92 587.54) scale(.1 -.1)">
<use xlink:href="#as"/>
<use x="68.603516" xlink:href="#i"/>
<use x="129.882812" xlink:href="#ak"/>
<use x="189.0625" xlink:href="#v"/>
<use x="241.162109" xlink:href="#e"/>
<use x="268.945312" xlink:href="#q"/>
<use x="332.421875" xlink:href="#g"/>
</g>
</g>
<g clip-path="url(#a)">
<defs>
<path id="ah" d="m54.891 33.016v-33.016h-8.9844v32.719q0 7.7656-3.0312 11.609-3.0312 3.8594-9.0781 3.8594-7.2812 0-11.484-4.6406-4.2031-4.625-4.2031-12.641v-30.906h-9.0312v75.984h9.0312v-29.797q3.2344 4.9375 7.5938 7.375 4.375 2.4375 10.094 2.4375 9.4219 0 14.25-5.8281 4.8438-5.8281 4.8438-17.156z"/>
<path id="at" d="m18.109 8.2031v-29h-9.0312v75.484h9.0312v-8.2969q2.8438 4.875 7.1562 7.2344 4.3281 2.375 10.328 2.375 9.9688 0 16.188-7.9062 6.2344-7.9062 6.2344-20.797t-6.2344-20.812q-6.2188-7.9062-16.188-7.9062-6 0-10.328 2.375-4.3125 2.375-7.1562 7.25zm30.578 19.094q0 9.9062-4.0781 15.547t-11.203 5.6406q-7.1406 0-11.219-5.6406t-4.0781-15.547 4.0781-15.547 11.219-5.6406q7.125 0 11.203 5.6406t4.0781 15.547z"/>
<path id="u" d="m18.312 70.219v-15.531h18.5v-6.9844h-18.5v-29.688q0-6.6875 1.8281-8.5938t7.4531-1.9062h9.2188v-7.5156h-9.2188q-10.406 0-14.359 3.875-3.9531 3.8906-3.9531 14.141v29.688h-6.5938v6.9844h6.5938v15.531z"/>
</defs>
<g transform="translate(215.45 587.54) scale(.1 -.1)">
<use xlink:href="#aj"/>
<use x="69.824219" xlink:href="#ah"/>
<use x="133.203125" xlink:href="#e"/>
<use x="160.986328" xlink:href="#f"/>
<use x="202.068359" xlink:href="#n"/>
<use x="263.25" xlink:href="#at"/>
<use x="326.726562" xlink:href="#f"/>
<use x="367.839844" xlink:href="#i"/>
<use x="429.119141" xlink:href="#p"/>
<use x="484.099609" xlink:href="#u"/>
<use x="523.308594" xlink:href="#e"/>
<use x="551.091797" xlink:href="#p"/>
</g>
</g>
<g clip-path="url(#a)">
<g transform="translate(288.86 587.54) scale(.1 -.1)">
<use xlink:href="#u"/>
<use x="39.208984" xlink:href="#n"/>
</g>
</g>
<g clip-path="url(#a)">
<g transform="translate(323.52 587.54) scale(.1 -.1)">
<use xlink:href="#i"/>
<use x="61.279297" xlink:href="#d"/>
<use x="124.658203" xlink:href="#ak"/>
<use x="183.837891" xlink:href="#n"/>
<use x="245.019531" xlink:href="#d"/>
<use x="308.398438" xlink:href="#g"/>
</g>
</g>
<g clip-path="url(#a)">
<g transform="translate(379.83 587.54) scale(.1 -.1)">
<use xlink:href="#al"/>
<use x="81.787109" xlink:href="#ah"/>
<use x="145.166016" xlink:href="#n"/>
</g>
</g>
<g clip-path="url(#a)">
<g transform="translate(434.28 587.54) scale(.1 -.1)">
<use xlink:href="#e"/>
<use x="27.783203" xlink:href="#v"/>
</g>
</g>
<g clip-path="url(#a)">
<g transform="translate(481.85 587.54) scale(.1 -.1)">
<use xlink:href="#e"/>
<use x="27.783203" xlink:href="#d"/>
</g>
</g>
<g clip-path="url(#a)">
<g transform="translate(522.04 587.54) scale(.1 -.1)">
<use xlink:href="#d"/>
<use x="63.378906" xlink:href="#g"/>
<use x="124.902344" xlink:href="#g"/>
<use x="186.425781" xlink:href="#q"/>
</g>
</g>
<g clip-path="url(#a)">
<defs>
<path id="y" d="m37.109 75.984v-7.4844h-8.5938q-4.8281 0-6.7188-1.9531-1.875-1.9531-1.875-7.0312v-4.8281h14.797v-6.9844h-14.797v-47.703h-9.0312v47.703h-8.5938v6.9844h8.5938v3.8125q0 9.125 4.25 13.297 4.25 4.1875 13.469 4.1875z"/>
</defs>
<g transform="translate(577.85 587.54) scale(.1 -.1)">
<use xlink:href="#n"/>
<use x="61.181641" xlink:href="#y"/>
</g>
</g>
<g clip-path="url(#a)">
<g transform="translate(627.73 587.54) scale(.1 -.1)">
<use xlink:href="#i"/>
</g>
</g>
<g clip-path="url(#a)">
<defs>
<path id="am" d="m45.406 27.984q0 9.7656-4.0312 15.125-4.0156 5.375-11.297 5.375-7.2188 0-11.25-5.375-4.0312-5.3594-4.0312-15.125 0-9.7188 4.0312-15.094t11.25-5.375q7.2812 0 11.297 5.375 4.0312 5.375 4.0312 15.094zm8.9844-21.203q0-13.953-6.2031-20.766-6.1875-6.8125-18.984-6.8125-4.7344 0-8.9375 0.70312t-8.1562 2.1719v8.7344q3.9531-2.1406 7.8125-3.1562 3.8594-1.0312 7.8594-1.0312 8.8438 0 13.234 4.6094t4.3906 13.938v4.4531q-2.7812-4.8438-7.125-7.2344t-10.406-2.3906q-10.047 0-16.203 7.6562-6.1562 7.6719-6.1562 20.328 0 12.688 6.1562 20.344 6.1562 7.6719 16.203 7.6719 6.0625 0 10.406-2.3906t7.125-7.2188v8.2969h8.9844z"/>
</defs>
<g transform="translate(660.95 587.54) scale(.1 -.1)">
<use xlink:href="#f"/>
<use x="41.082031" xlink:href="#g"/>
<use x="102.605469" xlink:href="#am"/>
<use x="166.082031" xlink:href="#x"/>
<use x="229.460938" xlink:href="#k"/>
<use x="257.244141" xlink:href="#i"/>
<use x="318.523438" xlink:href="#f"/>
</g>
</g>
<g clip-path="url(#a)">
<defs>
<path id="au" d="m9.4219 54.688h8.9844v-55.672q0-10.438-3.9844-15.125-3.9688-4.6875-12.812-4.6875h-3.4219v7.6094h2.4062q5.125 0 6.9688 2.375 1.8594 2.3594 1.8594 9.8281zm0 21.297h8.9844v-11.391h-8.9844z"/>
</defs>
<g transform="translate(698.62 587.54) scale(.1 -.1)">
<use xlink:href="#i"/>
<use x="61.279297" xlink:href="#q"/>
<use x="124.755859" xlink:href="#au"/>
<use x="152.539062" xlink:href="#x"/>
<use x="215.917969" xlink:href="#v"/>
<use x="268.017578" xlink:href="#u"/>
<use x="307.226562" xlink:href="#j"/>
<use x="404.638672" xlink:href="#g"/>
<use x="466.162109" xlink:href="#d"/>
<use x="529.541016" xlink:href="#u"/>
</g>
</g>
<g clip-path="url(#a)">
<g transform="translate(770.08 587.54) scale(.1 -.1)">
<use xlink:href="#n"/>
<use x="61.181641" xlink:href="#f"/>
</g>
</g>
<g clip-path="url(#a)">
<g transform="translate(819.33 587.54) scale(.1 -.1)">
<use xlink:href="#e"/>
<use x="27.783203" xlink:href="#v"/>
</g>
</g>
<g clip-path="url(#a)">
<g transform="translate(849.29 587.54) scale(.1 -.1)">
<use xlink:href="#v"/>
<use x="52.099609" xlink:href="#x"/>
<use x="115.478516" xlink:href="#y"/>
<use x="150.683594" xlink:href="#y"/>
<use x="185.888672" xlink:href="#g"/>
<use x="247.412109" xlink:href="#f"/>
<use x="288.525391" xlink:href="#e"/>
<use x="316.308594" xlink:href="#d"/>
<use x="379.6875" xlink:href="#am"/>
</g>
</g>
<g clip-path="url(#a)">
<g transform="translate(907.84 587.54) scale(.1 -.1)">
<use xlink:href="#y"/>
<use x="35.205078" xlink:href="#f"/>
<use x="76.287109" xlink:href="#n"/>
<use x="137.46875" xlink:href="#j"/>
</g>
</g>
<g clip-path="url(#a)">
<g transform="translate(964.65 587.54) scale(.1 -.1)">
<use xlink:href="#i"/>
</g>
</g>
<g clip-path="url(#a)">
<g transform="translate(997.51 587.54) scale(.1 -.1)">
<use xlink:href="#p"/>
<use x="54.980469" xlink:href="#ah"/>
<use x="118.359375" xlink:href="#f"/>
<use x="159.441406" xlink:href="#n"/>
<use x="220.623047" xlink:href="#d"/>
<use x="284.001953" xlink:href="#e"/>
<use x="311.785156" xlink:href="#p"/>
</g>
</g>
<g clip-path="url(#a)">
<g transform="translate(1040.9 587.54) scale(.1 -.1)">
<use xlink:href="#p"/>
<use x="54.980469" xlink:href="#n"/>
<use x="116.162109" xlink:href="#d"/>
<use x="179.541016" xlink:href="#q"/>
<use x="243.017578" xlink:href="#e"/>
<use x="270.800781" xlink:href="#u"/>
<use x="310.009766" xlink:href="#e"/>
<use x="337.792969" xlink:href="#n"/>
<use x="398.974609" xlink:href="#d"/>
</g>
</g>
<g clip-path="url(#a)">
<defs>
<path id="h" d="m10.688 12.406h10.312v-12.406h-10.312z"/>
</defs>
<g transform="translate(1110.5 587.54) scale(.1 -.1)">
<use xlink:href="#h"/>
</g>
</g>
<g clip-path="url(#a)">
<defs>
<path id="c" d="m12.406 8.2969h16.109v55.625l-17.531-3.5156v8.9844l17.438 3.5156h9.8594v-64.609h16.109v-8.2969h-41.984z"/>
</defs>
<g transform="translate(330.77 31.307) scale(.1 -.1)">
<use xlink:href="#c"/>
<use x="63.623047" xlink:href="#h"/>
<use x="95.410156" xlink:href="#c"/>
</g>
</g>
<g clip-path="url(#a)">
<defs>
<path id="m" d="m19.188 8.2969h34.422v-8.2969h-46.281v8.2969q5.6094 5.8125 15.297 15.594 9.7031 9.7969 12.188 12.641 4.7344 5.3125 6.6094 9 1.8906 3.6875 1.8906 7.25 0 5.8125-4.0781 9.4688-4.0781 3.6719-10.625 3.6719-4.6406 0-9.7969-1.6094-5.1406-1.6094-11-4.8906v9.9688q5.9531 2.3906 11.125 3.6094 5.1875 1.2188 9.4844 1.2188 11.328 0 18.062-5.6719 6.7344-5.6562 6.7344-15.125 0-4.5-1.6875-8.5312-1.6719-4.0156-6.125-9.4844-1.2188-1.4219-7.7656-8.1875-6.5312-6.7656-18.453-18.922z"/>
</defs>
<g transform="translate(330.77 106.8) scale(.1 -.1)">
<use xlink:href="#c"/>
<use x="63.623047" xlink:href="#h"/>
<use x="95.410156" xlink:href="#m"/>
</g>
</g>
<g clip-path="url(#a)">
<defs>
<path id="w" d="m40.578 39.312q7.0781-1.5156 11.047-6.3125 3.9844-4.7812 3.9844-11.812 0-10.781-7.4219-16.703-7.4219-5.9062-21.094-5.9062-4.5781 0-9.4375 0.90625t-10.031 2.7188v9.5156q4.0938-2.3906 8.9688-3.6094 4.8906-1.2188 10.219-1.2188 9.2656 0 14.125 3.6562t4.8594 10.641q0 6.4531-4.5156 10.078-4.5156 3.6406-12.562 3.6406h-8.5v8.1094h8.8906q7.2656 0 11.125 2.9062t3.8594 8.375q0 5.6094-3.9844 8.6094-3.9688 3.0156-11.391 3.0156-4.0625 0-8.7031-0.89062-4.6406-0.875-10.203-2.7188v8.7812q5.625 1.5625 10.531 2.3438t9.25 0.78125q11.234 0 17.766-5.1094 6.5469-5.0938 6.5469-13.781 0-6.0625-3.4688-10.234t-9.8594-5.7812z"/>
</defs>
<g transform="translate(141.54 521.71) scale(.1 -.1)">
<use xlink:href="#c"/>
<use x="63.623047" xlink:href="#h"/>
<use x="95.410156" xlink:href="#w"/>
</g>
</g>
<g clip-path="url(#a)">
<defs>
<path id="af" d="m37.797 64.312-24.906-38.922h24.906zm-2.5938 8.5938h12.406v-47.516h10.406v-8.2031h-10.406v-17.188h-9.8125v17.188h-32.906v9.5156z"/>
</defs>
<g transform="translate(45.276 521.71) scale(.1 -.1)">
<use xlink:href="#c"/>
<use x="63.623047" xlink:href="#h"/>
<use x="95.410156" xlink:href="#af"/>
</g>
</g>
<g clip-path="url(#a)">
<defs>
<path id="ae" d="m10.797 72.906h38.719v-8.3125h-29.688v-17.859q2.1406 0.73438 4.2812 1.0938 2.1562 0.35938 4.3125 0.35938 12.203 0 19.328-6.6875 7.1406-6.6875 7.1406-18.109 0-11.766-7.3281-18.297-7.3281-6.5156-20.656-6.5156-4.5938 0-9.3594 0.78125-4.75 0.78125-9.8281 2.3438v9.9219q4.3906-2.3906 9.0781-3.5625t9.9062-1.1719q8.4531 0 13.375 4.4375 4.9375 4.4375 4.9375 12.062 0 7.6094-4.9375 12.047-4.9219 4.4531-13.375 4.4531-3.9531 0-7.8906-0.875-3.9219-0.875-8.0156-2.7344z"/>
</defs>
<g transform="translate(93.407 521.71) scale(.1 -.1)">
<use xlink:href="#c"/>
<use x="63.623047" xlink:href="#h"/>
<use x="95.410156" xlink:href="#ae"/>
</g>
</g>
<g clip-path="url(#a)">
<defs>
<path id="ad" d="m33.016 40.375q-6.6406 0-10.531-4.5469-3.875-4.5312-3.875-12.438 0-7.8594 3.875-12.438 3.8906-4.5625 10.531-4.5625t10.516 4.5625q3.875 4.5781 3.875 12.438 0 7.9062-3.875 12.438-3.875 4.5469-10.516 4.5469zm19.578 30.922v-8.9844q-3.7188 1.75-7.5 2.6719-3.7812 0.9375-7.5 0.9375-9.7656 0-14.922-6.5938-5.1406-6.5938-5.875-19.922 2.875 4.25 7.2188 6.5156 4.3594 2.2656 9.5781 2.2656 10.984 0 17.359-6.6719 6.375-6.6562 6.375-18.125 0-11.234-6.6406-18.031-6.6406-6.7812-17.672-6.7812-12.656 0-19.344 9.6875-6.6875 9.7031-6.6875 28.109 0 17.281 8.2031 27.562t22.016 10.281q3.7188 0 7.5-0.73438t7.8906-2.1875z"/>
</defs>
<g transform="translate(213.73 521.71) scale(.1 -.1)">
<use xlink:href="#c"/>
<use x="63.623047" xlink:href="#h"/>
<use x="95.410156" xlink:href="#ad"/>
</g>
</g>
<g clip-path="url(#a)">
<defs>
<path id="ac" d="m8.2031 72.906h46.875v-4.2031l-26.469-68.703h-10.297l24.906 64.594h-35.016z"/>
</defs>
<g transform="translate(386.52 180.13) scale(.1 -.1)">
<use xlink:href="#c"/>
<use x="63.623047" xlink:href="#h"/>
<use x="95.410156" xlink:href="#ac"/>
</g>
</g>
<g clip-path="url(#a)">
<defs>
<path id="ab" d="m31.781 34.625q-7.0312 0-11.062-3.7656-4.0156-3.7656-4.0156-10.344 0-6.5938 4.0156-10.359 4.0312-3.7656 11.062-3.7656t11.078 3.7812q4.0625 3.7969 4.0625 10.344 0 6.5781-4.0312 10.344-4.0156 3.7656-11.109 3.7656zm-9.8594 4.1875q-6.3438 1.5625-9.8906 5.9062-3.5312 4.3594-3.5312 10.609 0 8.7344 6.2188 13.812 6.2344 5.0781 17.062 5.0781 10.891 0 17.094-5.0781t6.2031-13.812q0-6.25-3.5469-10.609-3.5312-4.3438-9.8281-5.9062 7.125-1.6562 11.094-6.5 3.9844-4.8281 3.9844-11.797 0-10.609-6.4688-16.281-6.4688-5.6562-18.531-5.6562-12.047 0-18.531 5.6562-6.4688 5.6719-6.4688 16.281 0 6.9688 4 11.797 4.0156 4.8438 11.141 6.5zm-3.6094 15.578q0-5.6562 3.5312-8.8281 3.5469-3.1719 9.9375-3.1719 6.3594 0 9.9375 3.1719 3.5938 3.1719 3.5938 8.8281 0 5.6719-3.5938 8.8438-3.5781 3.1719-9.9375 3.1719-6.3906 0-9.9375-3.1719-3.5312-3.1719-3.5312-8.8438z"/>
</defs>
<g transform="translate(334.06 521.71) scale(.1 -.1)">
<use xlink:href="#c"/>
<use x="63.623047" xlink:href="#h"/>
<use x="95.410156" xlink:href="#ab"/>
</g>
</g>
<g clip-path="url(#a)">
<defs>
<path id="aa" d="m10.984 1.5156v8.9844q3.7188-1.7656 7.5156-2.6875 3.8125-0.92188 7.4844-0.92188 9.7656 0 14.906 6.5625 5.1562 6.5625 5.8906 19.953-2.8281-4.2031-7.1875-6.4531-4.3438-2.25-9.6094-2.25-10.938 0-17.312 6.6094-6.375 6.625-6.375 18.109 0 11.219 6.6406 18 6.6406 6.7969 17.672 6.7969 12.656 0 19.312-9.7031 6.6719-9.6875 6.6719-28.141 0-17.234-8.1875-27.516-8.1719-10.281-21.984-10.281-3.7188 0-7.5312 0.73438-3.7969 0.73438-7.9062 2.2031zm19.625 30.906q6.6406 0 10.516 4.5312 3.8906 4.5469 3.8906 12.469 0 7.8594-3.8906 12.422-3.875 4.5625-10.516 4.5625t-10.516-4.5625-3.875-12.422q0-7.9219 3.875-12.469 3.875-4.5312 10.516-4.5312z"/>
</defs>
<g transform="translate(1104.2 521.71) scale(.1 -.1)">
<use xlink:href="#c"/>
<use x="63.623047" xlink:href="#h"/>
<use x="95.410156" xlink:href="#aa"/>
</g>
</g>
<g clip-path="url(#a)">
<defs>
<path id="ag" d="m31.781 66.406q-7.6094 0-11.453-7.5-3.8281-7.4844-3.8281-22.531 0-14.984 3.8281-22.484 3.8438-7.5 11.453-7.5 7.6719 0 11.5 7.5 3.8438 7.5 3.8438 22.484 0 15.047-3.8438 22.531-3.8281 7.5-11.5 7.5zm0 7.8125q12.266 0 18.734-9.7031 6.4688-9.6875 6.4688-28.141 0-18.406-6.4688-28.109-6.4688-9.6875-18.734-9.6875-12.25 0-18.719 9.6875-6.4688 9.7031-6.4688 28.109 0 18.453 6.4688 28.141 6.4688 9.7031 18.719 9.7031z"/>
</defs>
<g transform="translate(282.75 521.71) scale(.1 -.1)">
<use xlink:href="#c"/>
<use x="63.623047" xlink:href="#h"/>
<use x="95.410156" xlink:href="#c"/>
<use x="159.033203" xlink:href="#ag"/>
</g>
</g>
<g clip-path="url(#a)">
<g transform="translate(536.38 251.49) scale(.1 -.1)">
<use xlink:href="#c"/>
<use x="63.623047" xlink:href="#h"/>
<use x="95.410156" xlink:href="#c"/>
<use x="159.033203" xlink:href="#c"/>
</g>
</g>
<g clip-path="url(#a)">
<g transform="translate(523.4 521.71) scale(.1 -.1)">
<use xlink:href="#c"/>
<use x="63.623047" xlink:href="#h"/>
<use x="95.410156" xlink:href="#c"/>
<use x="159.033203" xlink:href="#m"/>
</g>
</g>
<g clip-path="url(#a)">
<g transform="translate(379.01 521.71) scale(.1 -.1)">
<use xlink:href="#c"/>
<use x="63.623047" xlink:href="#h"/>
<use x="95.410156" xlink:href="#c"/>
<use x="159.033203" xlink:href="#w"/>
</g>
</g>
<g clip-path="url(#a)">
<g transform="translate(427.14 521.71) scale(.1 -.1)">
<use xlink:href="#c"/>
<use x="63.623047" xlink:href="#h"/>
<use x="95.410156" xlink:href="#c"/>
<use x="159.033203" xlink:href="#af"/>
</g>
</g>
<g clip-path="url(#a)">
<g transform="translate(475.27 521.71) scale(.1 -.1)">
<use xlink:href="#c"/>
<use x="63.623047" xlink:href="#h"/>
<use x="95.410156" xlink:href="#c"/>
<use x="159.033203" xlink:href="#ae"/>
</g>
</g>
<g clip-path="url(#a)">
<g transform="translate(643.73 455.87) scale(.1 -.1)">
<use xlink:href="#c"/>
<use x="63.623047" xlink:href="#h"/>
<use x="95.410156" xlink:href="#c"/>
<use x="159.033203" xlink:href="#ad"/>
</g>
</g>
<g clip-path="url(#a)">
<g transform="translate(715.93 521.71) scale(.1 -.1)">
<use xlink:href="#c"/>
<use x="63.623047" xlink:href="#h"/>
<use x="95.410156" xlink:href="#c"/>
<use x="159.033203" xlink:href="#ac"/>
</g>
</g>
<g clip-path="url(#a)">
<g transform="translate(764.06 521.71) scale(.1 -.1)">
<use xlink:href="#c"/>
<use x="63.623047" xlink:href="#h"/>
<use x="95.410156" xlink:href="#c"/>
<use x="159.033203" xlink:href="#ab"/>
</g>
</g>
<g clip-path="url(#a)">
<g transform="translate(747.51 321.08) scale(.1 -.1)">
<use xlink:href="#c"/>
<use x="63.623047" xlink:href="#h"/>
<use x="95.410156" xlink:href="#c"/>
<use x="159.033203" xlink:href="#aa"/>
</g>
</g>
<g clip-path="url(#a)">
<g transform="translate(860.32 521.71) scale(.1 -.1)">
<use xlink:href="#c"/>
<use x="63.623047" xlink:href="#h"/>
<use x="95.410156" xlink:href="#m"/>
<use x="159.033203" xlink:href="#ag"/>
</g>
</g>
<g clip-path="url(#a)">
<g transform="translate(571.53 521.71) scale(.1 -.1)">
<use xlink:href="#c"/>
<use x="63.623047" xlink:href="#h"/>
<use x="95.410156" xlink:href="#m"/>
<use x="159.033203" xlink:href="#c"/>
</g>
</g>
<g clip-path="url(#a)">
<g transform="translate(619.66 521.71) scale(.1 -.1)">
<use xlink:href="#c"/>
<use x="63.623047" xlink:href="#h"/>
<use x="95.410156" xlink:href="#m"/>
<use x="159.033203" xlink:href="#m"/>
</g>
</g>
<g clip-path="url(#a)">
<g transform="translate(667.8 521.71) scale(.1 -.1)">
<use xlink:href="#c"/>
<use x="63.623047" xlink:href="#h"/>
<use x="95.410156" xlink:href="#m"/>
<use x="159.033203" xlink:href="#w"/>
</g>
</g>
<g clip-path="url(#a)">
<g transform="translate(812.19 521.71) scale(.1 -.1)">
<use xlink:href="#c"/>
<use x="63.623047" xlink:href="#h"/>
<use x="95.410156" xlink:href="#m"/>
<use x="159.033203" xlink:href="#af"/>
</g>
</g>
<g clip-path="url(#a)">
<g transform="translate(986.66 389.12) scale(.1 -.1)">
<use xlink:href="#c"/>
<use x="63.623047" xlink:href="#h"/>
<use x="95.410156" xlink:href="#m"/>
<use x="159.033203" xlink:href="#ae"/>
</g>
</g>
<g clip-path="url(#a)">
<g transform="translate(1052.8 521.71) scale(.1 -.1)">
<use xlink:href="#c"/>
<use x="63.623047" xlink:href="#h"/>
<use x="95.410156" xlink:href="#m"/>
<use x="159.033203" xlink:href="#ad"/>
</g>
</g>
<g clip-path="url(#a)">
<g transform="translate(908.45 521.71) scale(.1 -.1)">
<use xlink:href="#c"/>
<use x="63.623047" xlink:href="#h"/>
<use x="95.410156" xlink:href="#m"/>
<use x="159.033203" xlink:href="#ac"/>
</g>
</g>
<g clip-path="url(#a)">
<g transform="translate(956.58 521.71) scale(.1 -.1)">
<use xlink:href="#c"/>
<use x="63.623047" xlink:href="#h"/>
<use x="95.410156" xlink:href="#m"/>
<use x="159.033203" xlink:href="#ab"/>
</g>
</g>
<g clip-path="url(#a)">
<g transform="translate(1028.8 455.87) scale(.1 -.1)">
<use xlink:href="#c"/>
<use x="63.623047" xlink:href="#h"/>
<use x="95.410156" xlink:href="#m"/>
<use x="159.033203" xlink:href="#aa"/>
</g>
</g>
<g clip-path="url(#a)">
<g transform="translate(1004.7 521.71) scale(.1 -.1)">
<use xlink:href="#c"/>
<use x="63.623047" xlink:href="#h"/>
<use x="95.410156" xlink:href="#w"/>
<use x="159.033203" xlink:href="#ag"/>
</g>
</g>
<defs>
<clipPath id="a">
<rect width="1165.3" height="613.33"/>
</clipPath>
</defs>
</svg>
