<?xml version="1.0" encoding="UTF-8"?>
<!DOCTYPE svg  PUBLIC '-//W3C//DTD SVG 1.1//EN'  'http://www.w3.org/Graphics/SVG/1.1/DTD/svg11.dtd'>
<svg width="1621.3pt" height="853.33pt" version="1.1" viewBox="0 0 1621.3 853.33" xmlns="http://www.w3.org/2000/svg" xmlns:xlink="http://www.w3.org/1999/xlink">
<defs>
<style type="text/css">*{stroke-linecap:butt;stroke-linejoin:round;}</style>
</defs>
<path d="m0 853.33h1621.3v-853.33h-1621.3z" fill="#fff"/>
<g fill="none" stroke="#000">
<path d="m833.22 39.702-247.59 267.75" clip-path="url(#a)"/>
<path d="m833.22 39.702 24.981 523.8" clip-path="url(#a)"/>
<path d="m833.22 39.702 222.61 135.56" clip-path="url(#a)"/>
<path d="m585.63 307.45-321.61 381.12" clip-path="url(#a)"/>
<path d="m585.63 307.45-456.29 129.25" clip-path="url(#a)"/>
<path d="m585.63 307.45-274.08 381.12" clip-path="url(#a)"/>
<path d="m585.63 307.45-63.568 129.25" clip-path="url(#a)"/>
<path d="m585.63 307.45 153.73 381.12" clip-path="url(#a)"/>
<path d="m585.63 307.45 961.82 381.12" clip-path="url(#a)"/>
<path d="m264.02 688.57v125.07" clip-path="url(#a)"/>
<path d="m129.34 436.7-7.9224 251.87" clip-path="url(#a)"/>
<path d="m129.34 436.7-55.457 251.87" clip-path="url(#a)"/>
<path d="m129.34 436.7 63.38 126.8" clip-path="url(#a)"/>
<path d="m121.41 688.57v125.07" clip-path="url(#a)"/>
<path d="m311.55 688.57v125.07" clip-path="url(#a)"/>
<path d="m522.06 436.7 74.697 251.87" clip-path="url(#a)"/>
<path d="m522.06 436.7-162.98 251.87" clip-path="url(#a)"/>
<path d="m522.06 436.7-115.44 251.87" clip-path="url(#a)"/>
<path d="m522.06 436.7 3.3953 126.8" clip-path="url(#a)"/>
<path d="m522.06 436.7 27.163 126.8" clip-path="url(#a)"/>
<path d="m522.06 436.7 27.163 251.87" clip-path="url(#a)"/>
<path d="m522.06 436.7 146 126.8" clip-path="url(#a)"/>
<path d="m596.76 688.57v125.07" clip-path="url(#a)"/>
<path d="m739.36 688.57v125.07" clip-path="url(#a)"/>
<path d="m858.2 563.5 71.302 125.07" clip-path="url(#a)"/>
<path d="m858.2 563.5-71.302 125.07" clip-path="url(#a)"/>
<path d="m858.2 563.5-23.767 125.07" clip-path="url(#a)"/>
<path d="m858.2 563.5 23.767 125.07" clip-path="url(#a)"/>
<path d="m929.5 688.57v125.07" clip-path="url(#a)"/>
<path d="m1547.5 688.57v125.07" clip-path="url(#a)"/>
<path d="m73.88 688.57v125.07" clip-path="url(#a)"/>
<path d="m192.72 563.5 23.767 125.07" clip-path="url(#a)"/>
<path d="m192.72 563.5-23.767 125.07" clip-path="url(#a)"/>
<path d="m216.48 688.57v125.07" clip-path="url(#a)"/>
<path d="m359.09 688.57v125.07" clip-path="url(#a)"/>
<path d="m406.62 688.57v125.07" clip-path="url(#a)"/>
<path d="m525.46 563.5 71.302 125.07" clip-path="url(#a)" stroke-dasharray="3.7,1.6"/>
<path d="m525.46 563.5-71.302 125.07" clip-path="url(#a)"/>
<path d="m454.16 688.57v125.07" clip-path="url(#a)"/>
<path d="m549.23 563.5 47.535 125.07" clip-path="url(#a)" stroke-dasharray="3.7,1.6"/>
<path d="m549.23 563.5-47.535 125.07" clip-path="url(#a)"/>
<path d="m501.69 688.57v125.07" clip-path="url(#a)"/>
<path d="m549.23 688.57v125.07" clip-path="url(#a)"/>
<path d="m668.06 563.5 23.767 125.07" clip-path="url(#a)"/>
<path d="m668.06 563.5-23.767 125.07" clip-path="url(#a)"/>
<path d="m691.83 688.57v125.07" clip-path="url(#a)"/>
<path d="m786.9 688.57v125.07" clip-path="url(#a)"/>
<path d="m834.43 688.57v125.07" clip-path="url(#a)"/>
<path d="m881.97 688.57v125.07" clip-path="url(#a)"/>
<path d="m1055.8 175.26 16.281 513.31" clip-path="url(#a)"/>
<path d="m1055.8 175.26-78.789 513.31" clip-path="url(#a)"/>
<path d="m1055.8 175.26-31.254 513.31" clip-path="url(#a)"/>
<path d="m1055.8 175.26 93.762 132.19" clip-path="url(#a)"/>
<path d="m1072.1 688.57v125.07" clip-path="url(#a)"/>
<path d="m168.95 688.57v125.07" clip-path="url(#a)"/>
<path d="m644.3 688.57v125.07" clip-path="url(#a)"/>
<path d="m977.04 688.57v125.07" clip-path="url(#a)"/>
<path d="m1024.6 688.57v125.07" clip-path="url(#a)"/>
<path d="m1149.6 307.45-172.55 381.12" clip-path="url(#a)" stroke-dasharray="3.7,1.6"/>
<path d="m1149.6 307.45 17.588 381.12" clip-path="url(#a)"/>
<path d="m1149.6 307.45-29.947 381.12" clip-path="url(#a)"/>
<path d="m1149.6 307.45 65.122 381.12" clip-path="url(#a)"/>
<path d="m1149.6 307.45 119.79 129.25" clip-path="url(#a)"/>
<path d="m1167.2 688.57v125.07" clip-path="url(#a)"/>
<path d="m1119.6 688.57v125.07" clip-path="url(#a)"/>
<path d="m1214.7 688.57v125.07" clip-path="url(#a)"/>
<path d="m1269.4 436.7-292.34 251.87" clip-path="url(#a)" stroke-dasharray="3.7,1.6"/>
<path d="m1269.4 436.7-7.1302 251.87" clip-path="url(#a)"/>
<path d="m1269.4 436.7 40.404 251.87" clip-path="url(#a)"/>
<path d="m1269.4 436.7 87.939 251.87" clip-path="url(#a)"/>
<path d="m1269.4 436.7 171.12 126.8" clip-path="url(#a)"/>
<path d="m1262.2 688.57v125.07" clip-path="url(#a)"/>
<path d="m1309.8 688.57v125.07" clip-path="url(#a)"/>
<path d="m1357.3 688.57v125.07" clip-path="url(#a)"/>
<path d="m1440.5 563.5 35.651 125.07" clip-path="url(#a)"/>
<path d="m1440.5 563.5-35.651 125.07" clip-path="url(#a)"/>
<path d="m1476.2 688.57-23.767 125.07" clip-path="url(#a)"/>
<path d="m1476.2 688.57 23.767 125.07" clip-path="url(#a)"/>
<path d="m1404.8 688.57v125.07" clip-path="url(#a)"/>
</g>
<path d="m711.99 180.04 4.0846-4.4172q1.6294-1.7621-0.13268-3.3915l-5.6846-5.2566q-1.7621-1.6294-3.3915 0.13268l-4.0846 4.4172q-1.6294 1.7621 0.13268 3.3915l5.6846 5.2566q1.7621 1.6294 3.3915-0.13268z" clip-path="url(#a)" fill="#fff" stroke="#fff"/>
<g clip-path="url(#a)">
<defs>
<path id="ah" d="m9.8125 72.906h9.8594v-29.891h35.844v29.891h9.8594v-72.906h-9.8594v34.719h-35.844v-34.719h-9.8594z"/>
</defs>
<g transform="translate(709 177.28) rotate(-47.24) scale(.08 -.08)">
<use xlink:href="#ah"/>
</g>
</g>
<path d="m839.3 298.9 0.28661 6.0094q0.11433 2.3973 2.5116 2.2829l7.7337-0.36884q2.3973-0.11433 2.2829-2.5116l-0.28661-6.0094q-0.11433-2.3973-2.5116-2.2829l-7.7337 0.36884q-2.3973 0.11433-2.2829 2.5116z" clip-path="url(#a)" fill="#fff" stroke="#fff"/>
<g clip-path="url(#a)">
<g transform="translate(843.36 298.7) rotate(87.269) scale(.08 -.08)">
<use xlink:href="#ah"/>
</g>
</g>
<path d="m938.69 111.27 5.1385 3.1291q2.0498 1.2483 3.2981-0.80159l4.0269-6.6129q1.2483-2.0498-0.80159-3.2981l-5.1385-3.1291q-2.0498-1.2483-3.2981 0.80159l-4.0269 6.6129q-1.2483 2.0498 0.80159 3.2981z" clip-path="url(#a)" fill="#fff" stroke="#fff"/>
<g clip-path="url(#a)">
<g transform="translate(940.81 107.8) rotate(31.339) scale(.08 -.08)">
<use xlink:href="#ah"/>
</g>
</g>
<path d="m428.06 503.9 3.111-3.6865q1.5478-1.8342-0.28637-3.382l-5.9172-4.9933q-1.8342-1.5478-3.382 0.28637l-3.111 3.6865q-1.5478 1.8342 0.28637 3.382l5.9172 4.9933q1.8342 1.5478 3.382-0.28637z" clip-path="url(#a)" fill="#fff" stroke="#fff"/>
<g clip-path="url(#a)">
<defs>
<path id="t" d="m19.672 64.797v-27.391h12.406q6.8906 0 10.641 3.5625 3.7656 3.5625 3.7656 10.156 0 6.5469-3.7656 10.109-3.75 3.5625-10.641 3.5625zm-9.8594 8.1094h22.266q12.266 0 18.531-5.5469 6.2812-5.5469 6.2812-16.234 0-10.797-6.2812-16.312-6.2656-5.5156-18.531-5.5156h-12.406v-29.297h-9.8594z"/>
</defs>
<g transform="translate(424.96 501.28) rotate(-49.84) scale(.08 -.08)">
<use xlink:href="#t"/>
</g>
</g>
<path d="m356.56 378.85 5.2654-1.4914q2.3092-0.65407 1.6551-2.9632l-2.1101-7.4494q-0.65407-2.3092-2.9632-1.6551l-5.2654 1.4914q-2.3092 0.65407-1.6551 2.9632l2.1101 7.4494q0.65407 2.3092 2.9632 1.6551z" clip-path="url(#a)" fill="#fff" stroke="#fff"/>
<g clip-path="url(#a)">
<defs>
<path id="o" d="m34.188 63.188-13.391-36.281h26.812zm-5.5781 9.7188h11.188l27.781-72.906h-10.25l-6.6406 18.703h-32.859l-6.6406-18.703h-10.406z"/>
</defs>
<g transform="translate(355.45 374.94) rotate(-15.815) scale(.08 -.08)">
<use xlink:href="#o"/>
</g>
</g>
<path d="m452.09 503.89 3.1951-4.4429q1.4012-1.9485-0.54724-3.3497l-6.2858-4.5204q-1.9485-1.4012-3.3497 0.54724l-3.1951 4.4429q-1.4012 1.9485 0.54724 3.3497l6.2858 4.5204q1.9485 1.4012 3.3497-0.54724z" clip-path="url(#a)" fill="#fff" stroke="#fff"/>
<g clip-path="url(#a)">
<g transform="translate(448.79 501.52) rotate(-54.278) scale(.08 -.08)">
<use xlink:href="#o"/>
</g>
</g>
<path d="m558.27 377.3 2.4153-4.9107q1.0592-2.1536-1.0944-3.2128l-6.9476-3.4171q-2.1536-1.0592-3.2128 1.0944l-2.4153 4.9107q-1.0592 2.1536 1.0944 3.2128l6.9476 3.4171q2.1536 1.0592 3.2128-1.0944z" clip-path="url(#a)" fill="#fff" stroke="#fff"/>
<g clip-path="url(#a)">
<g transform="translate(554.62 375.5) rotate(-63.81) scale(.08 -.08)">
<use xlink:href="#o"/>
</g>
</g>
<path d="m655.59 497.64 2.1903 5.4299q0.89781 2.2257 3.1236 1.3279l7.1803-2.8964q2.2257-0.89781 1.3279-3.1236l-2.1903-5.4299q-0.89781-2.2257-3.1236-1.3279l-7.1803 2.8964q-2.2257 0.89781-1.3279 3.1236z" clip-path="url(#a)" fill="#fff" stroke="#fff"/>
<g clip-path="url(#a)">
<defs>
<path id="al" d="m8.6875 72.906h9.9219v-44.297q0-11.719 4.2344-16.875 4.25-5.1406 13.781-5.1406 9.4688 0 13.719 5.1406 4.25 5.1562 4.25 16.875v44.297h9.9062v-45.516q0-14.25-7.0625-21.531-7.0469-7.2812-20.812-7.2812-13.828 0-20.891 7.2812-7.0469 7.2812-7.0469 21.531z"/>
</defs>
<g transform="translate(659.36 496.12) rotate(68.032) scale(.08 -.08)">
<use xlink:href="#al"/>
</g>
</g>
<path d="m1061.5 502.76 5.4433 2.1569q2.2312 0.88411 3.1153-1.3471l2.8522-7.198q0.88411-2.2312-1.3471-3.1153l-5.4433-2.1569q-2.2312-0.88411-3.1153 1.3471l-2.8522 7.198q-0.88411 2.2312 1.3471 3.1153z" clip-path="url(#a)" fill="#fff" stroke="#fff"/>
<g clip-path="url(#a)">
<g transform="translate(1063 498.98) rotate(21.616) scale(.08 -.08)">
<use xlink:href="#al"/>
</g>
</g>
<path d="m257.75 733.46v35.285q0 2.4 2.4 2.4h7.7425q2.4 0 2.4-2.4v-35.285q0-2.4-2.4-2.4h-7.7425q-2.4 0-2.4 2.4z" clip-path="url(#a)" fill="#fff" stroke="#fff"/>
<g clip-path="url(#a)">
<defs>
<path id="l" d="m-0.29688 72.906h61.672v-8.3125h-25.875v-64.594h-9.9062v64.594h-25.891z"/>
<path id="e" d="m56.203 29.594v-4.3906h-41.312q0.59375-9.2812 5.5938-14.141t13.938-4.8594q5.1719 0 10.031 1.2656t9.6562 3.8125v-8.5q-4.8438-2.0469-9.9219-3.125t-10.297-1.0781q-13.094 0-20.734 7.6094-7.6406 7.625-7.6406 20.625 0 13.422 7.25 21.297 7.25 7.8906 19.562 7.8906 11.031 0 17.453-7.1094 6.4219-7.0938 6.4219-19.297zm-8.9844 2.6406q-0.09375 7.3594-4.125 11.75-4.0312 4.4062-10.672 4.4062-7.5156 0-12.031-4.25t-5.2031-11.969z"/>
<path id="j" d="m41.109 46.297q-1.5156 0.875-3.2969 1.2812-1.7812 0.42188-3.9219 0.42188-7.625 0-11.703-4.9531t-4.0781-14.234v-28.812h-9.0312v54.688h9.0312v-8.5q2.8438 4.9844 7.375 7.3906 4.5469 2.4219 11.047 2.4219 0.92188 0 2.0469-0.125 1.125-0.10938 2.4844-0.35938z"/>
<path id="k" d="m52 44.188q3.375 6.0625 8.0625 8.9375t11.031 2.875q8.5469 0 13.188-5.9844 4.6406-5.9688 4.6406-17v-33.016h-9.0312v32.719q0 7.8594-2.7969 11.656-2.7812 3.8125-8.4844 3.8125-6.9844 0-11.047-4.6406-4.0469-4.625-4.0469-12.641v-30.906h-9.0312v32.719q0 7.9062-2.7812 11.688t-8.5938 3.7812q-6.8906 0-10.953-4.6562-4.0469-4.6562-4.0469-12.625v-30.906h-9.0312v54.688h9.0312v-8.5q3.0781 5.0312 7.375 7.4219t10.203 2.3906q5.9688 0 10.141-3.0312 4.1719-3.0156 6.1719-8.7812z"/>
<path id="h" d="m9.4219 54.688h8.9844v-54.688h-8.9844zm0 21.297h8.9844v-11.391h-8.9844z"/>
<path id="g" d="m54.891 33.016v-33.016h-8.9844v32.719q0 7.7656-3.0312 11.609-3.0312 3.8594-9.0781 3.8594-7.2812 0-11.484-4.6406-4.2031-4.625-4.2031-12.641v-30.906h-9.0312v54.688h9.0312v-8.5q3.2344 4.9375 7.5938 7.375 4.375 2.4375 10.094 2.4375 9.4219 0 14.25-5.8281 4.8438-5.8281 4.8438-17.156z"/>
<path id="f" d="m34.281 27.484q-10.891 0-15.094-2.4844t-4.2031-8.5q0-4.7812 3.1562-7.5938 3.1562-2.7969 8.5625-2.7969 7.4844 0 12 5.2969t4.5156 14.078v2zm17.922 3.7188v-31.203h-8.9844v8.2969q-3.0781-4.9688-7.6719-7.3438t-11.234-2.375q-8.3906 0-13.359 4.7188-4.9531 4.7188-4.9531 12.625 0 9.2188 6.1719 13.906 6.1875 4.6875 18.438 4.6875h12.609v0.89062q0 6.2031-4.0781 9.5938t-11.453 3.3906q-4.6875 0-9.1406-1.125-4.4375-1.125-8.5312-3.375v8.3125q4.9219 1.9062 9.5625 2.8438 4.6406 0.95312 9.0312 0.95312 11.875 0 17.734-6.1562 5.8594-6.1406 5.8594-18.641z"/>
<path id="i" d="m9.4219 75.984h8.9844v-75.984h-8.9844z"/>
</defs>
<g transform="translate(261.81 733.46) rotate(90) scale(.08 -.08)">
<use xlink:href="#l"/>
<use x="60.818359" xlink:href="#e"/>
<use x="122.341797" xlink:href="#j"/>
<use x="163.439453" xlink:href="#k"/>
<use x="260.851562" xlink:href="#h"/>
<use x="288.634766" xlink:href="#g"/>
<use x="352.013672" xlink:href="#f"/>
<use x="413.292969" xlink:href="#i"/>
</g>
</g>
<path d="m131.57 565.24 0.15165-4.8214q0.075453-2.3988-2.3234-2.4743l-7.7387-0.24342q-2.3988-0.075453-2.4743 2.3234l-0.15165 4.8214q-0.075453 2.3988 2.3234 2.4743l7.7387 0.24342q2.3988 0.075453 2.4743-2.3234z" clip-path="url(#a)" fill="#fff" stroke="#fff"/>
<g clip-path="url(#a)">
<g transform="translate(127.51 565.11) rotate(-88.198) scale(.08 -.08)">
<use xlink:href="#t"/>
</g>
</g>
<path d="m107.14 566.65 1.1768-5.3445q0.51607-2.3439-1.8278-2.8599l-7.5614-1.6649q-2.3439-0.51607-2.8599 1.8278l-1.1768 5.3445q-0.51607 2.3439 1.8278 2.8599l7.5614 1.6649q2.3439 0.51607 2.8599-1.8278z" clip-path="url(#a)" fill="#fff" stroke="#fff"/>
<g clip-path="url(#a)">
<g transform="translate(103.18 565.78) rotate(-77.583) scale(.08 -.08)">
<use xlink:href="#o"/>
</g>
</g>
<path d="m154.04 500.15 2.754 5.5101q1.073 2.1468 3.2198 1.0738l6.9256-3.4615q2.1468-1.073 1.0738-3.2198l-2.754-5.5101q-1.073-2.1468-3.2198-1.0738l-6.9256 3.4615q-2.1468 1.073-1.0738 3.2198z" clip-path="url(#a)" fill="#fff" stroke="#fff"/>
<g clip-path="url(#a)">
<defs>
<path id="aj" d="m19.672 64.797v-56.688h11.922q15.094 0 22.094 6.8281 7 6.8438 7 21.594 0 14.641-7 21.453t-22.094 6.8125zm-9.8594 8.1094h20.266q21.188 0 31.094-8.8125 9.9219-8.8125 9.9219-27.562 0-18.859-9.9688-27.703-9.9531-8.8281-31.047-8.8281h-20.266z"/>
</defs>
<g transform="translate(157.68 498.33) rotate(63.443) scale(.08 -.08)">
<use xlink:href="#aj"/>
</g>
</g>
<path d="m115.14 733.46v35.285q0 2.4 2.4 2.4h7.7425q2.4 0 2.4-2.4v-35.285q0-2.4-2.4-2.4h-7.7425q-2.4 0-2.4 2.4z" clip-path="url(#a)" fill="#fff" stroke="#fff"/>
<g clip-path="url(#a)">
<g transform="translate(119.21 733.46) rotate(90) scale(.08 -.08)">
<use xlink:href="#l"/>
<use x="60.818359" xlink:href="#e"/>
<use x="122.341797" xlink:href="#j"/>
<use x="163.439453" xlink:href="#k"/>
<use x="260.851562" xlink:href="#h"/>
<use x="288.634766" xlink:href="#g"/>
<use x="352.013672" xlink:href="#f"/>
<use x="413.292969" xlink:href="#i"/>
</g>
</g>
<path d="m305.28 733.46v35.285q0 2.4 2.4 2.4h7.7425q2.4 0 2.4-2.4v-35.285q0-2.4-2.4-2.4h-7.7425q-2.4 0-2.4 2.4z" clip-path="url(#a)" fill="#fff" stroke="#fff"/>
<g clip-path="url(#a)">
<g transform="translate(309.35 733.46) rotate(90) scale(.08 -.08)">
<use xlink:href="#l"/>
<use x="60.818359" xlink:href="#e"/>
<use x="122.341797" xlink:href="#j"/>
<use x="163.439453" xlink:href="#k"/>
<use x="260.851562" xlink:href="#h"/>
<use x="288.634766" xlink:href="#g"/>
<use x="352.013672" xlink:href="#f"/>
<use x="413.292969" xlink:href="#i"/>
</g>
</g>
<path d="m552.61 561.74 1.5883 5.3557q0.68239 2.3009 2.9833 1.6186l7.4229-2.2014q2.3009-0.68239 1.6186-2.9833l-1.5883-5.3557q-0.68239-2.3009-2.9833-1.6186l-7.4229 2.2014q-2.3009 0.68239-1.6186 2.9833z" clip-path="url(#a)" fill="#fff" stroke="#fff"/>
<g clip-path="url(#a)">
<defs>
<path id="x" d="m64.406 67.281v-10.391q-4.9844 4.6406-10.625 6.9219-5.6406 2.2969-11.984 2.2969-12.5 0-19.141-7.6406t-6.6406-22.094q0-14.406 6.6406-22.047t19.141-7.6406q6.3438 0 11.984 2.2969t10.625 6.9375v-10.312q-5.1719-3.5156-10.969-5.2812-5.7812-1.75-12.219-1.75-16.562 0-26.094 10.125-9.5156 10.141-9.5156 27.672 0 17.578 9.5156 27.703 9.5312 10.141 26.094 10.141 6.5312 0 12.312-1.7344 5.7969-1.7344 10.875-5.2031z"/>
</defs>
<g transform="translate(556.5 560.58) rotate(73.481) scale(.08 -.08)">
<use xlink:href="#x"/>
</g>
</g>
<path d="m444.33 568.37 3.0198-4.667q1.3038-2.015-0.71116-3.3188l-6.5004-4.2061q-2.015-1.3038-3.3188 0.71115l-3.0198 4.667q-1.3038 2.015 0.71115 3.3188l6.5004 4.2061q2.015 1.3038 3.3188-0.71116z" clip-path="url(#a)" fill="#fff" stroke="#fff"/>
<g clip-path="url(#a)">
<defs>
<path id="w" d="m44.391 34.188q3.1719-1.0781 6.1719-4.5938t6.0312-9.6719l10.016-19.922h-10.609l-9.3125 18.703q-3.625 7.3281-7.0156 9.7188t-9.25 2.3906h-10.75v-30.812h-9.8594v72.906h22.266q12.5 0 18.656-5.2344 6.1562-5.2188 6.1562-15.766 0-6.8906-3.2031-11.438-3.2031-4.5312-9.2969-6.2812zm-24.719 30.609v-25.875h12.406q7.125 0 10.766 3.2969t3.6406 9.6875-3.6406 9.6406-10.766 3.25z"/>
</defs>
<g transform="translate(440.92 566.16) rotate(-57.095) scale(.08 -.08)">
<use xlink:href="#w"/>
</g>
</g>
<path d="m469.09 567.34 1.9171-4.1828q0.99998-2.1818-1.1818-3.1817l-7.0384-3.226q-2.1818-0.99998-3.1817 1.1818l-1.9171 4.1828q-0.99998 2.1818 1.1818 3.1817l7.0384 3.226q2.1818 0.99998 3.1817-1.1818z" clip-path="url(#a)" fill="#fff" stroke="#fff"/>
<g clip-path="url(#a)">
<defs>
<path id="ai" d="m9.8125 72.906h41.891v-8.3125h-32.031v-21.484h28.906v-8.2969h-28.906v-34.812h-9.8594z"/>
</defs>
<g transform="translate(465.39 565.64) rotate(-65.376) scale(.08 -.08)">
<use xlink:href="#ai"/>
</g>
</g>
<path d="m517.42 497.74 0.1353 5.0532q0.064239 2.3991 2.4634 2.3349l7.7397-0.20724q2.3991-0.064239 2.3349-2.4634l-0.1353-5.0532q-0.064239-2.3991-2.4634-2.3349l-7.7397 0.20724q-2.3991 0.06424-2.3349 2.4634z" clip-path="url(#a)" fill="#fff" stroke="#fff"/>
<g clip-path="url(#a)">
<defs>
<path id="u" d="m9.8125 72.906h46.094v-8.3125h-36.234v-21.578h34.719v-8.2969h-34.719v-26.422h37.109v-8.2969h-46.969z"/>
</defs>
<g transform="translate(521.49 497.63) rotate(88.466) scale(.08 -.08)">
<use xlink:href="#u"/>
</g>
</g>
<path d="m528.98 498.94 1.0588 4.9429q0.5027 2.3468 2.8495 1.8441l7.5708-1.6217q2.3468-0.5027 1.8441-2.8495l-1.0588-4.9429q-0.5027-2.3468-2.8495-1.8441l-7.5708 1.6217q-2.3468 0.5027-1.8441 2.8495z" clip-path="url(#a)" fill="#fff" stroke="#fff"/>
<g clip-path="url(#a)">
<g transform="translate(532.96 498.09) rotate(77.909) scale(.08 -.08)">
<use xlink:href="#u"/>
</g>
</g>
<path d="m529.14 560.79 0.54201 5.0259q0.25733 2.3862 2.6435 2.1288l7.6979-0.83017q2.3862-0.25733 2.1288-2.6435l-0.54201-5.0259q-0.25733-2.3862-2.6435-2.1288l-7.6979 0.83017q-2.3862 0.25733-2.1288 2.6435z" clip-path="url(#a)" fill="#fff" stroke="#fff"/>
<g clip-path="url(#a)">
<g transform="translate(533.18 560.36) rotate(83.845) scale(.08 -.08)">
<use xlink:href="#u"/>
</g>
</g>
<path d="m589.04 503.18 3.8165 3.3147q1.812 1.5738 3.3857-0.23822l5.077-5.8455q1.5738-1.812-0.23822-3.3857l-3.8165-3.3147q-1.812-1.5738-3.3857 0.23822l-5.077 5.8455q-1.5738 1.812 0.23822 3.3857z" clip-path="url(#a)" fill="#fff" stroke="#fff"/>
<g clip-path="url(#a)">
<g transform="translate(591.71 500.11) rotate(40.975) scale(.08 -.08)">
<use xlink:href="#u"/>
</g>
</g>
<path d="m590.49 733.46v35.285q0 2.4 2.4 2.4h7.7425q2.4 0 2.4-2.4v-35.285q0-2.4-2.4-2.4h-7.7425q-2.4 0-2.4 2.4z" clip-path="url(#a)" fill="#fff" stroke="#fff"/>
<g clip-path="url(#a)">
<g transform="translate(594.55 733.46) rotate(90) scale(.08 -.08)">
<use xlink:href="#l"/>
<use x="60.818359" xlink:href="#e"/>
<use x="122.341797" xlink:href="#j"/>
<use x="163.439453" xlink:href="#k"/>
<use x="260.851562" xlink:href="#h"/>
<use x="288.634766" xlink:href="#g"/>
<use x="352.013672" xlink:href="#f"/>
<use x="413.292969" xlink:href="#i"/>
</g>
</g>
<path d="m733.09 733.46v35.285q0 2.4 2.4 2.4h7.7425q2.4 0 2.4-2.4v-35.285q0-2.4-2.4-2.4h-7.7425q-2.4 0-2.4 2.4z" clip-path="url(#a)" fill="#fff" stroke="#fff"/>
<g clip-path="url(#a)">
<g transform="translate(737.16 733.46) rotate(90) scale(.08 -.08)">
<use xlink:href="#l"/>
<use x="60.818359" xlink:href="#e"/>
<use x="122.341797" xlink:href="#j"/>
<use x="163.439453" xlink:href="#k"/>
<use x="260.851562" xlink:href="#h"/>
<use x="288.634766" xlink:href="#g"/>
<use x="352.013672" xlink:href="#f"/>
<use x="413.292969" xlink:href="#i"/>
</g>
</g>
<path d="m887.15 626.93 2.5154 4.4121q1.1887 2.085 3.2736 0.89628l6.7262-3.8347q2.085-1.1887 0.89628-3.2736l-2.5154-4.4121q-1.1887-2.085-3.2736-0.89628l-6.7262 3.8347q-2.085 1.1887-0.89628 3.2736z" clip-path="url(#a)" fill="#fff" stroke="#fff"/>
<g clip-path="url(#a)">
<defs>
<path id="ag" d="m53.516 70.516v-9.625q-5.6094 2.6875-10.594 4-4.9844 1.3281-9.625 1.3281-8.0469 0-12.422-3.125t-4.375-8.8906q0-4.8438 2.9062-7.3125 2.9062-2.4531 11.016-3.9688l5.9531-1.2188q11.031-2.1094 16.281-7.4062t5.25-14.172q0-10.609-7.1094-16.078-7.0938-5.4688-20.812-5.4688-5.1719 0-11.016 1.1719-5.8281 1.1719-12.078 3.4688v10.156q6-3.3594 11.766-5.0781 5.7656-1.7031 11.328-1.7031 8.4375 0 13.031 3.3125 4.5938 3.3281 4.5938 9.4844 0 5.3594-3.2969 8.3906t-10.812 4.5469l-6.0156 1.1719q-11.031 2.1875-15.969 6.875-4.9219 4.6875-4.9219 13.047 0 9.6719 6.8125 15.234t18.766 5.5625q5.1406 0 10.453-0.9375 5.3281-0.92188 10.891-2.7656z"/>
</defs>
<g transform="translate(890.68 624.92) rotate(60.312) scale(.08 -.08)">
<use xlink:href="#ag"/>
</g>
</g>
<path d="m826.64 631.52 2.7104-4.7541q1.1887-2.085-0.89628-3.2736l-6.7262-3.8347q-2.085-1.1887-3.2736 0.89629l-2.7104 4.7541q-1.1887 2.085 0.89628 3.2736l6.7262 3.8347q2.085 1.1887 3.2736-0.89628z" clip-path="url(#a)" fill="#fff" stroke="#fff"/>
<g clip-path="url(#a)">
<g transform="translate(823.11 629.5) rotate(-60.312) scale(.08 -.08)">
<use xlink:href="#o"/>
</g>
</g>
<path d="m852.05 629.46 0.85904-4.5203q0.44808-2.3578-1.9097-2.8059l-7.6064-1.4455q-2.3578-0.44808-2.8059 1.9097l-0.85904 4.5203q-0.44808 2.3578 1.9097 2.8059l7.6064 1.4455q2.3578 0.44808 2.8059-1.9097z" clip-path="url(#a)" fill="#fff" stroke="#fff"/>
<g clip-path="url(#a)">
<g transform="translate(848.06 628.71) rotate(-79.24) scale(.08 -.08)">
<use xlink:href="#ai"/>
</g>
</g>
<path d="m863.35 624.18 1.1501 6.0517q0.44808 2.3578 2.8059 1.9097l7.6064-1.4455q2.3578-0.44808 1.9097-2.8059l-1.1501-6.0517q-0.44808-2.3578-2.8059-1.9097l-7.6064 1.4455q-2.3578 0.44808-1.9097 2.8059z" clip-path="url(#a)" fill="#fff" stroke="#fff"/>
<g clip-path="url(#a)">
<g transform="translate(867.34 623.42) rotate(79.24) scale(.08 -.08)">
<use xlink:href="#aj"/>
</g>
</g>
<path d="m923.23 733.46v35.285q0 2.4 2.4 2.4h7.7425q2.4 0 2.4-2.4v-35.285q0-2.4-2.4-2.4h-7.7425q-2.4 0-2.4 2.4z" clip-path="url(#a)" fill="#fff" stroke="#fff"/>
<g clip-path="url(#a)">
<g transform="translate(927.3 733.46) rotate(90) scale(.08 -.08)">
<use xlink:href="#l"/>
<use x="60.818359" xlink:href="#e"/>
<use x="122.341797" xlink:href="#j"/>
<use x="163.439453" xlink:href="#k"/>
<use x="260.851562" xlink:href="#h"/>
<use x="288.634766" xlink:href="#g"/>
<use x="352.013672" xlink:href="#f"/>
<use x="413.292969" xlink:href="#i"/>
</g>
</g>
<path d="m1541.2 733.46v35.285q0 2.4 2.4 2.4h7.7425q2.4 0 2.4-2.4v-35.285q0-2.4-2.4-2.4h-7.7425q-2.4 0-2.4 2.4z" clip-path="url(#a)" fill="#fff" stroke="#fff"/>
<g clip-path="url(#a)">
<g transform="translate(1545.2 733.46) rotate(90) scale(.08 -.08)">
<use xlink:href="#l"/>
<use x="60.818359" xlink:href="#e"/>
<use x="122.341797" xlink:href="#j"/>
<use x="163.439453" xlink:href="#k"/>
<use x="260.851562" xlink:href="#h"/>
<use x="288.634766" xlink:href="#g"/>
<use x="352.013672" xlink:href="#f"/>
<use x="413.292969" xlink:href="#i"/>
</g>
</g>
<path d="m67.609 733.46v35.285q0 2.4 2.4 2.4h7.7425q2.4 0 2.4-2.4v-35.285q0-2.4-2.4-2.4h-7.7425q-2.4 0-2.4 2.4z" clip-path="url(#a)" fill="#fff" stroke="#fff"/>
<g clip-path="url(#a)">
<g transform="translate(71.672 733.46) rotate(90) scale(.08 -.08)">
<use xlink:href="#l"/>
<use x="60.818359" xlink:href="#e"/>
<use x="122.341797" xlink:href="#j"/>
<use x="163.439453" xlink:href="#k"/>
<use x="260.851562" xlink:href="#h"/>
<use x="288.634766" xlink:href="#g"/>
<use x="352.013672" xlink:href="#f"/>
<use x="413.292969" xlink:href="#i"/>
</g>
</g>
<path d="m197.92 624.46 1.0429 5.488q0.44808 2.3578 2.8059 1.9097l7.6064-1.4455q2.3578-0.44808 1.9097-2.8059l-1.0429-5.488q-0.44808-2.3578-2.8059-1.9097l-7.6064 1.4455q-2.3578 0.44808-1.9097 2.8059z" clip-path="url(#a)" fill="#fff" stroke="#fff"/>
<g clip-path="url(#a)">
<g transform="translate(201.91 623.7) rotate(79.24) scale(.08 -.08)">
<use xlink:href="#x"/>
</g>
</g>
<path d="m186.47 629.94 1.0378-5.461q0.44808-2.3578-1.9097-2.8059l-7.6064-1.4455q-2.3578-0.44808-2.8059 1.9097l-1.0378 5.461q-0.44808 2.3578 1.9097 2.8059l7.6064 1.4455q2.3578 0.44808 2.8059-1.9097z" clip-path="url(#a)" fill="#fff" stroke="#fff"/>
<g clip-path="url(#a)">
<g transform="translate(182.48 629.18) rotate(-79.24) scale(.08 -.08)">
<use xlink:href="#w"/>
</g>
</g>
<path d="m210.21 733.46v35.285q0 2.4 2.4 2.4h7.7425q2.4 0 2.4-2.4v-35.285q0-2.4-2.4-2.4h-7.7425q-2.4 0-2.4 2.4z" clip-path="url(#a)" fill="#fff" stroke="#fff"/>
<g clip-path="url(#a)">
<g transform="translate(214.28 733.46) rotate(90) scale(.08 -.08)">
<use xlink:href="#l"/>
<use x="60.818359" xlink:href="#e"/>
<use x="122.341797" xlink:href="#j"/>
<use x="163.439453" xlink:href="#k"/>
<use x="260.851562" xlink:href="#h"/>
<use x="288.634766" xlink:href="#g"/>
<use x="352.013672" xlink:href="#f"/>
<use x="413.292969" xlink:href="#i"/>
</g>
</g>
<path d="m352.82 733.46v35.285q0 2.4 2.4 2.4h7.7425q2.4 0 2.4-2.4v-35.285q0-2.4-2.4-2.4h-7.7425q-2.4 0-2.4 2.4z" clip-path="url(#a)" fill="#fff" stroke="#fff"/>
<g clip-path="url(#a)">
<g transform="translate(356.88 733.46) rotate(90) scale(.08 -.08)">
<use xlink:href="#l"/>
<use x="60.818359" xlink:href="#e"/>
<use x="122.341797" xlink:href="#j"/>
<use x="163.439453" xlink:href="#k"/>
<use x="260.851562" xlink:href="#h"/>
<use x="288.634766" xlink:href="#g"/>
<use x="352.013672" xlink:href="#f"/>
<use x="413.292969" xlink:href="#i"/>
</g>
</g>
<path d="m400.35 733.46v35.285q0 2.4 2.4 2.4h7.7425q2.4 0 2.4-2.4v-35.285q0-2.4-2.4-2.4h-7.7425q-2.4 0-2.4 2.4z" clip-path="url(#a)" fill="#fff" stroke="#fff"/>
<g clip-path="url(#a)">
<g transform="translate(404.41 733.46) rotate(90) scale(.08 -.08)">
<use xlink:href="#l"/>
<use x="60.818359" xlink:href="#e"/>
<use x="122.341797" xlink:href="#j"/>
<use x="163.439453" xlink:href="#k"/>
<use x="260.851562" xlink:href="#h"/>
<use x="288.634766" xlink:href="#g"/>
<use x="352.013672" xlink:href="#f"/>
<use x="413.292969" xlink:href="#i"/>
</g>
</g>
<path d="m554.31 626.76 2.7104 4.7541q1.1887 2.085 3.2736 0.89628l6.7262-3.8347q2.085-1.1887 0.89629-3.2736l-2.7104-4.7541q-1.1887-2.085-3.2736-0.89629l-6.7262 3.8347q-2.085 1.1887-0.89629 3.2736z" clip-path="url(#a)" fill="#fff" stroke="#fff"/>
<g clip-path="url(#a)">
<g transform="translate(557.84 624.75) rotate(60.312) scale(.08 -.08)">
<use xlink:href="#o"/>
</g>
</g>
<path d="m494 631.35 2.5154-4.4121q1.1887-2.085-0.89628-3.2736l-6.7262-3.8347q-2.085-1.1887-3.2736 0.89628l-2.5154 4.4121q-1.1887 2.085 0.89628 3.2736l6.7262 3.8347q2.085 1.1887 3.2736-0.89628z" clip-path="url(#a)" fill="#fff" stroke="#fff"/>
<g clip-path="url(#a)">
<g transform="translate(490.47 629.33) rotate(-60.312) scale(.08 -.08)">
<use xlink:href="#ag"/>
</g>
</g>
<path d="m447.89 733.46v35.285q0 2.4 2.4 2.4h7.7425q2.4 0 2.4-2.4v-35.285q0-2.4-2.4-2.4h-7.7425q-2.4 0-2.4 2.4z" clip-path="url(#a)" fill="#fff" stroke="#fff"/>
<g clip-path="url(#a)">
<g transform="translate(451.95 733.46) rotate(90) scale(.08 -.08)">
<use xlink:href="#l"/>
<use x="60.818359" xlink:href="#e"/>
<use x="122.341797" xlink:href="#j"/>
<use x="163.439453" xlink:href="#k"/>
<use x="260.851562" xlink:href="#h"/>
<use x="288.634766" xlink:href="#g"/>
<use x="352.013672" xlink:href="#f"/>
<use x="413.292969" xlink:href="#i"/>
</g>
</g>
<path d="m566.16 625.7 1.9443 5.1155q0.85268 2.2434 3.0961 1.3907l7.2374-2.7508q2.2434-0.85268 1.3907-3.0961l-1.9443-5.1155q-0.85268-2.2434-3.0961-1.3907l-7.2374 2.7508q-2.2434 0.85268-1.3907 3.0961z" clip-path="url(#a)" fill="#fff" stroke="#fff"/>
<g clip-path="url(#a)">
<g transform="translate(569.96 624.26) rotate(69.189) scale(.08 -.08)">
<use xlink:href="#o"/>
</g>
</g>
<path d="m530.42 630.64 1.8044-4.7474q0.85268-2.2434-1.3907-3.0961l-7.2374-2.7508q-2.2434-0.85268-3.0961 1.3907l-1.8044 4.7474q-0.85268 2.2434 1.3907 3.0961l7.2374 2.7508q2.2434 0.85268 3.0961-1.3907z" clip-path="url(#a)" fill="#fff" stroke="#fff"/>
<g clip-path="url(#a)">
<g transform="translate(526.62 629.19) rotate(-69.189) scale(.08 -.08)">
<use xlink:href="#ag"/>
</g>
</g>
<path d="m495.42 733.46v35.285q0 2.4 2.4 2.4h7.7425q2.4 0 2.4-2.4v-35.285q0-2.4-2.4-2.4h-7.7425q-2.4 0-2.4 2.4z" clip-path="url(#a)" fill="#fff" stroke="#fff"/>
<g clip-path="url(#a)">
<g transform="translate(499.48 733.46) rotate(90) scale(.08 -.08)">
<use xlink:href="#l"/>
<use x="60.818359" xlink:href="#e"/>
<use x="122.341797" xlink:href="#j"/>
<use x="163.439453" xlink:href="#k"/>
<use x="260.851562" xlink:href="#h"/>
<use x="288.634766" xlink:href="#g"/>
<use x="352.013672" xlink:href="#f"/>
<use x="413.292969" xlink:href="#i"/>
</g>
</g>
<path d="m542.95 733.46v35.285q0 2.4 2.4 2.4h7.7425q2.4 0 2.4-2.4v-35.285q0-2.4-2.4-2.4h-7.7425q-2.4 0-2.4 2.4z" clip-path="url(#a)" fill="#fff" stroke="#fff"/>
<g clip-path="url(#a)">
<g transform="translate(547.02 733.46) rotate(90) scale(.08 -.08)">
<use xlink:href="#l"/>
<use x="60.818359" xlink:href="#e"/>
<use x="122.341797" xlink:href="#j"/>
<use x="163.439453" xlink:href="#k"/>
<use x="260.851562" xlink:href="#h"/>
<use x="288.634766" xlink:href="#g"/>
<use x="352.013672" xlink:href="#f"/>
<use x="413.292969" xlink:href="#i"/>
</g>
</g>
<path d="m673.26 624.46 1.0429 5.488q0.44808 2.3578 2.8059 1.9097l7.6064-1.4455q2.3578-0.44808 1.9097-2.8059l-1.0429-5.488q-0.44808-2.3578-2.8059-1.9097l-7.6064 1.4455q-2.3578 0.44808-1.9097 2.8059z" clip-path="url(#a)" fill="#fff" stroke="#fff"/>
<g clip-path="url(#a)">
<g transform="translate(677.26 623.7) rotate(79.24) scale(.08 -.08)">
<use xlink:href="#x"/>
</g>
</g>
<path d="m661.82 629.94 1.0378-5.461q0.44808-2.3578-1.9097-2.8059l-7.6064-1.4455q-2.3578-0.44808-2.8059 1.9097l-1.0378 5.461q-0.44808 2.3578 1.9097 2.8059l7.6064 1.4455q2.3578 0.44808 2.8059-1.9097z" clip-path="url(#a)" fill="#fff" stroke="#fff"/>
<g clip-path="url(#a)">
<g transform="translate(657.83 629.18) rotate(-79.24) scale(.08 -.08)">
<use xlink:href="#w"/>
</g>
</g>
<path d="m685.56 733.46v35.285q0 2.4 2.4 2.4h7.7425q2.4 0 2.4-2.4v-35.285q0-2.4-2.4-2.4h-7.7425q-2.4 0-2.4 2.4z" clip-path="url(#a)" fill="#fff" stroke="#fff"/>
<g clip-path="url(#a)">
<g transform="translate(689.62 733.46) rotate(90) scale(.08 -.08)">
<use xlink:href="#l"/>
<use x="60.818359" xlink:href="#e"/>
<use x="122.341797" xlink:href="#j"/>
<use x="163.439453" xlink:href="#k"/>
<use x="260.851562" xlink:href="#h"/>
<use x="288.634766" xlink:href="#g"/>
<use x="352.013672" xlink:href="#f"/>
<use x="413.292969" xlink:href="#i"/>
</g>
</g>
<path d="m780.63 733.46v35.285q0 2.4 2.4 2.4h7.7425q2.4 0 2.4-2.4v-35.285q0-2.4-2.4-2.4h-7.7425q-2.4 0-2.4 2.4z" clip-path="url(#a)" fill="#fff" stroke="#fff"/>
<g clip-path="url(#a)">
<g transform="translate(784.69 733.46) rotate(90) scale(.08 -.08)">
<use xlink:href="#l"/>
<use x="60.818359" xlink:href="#e"/>
<use x="122.341797" xlink:href="#j"/>
<use x="163.439453" xlink:href="#k"/>
<use x="260.851562" xlink:href="#h"/>
<use x="288.634766" xlink:href="#g"/>
<use x="352.013672" xlink:href="#f"/>
<use x="413.292969" xlink:href="#i"/>
</g>
</g>
<path d="m828.16 733.46v35.285q0 2.4 2.4 2.4h7.7425q2.4 0 2.4-2.4v-35.285q0-2.4-2.4-2.4h-7.7425q-2.4 0-2.4 2.4z" clip-path="url(#a)" fill="#fff" stroke="#fff"/>
<g clip-path="url(#a)">
<g transform="translate(832.23 733.46) rotate(90) scale(.08 -.08)">
<use xlink:href="#l"/>
<use x="60.818359" xlink:href="#e"/>
<use x="122.341797" xlink:href="#j"/>
<use x="163.439453" xlink:href="#k"/>
<use x="260.851562" xlink:href="#h"/>
<use x="288.634766" xlink:href="#g"/>
<use x="352.013672" xlink:href="#f"/>
<use x="413.292969" xlink:href="#i"/>
</g>
</g>
<path d="m875.7 733.46v35.285q0 2.4 2.4 2.4h7.7425q2.4 0 2.4-2.4v-35.285q0-2.4-2.4-2.4h-7.7425q-2.4 0-2.4 2.4z" clip-path="url(#a)" fill="#fff" stroke="#fff"/>
<g clip-path="url(#a)">
<g transform="translate(879.76 733.46) rotate(90) scale(.08 -.08)">
<use xlink:href="#l"/>
<use x="60.818359" xlink:href="#e"/>
<use x="122.341797" xlink:href="#j"/>
<use x="163.439453" xlink:href="#k"/>
<use x="260.851562" xlink:href="#h"/>
<use x="288.634766" xlink:href="#g"/>
<use x="352.013672" xlink:href="#f"/>
<use x="413.292969" xlink:href="#i"/>
</g>
</g>
<path d="m1057.6 429.7 0.15292 4.8213q0.076083 2.3988 2.4749 2.3227l7.7386-0.24545q2.3988-0.076083 2.3227-2.4749l-0.15292-4.8213q-0.076083-2.3988-2.4749-2.3227l-7.7386 0.24545q-2.3988 0.076082-2.3227 2.4749z" clip-path="url(#a)" fill="#fff" stroke="#fff"/>
<g clip-path="url(#a)">
<g transform="translate(1061.7 429.57) rotate(88.183) scale(.08 -.08)">
<use xlink:href="#t"/>
</g>
</g>
<path d="m1022.2 435.57 0.83026-5.4092q0.36412-2.3722-2.0081-2.7363l-7.6529-1.1747q-2.3722-0.36412-2.7363 2.0081l-0.83026 5.4092q-0.36412 2.3722 2.0081 2.7363l7.6529 1.1747q2.3722 0.36412 2.7363-2.0081z" clip-path="url(#a)" fill="#fff" stroke="#fff"/>
<g clip-path="url(#a)">
<g transform="translate(1018.2 434.95) rotate(-81.274) scale(.08 -.08)">
<use xlink:href="#o"/>
</g>
</g>
<path d="m1046.3 435.37 0.37437-6.1486q0.14586-2.3956-2.2497-2.5414l-7.7282-0.47055q-2.3956-0.14586-2.5414 2.2497l-0.37437 6.1486q-0.14586 2.3956 2.2497 2.5414l7.7282 0.47055q2.3956 0.14586 2.5414-2.2497z" clip-path="url(#a)" fill="#fff" stroke="#fff"/>
<g clip-path="url(#a)">
<g transform="translate(1042.2 435.12) rotate(-86.516) scale(.08 -.08)">
<use xlink:href="#aj"/>
</g>
</g>
<path d="m1096 242.75 3.166 4.4637q1.3885 1.9576 3.3461 0.56909l6.3152-4.4793q1.9576-1.3885 0.56909-3.3461l-3.166-4.4637q-1.3885-1.9576-3.3461-0.56909l-6.3152 4.4793q-1.9576 1.3885-0.56909 3.3461z" clip-path="url(#a)" fill="#fff" stroke="#fff"/>
<g clip-path="url(#a)">
<g transform="translate(1099.3 240.4) rotate(54.652) scale(.08 -.08)">
<use xlink:href="#o"/>
</g>
</g>
<path d="m1065.8 733.46v35.285q0 2.4 2.4 2.4h7.7425q2.4 0 2.4-2.4v-35.285q0-2.4-2.4-2.4h-7.7425q-2.4 0-2.4 2.4z" clip-path="url(#a)" fill="#fff" stroke="#fff"/>
<g clip-path="url(#a)">
<g transform="translate(1069.9 733.46) rotate(90) scale(.08 -.08)">
<use xlink:href="#l"/>
<use x="60.818359" xlink:href="#e"/>
<use x="122.341797" xlink:href="#j"/>
<use x="163.439453" xlink:href="#k"/>
<use x="260.851562" xlink:href="#h"/>
<use x="288.634766" xlink:href="#g"/>
<use x="352.013672" xlink:href="#f"/>
<use x="413.292969" xlink:href="#i"/>
</g>
</g>
<path d="m162.68 733.46v35.285q0 2.4 2.4 2.4h7.7425q2.4 0 2.4-2.4v-35.285q0-2.4-2.4-2.4h-7.7425q-2.4 0-2.4 2.4z" clip-path="url(#a)" fill="#fff" stroke="#fff"/>
<g clip-path="url(#a)">
<g transform="translate(166.74 733.46) rotate(90) scale(.08 -.08)">
<use xlink:href="#l"/>
<use x="60.818359" xlink:href="#e"/>
<use x="122.341797" xlink:href="#j"/>
<use x="163.439453" xlink:href="#k"/>
<use x="260.851562" xlink:href="#h"/>
<use x="288.634766" xlink:href="#g"/>
<use x="352.013672" xlink:href="#f"/>
<use x="413.292969" xlink:href="#i"/>
</g>
</g>
<path d="m638.02 733.46v35.285q0 2.4 2.4 2.4h7.7425q2.4 0 2.4-2.4v-35.285q0-2.4-2.4-2.4h-7.7425q-2.4 0-2.4 2.4z" clip-path="url(#a)" fill="#fff" stroke="#fff"/>
<g clip-path="url(#a)">
<g transform="translate(642.09 733.46) rotate(90) scale(.08 -.08)">
<use xlink:href="#l"/>
<use x="60.818359" xlink:href="#e"/>
<use x="122.341797" xlink:href="#j"/>
<use x="163.439453" xlink:href="#k"/>
<use x="260.851562" xlink:href="#h"/>
<use x="288.634766" xlink:href="#g"/>
<use x="352.013672" xlink:href="#f"/>
<use x="413.292969" xlink:href="#i"/>
</g>
</g>
<path d="m970.77 733.46v35.285q0 2.4 2.4 2.4h7.7425q2.4 0 2.4-2.4v-35.285q0-2.4-2.4-2.4h-7.7425q-2.4 0-2.4 2.4z" clip-path="url(#a)" fill="#fff" stroke="#fff"/>
<g clip-path="url(#a)">
<g transform="translate(974.83 733.46) rotate(90) scale(.08 -.08)">
<use xlink:href="#l"/>
<use x="60.818359" xlink:href="#e"/>
<use x="122.341797" xlink:href="#j"/>
<use x="163.439453" xlink:href="#k"/>
<use x="260.851562" xlink:href="#h"/>
<use x="288.634766" xlink:href="#g"/>
<use x="352.013672" xlink:href="#f"/>
<use x="413.292969" xlink:href="#i"/>
</g>
</g>
<path d="m1018.3 733.46v35.285q0 2.4 2.4 2.4h7.7425q2.4 0 2.4-2.4v-35.285q0-2.4-2.4-2.4h-7.7425q-2.4 0-2.4 2.4z" clip-path="url(#a)" fill="#fff" stroke="#fff"/>
<g clip-path="url(#a)">
<g transform="translate(1022.4 733.46) rotate(90) scale(.08 -.08)">
<use xlink:href="#l"/>
<use x="60.818359" xlink:href="#e"/>
<use x="122.341797" xlink:href="#j"/>
<use x="163.439453" xlink:href="#k"/>
<use x="260.851562" xlink:href="#h"/>
<use x="288.634766" xlink:href="#g"/>
<use x="352.013672" xlink:href="#f"/>
<use x="413.292969" xlink:href="#i"/>
</g>
</g>
<path d="m1067.9 503.09 2.2571-4.9853q0.98987-2.1864-1.1965-3.1762l-7.0533-3.1934q-2.1864-0.98987-3.1762 1.1965l-2.2571 4.9853q-0.98987 2.1864 1.1965 3.1762l7.0533 3.1934q2.1864 0.98987 3.1762-1.1965z" clip-path="url(#a)" fill="#fff" stroke="#fff"/>
<g clip-path="url(#a)">
<g transform="translate(1064.2 501.41) rotate(-65.641) scale(.08 -.08)">
<use xlink:href="#o"/>
</g>
</g>
<path d="m1152 495.89 0.22237 4.8186q0.11064 2.3974 2.5081 2.2868l7.7343-0.35692q2.3974-0.11064 2.2868-2.5081l-0.22237-4.8186q-0.11064-2.3974-2.5081-2.2868l-7.7343 0.35692q-2.3974 0.11064-2.2868 2.5081z" clip-path="url(#a)" fill="#fff" stroke="#fff"/>
<g clip-path="url(#a)">
<g transform="translate(1156.1 495.7) rotate(87.358) scale(.08 -.08)">
<use xlink:href="#t"/>
</g>
</g>
<path d="m1140.7 500.79 0.36044-4.5871q0.188-2.3926-2.2046-2.5806l-7.7187-0.60651q-2.3926-0.188-2.5806 2.2046l-0.36044 4.5871q-0.188 2.3926 2.2046 2.5806l7.7187 0.60651q2.3926 0.188 2.5806-2.2046z" clip-path="url(#a)" fill="#fff" stroke="#fff"/>
<g clip-path="url(#a)">
<g transform="translate(1136.6 500.47) rotate(-85.507) scale(.08 -.08)">
<use xlink:href="#ai"/>
</g>
</g>
<path d="m1175.5 496.11 1.0081 5.8995q0.40424 2.3657 2.7699 1.9615l7.6319-1.3041q2.3657-0.40424 1.9615-2.7699l-1.0081-5.8995q-0.40424-2.3657-2.7699-1.9615l-7.6319 1.3041q-2.3657 0.40424-1.9615 2.7699z" clip-path="url(#a)" fill="#fff" stroke="#fff"/>
<g clip-path="url(#a)">
<defs>
<path id="as" d="m9.8125 72.906h13.281l32.328-60.984v60.984h9.5625v-72.906h-13.281l-32.312 60.984v-60.984h-9.5781z"/>
</defs>
<g transform="translate(1179.5 495.43) rotate(80.303) scale(.08 -.08)">
<use xlink:href="#as"/>
</g>
</g>
<path d="m1203.2 374.57 3.279 3.5379q1.6314 1.7602 3.3917 0.12883l5.6786-5.263q1.7602-1.6314 0.12883-3.3917l-3.279-3.5379q-1.6314-1.7602-3.3917-0.12883l-5.6786 5.263q-1.7602 1.6314-0.12883 3.3917z" clip-path="url(#a)" fill="#fff" stroke="#fff"/>
<g clip-path="url(#a)">
<g transform="translate(1206.2 371.8) rotate(47.175) scale(.08 -.08)">
<use xlink:href="#t"/>
</g>
</g>
<path d="m1160.9 733.46v35.285q0 2.4 2.4 2.4h7.7425q2.4 0 2.4-2.4v-35.285q0-2.4-2.4-2.4h-7.7425q-2.4 0-2.4 2.4z" clip-path="url(#a)" fill="#fff" stroke="#fff"/>
<g clip-path="url(#a)">
<g transform="translate(1165 733.46) rotate(90) scale(.08 -.08)">
<use xlink:href="#l"/>
<use x="60.818359" xlink:href="#e"/>
<use x="122.341797" xlink:href="#j"/>
<use x="163.439453" xlink:href="#k"/>
<use x="260.851562" xlink:href="#h"/>
<use x="288.634766" xlink:href="#g"/>
<use x="352.013672" xlink:href="#f"/>
<use x="413.292969" xlink:href="#i"/>
</g>
</g>
<path d="m1113.4 733.46v35.285q0 2.4 2.4 2.4h7.7425q2.4 0 2.4-2.4v-35.285q0-2.4-2.4-2.4h-7.7425q-2.4 0-2.4 2.4z" clip-path="url(#a)" fill="#fff" stroke="#fff"/>
<g clip-path="url(#a)">
<g transform="translate(1117.4 733.46) rotate(90) scale(.08 -.08)">
<use xlink:href="#l"/>
<use x="60.818359" xlink:href="#e"/>
<use x="122.341797" xlink:href="#j"/>
<use x="163.439453" xlink:href="#k"/>
<use x="260.851562" xlink:href="#h"/>
<use x="288.634766" xlink:href="#g"/>
<use x="352.013672" xlink:href="#f"/>
<use x="413.292969" xlink:href="#i"/>
</g>
</g>
<path d="m1208.4 733.46v35.285q0 2.4 2.4 2.4h7.7425q2.4 0 2.4-2.4v-35.285q0-2.4-2.4-2.4h-7.7425q-2.4 0-2.4 2.4z" clip-path="url(#a)" fill="#fff" stroke="#fff"/>
<g clip-path="url(#a)">
<g transform="translate(1212.5 733.46) rotate(90) scale(.08 -.08)">
<use xlink:href="#l"/>
<use x="60.818359" xlink:href="#e"/>
<use x="122.341797" xlink:href="#j"/>
<use x="163.439453" xlink:href="#k"/>
<use x="260.851562" xlink:href="#h"/>
<use x="288.634766" xlink:href="#g"/>
<use x="352.013672" xlink:href="#f"/>
<use x="413.292969" xlink:href="#i"/>
</g>
</g>
<path d="m1125.2 569.17 4.1459-3.572q1.8182-1.5665 0.2517-3.3848l-5.0537-5.8657q-1.5665-1.8182-3.3848-0.2517l-4.1459 3.572q-1.8182 1.5665-0.2517 3.3848l5.0537 5.8657q1.5665 1.8182 3.3848 0.2517z" clip-path="url(#a)" fill="#fff" stroke="#fff"/>
<g clip-path="url(#a)">
<g transform="translate(1122.6 566.09) rotate(-40.747) scale(.08 -.08)">
<use xlink:href="#o"/>
</g>
</g>
<path d="m1272 565.22 0.1365-4.8218q0.067915-2.399-2.3311-2.467l-7.7394-0.2191q-2.399-0.067915-2.467 2.3311l-0.1365 4.8218q-0.067915 2.399 2.3311 2.467l7.7394 0.2191q2.399 0.067914 2.467-2.3311z" clip-path="url(#a)" fill="#fff" stroke="#fff"/>
<g clip-path="url(#a)">
<g transform="translate(1267.9 565.1) rotate(-88.378) scale(.08 -.08)">
<use xlink:href="#t"/>
</g>
</g>
<path d="m1283 560.92 0.8668 5.4034q0.38014 2.3697 2.7498 1.9896l7.6448-1.2264q2.3697-0.38014 1.9896-2.7498l-0.8668-5.4034q-0.38014-2.3697-2.7498-1.9896l-7.6448 1.2264q-2.3697 0.38014-1.9896 2.7498z" clip-path="url(#a)" fill="#fff" stroke="#fff"/>
<g clip-path="url(#a)">
<g transform="translate(1287 560.28) rotate(80.886) scale(.08 -.08)">
<use xlink:href="#o"/>
</g>
</g>
<path d="m1306.6 562.31 1.6663 4.7725q0.79111 2.2659 3.057 1.4747l7.3098-2.5522q2.2659-0.79111 1.4748-3.057l-1.6663-4.7725q-0.79111-2.2659-3.057-1.4748l-7.3098 2.5522q-2.2659 0.79112-1.4747 3.057z" clip-path="url(#a)" fill="#fff" stroke="#fff"/>
<g clip-path="url(#a)">
<g transform="translate(1310.4 560.97) rotate(70.754) scale(.08 -.08)">
<use xlink:href="#u"/>
</g>
</g>
<path d="m1349 503.51 4.3969 3.2581q1.9283 1.4289 3.3572-0.49941l4.6096-6.2207q1.4289-1.9283-0.49941-3.3572l-4.3969-3.2581q-1.9283-1.4289-3.3572 0.49941l-4.6096 6.2207q-1.4289 1.9283 0.49941 3.3572z" clip-path="url(#a)" fill="#fff" stroke="#fff"/>
<g clip-path="url(#a)">
<g transform="translate(1351.4 500.24) rotate(36.539) scale(.08 -.08)">
<use xlink:href="#o"/>
</g>
</g>
<path d="m1256 733.46v35.285q0 2.4 2.4 2.4h7.7425q2.4 0 2.4-2.4v-35.285q0-2.4-2.4-2.4h-7.7425q-2.4 0-2.4 2.4z" clip-path="url(#a)" fill="#fff" stroke="#fff"/>
<g clip-path="url(#a)">
<g transform="translate(1260 733.46) rotate(90) scale(.08 -.08)">
<use xlink:href="#l"/>
<use x="60.818359" xlink:href="#e"/>
<use x="122.341797" xlink:href="#j"/>
<use x="163.439453" xlink:href="#k"/>
<use x="260.851562" xlink:href="#h"/>
<use x="288.634766" xlink:href="#g"/>
<use x="352.013672" xlink:href="#f"/>
<use x="413.292969" xlink:href="#i"/>
</g>
</g>
<path d="m1303.5 733.46v35.285q0 2.4 2.4 2.4h7.7425q2.4 0 2.4-2.4v-35.285q0-2.4-2.4-2.4h-7.7425q-2.4 0-2.4 2.4z" clip-path="url(#a)" fill="#fff" stroke="#fff"/>
<g clip-path="url(#a)">
<g transform="translate(1307.6 733.46) rotate(90) scale(.08 -.08)">
<use xlink:href="#l"/>
<use x="60.818359" xlink:href="#e"/>
<use x="122.341797" xlink:href="#j"/>
<use x="163.439453" xlink:href="#k"/>
<use x="260.851562" xlink:href="#h"/>
<use x="288.634766" xlink:href="#g"/>
<use x="352.013672" xlink:href="#f"/>
<use x="413.292969" xlink:href="#i"/>
</g>
</g>
<path d="m1351 733.46v35.285q0 2.4 2.4 2.4h7.7425q2.4 0 2.4-2.4v-35.285q0-2.4-2.4-2.4h-7.7425q-2.4 0-2.4 2.4z" clip-path="url(#a)" fill="#fff" stroke="#fff"/>
<g clip-path="url(#a)">
<g transform="translate(1355.1 733.46) rotate(90) scale(.08 -.08)">
<use xlink:href="#l"/>
<use x="60.818359" xlink:href="#e"/>
<use x="122.341797" xlink:href="#j"/>
<use x="163.439453" xlink:href="#k"/>
<use x="260.851562" xlink:href="#h"/>
<use x="288.634766" xlink:href="#g"/>
<use x="352.013672" xlink:href="#f"/>
<use x="413.292969" xlink:href="#i"/>
</g>
</g>
<path d="m1451.5 625.07 1.5314 5.3722q0.65793 2.3081 2.966 1.6501l7.4459-2.1225q2.3081-0.65793 1.6501-2.966l-1.5314-5.3722q-0.65793-2.3081-2.966-1.6501l-7.4459 2.1225q-2.3081 0.65793-1.6501 2.966z" clip-path="url(#a)" fill="#fff" stroke="#fff"/>
<g clip-path="url(#a)">
<g transform="translate(1455.4 623.95) rotate(74.089) scale(.08 -.08)">
<use xlink:href="#x"/>
</g>
</g>
<path d="m1427.9 630.43 1.5239-5.3458q0.65793-2.3081-1.6501-2.966l-7.4459-2.1225q-2.3081-0.65793-2.966 1.6501l-1.5239 5.3458q-0.65793 2.3081 1.6501 2.966l7.4459 2.1225q2.3081 0.65793 2.966-1.6501z" clip-path="url(#a)" fill="#fff" stroke="#fff"/>
<g clip-path="url(#a)">
<g transform="translate(1424 629.31) rotate(-74.089) scale(.08 -.08)">
<use xlink:href="#w"/>
</g>
</g>
<path d="m1467.1 769.6 6.5876-34.665q0.44808-2.3578-1.9097-2.8059l-7.6064-1.4455q-2.3578-0.44808-2.8059 1.9097l-6.5876 34.665q-0.44808 2.3578 1.9097 2.8059l7.6064 1.4455q2.3578 0.44808 2.8059-1.9097z" clip-path="url(#a)" fill="#fff" stroke="#fff"/>
<g clip-path="url(#a)">
<g transform="translate(1463.1 768.84) rotate(-79.24) scale(.08 -.08)">
<use xlink:href="#l"/>
<use x="60.818359" xlink:href="#e"/>
<use x="122.341797" xlink:href="#j"/>
<use x="163.439453" xlink:href="#k"/>
<use x="260.851562" xlink:href="#h"/>
<use x="288.634766" xlink:href="#g"/>
<use x="352.013672" xlink:href="#f"/>
<use x="413.292969" xlink:href="#i"/>
</g>
</g>
<path d="m1478.6 734.94 6.5876 34.665q0.44808 2.3578 2.8059 1.9097l7.6064-1.4455q2.3578-0.44808 1.9097-2.8059l-6.5876-34.665q-0.44808-2.3578-2.8059-1.9097l-7.6064 1.4455q-2.3578 0.44808-1.9097 2.8059z" clip-path="url(#a)" fill="#fff" stroke="#fff"/>
<g clip-path="url(#a)">
<g transform="translate(1482.6 734.18) rotate(79.24) scale(.08 -.08)">
<use xlink:href="#l"/>
<use x="60.818359" xlink:href="#e"/>
<use x="122.341797" xlink:href="#j"/>
<use x="163.439453" xlink:href="#k"/>
<use x="260.851562" xlink:href="#h"/>
<use x="288.634766" xlink:href="#g"/>
<use x="352.013672" xlink:href="#f"/>
<use x="413.292969" xlink:href="#i"/>
</g>
</g>
<path d="m1398.6 733.46v35.285q0 2.4 2.4 2.4h7.7425q2.4 0 2.4-2.4v-35.285q0-2.4-2.4-2.4h-7.7425q-2.4 0-2.4 2.4z" clip-path="url(#a)" fill="#fff" stroke="#fff"/>
<g clip-path="url(#a)">
<g transform="translate(1402.6 733.46) rotate(90) scale(.08 -.08)">
<use xlink:href="#l"/>
<use x="60.818359" xlink:href="#e"/>
<use x="122.341797" xlink:href="#j"/>
<use x="163.439453" xlink:href="#k"/>
<use x="260.851562" xlink:href="#h"/>
<use x="288.634766" xlink:href="#g"/>
<use x="352.013672" xlink:href="#f"/>
<use x="413.292969" xlink:href="#i"/>
</g>
</g>
<defs>
<path id="b" d="m0 8.6603c2.2967 0 4.4997-0.9125 6.1237-2.5365 1.624-1.624 2.5365-3.827 2.5365-6.1237s-0.9125-4.4997-2.5365-6.1237c-1.624-1.624-3.827-2.5365-6.1237-2.5365s-4.4997 0.9125-6.1237 2.5365c-1.624 1.624-2.5365 3.827-2.5365 6.1237s0.9125 4.4997 2.5365 6.1237c1.624 1.624 3.827 2.5365 6.1237 2.5365z"/>
</defs>
<g clip-path="url(#a)">
<use x="73.87978" y="813.631592" fill="#ffffff" stroke="#ffffff" xlink:href="#b"/>
</g>
<g clip-path="url(#a)">
<use x="121.414418" y="813.631592" fill="#ffffff" stroke="#ffffff" xlink:href="#b"/>
</g>
<g clip-path="url(#a)">
<use x="168.949056" y="813.631592" fill="#ffffff" stroke="#ffffff" xlink:href="#b"/>
</g>
<g clip-path="url(#a)">
<use x="216.483694" y="813.631592" fill="#ffffff" stroke="#ffffff" xlink:href="#b"/>
</g>
<g clip-path="url(#a)">
<use x="264.018332" y="813.631592" fill="#ffffff" stroke="#ffffff" xlink:href="#b"/>
</g>
<g clip-path="url(#a)">
<use x="311.552969" y="813.631592" fill="#ffffff" stroke="#ffffff" xlink:href="#b"/>
</g>
<g clip-path="url(#a)">
<use x="359.087607" y="813.631592" fill="#ffffff" stroke="#ffffff" xlink:href="#b"/>
</g>
<g clip-path="url(#a)">
<use x="406.622245" y="813.631592" fill="#ffffff" stroke="#ffffff" xlink:href="#b"/>
</g>
<g clip-path="url(#a)">
<use x="454.156883" y="813.631592" fill="#ffffff" stroke="#ffffff" xlink:href="#b"/>
</g>
<g clip-path="url(#a)">
<use x="501.691521" y="813.631592" fill="#ffffff" stroke="#ffffff" xlink:href="#b"/>
</g>
<g clip-path="url(#a)">
<use x="549.226159" y="813.631592" fill="#ffffff" stroke="#ffffff" xlink:href="#b"/>
</g>
<g clip-path="url(#a)">
<use x="596.760796" y="813.631592" fill="#ffffff" stroke="#ffffff" xlink:href="#b"/>
</g>
<g clip-path="url(#a)">
<use x="644.295434" y="813.631592" fill="#ffffff" stroke="#ffffff" xlink:href="#b"/>
</g>
<g clip-path="url(#a)">
<use x="691.830072" y="813.631592" fill="#ffffff" stroke="#ffffff" xlink:href="#b"/>
</g>
<g clip-path="url(#a)">
<use x="739.36471" y="813.631592" fill="#ffffff" stroke="#ffffff" xlink:href="#b"/>
</g>
<g clip-path="url(#a)">
<use x="786.899348" y="813.631592" fill="#ffffff" stroke="#ffffff" xlink:href="#b"/>
</g>
<g clip-path="url(#a)">
<use x="834.433986" y="813.631592" fill="#ffffff" stroke="#ffffff" xlink:href="#b"/>
</g>
<g clip-path="url(#a)">
<use x="881.968623" y="813.631592" fill="#ffffff" stroke="#ffffff" xlink:href="#b"/>
</g>
<g clip-path="url(#a)">
<use x="929.503261" y="813.631592" fill="#ffffff" stroke="#ffffff" xlink:href="#b"/>
</g>
<g clip-path="url(#a)">
<use x="977.037899" y="813.631592" fill="#ffffff" stroke="#ffffff" xlink:href="#b"/>
</g>
<g clip-path="url(#a)">
<use x="1024.572537" y="813.631592" fill="#ffffff" stroke="#ffffff" xlink:href="#b"/>
</g>
<g clip-path="url(#a)">
<use x="1072.107175" y="813.631592" fill="#ffffff" stroke="#ffffff" xlink:href="#b"/>
</g>
<g clip-path="url(#a)">
<use x="1119.641813" y="813.631592" fill="#ffffff" stroke="#ffffff" xlink:href="#b"/>
</g>
<g clip-path="url(#a)">
<use x="1167.17645" y="813.631592" fill="#ffffff" stroke="#ffffff" xlink:href="#b"/>
</g>
<g clip-path="url(#a)">
<use x="1214.711088" y="813.631592" fill="#ffffff" stroke="#ffffff" xlink:href="#b"/>
</g>
<g clip-path="url(#a)">
<use x="1262.245726" y="813.631592" fill="#ffffff" stroke="#ffffff" xlink:href="#b"/>
</g>
<g clip-path="url(#a)">
<use x="1309.780364" y="813.631592" fill="#ffffff" stroke="#ffffff" xlink:href="#b"/>
</g>
<g clip-path="url(#a)">
<use x="1357.315002" y="813.631592" fill="#ffffff" stroke="#ffffff" xlink:href="#b"/>
</g>
<g clip-path="url(#a)">
<use x="1404.84964" y="813.631592" fill="#ffffff" stroke="#ffffff" xlink:href="#b"/>
</g>
<g clip-path="url(#a)">
<use x="1452.384278" y="813.631592" fill="#ffffff" stroke="#ffffff" xlink:href="#b"/>
</g>
<g clip-path="url(#a)">
<use x="1499.918915" y="813.631592" fill="#ffffff" stroke="#ffffff" xlink:href="#b"/>
</g>
<g clip-path="url(#a)">
<use x="1547.453553" y="813.631592" fill="#ffffff" stroke="#ffffff" xlink:href="#b"/>
</g>
<g clip-path="url(#a)">
<use x="833.21984" y="39.701741" fill="#ffffff" stroke="#ffffff" xlink:href="#b"/>
</g>
<g clip-path="url(#a)">
<use x="585.631655" y="307.449762" fill="#ffffff" stroke="#ffffff" xlink:href="#b"/>
</g>
<g clip-path="url(#a)">
<use x="264.018332" y="688.566463" fill="#ffffff" stroke="#ffffff" xlink:href="#b"/>
</g>
<g clip-path="url(#a)">
<use x="129.336858" y="436.69641" fill="#ffffff" stroke="#ffffff" xlink:href="#b"/>
</g>
<g clip-path="url(#a)">
<use x="121.414418" y="688.566463" fill="#ffffff" stroke="#ffffff" xlink:href="#b"/>
</g>
<g clip-path="url(#a)">
<use x="311.552969" y="688.566463" fill="#ffffff" stroke="#ffffff" xlink:href="#b"/>
</g>
<g clip-path="url(#a)">
<use x="522.063508" y="436.69641" fill="#ffffff" stroke="#ffffff" xlink:href="#b"/>
</g>
<g clip-path="url(#a)">
<use x="596.760796" y="688.566463" fill="#ffffff" stroke="#ffffff" xlink:href="#b"/>
</g>
<g clip-path="url(#a)">
<use x="739.36471" y="688.566463" fill="#ffffff" stroke="#ffffff" xlink:href="#b"/>
</g>
<g clip-path="url(#a)">
<use x="858.201305" y="563.501333" fill="#ffffff" stroke="#ffffff" xlink:href="#b"/>
</g>
<g clip-path="url(#a)">
<use x="929.503261" y="688.566463" fill="#ffffff" stroke="#ffffff" xlink:href="#b"/>
</g>
<g clip-path="url(#a)">
<use x="1547.453553" y="688.566463" fill="#ffffff" stroke="#ffffff" xlink:href="#b"/>
</g>
<g clip-path="url(#a)">
<use x="73.87978" y="688.566463" fill="#ffffff" stroke="#ffffff" xlink:href="#b"/>
</g>
<g clip-path="url(#a)">
<use x="192.716375" y="563.501333" fill="#ffffff" stroke="#ffffff" xlink:href="#b"/>
</g>
<g clip-path="url(#a)">
<use x="216.483694" y="688.566463" fill="#ffffff" stroke="#ffffff" xlink:href="#b"/>
</g>
<g clip-path="url(#a)">
<use x="359.087607" y="688.566463" fill="#ffffff" stroke="#ffffff" xlink:href="#b"/>
</g>
<g clip-path="url(#a)">
<use x="406.622245" y="688.566463" fill="#ffffff" stroke="#ffffff" xlink:href="#b"/>
</g>
<g clip-path="url(#a)">
<use x="525.45884" y="563.501333" fill="#ffffff" stroke="#ffffff" xlink:href="#b"/>
</g>
<g clip-path="url(#a)">
<use x="454.156883" y="688.566463" fill="#ffffff" stroke="#ffffff" xlink:href="#b"/>
</g>
<g clip-path="url(#a)">
<use x="549.226159" y="563.501333" fill="#ffffff" stroke="#ffffff" xlink:href="#b"/>
</g>
<g clip-path="url(#a)">
<use x="501.691521" y="688.566463" fill="#ffffff" stroke="#ffffff" xlink:href="#b"/>
</g>
<g clip-path="url(#a)">
<use x="549.226159" y="688.566463" fill="#ffffff" stroke="#ffffff" xlink:href="#b"/>
</g>
<g clip-path="url(#a)">
<use x="668.062753" y="563.501333" fill="#ffffff" stroke="#ffffff" xlink:href="#b"/>
</g>
<g clip-path="url(#a)">
<use x="691.830072" y="688.566463" fill="#ffffff" stroke="#ffffff" xlink:href="#b"/>
</g>
<g clip-path="url(#a)">
<use x="786.899348" y="688.566463" fill="#ffffff" stroke="#ffffff" xlink:href="#b"/>
</g>
<g clip-path="url(#a)">
<use x="834.433986" y="688.566463" fill="#ffffff" stroke="#ffffff" xlink:href="#b"/>
</g>
<g clip-path="url(#a)">
<use x="881.968623" y="688.566463" fill="#ffffff" stroke="#ffffff" xlink:href="#b"/>
</g>
<g clip-path="url(#a)">
<use x="1055.826561" y="175.2582" fill="#ffffff" stroke="#ffffff" xlink:href="#b"/>
</g>
<g clip-path="url(#a)">
<use x="1072.107175" y="688.566463" fill="#ffffff" stroke="#ffffff" xlink:href="#b"/>
</g>
<g clip-path="url(#a)">
<use x="168.949056" y="688.566463" fill="#ffffff" stroke="#ffffff" xlink:href="#b"/>
</g>
<g clip-path="url(#a)">
<use x="644.295434" y="688.566463" fill="#ffffff" stroke="#ffffff" xlink:href="#b"/>
</g>
<g clip-path="url(#a)">
<use x="977.037899" y="688.566463" fill="#ffffff" stroke="#ffffff" xlink:href="#b"/>
</g>
<g clip-path="url(#a)">
<use x="1024.572537" y="688.566463" fill="#ffffff" stroke="#ffffff" xlink:href="#b"/>
</g>
<g clip-path="url(#a)">
<use x="1149.588634" y="307.449762" fill="#ffffff" stroke="#ffffff" xlink:href="#b"/>
</g>
<g clip-path="url(#a)">
<use x="1167.17645" y="688.566463" fill="#ffffff" stroke="#ffffff" xlink:href="#b"/>
</g>
<g clip-path="url(#a)">
<use x="1119.641813" y="688.566463" fill="#ffffff" stroke="#ffffff" xlink:href="#b"/>
</g>
<g clip-path="url(#a)">
<use x="1214.711088" y="688.566463" fill="#ffffff" stroke="#ffffff" xlink:href="#b"/>
</g>
<g clip-path="url(#a)">
<use x="1269.375922" y="436.69641" fill="#ffffff" stroke="#ffffff" xlink:href="#b"/>
</g>
<g clip-path="url(#a)">
<use x="1262.245726" y="688.566463" fill="#ffffff" stroke="#ffffff" xlink:href="#b"/>
</g>
<g clip-path="url(#a)">
<use x="1309.780364" y="688.566463" fill="#ffffff" stroke="#ffffff" xlink:href="#b"/>
</g>
<g clip-path="url(#a)">
<use x="1357.315002" y="688.566463" fill="#ffffff" stroke="#ffffff" xlink:href="#b"/>
</g>
<g clip-path="url(#a)">
<use x="1440.500618" y="563.501333" fill="#ffffff" stroke="#ffffff" xlink:href="#b"/>
</g>
<g clip-path="url(#a)">
<use x="1476.151596" y="688.566463" fill="#ffffff" stroke="#ffffff" xlink:href="#b"/>
</g>
<g clip-path="url(#a)">
<use x="1404.84964" y="688.566463" fill="#ffffff" stroke="#ffffff" xlink:href="#b"/>
</g>
<g clip-path="url(#a)">
<defs>
<path id="at" d="m9.8125 72.906h14.703l18.594-49.609 18.703 49.609h14.703v-72.906h-9.625v64.016l-18.797-50h-9.9062l-18.797 50v-64.016h-9.5781z"/>
<path id="an" d="m32.172-5.0781q-3.7969-9.7656-7.4219-12.734-3.6094-2.9844-9.6562-2.9844h-7.1875v7.5156h5.2812q3.7031 0 5.75 1.7656 2.0625 1.75 4.5469 8.2969l1.6094 4.0938-22.109 53.812h9.5156l17.094-42.766 17.094 42.766h9.5156z"/>
</defs>
<g transform="translate(66.606 816.39) scale(.1 -.1)">
<use xlink:href="#at"/>
<use x="86.279297" xlink:href="#an"/>
</g>
</g>
<g clip-path="url(#a)">
<defs>
<path id="r" d="m44.281 53.078v-8.5q-3.7969 1.9531-7.9062 2.9219-4.0938 0.98438-8.5 0.98438-6.6875 0-10.031-2.0469t-3.3438-6.1562q0-3.125 2.3906-4.9062t9.625-3.3906l3.0781-0.6875q9.5625-2.0469 13.594-5.7812t4.0312-10.422q0-7.625-6.0312-12.078-6.0312-4.4375-16.578-4.4375-4.3906 0-9.1562 0.85938t-10.031 2.5625v9.2812q4.9844-2.5938 9.8125-3.8906 4.8281-1.2812 9.5781-1.2812 6.3438 0 9.75 2.1719 3.4219 2.1719 3.4219 6.125 0 3.6562-2.4688 5.6094-2.4531 1.9531-10.812 3.7656l-3.125 0.73438q-8.3438 1.75-12.062 5.3906-3.7031 3.6406-3.7031 9.9844 0 7.7188 5.4688 11.906 5.4688 4.2031 15.531 4.2031 4.9688 0 9.3594-0.73438 4.4062-0.71875 8.1094-2.1875z"/>
<path id="p" d="m18.312 70.219v-15.531h18.5v-6.9844h-18.5v-29.688q0-6.6875 1.8281-8.5938t7.4531-1.9062h9.2188v-7.5156h-9.2188q-10.406 0-14.359 3.875-3.9531 3.8906-3.9531 14.141v29.688h-6.5938v6.9844h6.5938v15.531z"/>
</defs>
<g transform="translate(107.72 816.39) scale(.1 -.1)">
<use xlink:href="#r"/>
<use x="52.099609" xlink:href="#h"/>
<use x="79.882812" xlink:href="#r"/>
<use x="131.982422" xlink:href="#p"/>
<use x="171.191406" xlink:href="#e"/>
<use x="232.714844" xlink:href="#j"/>
</g>
</g>
<g clip-path="url(#a)">
<g transform="translate(164.39 816.39) scale(.1 -.1)">
<use xlink:href="#h"/>
<use x="27.783203" xlink:href="#g"/>
</g>
</g>
<g clip-path="url(#a)">
<defs>
<path id="v" d="m4.2031 54.688h8.9844l11.234-42.672 11.172 42.672h10.594l11.234-42.672 11.188 42.672h8.9844l-14.312-54.688h-10.594l-11.766 44.828-11.812-44.828h-10.609z"/>
</defs>
<g transform="translate(207.94 816.39) scale(.1 -.1)">
<use xlink:href="#i"/>
<use x="27.783203" xlink:href="#f"/>
<use x="89.0625" xlink:href="#v"/>
</g>
</g>
<g clip-path="url(#a)">
<defs>
<path id="s" d="m30.609 48.391q-7.2188 0-11.422-5.6406t-4.2031-15.453 4.1719-15.453q4.1875-5.6406 11.453-5.6406 7.1875 0 11.375 5.6562 4.2031 5.6719 4.2031 15.438 0 9.7188-4.2031 15.406-4.1875 5.6875-11.375 5.6875zm0 7.6094q11.719 0 18.406-7.625 6.7031-7.6094 6.7031-21.078 0-13.422-6.7031-21.078-6.6875-7.6406-18.406-7.6406-11.766 0-18.438 7.6406-6.6562 7.6562-6.6562 21.078 0 13.469 6.6562 21.078 6.6719 7.625 18.438 7.625z"/>
<path id="ae" d="m45.406 46.391v29.594h8.9844v-75.984h-8.9844v8.2031q-2.8281-4.875-7.1562-7.25-4.3125-2.375-10.375-2.375-9.9062 0-16.141 7.9062-6.2188 7.9219-6.2188 20.812t6.2188 20.797q6.2344 7.9062 16.141 7.9062 6.0625 0 10.375-2.375 4.3281-2.3594 7.1562-7.2344zm-30.609-19.094q0-9.9062 4.0781-15.547t11.203-5.6406 11.219 5.6406q4.1094 5.6406 4.1094 15.547t-4.1094 15.547q-4.0938 5.6406-11.219 5.6406t-11.203-5.6406-4.0781-15.547z"/>
</defs>
<g transform="translate(254.44 816.39) scale(.1 -.1)">
<use xlink:href="#p"/>
<use x="39.208984" xlink:href="#s"/>
<use x="100.390625" xlink:href="#i"/>
<use x="128.173828" xlink:href="#ae"/>
</g>
</g>
<g clip-path="url(#a)">
<g transform="translate(303.61 816.39) scale(.1 -.1)">
<use xlink:href="#k"/>
<use x="97.412109" xlink:href="#e"/>
</g>
</g>
<g clip-path="url(#a)">
<defs>
<path id="ar" d="m48.688 27.297q0 9.9062-4.0781 15.547t-11.203 5.6406q-7.1406 0-11.219-5.6406t-4.0781-15.547 4.0781-15.547 11.219-5.6406q7.125 0 11.203 5.6406t4.0781 15.547zm-30.578 19.094q2.8438 4.875 7.1562 7.2344 4.3281 2.375 10.328 2.375 9.9688 0 16.188-7.9062 6.2344-7.9062 6.2344-20.797t-6.2344-20.812q-6.2188-7.9062-16.188-7.9062-6 0-10.328 2.375-4.3125 2.375-7.1562 7.25v-8.2031h-9.0312v75.984h9.0312z"/>
<path id="ak" d="m8.5 21.578v33.109h8.9844v-32.766q0-7.7656 3.0156-11.656 3.0312-3.875 9.0938-3.875 7.2656 0 11.484 4.6406 4.2344 4.6406 4.2344 12.656v31h8.9844v-54.688h-8.9844v8.4062q-3.2656-4.9844-7.5938-7.4062-4.3125-2.4219-10.031-2.4219-9.4219 0-14.312 5.8594-4.875 5.8594-4.875 17.141z"/>
</defs>
<g transform="translate(344.66 816.39) scale(.1 -.1)">
<use xlink:href="#f"/>
<use x="61.279297" xlink:href="#ar"/>
<use x="124.755859" xlink:href="#s"/>
<use x="185.9375" xlink:href="#ak"/>
<use x="249.316406" xlink:href="#p"/>
</g>
</g>
<g clip-path="url(#a)">
<defs>
<path id="az" d="m54.891 33.016v-33.016h-8.9844v32.719q0 7.7656-3.0312 11.609-3.0312 3.8594-9.0781 3.8594-7.2812 0-11.484-4.6406-4.2031-4.625-4.2031-12.641v-30.906h-9.0312v75.984h9.0312v-29.797q3.2344 4.9375 7.5938 7.375 4.375 2.4375 10.094 2.4375 9.4219 0 14.25-5.8281 4.8438-5.8281 4.8438-17.156z"/>
</defs>
<g transform="translate(397.5 816.39) scale(.1 -.1)">
<use xlink:href="#p"/>
<use x="39.208984" xlink:href="#az"/>
<use x="102.587891" xlink:href="#h"/>
<use x="130.371094" xlink:href="#r"/>
</g>
</g>
<g clip-path="url(#a)">
<defs>
<path id="aw" d="m5.5156 54.688h42.672v-8.2031l-33.781-39.312h33.781v-7.1719h-43.891v8.2031l33.797 39.312h-32.578z"/>
<path id="ap" d="m45.406 27.984q0 9.7656-4.0312 15.125-4.0156 5.375-11.297 5.375-7.2188 0-11.25-5.375-4.0312-5.3594-4.0312-15.125 0-9.7188 4.0312-15.094t11.25-5.375q7.2812 0 11.297 5.375 4.0312 5.375 4.0312 15.094zm8.9844-21.203q0-13.953-6.2031-20.766-6.1875-6.8125-18.984-6.8125-4.7344 0-8.9375 0.70312t-8.1562 2.1719v8.7344q3.9531-2.1406 7.8125-3.1562 3.8594-1.0312 7.8594-1.0312 8.8438 0 13.234 4.6094t4.3906 13.938v4.4531q-2.7812-4.8438-7.125-7.2344t-10.406-2.3906q-10.047 0-16.203 7.6562-6.1562 7.6719-6.1562 20.328 0 12.688 6.1562 20.344 6.1562 7.6719 16.203 7.6719 6.0625 0 10.406-2.3906t7.125-7.2188v8.2969h8.9844z"/>
</defs>
<g transform="translate(432.8 816.39) scale(.1 -.1)">
<use xlink:href="#f"/>
<use x="61.279297" xlink:href="#k"/>
<use x="158.691406" xlink:href="#f"/>
<use x="219.970703" xlink:href="#aw"/>
<use x="272.460938" xlink:href="#h"/>
<use x="300.244141" xlink:href="#g"/>
<use x="363.623047" xlink:href="#ap"/>
</g>
</g>
<g clip-path="url(#a)">
<g transform="translate(491.36 816.39) scale(.1 -.1)">
<use xlink:href="#g"/>
<use x="63.378906" xlink:href="#e"/>
<use x="124.902344" xlink:href="#v"/>
</g>
</g>
<g clip-path="url(#a)">
<defs>
<path id="af" d="m48.781 52.594v-8.4062q-3.8125 2.1094-7.6406 3.1562t-7.7344 1.0469q-8.75 0-13.594-5.5469-4.8281-5.5312-4.8281-15.547t4.8281-15.562q4.8438-5.5312 13.594-5.5312 3.9062 0 7.7344 1.0469t7.6406 3.1562v-8.3125q-3.7656-1.75-7.7969-2.625-4.0156-0.89062-8.5625-0.89062-12.359 0-19.641 7.7656-7.2656 7.7656-7.2656 20.953 0 13.375 7.3438 21.031 7.3594 7.6719 20.156 7.6719 4.1406 0 8.0938-0.85938 3.9531-0.84375 7.6719-2.5469z"/>
<path id="ao" d="m18.109 8.2031v-29h-9.0312v75.484h9.0312v-8.2969q2.8438 4.875 7.1562 7.2344 4.3281 2.375 10.328 2.375 9.9688 0 16.188-7.9062 6.2344-7.9062 6.2344-20.797t-6.2344-20.812q-6.2188-7.9062-16.188-7.9062-6 0-10.328 2.375-4.3125 2.375-7.1562 7.25zm30.578 19.094q0 9.9062-4.0781 15.547t-11.203 5.6406q-7.1406 0-11.219-5.6406t-4.0781-15.547 4.0781-15.547 11.219-5.6406q7.125 0 11.203 5.6406t4.0781 15.547z"/>
</defs>
<g transform="translate(535.1 816.39) scale(.1 -.1)">
<use xlink:href="#af"/>
<use x="54.980469" xlink:href="#j"/>
<use x="96.0625" xlink:href="#e"/>
<use x="157.585938" xlink:href="#ao"/>
<use x="221.0625" xlink:href="#e"/>
</g>
</g>
<g clip-path="url(#a)">
<g transform="translate(583.31 816.39) scale(.1 -.1)">
<use xlink:href="#ao"/>
<use x="63.476562" xlink:href="#i"/>
<use x="91.259766" xlink:href="#f"/>
<use x="152.539062" xlink:href="#af"/>
<use x="207.519531" xlink:href="#e"/>
</g>
</g>
<g clip-path="url(#a)">
<g transform="translate(639.74 816.39) scale(.1 -.1)">
<use xlink:href="#h"/>
<use x="27.783203" xlink:href="#g"/>
</g>
</g>
<g clip-path="url(#a)">
<g transform="translate(679.55 816.39) scale(.1 -.1)">
<use xlink:href="#p"/>
<use x="39.208984" xlink:href="#s"/>
<use x="100.390625" xlink:href="#v"/>
<use x="182.177734" xlink:href="#g"/>
</g>
</g>
<g clip-path="url(#a)">
<defs>
<path id="au" d="m11.719 12.406h10.297v-8.4062l-8-15.625h-6.2969l4 15.625z"/>
</defs>
<g transform="translate(737.78 816.39) scale(.1 -.1)">
<use xlink:href="#au"/>
</g>
</g>
<g clip-path="url(#a)">
<defs>
<path id="am" d="m9.8125 72.906h9.8594v-72.906h-9.8594z"/>
</defs>
<g transform="translate(785.42 816.39) scale(.1 -.1)">
<use xlink:href="#am"/>
</g>
</g>
<g clip-path="url(#a)">
<g transform="translate(824.68 816.39) scale(.1 -.1)">
<use xlink:href="#v"/>
<use x="81.787109" xlink:href="#f"/>
<use x="143.066406" xlink:href="#r"/>
</g>
</g>
<g clip-path="url(#a)">
<g transform="translate(876.3 816.39) scale(.1 -.1)">
<use xlink:href="#r"/>
<use x="52.099609" xlink:href="#s"/>
</g>
</g>
<g clip-path="url(#a)">
<defs>
<path id="ax" d="m54.891 54.688-19.781-26.609 20.797-28.078h-10.594l-15.922 21.484-15.906-21.484h-10.609l21.25 28.609-19.438 26.078h10.594l14.5-19.484 14.5 19.484z"/>
</defs>
<g transform="translate(911.12 816.39) scale(.1 -.1)">
<use xlink:href="#e"/>
<use x="61.507812" xlink:href="#ax"/>
<use x="120.671875" xlink:href="#af"/>
<use x="175.652344" xlink:href="#h"/>
<use x="203.435547" xlink:href="#p"/>
<use x="242.644531" xlink:href="#e"/>
<use x="304.167969" xlink:href="#ae"/>
</g>
</g>
<g clip-path="url(#a)">
<g transform="translate(975.56 816.39) scale(.1 -.1)">
<use xlink:href="#am"/>
</g>
</g>
<g clip-path="url(#a)">
<defs>
<path id="ay" d="m9.4219 54.688h8.9844v-55.672q0-10.438-3.9844-15.125-3.9688-4.6875-12.812-4.6875h-3.4219v7.6094h2.4062q5.125 0 6.9688 2.375 1.8594 2.3594 1.8594 9.8281zm0 21.297h8.9844v-11.391h-8.9844z"/>
</defs>
<g transform="translate(1015.4 816.39) scale(.1 -.1)">
<use xlink:href="#ay"/>
<use x="27.783203" xlink:href="#ak"/>
<use x="91.162109" xlink:href="#r"/>
<use x="143.261719" xlink:href="#p"/>
</g>
</g>
<g clip-path="url(#a)">
<g transform="translate(1053.6 816.39) scale(.1 -.1)">
<use xlink:href="#v"/>
<use x="81.787109" xlink:href="#f"/>
<use x="143.066406" xlink:href="#g"/>
<use x="206.445312" xlink:href="#p"/>
<use x="245.654297" xlink:href="#e"/>
<use x="307.177734" xlink:href="#ae"/>
</g>
</g>
<g clip-path="url(#a)">
<g transform="translate(1114.6 816.39) scale(.1 -.1)">
<use xlink:href="#p"/>
<use x="39.208984" xlink:href="#s"/>
</g>
</g>
<g clip-path="url(#a)">
<g transform="translate(1160.9 816.39) scale(.1 -.1)">
<use xlink:href="#ap"/>
<use x="63.476562" xlink:href="#s"/>
</g>
</g>
<g clip-path="url(#a)">
<g transform="translate(1205.3 816.39) scale(.1 -.1)">
<use xlink:href="#f"/>
<use x="61.279297" xlink:href="#g"/>
<use x="124.658203" xlink:href="#ae"/>
</g>
</g>
<g clip-path="url(#a)">
<g transform="translate(1252.6 816.39) scale(.1 -.1)">
<use xlink:href="#p"/>
<use x="39.208984" xlink:href="#e"/>
<use x="100.732422" xlink:href="#r"/>
<use x="152.832031" xlink:href="#p"/>
</g>
</g>
<g clip-path="url(#a)">
<g transform="translate(1306.4 816.39) scale(.1 -.1)">
<use xlink:href="#h"/>
<use x="27.783203" xlink:href="#p"/>
</g>
</g>
<g clip-path="url(#a)">
<g transform="translate(1349.1 816.39) scale(.1 -.1)">
<use xlink:href="#s"/>
<use x="61.181641" xlink:href="#ak"/>
<use x="124.560547" xlink:href="#p"/>
</g>
</g>
<g clip-path="url(#a)">
<defs>
<path id="aq" d="m37.109 75.984v-7.4844h-8.5938q-4.8281 0-6.7188-1.9531-1.875-1.9531-1.875-7.0312v-4.8281h14.797v-6.9844h-14.797v-47.703h-9.0312v47.703h-8.5938v6.9844h8.5938v3.8125q0 9.125 4.25 13.297 4.25 4.1875 13.469 4.1875z"/>
</defs>
<g transform="translate(1398 816.39) scale(.1 -.1)">
<use xlink:href="#aq"/>
<use x="35.205078" xlink:href="#s"/>
<use x="96.386719" xlink:href="#j"/>
</g>
</g>
<g clip-path="url(#a)">
<g transform="translate(1444.6 816.39) scale(.1 -.1)">
<use xlink:href="#k"/>
<use x="97.412109" xlink:href="#an"/>
</g>
</g>
<g clip-path="url(#a)">
<g transform="translate(1491.1 816.39) scale(.1 -.1)">
<use xlink:href="#r"/>
<use x="52.099609" xlink:href="#e"/>
<use x="113.623047" xlink:href="#i"/>
<use x="141.40625" xlink:href="#aq"/>
</g>
</g>
<g clip-path="url(#a)">
<defs>
<path id="av" d="m15.094 12.406h9.9062v-12.406h-9.9062zm0 60.5h9.9062v-31.984l-0.96875-17.438h-7.9219l-1.0156 17.438z"/>
</defs>
<g transform="translate(1545.4 816.39) scale(.1 -.1)">
<use xlink:href="#av"/>
</g>
</g>
<g clip-path="url(#a)">
<defs>
<path id="c" d="m12.406 8.2969h16.109v55.625l-17.531-3.5156v8.9844l17.438 3.5156h9.8594v-64.609h16.109v-8.2969h-41.984z"/>
<path id="d" d="m10.688 12.406h10.312v-12.406h-10.312z"/>
</defs>
<g transform="translate(825.27 42.461) scale(.1 -.1)">
<use xlink:href="#c"/>
<use x="63.623047" xlink:href="#d"/>
<use x="95.410156" xlink:href="#c"/>
</g>
</g>
<g clip-path="url(#a)">
<defs>
<path id="n" d="m19.188 8.2969h34.422v-8.2969h-46.281v8.2969q5.6094 5.8125 15.297 15.594 9.7031 9.7969 12.188 12.641 4.7344 5.3125 6.6094 9 1.8906 3.6875 1.8906 7.25 0 5.8125-4.0781 9.4688-4.0781 3.6719-10.625 3.6719-4.6406 0-9.7969-1.6094-5.1406-1.6094-11-4.8906v9.9688q5.9531 2.3906 11.125 3.6094 5.1875 1.2188 9.4844 1.2188 11.328 0 18.062-5.6719 6.7344-5.6562 6.7344-15.125 0-4.5-1.6875-8.5312-1.6719-4.0156-6.125-9.4844-1.2188-1.4219-7.7656-8.1875-6.5312-6.7656-18.453-18.922z"/>
</defs>
<g transform="translate(577.68 310.21) scale(.1 -.1)">
<use xlink:href="#c"/>
<use x="63.623047" xlink:href="#d"/>
<use x="95.410156" xlink:href="#n"/>
</g>
</g>
<g clip-path="url(#a)">
<defs>
<path id="m" d="m40.578 39.312q7.0781-1.5156 11.047-6.3125 3.9844-4.7812 3.9844-11.812 0-10.781-7.4219-16.703-7.4219-5.9062-21.094-5.9062-4.5781 0-9.4375 0.90625t-10.031 2.7188v9.5156q4.0938-2.3906 8.9688-3.6094 4.8906-1.2188 10.219-1.2188 9.2656 0 14.125 3.6562t4.8594 10.641q0 6.4531-4.5156 10.078-4.5156 3.6406-12.562 3.6406h-8.5v8.1094h8.8906q7.2656 0 11.125 2.9062t3.8594 8.375q0 5.6094-3.9844 8.6094-3.9688 3.0156-11.391 3.0156-4.0625 0-8.7031-0.89062-4.6406-0.875-10.203-2.7188v8.7812q5.625 1.5625 10.531 2.3438t9.25 0.78125q11.234 0 17.766-5.1094 6.5469-5.0938 6.5469-13.781 0-6.0625-3.4688-10.234t-9.8594-5.7812z"/>
</defs>
<g transform="translate(256.07 691.33) scale(.1 -.1)">
<use xlink:href="#c"/>
<use x="63.623047" xlink:href="#d"/>
<use x="95.410156" xlink:href="#m"/>
</g>
</g>
<g clip-path="url(#a)">
<defs>
<path id="q" d="m37.797 64.312-24.906-38.922h24.906zm-2.5938 8.5938h12.406v-47.516h10.406v-8.2031h-10.406v-17.188h-9.8125v17.188h-32.906v9.5156z"/>
</defs>
<g transform="translate(121.39 439.46) scale(.1 -.1)">
<use xlink:href="#c"/>
<use x="63.623047" xlink:href="#d"/>
<use x="95.410156" xlink:href="#q"/>
</g>
</g>
<g clip-path="url(#a)">
<defs>
<path id="ac" d="m10.797 72.906h38.719v-8.3125h-29.688v-17.859q2.1406 0.73438 4.2812 1.0938 2.1562 0.35938 4.3125 0.35938 12.203 0 19.328-6.6875 7.1406-6.6875 7.1406-18.109 0-11.766-7.3281-18.297-7.3281-6.5156-20.656-6.5156-4.5938 0-9.3594 0.78125-4.75 0.78125-9.8281 2.3438v9.9219q4.3906-2.3906 9.0781-3.5625t9.9062-1.1719q8.4531 0 13.375 4.4375 4.9375 4.4375 4.9375 12.062 0 7.6094-4.9375 12.047-4.9219 4.4531-13.375 4.4531-3.9531 0-7.8906-0.875-3.9219-0.875-8.0156-2.7344z"/>
</defs>
<g transform="translate(113.46 691.33) scale(.1 -.1)">
<use xlink:href="#c"/>
<use x="63.623047" xlink:href="#d"/>
<use x="95.410156" xlink:href="#ac"/>
</g>
</g>
<g clip-path="url(#a)">
<defs>
<path id="ab" d="m33.016 40.375q-6.6406 0-10.531-4.5469-3.875-4.5312-3.875-12.438 0-7.8594 3.875-12.438 3.8906-4.5625 10.531-4.5625t10.516 4.5625q3.875 4.5781 3.875 12.438 0 7.9062-3.875 12.438-3.875 4.5469-10.516 4.5469zm19.578 30.922v-8.9844q-3.7188 1.75-7.5 2.6719-3.7812 0.9375-7.5 0.9375-9.7656 0-14.922-6.5938-5.1406-6.5938-5.875-19.922 2.875 4.25 7.2188 6.5156 4.3594 2.2656 9.5781 2.2656 10.984 0 17.359-6.6719 6.375-6.6562 6.375-18.125 0-11.234-6.6406-18.031-6.6406-6.7812-17.672-6.7812-12.656 0-19.344 9.6875-6.6875 9.7031-6.6875 28.109 0 17.281 8.2031 27.562t22.016 10.281q3.7188 0 7.5-0.73438t7.8906-2.1875z"/>
</defs>
<g transform="translate(303.6 691.33) scale(.1 -.1)">
<use xlink:href="#c"/>
<use x="63.623047" xlink:href="#d"/>
<use x="95.410156" xlink:href="#ab"/>
</g>
</g>
<g clip-path="url(#a)">
<defs>
<path id="aa" d="m8.2031 72.906h46.875v-4.2031l-26.469-68.703h-10.297l24.906 64.594h-35.016z"/>
</defs>
<g transform="translate(514.11 439.46) scale(.1 -.1)">
<use xlink:href="#c"/>
<use x="63.623047" xlink:href="#d"/>
<use x="95.410156" xlink:href="#aa"/>
</g>
</g>
<g clip-path="url(#a)">
<defs>
<path id="z" d="m31.781 34.625q-7.0312 0-11.062-3.7656-4.0156-3.7656-4.0156-10.344 0-6.5938 4.0156-10.359 4.0312-3.7656 11.062-3.7656t11.078 3.7812q4.0625 3.7969 4.0625 10.344 0 6.5781-4.0312 10.344-4.0156 3.7656-11.109 3.7656zm-9.8594 4.1875q-6.3438 1.5625-9.8906 5.9062-3.5312 4.3594-3.5312 10.609 0 8.7344 6.2188 13.812 6.2344 5.0781 17.062 5.0781 10.891 0 17.094-5.0781t6.2031-13.812q0-6.25-3.5469-10.609-3.5312-4.3438-9.8281-5.9062 7.125-1.6562 11.094-6.5 3.9844-4.8281 3.9844-11.797 0-10.609-6.4688-16.281-6.4688-5.6562-18.531-5.6562-12.047 0-18.531 5.6562-6.4688 5.6719-6.4688 16.281 0 6.9688 4 11.797 4.0156 4.8438 11.141 6.5zm-3.6094 15.578q0-5.6562 3.5312-8.8281 3.5469-3.1719 9.9375-3.1719 6.3594 0 9.9375 3.1719 3.5938 3.1719 3.5938 8.8281 0 5.6719-3.5938 8.8438-3.5781 3.1719-9.9375 3.1719-6.3906 0-9.9375-3.1719-3.5312-3.1719-3.5312-8.8438z"/>
</defs>
<g transform="translate(588.81 691.33) scale(.1 -.1)">
<use xlink:href="#c"/>
<use x="63.623047" xlink:href="#d"/>
<use x="95.410156" xlink:href="#z"/>
</g>
</g>
<g clip-path="url(#a)">
<defs>
<path id="y" d="m10.984 1.5156v8.9844q3.7188-1.7656 7.5156-2.6875 3.8125-0.92188 7.4844-0.92188 9.7656 0 14.906 6.5625 5.1562 6.5625 5.8906 19.953-2.8281-4.2031-7.1875-6.4531-4.3438-2.25-9.6094-2.25-10.938 0-17.312 6.6094-6.375 6.625-6.375 18.109 0 11.219 6.6406 18 6.6406 6.7969 17.672 6.7969 12.656 0 19.312-9.7031 6.6719-9.6875 6.6719-28.141 0-17.234-8.1875-27.516-8.1719-10.281-21.984-10.281-3.7188 0-7.5312 0.73438-3.7969 0.73438-7.9062 2.2031zm19.625 30.906q6.6406 0 10.516 4.5312 3.8906 4.5469 3.8906 12.469 0 7.8594-3.8906 12.422-3.875 4.5625-10.516 4.5625t-10.516-4.5625-3.875-12.422q0-7.9219 3.875-12.469 3.875-4.5312 10.516-4.5312z"/>
</defs>
<g transform="translate(731.41 691.33) scale(.1 -.1)">
<use xlink:href="#c"/>
<use x="63.623047" xlink:href="#d"/>
<use x="95.410156" xlink:href="#y"/>
</g>
</g>
<g clip-path="url(#a)">
<defs>
<path id="ad" d="m31.781 66.406q-7.6094 0-11.453-7.5-3.8281-7.4844-3.8281-22.531 0-14.984 3.8281-22.484 3.8438-7.5 11.453-7.5 7.6719 0 11.5 7.5 3.8438 7.5 3.8438 22.484 0 15.047-3.8438 22.531-3.8281 7.5-11.5 7.5zm0 7.8125q12.266 0 18.734-9.7031 6.4688-9.6875 6.4688-28.141 0-18.406-6.4688-28.109-6.4688-9.6875-18.734-9.6875-12.25 0-18.719 9.6875-6.4688 9.7031-6.4688 28.109 0 18.453 6.4688 28.141 6.4688 9.7031 18.719 9.7031z"/>
</defs>
<g transform="translate(847.07 566.26) scale(.1 -.1)">
<use xlink:href="#c"/>
<use x="63.623047" xlink:href="#d"/>
<use x="95.410156" xlink:href="#c"/>
<use x="159.033203" xlink:href="#ad"/>
</g>
</g>
<g clip-path="url(#a)">
<g transform="translate(918.37 691.33) scale(.1 -.1)">
<use xlink:href="#c"/>
<use x="63.623047" xlink:href="#d"/>
<use x="95.410156" xlink:href="#c"/>
<use x="159.033203" xlink:href="#c"/>
</g>
</g>
<g clip-path="url(#a)">
<g transform="translate(1536.3 691.33) scale(.1 -.1)">
<use xlink:href="#c"/>
<use x="63.623047" xlink:href="#d"/>
<use x="95.410156" xlink:href="#c"/>
<use x="159.033203" xlink:href="#n"/>
</g>
</g>
<g clip-path="url(#a)">
<g transform="translate(62.747 691.33) scale(.1 -.1)">
<use xlink:href="#c"/>
<use x="63.623047" xlink:href="#d"/>
<use x="95.410156" xlink:href="#c"/>
<use x="159.033203" xlink:href="#m"/>
</g>
</g>
<g clip-path="url(#a)">
<g transform="translate(181.58 566.26) scale(.1 -.1)">
<use xlink:href="#c"/>
<use x="63.623047" xlink:href="#d"/>
<use x="95.410156" xlink:href="#c"/>
<use x="159.033203" xlink:href="#q"/>
</g>
</g>
<g clip-path="url(#a)">
<g transform="translate(205.35 691.33) scale(.1 -.1)">
<use xlink:href="#c"/>
<use x="63.623047" xlink:href="#d"/>
<use x="95.410156" xlink:href="#c"/>
<use x="159.033203" xlink:href="#ac"/>
</g>
</g>
<g clip-path="url(#a)">
<g transform="translate(347.95 691.33) scale(.1 -.1)">
<use xlink:href="#c"/>
<use x="63.623047" xlink:href="#d"/>
<use x="95.410156" xlink:href="#c"/>
<use x="159.033203" xlink:href="#ab"/>
</g>
</g>
<g clip-path="url(#a)">
<g transform="translate(395.49 691.33) scale(.1 -.1)">
<use xlink:href="#c"/>
<use x="63.623047" xlink:href="#d"/>
<use x="95.410156" xlink:href="#c"/>
<use x="159.033203" xlink:href="#aa"/>
</g>
</g>
<g clip-path="url(#a)">
<g transform="translate(514.33 566.26) scale(.1 -.1)">
<use xlink:href="#c"/>
<use x="63.623047" xlink:href="#d"/>
<use x="95.410156" xlink:href="#c"/>
<use x="159.033203" xlink:href="#z"/>
</g>
</g>
<g clip-path="url(#a)">
<g transform="translate(443.02 691.33) scale(.1 -.1)">
<use xlink:href="#c"/>
<use x="63.623047" xlink:href="#d"/>
<use x="95.410156" xlink:href="#c"/>
<use x="159.033203" xlink:href="#y"/>
</g>
</g>
<g clip-path="url(#a)">
<g transform="translate(538.09 566.26) scale(.1 -.1)">
<use xlink:href="#c"/>
<use x="63.623047" xlink:href="#d"/>
<use x="95.410156" xlink:href="#n"/>
<use x="159.033203" xlink:href="#ad"/>
</g>
</g>
<g clip-path="url(#a)">
<g transform="translate(490.56 691.33) scale(.1 -.1)">
<use xlink:href="#c"/>
<use x="63.623047" xlink:href="#d"/>
<use x="95.410156" xlink:href="#n"/>
<use x="159.033203" xlink:href="#c"/>
</g>
</g>
<g clip-path="url(#a)">
<g transform="translate(538.09 691.33) scale(.1 -.1)">
<use xlink:href="#c"/>
<use x="63.623047" xlink:href="#d"/>
<use x="95.410156" xlink:href="#n"/>
<use x="159.033203" xlink:href="#n"/>
</g>
</g>
<g clip-path="url(#a)">
<g transform="translate(656.93 566.26) scale(.1 -.1)">
<use xlink:href="#c"/>
<use x="63.623047" xlink:href="#d"/>
<use x="95.410156" xlink:href="#n"/>
<use x="159.033203" xlink:href="#m"/>
</g>
</g>
<g clip-path="url(#a)">
<g transform="translate(680.7 691.33) scale(.1 -.1)">
<use xlink:href="#c"/>
<use x="63.623047" xlink:href="#d"/>
<use x="95.410156" xlink:href="#n"/>
<use x="159.033203" xlink:href="#q"/>
</g>
</g>
<g clip-path="url(#a)">
<g transform="translate(775.77 691.33) scale(.1 -.1)">
<use xlink:href="#c"/>
<use x="63.623047" xlink:href="#d"/>
<use x="95.410156" xlink:href="#n"/>
<use x="159.033203" xlink:href="#ac"/>
</g>
</g>
<g clip-path="url(#a)">
<g transform="translate(823.3 691.33) scale(.1 -.1)">
<use xlink:href="#c"/>
<use x="63.623047" xlink:href="#d"/>
<use x="95.410156" xlink:href="#n"/>
<use x="159.033203" xlink:href="#ab"/>
</g>
</g>
<g clip-path="url(#a)">
<g transform="translate(870.84 691.33) scale(.1 -.1)">
<use xlink:href="#c"/>
<use x="63.623047" xlink:href="#d"/>
<use x="95.410156" xlink:href="#n"/>
<use x="159.033203" xlink:href="#aa"/>
</g>
</g>
<g clip-path="url(#a)">
<g transform="translate(1044.7 178.02) scale(.1 -.1)">
<use xlink:href="#c"/>
<use x="63.623047" xlink:href="#d"/>
<use x="95.410156" xlink:href="#n"/>
<use x="159.033203" xlink:href="#z"/>
</g>
</g>
<g clip-path="url(#a)">
<g transform="translate(1061 691.33) scale(.1 -.1)">
<use xlink:href="#c"/>
<use x="63.623047" xlink:href="#d"/>
<use x="95.410156" xlink:href="#n"/>
<use x="159.033203" xlink:href="#y"/>
</g>
</g>
<g clip-path="url(#a)">
<g transform="translate(157.82 691.33) scale(.1 -.1)">
<use xlink:href="#c"/>
<use x="63.623047" xlink:href="#d"/>
<use x="95.410156" xlink:href="#m"/>
<use x="159.033203" xlink:href="#ad"/>
</g>
</g>
<g clip-path="url(#a)">
<g transform="translate(633.16 691.33) scale(.1 -.1)">
<use xlink:href="#c"/>
<use x="63.623047" xlink:href="#d"/>
<use x="95.410156" xlink:href="#m"/>
<use x="159.033203" xlink:href="#c"/>
</g>
</g>
<g clip-path="url(#a)">
<g transform="translate(965.91 691.33) scale(.1 -.1)">
<use xlink:href="#c"/>
<use x="63.623047" xlink:href="#d"/>
<use x="95.410156" xlink:href="#m"/>
<use x="159.033203" xlink:href="#n"/>
</g>
</g>
<g clip-path="url(#a)">
<g transform="translate(1013.4 691.33) scale(.1 -.1)">
<use xlink:href="#c"/>
<use x="63.623047" xlink:href="#d"/>
<use x="95.410156" xlink:href="#m"/>
<use x="159.033203" xlink:href="#m"/>
</g>
</g>
<g clip-path="url(#a)">
<g transform="translate(1138.5 310.21) scale(.1 -.1)">
<use xlink:href="#c"/>
<use x="63.623047" xlink:href="#d"/>
<use x="95.410156" xlink:href="#m"/>
<use x="159.033203" xlink:href="#q"/>
</g>
</g>
<g clip-path="url(#a)">
<g transform="translate(1156 691.33) scale(.1 -.1)">
<use xlink:href="#c"/>
<use x="63.623047" xlink:href="#d"/>
<use x="95.410156" xlink:href="#m"/>
<use x="159.033203" xlink:href="#ac"/>
</g>
</g>
<g clip-path="url(#a)">
<g transform="translate(1108.5 691.33) scale(.1 -.1)">
<use xlink:href="#c"/>
<use x="63.623047" xlink:href="#d"/>
<use x="95.410156" xlink:href="#m"/>
<use x="159.033203" xlink:href="#ab"/>
</g>
</g>
<g clip-path="url(#a)">
<g transform="translate(1203.6 691.33) scale(.1 -.1)">
<use xlink:href="#c"/>
<use x="63.623047" xlink:href="#d"/>
<use x="95.410156" xlink:href="#m"/>
<use x="159.033203" xlink:href="#aa"/>
</g>
</g>
<g clip-path="url(#a)">
<g transform="translate(1258.2 439.46) scale(.1 -.1)">
<use xlink:href="#c"/>
<use x="63.623047" xlink:href="#d"/>
<use x="95.410156" xlink:href="#m"/>
<use x="159.033203" xlink:href="#z"/>
</g>
</g>
<g clip-path="url(#a)">
<g transform="translate(1251.1 691.33) scale(.1 -.1)">
<use xlink:href="#c"/>
<use x="63.623047" xlink:href="#d"/>
<use x="95.410156" xlink:href="#m"/>
<use x="159.033203" xlink:href="#y"/>
</g>
</g>
<g clip-path="url(#a)">
<g transform="translate(1298.6 691.33) scale(.1 -.1)">
<use xlink:href="#c"/>
<use x="63.623047" xlink:href="#d"/>
<use x="95.410156" xlink:href="#q"/>
<use x="159.033203" xlink:href="#ad"/>
</g>
</g>
<g clip-path="url(#a)">
<g transform="translate(1346.2 691.33) scale(.1 -.1)">
<use xlink:href="#c"/>
<use x="63.623047" xlink:href="#d"/>
<use x="95.410156" xlink:href="#q"/>
<use x="159.033203" xlink:href="#c"/>
</g>
</g>
<g clip-path="url(#a)">
<g transform="translate(1429.4 566.26) scale(.1 -.1)">
<use xlink:href="#c"/>
<use x="63.623047" xlink:href="#d"/>
<use x="95.410156" xlink:href="#q"/>
<use x="159.033203" xlink:href="#n"/>
</g>
</g>
<g clip-path="url(#a)">
<g transform="translate(1465 691.33) scale(.1 -.1)">
<use xlink:href="#c"/>
<use x="63.623047" xlink:href="#d"/>
<use x="95.410156" xlink:href="#q"/>
<use x="159.033203" xlink:href="#m"/>
</g>
</g>
<g clip-path="url(#a)">
<g transform="translate(1393.7 691.33) scale(.1 -.1)">
<use xlink:href="#c"/>
<use x="63.623047" xlink:href="#d"/>
<use x="95.410156" xlink:href="#q"/>
<use x="159.033203" xlink:href="#q"/>
</g>
</g>
<defs>
<clipPath id="a">
<rect width="1621.3" height="853.33"/>
</clipPath>
</defs>
</svg>
