<?xml version="1.0" encoding="UTF-8"?>
<!DOCTYPE svg  PUBLIC '-//W3C//DTD SVG 1.1//EN'  'http://www.w3.org/Graphics/SVG/1.1/DTD/svg11.dtd'>
<svg width="1976pt" height="1040pt" version="1.1" viewBox="0 0 1976 1040" xmlns="http://www.w3.org/2000/svg" xmlns:xlink="http://www.w3.org/1999/xlink">
<defs>
<style type="text/css">*{stroke-linecap:butt;stroke-linejoin:round;}</style>
</defs>
<path d="m0 1040h1976v-1040h-1976z" fill="#fff"/>
<g fill="none" stroke="#000">
<path d="m711 47.943-172.02 491.84" clip-path="url(#a)"/>
<path d="m711 47.943-621.03 832.37" clip-path="url(#a)"/>
<path d="m711 47.943-53.856 720.62" clip-path="url(#a)"/>
<path d="m711 47.943 324.26 832.37" clip-path="url(#a)"/>
<path d="m711 47.943 434.71 128.13" clip-path="url(#a)"/>
<path d="m711 47.943 87.939 720.62" clip-path="url(#a)"/>
<path d="m538.98 539.78-307.22 340.53" clip-path="url(#a)"/>
<path d="m538.98 539.78-401.75 340.53" clip-path="url(#a)"/>
<path d="m538.98 539.78-354.49 340.53" clip-path="url(#a)"/>
<path d="m538.98 539.78-212.69 115.48" clip-path="url(#a)"/>
<path d="m538.98 539.78-70.897 340.53" clip-path="url(#a)"/>
<path d="m538.98 539.78 1347 340.53" clip-path="url(#a)"/>
<path d="m231.76 880.31v111.75" clip-path="url(#a)"/>
<path d="m89.967 880.31v111.75" clip-path="url(#a)"/>
<path d="m137.23 880.31v111.75" clip-path="url(#a)"/>
<path d="m184.5 880.31v111.75" clip-path="url(#a)"/>
<path d="m326.29 655.26-47.265 225.05" clip-path="url(#a)"/>
<path d="m326.29 655.26 47.265 113.3" clip-path="url(#a)"/>
<path d="m279.03 880.31v111.75" clip-path="url(#a)"/>
<path d="m468.09 880.31v111.75" clip-path="url(#a)"/>
<path d="m657.15 768.56-47.265 111.75" clip-path="url(#a)"/>
<path d="m657.15 768.56-141.79 111.75" clip-path="url(#a)"/>
<path d="m657.15 768.56-94.53 111.75" clip-path="url(#a)"/>
<path d="m657.15 768.56v111.75" clip-path="url(#a)"/>
<path d="m657.15 768.56 283.59 111.75" clip-path="url(#a)"/>
<path d="m609.88 880.31v111.75" clip-path="url(#a)"/>
<path d="m1035.3 880.31v111.75" clip-path="url(#a)"/>
<path d="m1145.7 176.08 31.352 704.23" clip-path="url(#a)"/>
<path d="m1145.7 176.08-157.71 704.23" clip-path="url(#a)"/>
<path d="m1145.7 176.08-63.177 704.23" clip-path="url(#a)"/>
<path d="m1145.7 176.08-15.913 704.23" clip-path="url(#a)"/>
<path d="m1145.7 176.08 205.44 124.47" clip-path="url(#a)"/>
<path d="m1177.1 880.31v111.75" clip-path="url(#a)"/>
<path d="m1886 880.31v111.75" clip-path="url(#a)"/>
<path d="m373.56 768.56 47.265 111.75" clip-path="url(#a)"/>
<path d="m373.56 768.56-47.265 111.75" clip-path="url(#a)"/>
<path d="m373.56 768.56v111.75" clip-path="url(#a)"/>
<path d="m420.82 880.31v111.75" clip-path="url(#a)"/>
<path d="m515.35 880.31v111.75" clip-path="url(#a)"/>
<path d="m562.62 880.31v111.75" clip-path="url(#a)"/>
<path d="m657.15 880.31v111.75" clip-path="url(#a)"/>
<path d="m798.94 768.56 47.265 111.75" clip-path="url(#a)"/>
<path d="m798.94 768.56-94.53 111.75" clip-path="url(#a)"/>
<path d="m798.94 768.56-47.265 111.75" clip-path="url(#a)"/>
<path d="m798.94 768.56v111.75" clip-path="url(#a)"/>
<path d="m798.94 768.56 94.53 111.75" clip-path="url(#a)"/>
<path d="m846.21 880.31v111.75" clip-path="url(#a)"/>
<path d="m940.74 880.31v111.75" clip-path="url(#a)"/>
<path d="m988 880.31v111.75" clip-path="url(#a)"/>
<path d="m1082.5 880.31v111.75" clip-path="url(#a)"/>
<path d="m1129.8 880.31v111.75" clip-path="url(#a)"/>
<path d="m1351.2 300.54-79.563 579.77" clip-path="url(#a)"/>
<path d="m1351.2 300.54-103.19 468.02" clip-path="url(#a)"/>
<path d="m1351.2 300.54-32.298 579.77" clip-path="url(#a)"/>
<path d="m1351.2 300.54 14.967 579.77" clip-path="url(#a)"/>
<path d="m1351.2 300.54 200.09 121.12" clip-path="url(#a)"/>
<path d="m1271.6 880.31v111.75" clip-path="url(#a)"/>
<path d="m326.29 880.31v111.75" clip-path="url(#a)"/>
<path d="m373.56 880.31v111.75" clip-path="url(#a)"/>
<path d="m704.41 880.31v111.75" clip-path="url(#a)"/>
<path d="m751.68 880.31v111.75" clip-path="url(#a)"/>
<path d="m798.94 880.31v111.75" clip-path="url(#a)"/>
<path d="m893.47 880.31v111.75" clip-path="url(#a)"/>
<path d="m1248 768.56 23.632 111.75" clip-path="url(#a)" stroke-dasharray="3.7,1.6"/>
<path d="m1248 768.56-23.632 111.75" clip-path="url(#a)"/>
<path d="m1224.3 880.31v111.75" clip-path="url(#a)"/>
<path d="m1318.9 880.31v111.75" clip-path="url(#a)"/>
<path d="m1366.1 880.31v111.75" clip-path="url(#a)"/>
<path d="m1551.2 421.66-90.591 458.65" clip-path="url(#a)"/>
<path d="m1551.2 421.66-137.86 458.65" clip-path="url(#a)"/>
<path d="m1551.2 421.66-19.694 346.9" clip-path="url(#a)"/>
<path d="m1551.2 421.66 51.204 458.65" clip-path="url(#a)"/>
<path d="m1551.2 421.66 196.94 118.11" clip-path="url(#a)"/>
<path d="m1460.6 880.31v111.75" clip-path="url(#a)"/>
<path d="m1413.4 880.31v111.75" clip-path="url(#a)"/>
<path d="m1531.5 768.56 23.632 111.75" clip-path="url(#a)"/>
<path d="m1531.5 768.56-23.632 111.75" clip-path="url(#a)"/>
<path d="m1555.2 880.31v111.75" clip-path="url(#a)"/>
<path d="m1507.9 880.31v111.75" clip-path="url(#a)"/>
<path d="m1602.4 880.31v111.75" clip-path="url(#a)"/>
<path d="m1748.2 539.78-3.9387 340.53" clip-path="url(#a)"/>
<path d="m1748.2 539.78-74.836 228.79" clip-path="url(#a)"/>
<path d="m1748.2 539.78 78.775 115.48" clip-path="url(#a)"/>
<path d="m1744.2 880.31v111.75" clip-path="url(#a)"/>
<path d="m1673.3 768.56 23.632 111.75" clip-path="url(#a)"/>
<path d="m1673.3 768.56-23.632 111.75" clip-path="url(#a)"/>
<path d="m1697 880.31v111.75" clip-path="url(#a)"/>
<path d="m1827 655.26 11.816 225.05" clip-path="url(#a)"/>
<path d="m1827 655.26-11.816 113.3" clip-path="url(#a)"/>
<path d="m1838.8 880.31v111.75" clip-path="url(#a)"/>
<path d="m1649.7 880.31v111.75" clip-path="url(#a)"/>
<path d="m1815.1 768.56 23.632 111.75" clip-path="url(#a)" stroke-dasharray="3.7,1.6"/>
<path d="m1815.1 768.56-23.632 111.75" clip-path="url(#a)"/>
<path d="m1791.5 880.31v111.75" clip-path="url(#a)"/>
</g>
<path d="m629.92 298.77 1.9862-5.6789q0.79233-2.2654-1.4731-3.0578l-7.3084-2.5561q-2.2654-0.79233-3.0578 1.4731l-1.9862 5.6789q-0.79233 2.2654 1.4731 3.0578l7.3084 2.5561q2.2654 0.79233 3.0578-1.4731z" clip-path="url(#a)" fill="#fff" stroke="#fff"/>
<g clip-path="url(#a)">
<defs>
<path id="aa" d="m9.8125 72.906h9.8594v-29.891h35.844v29.891h9.8594v-72.906h-9.8594v34.719h-35.844v-34.719h-9.8594z"/>
</defs>
<g transform="translate(626.08 297.43) rotate(-70.723) scale(.08 -.08)">
<use xlink:href="#aa"/>
</g>
</g>
<path d="m404.18 469.66 2.6656-3.5727q1.4352-1.9236-0.48839-3.3588l-6.2056-4.63q-1.9236-1.4352-3.3588 0.48839l-2.6656 3.5727q-1.4352 1.9236 0.48839 3.3588l6.2056 4.63q1.9236 1.4352 3.3588-0.48839z" clip-path="url(#a)" fill="#fff" stroke="#fff"/>
<g clip-path="url(#a)">
<defs>
<path id="al" d="m9.8125 72.906h9.8594v-64.609h35.5v-8.2969h-45.359z"/>
</defs>
<g transform="translate(400.92 467.23) rotate(-53.273) scale(.08 -.08)">
<use xlink:href="#al"/>
</g>
</g>
<path d="m690.1 411.72 0.44838-5.9995q0.17887-2.3933-2.2145-2.5722l-7.721-0.57703q-2.3933-0.17886-2.5722 2.2145l-0.44838 5.9995q-0.17887 2.3933 2.2145 2.5722l7.721 0.57703q2.3933 0.17887 2.5722-2.2145z" clip-path="url(#a)" fill="#fff" stroke="#fff"/>
<g clip-path="url(#a)">
<g transform="translate(686.05 411.42) rotate(-85.726) scale(.08 -.08)">
<use xlink:href="#aa"/>
</g>
</g>
<path d="m866.48 464.33 1.6181 4.1535q0.87119 2.2363 3.1075 1.3651l7.2144-2.8105q2.2363-0.87119 1.3651-3.1075l-1.6181-4.1535q-0.87119-2.2363-3.1075-1.3651l-7.2144 2.8105q-2.2363 0.87119-1.3651 3.1075z" clip-path="url(#a)" fill="#fff" stroke="#fff"/>
<g clip-path="url(#a)">
<g transform="translate(870.27 462.85) rotate(68.716) scale(.08 -.08)">
<use xlink:href="#al"/>
</g>
</g>
<path d="m923.7 117.17 5.7708 1.701q2.3021 0.67855 2.9806-1.6235l2.189-7.4266q0.67855-2.3021-1.6235-2.9806l-5.7708-1.701q-2.3021-0.67855-2.9806 1.6235l-2.189 7.4266q-0.67855 2.3021 1.6235 2.9806z" clip-path="url(#a)" fill="#fff" stroke="#fff"/>
<g clip-path="url(#a)">
<g transform="translate(924.84 113.28) rotate(16.423) scale(.08 -.08)">
<use xlink:href="#aa"/>
</g>
</g>
<path d="m748.38 406.03 0.72877 5.9719q0.29072 2.3823 2.673 2.0916l7.6855-0.93788q2.3823-0.29072 2.0916-2.673l-0.72877-5.9719q-0.29072-2.3823-2.673-2.0916l-7.6855 0.93788q-2.3823 0.29072-2.0916 2.673z" clip-path="url(#a)" fill="#fff" stroke="#fff"/>
<g clip-path="url(#a)">
<g transform="translate(752.42 405.53) rotate(83.042) scale(.08 -.08)">
<use xlink:href="#aa"/>
</g>
</g>
<path d="m388.49 715.95 3.0822-3.4164q1.6077-1.782-0.17431-3.3896l-5.7487-5.1864q-1.782-1.6077-3.3896 0.17431l-3.0822 3.4164q-1.6077 1.782 0.17431 3.3896l5.7487 5.1864q1.782 1.6077 3.3896-0.17431z" clip-path="url(#a)" fill="#fff" stroke="#fff"/>
<g clip-path="url(#a)">
<defs>
<path id="ab" d="m9.8125 72.906h41.891v-8.3125h-32.031v-21.484h28.906v-8.2969h-28.906v-34.812h-9.8594z"/>
</defs>
<g transform="translate(385.47 713.23) rotate(-47.944) scale(.08 -.08)">
<use xlink:href="#ab"/>
</g>
</g>
<path d="m340.08 716.6 4.1746-3.5385q1.8308-1.5518 0.27898-3.3826l-5.0062-5.9062q-1.5518-1.8308-3.3826-0.27898l-4.1746 3.5385q-1.8308 1.5518-0.27898 3.3826l5.0062 5.9062q1.5518 1.8308 3.3826 0.27898z" clip-path="url(#a)" fill="#fff" stroke="#fff"/>
<g clip-path="url(#a)">
<defs>
<path id="r" d="m34.188 63.188-13.391-36.281h26.812zm-5.5781 9.7188h11.188l27.781-72.906h-10.25l-6.6406 18.703h-32.859l-6.6406-18.703h-10.406z"/>
</defs>
<g transform="translate(337.45 713.5) rotate(-40.285) scale(.08 -.08)">
<use xlink:href="#r"/>
</g>
</g>
<path d="m364.43 716.16 3.3182-3.1876q1.7308-1.6626 0.068132-3.3934l-5.3638-5.5836q-1.6626-1.7308-3.3934-0.068132l-3.3182 3.1876q-1.7308 1.6626-0.068132 3.3934l5.3638 5.5836q1.6626 1.7308 3.3934 0.068132z" clip-path="url(#a)" fill="#fff" stroke="#fff"/>
<g clip-path="url(#a)">
<g transform="translate(361.61 713.23) rotate(-43.85) scale(.08 -.08)">
<use xlink:href="#ab"/>
</g>
</g>
<path d="m433.23 604.34 4.8093-2.6113q2.1092-1.1452 0.96397-3.2543l-3.6944-6.8042q-1.1452-2.1092-3.2543-0.96397l-4.8093 2.6113q-2.1092 1.1452-0.96397 3.2543l3.6944 6.8042q1.1452 2.1092 3.2543 0.96397z" clip-path="url(#a)" fill="#fff" stroke="#fff"/>
<g clip-path="url(#a)">
<g transform="translate(431.29 600.77) rotate(-28.5) scale(.08 -.08)">
<use xlink:href="#r"/>
</g>
</g>
<path d="m509.12 714 1.1154-5.3576q0.48918-2.3496-1.8604-2.8388l-7.58-1.5781q-2.3496-0.48918-2.8388 1.8604l-1.1154 5.3576q-0.48918 2.3496 1.8604 2.8388l7.58 1.5781q2.3496 0.48918 2.8388-1.8604z" clip-path="url(#a)" fill="#fff" stroke="#fff"/>
<g clip-path="url(#a)">
<g transform="translate(505.14 713.17) rotate(-78.239) scale(.08 -.08)">
<use xlink:href="#r"/>
</g>
</g>
<path d="m1208.1 715.41 5.6764 1.435q2.3268 0.58821 2.915-1.7386l1.8976-7.5064q0.58821-2.3268-1.7386-2.915l-5.6764-1.435q-2.3268-0.58821-2.915 1.7386l-1.8976 7.5064q-0.58821 2.3268 1.7386 2.915z" clip-path="url(#a)" fill="#fff" stroke="#fff"/>
<g clip-path="url(#a)">
<defs>
<path id="z" d="m8.6875 72.906h9.9219v-44.297q0-11.719 4.2344-16.875 4.25-5.1406 13.781-5.1406 9.4688 0 13.719 5.1406 4.25 5.1562 4.25 16.875v44.297h9.9062v-45.516q0-14.25-7.0625-21.531-7.0469-7.2812-20.812-7.2812-13.828 0-20.891 7.2812-7.0469 7.2812-7.0469 21.531z"/>
</defs>
<g transform="translate(1209.1 711.47) rotate(14.187) scale(.08 -.08)">
<use xlink:href="#z"/>
</g>
</g>
<path d="m225.49 918.54v35.285q0 2.4 2.4 2.4h7.7425q2.4 0 2.4-2.4v-35.285q0-2.4-2.4-2.4h-7.7425q-2.4 0-2.4 2.4z" clip-path="url(#a)" fill="#fff" stroke="#fff"/>
<g clip-path="url(#a)">
<defs>
<path id="l" d="m-0.29688 72.906h61.672v-8.3125h-25.875v-64.594h-9.9062v64.594h-25.891z"/>
<path id="d" d="m56.203 29.594v-4.3906h-41.312q0.59375-9.2812 5.5938-14.141t13.938-4.8594q5.1719 0 10.031 1.2656t9.6562 3.8125v-8.5q-4.8438-2.0469-9.9219-3.125t-10.297-1.0781q-13.094 0-20.734 7.6094-7.6406 7.625-7.6406 20.625 0 13.422 7.25 21.297 7.25 7.8906 19.562 7.8906 11.031 0 17.453-7.1094 6.4219-7.0938 6.4219-19.297zm-8.9844 2.6406q-0.09375 7.3594-4.125 11.75-4.0312 4.4062-10.672 4.4062-7.5156 0-12.031-4.25t-5.2031-11.969z"/>
<path id="h" d="m41.109 46.297q-1.5156 0.875-3.2969 1.2812-1.7812 0.42188-3.9219 0.42188-7.625 0-11.703-4.9531t-4.0781-14.234v-28.812h-9.0312v54.688h9.0312v-8.5q2.8438 4.9844 7.375 7.3906 4.5469 2.4219 11.047 2.4219 0.92188 0 2.0469-0.125 1.125-0.10938 2.4844-0.35938z"/>
<path id="k" d="m52 44.188q3.375 6.0625 8.0625 8.9375t11.031 2.875q8.5469 0 13.188-5.9844 4.6406-5.9688 4.6406-17v-33.016h-9.0312v32.719q0 7.8594-2.7969 11.656-2.7812 3.8125-8.4844 3.8125-6.9844 0-11.047-4.6406-4.0469-4.625-4.0469-12.641v-30.906h-9.0312v32.719q0 7.9062-2.7812 11.688t-8.5938 3.7812q-6.8906 0-10.953-4.6562-4.0469-4.6562-4.0469-12.625v-30.906h-9.0312v54.688h9.0312v-8.5q3.0781 5.0312 7.375 7.4219t10.203 2.3906q5.9688 0 10.141-3.0312 4.1719-3.0156 6.1719-8.7812z"/>
<path id="i" d="m9.4219 54.688h8.9844v-54.688h-8.9844zm0 21.297h8.9844v-11.391h-8.9844z"/>
<path id="f" d="m54.891 33.016v-33.016h-8.9844v32.719q0 7.7656-3.0312 11.609-3.0312 3.8594-9.0781 3.8594-7.2812 0-11.484-4.6406-4.2031-4.625-4.2031-12.641v-30.906h-9.0312v54.688h9.0312v-8.5q3.2344 4.9375 7.5938 7.375 4.375 2.4375 10.094 2.4375 9.4219 0 14.25-5.8281 4.8438-5.8281 4.8438-17.156z"/>
<path id="g" d="m34.281 27.484q-10.891 0-15.094-2.4844t-4.2031-8.5q0-4.7812 3.1562-7.5938 3.1562-2.7969 8.5625-2.7969 7.4844 0 12 5.2969t4.5156 14.078v2zm17.922 3.7188v-31.203h-8.9844v8.2969q-3.0781-4.9688-7.6719-7.3438t-11.234-2.375q-8.3906 0-13.359 4.7188-4.9531 4.7188-4.9531 12.625 0 9.2188 6.1719 13.906 6.1875 4.6875 18.438 4.6875h12.609v0.89062q0 6.2031-4.0781 9.5938t-11.453 3.3906q-4.6875 0-9.1406-1.125-4.4375-1.125-8.5312-3.375v8.3125q4.9219 1.9062 9.5625 2.8438 4.6406 0.95312 9.0312 0.95312 11.875 0 17.734-6.1562 5.8594-6.1406 5.8594-18.641z"/>
<path id="j" d="m9.4219 75.984h8.9844v-75.984h-8.9844z"/>
</defs>
<g transform="translate(229.55 918.54) rotate(90) scale(.08 -.08)">
<use xlink:href="#l"/>
<use x="60.818359" xlink:href="#d"/>
<use x="122.341797" xlink:href="#h"/>
<use x="163.439453" xlink:href="#k"/>
<use x="260.851562" xlink:href="#i"/>
<use x="288.634766" xlink:href="#f"/>
<use x="352.013672" xlink:href="#g"/>
<use x="413.292969" xlink:href="#j"/>
</g>
</g>
<path d="m83.696 918.54v35.285q0 2.4 2.4 2.4h7.7425q2.4 0 2.4-2.4v-35.285q0-2.4-2.4-2.4h-7.7425q-2.4 0-2.4 2.4z" clip-path="url(#a)" fill="#fff" stroke="#fff"/>
<g clip-path="url(#a)">
<g transform="translate(87.76 918.54) rotate(90) scale(.08 -.08)">
<use xlink:href="#l"/>
<use x="60.818359" xlink:href="#d"/>
<use x="122.341797" xlink:href="#h"/>
<use x="163.439453" xlink:href="#k"/>
<use x="260.851562" xlink:href="#i"/>
<use x="288.634766" xlink:href="#f"/>
<use x="352.013672" xlink:href="#g"/>
<use x="413.292969" xlink:href="#j"/>
</g>
</g>
<path d="m130.96 918.54v35.285q0 2.4 2.4 2.4h7.7425q2.4 0 2.4-2.4v-35.285q0-2.4-2.4-2.4h-7.7425q-2.4 0-2.4 2.4z" clip-path="url(#a)" fill="#fff" stroke="#fff"/>
<g clip-path="url(#a)">
<g transform="translate(135.02 918.54) rotate(90) scale(.08 -.08)">
<use xlink:href="#l"/>
<use x="60.818359" xlink:href="#d"/>
<use x="122.341797" xlink:href="#h"/>
<use x="163.439453" xlink:href="#k"/>
<use x="260.851562" xlink:href="#i"/>
<use x="288.634766" xlink:href="#f"/>
<use x="352.013672" xlink:href="#g"/>
<use x="413.292969" xlink:href="#j"/>
</g>
</g>
<path d="m178.23 918.54v35.285q0 2.4 2.4 2.4h7.7425q2.4 0 2.4-2.4v-35.285q0-2.4-2.4-2.4h-7.7425q-2.4 0-2.4 2.4z" clip-path="url(#a)" fill="#fff" stroke="#fff"/>
<g clip-path="url(#a)">
<g transform="translate(182.29 918.54) rotate(90) scale(.08 -.08)">
<use xlink:href="#l"/>
<use x="60.818359" xlink:href="#d"/>
<use x="122.341797" xlink:href="#h"/>
<use x="163.439453" xlink:href="#k"/>
<use x="260.851562" xlink:href="#i"/>
<use x="288.634766" xlink:href="#f"/>
<use x="352.013672" xlink:href="#g"/>
<use x="413.292969" xlink:href="#j"/>
</g>
</g>
<path d="m308.22 771.81 1.1482-5.467q0.49329-2.3488-1.8555-2.842l-7.5772-1.5914q-2.3488-0.49329-2.842 1.8555l-1.1482 5.467q-0.49329 2.3488 1.8555 2.842l7.5772 1.5914q2.3488 0.49329 2.842-1.8555z" clip-path="url(#a)" fill="#fff" stroke="#fff"/>
<g clip-path="url(#a)">
<defs>
<path id="w" d="m64.406 67.281v-10.391q-4.9844 4.6406-10.625 6.9219-5.6406 2.2969-11.984 2.2969-12.5 0-19.141-7.6406t-6.6406-22.094q0-14.406 6.6406-22.047t19.141-7.6406q6.3438 0 11.984 2.2969t10.625 6.9375v-10.312q-5.1719-3.5156-10.969-5.2812-5.7812-1.75-12.219-1.75-16.562 0-26.094 10.125-9.5156 10.141-9.5156 27.672 0 17.578 9.5156 27.703 9.5312 10.141 26.094 10.141 6.5312 0 12.312-1.7344 5.7969-1.7344 10.875-5.2031z"/>
</defs>
<g transform="translate(304.25 770.97) rotate(-78.139) scale(.08 -.08)">
<use xlink:href="#w"/>
</g>
</g>
<path d="m343.16 711.99 1.9462 4.6653q0.92401 2.215 3.139 1.291l7.1457-2.9809q2.215-0.92401 1.291-3.139l-1.9462-4.6653q-0.92401-2.215-3.139-1.291l-7.1457 2.9809q-2.215 0.92401-1.291 3.139z" clip-path="url(#a)" fill="#fff" stroke="#fff"/>
<g clip-path="url(#a)">
<defs>
<path id="x" d="m9.8125 72.906h46.094v-8.3125h-36.234v-21.578h34.719v-8.2969h-34.719v-26.422h37.109v-8.2969h-46.969z"/>
</defs>
<g transform="translate(346.91 710.43) rotate(67.356) scale(.08 -.08)">
<use xlink:href="#x"/>
</g>
</g>
<path d="m272.76 918.54v35.285q0 2.4 2.4 2.4h7.7425q2.4 0 2.4-2.4v-35.285q0-2.4-2.4-2.4h-7.7425q-2.4 0-2.4 2.4z" clip-path="url(#a)" fill="#fff" stroke="#fff"/>
<g clip-path="url(#a)">
<g transform="translate(276.82 918.54) rotate(90) scale(.08 -.08)">
<use xlink:href="#l"/>
<use x="60.818359" xlink:href="#d"/>
<use x="122.341797" xlink:href="#h"/>
<use x="163.439453" xlink:href="#k"/>
<use x="260.851562" xlink:href="#i"/>
<use x="288.634766" xlink:href="#f"/>
<use x="352.013672" xlink:href="#g"/>
<use x="413.292969" xlink:href="#j"/>
</g>
</g>
<path d="m461.82 918.54v35.285q0 2.4 2.4 2.4h7.7425q2.4 0 2.4-2.4v-35.285q0-2.4-2.4-2.4h-7.7425q-2.4 0-2.4 2.4z" clip-path="url(#a)" fill="#fff" stroke="#fff"/>
<g clip-path="url(#a)">
<g transform="translate(465.88 918.54) rotate(90) scale(.08 -.08)">
<use xlink:href="#l"/>
<use x="60.818359" xlink:href="#d"/>
<use x="122.341797" xlink:href="#h"/>
<use x="163.439453" xlink:href="#k"/>
<use x="260.851562" xlink:href="#i"/>
<use x="288.634766" xlink:href="#f"/>
<use x="352.013672" xlink:href="#g"/>
<use x="413.292969" xlink:href="#j"/>
</g>
</g>
<path d="m638.2 829.45 2.1761-5.145q0.93492-2.2104-1.2755-3.1453l-7.1309-3.0161q-2.2104-0.93492-3.1453 1.2755l-2.1761 5.145q-0.93492 2.2104 1.2755 3.1453l7.1309 3.0161q2.2104 0.93492 3.1453-1.2755z" clip-path="url(#a)" fill="#fff" stroke="#fff"/>
<g clip-path="url(#a)">
<g transform="translate(634.46 827.87) rotate(-67.073) scale(.08 -.08)">
<use xlink:href="#w"/>
</g>
</g>
<path d="m587.83 831.17 4.5986-3.6241q1.885-1.4855 0.39944-3.3705l-4.7924-6.081q-1.4855-1.885-3.3705-0.39944l-4.5986 3.6241q-1.885 1.4855-0.39944 3.3705l4.7924 6.081q1.4855 1.885 3.3705 0.39944z" clip-path="url(#a)" fill="#fff" stroke="#fff"/>
<g clip-path="url(#a)">
<g transform="translate(585.32 827.98) rotate(-38.241) scale(.08 -.08)">
<use xlink:href="#z"/>
</g>
</g>
<path d="m613.18 830.24 2.9717-3.5129q1.55-1.8323-0.28232-3.3824l-5.9112-5.0004q-1.8323-1.55-3.3824 0.28232l-2.9717 3.5129q-1.55 1.8323 0.28232 3.3824l5.9112 5.0004q1.8323 1.55 3.3824-0.28232z" clip-path="url(#a)" fill="#fff" stroke="#fff"/>
<g clip-path="url(#a)">
<g transform="translate(610.08 827.62) rotate(-49.771) scale(.08 -.08)">
<use xlink:href="#ab"/>
</g>
</g>
<path d="m650.87 821.51v5.855q0 2.4 2.4 2.4h7.7425q2.4 0 2.4-2.4v-5.855q0-2.4-2.4-2.4h-7.7425q-2.4 0-2.4 2.4z" clip-path="url(#a)" fill="#fff" stroke="#fff"/>
<g clip-path="url(#a)">
<g transform="translate(654.94 821.51) rotate(90) scale(.08 -.08)">
<use xlink:href="#z"/>
</g>
</g>
<path d="m793.92 829.2 5.4473 2.1465q2.2329 0.87986 3.1128-1.353l2.8385-7.2034q0.87986-2.2329-1.353-3.1128l-5.4473-2.1465q-2.2329-0.87986-3.1128 1.353l-2.8385 7.2034q-0.87986 2.2329 1.353 3.1128z" clip-path="url(#a)" fill="#fff" stroke="#fff"/>
<g clip-path="url(#a)">
<g transform="translate(795.41 825.42) rotate(21.507) scale(.08 -.08)">
<use xlink:href="#z"/>
</g>
</g>
<path d="m603.61 918.54v35.285q0 2.4 2.4 2.4h7.7425q2.4 0 2.4-2.4v-35.285q0-2.4-2.4-2.4h-7.7425q-2.4 0-2.4 2.4z" clip-path="url(#a)" fill="#fff" stroke="#fff"/>
<g clip-path="url(#a)">
<g transform="translate(607.67 918.54) rotate(90) scale(.08 -.08)">
<use xlink:href="#l"/>
<use x="60.818359" xlink:href="#d"/>
<use x="122.341797" xlink:href="#h"/>
<use x="163.439453" xlink:href="#k"/>
<use x="260.851562" xlink:href="#i"/>
<use x="288.634766" xlink:href="#f"/>
<use x="352.013672" xlink:href="#g"/>
<use x="413.292969" xlink:href="#j"/>
</g>
</g>
<path d="m1029 918.54v35.285q0 2.4 2.4 2.4h7.7425q2.4 0 2.4-2.4v-35.285q0-2.4-2.4-2.4h-7.7425q-2.4 0-2.4 2.4z" clip-path="url(#a)" fill="#fff" stroke="#fff"/>
<g clip-path="url(#a)">
<g transform="translate(1033.1 918.54) rotate(90) scale(.08 -.08)">
<use xlink:href="#l"/>
<use x="60.818359" xlink:href="#d"/>
<use x="122.341797" xlink:href="#h"/>
<use x="163.439453" xlink:href="#k"/>
<use x="260.851562" xlink:href="#i"/>
<use x="288.634766" xlink:href="#f"/>
<use x="352.013672" xlink:href="#g"/>
<use x="413.292969" xlink:href="#j"/>
</g>
</g>
<path d="m1155 525.93 0.22588 5.0737q0.10674 2.3976 2.5044 2.2909l7.7348-0.34435q2.3976-0.10674 2.2909-2.5044l-0.22588-5.0737q-0.10674-2.3976-2.5044-2.2909l-7.7348 0.34435q-2.3976 0.10674-2.2909 2.5044z" clip-path="url(#a)" fill="#fff" stroke="#fff"/>
<g clip-path="url(#a)">
<defs>
<path id="aj" d="m53.516 70.516v-9.625q-5.6094 2.6875-10.594 4-4.9844 1.3281-9.625 1.3281-8.0469 0-12.422-3.125t-4.375-8.8906q0-4.8438 2.9062-7.3125 2.9062-2.4531 11.016-3.9688l5.9531-1.2188q11.031-2.1094 16.281-7.4062t5.25-14.172q0-10.609-7.1094-16.078-7.0938-5.4688-20.812-5.4688-5.1719 0-11.016 1.1719-5.8281 1.1719-12.078 3.4688v10.156q6-3.3594 11.766-5.0781 5.7656-1.7031 11.328-1.7031 8.4375 0 13.031 3.3125 4.5938 3.3281 4.5938 9.4844 0 5.3594-3.2969 8.3906t-10.812 4.5469l-6.0156 1.1719q-11.031 2.1875-15.969 6.875-4.9219 4.6875-4.9219 13.047 0 9.6719 6.8125 15.234t18.766 5.5625q5.1406 0 10.453-0.9375 5.3281-0.92188 10.891-2.7656z"/>
</defs>
<g transform="translate(1159.1 525.75) rotate(87.451) scale(.08 -.08)">
<use xlink:href="#aj"/>
</g>
</g>
<path d="m1072.3 532.42 1.2795-5.7135q0.52447-2.342-1.8175-2.8665l-7.5554-1.692q-2.342-0.52447-2.8665 1.8175l-1.2795 5.7135q-0.52447 2.342 1.8175 2.8665l7.5554 1.692q2.342 0.52447 2.8665-1.8175z" clip-path="url(#a)" fill="#fff" stroke="#fff"/>
<g clip-path="url(#a)">
<g transform="translate(1068.4 531.53) rotate(-77.377) scale(.08 -.08)">
<use xlink:href="#z"/>
</g>
</g>
<path d="m1120.1 531.48 0.48898-5.4506q0.21444-2.3904-2.176-2.6048l-7.7115-0.69181q-2.3904-0.21444-2.6048 2.176l-0.48898 5.4506q-0.21444 2.3904 2.176 2.6048l7.7115 0.69181q2.3904 0.21444 2.6048-2.176z" clip-path="url(#a)" fill="#fff" stroke="#fff"/>
<g clip-path="url(#a)">
<g transform="translate(1116.1 531.12) rotate(-84.874) scale(.08 -.08)">
<use xlink:href="#r"/>
</g>
</g>
<path d="m1144 530.63 0.10394-4.6001q0.054215-2.3994-2.3452-2.4536l-7.7405-0.1749q-2.3994-0.054216-2.4536 2.3452l-0.10394 4.6001q-0.054216 2.3994 2.3452 2.4536l7.7405 0.1749q2.3994 0.054216 2.4536-2.3452z" clip-path="url(#a)" fill="#fff" stroke="#fff"/>
<g clip-path="url(#a)">
<g transform="translate(1139.9 530.54) rotate(-88.706) scale(.08 -.08)">
<use xlink:href="#ab"/>
</g>
</g>
<path d="m1242.8 242.25 4.6805 2.8357q2.0527 1.2436 3.2963-0.80908l4.0119-6.622q1.2436-2.0527-0.80908-3.2963l-4.6805-2.8357q-2.0527-1.2436-3.2963 0.80908l-4.0119 6.622q-1.2436 2.0527 0.80908 3.2963z" clip-path="url(#a)" fill="#fff" stroke="#fff"/>
<g clip-path="url(#a)">
<g transform="translate(1244.9 238.78) rotate(31.209) scale(.08 -.08)">
<use xlink:href="#r"/>
</g>
</g>
<path d="m1170.8 918.54v35.285q0 2.4 2.4 2.4h7.7425q2.4 0 2.4-2.4v-35.285q0-2.4-2.4-2.4h-7.7425q-2.4 0-2.4 2.4z" clip-path="url(#a)" fill="#fff" stroke="#fff"/>
<g clip-path="url(#a)">
<g transform="translate(1174.9 918.54) rotate(90) scale(.08 -.08)">
<use xlink:href="#l"/>
<use x="60.818359" xlink:href="#d"/>
<use x="122.341797" xlink:href="#h"/>
<use x="163.439453" xlink:href="#k"/>
<use x="260.851562" xlink:href="#i"/>
<use x="288.634766" xlink:href="#f"/>
<use x="352.013672" xlink:href="#g"/>
<use x="413.292969" xlink:href="#j"/>
</g>
</g>
<path d="m1879.8 918.54v35.285q0 2.4 2.4 2.4h7.7425q2.4 0 2.4-2.4v-35.285q0-2.4-2.4-2.4h-7.7425q-2.4 0-2.4 2.4z" clip-path="url(#a)" fill="#fff" stroke="#fff"/>
<g clip-path="url(#a)">
<g transform="translate(1883.8 918.54) rotate(90) scale(.08 -.08)">
<use xlink:href="#l"/>
<use x="60.818359" xlink:href="#d"/>
<use x="122.341797" xlink:href="#h"/>
<use x="163.439453" xlink:href="#k"/>
<use x="260.851562" xlink:href="#i"/>
<use x="288.634766" xlink:href="#f"/>
<use x="352.013672" xlink:href="#g"/>
<use x="413.292969" xlink:href="#j"/>
</g>
</g>
<path d="m390.33 824.31 2.1761 5.145q0.93492 2.2104 3.1453 1.2755l7.1309-3.0161q2.2104-0.93492 1.2755-3.1453l-2.1761-5.145q-0.93492-2.2104-3.1453-1.2755l-7.1309 3.0161q-2.2104 0.93492-1.2755 3.1453z" clip-path="url(#a)" fill="#fff" stroke="#fff"/>
<g clip-path="url(#a)">
<g transform="translate(394.07 822.72) rotate(67.073) scale(.08 -.08)">
<use xlink:href="#w"/>
</g>
</g>
<path d="m354.62 829.44 2.1654-5.1196q0.93492-2.2104-1.2755-3.1453l-7.1309-3.0161q-2.2104-0.93492-3.1453 1.2755l-2.1654 5.1196q-0.93492 2.2104 1.2755 3.1453l7.1309 3.0161q2.2104 0.93492 3.1453-1.2755z" clip-path="url(#a)" fill="#fff" stroke="#fff"/>
<g clip-path="url(#a)">
<defs>
<path id="ap" d="m44.391 34.188q3.1719-1.0781 6.1719-4.5938t6.0312-9.6719l10.016-19.922h-10.609l-9.3125 18.703q-3.625 7.3281-7.0156 9.7188t-9.25 2.3906h-10.75v-30.812h-9.8594v72.906h22.266q12.5 0 18.656-5.2344 6.1562-5.2188 6.1562-15.766 0-6.8906-3.2031-11.438-3.2031-4.5312-9.2969-6.2812zm-24.719 30.609v-25.875h12.406q7.125 0 10.766 3.2969t3.6406 9.6875-3.6406 9.6406-10.766 3.25z"/>
</defs>
<g transform="translate(350.87 827.86) rotate(-67.073) scale(.08 -.08)">
<use xlink:href="#ap"/>
</g>
</g>
<path d="m367.29 821.91v5.055q0 2.4 2.4 2.4h7.7425q2.4 0 2.4-2.4v-5.055q0-2.4-2.4-2.4h-7.7425q-2.4 0-2.4 2.4z" clip-path="url(#a)" fill="#fff" stroke="#fff"/>
<g clip-path="url(#a)">
<g transform="translate(371.35 821.91) rotate(90) scale(.08 -.08)">
<use xlink:href="#x"/>
</g>
</g>
<path d="m414.55 918.54v35.285q0 2.4 2.4 2.4h7.7425q2.4 0 2.4-2.4v-35.285q0-2.4-2.4-2.4h-7.7425q-2.4 0-2.4 2.4z" clip-path="url(#a)" fill="#fff" stroke="#fff"/>
<g clip-path="url(#a)">
<g transform="translate(418.61 918.54) rotate(90) scale(.08 -.08)">
<use xlink:href="#l"/>
<use x="60.818359" xlink:href="#d"/>
<use x="122.341797" xlink:href="#h"/>
<use x="163.439453" xlink:href="#k"/>
<use x="260.851562" xlink:href="#i"/>
<use x="288.634766" xlink:href="#f"/>
<use x="352.013672" xlink:href="#g"/>
<use x="413.292969" xlink:href="#j"/>
</g>
</g>
<path d="m509.08 918.54v35.285q0 2.4 2.4 2.4h7.7425q2.4 0 2.4-2.4v-35.285q0-2.4-2.4-2.4h-7.7425q-2.4 0-2.4 2.4z" clip-path="url(#a)" fill="#fff" stroke="#fff"/>
<g clip-path="url(#a)">
<g transform="translate(513.14 918.54) rotate(90) scale(.08 -.08)">
<use xlink:href="#l"/>
<use x="60.818359" xlink:href="#d"/>
<use x="122.341797" xlink:href="#h"/>
<use x="163.439453" xlink:href="#k"/>
<use x="260.851562" xlink:href="#i"/>
<use x="288.634766" xlink:href="#f"/>
<use x="352.013672" xlink:href="#g"/>
<use x="413.292969" xlink:href="#j"/>
</g>
</g>
<path d="m556.34 918.54v35.285q0 2.4 2.4 2.4h7.7425q2.4 0 2.4-2.4v-35.285q0-2.4-2.4-2.4h-7.7425q-2.4 0-2.4 2.4z" clip-path="url(#a)" fill="#fff" stroke="#fff"/>
<g clip-path="url(#a)">
<g transform="translate(560.41 918.54) rotate(90) scale(.08 -.08)">
<use xlink:href="#l"/>
<use x="60.818359" xlink:href="#d"/>
<use x="122.341797" xlink:href="#h"/>
<use x="163.439453" xlink:href="#k"/>
<use x="260.851562" xlink:href="#i"/>
<use x="288.634766" xlink:href="#f"/>
<use x="352.013672" xlink:href="#g"/>
<use x="413.292969" xlink:href="#j"/>
</g>
</g>
<path d="m650.87 918.54v35.285q0 2.4 2.4 2.4h7.7425q2.4 0 2.4-2.4v-35.285q0-2.4-2.4-2.4h-7.7425q-2.4 0-2.4 2.4z" clip-path="url(#a)" fill="#fff" stroke="#fff"/>
<g clip-path="url(#a)">
<g transform="translate(654.94 918.54) rotate(90) scale(.08 -.08)">
<use xlink:href="#l"/>
<use x="60.818359" xlink:href="#d"/>
<use x="122.341797" xlink:href="#h"/>
<use x="163.439453" xlink:href="#k"/>
<use x="260.851562" xlink:href="#i"/>
<use x="288.634766" xlink:href="#f"/>
<use x="352.013672" xlink:href="#g"/>
<use x="413.292969" xlink:href="#j"/>
</g>
</g>
<path d="m815.86 824.66 1.8791 4.4427q0.93492 2.2104 3.1453 1.2755l7.1309-3.0161q2.2104-0.93492 1.2755-3.1453l-1.8791-4.4427q-0.93492-2.2104-3.1453-1.2755l-7.1309 3.0161q-2.2104 0.93492-1.2755 3.1453z" clip-path="url(#a)" fill="#fff" stroke="#fff"/>
<g clip-path="url(#a)">
<defs>
<path id="ak" d="m19.672 64.797v-27.391h12.406q6.8906 0 10.641 3.5625 3.7656 3.5625 3.7656 10.156 0 6.5469-3.7656 10.109-3.75 3.5625-10.641 3.5625zm-9.8594 8.1094h22.266q12.266 0 18.531-5.5469 6.2812-5.5469 6.2812-16.234 0-10.797-6.2812-16.312-6.2656-5.5156-18.531-5.5156h-12.406v-29.297h-9.8594z"/>
</defs>
<g transform="translate(819.6 823.08) rotate(67.073) scale(.08 -.08)">
<use xlink:href="#ak"/>
</g>
</g>
<path d="m754.7 830.58 3.5344-4.1781q1.55-1.8323-0.28232-3.3824l-5.9112-5.0004q-1.8323-1.55-3.3824 0.28232l-3.5344 4.1781q-1.55 1.8323 0.28232 3.3824l5.9112 5.0004q1.8323 1.55 3.3824-0.28232z" clip-path="url(#a)" fill="#fff" stroke="#fff"/>
<g clip-path="url(#a)">
<g transform="translate(751.59 827.95) rotate(-49.771) scale(.08 -.08)">
<use xlink:href="#r"/>
</g>
</g>
<path d="m780.19 829 1.7924-4.2378q0.93492-2.2104-1.2755-3.1453l-7.1309-3.0161q-2.2104-0.93492-3.1453 1.2755l-1.7924 4.2378q-0.93492 2.2104 1.2755 3.1453l7.1309 3.0161q2.2104 0.93492 3.1453-1.2755z" clip-path="url(#a)" fill="#fff" stroke="#fff"/>
<g clip-path="url(#a)">
<g transform="translate(776.44 827.42) rotate(-67.073) scale(.08 -.08)">
<use xlink:href="#ab"/>
</g>
</g>
<path d="m792.67 821.36v6.16q0 2.4 2.4 2.4h7.7425q2.4 0 2.4-2.4v-6.16q0-2.4-2.4-2.4h-7.7425q-2.4 0-2.4 2.4z" clip-path="url(#a)" fill="#fff" stroke="#fff"/>
<g clip-path="url(#a)">
<defs>
<path id="aw" d="m19.672 64.797v-56.688h11.922q15.094 0 22.094 6.8281 7 6.8438 7 21.594 0 14.641-7 21.453t-22.094 6.8125zm-9.8594 8.1094h20.266q21.188 0 31.094-8.8125 9.9219-8.8125 9.9219-27.562 0-18.859-9.9688-27.703-9.9531-8.8281-31.047-8.8281h-20.266z"/>
</defs>
<g transform="translate(796.73 821.36) rotate(90) scale(.08 -.08)">
<use xlink:href="#aw"/>
</g>
</g>
<path d="m839.65 826.4 3.5344 4.1781q1.55 1.8323 3.3824 0.28232l5.9112-5.0004q1.8323-1.55 0.28232-3.3824l-3.5344-4.1781q-1.55-1.8323-3.3824-0.28232l-5.9112 5.0004q-1.8323 1.55-0.28232 3.3824z" clip-path="url(#a)" fill="#fff" stroke="#fff"/>
<g clip-path="url(#a)">
<g transform="translate(842.75 823.77) rotate(49.771) scale(.08 -.08)">
<use xlink:href="#r"/>
</g>
</g>
<path d="m839.93 918.54v35.285q0 2.4 2.4 2.4h7.7425q2.4 0 2.4-2.4v-35.285q0-2.4-2.4-2.4h-7.7425q-2.4 0-2.4 2.4z" clip-path="url(#a)" fill="#fff" stroke="#fff"/>
<g clip-path="url(#a)">
<g transform="translate(844 918.54) rotate(90) scale(.08 -.08)">
<use xlink:href="#l"/>
<use x="60.818359" xlink:href="#d"/>
<use x="122.341797" xlink:href="#h"/>
<use x="163.439453" xlink:href="#k"/>
<use x="260.851562" xlink:href="#i"/>
<use x="288.634766" xlink:href="#f"/>
<use x="352.013672" xlink:href="#g"/>
<use x="413.292969" xlink:href="#j"/>
</g>
</g>
<path d="m934.46 918.54v35.285q0 2.4 2.4 2.4h7.7425q2.4 0 2.4-2.4v-35.285q0-2.4-2.4-2.4h-7.7425q-2.4 0-2.4 2.4z" clip-path="url(#a)" fill="#fff" stroke="#fff"/>
<g clip-path="url(#a)">
<g transform="translate(938.53 918.54) rotate(90) scale(.08 -.08)">
<use xlink:href="#l"/>
<use x="60.818359" xlink:href="#d"/>
<use x="122.341797" xlink:href="#h"/>
<use x="163.439453" xlink:href="#k"/>
<use x="260.851562" xlink:href="#i"/>
<use x="288.634766" xlink:href="#f"/>
<use x="352.013672" xlink:href="#g"/>
<use x="413.292969" xlink:href="#j"/>
</g>
</g>
<path d="m981.73 918.54v35.285q0 2.4 2.4 2.4h7.7425q2.4 0 2.4-2.4v-35.285q0-2.4-2.4-2.4h-7.7425q-2.4 0-2.4 2.4z" clip-path="url(#a)" fill="#fff" stroke="#fff"/>
<g clip-path="url(#a)">
<g transform="translate(985.79 918.54) rotate(90) scale(.08 -.08)">
<use xlink:href="#l"/>
<use x="60.818359" xlink:href="#d"/>
<use x="122.341797" xlink:href="#h"/>
<use x="163.439453" xlink:href="#k"/>
<use x="260.851562" xlink:href="#i"/>
<use x="288.634766" xlink:href="#f"/>
<use x="352.013672" xlink:href="#g"/>
<use x="413.292969" xlink:href="#j"/>
</g>
</g>
<path d="m1076.3 918.54v35.285q0 2.4 2.4 2.4h7.7425q2.4 0 2.4-2.4v-35.285q0-2.4-2.4-2.4h-7.7425q-2.4 0-2.4 2.4z" clip-path="url(#a)" fill="#fff" stroke="#fff"/>
<g clip-path="url(#a)">
<g transform="translate(1080.3 918.54) rotate(90) scale(.08 -.08)">
<use xlink:href="#l"/>
<use x="60.818359" xlink:href="#d"/>
<use x="122.341797" xlink:href="#h"/>
<use x="163.439453" xlink:href="#k"/>
<use x="260.851562" xlink:href="#i"/>
<use x="288.634766" xlink:href="#f"/>
<use x="352.013672" xlink:href="#g"/>
<use x="413.292969" xlink:href="#j"/>
</g>
</g>
<path d="m1123.5 918.54v35.285q0 2.4 2.4 2.4h7.7425q2.4 0 2.4-2.4v-35.285q0-2.4-2.4-2.4h-7.7425q-2.4 0-2.4 2.4z" clip-path="url(#a)" fill="#fff" stroke="#fff"/>
<g clip-path="url(#a)">
<g transform="translate(1127.6 918.54) rotate(90) scale(.08 -.08)">
<use xlink:href="#l"/>
<use x="60.818359" xlink:href="#d"/>
<use x="122.341797" xlink:href="#h"/>
<use x="163.439453" xlink:href="#k"/>
<use x="260.851562" xlink:href="#i"/>
<use x="288.634766" xlink:href="#f"/>
<use x="352.013672" xlink:href="#g"/>
<use x="413.292969" xlink:href="#j"/>
</g>
</g>
<path d="m1317.2 594.05 0.75949-5.5344q0.3263-2.3777-2.0514-2.704l-7.6706-1.0526q-2.3777-0.3263-2.704 2.0514l-0.75949 5.5344q-0.3263 2.3777 2.0514 2.704l7.6706 1.0526q2.3777 0.3263 2.704-2.0514z" clip-path="url(#a)" fill="#fff" stroke="#fff"/>
<g clip-path="url(#a)">
<g transform="translate(1313.2 593.49) rotate(-82.186) scale(.08 -.08)">
<use xlink:href="#w"/>
</g>
</g>
<path d="m1305.1 538.37 1.0884-4.9364q0.51677-2.3437-1.8269-2.8605l-7.5609-1.6671q-2.3437-0.51677-2.8605 1.8269l-1.0884 4.9364q-0.51677 2.3437 1.8269 2.8605l7.5609 1.6671q2.3437 0.51677 2.8605-1.8269z" clip-path="url(#a)" fill="#fff" stroke="#fff"/>
<g clip-path="url(#a)">
<g transform="translate(1301.2 537.5) rotate(-77.566) scale(.08 -.08)">
<use xlink:href="#x"/>
</g>
</g>
<path d="m1341.1 593.76 0.3329-5.9757q0.13349-2.3963-2.2628-2.5298l-7.7305-0.43065q-2.3963-0.13349-2.5298 2.2628l-0.3329 5.9757q-0.13349 2.3963 2.2628 2.5298l7.7305 0.43065q2.3963 0.13349 2.5298-2.2628z" clip-path="url(#a)" fill="#fff" stroke="#fff"/>
<g clip-path="url(#a)">
<defs>
<path id="aq" d="m9.8125 72.906h13.281l32.328-60.984v60.984h9.5625v-72.906h-13.281l-32.312 60.984v-60.984h-9.5781z"/>
</defs>
<g transform="translate(1337 593.54) rotate(-86.811) scale(.08 -.08)">
<use xlink:href="#aq"/>
</g>
</g>
<path d="m1352.3 587.8 0.14416 5.5844q0.061938 2.3992 2.4611 2.3373l7.7399-0.19981q2.3992-0.061937 2.3373-2.4611l-0.14417-5.5844q-0.061937-2.3992-2.4611-2.3373l-7.7399 0.19981q-2.3992 0.061937-2.3373 2.4611z" clip-path="url(#a)" fill="#fff" stroke="#fff"/>
<g clip-path="url(#a)">
<g transform="translate(1356.4 587.69) rotate(88.521) scale(.08 -.08)">
<use xlink:href="#w"/>
</g>
</g>
<path d="m1445.4 364.92 5.12 3.0993q2.0531 1.2428 3.296-0.81029l4.0095-6.6235q1.2428-2.0531-0.81029-3.296l-5.12-3.0993q-2.0531-1.2428-3.296 0.81029l-4.0095 6.6235q-1.2428 2.0531 0.81029 3.296z" clip-path="url(#a)" fill="#fff" stroke="#fff"/>
<g clip-path="url(#a)">
<g transform="translate(1447.5 361.44) rotate(31.188) scale(.08 -.08)">
<use xlink:href="#aq"/>
</g>
</g>
<path d="m1265.3 918.54v35.285q0 2.4 2.4 2.4h7.7425q2.4 0 2.4-2.4v-35.285q0-2.4-2.4-2.4h-7.7425q-2.4 0-2.4 2.4z" clip-path="url(#a)" fill="#fff" stroke="#fff"/>
<g clip-path="url(#a)">
<g transform="translate(1269.4 918.54) rotate(90) scale(.08 -.08)">
<use xlink:href="#l"/>
<use x="60.818359" xlink:href="#d"/>
<use x="122.341797" xlink:href="#h"/>
<use x="163.439453" xlink:href="#k"/>
<use x="260.851562" xlink:href="#i"/>
<use x="288.634766" xlink:href="#f"/>
<use x="352.013672" xlink:href="#g"/>
<use x="413.292969" xlink:href="#j"/>
</g>
</g>
<path d="m320.02 918.54v35.285q0 2.4 2.4 2.4h7.7425q2.4 0 2.4-2.4v-35.285q0-2.4-2.4-2.4h-7.7425q-2.4 0-2.4 2.4z" clip-path="url(#a)" fill="#fff" stroke="#fff"/>
<g clip-path="url(#a)">
<g transform="translate(324.08 918.54) rotate(90) scale(.08 -.08)">
<use xlink:href="#l"/>
<use x="60.818359" xlink:href="#d"/>
<use x="122.341797" xlink:href="#h"/>
<use x="163.439453" xlink:href="#k"/>
<use x="260.851562" xlink:href="#i"/>
<use x="288.634766" xlink:href="#f"/>
<use x="352.013672" xlink:href="#g"/>
<use x="413.292969" xlink:href="#j"/>
</g>
</g>
<path d="m367.29 918.54v35.285q0 2.4 2.4 2.4h7.7425q2.4 0 2.4-2.4v-35.285q0-2.4-2.4-2.4h-7.7425q-2.4 0-2.4 2.4z" clip-path="url(#a)" fill="#fff" stroke="#fff"/>
<g clip-path="url(#a)">
<g transform="translate(371.35 918.54) rotate(90) scale(.08 -.08)">
<use xlink:href="#l"/>
<use x="60.818359" xlink:href="#d"/>
<use x="122.341797" xlink:href="#h"/>
<use x="163.439453" xlink:href="#k"/>
<use x="260.851562" xlink:href="#i"/>
<use x="288.634766" xlink:href="#f"/>
<use x="352.013672" xlink:href="#g"/>
<use x="413.292969" xlink:href="#j"/>
</g>
</g>
<path d="m698.14 918.54v35.285q0 2.4 2.4 2.4h7.7425q2.4 0 2.4-2.4v-35.285q0-2.4-2.4-2.4h-7.7425q-2.4 0-2.4 2.4z" clip-path="url(#a)" fill="#fff" stroke="#fff"/>
<g clip-path="url(#a)">
<g transform="translate(702.2 918.54) rotate(90) scale(.08 -.08)">
<use xlink:href="#l"/>
<use x="60.818359" xlink:href="#d"/>
<use x="122.341797" xlink:href="#h"/>
<use x="163.439453" xlink:href="#k"/>
<use x="260.851562" xlink:href="#i"/>
<use x="288.634766" xlink:href="#f"/>
<use x="352.013672" xlink:href="#g"/>
<use x="413.292969" xlink:href="#j"/>
</g>
</g>
<path d="m745.4 918.54v35.285q0 2.4 2.4 2.4h7.7425q2.4 0 2.4-2.4v-35.285q0-2.4-2.4-2.4h-7.7425q-2.4 0-2.4 2.4z" clip-path="url(#a)" fill="#fff" stroke="#fff"/>
<g clip-path="url(#a)">
<g transform="translate(749.47 918.54) rotate(90) scale(.08 -.08)">
<use xlink:href="#l"/>
<use x="60.818359" xlink:href="#d"/>
<use x="122.341797" xlink:href="#h"/>
<use x="163.439453" xlink:href="#k"/>
<use x="260.851562" xlink:href="#i"/>
<use x="288.634766" xlink:href="#f"/>
<use x="352.013672" xlink:href="#g"/>
<use x="413.292969" xlink:href="#j"/>
</g>
</g>
<path d="m792.67 918.54v35.285q0 2.4 2.4 2.4h7.7425q2.4 0 2.4-2.4v-35.285q0-2.4-2.4-2.4h-7.7425q-2.4 0-2.4 2.4z" clip-path="url(#a)" fill="#fff" stroke="#fff"/>
<g clip-path="url(#a)">
<g transform="translate(796.73 918.54) rotate(90) scale(.08 -.08)">
<use xlink:href="#l"/>
<use x="60.818359" xlink:href="#d"/>
<use x="122.341797" xlink:href="#h"/>
<use x="163.439453" xlink:href="#k"/>
<use x="260.851562" xlink:href="#i"/>
<use x="288.634766" xlink:href="#f"/>
<use x="352.013672" xlink:href="#g"/>
<use x="413.292969" xlink:href="#j"/>
</g>
</g>
<path d="m887.2 918.54v35.285q0 2.4 2.4 2.4h7.7425q2.4 0 2.4-2.4v-35.285q0-2.4-2.4-2.4h-7.7425q-2.4 0-2.4 2.4z" clip-path="url(#a)" fill="#fff" stroke="#fff"/>
<g clip-path="url(#a)">
<g transform="translate(891.26 918.54) rotate(90) scale(.08 -.08)">
<use xlink:href="#l"/>
<use x="60.818359" xlink:href="#d"/>
<use x="122.341797" xlink:href="#h"/>
<use x="163.439453" xlink:href="#k"/>
<use x="260.851562" xlink:href="#i"/>
<use x="288.634766" xlink:href="#f"/>
<use x="352.013672" xlink:href="#g"/>
<use x="413.292969" xlink:href="#j"/>
</g>
</g>
<path d="m1253.1 823.06 1.1323 5.3541q0.49657 2.3481 2.8446 1.8515l7.575-1.602q2.3481-0.49657 1.8515-2.8446l-1.1323-5.3541q-0.49657-2.3481-2.8446-1.8515l-7.575 1.602q-2.3481 0.49657-1.8515 2.8446z" clip-path="url(#a)" fill="#fff" stroke="#fff"/>
<g clip-path="url(#a)">
<g transform="translate(1257 822.22) rotate(78.059) scale(.08 -.08)">
<use xlink:href="#r"/>
</g>
</g>
<path d="m1241.8 828.22 1.0508-4.9689q0.49657-2.3481-1.8515-2.8446l-7.575-1.602q-2.3481-0.49657-2.8446 1.8515l-1.0508 4.9689q-0.49657 2.3481 1.8515 2.8446l7.575 1.602q2.3481 0.49657 2.8446-1.8515z" clip-path="url(#a)" fill="#fff" stroke="#fff"/>
<g clip-path="url(#a)">
<g transform="translate(1237.8 827.38) rotate(-78.059) scale(.08 -.08)">
<use xlink:href="#aj"/>
</g>
</g>
<path d="m1218.1 918.54v35.285q0 2.4 2.4 2.4h7.7425q2.4 0 2.4-2.4v-35.285q0-2.4-2.4-2.4h-7.7425q-2.4 0-2.4 2.4z" clip-path="url(#a)" fill="#fff" stroke="#fff"/>
<g clip-path="url(#a)">
<g transform="translate(1222.1 918.54) rotate(90) scale(.08 -.08)">
<use xlink:href="#l"/>
<use x="60.818359" xlink:href="#d"/>
<use x="122.341797" xlink:href="#h"/>
<use x="163.439453" xlink:href="#k"/>
<use x="260.851562" xlink:href="#i"/>
<use x="288.634766" xlink:href="#f"/>
<use x="352.013672" xlink:href="#g"/>
<use x="413.292969" xlink:href="#j"/>
</g>
</g>
<path d="m1312.6 918.54v35.285q0 2.4 2.4 2.4h7.7425q2.4 0 2.4-2.4v-35.285q0-2.4-2.4-2.4h-7.7425q-2.4 0-2.4 2.4z" clip-path="url(#a)" fill="#fff" stroke="#fff"/>
<g clip-path="url(#a)">
<g transform="translate(1316.6 918.54) rotate(90) scale(.08 -.08)">
<use xlink:href="#l"/>
<use x="60.818359" xlink:href="#d"/>
<use x="122.341797" xlink:href="#h"/>
<use x="163.439453" xlink:href="#k"/>
<use x="260.851562" xlink:href="#i"/>
<use x="288.634766" xlink:href="#f"/>
<use x="352.013672" xlink:href="#g"/>
<use x="413.292969" xlink:href="#j"/>
</g>
</g>
<path d="m1359.8 918.54v35.285q0 2.4 2.4 2.4h7.7425q2.4 0 2.4-2.4v-35.285q0-2.4-2.4-2.4h-7.7425q-2.4 0-2.4 2.4z" clip-path="url(#a)" fill="#fff" stroke="#fff"/>
<g clip-path="url(#a)">
<g transform="translate(1363.9 918.54) rotate(90) scale(.08 -.08)">
<use xlink:href="#l"/>
<use x="60.818359" xlink:href="#d"/>
<use x="122.341797" xlink:href="#h"/>
<use x="163.439453" xlink:href="#k"/>
<use x="260.851562" xlink:href="#i"/>
<use x="288.634766" xlink:href="#f"/>
<use x="352.013672" xlink:href="#g"/>
<use x="413.292969" xlink:href="#j"/>
</g>
</g>
<path d="m1511.6 654.94 1.0825-5.4804q0.46506-2.3545-1.8895-2.8196l-7.5957-1.5003q-2.3545-0.46506-2.8196 1.8895l-1.0825 5.4804q-0.46506 2.3545 1.8895 2.8196l7.5958 1.5003q2.3545 0.46506 2.8196-1.8895z" clip-path="url(#a)" fill="#fff" stroke="#fff"/>
<g clip-path="url(#a)">
<g transform="translate(1507.6 654.15) rotate(-78.827) scale(.08 -.08)">
<use xlink:href="#w"/>
</g>
</g>
<path d="m1487.5 655.45 1.6001-5.3235q0.69084-2.2984-1.6076-2.9893l-7.4148-2.2287q-2.2984-0.69084-2.9893 1.6076l-1.6001 5.3235q-0.69084 2.2984 1.6076 2.9893l7.4148 2.2287q2.2984 0.69084 2.9893-1.6076z" clip-path="url(#a)" fill="#fff" stroke="#fff"/>
<g clip-path="url(#a)">
<g transform="translate(1483.6 654.28) rotate(-73.271) scale(.08 -.08)">
<use xlink:href="#ap"/>
</g>
</g>
<path d="m1547.5 597.99 0.28651-5.0469q0.13603-2.3961-2.2601-2.5322l-7.7301-0.43884q-2.3961-0.13603-2.5322 2.2601l-0.28651 5.0469q-0.13603 2.3961 2.2601 2.5322l7.7301 0.43884q2.3961 0.13603 2.5322-2.2601z" clip-path="url(#a)" fill="#fff" stroke="#fff"/>
<g clip-path="url(#a)">
<g transform="translate(1543.5 597.76) rotate(-86.751) scale(.08 -.08)">
<use xlink:href="#x"/>
</g>
</g>
<path d="m1570.4 649.47 0.49456 4.43q0.26628 2.3852 2.6515 2.1189l7.6947-0.85904q2.3852-0.26628 2.1189-2.6515l-0.49456-4.43q-0.26628-2.3852-2.6515-2.1189l-7.6947 0.85904q-2.3852 0.26628-2.1189 2.6515z" clip-path="url(#a)" fill="#fff" stroke="#fff"/>
<g clip-path="url(#a)">
<g transform="translate(1574.4 649.02) rotate(83.63) scale(.08 -.08)">
<use xlink:href="#al"/>
</g>
</g>
<path d="m1643.9 484.55 5.1594 3.0944q2.0582 1.2344 3.2926-0.82378l3.9823-6.6398q1.2344-2.0582-0.82378-3.2926l-5.1594-3.0944q-2.0582-1.2344-3.2926 0.82378l-3.9823 6.6398q-1.2344 2.0582 0.82378 3.2926z" clip-path="url(#a)" fill="#fff" stroke="#fff"/>
<g clip-path="url(#a)">
<g transform="translate(1646 481.07) rotate(30.954) scale(.08 -.08)">
<use xlink:href="#aa"/>
</g>
</g>
<path d="m1454.4 918.54v35.285q0 2.4 2.4 2.4h7.7425q2.4 0 2.4-2.4v-35.285q0-2.4-2.4-2.4h-7.7425q-2.4 0-2.4 2.4z" clip-path="url(#a)" fill="#fff" stroke="#fff"/>
<g clip-path="url(#a)">
<g transform="translate(1458.4 918.54) rotate(90) scale(.08 -.08)">
<use xlink:href="#l"/>
<use x="60.818359" xlink:href="#d"/>
<use x="122.341797" xlink:href="#h"/>
<use x="163.439453" xlink:href="#k"/>
<use x="260.851562" xlink:href="#i"/>
<use x="288.634766" xlink:href="#f"/>
<use x="352.013672" xlink:href="#g"/>
<use x="413.292969" xlink:href="#j"/>
</g>
</g>
<path d="m1407.1 918.54v35.285q0 2.4 2.4 2.4h7.7425q2.4 0 2.4-2.4v-35.285q0-2.4-2.4-2.4h-7.7425q-2.4 0-2.4 2.4z" clip-path="url(#a)" fill="#fff" stroke="#fff"/>
<g clip-path="url(#a)">
<g transform="translate(1411.2 918.54) rotate(90) scale(.08 -.08)">
<use xlink:href="#l"/>
<use x="60.818359" xlink:href="#d"/>
<use x="122.341797" xlink:href="#h"/>
<use x="163.439453" xlink:href="#k"/>
<use x="260.851562" xlink:href="#i"/>
<use x="288.634766" xlink:href="#f"/>
<use x="352.013672" xlink:href="#g"/>
<use x="413.292969" xlink:href="#j"/>
</g>
</g>
<path d="m1536.7 823.37 0.99806 4.7194q0.49657 2.3481 2.8446 1.8515l7.575-1.602q2.3481-0.49657 1.8515-2.8446l-0.99806-4.7194q-0.49657-2.3481-2.8446-1.8515l-7.575 1.602q-2.3481 0.49657-1.8515 2.8446z" clip-path="url(#a)" fill="#fff" stroke="#fff"/>
<g clip-path="url(#a)">
<g transform="translate(1540.7 822.53) rotate(78.059) scale(.08 -.08)">
<use xlink:href="#ak"/>
</g>
</g>
<path d="m1525.3 828.41 1.1323-5.3541q0.49657-2.3481-1.8515-2.8446l-7.575-1.602q-2.3481-0.49657-2.8446 1.8515l-1.1323 5.3541q-0.49657 2.3481 1.8515 2.8446l7.575 1.602q2.3481 0.49657 2.8446-1.8515z" clip-path="url(#a)" fill="#fff" stroke="#fff"/>
<g clip-path="url(#a)">
<g transform="translate(1521.3 827.57) rotate(-78.059) scale(.08 -.08)">
<use xlink:href="#r"/>
</g>
</g>
<path d="m1548.9 918.54v35.285q0 2.4 2.4 2.4h7.7425q2.4 0 2.4-2.4v-35.285q0-2.4-2.4-2.4h-7.7425q-2.4 0-2.4 2.4z" clip-path="url(#a)" fill="#fff" stroke="#fff"/>
<g clip-path="url(#a)">
<g transform="translate(1553 918.54) rotate(90) scale(.08 -.08)">
<use xlink:href="#l"/>
<use x="60.818359" xlink:href="#d"/>
<use x="122.341797" xlink:href="#h"/>
<use x="163.439453" xlink:href="#k"/>
<use x="260.851562" xlink:href="#i"/>
<use x="288.634766" xlink:href="#f"/>
<use x="352.013672" xlink:href="#g"/>
<use x="413.292969" xlink:href="#j"/>
</g>
</g>
<path d="m1501.6 918.54v35.285q0 2.4 2.4 2.4h7.7425q2.4 0 2.4-2.4v-35.285q0-2.4-2.4-2.4h-7.7425q-2.4 0-2.4 2.4z" clip-path="url(#a)" fill="#fff" stroke="#fff"/>
<g clip-path="url(#a)">
<g transform="translate(1505.7 918.54) rotate(90) scale(.08 -.08)">
<use xlink:href="#l"/>
<use x="60.818359" xlink:href="#d"/>
<use x="122.341797" xlink:href="#h"/>
<use x="163.439453" xlink:href="#k"/>
<use x="260.851562" xlink:href="#i"/>
<use x="288.634766" xlink:href="#f"/>
<use x="352.013672" xlink:href="#g"/>
<use x="413.292969" xlink:href="#j"/>
</g>
</g>
<path d="m1596.2 918.54v35.285q0 2.4 2.4 2.4h7.7425q2.4 0 2.4-2.4v-35.285q0-2.4-2.4-2.4h-7.7425q-2.4 0-2.4 2.4z" clip-path="url(#a)" fill="#fff" stroke="#fff"/>
<g clip-path="url(#a)">
<g transform="translate(1600.2 918.54) rotate(90) scale(.08 -.08)">
<use xlink:href="#l"/>
<use x="60.818359" xlink:href="#d"/>
<use x="122.341797" xlink:href="#h"/>
<use x="163.439453" xlink:href="#k"/>
<use x="260.851562" xlink:href="#i"/>
<use x="288.634766" xlink:href="#f"/>
<use x="352.013672" xlink:href="#g"/>
<use x="413.292969" xlink:href="#j"/>
</g>
</g>
<path d="m1752.5 712.53 0.05579-4.8234q0.027758-2.3998-2.3721-2.4276l-7.742-0.089547q-2.3998-0.027757-2.4276 2.3721l-0.05579 4.8234q-0.027757 2.3998 2.3721 2.4276l7.742 0.089547q2.3998 0.027757 2.4276-2.3721z" clip-path="url(#a)" fill="#fff" stroke="#fff"/>
<g clip-path="url(#a)">
<g transform="translate(1748.4 712.48) rotate(-89.337) scale(.08 -.08)">
<use xlink:href="#ak"/>
</g>
</g>
<path d="m1715.9 658.72 1.7014-5.2013q0.74614-2.2811-1.5349-3.0272l-7.3588-2.4071q-2.2811-0.74614-3.0272 1.5349l-1.7014 5.2013q-0.74614 2.2811 1.5349 3.0272l7.3588 2.4071q2.2811 0.74614 3.0272-1.5349z" clip-path="url(#a)" fill="#fff" stroke="#fff"/>
<g clip-path="url(#a)">
<g transform="translate(1712 657.46) rotate(-71.887) scale(.08 -.08)">
<use xlink:href="#r"/>
</g>
</g>
<path d="m1780.8 598.79 3.0838 4.5209q1.3524 1.9827 3.3351 0.63023l6.3961-4.363q1.9827-1.3524 0.63022-3.3351l-3.0838-4.5209q-1.3524-1.9827-3.3351-0.63023l-6.3961 4.363q-1.9827 1.3524-0.63022 3.3351z" clip-path="url(#a)" fill="#fff" stroke="#fff"/>
<g clip-path="url(#a)">
<g transform="translate(1784.2 596.5) rotate(55.701) scale(.08 -.08)">
<use xlink:href="#r"/>
</g>
</g>
<path d="m1738 918.54v35.285q0 2.4 2.4 2.4h7.7425q2.4 0 2.4-2.4v-35.285q0-2.4-2.4-2.4h-7.7425q-2.4 0-2.4 2.4z" clip-path="url(#a)" fill="#fff" stroke="#fff"/>
<g clip-path="url(#a)">
<g transform="translate(1742 918.54) rotate(90) scale(.08 -.08)">
<use xlink:href="#l"/>
<use x="60.818359" xlink:href="#d"/>
<use x="122.341797" xlink:href="#h"/>
<use x="163.439453" xlink:href="#k"/>
<use x="260.851562" xlink:href="#i"/>
<use x="288.634766" xlink:href="#f"/>
<use x="352.013672" xlink:href="#g"/>
<use x="413.292969" xlink:href="#j"/>
</g>
</g>
<path d="m1678.4 823 1.1558 5.4654q0.49657 2.3481 2.8446 1.8515l7.575-1.602q2.3481-0.49657 1.8515-2.8446l-1.1558-5.4654q-0.49657-2.3481-2.8446-1.8515l-7.575 1.602q-2.3481 0.49657-1.8515 2.8446z" clip-path="url(#a)" fill="#fff" stroke="#fff"/>
<g clip-path="url(#a)">
<g transform="translate(1682.4 822.16) rotate(78.059) scale(.08 -.08)">
<use xlink:href="#w"/>
</g>
</g>
<path d="m1667.1 828.21 1.0459-4.9456q0.49657-2.3481-1.8515-2.8446l-7.575-1.602q-2.3481-0.49657-2.8446 1.8515l-1.0459 4.9456q-0.49657 2.3481 1.8515 2.8446l7.575 1.602q2.3481 0.49657 2.8446-1.8515z" clip-path="url(#a)" fill="#fff" stroke="#fff"/>
<g clip-path="url(#a)">
<g transform="translate(1663.2 827.37) rotate(-78.059) scale(.08 -.08)">
<use xlink:href="#x"/>
</g>
</g>
<path d="m1690.7 918.54v35.285q0 2.4 2.4 2.4h7.7425q2.4 0 2.4-2.4v-35.285q0-2.4-2.4-2.4h-7.7425q-2.4 0-2.4 2.4z" clip-path="url(#a)" fill="#fff" stroke="#fff"/>
<g clip-path="url(#a)">
<g transform="translate(1694.8 918.54) rotate(90) scale(.08 -.08)">
<use xlink:href="#l"/>
<use x="60.818359" xlink:href="#d"/>
<use x="122.341797" xlink:href="#h"/>
<use x="163.439453" xlink:href="#k"/>
<use x="260.851562" xlink:href="#i"/>
<use x="288.634766" xlink:href="#f"/>
<use x="352.013672" xlink:href="#g"/>
<use x="413.292969" xlink:href="#j"/>
</g>
</g>
<path d="m1826.5 765.33 0.2929 5.5786q0.12584 2.3967 2.5225 2.2709l7.7318-0.40596q2.3967-0.12584 2.2709-2.5225l-0.2929-5.5786q-0.12584-2.3967-2.5225-2.2709l-7.7318 0.40596q-2.3967 0.12584-2.2709 2.5225z" clip-path="url(#a)" fill="#fff" stroke="#fff"/>
<g clip-path="url(#a)">
<g transform="translate(1830.5 765.11) rotate(86.994) scale(.08 -.08)">
<use xlink:href="#w"/>
</g>
</g>
<path d="m1827 715.08 0.52434-5.0277q0.24894-2.3871-2.1381-2.636l-7.7007-0.80311q-2.3871-0.24895-2.636 2.1381l-0.52434 5.0277q-0.24894 2.3871 2.1381 2.636l7.7007 0.80311q2.3871 0.24895 2.636-2.1381z" clip-path="url(#a)" fill="#fff" stroke="#fff"/>
<g clip-path="url(#a)">
<g transform="translate(1823 714.65) rotate(-84.046) scale(.08 -.08)">
<use xlink:href="#x"/>
</g>
</g>
<path d="m1832.5 918.54v35.285q0 2.4 2.4 2.4h7.7425q2.4 0 2.4-2.4v-35.285q0-2.4-2.4-2.4h-7.7425q-2.4 0-2.4 2.4z" clip-path="url(#a)" fill="#fff" stroke="#fff"/>
<g clip-path="url(#a)">
<g transform="translate(1836.6 918.54) rotate(90) scale(.08 -.08)">
<use xlink:href="#l"/>
<use x="60.818359" xlink:href="#d"/>
<use x="122.341797" xlink:href="#h"/>
<use x="163.439453" xlink:href="#k"/>
<use x="260.851562" xlink:href="#i"/>
<use x="288.634766" xlink:href="#f"/>
<use x="352.013672" xlink:href="#g"/>
<use x="413.292969" xlink:href="#j"/>
</g>
</g>
<path d="m1643.4 918.54v35.285q0 2.4 2.4 2.4h7.7425q2.4 0 2.4-2.4v-35.285q0-2.4-2.4-2.4h-7.7425q-2.4 0-2.4 2.4z" clip-path="url(#a)" fill="#fff" stroke="#fff"/>
<g clip-path="url(#a)">
<g transform="translate(1647.5 918.54) rotate(90) scale(.08 -.08)">
<use xlink:href="#l"/>
<use x="60.818359" xlink:href="#d"/>
<use x="122.341797" xlink:href="#h"/>
<use x="163.439453" xlink:href="#k"/>
<use x="260.851562" xlink:href="#i"/>
<use x="288.634766" xlink:href="#f"/>
<use x="352.013672" xlink:href="#g"/>
<use x="413.292969" xlink:href="#j"/>
</g>
</g>
<path d="m1820.2 823.06 1.1323 5.3541q0.49657 2.3481 2.8446 1.8515l7.575-1.602q2.3481-0.49657 1.8515-2.8446l-1.1323-5.3541q-0.49657-2.3481-2.8446-1.8515l-7.575 1.602q-2.3481 0.49657-1.8515 2.8446z" clip-path="url(#a)" fill="#fff" stroke="#fff"/>
<g clip-path="url(#a)">
<g transform="translate(1824.2 822.22) rotate(78.059) scale(.08 -.08)">
<use xlink:href="#r"/>
</g>
</g>
<path d="m1808.9 828.22 1.0508-4.9689q0.49657-2.3481-1.8515-2.8446l-7.575-1.602q-2.3481-0.49657-2.8446 1.8515l-1.0508 4.9689q-0.49657 2.3481 1.8515 2.8446l7.575 1.602q2.3481 0.49657 2.8446-1.8515z" clip-path="url(#a)" fill="#fff" stroke="#fff"/>
<g clip-path="url(#a)">
<g transform="translate(1805 827.38) rotate(-78.059) scale(.08 -.08)">
<use xlink:href="#aj"/>
</g>
</g>
<path d="m1785.2 918.54v35.285q0 2.4 2.4 2.4h7.7425q2.4 0 2.4-2.4v-35.285q0-2.4-2.4-2.4h-7.7425q-2.4 0-2.4 2.4z" clip-path="url(#a)" fill="#fff" stroke="#fff"/>
<g clip-path="url(#a)">
<g transform="translate(1789.3 918.54) rotate(90) scale(.08 -.08)">
<use xlink:href="#l"/>
<use x="60.818359" xlink:href="#d"/>
<use x="122.341797" xlink:href="#h"/>
<use x="163.439453" xlink:href="#k"/>
<use x="260.851562" xlink:href="#i"/>
<use x="288.634766" xlink:href="#f"/>
<use x="352.013672" xlink:href="#g"/>
<use x="413.292969" xlink:href="#j"/>
</g>
</g>
<defs>
<path id="b" d="m0 8.6603c2.2967 0 4.4997-0.9125 6.1237-2.5365 1.624-1.624 2.5365-3.827 2.5365-6.1237s-0.9125-4.4997-2.5365-6.1237c-1.624-1.624-3.827-2.5365-6.1237-2.5365s-4.4997 0.9125-6.1237 2.5365c-1.624 1.624-2.5365 3.827-2.5365 6.1237s0.9125 4.4997 2.5365 6.1237c1.624 1.624 3.827 2.5365 6.1237 2.5365z"/>
</defs>
<g clip-path="url(#a)">
<use x="89.967329" y="992.057286" fill="#ffffff" stroke="#ffffff" xlink:href="#b"/>
</g>
<g clip-path="url(#a)">
<use x="137.232206" y="992.057286" fill="#ffffff" stroke="#ffffff" xlink:href="#b"/>
</g>
<g clip-path="url(#a)">
<use x="184.497084" y="992.057286" fill="#ffffff" stroke="#ffffff" xlink:href="#b"/>
</g>
<g clip-path="url(#a)">
<use x="231.761961" y="992.057286" fill="#ffffff" stroke="#ffffff" xlink:href="#b"/>
</g>
<g clip-path="url(#a)">
<use x="279.026839" y="992.057286" fill="#ffffff" stroke="#ffffff" xlink:href="#b"/>
</g>
<g clip-path="url(#a)">
<use x="326.291716" y="992.057286" fill="#ffffff" stroke="#ffffff" xlink:href="#b"/>
</g>
<g clip-path="url(#a)">
<use x="373.556593" y="992.057286" fill="#ffffff" stroke="#ffffff" xlink:href="#b"/>
</g>
<g clip-path="url(#a)">
<use x="420.821471" y="992.057286" fill="#ffffff" stroke="#ffffff" xlink:href="#b"/>
</g>
<g clip-path="url(#a)">
<use x="468.086348" y="992.057286" fill="#ffffff" stroke="#ffffff" xlink:href="#b"/>
</g>
<g clip-path="url(#a)">
<use x="515.351226" y="992.057286" fill="#ffffff" stroke="#ffffff" xlink:href="#b"/>
</g>
<g clip-path="url(#a)">
<use x="562.616103" y="992.057286" fill="#ffffff" stroke="#ffffff" xlink:href="#b"/>
</g>
<g clip-path="url(#a)">
<use x="609.880981" y="992.057286" fill="#ffffff" stroke="#ffffff" xlink:href="#b"/>
</g>
<g clip-path="url(#a)">
<use x="657.145858" y="992.057286" fill="#ffffff" stroke="#ffffff" xlink:href="#b"/>
</g>
<g clip-path="url(#a)">
<use x="704.410735" y="992.057286" fill="#ffffff" stroke="#ffffff" xlink:href="#b"/>
</g>
<g clip-path="url(#a)">
<use x="751.675613" y="992.057286" fill="#ffffff" stroke="#ffffff" xlink:href="#b"/>
</g>
<g clip-path="url(#a)">
<use x="798.94049" y="992.057286" fill="#ffffff" stroke="#ffffff" xlink:href="#b"/>
</g>
<g clip-path="url(#a)">
<use x="846.205368" y="992.057286" fill="#ffffff" stroke="#ffffff" xlink:href="#b"/>
</g>
<g clip-path="url(#a)">
<use x="893.470245" y="992.057286" fill="#ffffff" stroke="#ffffff" xlink:href="#b"/>
</g>
<g clip-path="url(#a)">
<use x="940.735123" y="992.057286" fill="#ffffff" stroke="#ffffff" xlink:href="#b"/>
</g>
<g clip-path="url(#a)">
<use x="988" y="992.057286" fill="#ffffff" stroke="#ffffff" xlink:href="#b"/>
</g>
<g clip-path="url(#a)">
<use x="1035.264877" y="992.057286" fill="#ffffff" stroke="#ffffff" xlink:href="#b"/>
</g>
<g clip-path="url(#a)">
<use x="1082.529755" y="992.057286" fill="#ffffff" stroke="#ffffff" xlink:href="#b"/>
</g>
<g clip-path="url(#a)">
<use x="1129.794632" y="992.057286" fill="#ffffff" stroke="#ffffff" xlink:href="#b"/>
</g>
<g clip-path="url(#a)">
<use x="1177.05951" y="992.057286" fill="#ffffff" stroke="#ffffff" xlink:href="#b"/>
</g>
<g clip-path="url(#a)">
<use x="1224.324387" y="992.057286" fill="#ffffff" stroke="#ffffff" xlink:href="#b"/>
</g>
<g clip-path="url(#a)">
<use x="1271.589265" y="992.057286" fill="#ffffff" stroke="#ffffff" xlink:href="#b"/>
</g>
<g clip-path="url(#a)">
<use x="1318.854142" y="992.057286" fill="#ffffff" stroke="#ffffff" xlink:href="#b"/>
</g>
<g clip-path="url(#a)">
<use x="1366.119019" y="992.057286" fill="#ffffff" stroke="#ffffff" xlink:href="#b"/>
</g>
<g clip-path="url(#a)">
<use x="1413.383897" y="992.057286" fill="#ffffff" stroke="#ffffff" xlink:href="#b"/>
</g>
<g clip-path="url(#a)">
<use x="1460.648774" y="992.057286" fill="#ffffff" stroke="#ffffff" xlink:href="#b"/>
</g>
<g clip-path="url(#a)">
<use x="1507.913652" y="992.057286" fill="#ffffff" stroke="#ffffff" xlink:href="#b"/>
</g>
<g clip-path="url(#a)">
<use x="1555.178529" y="992.057286" fill="#ffffff" stroke="#ffffff" xlink:href="#b"/>
</g>
<g clip-path="url(#a)">
<use x="1602.443407" y="992.057286" fill="#ffffff" stroke="#ffffff" xlink:href="#b"/>
</g>
<g clip-path="url(#a)">
<use x="1649.708284" y="992.057286" fill="#ffffff" stroke="#ffffff" xlink:href="#b"/>
</g>
<g clip-path="url(#a)">
<use x="1696.973161" y="992.057286" fill="#ffffff" stroke="#ffffff" xlink:href="#b"/>
</g>
<g clip-path="url(#a)">
<use x="1744.238039" y="992.057286" fill="#ffffff" stroke="#ffffff" xlink:href="#b"/>
</g>
<g clip-path="url(#a)">
<use x="1791.502916" y="992.057286" fill="#ffffff" stroke="#ffffff" xlink:href="#b"/>
</g>
<g clip-path="url(#a)">
<use x="1838.767794" y="992.057286" fill="#ffffff" stroke="#ffffff" xlink:href="#b"/>
</g>
<g clip-path="url(#a)">
<use x="1886.032671" y="992.057286" fill="#ffffff" stroke="#ffffff" xlink:href="#b"/>
</g>
<g clip-path="url(#a)">
<use x="711.00156" y="47.942714" fill="#ffffff" stroke="#ffffff" xlink:href="#b"/>
</g>
<g clip-path="url(#a)">
<use x="538.983664" y="539.777841" fill="#ffffff" stroke="#ffffff" xlink:href="#b"/>
</g>
<g clip-path="url(#a)">
<use x="231.761961" y="880.310115" fill="#ffffff" stroke="#ffffff" xlink:href="#b"/>
</g>
<g clip-path="url(#a)">
<use x="89.967329" y="880.310115" fill="#ffffff" stroke="#ffffff" xlink:href="#b"/>
</g>
<g clip-path="url(#a)">
<use x="137.232206" y="880.310115" fill="#ffffff" stroke="#ffffff" xlink:href="#b"/>
</g>
<g clip-path="url(#a)">
<use x="184.497084" y="880.310115" fill="#ffffff" stroke="#ffffff" xlink:href="#b"/>
</g>
<g clip-path="url(#a)">
<use x="326.291716" y="655.261247" fill="#ffffff" stroke="#ffffff" xlink:href="#b"/>
</g>
<g clip-path="url(#a)">
<use x="279.026839" y="880.310115" fill="#ffffff" stroke="#ffffff" xlink:href="#b"/>
</g>
<g clip-path="url(#a)">
<use x="468.086348" y="880.310115" fill="#ffffff" stroke="#ffffff" xlink:href="#b"/>
</g>
<g clip-path="url(#a)">
<use x="657.145858" y="768.562944" fill="#ffffff" stroke="#ffffff" xlink:href="#b"/>
</g>
<g clip-path="url(#a)">
<use x="609.880981" y="880.310115" fill="#ffffff" stroke="#ffffff" xlink:href="#b"/>
</g>
<g clip-path="url(#a)">
<use x="1035.264877" y="880.310115" fill="#ffffff" stroke="#ffffff" xlink:href="#b"/>
</g>
<g clip-path="url(#a)">
<use x="1145.707141" y="176.075204" fill="#ffffff" stroke="#ffffff" xlink:href="#b"/>
</g>
<g clip-path="url(#a)">
<use x="1177.05951" y="880.310115" fill="#ffffff" stroke="#ffffff" xlink:href="#b"/>
</g>
<g clip-path="url(#a)">
<use x="1886.032671" y="880.310115" fill="#ffffff" stroke="#ffffff" xlink:href="#b"/>
</g>
<g clip-path="url(#a)">
<use x="373.556593" y="768.562944" fill="#ffffff" stroke="#ffffff" xlink:href="#b"/>
</g>
<g clip-path="url(#a)">
<use x="420.821471" y="880.310115" fill="#ffffff" stroke="#ffffff" xlink:href="#b"/>
</g>
<g clip-path="url(#a)">
<use x="515.351226" y="880.310115" fill="#ffffff" stroke="#ffffff" xlink:href="#b"/>
</g>
<g clip-path="url(#a)">
<use x="562.616103" y="880.310115" fill="#ffffff" stroke="#ffffff" xlink:href="#b"/>
</g>
<g clip-path="url(#a)">
<use x="657.145858" y="880.310115" fill="#ffffff" stroke="#ffffff" xlink:href="#b"/>
</g>
<g clip-path="url(#a)">
<use x="798.94049" y="768.562944" fill="#ffffff" stroke="#ffffff" xlink:href="#b"/>
</g>
<g clip-path="url(#a)">
<use x="846.205368" y="880.310115" fill="#ffffff" stroke="#ffffff" xlink:href="#b"/>
</g>
<g clip-path="url(#a)">
<use x="940.735123" y="880.310115" fill="#ffffff" stroke="#ffffff" xlink:href="#b"/>
</g>
<g clip-path="url(#a)">
<use x="988" y="880.310115" fill="#ffffff" stroke="#ffffff" xlink:href="#b"/>
</g>
<g clip-path="url(#a)">
<use x="1082.529755" y="880.310115" fill="#ffffff" stroke="#ffffff" xlink:href="#b"/>
</g>
<g clip-path="url(#a)">
<use x="1129.794632" y="880.310115" fill="#ffffff" stroke="#ffffff" xlink:href="#b"/>
</g>
<g clip-path="url(#a)">
<use x="1351.151808" y="300.541821" fill="#ffffff" stroke="#ffffff" xlink:href="#b"/>
</g>
<g clip-path="url(#a)">
<use x="1271.589265" y="880.310115" fill="#ffffff" stroke="#ffffff" xlink:href="#b"/>
</g>
<g clip-path="url(#a)">
<use x="326.291716" y="880.310115" fill="#ffffff" stroke="#ffffff" xlink:href="#b"/>
</g>
<g clip-path="url(#a)">
<use x="373.556593" y="880.310115" fill="#ffffff" stroke="#ffffff" xlink:href="#b"/>
</g>
<g clip-path="url(#a)">
<use x="704.410735" y="880.310115" fill="#ffffff" stroke="#ffffff" xlink:href="#b"/>
</g>
<g clip-path="url(#a)">
<use x="751.675613" y="880.310115" fill="#ffffff" stroke="#ffffff" xlink:href="#b"/>
</g>
<g clip-path="url(#a)">
<use x="798.94049" y="880.310115" fill="#ffffff" stroke="#ffffff" xlink:href="#b"/>
</g>
<g clip-path="url(#a)">
<use x="893.470245" y="880.310115" fill="#ffffff" stroke="#ffffff" xlink:href="#b"/>
</g>
<g clip-path="url(#a)">
<use x="1247.956826" y="768.562944" fill="#ffffff" stroke="#ffffff" xlink:href="#b"/>
</g>
<g clip-path="url(#a)">
<use x="1224.324387" y="880.310115" fill="#ffffff" stroke="#ffffff" xlink:href="#b"/>
</g>
<g clip-path="url(#a)">
<use x="1318.854142" y="880.310115" fill="#ffffff" stroke="#ffffff" xlink:href="#b"/>
</g>
<g clip-path="url(#a)">
<use x="1366.119019" y="880.310115" fill="#ffffff" stroke="#ffffff" xlink:href="#b"/>
</g>
<g clip-path="url(#a)">
<use x="1551.239789" y="421.663119" fill="#ffffff" stroke="#ffffff" xlink:href="#b"/>
</g>
<g clip-path="url(#a)">
<use x="1460.648774" y="880.310115" fill="#ffffff" stroke="#ffffff" xlink:href="#b"/>
</g>
<g clip-path="url(#a)">
<use x="1413.383897" y="880.310115" fill="#ffffff" stroke="#ffffff" xlink:href="#b"/>
</g>
<g clip-path="url(#a)">
<use x="1531.54609" y="768.562944" fill="#ffffff" stroke="#ffffff" xlink:href="#b"/>
</g>
<g clip-path="url(#a)">
<use x="1555.178529" y="880.310115" fill="#ffffff" stroke="#ffffff" xlink:href="#b"/>
</g>
<g clip-path="url(#a)">
<use x="1507.913652" y="880.310115" fill="#ffffff" stroke="#ffffff" xlink:href="#b"/>
</g>
<g clip-path="url(#a)">
<use x="1602.443407" y="880.310115" fill="#ffffff" stroke="#ffffff" xlink:href="#b"/>
</g>
<g clip-path="url(#a)">
<use x="1748.176779" y="539.777841" fill="#ffffff" stroke="#ffffff" xlink:href="#b"/>
</g>
<g clip-path="url(#a)">
<use x="1744.238039" y="880.310115" fill="#ffffff" stroke="#ffffff" xlink:href="#b"/>
</g>
<g clip-path="url(#a)">
<use x="1673.340723" y="768.562944" fill="#ffffff" stroke="#ffffff" xlink:href="#b"/>
</g>
<g clip-path="url(#a)">
<use x="1696.973161" y="880.310115" fill="#ffffff" stroke="#ffffff" xlink:href="#b"/>
</g>
<g clip-path="url(#a)">
<use x="1826.951574" y="655.261247" fill="#ffffff" stroke="#ffffff" xlink:href="#b"/>
</g>
<g clip-path="url(#a)">
<use x="1838.767794" y="880.310115" fill="#ffffff" stroke="#ffffff" xlink:href="#b"/>
</g>
<g clip-path="url(#a)">
<use x="1649.708284" y="880.310115" fill="#ffffff" stroke="#ffffff" xlink:href="#b"/>
</g>
<g clip-path="url(#a)">
<use x="1815.135355" y="768.562944" fill="#ffffff" stroke="#ffffff" xlink:href="#b"/>
</g>
<g clip-path="url(#a)">
<use x="1791.502916" y="880.310115" fill="#ffffff" stroke="#ffffff" xlink:href="#b"/>
</g>
<g clip-path="url(#a)">
<defs>
<path id="ax" d="m19.672 34.812v-26.703h15.828q7.9531 0 11.781 3.2969 3.8438 3.2969 3.8438 10.078 0 6.8438-3.8438 10.078-3.8281 3.25-11.781 3.25zm0 29.984v-21.969h14.609q7.2188 0 10.75 2.7031 3.5469 2.7188 3.5469 8.2812 0 5.5156-3.5469 8.25-3.5312 2.7344-10.75 2.7344zm-9.8594 8.1094h25.203q11.281 0 17.375-4.6875 6.1094-4.6875 6.1094-13.328 0-6.7031-3.125-10.656t-9.1875-4.9219q7.2812-1.5625 11.312-6.5312 4.0312-4.9531 4.0312-12.375 0-9.7656-6.6406-15.094-6.6406-5.3125-18.906-5.3125h-26.172z"/>
<path id="ai" d="m8.5 21.578v33.109h8.9844v-32.766q0-7.7656 3.0156-11.656 3.0312-3.875 9.0938-3.875 7.2656 0 11.484 4.6406 4.2344 4.6406 4.2344 12.656v31h8.9844v-54.688h-8.9844v8.4062q-3.2656-4.9844-7.5938-7.4062-4.3125-2.4219-10.031-2.4219-9.4219 0-14.312 5.8594-4.875 5.8594-4.875 17.141z"/>
<path id="q" d="m18.312 70.219v-15.531h18.5v-6.9844h-18.5v-29.688q0-6.6875 1.8281-8.5938t7.4531-1.9062h9.2188v-7.5156h-9.2188q-10.406 0-14.359 3.875-3.9531 3.8906-3.9531 14.141v29.688h-6.5938v6.9844h6.5938v15.531z"/>
</defs>
<g transform="translate(81.408 994.82) scale(.1 -.1)">
<use xlink:href="#ax"/>
<use x="68.603516" xlink:href="#ai"/>
<use x="131.982422" xlink:href="#q"/>
</g>
</g>
<g clip-path="url(#a)">
<defs>
<path id="ar" d="m9.8125 72.906h9.8594v-72.906h-9.8594z"/>
</defs>
<g transform="translate(135.76 994.82) scale(.1 -.1)">
<use xlink:href="#ar"/>
</g>
</g>
<g clip-path="url(#a)">
<defs>
<path id="at" d="m17.922 72.906v-27.109h-8.2969v27.109z"/>
<path id="am" d="m2.9844 54.688h9.5156l17.094-45.891 17.094 45.891h9.5156l-20.516-54.688h-12.203z"/>
</defs>
<g transform="translate(177.09 994.82) scale(.1 -.1)">
<use xlink:href="#at"/>
<use x="27.490234" xlink:href="#am"/>
<use x="86.669922" xlink:href="#d"/>
</g>
</g>
<g clip-path="url(#a)">
<defs>
<path id="u" d="m45.406 46.391v29.594h8.9844v-75.984h-8.9844v8.2031q-2.8281-4.875-7.1562-7.25-4.3125-2.375-10.375-2.375-9.9062 0-16.141 7.9062-6.2188 7.9219-6.2188 20.812t6.2188 20.797q6.2344 7.9062 16.141 7.9062 6.0625 0 10.375-2.375 4.3281-2.3594 7.1562-7.2344zm-30.609-19.094q0-9.9062 4.0781-15.547t11.203-5.6406 11.219 5.6406q4.1094 5.6406 4.1094 15.547t-4.1094 15.547q-4.0938 5.6406-11.219 5.6406t-11.203-5.6406-4.0781-15.547z"/>
<path id="p" d="m30.609 48.391q-7.2188 0-11.422-5.6406t-4.2031-15.453 4.1719-15.453q4.1875-5.6406 11.453-5.6406 7.1875 0 11.375 5.6562 4.2031 5.6719 4.2031 15.438 0 9.7188-4.2031 15.406-4.1875 5.6875-11.375 5.6875zm0 7.6094q11.719 0 18.406-7.625 6.7031-7.6094 6.7031-21.078 0-13.422-6.7031-21.078-6.6875-7.6406-18.406-7.6406-11.766 0-18.438 7.6406-6.6562 7.6562-6.6562 21.078 0 13.469 6.6562 21.078 6.6719 7.625 18.438 7.625z"/>
</defs>
<g transform="translate(219.28 994.82) scale(.1 -.1)">
<use xlink:href="#u"/>
<use x="63.476562" xlink:href="#p"/>
<use x="124.658203" xlink:href="#f"/>
<use x="188.037109" xlink:href="#d"/>
</g>
</g>
<g clip-path="url(#a)">
<defs>
<path id="v" d="m54.891 33.016v-33.016h-8.9844v32.719q0 7.7656-3.0312 11.609-3.0312 3.8594-9.0781 3.8594-7.2812 0-11.484-4.6406-4.2031-4.625-4.2031-12.641v-30.906h-9.0312v75.984h9.0312v-29.797q3.2344 4.9375 7.5938 7.375 4.375 2.4375 10.094 2.4375 9.4219 0 14.25-5.8281 4.8438-5.8281 4.8438-17.156z"/>
<path id="t" d="m44.281 53.078v-8.5q-3.7969 1.9531-7.9062 2.9219-4.0938 0.98438-8.5 0.98438-6.6875 0-10.031-2.0469t-3.3438-6.1562q0-3.125 2.3906-4.9062t9.625-3.3906l3.0781-0.6875q9.5625-2.0469 13.594-5.7812t4.0312-10.422q0-7.625-6.0312-12.078-6.0312-4.4375-16.578-4.4375-4.3906 0-9.1562 0.85938t-10.031 2.5625v9.2812q4.9844-2.5938 9.8125-3.8906 4.8281-1.2812 9.5781-1.2812 6.3438 0 9.75 2.1719 3.4219 2.1719 3.4219 6.125 0 3.6562-2.4688 5.6094-2.4531 1.9531-10.812 3.7656l-3.125 0.73438q-8.3438 1.75-12.062 5.3906-3.7031 3.6406-3.7031 9.9844 0 7.7188 5.4688 11.906 5.4688 4.2031 15.531 4.2031 4.9688 0 9.3594-0.73438 4.4062-0.71875 8.1094-2.1875z"/>
</defs>
<g transform="translate(255.44 994.82) scale(.1 -.1)">
<use xlink:href="#v"/>
<use x="63.378906" xlink:href="#ai"/>
<use x="126.757812" xlink:href="#f"/>
<use x="190.136719" xlink:href="#u"/>
<use x="253.613281" xlink:href="#h"/>
<use x="294.695312" xlink:href="#d"/>
<use x="356.21875" xlink:href="#u"/>
<use x="419.695312" xlink:href="#t"/>
</g>
</g>
<g clip-path="url(#a)">
<defs>
<path id="ao" d="m37.109 75.984v-7.4844h-8.5938q-4.8281 0-6.7188-1.9531-1.875-1.9531-1.875-7.0312v-4.8281h14.797v-6.9844h-14.797v-47.703h-9.0312v47.703h-8.5938v6.9844h8.5938v3.8125q0 9.125 4.25 13.297 4.25 4.1875 13.469 4.1875z"/>
</defs>
<g transform="translate(321.47 994.82) scale(.1 -.1)">
<use xlink:href="#p"/>
<use x="61.181641" xlink:href="#ao"/>
</g>
</g>
<g clip-path="url(#a)">
<defs>
<path id="an" d="m45.406 27.984q0 9.7656-4.0312 15.125-4.0156 5.375-11.297 5.375-7.2188 0-11.25-5.375-4.0312-5.3594-4.0312-15.125 0-9.7188 4.0312-15.094t11.25-5.375q7.2812 0 11.297 5.375 4.0312 5.375 4.0312 15.094zm8.9844-21.203q0-13.953-6.2031-20.766-6.1875-6.8125-18.984-6.8125-4.7344 0-8.9375 0.70312t-8.1562 2.1719v8.7344q3.9531-2.1406 7.8125-3.1562 3.8594-1.0312 7.8594-1.0312 8.8438 0 13.234 4.6094t4.3906 13.938v4.4531q-2.7812-4.8438-7.125-7.2344t-10.406-2.3906q-10.047 0-16.203 7.6562-6.1562 7.6719-6.1562 20.328 0 12.688 6.1562 20.344 6.1562 7.6719 16.203 7.6719 6.0625 0 10.406-2.3906t7.125-7.2188v8.2969h8.9844z"/>
</defs>
<g transform="translate(364.15 994.82) scale(.1 -.1)">
<use xlink:href="#u"/>
<use x="63.476562" xlink:href="#p"/>
<use x="124.658203" xlink:href="#an"/>
</g>
</g>
<g clip-path="url(#a)">
<defs>
<path id="y" d="m48.781 52.594v-8.4062q-3.8125 2.1094-7.6406 3.1562t-7.7344 1.0469q-8.75 0-13.594-5.5469-4.8281-5.5312-4.8281-15.547t4.8281-15.562q4.8438-5.5312 13.594-5.5312 3.9062 0 7.7344 1.0469t7.6406 3.1562v-8.3125q-3.7656-1.75-7.7969-2.625-4.0156-0.89062-8.5625-0.89062-12.359 0-19.641 7.7656-7.2656 7.7656-7.2656 20.953 0 13.375 7.3438 21.031 7.3594 7.6719 20.156 7.6719 4.1406 0 8.0938-0.85938 3.9531-0.84375 7.6719-2.5469z"/>
</defs>
<g transform="translate(387.92 994.82) scale(.1 -.1)">
<use xlink:href="#i"/>
<use x="27.783203" xlink:href="#f"/>
<use x="91.162109" xlink:href="#q"/>
<use x="130.371094" xlink:href="#h"/>
<use x="171.453125" xlink:href="#p"/>
<use x="232.634766" xlink:href="#u"/>
<use x="296.111328" xlink:href="#ai"/>
<use x="359.490234" xlink:href="#y"/>
<use x="414.470703" xlink:href="#q"/>
<use x="453.679688" xlink:href="#i"/>
<use x="481.462891" xlink:href="#p"/>
<use x="542.644531" xlink:href="#f"/>
<use x="606.023438" xlink:href="#t"/>
</g>
</g>
<g clip-path="url(#a)">
<defs>
<path id="au" d="m32.172-5.0781q-3.7969-9.7656-7.4219-12.734-3.6094-2.9844-9.6562-2.9844h-7.1875v7.5156h5.2812q3.7031 0 5.75 1.7656 2.0625 1.75 4.5469 8.2969l1.6094 4.0938-22.109 53.812h9.5156l17.094-42.766 17.094 42.766h9.5156z"/>
</defs>
<g transform="translate(451.43 994.82) scale(.1 -.1)">
<use xlink:href="#k"/>
<use x="97.412109" xlink:href="#au"/>
<use x="156.591797" xlink:href="#t"/>
<use x="208.691406" xlink:href="#d"/>
<use x="270.214844" xlink:href="#j"/>
<use x="297.998047" xlink:href="#ao"/>
</g>
</g>
<g clip-path="url(#a)">
<defs>
<path id="az" d="m31 75.875q-6.5312-11.219-9.7188-22.219-3.1719-10.984-3.1719-22.266 0-11.266 3.2031-22.328t9.6875-22.25h-7.8125q-7.3125 11.484-10.953 22.562t-3.6406 22.016q0 10.891 3.6094 21.922 3.625 11.047 10.984 22.562z"/>
</defs>
<g transform="translate(513.4 994.82) scale(.1 -.1)">
<use xlink:href="#az"/>
</g>
</g>
<g clip-path="url(#a)">
<g transform="translate(543.06 994.82) scale(.1 -.1)">
<use xlink:href="#g"/>
<use x="61.279297" xlink:href="#f"/>
<use x="124.658203" xlink:href="#p"/>
<use x="185.839844" xlink:href="#q"/>
<use x="225.048828" xlink:href="#v"/>
<use x="288.427734" xlink:href="#d"/>
<use x="349.951172" xlink:href="#h"/>
</g>
</g>
<g clip-path="url(#a)">
<defs>
<path id="av" d="m18.109 8.2031v-29h-9.0312v75.484h9.0312v-8.2969q2.8438 4.875 7.1562 7.2344 4.3281 2.375 10.328 2.375 9.9688 0 16.188-7.9062 6.2344-7.9062 6.2344-20.797t-6.2344-20.812q-6.2188-7.9062-16.188-7.9062-6 0-10.328 2.375-4.3125 2.375-7.1562 7.25zm30.578 19.094q0 9.9062-4.0781 15.547t-11.203 5.6406q-7.1406 0-11.219-5.6406t-4.0781-15.547 4.0781-15.547 11.219-5.6406q7.125 0 11.203 5.6406t4.0781 15.547z"/>
</defs>
<g transform="translate(596.43 994.82) scale(.1 -.1)">
<use xlink:href="#av"/>
<use x="63.476562" xlink:href="#j"/>
<use x="91.259766" xlink:href="#g"/>
<use x="152.539062" xlink:href="#y"/>
<use x="207.519531" xlink:href="#d"/>
</g>
</g>
<g clip-path="url(#a)">
<defs>
<path id="as" d="m11.719 12.406h10.297v-8.4062l-8-15.625h-6.2969l4 15.625z"/>
</defs>
<g transform="translate(655.56 994.82) scale(.1 -.1)">
<use xlink:href="#as"/>
</g>
</g>
<g clip-path="url(#a)">
<g transform="translate(702.94 994.82) scale(.1 -.1)">
<use xlink:href="#ar"/>
</g>
</g>
<g clip-path="url(#a)">
<g transform="translate(745.44 994.82) scale(.1 -.1)">
<use xlink:href="#u"/>
<use x="63.476562" xlink:href="#p"/>
</g>
</g>
<g clip-path="url(#a)">
<g transform="translate(792.44 994.82) scale(.1 -.1)">
<use xlink:href="#f"/>
<use x="63.378906" xlink:href="#at"/>
<use x="90.869141" xlink:href="#q"/>
</g>
</g>
<g clip-path="url(#a)">
<defs>
<path id="ah" d="m4.2031 54.688h8.9844l11.234-42.672 11.172 42.672h10.594l11.234-42.672 11.188 42.672h8.9844l-14.312-54.688h-10.594l-11.766 44.828-11.812-44.828h-10.609z"/>
<path id="bb" d="m9.0781 75.984h9.0312v-44.875l26.812 23.578h11.469l-29-25.578 30.234-29.109h-11.719l-27.797 26.703v-26.703h-9.0312z"/>
</defs>
<g transform="translate(834.11 994.82) scale(.1 -.1)">
<use xlink:href="#ah"/>
<use x="81.787109" xlink:href="#p"/>
<use x="142.96875" xlink:href="#h"/>
<use x="184.082031" xlink:href="#bb"/>
</g>
</g>
<g clip-path="url(#a)">
<g transform="translate(882.09 994.82) scale(.1 -.1)">
<use xlink:href="#v"/>
<use x="63.378906" xlink:href="#d"/>
<use x="124.902344" xlink:href="#h"/>
<use x="165.984375" xlink:href="#d"/>
</g>
</g>
<g clip-path="url(#a)">
<defs>
<path id="ay" d="m8.0156 75.875h7.8125q7.3125-11.516 10.953-22.562 3.6406-11.031 3.6406-21.922 0-10.938-3.6406-22.016t-10.953-22.562h-7.8125q6.4844 11.188 9.6875 22.25t3.2031 22.328q0 11.281-3.2031 22.266-3.2031 11-9.6875 22.219z"/>
</defs>
<g transform="translate(938.78 994.82) scale(.1 -.1)">
<use xlink:href="#ay"/>
</g>
</g>
<g clip-path="url(#a)">
<g transform="translate(986.41 994.82) scale(.1 -.1)">
<use xlink:href="#as"/>
</g>
</g>
<g clip-path="url(#a)">
<g transform="translate(1025.9 994.82) scale(.1 -.1)">
<use xlink:href="#g"/>
<use x="61.279297" xlink:href="#f"/>
<use x="124.658203" xlink:href="#u"/>
</g>
</g>
<g clip-path="url(#a)">
<g transform="translate(1064.5 994.82) scale(.1 -.1)">
<use xlink:href="#p"/>
<use x="61.181641" xlink:href="#ah"/>
<use x="142.96875" xlink:href="#f"/>
<use x="206.347656" xlink:href="#d"/>
<use x="267.871094" xlink:href="#h"/>
<use x="308.984375" xlink:href="#t"/>
</g>
</g>
<g clip-path="url(#a)">
<g transform="translate(1120.8 994.82) scale(.1 -.1)">
<use xlink:href="#y"/>
<use x="54.980469" xlink:href="#g"/>
<use x="116.259766" xlink:href="#f"/>
</g>
</g>
<g clip-path="url(#a)">
<g transform="translate(1164.8 994.82) scale(.1 -.1)">
<use xlink:href="#v"/>
<use x="63.378906" xlink:href="#g"/>
<use x="124.658203" xlink:href="#am"/>
<use x="183.837891" xlink:href="#d"/>
</g>
</g>
<g clip-path="url(#a)">
<g transform="translate(1198.3 994.82) scale(.1 -.1)">
<use xlink:href="#ai"/>
<use x="63.378906" xlink:href="#f"/>
<use x="126.757812" xlink:href="#h"/>
<use x="167.839844" xlink:href="#d"/>
<use x="229.363281" xlink:href="#g"/>
<use x="290.642578" xlink:href="#j"/>
<use x="318.425781" xlink:href="#i"/>
<use x="346.208984" xlink:href="#t"/>
<use x="398.308594" xlink:href="#q"/>
<use x="437.517578" xlink:href="#i"/>
<use x="465.300781" xlink:href="#y"/>
</g>
</g>
<g clip-path="url(#a)">
<defs>
<path id="ba" d="m54.891 54.688-19.781-26.609 20.797-28.078h-10.594l-15.922 21.484-15.906-21.484h-10.609l21.25 28.609-19.438 26.078h10.594l14.5-19.484 14.5 19.484z"/>
</defs>
<g transform="translate(1239.3 994.82) scale(.1 -.1)">
<use xlink:href="#d"/>
<use x="61.507812" xlink:href="#ba"/>
<use x="120.6875" xlink:href="#av"/>
<use x="184.164062" xlink:href="#d"/>
<use x="245.6875" xlink:href="#y"/>
<use x="300.667969" xlink:href="#q"/>
<use x="339.876953" xlink:href="#g"/>
<use x="401.15625" xlink:href="#q"/>
<use x="440.365234" xlink:href="#i"/>
<use x="468.148438" xlink:href="#p"/>
<use x="529.330078" xlink:href="#f"/>
<use x="592.708984" xlink:href="#t"/>
</g>
</g>
<g clip-path="url(#a)">
<g transform="translate(1309.4 994.82) scale(.1 -.1)">
<use xlink:href="#g"/>
<use x="61.279297" xlink:href="#f"/>
<use x="124.658203" xlink:href="#u"/>
</g>
</g>
<g clip-path="url(#a)">
<g transform="translate(1352 994.82) scale(.1 -.1)">
<use xlink:href="#am"/>
<use x="59.179688" xlink:href="#i"/>
<use x="86.962891" xlink:href="#d"/>
<use x="148.486328" xlink:href="#ah"/>
<use x="230.273438" xlink:href="#t"/>
</g>
</g>
<g clip-path="url(#a)">
<g transform="translate(1408.6 994.82) scale(.1 -.1)">
<use xlink:href="#p"/>
<use x="61.181641" xlink:href="#ao"/>
</g>
</g>
<g clip-path="url(#a)">
<g transform="translate(1448.4 994.82) scale(.1 -.1)">
<use xlink:href="#ah"/>
<use x="81.787109" xlink:href="#v"/>
<use x="145.166016" xlink:href="#g"/>
<use x="206.445312" xlink:href="#q"/>
</g>
</g>
<g clip-path="url(#a)">
<g transform="translate(1496.7 994.82) scale(.1 -.1)">
<use xlink:href="#q"/>
<use x="39.208984" xlink:href="#v"/>
<use x="102.587891" xlink:href="#d"/>
<use x="164.111328" xlink:href="#au"/>
</g>
</g>
<g clip-path="url(#a)">
<g transform="translate(1546.4 994.82) scale(.1 -.1)">
<use xlink:href="#t"/>
<use x="52.099609" xlink:href="#d"/>
<use x="113.623047" xlink:href="#d"/>
</g>
</g>
<g clip-path="url(#a)">
<g transform="translate(1588.9 994.82) scale(.1 -.1)">
<use xlink:href="#ah"/>
<use x="81.787109" xlink:href="#v"/>
<use x="145.166016" xlink:href="#d"/>
<use x="206.689453" xlink:href="#f"/>
</g>
</g>
<g clip-path="url(#a)">
<g transform="translate(1638.1 994.82) scale(.1 -.1)">
<use xlink:href="#q"/>
<use x="39.208984" xlink:href="#v"/>
<use x="102.587891" xlink:href="#d"/>
<use x="164.111328" xlink:href="#i"/>
<use x="191.894531" xlink:href="#h"/>
</g>
</g>
<g clip-path="url(#a)">
<g transform="translate(1685 994.82) scale(.1 -.1)">
<use xlink:href="#u"/>
<use x="63.476562" xlink:href="#p"/>
<use x="124.658203" xlink:href="#an"/>
<use x="188.134766" xlink:href="#t"/>
</g>
</g>
<g clip-path="url(#a)">
<g transform="translate(1731.3 994.82) scale(.1 -.1)">
<use xlink:href="#k"/>
<use x="97.412109" xlink:href="#d"/>
<use x="158.935547" xlink:href="#d"/>
<use x="220.458984" xlink:href="#q"/>
</g>
</g>
<g clip-path="url(#a)">
<g transform="translate(1778.2 994.82) scale(.1 -.1)">
<use xlink:href="#p"/>
<use x="61.181641" xlink:href="#q"/>
<use x="100.390625" xlink:href="#v"/>
<use x="163.769531" xlink:href="#d"/>
<use x="225.292969" xlink:href="#h"/>
</g>
</g>
<g clip-path="url(#a)">
<g transform="translate(1826.8 994.82) scale(.1 -.1)">
<use xlink:href="#u"/>
<use x="63.476562" xlink:href="#p"/>
<use x="124.658203" xlink:href="#an"/>
<use x="188.134766" xlink:href="#t"/>
</g>
</g>
<g clip-path="url(#a)">
<defs>
<path id="e" d="m10.688 12.406h10.312v-12.406h-10.312z"/>
</defs>
<g transform="translate(1884.4 994.82) scale(.1 -.1)">
<use xlink:href="#e"/>
</g>
</g>
<g clip-path="url(#a)">
<defs>
<path id="c" d="m12.406 8.2969h16.109v55.625l-17.531-3.5156v8.9844l17.438 3.5156h9.8594v-64.609h16.109v-8.2969h-41.984z"/>
</defs>
<g transform="translate(703.05 50.702) scale(.1 -.1)">
<use xlink:href="#c"/>
<use x="63.623047" xlink:href="#e"/>
<use x="95.410156" xlink:href="#c"/>
</g>
</g>
<g clip-path="url(#a)">
<defs>
<path id="o" d="m19.188 8.2969h34.422v-8.2969h-46.281v8.2969q5.6094 5.8125 15.297 15.594 9.7031 9.7969 12.188 12.641 4.7344 5.3125 6.6094 9 1.8906 3.6875 1.8906 7.25 0 5.8125-4.0781 9.4688-4.0781 3.6719-10.625 3.6719-4.6406 0-9.7969-1.6094-5.1406-1.6094-11-4.8906v9.9688q5.9531 2.3906 11.125 3.6094 5.1875 1.2188 9.4844 1.2188 11.328 0 18.062-5.6719 6.7344-5.6562 6.7344-15.125 0-4.5-1.6875-8.5312-1.6719-4.0156-6.125-9.4844-1.2188-1.4219-7.7656-8.1875-6.5312-6.7656-18.453-18.922z"/>
</defs>
<g transform="translate(531.03 542.54) scale(.1 -.1)">
<use xlink:href="#c"/>
<use x="63.623047" xlink:href="#e"/>
<use x="95.410156" xlink:href="#o"/>
</g>
</g>
<g clip-path="url(#a)">
<defs>
<path id="n" d="m40.578 39.312q7.0781-1.5156 11.047-6.3125 3.9844-4.7812 3.9844-11.812 0-10.781-7.4219-16.703-7.4219-5.9062-21.094-5.9062-4.5781 0-9.4375 0.90625t-10.031 2.7188v9.5156q4.0938-2.3906 8.9688-3.6094 4.8906-1.2188 10.219-1.2188 9.2656 0 14.125 3.6562t4.8594 10.641q0 6.4531-4.5156 10.078-4.5156 3.6406-12.562 3.6406h-8.5v8.1094h8.8906q7.2656 0 11.125 2.9062t3.8594 8.375q0 5.6094-3.9844 8.6094-3.9688 3.0156-11.391 3.0156-4.0625 0-8.7031-0.89062-4.6406-0.875-10.203-2.7188v8.7812q5.625 1.5625 10.531 2.3438t9.25 0.78125q11.234 0 17.766-5.1094 6.5469-5.0938 6.5469-13.781 0-6.0625-3.4688-10.234t-9.8594-5.7812z"/>
</defs>
<g transform="translate(223.81 883.07) scale(.1 -.1)">
<use xlink:href="#c"/>
<use x="63.623047" xlink:href="#e"/>
<use x="95.410156" xlink:href="#n"/>
</g>
</g>
<g clip-path="url(#a)">
<defs>
<path id="m" d="m37.797 64.312-24.906-38.922h24.906zm-2.5938 8.5938h12.406v-47.516h10.406v-8.2031h-10.406v-17.188h-9.8125v17.188h-32.906v9.5156z"/>
</defs>
<g transform="translate(82.016 883.07) scale(.1 -.1)">
<use xlink:href="#c"/>
<use x="63.623047" xlink:href="#e"/>
<use x="95.410156" xlink:href="#m"/>
</g>
</g>
<g clip-path="url(#a)">
<defs>
<path id="s" d="m10.797 72.906h38.719v-8.3125h-29.688v-17.859q2.1406 0.73438 4.2812 1.0938 2.1562 0.35938 4.3125 0.35938 12.203 0 19.328-6.6875 7.1406-6.6875 7.1406-18.109 0-11.766-7.3281-18.297-7.3281-6.5156-20.656-6.5156-4.5938 0-9.3594 0.78125-4.75 0.78125-9.8281 2.3438v9.9219q4.3906-2.3906 9.0781-3.5625t9.9062-1.1719q8.4531 0 13.375 4.4375 4.9375 4.4375 4.9375 12.062 0 7.6094-4.9375 12.047-4.9219 4.4531-13.375 4.4531-3.9531 0-7.8906-0.875-3.9219-0.875-8.0156-2.7344z"/>
</defs>
<g transform="translate(129.28 883.07) scale(.1 -.1)">
<use xlink:href="#c"/>
<use x="63.623047" xlink:href="#e"/>
<use x="95.410156" xlink:href="#s"/>
</g>
</g>
<g clip-path="url(#a)">
<defs>
<path id="af" d="m33.016 40.375q-6.6406 0-10.531-4.5469-3.875-4.5312-3.875-12.438 0-7.8594 3.875-12.438 3.8906-4.5625 10.531-4.5625t10.516 4.5625q3.875 4.5781 3.875 12.438 0 7.9062-3.875 12.438-3.875 4.5469-10.516 4.5469zm19.578 30.922v-8.9844q-3.7188 1.75-7.5 2.6719-3.7812 0.9375-7.5 0.9375-9.7656 0-14.922-6.5938-5.1406-6.5938-5.875-19.922 2.875 4.25 7.2188 6.5156 4.3594 2.2656 9.5781 2.2656 10.984 0 17.359-6.6719 6.375-6.6562 6.375-18.125 0-11.234-6.6406-18.031-6.6406-6.7812-17.672-6.7812-12.656 0-19.344 9.6875-6.6875 9.7031-6.6875 28.109 0 17.281 8.2031 27.562t22.016 10.281q3.7188 0 7.5-0.73438t7.8906-2.1875z"/>
</defs>
<g transform="translate(176.55 883.07) scale(.1 -.1)">
<use xlink:href="#c"/>
<use x="63.623047" xlink:href="#e"/>
<use x="95.410156" xlink:href="#af"/>
</g>
</g>
<g clip-path="url(#a)">
<defs>
<path id="ae" d="m8.2031 72.906h46.875v-4.2031l-26.469-68.703h-10.297l24.906 64.594h-35.016z"/>
</defs>
<g transform="translate(318.34 658.02) scale(.1 -.1)">
<use xlink:href="#c"/>
<use x="63.623047" xlink:href="#e"/>
<use x="95.410156" xlink:href="#ae"/>
</g>
</g>
<g clip-path="url(#a)">
<defs>
<path id="ad" d="m31.781 34.625q-7.0312 0-11.062-3.7656-4.0156-3.7656-4.0156-10.344 0-6.5938 4.0156-10.359 4.0312-3.7656 11.062-3.7656t11.078 3.7812q4.0625 3.7969 4.0625 10.344 0 6.5781-4.0312 10.344-4.0156 3.7656-11.109 3.7656zm-9.8594 4.1875q-6.3438 1.5625-9.8906 5.9062-3.5312 4.3594-3.5312 10.609 0 8.7344 6.2188 13.812 6.2344 5.0781 17.062 5.0781 10.891 0 17.094-5.0781t6.2031-13.812q0-6.25-3.5469-10.609-3.5312-4.3438-9.8281-5.9062 7.125-1.6562 11.094-6.5 3.9844-4.8281 3.9844-11.797 0-10.609-6.4688-16.281-6.4688-5.6562-18.531-5.6562-12.047 0-18.531 5.6562-6.4688 5.6719-6.4688 16.281 0 6.9688 4 11.797 4.0156 4.8438 11.141 6.5zm-3.6094 15.578q0-5.6562 3.5312-8.8281 3.5469-3.1719 9.9375-3.1719 6.3594 0 9.9375 3.1719 3.5938 3.1719 3.5938 8.8281 0 5.6719-3.5938 8.8438-3.5781 3.1719-9.9375 3.1719-6.3906 0-9.9375-3.1719-3.5312-3.1719-3.5312-8.8438z"/>
</defs>
<g transform="translate(271.08 883.07) scale(.1 -.1)">
<use xlink:href="#c"/>
<use x="63.623047" xlink:href="#e"/>
<use x="95.410156" xlink:href="#ad"/>
</g>
</g>
<g clip-path="url(#a)">
<defs>
<path id="ac" d="m10.984 1.5156v8.9844q3.7188-1.7656 7.5156-2.6875 3.8125-0.92188 7.4844-0.92188 9.7656 0 14.906 6.5625 5.1562 6.5625 5.8906 19.953-2.8281-4.2031-7.1875-6.4531-4.3438-2.25-9.6094-2.25-10.938 0-17.312 6.6094-6.375 6.625-6.375 18.109 0 11.219 6.6406 18 6.6406 6.7969 17.672 6.7969 12.656 0 19.312-9.7031 6.6719-9.6875 6.6719-28.141 0-17.234-8.1875-27.516-8.1719-10.281-21.984-10.281-3.7188 0-7.5312 0.73438-3.7969 0.73438-7.9062 2.2031zm19.625 30.906q6.6406 0 10.516 4.5312 3.8906 4.5469 3.8906 12.469 0 7.8594-3.8906 12.422-3.875 4.5625-10.516 4.5625t-10.516-4.5625-3.875-12.422q0-7.9219 3.875-12.469 3.875-4.5312 10.516-4.5312z"/>
</defs>
<g transform="translate(460.13 883.07) scale(.1 -.1)">
<use xlink:href="#c"/>
<use x="63.623047" xlink:href="#e"/>
<use x="95.410156" xlink:href="#ac"/>
</g>
</g>
<g clip-path="url(#a)">
<defs>
<path id="ag" d="m31.781 66.406q-7.6094 0-11.453-7.5-3.8281-7.4844-3.8281-22.531 0-14.984 3.8281-22.484 3.8438-7.5 11.453-7.5 7.6719 0 11.5 7.5 3.8438 7.5 3.8438 22.484 0 15.047-3.8438 22.531-3.8281 7.5-11.5 7.5zm0 7.8125q12.266 0 18.734-9.7031 6.4688-9.6875 6.4688-28.141 0-18.406-6.4688-28.109-6.4688-9.6875-18.734-9.6875-12.25 0-18.719 9.6875-6.4688 9.7031-6.4688 28.109 0 18.453 6.4688 28.141 6.4688 9.7031 18.719 9.7031z"/>
</defs>
<g transform="translate(646.01 771.32) scale(.1 -.1)">
<use xlink:href="#c"/>
<use x="63.623047" xlink:href="#e"/>
<use x="95.410156" xlink:href="#c"/>
<use x="159.033203" xlink:href="#ag"/>
</g>
</g>
<g clip-path="url(#a)">
<g transform="translate(598.75 883.07) scale(.1 -.1)">
<use xlink:href="#c"/>
<use x="63.623047" xlink:href="#e"/>
<use x="95.410156" xlink:href="#c"/>
<use x="159.033203" xlink:href="#c"/>
</g>
</g>
<g clip-path="url(#a)">
<g transform="translate(1024.1 883.07) scale(.1 -.1)">
<use xlink:href="#c"/>
<use x="63.623047" xlink:href="#e"/>
<use x="95.410156" xlink:href="#c"/>
<use x="159.033203" xlink:href="#o"/>
</g>
</g>
<g clip-path="url(#a)">
<g transform="translate(1134.6 178.83) scale(.1 -.1)">
<use xlink:href="#c"/>
<use x="63.623047" xlink:href="#e"/>
<use x="95.410156" xlink:href="#c"/>
<use x="159.033203" xlink:href="#n"/>
</g>
</g>
<g clip-path="url(#a)">
<g transform="translate(1165.9 883.07) scale(.1 -.1)">
<use xlink:href="#c"/>
<use x="63.623047" xlink:href="#e"/>
<use x="95.410156" xlink:href="#c"/>
<use x="159.033203" xlink:href="#m"/>
</g>
</g>
<g clip-path="url(#a)">
<g transform="translate(1874.9 883.07) scale(.1 -.1)">
<use xlink:href="#c"/>
<use x="63.623047" xlink:href="#e"/>
<use x="95.410156" xlink:href="#c"/>
<use x="159.033203" xlink:href="#s"/>
</g>
</g>
<g clip-path="url(#a)">
<g transform="translate(362.42 771.32) scale(.1 -.1)">
<use xlink:href="#c"/>
<use x="63.623047" xlink:href="#e"/>
<use x="95.410156" xlink:href="#c"/>
<use x="159.033203" xlink:href="#af"/>
</g>
</g>
<g clip-path="url(#a)">
<g transform="translate(409.69 883.07) scale(.1 -.1)">
<use xlink:href="#c"/>
<use x="63.623047" xlink:href="#e"/>
<use x="95.410156" xlink:href="#c"/>
<use x="159.033203" xlink:href="#ae"/>
</g>
</g>
<g clip-path="url(#a)">
<g transform="translate(504.22 883.07) scale(.1 -.1)">
<use xlink:href="#c"/>
<use x="63.623047" xlink:href="#e"/>
<use x="95.410156" xlink:href="#c"/>
<use x="159.033203" xlink:href="#ad"/>
</g>
</g>
<g clip-path="url(#a)">
<g transform="translate(551.48 883.07) scale(.1 -.1)">
<use xlink:href="#c"/>
<use x="63.623047" xlink:href="#e"/>
<use x="95.410156" xlink:href="#c"/>
<use x="159.033203" xlink:href="#ac"/>
</g>
</g>
<g clip-path="url(#a)">
<g transform="translate(646.01 883.07) scale(.1 -.1)">
<use xlink:href="#c"/>
<use x="63.623047" xlink:href="#e"/>
<use x="95.410156" xlink:href="#o"/>
<use x="159.033203" xlink:href="#ag"/>
</g>
</g>
<g clip-path="url(#a)">
<g transform="translate(787.81 771.32) scale(.1 -.1)">
<use xlink:href="#c"/>
<use x="63.623047" xlink:href="#e"/>
<use x="95.410156" xlink:href="#o"/>
<use x="159.033203" xlink:href="#c"/>
</g>
</g>
<g clip-path="url(#a)">
<g transform="translate(835.07 883.07) scale(.1 -.1)">
<use xlink:href="#c"/>
<use x="63.623047" xlink:href="#e"/>
<use x="95.410156" xlink:href="#o"/>
<use x="159.033203" xlink:href="#o"/>
</g>
</g>
<g clip-path="url(#a)">
<g transform="translate(929.6 883.07) scale(.1 -.1)">
<use xlink:href="#c"/>
<use x="63.623047" xlink:href="#e"/>
<use x="95.410156" xlink:href="#o"/>
<use x="159.033203" xlink:href="#n"/>
</g>
</g>
<g clip-path="url(#a)">
<g transform="translate(976.87 883.07) scale(.1 -.1)">
<use xlink:href="#c"/>
<use x="63.623047" xlink:href="#e"/>
<use x="95.410156" xlink:href="#o"/>
<use x="159.033203" xlink:href="#m"/>
</g>
</g>
<g clip-path="url(#a)">
<g transform="translate(1071.4 883.07) scale(.1 -.1)">
<use xlink:href="#c"/>
<use x="63.623047" xlink:href="#e"/>
<use x="95.410156" xlink:href="#o"/>
<use x="159.033203" xlink:href="#s"/>
</g>
</g>
<g clip-path="url(#a)">
<g transform="translate(1118.7 883.07) scale(.1 -.1)">
<use xlink:href="#c"/>
<use x="63.623047" xlink:href="#e"/>
<use x="95.410156" xlink:href="#o"/>
<use x="159.033203" xlink:href="#af"/>
</g>
</g>
<g clip-path="url(#a)">
<g transform="translate(1340 303.3) scale(.1 -.1)">
<use xlink:href="#c"/>
<use x="63.623047" xlink:href="#e"/>
<use x="95.410156" xlink:href="#o"/>
<use x="159.033203" xlink:href="#ae"/>
</g>
</g>
<g clip-path="url(#a)">
<g transform="translate(1260.5 883.07) scale(.1 -.1)">
<use xlink:href="#c"/>
<use x="63.623047" xlink:href="#e"/>
<use x="95.410156" xlink:href="#o"/>
<use x="159.033203" xlink:href="#ad"/>
</g>
</g>
<g clip-path="url(#a)">
<g transform="translate(315.16 883.07) scale(.1 -.1)">
<use xlink:href="#c"/>
<use x="63.623047" xlink:href="#e"/>
<use x="95.410156" xlink:href="#o"/>
<use x="159.033203" xlink:href="#ac"/>
</g>
</g>
<g clip-path="url(#a)">
<g transform="translate(362.42 883.07) scale(.1 -.1)">
<use xlink:href="#c"/>
<use x="63.623047" xlink:href="#e"/>
<use x="95.410156" xlink:href="#n"/>
<use x="159.033203" xlink:href="#ag"/>
</g>
</g>
<g clip-path="url(#a)">
<g transform="translate(693.28 883.07) scale(.1 -.1)">
<use xlink:href="#c"/>
<use x="63.623047" xlink:href="#e"/>
<use x="95.410156" xlink:href="#n"/>
<use x="159.033203" xlink:href="#c"/>
</g>
</g>
<g clip-path="url(#a)">
<g transform="translate(740.54 883.07) scale(.1 -.1)">
<use xlink:href="#c"/>
<use x="63.623047" xlink:href="#e"/>
<use x="95.410156" xlink:href="#n"/>
<use x="159.033203" xlink:href="#o"/>
</g>
</g>
<g clip-path="url(#a)">
<g transform="translate(787.81 883.07) scale(.1 -.1)">
<use xlink:href="#c"/>
<use x="63.623047" xlink:href="#e"/>
<use x="95.410156" xlink:href="#n"/>
<use x="159.033203" xlink:href="#n"/>
</g>
</g>
<g clip-path="url(#a)">
<g transform="translate(882.34 883.07) scale(.1 -.1)">
<use xlink:href="#c"/>
<use x="63.623047" xlink:href="#e"/>
<use x="95.410156" xlink:href="#n"/>
<use x="159.033203" xlink:href="#m"/>
</g>
</g>
<g clip-path="url(#a)">
<g transform="translate(1236.8 771.32) scale(.1 -.1)">
<use xlink:href="#c"/>
<use x="63.623047" xlink:href="#e"/>
<use x="95.410156" xlink:href="#n"/>
<use x="159.033203" xlink:href="#s"/>
</g>
</g>
<g clip-path="url(#a)">
<g transform="translate(1213.2 883.07) scale(.1 -.1)">
<use xlink:href="#c"/>
<use x="63.623047" xlink:href="#e"/>
<use x="95.410156" xlink:href="#n"/>
<use x="159.033203" xlink:href="#af"/>
</g>
</g>
<g clip-path="url(#a)">
<g transform="translate(1307.7 883.07) scale(.1 -.1)">
<use xlink:href="#c"/>
<use x="63.623047" xlink:href="#e"/>
<use x="95.410156" xlink:href="#n"/>
<use x="159.033203" xlink:href="#ae"/>
</g>
</g>
<g clip-path="url(#a)">
<g transform="translate(1355 883.07) scale(.1 -.1)">
<use xlink:href="#c"/>
<use x="63.623047" xlink:href="#e"/>
<use x="95.410156" xlink:href="#n"/>
<use x="159.033203" xlink:href="#ad"/>
</g>
</g>
<g clip-path="url(#a)">
<g transform="translate(1540.1 424.42) scale(.1 -.1)">
<use xlink:href="#c"/>
<use x="63.623047" xlink:href="#e"/>
<use x="95.410156" xlink:href="#n"/>
<use x="159.033203" xlink:href="#ac"/>
</g>
</g>
<g clip-path="url(#a)">
<g transform="translate(1449.5 883.07) scale(.1 -.1)">
<use xlink:href="#c"/>
<use x="63.623047" xlink:href="#e"/>
<use x="95.410156" xlink:href="#m"/>
<use x="159.033203" xlink:href="#ag"/>
</g>
</g>
<g clip-path="url(#a)">
<g transform="translate(1402.3 883.07) scale(.1 -.1)">
<use xlink:href="#c"/>
<use x="63.623047" xlink:href="#e"/>
<use x="95.410156" xlink:href="#m"/>
<use x="159.033203" xlink:href="#c"/>
</g>
</g>
<g clip-path="url(#a)">
<g transform="translate(1520.4 771.32) scale(.1 -.1)">
<use xlink:href="#c"/>
<use x="63.623047" xlink:href="#e"/>
<use x="95.410156" xlink:href="#m"/>
<use x="159.033203" xlink:href="#o"/>
</g>
</g>
<g clip-path="url(#a)">
<g transform="translate(1544 883.07) scale(.1 -.1)">
<use xlink:href="#c"/>
<use x="63.623047" xlink:href="#e"/>
<use x="95.410156" xlink:href="#m"/>
<use x="159.033203" xlink:href="#n"/>
</g>
</g>
<g clip-path="url(#a)">
<g transform="translate(1496.8 883.07) scale(.1 -.1)">
<use xlink:href="#c"/>
<use x="63.623047" xlink:href="#e"/>
<use x="95.410156" xlink:href="#m"/>
<use x="159.033203" xlink:href="#m"/>
</g>
</g>
<g clip-path="url(#a)">
<g transform="translate(1591.3 883.07) scale(.1 -.1)">
<use xlink:href="#c"/>
<use x="63.623047" xlink:href="#e"/>
<use x="95.410156" xlink:href="#m"/>
<use x="159.033203" xlink:href="#s"/>
</g>
</g>
<g clip-path="url(#a)">
<g transform="translate(1737 542.54) scale(.1 -.1)">
<use xlink:href="#c"/>
<use x="63.623047" xlink:href="#e"/>
<use x="95.410156" xlink:href="#m"/>
<use x="159.033203" xlink:href="#af"/>
</g>
</g>
<g clip-path="url(#a)">
<g transform="translate(1733.1 883.07) scale(.1 -.1)">
<use xlink:href="#c"/>
<use x="63.623047" xlink:href="#e"/>
<use x="95.410156" xlink:href="#m"/>
<use x="159.033203" xlink:href="#ae"/>
</g>
</g>
<g clip-path="url(#a)">
<g transform="translate(1662.2 771.32) scale(.1 -.1)">
<use xlink:href="#c"/>
<use x="63.623047" xlink:href="#e"/>
<use x="95.410156" xlink:href="#m"/>
<use x="159.033203" xlink:href="#ad"/>
</g>
</g>
<g clip-path="url(#a)">
<g transform="translate(1685.8 883.07) scale(.1 -.1)">
<use xlink:href="#c"/>
<use x="63.623047" xlink:href="#e"/>
<use x="95.410156" xlink:href="#m"/>
<use x="159.033203" xlink:href="#ac"/>
</g>
</g>
<g clip-path="url(#a)">
<g transform="translate(1815.8 658.02) scale(.1 -.1)">
<use xlink:href="#c"/>
<use x="63.623047" xlink:href="#e"/>
<use x="95.410156" xlink:href="#s"/>
<use x="159.033203" xlink:href="#ag"/>
</g>
</g>
<g clip-path="url(#a)">
<g transform="translate(1827.6 883.07) scale(.1 -.1)">
<use xlink:href="#c"/>
<use x="63.623047" xlink:href="#e"/>
<use x="95.410156" xlink:href="#s"/>
<use x="159.033203" xlink:href="#c"/>
</g>
</g>
<g clip-path="url(#a)">
<g transform="translate(1638.6 883.07) scale(.1 -.1)">
<use xlink:href="#c"/>
<use x="63.623047" xlink:href="#e"/>
<use x="95.410156" xlink:href="#s"/>
<use x="159.033203" xlink:href="#o"/>
</g>
</g>
<g clip-path="url(#a)">
<g transform="translate(1804 771.32) scale(.1 -.1)">
<use xlink:href="#c"/>
<use x="63.623047" xlink:href="#e"/>
<use x="95.410156" xlink:href="#s"/>
<use x="159.033203" xlink:href="#n"/>
</g>
</g>
<g clip-path="url(#a)">
<g transform="translate(1780.4 883.07) scale(.1 -.1)">
<use xlink:href="#c"/>
<use x="63.623047" xlink:href="#e"/>
<use x="95.410156" xlink:href="#s"/>
<use x="159.033203" xlink:href="#m"/>
</g>
</g>
<defs>
<clipPath id="a">
<rect width="1976" height="1040"/>
</clipPath>
</defs>
</svg>
