<?xml version="1.0" encoding="UTF-8"?>
<!DOCTYPE svg  PUBLIC '-//W3C//DTD SVG 1.1//EN'  'http://www.w3.org/Graphics/SVG/1.1/DTD/svg11.dtd'>
<svg width="1064pt" height="560pt" version="1.1" viewBox="0 0 1064 560" xmlns="http://www.w3.org/2000/svg" xmlns:xlink="http://www.w3.org/1999/xlink">
<defs>
<style type="text/css">*{stroke-linecap:butt;stroke-linejoin:round;}</style>
</defs>
<path d="m0 560h1064v-560h-1064z" fill="#fff"/>
<g fill="none" stroke="#000">
<path d="m407.88 26.56-142.23 207.59" clip-path="url(#a)"/>
<path d="m407.88 26.56-83.039 407.58" clip-path="url(#a)"/>
<path d="m407.88 26.56 225.27 104.96" clip-path="url(#a)"/>
<path d="m265.66 234.15 13.153 199.99" clip-path="url(#a)"/>
<path d="m265.66 234.15-217.02 199.99" clip-path="url(#a)"/>
<path d="m265.66 234.15-170.99 199.99" clip-path="url(#a)"/>
<path d="m265.66 234.15-124.95 199.99" clip-path="url(#a)"/>
<path d="m265.66 234.15-78.917 199.99" clip-path="url(#a)"/>
<path d="m265.66 234.15-124.95 100.69" clip-path="url(#a)"/>
<path d="m265.66 234.15 703.68 199.99" clip-path="url(#a)"/>
<path d="m278.81 434.14v99.304" clip-path="url(#a)"/>
<path d="m48.633 434.14v99.304" clip-path="url(#a)"/>
<path d="m94.668 434.14v99.304" clip-path="url(#a)"/>
<path d="m140.7 434.14v99.304" clip-path="url(#a)"/>
<path d="m186.74 434.14v99.304" clip-path="url(#a)"/>
<path d="m140.7 334.83-92.07 99.304" clip-path="url(#a)" stroke-dasharray="3.7,1.6"/>
<path d="m140.7 334.83 92.07 99.304" clip-path="url(#a)"/>
<path d="m232.77 434.14v99.304" clip-path="url(#a)"/>
<path d="m324.84 434.14v99.304" clip-path="url(#a)"/>
<path d="m633.15 131.52-216.24 302.61" clip-path="url(#a)"/>
<path d="m633.15 131.52-262.27 302.61" clip-path="url(#a)"/>
<path d="m633.15 131.52-119.56 102.62" clip-path="url(#a)"/>
<path d="m633.15 131.52 59.973 302.61" clip-path="url(#a)"/>
<path d="m633.15 131.52 155.88 102.62" clip-path="url(#a)"/>
<path d="m633.15 131.52 382.22 401.92" clip-path="url(#a)"/>
<path d="m416.91 434.14v99.304" clip-path="url(#a)"/>
<path d="m969.33 434.14v99.304" clip-path="url(#a)"/>
<path d="m370.88 434.14v99.304" clip-path="url(#a)"/>
<path d="m513.59 234.15-142.71 199.99" clip-path="url(#a)" stroke-dasharray="3.7,1.6"/>
<path d="m513.59 234.15-4.6035 199.99" clip-path="url(#a)"/>
<path d="m513.59 234.15-50.638 199.99" clip-path="url(#a)"/>
<path d="m513.59 234.15 64.449 100.69" clip-path="url(#a)"/>
<path d="m513.59 234.15 133.5 199.99" clip-path="url(#a)"/>
<path d="m508.98 434.14v99.304" clip-path="url(#a)"/>
<path d="m462.95 434.14v99.304" clip-path="url(#a)"/>
<path d="m578.03 334.83 23.017 99.304" clip-path="url(#a)"/>
<path d="m578.03 334.83-23.017 99.304" clip-path="url(#a)"/>
<path d="m601.05 434.14v99.304" clip-path="url(#a)"/>
<path d="m647.09 434.14v99.304" clip-path="url(#a)"/>
<path d="m693.12 434.14v99.304" clip-path="url(#a)"/>
<path d="m789.03 234.15-3.8362 199.99" clip-path="url(#a)"/>
<path d="m789.03 234.15-49.871 199.99" clip-path="url(#a)"/>
<path d="m789.03 234.15 53.707 100.69" clip-path="url(#a)"/>
<path d="m785.19 434.14v99.304" clip-path="url(#a)"/>
<path d="m555.02 434.14v99.304" clip-path="url(#a)"/>
<path d="m739.16 434.14v99.304" clip-path="url(#a)"/>
<path d="m842.74 334.83-103.58 99.304" clip-path="url(#a)" stroke-dasharray="3.7,1.6"/>
<path d="m842.74 334.83 34.526 99.304" clip-path="url(#a)"/>
<path d="m842.74 334.83-11.509 99.304" clip-path="url(#a)"/>
<path d="m842.74 334.83 80.561 99.304" clip-path="url(#a)"/>
<path d="m877.26 434.14v99.304" clip-path="url(#a)"/>
<path d="m831.23 434.14v99.304" clip-path="url(#a)"/>
<path d="m923.3 434.14v99.304" clip-path="url(#a)"/>
</g>
<path d="m340.24 136.38 3.4004-4.9631q1.3565-1.9799-0.62337-3.3364l-6.3872-4.3761q-1.9799-1.3565-3.3364 0.62337l-3.4004 4.9631q-1.3565 1.9799 0.62337 3.3364l6.3872 4.3761q1.9799 1.3565 3.3364-0.62337z" clip-path="url(#a)" fill="#fff" stroke="#fff"/>
<g clip-path="url(#a)">
<defs>
<path id="q" d="m9.8125 72.906h9.8594v-29.891h35.844v29.891h9.8594v-72.906h-9.8594v34.719h-35.844v-34.719h-9.8594z"/>
</defs>
<g transform="translate(336.89 134.08) rotate(-55.583) scale(.08 -.08)">
<use xlink:href="#q"/>
</g>
</g>
<path d="m372.06 233.78 0.88989-4.3678q0.47913-2.3517-1.8726-2.8308l-7.5866-1.5457q-2.3517-0.47913-2.8308 1.8726l-0.88989 4.3678q-0.47913 2.3517 1.8726 2.8308l7.5866 1.5457q2.3517 0.47913 2.8308-1.8726z" clip-path="url(#a)" fill="#fff" stroke="#fff"/>
<g clip-path="url(#a)">
<defs>
<path id="w" d="m9.8125 72.906h9.8594v-64.609h35.5v-8.2969h-45.359z"/>
</defs>
<g transform="translate(368.08 232.97) rotate(-78.484) scale(.08 -.08)">
<use xlink:href="#w"/>
</g>
</g>
<path d="m515.14 83.455 5.4533 2.541q2.1754 1.0136 3.1891-1.1618l3.27-7.0181q1.0136-2.1754-1.1618-3.1891l-5.4533-2.541q-2.1754-1.0136-3.1891 1.1618l-3.27 7.0181q-1.0136 2.1754 1.1618 3.1891z" clip-path="url(#a)" fill="#fff" stroke="#fff"/>
<g clip-path="url(#a)">
<g transform="translate(516.86 79.772) rotate(24.983) scale(.08 -.08)">
<use xlink:href="#q"/>
</g>
</g>
<path d="m265.82 332.15 0.31656 4.8134q0.1575 2.3948 2.5523 2.2373l7.7258-0.50811q2.3948-0.1575 2.2373-2.5523l-0.31656-4.8134q-0.1575-2.3948-2.5523-2.2373l-7.7258 0.50811q-2.3948 0.1575-2.2373 2.5523z" clip-path="url(#a)" fill="#fff" stroke="#fff"/>
<g clip-path="url(#a)">
<defs>
<path id="r" d="m19.672 64.797v-27.391h12.406q6.8906 0 10.641 3.5625 3.7656 3.5625 3.7656 10.156 0 6.5469-3.7656 10.109-3.75 3.5625-10.641 3.5625zm-9.8594 8.1094h22.266q12.266 0 18.531-5.5469 6.2812-5.5469 6.2812-16.234 0-10.797-6.2812-16.312-6.2656-5.5156-18.531-5.5156h-12.406v-29.297h-9.8594z"/>
</defs>
<g transform="translate(269.87 331.88) rotate(86.237) scale(.08 -.08)">
<use xlink:href="#r"/>
</g>
</g>
<path d="m159.38 340.61 4.0243-3.7085q1.7649-1.6264 0.13852-3.3913l-5.2468-5.6936q-1.6264-1.7649-3.3913-0.13852l-4.0243 3.7085q-1.7649 1.6264-0.13852 3.3913l5.2468 5.6936q1.6264 1.7649 3.3913 0.13852z" clip-path="url(#a)" fill="#fff" stroke="#fff"/>
<g clip-path="url(#a)">
<defs>
<path id="m" d="m34.188 63.188-13.391-36.281h26.812zm-5.5781 9.7188h11.188l27.781-72.906h-10.25l-6.6406 18.703h-32.859l-6.6406-18.703h-10.406z"/>
</defs>
<g transform="translate(156.63 337.62) rotate(-42.661) scale(.08 -.08)">
<use xlink:href="#m"/>
</g>
</g>
<path d="m183.43 339.97 2.9901-3.4973q1.5596-1.8242-0.26454-3.3838l-5.8848-5.0314q-1.8242-1.5596-3.3838 0.26454l-2.9901 3.4973q-1.5596 1.8242 0.26454 3.3838l5.8848 5.0314q1.8242 1.5596 3.3838-0.26454z" clip-path="url(#a)" fill="#fff" stroke="#fff"/>
<g clip-path="url(#a)">
<defs>
<path id="t" d="m9.8125 72.906h41.891v-8.3125h-32.031v-21.484h28.906v-8.2969h-28.906v-34.812h-9.8594z"/>
</defs>
<g transform="translate(180.34 337.32) rotate(-49.47) scale(.08 -.08)">
<use xlink:href="#t"/>
</g>
</g>
<path d="m206.87 340.08 3.264-5.2242q1.2717-2.0354-0.76369-3.3071l-6.5662-4.1025q-2.0354-1.2717-3.3071 0.76369l-3.264 5.2242q-1.2717 2.0354 0.76369 3.3071l6.5662 4.1025q2.0354 1.2717 3.3071-0.76369z" clip-path="url(#a)" fill="#fff" stroke="#fff"/>
<g clip-path="url(#a)">
<defs>
<path id="u" d="m19.672 64.797v-56.688h11.922q15.094 0 22.094 6.8281 7 6.8438 7 21.594 0 14.641-7 21.453t-22.094 6.8125zm-9.8594 8.1094h20.266q21.188 0 31.094-8.8125 9.9219-8.8125 9.9219-27.562 0-18.859-9.9688-27.703-9.9531-8.8281-31.047-8.8281h-20.266z"/>
</defs>
<g transform="translate(203.42 337.92) rotate(-58.003) scale(.08 -.08)">
<use xlink:href="#u"/>
</g>
</g>
<path d="m231.19 338.58 1.6889-4.2801q0.88095-2.2325-1.3515-3.1134l-7.202-2.842q-2.2325-0.88095-3.1134 1.3515l-1.6889 4.2801q-0.88095 2.2325 1.3515 3.1134l7.202 2.842q2.2325 0.88095 3.1134-1.3515z" clip-path="url(#a)" fill="#fff" stroke="#fff"/>
<g clip-path="url(#a)">
<g transform="translate(227.41 337.09) rotate(-68.465) scale(.08 -.08)">
<use xlink:href="#t"/>
</g>
</g>
<path d="m205.15 290.96 3.9361-3.1717q1.8688-1.5059 0.36293-3.3747l-4.858-6.0288q-1.5059-1.8688-3.3747-0.36293l-3.9361 3.1717q-1.8688 1.5059-0.36293 3.3747l4.858 6.0288q1.5059 1.8688 3.3747 0.36293z" clip-path="url(#a)" fill="#fff" stroke="#fff"/>
<g clip-path="url(#a)">
<defs>
<path id="o" d="m9.8125 72.906h46.094v-8.3125h-36.234v-21.578h34.719v-8.2969h-34.719v-26.422h37.109v-8.2969h-46.969z"/>
</defs>
<g transform="translate(202.6 287.79) rotate(-38.862) scale(.08 -.08)">
<use xlink:href="#o"/>
</g>
</g>
<path d="m612.96 339.37 5.632 1.6006q2.3086 0.65611 2.9647-1.6525l2.1166-7.4476q0.65611-2.3086-1.6525-2.9647l-5.632-1.6006q-2.3086-0.65611-2.9647 1.6525l-2.1166 7.4476q-0.65611 2.3086 1.6525 2.9647z" clip-path="url(#a)" fill="#fff" stroke="#fff"/>
<g clip-path="url(#a)">
<defs>
<path id="z" d="m8.6875 72.906h9.9219v-44.297q0-11.719 4.2344-16.875 4.25-5.1406 13.781-5.1406 9.4688 0 13.719 5.1406 4.25 5.1562 4.25 16.875v44.297h9.9062v-45.516q0-14.25-7.0625-21.531-7.0469-7.2812-20.812-7.2812-13.828 0-20.891 7.2812-7.0469 7.2812-7.0469 21.531z"/>
</defs>
<g transform="translate(614.07 335.46) rotate(15.865) scale(.08 -.08)">
<use xlink:href="#z"/>
</g>
</g>
<path d="m272.54 466.15v35.285q0 2.4 2.4 2.4h7.7425q2.4 0 2.4-2.4v-35.285q0-2.4-2.4-2.4h-7.7425q-2.4 0-2.4 2.4z" clip-path="url(#a)" fill="#fff" stroke="#fff"/>
<g clip-path="url(#a)">
<defs>
<path id="e" d="m-0.29688 72.906h61.672v-8.3125h-25.875v-64.594h-9.9062v64.594h-25.891z"/>
<path id="l" d="m56.203 29.594v-4.3906h-41.312q0.59375-9.2812 5.5938-14.141t13.938-4.8594q5.1719 0 10.031 1.2656t9.6562 3.8125v-8.5q-4.8438-2.0469-9.9219-3.125t-10.297-1.0781q-13.094 0-20.734 7.6094-7.6406 7.625-7.6406 20.625 0 13.422 7.25 21.297 7.25 7.8906 19.562 7.8906 11.031 0 17.453-7.1094 6.4219-7.0938 6.4219-19.297zm-8.9844 2.6406q-0.09375 7.3594-4.125 11.75-4.0312 4.4062-10.672 4.4062-7.5156 0-12.031-4.25t-5.2031-11.969z"/>
<path id="g" d="m41.109 46.297q-1.5156 0.875-3.2969 1.2812-1.7812 0.42188-3.9219 0.42188-7.625 0-11.703-4.9531t-4.0781-14.234v-28.812h-9.0312v54.688h9.0312v-8.5q2.8438 4.9844 7.375 7.3906 4.5469 2.4219 11.047 2.4219 0.92188 0 2.0469-0.125 1.125-0.10938 2.4844-0.35938z"/>
<path id="i" d="m52 44.188q3.375 6.0625 8.0625 8.9375t11.031 2.875q8.5469 0 13.188-5.9844 4.6406-5.9688 4.6406-17v-33.016h-9.0312v32.719q0 7.8594-2.7969 11.656-2.7812 3.8125-8.4844 3.8125-6.9844 0-11.047-4.6406-4.0469-4.625-4.0469-12.641v-30.906h-9.0312v32.719q0 7.9062-2.7812 11.688t-8.5938 3.7812q-6.8906 0-10.953-4.6562-4.0469-4.6562-4.0469-12.625v-30.906h-9.0312v54.688h9.0312v-8.5q3.0781 5.0312 7.375 7.4219t10.203 2.3906q5.9688 0 10.141-3.0312 4.1719-3.0156 6.1719-8.7812z"/>
<path id="k" d="m9.4219 54.688h8.9844v-54.688h-8.9844zm0 21.297h8.9844v-11.391h-8.9844z"/>
<path id="h" d="m54.891 33.016v-33.016h-8.9844v32.719q0 7.7656-3.0312 11.609-3.0312 3.8594-9.0781 3.8594-7.2812 0-11.484-4.6406-4.2031-4.625-4.2031-12.641v-30.906h-9.0312v54.688h9.0312v-8.5q3.2344 4.9375 7.5938 7.375 4.375 2.4375 10.094 2.4375 9.4219 0 14.25-5.8281 4.8438-5.8281 4.8438-17.156z"/>
<path id="f" d="m34.281 27.484q-10.891 0-15.094-2.4844t-4.2031-8.5q0-4.7812 3.1562-7.5938 3.1562-2.7969 8.5625-2.7969 7.4844 0 12 5.2969t4.5156 14.078v2zm17.922 3.7188v-31.203h-8.9844v8.2969q-3.0781-4.9688-7.6719-7.3438t-11.234-2.375q-8.3906 0-13.359 4.7188-4.9531 4.7188-4.9531 12.625 0 9.2188 6.1719 13.906 6.1875 4.6875 18.438 4.6875h12.609v0.89062q0 6.2031-4.0781 9.5938t-11.453 3.3906q-4.6875 0-9.1406-1.125-4.4375-1.125-8.5312-3.375v8.3125q4.9219 1.9062 9.5625 2.8438 4.6406 0.95312 9.0312 0.95312 11.875 0 17.734-6.1562 5.8594-6.1406 5.8594-18.641z"/>
<path id="j" d="m9.4219 75.984h8.9844v-75.984h-8.9844z"/>
</defs>
<g transform="translate(276.6 466.15) rotate(90) scale(.08 -.08)">
<use xlink:href="#e"/>
<use x="60.818359" xlink:href="#l"/>
<use x="122.341797" xlink:href="#g"/>
<use x="163.439453" xlink:href="#i"/>
<use x="260.851562" xlink:href="#k"/>
<use x="288.634766" xlink:href="#h"/>
<use x="352.013672" xlink:href="#f"/>
<use x="413.292969" xlink:href="#j"/>
</g>
</g>
<path d="m42.362 466.15v35.285q0 2.4 2.4 2.4h7.7425q2.4 0 2.4-2.4v-35.285q0-2.4-2.4-2.4h-7.7425q-2.4 0-2.4 2.4z" clip-path="url(#a)" fill="#fff" stroke="#fff"/>
<g clip-path="url(#a)">
<g transform="translate(46.426 466.15) rotate(90) scale(.08 -.08)">
<use xlink:href="#e"/>
<use x="60.818359" xlink:href="#l"/>
<use x="122.341797" xlink:href="#g"/>
<use x="163.439453" xlink:href="#i"/>
<use x="260.851562" xlink:href="#k"/>
<use x="288.634766" xlink:href="#h"/>
<use x="352.013672" xlink:href="#f"/>
<use x="413.292969" xlink:href="#j"/>
</g>
</g>
<path d="m88.397 466.15v35.285q0 2.4 2.4 2.4h7.7425q2.4 0 2.4-2.4v-35.285q0-2.4-2.4-2.4h-7.7425q-2.4 0-2.4 2.4z" clip-path="url(#a)" fill="#fff" stroke="#fff"/>
<g clip-path="url(#a)">
<g transform="translate(92.461 466.15) rotate(90) scale(.08 -.08)">
<use xlink:href="#e"/>
<use x="60.818359" xlink:href="#l"/>
<use x="122.341797" xlink:href="#g"/>
<use x="163.439453" xlink:href="#i"/>
<use x="260.851562" xlink:href="#k"/>
<use x="288.634766" xlink:href="#h"/>
<use x="352.013672" xlink:href="#f"/>
<use x="413.292969" xlink:href="#j"/>
</g>
</g>
<path d="m134.43 466.15v35.285q0 2.4 2.4 2.4h7.7425q2.4 0 2.4-2.4v-35.285q0-2.4-2.4-2.4h-7.7425q-2.4 0-2.4 2.4z" clip-path="url(#a)" fill="#fff" stroke="#fff"/>
<g clip-path="url(#a)">
<g transform="translate(138.5 466.15) rotate(90) scale(.08 -.08)">
<use xlink:href="#e"/>
<use x="60.818359" xlink:href="#l"/>
<use x="122.341797" xlink:href="#g"/>
<use x="163.439453" xlink:href="#i"/>
<use x="260.851562" xlink:href="#k"/>
<use x="288.634766" xlink:href="#h"/>
<use x="352.013672" xlink:href="#f"/>
<use x="413.292969" xlink:href="#j"/>
</g>
</g>
<path d="m180.47 466.15v35.285q0 2.4 2.4 2.4h7.7425q2.4 0 2.4-2.4v-35.285q0-2.4-2.4-2.4h-7.7425q-2.4 0-2.4 2.4z" clip-path="url(#a)" fill="#fff" stroke="#fff"/>
<g clip-path="url(#a)">
<g transform="translate(184.53 466.15) rotate(90) scale(.08 -.08)">
<use xlink:href="#e"/>
<use x="60.818359" xlink:href="#l"/>
<use x="122.341797" xlink:href="#g"/>
<use x="163.439453" xlink:href="#i"/>
<use x="260.851562" xlink:href="#k"/>
<use x="288.634766" xlink:href="#h"/>
<use x="352.013672" xlink:href="#f"/>
<use x="413.292969" xlink:href="#j"/>
</g>
</g>
<path d="m97.407 390.75 3.7207-4.0131q1.6317-1.7599-0.12821-3.3917l-5.6777-5.2641q-1.7599-1.6317-3.3917 0.12821l-3.7207 4.0131q-1.6317 1.7599 0.12821 3.3917l5.6777 5.2641q1.7599 1.6317 3.3917-0.12821z" clip-path="url(#a)" fill="#fff" stroke="#fff"/>
<g clip-path="url(#a)">
<g transform="translate(94.427 387.99) rotate(-47.165) scale(.08 -.08)">
<use xlink:href="#m"/>
</g>
</g>
<path d="m180.41 386.89 3.453 3.7243q1.6317 1.7599 3.3917 0.12821l5.6777-5.2641q1.7599-1.6317 0.12821-3.3917l-3.453-3.7243q-1.6317-1.7599-3.3917-0.12821l-5.6777 5.2641q-1.7599 1.6317-0.12821 3.3917z" clip-path="url(#a)" fill="#fff" stroke="#fff"/>
<g clip-path="url(#a)">
<defs>
<path id="v" d="m53.516 70.516v-9.625q-5.6094 2.6875-10.594 4-4.9844 1.3281-9.625 1.3281-8.0469 0-12.422-3.125t-4.375-8.8906q0-4.8438 2.9062-7.3125 2.9062-2.4531 11.016-3.9688l5.9531-1.2188q11.031-2.1094 16.281-7.4062t5.25-14.172q0-10.609-7.1094-16.078-7.0938-5.4688-20.812-5.4688-5.1719 0-11.016 1.1719-5.8281 1.1719-12.078 3.4688v10.156q6-3.3594 11.766-5.0781 5.7656-1.7031 11.328-1.7031 8.4375 0 13.031 3.3125 4.5938 3.3281 4.5938 9.4844 0 5.3594-3.2969 8.3906t-10.812 4.5469l-6.0156 1.1719q-11.031 2.1875-15.969 6.875-4.9219 4.6875-4.9219 13.047 0 9.6719 6.8125 15.234t18.766 5.5625q5.1406 0 10.453-0.9375 5.3281-0.92188 10.891-2.7656z"/>
</defs>
<g transform="translate(183.39 384.12) rotate(47.165) scale(.08 -.08)">
<use xlink:href="#v"/>
</g>
</g>
<path d="m226.5 466.15v35.285q0 2.4 2.4 2.4h7.7425q2.4 0 2.4-2.4v-35.285q0-2.4-2.4-2.4h-7.7425q-2.4 0-2.4 2.4z" clip-path="url(#a)" fill="#fff" stroke="#fff"/>
<g clip-path="url(#a)">
<g transform="translate(230.57 466.15) rotate(90) scale(.08 -.08)">
<use xlink:href="#e"/>
<use x="60.818359" xlink:href="#l"/>
<use x="122.341797" xlink:href="#g"/>
<use x="163.439453" xlink:href="#i"/>
<use x="260.851562" xlink:href="#k"/>
<use x="288.634766" xlink:href="#h"/>
<use x="352.013672" xlink:href="#f"/>
<use x="413.292969" xlink:href="#j"/>
</g>
</g>
<path d="m318.57 466.15v35.285q0 2.4 2.4 2.4h7.7425q2.4 0 2.4-2.4v-35.285q0-2.4-2.4-2.4h-7.7425q-2.4 0-2.4 2.4z" clip-path="url(#a)" fill="#fff" stroke="#fff"/>
<g clip-path="url(#a)">
<g transform="translate(322.64 466.15) rotate(90) scale(.08 -.08)">
<use xlink:href="#e"/>
<use x="60.818359" xlink:href="#l"/>
<use x="122.341797" xlink:href="#g"/>
<use x="163.439453" xlink:href="#i"/>
<use x="260.851562" xlink:href="#k"/>
<use x="288.634766" xlink:href="#h"/>
<use x="352.013672" xlink:href="#f"/>
<use x="413.292969" xlink:href="#j"/>
</g>
</g>
<path d="m528.8 288.35 2.6751-3.7437q1.3953-1.9527-0.55737-3.348l-6.2995-4.5014q-1.9527-1.3953-3.348 0.55737l-2.6751 3.7437q-1.3953 1.9527 0.55737 3.348l6.2995 4.5014q1.9527 1.3953 3.348-0.55737z" clip-path="url(#a)" fill="#fff" stroke="#fff"/>
<g clip-path="url(#a)">
<g transform="translate(525.49 285.98) rotate(-54.452) scale(.08 -.08)">
<use xlink:href="#t"/>
</g>
</g>
<path d="m504.96 289 3.5842-4.1355q1.5719-1.8136-0.24178-3.3855l-5.8509-5.0709q-1.8136-1.5719-3.3855 0.24178l-3.5842 4.1355q-1.5719 1.8136 0.24178 3.3855l5.8509 5.0709q1.8136 1.5719 3.3855-0.24178z" clip-path="url(#a)" fill="#fff" stroke="#fff"/>
<g clip-path="url(#a)">
<g transform="translate(501.89 286.34) rotate(-49.085) scale(.08 -.08)">
<use xlink:href="#m"/>
</g>
</g>
<path d="m575.38 189.38 4.1526-3.5643q1.8211-1.5631 0.25801-3.3843l-5.0428-5.8751q-1.5631-1.8211-3.3843-0.25801l-4.1526 3.5643q-1.8212 1.5631-0.25801 3.3843l5.0428 5.8751q1.5631 1.8211 3.3843 0.25801z" clip-path="url(#a)" fill="#fff" stroke="#fff"/>
<g clip-path="url(#a)">
<g transform="translate(572.73 186.29) rotate(-40.64) scale(.08 -.08)">
<use xlink:href="#m"/>
</g>
</g>
<path d="m656.55 281.86 0.86655 4.3725q0.46657 2.3542 2.8208 1.8876l7.5948-1.5052q2.3542-0.46657 1.8876-2.8208l-0.86655-4.3725q-0.46657-2.3542-2.8208-1.8876l-7.5948 1.5052q-2.3542 0.46657-1.8876 2.8208z" clip-path="url(#a)" fill="#fff" stroke="#fff"/>
<g clip-path="url(#a)">
<g transform="translate(660.54 281.07) rotate(78.79) scale(.08 -.08)">
<use xlink:href="#w"/>
</g>
</g>
<path d="m705.13 186.42 5.025 3.3082q2.0046 1.3197 3.3243-0.68485l4.2575-6.4668q1.3197-2.0046-0.68485-3.3243l-5.025-3.3082q-2.0046-1.3197-3.3243 0.68485l-4.2575 6.4668q-1.3197 2.0046 0.68485 3.3243z" clip-path="url(#a)" fill="#fff" stroke="#fff"/>
<g clip-path="url(#a)">
<g transform="translate(707.36 183.02) rotate(33.359) scale(.08 -.08)">
<use xlink:href="#q"/>
</g>
</g>
<path d="m818.05 335.06 3.3242 3.4955q1.6539 1.7391 3.393 0.085242l5.6105-5.3356q1.7391-1.6539 0.085242-3.393l-3.3242-3.4955q-1.6539-1.7391-3.393-0.085242l-5.6105 5.3356q-1.7391 1.6539-0.085242 3.393z" clip-path="url(#a)" fill="#fff" stroke="#fff"/>
<g clip-path="url(#a)">
<g transform="translate(821 332.25) rotate(46.439) scale(.08 -.08)">
<use xlink:href="#r"/>
</g>
</g>
<path d="m410.64 466.15v35.285q0 2.4 2.4 2.4h7.7425q2.4 0 2.4-2.4v-35.285q0-2.4-2.4-2.4h-7.7425q-2.4 0-2.4 2.4z" clip-path="url(#a)" fill="#fff" stroke="#fff"/>
<g clip-path="url(#a)">
<g transform="translate(414.71 466.15) rotate(90) scale(.08 -.08)">
<use xlink:href="#e"/>
<use x="60.818359" xlink:href="#l"/>
<use x="122.341797" xlink:href="#g"/>
<use x="163.439453" xlink:href="#i"/>
<use x="260.851562" xlink:href="#k"/>
<use x="288.634766" xlink:href="#h"/>
<use x="352.013672" xlink:href="#f"/>
<use x="413.292969" xlink:href="#j"/>
</g>
</g>
<path d="m963.06 466.15v35.285q0 2.4 2.4 2.4h7.7425q2.4 0 2.4-2.4v-35.285q0-2.4-2.4-2.4h-7.7425q-2.4 0-2.4 2.4z" clip-path="url(#a)" fill="#fff" stroke="#fff"/>
<g clip-path="url(#a)">
<g transform="translate(967.12 466.15) rotate(90) scale(.08 -.08)">
<use xlink:href="#e"/>
<use x="60.818359" xlink:href="#l"/>
<use x="122.341797" xlink:href="#g"/>
<use x="163.439453" xlink:href="#i"/>
<use x="260.851562" xlink:href="#k"/>
<use x="288.634766" xlink:href="#h"/>
<use x="352.013672" xlink:href="#f"/>
<use x="413.292969" xlink:href="#j"/>
</g>
</g>
<path d="m364.61 466.15v35.285q0 2.4 2.4 2.4h7.7425q2.4 0 2.4-2.4v-35.285q0-2.4-2.4-2.4h-7.7425q-2.4 0-2.4 2.4z" clip-path="url(#a)" fill="#fff" stroke="#fff"/>
<g clip-path="url(#a)">
<g transform="translate(368.67 466.15) rotate(90) scale(.08 -.08)">
<use xlink:href="#e"/>
<use x="60.818359" xlink:href="#l"/>
<use x="122.341797" xlink:href="#g"/>
<use x="163.439453" xlink:href="#i"/>
<use x="260.851562" xlink:href="#k"/>
<use x="288.634766" xlink:href="#h"/>
<use x="352.013672" xlink:href="#f"/>
<use x="413.292969" xlink:href="#j"/>
</g>
</g>
<path d="m445.75 340.01 3.1787-4.4546q1.3941-1.9536-0.55955-3.3477l-6.3024-4.4973q-1.9536-1.3941-3.3477 0.55955l-3.1787 4.4546q-1.3941 1.9536 0.55956 3.3477l6.3024 4.4973q1.9536 1.3941 3.3477-0.55955z" clip-path="url(#a)" fill="#fff" stroke="#fff"/>
<g clip-path="url(#a)">
<g transform="translate(442.44 337.65) rotate(-54.489) scale(.08 -.08)">
<use xlink:href="#m"/>
</g>
</g>
<path d="m517.5 336.7 0.11101-4.8225q0.05523-2.3994-2.3441-2.4546l-7.7404-0.17818q-2.3994-0.05523-2.4546 2.3441l-0.11101 4.8225q-0.055231 2.3994 2.3441 2.4546l7.7404 0.17818q2.3994 0.05523 2.4546-2.3441z" clip-path="url(#a)" fill="#fff" stroke="#fff"/>
<g clip-path="url(#a)">
<g transform="translate(513.44 336.6) rotate(-88.681) scale(.08 -.08)">
<use xlink:href="#r"/>
</g>
</g>
<path d="m493.66 338.37 1.3644-5.3887q0.5891-2.3266-1.7375-2.9157l-7.5056-1.9005q-2.3266-0.5891-2.9157 1.7375l-1.3644 5.3887q-0.5891 2.3266 1.7375 2.9157l7.5056 1.9005q2.3266 0.5891 2.9157-1.7375z" clip-path="url(#a)" fill="#fff" stroke="#fff"/>
<g clip-path="url(#a)">
<defs>
<path id="aa" d="m44.391 34.188q3.1719-1.0781 6.1719-4.5938t6.0312-9.6719l10.016-19.922h-10.609l-9.3125 18.703q-3.625 7.3281-7.0156 9.7188t-9.25 2.3906h-10.75v-30.812h-9.8594v72.906h22.266q12.5 0 18.656-5.2344 6.1562-5.2188 6.1562-15.766 0-6.8906-3.2031-11.438-3.2031-4.5312-9.2969-6.2812zm-24.719 30.609v-25.875h12.406q7.125 0 10.766 3.2969t3.6406 9.6875-3.6406 9.6406-10.766 3.25z"/>
</defs>
<g transform="translate(489.72 337.38) rotate(-75.791) scale(.08 -.08)">
<use xlink:href="#aa"/>
</g>
</g>
<path d="m539.05 285.57 2.9503 4.6091q1.2939 2.0214 3.3152 0.72748l6.521-4.1741q2.0214-1.2939 0.72748-3.3152l-2.9503-4.6091q-1.2939-2.0214-3.3152-0.72748l-6.521 4.1741q-2.0214 1.2939-0.72748 3.3152z" clip-path="url(#a)" fill="#fff" stroke="#fff"/>
<g clip-path="url(#a)">
<g transform="translate(542.48 283.37) rotate(57.377) scale(.08 -.08)">
<use xlink:href="#m"/>
</g>
</g>
<path d="m573.41 335.06 3.4201 5.1234q1.3325 1.9961 3.3286 0.66362l6.4395-4.2987q1.9961-1.3325 0.66362-3.3286l-3.4201-5.1234q-1.3325-1.9961-3.3286-0.66362l-6.4395 4.2987q-1.9961 1.3325-0.66362 3.3286z" clip-path="url(#a)" fill="#fff" stroke="#fff"/>
<g clip-path="url(#a)">
<g transform="translate(576.79 332.81) rotate(56.275) scale(.08 -.08)">
<use xlink:href="#u"/>
</g>
</g>
<path d="m502.71 466.15v35.285q0 2.4 2.4 2.4h7.7425q2.4 0 2.4-2.4v-35.285q0-2.4-2.4-2.4h-7.7425q-2.4 0-2.4 2.4z" clip-path="url(#a)" fill="#fff" stroke="#fff"/>
<g clip-path="url(#a)">
<g transform="translate(506.78 466.15) rotate(90) scale(.08 -.08)">
<use xlink:href="#e"/>
<use x="60.818359" xlink:href="#l"/>
<use x="122.341797" xlink:href="#g"/>
<use x="163.439453" xlink:href="#i"/>
<use x="260.851562" xlink:href="#k"/>
<use x="288.634766" xlink:href="#h"/>
<use x="352.013672" xlink:href="#f"/>
<use x="413.292969" xlink:href="#j"/>
</g>
</g>
<path d="m456.68 466.15v35.285q0 2.4 2.4 2.4h7.7425q2.4 0 2.4-2.4v-35.285q0-2.4-2.4-2.4h-7.7425q-2.4 0-2.4 2.4z" clip-path="url(#a)" fill="#fff" stroke="#fff"/>
<g clip-path="url(#a)">
<g transform="translate(460.74 466.15) rotate(90) scale(.08 -.08)">
<use xlink:href="#e"/>
<use x="60.818359" xlink:href="#l"/>
<use x="122.341797" xlink:href="#g"/>
<use x="163.439453" xlink:href="#i"/>
<use x="260.851562" xlink:href="#k"/>
<use x="288.634766" xlink:href="#h"/>
<use x="352.013672" xlink:href="#f"/>
<use x="413.292969" xlink:href="#j"/>
</g>
</g>
<path d="m582.8 383.18 1.2614 5.442q0.54192 2.338 2.8799 1.7961l7.5425-1.7483q2.338-0.54192 1.7961-2.8799l-1.2614-5.442q-0.54192-2.338-2.8799-1.7961l-7.5425 1.7483q-2.338 0.54192-1.7961 2.8799z" clip-path="url(#a)" fill="#fff" stroke="#fff"/>
<g clip-path="url(#a)">
<defs>
<path id="am" d="m64.406 67.281v-10.391q-4.9844 4.6406-10.625 6.9219-5.6406 2.2969-11.984 2.2969-12.5 0-19.141-7.6406t-6.6406-22.094q0-14.406 6.6406-22.047t19.141-7.6406q6.3438 0 11.984 2.2969t10.625 6.9375v-10.312q-5.1719-3.5156-10.969-5.2812-5.7812-1.75-12.219-1.75-16.562 0-26.094 10.125-9.5156 10.141-9.5156 27.672 0 17.578 9.5156 27.703 9.5312 10.141 26.094 10.141 6.5312 0 12.312-1.7344 5.7969-1.7344 10.875-5.2031z"/>
</defs>
<g transform="translate(586.76 382.26) rotate(76.95) scale(.08 -.08)">
<use xlink:href="#am"/>
</g>
</g>
<path d="m572.06 388.36 1.1414-4.9244q0.54192-2.338-1.7961-2.8799l-7.5425-1.7483q-2.338-0.54192-2.8799 1.7961l-1.1414 4.9244q-0.54192 2.338 1.7961 2.8799l7.5425 1.7483q2.338 0.54192 2.8799-1.7961z" clip-path="url(#a)" fill="#fff" stroke="#fff"/>
<g clip-path="url(#a)">
<g transform="translate(568.11 387.44) rotate(-76.95) scale(.08 -.08)">
<use xlink:href="#o"/>
</g>
</g>
<path d="m594.78 466.15v35.285q0 2.4 2.4 2.4h7.7425q2.4 0 2.4-2.4v-35.285q0-2.4-2.4-2.4h-7.7425q-2.4 0-2.4 2.4z" clip-path="url(#a)" fill="#fff" stroke="#fff"/>
<g clip-path="url(#a)">
<g transform="translate(598.84 466.15) rotate(90) scale(.08 -.08)">
<use xlink:href="#e"/>
<use x="60.818359" xlink:href="#l"/>
<use x="122.341797" xlink:href="#g"/>
<use x="163.439453" xlink:href="#i"/>
<use x="260.851562" xlink:href="#k"/>
<use x="288.634766" xlink:href="#h"/>
<use x="352.013672" xlink:href="#f"/>
<use x="413.292969" xlink:href="#j"/>
</g>
</g>
<path d="m640.82 466.15v35.285q0 2.4 2.4 2.4h7.7425q2.4 0 2.4-2.4v-35.285q0-2.4-2.4-2.4h-7.7425q-2.4 0-2.4 2.4z" clip-path="url(#a)" fill="#fff" stroke="#fff"/>
<g clip-path="url(#a)">
<g transform="translate(644.88 466.15) rotate(90) scale(.08 -.08)">
<use xlink:href="#e"/>
<use x="60.818359" xlink:href="#l"/>
<use x="122.341797" xlink:href="#g"/>
<use x="163.439453" xlink:href="#i"/>
<use x="260.851562" xlink:href="#k"/>
<use x="288.634766" xlink:href="#h"/>
<use x="352.013672" xlink:href="#f"/>
<use x="413.292969" xlink:href="#j"/>
</g>
</g>
<path d="m686.85 466.15v35.285q0 2.4 2.4 2.4h7.7425q2.4 0 2.4-2.4v-35.285q0-2.4-2.4-2.4h-7.7425q-2.4 0-2.4 2.4z" clip-path="url(#a)" fill="#fff" stroke="#fff"/>
<g clip-path="url(#a)">
<g transform="translate(690.91 466.15) rotate(90) scale(.08 -.08)">
<use xlink:href="#e"/>
<use x="60.818359" xlink:href="#l"/>
<use x="122.341797" xlink:href="#g"/>
<use x="163.439453" xlink:href="#i"/>
<use x="260.851562" xlink:href="#k"/>
<use x="288.634766" xlink:href="#h"/>
<use x="352.013672" xlink:href="#f"/>
<use x="413.292969" xlink:href="#j"/>
</g>
</g>
<path d="m793.33 336.67 0.092513-4.8229q0.046029-2.3996-2.3535-2.4456l-7.7411-0.14849q-2.3996-0.046029-2.4456 2.3535l-0.092514 4.8229q-0.046028 2.3996 2.3535 2.4456l7.7411 0.14849q2.3996 0.046029 2.4456-2.3535z" clip-path="url(#a)" fill="#fff" stroke="#fff"/>
<g clip-path="url(#a)">
<g transform="translate(789.27 336.6) rotate(-88.901) scale(.08 -.08)">
<use xlink:href="#r"/>
</g>
</g>
<path d="m769.52 338.31 1.3241-5.3099q0.5807-2.3287-1.748-2.9094l-7.5124-1.8734q-2.3287-0.5807-2.9094 1.748l-1.3241 5.3099q-0.5807 2.3287 1.748 2.9094l7.5124 1.8734q2.3287 0.5807 2.9094-1.748z" clip-path="url(#a)" fill="#fff" stroke="#fff"/>
<g clip-path="url(#a)">
<g transform="translate(765.57 337.33) rotate(-75.998) scale(.08 -.08)">
<use xlink:href="#m"/>
</g>
</g>
<path d="m809.06 285.03 2.5756 4.8285q1.1296 2.1176 3.2471 0.98802l6.8314-3.644q2.1176-1.1296 0.98802-3.2471l-2.5756-4.8285q-1.1296-2.1176-3.2471-0.98802l-6.8314 3.644q-2.1176 1.1296-0.98802 3.2471z" clip-path="url(#a)" fill="#fff" stroke="#fff"/>
<g clip-path="url(#a)">
<g transform="translate(812.65 283.11) rotate(61.924) scale(.08 -.08)">
<use xlink:href="#m"/>
</g>
</g>
<path d="m778.92 466.15v35.285q0 2.4 2.4 2.4h7.7425q2.4 0 2.4-2.4v-35.285q0-2.4-2.4-2.4h-7.7425q-2.4 0-2.4 2.4z" clip-path="url(#a)" fill="#fff" stroke="#fff"/>
<g clip-path="url(#a)">
<g transform="translate(782.98 466.15) rotate(90) scale(.08 -.08)">
<use xlink:href="#e"/>
<use x="60.818359" xlink:href="#l"/>
<use x="122.341797" xlink:href="#g"/>
<use x="163.439453" xlink:href="#i"/>
<use x="260.851562" xlink:href="#k"/>
<use x="288.634766" xlink:href="#h"/>
<use x="352.013672" xlink:href="#f"/>
<use x="413.292969" xlink:href="#j"/>
</g>
</g>
<path d="m548.75 466.15v35.285q0 2.4 2.4 2.4h7.7425q2.4 0 2.4-2.4v-35.285q0-2.4-2.4-2.4h-7.7425q-2.4 0-2.4 2.4z" clip-path="url(#a)" fill="#fff" stroke="#fff"/>
<g clip-path="url(#a)">
<g transform="translate(552.81 466.15) rotate(90) scale(.08 -.08)">
<use xlink:href="#e"/>
<use x="60.818359" xlink:href="#l"/>
<use x="122.341797" xlink:href="#g"/>
<use x="163.439453" xlink:href="#i"/>
<use x="260.851562" xlink:href="#k"/>
<use x="288.634766" xlink:href="#h"/>
<use x="352.013672" xlink:href="#f"/>
<use x="413.292969" xlink:href="#j"/>
</g>
</g>
<path d="m732.89 466.15v35.285q0 2.4 2.4 2.4h7.7425q2.4 0 2.4-2.4v-35.285q0-2.4-2.4-2.4h-7.7425q-2.4 0-2.4 2.4z" clip-path="url(#a)" fill="#fff" stroke="#fff"/>
<g clip-path="url(#a)">
<g transform="translate(736.95 466.15) rotate(90) scale(.08 -.08)">
<use xlink:href="#e"/>
<use x="60.818359" xlink:href="#l"/>
<use x="122.341797" xlink:href="#g"/>
<use x="163.439453" xlink:href="#i"/>
<use x="260.851562" xlink:href="#k"/>
<use x="288.634766" xlink:href="#h"/>
<use x="352.013672" xlink:href="#f"/>
<use x="413.292969" xlink:href="#j"/>
</g>
</g>
<path d="m793.31 390.9 3.9503-3.7873q1.7324-1.6609 0.071497-3.3934l-5.3582-5.5889q-1.6609-1.7324-3.3934-0.071497l-3.9503 3.7873q-1.7324 1.6609-0.071497 3.3934l5.3582 5.5889q1.6609 1.7324 3.3934 0.071498z" clip-path="url(#a)" fill="#fff" stroke="#fff"/>
<g clip-path="url(#a)">
<g transform="translate(790.5 387.97) rotate(-43.793) scale(.08 -.08)">
<use xlink:href="#m"/>
</g>
</g>
<path d="m853.28 384.27 1.5841 4.5562q0.78816 2.2669 3.0551 1.4787l7.3131-2.5426q2.2669-0.78816 1.4787-3.0551l-1.5841-4.5562q-0.78816-2.2669-3.0551-1.4787l-7.3131 2.5426q-2.2669 0.78816-1.4787 3.0551z" clip-path="url(#a)" fill="#fff" stroke="#fff"/>
<g clip-path="url(#a)">
<g transform="translate(857.12 382.93) rotate(70.828) scale(.08 -.08)">
<use xlink:href="#r"/>
</g>
</g>
<path d="m842.95 387.49 0.52971-4.5707q0.2763-2.384-2.1077-2.6603l-7.691-0.89134q-2.384-0.2763-2.6603 2.1077l-0.52971 4.5707q-0.2763 2.384 2.1077 2.6603l7.691 0.89134q2.384 0.2763 2.6603-2.1077z" clip-path="url(#a)" fill="#fff" stroke="#fff"/>
<g clip-path="url(#a)">
<g transform="translate(838.91 387.02) rotate(-83.389) scale(.08 -.08)">
<use xlink:href="#t"/>
</g>
</g>
<path d="m876.42 386.31 3.4477 4.2499q1.512 1.8638 3.3758 0.35178l6.0127-4.8779q1.8638-1.512 0.35178-3.3758l-3.4477-4.2499q-1.512-1.8638-3.3758-0.35178l-6.0127 4.8779q-1.8638 1.512-0.35178 3.3758z" clip-path="url(#a)" fill="#fff" stroke="#fff"/>
<g clip-path="url(#a)">
<g transform="translate(879.58 383.75) rotate(50.949) scale(.08 -.08)">
<use xlink:href="#m"/>
</g>
</g>
<path d="m870.99 466.15v35.285q0 2.4 2.4 2.4h7.7425q2.4 0 2.4-2.4v-35.285q0-2.4-2.4-2.4h-7.7425q-2.4 0-2.4 2.4z" clip-path="url(#a)" fill="#fff" stroke="#fff"/>
<g clip-path="url(#a)">
<g transform="translate(875.05 466.15) rotate(90) scale(.08 -.08)">
<use xlink:href="#e"/>
<use x="60.818359" xlink:href="#l"/>
<use x="122.341797" xlink:href="#g"/>
<use x="163.439453" xlink:href="#i"/>
<use x="260.851562" xlink:href="#k"/>
<use x="288.634766" xlink:href="#h"/>
<use x="352.013672" xlink:href="#f"/>
<use x="413.292969" xlink:href="#j"/>
</g>
</g>
<path d="m824.96 466.15v35.285q0 2.4 2.4 2.4h7.7425q2.4 0 2.4-2.4v-35.285q0-2.4-2.4-2.4h-7.7425q-2.4 0-2.4 2.4z" clip-path="url(#a)" fill="#fff" stroke="#fff"/>
<g clip-path="url(#a)">
<g transform="translate(829.02 466.15) rotate(90) scale(.08 -.08)">
<use xlink:href="#e"/>
<use x="60.818359" xlink:href="#l"/>
<use x="122.341797" xlink:href="#g"/>
<use x="163.439453" xlink:href="#i"/>
<use x="260.851562" xlink:href="#k"/>
<use x="288.634766" xlink:href="#h"/>
<use x="352.013672" xlink:href="#f"/>
<use x="413.292969" xlink:href="#j"/>
</g>
</g>
<path d="m917.03 466.15v35.285q0 2.4 2.4 2.4h7.7425q2.4 0 2.4-2.4v-35.285q0-2.4-2.4-2.4h-7.7425q-2.4 0-2.4 2.4z" clip-path="url(#a)" fill="#fff" stroke="#fff"/>
<g clip-path="url(#a)">
<g transform="translate(921.09 466.15) rotate(90) scale(.08 -.08)">
<use xlink:href="#e"/>
<use x="60.818359" xlink:href="#l"/>
<use x="122.341797" xlink:href="#g"/>
<use x="163.439453" xlink:href="#i"/>
<use x="260.851562" xlink:href="#k"/>
<use x="288.634766" xlink:href="#h"/>
<use x="352.013672" xlink:href="#f"/>
<use x="413.292969" xlink:href="#j"/>
</g>
</g>
<defs>
<path id="b" d="m0 8.6603c2.2967 0 4.4997-0.9125 6.1237-2.5365 1.624-1.624 2.5365-3.827 2.5365-6.1237s-0.9125-4.4997-2.5365-6.1237c-1.624-1.624-3.827-2.5365-6.1237-2.5365s-4.4997 0.9125-6.1237 2.5365c-1.624 1.624-2.5365 3.827-2.5365 6.1237s0.9125 4.4997 2.5365 6.1237c1.624 1.624 3.827 2.5365 6.1237 2.5365z"/>
</defs>
<g clip-path="url(#a)">
<use x="48.633416" y="533.439744" fill="#ffffff" stroke="#ffffff" xlink:href="#b"/>
</g>
<g clip-path="url(#a)">
<use x="94.668329" y="533.439744" fill="#ffffff" stroke="#ffffff" xlink:href="#b"/>
</g>
<g clip-path="url(#a)">
<use x="140.703241" y="533.439744" fill="#ffffff" stroke="#ffffff" xlink:href="#b"/>
</g>
<g clip-path="url(#a)">
<use x="186.738154" y="533.439744" fill="#ffffff" stroke="#ffffff" xlink:href="#b"/>
</g>
<g clip-path="url(#a)">
<use x="232.773067" y="533.439744" fill="#ffffff" stroke="#ffffff" xlink:href="#b"/>
</g>
<g clip-path="url(#a)">
<use x="278.80798" y="533.439744" fill="#ffffff" stroke="#ffffff" xlink:href="#b"/>
</g>
<g clip-path="url(#a)">
<use x="324.842892" y="533.439744" fill="#ffffff" stroke="#ffffff" xlink:href="#b"/>
</g>
<g clip-path="url(#a)">
<use x="370.877805" y="533.439744" fill="#ffffff" stroke="#ffffff" xlink:href="#b"/>
</g>
<g clip-path="url(#a)">
<use x="416.912718" y="533.439744" fill="#ffffff" stroke="#ffffff" xlink:href="#b"/>
</g>
<g clip-path="url(#a)">
<use x="462.947631" y="533.439744" fill="#ffffff" stroke="#ffffff" xlink:href="#b"/>
</g>
<g clip-path="url(#a)">
<use x="508.982544" y="533.439744" fill="#ffffff" stroke="#ffffff" xlink:href="#b"/>
</g>
<g clip-path="url(#a)">
<use x="555.017456" y="533.439744" fill="#ffffff" stroke="#ffffff" xlink:href="#b"/>
</g>
<g clip-path="url(#a)">
<use x="601.052369" y="533.439744" fill="#ffffff" stroke="#ffffff" xlink:href="#b"/>
</g>
<g clip-path="url(#a)">
<use x="647.087282" y="533.439744" fill="#ffffff" stroke="#ffffff" xlink:href="#b"/>
</g>
<g clip-path="url(#a)">
<use x="693.122195" y="533.439744" fill="#ffffff" stroke="#ffffff" xlink:href="#b"/>
</g>
<g clip-path="url(#a)">
<use x="739.157108" y="533.439744" fill="#ffffff" stroke="#ffffff" xlink:href="#b"/>
</g>
<g clip-path="url(#a)">
<use x="785.19202" y="533.439744" fill="#ffffff" stroke="#ffffff" xlink:href="#b"/>
</g>
<g clip-path="url(#a)">
<use x="831.226933" y="533.439744" fill="#ffffff" stroke="#ffffff" xlink:href="#b"/>
</g>
<g clip-path="url(#a)">
<use x="877.261846" y="533.439744" fill="#ffffff" stroke="#ffffff" xlink:href="#b"/>
</g>
<g clip-path="url(#a)">
<use x="923.296759" y="533.439744" fill="#ffffff" stroke="#ffffff" xlink:href="#b"/>
</g>
<g clip-path="url(#a)">
<use x="969.331671" y="533.439744" fill="#ffffff" stroke="#ffffff" xlink:href="#b"/>
</g>
<g clip-path="url(#a)">
<use x="407.882324" y="26.560256" fill="#ffffff" stroke="#ffffff" xlink:href="#b"/>
</g>
<g clip-path="url(#a)">
<use x="265.655147" y="234.146705" fill="#ffffff" stroke="#ffffff" xlink:href="#b"/>
</g>
<g clip-path="url(#a)">
<use x="278.80798" y="434.135873" fill="#ffffff" stroke="#ffffff" xlink:href="#b"/>
</g>
<g clip-path="url(#a)">
<use x="48.633416" y="434.135873" fill="#ffffff" stroke="#ffffff" xlink:href="#b"/>
</g>
<g clip-path="url(#a)">
<use x="94.668329" y="434.135873" fill="#ffffff" stroke="#ffffff" xlink:href="#b"/>
</g>
<g clip-path="url(#a)">
<use x="140.703241" y="434.135873" fill="#ffffff" stroke="#ffffff" xlink:href="#b"/>
</g>
<g clip-path="url(#a)">
<use x="186.738154" y="434.135873" fill="#ffffff" stroke="#ffffff" xlink:href="#b"/>
</g>
<g clip-path="url(#a)">
<use x="140.703241" y="334.832002" fill="#ffffff" stroke="#ffffff" xlink:href="#b"/>
</g>
<g clip-path="url(#a)">
<use x="232.773067" y="434.135873" fill="#ffffff" stroke="#ffffff" xlink:href="#b"/>
</g>
<g clip-path="url(#a)">
<use x="324.842892" y="434.135873" fill="#ffffff" stroke="#ffffff" xlink:href="#b"/>
</g>
<g clip-path="url(#a)">
<use x="633.148933" y="131.522637" fill="#ffffff" stroke="#ffffff" xlink:href="#b"/>
</g>
<g clip-path="url(#a)">
<use x="416.912718" y="434.135873" fill="#ffffff" stroke="#ffffff" xlink:href="#b"/>
</g>
<g clip-path="url(#a)">
<use x="969.331671" y="434.135873" fill="#ffffff" stroke="#ffffff" xlink:href="#b"/>
</g>
<g clip-path="url(#a)">
<use x="370.877805" y="434.135873" fill="#ffffff" stroke="#ffffff" xlink:href="#b"/>
</g>
<g clip-path="url(#a)">
<use x="513.586035" y="234.146705" fill="#ffffff" stroke="#ffffff" xlink:href="#b"/>
</g>
<g clip-path="url(#a)">
<use x="508.982544" y="434.135873" fill="#ffffff" stroke="#ffffff" xlink:href="#b"/>
</g>
<g clip-path="url(#a)">
<use x="462.947631" y="434.135873" fill="#ffffff" stroke="#ffffff" xlink:href="#b"/>
</g>
<g clip-path="url(#a)">
<use x="578.034913" y="334.832002" fill="#ffffff" stroke="#ffffff" xlink:href="#b"/>
</g>
<g clip-path="url(#a)">
<use x="601.052369" y="434.135873" fill="#ffffff" stroke="#ffffff" xlink:href="#b"/>
</g>
<g clip-path="url(#a)">
<use x="647.087282" y="434.135873" fill="#ffffff" stroke="#ffffff" xlink:href="#b"/>
</g>
<g clip-path="url(#a)">
<use x="693.122195" y="434.135873" fill="#ffffff" stroke="#ffffff" xlink:href="#b"/>
</g>
<g clip-path="url(#a)">
<use x="789.028263" y="234.146705" fill="#ffffff" stroke="#ffffff" xlink:href="#b"/>
</g>
<g clip-path="url(#a)">
<use x="785.19202" y="434.135873" fill="#ffffff" stroke="#ffffff" xlink:href="#b"/>
</g>
<g clip-path="url(#a)">
<use x="555.017456" y="434.135873" fill="#ffffff" stroke="#ffffff" xlink:href="#b"/>
</g>
<g clip-path="url(#a)">
<use x="739.157108" y="434.135873" fill="#ffffff" stroke="#ffffff" xlink:href="#b"/>
</g>
<g clip-path="url(#a)">
<use x="842.735661" y="334.832002" fill="#ffffff" stroke="#ffffff" xlink:href="#b"/>
</g>
<g clip-path="url(#a)">
<use x="877.261846" y="434.135873" fill="#ffffff" stroke="#ffffff" xlink:href="#b"/>
</g>
<g clip-path="url(#a)">
<use x="831.226933" y="434.135873" fill="#ffffff" stroke="#ffffff" xlink:href="#b"/>
</g>
<g clip-path="url(#a)">
<use x="923.296759" y="434.135873" fill="#ffffff" stroke="#ffffff" xlink:href="#b"/>
</g>
<g clip-path="url(#a)">
<use x="1015.366584" y="533.439744" fill="#ffffff" stroke="#ffffff" xlink:href="#b"/>
</g>
<g clip-path="url(#a)">
<defs>
<path id="s" d="m9.8125 72.906h9.8594v-72.906h-9.8594z"/>
</defs>
<g transform="translate(44.105 536.2) scale(.1 -.1)">
<use xlink:href="#s"/>
<use x="29.492188" xlink:href="#e"/>
</g>
</g>
<g clip-path="url(#a)">
<g transform="translate(91.494 536.2) scale(.1 -.1)">
<use xlink:href="#v"/>
</g>
</g>
<g clip-path="url(#a)">
<defs>
<path id="ak" d="m9.8125 72.906h13.281l32.328-60.984v60.984h9.5625v-72.906h-13.281l-32.312 60.984v-60.984h-9.5781z"/>
<path id="p" d="m39.406 66.219q-10.75 0-17.078-8.0156-6.3125-8-6.3125-21.828 0-13.766 6.3125-21.781 6.3281-8 17.078-8 10.734 0 17.016 8 6.2812 8.0156 6.2812 21.781 0 13.828-6.2812 21.828-6.2812 8.0156-17.016 8.0156zm0 8q15.328 0 24.5-10.281 9.1875-10.281 9.1875-27.562 0-17.234-9.1875-27.516-9.1719-10.281-24.5-10.281-15.375 0-24.594 10.25-9.2031 10.266-9.2031 27.547t9.2031 27.562q9.2188 10.281 24.594 10.281z"/>
</defs>
<g transform="translate(129.97 536.2) scale(.1 -.1)">
<use xlink:href="#ak"/>
<use x="74.804688" xlink:href="#p"/>
<use x="153.515625" xlink:href="#e"/>
</g>
</g>
<g clip-path="url(#a)">
<g transform="translate(183.32 536.2) scale(.1 -.1)">
<use xlink:href="#m"/>
</g>
</g>
<g clip-path="url(#a)">
<defs>
<path id="x" d="m19.672 34.812v-26.703h15.828q7.9531 0 11.781 3.2969 3.8438 3.2969 3.8438 10.078 0 6.8438-3.8438 10.078-3.8281 3.25-11.781 3.25zm0 29.984v-21.969h14.609q7.2188 0 10.75 2.7031 3.5469 2.7188 3.5469 8.2812 0 5.5156-3.5469 8.25-3.5312 2.7344-10.75 2.7344zm-9.8594 8.1094h25.203q11.281 0 17.375-4.6875 6.1094-4.6875 6.1094-13.328 0-6.7031-3.125-10.656t-9.1875-4.9219q7.2812-1.5625 11.312-6.5312 4.0312-4.9531 4.0312-12.375 0-9.7656-6.6406-15.094-6.6406-5.3125-18.906-5.3125h-26.172z"/>
<path id="ab" d="m59.516 10.406v19.578h-16.109v8.1094h25.875v-31.312q-5.7031-4.0469-12.594-6.125-6.875-2.0781-14.688-2.0781-17.094 0-26.75 9.9844-9.6406 10-9.6406 27.812 0 17.875 9.6406 27.859 9.6562 9.9844 26.75 9.9844 7.125 0 13.547-1.7656 6.4219-1.75 11.844-5.1719v-10.5q-5.4688 4.6406-11.625 6.9844t-12.938 2.3438q-13.391 0-20.109-7.4688-6.7031-7.4688-6.7031-22.266 0-14.75 6.7031-22.219 6.7188-7.4688 20.109-7.4688 5.2188 0 9.3125 0.90625 4.1094 0.90625 7.375 2.8125z"/>
</defs>
<g transform="translate(223.99 536.2) scale(.1 -.1)">
<use xlink:href="#x"/>
<use x="68.603516" xlink:href="#s"/>
<use x="98.095703" xlink:href="#ab"/>
</g>
</g>
<g clip-path="url(#a)">
<g transform="translate(265.59 536.2) scale(.1 -.1)">
<use xlink:href="#u"/>
<use x="77.001953" xlink:href="#o"/>
<use x="140.185547" xlink:href="#m"/>
<use x="208.59375" xlink:href="#w"/>
</g>
</g>
<g clip-path="url(#a)">
<g transform="translate(314.7 536.2) scale(.1 -.1)">
<use xlink:href="#x"/>
<use x="68.603516" xlink:href="#z"/>
<use x="141.796875" xlink:href="#e"/>
</g>
</g>
<g clip-path="url(#a)">
<g transform="translate(369.4 536.2) scale(.1 -.1)">
<use xlink:href="#s"/>
</g>
</g>
<g clip-path="url(#a)">
<g transform="translate(405.88 536.2) scale(.1 -.1)">
<use xlink:href="#q"/>
<use x="75.195312" xlink:href="#m"/>
<use x="143.603516" xlink:href="#u"/>
</g>
</g>
<g clip-path="url(#a)">
<g transform="translate(455.96 536.2) scale(.1 -.1)">
<use xlink:href="#e"/>
<use x="61.083984" xlink:href="#p"/>
</g>
</g>
<g clip-path="url(#a)">
<defs>
<path id="an" d="m9.8125 72.906h9.8594v-30.812l32.719 30.812h12.703l-36.188-33.984 38.766-38.922h-12.984l-35.016 35.109v-35.109h-9.8594z"/>
</defs>
<g transform="translate(496.08 536.2) scale(.1 -.1)">
<use xlink:href="#e"/>
<use x="60.974609" xlink:href="#m"/>
<use x="129.382812" xlink:href="#an"/>
<use x="194.958984" xlink:href="#o"/>
</g>
</g>
<g clip-path="url(#a)">
<defs>
<path id="al" d="m9.8125 72.906h14.703l18.594-49.609 18.703 49.609h14.703v-72.906h-9.625v64.016l-18.797-50h-9.9062l-18.797 50v-64.016h-9.5781z"/>
<path id="aj" d="m-0.20312 72.906h10.609l20.203-29.984 20.078 29.984h10.594l-25.781-38.188v-34.719h-9.9062v34.719z"/>
</defs>
<g transform="translate(547.65 536.2) scale(.1 -.1)">
<use xlink:href="#al"/>
<use x="86.279297" xlink:href="#aj"/>
</g>
</g>
<g clip-path="url(#a)">
<g transform="translate(584.4 536.2) scale(.1 -.1)">
<use xlink:href="#v"/>
<use x="63.492188" xlink:href="#m"/>
<use x="131.900391" xlink:href="#w"/>
<use x="187.644531" xlink:href="#m"/>
<use x="256.052734" xlink:href="#u"/>
</g>
</g>
<g clip-path="url(#a)">
<g transform="translate(631.92 536.2) scale(.1 -.1)">
<use xlink:href="#q"/>
<use x="75.195312" xlink:href="#p"/>
<use x="153.90625" xlink:href="#al"/>
<use x="240.185547" xlink:href="#o"/>
</g>
</g>
<g clip-path="url(#a)">
<g transform="translate(669.63 536.2) scale(.1 -.1)">
<use xlink:href="#x"/>
<use x="68.603516" xlink:href="#o"/>
<use x="131.787109" xlink:href="#am"/>
<use x="201.611328" xlink:href="#m"/>
<use x="270.019531" xlink:href="#z"/>
<use x="343.212891" xlink:href="#v"/>
<use x="406.689453" xlink:href="#o"/>
</g>
</g>
<g clip-path="url(#a)">
<g transform="translate(726.13 536.2) scale(.1 -.1)">
<use xlink:href="#e"/>
<use x="61.083984" xlink:href="#q"/>
<use x="136.279297" xlink:href="#o"/>
<use x="199.462891" xlink:href="#aj"/>
</g>
</g>
<g clip-path="url(#a)">
<g transform="translate(764.04 536.2) scale(.1 -.1)">
<use xlink:href="#t"/>
<use x="57.519531" xlink:href="#p"/>
<use x="136.230469" xlink:href="#aa"/>
<use x="205.712891" xlink:href="#ab"/>
<use x="283.203125" xlink:href="#p"/>
<use x="361.914062" xlink:href="#e"/>
</g>
</g>
<g clip-path="url(#a)">
<g transform="translate(824.24 536.2) scale(.1 -.1)">
<use xlink:href="#e"/>
<use x="61.083984" xlink:href="#p"/>
</g>
</g>
<g clip-path="url(#a)">
<g transform="translate(861.27 536.2) scale(.1 -.1)">
<use xlink:href="#x"/>
<use x="68.603516" xlink:href="#aa"/>
<use x="138.085938" xlink:href="#s"/>
<use x="167.578125" xlink:href="#ak"/>
<use x="242.382812" xlink:href="#ab"/>
</g>
</g>
<g clip-path="url(#a)">
<g transform="translate(918.77 536.2) scale(.1 -.1)">
<use xlink:href="#s"/>
<use x="29.492188" xlink:href="#e"/>
</g>
</g>
<g clip-path="url(#a)">
<defs>
<path id="d" d="m10.688 12.406h10.312v-12.406h-10.312z"/>
</defs>
<g transform="translate(967.74 536.2) scale(.1 -.1)">
<use xlink:href="#d"/>
</g>
</g>
<g clip-path="url(#a)">
<defs>
<path id="c" d="m12.406 8.2969h16.109v55.625l-17.531-3.5156v8.9844l17.438 3.5156h9.8594v-64.609h16.109v-8.2969h-41.984z"/>
</defs>
<g transform="translate(399.93 29.32) scale(.1 -.1)">
<use xlink:href="#c"/>
<use x="63.623047" xlink:href="#d"/>
<use x="95.410156" xlink:href="#c"/>
</g>
</g>
<g clip-path="url(#a)">
<defs>
<path id="n" d="m19.188 8.2969h34.422v-8.2969h-46.281v8.2969q5.6094 5.8125 15.297 15.594 9.7031 9.7969 12.188 12.641 4.7344 5.3125 6.6094 9 1.8906 3.6875 1.8906 7.25 0 5.8125-4.0781 9.4688-4.0781 3.6719-10.625 3.6719-4.6406 0-9.7969-1.6094-5.1406-1.6094-11-4.8906v9.9688q5.9531 2.3906 11.125 3.6094 5.1875 1.2188 9.4844 1.2188 11.328 0 18.062-5.6719 6.7344-5.6562 6.7344-15.125 0-4.5-1.6875-8.5312-1.6719-4.0156-6.125-9.4844-1.2188-1.4219-7.7656-8.1875-6.5312-6.7656-18.453-18.922z"/>
</defs>
<g transform="translate(257.7 236.91) scale(.1 -.1)">
<use xlink:href="#c"/>
<use x="63.623047" xlink:href="#d"/>
<use x="95.410156" xlink:href="#n"/>
</g>
</g>
<g clip-path="url(#a)">
<defs>
<path id="y" d="m40.578 39.312q7.0781-1.5156 11.047-6.3125 3.9844-4.7812 3.9844-11.812 0-10.781-7.4219-16.703-7.4219-5.9062-21.094-5.9062-4.5781 0-9.4375 0.90625t-10.031 2.7188v9.5156q4.0938-2.3906 8.9688-3.6094 4.8906-1.2188 10.219-1.2188 9.2656 0 14.125 3.6562t4.8594 10.641q0 6.4531-4.5156 10.078-4.5156 3.6406-12.562 3.6406h-8.5v8.1094h8.8906q7.2656 0 11.125 2.9062t3.8594 8.375q0 5.6094-3.9844 8.6094-3.9688 3.0156-11.391 3.0156-4.0625 0-8.7031-0.89062-4.6406-0.875-10.203-2.7188v8.7812q5.625 1.5625 10.531 2.3438t9.25 0.78125q11.234 0 17.766-5.1094 6.5469-5.0938 6.5469-13.781 0-6.0625-3.4688-10.234t-9.8594-5.7812z"/>
</defs>
<g transform="translate(270.86 436.9) scale(.1 -.1)">
<use xlink:href="#c"/>
<use x="63.623047" xlink:href="#d"/>
<use x="95.410156" xlink:href="#y"/>
</g>
</g>
<g clip-path="url(#a)">
<defs>
<path id="ah" d="m37.797 64.312-24.906-38.922h24.906zm-2.5938 8.5938h12.406v-47.516h10.406v-8.2031h-10.406v-17.188h-9.8125v17.188h-32.906v9.5156z"/>
</defs>
<g transform="translate(40.682 436.9) scale(.1 -.1)">
<use xlink:href="#c"/>
<use x="63.623047" xlink:href="#d"/>
<use x="95.410156" xlink:href="#ah"/>
</g>
</g>
<g clip-path="url(#a)">
<defs>
<path id="ag" d="m10.797 72.906h38.719v-8.3125h-29.688v-17.859q2.1406 0.73438 4.2812 1.0938 2.1562 0.35938 4.3125 0.35938 12.203 0 19.328-6.6875 7.1406-6.6875 7.1406-18.109 0-11.766-7.3281-18.297-7.3281-6.5156-20.656-6.5156-4.5938 0-9.3594 0.78125-4.75 0.78125-9.8281 2.3438v9.9219q4.3906-2.3906 9.0781-3.5625t9.9062-1.1719q8.4531 0 13.375 4.4375 4.9375 4.4375 4.9375 12.062 0 7.6094-4.9375 12.047-4.9219 4.4531-13.375 4.4531-3.9531 0-7.8906-0.875-3.9219-0.875-8.0156-2.7344z"/>
</defs>
<g transform="translate(86.717 436.9) scale(.1 -.1)">
<use xlink:href="#c"/>
<use x="63.623047" xlink:href="#d"/>
<use x="95.410156" xlink:href="#ag"/>
</g>
</g>
<g clip-path="url(#a)">
<defs>
<path id="af" d="m33.016 40.375q-6.6406 0-10.531-4.5469-3.875-4.5312-3.875-12.438 0-7.8594 3.875-12.438 3.8906-4.5625 10.531-4.5625t10.516 4.5625q3.875 4.5781 3.875 12.438 0 7.9062-3.875 12.438-3.875 4.5469-10.516 4.5469zm19.578 30.922v-8.9844q-3.7188 1.75-7.5 2.6719-3.7812 0.9375-7.5 0.9375-9.7656 0-14.922-6.5938-5.1406-6.5938-5.875-19.922 2.875 4.25 7.2188 6.5156 4.3594 2.2656 9.5781 2.2656 10.984 0 17.359-6.6719 6.375-6.6562 6.375-18.125 0-11.234-6.6406-18.031-6.6406-6.7812-17.672-6.7812-12.656 0-19.344 9.6875-6.6875 9.7031-6.6875 28.109 0 17.281 8.2031 27.562t22.016 10.281q3.7188 0 7.5-0.73438t7.8906-2.1875z"/>
</defs>
<g transform="translate(132.75 436.9) scale(.1 -.1)">
<use xlink:href="#c"/>
<use x="63.623047" xlink:href="#d"/>
<use x="95.410156" xlink:href="#af"/>
</g>
</g>
<g clip-path="url(#a)">
<defs>
<path id="ae" d="m8.2031 72.906h46.875v-4.2031l-26.469-68.703h-10.297l24.906 64.594h-35.016z"/>
</defs>
<g transform="translate(178.79 436.9) scale(.1 -.1)">
<use xlink:href="#c"/>
<use x="63.623047" xlink:href="#d"/>
<use x="95.410156" xlink:href="#ae"/>
</g>
</g>
<g clip-path="url(#a)">
<defs>
<path id="ad" d="m31.781 34.625q-7.0312 0-11.062-3.7656-4.0156-3.7656-4.0156-10.344 0-6.5938 4.0156-10.359 4.0312-3.7656 11.062-3.7656t11.078 3.7812q4.0625 3.7969 4.0625 10.344 0 6.5781-4.0312 10.344-4.0156 3.7656-11.109 3.7656zm-9.8594 4.1875q-6.3438 1.5625-9.8906 5.9062-3.5312 4.3594-3.5312 10.609 0 8.7344 6.2188 13.812 6.2344 5.0781 17.062 5.0781 10.891 0 17.094-5.0781t6.2031-13.812q0-6.25-3.5469-10.609-3.5312-4.3438-9.8281-5.9062 7.125-1.6562 11.094-6.5 3.9844-4.8281 3.9844-11.797 0-10.609-6.4688-16.281-6.4688-5.6562-18.531-5.6562-12.047 0-18.531 5.6562-6.4688 5.6719-6.4688 16.281 0 6.9688 4 11.797 4.0156 4.8438 11.141 6.5zm-3.6094 15.578q0-5.6562 3.5312-8.8281 3.5469-3.1719 9.9375-3.1719 6.3594 0 9.9375 3.1719 3.5938 3.1719 3.5938 8.8281 0 5.6719-3.5938 8.8438-3.5781 3.1719-9.9375 3.1719-6.3906 0-9.9375-3.1719-3.5312-3.1719-3.5312-8.8438z"/>
</defs>
<g transform="translate(132.75 337.59) scale(.1 -.1)">
<use xlink:href="#c"/>
<use x="63.623047" xlink:href="#d"/>
<use x="95.410156" xlink:href="#ad"/>
</g>
</g>
<g clip-path="url(#a)">
<defs>
<path id="ac" d="m10.984 1.5156v8.9844q3.7188-1.7656 7.5156-2.6875 3.8125-0.92188 7.4844-0.92188 9.7656 0 14.906 6.5625 5.1562 6.5625 5.8906 19.953-2.8281-4.2031-7.1875-6.4531-4.3438-2.25-9.6094-2.25-10.938 0-17.312 6.6094-6.375 6.625-6.375 18.109 0 11.219 6.6406 18 6.6406 6.7969 17.672 6.7969 12.656 0 19.312-9.7031 6.6719-9.6875 6.6719-28.141 0-17.234-8.1875-27.516-8.1719-10.281-21.984-10.281-3.7188 0-7.5312 0.73438-3.7969 0.73438-7.9062 2.2031zm19.625 30.906q6.6406 0 10.516 4.5312 3.8906 4.5469 3.8906 12.469 0 7.8594-3.8906 12.422-3.875 4.5625-10.516 4.5625t-10.516-4.5625-3.875-12.422q0-7.9219 3.875-12.469 3.875-4.5312 10.516-4.5312z"/>
</defs>
<g transform="translate(224.82 436.9) scale(.1 -.1)">
<use xlink:href="#c"/>
<use x="63.623047" xlink:href="#d"/>
<use x="95.410156" xlink:href="#ac"/>
</g>
</g>
<g clip-path="url(#a)">
<defs>
<path id="ai" d="m31.781 66.406q-7.6094 0-11.453-7.5-3.8281-7.4844-3.8281-22.531 0-14.984 3.8281-22.484 3.8438-7.5 11.453-7.5 7.6719 0 11.5 7.5 3.8438 7.5 3.8438 22.484 0 15.047-3.8438 22.531-3.8281 7.5-11.5 7.5zm0 7.8125q12.266 0 18.734-9.7031 6.4688-9.6875 6.4688-28.141 0-18.406-6.4688-28.109-6.4688-9.6875-18.734-9.6875-12.25 0-18.719 9.6875-6.4688 9.7031-6.4688 28.109 0 18.453 6.4688 28.141 6.4688 9.7031 18.719 9.7031z"/>
</defs>
<g transform="translate(313.71 436.9) scale(.1 -.1)">
<use xlink:href="#c"/>
<use x="63.623047" xlink:href="#d"/>
<use x="95.410156" xlink:href="#c"/>
<use x="159.033203" xlink:href="#ai"/>
</g>
</g>
<g clip-path="url(#a)">
<g transform="translate(622.02 134.28) scale(.1 -.1)">
<use xlink:href="#c"/>
<use x="63.623047" xlink:href="#d"/>
<use x="95.410156" xlink:href="#c"/>
<use x="159.033203" xlink:href="#c"/>
</g>
</g>
<g clip-path="url(#a)">
<g transform="translate(405.78 436.9) scale(.1 -.1)">
<use xlink:href="#c"/>
<use x="63.623047" xlink:href="#d"/>
<use x="95.410156" xlink:href="#c"/>
<use x="159.033203" xlink:href="#n"/>
</g>
</g>
<g clip-path="url(#a)">
<g transform="translate(958.2 436.9) scale(.1 -.1)">
<use xlink:href="#c"/>
<use x="63.623047" xlink:href="#d"/>
<use x="95.410156" xlink:href="#c"/>
<use x="159.033203" xlink:href="#y"/>
</g>
</g>
<g clip-path="url(#a)">
<g transform="translate(359.74 436.9) scale(.1 -.1)">
<use xlink:href="#c"/>
<use x="63.623047" xlink:href="#d"/>
<use x="95.410156" xlink:href="#c"/>
<use x="159.033203" xlink:href="#ah"/>
</g>
</g>
<g clip-path="url(#a)">
<g transform="translate(502.45 236.91) scale(.1 -.1)">
<use xlink:href="#c"/>
<use x="63.623047" xlink:href="#d"/>
<use x="95.410156" xlink:href="#c"/>
<use x="159.033203" xlink:href="#ag"/>
</g>
</g>
<g clip-path="url(#a)">
<g transform="translate(497.85 436.9) scale(.1 -.1)">
<use xlink:href="#c"/>
<use x="63.623047" xlink:href="#d"/>
<use x="95.410156" xlink:href="#c"/>
<use x="159.033203" xlink:href="#af"/>
</g>
</g>
<g clip-path="url(#a)">
<g transform="translate(451.81 436.9) scale(.1 -.1)">
<use xlink:href="#c"/>
<use x="63.623047" xlink:href="#d"/>
<use x="95.410156" xlink:href="#c"/>
<use x="159.033203" xlink:href="#ae"/>
</g>
</g>
<g clip-path="url(#a)">
<g transform="translate(566.9 337.59) scale(.1 -.1)">
<use xlink:href="#c"/>
<use x="63.623047" xlink:href="#d"/>
<use x="95.410156" xlink:href="#c"/>
<use x="159.033203" xlink:href="#ad"/>
</g>
</g>
<g clip-path="url(#a)">
<g transform="translate(589.92 436.9) scale(.1 -.1)">
<use xlink:href="#c"/>
<use x="63.623047" xlink:href="#d"/>
<use x="95.410156" xlink:href="#c"/>
<use x="159.033203" xlink:href="#ac"/>
</g>
</g>
<g clip-path="url(#a)">
<g transform="translate(635.95 436.9) scale(.1 -.1)">
<use xlink:href="#c"/>
<use x="63.623047" xlink:href="#d"/>
<use x="95.410156" xlink:href="#n"/>
<use x="159.033203" xlink:href="#ai"/>
</g>
</g>
<g clip-path="url(#a)">
<g transform="translate(681.99 436.9) scale(.1 -.1)">
<use xlink:href="#c"/>
<use x="63.623047" xlink:href="#d"/>
<use x="95.410156" xlink:href="#n"/>
<use x="159.033203" xlink:href="#c"/>
</g>
</g>
<g clip-path="url(#a)">
<g transform="translate(777.9 236.91) scale(.1 -.1)">
<use xlink:href="#c"/>
<use x="63.623047" xlink:href="#d"/>
<use x="95.410156" xlink:href="#n"/>
<use x="159.033203" xlink:href="#n"/>
</g>
</g>
<g clip-path="url(#a)">
<g transform="translate(774.06 436.9) scale(.1 -.1)">
<use xlink:href="#c"/>
<use x="63.623047" xlink:href="#d"/>
<use x="95.410156" xlink:href="#n"/>
<use x="159.033203" xlink:href="#y"/>
</g>
</g>
<g clip-path="url(#a)">
<g transform="translate(543.88 436.9) scale(.1 -.1)">
<use xlink:href="#c"/>
<use x="63.623047" xlink:href="#d"/>
<use x="95.410156" xlink:href="#n"/>
<use x="159.033203" xlink:href="#ah"/>
</g>
</g>
<g clip-path="url(#a)">
<g transform="translate(728.02 436.9) scale(.1 -.1)">
<use xlink:href="#c"/>
<use x="63.623047" xlink:href="#d"/>
<use x="95.410156" xlink:href="#n"/>
<use x="159.033203" xlink:href="#ag"/>
</g>
</g>
<g clip-path="url(#a)">
<g transform="translate(831.6 337.59) scale(.1 -.1)">
<use xlink:href="#c"/>
<use x="63.623047" xlink:href="#d"/>
<use x="95.410156" xlink:href="#n"/>
<use x="159.033203" xlink:href="#af"/>
</g>
</g>
<g clip-path="url(#a)">
<g transform="translate(866.13 436.9) scale(.1 -.1)">
<use xlink:href="#c"/>
<use x="63.623047" xlink:href="#d"/>
<use x="95.410156" xlink:href="#n"/>
<use x="159.033203" xlink:href="#ae"/>
</g>
</g>
<g clip-path="url(#a)">
<g transform="translate(820.09 436.9) scale(.1 -.1)">
<use xlink:href="#c"/>
<use x="63.623047" xlink:href="#d"/>
<use x="95.410156" xlink:href="#n"/>
<use x="159.033203" xlink:href="#ad"/>
</g>
</g>
<g clip-path="url(#a)">
<g transform="translate(912.16 436.9) scale(.1 -.1)">
<use xlink:href="#c"/>
<use x="63.623047" xlink:href="#d"/>
<use x="95.410156" xlink:href="#n"/>
<use x="159.033203" xlink:href="#ac"/>
</g>
</g>
<g clip-path="url(#a)">
<g transform="translate(1004.2 536.2) scale(.1 -.1)">
<use xlink:href="#c"/>
<use x="63.623047" xlink:href="#d"/>
<use x="95.410156" xlink:href="#y"/>
<use x="159.033203" xlink:href="#ai"/>
</g>
</g>
<defs>
<clipPath id="a">
<rect width="1064" height="560"/>
</clipPath>
</defs>
</svg>
