<?xml version="1.0" encoding="UTF-8"?>
<!DOCTYPE svg  PUBLIC '-//W3C//DTD SVG 1.1//EN'  'http://www.w3.org/Graphics/SVG/1.1/DTD/svg11.dtd'>
<svg width="1013.3pt" height="533.33pt" version="1.1" viewBox="0 0 1013.3 533.33" xmlns="http://www.w3.org/2000/svg" xmlns:xlink="http://www.w3.org/1999/xlink">
<defs>
<style type="text/css">*{stroke-linecap:butt;stroke-linejoin:round;}</style>
</defs>
<path d="m0 533.33h1013.3v-533.33h-1013.3z" fill="#fff"/>
<g fill="none" stroke="#000">
<path d="m627.52 25.016-307.98 73.721" clip-path="url(#a)"/>
<path d="m627.52 25.016-96.629 417.11" clip-path="url(#a)"/>
<path d="m627.52 25.016 24.504 350.93" clip-path="url(#a)"/>
<path d="m627.52 25.016 145.64 417.11" clip-path="url(#a)"/>
<path d="m627.52 25.016 234.47 215.42" clip-path="url(#a)"/>
<path d="m319.54 98.737-224.73 343.39" clip-path="url(#a)"/>
<path d="m319.54 98.737-273.18 343.39" clip-path="url(#a)"/>
<path d="m319.54 98.737-149.52 71.739" clip-path="url(#a)"/>
<path d="m319.54 98.737 647.43 343.39" clip-path="url(#a)"/>
<path d="m94.812 442.13v66.187" clip-path="url(#a)"/>
<path d="m46.359 442.13v66.187" clip-path="url(#a)"/>
<path d="m170.02 170.48-123.66 271.65" clip-path="url(#a)" stroke-dasharray="3.7,1.6"/>
<path d="m170.02 170.48 21.703 271.65" clip-path="url(#a)"/>
<path d="m170.02 170.48-26.75 271.65" clip-path="url(#a)"/>
<path d="m170.02 170.48 128.7 69.959" clip-path="url(#a)"/>
<path d="m191.72 442.13v66.187" clip-path="url(#a)"/>
<path d="m530.89 442.13v66.187" clip-path="url(#a)"/>
<path d="m652.03 375.94 24.227 66.187" clip-path="url(#a)"/>
<path d="m652.03 375.94-72.68 66.187" clip-path="url(#a)"/>
<path d="m652.03 375.94-24.227 66.187" clip-path="url(#a)"/>
<path d="m652.03 375.94 72.68 66.187" clip-path="url(#a)"/>
<path d="m676.25 442.13v66.187" clip-path="url(#a)"/>
<path d="m966.97 442.13v66.187" clip-path="url(#a)"/>
<path d="m143.27 442.13v66.187" clip-path="url(#a)"/>
<path d="m298.72 240.43-10.094 201.7" clip-path="url(#a)"/>
<path d="m298.72 240.43-58.548 201.7" clip-path="url(#a)"/>
<path d="m298.72 240.43 68.642 68.4" clip-path="url(#a)"/>
<path d="m288.63 442.13v66.187" clip-path="url(#a)"/>
<path d="m579.35 442.13v66.187" clip-path="url(#a)"/>
<path d="m627.8 442.13v66.187" clip-path="url(#a)"/>
<path d="m724.71 442.13v66.187" clip-path="url(#a)"/>
<path d="m773.16 442.13v66.187" clip-path="url(#a)"/>
<path d="m861.99 240.43-40.378 201.7" clip-path="url(#a)"/>
<path d="m861.99 240.43 8.0756 201.7" clip-path="url(#a)"/>
<path d="m861.99 240.43 32.302 68.4" clip-path="url(#a)"/>
<path d="m821.61 442.13v66.187" clip-path="url(#a)"/>
<path d="m240.17 442.13v66.187" clip-path="url(#a)"/>
<path d="m367.36 308.84-78.737 133.29" clip-path="url(#a)" stroke-dasharray="3.7,1.6"/>
<path d="m367.36 308.84 18.17 133.29" clip-path="url(#a)"/>
<path d="m367.36 308.84-30.283 133.29" clip-path="url(#a)"/>
<path d="m367.36 308.84 90.85 67.108" clip-path="url(#a)"/>
<path d="m385.53 442.13v66.187" clip-path="url(#a)"/>
<path d="m870.07 442.13v66.187" clip-path="url(#a)"/>
<path d="m894.29 375.94-24.227 66.187" clip-path="url(#a)" stroke-dasharray="3.7,1.6"/>
<path d="m894.29 375.94 24.227 66.187" clip-path="url(#a)"/>
<path d="m918.52 442.13v66.187" clip-path="url(#a)"/>
<path d="m337.08 442.13v66.187" clip-path="url(#a)"/>
<path d="m458.21 375.94 24.227 66.187" clip-path="url(#a)"/>
<path d="m458.21 375.94-24.227 66.187" clip-path="url(#a)"/>
<path d="m482.44 442.13v66.187" clip-path="url(#a)"/>
<path d="m433.99 442.13v66.187" clip-path="url(#a)"/>
<path d="m894.29 308.84v67.108" clip-path="url(#a)"/>
</g>
<path d="m472.07 68.676 5.851-1.4005q2.3341-0.5587 1.7754-2.8928l-1.8024-7.5298q-0.5587-2.3341-2.8928-1.7754l-5.851 1.4005q-2.3341 0.5587-1.7754 2.8928l1.8024 7.5298q0.5587 2.3341 2.8928 1.7754z" clip-path="url(#a)" fill="#fff" stroke="#fff"/>
<g clip-path="url(#a)">
<defs>
<path id="p" d="m9.8125 72.906h9.8594v-29.891h35.844v29.891h9.8594v-72.906h-9.8594v34.719h-35.844v-34.719h-9.8594z"/>
</defs>
<g transform="translate(471.12 64.724) rotate(-13.461) scale(.08 -.08)">
<use xlink:href="#p"/>
</g>
</g>
<path d="m584.81 237.16 1.006-4.3425q0.54164-2.3381-1.7964-2.8797l-7.5427-1.7474q-2.3381-0.54164-2.8797 1.7964l-1.006 4.3425q-0.54164 2.3381 1.7964 2.8797l7.5427 1.7474q2.3381 0.54164 2.8797-1.7964z" clip-path="url(#a)" fill="#fff" stroke="#fff"/>
<g clip-path="url(#a)">
<defs>
<path id="u" d="m9.8125 72.906h9.8594v-64.609h35.5v-8.2969h-45.359z"/>
</defs>
<g transform="translate(580.86 236.24) rotate(-76.957) scale(.08 -.08)">
<use xlink:href="#u"/>
</g>
</g>
<path d="m633.31 197.92 0.41908 6.0016q0.16718 2.3942 2.5613 2.227l7.7237-0.53933q2.3942-0.16718 2.227-2.5613l-0.41908-6.0016q-0.16718-2.3942-2.5613-2.227l-7.7237 0.53933q-2.3942 0.16718-2.227 2.5613z" clip-path="url(#a)" fill="#fff" stroke="#fff"/>
<g clip-path="url(#a)">
<g transform="translate(637.36 197.63) rotate(86.006) scale(.08 -.08)">
<use xlink:href="#p"/>
</g>
</g>
<path d="m693.69 233.54 1.4694 4.2084q0.79114 2.2659 3.057 1.4747l7.3097-2.5522q2.2659-0.79114 1.4747-3.057l-1.4694-4.2084q-0.79114-2.2659-3.057-1.4747l-7.3097 2.5522q-2.2659 0.79114-1.4747 3.057z" clip-path="url(#a)" fill="#fff" stroke="#fff"/>
<g clip-path="url(#a)">
<g transform="translate(697.52 232.2) rotate(70.753) scale(.08 -.08)">
<use xlink:href="#u"/>
</g>
</g>
<path d="m738.3 135.31 4.4303 4.0703q1.7673 1.6237 3.3911-0.1436l5.2382-5.7015q1.6237-1.7673-0.1436-3.3911l-4.4303-4.0703q-1.7673-1.6237-3.3911 0.1436l-5.2382 5.7015q-1.6237 1.7673 0.1436 3.3911z" clip-path="url(#a)" fill="#fff" stroke="#fff"/>
<g clip-path="url(#a)">
<g transform="translate(741.05 132.32) rotate(42.575) scale(.08 -.08)">
<use xlink:href="#p"/>
</g>
</g>
<path d="m211.1 275.89 2.6415-4.0362q1.3142-2.0082-0.69396-3.3224l-6.4785-4.2397q-2.0082-1.3142-3.3224 0.69396l-2.6415 4.0362q-1.3142 2.0082 0.69396 3.3224l6.4785 4.2397q2.0082 1.3142 3.3224-0.69396z" clip-path="url(#a)" fill="#fff" stroke="#fff"/>
<g clip-path="url(#a)">
<defs>
<path id="r" d="m19.672 64.797v-27.391h12.406q6.8906 0 10.641 3.5625 3.7656 3.5625 3.7656 10.156 0 6.5469-3.7656 10.109-3.75 3.5625-10.641 3.5625zm-9.8594 8.1094h22.266q12.266 0 18.531-5.5469 6.2812-5.5469 6.2812-16.234 0-10.797-6.2812-16.312-6.2656-5.5156-18.531-5.5156h-12.406v-29.297h-9.8594z"/>
</defs>
<g transform="translate(207.7 273.66) rotate(-56.798) scale(.08 -.08)">
<use xlink:href="#r"/>
</g>
</g>
<path d="m186.15 276.48 3.407-4.2826q1.4942-1.8782-0.38402-3.3723l-6.059-4.8202q-1.8782-1.4942-3.3723 0.38402l-3.407 4.2826q-1.4942 1.8782 0.38402 3.3723l6.059 4.8202q1.8782 1.4942 3.3723-0.38402z" clip-path="url(#a)" fill="#fff" stroke="#fff"/>
<g clip-path="url(#a)">
<defs>
<path id="m" d="m34.188 63.188-13.391-36.281h26.812zm-5.5781 9.7188h11.188l27.781-72.906h-10.25l-6.6406 18.703h-32.859l-6.6406-18.703h-10.406z"/>
</defs>
<g transform="translate(182.97 273.95) rotate(-51.496) scale(.08 -.08)">
<use xlink:href="#m"/>
</g>
</g>
<path d="m245.02 141.44 4.934-2.3673q2.1638-1.0382 1.1257-3.202l-3.3492-6.9806q-1.0382-2.1638-3.202-1.1257l-4.934 2.3673q-2.1638 1.0382-1.1257 3.202l3.3492 6.9806q1.0382 2.1638 3.202 1.1257z" clip-path="url(#a)" fill="#fff" stroke="#fff"/>
<g clip-path="url(#a)">
<g transform="translate(243.27 137.78) rotate(-25.631) scale(.08 -.08)">
<use xlink:href="#m"/>
</g>
</g>
<path d="m637.73 274.6 5.1725 2.7434q2.1202 1.1246 3.2448-0.99568l3.6278-6.84q1.1246-2.1202-0.99568-3.2448l-5.1725-2.7434q-2.1202-1.1246-3.2448 0.99568l-3.6278 6.84q-1.1246 2.1202 0.99568 3.2448z" clip-path="url(#a)" fill="#fff" stroke="#fff"/>
<g clip-path="url(#a)">
<defs>
<path id="aj" d="m8.6875 72.906h9.9219v-44.297q0-11.719 4.2344-16.875 4.25-5.1406 13.781-5.1406 9.4688 0 13.719 5.1406 4.25 5.1562 4.25 16.875v44.297h9.9062v-45.516q0-14.25-7.0625-21.531-7.0469-7.2812-20.812-7.2812-13.828 0-20.891 7.2812-7.0469 7.2812-7.0469 21.531z"/>
</defs>
<g transform="translate(639.64 271.01) rotate(27.941) scale(.08 -.08)">
<use xlink:href="#aj"/>
</g>
</g>
<path d="m88.541 457.58v35.285q0 2.4 2.4 2.4h7.7425q2.4 0 2.4-2.4v-35.285q0-2.4-2.4-2.4h-7.7425q-2.4 0-2.4 2.4z" clip-path="url(#a)" fill="#fff" stroke="#fff"/>
<g clip-path="url(#a)">
<defs>
<path id="e" d="m-0.29688 72.906h61.672v-8.3125h-25.875v-64.594h-9.9062v64.594h-25.891z"/>
<path id="l" d="m56.203 29.594v-4.3906h-41.312q0.59375-9.2812 5.5938-14.141t13.938-4.8594q5.1719 0 10.031 1.2656t9.6562 3.8125v-8.5q-4.8438-2.0469-9.9219-3.125t-10.297-1.0781q-13.094 0-20.734 7.6094-7.6406 7.625-7.6406 20.625 0 13.422 7.25 21.297 7.25 7.8906 19.562 7.8906 11.031 0 17.453-7.1094 6.4219-7.0938 6.4219-19.297zm-8.9844 2.6406q-0.09375 7.3594-4.125 11.75-4.0312 4.4062-10.672 4.4062-7.5156 0-12.031-4.25t-5.2031-11.969z"/>
<path id="g" d="m41.109 46.297q-1.5156 0.875-3.2969 1.2812-1.7812 0.42188-3.9219 0.42188-7.625 0-11.703-4.9531t-4.0781-14.234v-28.812h-9.0312v54.688h9.0312v-8.5q2.8438 4.9844 7.375 7.3906 4.5469 2.4219 11.047 2.4219 0.92188 0 2.0469-0.125 1.125-0.10938 2.4844-0.35938z"/>
<path id="i" d="m52 44.188q3.375 6.0625 8.0625 8.9375t11.031 2.875q8.5469 0 13.188-5.9844 4.6406-5.9688 4.6406-17v-33.016h-9.0312v32.719q0 7.8594-2.7969 11.656-2.7812 3.8125-8.4844 3.8125-6.9844 0-11.047-4.6406-4.0469-4.625-4.0469-12.641v-30.906h-9.0312v32.719q0 7.9062-2.7812 11.688t-8.5938 3.7812q-6.8906 0-10.953-4.6562-4.0469-4.6562-4.0469-12.625v-30.906h-9.0312v54.688h9.0312v-8.5q3.0781 5.0312 7.375 7.4219t10.203 2.3906q5.9688 0 10.141-3.0312 4.1719-3.0156 6.1719-8.7812z"/>
<path id="k" d="m9.4219 54.688h8.9844v-54.688h-8.9844zm0 21.297h8.9844v-11.391h-8.9844z"/>
<path id="h" d="m54.891 33.016v-33.016h-8.9844v32.719q0 7.7656-3.0312 11.609-3.0312 3.8594-9.0781 3.8594-7.2812 0-11.484-4.6406-4.2031-4.625-4.2031-12.641v-30.906h-9.0312v54.688h9.0312v-8.5q3.2344 4.9375 7.5938 7.375 4.375 2.4375 10.094 2.4375 9.4219 0 14.25-5.8281 4.8438-5.8281 4.8438-17.156z"/>
<path id="f" d="m34.281 27.484q-10.891 0-15.094-2.4844t-4.2031-8.5q0-4.7812 3.1562-7.5938 3.1562-2.7969 8.5625-2.7969 7.4844 0 12 5.2969t4.5156 14.078v2zm17.922 3.7188v-31.203h-8.9844v8.2969q-3.0781-4.9688-7.6719-7.3438t-11.234-2.375q-8.3906 0-13.359 4.7188-4.9531 4.7188-4.9531 12.625 0 9.2188 6.1719 13.906 6.1875 4.6875 18.438 4.6875h12.609v0.89062q0 6.2031-4.0781 9.5938t-11.453 3.3906q-4.6875 0-9.1406-1.125-4.4375-1.125-8.5312-3.375v8.3125q4.9219 1.9062 9.5625 2.8438 4.6406 0.95312 9.0312 0.95312 11.875 0 17.734-6.1562 5.8594-6.1406 5.8594-18.641z"/>
<path id="j" d="m9.4219 75.984h8.9844v-75.984h-8.9844z"/>
</defs>
<g transform="translate(92.605 457.58) rotate(90) scale(.08 -.08)">
<use xlink:href="#e"/>
<use x="60.818359" xlink:href="#l"/>
<use x="122.341797" xlink:href="#g"/>
<use x="163.439453" xlink:href="#i"/>
<use x="260.851562" xlink:href="#k"/>
<use x="288.634766" xlink:href="#h"/>
<use x="352.013672" xlink:href="#f"/>
<use x="413.292969" xlink:href="#j"/>
</g>
</g>
<path d="m40.088 457.58v35.285q0 2.4 2.4 2.4h7.7425q2.4 0 2.4-2.4v-35.285q0-2.4-2.4-2.4h-7.7425q-2.4 0-2.4 2.4z" clip-path="url(#a)" fill="#fff" stroke="#fff"/>
<g clip-path="url(#a)">
<g transform="translate(44.151 457.58) rotate(90) scale(.08 -.08)">
<use xlink:href="#e"/>
<use x="60.818359" xlink:href="#l"/>
<use x="122.341797" xlink:href="#g"/>
<use x="163.439453" xlink:href="#i"/>
<use x="260.851562" xlink:href="#k"/>
<use x="288.634766" xlink:href="#h"/>
<use x="352.013672" xlink:href="#f"/>
<use x="413.292969" xlink:href="#j"/>
</g>
</g>
<path d="m112.76 311.39 2.2672-4.9807q0.99432-2.1843-1.19-3.1787l-7.0468-3.2077q-2.1843-0.99432-3.1787 1.19l-2.2672 4.9807q-0.99432 2.1843 1.19 3.1787l7.0468 3.2077q2.1843 0.99432 3.1787-1.19z" clip-path="url(#a)" fill="#fff" stroke="#fff"/>
<g clip-path="url(#a)">
<g transform="translate(109.06 309.71) rotate(-65.525) scale(.08 -.08)">
<use xlink:href="#m"/>
</g>
</g>
<path d="m174.42 304.4 0.38416 4.8084q0.19113 2.3924 2.5835 2.2012l7.7179-0.6166q2.3924-0.19113 2.2012-2.5835l-0.38416-4.8084q-0.19113-2.3924-2.5835-2.2012l-7.7179 0.6166q-2.3924 0.19113-2.2012 2.5835z" clip-path="url(#a)" fill="#fff" stroke="#fff"/>
<g clip-path="url(#a)">
<g transform="translate(178.48 304.07) rotate(85.432) scale(.08 -.08)">
<use xlink:href="#r"/>
</g>
</g>
<path d="m162.61 309.68 0.54475-5.532q0.2352-2.3884-2.1533-2.6236l-7.7052-0.75875q-2.3884-0.2352-2.6236 2.1533l-0.54475 5.532q-0.2352 2.3884 2.1533 2.6236l7.7052 0.75875q2.3884 0.2352 2.6236-2.1533z" clip-path="url(#a)" fill="#fff" stroke="#fff"/>
<g clip-path="url(#a)">
<defs>
<path id="s" d="m44.391 34.188q3.1719-1.0781 6.1719-4.5938t6.0312-9.6719l10.016-19.922h-10.609l-9.3125 18.703q-3.625 7.3281-7.0156 9.7188t-9.25 2.3906h-10.75v-30.812h-9.8594v72.906h22.266q12.5 0 18.656-5.2344 6.1562-5.2188 6.1562-15.766 0-6.8906-3.2031-11.438-3.2031-4.5312-9.2969-6.2812zm-24.719 30.609v-25.875h12.406q7.125 0 10.766 3.2969t3.6406 9.6875-3.6406 9.6406-10.766 3.25z"/>
</defs>
<g transform="translate(158.57 309.29) rotate(-84.376) scale(.08 -.08)">
<use xlink:href="#s"/>
</g>
</g>
<path d="m228.97 209.66 4.8081 2.6135q2.1086 1.1462 3.2548-0.96246l3.6976-6.8025q1.1462-2.1086-0.96246-3.2548l-4.8081-2.6135q-2.1086-1.1462-3.2548 0.96246l-3.6976 6.8025q-1.1462 2.1086 0.96246 3.2548z" clip-path="url(#a)" fill="#fff" stroke="#fff"/>
<g clip-path="url(#a)">
<g transform="translate(230.91 206.09) rotate(28.527) scale(.08 -.08)">
<use xlink:href="#m"/>
</g>
</g>
<path d="m185.45 457.58v35.285q0 2.4 2.4 2.4h7.7425q2.4 0 2.4-2.4v-35.285q0-2.4-2.4-2.4h-7.7425q-2.4 0-2.4 2.4z" clip-path="url(#a)" fill="#fff" stroke="#fff"/>
<g clip-path="url(#a)">
<g transform="translate(189.51 457.58) rotate(90) scale(.08 -.08)">
<use xlink:href="#e"/>
<use x="60.818359" xlink:href="#l"/>
<use x="122.341797" xlink:href="#g"/>
<use x="163.439453" xlink:href="#i"/>
<use x="260.851562" xlink:href="#k"/>
<use x="288.634766" xlink:href="#h"/>
<use x="352.013672" xlink:href="#f"/>
<use x="413.292969" xlink:href="#j"/>
</g>
</g>
<path d="m524.62 457.58v35.285q0 2.4 2.4 2.4h7.7425q2.4 0 2.4-2.4v-35.285q0-2.4-2.4-2.4h-7.7425q-2.4 0-2.4 2.4z" clip-path="url(#a)" fill="#fff" stroke="#fff"/>
<g clip-path="url(#a)">
<g transform="translate(528.69 457.58) rotate(90) scale(.08 -.08)">
<use xlink:href="#e"/>
<use x="60.818359" xlink:href="#l"/>
<use x="122.341797" xlink:href="#g"/>
<use x="163.439453" xlink:href="#i"/>
<use x="260.851562" xlink:href="#k"/>
<use x="288.634766" xlink:href="#h"/>
<use x="352.013672" xlink:href="#f"/>
<use x="413.292969" xlink:href="#j"/>
</g>
</g>
<path d="m657.42 408.93 1.6581 4.5298q0.82495 2.2538 3.0787 1.4288l7.2707-2.6613q2.2538-0.82495 1.4288-3.0787l-1.6581-4.5298q-0.82495-2.2538-3.0787-1.4288l-7.2707 2.6613q-2.2538 0.82495-1.4288 3.0787z" clip-path="url(#a)" fill="#fff" stroke="#fff"/>
<g clip-path="url(#a)">
<g transform="translate(661.24 407.53) rotate(69.896) scale(.08 -.08)">
<use xlink:href="#r"/>
</g>
</g>
<path d="m617.89 415.52 4.0462-3.6847q1.7745-1.6159 0.15853-3.3904l-5.2131-5.7245q-1.6159-1.7745-3.3904-0.15853l-4.0462 3.6847q-1.7745 1.6159-0.15853 3.3904l5.2131 5.7245q1.6159 1.7745 3.3904 0.15853z" clip-path="url(#a)" fill="#fff" stroke="#fff"/>
<g clip-path="url(#a)">
<g transform="translate(615.15 412.51) rotate(-42.323) scale(.08 -.08)">
<use xlink:href="#m"/>
</g>
</g>
<path d="m644.74 414.08 2.1174-5.7847q0.82495-2.2538-1.4288-3.0787l-7.2707-2.6613q-2.2538-0.82495-3.0787 1.4288l-2.1174 5.7847q-0.82495 2.2538 1.4288 3.0787l7.2707 2.6613q2.2538 0.82495 3.0787-1.4288z" clip-path="url(#a)" fill="#fff" stroke="#fff"/>
<g clip-path="url(#a)">
<defs>
<path id="t" d="m19.672 64.797v-56.688h11.922q15.094 0 22.094 6.8281 7 6.8438 7 21.594 0 14.641-7 21.453t-22.094 6.8125zm-9.8594 8.1094h20.266q21.188 0 31.094-8.8125 9.9219-8.8125 9.9219-27.562 0-18.859-9.9688-27.703-9.9531-8.8281-31.047-8.8281h-20.266z"/>
</defs>
<g transform="translate(640.93 412.69) rotate(-69.896) scale(.08 -.08)">
<use xlink:href="#t"/>
</g>
</g>
<path d="m681.87 411.6 4.5545 4.1476q1.7745 1.6159 3.3904-0.15853l5.2131-5.7245q1.6159-1.7745-0.15853-3.3904l-4.5545-4.1476q-1.7745-1.6159-3.3904 0.15853l-5.2131 5.7245q-1.6159 1.7745 0.15853 3.3904z" clip-path="url(#a)" fill="#fff" stroke="#fff"/>
<g clip-path="url(#a)">
<g transform="translate(684.6 408.59) rotate(42.323) scale(.08 -.08)">
<use xlink:href="#t"/>
</g>
</g>
<path d="m669.98 457.58v35.285q0 2.4 2.4 2.4h7.7425q2.4 0 2.4-2.4v-35.285q0-2.4-2.4-2.4h-7.7425q-2.4 0-2.4 2.4z" clip-path="url(#a)" fill="#fff" stroke="#fff"/>
<g clip-path="url(#a)">
<g transform="translate(674.05 457.58) rotate(90) scale(.08 -.08)">
<use xlink:href="#e"/>
<use x="60.818359" xlink:href="#l"/>
<use x="122.341797" xlink:href="#g"/>
<use x="163.439453" xlink:href="#i"/>
<use x="260.851562" xlink:href="#k"/>
<use x="288.634766" xlink:href="#h"/>
<use x="352.013672" xlink:href="#f"/>
<use x="413.292969" xlink:href="#j"/>
</g>
</g>
<path d="m960.7 457.58v35.285q0 2.4 2.4 2.4h7.7425q2.4 0 2.4-2.4v-35.285q0-2.4-2.4-2.4h-7.7425q-2.4 0-2.4 2.4z" clip-path="url(#a)" fill="#fff" stroke="#fff"/>
<g clip-path="url(#a)">
<g transform="translate(964.77 457.58) rotate(90) scale(.08 -.08)">
<use xlink:href="#e"/>
<use x="60.818359" xlink:href="#l"/>
<use x="122.341797" xlink:href="#g"/>
<use x="163.439453" xlink:href="#i"/>
<use x="260.851562" xlink:href="#k"/>
<use x="288.634766" xlink:href="#h"/>
<use x="352.013672" xlink:href="#f"/>
<use x="413.292969" xlink:href="#j"/>
</g>
</g>
<path d="m136.99 457.58v35.285q0 2.4 2.4 2.4h7.7425q2.4 0 2.4-2.4v-35.285q0-2.4-2.4-2.4h-7.7425q-2.4 0-2.4 2.4z" clip-path="url(#a)" fill="#fff" stroke="#fff"/>
<g clip-path="url(#a)">
<g transform="translate(141.06 457.58) rotate(90) scale(.08 -.08)">
<use xlink:href="#e"/>
<use x="60.818359" xlink:href="#l"/>
<use x="122.341797" xlink:href="#g"/>
<use x="163.439453" xlink:href="#i"/>
<use x="260.851562" xlink:href="#k"/>
<use x="288.634766" xlink:href="#h"/>
<use x="352.013672" xlink:href="#f"/>
<use x="413.292969" xlink:href="#j"/>
</g>
</g>
<path d="m299.8 344.39 0.27923-5.5793q0.11997-2.397-2.277-2.517l-7.7328-0.38701q-2.397-0.11996-2.517 2.277l-0.27923 5.5793q-0.11997 2.397 2.277 2.517l7.7328 0.38701q2.397 0.11997 2.517-2.277z" clip-path="url(#a)" fill="#fff" stroke="#fff"/>
<g clip-path="url(#a)">
<defs>
<path id="v" d="m64.406 67.281v-10.391q-4.9844 4.6406-10.625 6.9219-5.6406 2.2969-11.984 2.2969-12.5 0-19.141-7.6406t-6.6406-22.094q0-14.406 6.6406-22.047t19.141-7.6406q6.3438 0 11.984 2.2969t10.625 6.9375v-10.312q-5.1719-3.5156-10.969-5.2812-5.7812-1.75-12.219-1.75-16.562 0-26.094 10.125-9.5156 10.141-9.5156 27.672 0 17.578 9.5156 27.703 9.5312 10.141 26.094 10.141 6.5312 0 12.312-1.7344 5.7969-1.7344 10.875-5.2031z"/>
</defs>
<g transform="translate(295.74 344.18) rotate(-87.135) scale(.08 -.08)">
<use xlink:href="#v"/>
</g>
</g>
<path d="m274.83 345.24 1.2827-4.4188q0.66905-2.3049-1.6358-2.9739l-7.4356-2.1584q-2.3049-0.66905-2.9739 1.6358l-1.2827 4.4188q-0.66905 2.3049 1.6358 2.9739l7.4356 2.1584q2.3049 0.66905 2.9739-1.6358z" clip-path="url(#a)" fill="#fff" stroke="#fff"/>
<g clip-path="url(#a)">
<defs>
<path id="aa" d="m9.8125 72.906h41.891v-8.3125h-32.031v-21.484h28.906v-8.2969h-28.906v-34.812h-9.8594z"/>
</defs>
<g transform="translate(270.93 344.11) rotate(-73.813) scale(.08 -.08)">
<use xlink:href="#aa"/>
</g>
</g>
<path d="m326.82 277.29 3.5807 3.5681q1.7001 1.6941 3.3941-0.006002l5.4651-5.4844q1.6941-1.7001-0.006002-3.3941l-3.5807-3.5681q-1.7001-1.6941-3.3941 0.006002l-5.4651 5.4844q-1.6941 1.7001 0.006002 3.3941z" clip-path="url(#a)" fill="#fff" stroke="#fff"/>
<g clip-path="url(#a)">
<defs>
<path id="o" d="m9.8125 72.906h46.094v-8.3125h-36.234v-21.578h34.719v-8.2969h-34.719v-26.422h37.109v-8.2969h-46.969z"/>
</defs>
<g transform="translate(329.69 274.41) rotate(44.899) scale(.08 -.08)">
<use xlink:href="#o"/>
</g>
</g>
<path d="m282.35 457.58v35.285q0 2.4 2.4 2.4h7.7425q2.4 0 2.4-2.4v-35.285q0-2.4-2.4-2.4h-7.7425q-2.4 0-2.4 2.4z" clip-path="url(#a)" fill="#fff" stroke="#fff"/>
<g clip-path="url(#a)">
<g transform="translate(286.42 457.58) rotate(90) scale(.08 -.08)">
<use xlink:href="#e"/>
<use x="60.818359" xlink:href="#l"/>
<use x="122.341797" xlink:href="#g"/>
<use x="163.439453" xlink:href="#i"/>
<use x="260.851562" xlink:href="#k"/>
<use x="288.634766" xlink:href="#h"/>
<use x="352.013672" xlink:href="#f"/>
<use x="413.292969" xlink:href="#j"/>
</g>
</g>
<path d="m573.08 457.58v35.285q0 2.4 2.4 2.4h7.7425q2.4 0 2.4-2.4v-35.285q0-2.4-2.4-2.4h-7.7425q-2.4 0-2.4 2.4z" clip-path="url(#a)" fill="#fff" stroke="#fff"/>
<g clip-path="url(#a)">
<g transform="translate(577.14 457.58) rotate(90) scale(.08 -.08)">
<use xlink:href="#e"/>
<use x="60.818359" xlink:href="#l"/>
<use x="122.341797" xlink:href="#g"/>
<use x="163.439453" xlink:href="#i"/>
<use x="260.851562" xlink:href="#k"/>
<use x="288.634766" xlink:href="#h"/>
<use x="352.013672" xlink:href="#f"/>
<use x="413.292969" xlink:href="#j"/>
</g>
</g>
<path d="m621.53 457.58v35.285q0 2.4 2.4 2.4h7.7425q2.4 0 2.4-2.4v-35.285q0-2.4-2.4-2.4h-7.7425q-2.4 0-2.4 2.4z" clip-path="url(#a)" fill="#fff" stroke="#fff"/>
<g clip-path="url(#a)">
<g transform="translate(625.59 457.58) rotate(90) scale(.08 -.08)">
<use xlink:href="#e"/>
<use x="60.818359" xlink:href="#l"/>
<use x="122.341797" xlink:href="#g"/>
<use x="163.439453" xlink:href="#i"/>
<use x="260.851562" xlink:href="#k"/>
<use x="288.634766" xlink:href="#h"/>
<use x="352.013672" xlink:href="#f"/>
<use x="413.292969" xlink:href="#j"/>
</g>
</g>
<path d="m718.44 457.58v35.285q0 2.4 2.4 2.4h7.7425q2.4 0 2.4-2.4v-35.285q0-2.4-2.4-2.4h-7.7425q-2.4 0-2.4 2.4z" clip-path="url(#a)" fill="#fff" stroke="#fff"/>
<g clip-path="url(#a)">
<g transform="translate(722.5 457.58) rotate(90) scale(.08 -.08)">
<use xlink:href="#e"/>
<use x="60.818359" xlink:href="#l"/>
<use x="122.341797" xlink:href="#g"/>
<use x="163.439453" xlink:href="#i"/>
<use x="260.851562" xlink:href="#k"/>
<use x="288.634766" xlink:href="#h"/>
<use x="352.013672" xlink:href="#f"/>
<use x="413.292969" xlink:href="#j"/>
</g>
</g>
<path d="m766.89 457.58v35.285q0 2.4 2.4 2.4h7.7425q2.4 0 2.4-2.4v-35.285q0-2.4-2.4-2.4h-7.7425q-2.4 0-2.4 2.4z" clip-path="url(#a)" fill="#fff" stroke="#fff"/>
<g clip-path="url(#a)">
<g transform="translate(770.95 457.58) rotate(90) scale(.08 -.08)">
<use xlink:href="#e"/>
<use x="60.818359" xlink:href="#l"/>
<use x="122.341797" xlink:href="#g"/>
<use x="163.439453" xlink:href="#i"/>
<use x="260.851562" xlink:href="#k"/>
<use x="288.634766" xlink:href="#h"/>
<use x="352.013672" xlink:href="#f"/>
<use x="413.292969" xlink:href="#j"/>
</g>
</g>
<path d="m847.5 344.77 0.90322-4.5117q0.47112-2.3533-1.8822-2.8244l-7.5919-1.5198q-2.3533-0.47112-2.8244 1.8822l-0.90322 4.5117q-0.47112 2.3533 1.8822 2.8244l7.5919 1.5198q2.3533 0.47111 2.8244-1.8822z" clip-path="url(#a)" fill="#fff" stroke="#fff"/>
<g clip-path="url(#a)">
<g transform="translate(843.52 343.97) rotate(-78.679) scale(.08 -.08)">
<use xlink:href="#aa"/>
</g>
</g>
<path d="m859.65 338.8 0.21894 5.4681q0.096016 2.3981 2.4941 2.3021l7.7363-0.30975q2.3981-0.096015 2.3021-2.4941l-0.21894-5.4681q-0.096015-2.3981-2.4941-2.3021l-7.7363 0.30975q-2.3981 0.096016-2.3021 2.4941z" clip-path="url(#a)" fill="#fff" stroke="#fff"/>
<g clip-path="url(#a)">
<g transform="translate(863.71 338.64) rotate(87.707) scale(.08 -.08)">
<use xlink:href="#m"/>
</g>
</g>
<path d="m871.44 275.13 2.0599 4.3618q1.0249 2.1702 3.195 1.1453l7.0011-3.3063q2.1702-1.0249 1.1453-3.195l-2.0599-4.3618q-1.0249-2.1702-3.195-1.1453l-7.0011 3.3063q-2.1702 1.0249-1.1453 3.195z" clip-path="url(#a)" fill="#fff" stroke="#fff"/>
<g clip-path="url(#a)">
<g transform="translate(875.12 273.4) rotate(64.721) scale(.08 -.08)">
<use xlink:href="#r"/>
</g>
</g>
<path d="m815.34 457.58v35.285q0 2.4 2.4 2.4h7.7425q2.4 0 2.4-2.4v-35.285q0-2.4-2.4-2.4h-7.7425q-2.4 0-2.4 2.4z" clip-path="url(#a)" fill="#fff" stroke="#fff"/>
<g clip-path="url(#a)">
<g transform="translate(819.41 457.58) rotate(90) scale(.08 -.08)">
<use xlink:href="#e"/>
<use x="60.818359" xlink:href="#l"/>
<use x="122.341797" xlink:href="#g"/>
<use x="163.439453" xlink:href="#i"/>
<use x="260.851562" xlink:href="#k"/>
<use x="288.634766" xlink:href="#h"/>
<use x="352.013672" xlink:href="#f"/>
<use x="413.292969" xlink:href="#j"/>
</g>
</g>
<path d="m233.9 457.58v35.285q0 2.4 2.4 2.4h7.7425q2.4 0 2.4-2.4v-35.285q0-2.4-2.4-2.4h-7.7425q-2.4 0-2.4 2.4z" clip-path="url(#a)" fill="#fff" stroke="#fff"/>
<g clip-path="url(#a)">
<g transform="translate(237.97 457.58) rotate(90) scale(.08 -.08)">
<use xlink:href="#e"/>
<use x="60.818359" xlink:href="#l"/>
<use x="122.341797" xlink:href="#g"/>
<use x="163.439453" xlink:href="#i"/>
<use x="260.851562" xlink:href="#k"/>
<use x="288.634766" xlink:href="#h"/>
<use x="352.013672" xlink:href="#f"/>
<use x="413.292969" xlink:href="#j"/>
</g>
</g>
<path d="m332 381.03 2.7833-4.7119q1.2206-2.0664-0.84579-3.287l-6.6663-3.9378q-2.0664-1.2206-3.287 0.84579l-2.7833 4.7119q-1.2206 2.0664 0.84579 3.287l6.6663 3.9378q2.0664 1.2206 3.287-0.84579z" clip-path="url(#a)" fill="#fff" stroke="#fff"/>
<g clip-path="url(#a)">
<g transform="translate(328.5 378.96) rotate(-59.43) scale(.08 -.08)">
<use xlink:href="#m"/>
</g>
</g>
<path d="m369.91 373.94 0.65152 4.7795q0.32416 2.378 2.7022 2.0539l7.6716-1.0457q2.378-0.32416 2.0539-2.7022l-0.65152-4.7795q-0.32416-2.378-2.7022-2.0539l-7.6716 1.0457q-2.378 0.32416-2.0539 2.7022z" clip-path="url(#a)" fill="#fff" stroke="#fff"/>
<g clip-path="url(#a)">
<g transform="translate(373.93 373.39) rotate(82.238) scale(.08 -.08)">
<use xlink:href="#r"/>
</g>
</g>
<path d="m357.72 379.58 1.2315-5.4206q0.53171-2.3404-1.8087-2.8721l-7.5501-1.7153q-2.3404-0.53171-2.8721 1.8087l-1.2315 5.4206q-0.53171 2.3404 1.8087 2.8721l7.5501 1.7153q2.3404 0.53171 2.8721-1.8087z" clip-path="url(#a)" fill="#fff" stroke="#fff"/>
<g clip-path="url(#a)">
<g transform="translate(353.76 378.68) rotate(-77.2) scale(.08 -.08)">
<use xlink:href="#s"/>
</g>
</g>
<path d="m406.86 345.81 4.4018 3.2515q1.9305 1.426 3.3564-0.5045l4.6002-6.2277q1.426-1.9305-0.5045-3.3564l-4.4018-3.2515q-1.9305-1.426-3.3564 0.5045l-4.6002 6.2277q-1.426 1.9305 0.5045 3.3564z" clip-path="url(#a)" fill="#fff" stroke="#fff"/>
<g clip-path="url(#a)">
<g transform="translate(409.28 342.54) rotate(36.452) scale(.08 -.08)">
<use xlink:href="#m"/>
</g>
</g>
<path d="m379.26 457.58v35.285q0 2.4 2.4 2.4h7.7425q2.4 0 2.4-2.4v-35.285q0-2.4-2.4-2.4h-7.7425q-2.4 0-2.4 2.4z" clip-path="url(#a)" fill="#fff" stroke="#fff"/>
<g clip-path="url(#a)">
<g transform="translate(383.33 457.58) rotate(90) scale(.08 -.08)">
<use xlink:href="#e"/>
<use x="60.818359" xlink:href="#l"/>
<use x="122.341797" xlink:href="#g"/>
<use x="163.439453" xlink:href="#i"/>
<use x="260.851562" xlink:href="#k"/>
<use x="288.634766" xlink:href="#h"/>
<use x="352.013672" xlink:href="#f"/>
<use x="413.292969" xlink:href="#j"/>
</g>
</g>
<path d="m863.8 457.58v35.285q0 2.4 2.4 2.4h7.7425q2.4 0 2.4-2.4v-35.285q0-2.4-2.4-2.4h-7.7425q-2.4 0-2.4 2.4z" clip-path="url(#a)" fill="#fff" stroke="#fff"/>
<g clip-path="url(#a)">
<g transform="translate(867.86 457.58) rotate(90) scale(.08 -.08)">
<use xlink:href="#e"/>
<use x="60.818359" xlink:href="#l"/>
<use x="122.341797" xlink:href="#g"/>
<use x="163.439453" xlink:href="#i"/>
<use x="260.851562" xlink:href="#k"/>
<use x="288.634766" xlink:href="#h"/>
<use x="352.013672" xlink:href="#f"/>
<use x="413.292969" xlink:href="#j"/>
</g>
</g>
<path d="m887.13 413.76 1.8811-5.1391q0.82495-2.2538-1.4288-3.0787l-7.2707-2.6613q-2.2538-0.82495-3.0787 1.4288l-1.8811 5.1391q-0.82495 2.2538 1.4288 3.0787l7.2707 2.6613q2.2538 0.82495 3.0787-1.4288z" clip-path="url(#a)" fill="#fff" stroke="#fff"/>
<g clip-path="url(#a)">
<g transform="translate(883.31 412.36) rotate(-69.896) scale(.08 -.08)">
<use xlink:href="#m"/>
</g>
</g>
<path d="m899.69 408.93 1.6581 4.5298q0.82495 2.2538 3.0787 1.4288l7.2707-2.6613q2.2538-0.82495 1.4288-3.0787l-1.6581-4.5298q-0.82495-2.2538-3.0787-1.4288l-7.2707 2.6613q-2.2538 0.82495-1.4288 3.0787z" clip-path="url(#a)" fill="#fff" stroke="#fff"/>
<g clip-path="url(#a)">
<g transform="translate(903.51 407.53) rotate(69.896) scale(.08 -.08)">
<use xlink:href="#r"/>
</g>
</g>
<path d="m912.25 457.58v35.285q0 2.4 2.4 2.4h7.7425q2.4 0 2.4-2.4v-35.285q0-2.4-2.4-2.4h-7.7425q-2.4 0-2.4 2.4z" clip-path="url(#a)" fill="#fff" stroke="#fff"/>
<g clip-path="url(#a)">
<g transform="translate(916.31 457.58) rotate(90) scale(.08 -.08)">
<use xlink:href="#e"/>
<use x="60.818359" xlink:href="#l"/>
<use x="122.341797" xlink:href="#g"/>
<use x="163.439453" xlink:href="#i"/>
<use x="260.851562" xlink:href="#k"/>
<use x="288.634766" xlink:href="#h"/>
<use x="352.013672" xlink:href="#f"/>
<use x="413.292969" xlink:href="#j"/>
</g>
</g>
<path d="m330.81 457.58v35.285q0 2.4 2.4 2.4h7.7425q2.4 0 2.4-2.4v-35.285q0-2.4-2.4-2.4h-7.7425q-2.4 0-2.4 2.4z" clip-path="url(#a)" fill="#fff" stroke="#fff"/>
<g clip-path="url(#a)">
<g transform="translate(334.87 457.58) rotate(90) scale(.08 -.08)">
<use xlink:href="#e"/>
<use x="60.818359" xlink:href="#l"/>
<use x="122.341797" xlink:href="#g"/>
<use x="163.439453" xlink:href="#i"/>
<use x="260.851562" xlink:href="#k"/>
<use x="288.634766" xlink:href="#h"/>
<use x="352.013672" xlink:href="#f"/>
<use x="413.292969" xlink:href="#j"/>
</g>
</g>
<path d="m463.48 408.57 1.9202 5.2459q0.82495 2.2538 3.0787 1.4288l7.2707-2.6613q2.2538-0.82495 1.4288-3.0787l-1.9202-5.2459q-0.82495-2.2538-3.0787-1.4288l-7.2707 2.6613q-2.2538 0.82495-1.4288 3.0787z" clip-path="url(#a)" fill="#fff" stroke="#fff"/>
<g clip-path="url(#a)">
<g transform="translate(467.29 407.17) rotate(69.896) scale(.08 -.08)">
<use xlink:href="#v"/>
</g>
</g>
<path d="m451.12 413.57 1.7376-4.747q0.82495-2.2538-1.4288-3.0787l-7.2707-2.6613q-2.2538-0.82495-3.0787 1.4288l-1.7376 4.747q-0.82495 2.2538 1.4288 3.0787l7.2707 2.6613q2.2538 0.82495 3.0787-1.4288z" clip-path="url(#a)" fill="#fff" stroke="#fff"/>
<g clip-path="url(#a)">
<g transform="translate(447.3 412.17) rotate(-69.896) scale(.08 -.08)">
<use xlink:href="#o"/>
</g>
</g>
<path d="m476.17 457.58v35.285q0 2.4 2.4 2.4h7.7425q2.4 0 2.4-2.4v-35.285q0-2.4-2.4-2.4h-7.7425q-2.4 0-2.4 2.4z" clip-path="url(#a)" fill="#fff" stroke="#fff"/>
<g clip-path="url(#a)">
<g transform="translate(480.23 457.58) rotate(90) scale(.08 -.08)">
<use xlink:href="#e"/>
<use x="60.818359" xlink:href="#l"/>
<use x="122.341797" xlink:href="#g"/>
<use x="163.439453" xlink:href="#i"/>
<use x="260.851562" xlink:href="#k"/>
<use x="288.634766" xlink:href="#h"/>
<use x="352.013672" xlink:href="#f"/>
<use x="413.292969" xlink:href="#j"/>
</g>
</g>
<path d="m427.72 457.58v35.285q0 2.4 2.4 2.4h7.7425q2.4 0 2.4-2.4v-35.285q0-2.4-2.4-2.4h-7.7425q-2.4 0-2.4 2.4z" clip-path="url(#a)" fill="#fff" stroke="#fff"/>
<g clip-path="url(#a)">
<g transform="translate(431.78 457.58) rotate(90) scale(.08 -.08)">
<use xlink:href="#e"/>
<use x="60.818359" xlink:href="#l"/>
<use x="122.341797" xlink:href="#g"/>
<use x="163.439453" xlink:href="#i"/>
<use x="260.851562" xlink:href="#k"/>
<use x="288.634766" xlink:href="#h"/>
<use x="352.013672" xlink:href="#f"/>
<use x="413.292969" xlink:href="#j"/>
</g>
</g>
<path d="m888.02 339.65v5.4725q0 2.4 2.4 2.4h7.7425q2.4 0 2.4-2.4v-5.4725q0-2.4-2.4-2.4h-7.7425q-2.4 0-2.4 2.4z" clip-path="url(#a)" fill="#fff" stroke="#fff"/>
<g clip-path="url(#a)">
<g transform="translate(892.09 339.65) rotate(90) scale(.08 -.08)">
<use xlink:href="#m"/>
</g>
</g>
<defs>
<path id="b" d="m0 8.6603c2.2967 0 4.4997-0.9125 6.1237-2.5365 1.624-1.624 2.5365-3.827 2.5365-6.1237s-0.9125-4.4997-2.5365-6.1237c-1.624-1.624-3.827-2.5365-6.1237-2.5365s-4.4997 0.9125-6.1237 2.5365c-1.624 1.624-2.5365 3.827-2.5365 6.1237s0.9125 4.4997 2.5365 6.1237c1.624 1.624 3.827 2.5365 6.1237 2.5365z"/>
</defs>
<g clip-path="url(#a)">
<use x="46.358757" y="508.317093" fill="#ffffff" stroke="#ffffff" xlink:href="#b"/>
</g>
<g clip-path="url(#a)">
<use x="94.812221" y="508.317093" fill="#ffffff" stroke="#ffffff" xlink:href="#b"/>
</g>
<g clip-path="url(#a)">
<use x="143.265685" y="508.317093" fill="#ffffff" stroke="#ffffff" xlink:href="#b"/>
</g>
<g clip-path="url(#a)">
<use x="191.719149" y="508.317093" fill="#ffffff" stroke="#ffffff" xlink:href="#b"/>
</g>
<g clip-path="url(#a)">
<use x="240.172613" y="508.317093" fill="#ffffff" stroke="#ffffff" xlink:href="#b"/>
</g>
<g clip-path="url(#a)">
<use x="288.626078" y="508.317093" fill="#ffffff" stroke="#ffffff" xlink:href="#b"/>
</g>
<g clip-path="url(#a)">
<use x="337.079542" y="508.317093" fill="#ffffff" stroke="#ffffff" xlink:href="#b"/>
</g>
<g clip-path="url(#a)">
<use x="385.533006" y="508.317093" fill="#ffffff" stroke="#ffffff" xlink:href="#b"/>
</g>
<g clip-path="url(#a)">
<use x="433.98647" y="508.317093" fill="#ffffff" stroke="#ffffff" xlink:href="#b"/>
</g>
<g clip-path="url(#a)">
<use x="482.439935" y="508.317093" fill="#ffffff" stroke="#ffffff" xlink:href="#b"/>
</g>
<g clip-path="url(#a)">
<use x="530.893399" y="508.317093" fill="#ffffff" stroke="#ffffff" xlink:href="#b"/>
</g>
<g clip-path="url(#a)">
<use x="579.346863" y="508.317093" fill="#ffffff" stroke="#ffffff" xlink:href="#b"/>
</g>
<g clip-path="url(#a)">
<use x="627.800327" y="508.317093" fill="#ffffff" stroke="#ffffff" xlink:href="#b"/>
</g>
<g clip-path="url(#a)">
<use x="676.253791" y="508.317093" fill="#ffffff" stroke="#ffffff" xlink:href="#b"/>
</g>
<g clip-path="url(#a)">
<use x="724.707256" y="508.317093" fill="#ffffff" stroke="#ffffff" xlink:href="#b"/>
</g>
<g clip-path="url(#a)">
<use x="773.16072" y="508.317093" fill="#ffffff" stroke="#ffffff" xlink:href="#b"/>
</g>
<g clip-path="url(#a)">
<use x="821.614184" y="508.317093" fill="#ffffff" stroke="#ffffff" xlink:href="#b"/>
</g>
<g clip-path="url(#a)">
<use x="870.067648" y="508.317093" fill="#ffffff" stroke="#ffffff" xlink:href="#b"/>
</g>
<g clip-path="url(#a)">
<use x="918.521112" y="508.317093" fill="#ffffff" stroke="#ffffff" xlink:href="#b"/>
</g>
<g clip-path="url(#a)">
<use x="966.974577" y="508.317093" fill="#ffffff" stroke="#ffffff" xlink:href="#b"/>
</g>
<g clip-path="url(#a)">
<use x="627.522729" y="25.016241" fill="#ffffff" stroke="#ffffff" xlink:href="#b"/>
</g>
<g clip-path="url(#a)">
<use x="319.540397" y="98.737004" fill="#ffffff" stroke="#ffffff" xlink:href="#b"/>
</g>
<g clip-path="url(#a)">
<use x="94.812221" y="442.129974" fill="#ffffff" stroke="#ffffff" xlink:href="#b"/>
</g>
<g clip-path="url(#a)">
<use x="46.358757" y="442.129974" fill="#ffffff" stroke="#ffffff" xlink:href="#b"/>
</g>
<g clip-path="url(#a)">
<use x="170.016035" y="170.476357" fill="#ffffff" stroke="#ffffff" xlink:href="#b"/>
</g>
<g clip-path="url(#a)">
<use x="191.719149" y="442.129974" fill="#ffffff" stroke="#ffffff" xlink:href="#b"/>
</g>
<g clip-path="url(#a)">
<use x="530.893399" y="442.129974" fill="#ffffff" stroke="#ffffff" xlink:href="#b"/>
</g>
<g clip-path="url(#a)">
<use x="652.027059" y="375.942855" fill="#ffffff" stroke="#ffffff" xlink:href="#b"/>
</g>
<g clip-path="url(#a)">
<use x="676.253791" y="442.129974" fill="#ffffff" stroke="#ffffff" xlink:href="#b"/>
</g>
<g clip-path="url(#a)">
<use x="966.974577" y="442.129974" fill="#ffffff" stroke="#ffffff" xlink:href="#b"/>
</g>
<g clip-path="url(#a)">
<use x="143.265685" y="442.129974" fill="#ffffff" stroke="#ffffff" xlink:href="#b"/>
</g>
<g clip-path="url(#a)">
<use x="298.720549" y="240.434934" fill="#ffffff" stroke="#ffffff" xlink:href="#b"/>
</g>
<g clip-path="url(#a)">
<use x="288.626078" y="442.129974" fill="#ffffff" stroke="#ffffff" xlink:href="#b"/>
</g>
<g clip-path="url(#a)">
<use x="579.346863" y="442.129974" fill="#ffffff" stroke="#ffffff" xlink:href="#b"/>
</g>
<g clip-path="url(#a)">
<use x="627.800327" y="442.129974" fill="#ffffff" stroke="#ffffff" xlink:href="#b"/>
</g>
<g clip-path="url(#a)">
<use x="724.707256" y="442.129974" fill="#ffffff" stroke="#ffffff" xlink:href="#b"/>
</g>
<g clip-path="url(#a)">
<use x="773.16072" y="442.129974" fill="#ffffff" stroke="#ffffff" xlink:href="#b"/>
</g>
<g clip-path="url(#a)">
<use x="861.992071" y="240.434934" fill="#ffffff" stroke="#ffffff" xlink:href="#b"/>
</g>
<g clip-path="url(#a)">
<use x="821.614184" y="442.129974" fill="#ffffff" stroke="#ffffff" xlink:href="#b"/>
</g>
<g clip-path="url(#a)">
<use x="240.172613" y="442.129974" fill="#ffffff" stroke="#ffffff" xlink:href="#b"/>
</g>
<g clip-path="url(#a)">
<use x="367.362957" y="308.835001" fill="#ffffff" stroke="#ffffff" xlink:href="#b"/>
</g>
<g clip-path="url(#a)">
<use x="385.533006" y="442.129974" fill="#ffffff" stroke="#ffffff" xlink:href="#b"/>
</g>
<g clip-path="url(#a)">
<use x="870.067648" y="442.129974" fill="#ffffff" stroke="#ffffff" xlink:href="#b"/>
</g>
<g clip-path="url(#a)">
<use x="894.29438" y="375.942855" fill="#ffffff" stroke="#ffffff" xlink:href="#b"/>
</g>
<g clip-path="url(#a)">
<use x="918.521112" y="442.129974" fill="#ffffff" stroke="#ffffff" xlink:href="#b"/>
</g>
<g clip-path="url(#a)">
<use x="337.079542" y="442.129974" fill="#ffffff" stroke="#ffffff" xlink:href="#b"/>
</g>
<g clip-path="url(#a)">
<use x="458.213202" y="375.942855" fill="#ffffff" stroke="#ffffff" xlink:href="#b"/>
</g>
<g clip-path="url(#a)">
<use x="482.439935" y="442.129974" fill="#ffffff" stroke="#ffffff" xlink:href="#b"/>
</g>
<g clip-path="url(#a)">
<use x="433.98647" y="442.129974" fill="#ffffff" stroke="#ffffff" xlink:href="#b"/>
</g>
<g clip-path="url(#a)">
<use x="894.29438" y="308.835001" fill="#ffffff" stroke="#ffffff" xlink:href="#b"/>
</g>
<g clip-path="url(#a)">
<defs>
<path id="al" d="m9.8125 72.906h9.8594v-72.906h-9.8594z"/>
</defs>
<g transform="translate(44.884 511.08) scale(.1 -.1)">
<use xlink:href="#al"/>
</g>
</g>
<g clip-path="url(#a)">
<g transform="translate(83.782 511.08) scale(.1 -.1)">
<use xlink:href="#p"/>
<use x="75.195312" xlink:href="#m"/>
<use x="143.603516" xlink:href="#t"/>
</g>
</g>
<g clip-path="url(#a)">
<defs>
<path id="q" d="m39.406 66.219q-10.75 0-17.078-8.0156-6.3125-8-6.3125-21.828 0-13.766 6.3125-21.781 6.3281-8 17.078-8 10.734 0 17.016 8 6.2812 8.0156 6.2812 21.781 0 13.828-6.2812 21.828-6.2812 8.0156-17.016 8.0156zm0 8q15.328 0 24.5-10.281 9.1875-10.281 9.1875-27.562 0-17.234-9.1875-27.516-9.1719-10.281-24.5-10.281-15.375 0-24.594 10.25-9.2031 10.266-9.2031 27.547t9.2031 27.562q9.2188 10.281 24.594 10.281z"/>
</defs>
<g transform="translate(136.28 511.08) scale(.1 -.1)">
<use xlink:href="#e"/>
<use x="61.083984" xlink:href="#q"/>
</g>
</g>
<g clip-path="url(#a)">
<defs>
<path id="ak" d="m53.516 70.516v-9.625q-5.6094 2.6875-10.594 4-4.9844 1.3281-9.625 1.3281-8.0469 0-12.422-3.125t-4.375-8.8906q0-4.8438 2.9062-7.3125 2.9062-2.4531 11.016-3.9688l5.9531-1.2188q11.031-2.1094 16.281-7.4062t5.25-14.172q0-10.609-7.1094-16.078-7.0938-5.4688-20.812-5.4688-5.1719 0-11.016 1.1719-5.8281 1.1719-12.078 3.4688v10.156q6-3.3594 11.766-5.0781 5.7656-1.7031 11.328-1.7031 8.4375 0 13.031 3.3125 4.5938 3.3281 4.5938 9.4844 0 5.3594-3.2969 8.3906t-10.812 4.5469l-6.0156 1.1719q-11.031 2.1875-15.969 6.875-4.9219 4.6875-4.9219 13.047 0 9.6719 6.8125 15.234t18.766 5.5625q5.1406 0 10.453-0.9375 5.3281-0.92188 10.891-2.7656z"/>
<path id="z" d="m9.8125 72.906h9.8594v-30.812l32.719 30.812h12.703l-36.188-33.984 38.766-38.922h-12.984l-35.016 35.109v-35.109h-9.8594z"/>
</defs>
<g transform="translate(181.85 511.08) scale(.1 -.1)">
<use xlink:href="#m"/>
<use x="68.408203" xlink:href="#ak"/>
<use x="131.884766" xlink:href="#z"/>
</g>
</g>
<g clip-path="url(#a)">
<g transform="translate(230.2 511.08) scale(.1 -.1)">
<use xlink:href="#e"/>
<use x="61.083984" xlink:href="#p"/>
<use x="136.279297" xlink:href="#o"/>
</g>
</g>
<g clip-path="url(#a)">
<defs>
<path id="am" d="m59.516 10.406v19.578h-16.109v8.1094h25.875v-31.312q-5.7031-4.0469-12.594-6.125-6.875-2.0781-14.688-2.0781-17.094 0-26.75 9.9844-9.6406 10-9.6406 27.812 0 17.875 9.6406 27.859 9.6562 9.9844 26.75 9.9844 7.125 0 13.547-1.7656 6.4219-1.75 11.844-5.1719v-10.5q-5.4688 4.6406-11.625 6.9844t-12.938 2.3438q-13.391 0-20.109-7.4688-6.7031-7.4688-6.7031-22.266 0-14.75 6.7031-22.219 6.7188-7.4688 20.109-7.4688 5.2188 0 9.3125 0.90625 4.1094 0.90625 7.375 2.8125z"/>
</defs>
<g transform="translate(277.02 511.08) scale(.1 -.1)">
<use xlink:href="#am"/>
<use x="77.490234" xlink:href="#al"/>
<use x="106.982422" xlink:href="#s"/>
<use x="176.464844" xlink:href="#u"/>
</g>
</g>
<g clip-path="url(#a)">
<defs>
<path id="ai" d="m3.3281 72.906h9.9531l15.328-61.625 15.281 61.625h11.094l15.328-61.625 15.281 61.625h10.016l-18.312-72.906h-12.406l-15.375 63.281-15.531-63.281h-12.406z"/>
</defs>
<g transform="translate(324.44 511.08) scale(.1 -.1)">
<use xlink:href="#ai"/>
<use x="98.876953" xlink:href="#p"/>
<use x="174.072266" xlink:href="#q"/>
</g>
</g>
<g clip-path="url(#a)">
<defs>
<path id="an" d="m19.672 34.812v-26.703h15.828q7.9531 0 11.781 3.2969 3.8438 3.2969 3.8438 10.078 0 6.8438-3.8438 10.078-3.8281 3.25-11.781 3.25zm0 29.984v-21.969h14.609q7.2188 0 10.75 2.7031 3.5469 2.7188 3.5469 8.2812 0 5.5156-3.5469 8.25-3.5312 2.7344-10.75 2.7344zm-9.8594 8.1094h25.203q11.281 0 17.375-4.6875 6.1094-4.6875 6.1094-13.328 0-6.7031-3.125-10.656t-9.1875-4.9219q7.2812-1.5625 11.312-6.5312 4.0312-4.9531 4.0312-12.375 0-9.7656-6.6406-15.094-6.6406-5.3125-18.906-5.3125h-26.172z"/>
</defs>
<g transform="translate(360.34 511.08) scale(.1 -.1)">
<use xlink:href="#an"/>
<use x="68.603516" xlink:href="#s"/>
<use x="138.085938" xlink:href="#q"/>
<use x="216.796875" xlink:href="#aj"/>
<use x="289.990234" xlink:href="#am"/>
<use x="367.480469" xlink:href="#p"/>
<use x="442.675781" xlink:href="#e"/>
</g>
</g>
<g clip-path="url(#a)">
<defs>
<path id="y" d="m9.8125 72.906h14.703l18.594-49.609 18.703 49.609h14.703v-72.906h-9.625v64.016l-18.797-50h-9.9062l-18.797 50v-64.016h-9.5781z"/>
<path id="ao" d="m-0.20312 72.906h10.609l20.203-29.984 20.078 29.984h10.594l-25.781-38.188v-34.719h-9.9062v34.719z"/>
</defs>
<g transform="translate(426.62 511.08) scale(.1 -.1)">
<use xlink:href="#y"/>
<use x="86.279297" xlink:href="#ao"/>
</g>
</g>
<g clip-path="url(#a)">
<g transform="translate(467.84 511.08) scale(.1 -.1)">
<use xlink:href="#aa"/>
<use x="57.519531" xlink:href="#q"/>
<use x="136.230469" xlink:href="#q"/>
<use x="214.941406" xlink:href="#t"/>
</g>
</g>
<g clip-path="url(#a)">
<defs>
<path id="x" d="m9.8125 72.906h13.281l32.328-60.984v60.984h9.5625v-72.906h-13.281l-32.312 60.984v-60.984h-9.5781z"/>
</defs>
<g transform="translate(519.88 511.08) scale(.1 -.1)">
<use xlink:href="#m"/>
<use x="68.408203" xlink:href="#x"/>
<use x="143.212891" xlink:href="#t"/>
</g>
</g>
<g clip-path="url(#a)">
<g transform="translate(569.25 511.08) scale(.1 -.1)">
<use xlink:href="#ak"/>
<use x="63.476562" xlink:href="#p"/>
<use x="138.671875" xlink:href="#o"/>
</g>
</g>
<g clip-path="url(#a)">
<defs>
<path id="ap" d="m28.609 0-27.828 72.906h10.297l23.109-61.375 23.141 61.375h10.25l-27.781-72.906z"/>
</defs>
<g transform="translate(610.85 511.08) scale(.1 -.1)">
<use xlink:href="#x"/>
<use x="74.804688" xlink:href="#o"/>
<use x="137.988281" xlink:href="#ap"/>
<use x="206.396484" xlink:href="#o"/>
<use x="269.580078" xlink:href="#s"/>
</g>
</g>
<g clip-path="url(#a)">
<g transform="translate(661.87 511.08) scale(.1 -.1)">
<use xlink:href="#v"/>
<use x="69.824219" xlink:href="#m"/>
<use x="138.232422" xlink:href="#y"/>
<use x="224.511719" xlink:href="#o"/>
</g>
</g>
<g clip-path="url(#a)">
<g transform="translate(711.09 511.08) scale(.1 -.1)">
<use xlink:href="#an"/>
<use x="68.603516" xlink:href="#m"/>
<use x="136.996094" xlink:href="#v"/>
<use x="206.820312" xlink:href="#z"/>
</g>
</g>
<g clip-path="url(#a)">
<g transform="translate(766.17 511.08) scale(.1 -.1)">
<use xlink:href="#e"/>
<use x="61.083984" xlink:href="#q"/>
</g>
</g>
<g clip-path="url(#a)">
<g transform="translate(812.61 511.08) scale(.1 -.1)">
<use xlink:href="#u"/>
<use x="55.712891" xlink:href="#o"/>
<use x="118.896484" xlink:href="#e"/>
</g>
</g>
<g clip-path="url(#a)">
<g transform="translate(862.59 511.08) scale(.1 -.1)">
<use xlink:href="#y"/>
<use x="86.279297" xlink:href="#o"/>
</g>
</g>
<g clip-path="url(#a)">
<g transform="translate(902.62 511.08) scale(.1 -.1)">
<use xlink:href="#z"/>
<use x="65.576172" xlink:href="#x"/>
<use x="140.380859" xlink:href="#q"/>
<use x="219.091797" xlink:href="#ai"/>
</g>
</g>
<g clip-path="url(#a)">
<defs>
<path id="d" d="m10.688 12.406h10.312v-12.406h-10.312z"/>
</defs>
<g transform="translate(965.39 511.08) scale(.1 -.1)">
<use xlink:href="#d"/>
</g>
</g>
<g clip-path="url(#a)">
<defs>
<path id="c" d="m12.406 8.2969h16.109v55.625l-17.531-3.5156v8.9844l17.438 3.5156h9.8594v-64.609h16.109v-8.2969h-41.984z"/>
</defs>
<g transform="translate(619.57 27.776) scale(.1 -.1)">
<use xlink:href="#c"/>
<use x="63.623047" xlink:href="#d"/>
<use x="95.410156" xlink:href="#c"/>
</g>
</g>
<g clip-path="url(#a)">
<defs>
<path id="n" d="m19.188 8.2969h34.422v-8.2969h-46.281v8.2969q5.6094 5.8125 15.297 15.594 9.7031 9.7969 12.188 12.641 4.7344 5.3125 6.6094 9 1.8906 3.6875 1.8906 7.25 0 5.8125-4.0781 9.4688-4.0781 3.6719-10.625 3.6719-4.6406 0-9.7969-1.6094-5.1406-1.6094-11-4.8906v9.9688q5.9531 2.3906 11.125 3.6094 5.1875 1.2188 9.4844 1.2188 11.328 0 18.062-5.6719 6.7344-5.6562 6.7344-15.125 0-4.5-1.6875-8.5312-1.6719-4.0156-6.125-9.4844-1.2188-1.4219-7.7656-8.1875-6.5312-6.7656-18.453-18.922z"/>
</defs>
<g transform="translate(311.59 101.5) scale(.1 -.1)">
<use xlink:href="#c"/>
<use x="63.623047" xlink:href="#d"/>
<use x="95.410156" xlink:href="#n"/>
</g>
</g>
<g clip-path="url(#a)">
<defs>
<path id="w" d="m40.578 39.312q7.0781-1.5156 11.047-6.3125 3.9844-4.7812 3.9844-11.812 0-10.781-7.4219-16.703-7.4219-5.9062-21.094-5.9062-4.5781 0-9.4375 0.90625t-10.031 2.7188v9.5156q4.0938-2.3906 8.9688-3.6094 4.8906-1.2188 10.219-1.2188 9.2656 0 14.125 3.6562t4.8594 10.641q0 6.4531-4.5156 10.078-4.5156 3.6406-12.562 3.6406h-8.5v8.1094h8.8906q7.2656 0 11.125 2.9062t3.8594 8.375q0 5.6094-3.9844 8.6094-3.9688 3.0156-11.391 3.0156-4.0625 0-8.7031-0.89062-4.6406-0.875-10.203-2.7188v8.7812q5.625 1.5625 10.531 2.3438t9.25 0.78125q11.234 0 17.766-5.1094 6.5469-5.0938 6.5469-13.781 0-6.0625-3.4688-10.234t-9.8594-5.7812z"/>
</defs>
<g transform="translate(86.861 444.89) scale(.1 -.1)">
<use xlink:href="#c"/>
<use x="63.623047" xlink:href="#d"/>
<use x="95.410156" xlink:href="#w"/>
</g>
</g>
<g clip-path="url(#a)">
<defs>
<path id="ag" d="m37.797 64.312-24.906-38.922h24.906zm-2.5938 8.5938h12.406v-47.516h10.406v-8.2031h-10.406v-17.188h-9.8125v17.188h-32.906v9.5156z"/>
</defs>
<g transform="translate(38.407 444.89) scale(.1 -.1)">
<use xlink:href="#c"/>
<use x="63.623047" xlink:href="#d"/>
<use x="95.410156" xlink:href="#ag"/>
</g>
</g>
<g clip-path="url(#a)">
<defs>
<path id="af" d="m10.797 72.906h38.719v-8.3125h-29.688v-17.859q2.1406 0.73438 4.2812 1.0938 2.1562 0.35938 4.3125 0.35938 12.203 0 19.328-6.6875 7.1406-6.6875 7.1406-18.109 0-11.766-7.3281-18.297-7.3281-6.5156-20.656-6.5156-4.5938 0-9.3594 0.78125-4.75 0.78125-9.8281 2.3438v9.9219q4.3906-2.3906 9.0781-3.5625t9.9062-1.1719q8.4531 0 13.375 4.4375 4.9375 4.4375 4.9375 12.062 0 7.6094-4.9375 12.047-4.9219 4.4531-13.375 4.4531-3.9531 0-7.8906-0.875-3.9219-0.875-8.0156-2.7344z"/>
</defs>
<g transform="translate(162.06 173.24) scale(.1 -.1)">
<use xlink:href="#c"/>
<use x="63.623047" xlink:href="#d"/>
<use x="95.410156" xlink:href="#af"/>
</g>
</g>
<g clip-path="url(#a)">
<defs>
<path id="ae" d="m33.016 40.375q-6.6406 0-10.531-4.5469-3.875-4.5312-3.875-12.438 0-7.8594 3.875-12.438 3.8906-4.5625 10.531-4.5625t10.516 4.5625q3.875 4.5781 3.875 12.438 0 7.9062-3.875 12.438-3.875 4.5469-10.516 4.5469zm19.578 30.922v-8.9844q-3.7188 1.75-7.5 2.6719-3.7812 0.9375-7.5 0.9375-9.7656 0-14.922-6.5938-5.1406-6.5938-5.875-19.922 2.875 4.25 7.2188 6.5156 4.3594 2.2656 9.5781 2.2656 10.984 0 17.359-6.6719 6.375-6.6562 6.375-18.125 0-11.234-6.6406-18.031-6.6406-6.7812-17.672-6.7812-12.656 0-19.344 9.6875-6.6875 9.7031-6.6875 28.109 0 17.281 8.2031 27.562t22.016 10.281q3.7188 0 7.5-0.73438t7.8906-2.1875z"/>
</defs>
<g transform="translate(183.77 444.89) scale(.1 -.1)">
<use xlink:href="#c"/>
<use x="63.623047" xlink:href="#d"/>
<use x="95.410156" xlink:href="#ae"/>
</g>
</g>
<g clip-path="url(#a)">
<defs>
<path id="ad" d="m8.2031 72.906h46.875v-4.2031l-26.469-68.703h-10.297l24.906 64.594h-35.016z"/>
</defs>
<g transform="translate(522.94 444.89) scale(.1 -.1)">
<use xlink:href="#c"/>
<use x="63.623047" xlink:href="#d"/>
<use x="95.410156" xlink:href="#ad"/>
</g>
</g>
<g clip-path="url(#a)">
<defs>
<path id="ac" d="m31.781 34.625q-7.0312 0-11.062-3.7656-4.0156-3.7656-4.0156-10.344 0-6.5938 4.0156-10.359 4.0312-3.7656 11.062-3.7656t11.078 3.7812q4.0625 3.7969 4.0625 10.344 0 6.5781-4.0312 10.344-4.0156 3.7656-11.109 3.7656zm-9.8594 4.1875q-6.3438 1.5625-9.8906 5.9062-3.5312 4.3594-3.5312 10.609 0 8.7344 6.2188 13.812 6.2344 5.0781 17.062 5.0781 10.891 0 17.094-5.0781t6.2031-13.812q0-6.25-3.5469-10.609-3.5312-4.3438-9.8281-5.9062 7.125-1.6562 11.094-6.5 3.9844-4.8281 3.9844-11.797 0-10.609-6.4688-16.281-6.4688-5.6562-18.531-5.6562-12.047 0-18.531 5.6562-6.4688 5.6719-6.4688 16.281 0 6.9688 4 11.797 4.0156 4.8438 11.141 6.5zm-3.6094 15.578q0-5.6562 3.5312-8.8281 3.5469-3.1719 9.9375-3.1719 6.3594 0 9.9375 3.1719 3.5938 3.1719 3.5938 8.8281 0 5.6719-3.5938 8.8438-3.5781 3.1719-9.9375 3.1719-6.3906 0-9.9375-3.1719-3.5312-3.1719-3.5312-8.8438z"/>
</defs>
<g transform="translate(644.08 378.7) scale(.1 -.1)">
<use xlink:href="#c"/>
<use x="63.623047" xlink:href="#d"/>
<use x="95.410156" xlink:href="#ac"/>
</g>
</g>
<g clip-path="url(#a)">
<defs>
<path id="ab" d="m10.984 1.5156v8.9844q3.7188-1.7656 7.5156-2.6875 3.8125-0.92188 7.4844-0.92188 9.7656 0 14.906 6.5625 5.1562 6.5625 5.8906 19.953-2.8281-4.2031-7.1875-6.4531-4.3438-2.25-9.6094-2.25-10.938 0-17.312 6.6094-6.375 6.625-6.375 18.109 0 11.219 6.6406 18 6.6406 6.7969 17.672 6.7969 12.656 0 19.312-9.7031 6.6719-9.6875 6.6719-28.141 0-17.234-8.1875-27.516-8.1719-10.281-21.984-10.281-3.7188 0-7.5312 0.73438-3.7969 0.73438-7.9062 2.2031zm19.625 30.906q6.6406 0 10.516 4.5312 3.8906 4.5469 3.8906 12.469 0 7.8594-3.8906 12.422-3.875 4.5625-10.516 4.5625t-10.516-4.5625-3.875-12.422q0-7.9219 3.875-12.469 3.875-4.5312 10.516-4.5312z"/>
</defs>
<g transform="translate(668.3 444.89) scale(.1 -.1)">
<use xlink:href="#c"/>
<use x="63.623047" xlink:href="#d"/>
<use x="95.410156" xlink:href="#ab"/>
</g>
</g>
<g clip-path="url(#a)">
<defs>
<path id="ah" d="m31.781 66.406q-7.6094 0-11.453-7.5-3.8281-7.4844-3.8281-22.531 0-14.984 3.8281-22.484 3.8438-7.5 11.453-7.5 7.6719 0 11.5 7.5 3.8438 7.5 3.8438 22.484 0 15.047-3.8438 22.531-3.8281 7.5-11.5 7.5zm0 7.8125q12.266 0 18.734-9.7031 6.4688-9.6875 6.4688-28.141 0-18.406-6.4688-28.109-6.4688-9.6875-18.734-9.6875-12.25 0-18.719 9.6875-6.4688 9.7031-6.4688 28.109 0 18.453 6.4688 28.141 6.4688 9.7031 18.719 9.7031z"/>
</defs>
<g transform="translate(955.84 444.89) scale(.1 -.1)">
<use xlink:href="#c"/>
<use x="63.623047" xlink:href="#d"/>
<use x="95.410156" xlink:href="#c"/>
<use x="159.033203" xlink:href="#ah"/>
</g>
</g>
<g clip-path="url(#a)">
<g transform="translate(132.13 444.89) scale(.1 -.1)">
<use xlink:href="#c"/>
<use x="63.623047" xlink:href="#d"/>
<use x="95.410156" xlink:href="#c"/>
<use x="159.033203" xlink:href="#c"/>
</g>
</g>
<g clip-path="url(#a)">
<g transform="translate(287.59 243.19) scale(.1 -.1)">
<use xlink:href="#c"/>
<use x="63.623047" xlink:href="#d"/>
<use x="95.410156" xlink:href="#c"/>
<use x="159.033203" xlink:href="#n"/>
</g>
</g>
<g clip-path="url(#a)">
<g transform="translate(277.49 444.89) scale(.1 -.1)">
<use xlink:href="#c"/>
<use x="63.623047" xlink:href="#d"/>
<use x="95.410156" xlink:href="#c"/>
<use x="159.033203" xlink:href="#w"/>
</g>
</g>
<g clip-path="url(#a)">
<g transform="translate(568.21 444.89) scale(.1 -.1)">
<use xlink:href="#c"/>
<use x="63.623047" xlink:href="#d"/>
<use x="95.410156" xlink:href="#c"/>
<use x="159.033203" xlink:href="#ag"/>
</g>
</g>
<g clip-path="url(#a)">
<g transform="translate(616.67 444.89) scale(.1 -.1)">
<use xlink:href="#c"/>
<use x="63.623047" xlink:href="#d"/>
<use x="95.410156" xlink:href="#c"/>
<use x="159.033203" xlink:href="#af"/>
</g>
</g>
<g clip-path="url(#a)">
<g transform="translate(713.57 444.89) scale(.1 -.1)">
<use xlink:href="#c"/>
<use x="63.623047" xlink:href="#d"/>
<use x="95.410156" xlink:href="#c"/>
<use x="159.033203" xlink:href="#ae"/>
</g>
</g>
<g clip-path="url(#a)">
<g transform="translate(762.03 444.89) scale(.1 -.1)">
<use xlink:href="#c"/>
<use x="63.623047" xlink:href="#d"/>
<use x="95.410156" xlink:href="#c"/>
<use x="159.033203" xlink:href="#ad"/>
</g>
</g>
<g clip-path="url(#a)">
<g transform="translate(850.86 243.19) scale(.1 -.1)">
<use xlink:href="#c"/>
<use x="63.623047" xlink:href="#d"/>
<use x="95.410156" xlink:href="#c"/>
<use x="159.033203" xlink:href="#ac"/>
</g>
</g>
<g clip-path="url(#a)">
<g transform="translate(810.48 444.89) scale(.1 -.1)">
<use xlink:href="#c"/>
<use x="63.623047" xlink:href="#d"/>
<use x="95.410156" xlink:href="#c"/>
<use x="159.033203" xlink:href="#ab"/>
</g>
</g>
<g clip-path="url(#a)">
<g transform="translate(229.04 444.89) scale(.1 -.1)">
<use xlink:href="#c"/>
<use x="63.623047" xlink:href="#d"/>
<use x="95.410156" xlink:href="#n"/>
<use x="159.033203" xlink:href="#ah"/>
</g>
</g>
<g clip-path="url(#a)">
<g transform="translate(356.23 311.59) scale(.1 -.1)">
<use xlink:href="#c"/>
<use x="63.623047" xlink:href="#d"/>
<use x="95.410156" xlink:href="#n"/>
<use x="159.033203" xlink:href="#c"/>
</g>
</g>
<g clip-path="url(#a)">
<g transform="translate(374.4 444.89) scale(.1 -.1)">
<use xlink:href="#c"/>
<use x="63.623047" xlink:href="#d"/>
<use x="95.410156" xlink:href="#n"/>
<use x="159.033203" xlink:href="#n"/>
</g>
</g>
<g clip-path="url(#a)">
<g transform="translate(858.93 444.89) scale(.1 -.1)">
<use xlink:href="#c"/>
<use x="63.623047" xlink:href="#d"/>
<use x="95.410156" xlink:href="#n"/>
<use x="159.033203" xlink:href="#w"/>
</g>
</g>
<g clip-path="url(#a)">
<g transform="translate(883.16 378.7) scale(.1 -.1)">
<use xlink:href="#c"/>
<use x="63.623047" xlink:href="#d"/>
<use x="95.410156" xlink:href="#n"/>
<use x="159.033203" xlink:href="#ag"/>
</g>
</g>
<g clip-path="url(#a)">
<g transform="translate(907.39 444.89) scale(.1 -.1)">
<use xlink:href="#c"/>
<use x="63.623047" xlink:href="#d"/>
<use x="95.410156" xlink:href="#n"/>
<use x="159.033203" xlink:href="#af"/>
</g>
</g>
<g clip-path="url(#a)">
<g transform="translate(325.95 444.89) scale(.1 -.1)">
<use xlink:href="#c"/>
<use x="63.623047" xlink:href="#d"/>
<use x="95.410156" xlink:href="#n"/>
<use x="159.033203" xlink:href="#ae"/>
</g>
</g>
<g clip-path="url(#a)">
<g transform="translate(447.08 378.7) scale(.1 -.1)">
<use xlink:href="#c"/>
<use x="63.623047" xlink:href="#d"/>
<use x="95.410156" xlink:href="#n"/>
<use x="159.033203" xlink:href="#ad"/>
</g>
</g>
<g clip-path="url(#a)">
<g transform="translate(471.31 444.89) scale(.1 -.1)">
<use xlink:href="#c"/>
<use x="63.623047" xlink:href="#d"/>
<use x="95.410156" xlink:href="#n"/>
<use x="159.033203" xlink:href="#ac"/>
</g>
</g>
<g clip-path="url(#a)">
<g transform="translate(422.85 444.89) scale(.1 -.1)">
<use xlink:href="#c"/>
<use x="63.623047" xlink:href="#d"/>
<use x="95.410156" xlink:href="#n"/>
<use x="159.033203" xlink:href="#ab"/>
</g>
</g>
<g clip-path="url(#a)">
<g transform="translate(883.16 311.59) scale(.1 -.1)">
<use xlink:href="#c"/>
<use x="63.623047" xlink:href="#d"/>
<use x="95.410156" xlink:href="#w"/>
<use x="159.033203" xlink:href="#ah"/>
</g>
</g>
<defs>
<clipPath id="a">
<rect width="1013.3" height="533.33"/>
</clipPath>
</defs>
</svg>
