<?xml version="1.0" encoding="UTF-8"?>
<!DOCTYPE svg  PUBLIC '-//W3C//DTD SVG 1.1//EN'  'http://www.w3.org/Graphics/SVG/1.1/DTD/svg11.dtd'>
<svg width="2128pt" height="1120pt" version="1.1" viewBox="0 0 2128 1120" xmlns="http://www.w3.org/2000/svg" xmlns:xlink="http://www.w3.org/1999/xlink">
<defs>
<style type="text/css">*{stroke-linecap:butt;stroke-linejoin:round;}</style>
</defs>
<path d="m0 1120h2128v-1120h-2128z" fill="#fff"/>
<g fill="none" stroke="#000">
<path d="m893.31 51.823-236.97 351.62" clip-path="url(#a)"/>
<path d="m893.31 51.823-301.63 852.11" clip-path="url(#a)"/>
<path d="m893.31 51.823-216.17 521.35" clip-path="url(#a)"/>
<path d="m893.31 51.823 89.721 521.35" clip-path="url(#a)"/>
<path d="m893.31 51.823 283.15 852.11" clip-path="url(#a)"/>
<path d="m893.31 51.823 381.9 178.02" clip-path="url(#a)"/>
<path d="m656.34 403.44-514.5 500.5" clip-path="url(#a)"/>
<path d="m656.34 403.44-559.48 500.5" clip-path="url(#a)"/>
<path d="m656.34 403.44-210.86 169.73" clip-path="url(#a)"/>
<path d="m656.34 403.44 1284.8 500.5" clip-path="url(#a)"/>
<path d="m141.84 903.94v164.24" clip-path="url(#a)"/>
<path d="m96.859 903.94v164.24" clip-path="url(#a)"/>
<path d="m445.48 573.17-348.62 330.76" clip-path="url(#a)" stroke-dasharray="3.7,1.6"/>
<path d="m445.48 573.17-213.67 330.76" clip-path="url(#a)"/>
<path d="m445.48 573.17-258.65 330.76" clip-path="url(#a)"/>
<path d="m445.48 573.17-146.2 166.52" clip-path="url(#a)"/>
<path d="m445.48 573.17-78.721 330.76" clip-path="url(#a)"/>
<path d="m445.48 573.17 1045.9 166.52" clip-path="url(#a)"/>
<path d="m231.81 903.94v164.24" clip-path="url(#a)"/>
<path d="m591.68 903.94v164.24" clip-path="url(#a)"/>
<path d="m677.14 573.17 4.4983 330.76" clip-path="url(#a)"/>
<path d="m677.14 573.17-130.45 330.76" clip-path="url(#a)"/>
<path d="m677.14 573.17-40.485 330.76" clip-path="url(#a)"/>
<path d="m677.14 573.17 49.482 330.76" clip-path="url(#a)"/>
<path d="m677.14 573.17 116.96 166.52" clip-path="url(#a)"/>
<path d="m681.64 903.94v164.24" clip-path="url(#a)"/>
<path d="m983.03 573.17 103.46 330.76" clip-path="url(#a)"/>
<path d="m983.03 573.17-121.45 330.76" clip-path="url(#a)"/>
<path d="m983.03 573.17-53.98 166.52" clip-path="url(#a)"/>
<path d="m983.03 573.17 13.495 330.76" clip-path="url(#a)"/>
<path d="m983.03 573.17 58.478 330.76" clip-path="url(#a)"/>
<path d="m1086.5 903.94v164.24" clip-path="url(#a)"/>
<path d="m1176.5 903.94v164.24" clip-path="url(#a)"/>
<path d="m1275.2 229.84 36.201 674.1" clip-path="url(#a)"/>
<path d="m1275.2 229.84-143.73 674.1" clip-path="url(#a)"/>
<path d="m1275.2 229.84-53.766 674.1" clip-path="url(#a)"/>
<path d="m1275.2 229.84-8.7825 674.1" clip-path="url(#a)"/>
<path d="m1275.2 229.84 170.08 173.6" clip-path="url(#a)"/>
<path d="m1311.4 903.94v164.24" clip-path="url(#a)"/>
<path d="m1941.2 903.94v164.24" clip-path="url(#a)"/>
<path d="m186.83 903.94v164.24" clip-path="url(#a)"/>
<path d="m299.28 739.7 22.492 164.24" clip-path="url(#a)"/>
<path d="m299.28 739.7-22.492 164.24" clip-path="url(#a)"/>
<path d="m321.78 903.94v164.24" clip-path="url(#a)"/>
<path d="m366.76 903.94v164.24" clip-path="url(#a)"/>
<path d="m1491.3 739.7-1034.6 164.24" clip-path="url(#a)"/>
<path d="m1491.3 739.7 539.8 328.48" clip-path="url(#a)"/>
<path d="m1491.3 739.7 494.82 328.48" clip-path="url(#a)"/>
<path d="m456.73 903.94-44.983 164.24" clip-path="url(#a)"/>
<path d="m456.73 903.94v164.24" clip-path="url(#a)"/>
<path d="m456.73 903.94 44.983 164.24" clip-path="url(#a)"/>
<path d="m546.69 903.94v164.24" clip-path="url(#a)"/>
<path d="m636.66 903.94v164.24" clip-path="url(#a)"/>
<path d="m726.63 903.94v164.24" clip-path="url(#a)"/>
<path d="m794.1 739.7 22.492 164.24" clip-path="url(#a)"/>
<path d="m794.1 739.7-22.492 164.24" clip-path="url(#a)"/>
<path d="m816.59 903.94v164.24" clip-path="url(#a)"/>
<path d="m861.58 903.94v164.24" clip-path="url(#a)"/>
<path d="m929.05 739.7 22.492 164.24" clip-path="url(#a)"/>
<path d="m929.05 739.7-22.492 164.24" clip-path="url(#a)"/>
<path d="m951.54 903.94v164.24" clip-path="url(#a)"/>
<path d="m996.53 903.94v164.24" clip-path="url(#a)"/>
<path d="m1041.5 903.94v164.24" clip-path="url(#a)"/>
<path d="m1131.5 903.94v164.24" clip-path="url(#a)"/>
<path d="m1221.4 903.94v164.24" clip-path="url(#a)"/>
<path d="m1266.4 903.94v164.24" clip-path="url(#a)"/>
<path d="m1445.3 403.44-223.85 500.5" clip-path="url(#a)" stroke-dasharray="3.7,1.6"/>
<path d="m1445.3 403.44 1.071 500.5" clip-path="url(#a)"/>
<path d="m1445.3 403.44-88.896 500.5" clip-path="url(#a)"/>
<path d="m1445.3 403.44-43.912 500.5" clip-path="url(#a)"/>
<path d="m1445.3 403.44 46.054 500.5" clip-path="url(#a)"/>
<path d="m1445.3 403.44 91.038 500.5" clip-path="url(#a)"/>
<path d="m1445.3 403.44 218.49 169.73" clip-path="url(#a)"/>
<path d="m1446.4 903.94v164.24" clip-path="url(#a)"/>
<path d="m276.79 903.94v164.24" clip-path="url(#a)"/>
<path d="m771.61 903.94v164.24" clip-path="url(#a)"/>
<path d="m906.56 903.94v164.24" clip-path="url(#a)"/>
<path d="m1356.4 903.94v164.24" clip-path="url(#a)"/>
<path d="m1401.4 903.94v164.24" clip-path="url(#a)"/>
<path d="m1491.3 903.94v164.24" clip-path="url(#a)"/>
<path d="m1536.3 903.94v164.24" clip-path="url(#a)"/>
<path d="m1663.8 573.17-37.486 330.76" clip-path="url(#a)"/>
<path d="m1663.8 573.17-82.469 330.76" clip-path="url(#a)"/>
<path d="m1663.8 573.17 7.4972 330.76" clip-path="url(#a)"/>
<path d="m1663.8 573.17 112.46 166.52" clip-path="url(#a)"/>
<path d="m1626.3 903.94v164.24" clip-path="url(#a)"/>
<path d="m1581.3 903.94v164.24" clip-path="url(#a)"/>
<path d="m1671.3 903.94v164.24" clip-path="url(#a)"/>
<path d="m1776.2 739.7-149.94 164.24" clip-path="url(#a)" stroke-dasharray="3.7,1.6"/>
<path d="m1776.2 739.7 119.96 164.24" clip-path="url(#a)"/>
<path d="m1776.2 739.7-59.978 164.24" clip-path="url(#a)"/>
<path d="m1776.2 739.7-14.994 164.24" clip-path="url(#a)"/>
<path d="m1776.2 739.7 29.989 164.24" clip-path="url(#a)"/>
<path d="m1776.2 739.7 74.972 164.24" clip-path="url(#a)"/>
<path d="m1896.2 903.94v164.24" clip-path="url(#a)"/>
<path d="m1716.3 903.94v164.24" clip-path="url(#a)"/>
<path d="m1761.2 903.94v164.24" clip-path="url(#a)"/>
<path d="m1806.2 903.94v164.24" clip-path="url(#a)"/>
<path d="m1851.2 903.94v164.24" clip-path="url(#a)"/>
</g>
<path d="m778.34 233.63 3.3623-4.989q1.3413-1.9902-0.64892-3.3315l-6.4205-4.3271q-1.9902-1.3413-3.3315 0.64892l-3.3623 4.989q-1.3413 1.9902 0.64892 3.3315l6.4205 4.3271q1.9902 1.3413 3.3315-0.64892z" clip-path="url(#a)" fill="#fff" stroke="#fff"/>
<g clip-path="url(#a)">
<defs>
<path id="ag" d="m9.8125 72.906h9.8594v-29.891h35.844v29.891h9.8594v-72.906h-9.8594v34.719h-35.844v-34.719h-9.8594z"/>
</defs>
<g transform="translate(774.97 231.36) rotate(-56.022) scale(.08 -.08)">
<use xlink:href="#ag"/>
</g>
</g>
<path d="m747.66 482.07 1.4874-4.202q0.80086-2.2624-1.4616-3.0633l-7.2987-2.5836q-2.2624-0.80086-3.0633 1.4616l-1.4874 4.202q-0.80086 2.2624 1.4616 3.0633l7.2987 2.5836q2.2624 0.80086 3.0633-1.4616z" clip-path="url(#a)" fill="#fff" stroke="#fff"/>
<g clip-path="url(#a)">
<defs>
<path id="ao" d="m9.8125 72.906h9.8594v-64.609h35.5v-8.2969h-45.359z"/>
</defs>
<g transform="translate(743.83 480.72) rotate(-70.507) scale(.08 -.08)">
<use xlink:href="#ao"/>
</g>
</g>
<path d="m789.87 317.68 2.3043-5.5575q0.91922-2.217-1.2978-3.1362l-7.1521-2.9655q-2.217-0.91922-3.1362 1.2978l-2.3043 5.5575q-0.91922 2.217 1.2978 3.1362l7.1521 2.9655q2.217 0.91922 3.1362-1.2978z" clip-path="url(#a)" fill="#fff" stroke="#fff"/>
<g clip-path="url(#a)">
<g transform="translate(786.11 316.12) rotate(-67.48) scale(.08 -.08)">
<use xlink:href="#ag"/>
</g>
</g>
<path d="m931.48 310.6 1.0204 5.9291q0.40704 2.3652 2.7723 1.9582l7.6303-1.3131q2.3652-0.40704 1.9582-2.7723l-1.0204-5.9291q-0.40704-2.3652-2.7723-1.9582l-7.6303 1.3131q-2.3652 0.40704-1.9582 2.7723z" clip-path="url(#a)" fill="#fff" stroke="#fff"/>
<g clip-path="url(#a)">
<g transform="translate(935.48 309.91) rotate(80.235) scale(.08 -.08)">
<use xlink:href="#ag"/>
</g>
</g>
<path d="m1028.2 477.74 1.4056 4.2301q0.75681 2.2776 3.0344 1.5207l7.3475-2.4415q2.2776-0.75681 1.5207-3.0344l-1.4056-4.2301q-0.75681-2.2776-3.0344-1.5207l-7.3475 2.4415q-2.2776 0.75681-1.5207 3.0344z" clip-path="url(#a)" fill="#fff" stroke="#fff"/>
<g clip-path="url(#a)">
<g transform="translate(1032.1 476.46) rotate(71.619) scale(.08 -.08)">
<use xlink:href="#ao"/>
</g>
</g>
<path d="m1078.9 145.25 5.4529 2.5418q2.1753 1.014 3.1893-1.1613l3.2712-7.0175q1.014-2.1753-1.1613-3.1893l-5.4529-2.5418q-2.1753-1.014-3.1893 1.1613l-3.2712 7.0175q-1.014 2.1753 1.1613 3.1893z" clip-path="url(#a)" fill="#fff" stroke="#fff"/>
<g clip-path="url(#a)">
<g transform="translate(1080.6 141.56) rotate(24.992) scale(.08 -.08)">
<use xlink:href="#ag"/>
</g>
</g>
<path d="m401.73 659.87 3.4576-3.3635q1.7203-1.6735 0.046811-3.3938l-5.3987-5.5498q-1.6735-1.7203-3.3938-0.046811l-3.4576 3.3635q-1.7203 1.6735-0.046812 3.3938l5.3987 5.5498q1.6735 1.7203 3.3938 0.046812z" clip-path="url(#a)" fill="#fff" stroke="#fff"/>
<g clip-path="url(#a)">
<defs>
<path id="v" d="m19.672 64.797v-27.391h12.406q6.8906 0 10.641 3.5625 3.7656 3.5625 3.7656 10.156 0 6.5469-3.7656 10.109-3.75 3.5625-10.641 3.5625zm-9.8594 8.1094h22.266q12.266 0 18.531-5.5469 6.2812-5.5469 6.2812-16.234 0-10.797-6.2812-16.312-6.2656-5.5156-18.531-5.5156h-12.406v-29.297h-9.8594z"/>
</defs>
<g transform="translate(398.9 656.95) rotate(-44.21) scale(.08 -.08)">
<use xlink:href="#v"/>
</g>
</g>
<path d="m378.74 660.19 4.0787-3.6487q1.7887-1.6001 0.18858-3.3889l-5.1621-5.7705q-1.6001-1.7887-3.3889-0.18858l-4.0787 3.6487q-1.7887 1.6001-0.18858 3.3889l5.1621 5.7705q1.6001 1.7887 3.3889 0.18858z" clip-path="url(#a)" fill="#fff" stroke="#fff"/>
<g clip-path="url(#a)">
<defs>
<path id="q" d="m34.188 63.188-13.391-36.281h26.812zm-5.5781 9.7188h11.188l27.781-72.906h-10.25l-6.6406 18.703h-32.859l-6.6406-18.703h-10.406z"/>
</defs>
<g transform="translate(376.03 657.16) rotate(-41.815) scale(.08 -.08)">
<use xlink:href="#q"/>
</g>
</g>
<path d="m552.71 494.91 4.263-3.4315q1.8696-1.5049 0.36466-3.3745l-4.8549-6.0313q-1.5049-1.8696-3.3745-0.36466l-4.263 3.4315q-1.8696 1.5049-0.36466 3.3745l4.8549 6.0313q1.5049 1.8696 3.3745 0.36466z" clip-path="url(#a)" fill="#fff" stroke="#fff"/>
<g clip-path="url(#a)">
<g transform="translate(550.16 491.74) rotate(-38.832) scale(.08 -.08)">
<use xlink:href="#q"/>
</g>
</g>
<path d="m1293.8 658.47 5.4557 2.1252q2.2363 0.87114 3.1075-1.3652l2.8103-7.2145q0.87114-2.2363-1.3652-3.1075l-5.4557-2.1252q-2.2363-0.87114-3.1075 1.3652l-2.8103 7.2145q-0.87114 2.2363 1.3652 3.1075z" clip-path="url(#a)" fill="#fff" stroke="#fff"/>
<g clip-path="url(#a)">
<defs>
<path id="w" d="m8.6875 72.906h9.9219v-44.297q0-11.719 4.2344-16.875 4.25-5.1406 13.781-5.1406 9.4688 0 13.719 5.1406 4.25 5.1562 4.25 16.875v44.297h9.9062v-45.516q0-14.25-7.0625-21.531-7.0469-7.2812-20.812-7.2812-13.828 0-20.891 7.2812-7.0469 7.2812-7.0469 21.531z"/>
</defs>
<g transform="translate(1295.2 654.68) rotate(21.283) scale(.08 -.08)">
<use xlink:href="#w"/>
</g>
</g>
<path d="m135.57 968.41v35.285q0 2.4 2.4 2.4h7.7425q2.4 0 2.4-2.4v-35.285q0-2.4-2.4-2.4h-7.7425q-2.4 0-2.4 2.4z" clip-path="url(#a)" fill="#fff" stroke="#fff"/>
<g clip-path="url(#a)">
<defs>
<path id="l" d="m-0.29688 72.906h61.672v-8.3125h-25.875v-64.594h-9.9062v64.594h-25.891z"/>
<path id="d" d="m56.203 29.594v-4.3906h-41.312q0.59375-9.2812 5.5938-14.141t13.938-4.8594q5.1719 0 10.031 1.2656t9.6562 3.8125v-8.5q-4.8438-2.0469-9.9219-3.125t-10.297-1.0781q-13.094 0-20.734 7.6094-7.6406 7.625-7.6406 20.625 0 13.422 7.25 21.297 7.25 7.8906 19.562 7.8906 11.031 0 17.453-7.1094 6.4219-7.0938 6.4219-19.297zm-8.9844 2.6406q-0.09375 7.3594-4.125 11.75-4.0312 4.4062-10.672 4.4062-7.5156 0-12.031-4.25t-5.2031-11.969z"/>
<path id="h" d="m41.109 46.297q-1.5156 0.875-3.2969 1.2812-1.7812 0.42188-3.9219 0.42188-7.625 0-11.703-4.9531t-4.0781-14.234v-28.812h-9.0312v54.688h9.0312v-8.5q2.8438 4.9844 7.375 7.3906 4.5469 2.4219 11.047 2.4219 0.92188 0 2.0469-0.125 1.125-0.10938 2.4844-0.35938z"/>
<path id="i" d="m52 44.188q3.375 6.0625 8.0625 8.9375t11.031 2.875q8.5469 0 13.188-5.9844 4.6406-5.9688 4.6406-17v-33.016h-9.0312v32.719q0 7.8594-2.7969 11.656-2.7812 3.8125-8.4844 3.8125-6.9844 0-11.047-4.6406-4.0469-4.625-4.0469-12.641v-30.906h-9.0312v32.719q0 7.9062-2.7812 11.688t-8.5938 3.7812q-6.8906 0-10.953-4.6562-4.0469-4.6562-4.0469-12.625v-30.906h-9.0312v54.688h9.0312v-8.5q3.0781 5.0312 7.375 7.4219t10.203 2.3906q5.9688 0 10.141-3.0312 4.1719-3.0156 6.1719-8.7812z"/>
<path id="j" d="m9.4219 54.688h8.9844v-54.688h-8.9844zm0 21.297h8.9844v-11.391h-8.9844z"/>
<path id="g" d="m54.891 33.016v-33.016h-8.9844v32.719q0 7.7656-3.0312 11.609-3.0312 3.8594-9.0781 3.8594-7.2812 0-11.484-4.6406-4.2031-4.625-4.2031-12.641v-30.906h-9.0312v54.688h9.0312v-8.5q3.2344 4.9375 7.5938 7.375 4.375 2.4375 10.094 2.4375 9.4219 0 14.25-5.8281 4.8438-5.8281 4.8438-17.156z"/>
<path id="f" d="m34.281 27.484q-10.891 0-15.094-2.4844t-4.2031-8.5q0-4.7812 3.1562-7.5938 3.1562-2.7969 8.5625-2.7969 7.4844 0 12 5.2969t4.5156 14.078v2zm17.922 3.7188v-31.203h-8.9844v8.2969q-3.0781-4.9688-7.6719-7.3438t-11.234-2.375q-8.3906 0-13.359 4.7188-4.9531 4.7188-4.9531 12.625 0 9.2188 6.1719 13.906 6.1875 4.6875 18.438 4.6875h12.609v0.89062q0 6.2031-4.0781 9.5938t-11.453 3.3906q-4.6875 0-9.1406-1.125-4.4375-1.125-8.5312-3.375v8.3125q4.9219 1.9062 9.5625 2.8438 4.6406 0.95312 9.0312 0.95312 11.875 0 17.734-6.1562 5.8594-6.1406 5.8594-18.641z"/>
<path id="k" d="m9.4219 75.984h8.9844v-75.984h-8.9844z"/>
</defs>
<g transform="translate(139.63 968.41) rotate(90) scale(.08 -.08)">
<use xlink:href="#l"/>
<use x="60.818359" xlink:href="#d"/>
<use x="122.341797" xlink:href="#h"/>
<use x="163.439453" xlink:href="#i"/>
<use x="260.851562" xlink:href="#j"/>
<use x="288.634766" xlink:href="#g"/>
<use x="352.013672" xlink:href="#f"/>
<use x="413.292969" xlink:href="#k"/>
</g>
</g>
<path d="m90.588 968.41v35.285q0 2.4 2.4 2.4h7.7425q2.4 0 2.4-2.4v-35.285q0-2.4-2.4-2.4h-7.7425q-2.4 0-2.4 2.4z" clip-path="url(#a)" fill="#fff" stroke="#fff"/>
<g clip-path="url(#a)">
<g transform="translate(94.652 968.41) rotate(90) scale(.08 -.08)">
<use xlink:href="#l"/>
<use x="60.818359" xlink:href="#d"/>
<use x="122.341797" xlink:href="#h"/>
<use x="163.439453" xlink:href="#i"/>
<use x="260.851562" xlink:href="#j"/>
<use x="288.634766" xlink:href="#g"/>
<use x="352.013672" xlink:href="#f"/>
<use x="413.292969" xlink:href="#k"/>
</g>
</g>
<path d="m273.5 744.99 3.97-3.7666q1.7411-1.6519 0.089173-3.3929l-5.329-5.6167q-1.6519-1.7411-3.3929-0.089173l-3.97 3.7666q-1.7411 1.6519-0.089173 3.3929l5.329 5.6167q1.6519 1.7411 3.3929 0.089173z" clip-path="url(#a)" fill="#fff" stroke="#fff"/>
<g clip-path="url(#a)">
<g transform="translate(270.7 742.04) rotate(-43.495) scale(.08 -.08)">
<use xlink:href="#q"/>
</g>
</g>
<path d="m342.6 743.98 2.6175-4.0519q1.3023-2.016-0.71367-3.3182l-6.5035-4.2012q-2.016-1.3023-3.3182 0.71367l-2.6175 4.0519q-1.3023 2.016 0.71367 3.3182l6.5035 4.2012q2.016 1.3023 3.3182-0.71367z" clip-path="url(#a)" fill="#fff" stroke="#fff"/>
<g clip-path="url(#a)">
<g transform="translate(339.19 741.78) rotate(-57.138) scale(.08 -.08)">
<use xlink:href="#v"/>
</g>
</g>
<path d="m319.38 744.61 3.4242-4.3789q1.4784-1.8906-0.41217-3.369l-6.0991-4.7694q-1.8906-1.4784-3.369 0.41217l-3.4242 4.3789q-1.4784 1.8906 0.41217 3.369l6.0991 4.7694q1.8906 1.4784 3.369-0.41217z" clip-path="url(#a)" fill="#fff" stroke="#fff"/>
<g clip-path="url(#a)">
<defs>
<path id="an" d="m44.391 34.188q3.1719-1.0781 6.1719-4.5938t6.0312-9.6719l10.016-19.922h-10.609l-9.3125 18.703q-3.625 7.3281-7.0156 9.7188t-9.25 2.3906h-10.75v-30.812h-9.8594v72.906h22.266q12.5 0 18.656-5.2344 6.1562-5.2188 6.1562-15.766 0-6.8906-3.2031-11.438-3.2031-4.5312-9.2969-6.2812zm-24.719 30.609v-25.875h12.406q7.125 0 10.766 3.2969t3.6406 9.6875-3.6406 9.6406-10.766 3.25z"/>
</defs>
<g transform="translate(316.18 742.1) rotate(-51.975) scale(.08 -.08)">
<use xlink:href="#an"/>
</g>
</g>
<path d="m375.29 662.63 3.6105-4.1125q1.5834-1.8036-0.22018-3.387l-5.8184-5.1081q-1.8036-1.5834-3.387 0.22018l-3.6105 4.1125q-1.5834 1.8036 0.22018 3.387l5.8184 5.1081q1.8036 1.5834 3.387-0.22018z" clip-path="url(#a)" fill="#fff" stroke="#fff"/>
<g clip-path="url(#a)">
<g transform="translate(372.24 659.95) rotate(-48.719) scale(.08 -.08)">
<use xlink:href="#q"/>
</g>
</g>
<path d="m411.59 742.67 1.267-5.3238q0.55567-2.3348-1.7791-2.8905l-7.5321-1.7926q-2.3348-0.55567-2.8905 1.7791l-1.267 5.3238q-0.55567 2.3348 1.7791 2.8905l7.5321 1.7926q2.3348 0.55567 2.8905-1.7791z" clip-path="url(#a)" fill="#fff" stroke="#fff"/>
<g clip-path="url(#a)">
<g transform="translate(407.63 741.73) rotate(-76.613) scale(.08 -.08)">
<use xlink:href="#q"/>
</g>
</g>
<path d="m964.72 662.2 5.4044 0.86051q2.3701 0.37738 2.7475-1.9928l1.2174-7.6462q0.37738-2.3701-1.9928-2.7475l-5.4044-0.86051q-2.3701-0.37738-2.7475 1.9928l-1.2174 7.6462q-0.37738 2.3701 1.9928 2.7475z" clip-path="url(#a)" fill="#fff" stroke="#fff"/>
<g clip-path="url(#a)">
<g transform="translate(965.36 658.18) rotate(9.0468) scale(.08 -.08)">
<use xlink:href="#q"/>
</g>
</g>
<path d="m225.54 968.41v35.285q0 2.4 2.4 2.4h7.7425q2.4 0 2.4-2.4v-35.285q0-2.4-2.4-2.4h-7.7425q-2.4 0-2.4 2.4z" clip-path="url(#a)" fill="#fff" stroke="#fff"/>
<g clip-path="url(#a)">
<g transform="translate(229.6 968.41) rotate(90) scale(.08 -.08)">
<use xlink:href="#l"/>
<use x="60.818359" xlink:href="#d"/>
<use x="122.341797" xlink:href="#h"/>
<use x="163.439453" xlink:href="#i"/>
<use x="260.851562" xlink:href="#j"/>
<use x="288.634766" xlink:href="#g"/>
<use x="352.013672" xlink:href="#f"/>
<use x="413.292969" xlink:href="#k"/>
</g>
</g>
<path d="m585.4 968.41v35.285q0 2.4 2.4 2.4h7.7425q2.4 0 2.4-2.4v-35.285q0-2.4-2.4-2.4h-7.7425q-2.4 0-2.4 2.4z" clip-path="url(#a)" fill="#fff" stroke="#fff"/>
<g clip-path="url(#a)">
<g transform="translate(589.47 968.41) rotate(90) scale(.08 -.08)">
<use xlink:href="#l"/>
<use x="60.818359" xlink:href="#d"/>
<use x="122.341797" xlink:href="#h"/>
<use x="163.439453" xlink:href="#i"/>
<use x="260.851562" xlink:href="#j"/>
<use x="288.634766" xlink:href="#g"/>
<use x="352.013672" xlink:href="#f"/>
<use x="413.292969" xlink:href="#k"/>
</g>
</g>
<path d="m673.09 736.23 0.065596 4.8233q0.032637 2.3998 2.4324 2.3671l7.7418-0.10529q2.3998-0.032636 2.3671-2.4324l-0.065595-4.8233q-0.032637-2.3998-2.4324-2.3671l-7.7418 0.10529q-2.3998 0.032636-2.3671 2.4324z" clip-path="url(#a)" fill="#fff" stroke="#fff"/>
<g clip-path="url(#a)">
<g transform="translate(677.15 736.17) rotate(89.221) scale(.08 -.08)">
<use xlink:href="#v"/>
</g>
</g>
<path d="m616.68 743.58 2.1481-5.4467q0.88054-2.2326-1.3521-3.1132l-7.2026-2.8406q-2.2326-0.88054-3.1132 1.3521l-2.1481 5.4467q-0.88054 2.2326 1.3521 3.1132l7.2026 2.8406q2.2326 0.88054 3.1132-1.3521z" clip-path="url(#a)" fill="#fff" stroke="#fff"/>
<g clip-path="url(#a)">
<g transform="translate(612.9 742.09) rotate(-68.476) scale(.08 -.08)">
<use xlink:href="#w"/>
</g>
</g>
<path d="m662.79 742.03 0.66486-5.432q0.29158-2.3822-2.0906-2.6738l-7.6851-0.94065q-2.3822-0.29158-2.6738 2.0906l-0.66486 5.432q-0.29158 2.3822 2.0906 2.6738l7.6851 0.94065q2.3822 0.29158 2.6738-2.0906z" clip-path="url(#a)" fill="#fff" stroke="#fff"/>
<g clip-path="url(#a)">
<g transform="translate(658.76 741.54) rotate(-83.022) scale(.08 -.08)">
<use xlink:href="#q"/>
</g>
</g>
<path d="m695.28 736.78 0.80966 5.4123q0.35508 2.3736 2.7287 2.0185l7.6573-1.1455q2.3736-0.35508 2.0185-2.7287l-0.80966-5.4123q-0.35508-2.3736-2.7287-2.0185l-7.6573 1.1455q-2.3736 0.35508-2.0185 2.7287z" clip-path="url(#a)" fill="#fff" stroke="#fff"/>
<g clip-path="url(#a)">
<g transform="translate(699.3 736.17) rotate(81.492) scale(.08 -.08)">
<use xlink:href="#q"/>
</g>
</g>
<path d="m728.72 657.52 3.5404 5.0409q1.3794 1.964 3.3434 0.58461l6.3359-4.45q1.964-1.3794 0.58461-3.3434l-3.5404-5.0409q-1.3794-1.964-3.3434-0.58461l-6.3359 4.45q-1.964 1.3794-0.58461 3.3434z" clip-path="url(#a)" fill="#fff" stroke="#fff"/>
<g clip-path="url(#a)">
<defs>
<path id="z" d="m19.672 64.797v-56.688h11.922q15.094 0 22.094 6.8281 7 6.8438 7 21.594 0 14.641-7 21.453t-22.094 6.8125zm-9.8594 8.1094h20.266q21.188 0 31.094-8.8125 9.9219-8.8125 9.9219-27.562 0-18.859-9.9688-27.703-9.9531-8.8281-31.047-8.8281h-20.266z"/>
</defs>
<g transform="translate(732.05 655.18) rotate(54.918) scale(.08 -.08)">
<use xlink:href="#z"/>
</g>
</g>
<path d="m675.37 968.41v35.285q0 2.4 2.4 2.4h7.7425q2.4 0 2.4-2.4v-35.285q0-2.4-2.4-2.4h-7.7425q-2.4 0-2.4 2.4z" clip-path="url(#a)" fill="#fff" stroke="#fff"/>
<g clip-path="url(#a)">
<g transform="translate(679.43 968.41) rotate(90) scale(.08 -.08)">
<use xlink:href="#l"/>
<use x="60.818359" xlink:href="#d"/>
<use x="122.341797" xlink:href="#h"/>
<use x="163.439453" xlink:href="#i"/>
<use x="260.851562" xlink:href="#j"/>
<use x="288.634766" xlink:href="#g"/>
<use x="352.013672" xlink:href="#f"/>
<use x="413.292969" xlink:href="#k"/>
</g>
</g>
<path d="m1028 738 1.5162 4.8472q0.71648 2.2906 3.007 1.5741l7.3894-2.3114q2.2906-0.71648 1.5741-3.007l-1.5162-4.8472q-0.71648-2.2906-3.007-1.5741l-7.3894 2.3114q-2.2906 0.71648-1.5741 3.007z" clip-path="url(#a)" fill="#fff" stroke="#fff"/>
<g clip-path="url(#a)">
<defs>
<path id="au" d="m53.516 70.516v-9.625q-5.6094 2.6875-10.594 4-4.9844 1.3281-9.625 1.3281-8.0469 0-12.422-3.125t-4.375-8.8906q0-4.8438 2.9062-7.3125 2.9062-2.4531 11.016-3.9688l5.9531-1.2188q11.031-2.1094 16.281-7.4062t5.25-14.172q0-10.609-7.1094-16.078-7.0938-5.4688-20.812-5.4688-5.1719 0-11.016 1.1719-5.8281 1.1719-12.078 3.4688v10.156q6-3.3594 11.766-5.0781 5.7656-1.7031 11.328-1.7031 8.4375 0 13.031 3.3125 4.5938 3.3281 4.5938 9.4844 0 5.3594-3.2969 8.3906t-10.812 4.5469l-6.0156 1.1719q-11.031 2.1875-15.969 6.875-4.9219 4.6875-4.9219 13.047 0 9.6719 6.8125 15.234t18.766 5.5625q5.1406 0 10.453-0.9375 5.3281-0.92188 10.891-2.7656z"/>
</defs>
<g transform="translate(1031.9 736.79) rotate(72.631) scale(.08 -.08)">
<use xlink:href="#au"/>
</g>
</g>
<path d="m927.18 743.46 2.0182-5.4962q0.82726-2.2529-1.4257-3.0802l-7.268-2.6688q-2.2529-0.82726-3.0802 1.4257l-2.0182 5.4962q-0.82726 2.2529 1.4257 3.0802l7.268 2.6688q2.2529 0.82726 3.0802-1.4257z" clip-path="url(#a)" fill="#fff" stroke="#fff"/>
<g clip-path="url(#a)">
<g transform="translate(923.37 742.06) rotate(-69.837) scale(.08 -.08)">
<use xlink:href="#w"/>
</g>
</g>
<path d="m961.16 660.97 1.6875-5.2058q0.74006-2.283-1.543-3.0231l-7.3652-2.3875q-2.283-0.74006-3.0231 1.543l-1.6875 5.2058q-0.74006 2.283 1.543 3.0231l7.3652 2.3875q2.283 0.74006 3.0231-1.543z" clip-path="url(#a)" fill="#fff" stroke="#fff"/>
<g clip-path="url(#a)">
<g transform="translate(957.3 659.72) rotate(-72.04) scale(.08 -.08)">
<use xlink:href="#q"/>
</g>
</g>
<path d="m983.42 736.51 0.18757 4.5974q0.097837 2.398 2.4958 2.3002l7.7361-0.31563q2.398-0.097837 2.3002-2.4958l-0.18757-4.5974q-0.097837-2.398-2.4958-2.3002l-7.7361 0.31563q-2.398 0.097837-2.3002 2.4958z" clip-path="url(#a)" fill="#fff" stroke="#fff"/>
<g clip-path="url(#a)">
<defs>
<path id="x" d="m9.8125 72.906h41.891v-8.3125h-32.031v-21.484h28.906v-8.2969h-28.906v-34.812h-9.8594z"/>
</defs>
<g transform="translate(987.48 736.35) rotate(87.664) scale(.08 -.08)">
<use xlink:href="#x"/>
</g>
</g>
<path d="m1005.7 737.38 0.80106 4.531q0.41783 2.3633 2.7812 1.9455l7.6243-1.3479q2.3633-0.41783 1.9455-2.7812l-0.80106-4.531q-0.41783-2.3633-2.7812-1.9455l-7.6243 1.3479q-2.3633 0.41783-1.9455 2.7812z" clip-path="url(#a)" fill="#fff" stroke="#fff"/>
<g clip-path="url(#a)">
<g transform="translate(1009.7 736.67) rotate(79.974) scale(.08 -.08)">
<use xlink:href="#x"/>
</g>
</g>
<path d="m1080.2 968.41v35.285q0 2.4 2.4 2.4h7.7425q2.4 0 2.4-2.4v-35.285q0-2.4-2.4-2.4h-7.7425q-2.4 0-2.4 2.4z" clip-path="url(#a)" fill="#fff" stroke="#fff"/>
<g clip-path="url(#a)">
<g transform="translate(1084.3 968.41) rotate(90) scale(.08 -.08)">
<use xlink:href="#l"/>
<use x="60.818359" xlink:href="#d"/>
<use x="122.341797" xlink:href="#h"/>
<use x="163.439453" xlink:href="#i"/>
<use x="260.851562" xlink:href="#j"/>
<use x="288.634766" xlink:href="#g"/>
<use x="352.013672" xlink:href="#f"/>
<use x="413.292969" xlink:href="#k"/>
</g>
</g>
<path d="m1170.2 968.41v35.285q0 2.4 2.4 2.4h7.7425q2.4 0 2.4-2.4v-35.285q0-2.4-2.4-2.4h-7.7425q-2.4 0-2.4 2.4z" clip-path="url(#a)" fill="#fff" stroke="#fff"/>
<g clip-path="url(#a)">
<g transform="translate(1174.3 968.41) rotate(90) scale(.08 -.08)">
<use xlink:href="#l"/>
<use x="60.818359" xlink:href="#d"/>
<use x="122.341797" xlink:href="#h"/>
<use x="163.439453" xlink:href="#i"/>
<use x="260.851562" xlink:href="#j"/>
<use x="288.634766" xlink:href="#g"/>
<use x="352.013672" xlink:href="#f"/>
<use x="413.292969" xlink:href="#k"/>
</g>
</g>
<path d="m1286.9 564.82 0.25868 4.8168q0.1287 2.3965 2.5252 2.2678l7.7314-0.4152q2.3965-0.1287 2.2678-2.5252l-0.25868-4.8168q-0.1287-2.3965-2.5252-2.2678l-7.7314 0.4152q-2.3965 0.1287-2.2678 2.5252z" clip-path="url(#a)" fill="#fff" stroke="#fff"/>
<g clip-path="url(#a)">
<g transform="translate(1291 564.6) rotate(86.926) scale(.08 -.08)">
<use xlink:href="#v"/>
</g>
</g>
<path d="m1208.9 571.06 1.221-5.7263q0.50048-2.3472-1.8468-2.8477l-7.5723-1.6146q-2.3472-0.50048-2.8477 1.8468l-1.221 5.7263q-0.50048 2.3472 1.8468 2.8477l7.5723 1.6146q2.3472 0.50048 2.8477-1.8468z" clip-path="url(#a)" fill="#fff" stroke="#fff"/>
<g clip-path="url(#a)">
<g transform="translate(1204.9 570.21) rotate(-77.963) scale(.08 -.08)">
<use xlink:href="#w"/>
</g>
</g>
<path d="m1254.4 570.11 0.4351-5.4552q0.19082-2.3924-2.2016-2.5832l-7.718-0.61559q-2.3924-0.19082-2.5832 2.2016l-0.4351 5.4552q-0.19082 2.3924 2.2016 2.5832l7.718 0.61559q2.3924 0.19082 2.5832-2.2016z" clip-path="url(#a)" fill="#fff" stroke="#fff"/>
<g clip-path="url(#a)">
<g transform="translate(1250.3 569.79) rotate(-85.44) scale(.08 -.08)">
<use xlink:href="#q"/>
</g>
</g>
<path d="m1277 570.05 0.080248-6.1595q0.031266-2.3998-2.3685-2.4311l-7.7418-0.10086q-2.3998-0.031266-2.4311 2.3685l-0.080249 6.1595q-0.031266 2.3998 2.3685 2.4311l7.7418 0.10086q2.3998 0.031265 2.4311-2.3685z" clip-path="url(#a)" fill="#fff" stroke="#fff"/>
<g clip-path="url(#a)">
<g transform="translate(1273 570) rotate(-89.254) scale(.08 -.08)">
<use xlink:href="#z"/>
</g>
</g>
<path d="m1353.9 319.07 3.8298 3.9091q1.6796 1.7143 3.3939 0.034752l5.5305-5.4184q1.7143-1.6796 0.034752-3.3939l-3.8298-3.9091q-1.6796-1.7143-3.3939-0.034752l-5.5305 5.4184q-1.7143 1.6796-0.034752 3.3939z" clip-path="url(#a)" fill="#fff" stroke="#fff"/>
<g clip-path="url(#a)">
<g transform="translate(1356.8 316.23) rotate(45.587) scale(.08 -.08)">
<use xlink:href="#q"/>
</g>
</g>
<path d="m1305.1 968.41v35.285q0 2.4 2.4 2.4h7.7425q2.4 0 2.4-2.4v-35.285q0-2.4-2.4-2.4h-7.7425q-2.4 0-2.4 2.4z" clip-path="url(#a)" fill="#fff" stroke="#fff"/>
<g clip-path="url(#a)">
<g transform="translate(1309.2 968.41) rotate(90) scale(.08 -.08)">
<use xlink:href="#l"/>
<use x="60.818359" xlink:href="#d"/>
<use x="122.341797" xlink:href="#h"/>
<use x="163.439453" xlink:href="#i"/>
<use x="260.851562" xlink:href="#j"/>
<use x="288.634766" xlink:href="#g"/>
<use x="352.013672" xlink:href="#f"/>
<use x="413.292969" xlink:href="#k"/>
</g>
</g>
<path d="m1934.9 968.41v35.285q0 2.4 2.4 2.4h7.7425q2.4 0 2.4-2.4v-35.285q0-2.4-2.4-2.4h-7.7425q-2.4 0-2.4 2.4z" clip-path="url(#a)" fill="#fff" stroke="#fff"/>
<g clip-path="url(#a)">
<g transform="translate(1939 968.41) rotate(90) scale(.08 -.08)">
<use xlink:href="#l"/>
<use x="60.818359" xlink:href="#d"/>
<use x="122.341797" xlink:href="#h"/>
<use x="163.439453" xlink:href="#i"/>
<use x="260.851562" xlink:href="#j"/>
<use x="288.634766" xlink:href="#g"/>
<use x="352.013672" xlink:href="#f"/>
<use x="413.292969" xlink:href="#k"/>
</g>
</g>
<path d="m180.55 968.41v35.285q0 2.4 2.4 2.4h7.7425q2.4 0 2.4-2.4v-35.285q0-2.4-2.4-2.4h-7.7425q-2.4 0-2.4 2.4z" clip-path="url(#a)" fill="#fff" stroke="#fff"/>
<g clip-path="url(#a)">
<g transform="translate(184.62 968.41) rotate(90) scale(.08 -.08)">
<use xlink:href="#l"/>
<use x="60.818359" xlink:href="#d"/>
<use x="122.341797" xlink:href="#h"/>
<use x="163.439453" xlink:href="#i"/>
<use x="260.851562" xlink:href="#j"/>
<use x="288.634766" xlink:href="#g"/>
<use x="352.013672" xlink:href="#f"/>
<use x="413.292969" xlink:href="#k"/>
</g>
</g>
<path d="m303.94 819.9 0.75793 5.5346q0.32563 2.3778 2.7034 2.0522l7.6709-1.0505q2.3778-0.32563 2.0522-2.7034l-0.75793-5.5346q-0.32562-2.3778-2.7034-2.0522l-7.6709 1.0505q-2.3778 0.32563-2.0522 2.7034z" clip-path="url(#a)" fill="#fff" stroke="#fff"/>
<g clip-path="url(#a)">
<defs>
<path id="ak" d="m64.406 67.281v-10.391q-4.9844 4.6406-10.625 6.9219-5.6406 2.2969-11.984 2.2969-12.5 0-19.141-7.6406t-6.6406-22.094q0-14.406 6.6406-22.047t19.141-7.6406q6.3438 0 11.984 2.2969t10.625 6.9375v-10.312q-5.1719-3.5156-10.969-5.2812-5.7812-1.75-12.219-1.75-16.562 0-26.094 10.125-9.5156 10.141-9.5156 27.672 0 17.578 9.5156 27.703 9.5312 10.141 26.094 10.141 6.5312 0 12.312-1.7344 5.7969-1.7344 10.875-5.2031z"/>
</defs>
<g transform="translate(307.96 819.35) rotate(82.202) scale(.08 -.08)">
<use xlink:href="#ak"/>
</g>
</g>
<path d="m293.91 825.17 0.68585-5.0083q0.32562-2.3778-2.0522-2.7034l-7.6709-1.0505q-2.3778-0.32563-2.7034 2.0522l-0.68585 5.0083q-0.32563 2.3778 2.0522 2.7034l7.6709 1.0505q2.3778 0.32563 2.7034-2.0522z" clip-path="url(#a)" fill="#fff" stroke="#fff"/>
<g clip-path="url(#a)">
<defs>
<path id="aj" d="m9.8125 72.906h46.094v-8.3125h-36.234v-21.578h34.719v-8.2969h-34.719v-26.422h37.109v-8.2969h-46.969z"/>
</defs>
<g transform="translate(289.88 824.62) rotate(-82.202) scale(.08 -.08)">
<use xlink:href="#aj"/>
</g>
</g>
<path d="m315.5 968.41v35.285q0 2.4 2.4 2.4h7.7425q2.4 0 2.4-2.4v-35.285q0-2.4-2.4-2.4h-7.7425q-2.4 0-2.4 2.4z" clip-path="url(#a)" fill="#fff" stroke="#fff"/>
<g clip-path="url(#a)">
<g transform="translate(319.57 968.41) rotate(90) scale(.08 -.08)">
<use xlink:href="#l"/>
<use x="60.818359" xlink:href="#d"/>
<use x="122.341797" xlink:href="#h"/>
<use x="163.439453" xlink:href="#i"/>
<use x="260.851562" xlink:href="#j"/>
<use x="288.634766" xlink:href="#g"/>
<use x="352.013672" xlink:href="#f"/>
<use x="413.292969" xlink:href="#k"/>
</g>
</g>
<path d="m360.49 968.41v35.285q0 2.4 2.4 2.4h7.7425q2.4 0 2.4-2.4v-35.285q0-2.4-2.4-2.4h-7.7425q-2.4 0-2.4 2.4z" clip-path="url(#a)" fill="#fff" stroke="#fff"/>
<g clip-path="url(#a)">
<g transform="translate(364.55 968.41) rotate(90) scale(.08 -.08)">
<use xlink:href="#l"/>
<use x="60.818359" xlink:href="#d"/>
<use x="122.341797" xlink:href="#h"/>
<use x="163.439453" xlink:href="#i"/>
<use x="260.851562" xlink:href="#j"/>
<use x="288.634766" xlink:href="#g"/>
<use x="352.013672" xlink:href="#f"/>
<use x="413.292969" xlink:href="#k"/>
</g>
</g>
<path d="m972.26 828.45 5.5172-0.87582q2.3703-0.37628 1.994-2.7466l-1.2139-7.6468q-0.37628-2.3703-2.7466-1.994l-5.5172 0.87582q-2.3703 0.37628-1.994 2.7466l1.2139 7.6468q0.37628 2.3703 2.7466 1.994z" clip-path="url(#a)" fill="#fff" stroke="#fff"/>
<g clip-path="url(#a)">
<g transform="translate(971.62 824.43) rotate(-9.0202) scale(.08 -.08)">
<use xlink:href="#ak"/>
</g>
</g>
<path d="m1756 908.1 3.9307 2.3919q2.0502 1.2476 3.2978-0.80262l4.0249-6.6141q1.2476-2.0502-0.80262-3.2978l-3.9307-2.3919q-2.0502-1.2476-3.2978 0.80262l-4.0249 6.6141q-1.2476 2.0502 0.80262 3.2978z" clip-path="url(#a)" fill="#fff" stroke="#fff"/>
<g clip-path="url(#a)">
<g transform="translate(1758.1 904.63) rotate(31.321) scale(.08 -.08)">
<use xlink:href="#x"/>
</g>
</g>
<path d="m1733.4 907.89 3.8335 2.5448q1.9995 1.3274 3.3269-0.67215l4.2821-6.4505q1.3274-1.9995-0.67215-3.3269l-3.8335-2.5448q-1.9995-1.3274-3.3269 0.67215l-4.2821 6.4505q-1.3274 1.9995 0.67215 3.3269z" clip-path="url(#a)" fill="#fff" stroke="#fff"/>
<g clip-path="url(#a)">
<g transform="translate(1735.6 904.5) rotate(33.578) scale(.08 -.08)">
<use xlink:href="#x"/>
</g>
</g>
<path d="m435.62 1004.7 9.3208-34.032q0.63398-2.3148-1.6808-2.9487l-7.4675-2.0452q-2.3148-0.63398-2.9487 1.6808l-9.3208 34.032q-0.63398 2.3148 1.6808 2.9487l7.4675 2.0452q2.3148 0.63398 2.9487-1.6808z" clip-path="url(#a)" fill="#fff" stroke="#fff"/>
<g clip-path="url(#a)">
<g transform="translate(431.7 1003.7) rotate(-74.683) scale(.08 -.08)">
<use xlink:href="#l"/>
<use x="60.818359" xlink:href="#d"/>
<use x="122.341797" xlink:href="#h"/>
<use x="163.439453" xlink:href="#i"/>
<use x="260.851562" xlink:href="#j"/>
<use x="288.634766" xlink:href="#g"/>
<use x="352.013672" xlink:href="#f"/>
<use x="413.292969" xlink:href="#k"/>
</g>
</g>
<path d="m450.45 968.41v35.285q0 2.4 2.4 2.4h7.7425q2.4 0 2.4-2.4v-35.285q0-2.4-2.4-2.4h-7.7425q-2.4 0-2.4 2.4z" clip-path="url(#a)" fill="#fff" stroke="#fff"/>
<g clip-path="url(#a)">
<g transform="translate(454.52 968.41) rotate(90) scale(.08 -.08)">
<use xlink:href="#l"/>
<use x="60.818359" xlink:href="#d"/>
<use x="122.341797" xlink:href="#h"/>
<use x="163.439453" xlink:href="#i"/>
<use x="260.851562" xlink:href="#j"/>
<use x="288.634766" xlink:href="#g"/>
<use x="352.013672" xlink:href="#f"/>
<use x="413.292969" xlink:href="#k"/>
</g>
</g>
<path d="m468.51 970.7 9.3208 34.032q0.63398 2.3148 2.9487 1.6808l7.4675-2.0452q2.3148-0.63398 1.6808-2.9487l-9.3208-34.032q-0.63398-2.3148-2.9487-1.6808l-7.4675 2.0452q-2.3148 0.63398-1.6808 2.9487z" clip-path="url(#a)" fill="#fff" stroke="#fff"/>
<g clip-path="url(#a)">
<g transform="translate(472.43 969.62) rotate(74.683) scale(.08 -.08)">
<use xlink:href="#l"/>
<use x="60.818359" xlink:href="#d"/>
<use x="122.341797" xlink:href="#h"/>
<use x="163.439453" xlink:href="#i"/>
<use x="260.851562" xlink:href="#j"/>
<use x="288.634766" xlink:href="#g"/>
<use x="352.013672" xlink:href="#f"/>
<use x="413.292969" xlink:href="#k"/>
</g>
</g>
<path d="m540.42 968.41v35.285q0 2.4 2.4 2.4h7.7425q2.4 0 2.4-2.4v-35.285q0-2.4-2.4-2.4h-7.7425q-2.4 0-2.4 2.4z" clip-path="url(#a)" fill="#fff" stroke="#fff"/>
<g clip-path="url(#a)">
<g transform="translate(544.48 968.41) rotate(90) scale(.08 -.08)">
<use xlink:href="#l"/>
<use x="60.818359" xlink:href="#d"/>
<use x="122.341797" xlink:href="#h"/>
<use x="163.439453" xlink:href="#i"/>
<use x="260.851562" xlink:href="#j"/>
<use x="288.634766" xlink:href="#g"/>
<use x="352.013672" xlink:href="#f"/>
<use x="413.292969" xlink:href="#k"/>
</g>
</g>
<path d="m630.39 968.41v35.285q0 2.4 2.4 2.4h7.7425q2.4 0 2.4-2.4v-35.285q0-2.4-2.4-2.4h-7.7425q-2.4 0-2.4 2.4z" clip-path="url(#a)" fill="#fff" stroke="#fff"/>
<g clip-path="url(#a)">
<g transform="translate(634.45 968.41) rotate(90) scale(.08 -.08)">
<use xlink:href="#l"/>
<use x="60.818359" xlink:href="#d"/>
<use x="122.341797" xlink:href="#h"/>
<use x="163.439453" xlink:href="#i"/>
<use x="260.851562" xlink:href="#j"/>
<use x="288.634766" xlink:href="#g"/>
<use x="352.013672" xlink:href="#f"/>
<use x="413.292969" xlink:href="#k"/>
</g>
</g>
<path d="m720.35 968.41v35.285q0 2.4 2.4 2.4h7.7425q2.4 0 2.4-2.4v-35.285q0-2.4-2.4-2.4h-7.7425q-2.4 0-2.4 2.4z" clip-path="url(#a)" fill="#fff" stroke="#fff"/>
<g clip-path="url(#a)">
<g transform="translate(724.42 968.41) rotate(90) scale(.08 -.08)">
<use xlink:href="#l"/>
<use x="60.818359" xlink:href="#d"/>
<use x="122.341797" xlink:href="#h"/>
<use x="163.439453" xlink:href="#i"/>
<use x="260.851562" xlink:href="#j"/>
<use x="288.634766" xlink:href="#g"/>
<use x="352.013672" xlink:href="#f"/>
<use x="413.292969" xlink:href="#k"/>
</g>
</g>
<path d="m798.75 819.9 0.75793 5.5346q0.32563 2.3778 2.7034 2.0522l7.6709-1.0505q2.3778-0.32563 2.0522-2.7034l-0.75793-5.5346q-0.32563-2.3778-2.7034-2.0522l-7.6709 1.0505q-2.3778 0.32563-2.0522 2.7034z" clip-path="url(#a)" fill="#fff" stroke="#fff"/>
<g clip-path="url(#a)">
<g transform="translate(802.78 819.35) rotate(82.202) scale(.08 -.08)">
<use xlink:href="#ak"/>
</g>
</g>
<path d="m788.72 825.17 0.68585-5.0083q0.32563-2.3778-2.0522-2.7034l-7.6709-1.0505q-2.3778-0.32563-2.7034 2.0522l-0.68585 5.0083q-0.32563 2.3778 2.0522 2.7034l7.6709 1.0505q2.3778 0.32563 2.7034-2.0522z" clip-path="url(#a)" fill="#fff" stroke="#fff"/>
<g clip-path="url(#a)">
<g transform="translate(784.7 824.62) rotate(-82.202) scale(.08 -.08)">
<use xlink:href="#aj"/>
</g>
</g>
<path d="m810.32 968.41v35.285q0 2.4 2.4 2.4h7.7425q2.4 0 2.4-2.4v-35.285q0-2.4-2.4-2.4h-7.7425q-2.4 0-2.4 2.4z" clip-path="url(#a)" fill="#fff" stroke="#fff"/>
<g clip-path="url(#a)">
<g transform="translate(814.38 968.41) rotate(90) scale(.08 -.08)">
<use xlink:href="#l"/>
<use x="60.818359" xlink:href="#d"/>
<use x="122.341797" xlink:href="#h"/>
<use x="163.439453" xlink:href="#i"/>
<use x="260.851562" xlink:href="#j"/>
<use x="288.634766" xlink:href="#g"/>
<use x="352.013672" xlink:href="#f"/>
<use x="413.292969" xlink:href="#k"/>
</g>
</g>
<path d="m855.3 968.41v35.285q0 2.4 2.4 2.4h7.7425q2.4 0 2.4-2.4v-35.285q0-2.4-2.4-2.4h-7.7425q-2.4 0-2.4 2.4z" clip-path="url(#a)" fill="#fff" stroke="#fff"/>
<g clip-path="url(#a)">
<g transform="translate(859.37 968.41) rotate(90) scale(.08 -.08)">
<use xlink:href="#l"/>
<use x="60.818359" xlink:href="#d"/>
<use x="122.341797" xlink:href="#h"/>
<use x="163.439453" xlink:href="#i"/>
<use x="260.851562" xlink:href="#j"/>
<use x="288.634766" xlink:href="#g"/>
<use x="352.013672" xlink:href="#f"/>
<use x="413.292969" xlink:href="#k"/>
</g>
</g>
<path d="m933.76 820.28 0.65447 4.7791q0.32562 2.3778 2.7034 2.0522l7.6709-1.0505q2.3778-0.32562 2.0522-2.7034l-0.65447-4.7791q-0.32562-2.3778-2.7034-2.0522l-7.6709 1.0505q-2.3778 0.32563-2.0522 2.7034z" clip-path="url(#a)" fill="#fff" stroke="#fff"/>
<g clip-path="url(#a)">
<g transform="translate(937.78 819.73) rotate(82.202) scale(.08 -.08)">
<use xlink:href="#v"/>
</g>
</g>
<path d="m923.71 824.95 0.62429-4.5587q0.32562-2.3778-2.0522-2.7034l-7.6709-1.0505q-2.3778-0.32563-2.7034 2.0522l-0.62428 4.5587q-0.32563 2.3778 2.0522 2.7034l7.6709 1.0505q2.3778 0.32563 2.7034-2.0522z" clip-path="url(#a)" fill="#fff" stroke="#fff"/>
<g clip-path="url(#a)">
<g transform="translate(919.68 824.4) rotate(-82.202) scale(.08 -.08)">
<use xlink:href="#x"/>
</g>
</g>
<path d="m945.27 968.41v35.285q0 2.4 2.4 2.4h7.7425q2.4 0 2.4-2.4v-35.285q0-2.4-2.4-2.4h-7.7425q-2.4 0-2.4 2.4z" clip-path="url(#a)" fill="#fff" stroke="#fff"/>
<g clip-path="url(#a)">
<g transform="translate(949.33 968.41) rotate(90) scale(.08 -.08)">
<use xlink:href="#l"/>
<use x="60.818359" xlink:href="#d"/>
<use x="122.341797" xlink:href="#h"/>
<use x="163.439453" xlink:href="#i"/>
<use x="260.851562" xlink:href="#j"/>
<use x="288.634766" xlink:href="#g"/>
<use x="352.013672" xlink:href="#f"/>
<use x="413.292969" xlink:href="#k"/>
</g>
</g>
<path d="m990.25 968.41v35.285q0 2.4 2.4 2.4h7.7425q2.4 0 2.4-2.4v-35.285q0-2.4-2.4-2.4h-7.7425q-2.4 0-2.4 2.4z" clip-path="url(#a)" fill="#fff" stroke="#fff"/>
<g clip-path="url(#a)">
<g transform="translate(994.32 968.41) rotate(90) scale(.08 -.08)">
<use xlink:href="#l"/>
<use x="60.818359" xlink:href="#d"/>
<use x="122.341797" xlink:href="#h"/>
<use x="163.439453" xlink:href="#i"/>
<use x="260.851562" xlink:href="#j"/>
<use x="288.634766" xlink:href="#g"/>
<use x="352.013672" xlink:href="#f"/>
<use x="413.292969" xlink:href="#k"/>
</g>
</g>
<path d="m1035.2 968.41v35.285q0 2.4 2.4 2.4h7.7425q2.4 0 2.4-2.4v-35.285q0-2.4-2.4-2.4h-7.7425q-2.4 0-2.4 2.4z" clip-path="url(#a)" fill="#fff" stroke="#fff"/>
<g clip-path="url(#a)">
<g transform="translate(1039.3 968.41) rotate(90) scale(.08 -.08)">
<use xlink:href="#l"/>
<use x="60.818359" xlink:href="#d"/>
<use x="122.341797" xlink:href="#h"/>
<use x="163.439453" xlink:href="#i"/>
<use x="260.851562" xlink:href="#j"/>
<use x="288.634766" xlink:href="#g"/>
<use x="352.013672" xlink:href="#f"/>
<use x="413.292969" xlink:href="#k"/>
</g>
</g>
<path d="m1125.2 968.41v35.285q0 2.4 2.4 2.4h7.7425q2.4 0 2.4-2.4v-35.285q0-2.4-2.4-2.4h-7.7425q-2.4 0-2.4 2.4z" clip-path="url(#a)" fill="#fff" stroke="#fff"/>
<g clip-path="url(#a)">
<g transform="translate(1129.3 968.41) rotate(90) scale(.08 -.08)">
<use xlink:href="#l"/>
<use x="60.818359" xlink:href="#d"/>
<use x="122.341797" xlink:href="#h"/>
<use x="163.439453" xlink:href="#i"/>
<use x="260.851562" xlink:href="#j"/>
<use x="288.634766" xlink:href="#g"/>
<use x="352.013672" xlink:href="#f"/>
<use x="413.292969" xlink:href="#k"/>
</g>
</g>
<path d="m1215.2 968.41v35.285q0 2.4 2.4 2.4h7.7425q2.4 0 2.4-2.4v-35.285q0-2.4-2.4-2.4h-7.7425q-2.4 0-2.4 2.4z" clip-path="url(#a)" fill="#fff" stroke="#fff"/>
<g clip-path="url(#a)">
<g transform="translate(1219.2 968.41) rotate(90) scale(.08 -.08)">
<use xlink:href="#l"/>
<use x="60.818359" xlink:href="#d"/>
<use x="122.341797" xlink:href="#h"/>
<use x="163.439453" xlink:href="#i"/>
<use x="260.851562" xlink:href="#j"/>
<use x="288.634766" xlink:href="#g"/>
<use x="352.013672" xlink:href="#f"/>
<use x="413.292969" xlink:href="#k"/>
</g>
</g>
<path d="m1260.2 968.41v35.285q0 2.4 2.4 2.4h7.7425q2.4 0 2.4-2.4v-35.285q0-2.4-2.4-2.4h-7.7425q-2.4 0-2.4 2.4z" clip-path="url(#a)" fill="#fff" stroke="#fff"/>
<g clip-path="url(#a)">
<g transform="translate(1264.2 968.41) rotate(90) scale(.08 -.08)">
<use xlink:href="#l"/>
<use x="60.818359" xlink:href="#d"/>
<use x="122.341797" xlink:href="#h"/>
<use x="163.439453" xlink:href="#i"/>
<use x="260.851562" xlink:href="#j"/>
<use x="288.634766" xlink:href="#g"/>
<use x="352.013672" xlink:href="#f"/>
<use x="413.292969" xlink:href="#k"/>
</g>
</g>
<path d="m1338 658.75 2.2343-4.9956q0.97986-2.1909-1.211-3.1707l-7.0678-3.1611q-2.1909-0.97986-3.1707 1.211l-2.2343 4.9956q-0.97986 2.1909 1.211 3.1707l7.0678 3.1611q2.1909 0.97986 3.1707-1.211z" clip-path="url(#a)" fill="#fff" stroke="#fff"/>
<g clip-path="url(#a)">
<g transform="translate(1334.3 657.09) rotate(-65.904) scale(.08 -.08)">
<use xlink:href="#q"/>
</g>
</g>
<path d="m1439.5 651.29 0.010323 4.8237q0.005136 2.4 2.4051 2.3949l7.7425-0.016568q2.4-0.005136 2.3949-2.4051l-0.010322-4.8237q-0.005136-2.4-2.4051-2.3949l-7.7425 0.016568q-2.4 0.005136-2.3949 2.4051z" clip-path="url(#a)" fill="#fff" stroke="#fff"/>
<g clip-path="url(#a)">
<g transform="translate(1443.6 651.28) rotate(89.877) scale(.08 -.08)">
<use xlink:href="#v"/>
</g>
</g>
<path d="m1406.6 657.05 0.80466-4.5303q0.41971-2.363-1.9433-2.7827l-7.6232-1.354q-2.363-0.41971-2.7827 1.9433l-0.80466 4.5303q-0.41971 2.363 1.9433 2.7827l7.6232 1.354q2.363 0.41971 2.7827-1.9433z" clip-path="url(#a)" fill="#fff" stroke="#fff"/>
<g clip-path="url(#a)">
<g transform="translate(1402.6 656.34) rotate(-79.928) scale(.08 -.08)">
<use xlink:href="#x"/>
</g>
</g>
<path d="m1429.3 657.15 0.51174-5.8326q0.20976-2.3908-2.1811-2.6006l-7.7129-0.67671q-2.3908-0.20976-2.6006 2.1811l-0.51174 5.8326q-0.20976 2.3908 2.1811 2.6006l7.7129 0.67671q2.3908 0.20976 2.6006-2.1811z" clip-path="url(#a)" fill="#fff" stroke="#fff"/>
<g clip-path="url(#a)">
<g transform="translate(1425.3 656.8) rotate(-84.986) scale(.08 -.08)">
<use xlink:href="#w"/>
</g>
</g>
<path d="m1461.8 651.75 0.46319 5.0337q0.21991 2.3899 2.6098 2.17l7.7099-0.70945q2.3899-0.21991 2.17-2.6098l-0.46319-5.0337q-0.21991-2.3899-2.6098-2.17l-7.7099 0.70945q-2.3899 0.21991-2.17 2.6098z" clip-path="url(#a)" fill="#fff" stroke="#fff"/>
<g clip-path="url(#a)">
<g transform="translate(1465.9 651.37) rotate(84.743) scale(.08 -.08)">
<use xlink:href="#aj"/>
</g>
</g>
<path d="m1484.1 651.93 1.0478 5.7605q0.4295 2.3613 2.7908 1.9318l7.6175-1.3856q2.3613-0.4295 1.9318-2.7908l-1.0478-5.7605q-0.4295-2.3613-2.7908-1.9318l-7.6175 1.3856q-2.3613 0.4295-1.9318 2.7908z" clip-path="url(#a)" fill="#fff" stroke="#fff"/>
<g clip-path="url(#a)">
<g transform="translate(1488.1 651.2) rotate(79.691) scale(.08 -.08)">
<use xlink:href="#w"/>
</g>
</g>
<path d="m1548.5 491.58 4.3217 3.3573q1.8953 1.4723 3.3677-0.42296l4.7499-6.1143q1.4723-1.8953-0.42296-3.3677l-4.3217-3.3573q-1.8953-1.4723-3.3677 0.42296l-4.7499 6.1143q-1.4723 1.8953 0.42296 3.3677z" clip-path="url(#a)" fill="#fff" stroke="#fff"/>
<g clip-path="url(#a)">
<g transform="translate(1551 488.37) rotate(37.841) scale(.08 -.08)">
<use xlink:href="#q"/>
</g>
</g>
<path d="m1440.1 968.41v35.285q0 2.4 2.4 2.4h7.7425q2.4 0 2.4-2.4v-35.285q0-2.4-2.4-2.4h-7.7425q-2.4 0-2.4 2.4z" clip-path="url(#a)" fill="#fff" stroke="#fff"/>
<g clip-path="url(#a)">
<g transform="translate(1444.2 968.41) rotate(90) scale(.08 -.08)">
<use xlink:href="#l"/>
<use x="60.818359" xlink:href="#d"/>
<use x="122.341797" xlink:href="#h"/>
<use x="163.439453" xlink:href="#i"/>
<use x="260.851562" xlink:href="#j"/>
<use x="288.634766" xlink:href="#g"/>
<use x="352.013672" xlink:href="#f"/>
<use x="413.292969" xlink:href="#k"/>
</g>
</g>
<path d="m270.52 968.41v35.285q0 2.4 2.4 2.4h7.7425q2.4 0 2.4-2.4v-35.285q0-2.4-2.4-2.4h-7.7425q-2.4 0-2.4 2.4z" clip-path="url(#a)" fill="#fff" stroke="#fff"/>
<g clip-path="url(#a)">
<g transform="translate(274.58 968.41) rotate(90) scale(.08 -.08)">
<use xlink:href="#l"/>
<use x="60.818359" xlink:href="#d"/>
<use x="122.341797" xlink:href="#h"/>
<use x="163.439453" xlink:href="#i"/>
<use x="260.851562" xlink:href="#j"/>
<use x="288.634766" xlink:href="#g"/>
<use x="352.013672" xlink:href="#f"/>
<use x="413.292969" xlink:href="#k"/>
</g>
</g>
<path d="m765.34 968.41v35.285q0 2.4 2.4 2.4h7.7425q2.4 0 2.4-2.4v-35.285q0-2.4-2.4-2.4h-7.7425q-2.4 0-2.4 2.4z" clip-path="url(#a)" fill="#fff" stroke="#fff"/>
<g clip-path="url(#a)">
<g transform="translate(769.4 968.41) rotate(90) scale(.08 -.08)">
<use xlink:href="#l"/>
<use x="60.818359" xlink:href="#d"/>
<use x="122.341797" xlink:href="#h"/>
<use x="163.439453" xlink:href="#i"/>
<use x="260.851562" xlink:href="#j"/>
<use x="288.634766" xlink:href="#g"/>
<use x="352.013672" xlink:href="#f"/>
<use x="413.292969" xlink:href="#k"/>
</g>
</g>
<path d="m900.29 968.41v35.285q0 2.4 2.4 2.4h7.7425q2.4 0 2.4-2.4v-35.285q0-2.4-2.4-2.4h-7.7425q-2.4 0-2.4 2.4z" clip-path="url(#a)" fill="#fff" stroke="#fff"/>
<g clip-path="url(#a)">
<g transform="translate(904.35 968.41) rotate(90) scale(.08 -.08)">
<use xlink:href="#l"/>
<use x="60.818359" xlink:href="#d"/>
<use x="122.341797" xlink:href="#h"/>
<use x="163.439453" xlink:href="#i"/>
<use x="260.851562" xlink:href="#j"/>
<use x="288.634766" xlink:href="#g"/>
<use x="352.013672" xlink:href="#f"/>
<use x="413.292969" xlink:href="#k"/>
</g>
</g>
<path d="m1350.1 968.41v35.285q0 2.4 2.4 2.4h7.7425q2.4 0 2.4-2.4v-35.285q0-2.4-2.4-2.4h-7.7425q-2.4 0-2.4 2.4z" clip-path="url(#a)" fill="#fff" stroke="#fff"/>
<g clip-path="url(#a)">
<g transform="translate(1354.2 968.41) rotate(90) scale(.08 -.08)">
<use xlink:href="#l"/>
<use x="60.818359" xlink:href="#d"/>
<use x="122.341797" xlink:href="#h"/>
<use x="163.439453" xlink:href="#i"/>
<use x="260.851562" xlink:href="#j"/>
<use x="288.634766" xlink:href="#g"/>
<use x="352.013672" xlink:href="#f"/>
<use x="413.292969" xlink:href="#k"/>
</g>
</g>
<path d="m1395.1 968.41v35.285q0 2.4 2.4 2.4h7.7425q2.4 0 2.4-2.4v-35.285q0-2.4-2.4-2.4h-7.7425q-2.4 0-2.4 2.4z" clip-path="url(#a)" fill="#fff" stroke="#fff"/>
<g clip-path="url(#a)">
<g transform="translate(1399.2 968.41) rotate(90) scale(.08 -.08)">
<use xlink:href="#l"/>
<use x="60.818359" xlink:href="#d"/>
<use x="122.341797" xlink:href="#h"/>
<use x="163.439453" xlink:href="#i"/>
<use x="260.851562" xlink:href="#j"/>
<use x="288.634766" xlink:href="#g"/>
<use x="352.013672" xlink:href="#f"/>
<use x="413.292969" xlink:href="#k"/>
</g>
</g>
<path d="m1485.1 968.41v35.285q0 2.4 2.4 2.4h7.7425q2.4 0 2.4-2.4v-35.285q0-2.4-2.4-2.4h-7.7425q-2.4 0-2.4 2.4z" clip-path="url(#a)" fill="#fff" stroke="#fff"/>
<g clip-path="url(#a)">
<g transform="translate(1489.1 968.41) rotate(90) scale(.08 -.08)">
<use xlink:href="#l"/>
<use x="60.818359" xlink:href="#d"/>
<use x="122.341797" xlink:href="#h"/>
<use x="163.439453" xlink:href="#i"/>
<use x="260.851562" xlink:href="#j"/>
<use x="288.634766" xlink:href="#g"/>
<use x="352.013672" xlink:href="#f"/>
<use x="413.292969" xlink:href="#k"/>
</g>
</g>
<path d="m1530.1 968.41v35.285q0 2.4 2.4 2.4h7.7425q2.4 0 2.4-2.4v-35.285q0-2.4-2.4-2.4h-7.7425q-2.4 0-2.4 2.4z" clip-path="url(#a)" fill="#fff" stroke="#fff"/>
<g clip-path="url(#a)">
<g transform="translate(1534.1 968.41) rotate(90) scale(.08 -.08)">
<use xlink:href="#l"/>
<use x="60.818359" xlink:href="#d"/>
<use x="122.341797" xlink:href="#h"/>
<use x="163.439453" xlink:href="#i"/>
<use x="260.851562" xlink:href="#j"/>
<use x="288.634766" xlink:href="#g"/>
<use x="352.013672" xlink:href="#f"/>
<use x="413.292969" xlink:href="#k"/>
</g>
</g>
<path d="m1651 741.66 0.54321-4.7931q0.27026-2.3847-2.1145-2.655l-7.6933-0.87189q-2.3847-0.27026-2.655 2.1145l-0.5432 4.7931q-0.27027 2.3847 2.1145 2.655l7.6933 0.87189q2.3847 0.27026 2.655-2.1145z" clip-path="url(#a)" fill="#fff" stroke="#fff"/>
<g clip-path="url(#a)">
<g transform="translate(1647 741.2) rotate(-83.534) scale(.08 -.08)">
<use xlink:href="#v"/>
</g>
</g>
<path d="m1627.9 743.06 1.4902-5.977q0.58062-2.3287-1.7481-2.9093l-7.5125-1.8731q-2.3287-0.58062-2.9093 1.7481l-1.4902 5.977q-0.58062 2.3287 1.7481 2.9093l7.5125 1.8731q2.3287 0.58062 2.9093-1.7481z" clip-path="url(#a)" fill="#fff" stroke="#fff"/>
<g clip-path="url(#a)">
<g transform="translate(1623.9 742.08) rotate(-76) scale(.08 -.08)">
<use xlink:href="#z"/>
</g>
</g>
<path d="m1661.2 735.77 0.13268 5.8535q0.054385 2.3994 2.4538 2.345l7.7405-0.17545q2.3994-0.054385 2.345-2.4538l-0.13268-5.8535q-0.054385-2.3994-2.4538-2.345l-7.7405 0.17545q-2.3994 0.054385-2.345 2.4538z" clip-path="url(#a)" fill="#fff" stroke="#fff"/>
<g clip-path="url(#a)">
<g transform="translate(1665.3 735.68) rotate(88.702) scale(.08 -.08)">
<use xlink:href="#w"/>
</g>
</g>
<path d="m1713.1 657.39 3.4475 5.1049q1.3432 1.9889 3.3321 0.64576l6.4164-4.3331q1.9889-1.3432 0.64576-3.3321l-3.4475-5.1049q-1.3432-1.9889-3.3321-0.64576l-6.4164 4.3331q-1.9889 1.3432-0.64576 3.3321z" clip-path="url(#a)" fill="#fff" stroke="#fff"/>
<g clip-path="url(#a)">
<g transform="translate(1716.5 655.12) rotate(55.968) scale(.08 -.08)">
<use xlink:href="#z"/>
</g>
</g>
<path d="m1620 968.41v35.285q0 2.4 2.4 2.4h7.7425q2.4 0 2.4-2.4v-35.285q0-2.4-2.4-2.4h-7.7425q-2.4 0-2.4 2.4z" clip-path="url(#a)" fill="#fff" stroke="#fff"/>
<g clip-path="url(#a)">
<g transform="translate(1624.1 968.41) rotate(90) scale(.08 -.08)">
<use xlink:href="#l"/>
<use x="60.818359" xlink:href="#d"/>
<use x="122.341797" xlink:href="#h"/>
<use x="163.439453" xlink:href="#i"/>
<use x="260.851562" xlink:href="#j"/>
<use x="288.634766" xlink:href="#g"/>
<use x="352.013672" xlink:href="#f"/>
<use x="413.292969" xlink:href="#k"/>
</g>
</g>
<path d="m1575 968.41v35.285q0 2.4 2.4 2.4h7.7425q2.4 0 2.4-2.4v-35.285q0-2.4-2.4-2.4h-7.7425q-2.4 0-2.4 2.4z" clip-path="url(#a)" fill="#fff" stroke="#fff"/>
<g clip-path="url(#a)">
<g transform="translate(1579.1 968.41) rotate(90) scale(.08 -.08)">
<use xlink:href="#l"/>
<use x="60.818359" xlink:href="#d"/>
<use x="122.341797" xlink:href="#h"/>
<use x="163.439453" xlink:href="#i"/>
<use x="260.851562" xlink:href="#j"/>
<use x="288.634766" xlink:href="#g"/>
<use x="352.013672" xlink:href="#f"/>
<use x="413.292969" xlink:href="#k"/>
</g>
</g>
<path d="m1665 968.41v35.285q0 2.4 2.4 2.4h7.7425q2.4 0 2.4-2.4v-35.285q0-2.4-2.4-2.4h-7.7425q-2.4 0-2.4 2.4z" clip-path="url(#a)" fill="#fff" stroke="#fff"/>
<g clip-path="url(#a)">
<g transform="translate(1669.1 968.41) rotate(90) scale(.08 -.08)">
<use xlink:href="#l"/>
<use x="60.818359" xlink:href="#d"/>
<use x="122.341797" xlink:href="#h"/>
<use x="163.439453" xlink:href="#i"/>
<use x="260.851562" xlink:href="#j"/>
<use x="288.634766" xlink:href="#g"/>
<use x="352.013672" xlink:href="#f"/>
<use x="413.292969" xlink:href="#k"/>
</g>
</g>
<path d="m1704 828.07 3.6898-4.0415q1.6182-1.7724-0.15428-3.3906l-5.718-5.2203q-1.7724-1.6182-3.3906 0.15428l-3.6898 4.0415q-1.6182 1.7724 0.15428 3.3906l5.718 5.2203q1.7724 1.6182 3.3906-0.15428z" clip-path="url(#a)" fill="#fff" stroke="#fff"/>
<g clip-path="url(#a)">
<g transform="translate(1701 825.33) rotate(-47.605) scale(.08 -.08)">
<use xlink:href="#q"/>
</g>
</g>
<path d="m1829.7 823.57 2.8451 3.8954q1.4155 1.9381 3.3536 0.52258l6.2524-4.5666q1.9381-1.4155 0.52258-3.3536l-2.8451-3.8954q-1.4155-1.9381-3.3536-0.52258l-6.2524 4.5666q-1.9381 1.4155-0.52258 3.3536z" clip-path="url(#a)" fill="#fff" stroke="#fff"/>
<g clip-path="url(#a)">
<g transform="translate(1833 821.17) rotate(53.857) scale(.08 -.08)">
<use xlink:href="#v"/>
</g>
</g>
<path d="m1751.2 826.58 1.9068-5.2215q0.82326-2.2544-1.4311-3.0776l-7.2727-2.6559q-2.2544-0.82326-3.0776 1.4311l-1.9068 5.2215q-0.82326 2.2544 1.4311 3.0776l7.2727 2.6559q2.2544 0.82326 3.0776-1.4311z" clip-path="url(#a)" fill="#fff" stroke="#fff"/>
<g clip-path="url(#a)">
<g transform="translate(1747.4 825.18) rotate(-69.939) scale(.08 -.08)">
<use xlink:href="#an"/>
</g>
</g>
<path d="m1774.7 825.45 0.56005-6.1345q0.2182-2.3901-2.1719-2.6083l-7.7104-0.70393q-2.3901-0.2182-2.6083 2.1719l-0.56005 6.1345q-0.2182 2.3901 2.1719 2.6083l7.7104 0.70393q2.3901 0.2182 2.6083-2.1719z" clip-path="url(#a)" fill="#fff" stroke="#fff"/>
<g clip-path="url(#a)">
<g transform="translate(1770.7 825.08) rotate(-84.784) scale(.08 -.08)">
<use xlink:href="#z"/>
</g>
</g>
<path d="m1784.6 820.68 0.82648 4.5264q0.43109 2.361 2.7921 1.9299l7.6166-1.3907q2.361-0.43109 1.9299-2.7921l-0.82649-4.5264q-0.43109-2.361-2.7921-1.9299l-7.6166 1.3907q-2.361 0.43109-1.9299 2.7921z" clip-path="url(#a)" fill="#fff" stroke="#fff"/>
<g clip-path="url(#a)">
<g transform="translate(1788.6 819.95) rotate(79.652) scale(.08 -.08)">
<use xlink:href="#x"/>
</g>
</g>
<path d="m1806.7 821.62 2.558 5.6038q0.99662 2.1833 3.1799 1.1867l7.0434-3.2152q2.1833-0.99662 1.1867-3.1799l-2.558-5.6038q-0.99662-2.1833-3.1799-1.1867l-7.0434 3.2152q-2.1833 0.99662-1.1867 3.1799z" clip-path="url(#a)" fill="#fff" stroke="#fff"/>
<g clip-path="url(#a)">
<g transform="translate(1810.4 819.93) rotate(65.464) scale(.08 -.08)">
<use xlink:href="#z"/>
</g>
</g>
<path d="m1889.9 968.41v35.285q0 2.4 2.4 2.4h7.7425q2.4 0 2.4-2.4v-35.285q0-2.4-2.4-2.4h-7.7425q-2.4 0-2.4 2.4z" clip-path="url(#a)" fill="#fff" stroke="#fff"/>
<g clip-path="url(#a)">
<g transform="translate(1894 968.41) rotate(90) scale(.08 -.08)">
<use xlink:href="#l"/>
<use x="60.818359" xlink:href="#d"/>
<use x="122.341797" xlink:href="#h"/>
<use x="163.439453" xlink:href="#i"/>
<use x="260.851562" xlink:href="#j"/>
<use x="288.634766" xlink:href="#g"/>
<use x="352.013672" xlink:href="#f"/>
<use x="413.292969" xlink:href="#k"/>
</g>
</g>
<path d="m1710 968.41v35.285q0 2.4 2.4 2.4h7.7425q2.4 0 2.4-2.4v-35.285q0-2.4-2.4-2.4h-7.7425q-2.4 0-2.4 2.4z" clip-path="url(#a)" fill="#fff" stroke="#fff"/>
<g clip-path="url(#a)">
<g transform="translate(1714.1 968.41) rotate(90) scale(.08 -.08)">
<use xlink:href="#l"/>
<use x="60.818359" xlink:href="#d"/>
<use x="122.341797" xlink:href="#h"/>
<use x="163.439453" xlink:href="#i"/>
<use x="260.851562" xlink:href="#j"/>
<use x="288.634766" xlink:href="#g"/>
<use x="352.013672" xlink:href="#f"/>
<use x="413.292969" xlink:href="#k"/>
</g>
</g>
<path d="m1755 968.41v35.285q0 2.4 2.4 2.4h7.7425q2.4 0 2.4-2.4v-35.285q0-2.4-2.4-2.4h-7.7425q-2.4 0-2.4 2.4z" clip-path="url(#a)" fill="#fff" stroke="#fff"/>
<g clip-path="url(#a)">
<g transform="translate(1759 968.41) rotate(90) scale(.08 -.08)">
<use xlink:href="#l"/>
<use x="60.818359" xlink:href="#d"/>
<use x="122.341797" xlink:href="#h"/>
<use x="163.439453" xlink:href="#i"/>
<use x="260.851562" xlink:href="#j"/>
<use x="288.634766" xlink:href="#g"/>
<use x="352.013672" xlink:href="#f"/>
<use x="413.292969" xlink:href="#k"/>
</g>
</g>
<path d="m1800 968.41v35.285q0 2.4 2.4 2.4h7.7425q2.4 0 2.4-2.4v-35.285q0-2.4-2.4-2.4h-7.7425q-2.4 0-2.4 2.4z" clip-path="url(#a)" fill="#fff" stroke="#fff"/>
<g clip-path="url(#a)">
<g transform="translate(1804 968.41) rotate(90) scale(.08 -.08)">
<use xlink:href="#l"/>
<use x="60.818359" xlink:href="#d"/>
<use x="122.341797" xlink:href="#h"/>
<use x="163.439453" xlink:href="#i"/>
<use x="260.851562" xlink:href="#j"/>
<use x="288.634766" xlink:href="#g"/>
<use x="352.013672" xlink:href="#f"/>
<use x="413.292969" xlink:href="#k"/>
</g>
</g>
<path d="m1844.9 968.41v35.285q0 2.4 2.4 2.4h7.7425q2.4 0 2.4-2.4v-35.285q0-2.4-2.4-2.4h-7.7425q-2.4 0-2.4 2.4z" clip-path="url(#a)" fill="#fff" stroke="#fff"/>
<g clip-path="url(#a)">
<g transform="translate(1849 968.41) rotate(90) scale(.08 -.08)">
<use xlink:href="#l"/>
<use x="60.818359" xlink:href="#d"/>
<use x="122.341797" xlink:href="#h"/>
<use x="163.439453" xlink:href="#i"/>
<use x="260.851562" xlink:href="#j"/>
<use x="288.634766" xlink:href="#g"/>
<use x="352.013672" xlink:href="#f"/>
<use x="413.292969" xlink:href="#k"/>
</g>
</g>
<defs>
<path id="b" d="m0 8.6603c2.2967 0 4.4997-0.9125 6.1237-2.5365 1.624-1.624 2.5365-3.827 2.5365-6.1237s-0.9125-4.4997-2.5365-6.1237c-1.624-1.624-3.827-2.5365-6.1237-2.5365s-4.4997 0.9125-6.1237 2.5365c-1.624 1.624-2.5365 3.827-2.5365 6.1237s0.9125 4.4997 2.5365 6.1237c1.624 1.624 3.827 2.5365 6.1237 2.5365z"/>
</defs>
<g clip-path="url(#a)">
<use x="96.859081" y="1068.176534" fill="#ffffff" stroke="#ffffff" xlink:href="#b"/>
</g>
<g clip-path="url(#a)">
<use x="141.84238" y="1068.176534" fill="#ffffff" stroke="#ffffff" xlink:href="#b"/>
</g>
<g clip-path="url(#a)">
<use x="186.825678" y="1068.176534" fill="#ffffff" stroke="#ffffff" xlink:href="#b"/>
</g>
<g clip-path="url(#a)">
<use x="231.808977" y="1068.176534" fill="#ffffff" stroke="#ffffff" xlink:href="#b"/>
</g>
<g clip-path="url(#a)">
<use x="276.792275" y="1068.176534" fill="#ffffff" stroke="#ffffff" xlink:href="#b"/>
</g>
<g clip-path="url(#a)">
<use x="321.775574" y="1068.176534" fill="#ffffff" stroke="#ffffff" xlink:href="#b"/>
</g>
<g clip-path="url(#a)">
<use x="366.758872" y="1068.176534" fill="#ffffff" stroke="#ffffff" xlink:href="#b"/>
</g>
<g clip-path="url(#a)">
<use x="411.742171" y="1068.176534" fill="#ffffff" stroke="#ffffff" xlink:href="#b"/>
</g>
<g clip-path="url(#a)">
<use x="456.725469" y="1068.176534" fill="#ffffff" stroke="#ffffff" xlink:href="#b"/>
</g>
<g clip-path="url(#a)">
<use x="501.708768" y="1068.176534" fill="#ffffff" stroke="#ffffff" xlink:href="#b"/>
</g>
<g clip-path="url(#a)">
<use x="546.692067" y="1068.176534" fill="#ffffff" stroke="#ffffff" xlink:href="#b"/>
</g>
<g clip-path="url(#a)">
<use x="591.675365" y="1068.176534" fill="#ffffff" stroke="#ffffff" xlink:href="#b"/>
</g>
<g clip-path="url(#a)">
<use x="636.658664" y="1068.176534" fill="#ffffff" stroke="#ffffff" xlink:href="#b"/>
</g>
<g clip-path="url(#a)">
<use x="681.641962" y="1068.176534" fill="#ffffff" stroke="#ffffff" xlink:href="#b"/>
</g>
<g clip-path="url(#a)">
<use x="726.625261" y="1068.176534" fill="#ffffff" stroke="#ffffff" xlink:href="#b"/>
</g>
<g clip-path="url(#a)">
<use x="771.608559" y="1068.176534" fill="#ffffff" stroke="#ffffff" xlink:href="#b"/>
</g>
<g clip-path="url(#a)">
<use x="816.591858" y="1068.176534" fill="#ffffff" stroke="#ffffff" xlink:href="#b"/>
</g>
<g clip-path="url(#a)">
<use x="861.575156" y="1068.176534" fill="#ffffff" stroke="#ffffff" xlink:href="#b"/>
</g>
<g clip-path="url(#a)">
<use x="906.558455" y="1068.176534" fill="#ffffff" stroke="#ffffff" xlink:href="#b"/>
</g>
<g clip-path="url(#a)">
<use x="951.541754" y="1068.176534" fill="#ffffff" stroke="#ffffff" xlink:href="#b"/>
</g>
<g clip-path="url(#a)">
<use x="996.525052" y="1068.176534" fill="#ffffff" stroke="#ffffff" xlink:href="#b"/>
</g>
<g clip-path="url(#a)">
<use x="1041.508351" y="1068.176534" fill="#ffffff" stroke="#ffffff" xlink:href="#b"/>
</g>
<g clip-path="url(#a)">
<use x="1086.491649" y="1068.176534" fill="#ffffff" stroke="#ffffff" xlink:href="#b"/>
</g>
<g clip-path="url(#a)">
<use x="1131.474948" y="1068.176534" fill="#ffffff" stroke="#ffffff" xlink:href="#b"/>
</g>
<g clip-path="url(#a)">
<use x="1176.458246" y="1068.176534" fill="#ffffff" stroke="#ffffff" xlink:href="#b"/>
</g>
<g clip-path="url(#a)">
<use x="1221.441545" y="1068.176534" fill="#ffffff" stroke="#ffffff" xlink:href="#b"/>
</g>
<g clip-path="url(#a)">
<use x="1266.424844" y="1068.176534" fill="#ffffff" stroke="#ffffff" xlink:href="#b"/>
</g>
<g clip-path="url(#a)">
<use x="1311.408142" y="1068.176534" fill="#ffffff" stroke="#ffffff" xlink:href="#b"/>
</g>
<g clip-path="url(#a)">
<use x="1356.391441" y="1068.176534" fill="#ffffff" stroke="#ffffff" xlink:href="#b"/>
</g>
<g clip-path="url(#a)">
<use x="1401.374739" y="1068.176534" fill="#ffffff" stroke="#ffffff" xlink:href="#b"/>
</g>
<g clip-path="url(#a)">
<use x="1446.358038" y="1068.176534" fill="#ffffff" stroke="#ffffff" xlink:href="#b"/>
</g>
<g clip-path="url(#a)">
<use x="1491.341336" y="1068.176534" fill="#ffffff" stroke="#ffffff" xlink:href="#b"/>
</g>
<g clip-path="url(#a)">
<use x="1536.324635" y="1068.176534" fill="#ffffff" stroke="#ffffff" xlink:href="#b"/>
</g>
<g clip-path="url(#a)">
<use x="1581.307933" y="1068.176534" fill="#ffffff" stroke="#ffffff" xlink:href="#b"/>
</g>
<g clip-path="url(#a)">
<use x="1626.291232" y="1068.176534" fill="#ffffff" stroke="#ffffff" xlink:href="#b"/>
</g>
<g clip-path="url(#a)">
<use x="1671.274531" y="1068.176534" fill="#ffffff" stroke="#ffffff" xlink:href="#b"/>
</g>
<g clip-path="url(#a)">
<use x="1716.257829" y="1068.176534" fill="#ffffff" stroke="#ffffff" xlink:href="#b"/>
</g>
<g clip-path="url(#a)">
<use x="1761.241128" y="1068.176534" fill="#ffffff" stroke="#ffffff" xlink:href="#b"/>
</g>
<g clip-path="url(#a)">
<use x="1806.224426" y="1068.176534" fill="#ffffff" stroke="#ffffff" xlink:href="#b"/>
</g>
<g clip-path="url(#a)">
<use x="1851.207725" y="1068.176534" fill="#ffffff" stroke="#ffffff" xlink:href="#b"/>
</g>
<g clip-path="url(#a)">
<use x="1896.191023" y="1068.176534" fill="#ffffff" stroke="#ffffff" xlink:href="#b"/>
</g>
<g clip-path="url(#a)">
<use x="1941.174322" y="1068.176534" fill="#ffffff" stroke="#ffffff" xlink:href="#b"/>
</g>
<g clip-path="url(#a)">
<use x="893.30891" y="51.823466" fill="#ffffff" stroke="#ffffff" xlink:href="#b"/>
</g>
<g clip-path="url(#a)">
<use x="656.338857" y="403.439988" fill="#ffffff" stroke="#ffffff" xlink:href="#b"/>
</g>
<g clip-path="url(#a)">
<use x="141.84238" y="903.936418" fill="#ffffff" stroke="#ffffff" xlink:href="#b"/>
</g>
<g clip-path="url(#a)">
<use x="96.859081" y="903.936418" fill="#ffffff" stroke="#ffffff" xlink:href="#b"/>
</g>
<g clip-path="url(#a)">
<use x="445.479645" y="573.171426" fill="#ffffff" stroke="#ffffff" xlink:href="#b"/>
</g>
<g clip-path="url(#a)">
<use x="231.808977" y="903.936418" fill="#ffffff" stroke="#ffffff" xlink:href="#b"/>
</g>
<g clip-path="url(#a)">
<use x="591.675365" y="903.936418" fill="#ffffff" stroke="#ffffff" xlink:href="#b"/>
</g>
<g clip-path="url(#a)">
<use x="677.143632" y="573.171426" fill="#ffffff" stroke="#ffffff" xlink:href="#b"/>
</g>
<g clip-path="url(#a)">
<use x="681.641962" y="903.936418" fill="#ffffff" stroke="#ffffff" xlink:href="#b"/>
</g>
<g clip-path="url(#a)">
<use x="983.030063" y="573.171426" fill="#ffffff" stroke="#ffffff" xlink:href="#b"/>
</g>
<g clip-path="url(#a)">
<use x="1086.491649" y="903.936418" fill="#ffffff" stroke="#ffffff" xlink:href="#b"/>
</g>
<g clip-path="url(#a)">
<use x="1176.458246" y="903.936418" fill="#ffffff" stroke="#ffffff" xlink:href="#b"/>
</g>
<g clip-path="url(#a)">
<use x="1275.207297" y="229.84118" fill="#ffffff" stroke="#ffffff" xlink:href="#b"/>
</g>
<g clip-path="url(#a)">
<use x="1311.408142" y="903.936418" fill="#ffffff" stroke="#ffffff" xlink:href="#b"/>
</g>
<g clip-path="url(#a)">
<use x="1941.174322" y="903.936418" fill="#ffffff" stroke="#ffffff" xlink:href="#b"/>
</g>
<g clip-path="url(#a)">
<use x="186.825678" y="903.936418" fill="#ffffff" stroke="#ffffff" xlink:href="#b"/>
</g>
<g clip-path="url(#a)">
<use x="299.283925" y="739.696303" fill="#ffffff" stroke="#ffffff" xlink:href="#b"/>
</g>
<g clip-path="url(#a)">
<use x="321.775574" y="903.936418" fill="#ffffff" stroke="#ffffff" xlink:href="#b"/>
</g>
<g clip-path="url(#a)">
<use x="366.758872" y="903.936418" fill="#ffffff" stroke="#ffffff" xlink:href="#b"/>
</g>
<g clip-path="url(#a)">
<use x="1491.341336" y="739.696303" fill="#ffffff" stroke="#ffffff" xlink:href="#b"/>
</g>
<g clip-path="url(#a)">
<use x="456.725469" y="903.936418" fill="#ffffff" stroke="#ffffff" xlink:href="#b"/>
</g>
<g clip-path="url(#a)">
<use x="546.692067" y="903.936418" fill="#ffffff" stroke="#ffffff" xlink:href="#b"/>
</g>
<g clip-path="url(#a)">
<use x="636.658664" y="903.936418" fill="#ffffff" stroke="#ffffff" xlink:href="#b"/>
</g>
<g clip-path="url(#a)">
<use x="726.625261" y="903.936418" fill="#ffffff" stroke="#ffffff" xlink:href="#b"/>
</g>
<g clip-path="url(#a)">
<use x="794.100209" y="739.696303" fill="#ffffff" stroke="#ffffff" xlink:href="#b"/>
</g>
<g clip-path="url(#a)">
<use x="816.591858" y="903.936418" fill="#ffffff" stroke="#ffffff" xlink:href="#b"/>
</g>
<g clip-path="url(#a)">
<use x="861.575156" y="903.936418" fill="#ffffff" stroke="#ffffff" xlink:href="#b"/>
</g>
<g clip-path="url(#a)">
<use x="929.050104" y="739.696303" fill="#ffffff" stroke="#ffffff" xlink:href="#b"/>
</g>
<g clip-path="url(#a)">
<use x="951.541754" y="903.936418" fill="#ffffff" stroke="#ffffff" xlink:href="#b"/>
</g>
<g clip-path="url(#a)">
<use x="996.525052" y="903.936418" fill="#ffffff" stroke="#ffffff" xlink:href="#b"/>
</g>
<g clip-path="url(#a)">
<use x="1041.508351" y="903.936418" fill="#ffffff" stroke="#ffffff" xlink:href="#b"/>
</g>
<g clip-path="url(#a)">
<use x="1131.474948" y="903.936418" fill="#ffffff" stroke="#ffffff" xlink:href="#b"/>
</g>
<g clip-path="url(#a)">
<use x="1221.441545" y="903.936418" fill="#ffffff" stroke="#ffffff" xlink:href="#b"/>
</g>
<g clip-path="url(#a)">
<use x="1266.424844" y="903.936418" fill="#ffffff" stroke="#ffffff" xlink:href="#b"/>
</g>
<g clip-path="url(#a)">
<use x="1445.287007" y="403.439988" fill="#ffffff" stroke="#ffffff" xlink:href="#b"/>
</g>
<g clip-path="url(#a)">
<use x="1446.358038" y="903.936418" fill="#ffffff" stroke="#ffffff" xlink:href="#b"/>
</g>
<g clip-path="url(#a)">
<use x="276.792275" y="903.936418" fill="#ffffff" stroke="#ffffff" xlink:href="#b"/>
</g>
<g clip-path="url(#a)">
<use x="2031.140919" y="1068.176534" fill="#ffffff" stroke="#ffffff" xlink:href="#b"/>
</g>
<g clip-path="url(#a)">
<use x="1986.15762" y="1068.176534" fill="#ffffff" stroke="#ffffff" xlink:href="#b"/>
</g>
<g clip-path="url(#a)">
<use x="771.608559" y="903.936418" fill="#ffffff" stroke="#ffffff" xlink:href="#b"/>
</g>
<g clip-path="url(#a)">
<use x="906.558455" y="903.936418" fill="#ffffff" stroke="#ffffff" xlink:href="#b"/>
</g>
<g clip-path="url(#a)">
<use x="1356.391441" y="903.936418" fill="#ffffff" stroke="#ffffff" xlink:href="#b"/>
</g>
<g clip-path="url(#a)">
<use x="1401.374739" y="903.936418" fill="#ffffff" stroke="#ffffff" xlink:href="#b"/>
</g>
<g clip-path="url(#a)">
<use x="1491.341336" y="903.936418" fill="#ffffff" stroke="#ffffff" xlink:href="#b"/>
</g>
<g clip-path="url(#a)">
<use x="1536.324635" y="903.936418" fill="#ffffff" stroke="#ffffff" xlink:href="#b"/>
</g>
<g clip-path="url(#a)">
<use x="1663.777314" y="573.171426" fill="#ffffff" stroke="#ffffff" xlink:href="#b"/>
</g>
<g clip-path="url(#a)">
<use x="1626.291232" y="903.936418" fill="#ffffff" stroke="#ffffff" xlink:href="#b"/>
</g>
<g clip-path="url(#a)">
<use x="1581.307933" y="903.936418" fill="#ffffff" stroke="#ffffff" xlink:href="#b"/>
</g>
<g clip-path="url(#a)">
<use x="1671.274531" y="903.936418" fill="#ffffff" stroke="#ffffff" xlink:href="#b"/>
</g>
<g clip-path="url(#a)">
<use x="1776.23556" y="739.696303" fill="#ffffff" stroke="#ffffff" xlink:href="#b"/>
</g>
<g clip-path="url(#a)">
<use x="1896.191023" y="903.936418" fill="#ffffff" stroke="#ffffff" xlink:href="#b"/>
</g>
<g clip-path="url(#a)">
<use x="1716.257829" y="903.936418" fill="#ffffff" stroke="#ffffff" xlink:href="#b"/>
</g>
<g clip-path="url(#a)">
<use x="1761.241128" y="903.936418" fill="#ffffff" stroke="#ffffff" xlink:href="#b"/>
</g>
<g clip-path="url(#a)">
<use x="1806.224426" y="903.936418" fill="#ffffff" stroke="#ffffff" xlink:href="#b"/>
</g>
<g clip-path="url(#a)">
<use x="1851.207725" y="903.936418" fill="#ffffff" stroke="#ffffff" xlink:href="#b"/>
</g>
<g clip-path="url(#a)">
<defs>
<path id="av" d="m9.8125 72.906h9.8594v-72.906h-9.8594z"/>
</defs>
<g transform="translate(95.384 1070.9) scale(.1 -.1)">
<use xlink:href="#av"/>
</g>
</g>
<g clip-path="url(#a)">
<defs>
<path id="al" d="m8.5 21.578v33.109h8.9844v-32.766q0-7.7656 3.0156-11.656 3.0312-3.875 9.0938-3.875 7.2656 0 11.484 4.6406 4.2344 4.6406 4.2344 12.656v31h8.9844v-54.688h-8.9844v8.4062q-3.2656-4.9844-7.5938-7.4062-4.3125-2.4219-10.031-2.4219-9.4219 0-14.312 5.8594-4.875 5.8594-4.875 17.141z"/>
<path id="s" d="m44.281 53.078v-8.5q-3.7969 1.9531-7.9062 2.9219-4.0938 0.98438-8.5 0.98438-6.6875 0-10.031-2.0469t-3.3438-6.1562q0-3.125 2.3906-4.9062t9.625-3.3906l3.0781-0.6875q9.5625-2.0469 13.594-5.7812t4.0312-10.422q0-7.625-6.0312-12.078-6.0312-4.4375-16.578-4.4375-4.3906 0-9.1562 0.85938t-10.031 2.5625v9.2812q4.9844-2.5938 9.8125-3.8906 4.8281-1.2812 9.5781-1.2812 6.3438 0 9.75 2.1719 3.4219 2.1719 3.4219 6.125 0 3.6562-2.4688 5.6094-2.4531 1.9531-10.812 3.7656l-3.125 0.73438q-8.3438 1.75-12.062 5.3906-3.7031 3.6406-3.7031 9.9844 0 7.7188 5.4688 11.906 5.4688 4.2031 15.531 4.2031 4.9688 0 9.3594-0.73438 4.4062-0.71875 8.1094-2.1875z"/>
<path id="y" d="m45.406 46.391v29.594h8.9844v-75.984h-8.9844v8.2031q-2.8281-4.875-7.1562-7.25-4.3125-2.375-10.375-2.375-9.9062 0-16.141 7.9062-6.2188 7.9219-6.2188 20.812t6.2188 20.797q6.2344 7.9062 16.141 7.9062 6.0625 0 10.375-2.375 4.3281-2.3594 7.1562-7.2344zm-30.609-19.094q0-9.9062 4.0781-15.547t11.203-5.6406 11.219 5.6406q4.1094 5.6406 4.1094 15.547t-4.1094 15.547q-4.0938 5.6406-11.219 5.6406t-11.203-5.6406-4.0781-15.547z"/>
</defs>
<g transform="translate(129.82 1070.9) scale(.1 -.1)">
<use xlink:href="#al"/>
<use x="63.378906" xlink:href="#s"/>
<use x="115.478516" xlink:href="#d"/>
<use x="177.001953" xlink:href="#y"/>
</g>
</g>
<g clip-path="url(#a)">
<defs>
<path id="m" d="m18.312 70.219v-15.531h18.5v-6.9844h-18.5v-29.688q0-6.6875 1.8281-8.5938t7.4531-1.9062h9.2188v-7.5156h-9.2188q-10.406 0-14.359 3.875-3.9531 3.8906-3.9531 14.141v29.688h-6.5938v6.9844h6.5938v15.531z"/>
<path id="t" d="m30.609 48.391q-7.2188 0-11.422-5.6406t-4.2031-15.453 4.1719-15.453q4.1875-5.6406 11.453-5.6406 7.1875 0 11.375 5.6562 4.2031 5.6719 4.2031 15.438 0 9.7188-4.2031 15.406-4.1875 5.6875-11.375 5.6875zm0 7.6094q11.719 0 18.406-7.625 6.7031-7.6094 6.7031-21.078 0-13.422-6.7031-21.078-6.6875-7.6406-18.406-7.6406-11.766 0-18.438 7.6406-6.6562 7.6562-6.6562 21.078 0 13.469 6.6562 21.078 6.6719 7.625 18.438 7.625z"/>
</defs>
<g transform="translate(181.81 1070.9) scale(.1 -.1)">
<use xlink:href="#m"/>
<use x="39.208984" xlink:href="#t"/>
</g>
</g>
<g clip-path="url(#a)">
<defs>
<path id="ay" d="m9.0781 75.984h9.0312v-44.875l26.812 23.578h11.469l-29-25.578 30.234-29.109h-11.719l-27.797 26.703v-26.703h-9.0312z"/>
</defs>
<g transform="translate(220.82 1070.9) scale(.1 -.1)">
<use xlink:href="#m"/>
<use x="39.208984" xlink:href="#f"/>
<use x="100.488281" xlink:href="#ay"/>
<use x="158.351562" xlink:href="#d"/>
</g>
</g>
<g clip-path="url(#a)">
<defs>
<path id="ai" d="m32.172-5.0781q-3.7969-9.7656-7.4219-12.734-3.6094-2.9844-9.6562-2.9844h-7.1875v7.5156h5.2812q3.7031 0 5.75 1.7656 2.0625 1.75 4.5469 8.2969l1.6094 4.0938-22.109 53.812h9.5156l17.094-42.766 17.094 42.766h9.5156z"/>
</defs>
<g transform="translate(268.96 1070.9) scale(.1 -.1)">
<use xlink:href="#i"/>
<use x="97.412109" xlink:href="#ai"/>
</g>
</g>
<g clip-path="url(#a)">
<defs>
<path id="aa" d="m48.781 52.594v-8.4062q-3.8125 2.1094-7.6406 3.1562t-7.7344 1.0469q-8.75 0-13.594-5.5469-4.8281-5.5312-4.8281-15.547t4.8281-15.562q4.8438-5.5312 13.594-5.5312 3.9062 0 7.7344 1.0469t7.6406 3.1562v-8.3125q-3.7656-1.75-7.7969-2.625-4.0156-0.89062-8.5625-0.89062-12.359 0-19.641 7.7656-7.2656 7.7656-7.2656 20.953 0 13.375 7.3438 21.031 7.3594 7.6719 20.156 7.6719 4.1406 0 8.0938-0.85938 3.9531-0.84375 7.6719-2.5469z"/>
</defs>
<g transform="translate(311.3 1070.9) scale(.1 -.1)">
<use xlink:href="#aa"/>
<use x="54.980469" xlink:href="#f"/>
<use x="116.259766" xlink:href="#h"/>
<use x="157.373047" xlink:href="#s"/>
</g>
</g>
<g clip-path="url(#a)">
<defs>
<path id="u" d="m54.891 33.016v-33.016h-8.9844v32.719q0 7.7656-3.0312 11.609-3.0312 3.8594-9.0781 3.8594-7.2812 0-11.484-4.6406-4.2031-4.625-4.2031-12.641v-30.906h-9.0312v75.984h9.0312v-29.797q3.2344 4.9375 7.5938 7.375 4.375 2.4375 10.094 2.4375 9.4219 0 14.25-5.8281 4.8438-5.8281 4.8438-17.156z"/>
</defs>
<g transform="translate(353.42 1070.9) scale(.1 -.1)">
<use xlink:href="#m"/>
<use x="39.208984" xlink:href="#u"/>
<use x="102.587891" xlink:href="#d"/>
<use x="164.111328" xlink:href="#h"/>
<use x="205.193359" xlink:href="#d"/>
</g>
</g>
<g clip-path="url(#a)">
<g transform="translate(405.9 1070.9) scale(.1 -.1)">
<use xlink:href="#f"/>
<use x="61.279297" xlink:href="#k"/>
<use x="89.0625" xlink:href="#k"/>
</g>
</g>
<g clip-path="url(#a)">
<g transform="translate(448.52 1070.9) scale(.1 -.1)">
<use xlink:href="#m"/>
<use x="39.208984" xlink:href="#u"/>
<use x="102.587891" xlink:href="#d"/>
</g>
</g>
<g clip-path="url(#a)">
<g transform="translate(490.41 1070.9) scale(.1 -.1)">
<use xlink:href="#m"/>
<use x="39.208984" xlink:href="#j"/>
<use x="66.992188" xlink:href="#i"/>
<use x="164.404297" xlink:href="#d"/>
</g>
</g>
<g clip-path="url(#a)">
<defs>
<path id="ah" d="m11.719 12.406h10.297v-8.4062l-8-15.625h-6.2969l4 15.625z"/>
</defs>
<g transform="translate(545.1 1070.9) scale(.1 -.1)">
<use xlink:href="#ah"/>
</g>
</g>
<g clip-path="url(#a)">
<defs>
<path id="am" d="m48.688 27.297q0 9.9062-4.0781 15.547t-11.203 5.6406q-7.1406 0-11.219-5.6406t-4.0781-15.547 4.0781-15.547 11.219-5.6406q7.125 0 11.203 5.6406t4.0781 15.547zm-30.578 19.094q2.8438 4.875 7.1562 7.2344 4.3281 2.375 10.328 2.375 9.9688 0 16.188-7.9062 6.2344-7.9062 6.2344-20.797t-6.2344-20.812q-6.2188-7.9062-16.188-7.9062-6 0-10.328 2.375-4.3125 2.375-7.1562 7.25v-8.2031h-9.0312v75.984h9.0312z"/>
</defs>
<g transform="translate(583.37 1070.9) scale(.1 -.1)">
<use xlink:href="#am"/>
<use x="63.476562" xlink:href="#al"/>
<use x="126.855469" xlink:href="#m"/>
</g>
</g>
<g clip-path="url(#a)">
<defs>
<path id="as" d="m45.406 27.984q0 9.7656-4.0312 15.125-4.0156 5.375-11.297 5.375-7.2188 0-11.25-5.375-4.0312-5.3594-4.0312-15.125 0-9.7188 4.0312-15.094t11.25-5.375q7.2812 0 11.297 5.375 4.0312 5.375 4.0312 15.094zm8.9844-21.203q0-13.953-6.2031-20.766-6.1875-6.8125-18.984-6.8125-4.7344 0-8.9375 0.70312t-8.1562 2.1719v8.7344q3.9531-2.1406 7.8125-3.1562 3.8594-1.0312 7.8594-1.0312 8.8438 0 13.234 4.6094t4.3906 13.938v4.4531q-2.7812-4.8438-7.125-7.2344t-10.406-2.3906q-10.047 0-16.203 7.6562-6.1562 7.6719-6.1562 20.328 0 12.688 6.1562 20.344 6.1562 7.6719 16.203 7.6719 6.0625 0 10.406-2.3906t7.125-7.2188v8.2969h8.9844z"/>
</defs>
<g transform="translate(603.16 1070.9) scale(.1 -.1)">
<use xlink:href="#i"/>
<use x="97.412109" xlink:href="#f"/>
<use x="158.691406" xlink:href="#g"/>
<use x="222.070312" xlink:href="#f"/>
<use x="283.349609" xlink:href="#as"/>
<use x="346.826172" xlink:href="#d"/>
<use x="408.349609" xlink:href="#i"/>
<use x="505.761719" xlink:href="#d"/>
<use x="567.285156" xlink:href="#g"/>
<use x="630.664062" xlink:href="#m"/>
</g>
</g>
<g clip-path="url(#a)">
<g transform="translate(660.64 1070.9) scale(.1 -.1)">
<use xlink:href="#aa"/>
<use x="54.980469" xlink:href="#u"/>
<use x="118.359375" xlink:href="#f"/>
<use x="179.638672" xlink:href="#g"/>
<use x="243.017578" xlink:href="#as"/>
<use x="306.494141" xlink:href="#d"/>
<use x="368.017578" xlink:href="#s"/>
</g>
</g>
<g clip-path="url(#a)">
<g transform="translate(711.44 1070.9) scale(.1 -.1)">
<use xlink:href="#u"/>
<use x="63.378906" xlink:href="#f"/>
<use x="124.658203" xlink:href="#g"/>
<use x="188.037109" xlink:href="#y"/>
<use x="251.513672" xlink:href="#s"/>
</g>
</g>
<g clip-path="url(#a)">
<g transform="translate(763.53 1070.9) scale(.1 -.1)">
<use xlink:href="#m"/>
<use x="39.208984" xlink:href="#t"/>
<use x="100.390625" xlink:href="#t"/>
</g>
</g>
<g clip-path="url(#a)">
<defs>
<path id="at" d="m37.109 75.984v-7.4844h-8.5938q-4.8281 0-6.7188-1.9531-1.875-1.9531-1.875-7.0312v-4.8281h14.797v-6.9844h-14.797v-47.703h-9.0312v47.703h-8.5938v6.9844h8.5938v3.8125q0 9.125 4.25 13.297 4.25 4.1875 13.469 4.1875z"/>
<path id="ax" d="m14.797 27.297q0-9.9062 4.0781-15.547t11.203-5.6406 11.219 5.6406q4.1094 5.6406 4.1094 15.547t-4.1094 15.547q-4.0938 5.6406-11.219 5.6406t-11.203-5.6406-4.0781-15.547zm30.609-19.094q-2.8281-4.875-7.1562-7.25-4.3125-2.375-10.375-2.375-9.9062 0-16.141 7.9062-6.2188 7.9219-6.2188 20.812t6.2188 20.797q6.2344 7.9062 16.141 7.9062 6.0625 0 10.375-2.375 4.3281-2.3594 7.1562-7.2344v8.2969h8.9844v-75.484h-8.9844z"/>
</defs>
<g transform="translate(790.8 1070.9) scale(.1 -.1)">
<use xlink:href="#at"/>
<use x="35.205078" xlink:href="#h"/>
<use x="76.287109" xlink:href="#d"/>
<use x="137.810547" xlink:href="#ax"/>
<use x="201.287109" xlink:href="#al"/>
<use x="264.666016" xlink:href="#d"/>
<use x="326.189453" xlink:href="#g"/>
<use x="389.568359" xlink:href="#m"/>
<use x="428.777344" xlink:href="#k"/>
<use x="456.560547" xlink:href="#ai"/>
</g>
</g>
<g clip-path="url(#a)">
<g transform="translate(859.99 1070.9) scale(.1 -.1)">
<use xlink:href="#ah"/>
</g>
</g>
<g clip-path="url(#a)">
<g transform="translate(898.35 1070.9) scale(.1 -.1)">
<use xlink:href="#m"/>
<use x="39.208984" xlink:href="#u"/>
<use x="102.587891" xlink:href="#d"/>
</g>
</g>
<g clip-path="url(#a)">
<defs>
<path id="ar" d="m2.9844 54.688h9.5156l17.094-45.891 17.094 45.891h9.5156l-20.516-54.688h-12.203z"/>
</defs>
<g transform="translate(933.63 1070.9) scale(.1 -.1)">
<use xlink:href="#s"/>
<use x="52.099609" xlink:href="#d"/>
<use x="113.623047" xlink:href="#h"/>
<use x="154.736328" xlink:href="#ar"/>
<use x="213.916016" xlink:href="#j"/>
<use x="241.699219" xlink:href="#aa"/>
<use x="296.679688" xlink:href="#d"/>
</g>
</g>
<g clip-path="url(#a)">
<g transform="translate(987.69 1070.9) scale(.1 -.1)">
<use xlink:href="#u"/>
<use x="63.378906" xlink:href="#f"/>
<use x="124.658203" xlink:href="#s"/>
</g>
</g>
<g clip-path="url(#a)">
<g transform="translate(1029 1070.9) scale(.1 -.1)">
<use xlink:href="#am"/>
<use x="63.476562" xlink:href="#d"/>
<use x="125" xlink:href="#d"/>
<use x="186.523438" xlink:href="#g"/>
</g>
</g>
<g clip-path="url(#a)">
<defs>
<path id="aq" d="m4.2031 54.688h8.9844l11.234-42.672 11.172 42.672h10.594l11.234-42.672 11.188 42.672h8.9844l-14.312-54.688h-10.594l-11.766 44.828-11.812-44.828h-10.609z"/>
</defs>
<g transform="translate(1075.3 1070.9) scale(.1 -.1)">
<use xlink:href="#s"/>
<use x="52.099609" xlink:href="#k"/>
<use x="79.882812" xlink:href="#t"/>
<use x="141.064453" xlink:href="#aq"/>
</g>
</g>
<g clip-path="url(#a)">
<g transform="translate(1129.9 1070.9) scale(.1 -.1)">
<use xlink:href="#ah"/>
</g>
</g>
<g clip-path="url(#a)">
<g transform="translate(1167.1 1070.9) scale(.1 -.1)">
<use xlink:href="#f"/>
<use x="61.279297" xlink:href="#g"/>
<use x="124.658203" xlink:href="#y"/>
</g>
</g>
<g clip-path="url(#a)">
<g transform="translate(1210.3 1070.9) scale(.1 -.1)">
<use xlink:href="#m"/>
<use x="39.208984" xlink:href="#u"/>
<use x="102.587891" xlink:href="#d"/>
<use x="164.111328" xlink:href="#ai"/>
</g>
</g>
<g clip-path="url(#a)">
<g transform="translate(1253.4 1070.9) scale(.1 -.1)">
<use xlink:href="#t"/>
<use x="61.181641" xlink:href="#at"/>
<use x="96.371094" xlink:href="#m"/>
<use x="135.580078" xlink:href="#d"/>
<use x="197.103516" xlink:href="#g"/>
</g>
</g>
<g clip-path="url(#a)">
<g transform="translate(1304.4 1070.9) scale(.1 -.1)">
<use xlink:href="#m"/>
<use x="39.208984" xlink:href="#h"/>
<use x="80.322266" xlink:href="#ai"/>
</g>
</g>
<g clip-path="url(#a)">
<g transform="translate(1351.4 1070.9) scale(.1 -.1)">
<use xlink:href="#m"/>
<use x="39.208984" xlink:href="#t"/>
</g>
</g>
<g clip-path="url(#a)">
<defs>
<path id="ap" d="m17.922 72.906v-27.109h-8.2969v27.109zm18.453 0v-27.109h-8.2969v27.109z"/>
</defs>
<g transform="translate(1399.1 1070.9) scale(.1 -.1)">
<use xlink:href="#ap"/>
</g>
</g>
<g clip-path="url(#a)">
<g transform="translate(1436.9 1070.9) scale(.1 -.1)">
<use xlink:href="#f"/>
<use x="61.279297" xlink:href="#y"/>
<use x="124.755859" xlink:href="#y"/>
</g>
</g>
<g clip-path="url(#a)">
<g transform="translate(1485.1 1070.9) scale(.1 -.1)">
<use xlink:href="#t"/>
<use x="61.181641" xlink:href="#g"/>
</g>
</g>
<g clip-path="url(#a)">
<g transform="translate(1534 1070.9) scale(.1 -.1)">
<use xlink:href="#ap"/>
</g>
</g>
<g clip-path="url(#a)">
<defs>
<path id="aw" d="m54.891 54.688-19.781-26.609 20.797-28.078h-10.594l-15.922 21.484-15.906-21.484h-10.609l21.25 28.609-19.438 26.078h10.594l14.5-19.484 14.5 19.484z"/>
</defs>
<g transform="translate(1568.2 1070.9) scale(.1 -.1)">
<use xlink:href="#d"/>
<use x="61.507812" xlink:href="#aw"/>
<use x="120.6875" xlink:href="#m"/>
<use x="159.896484" xlink:href="#h"/>
<use x="201.009766" xlink:href="#f"/>
</g>
</g>
<g clip-path="url(#a)">
<g transform="translate(1605.8 1070.9) scale(.1 -.1)">
<use xlink:href="#s"/>
<use x="52.099609" xlink:href="#d"/>
<use x="113.623047" xlink:href="#h"/>
<use x="154.736328" xlink:href="#ar"/>
<use x="213.916016" xlink:href="#j"/>
<use x="241.699219" xlink:href="#aa"/>
<use x="296.679688" xlink:href="#d"/>
<use x="358.203125" xlink:href="#s"/>
</g>
</g>
<g clip-path="url(#a)">
<g transform="translate(1669.7 1070.9) scale(.1 -.1)">
<use xlink:href="#ah"/>
</g>
</g>
<g clip-path="url(#a)">
<g transform="translate(1701.7 1070.9) scale(.1 -.1)">
<use xlink:href="#aq"/>
<use x="81.787109" xlink:href="#u"/>
<use x="145.166016" xlink:href="#j"/>
<use x="172.949219" xlink:href="#aa"/>
<use x="227.929688" xlink:href="#u"/>
</g>
</g>
<g clip-path="url(#a)">
<g transform="translate(1733.7 1070.9) scale(.1 -.1)">
<use xlink:href="#s"/>
<use x="52.099609" xlink:href="#t"/>
<use x="113.28125" xlink:href="#i"/>
<use x="210.693359" xlink:href="#d"/>
<use x="272.216797" xlink:href="#m"/>
<use x="311.425781" xlink:href="#j"/>
<use x="339.208984" xlink:href="#i"/>
<use x="436.621094" xlink:href="#d"/>
<use x="498.144531" xlink:href="#s"/>
</g>
</g>
<g clip-path="url(#a)">
<g transform="translate(1802.2 1070.9) scale(.1 -.1)">
<use xlink:href="#j"/>
<use x="27.783203" xlink:href="#s"/>
</g>
</g>
<g clip-path="url(#a)">
<g transform="translate(1843 1070.9) scale(.1 -.1)">
<use xlink:href="#g"/>
<use x="63.378906" xlink:href="#t"/>
<use x="124.560547" xlink:href="#m"/>
</g>
</g>
<g clip-path="url(#a)">
<g transform="translate(1877.4 1070.9) scale(.1 -.1)">
<use xlink:href="#g"/>
<use x="63.378906" xlink:href="#d"/>
<use x="124.902344" xlink:href="#d"/>
<use x="186.425781" xlink:href="#y"/>
<use x="249.902344" xlink:href="#d"/>
<use x="311.425781" xlink:href="#y"/>
</g>
</g>
<g clip-path="url(#a)">
<defs>
<path id="e" d="m10.688 12.406h10.312v-12.406h-10.312z"/>
</defs>
<g transform="translate(1939.6 1070.9) scale(.1 -.1)">
<use xlink:href="#e"/>
</g>
</g>
<g clip-path="url(#a)">
<defs>
<path id="c" d="m12.406 8.2969h16.109v55.625l-17.531-3.5156v8.9844l17.438 3.5156h9.8594v-64.609h16.109v-8.2969h-41.984z"/>
</defs>
<g transform="translate(885.36 54.583) scale(.1 -.1)">
<use xlink:href="#c"/>
<use x="63.623047" xlink:href="#e"/>
<use x="95.410156" xlink:href="#c"/>
</g>
</g>
<g clip-path="url(#a)">
<defs>
<path id="p" d="m19.188 8.2969h34.422v-8.2969h-46.281v8.2969q5.6094 5.8125 15.297 15.594 9.7031 9.7969 12.188 12.641 4.7344 5.3125 6.6094 9 1.8906 3.6875 1.8906 7.25 0 5.8125-4.0781 9.4688-4.0781 3.6719-10.625 3.6719-4.6406 0-9.7969-1.6094-5.1406-1.6094-11-4.8906v9.9688q5.9531 2.3906 11.125 3.6094 5.1875 1.2188 9.4844 1.2188 11.328 0 18.062-5.6719 6.7344-5.6562 6.7344-15.125 0-4.5-1.6875-8.5312-1.6719-4.0156-6.125-9.4844-1.2188-1.4219-7.7656-8.1875-6.5312-6.7656-18.453-18.922z"/>
</defs>
<g transform="translate(648.39 406.2) scale(.1 -.1)">
<use xlink:href="#c"/>
<use x="63.623047" xlink:href="#e"/>
<use x="95.410156" xlink:href="#p"/>
</g>
</g>
<g clip-path="url(#a)">
<defs>
<path id="o" d="m40.578 39.312q7.0781-1.5156 11.047-6.3125 3.9844-4.7812 3.9844-11.812 0-10.781-7.4219-16.703-7.4219-5.9062-21.094-5.9062-4.5781 0-9.4375 0.90625t-10.031 2.7188v9.5156q4.0938-2.3906 8.9688-3.6094 4.8906-1.2188 10.219-1.2188 9.2656 0 14.125 3.6562t4.8594 10.641q0 6.4531-4.5156 10.078-4.5156 3.6406-12.562 3.6406h-8.5v8.1094h8.8906q7.2656 0 11.125 2.9062t3.8594 8.375q0 5.6094-3.9844 8.6094-3.9688 3.0156-11.391 3.0156-4.0625 0-8.7031-0.89062-4.6406-0.875-10.203-2.7188v8.7812q5.625 1.5625 10.531 2.3438t9.25 0.78125q11.234 0 17.766-5.1094 6.5469-5.0938 6.5469-13.781 0-6.0625-3.4688-10.234t-9.8594-5.7812z"/>
</defs>
<g transform="translate(133.89 906.7) scale(.1 -.1)">
<use xlink:href="#c"/>
<use x="63.623047" xlink:href="#e"/>
<use x="95.410156" xlink:href="#o"/>
</g>
</g>
<g clip-path="url(#a)">
<defs>
<path id="n" d="m37.797 64.312-24.906-38.922h24.906zm-2.5938 8.5938h12.406v-47.516h10.406v-8.2031h-10.406v-17.188h-9.8125v17.188h-32.906v9.5156z"/>
</defs>
<g transform="translate(88.908 906.7) scale(.1 -.1)">
<use xlink:href="#c"/>
<use x="63.623047" xlink:href="#e"/>
<use x="95.410156" xlink:href="#n"/>
</g>
</g>
<g clip-path="url(#a)">
<defs>
<path id="r" d="m10.797 72.906h38.719v-8.3125h-29.688v-17.859q2.1406 0.73438 4.2812 1.0938 2.1562 0.35938 4.3125 0.35938 12.203 0 19.328-6.6875 7.1406-6.6875 7.1406-18.109 0-11.766-7.3281-18.297-7.3281-6.5156-20.656-6.5156-4.5938 0-9.3594 0.78125-4.75 0.78125-9.8281 2.3438v9.9219q4.3906-2.3906 9.0781-3.5625t9.9062-1.1719q8.4531 0 13.375 4.4375 4.9375 4.4375 4.9375 12.062 0 7.6094-4.9375 12.047-4.9219 4.4531-13.375 4.4531-3.9531 0-7.8906-0.875-3.9219-0.875-8.0156-2.7344z"/>
</defs>
<g transform="translate(437.53 575.93) scale(.1 -.1)">
<use xlink:href="#c"/>
<use x="63.623047" xlink:href="#e"/>
<use x="95.410156" xlink:href="#r"/>
</g>
</g>
<g clip-path="url(#a)">
<defs>
<path id="ae" d="m33.016 40.375q-6.6406 0-10.531-4.5469-3.875-4.5312-3.875-12.438 0-7.8594 3.875-12.438 3.8906-4.5625 10.531-4.5625t10.516 4.5625q3.875 4.5781 3.875 12.438 0 7.9062-3.875 12.438-3.875 4.5469-10.516 4.5469zm19.578 30.922v-8.9844q-3.7188 1.75-7.5 2.6719-3.7812 0.9375-7.5 0.9375-9.7656 0-14.922-6.5938-5.1406-6.5938-5.875-19.922 2.875 4.25 7.2188 6.5156 4.3594 2.2656 9.5781 2.2656 10.984 0 17.359-6.6719 6.375-6.6562 6.375-18.125 0-11.234-6.6406-18.031-6.6406-6.7812-17.672-6.7812-12.656 0-19.344 9.6875-6.6875 9.7031-6.6875 28.109 0 17.281 8.2031 27.562t22.016 10.281q3.7188 0 7.5-0.73438t7.8906-2.1875z"/>
</defs>
<g transform="translate(223.86 906.7) scale(.1 -.1)">
<use xlink:href="#c"/>
<use x="63.623047" xlink:href="#e"/>
<use x="95.410156" xlink:href="#ae"/>
</g>
</g>
<g clip-path="url(#a)">
<defs>
<path id="ad" d="m8.2031 72.906h46.875v-4.2031l-26.469-68.703h-10.297l24.906 64.594h-35.016z"/>
</defs>
<g transform="translate(583.72 906.7) scale(.1 -.1)">
<use xlink:href="#c"/>
<use x="63.623047" xlink:href="#e"/>
<use x="95.410156" xlink:href="#ad"/>
</g>
</g>
<g clip-path="url(#a)">
<defs>
<path id="ac" d="m31.781 34.625q-7.0312 0-11.062-3.7656-4.0156-3.7656-4.0156-10.344 0-6.5938 4.0156-10.359 4.0312-3.7656 11.062-3.7656t11.078 3.7812q4.0625 3.7969 4.0625 10.344 0 6.5781-4.0312 10.344-4.0156 3.7656-11.109 3.7656zm-9.8594 4.1875q-6.3438 1.5625-9.8906 5.9062-3.5312 4.3594-3.5312 10.609 0 8.7344 6.2188 13.812 6.2344 5.0781 17.062 5.0781 10.891 0 17.094-5.0781t6.2031-13.812q0-6.25-3.5469-10.609-3.5312-4.3438-9.8281-5.9062 7.125-1.6562 11.094-6.5 3.9844-4.8281 3.9844-11.797 0-10.609-6.4688-16.281-6.4688-5.6562-18.531-5.6562-12.047 0-18.531 5.6562-6.4688 5.6719-6.4688 16.281 0 6.9688 4 11.797 4.0156 4.8438 11.141 6.5zm-3.6094 15.578q0-5.6562 3.5312-8.8281 3.5469-3.1719 9.9375-3.1719 6.3594 0 9.9375 3.1719 3.5938 3.1719 3.5938 8.8281 0 5.6719-3.5938 8.8438-3.5781 3.1719-9.9375 3.1719-6.3906 0-9.9375-3.1719-3.5312-3.1719-3.5312-8.8438z"/>
</defs>
<g transform="translate(669.19 575.93) scale(.1 -.1)">
<use xlink:href="#c"/>
<use x="63.623047" xlink:href="#e"/>
<use x="95.410156" xlink:href="#ac"/>
</g>
</g>
<g clip-path="url(#a)">
<defs>
<path id="ab" d="m10.984 1.5156v8.9844q3.7188-1.7656 7.5156-2.6875 3.8125-0.92188 7.4844-0.92188 9.7656 0 14.906 6.5625 5.1562 6.5625 5.8906 19.953-2.8281-4.2031-7.1875-6.4531-4.3438-2.25-9.6094-2.25-10.938 0-17.312 6.6094-6.375 6.625-6.375 18.109 0 11.219 6.6406 18 6.6406 6.7969 17.672 6.7969 12.656 0 19.312-9.7031 6.6719-9.6875 6.6719-28.141 0-17.234-8.1875-27.516-8.1719-10.281-21.984-10.281-3.7188 0-7.5312 0.73438-3.7969 0.73438-7.9062 2.2031zm19.625 30.906q6.6406 0 10.516 4.5312 3.8906 4.5469 3.8906 12.469 0 7.8594-3.8906 12.422-3.875 4.5625-10.516 4.5625t-10.516-4.5625-3.875-12.422q0-7.9219 3.875-12.469 3.875-4.5312 10.516-4.5312z"/>
</defs>
<g transform="translate(673.69 906.7) scale(.1 -.1)">
<use xlink:href="#c"/>
<use x="63.623047" xlink:href="#e"/>
<use x="95.410156" xlink:href="#ab"/>
</g>
</g>
<g clip-path="url(#a)">
<defs>
<path id="af" d="m31.781 66.406q-7.6094 0-11.453-7.5-3.8281-7.4844-3.8281-22.531 0-14.984 3.8281-22.484 3.8438-7.5 11.453-7.5 7.6719 0 11.5 7.5 3.8438 7.5 3.8438 22.484 0 15.047-3.8438 22.531-3.8281 7.5-11.5 7.5zm0 7.8125q12.266 0 18.734-9.7031 6.4688-9.6875 6.4688-28.141 0-18.406-6.4688-28.109-6.4688-9.6875-18.734-9.6875-12.25 0-18.719 9.6875-6.4688 9.7031-6.4688 28.109 0 18.453 6.4688 28.141 6.4688 9.7031 18.719 9.7031z"/>
</defs>
<g transform="translate(971.9 575.93) scale(.1 -.1)">
<use xlink:href="#c"/>
<use x="63.623047" xlink:href="#e"/>
<use x="95.410156" xlink:href="#c"/>
<use x="159.033203" xlink:href="#af"/>
</g>
</g>
<g clip-path="url(#a)">
<g transform="translate(1075.4 906.7) scale(.1 -.1)">
<use xlink:href="#c"/>
<use x="63.623047" xlink:href="#e"/>
<use x="95.410156" xlink:href="#c"/>
<use x="159.033203" xlink:href="#c"/>
</g>
</g>
<g clip-path="url(#a)">
<g transform="translate(1165.3 906.7) scale(.1 -.1)">
<use xlink:href="#c"/>
<use x="63.623047" xlink:href="#e"/>
<use x="95.410156" xlink:href="#c"/>
<use x="159.033203" xlink:href="#p"/>
</g>
</g>
<g clip-path="url(#a)">
<g transform="translate(1264.1 232.6) scale(.1 -.1)">
<use xlink:href="#c"/>
<use x="63.623047" xlink:href="#e"/>
<use x="95.410156" xlink:href="#c"/>
<use x="159.033203" xlink:href="#o"/>
</g>
</g>
<g clip-path="url(#a)">
<g transform="translate(1300.3 906.7) scale(.1 -.1)">
<use xlink:href="#c"/>
<use x="63.623047" xlink:href="#e"/>
<use x="95.410156" xlink:href="#c"/>
<use x="159.033203" xlink:href="#n"/>
</g>
</g>
<g clip-path="url(#a)">
<g transform="translate(1930 906.7) scale(.1 -.1)">
<use xlink:href="#c"/>
<use x="63.623047" xlink:href="#e"/>
<use x="95.410156" xlink:href="#c"/>
<use x="159.033203" xlink:href="#r"/>
</g>
</g>
<g clip-path="url(#a)">
<g transform="translate(175.69 906.7) scale(.1 -.1)">
<use xlink:href="#c"/>
<use x="63.623047" xlink:href="#e"/>
<use x="95.410156" xlink:href="#c"/>
<use x="159.033203" xlink:href="#ae"/>
</g>
</g>
<g clip-path="url(#a)">
<g transform="translate(288.15 742.46) scale(.1 -.1)">
<use xlink:href="#c"/>
<use x="63.623047" xlink:href="#e"/>
<use x="95.410156" xlink:href="#c"/>
<use x="159.033203" xlink:href="#ad"/>
</g>
</g>
<g clip-path="url(#a)">
<g transform="translate(310.64 906.7) scale(.1 -.1)">
<use xlink:href="#c"/>
<use x="63.623047" xlink:href="#e"/>
<use x="95.410156" xlink:href="#c"/>
<use x="159.033203" xlink:href="#ac"/>
</g>
</g>
<g clip-path="url(#a)">
<g transform="translate(355.63 906.7) scale(.1 -.1)">
<use xlink:href="#c"/>
<use x="63.623047" xlink:href="#e"/>
<use x="95.410156" xlink:href="#c"/>
<use x="159.033203" xlink:href="#ab"/>
</g>
</g>
<g clip-path="url(#a)">
<g transform="translate(1480.2 742.46) scale(.1 -.1)">
<use xlink:href="#c"/>
<use x="63.623047" xlink:href="#e"/>
<use x="95.410156" xlink:href="#p"/>
<use x="159.033203" xlink:href="#af"/>
</g>
</g>
<g clip-path="url(#a)">
<g transform="translate(445.59 906.7) scale(.1 -.1)">
<use xlink:href="#c"/>
<use x="63.623047" xlink:href="#e"/>
<use x="95.410156" xlink:href="#p"/>
<use x="159.033203" xlink:href="#c"/>
</g>
</g>
<g clip-path="url(#a)">
<g transform="translate(535.56 906.7) scale(.1 -.1)">
<use xlink:href="#c"/>
<use x="63.623047" xlink:href="#e"/>
<use x="95.410156" xlink:href="#p"/>
<use x="159.033203" xlink:href="#p"/>
</g>
</g>
<g clip-path="url(#a)">
<g transform="translate(625.53 906.7) scale(.1 -.1)">
<use xlink:href="#c"/>
<use x="63.623047" xlink:href="#e"/>
<use x="95.410156" xlink:href="#p"/>
<use x="159.033203" xlink:href="#o"/>
</g>
</g>
<g clip-path="url(#a)">
<g transform="translate(715.49 906.7) scale(.1 -.1)">
<use xlink:href="#c"/>
<use x="63.623047" xlink:href="#e"/>
<use x="95.410156" xlink:href="#p"/>
<use x="159.033203" xlink:href="#n"/>
</g>
</g>
<g clip-path="url(#a)">
<g transform="translate(782.97 742.46) scale(.1 -.1)">
<use xlink:href="#c"/>
<use x="63.623047" xlink:href="#e"/>
<use x="95.410156" xlink:href="#p"/>
<use x="159.033203" xlink:href="#r"/>
</g>
</g>
<g clip-path="url(#a)">
<g transform="translate(805.46 906.7) scale(.1 -.1)">
<use xlink:href="#c"/>
<use x="63.623047" xlink:href="#e"/>
<use x="95.410156" xlink:href="#p"/>
<use x="159.033203" xlink:href="#ae"/>
</g>
</g>
<g clip-path="url(#a)">
<g transform="translate(850.44 906.7) scale(.1 -.1)">
<use xlink:href="#c"/>
<use x="63.623047" xlink:href="#e"/>
<use x="95.410156" xlink:href="#p"/>
<use x="159.033203" xlink:href="#ad"/>
</g>
</g>
<g clip-path="url(#a)">
<g transform="translate(917.92 742.46) scale(.1 -.1)">
<use xlink:href="#c"/>
<use x="63.623047" xlink:href="#e"/>
<use x="95.410156" xlink:href="#p"/>
<use x="159.033203" xlink:href="#ac"/>
</g>
</g>
<g clip-path="url(#a)">
<g transform="translate(940.41 906.7) scale(.1 -.1)">
<use xlink:href="#c"/>
<use x="63.623047" xlink:href="#e"/>
<use x="95.410156" xlink:href="#p"/>
<use x="159.033203" xlink:href="#ab"/>
</g>
</g>
<g clip-path="url(#a)">
<g transform="translate(985.39 906.7) scale(.1 -.1)">
<use xlink:href="#c"/>
<use x="63.623047" xlink:href="#e"/>
<use x="95.410156" xlink:href="#o"/>
<use x="159.033203" xlink:href="#af"/>
</g>
</g>
<g clip-path="url(#a)">
<g transform="translate(1030.4 906.7) scale(.1 -.1)">
<use xlink:href="#c"/>
<use x="63.623047" xlink:href="#e"/>
<use x="95.410156" xlink:href="#o"/>
<use x="159.033203" xlink:href="#c"/>
</g>
</g>
<g clip-path="url(#a)">
<g transform="translate(1120.3 906.7) scale(.1 -.1)">
<use xlink:href="#c"/>
<use x="63.623047" xlink:href="#e"/>
<use x="95.410156" xlink:href="#o"/>
<use x="159.033203" xlink:href="#p"/>
</g>
</g>
<g clip-path="url(#a)">
<g transform="translate(1210.3 906.7) scale(.1 -.1)">
<use xlink:href="#c"/>
<use x="63.623047" xlink:href="#e"/>
<use x="95.410156" xlink:href="#o"/>
<use x="159.033203" xlink:href="#o"/>
</g>
</g>
<g clip-path="url(#a)">
<g transform="translate(1255.3 906.7) scale(.1 -.1)">
<use xlink:href="#c"/>
<use x="63.623047" xlink:href="#e"/>
<use x="95.410156" xlink:href="#o"/>
<use x="159.033203" xlink:href="#n"/>
</g>
</g>
<g clip-path="url(#a)">
<g transform="translate(1434.2 406.2) scale(.1 -.1)">
<use xlink:href="#c"/>
<use x="63.623047" xlink:href="#e"/>
<use x="95.410156" xlink:href="#o"/>
<use x="159.033203" xlink:href="#r"/>
</g>
</g>
<g clip-path="url(#a)">
<g transform="translate(1435.2 906.7) scale(.1 -.1)">
<use xlink:href="#c"/>
<use x="63.623047" xlink:href="#e"/>
<use x="95.410156" xlink:href="#o"/>
<use x="159.033203" xlink:href="#ae"/>
</g>
</g>
<g clip-path="url(#a)">
<g transform="translate(265.66 906.7) scale(.1 -.1)">
<use xlink:href="#c"/>
<use x="63.623047" xlink:href="#e"/>
<use x="95.410156" xlink:href="#o"/>
<use x="159.033203" xlink:href="#ad"/>
</g>
</g>
<g clip-path="url(#a)">
<g transform="translate(2020 1070.9) scale(.1 -.1)">
<use xlink:href="#c"/>
<use x="63.623047" xlink:href="#e"/>
<use x="95.410156" xlink:href="#o"/>
<use x="159.033203" xlink:href="#ac"/>
</g>
</g>
<g clip-path="url(#a)">
<g transform="translate(1975 1070.9) scale(.1 -.1)">
<use xlink:href="#c"/>
<use x="63.623047" xlink:href="#e"/>
<use x="95.410156" xlink:href="#o"/>
<use x="159.033203" xlink:href="#ab"/>
</g>
</g>
<g clip-path="url(#a)">
<g transform="translate(760.48 906.7) scale(.1 -.1)">
<use xlink:href="#c"/>
<use x="63.623047" xlink:href="#e"/>
<use x="95.410156" xlink:href="#n"/>
<use x="159.033203" xlink:href="#af"/>
</g>
</g>
<g clip-path="url(#a)">
<g transform="translate(895.43 906.7) scale(.1 -.1)">
<use xlink:href="#c"/>
<use x="63.623047" xlink:href="#e"/>
<use x="95.410156" xlink:href="#n"/>
<use x="159.033203" xlink:href="#c"/>
</g>
</g>
<g clip-path="url(#a)">
<g transform="translate(1345.3 906.7) scale(.1 -.1)">
<use xlink:href="#c"/>
<use x="63.623047" xlink:href="#e"/>
<use x="95.410156" xlink:href="#n"/>
<use x="159.033203" xlink:href="#p"/>
</g>
</g>
<g clip-path="url(#a)">
<g transform="translate(1390.2 906.7) scale(.1 -.1)">
<use xlink:href="#c"/>
<use x="63.623047" xlink:href="#e"/>
<use x="95.410156" xlink:href="#n"/>
<use x="159.033203" xlink:href="#o"/>
</g>
</g>
<g clip-path="url(#a)">
<g transform="translate(1480.2 906.7) scale(.1 -.1)">
<use xlink:href="#c"/>
<use x="63.623047" xlink:href="#e"/>
<use x="95.410156" xlink:href="#n"/>
<use x="159.033203" xlink:href="#n"/>
</g>
</g>
<g clip-path="url(#a)">
<g transform="translate(1525.2 906.7) scale(.1 -.1)">
<use xlink:href="#c"/>
<use x="63.623047" xlink:href="#e"/>
<use x="95.410156" xlink:href="#n"/>
<use x="159.033203" xlink:href="#r"/>
</g>
</g>
<g clip-path="url(#a)">
<g transform="translate(1652.6 575.93) scale(.1 -.1)">
<use xlink:href="#c"/>
<use x="63.623047" xlink:href="#e"/>
<use x="95.410156" xlink:href="#n"/>
<use x="159.033203" xlink:href="#ae"/>
</g>
</g>
<g clip-path="url(#a)">
<g transform="translate(1615.2 906.7) scale(.1 -.1)">
<use xlink:href="#c"/>
<use x="63.623047" xlink:href="#e"/>
<use x="95.410156" xlink:href="#n"/>
<use x="159.033203" xlink:href="#ad"/>
</g>
</g>
<g clip-path="url(#a)">
<g transform="translate(1570.2 906.7) scale(.1 -.1)">
<use xlink:href="#c"/>
<use x="63.623047" xlink:href="#e"/>
<use x="95.410156" xlink:href="#n"/>
<use x="159.033203" xlink:href="#ac"/>
</g>
</g>
<g clip-path="url(#a)">
<g transform="translate(1660.1 906.7) scale(.1 -.1)">
<use xlink:href="#c"/>
<use x="63.623047" xlink:href="#e"/>
<use x="95.410156" xlink:href="#n"/>
<use x="159.033203" xlink:href="#ab"/>
</g>
</g>
<g clip-path="url(#a)">
<g transform="translate(1765.1 742.46) scale(.1 -.1)">
<use xlink:href="#c"/>
<use x="63.623047" xlink:href="#e"/>
<use x="95.410156" xlink:href="#r"/>
<use x="159.033203" xlink:href="#af"/>
</g>
</g>
<g clip-path="url(#a)">
<g transform="translate(1885.1 906.7) scale(.1 -.1)">
<use xlink:href="#c"/>
<use x="63.623047" xlink:href="#e"/>
<use x="95.410156" xlink:href="#r"/>
<use x="159.033203" xlink:href="#c"/>
</g>
</g>
<g clip-path="url(#a)">
<g transform="translate(1705.1 906.7) scale(.1 -.1)">
<use xlink:href="#c"/>
<use x="63.623047" xlink:href="#e"/>
<use x="95.410156" xlink:href="#r"/>
<use x="159.033203" xlink:href="#p"/>
</g>
</g>
<g clip-path="url(#a)">
<g transform="translate(1750.1 906.7) scale(.1 -.1)">
<use xlink:href="#c"/>
<use x="63.623047" xlink:href="#e"/>
<use x="95.410156" xlink:href="#r"/>
<use x="159.033203" xlink:href="#o"/>
</g>
</g>
<g clip-path="url(#a)">
<g transform="translate(1795.1 906.7) scale(.1 -.1)">
<use xlink:href="#c"/>
<use x="63.623047" xlink:href="#e"/>
<use x="95.410156" xlink:href="#r"/>
<use x="159.033203" xlink:href="#n"/>
</g>
</g>
<g clip-path="url(#a)">
<g transform="translate(1840.1 906.7) scale(.1 -.1)">
<use xlink:href="#c"/>
<use x="63.623047" xlink:href="#e"/>
<use x="95.410156" xlink:href="#r"/>
<use x="159.033203" xlink:href="#r"/>
</g>
</g>
<defs>
<clipPath id="a">
<rect width="2128" height="1120"/>
</clipPath>
</defs>
</svg>
