<?xml version="1.0" encoding="UTF-8"?>
<!DOCTYPE svg  PUBLIC '-//W3C//DTD SVG 1.1//EN'  'http://www.w3.org/Graphics/SVG/1.1/DTD/svg11.dtd'>
<svg width="1520pt" height="800pt" version="1.1" viewBox="0 0 1520 800" xmlns="http://www.w3.org/2000/svg" xmlns:xlink="http://www.w3.org/1999/xlink">
<defs>
<style type="text/css">*{stroke-linecap:butt;stroke-linejoin:round;}</style>
</defs>
<path d="m0 800h1520v-800h-1520z" fill="#fff"/>
<g fill="none" stroke="#000">
<path d="m325.94 37.138 399.42 110.7" clip-path="url(#a)"/>
<path d="m325.94 37.138-256.65 626.34" clip-path="url(#a)"/>
<path d="m325.94 37.138-153.44 426.18" clip-path="url(#a)"/>
<path d="m325.94 37.138-18.477 626.34" clip-path="url(#a)"/>
<path d="m325.94 37.138 29.158 626.34" clip-path="url(#a)"/>
<path d="m725.36 147.84-227.35 515.64" clip-path="url(#a)"/>
<path d="m725.36 147.84-322.62 515.64" clip-path="url(#a)"/>
<path d="m725.36 147.84-274.99 515.64" clip-path="url(#a)"/>
<path d="m725.36 147.84 99.611 107.72" clip-path="url(#a)"/>
<path d="m725.36 147.84 725.36 515.64" clip-path="url(#a)"/>
<path d="m498.01 663.48v99.386" clip-path="url(#a)"/>
<path d="m69.286 663.48v99.386" clip-path="url(#a)"/>
<path d="m172.5 463.32-7.9392 200.16" clip-path="url(#a)"/>
<path d="m172.5 463.32-55.575 200.16" clip-path="url(#a)"/>
<path d="m172.5 463.32 63.514 100.77" clip-path="url(#a)"/>
<path d="m164.56 663.48v99.386" clip-path="url(#a)"/>
<path d="m402.73 663.48v99.386" clip-path="url(#a)"/>
<path d="m450.37 663.48v99.386" clip-path="url(#a)"/>
<path d="m824.97 255.56-231.69 407.91" clip-path="url(#a)"/>
<path d="m824.97 255.56-279.33 407.91" clip-path="url(#a)"/>
<path d="m824.97 255.56-41.152 207.76" clip-path="url(#a)"/>
<path d="m824.97 255.56 149.39 407.91" clip-path="url(#a)"/>
<path d="m824.97 255.56 402.78 105.05" clip-path="url(#a)"/>
<path d="m593.28 663.48v99.386" clip-path="url(#a)"/>
<path d="m1450.7 663.48v99.386" clip-path="url(#a)"/>
<path d="m116.92 663.48v99.386" clip-path="url(#a)"/>
<path d="m236.01 564.09 23.818 99.386" clip-path="url(#a)"/>
<path d="m236.01 564.09-23.818 99.386" clip-path="url(#a)"/>
<path d="m259.83 663.48v99.386" clip-path="url(#a)"/>
<path d="m307.46 663.48v99.386" clip-path="url(#a)"/>
<path d="m355.1 663.48v99.386" clip-path="url(#a)"/>
<path d="m545.64 663.48v99.386" clip-path="url(#a)"/>
<path d="m783.82 463.32 47.635 200.16" clip-path="url(#a)"/>
<path d="m783.82 463.32-119.09 100.77" clip-path="url(#a)"/>
<path d="m783.82 463.32-47.635 200.16" clip-path="url(#a)"/>
<path d="m783.82 463.32v200.16" clip-path="url(#a)"/>
<path d="m783.82 463.32 119.09 100.77" clip-path="url(#a)"/>
<path d="m831.45 663.48v99.386" clip-path="url(#a)"/>
<path d="m974.36 663.48v99.386" clip-path="url(#a)"/>
<path d="m1227.8 360.61-15.217 302.86" clip-path="url(#a)"/>
<path d="m1227.8 360.61-205.76 302.86" clip-path="url(#a)"/>
<path d="m1227.8 360.61-102.55 102.71" clip-path="url(#a)"/>
<path d="m1227.8 360.61 127.69 302.86" clip-path="url(#a)"/>
<path d="m1227.8 360.61 175.32 302.86" clip-path="url(#a)"/>
<path d="m1227.8 360.61 20.51 102.71" clip-path="url(#a)"/>
<path d="m1212.5 663.48v99.386" clip-path="url(#a)"/>
<path d="m212.19 663.48v99.386" clip-path="url(#a)"/>
<path d="m664.73 564.09 23.818 99.386" clip-path="url(#a)"/>
<path d="m664.73 564.09-23.818 99.386" clip-path="url(#a)"/>
<path d="m688.55 663.48v99.386" clip-path="url(#a)"/>
<path d="m736.18 663.48v99.386" clip-path="url(#a)"/>
<path d="m783.82 663.48v99.386" clip-path="url(#a)"/>
<path d="m902.91 564.09 23.818 99.386" clip-path="url(#a)"/>
<path d="m902.91 564.09-23.818 99.386" clip-path="url(#a)"/>
<path d="m926.72 663.48v99.386" clip-path="url(#a)"/>
<path d="m1022 663.48v99.386" clip-path="url(#a)"/>
<path d="m1125.2 463.32 39.696 200.16" clip-path="url(#a)"/>
<path d="m1125.2 463.32-55.575 200.16" clip-path="url(#a)"/>
<path d="m1125.2 463.32 15.878 100.77" clip-path="url(#a)"/>
<path d="m1164.9 663.48v99.386" clip-path="url(#a)"/>
<path d="m1260.2 663.48v99.386" clip-path="url(#a)"/>
<path d="m1236.4 564.09-71.453 99.386" clip-path="url(#a)" stroke-dasharray="3.7,1.6"/>
<path d="m1236.4 564.09 71.453 99.386" clip-path="url(#a)"/>
<path d="m1307.8 663.48v99.386" clip-path="url(#a)"/>
<path d="m1355.4 663.48v99.386" clip-path="url(#a)"/>
<path d="m1403.1 663.48v99.386" clip-path="url(#a)"/>
<path d="m640.91 663.48v99.386" clip-path="url(#a)"/>
<path d="m879.09 663.48v99.386" clip-path="url(#a)"/>
<path d="m1069.6 663.48v99.386" clip-path="url(#a)"/>
<path d="m1141.1 564.09 23.818 99.386" clip-path="url(#a)" stroke-dasharray="3.7,1.6"/>
<path d="m1141.1 564.09-23.818 99.386" clip-path="url(#a)"/>
<path d="m1117.3 663.48v99.386" clip-path="url(#a)"/>
<path d="m1248.3 463.32 11.909 200.16" clip-path="url(#a)"/>
<path d="m1248.3 463.32-11.909 100.77" clip-path="url(#a)"/>
</g>
<path d="m521.08 97.728 5.7977 1.6068q2.3128 0.641 2.9538-1.6718l2.0679-7.4612q0.641-2.3128-1.6718-2.9538l-5.7977-1.6068q-2.3128-0.641-2.9538 1.6718l-2.0679 7.4612q-0.641 2.3128 1.6718 2.9538z" clip-path="url(#a)" fill="#fff" stroke="#fff"/>
<g clip-path="url(#a)">
<defs>
<path id="af" d="m9.8125 72.906h9.8594v-29.891h35.844v29.891h9.8594v-72.906h-9.8594v34.719h-35.844v-34.719h-9.8594z"/>
</defs>
<g transform="translate(522.16 93.812) rotate(15.491) scale(.08 -.08)">
<use xlink:href="#af"/>
</g>
</g>
<path d="m202.57 354.75 1.6902-4.1246q0.91001-2.2208-1.3108-3.1308l-7.1643-2.9357q-2.2208-0.91001-3.1308 1.3108l-1.6902 4.1246q-0.91001 2.2208 1.3108 3.1308l7.1643 2.9357q2.2208 0.91001 3.1308-1.3108z" clip-path="url(#a)" fill="#fff" stroke="#fff"/>
<g clip-path="url(#a)">
<defs>
<path id="am" d="m9.8125 72.906h9.8594v-64.609h35.5v-8.2969h-45.359z"/>
</defs>
<g transform="translate(198.81 353.21) rotate(-67.718) scale(.08 -.08)">
<use xlink:href="#am"/>
</g>
</g>
<path d="m254.1 255.18 2.038-5.6605q0.81302-2.2581-1.4451-3.0711l-7.2847-2.6228q-2.2581-0.81302-3.0711 1.4451l-2.038 5.6605q-0.81302 2.2581 1.4451 3.0711l7.2847 2.6228q2.2581 0.81302 3.0711-1.4451z" clip-path="url(#a)" fill="#fff" stroke="#fff"/>
<g clip-path="url(#a)">
<g transform="translate(250.28 253.81) rotate(-70.199) scale(.08 -.08)">
<use xlink:href="#af"/>
</g>
</g>
<path d="m322.9 352.72 0.13144-4.4556q0.07077-2.399-2.3282-2.4697l-7.7391-0.22831q-2.399-0.07077-2.4697 2.3282l-0.13144 4.4556q-0.07077 2.399 2.3282 2.4697l7.7391 0.22831q2.399 0.07077 2.4697-2.3282z" clip-path="url(#a)" fill="#fff" stroke="#fff"/>
<g clip-path="url(#a)">
<g transform="translate(318.84 352.6) rotate(-88.31) scale(.08 -.08)">
<use xlink:href="#am"/>
</g>
</g>
<path d="m334.12 347.59 0.27977 6.0097q0.11161 2.3974 2.509 2.2858l7.7341-0.36005q2.3974-0.11161 2.2858-2.509l-0.27977-6.0097q-0.11161-2.3974-2.509-2.2858l-7.7341 0.36005q-2.3974 0.11161-2.2858 2.509z" clip-path="url(#a)" fill="#fff" stroke="#fff"/>
<g clip-path="url(#a)">
<g transform="translate(338.17 347.4) rotate(87.335) scale(.08 -.08)">
<use xlink:href="#af"/>
</g>
</g>
<path d="m616.45 410.39 1.9461-4.4138q0.96826-2.196-1.2278-3.1643l-7.0844-3.1236q-2.196-0.96826-3.1643 1.2278l-1.9461 4.4138q-0.96826 2.196 1.2278 3.1643l7.0844 3.1236q2.196 0.96826 3.1643-1.2278z" clip-path="url(#a)" fill="#fff" stroke="#fff"/>
<g clip-path="url(#a)">
<defs>
<path id="q" d="m19.672 64.797v-27.391h12.406q6.8906 0 10.641 3.5625 3.7656 3.5625 3.7656 10.156 0 6.5469-3.7656 10.109-3.75 3.5625-10.641 3.5625zm-9.8594 8.1094h22.266q12.266 0 18.531-5.5469 6.2812-5.5469 6.2812-16.234 0-10.797-6.2812-16.312-6.2656-5.5156-18.531-5.5156h-12.406v-29.297h-9.8594z"/>
</defs>
<g transform="translate(612.73 408.75) rotate(-66.207) scale(.08 -.08)">
<use xlink:href="#q"/>
</g>
</g>
<path d="m567.81 411.46 3.1056-4.9635q1.273-2.0346-0.76158-3.3076l-6.5636-4.1067q-2.0346-1.273-3.3076 0.76158l-3.1056 4.9635q-1.273 2.0346 0.76158 3.3076l6.5636 4.1067q2.0346 1.273 3.3076-0.76158z" clip-path="url(#a)" fill="#fff" stroke="#fff"/>
<g clip-path="url(#a)">
<defs>
<path id="aj" d="m8.6875 72.906h9.9219v-44.297q0-11.719 4.2344-16.875 4.25-5.1406 13.781-5.1406 9.4688 0 13.719 5.1406 4.25 5.1562 4.25 16.875v44.297h9.9062v-45.516q0-14.25-7.0625-21.531-7.0469-7.2812-20.812-7.2812-13.828 0-20.891 7.2812-7.0469 7.2812-7.0469 21.531z"/>
</defs>
<g transform="translate(564.36 409.31) rotate(-57.967) scale(.08 -.08)">
<use xlink:href="#aj"/>
</g>
</g>
<path d="m592.11 411.02 2.5752-4.8287q1.1294-2.1177-0.98832-3.247l-6.8317-3.6433q-2.1177-1.1294-3.247 0.98832l-2.5752 4.8287q-1.1294 2.1177 0.98832 3.247l6.8317 3.6433q2.1177 1.1294 3.247-0.98832z" clip-path="url(#a)" fill="#fff" stroke="#fff"/>
<g clip-path="url(#a)">
<defs>
<path id="o" d="m34.188 63.188-13.391-36.281h26.812zm-5.5781 9.7188h11.188l27.781-72.906h-10.25l-6.6406 18.703h-32.859l-6.6406-18.703h-10.406z"/>
</defs>
<g transform="translate(588.52 409.11) rotate(-61.929) scale(.08 -.08)">
<use xlink:href="#o"/>
</g>
</g>
<path d="m768.7 203.95 3.7154 4.018q1.6294 1.7621 3.3915 0.1327l5.6846-5.2565q1.7621-1.6294 0.1327-3.3915l-3.7154-4.018q-1.6294-1.7621-3.3915-0.1327l-5.6846 5.2565q-1.7621 1.6294-0.1327 3.3915z" clip-path="url(#a)" fill="#fff" stroke="#fff"/>
<g clip-path="url(#a)">
<g transform="translate(771.69 201.19) rotate(47.241) scale(.08 -.08)">
<use xlink:href="#o"/>
</g>
</g>
<path d="m1082 409.07 4.7721 3.3924q1.9561 1.3906 3.3467-0.56556l4.486-6.3105q1.3906-1.9561-0.56556-3.3467l-4.7721-3.3924q-1.9561-1.3906-3.3467 0.56556l-4.486 6.3105q-1.3906 1.9561 0.56556 3.3467z" clip-path="url(#a)" fill="#fff" stroke="#fff"/>
<g clip-path="url(#a)">
<g transform="translate(1084.4 405.76) rotate(35.408) scale(.08 -.08)">
<use xlink:href="#aj"/>
</g>
</g>
<path d="m491.73 695.53v35.285q0 2.4 2.4 2.4h7.7425q2.4 0 2.4-2.4v-35.285q0-2.4-2.4-2.4h-7.7425q-2.4 0-2.4 2.4z" clip-path="url(#a)" fill="#fff" stroke="#fff"/>
<g clip-path="url(#a)">
<defs>
<path id="l" d="m-0.29688 72.906h61.672v-8.3125h-25.875v-64.594h-9.9062v64.594h-25.891z"/>
<path id="f" d="m56.203 29.594v-4.3906h-41.312q0.59375-9.2812 5.5938-14.141t13.938-4.8594q5.1719 0 10.031 1.2656t9.6562 3.8125v-8.5q-4.8438-2.0469-9.9219-3.125t-10.297-1.0781q-13.094 0-20.734 7.6094-7.6406 7.625-7.6406 20.625 0 13.422 7.25 21.297 7.25 7.8906 19.562 7.8906 11.031 0 17.453-7.1094 6.4219-7.0938 6.4219-19.297zm-8.9844 2.6406q-0.09375 7.3594-4.125 11.75-4.0312 4.4062-10.672 4.4062-7.5156 0-12.031-4.25t-5.2031-11.969z"/>
<path id="j" d="m41.109 46.297q-1.5156 0.875-3.2969 1.2812-1.7812 0.42188-3.9219 0.42188-7.625 0-11.703-4.9531t-4.0781-14.234v-28.812h-9.0312v54.688h9.0312v-8.5q2.8438 4.9844 7.375 7.3906 4.5469 2.4219 11.047 2.4219 0.92188 0 2.0469-0.125 1.125-0.10938 2.4844-0.35938z"/>
<path id="k" d="m52 44.188q3.375 6.0625 8.0625 8.9375t11.031 2.875q8.5469 0 13.188-5.9844 4.6406-5.9688 4.6406-17v-33.016h-9.0312v32.719q0 7.8594-2.7969 11.656-2.7812 3.8125-8.4844 3.8125-6.9844 0-11.047-4.6406-4.0469-4.625-4.0469-12.641v-30.906h-9.0312v32.719q0 7.9062-2.7812 11.688t-8.5938 3.7812q-6.8906 0-10.953-4.6562-4.0469-4.6562-4.0469-12.625v-30.906h-9.0312v54.688h9.0312v-8.5q3.0781 5.0312 7.375 7.4219t10.203 2.3906q5.9688 0 10.141-3.0312 4.1719-3.0156 6.1719-8.7812z"/>
<path id="i" d="m9.4219 54.688h8.9844v-54.688h-8.9844zm0 21.297h8.9844v-11.391h-8.9844z"/>
<path id="g" d="m54.891 33.016v-33.016h-8.9844v32.719q0 7.7656-3.0312 11.609-3.0312 3.8594-9.0781 3.8594-7.2812 0-11.484-4.6406-4.2031-4.625-4.2031-12.641v-30.906h-9.0312v54.688h9.0312v-8.5q3.2344 4.9375 7.5938 7.375 4.375 2.4375 10.094 2.4375 9.4219 0 14.25-5.8281 4.8438-5.8281 4.8438-17.156z"/>
<path id="d" d="m34.281 27.484q-10.891 0-15.094-2.4844t-4.2031-8.5q0-4.7812 3.1562-7.5938 3.1562-2.7969 8.5625-2.7969 7.4844 0 12 5.2969t4.5156 14.078v2zm17.922 3.7188v-31.203h-8.9844v8.2969q-3.0781-4.9688-7.6719-7.3438t-11.234-2.375q-8.3906 0-13.359 4.7188-4.9531 4.7188-4.9531 12.625 0 9.2188 6.1719 13.906 6.1875 4.6875 18.438 4.6875h12.609v0.89062q0 6.2031-4.0781 9.5938t-11.453 3.3906q-4.6875 0-9.1406-1.125-4.4375-1.125-8.5312-3.375v8.3125q4.9219 1.9062 9.5625 2.8438 4.6406 0.95312 9.0312 0.95312 11.875 0 17.734-6.1562 5.8594-6.1406 5.8594-18.641z"/>
<path id="h" d="m9.4219 75.984h8.9844v-75.984h-8.9844z"/>
</defs>
<g transform="translate(495.8 695.53) rotate(90) scale(.08 -.08)">
<use xlink:href="#l"/>
<use x="60.818359" xlink:href="#f"/>
<use x="122.341797" xlink:href="#j"/>
<use x="163.439453" xlink:href="#k"/>
<use x="260.851562" xlink:href="#i"/>
<use x="288.634766" xlink:href="#g"/>
<use x="352.013672" xlink:href="#d"/>
<use x="413.292969" xlink:href="#h"/>
</g>
</g>
<path d="m63.015 695.53v35.285q0 2.4 2.4 2.4h7.7425q2.4 0 2.4-2.4v-35.285q0-2.4-2.4-2.4h-7.7425q-2.4 0-2.4 2.4z" clip-path="url(#a)" fill="#fff" stroke="#fff"/>
<g clip-path="url(#a)">
<g transform="translate(67.079 695.53) rotate(90) scale(.08 -.08)">
<use xlink:href="#l"/>
<use x="60.818359" xlink:href="#f"/>
<use x="122.341797" xlink:href="#j"/>
<use x="163.439453" xlink:href="#k"/>
<use x="260.851562" xlink:href="#i"/>
<use x="288.634766" xlink:href="#g"/>
<use x="352.013672" xlink:href="#d"/>
<use x="413.292969" xlink:href="#h"/>
</g>
</g>
<path d="m174.7 566.06 0.19119-4.82q0.095122-2.3981-2.303-2.4932l-7.7364-0.30687q-2.3981-0.095122-2.4932 2.303l-0.19119 4.82q-0.095122 2.3981 2.303 2.4932l7.7364 0.30687q2.3981 0.095122 2.4932-2.303z" clip-path="url(#a)" fill="#fff" stroke="#fff"/>
<g clip-path="url(#a)">
<g transform="translate(170.64 565.9) rotate(-87.729) scale(.08 -.08)">
<use xlink:href="#q"/>
</g>
</g>
<path d="m150.02 567.71 1.4641-5.273q0.64209-2.3125-1.6704-2.9546l-7.4603-2.0714q-2.3125-0.64209-2.9546 1.6704l-1.4641 5.273q-0.64209 2.3125 1.6704 2.9546l7.4603 2.0714q2.3125 0.64209 2.9546-1.6704z" clip-path="url(#a)" fill="#fff" stroke="#fff"/>
<g clip-path="url(#a)">
<g transform="translate(146.1 566.62) rotate(-74.482) scale(.08 -.08)">
<use xlink:href="#o"/>
</g>
</g>
<path d="m197.49 514.73 2.918 4.6296q1.2797 2.0304 3.3101 0.75064l6.55-4.1284q2.0304-1.2797 0.75064-3.3101l-2.918-4.6296q-1.2797-2.0304-3.3101-0.75064l-6.55 4.1284q-2.0304 1.2797-0.75064 3.3101z" clip-path="url(#a)" fill="#fff" stroke="#fff"/>
<g clip-path="url(#a)">
<g transform="translate(200.93 512.57) rotate(57.777) scale(.08 -.08)">
<use xlink:href="#o"/>
</g>
</g>
<path d="m158.29 695.53v35.285q0 2.4 2.4 2.4h7.7425q2.4 0 2.4-2.4v-35.285q0-2.4-2.4-2.4h-7.7425q-2.4 0-2.4 2.4z" clip-path="url(#a)" fill="#fff" stroke="#fff"/>
<g clip-path="url(#a)">
<g transform="translate(162.35 695.53) rotate(90) scale(.08 -.08)">
<use xlink:href="#l"/>
<use x="60.818359" xlink:href="#f"/>
<use x="122.341797" xlink:href="#j"/>
<use x="163.439453" xlink:href="#k"/>
<use x="260.851562" xlink:href="#i"/>
<use x="288.634766" xlink:href="#g"/>
<use x="352.013672" xlink:href="#d"/>
<use x="413.292969" xlink:href="#h"/>
</g>
</g>
<path d="m396.46 695.53v35.285q0 2.4 2.4 2.4h7.7425q2.4 0 2.4-2.4v-35.285q0-2.4-2.4-2.4h-7.7425q-2.4 0-2.4 2.4z" clip-path="url(#a)" fill="#fff" stroke="#fff"/>
<g clip-path="url(#a)">
<g transform="translate(400.53 695.53) rotate(90) scale(.08 -.08)">
<use xlink:href="#l"/>
<use x="60.818359" xlink:href="#f"/>
<use x="122.341797" xlink:href="#j"/>
<use x="163.439453" xlink:href="#k"/>
<use x="260.851562" xlink:href="#i"/>
<use x="288.634766" xlink:href="#g"/>
<use x="352.013672" xlink:href="#d"/>
<use x="413.292969" xlink:href="#h"/>
</g>
</g>
<path d="m444.1 695.53v35.285q0 2.4 2.4 2.4h7.7425q2.4 0 2.4-2.4v-35.285q0-2.4-2.4-2.4h-7.7425q-2.4 0-2.4 2.4z" clip-path="url(#a)" fill="#fff" stroke="#fff"/>
<g clip-path="url(#a)">
<g transform="translate(448.16 695.53) rotate(90) scale(.08 -.08)">
<use xlink:href="#l"/>
<use x="60.818359" xlink:href="#f"/>
<use x="122.341797" xlink:href="#j"/>
<use x="163.439453" xlink:href="#k"/>
<use x="260.851562" xlink:href="#i"/>
<use x="288.634766" xlink:href="#g"/>
<use x="352.013672" xlink:href="#d"/>
<use x="413.292969" xlink:href="#h"/>
</g>
</g>
<path d="m713.38 464.71 2.3824-4.1944q1.1853-2.0869-0.90154-3.2722l-6.7323-3.8239q-2.0869-1.1853-3.2722 0.90154l-2.3824 4.1944q-1.1853 2.0869 0.90154 3.2722l6.7323 3.8239q2.0869 1.1853 3.2722-0.90154z" clip-path="url(#a)" fill="#fff" stroke="#fff"/>
<g clip-path="url(#a)">
<g transform="translate(709.85 462.71) rotate(-60.404) scale(.08 -.08)">
<use xlink:href="#q"/>
</g>
</g>
<path d="m688.93 465.32 3.092-4.5153q1.356-1.9802-0.62422-3.3362l-6.3883-4.3745q-1.9802-1.356-3.3362 0.62422l-3.092 4.5153q-1.356 1.9802 0.62422 3.3362l6.3883 4.3745q1.9802 1.356 3.3362-0.62422z" clip-path="url(#a)" fill="#fff" stroke="#fff"/>
<g clip-path="url(#a)">
<g transform="translate(685.58 463.02) rotate(-55.598) scale(.08 -.08)">
<use xlink:href="#o"/>
</g>
</g>
<path d="m810.01 363.34 1.0633-5.3682q0.46632-2.3543-1.8879-2.8206l-7.5949-1.5044q-2.3543-0.46632-2.8206 1.8879l-1.0633 5.3682q-0.46632 2.3543 1.8879 2.8206l7.5949 1.5044q2.3543 0.46632 2.8206-1.8879z" clip-path="url(#a)" fill="#fff" stroke="#fff"/>
<g clip-path="url(#a)">
<g transform="translate(806.03 362.55) rotate(-78.796) scale(.08 -.08)">
<use xlink:href="#o"/>
</g>
</g>
<path d="m892.75 458.86 2.0582 5.62q0.82534 2.2536 3.079 1.4283l7.2703-2.6626q2.2536-0.82534 1.4283-3.079l-2.0582-5.62q-0.82534-2.2536-3.079-1.4283l-7.2703 2.6626q-2.2536 0.82534-1.4283 3.079z" clip-path="url(#a)" fill="#fff" stroke="#fff"/>
<g clip-path="url(#a)">
<defs>
<path id="al" d="m9.8125 72.906h13.281l32.328-60.984v60.984h9.5625v-72.906h-13.281l-32.312 60.984v-60.984h-9.5781z"/>
</defs>
<g transform="translate(896.56 457.47) rotate(69.886) scale(.08 -.08)">
<use xlink:href="#al"/>
</g>
</g>
<path d="m1022.4 313.55 4.6676 1.2174q2.3223 0.60568 2.928-1.7166l1.954-7.4919q0.60568-2.3223-1.7166-2.928l-4.6676-1.2174q-2.3223-0.60568-2.928 1.7166l-1.954 7.4919q-0.60568 2.3223 1.7166 2.928z" clip-path="url(#a)" fill="#fff" stroke="#fff"/>
<g clip-path="url(#a)">
<g transform="translate(1023.5 309.61) rotate(14.618) scale(.08 -.08)">
<use xlink:href="#q"/>
</g>
</g>
<path d="m587 695.53v35.285q0 2.4 2.4 2.4h7.7425q2.4 0 2.4-2.4v-35.285q0-2.4-2.4-2.4h-7.7425q-2.4 0-2.4 2.4z" clip-path="url(#a)" fill="#fff" stroke="#fff"/>
<g clip-path="url(#a)">
<g transform="translate(591.07 695.53) rotate(90) scale(.08 -.08)">
<use xlink:href="#l"/>
<use x="60.818359" xlink:href="#f"/>
<use x="122.341797" xlink:href="#j"/>
<use x="163.439453" xlink:href="#k"/>
<use x="260.851562" xlink:href="#i"/>
<use x="288.634766" xlink:href="#g"/>
<use x="352.013672" xlink:href="#d"/>
<use x="413.292969" xlink:href="#h"/>
</g>
</g>
<path d="m1444.4 695.53v35.285q0 2.4 2.4 2.4h7.7425q2.4 0 2.4-2.4v-35.285q0-2.4-2.4-2.4h-7.7425q-2.4 0-2.4 2.4z" clip-path="url(#a)" fill="#fff" stroke="#fff"/>
<g clip-path="url(#a)">
<g transform="translate(1448.5 695.53) rotate(90) scale(.08 -.08)">
<use xlink:href="#l"/>
<use x="60.818359" xlink:href="#f"/>
<use x="122.341797" xlink:href="#j"/>
<use x="163.439453" xlink:href="#k"/>
<use x="260.851562" xlink:href="#i"/>
<use x="288.634766" xlink:href="#g"/>
<use x="352.013672" xlink:href="#d"/>
<use x="413.292969" xlink:href="#h"/>
</g>
</g>
<path d="m110.65 695.53v35.285q0 2.4 2.4 2.4h7.7425q2.4 0 2.4-2.4v-35.285q0-2.4-2.4-2.4h-7.7425q-2.4 0-2.4 2.4z" clip-path="url(#a)" fill="#fff" stroke="#fff"/>
<g clip-path="url(#a)">
<g transform="translate(114.71 695.53) rotate(90) scale(.08 -.08)">
<use xlink:href="#l"/>
<use x="60.818359" xlink:href="#f"/>
<use x="122.341797" xlink:href="#j"/>
<use x="163.439453" xlink:href="#k"/>
<use x="260.851562" xlink:href="#i"/>
<use x="288.634766" xlink:href="#g"/>
<use x="352.013672" xlink:href="#d"/>
<use x="413.292969" xlink:href="#h"/>
</g>
</g>
<path d="m241.26 612.9 1.1242 4.6909q0.55932 2.3339 2.8932 1.7746l7.5293-1.8044q2.3339-0.55932 1.7746-2.8932l-1.1242-4.6909q-0.55932-2.3339-2.8932-1.7746l-7.5293 1.8044q-2.3339 0.55932-1.7746 2.8932z" clip-path="url(#a)" fill="#fff" stroke="#fff"/>
<g clip-path="url(#a)">
<g transform="translate(245.21 611.95) rotate(76.523) scale(.08 -.08)">
<use xlink:href="#q"/>
</g>
</g>
<path d="m229.66 617.48 1.0723-4.4746q0.55932-2.3339-1.7746-2.8932l-7.5293-1.8044q-2.3339-0.55932-2.8932 1.7746l-1.0723 4.4746q-0.55932 2.3339 1.7746 2.8932l7.5293 1.8044q2.3339 0.55932 2.8932-1.7746z" clip-path="url(#a)" fill="#fff" stroke="#fff"/>
<g clip-path="url(#a)">
<defs>
<path id="x" d="m9.8125 72.906h41.891v-8.3125h-32.031v-21.484h28.906v-8.2969h-28.906v-34.812h-9.8594z"/>
</defs>
<g transform="translate(225.71 616.53) rotate(-76.523) scale(.08 -.08)">
<use xlink:href="#x"/>
</g>
</g>
<path d="m253.56 695.53v35.285q0 2.4 2.4 2.4h7.7425q2.4 0 2.4-2.4v-35.285q0-2.4-2.4-2.4h-7.7425q-2.4 0-2.4 2.4z" clip-path="url(#a)" fill="#fff" stroke="#fff"/>
<g clip-path="url(#a)">
<g transform="translate(257.62 695.53) rotate(90) scale(.08 -.08)">
<use xlink:href="#l"/>
<use x="60.818359" xlink:href="#f"/>
<use x="122.341797" xlink:href="#j"/>
<use x="163.439453" xlink:href="#k"/>
<use x="260.851562" xlink:href="#i"/>
<use x="288.634766" xlink:href="#g"/>
<use x="352.013672" xlink:href="#d"/>
<use x="413.292969" xlink:href="#h"/>
</g>
</g>
<path d="m301.19 695.53v35.285q0 2.4 2.4 2.4h7.7425q2.4 0 2.4-2.4v-35.285q0-2.4-2.4-2.4h-7.7425q-2.4 0-2.4 2.4z" clip-path="url(#a)" fill="#fff" stroke="#fff"/>
<g clip-path="url(#a)">
<g transform="translate(305.26 695.53) rotate(90) scale(.08 -.08)">
<use xlink:href="#l"/>
<use x="60.818359" xlink:href="#f"/>
<use x="122.341797" xlink:href="#j"/>
<use x="163.439453" xlink:href="#k"/>
<use x="260.851562" xlink:href="#i"/>
<use x="288.634766" xlink:href="#g"/>
<use x="352.013672" xlink:href="#d"/>
<use x="413.292969" xlink:href="#h"/>
</g>
</g>
<path d="m348.83 695.53v35.285q0 2.4 2.4 2.4h7.7425q2.4 0 2.4-2.4v-35.285q0-2.4-2.4-2.4h-7.7425q-2.4 0-2.4 2.4z" clip-path="url(#a)" fill="#fff" stroke="#fff"/>
<g clip-path="url(#a)">
<g transform="translate(352.89 695.53) rotate(90) scale(.08 -.08)">
<use xlink:href="#l"/>
<use x="60.818359" xlink:href="#f"/>
<use x="122.341797" xlink:href="#j"/>
<use x="163.439453" xlink:href="#k"/>
<use x="260.851562" xlink:href="#i"/>
<use x="288.634766" xlink:href="#g"/>
<use x="352.013672" xlink:href="#d"/>
<use x="413.292969" xlink:href="#h"/>
</g>
</g>
<path d="m539.37 695.53v35.285q0 2.4 2.4 2.4h7.7425q2.4 0 2.4-2.4v-35.285q0-2.4-2.4-2.4h-7.7425q-2.4 0-2.4 2.4z" clip-path="url(#a)" fill="#fff" stroke="#fff"/>
<g clip-path="url(#a)">
<g transform="translate(543.43 695.53) rotate(90) scale(.08 -.08)">
<use xlink:href="#l"/>
<use x="60.818359" xlink:href="#f"/>
<use x="122.341797" xlink:href="#j"/>
<use x="163.439453" xlink:href="#k"/>
<use x="260.851562" xlink:href="#i"/>
<use x="288.634766" xlink:href="#g"/>
<use x="352.013672" xlink:href="#d"/>
<use x="413.292969" xlink:href="#h"/>
</g>
</g>
<path d="m800.98 562.5 1.1168 4.6927q0.55566 2.3348 2.8905 1.7791l7.5321-1.7926q2.3348-0.55566 1.7791-2.8905l-1.1168-4.6927q-0.55566-2.3348-2.8905-1.7791l-7.5321 1.7926q-2.3348 0.55566-1.7791 2.8905z" clip-path="url(#a)" fill="#fff" stroke="#fff"/>
<g clip-path="url(#a)">
<g transform="translate(804.93 561.56) rotate(76.613) scale(.08 -.08)">
<use xlink:href="#q"/>
</g>
</g>
<path d="m726.24 520.26 4.1776-3.535q1.8321-1.5503 0.28184-3.3824l-5.0013-5.9105q-1.5503-1.8321-3.3824-0.28184l-4.1776 3.535q-1.8321 1.5503-0.28184 3.3824l5.0013 5.9105q1.5503 1.8321 3.3824 0.28184z" clip-path="url(#a)" fill="#fff" stroke="#fff"/>
<g clip-path="url(#a)">
<g transform="translate(723.61 517.16) rotate(-40.237) scale(.08 -.08)">
<use xlink:href="#o"/>
</g>
</g>
<path d="m765.57 567.09 1.0653-4.4762q0.55566-2.3348-1.7791-2.8905l-7.5321-1.7926q-2.3348-0.55566-2.8905 1.7791l-1.0653 4.4762q-0.55566 2.3348 1.7791 2.8905l7.5321 1.7926q2.3348 0.55566 2.8905-1.7791z" clip-path="url(#a)" fill="#fff" stroke="#fff"/>
<g clip-path="url(#a)">
<g transform="translate(761.61 566.15) rotate(-76.613) scale(.08 -.08)">
<use xlink:href="#x"/>
</g>
</g>
<path d="m777.55 560.32v6.16q0 2.4 2.4 2.4h7.7425q2.4 0 2.4-2.4v-6.16q0-2.4-2.4-2.4h-7.7425q-2.4 0-2.4 2.4z" clip-path="url(#a)" fill="#fff" stroke="#fff"/>
<g clip-path="url(#a)">
<defs>
<path id="ag" d="m19.672 64.797v-56.688h11.922q15.094 0 22.094 6.8281 7 6.8438 7 21.594 0 14.641-7 21.453t-22.094 6.8125zm-9.8594 8.1094h20.266q21.188 0 31.094-8.8125 9.9219-8.8125 9.9219-27.562 0-18.859-9.9688-27.703-9.9531-8.8281-31.047-8.8281h-20.266z"/>
</defs>
<g transform="translate(781.61 560.32) rotate(90) scale(.08 -.08)">
<use xlink:href="#ag"/>
</g>
</g>
<path d="m837.22 516.72 4.1776 3.535q1.8321 1.5503 3.3824-0.28184l5.0013-5.9105q1.5503-1.8321-0.28184-3.3824l-4.1776-3.535q-1.8321-1.5503-3.3824 0.28184l-5.0013 5.9105q-1.5503 1.8321 0.28184 3.3824z" clip-path="url(#a)" fill="#fff" stroke="#fff"/>
<g clip-path="url(#a)">
<g transform="translate(839.85 513.62) rotate(40.237) scale(.08 -.08)">
<use xlink:href="#o"/>
</g>
</g>
<path d="m825.18 695.53v35.285q0 2.4 2.4 2.4h7.7425q2.4 0 2.4-2.4v-35.285q0-2.4-2.4-2.4h-7.7425q-2.4 0-2.4 2.4z" clip-path="url(#a)" fill="#fff" stroke="#fff"/>
<g clip-path="url(#a)">
<g transform="translate(829.25 695.53) rotate(90) scale(.08 -.08)">
<use xlink:href="#l"/>
<use x="60.818359" xlink:href="#f"/>
<use x="122.341797" xlink:href="#j"/>
<use x="163.439453" xlink:href="#k"/>
<use x="260.851562" xlink:href="#i"/>
<use x="288.634766" xlink:href="#g"/>
<use x="352.013672" xlink:href="#d"/>
<use x="413.292969" xlink:href="#h"/>
</g>
</g>
<path d="m968.09 695.53v35.285q0 2.4 2.4 2.4h7.7425q2.4 0 2.4-2.4v-35.285q0-2.4-2.4-2.4h-7.7425q-2.4 0-2.4 2.4z" clip-path="url(#a)" fill="#fff" stroke="#fff"/>
<g clip-path="url(#a)">
<g transform="translate(972.15 695.53) rotate(90) scale(.08 -.08)">
<use xlink:href="#l"/>
<use x="60.818359" xlink:href="#f"/>
<use x="122.341797" xlink:href="#j"/>
<use x="163.439453" xlink:href="#k"/>
<use x="260.851562" xlink:href="#i"/>
<use x="288.634766" xlink:href="#g"/>
<use x="352.013672" xlink:href="#d"/>
<use x="413.292969" xlink:href="#h"/>
</g>
</g>
<path d="m1226.3 514.66 0.23089-4.5955q0.12043-2.397-2.2765-2.5174l-7.7327-0.38852q-2.397-0.12043-2.5174 2.2765l-0.23089 4.5955q-0.12043 2.397 2.2765 2.5174l7.7327 0.38852q2.397 0.12043 2.5174-2.2765z" clip-path="url(#a)" fill="#fff" stroke="#fff"/>
<g clip-path="url(#a)">
<g transform="translate(1222.2 514.45) rotate(-87.124) scale(.08 -.08)">
<use xlink:href="#x"/>
</g>
</g>
<path d="m1128.5 517.87 3.1238-4.598q1.3487-1.9852-0.63651-3.3339l-6.4043-4.3509q-1.9852-1.3487-3.3339 0.63651l-3.1238 4.598q-1.3487 1.9852 0.63651 3.3339l6.4043 4.3509q1.9852 1.3487 3.3339-0.63651z" clip-path="url(#a)" fill="#fff" stroke="#fff"/>
<g clip-path="url(#a)">
<defs>
<path id="ak" d="m44.391 34.188q3.1719-1.0781 6.1719-4.5938t6.0312-9.6719l10.016-19.922h-10.609l-9.3125 18.703q-3.625 7.3281-7.0156 9.7188t-9.25 2.3906h-10.75v-30.812h-9.8594v72.906h22.266q12.5 0 18.656-5.2344 6.1562-5.2188 6.1562-15.766 0-6.8906-3.2031-11.438-3.2031-4.5312-9.2969-6.2812zm-24.719 30.609v-25.875h12.406q7.125 0 10.766 3.2969t3.6406 9.6875-3.6406 9.6406-10.766 3.25z"/>
</defs>
<g transform="translate(1125.1 515.58) rotate(-55.809) scale(.08 -.08)">
<use xlink:href="#ak"/>
</g>
</g>
<path d="m1179 418.33 3.8666-3.8727q1.6957-1.6984-0.00266-3.3941l-5.4791-5.4705q-1.6984-1.6957-3.3941 0.002661l-3.8666 3.8727q-1.6957 1.6984 0.00266 3.3941l5.4791 5.4705q1.6984 1.6957 3.3941-0.00266z" clip-path="url(#a)" fill="#fff" stroke="#fff"/>
<g clip-path="url(#a)">
<g transform="translate(1176.1 415.46) rotate(-45.045) scale(.08 -.08)">
<use xlink:href="#o"/>
</g>
</g>
<path d="m1284.9 512.23 1.8983 4.5025q0.93237 2.2115 3.1439 1.2791l7.1344-3.0079q2.2115-0.93237 1.2791-3.1439l-1.8983-4.5024q-0.93238-2.2115-3.1439-1.2791l-7.1344 3.0079q-2.2115 0.93238-1.2791 3.1439z" clip-path="url(#a)" fill="#fff" stroke="#fff"/>
<g clip-path="url(#a)">
<g transform="translate(1288.6 510.65) rotate(67.139) scale(.08 -.08)">
<use xlink:href="#l"/>
</g>
</g>
<path d="m1308.4 512.52 3.0861 5.3312q1.2024 2.0771 3.2795 0.87468l6.7007-3.879q2.0771-1.2024 0.87468-3.2795l-3.0861-5.3312q-1.2024-2.0771-3.2795-0.87468l-6.7007 3.879q-2.0771 1.2024-0.87468 3.2795z" clip-path="url(#a)" fill="#fff" stroke="#fff"/>
<g clip-path="url(#a)">
<g transform="translate(1312 510.48) rotate(59.934) scale(.08 -.08)">
<use xlink:href="#ag"/>
</g>
</g>
<path d="m1231.4 410.83 0.94459 4.7304q0.46997 2.3535 2.8235 1.8836l7.5926-1.5161q2.3535-0.46997 1.8836-2.8235l-0.94459-4.7304q-0.46997-2.3535-2.8235-1.8836l-7.5926 1.5161q-2.3535 0.46997-1.8836 2.8235z" clip-path="url(#a)" fill="#fff" stroke="#fff"/>
<g clip-path="url(#a)">
<g transform="translate(1235.4 410.03) rotate(78.707) scale(.08 -.08)">
<use xlink:href="#q"/>
</g>
</g>
<path d="m1206.3 695.53v35.285q0 2.4 2.4 2.4h7.7425q2.4 0 2.4-2.4v-35.285q0-2.4-2.4-2.4h-7.7425q-2.4 0-2.4 2.4z" clip-path="url(#a)" fill="#fff" stroke="#fff"/>
<g clip-path="url(#a)">
<g transform="translate(1210.3 695.53) rotate(90) scale(.08 -.08)">
<use xlink:href="#l"/>
<use x="60.818359" xlink:href="#f"/>
<use x="122.341797" xlink:href="#j"/>
<use x="163.439453" xlink:href="#k"/>
<use x="260.851562" xlink:href="#i"/>
<use x="288.634766" xlink:href="#g"/>
<use x="352.013672" xlink:href="#d"/>
<use x="413.292969" xlink:href="#h"/>
</g>
</g>
<path d="m205.92 695.53v35.285q0 2.4 2.4 2.4h7.7425q2.4 0 2.4-2.4v-35.285q0-2.4-2.4-2.4h-7.7425q-2.4 0-2.4 2.4z" clip-path="url(#a)" fill="#fff" stroke="#fff"/>
<g clip-path="url(#a)">
<g transform="translate(209.99 695.53) rotate(90) scale(.08 -.08)">
<use xlink:href="#l"/>
<use x="60.818359" xlink:href="#f"/>
<use x="122.341797" xlink:href="#j"/>
<use x="163.439453" xlink:href="#k"/>
<use x="260.851562" xlink:href="#i"/>
<use x="288.634766" xlink:href="#g"/>
<use x="352.013672" xlink:href="#d"/>
<use x="413.292969" xlink:href="#h"/>
</g>
</g>
<path d="m669.89 612.53 1.3019 5.4324q0.55932 2.3339 2.8932 1.7746l7.5293-1.8044q2.3339-0.55932 1.7746-2.8932l-1.3019-5.4324q-0.55932-2.3339-2.8932-1.7746l-7.5293 1.8044q-2.3339 0.55932-1.7746 2.8932z" clip-path="url(#a)" fill="#fff" stroke="#fff"/>
<g clip-path="url(#a)">
<defs>
<path id="ah" d="m64.406 67.281v-10.391q-4.9844 4.6406-10.625 6.9219-5.6406 2.2969-11.984 2.2969-12.5 0-19.141-7.6406t-6.6406-22.094q0-14.406 6.6406-22.047t19.141-7.6406q6.3438 0 11.984 2.2969t10.625 6.9375v-10.312q-5.1719-3.5156-10.969-5.2812-5.7812-1.75-12.219-1.75-16.562 0-26.094 10.125-9.5156 10.141-9.5156 27.672 0 17.578 9.5156 27.703 9.5312 10.141 26.094 10.141 6.5312 0 12.312-1.7344 5.7969-1.7344 10.875-5.2031z"/>
</defs>
<g transform="translate(673.84 611.58) rotate(76.523) scale(.08 -.08)">
<use xlink:href="#ah"/>
</g>
</g>
<path d="m658.38 617.48 1.0723-4.4746q0.55932-2.3339-1.7746-2.8932l-7.5293-1.8044q-2.3339-0.55932-2.8932 1.7746l-1.0723 4.4746q-0.55932 2.3339 1.7746 2.8932l7.5293 1.8044q2.3339 0.55932 2.8932-1.7746z" clip-path="url(#a)" fill="#fff" stroke="#fff"/>
<g clip-path="url(#a)">
<g transform="translate(654.43 616.53) rotate(-76.523) scale(.08 -.08)">
<use xlink:href="#x"/>
</g>
</g>
<path d="m682.28 695.53v35.285q0 2.4 2.4 2.4h7.7425q2.4 0 2.4-2.4v-35.285q0-2.4-2.4-2.4h-7.7425q-2.4 0-2.4 2.4z" clip-path="url(#a)" fill="#fff" stroke="#fff"/>
<g clip-path="url(#a)">
<g transform="translate(686.34 695.53) rotate(90) scale(.08 -.08)">
<use xlink:href="#l"/>
<use x="60.818359" xlink:href="#f"/>
<use x="122.341797" xlink:href="#j"/>
<use x="163.439453" xlink:href="#k"/>
<use x="260.851562" xlink:href="#i"/>
<use x="288.634766" xlink:href="#g"/>
<use x="352.013672" xlink:href="#d"/>
<use x="413.292969" xlink:href="#h"/>
</g>
</g>
<path d="m729.91 695.53v35.285q0 2.4 2.4 2.4h7.7425q2.4 0 2.4-2.4v-35.285q0-2.4-2.4-2.4h-7.7425q-2.4 0-2.4 2.4z" clip-path="url(#a)" fill="#fff" stroke="#fff"/>
<g clip-path="url(#a)">
<g transform="translate(733.97 695.53) rotate(90) scale(.08 -.08)">
<use xlink:href="#l"/>
<use x="60.818359" xlink:href="#f"/>
<use x="122.341797" xlink:href="#j"/>
<use x="163.439453" xlink:href="#k"/>
<use x="260.851562" xlink:href="#i"/>
<use x="288.634766" xlink:href="#g"/>
<use x="352.013672" xlink:href="#d"/>
<use x="413.292969" xlink:href="#h"/>
</g>
</g>
<path d="m777.55 695.53v35.285q0 2.4 2.4 2.4h7.7425q2.4 0 2.4-2.4v-35.285q0-2.4-2.4-2.4h-7.7425q-2.4 0-2.4 2.4z" clip-path="url(#a)" fill="#fff" stroke="#fff"/>
<g clip-path="url(#a)">
<g transform="translate(781.61 695.53) rotate(90) scale(.08 -.08)">
<use xlink:href="#l"/>
<use x="60.818359" xlink:href="#f"/>
<use x="122.341797" xlink:href="#j"/>
<use x="163.439453" xlink:href="#k"/>
<use x="260.851562" xlink:href="#i"/>
<use x="288.634766" xlink:href="#g"/>
<use x="352.013672" xlink:href="#d"/>
<use x="413.292969" xlink:href="#h"/>
</g>
</g>
<path d="m908.07 612.53 1.3019 5.4324q0.55932 2.3339 2.8932 1.7746l7.5293-1.8044q2.3339-0.55932 1.7746-2.8932l-1.3019-5.4324q-0.55932-2.3339-2.8932-1.7746l-7.5293 1.8044q-2.3339 0.55932-1.7746 2.8932z" clip-path="url(#a)" fill="#fff" stroke="#fff"/>
<g clip-path="url(#a)">
<g transform="translate(912.02 611.58) rotate(76.523) scale(.08 -.08)">
<use xlink:href="#ah"/>
</g>
</g>
<path d="m896.45 617.95 1.2955-5.4057q0.55932-2.3339-1.7746-2.8932l-7.5293-1.8044q-2.3339-0.55932-2.8932 1.7746l-1.2955 5.4057q-0.55932 2.3339 1.7746 2.8932l7.5293 1.8044q2.3339 0.55932 2.8932-1.7746z" clip-path="url(#a)" fill="#fff" stroke="#fff"/>
<g clip-path="url(#a)">
<g transform="translate(892.5 617) rotate(-76.523) scale(.08 -.08)">
<use xlink:href="#ak"/>
</g>
</g>
<path d="m920.45 695.53v35.285q0 2.4 2.4 2.4h7.7425q2.4 0 2.4-2.4v-35.285q0-2.4-2.4-2.4h-7.7425q-2.4 0-2.4 2.4z" clip-path="url(#a)" fill="#fff" stroke="#fff"/>
<g clip-path="url(#a)">
<g transform="translate(924.52 695.53) rotate(90) scale(.08 -.08)">
<use xlink:href="#l"/>
<use x="60.818359" xlink:href="#f"/>
<use x="122.341797" xlink:href="#j"/>
<use x="163.439453" xlink:href="#k"/>
<use x="260.851562" xlink:href="#i"/>
<use x="288.634766" xlink:href="#g"/>
<use x="352.013672" xlink:href="#d"/>
<use x="413.292969" xlink:href="#h"/>
</g>
</g>
<path d="m1015.7 695.53v35.285q0 2.4 2.4 2.4h7.7425q2.4 0 2.4-2.4v-35.285q0-2.4-2.4-2.4h-7.7425q-2.4 0-2.4 2.4z" clip-path="url(#a)" fill="#fff" stroke="#fff"/>
<g clip-path="url(#a)">
<g transform="translate(1019.8 695.53) rotate(90) scale(.08 -.08)">
<use xlink:href="#l"/>
<use x="60.818359" xlink:href="#f"/>
<use x="122.341797" xlink:href="#j"/>
<use x="163.439453" xlink:href="#k"/>
<use x="260.851562" xlink:href="#i"/>
<use x="288.634766" xlink:href="#g"/>
<use x="352.013672" xlink:href="#d"/>
<use x="413.292969" xlink:href="#h"/>
</g>
</g>
<path d="m1138.4 561.88 1.0867 5.4795q0.46689 2.3541 2.821 1.8873l7.5946-1.5062q2.3541-0.46689 1.8873-2.821l-1.0867-5.4795q-0.46689-2.3541-2.821-1.8873l-7.5946 1.5062q-2.3541 0.46689-1.8873 2.821z" clip-path="url(#a)" fill="#fff" stroke="#fff"/>
<g clip-path="url(#a)">
<g transform="translate(1142.3 561.09) rotate(78.782) scale(.08 -.08)">
<use xlink:href="#ah"/>
</g>
</g>
<path d="m1102.8 567.29 1.231-4.4335q0.64209-2.3125-1.6704-2.9546l-7.4603-2.0714q-2.3125-0.64209-2.9546 1.6704l-1.231 4.4335q-0.64209 2.3125 1.6704 2.9546l7.4603 2.0714q2.3125 0.64209 2.9546-1.6704z" clip-path="url(#a)" fill="#fff" stroke="#fff"/>
<g clip-path="url(#a)">
<g transform="translate(1098.9 566.2) rotate(-74.482) scale(.08 -.08)">
<use xlink:href="#x"/>
</g>
</g>
<path d="m1126.6 512.18 0.78682 4.9934q0.37357 2.3707 2.7443 1.9972l7.6481-1.2051q2.3707-0.37357 1.9972-2.7443l-0.78682-4.9934q-0.37357-2.3707-2.7443-1.9972l-7.6481 1.2051q-2.3707 0.37357-1.9972 2.7443z" clip-path="url(#a)" fill="#fff" stroke="#fff"/>
<g clip-path="url(#a)">
<defs>
<path id="an" d="m9.8125 72.906h46.094v-8.3125h-36.234v-21.578h34.719v-8.2969h-34.719v-26.422h37.109v-8.2969h-46.969z"/>
</defs>
<g transform="translate(1130.6 511.55) rotate(81.045) scale(.08 -.08)">
<use xlink:href="#an"/>
</g>
</g>
<path d="m1158.6 695.53v35.285q0 2.4 2.4 2.4h7.7425q2.4 0 2.4-2.4v-35.285q0-2.4-2.4-2.4h-7.7425q-2.4 0-2.4 2.4z" clip-path="url(#a)" fill="#fff" stroke="#fff"/>
<g clip-path="url(#a)">
<g transform="translate(1162.7 695.53) rotate(90) scale(.08 -.08)">
<use xlink:href="#l"/>
<use x="60.818359" xlink:href="#f"/>
<use x="122.341797" xlink:href="#j"/>
<use x="163.439453" xlink:href="#k"/>
<use x="260.851562" xlink:href="#i"/>
<use x="288.634766" xlink:href="#g"/>
<use x="352.013672" xlink:href="#d"/>
<use x="413.292969" xlink:href="#h"/>
</g>
</g>
<path d="m1253.9 695.53v35.285q0 2.4 2.4 2.4h7.7425q2.4 0 2.4-2.4v-35.285q0-2.4-2.4-2.4h-7.7425q-2.4 0-2.4 2.4z" clip-path="url(#a)" fill="#fff" stroke="#fff"/>
<g clip-path="url(#a)">
<g transform="translate(1258 695.53) rotate(90) scale(.08 -.08)">
<use xlink:href="#l"/>
<use x="60.818359" xlink:href="#f"/>
<use x="122.341797" xlink:href="#j"/>
<use x="163.439453" xlink:href="#k"/>
<use x="260.851562" xlink:href="#i"/>
<use x="288.634766" xlink:href="#g"/>
<use x="352.013672" xlink:href="#d"/>
<use x="413.292969" xlink:href="#h"/>
</g>
</g>
<path d="m1204.1 619.66 3.1945-4.4433q1.401-1.9487-0.54768-3.3496l-6.2865-4.5196q-1.9487-1.401-3.3496 0.54768l-3.1945 4.4433q-1.401 1.9487 0.54768 3.3496l6.2865 4.5196q1.9487 1.401 3.3496-0.54768z" clip-path="url(#a)" fill="#fff" stroke="#fff"/>
<g clip-path="url(#a)">
<g transform="translate(1200.8 617.29) rotate(-54.286) scale(.08 -.08)">
<use xlink:href="#o"/>
</g>
</g>
<path d="m1265.6 615.48 2.8158 3.9166q1.401 1.9487 3.3496 0.54768l6.2865-4.5196q1.9487-1.401 0.54768-3.3496l-2.8158-3.9166q-1.401-1.9487-3.3496-0.54768l-6.2865 4.5196q-1.9487 1.401-0.54768 3.3496z" clip-path="url(#a)" fill="#fff" stroke="#fff"/>
<g clip-path="url(#a)">
<g transform="translate(1268.9 613.11) rotate(54.286) scale(.08 -.08)">
<use xlink:href="#q"/>
</g>
</g>
<path d="m1301.5 695.53v35.285q0 2.4 2.4 2.4h7.7425q2.4 0 2.4-2.4v-35.285q0-2.4-2.4-2.4h-7.7425q-2.4 0-2.4 2.4z" clip-path="url(#a)" fill="#fff" stroke="#fff"/>
<g clip-path="url(#a)">
<g transform="translate(1305.6 695.53) rotate(90) scale(.08 -.08)">
<use xlink:href="#l"/>
<use x="60.818359" xlink:href="#f"/>
<use x="122.341797" xlink:href="#j"/>
<use x="163.439453" xlink:href="#k"/>
<use x="260.851562" xlink:href="#i"/>
<use x="288.634766" xlink:href="#g"/>
<use x="352.013672" xlink:href="#d"/>
<use x="413.292969" xlink:href="#h"/>
</g>
</g>
<path d="m1349.2 695.53v35.285q0 2.4 2.4 2.4h7.7425q2.4 0 2.4-2.4v-35.285q0-2.4-2.4-2.4h-7.7425q-2.4 0-2.4 2.4z" clip-path="url(#a)" fill="#fff" stroke="#fff"/>
<g clip-path="url(#a)">
<g transform="translate(1353.2 695.53) rotate(90) scale(.08 -.08)">
<use xlink:href="#l"/>
<use x="60.818359" xlink:href="#f"/>
<use x="122.341797" xlink:href="#j"/>
<use x="163.439453" xlink:href="#k"/>
<use x="260.851562" xlink:href="#i"/>
<use x="288.634766" xlink:href="#g"/>
<use x="352.013672" xlink:href="#d"/>
<use x="413.292969" xlink:href="#h"/>
</g>
</g>
<path d="m1396.8 695.53v35.285q0 2.4 2.4 2.4h7.7425q2.4 0 2.4-2.4v-35.285q0-2.4-2.4-2.4h-7.7425q-2.4 0-2.4 2.4z" clip-path="url(#a)" fill="#fff" stroke="#fff"/>
<g clip-path="url(#a)">
<g transform="translate(1400.9 695.53) rotate(90) scale(.08 -.08)">
<use xlink:href="#l"/>
<use x="60.818359" xlink:href="#f"/>
<use x="122.341797" xlink:href="#j"/>
<use x="163.439453" xlink:href="#k"/>
<use x="260.851562" xlink:href="#i"/>
<use x="288.634766" xlink:href="#g"/>
<use x="352.013672" xlink:href="#d"/>
<use x="413.292969" xlink:href="#h"/>
</g>
</g>
<path d="m634.64 695.53v35.285q0 2.4 2.4 2.4h7.7425q2.4 0 2.4-2.4v-35.285q0-2.4-2.4-2.4h-7.7425q-2.4 0-2.4 2.4z" clip-path="url(#a)" fill="#fff" stroke="#fff"/>
<g clip-path="url(#a)">
<g transform="translate(638.7 695.53) rotate(90) scale(.08 -.08)">
<use xlink:href="#l"/>
<use x="60.818359" xlink:href="#f"/>
<use x="122.341797" xlink:href="#j"/>
<use x="163.439453" xlink:href="#k"/>
<use x="260.851562" xlink:href="#i"/>
<use x="288.634766" xlink:href="#g"/>
<use x="352.013672" xlink:href="#d"/>
<use x="413.292969" xlink:href="#h"/>
</g>
</g>
<path d="m872.82 695.53v35.285q0 2.4 2.4 2.4h7.7425q2.4 0 2.4-2.4v-35.285q0-2.4-2.4-2.4h-7.7425q-2.4 0-2.4 2.4z" clip-path="url(#a)" fill="#fff" stroke="#fff"/>
<g clip-path="url(#a)">
<g transform="translate(876.88 695.53) rotate(90) scale(.08 -.08)">
<use xlink:href="#l"/>
<use x="60.818359" xlink:href="#f"/>
<use x="122.341797" xlink:href="#j"/>
<use x="163.439453" xlink:href="#k"/>
<use x="260.851562" xlink:href="#i"/>
<use x="288.634766" xlink:href="#g"/>
<use x="352.013672" xlink:href="#d"/>
<use x="413.292969" xlink:href="#h"/>
</g>
</g>
<path d="m1063.4 695.53v35.285q0 2.4 2.4 2.4h7.7425q2.4 0 2.4-2.4v-35.285q0-2.4-2.4-2.4h-7.7425q-2.4 0-2.4 2.4z" clip-path="url(#a)" fill="#fff" stroke="#fff"/>
<g clip-path="url(#a)">
<g transform="translate(1067.4 695.53) rotate(90) scale(.08 -.08)">
<use xlink:href="#l"/>
<use x="60.818359" xlink:href="#f"/>
<use x="122.341797" xlink:href="#j"/>
<use x="163.439453" xlink:href="#k"/>
<use x="260.851562" xlink:href="#i"/>
<use x="288.634766" xlink:href="#g"/>
<use x="352.013672" xlink:href="#d"/>
<use x="413.292969" xlink:href="#h"/>
</g>
</g>
<path d="m1146.3 612.58 1.2754 5.3218q0.55932 2.3339 2.8932 1.7746l7.5293-1.8044q2.3339-0.55932 1.7746-2.8932l-1.2754-5.3218q-0.55932-2.3339-2.8932-1.7746l-7.5293 1.8044q-2.3339 0.55932-1.7746 2.8932z" clip-path="url(#a)" fill="#fff" stroke="#fff"/>
<g clip-path="url(#a)">
<g transform="translate(1150.2 611.64) rotate(76.523) scale(.08 -.08)">
<use xlink:href="#o"/>
</g>
</g>
<path d="m1134.7 617.71 1.1836-4.9389q0.55932-2.3339-1.7746-2.8932l-7.5293-1.8044q-2.3339-0.55932-2.8932 1.7746l-1.1836 4.9389q-0.55932 2.3339 1.7746 2.8932l7.5293 1.8044q2.3339 0.55932 2.8932-1.7746z" clip-path="url(#a)" fill="#fff" stroke="#fff"/>
<g clip-path="url(#a)">
<defs>
<path id="as" d="m53.516 70.516v-9.625q-5.6094 2.6875-10.594 4-4.9844 1.3281-9.625 1.3281-8.0469 0-12.422-3.125t-4.375-8.8906q0-4.8438 2.9062-7.3125 2.9062-2.4531 11.016-3.9688l5.9531-1.2188q11.031-2.1094 16.281-7.4062t5.25-14.172q0-10.609-7.1094-16.078-7.0938-5.4688-20.812-5.4688-5.1719 0-11.016 1.1719-5.8281 1.1719-12.078 3.4688v10.156q6-3.3594 11.766-5.0781 5.7656-1.7031 11.328-1.7031 8.4375 0 13.031 3.3125 4.5938 3.3281 4.5938 9.4844 0 5.3594-3.2969 8.3906t-10.812 4.5469l-6.0156 1.1719q-11.031 2.1875-15.969 6.875-4.9219 4.6875-4.9219 13.047 0 9.6719 6.8125 15.234t18.766 5.5625q5.1406 0 10.453-0.9375 5.3281-0.92188 10.891-2.7656z"/>
</defs>
<g transform="translate(1130.7 616.77) rotate(-76.523) scale(.08 -.08)">
<use xlink:href="#as"/>
</g>
</g>
<path d="m1111 695.53v35.285q0 2.4 2.4 2.4h7.7425q2.4 0 2.4-2.4v-35.285q0-2.4-2.4-2.4h-7.7425q-2.4 0-2.4 2.4z" clip-path="url(#a)" fill="#fff" stroke="#fff"/>
<g clip-path="url(#a)">
<g transform="translate(1115.1 695.53) rotate(90) scale(.08 -.08)">
<use xlink:href="#l"/>
<use x="60.818359" xlink:href="#f"/>
<use x="122.341797" xlink:href="#j"/>
<use x="163.439453" xlink:href="#k"/>
<use x="260.851562" xlink:href="#i"/>
<use x="288.634766" xlink:href="#g"/>
<use x="352.013672" xlink:href="#d"/>
<use x="413.292969" xlink:href="#h"/>
</g>
</g>
<path d="m1247.8 560.7 0.36586 6.1491q0.14254 2.3958 2.5383 2.2532l7.7288-0.45985q2.3958-0.14254 2.2532-2.5383l-0.36586-6.1491q-0.14254-2.3958-2.5383-2.2532l-7.7288 0.45985q-2.3958 0.14254-2.2532 2.5383z" clip-path="url(#a)" fill="#fff" stroke="#fff"/>
<g clip-path="url(#a)">
<g transform="translate(1251.8 560.45) rotate(86.595) scale(.08 -.08)">
<use xlink:href="#ag"/>
</g>
</g>
<path d="m1248.2 517.16 0.64227-5.4347q0.28167-2.3834-2.1017-2.6651l-7.689-0.90868q-2.3834-0.28167-2.6651 2.1017l-0.64227 5.4347q-0.28167 2.3834 2.1017 2.6651l7.689 0.90868q2.3834 0.28167 2.6651-2.1017z" clip-path="url(#a)" fill="#fff" stroke="#fff"/>
<g clip-path="url(#a)">
<g transform="translate(1244.2 516.68) rotate(-83.26) scale(.08 -.08)">
<use xlink:href="#o"/>
</g>
</g>
<defs>
<path id="b" d="m0 8.6603c2.2967 0 4.4997-0.9125 6.1237-2.5365 1.624-1.624 2.5365-3.827 2.5365-6.1237s-0.9125-4.4997-2.5365-6.1237c-1.624-1.624-3.827-2.5365-6.1237-2.5365s-4.4997 0.9125-6.1237 2.5365c-1.624 1.624-2.5365 3.827-2.5365 6.1237s0.9125 4.4997 2.5365 6.1237c1.624 1.624 3.827 2.5365 6.1237 2.5365z"/>
</defs>
<g clip-path="url(#a)">
<use x="69.28632" y="762.861723" fill="#ffffff" stroke="#ffffff" xlink:href="#b"/>
</g>
<g clip-path="url(#a)">
<use x="116.921747" y="762.861723" fill="#ffffff" stroke="#ffffff" xlink:href="#b"/>
</g>
<g clip-path="url(#a)">
<use x="164.557173" y="762.861723" fill="#ffffff" stroke="#ffffff" xlink:href="#b"/>
</g>
<g clip-path="url(#a)">
<use x="212.192599" y="762.861723" fill="#ffffff" stroke="#ffffff" xlink:href="#b"/>
</g>
<g clip-path="url(#a)">
<use x="259.828025" y="762.861723" fill="#ffffff" stroke="#ffffff" xlink:href="#b"/>
</g>
<g clip-path="url(#a)">
<use x="307.463451" y="762.861723" fill="#ffffff" stroke="#ffffff" xlink:href="#b"/>
</g>
<g clip-path="url(#a)">
<use x="355.098877" y="762.861723" fill="#ffffff" stroke="#ffffff" xlink:href="#b"/>
</g>
<g clip-path="url(#a)">
<use x="402.734304" y="762.861723" fill="#ffffff" stroke="#ffffff" xlink:href="#b"/>
</g>
<g clip-path="url(#a)">
<use x="450.36973" y="762.861723" fill="#ffffff" stroke="#ffffff" xlink:href="#b"/>
</g>
<g clip-path="url(#a)">
<use x="498.005156" y="762.861723" fill="#ffffff" stroke="#ffffff" xlink:href="#b"/>
</g>
<g clip-path="url(#a)">
<use x="545.640582" y="762.861723" fill="#ffffff" stroke="#ffffff" xlink:href="#b"/>
</g>
<g clip-path="url(#a)">
<use x="593.276008" y="762.861723" fill="#ffffff" stroke="#ffffff" xlink:href="#b"/>
</g>
<g clip-path="url(#a)">
<use x="640.911435" y="762.861723" fill="#ffffff" stroke="#ffffff" xlink:href="#b"/>
</g>
<g clip-path="url(#a)">
<use x="688.546861" y="762.861723" fill="#ffffff" stroke="#ffffff" xlink:href="#b"/>
</g>
<g clip-path="url(#a)">
<use x="736.182287" y="762.861723" fill="#ffffff" stroke="#ffffff" xlink:href="#b"/>
</g>
<g clip-path="url(#a)">
<use x="783.817713" y="762.861723" fill="#ffffff" stroke="#ffffff" xlink:href="#b"/>
</g>
<g clip-path="url(#a)">
<use x="831.453139" y="762.861723" fill="#ffffff" stroke="#ffffff" xlink:href="#b"/>
</g>
<g clip-path="url(#a)">
<use x="879.088565" y="762.861723" fill="#ffffff" stroke="#ffffff" xlink:href="#b"/>
</g>
<g clip-path="url(#a)">
<use x="926.723992" y="762.861723" fill="#ffffff" stroke="#ffffff" xlink:href="#b"/>
</g>
<g clip-path="url(#a)">
<use x="974.359418" y="762.861723" fill="#ffffff" stroke="#ffffff" xlink:href="#b"/>
</g>
<g clip-path="url(#a)">
<use x="1021.994844" y="762.861723" fill="#ffffff" stroke="#ffffff" xlink:href="#b"/>
</g>
<g clip-path="url(#a)">
<use x="1069.63027" y="762.861723" fill="#ffffff" stroke="#ffffff" xlink:href="#b"/>
</g>
<g clip-path="url(#a)">
<use x="1117.265696" y="762.861723" fill="#ffffff" stroke="#ffffff" xlink:href="#b"/>
</g>
<g clip-path="url(#a)">
<use x="1164.901123" y="762.861723" fill="#ffffff" stroke="#ffffff" xlink:href="#b"/>
</g>
<g clip-path="url(#a)">
<use x="1212.536549" y="762.861723" fill="#ffffff" stroke="#ffffff" xlink:href="#b"/>
</g>
<g clip-path="url(#a)">
<use x="1260.171975" y="762.861723" fill="#ffffff" stroke="#ffffff" xlink:href="#b"/>
</g>
<g clip-path="url(#a)">
<use x="1307.807401" y="762.861723" fill="#ffffff" stroke="#ffffff" xlink:href="#b"/>
</g>
<g clip-path="url(#a)">
<use x="1355.442827" y="762.861723" fill="#ffffff" stroke="#ffffff" xlink:href="#b"/>
</g>
<g clip-path="url(#a)">
<use x="1403.078253" y="762.861723" fill="#ffffff" stroke="#ffffff" xlink:href="#b"/>
</g>
<g clip-path="url(#a)">
<use x="1450.71368" y="762.861723" fill="#ffffff" stroke="#ffffff" xlink:href="#b"/>
</g>
<g clip-path="url(#a)">
<use x="325.940704" y="37.138277" fill="#ffffff" stroke="#ffffff" xlink:href="#b"/>
</g>
<g clip-path="url(#a)">
<use x="725.35846" y="147.837206" fill="#ffffff" stroke="#ffffff" xlink:href="#b"/>
</g>
<g clip-path="url(#a)">
<use x="498.005156" y="663.475298" fill="#ffffff" stroke="#ffffff" xlink:href="#b"/>
</g>
<g clip-path="url(#a)">
<use x="69.28632" y="663.475298" fill="#ffffff" stroke="#ffffff" xlink:href="#b"/>
</g>
<g clip-path="url(#a)">
<use x="172.49641" y="463.319874" fill="#ffffff" stroke="#ffffff" xlink:href="#b"/>
</g>
<g clip-path="url(#a)">
<use x="164.557173" y="663.475298" fill="#ffffff" stroke="#ffffff" xlink:href="#b"/>
</g>
<g clip-path="url(#a)">
<use x="402.734304" y="663.475298" fill="#ffffff" stroke="#ffffff" xlink:href="#b"/>
</g>
<g clip-path="url(#a)">
<use x="450.36973" y="663.475298" fill="#ffffff" stroke="#ffffff" xlink:href="#b"/>
</g>
<g clip-path="url(#a)">
<use x="824.969428" y="255.560852" fill="#ffffff" stroke="#ffffff" xlink:href="#b"/>
</g>
<g clip-path="url(#a)">
<use x="593.276008" y="663.475298" fill="#ffffff" stroke="#ffffff" xlink:href="#b"/>
</g>
<g clip-path="url(#a)">
<use x="1450.71368" y="663.475298" fill="#ffffff" stroke="#ffffff" xlink:href="#b"/>
</g>
<g clip-path="url(#a)">
<use x="116.921747" y="663.475298" fill="#ffffff" stroke="#ffffff" xlink:href="#b"/>
</g>
<g clip-path="url(#a)">
<use x="236.010312" y="564.088873" fill="#ffffff" stroke="#ffffff" xlink:href="#b"/>
</g>
<g clip-path="url(#a)">
<use x="259.828025" y="663.475298" fill="#ffffff" stroke="#ffffff" xlink:href="#b"/>
</g>
<g clip-path="url(#a)">
<use x="307.463451" y="663.475298" fill="#ffffff" stroke="#ffffff" xlink:href="#b"/>
</g>
<g clip-path="url(#a)">
<use x="355.098877" y="663.475298" fill="#ffffff" stroke="#ffffff" xlink:href="#b"/>
</g>
<g clip-path="url(#a)">
<use x="545.640582" y="663.475298" fill="#ffffff" stroke="#ffffff" xlink:href="#b"/>
</g>
<g clip-path="url(#a)">
<use x="783.817713" y="463.319874" fill="#ffffff" stroke="#ffffff" xlink:href="#b"/>
</g>
<g clip-path="url(#a)">
<use x="831.453139" y="663.475298" fill="#ffffff" stroke="#ffffff" xlink:href="#b"/>
</g>
<g clip-path="url(#a)">
<use x="974.359418" y="663.475298" fill="#ffffff" stroke="#ffffff" xlink:href="#b"/>
</g>
<g clip-path="url(#a)">
<use x="1227.753421" y="360.610491" fill="#ffffff" stroke="#ffffff" xlink:href="#b"/>
</g>
<g clip-path="url(#a)">
<use x="1212.536549" y="663.475298" fill="#ffffff" stroke="#ffffff" xlink:href="#b"/>
</g>
<g clip-path="url(#a)">
<use x="212.192599" y="663.475298" fill="#ffffff" stroke="#ffffff" xlink:href="#b"/>
</g>
<g clip-path="url(#a)">
<use x="664.729148" y="564.088873" fill="#ffffff" stroke="#ffffff" xlink:href="#b"/>
</g>
<g clip-path="url(#a)">
<use x="688.546861" y="663.475298" fill="#ffffff" stroke="#ffffff" xlink:href="#b"/>
</g>
<g clip-path="url(#a)">
<use x="736.182287" y="663.475298" fill="#ffffff" stroke="#ffffff" xlink:href="#b"/>
</g>
<g clip-path="url(#a)">
<use x="783.817713" y="663.475298" fill="#ffffff" stroke="#ffffff" xlink:href="#b"/>
</g>
<g clip-path="url(#a)">
<use x="902.906279" y="564.088873" fill="#ffffff" stroke="#ffffff" xlink:href="#b"/>
</g>
<g clip-path="url(#a)">
<use x="926.723992" y="663.475298" fill="#ffffff" stroke="#ffffff" xlink:href="#b"/>
</g>
<g clip-path="url(#a)">
<use x="1021.994844" y="663.475298" fill="#ffffff" stroke="#ffffff" xlink:href="#b"/>
</g>
<g clip-path="url(#a)">
<use x="1125.204934" y="463.319874" fill="#ffffff" stroke="#ffffff" xlink:href="#b"/>
</g>
<g clip-path="url(#a)">
<use x="1164.901123" y="663.475298" fill="#ffffff" stroke="#ffffff" xlink:href="#b"/>
</g>
<g clip-path="url(#a)">
<use x="1260.171975" y="663.475298" fill="#ffffff" stroke="#ffffff" xlink:href="#b"/>
</g>
<g clip-path="url(#a)">
<use x="1236.354262" y="564.088873" fill="#ffffff" stroke="#ffffff" xlink:href="#b"/>
</g>
<g clip-path="url(#a)">
<use x="1307.807401" y="663.475298" fill="#ffffff" stroke="#ffffff" xlink:href="#b"/>
</g>
<g clip-path="url(#a)">
<use x="1355.442827" y="663.475298" fill="#ffffff" stroke="#ffffff" xlink:href="#b"/>
</g>
<g clip-path="url(#a)">
<use x="1403.078253" y="663.475298" fill="#ffffff" stroke="#ffffff" xlink:href="#b"/>
</g>
<g clip-path="url(#a)">
<use x="640.911435" y="663.475298" fill="#ffffff" stroke="#ffffff" xlink:href="#b"/>
</g>
<g clip-path="url(#a)">
<use x="879.088565" y="663.475298" fill="#ffffff" stroke="#ffffff" xlink:href="#b"/>
</g>
<g clip-path="url(#a)">
<use x="1069.63027" y="663.475298" fill="#ffffff" stroke="#ffffff" xlink:href="#b"/>
</g>
<g clip-path="url(#a)">
<use x="1141.083409" y="564.088873" fill="#ffffff" stroke="#ffffff" xlink:href="#b"/>
</g>
<g clip-path="url(#a)">
<use x="1117.265696" y="663.475298" fill="#ffffff" stroke="#ffffff" xlink:href="#b"/>
</g>
<g clip-path="url(#a)">
<use x="1248.263118" y="463.319874" fill="#ffffff" stroke="#ffffff" xlink:href="#b"/>
</g>
<g clip-path="url(#a)">
<defs>
<path id="ai" d="m3.3281 72.906h9.9531l15.328-61.625 15.281 61.625h11.094l15.328-61.625 15.281 61.625h10.016l-18.312-72.906h-12.406l-15.375 63.281-15.531-63.281h-12.406z"/>
<path id="s" d="m54.891 33.016v-33.016h-8.9844v32.719q0 7.7656-3.0312 11.609-3.0312 3.8594-9.0781 3.8594-7.2812 0-11.484-4.6406-4.2031-4.625-4.2031-12.641v-30.906h-9.0312v75.984h9.0312v-29.797q3.2344 4.9375 7.5938 7.375 4.375 2.4375 10.094 2.4375 9.4219 0 14.25-5.8281 4.8438-5.8281 4.8438-17.156z"/>
</defs>
<g transform="translate(54.929 765.62) scale(.1 -.1)">
<use xlink:href="#ai"/>
<use x="98.876953" xlink:href="#s"/>
<use x="162.255859" xlink:href="#f"/>
<use x="223.779297" xlink:href="#g"/>
</g>
</g>
<g clip-path="url(#a)">
<defs>
<path id="au" d="m9.8125 72.906h9.8594v-72.906h-9.8594z"/>
</defs>
<g transform="translate(115.45 765.62) scale(.1 -.1)">
<use xlink:href="#au"/>
</g>
</g>
<g clip-path="url(#a)">
<defs>
<path id="w" d="m48.781 52.594v-8.4062q-3.8125 2.1094-7.6406 3.1562t-7.7344 1.0469q-8.75 0-13.594-5.5469-4.8281-5.5312-4.8281-15.547t4.8281-15.562q4.8438-5.5312 13.594-5.5312 3.9062 0 7.7344 1.0469t7.6406 3.1562v-8.3125q-3.7656-1.75-7.7969-2.625-4.0156-0.89062-8.5625-0.89062-12.359 0-19.641 7.7656-7.2656 7.7656-7.2656 20.953 0 13.375 7.3438 21.031 7.3594 7.6719 20.156 7.6719 4.1406 0 8.0938-0.85938 3.9531-0.84375 7.6719-2.5469z"/>
<path id="u" d="m45.406 46.391v29.594h8.9844v-75.984h-8.9844v8.2031q-2.8281-4.875-7.1562-7.25-4.3125-2.375-10.375-2.375-9.9062 0-16.141 7.9062-6.2188 7.9219-6.2188 20.812t6.2188 20.797q6.2344 7.9062 16.141 7.9062 6.0625 0 10.375-2.375 4.3281-2.3594 7.1562-7.2344zm-30.609-19.094q0-9.9062 4.0781-15.547t11.203-5.6406 11.219 5.6406q4.1094 5.6406 4.1094 15.547t-4.1094 15.547q-4.0938 5.6406-11.219 5.6406t-11.203-5.6406-4.0781-15.547z"/>
</defs>
<g transform="translate(149.71 765.62) scale(.1 -.1)">
<use xlink:href="#w"/>
<use x="54.980469" xlink:href="#d"/>
<use x="116.259766" xlink:href="#h"/>
<use x="144.042969" xlink:href="#h"/>
<use x="171.826172" xlink:href="#f"/>
<use x="233.349609" xlink:href="#u"/>
</g>
</g>
<g clip-path="url(#a)">
<defs>
<path id="p" d="m18.312 70.219v-15.531h18.5v-6.9844h-18.5v-29.688q0-6.6875 1.8281-8.5938t7.4531-1.9062h9.2188v-7.5156h-9.2188q-10.406 0-14.359 3.875-3.9531 3.8906-3.9531 14.141v29.688h-6.5938v6.9844h6.5938v15.531z"/>
</defs>
<g transform="translate(203.99 765.62) scale(.1 -.1)">
<use xlink:href="#p"/>
<use x="39.208984" xlink:href="#s"/>
<use x="102.587891" xlink:href="#f"/>
</g>
</g>
<g clip-path="url(#a)">
<defs>
<path id="aq" d="m45.406 27.984q0 9.7656-4.0312 15.125-4.0156 5.375-11.297 5.375-7.2188 0-11.25-5.375-4.0312-5.3594-4.0312-15.125 0-9.7188 4.0312-15.094t11.25-5.375q7.2812 0 11.297 5.375 4.0312 5.375 4.0312 15.094zm8.9844-21.203q0-13.953-6.2031-20.766-6.1875-6.8125-18.984-6.8125-4.7344 0-8.9375 0.70312t-8.1562 2.1719v8.7344q3.9531-2.1406 7.8125-3.1562 3.8594-1.0312 7.8594-1.0312 8.8438 0 13.234 4.6094t4.3906 13.938v4.4531q-2.7812-4.8438-7.125-7.2344t-10.406-2.3906q-10.047 0-16.203 7.6562-6.1562 7.6719-6.1562 20.328 0 12.688 6.1562 20.344 6.1562 7.6719 16.203 7.6719 6.0625 0 10.406-2.3906t7.125-7.2188v8.2969h8.9844z"/>
</defs>
<g transform="translate(237.35 765.62) scale(.1 -.1)">
<use xlink:href="#k"/>
<use x="97.412109" xlink:href="#d"/>
<use x="158.691406" xlink:href="#g"/>
<use x="222.070312" xlink:href="#d"/>
<use x="283.349609" xlink:href="#aq"/>
<use x="346.826172" xlink:href="#f"/>
<use x="408.349609" xlink:href="#j"/>
</g>
</g>
<g clip-path="url(#a)">
<defs>
<path id="y" d="m30.609 48.391q-7.2188 0-11.422-5.6406t-4.2031-15.453 4.1719-15.453q4.1875-5.6406 11.453-5.6406 7.1875 0 11.375 5.6562 4.2031 5.6719 4.2031 15.438 0 9.7188-4.2031 15.406-4.1875 5.6875-11.375 5.6875zm0 7.6094q11.719 0 18.406-7.625 6.7031-7.6094 6.7031-21.078 0-13.422-6.7031-21.078-6.6875-7.6406-18.406-7.6406-11.766 0-18.438 7.6406-6.6562 7.6562-6.6562 21.078 0 13.469 6.6562 21.078 6.6719 7.625 18.438 7.625z"/>
</defs>
<g transform="translate(302.44 765.62) scale(.1 -.1)">
<use xlink:href="#p"/>
<use x="39.208984" xlink:href="#y"/>
</g>
</g>
<g clip-path="url(#a)">
<defs>
<path id="az" d="m18.109 8.2031v-29h-9.0312v75.484h9.0312v-8.2969q2.8438 4.875 7.1562 7.2344 4.3281 2.375 10.328 2.375 9.9688 0 16.188-7.9062 6.2344-7.9062 6.2344-20.797t-6.2344-20.812q-6.2188-7.9062-16.188-7.9062-6 0-10.328 2.375-4.3125 2.375-7.1562 7.25zm30.578 19.094q0 9.9062-4.0781 15.547t-11.203 5.6406q-7.1406 0-11.219-5.6406t-4.0781-15.547 4.0781-15.547 11.219-5.6406q7.125 0 11.203 5.6406t4.0781 15.547z"/>
</defs>
<g transform="translate(332.23 765.62) scale(.1 -.1)">
<use xlink:href="#w"/>
<use x="54.980469" xlink:href="#y"/>
<use x="116.162109" xlink:href="#k"/>
<use x="213.574219" xlink:href="#az"/>
<use x="277.050781" xlink:href="#h"/>
<use x="304.833984" xlink:href="#d"/>
<use x="366.113281" xlink:href="#i"/>
<use x="393.896484" xlink:href="#g"/>
</g>
</g>
<g clip-path="url(#a)">
<defs>
<path id="av" d="m11.719 12.406h10.297v-8.4062l-8-15.625h-6.2969l4 15.625z"/>
</defs>
<g transform="translate(401.15 765.62) scale(.1 -.1)">
<use xlink:href="#av"/>
</g>
</g>
<g clip-path="url(#a)">
<defs>
<path id="t" d="m44.281 53.078v-8.5q-3.7969 1.9531-7.9062 2.9219-4.0938 0.98438-8.5 0.98438-6.6875 0-10.031-2.0469t-3.3438-6.1562q0-3.125 2.3906-4.9062t9.625-3.3906l3.0781-0.6875q9.5625-2.0469 13.594-5.7812t4.0312-10.422q0-7.625-6.0312-12.078-6.0312-4.4375-16.578-4.4375-4.3906 0-9.1562 0.85938t-10.031 2.5625v9.2812q4.9844-2.5938 9.8125-3.8906 4.8281-1.2812 9.5781-1.2812 6.3438 0 9.75 2.1719 3.4219 2.1719 3.4219 6.125 0 3.6562-2.4688 5.6094-2.4531 1.9531-10.812 3.7656l-3.125 0.73438q-8.3438 1.75-12.062 5.3906-3.7031 3.6406-3.7031 9.9844 0 7.7188 5.4688 11.906 5.4688 4.2031 15.531 4.2031 4.9688 0 9.3594-0.73438 4.4062-0.71875 8.1094-2.1875z"/>
</defs>
<g transform="translate(441.52 765.62) scale(.1 -.1)">
<use xlink:href="#t"/>
<use x="52.099609" xlink:href="#s"/>
<use x="115.478516" xlink:href="#f"/>
</g>
</g>
<g clip-path="url(#a)">
<g transform="translate(487.77 765.62) scale(.1 -.1)">
<use xlink:href="#t"/>
<use x="52.099609" xlink:href="#d"/>
<use x="113.378906" xlink:href="#i"/>
<use x="141.162109" xlink:href="#u"/>
</g>
</g>
<g clip-path="url(#a)">
<g transform="translate(536.79 765.62) scale(.1 -.1)">
<use xlink:href="#t"/>
<use x="52.099609" xlink:href="#s"/>
<use x="115.478516" xlink:href="#f"/>
</g>
</g>
<g clip-path="url(#a)">
<defs>
<path id="at" d="m9.8125 72.906h9.8594v-30.812l32.719 30.812h12.703l-36.188-33.984 38.766-38.922h-12.984l-35.016 35.109v-35.109h-9.8594z"/>
</defs>
<g transform="translate(578.15 765.62) scale(.1 -.1)">
<use xlink:href="#at"/>
<use x="65.576172" xlink:href="#al"/>
<use x="140.380859" xlink:href="#an"/>
<use x="203.564453" xlink:href="#ai"/>
</g>
</g>
<g clip-path="url(#a)">
<g transform="translate(632.71 765.62) scale(.1 -.1)">
<use xlink:href="#p"/>
<use x="39.208984" xlink:href="#s"/>
<use x="102.587891" xlink:href="#f"/>
</g>
</g>
<g clip-path="url(#a)">
<defs>
<path id="v" d="m8.5 21.578v33.109h8.9844v-32.766q0-7.7656 3.0156-11.656 3.0312-3.875 9.0938-3.875 7.2656 0 11.484 4.6406 4.2344 4.6406 4.2344 12.656v31h8.9844v-54.688h-8.9844v8.4062q-3.2656-4.9844-7.5938-7.4062-4.3125-2.4219-10.031-2.4219-9.4219 0-14.312 5.8594-4.875 5.8594-4.875 17.141z"/>
<path id="ao" d="m32.172-5.0781q-3.7969-9.7656-7.4219-12.734-3.6094-2.9844-9.6562-2.9844h-7.1875v7.5156h5.2812q3.7031 0 5.75 1.7656 2.0625 1.75 4.5469 8.2969l1.6094 4.0938-22.109 53.812h9.5156l17.094-42.766 17.094 42.766h9.5156z"/>
</defs>
<g transform="translate(679.24 765.62) scale(.1 -.1)">
<use xlink:href="#aq"/>
<use x="63.476562" xlink:href="#v"/>
<use x="126.855469" xlink:href="#ao"/>
</g>
</g>
<g clip-path="url(#a)">
<g transform="translate(728.44 765.62) scale(.1 -.1)">
<use xlink:href="#u"/>
<use x="63.476562" xlink:href="#i"/>
<use x="91.259766" xlink:href="#u"/>
</g>
</g>
<g clip-path="url(#a)">
<defs>
<path id="aw" d="m17.922 72.906v-27.109h-8.2969v27.109z"/>
</defs>
<g transform="translate(777.31 765.62) scale(.1 -.1)">
<use xlink:href="#g"/>
<use x="63.378906" xlink:href="#aw"/>
<use x="90.869141" xlink:href="#p"/>
</g>
</g>
<g clip-path="url(#a)">
<defs>
<path id="ap" d="m9.0781 75.984h9.0312v-44.875l26.812 23.578h11.469l-29-25.578 30.234-29.109h-11.719l-27.797 26.703v-26.703h-9.0312z"/>
<path id="ay" d="m4.2031 54.688h8.9844l11.234-42.672 11.172 42.672h10.594l11.234-42.672 11.188 42.672h8.9844l-14.312-54.688h-10.594l-11.766 44.828-11.812-44.828h-10.609z"/>
</defs>
<g transform="translate(818.24 765.62) scale(.1 -.1)">
<use xlink:href="#ap"/>
<use x="57.910156" xlink:href="#g"/>
<use x="121.289062" xlink:href="#y"/>
<use x="182.470703" xlink:href="#ay"/>
</g>
</g>
<g clip-path="url(#a)">
<defs>
<path id="ar" d="m48.688 27.297q0 9.9062-4.0781 15.547t-11.203 5.6406q-7.1406 0-11.219-5.6406t-4.0781-15.547 4.0781-15.547 11.219-5.6406q7.125 0 11.203 5.6406t4.0781 15.547zm-30.578 19.094q2.8438 4.875 7.1562 7.2344 4.3281 2.375 10.328 2.375 9.9688 0 16.188-7.9062 6.2344-7.9062 6.2344-20.797t-6.2344-20.812q-6.2188-7.9062-16.188-7.9062-6 0-10.328 2.375-4.3125 2.375-7.1562 7.25v-8.2031h-9.0312v75.984h9.0312z"/>
</defs>
<g transform="translate(864.66 765.62) scale(.1 -.1)">
<use xlink:href="#d"/>
<use x="61.279297" xlink:href="#ar"/>
<use x="124.755859" xlink:href="#y"/>
<use x="185.9375" xlink:href="#v"/>
<use x="249.316406" xlink:href="#p"/>
</g>
</g>
<g clip-path="url(#a)">
<g transform="translate(906.56 765.62) scale(.1 -.1)">
<use xlink:href="#w"/>
<use x="54.980469" xlink:href="#v"/>
<use x="118.359375" xlink:href="#j"/>
<use x="159.472656" xlink:href="#p"/>
<use x="198.681641" xlink:href="#d"/>
<use x="259.960938" xlink:href="#i"/>
<use x="287.744141" xlink:href="#g"/>
<use x="351.123047" xlink:href="#t"/>
</g>
</g>
<g clip-path="url(#a)">
<g transform="translate(964.95 765.62) scale(.1 -.1)">
<use xlink:href="#d"/>
<use x="61.279297" xlink:href="#g"/>
<use x="124.658203" xlink:href="#u"/>
</g>
</g>
<g clip-path="url(#a)">
<g transform="translate(1011.8 765.62) scale(.1 -.1)">
<use xlink:href="#p"/>
<use x="39.208984" xlink:href="#s"/>
<use x="102.587891" xlink:href="#d"/>
<use x="163.867188" xlink:href="#p"/>
</g>
</g>
<g clip-path="url(#a)">
<g transform="translate(1061.4 765.62) scale(.1 -.1)">
<use xlink:href="#p"/>
<use x="39.208984" xlink:href="#s"/>
<use x="102.587891" xlink:href="#f"/>
</g>
</g>
<g clip-path="url(#a)">
<g transform="translate(1103.9 765.62) scale(.1 -.1)">
<use xlink:href="#v"/>
<use x="63.378906" xlink:href="#t"/>
<use x="115.478516" xlink:href="#v"/>
<use x="178.857422" xlink:href="#d"/>
<use x="240.136719" xlink:href="#h"/>
</g>
</g>
<g clip-path="url(#a)">
<g transform="translate(1154.3 765.62) scale(.1 -.1)">
<use xlink:href="#h"/>
<use x="27.783203" xlink:href="#d"/>
<use x="89.0625" xlink:href="#u"/>
<use x="152.539062" xlink:href="#ao"/>
</g>
</g>
<g clip-path="url(#a)">
<g transform="translate(1197.7 765.62) scale(.1 -.1)">
<use xlink:href="#w"/>
<use x="54.980469" xlink:href="#d"/>
<use x="116.259766" xlink:href="#h"/>
<use x="144.042969" xlink:href="#h"/>
<use x="171.826172" xlink:href="#f"/>
<use x="233.349609" xlink:href="#u"/>
</g>
</g>
<g clip-path="url(#a)">
<g transform="translate(1255.6 765.62) scale(.1 -.1)">
<use xlink:href="#i"/>
<use x="27.783203" xlink:href="#g"/>
</g>
</g>
<g clip-path="url(#a)">
<g transform="translate(1298.2 765.62) scale(.1 -.1)">
<use xlink:href="#t"/>
<use x="52.099609" xlink:href="#i"/>
<use x="79.882812" xlink:href="#w"/>
<use x="134.863281" xlink:href="#ap"/>
</g>
</g>
<g clip-path="url(#a)">
<g transform="translate(1341.4 765.62) scale(.1 -.1)">
<use xlink:href="#s"/>
<use x="63.378906" xlink:href="#y"/>
<use x="124.560547" xlink:href="#v"/>
<use x="187.939453" xlink:href="#j"/>
<use x="229.052734" xlink:href="#t"/>
</g>
</g>
<g clip-path="url(#a)">
<g transform="translate(1387 765.62) scale(.1 -.1)">
<use xlink:href="#f"/>
<use x="61.523438" xlink:href="#d"/>
<use x="122.802734" xlink:href="#j"/>
<use x="163.916016" xlink:href="#h"/>
<use x="191.699219" xlink:href="#i"/>
<use x="219.482422" xlink:href="#f"/>
<use x="281.005859" xlink:href="#j"/>
</g>
</g>
<g clip-path="url(#a)">
<defs>
<path id="ax" d="m15.094 12.406h9.9062v-12.406h-9.9062zm0 60.5h9.9062v-31.984l-0.96875-17.438h-7.9219l-1.0156 17.438z"/>
</defs>
<g transform="translate(1448.7 765.62) scale(.1 -.1)">
<use xlink:href="#ax"/>
</g>
</g>
<g clip-path="url(#a)">
<defs>
<path id="c" d="m12.406 8.2969h16.109v55.625l-17.531-3.5156v8.9844l17.438 3.5156h9.8594v-64.609h16.109v-8.2969h-41.984z"/>
<path id="e" d="m10.688 12.406h10.312v-12.406h-10.312z"/>
</defs>
<g transform="translate(317.99 39.898) scale(.1 -.1)">
<use xlink:href="#c"/>
<use x="63.623047" xlink:href="#e"/>
<use x="95.410156" xlink:href="#c"/>
</g>
</g>
<g clip-path="url(#a)">
<defs>
<path id="n" d="m19.188 8.2969h34.422v-8.2969h-46.281v8.2969q5.6094 5.8125 15.297 15.594 9.7031 9.7969 12.188 12.641 4.7344 5.3125 6.6094 9 1.8906 3.6875 1.8906 7.25 0 5.8125-4.0781 9.4688-4.0781 3.6719-10.625 3.6719-4.6406 0-9.7969-1.6094-5.1406-1.6094-11-4.8906v9.9688q5.9531 2.3906 11.125 3.6094 5.1875 1.2188 9.4844 1.2188 11.328 0 18.062-5.6719 6.7344-5.6562 6.7344-15.125 0-4.5-1.6875-8.5312-1.6719-4.0156-6.125-9.4844-1.2188-1.4219-7.7656-8.1875-6.5312-6.7656-18.453-18.922z"/>
</defs>
<g transform="translate(717.41 150.6) scale(.1 -.1)">
<use xlink:href="#c"/>
<use x="63.623047" xlink:href="#e"/>
<use x="95.410156" xlink:href="#n"/>
</g>
</g>
<g clip-path="url(#a)">
<defs>
<path id="m" d="m40.578 39.312q7.0781-1.5156 11.047-6.3125 3.9844-4.7812 3.9844-11.812 0-10.781-7.4219-16.703-7.4219-5.9062-21.094-5.9062-4.5781 0-9.4375 0.90625t-10.031 2.7188v9.5156q4.0938-2.3906 8.9688-3.6094 4.8906-1.2188 10.219-1.2188 9.2656 0 14.125 3.6562t4.8594 10.641q0 6.4531-4.5156 10.078-4.5156 3.6406-12.562 3.6406h-8.5v8.1094h8.8906q7.2656 0 11.125 2.9062t3.8594 8.375q0 5.6094-3.9844 8.6094-3.9688 3.0156-11.391 3.0156-4.0625 0-8.7031-0.89062-4.6406-0.875-10.203-2.7188v8.7812q5.625 1.5625 10.531 2.3438t9.25 0.78125q11.234 0 17.766-5.1094 6.5469-5.0938 6.5469-13.781 0-6.0625-3.4688-10.234t-9.8594-5.7812z"/>
</defs>
<g transform="translate(490.05 666.23) scale(.1 -.1)">
<use xlink:href="#c"/>
<use x="63.623047" xlink:href="#e"/>
<use x="95.410156" xlink:href="#m"/>
</g>
</g>
<g clip-path="url(#a)">
<defs>
<path id="r" d="m37.797 64.312-24.906-38.922h24.906zm-2.5938 8.5938h12.406v-47.516h10.406v-8.2031h-10.406v-17.188h-9.8125v17.188h-32.906v9.5156z"/>
</defs>
<g transform="translate(61.335 666.23) scale(.1 -.1)">
<use xlink:href="#c"/>
<use x="63.623047" xlink:href="#e"/>
<use x="95.410156" xlink:href="#r"/>
</g>
</g>
<g clip-path="url(#a)">
<defs>
<path id="ad" d="m10.797 72.906h38.719v-8.3125h-29.688v-17.859q2.1406 0.73438 4.2812 1.0938 2.1562 0.35938 4.3125 0.35938 12.203 0 19.328-6.6875 7.1406-6.6875 7.1406-18.109 0-11.766-7.3281-18.297-7.3281-6.5156-20.656-6.5156-4.5938 0-9.3594 0.78125-4.75 0.78125-9.8281 2.3438v9.9219q4.3906-2.3906 9.0781-3.5625t9.9062-1.1719q8.4531 0 13.375 4.4375 4.9375 4.4375 4.9375 12.062 0 7.6094-4.9375 12.047-4.9219 4.4531-13.375 4.4531-3.9531 0-7.8906-0.875-3.9219-0.875-8.0156-2.7344z"/>
</defs>
<g transform="translate(164.54 466.08) scale(.1 -.1)">
<use xlink:href="#c"/>
<use x="63.623047" xlink:href="#e"/>
<use x="95.410156" xlink:href="#ad"/>
</g>
</g>
<g clip-path="url(#a)">
<defs>
<path id="ac" d="m33.016 40.375q-6.6406 0-10.531-4.5469-3.875-4.5312-3.875-12.438 0-7.8594 3.875-12.438 3.8906-4.5625 10.531-4.5625t10.516 4.5625q3.875 4.5781 3.875 12.438 0 7.9062-3.875 12.438-3.875 4.5469-10.516 4.5469zm19.578 30.922v-8.9844q-3.7188 1.75-7.5 2.6719-3.7812 0.9375-7.5 0.9375-9.7656 0-14.922-6.5938-5.1406-6.5938-5.875-19.922 2.875 4.25 7.2188 6.5156 4.3594 2.2656 9.5781 2.2656 10.984 0 17.359-6.6719 6.375-6.6562 6.375-18.125 0-11.234-6.6406-18.031-6.6406-6.7812-17.672-6.7812-12.656 0-19.344 9.6875-6.6875 9.7031-6.6875 28.109 0 17.281 8.2031 27.562t22.016 10.281q3.7188 0 7.5-0.73438t7.8906-2.1875z"/>
</defs>
<g transform="translate(156.61 666.23) scale(.1 -.1)">
<use xlink:href="#c"/>
<use x="63.623047" xlink:href="#e"/>
<use x="95.410156" xlink:href="#ac"/>
</g>
</g>
<g clip-path="url(#a)">
<defs>
<path id="ab" d="m8.2031 72.906h46.875v-4.2031l-26.469-68.703h-10.297l24.906 64.594h-35.016z"/>
</defs>
<g transform="translate(394.78 666.23) scale(.1 -.1)">
<use xlink:href="#c"/>
<use x="63.623047" xlink:href="#e"/>
<use x="95.410156" xlink:href="#ab"/>
</g>
</g>
<g clip-path="url(#a)">
<defs>
<path id="aa" d="m31.781 34.625q-7.0312 0-11.062-3.7656-4.0156-3.7656-4.0156-10.344 0-6.5938 4.0156-10.359 4.0312-3.7656 11.062-3.7656t11.078 3.7812q4.0625 3.7969 4.0625 10.344 0 6.5781-4.0312 10.344-4.0156 3.7656-11.109 3.7656zm-9.8594 4.1875q-6.3438 1.5625-9.8906 5.9062-3.5312 4.3594-3.5312 10.609 0 8.7344 6.2188 13.812 6.2344 5.0781 17.062 5.0781 10.891 0 17.094-5.0781t6.2031-13.812q0-6.25-3.5469-10.609-3.5312-4.3438-9.8281-5.9062 7.125-1.6562 11.094-6.5 3.9844-4.8281 3.9844-11.797 0-10.609-6.4688-16.281-6.4688-5.6562-18.531-5.6562-12.047 0-18.531 5.6562-6.4688 5.6719-6.4688 16.281 0 6.9688 4 11.797 4.0156 4.8438 11.141 6.5zm-3.6094 15.578q0-5.6562 3.5312-8.8281 3.5469-3.1719 9.9375-3.1719 6.3594 0 9.9375 3.1719 3.5938 3.1719 3.5938 8.8281 0 5.6719-3.5938 8.8438-3.5781 3.1719-9.9375 3.1719-6.3906 0-9.9375-3.1719-3.5312-3.1719-3.5312-8.8438z"/>
</defs>
<g transform="translate(442.42 666.23) scale(.1 -.1)">
<use xlink:href="#c"/>
<use x="63.623047" xlink:href="#e"/>
<use x="95.410156" xlink:href="#aa"/>
</g>
</g>
<g clip-path="url(#a)">
<defs>
<path id="z" d="m10.984 1.5156v8.9844q3.7188-1.7656 7.5156-2.6875 3.8125-0.92188 7.4844-0.92188 9.7656 0 14.906 6.5625 5.1562 6.5625 5.8906 19.953-2.8281-4.2031-7.1875-6.4531-4.3438-2.25-9.6094-2.25-10.938 0-17.312 6.6094-6.375 6.625-6.375 18.109 0 11.219 6.6406 18 6.6406 6.7969 17.672 6.7969 12.656 0 19.312-9.7031 6.6719-9.6875 6.6719-28.141 0-17.234-8.1875-27.516-8.1719-10.281-21.984-10.281-3.7188 0-7.5312 0.73438-3.7969 0.73438-7.9062 2.2031zm19.625 30.906q6.6406 0 10.516 4.5312 3.8906 4.5469 3.8906 12.469 0 7.8594-3.8906 12.422-3.875 4.5625-10.516 4.5625t-10.516-4.5625-3.875-12.422q0-7.9219 3.875-12.469 3.875-4.5312 10.516-4.5312z"/>
</defs>
<g transform="translate(817.02 258.32) scale(.1 -.1)">
<use xlink:href="#c"/>
<use x="63.623047" xlink:href="#e"/>
<use x="95.410156" xlink:href="#z"/>
</g>
</g>
<g clip-path="url(#a)">
<defs>
<path id="ae" d="m31.781 66.406q-7.6094 0-11.453-7.5-3.8281-7.4844-3.8281-22.531 0-14.984 3.8281-22.484 3.8438-7.5 11.453-7.5 7.6719 0 11.5 7.5 3.8438 7.5 3.8438 22.484 0 15.047-3.8438 22.531-3.8281 7.5-11.5 7.5zm0 7.8125q12.266 0 18.734-9.7031 6.4688-9.6875 6.4688-28.141 0-18.406-6.4688-28.109-6.4688-9.6875-18.734-9.6875-12.25 0-18.719 9.6875-6.4688 9.7031-6.4688 28.109 0 18.453 6.4688 28.141 6.4688 9.7031 18.719 9.7031z"/>
</defs>
<g transform="translate(582.14 666.23) scale(.1 -.1)">
<use xlink:href="#c"/>
<use x="63.623047" xlink:href="#e"/>
<use x="95.410156" xlink:href="#c"/>
<use x="159.033203" xlink:href="#ae"/>
</g>
</g>
<g clip-path="url(#a)">
<g transform="translate(1439.6 666.23) scale(.1 -.1)">
<use xlink:href="#c"/>
<use x="63.623047" xlink:href="#e"/>
<use x="95.410156" xlink:href="#c"/>
<use x="159.033203" xlink:href="#c"/>
</g>
</g>
<g clip-path="url(#a)">
<g transform="translate(105.79 666.23) scale(.1 -.1)">
<use xlink:href="#c"/>
<use x="63.623047" xlink:href="#e"/>
<use x="95.410156" xlink:href="#c"/>
<use x="159.033203" xlink:href="#n"/>
</g>
</g>
<g clip-path="url(#a)">
<g transform="translate(224.88 566.85) scale(.1 -.1)">
<use xlink:href="#c"/>
<use x="63.623047" xlink:href="#e"/>
<use x="95.410156" xlink:href="#c"/>
<use x="159.033203" xlink:href="#m"/>
</g>
</g>
<g clip-path="url(#a)">
<g transform="translate(248.7 666.23) scale(.1 -.1)">
<use xlink:href="#c"/>
<use x="63.623047" xlink:href="#e"/>
<use x="95.410156" xlink:href="#c"/>
<use x="159.033203" xlink:href="#r"/>
</g>
</g>
<g clip-path="url(#a)">
<g transform="translate(296.33 666.23) scale(.1 -.1)">
<use xlink:href="#c"/>
<use x="63.623047" xlink:href="#e"/>
<use x="95.410156" xlink:href="#c"/>
<use x="159.033203" xlink:href="#ad"/>
</g>
</g>
<g clip-path="url(#a)">
<g transform="translate(343.97 666.23) scale(.1 -.1)">
<use xlink:href="#c"/>
<use x="63.623047" xlink:href="#e"/>
<use x="95.410156" xlink:href="#c"/>
<use x="159.033203" xlink:href="#ac"/>
</g>
</g>
<g clip-path="url(#a)">
<g transform="translate(534.51 666.23) scale(.1 -.1)">
<use xlink:href="#c"/>
<use x="63.623047" xlink:href="#e"/>
<use x="95.410156" xlink:href="#c"/>
<use x="159.033203" xlink:href="#ab"/>
</g>
</g>
<g clip-path="url(#a)">
<g transform="translate(772.68 466.08) scale(.1 -.1)">
<use xlink:href="#c"/>
<use x="63.623047" xlink:href="#e"/>
<use x="95.410156" xlink:href="#c"/>
<use x="159.033203" xlink:href="#aa"/>
</g>
</g>
<g clip-path="url(#a)">
<g transform="translate(820.32 666.23) scale(.1 -.1)">
<use xlink:href="#c"/>
<use x="63.623047" xlink:href="#e"/>
<use x="95.410156" xlink:href="#c"/>
<use x="159.033203" xlink:href="#z"/>
</g>
</g>
<g clip-path="url(#a)">
<g transform="translate(963.23 666.23) scale(.1 -.1)">
<use xlink:href="#c"/>
<use x="63.623047" xlink:href="#e"/>
<use x="95.410156" xlink:href="#n"/>
<use x="159.033203" xlink:href="#ae"/>
</g>
</g>
<g clip-path="url(#a)">
<g transform="translate(1216.6 363.37) scale(.1 -.1)">
<use xlink:href="#c"/>
<use x="63.623047" xlink:href="#e"/>
<use x="95.410156" xlink:href="#n"/>
<use x="159.033203" xlink:href="#c"/>
</g>
</g>
<g clip-path="url(#a)">
<g transform="translate(1201.4 666.23) scale(.1 -.1)">
<use xlink:href="#c"/>
<use x="63.623047" xlink:href="#e"/>
<use x="95.410156" xlink:href="#n"/>
<use x="159.033203" xlink:href="#n"/>
</g>
</g>
<g clip-path="url(#a)">
<g transform="translate(201.06 666.23) scale(.1 -.1)">
<use xlink:href="#c"/>
<use x="63.623047" xlink:href="#e"/>
<use x="95.410156" xlink:href="#n"/>
<use x="159.033203" xlink:href="#m"/>
</g>
</g>
<g clip-path="url(#a)">
<g transform="translate(653.6 566.85) scale(.1 -.1)">
<use xlink:href="#c"/>
<use x="63.623047" xlink:href="#e"/>
<use x="95.410156" xlink:href="#n"/>
<use x="159.033203" xlink:href="#r"/>
</g>
</g>
<g clip-path="url(#a)">
<g transform="translate(677.41 666.23) scale(.1 -.1)">
<use xlink:href="#c"/>
<use x="63.623047" xlink:href="#e"/>
<use x="95.410156" xlink:href="#n"/>
<use x="159.033203" xlink:href="#ad"/>
</g>
</g>
<g clip-path="url(#a)">
<g transform="translate(725.05 666.23) scale(.1 -.1)">
<use xlink:href="#c"/>
<use x="63.623047" xlink:href="#e"/>
<use x="95.410156" xlink:href="#n"/>
<use x="159.033203" xlink:href="#ac"/>
</g>
</g>
<g clip-path="url(#a)">
<g transform="translate(772.68 666.23) scale(.1 -.1)">
<use xlink:href="#c"/>
<use x="63.623047" xlink:href="#e"/>
<use x="95.410156" xlink:href="#n"/>
<use x="159.033203" xlink:href="#ab"/>
</g>
</g>
<g clip-path="url(#a)">
<g transform="translate(891.77 566.85) scale(.1 -.1)">
<use xlink:href="#c"/>
<use x="63.623047" xlink:href="#e"/>
<use x="95.410156" xlink:href="#n"/>
<use x="159.033203" xlink:href="#aa"/>
</g>
</g>
<g clip-path="url(#a)">
<g transform="translate(915.59 666.23) scale(.1 -.1)">
<use xlink:href="#c"/>
<use x="63.623047" xlink:href="#e"/>
<use x="95.410156" xlink:href="#n"/>
<use x="159.033203" xlink:href="#z"/>
</g>
</g>
<g clip-path="url(#a)">
<g transform="translate(1010.9 666.23) scale(.1 -.1)">
<use xlink:href="#c"/>
<use x="63.623047" xlink:href="#e"/>
<use x="95.410156" xlink:href="#m"/>
<use x="159.033203" xlink:href="#ae"/>
</g>
</g>
<g clip-path="url(#a)">
<g transform="translate(1114.1 466.08) scale(.1 -.1)">
<use xlink:href="#c"/>
<use x="63.623047" xlink:href="#e"/>
<use x="95.410156" xlink:href="#m"/>
<use x="159.033203" xlink:href="#c"/>
</g>
</g>
<g clip-path="url(#a)">
<g transform="translate(1153.8 666.23) scale(.1 -.1)">
<use xlink:href="#c"/>
<use x="63.623047" xlink:href="#e"/>
<use x="95.410156" xlink:href="#m"/>
<use x="159.033203" xlink:href="#n"/>
</g>
</g>
<g clip-path="url(#a)">
<g transform="translate(1249 666.23) scale(.1 -.1)">
<use xlink:href="#c"/>
<use x="63.623047" xlink:href="#e"/>
<use x="95.410156" xlink:href="#m"/>
<use x="159.033203" xlink:href="#m"/>
</g>
</g>
<g clip-path="url(#a)">
<g transform="translate(1225.2 566.85) scale(.1 -.1)">
<use xlink:href="#c"/>
<use x="63.623047" xlink:href="#e"/>
<use x="95.410156" xlink:href="#m"/>
<use x="159.033203" xlink:href="#r"/>
</g>
</g>
<g clip-path="url(#a)">
<g transform="translate(1296.7 666.23) scale(.1 -.1)">
<use xlink:href="#c"/>
<use x="63.623047" xlink:href="#e"/>
<use x="95.410156" xlink:href="#m"/>
<use x="159.033203" xlink:href="#ad"/>
</g>
</g>
<g clip-path="url(#a)">
<g transform="translate(1344.3 666.23) scale(.1 -.1)">
<use xlink:href="#c"/>
<use x="63.623047" xlink:href="#e"/>
<use x="95.410156" xlink:href="#m"/>
<use x="159.033203" xlink:href="#ac"/>
</g>
</g>
<g clip-path="url(#a)">
<g transform="translate(1391.9 666.23) scale(.1 -.1)">
<use xlink:href="#c"/>
<use x="63.623047" xlink:href="#e"/>
<use x="95.410156" xlink:href="#m"/>
<use x="159.033203" xlink:href="#ab"/>
</g>
</g>
<g clip-path="url(#a)">
<g transform="translate(629.78 666.23) scale(.1 -.1)">
<use xlink:href="#c"/>
<use x="63.623047" xlink:href="#e"/>
<use x="95.410156" xlink:href="#m"/>
<use x="159.033203" xlink:href="#aa"/>
</g>
</g>
<g clip-path="url(#a)">
<g transform="translate(867.96 666.23) scale(.1 -.1)">
<use xlink:href="#c"/>
<use x="63.623047" xlink:href="#e"/>
<use x="95.410156" xlink:href="#m"/>
<use x="159.033203" xlink:href="#z"/>
</g>
</g>
<g clip-path="url(#a)">
<g transform="translate(1058.5 666.23) scale(.1 -.1)">
<use xlink:href="#c"/>
<use x="63.623047" xlink:href="#e"/>
<use x="95.410156" xlink:href="#r"/>
<use x="159.033203" xlink:href="#ae"/>
</g>
</g>
<g clip-path="url(#a)">
<g transform="translate(1130 566.85) scale(.1 -.1)">
<use xlink:href="#c"/>
<use x="63.623047" xlink:href="#e"/>
<use x="95.410156" xlink:href="#r"/>
<use x="159.033203" xlink:href="#c"/>
</g>
</g>
<g clip-path="url(#a)">
<g transform="translate(1106.1 666.23) scale(.1 -.1)">
<use xlink:href="#c"/>
<use x="63.623047" xlink:href="#e"/>
<use x="95.410156" xlink:href="#r"/>
<use x="159.033203" xlink:href="#n"/>
</g>
</g>
<g clip-path="url(#a)">
<g transform="translate(1237.1 466.08) scale(.1 -.1)">
<use xlink:href="#c"/>
<use x="63.623047" xlink:href="#e"/>
<use x="95.410156" xlink:href="#r"/>
<use x="159.033203" xlink:href="#m"/>
</g>
</g>
<defs>
<clipPath id="a">
<rect width="1520" height="800"/>
</clipPath>
</defs>
</svg>
