<?xml version="1.0" encoding="UTF-8"?>
<!DOCTYPE svg  PUBLIC '-//W3C//DTD SVG 1.1//EN'  'http://www.w3.org/Graphics/SVG/1.1/DTD/svg11.dtd'>
<svg width="912pt" height="480pt" version="1.1" viewBox="0 0 912 480" xmlns="http://www.w3.org/2000/svg" xmlns:xlink="http://www.w3.org/1999/xlink">
<defs>
<style type="text/css">*{stroke-linecap:butt;stroke-linejoin:round;}</style>
</defs>
<path d="m0 480h912v-480h-912z" fill="#fff"/>
<g fill="none" stroke="#000">
<path d="m379.18 22.923 206.77 264.04" clip-path="url(#a)"/>
<path d="m379.18 22.923-337.39 349.1" clip-path="url(#a)"/>
<path d="m379.18 22.923-218.27 89.903" clip-path="url(#a)"/>
<path d="m379.18 22.923 348.9 89.903" clip-path="url(#a)"/>
<path d="m585.95 286.96-8.1218 85.056" clip-path="url(#a)"/>
<path d="m585.95 286.96-154.31 85.056" clip-path="url(#a)"/>
<path d="m585.95 286.96-105.58 85.056" clip-path="url(#a)"/>
<path d="m585.95 286.96-56.853 85.056" clip-path="url(#a)"/>
<path d="m585.95 286.96 40.609 85.056" clip-path="url(#a)"/>
<path d="m585.95 286.96 284.26 85.056" clip-path="url(#a)"/>
<path d="m577.83 372.02v85.056" clip-path="url(#a)"/>
<path d="m41.788 372.02v85.056" clip-path="url(#a)"/>
<path d="m160.91 112.83-21.658 259.2" clip-path="url(#a)"/>
<path d="m160.91 112.83-70.389 259.2" clip-path="url(#a)"/>
<path d="m160.91 112.83 92.047 87.9" clip-path="url(#a)"/>
<path d="m139.25 372.02v85.056" clip-path="url(#a)"/>
<path d="m431.63 372.02v85.056" clip-path="url(#a)"/>
<path d="m480.37 372.02v85.056" clip-path="url(#a)"/>
<path d="m529.1 372.02v85.056" clip-path="url(#a)"/>
<path d="m626.56 372.02v85.056" clip-path="url(#a)"/>
<path d="m728.08 112.83-52.792 259.2" clip-path="url(#a)"/>
<path d="m728.08 112.83 52.792 87.9" clip-path="url(#a)"/>
<path d="m675.29 372.02v85.056" clip-path="url(#a)"/>
<path d="m870.21 372.02v85.056" clip-path="url(#a)"/>
<path d="m90.519 372.02v85.056" clip-path="url(#a)"/>
<path d="m252.95 200.73-16.244 171.3" clip-path="url(#a)"/>
<path d="m252.95 200.73-64.974 171.3" clip-path="url(#a)"/>
<path d="m252.95 200.73 81.218 86.239" clip-path="url(#a)"/>
<path d="m236.71 372.02v85.056" clip-path="url(#a)"/>
<path d="m780.87 200.73 40.609 171.3" clip-path="url(#a)"/>
<path d="m780.87 200.73-56.853 171.3" clip-path="url(#a)"/>
<path d="m780.87 200.73 16.244 86.239" clip-path="url(#a)"/>
<path d="m821.48 372.02v85.056" clip-path="url(#a)"/>
<path d="m187.98 372.02v85.056" clip-path="url(#a)"/>
<path d="m334.17 286.96 48.731 85.056" clip-path="url(#a)"/>
<path d="m334.17 286.96-48.731 85.056" clip-path="url(#a)"/>
<path d="m334.17 286.96v85.056" clip-path="url(#a)"/>
<path d="m382.9 372.02v85.056" clip-path="url(#a)"/>
<path d="m724.02 372.02v85.056" clip-path="url(#a)"/>
<path d="m797.12 286.96 24.365 85.056" clip-path="url(#a)" stroke-dasharray="3.7,1.6"/>
<path d="m797.12 286.96-24.365 85.056" clip-path="url(#a)"/>
<path d="m772.75 372.02v85.056" clip-path="url(#a)"/>
<path d="m285.44 372.02v85.056" clip-path="url(#a)"/>
<path d="m334.17 372.02v85.056" clip-path="url(#a)"/>
</g>
<path d="m475.77 156.44 3.7093 4.7367q1.4797 1.8896 3.3693 0.40987l6.0958-4.7736q1.8896-1.4797 0.40987-3.3693l-3.7093-4.7367q-1.4797-1.8896-3.3693-0.40987l-6.0958 4.7736q-1.8896 1.4797-0.40987 3.3693z" clip-path="url(#a)" fill="#fff" stroke="#fff"/>
<g clip-path="url(#a)">
<defs>
<path id="u" d="m9.8125 72.906h9.8594v-29.891h35.844v29.891h9.8594v-72.906h-9.8594v34.719h-35.844v-34.719h-9.8594z"/>
</defs>
<g transform="translate(478.97 153.94) rotate(51.936) scale(.08 -.08)">
<use xlink:href="#u"/>
</g>
</g>
<path d="m213.44 203.43 3.0977-3.2052q1.6679-1.7257-0.05786-3.3936l-5.5673-5.3807q-1.7257-1.6679-3.3936 0.05786l-3.0977 3.2052q-1.6679 1.7257 0.05786 3.3936l5.5673 5.3807q1.7257 1.6679 3.3936-0.05786z" clip-path="url(#a)" fill="#fff" stroke="#fff"/>
<g clip-path="url(#a)">
<defs>
<path id="an" d="m9.8125 72.906h9.8594v-64.609h35.5v-8.2969h-45.359z"/>
</defs>
<g transform="translate(210.52 200.61) rotate(-45.977) scale(.08 -.08)">
<use xlink:href="#an"/>
</g>
</g>
<path d="m269.65 74.819 5.5629-2.2912q2.2191-0.91402 1.3051-3.1332l-2.9487-7.159q-0.91402-2.2191-3.1332-1.3051l-5.5629 2.2912q-2.2191 0.91402-1.3051 3.1332l2.9487 7.159q0.91402 2.2191 3.1332 1.3051z" clip-path="url(#a)" fill="#fff" stroke="#fff"/>
<g clip-path="url(#a)">
<g transform="translate(268.1 71.061) rotate(-22.386) scale(.08 -.08)">
<use xlink:href="#u"/>
</g>
</g>
<path d="m549.15 73.197 5.8259 1.5012q2.3241 0.59886 2.9229-1.7252l1.9319-7.4976q0.59886-2.3241-1.7252-2.9229l-5.8259-1.5012q-2.3241-0.59886-2.9229 1.7252l-1.9319 7.4976q-0.59886 2.3241 1.7252 2.9229z" clip-path="url(#a)" fill="#fff" stroke="#fff"/>
<g clip-path="url(#a)">
<g transform="translate(550.17 69.261) rotate(14.449) scale(.08 -.08)">
<use xlink:href="#u"/>
</g>
</g>
<path d="m587.9 332.49 0.45852-4.8019q0.22813-2.3891-2.161-2.6173l-7.7074-0.73597q-2.3891-0.22813-2.6173 2.161l-0.45852 4.8019q-0.22813 2.3891 2.161 2.6173l7.7074 0.73597q2.3891 0.22813 2.6173-2.161z" clip-path="url(#a)" fill="#fff" stroke="#fff"/>
<g clip-path="url(#a)">
<defs>
<path id="t" d="m19.672 64.797v-27.391h12.406q6.8906 0 10.641 3.5625 3.7656 3.5625 3.7656 10.156 0 6.5469-3.7656 10.109-3.75 3.5625-10.641 3.5625zm-9.8594 8.1094h22.266q12.266 0 18.531-5.5469 6.2812-5.5469 6.2812-16.234 0-10.797-6.2812-16.312-6.2656-5.5156-18.531-5.5156h-12.406v-29.297h-9.8594z"/>
</defs>
<g transform="translate(583.86 332.1) rotate(-84.545) scale(.08 -.08)">
<use xlink:href="#t"/>
</g>
</g>
<path d="m509.26 336.4 5.1277-2.8263q2.1019-1.1585 0.94334-3.2604l-3.7374-6.7807q-1.1585-2.1019-3.2604-0.94334l-5.1277 2.8263q-2.1019 1.1585-0.94334 3.2604l3.7374 6.7807q1.1585 2.1019 3.2604 0.94334z" clip-path="url(#a)" fill="#fff" stroke="#fff"/>
<g clip-path="url(#a)">
<defs>
<path id="ae" d="m8.6875 72.906h9.9219v-44.297q0-11.719 4.2344-16.875 4.25-5.1406 13.781-5.1406 9.4688 0 13.719 5.1406 4.25 5.1562 4.25 16.875v44.297h9.9062v-45.516q0-14.25-7.0625-21.531-7.0469-7.2812-20.812-7.2812-13.828 0-20.891 7.2812-7.0469 7.2812-7.0469 21.531z"/>
</defs>
<g transform="translate(507.29 332.84) rotate(-28.863) scale(.08 -.08)">
<use xlink:href="#ae"/>
</g>
</g>
<path d="m535.3 335.82 3.5832-2.8866q1.869-1.5056 0.36337-3.3746l-4.8572-6.0294q-1.5056-1.869-3.3746-0.36337l-3.5832 2.8866q-1.869 1.5056-0.36337 3.3746l4.8572 6.0294q1.5056 1.869 3.3746 0.36337z" clip-path="url(#a)" fill="#fff" stroke="#fff"/>
<g clip-path="url(#a)">
<defs>
<path id="v" d="m9.8125 72.906h41.891v-8.3125h-32.031v-21.484h28.906v-8.2969h-28.906v-34.812h-9.8594z"/>
</defs>
<g transform="translate(532.75 332.66) rotate(-38.854) scale(.08 -.08)">
<use xlink:href="#v"/>
</g>
</g>
<path d="m561.02 335.54 3.4231-5.1213q1.3337-1.9953-0.66162-3.329l-6.437-4.3026q-1.9953-1.3337-3.329 0.66162l-3.4231 5.1213q-1.3337 1.9953 0.66162 3.329l6.437 4.3026q1.9953 1.3337 3.329-0.66162z" clip-path="url(#a)" fill="#fff" stroke="#fff"/>
<g clip-path="url(#a)">
<defs>
<path id="aq" d="m19.672 64.797v-56.688h11.922q15.094 0 22.094 6.8281 7 6.8438 7 21.594 0 14.641-7 21.453t-22.094 6.8125zm-9.8594 8.1094h20.266q21.188 0 31.094-8.8125 9.9219-8.8125 9.9219-27.562 0-18.859-9.9688-27.703-9.9531-8.8281-31.047-8.8281h-20.266z"/>
</defs>
<g transform="translate(557.65 333.28) rotate(-56.241) scale(.08 -.08)">
<use xlink:href="#aq"/>
</g>
</g>
<path d="m599.4 329.69 2.395 5.0163q1.034 2.1658 3.1999 1.1318l6.987-3.3359q2.1658-1.034 1.1318-3.1999l-2.395-5.0163q-1.034-2.1658-3.1999-1.1318l-6.987 3.3359q-2.1658 1.034-1.1318 3.1999z" clip-path="url(#a)" fill="#fff" stroke="#fff"/>
<g clip-path="url(#a)">
<defs>
<path id="af" d="m44.391 34.188q3.1719-1.0781 6.1719-4.5938t6.0312-9.6719l10.016-19.922h-10.609l-9.3125 18.703q-3.625 7.3281-7.0156 9.7188t-9.25 2.3906h-10.75v-30.812h-9.8594v72.906h22.266q12.5 0 18.656-5.2344 6.1562-5.2188 6.1562-15.766 0-6.8906-3.2031-11.438-3.2031-4.5312-9.2969-6.2812zm-24.719 30.609v-25.875h12.406q7.125 0 10.766 3.2969t3.6406 9.6875-3.6406 9.6406-10.766 3.25z"/>
</defs>
<g transform="translate(603.06 327.94) rotate(64.478) scale(.08 -.08)">
<use xlink:href="#af"/>
</g>
</g>
<path d="m723.48 334.66 5.6093 1.6784q2.2993 0.68798 2.9873-1.6113l2.2195-7.4176q0.68798-2.2993-1.6113-2.9873l-5.6093-1.6784q-2.2993-0.68798-2.9873 1.6113l-2.2195 7.4176q-0.68798 2.2993 1.6113 2.9873z" clip-path="url(#a)" fill="#fff" stroke="#fff"/>
<g clip-path="url(#a)">
<g transform="translate(724.64 330.77) rotate(16.658) scale(.08 -.08)">
<use xlink:href="#ae"/>
</g>
</g>
<path d="m571.56 396.91v35.285q0 2.4 2.4 2.4h7.7425q2.4 0 2.4-2.4v-35.285q0-2.4-2.4-2.4h-7.7425q-2.4 0-2.4 2.4z" clip-path="url(#a)" fill="#fff" stroke="#fff"/>
<g clip-path="url(#a)">
<defs>
<path id="k" d="m-0.29688 72.906h61.672v-8.3125h-25.875v-64.594h-9.9062v64.594h-25.891z"/>
<path id="g" d="m56.203 29.594v-4.3906h-41.312q0.59375-9.2812 5.5938-14.141t13.938-4.8594q5.1719 0 10.031 1.2656t9.6562 3.8125v-8.5q-4.8438-2.0469-9.9219-3.125t-10.297-1.0781q-13.094 0-20.734 7.6094-7.6406 7.625-7.6406 20.625 0 13.422 7.25 21.297 7.25 7.8906 19.562 7.8906 11.031 0 17.453-7.1094 6.4219-7.0938 6.4219-19.297zm-8.9844 2.6406q-0.09375 7.3594-4.125 11.75-4.0312 4.4062-10.672 4.4062-7.5156 0-12.031-4.25t-5.2031-11.969z"/>
<path id="h" d="m41.109 46.297q-1.5156 0.875-3.2969 1.2812-1.7812 0.42188-3.9219 0.42188-7.625 0-11.703-4.9531t-4.0781-14.234v-28.812h-9.0312v54.688h9.0312v-8.5q2.8438 4.9844 7.375 7.3906 4.5469 2.4219 11.047 2.4219 0.92188 0 2.0469-0.125 1.125-0.10938 2.4844-0.35938z"/>
<path id="l" d="m52 44.188q3.375 6.0625 8.0625 8.9375t11.031 2.875q8.5469 0 13.188-5.9844 4.6406-5.9688 4.6406-17v-33.016h-9.0312v32.719q0 7.8594-2.7969 11.656-2.7812 3.8125-8.4844 3.8125-6.9844 0-11.047-4.6406-4.0469-4.625-4.0469-12.641v-30.906h-9.0312v32.719q0 7.9062-2.7812 11.688t-8.5938 3.7812q-6.8906 0-10.953-4.6562-4.0469-4.6562-4.0469-12.625v-30.906h-9.0312v54.688h9.0312v-8.5q3.0781 5.0312 7.375 7.4219t10.203 2.3906q5.9688 0 10.141-3.0312 4.1719-3.0156 6.1719-8.7812z"/>
<path id="e" d="m9.4219 54.688h8.9844v-54.688h-8.9844zm0 21.297h8.9844v-11.391h-8.9844z"/>
<path id="f" d="m54.891 33.016v-33.016h-8.9844v32.719q0 7.7656-3.0312 11.609-3.0312 3.8594-9.0781 3.8594-7.2812 0-11.484-4.6406-4.2031-4.625-4.2031-12.641v-30.906h-9.0312v54.688h9.0312v-8.5q3.2344 4.9375 7.5938 7.375 4.375 2.4375 10.094 2.4375 9.4219 0 14.25-5.8281 4.8438-5.8281 4.8438-17.156z"/>
<path id="j" d="m34.281 27.484q-10.891 0-15.094-2.4844t-4.2031-8.5q0-4.7812 3.1562-7.5938 3.1562-2.7969 8.5625-2.7969 7.4844 0 12 5.2969t4.5156 14.078v2zm17.922 3.7188v-31.203h-8.9844v8.2969q-3.0781-4.9688-7.6719-7.3438t-11.234-2.375q-8.3906 0-13.359 4.7188-4.9531 4.7188-4.9531 12.625 0 9.2188 6.1719 13.906 6.1875 4.6875 18.438 4.6875h12.609v0.89062q0 6.2031-4.0781 9.5938t-11.453 3.3906q-4.6875 0-9.1406-1.125-4.4375-1.125-8.5312-3.375v8.3125q4.9219 1.9062 9.5625 2.8438 4.6406 0.95312 9.0312 0.95312 11.875 0 17.734-6.1562 5.8594-6.1406 5.8594-18.641z"/>
<path id="i" d="m9.4219 75.984h8.9844v-75.984h-8.9844z"/>
</defs>
<g transform="translate(575.62 396.91) rotate(90) scale(.08 -.08)">
<use xlink:href="#k"/>
<use x="60.818359" xlink:href="#g"/>
<use x="122.341797" xlink:href="#h"/>
<use x="163.439453" xlink:href="#l"/>
<use x="260.851562" xlink:href="#e"/>
<use x="288.634766" xlink:href="#f"/>
<use x="352.013672" xlink:href="#j"/>
<use x="413.292969" xlink:href="#i"/>
</g>
</g>
<path d="m35.516 396.91v35.285q0 2.4 2.4 2.4h7.7425q2.4 0 2.4-2.4v-35.285q0-2.4-2.4-2.4h-7.7425q-2.4 0-2.4 2.4z" clip-path="url(#a)" fill="#fff" stroke="#fff"/>
<g clip-path="url(#a)">
<g transform="translate(39.58 396.91) rotate(90) scale(.08 -.08)">
<use xlink:href="#k"/>
<use x="60.818359" xlink:href="#g"/>
<use x="122.341797" xlink:href="#h"/>
<use x="163.439453" xlink:href="#l"/>
<use x="260.851562" xlink:href="#e"/>
<use x="288.634766" xlink:href="#f"/>
<use x="352.013672" xlink:href="#j"/>
<use x="413.292969" xlink:href="#i"/>
</g>
</g>
<path d="m156.13 245.35 0.40167-4.807q0.19984-2.3917-2.1918-2.5915l-7.7156-0.64471q-2.3917-0.19985-2.5915 2.1918l-0.40167 4.807q-0.19985 2.3917 2.1918 2.5915l7.7156 0.64471q2.3917 0.19984 2.5915-2.1918z" clip-path="url(#a)" fill="#fff" stroke="#fff"/>
<g clip-path="url(#a)">
<g transform="translate(152.08 245.01) rotate(-85.224) scale(.08 -.08)">
<use xlink:href="#t"/>
</g>
</g>
<path d="m131.05 246.71 1.4342-5.2812q0.62898-2.3161-1.6871-2.9451l-7.4719-2.0291q-2.3161-0.62898-2.9451 1.6871l-1.4342 5.2812q-0.62898 2.3161 1.6871 2.9451l7.4719 2.0291q2.3161 0.62898 2.9451-1.6871z" clip-path="url(#a)" fill="#fff" stroke="#fff"/>
<g clip-path="url(#a)">
<defs>
<path id="p" d="m34.188 63.188-13.391-36.281h26.812zm-5.5781 9.7188h11.188l27.781-72.906h-10.25l-6.6406 18.703h-32.859l-6.6406-18.703h-10.406z"/>
</defs>
<g transform="translate(127.13 245.64) rotate(-74.807) scale(.08 -.08)">
<use xlink:href="#p"/>
</g>
</g>
<path d="m200.62 159.42 3.9578 3.7795q1.7357 1.6575 3.3932-0.078205l5.3472-5.5995q1.6575-1.7357-0.078205-3.3932l-3.9578-3.7795q-1.7357-1.6575-3.3932 0.078205l-5.3472 5.5995q-1.6575 1.7357 0.078205 3.3932z" clip-path="url(#a)" fill="#fff" stroke="#fff"/>
<g clip-path="url(#a)">
<g transform="translate(203.43 156.48) rotate(43.68) scale(.08 -.08)">
<use xlink:href="#p"/>
</g>
</g>
<path d="m132.98 396.91v35.285q0 2.4 2.4 2.4h7.7425q2.4 0 2.4-2.4v-35.285q0-2.4-2.4-2.4h-7.7425q-2.4 0-2.4 2.4z" clip-path="url(#a)" fill="#fff" stroke="#fff"/>
<g clip-path="url(#a)">
<g transform="translate(137.04 396.91) rotate(90) scale(.08 -.08)">
<use xlink:href="#k"/>
<use x="60.818359" xlink:href="#g"/>
<use x="122.341797" xlink:href="#h"/>
<use x="163.439453" xlink:href="#l"/>
<use x="260.851562" xlink:href="#e"/>
<use x="288.634766" xlink:href="#f"/>
<use x="352.013672" xlink:href="#j"/>
<use x="413.292969" xlink:href="#i"/>
</g>
</g>
<path d="m425.36 396.91v35.285q0 2.4 2.4 2.4h7.7425q2.4 0 2.4-2.4v-35.285q0-2.4-2.4-2.4h-7.7425q-2.4 0-2.4 2.4z" clip-path="url(#a)" fill="#fff" stroke="#fff"/>
<g clip-path="url(#a)">
<g transform="translate(429.43 396.91) rotate(90) scale(.08 -.08)">
<use xlink:href="#k"/>
<use x="60.818359" xlink:href="#g"/>
<use x="122.341797" xlink:href="#h"/>
<use x="163.439453" xlink:href="#l"/>
<use x="260.851562" xlink:href="#e"/>
<use x="288.634766" xlink:href="#f"/>
<use x="352.013672" xlink:href="#j"/>
<use x="413.292969" xlink:href="#i"/>
</g>
</g>
<path d="m474.09 396.91v35.285q0 2.4 2.4 2.4h7.7425q2.4 0 2.4-2.4v-35.285q0-2.4-2.4-2.4h-7.7425q-2.4 0-2.4 2.4z" clip-path="url(#a)" fill="#fff" stroke="#fff"/>
<g clip-path="url(#a)">
<g transform="translate(478.16 396.91) rotate(90) scale(.08 -.08)">
<use xlink:href="#k"/>
<use x="60.818359" xlink:href="#g"/>
<use x="122.341797" xlink:href="#h"/>
<use x="163.439453" xlink:href="#l"/>
<use x="260.851562" xlink:href="#e"/>
<use x="288.634766" xlink:href="#f"/>
<use x="352.013672" xlink:href="#j"/>
<use x="413.292969" xlink:href="#i"/>
</g>
</g>
<path d="m522.83 396.91v35.285q0 2.4 2.4 2.4h7.7425q2.4 0 2.4-2.4v-35.285q0-2.4-2.4-2.4h-7.7425q-2.4 0-2.4 2.4z" clip-path="url(#a)" fill="#fff" stroke="#fff"/>
<g clip-path="url(#a)">
<g transform="translate(526.89 396.91) rotate(90) scale(.08 -.08)">
<use xlink:href="#k"/>
<use x="60.818359" xlink:href="#g"/>
<use x="122.341797" xlink:href="#h"/>
<use x="163.439453" xlink:href="#l"/>
<use x="260.851562" xlink:href="#e"/>
<use x="288.634766" xlink:href="#f"/>
<use x="352.013672" xlink:href="#j"/>
<use x="413.292969" xlink:href="#i"/>
</g>
</g>
<path d="m620.29 396.91v35.285q0 2.4 2.4 2.4h7.7425q2.4 0 2.4-2.4v-35.285q0-2.4-2.4-2.4h-7.7425q-2.4 0-2.4 2.4z" clip-path="url(#a)" fill="#fff" stroke="#fff"/>
<g clip-path="url(#a)">
<g transform="translate(624.35 396.91) rotate(90) scale(.08 -.08)">
<use xlink:href="#k"/>
<use x="60.818359" xlink:href="#g"/>
<use x="122.341797" xlink:href="#h"/>
<use x="163.439453" xlink:href="#l"/>
<use x="260.851562" xlink:href="#e"/>
<use x="288.634766" xlink:href="#f"/>
<use x="352.013672" xlink:href="#j"/>
<use x="413.292969" xlink:href="#i"/>
</g>
</g>
<path d="m707.35 246.04 0.96272-4.7267q0.47899-2.3517-1.8727-2.8307l-7.5867-1.5452q-2.3517-0.47899-2.8307 1.8727l-0.96272 4.7267q-0.47899 2.3517 1.8727 2.8307l7.5867 1.5452q2.3517 0.47899 2.8307-1.8727z" clip-path="url(#a)" fill="#fff" stroke="#fff"/>
<g clip-path="url(#a)">
<g transform="translate(703.37 245.23) rotate(-78.488) scale(.08 -.08)">
<use xlink:href="#t"/>
</g>
</g>
<path d="m747.69 157.66 2.8176 4.6914q1.2357 2.0574 3.2931 0.82176l6.6374-3.9864q2.0574-1.2357 0.82176-3.2931l-2.8176-4.6914q-1.2357-2.0574-3.2931-0.82176l-6.6374 3.9864q-2.0574 1.2357-0.82177 3.2931z" clip-path="url(#a)" fill="#fff" stroke="#fff"/>
<g clip-path="url(#a)">
<g transform="translate(751.18 155.57) rotate(59.011) scale(.08 -.08)">
<use xlink:href="#p"/>
</g>
</g>
<path d="m669.02 396.91v35.285q0 2.4 2.4 2.4h7.7425q2.4 0 2.4-2.4v-35.285q0-2.4-2.4-2.4h-7.7425q-2.4 0-2.4 2.4z" clip-path="url(#a)" fill="#fff" stroke="#fff"/>
<g clip-path="url(#a)">
<g transform="translate(673.08 396.91) rotate(90) scale(.08 -.08)">
<use xlink:href="#k"/>
<use x="60.818359" xlink:href="#g"/>
<use x="122.341797" xlink:href="#h"/>
<use x="163.439453" xlink:href="#l"/>
<use x="260.851562" xlink:href="#e"/>
<use x="288.634766" xlink:href="#f"/>
<use x="352.013672" xlink:href="#j"/>
<use x="413.292969" xlink:href="#i"/>
</g>
</g>
<path d="m863.94 396.91v35.285q0 2.4 2.4 2.4h7.7425q2.4 0 2.4-2.4v-35.285q0-2.4-2.4-2.4h-7.7425q-2.4 0-2.4 2.4z" clip-path="url(#a)" fill="#fff" stroke="#fff"/>
<g clip-path="url(#a)">
<g transform="translate(868 396.91) rotate(90) scale(.08 -.08)">
<use xlink:href="#k"/>
<use x="60.818359" xlink:href="#g"/>
<use x="122.341797" xlink:href="#h"/>
<use x="163.439453" xlink:href="#l"/>
<use x="260.851562" xlink:href="#e"/>
<use x="288.634766" xlink:href="#f"/>
<use x="352.013672" xlink:href="#j"/>
<use x="413.292969" xlink:href="#i"/>
</g>
</g>
<path d="m84.247 396.91v35.285q0 2.4 2.4 2.4h7.7425q2.4 0 2.4-2.4v-35.285q0-2.4-2.4-2.4h-7.7425q-2.4 0-2.4 2.4z" clip-path="url(#a)" fill="#fff" stroke="#fff"/>
<g clip-path="url(#a)">
<g transform="translate(88.311 396.91) rotate(90) scale(.08 -.08)">
<use xlink:href="#k"/>
<use x="60.818359" xlink:href="#g"/>
<use x="122.341797" xlink:href="#h"/>
<use x="163.439453" xlink:href="#l"/>
<use x="260.851562" xlink:href="#e"/>
<use x="288.634766" xlink:href="#f"/>
<use x="352.013672" xlink:href="#j"/>
<use x="413.292969" xlink:href="#i"/>
</g>
</g>
<path d="m250.84 289.49 0.47946-5.0561q0.22657-2.3893-2.1627-2.6159l-7.7079-0.73093q-2.3893-0.22657-2.6159 2.1627l-0.47946 5.0561q-0.22657 2.3893 2.1627 2.6159l7.7079 0.73093q2.3893 0.22657 2.6159-2.1627z" clip-path="url(#a)" fill="#fff" stroke="#fff"/>
<g clip-path="url(#a)">
<defs>
<path id="s" d="m53.516 70.516v-9.625q-5.6094 2.6875-10.594 4-4.9844 1.3281-9.625 1.3281-8.0469 0-12.422-3.125t-4.375-8.8906q0-4.8438 2.9062-7.3125 2.9062-2.4531 11.016-3.9688l5.9531-1.2188q11.031-2.1094 16.281-7.4062t5.25-14.172q0-10.609-7.1094-16.078-7.0938-5.4688-20.812-5.4688-5.1719 0-11.016 1.1719-5.8281 1.1719-12.078 3.4688v10.156q6-3.3594 11.766-5.0781 5.7656-1.7031 11.328-1.7031 8.4375 0 13.031 3.3125 4.5938 3.3281 4.5938 9.4844 0 5.3594-3.2969 8.3906t-10.812 4.5469l-6.0156 1.1719q-11.031 2.1875-15.969 6.875-4.9219 4.6875-4.9219 13.047 0 9.6719 6.8125 15.234t18.766 5.5625q5.1406 0 10.453-0.9375 5.3281-0.92188 10.891-2.7656z"/>
</defs>
<g transform="translate(246.79 289.11) rotate(-84.583) scale(.08 -.08)">
<use xlink:href="#s"/>
</g>
</g>
<path d="m225.52 290.75 1.6319-4.3022q0.85118-2.244-1.3928-3.0952l-7.2392-2.7459q-2.244-0.85118-3.0952 1.3928l-1.6319 4.3022q-0.85118 2.244 1.3928 3.0952l7.2392 2.7459q2.244 0.85118 3.0952-1.3928z" clip-path="url(#a)" fill="#fff" stroke="#fff"/>
<g clip-path="url(#a)">
<g transform="translate(221.72 289.31) rotate(-69.228) scale(.08 -.08)">
<use xlink:href="#v"/>
</g>
</g>
<path d="m287.12 246.15 3.7519 3.9839q1.6454 1.7472 3.3926 0.10173l5.6364-5.3082q1.7472-1.6454 0.10173-3.3926l-3.7519-3.9839q-1.6454-1.7472-3.3926-0.10172l-5.6364 5.3082q-1.7472 1.6454-0.10173 3.3926z" clip-path="url(#a)" fill="#fff" stroke="#fff"/>
<g clip-path="url(#a)">
<g transform="translate(290.08 243.37) rotate(46.717) scale(.08 -.08)">
<use xlink:href="#p"/>
</g>
</g>
<path d="m230.44 396.91v35.285q0 2.4 2.4 2.4h7.7425q2.4 0 2.4-2.4v-35.285q0-2.4-2.4-2.4h-7.7425q-2.4 0-2.4 2.4z" clip-path="url(#a)" fill="#fff" stroke="#fff"/>
<g clip-path="url(#a)">
<g transform="translate(234.5 396.91) rotate(90) scale(.08 -.08)">
<use xlink:href="#k"/>
<use x="60.818359" xlink:href="#g"/>
<use x="122.341797" xlink:href="#h"/>
<use x="163.439453" xlink:href="#l"/>
<use x="260.851562" xlink:href="#e"/>
<use x="288.634766" xlink:href="#f"/>
<use x="352.013672" xlink:href="#j"/>
<use x="413.292969" xlink:href="#i"/>
</g>
</g>
<path d="m794.43 285.1 1.2886 5.4356q0.55362 2.3353 2.8889 1.7816l7.5337-1.786q2.3353-0.55362 1.7816-2.8889l-1.2886-5.4356q-0.55362-2.3353-2.8889-1.7816l-7.5337 1.786q-2.3353 0.55362-1.7816 2.8889z" clip-path="url(#a)" fill="#fff" stroke="#fff"/>
<g clip-path="url(#a)">
<defs>
<path id="ar" d="m64.406 67.281v-10.391q-4.9844 4.6406-10.625 6.9219-5.6406 2.2969-11.984 2.2969-12.5 0-19.141-7.6406t-6.6406-22.094q0-14.406 6.6406-22.047t19.141-7.6406q6.3438 0 11.984 2.2969t10.625 6.9375v-10.312q-5.1719-3.5156-10.969-5.2812-5.7812-1.75-12.219-1.75-16.562 0-26.094 10.125-9.5156 10.141-9.5156 27.672 0 17.578 9.5156 27.703 9.5312 10.141 26.094 10.141 6.5312 0 12.312-1.7344 5.7969-1.7344 10.875-5.2031z"/>
</defs>
<g transform="translate(798.38 284.16) rotate(76.663) scale(.08 -.08)">
<use xlink:href="#ar"/>
</g>
</g>
<path d="m757.67 290.53 1.4494-4.367q0.756-2.2778-1.5218-3.0338l-7.3483-2.4389q-2.2778-0.756-3.0338 1.5218l-1.4494 4.367q-0.756 2.2778 1.5218 3.0338l7.3483 2.4389q2.2778 0.756 3.0338-1.5218z" clip-path="url(#a)" fill="#fff" stroke="#fff"/>
<g clip-path="url(#a)">
<g transform="translate(753.82 289.25) rotate(-71.639) scale(.08 -.08)">
<use xlink:href="#v"/>
</g>
</g>
<path d="m782.36 242.52 0.93568 4.9676q0.44424 2.3585 2.8028 1.9143l7.6087-1.4331q2.3585-0.44424 1.9143-2.8028l-0.93568-4.9676q-0.44424-2.3585-2.8028-1.9143l-7.6087 1.4331q-2.3585 0.44424-1.9143 2.8028z" clip-path="url(#a)" fill="#fff" stroke="#fff"/>
<g clip-path="url(#a)">
<defs>
<path id="ap" d="m9.8125 72.906h46.094v-8.3125h-36.234v-21.578h34.719v-8.2969h-34.719v-26.422h37.109v-8.2969h-46.969z"/>
</defs>
<g transform="translate(786.36 241.77) rotate(79.333) scale(.08 -.08)">
<use xlink:href="#ap"/>
</g>
</g>
<path d="m815.21 396.91v35.285q0 2.4 2.4 2.4h7.7425q2.4 0 2.4-2.4v-35.285q0-2.4-2.4-2.4h-7.7425q-2.4 0-2.4 2.4z" clip-path="url(#a)" fill="#fff" stroke="#fff"/>
<g clip-path="url(#a)">
<g transform="translate(819.27 396.91) rotate(90) scale(.08 -.08)">
<use xlink:href="#k"/>
<use x="60.818359" xlink:href="#g"/>
<use x="122.341797" xlink:href="#h"/>
<use x="163.439453" xlink:href="#l"/>
<use x="260.851562" xlink:href="#e"/>
<use x="288.634766" xlink:href="#f"/>
<use x="352.013672" xlink:href="#j"/>
<use x="413.292969" xlink:href="#i"/>
</g>
</g>
<path d="m181.71 396.91v35.285q0 2.4 2.4 2.4h7.7425q2.4 0 2.4-2.4v-35.285q0-2.4-2.4-2.4h-7.7425q-2.4 0-2.4 2.4z" clip-path="url(#a)" fill="#fff" stroke="#fff"/>
<g clip-path="url(#a)">
<g transform="translate(185.77 396.91) rotate(90) scale(.08 -.08)">
<use xlink:href="#k"/>
<use x="60.818359" xlink:href="#g"/>
<use x="122.341797" xlink:href="#h"/>
<use x="163.439453" xlink:href="#l"/>
<use x="260.851562" xlink:href="#e"/>
<use x="288.634766" xlink:href="#f"/>
<use x="352.013672" xlink:href="#j"/>
<use x="413.292969" xlink:href="#i"/>
</g>
</g>
<path d="m351.83 330.41 2.5247 4.4067q1.1931 2.0824 3.2755 0.88935l6.718-3.8489q2.0824-1.1931 0.88935-3.2755l-2.5247-4.4067q-1.1931-2.0824-3.2755-0.88935l-6.718 3.8489q-2.0824 1.1931-0.88935 3.2755z" clip-path="url(#a)" fill="#fff" stroke="#fff"/>
<g clip-path="url(#a)">
<g transform="translate(355.36 328.39) rotate(60.19) scale(.08 -.08)">
<use xlink:href="#s"/>
</g>
</g>
<path d="m313.87 335.02 2.7634-4.8232q1.1931-2.0824-0.88935-3.2755l-6.718-3.8489q-2.0824-1.1931-3.2755 0.88936l-2.7634 4.8232q-1.1931 2.0824 0.88935 3.2755l6.718 3.8489q2.0824 1.1931 3.2755-0.88935z" clip-path="url(#a)" fill="#fff" stroke="#fff"/>
<g clip-path="url(#a)">
<g transform="translate(310.34 333) rotate(-60.19) scale(.08 -.08)">
<use xlink:href="#af"/>
</g>
</g>
<path d="m327.9 326.76v5.4725q0 2.4 2.4 2.4h7.7425q2.4 0 2.4-2.4v-5.4725q0-2.4-2.4-2.4h-7.7425q-2.4 0-2.4 2.4z" clip-path="url(#a)" fill="#fff" stroke="#fff"/>
<g clip-path="url(#a)">
<g transform="translate(331.97 326.76) rotate(90) scale(.08 -.08)">
<use xlink:href="#p"/>
</g>
</g>
<path d="m376.63 396.91v35.285q0 2.4 2.4 2.4h7.7425q2.4 0 2.4-2.4v-35.285q0-2.4-2.4-2.4h-7.7425q-2.4 0-2.4 2.4z" clip-path="url(#a)" fill="#fff" stroke="#fff"/>
<g clip-path="url(#a)">
<g transform="translate(380.7 396.91) rotate(90) scale(.08 -.08)">
<use xlink:href="#k"/>
<use x="60.818359" xlink:href="#g"/>
<use x="122.341797" xlink:href="#h"/>
<use x="163.439453" xlink:href="#l"/>
<use x="260.851562" xlink:href="#e"/>
<use x="288.634766" xlink:href="#f"/>
<use x="352.013672" xlink:href="#j"/>
<use x="413.292969" xlink:href="#i"/>
</g>
</g>
<path d="m717.75 396.91v35.285q0 2.4 2.4 2.4h7.7425q2.4 0 2.4-2.4v-35.285q0-2.4-2.4-2.4h-7.7425q-2.4 0-2.4 2.4z" clip-path="url(#a)" fill="#fff" stroke="#fff"/>
<g clip-path="url(#a)">
<g transform="translate(721.81 396.91) rotate(90) scale(.08 -.08)">
<use xlink:href="#k"/>
<use x="60.818359" xlink:href="#g"/>
<use x="122.341797" xlink:href="#h"/>
<use x="163.439453" xlink:href="#l"/>
<use x="260.851562" xlink:href="#e"/>
<use x="288.634766" xlink:href="#f"/>
<use x="352.013672" xlink:href="#j"/>
<use x="413.292969" xlink:href="#i"/>
</g>
</g>
<path d="m802.52 328.59 1.5071 5.2609q0.66093 2.3072 2.9681 1.6463l7.4431-2.1322q2.3072-0.66093 1.6463-2.9681l-1.5071-5.2609q-0.66093-2.3072-2.9681-1.6463l-7.4431 2.1322q-2.3072 0.66093-1.6463 2.9681z" clip-path="url(#a)" fill="#fff" stroke="#fff"/>
<g clip-path="url(#a)">
<g transform="translate(806.42 327.47) rotate(74.015) scale(.08 -.08)">
<use xlink:href="#p"/>
</g>
</g>
<path d="m790.26 333.66 1.3986-4.8824q0.66093-2.3072-1.6463-2.9681l-7.4431-2.1322q-2.3072-0.66093-2.9681 1.6463l-1.3986 4.8824q-0.66093 2.3072 1.6463 2.9681l7.4431 2.1322q2.3072 0.66093 2.9681-1.6463z" clip-path="url(#a)" fill="#fff" stroke="#fff"/>
<g clip-path="url(#a)">
<g transform="translate(786.36 332.54) rotate(-74.015) scale(.08 -.08)">
<use xlink:href="#s"/>
</g>
</g>
<path d="m766.48 396.91v35.285q0 2.4 2.4 2.4h7.7425q2.4 0 2.4-2.4v-35.285q0-2.4-2.4-2.4h-7.7425q-2.4 0-2.4 2.4z" clip-path="url(#a)" fill="#fff" stroke="#fff"/>
<g clip-path="url(#a)">
<g transform="translate(770.54 396.91) rotate(90) scale(.08 -.08)">
<use xlink:href="#k"/>
<use x="60.818359" xlink:href="#g"/>
<use x="122.341797" xlink:href="#h"/>
<use x="163.439453" xlink:href="#l"/>
<use x="260.851562" xlink:href="#e"/>
<use x="288.634766" xlink:href="#f"/>
<use x="352.013672" xlink:href="#j"/>
<use x="413.292969" xlink:href="#i"/>
</g>
</g>
<path d="m279.17 396.91v35.285q0 2.4 2.4 2.4h7.7425q2.4 0 2.4-2.4v-35.285q0-2.4-2.4-2.4h-7.7425q-2.4 0-2.4 2.4z" clip-path="url(#a)" fill="#fff" stroke="#fff"/>
<g clip-path="url(#a)">
<g transform="translate(283.23 396.91) rotate(90) scale(.08 -.08)">
<use xlink:href="#k"/>
<use x="60.818359" xlink:href="#g"/>
<use x="122.341797" xlink:href="#h"/>
<use x="163.439453" xlink:href="#l"/>
<use x="260.851562" xlink:href="#e"/>
<use x="288.634766" xlink:href="#f"/>
<use x="352.013672" xlink:href="#j"/>
<use x="413.292969" xlink:href="#i"/>
</g>
</g>
<path d="m327.9 396.91v35.285q0 2.4 2.4 2.4h7.7425q2.4 0 2.4-2.4v-35.285q0-2.4-2.4-2.4h-7.7425q-2.4 0-2.4 2.4z" clip-path="url(#a)" fill="#fff" stroke="#fff"/>
<g clip-path="url(#a)">
<g transform="translate(331.97 396.91) rotate(90) scale(.08 -.08)">
<use xlink:href="#k"/>
<use x="60.818359" xlink:href="#g"/>
<use x="122.341797" xlink:href="#h"/>
<use x="163.439453" xlink:href="#l"/>
<use x="260.851562" xlink:href="#e"/>
<use x="288.634766" xlink:href="#f"/>
<use x="352.013672" xlink:href="#j"/>
<use x="413.292969" xlink:href="#i"/>
</g>
</g>
<defs>
<path id="b" d="m0 8.6603c2.2967 0 4.4997-0.9125 6.1237-2.5365 1.624-1.624 2.5365-3.827 2.5365-6.1237s-0.9125-4.4997-2.5365-6.1237c-1.624-1.624-3.827-2.5365-6.1237-2.5365s-4.4997 0.9125-6.1237 2.5365c-1.624 1.624-2.5365 3.827-2.5365 6.1237s0.9125 4.4997 2.5365 6.1237c1.624 1.624 3.827 2.5365 6.1237 2.5365z"/>
</defs>
<g clip-path="url(#a)">
<use x="41.78772" y="457.076908" fill="#ffffff" stroke="#ffffff" xlink:href="#b"/>
</g>
<g clip-path="url(#a)">
<use x="90.518577" y="457.076908" fill="#ffffff" stroke="#ffffff" xlink:href="#b"/>
</g>
<g clip-path="url(#a)">
<use x="139.249433" y="457.076908" fill="#ffffff" stroke="#ffffff" xlink:href="#b"/>
</g>
<g clip-path="url(#a)">
<use x="187.98029" y="457.076908" fill="#ffffff" stroke="#ffffff" xlink:href="#b"/>
</g>
<g clip-path="url(#a)">
<use x="236.711146" y="457.076908" fill="#ffffff" stroke="#ffffff" xlink:href="#b"/>
</g>
<g clip-path="url(#a)">
<use x="285.442003" y="457.076908" fill="#ffffff" stroke="#ffffff" xlink:href="#b"/>
</g>
<g clip-path="url(#a)">
<use x="334.172859" y="457.076908" fill="#ffffff" stroke="#ffffff" xlink:href="#b"/>
</g>
<g clip-path="url(#a)">
<use x="382.903715" y="457.076908" fill="#ffffff" stroke="#ffffff" xlink:href="#b"/>
</g>
<g clip-path="url(#a)">
<use x="431.634572" y="457.076908" fill="#ffffff" stroke="#ffffff" xlink:href="#b"/>
</g>
<g clip-path="url(#a)">
<use x="480.365428" y="457.076908" fill="#ffffff" stroke="#ffffff" xlink:href="#b"/>
</g>
<g clip-path="url(#a)">
<use x="529.096285" y="457.076908" fill="#ffffff" stroke="#ffffff" xlink:href="#b"/>
</g>
<g clip-path="url(#a)">
<use x="577.827141" y="457.076908" fill="#ffffff" stroke="#ffffff" xlink:href="#b"/>
</g>
<g clip-path="url(#a)">
<use x="626.557997" y="457.076908" fill="#ffffff" stroke="#ffffff" xlink:href="#b"/>
</g>
<g clip-path="url(#a)">
<use x="675.288854" y="457.076908" fill="#ffffff" stroke="#ffffff" xlink:href="#b"/>
</g>
<g clip-path="url(#a)">
<use x="724.01971" y="457.076908" fill="#ffffff" stroke="#ffffff" xlink:href="#b"/>
</g>
<g clip-path="url(#a)">
<use x="772.750567" y="457.076908" fill="#ffffff" stroke="#ffffff" xlink:href="#b"/>
</g>
<g clip-path="url(#a)">
<use x="821.481423" y="457.076908" fill="#ffffff" stroke="#ffffff" xlink:href="#b"/>
</g>
<g clip-path="url(#a)">
<use x="870.21228" y="457.076908" fill="#ffffff" stroke="#ffffff" xlink:href="#b"/>
</g>
<g clip-path="url(#a)">
<use x="379.181219" y="22.923092" fill="#ffffff" stroke="#ffffff" xlink:href="#b"/>
</g>
<g clip-path="url(#a)">
<use x="585.94895" y="286.964858" fill="#ffffff" stroke="#ffffff" xlink:href="#b"/>
</g>
<g clip-path="url(#a)">
<use x="577.827141" y="372.020883" fill="#ffffff" stroke="#ffffff" xlink:href="#b"/>
</g>
<g clip-path="url(#a)">
<use x="41.78772" y="372.020883" fill="#ffffff" stroke="#ffffff" xlink:href="#b"/>
</g>
<g clip-path="url(#a)">
<use x="160.907592" y="112.82576" fill="#ffffff" stroke="#ffffff" xlink:href="#b"/>
</g>
<g clip-path="url(#a)">
<use x="139.249433" y="372.020883" fill="#ffffff" stroke="#ffffff" xlink:href="#b"/>
</g>
<g clip-path="url(#a)">
<use x="431.634572" y="372.020883" fill="#ffffff" stroke="#ffffff" xlink:href="#b"/>
</g>
<g clip-path="url(#a)">
<use x="480.365428" y="372.020883" fill="#ffffff" stroke="#ffffff" xlink:href="#b"/>
</g>
<g clip-path="url(#a)">
<use x="529.096285" y="372.020883" fill="#ffffff" stroke="#ffffff" xlink:href="#b"/>
</g>
<g clip-path="url(#a)">
<use x="626.557997" y="372.020883" fill="#ffffff" stroke="#ffffff" xlink:href="#b"/>
</g>
<g clip-path="url(#a)">
<use x="728.080615" y="112.82576" fill="#ffffff" stroke="#ffffff" xlink:href="#b"/>
</g>
<g clip-path="url(#a)">
<use x="675.288854" y="372.020883" fill="#ffffff" stroke="#ffffff" xlink:href="#b"/>
</g>
<g clip-path="url(#a)">
<use x="870.21228" y="372.020883" fill="#ffffff" stroke="#ffffff" xlink:href="#b"/>
</g>
<g clip-path="url(#a)">
<use x="90.518577" y="372.020883" fill="#ffffff" stroke="#ffffff" xlink:href="#b"/>
</g>
<g clip-path="url(#a)">
<use x="252.954765" y="200.72561" fill="#ffffff" stroke="#ffffff" xlink:href="#b"/>
</g>
<g clip-path="url(#a)">
<use x="236.711146" y="372.020883" fill="#ffffff" stroke="#ffffff" xlink:href="#b"/>
</g>
<g clip-path="url(#a)">
<use x="780.872376" y="200.72561" fill="#ffffff" stroke="#ffffff" xlink:href="#b"/>
</g>
<g clip-path="url(#a)">
<use x="821.481423" y="372.020883" fill="#ffffff" stroke="#ffffff" xlink:href="#b"/>
</g>
<g clip-path="url(#a)">
<use x="187.98029" y="372.020883" fill="#ffffff" stroke="#ffffff" xlink:href="#b"/>
</g>
<g clip-path="url(#a)">
<use x="334.172859" y="286.964858" fill="#ffffff" stroke="#ffffff" xlink:href="#b"/>
</g>
<g clip-path="url(#a)">
<use x="382.903715" y="372.020883" fill="#ffffff" stroke="#ffffff" xlink:href="#b"/>
</g>
<g clip-path="url(#a)">
<use x="724.01971" y="372.020883" fill="#ffffff" stroke="#ffffff" xlink:href="#b"/>
</g>
<g clip-path="url(#a)">
<use x="797.115995" y="286.964858" fill="#ffffff" stroke="#ffffff" xlink:href="#b"/>
</g>
<g clip-path="url(#a)">
<use x="772.750567" y="372.020883" fill="#ffffff" stroke="#ffffff" xlink:href="#b"/>
</g>
<g clip-path="url(#a)">
<use x="285.442003" y="372.020883" fill="#ffffff" stroke="#ffffff" xlink:href="#b"/>
</g>
<g clip-path="url(#a)">
<use x="334.172859" y="372.020883" fill="#ffffff" stroke="#ffffff" xlink:href="#b"/>
</g>
<g clip-path="url(#a)">
<defs>
<path id="ao" d="m9.8125 72.906h9.8594v-72.906h-9.8594z"/>
<path id="ab" d="m37.109 75.984v-7.4844h-8.5938q-4.8281 0-6.7188-1.9531-1.875-1.9531-1.875-7.0312v-4.8281h14.797v-6.9844h-14.797v-47.703h-9.0312v47.703h-8.5938v6.9844h8.5938v3.8125q0 9.125 4.25 13.297 4.25 4.1875 13.469 4.1875z"/>
</defs>
<g transform="translate(38.553 459.84) scale(.1 -.1)">
<use xlink:href="#ao"/>
<use x="29.492188" xlink:href="#ab"/>
</g>
</g>
<g clip-path="url(#a)">
<defs>
<path id="ak" d="m32.172-5.0781q-3.7969-9.7656-7.4219-12.734-3.6094-2.9844-9.6562-2.9844h-7.1875v7.5156h5.2812q3.7031 0 5.75 1.7656 2.0625 1.75 4.5469 8.2969l1.6094 4.0938-22.109 53.812h9.5156l17.094-42.766 17.094 42.766h9.5156z"/>
<path id="o" d="m30.609 48.391q-7.2188 0-11.422-5.6406t-4.2031-15.453 4.1719-15.453q4.1875-5.6406 11.453-5.6406 7.1875 0 11.375 5.6562 4.2031 5.6719 4.2031 15.438 0 9.7188-4.2031 15.406-4.1875 5.6875-11.375 5.6875zm0 7.6094q11.719 0 18.406-7.625 6.7031-7.6094 6.7031-21.078 0-13.422-6.7031-21.078-6.6875-7.6406-18.406-7.6406-11.766 0-18.438 7.6406-6.6562 7.6562-6.6562 21.078 0 13.469 6.6562 21.078 6.6719 7.625 18.438 7.625z"/>
<path id="aa" d="m8.5 21.578v33.109h8.9844v-32.766q0-7.7656 3.0156-11.656 3.0312-3.875 9.0938-3.875 7.2656 0 11.484 4.6406 4.2344 4.6406 4.2344 12.656v31h8.9844v-54.688h-8.9844v8.4062q-3.2656-4.9844-7.5938-7.4062-4.3125-2.4219-10.031-2.4219-9.4219 0-14.312 5.8594-4.875 5.8594-4.875 17.141z"/>
</defs>
<g transform="translate(81.331 459.84) scale(.1 -.1)">
<use xlink:href="#ak"/>
<use x="59.179688" xlink:href="#o"/>
<use x="120.361328" xlink:href="#aa"/>
</g>
</g>
<g clip-path="url(#a)">
<defs>
<path id="al" d="m4.2031 54.688h8.9844l11.234-42.672 11.172 42.672h10.594l11.234-42.672 11.188 42.672h8.9844l-14.312-54.688h-10.594l-11.766 44.828-11.812-44.828h-10.609z"/>
<path id="n" d="m18.312 70.219v-15.531h18.5v-6.9844h-18.5v-29.688q0-6.6875 1.8281-8.5938t7.4531-1.9062h9.2188v-7.5156h-9.2188q-10.406 0-14.359 3.875-3.9531 3.8906-3.9531 14.141v29.688h-6.5938v6.9844h6.5938v15.531z"/>
</defs>
<g transform="translate(126.97 459.84) scale(.1 -.1)">
<use xlink:href="#al"/>
<use x="81.787109" xlink:href="#j"/>
<use x="143.066406" xlink:href="#f"/>
<use x="206.445312" xlink:href="#n"/>
</g>
</g>
<g clip-path="url(#a)">
<defs>
<path id="r" d="m54.891 33.016v-33.016h-8.9844v32.719q0 7.7656-3.0312 11.609-3.0312 3.8594-9.0781 3.8594-7.2812 0-11.484-4.6406-4.2031-4.625-4.2031-12.641v-30.906h-9.0312v75.984h9.0312v-29.797q3.2344 4.9375 7.5938 7.375 4.375 2.4375 10.094 2.4375 9.4219 0 14.25-5.8281 4.8438-5.8281 4.8438-17.156z"/>
</defs>
<g transform="translate(179.77 459.84) scale(.1 -.1)">
<use xlink:href="#n"/>
<use x="39.208984" xlink:href="#r"/>
<use x="102.587891" xlink:href="#g"/>
</g>
</g>
<g clip-path="url(#a)">
<defs>
<path id="am" d="m48.688 27.297q0 9.9062-4.0781 15.547t-11.203 5.6406q-7.1406 0-11.219-5.6406t-4.0781-15.547 4.0781-15.547 11.219-5.6406q7.125 0 11.203 5.6406t4.0781 15.547zm-30.578 19.094q2.8438 4.875 7.1562 7.2344 4.3281 2.375 10.328 2.375 9.9688 0 16.188-7.9062 6.2344-7.9062 6.2344-20.797t-6.2344-20.812q-6.2188-7.9062-16.188-7.9062-6 0-10.328 2.375-4.3125 2.375-7.1562 7.25v-8.2031h-9.0312v75.984h9.0312z"/>
<path id="q" d="m44.281 53.078v-8.5q-3.7969 1.9531-7.9062 2.9219-4.0938 0.98438-8.5 0.98438-6.6875 0-10.031-2.0469t-3.3438-6.1562q0-3.125 2.3906-4.9062t9.625-3.3906l3.0781-0.6875q9.5625-2.0469 13.594-5.7812t4.0312-10.422q0-7.625-6.0312-12.078-6.0312-4.4375-16.578-4.4375-4.3906 0-9.1562 0.85938t-10.031 2.5625v9.2812q4.9844-2.5938 9.8125-3.8906 4.8281-1.2812 9.5781-1.2812 6.3438 0 9.75 2.1719 3.4219 2.1719 3.4219 6.125 0 3.6562-2.4688 5.6094-2.4531 1.9531-10.812 3.7656l-3.125 0.73438q-8.3438 1.75-12.062 5.3906-3.7031 3.6406-3.7031 9.9844 0 7.7188 5.4688 11.906 5.4688 4.2031 15.531 4.2031 4.9688 0 9.3594-0.73438 4.4062-0.71875 8.1094-2.1875z"/>
</defs>
<g transform="translate(225.9 459.84) scale(.1 -.1)">
<use xlink:href="#am"/>
<use x="63.476562" xlink:href="#g"/>
<use x="125" xlink:href="#q"/>
<use x="177.099609" xlink:href="#n"/>
</g>
</g>
<g clip-path="url(#a)">
<g transform="translate(278.57 459.84) scale(.1 -.1)">
<use xlink:href="#ab"/>
<use x="35.205078" xlink:href="#o"/>
<use x="96.386719" xlink:href="#h"/>
</g>
</g>
<g clip-path="url(#a)">
<g transform="translate(322.93 459.84) scale(.1 -.1)">
<use xlink:href="#ak"/>
<use x="59.179688" xlink:href="#o"/>
<use x="120.361328" xlink:href="#aa"/>
<use x="183.740234" xlink:href="#h"/>
</g>
</g>
<g clip-path="url(#a)">
<defs>
<path id="ad" d="m48.781 52.594v-8.4062q-3.8125 2.1094-7.6406 3.1562t-7.7344 1.0469q-8.75 0-13.594-5.5469-4.8281-5.5312-4.8281-15.547t4.8281-15.562q4.8438-5.5312 13.594-5.5312 3.9062 0 7.7344 1.0469t7.6406 3.1562v-8.3125q-3.7656-1.75-7.7969-2.625-4.0156-0.89062-8.5625-0.89062-12.359 0-19.641 7.7656-7.2656 7.7656-7.2656 20.953 0 13.375 7.3438 21.031 7.3594 7.6719 20.156 7.6719 4.1406 0 8.0938-0.85938 3.9531-0.84375 7.6719-2.5469z"/>
<path id="ac" d="m45.406 46.391v29.594h8.9844v-75.984h-8.9844v8.2031q-2.8281-4.875-7.1562-7.25-4.3125-2.375-10.375-2.375-9.9062 0-16.141 7.9062-6.2188 7.9219-6.2188 20.812t6.2188 20.797q6.2344 7.9062 16.141 7.9062 6.0625 0 10.375-2.375 4.3281-2.3594 7.1562-7.2344zm-30.609-19.094q0-9.9062 4.0781-15.547t11.203-5.6406 11.219 5.6406q4.1094 5.6406 4.1094 15.547t-4.1094 15.547q-4.0938 5.6406-11.219 5.6406t-11.203-5.6406-4.0781-15.547z"/>
</defs>
<g transform="translate(371.03 459.84) scale(.1 -.1)">
<use xlink:href="#ad"/>
<use x="54.980469" xlink:href="#r"/>
<use x="118.359375" xlink:href="#e"/>
<use x="146.142578" xlink:href="#i"/>
<use x="173.925781" xlink:href="#ac"/>
</g>
</g>
<g clip-path="url(#a)">
<defs>
<path id="as" d="m11.719 12.406h10.297v-8.4062l-8-15.625h-6.2969l4 15.625z"/>
</defs>
<g transform="translate(430.05 459.84) scale(.1 -.1)">
<use xlink:href="#as"/>
</g>
</g>
<g clip-path="url(#a)">
<g transform="translate(474.13 459.84) scale(.1 -.1)">
<use xlink:href="#ac"/>
<use x="63.476562" xlink:href="#o"/>
</g>
</g>
<g clip-path="url(#a)">
<defs>
<path id="at" d="m17.922 72.906v-27.109h-8.2969v27.109z"/>
</defs>
<g transform="translate(522.59 459.84) scale(.1 -.1)">
<use xlink:href="#f"/>
<use x="63.378906" xlink:href="#at"/>
<use x="90.869141" xlink:href="#n"/>
</g>
</g>
<g clip-path="url(#a)">
<g transform="translate(557.53 459.84) scale(.1 -.1)">
<use xlink:href="#r"/>
<use x="63.378906" xlink:href="#g"/>
<use x="124.902344" xlink:href="#q"/>
<use x="177.001953" xlink:href="#e"/>
<use x="204.785156" xlink:href="#n"/>
<use x="243.994141" xlink:href="#j"/>
<use x="305.273438" xlink:href="#n"/>
<use x="344.482422" xlink:href="#g"/>
</g>
</g>
<g clip-path="url(#a)">
<g transform="translate(622 459.84) scale(.1 -.1)">
<use xlink:href="#e"/>
<use x="27.783203" xlink:href="#f"/>
</g>
</g>
<g clip-path="url(#a)">
<defs>
<path id="au" d="m2.9844 54.688h9.5156l17.094-45.891 17.094 45.891h9.5156l-20.516-54.688h-12.203z"/>
<path id="av" d="m45.406 27.984q0 9.7656-4.0312 15.125-4.0156 5.375-11.297 5.375-7.2188 0-11.25-5.375-4.0312-5.3594-4.0312-15.125 0-9.7188 4.0312-15.094t11.25-5.375q7.2812 0 11.297 5.375 4.0312 5.375 4.0312 15.094zm8.9844-21.203q0-13.953-6.2031-20.766-6.1875-6.8125-18.984-6.8125-4.7344 0-8.9375 0.70312t-8.1562 2.1719v8.7344q3.9531-2.1406 7.8125-3.1562 3.8594-1.0312 7.8594-1.0312 8.8438 0 13.234 4.6094t4.3906 13.938v4.4531q-2.7812-4.8438-7.125-7.2344t-10.406-2.3906q-10.047 0-16.203 7.6562-6.1562 7.6719-6.1562 20.328 0 12.688 6.1562 20.344 6.1562 7.6719 16.203 7.6719 6.0625 0 10.406-2.3906t7.125-7.2188v8.2969h8.9844z"/>
</defs>
<g transform="translate(657.25 459.84) scale(.1 -.1)">
<use xlink:href="#au"/>
<use x="59.179688" xlink:href="#e"/>
<use x="86.962891" xlink:href="#q"/>
<use x="139.0625" xlink:href="#e"/>
<use x="166.845703" xlink:href="#n"/>
<use x="206.054688" xlink:href="#e"/>
<use x="233.837891" xlink:href="#f"/>
<use x="297.216797" xlink:href="#av"/>
</g>
</g>
<g clip-path="url(#a)">
<g transform="translate(714.9 459.84) scale(.1 -.1)">
<use xlink:href="#n"/>
<use x="39.208984" xlink:href="#r"/>
<use x="102.587891" xlink:href="#e"/>
<use x="130.371094" xlink:href="#q"/>
</g>
</g>
<g clip-path="url(#a)">
<g transform="translate(745.75 459.84) scale(.1 -.1)">
<use xlink:href="#al"/>
<use x="81.787109" xlink:href="#o"/>
<use x="142.96875" xlink:href="#h"/>
<use x="184.066406" xlink:href="#f"/>
<use x="247.445312" xlink:href="#ac"/>
<use x="310.921875" xlink:href="#g"/>
<use x="372.445312" xlink:href="#h"/>
<use x="413.558594" xlink:href="#ab"/>
<use x="448.763672" xlink:href="#aa"/>
<use x="512.142578" xlink:href="#i"/>
</g>
</g>
<g clip-path="url(#a)">
<g transform="translate(805.45 459.84) scale(.1 -.1)">
<use xlink:href="#q"/>
<use x="52.099609" xlink:href="#ad"/>
<use x="107.080078" xlink:href="#r"/>
<use x="170.458984" xlink:href="#o"/>
<use x="231.640625" xlink:href="#o"/>
<use x="292.822266" xlink:href="#i"/>
</g>
</g>
<g clip-path="url(#a)">
<defs>
<path id="d" d="m10.688 12.406h10.312v-12.406h-10.312z"/>
</defs>
<g transform="translate(868.62 459.84) scale(.1 -.1)">
<use xlink:href="#d"/>
</g>
</g>
<g clip-path="url(#a)">
<defs>
<path id="c" d="m12.406 8.2969h16.109v55.625l-17.531-3.5156v8.9844l17.438 3.5156h9.8594v-64.609h16.109v-8.2969h-41.984z"/>
</defs>
<g transform="translate(371.23 25.682) scale(.1 -.1)">
<use xlink:href="#c"/>
<use x="63.623047" xlink:href="#d"/>
<use x="95.410156" xlink:href="#c"/>
</g>
</g>
<g clip-path="url(#a)">
<defs>
<path id="m" d="m19.188 8.2969h34.422v-8.2969h-46.281v8.2969q5.6094 5.8125 15.297 15.594 9.7031 9.7969 12.188 12.641 4.7344 5.3125 6.6094 9 1.8906 3.6875 1.8906 7.25 0 5.8125-4.0781 9.4688-4.0781 3.6719-10.625 3.6719-4.6406 0-9.7969-1.6094-5.1406-1.6094-11-4.8906v9.9688q5.9531 2.3906 11.125 3.6094 5.1875 1.2188 9.4844 1.2188 11.328 0 18.062-5.6719 6.7344-5.6562 6.7344-15.125 0-4.5-1.6875-8.5312-1.6719-4.0156-6.125-9.4844-1.2188-1.4219-7.7656-8.1875-6.5312-6.7656-18.453-18.922z"/>
</defs>
<g transform="translate(578 289.72) scale(.1 -.1)">
<use xlink:href="#c"/>
<use x="63.623047" xlink:href="#d"/>
<use x="95.410156" xlink:href="#m"/>
</g>
</g>
<g clip-path="url(#a)">
<defs>
<path id="z" d="m40.578 39.312q7.0781-1.5156 11.047-6.3125 3.9844-4.7812 3.9844-11.812 0-10.781-7.4219-16.703-7.4219-5.9062-21.094-5.9062-4.5781 0-9.4375 0.90625t-10.031 2.7188v9.5156q4.0938-2.3906 8.9688-3.6094 4.8906-1.2188 10.219-1.2188 9.2656 0 14.125 3.6562t4.8594 10.641q0 6.4531-4.5156 10.078-4.5156 3.6406-12.562 3.6406h-8.5v8.1094h8.8906q7.2656 0 11.125 2.9062t3.8594 8.375q0 5.6094-3.9844 8.6094-3.9688 3.0156-11.391 3.0156-4.0625 0-8.7031-0.89062-4.6406-0.875-10.203-2.7188v8.7812q5.625 1.5625 10.531 2.3438t9.25 0.78125q11.234 0 17.766-5.1094 6.5469-5.0938 6.5469-13.781 0-6.0625-3.4688-10.234t-9.8594-5.7812z"/>
</defs>
<g transform="translate(569.88 374.78) scale(.1 -.1)">
<use xlink:href="#c"/>
<use x="63.623047" xlink:href="#d"/>
<use x="95.410156" xlink:href="#z"/>
</g>
</g>
<g clip-path="url(#a)">
<defs>
<path id="y" d="m37.797 64.312-24.906-38.922h24.906zm-2.5938 8.5938h12.406v-47.516h10.406v-8.2031h-10.406v-17.188h-9.8125v17.188h-32.906v9.5156z"/>
</defs>
<g transform="translate(33.836 374.78) scale(.1 -.1)">
<use xlink:href="#c"/>
<use x="63.623047" xlink:href="#d"/>
<use x="95.410156" xlink:href="#y"/>
</g>
</g>
<g clip-path="url(#a)">
<defs>
<path id="x" d="m10.797 72.906h38.719v-8.3125h-29.688v-17.859q2.1406 0.73438 4.2812 1.0938 2.1562 0.35938 4.3125 0.35938 12.203 0 19.328-6.6875 7.1406-6.6875 7.1406-18.109 0-11.766-7.3281-18.297-7.3281-6.5156-20.656-6.5156-4.5938 0-9.3594 0.78125-4.75 0.78125-9.8281 2.3438v9.9219q4.3906-2.3906 9.0781-3.5625t9.9062-1.1719q8.4531 0 13.375 4.4375 4.9375 4.4375 4.9375 12.062 0 7.6094-4.9375 12.047-4.9219 4.4531-13.375 4.4531-3.9531 0-7.8906-0.875-3.9219-0.875-8.0156-2.7344z"/>
</defs>
<g transform="translate(152.96 115.59) scale(.1 -.1)">
<use xlink:href="#c"/>
<use x="63.623047" xlink:href="#d"/>
<use x="95.410156" xlink:href="#x"/>
</g>
</g>
<g clip-path="url(#a)">
<defs>
<path id="w" d="m33.016 40.375q-6.6406 0-10.531-4.5469-3.875-4.5312-3.875-12.438 0-7.8594 3.875-12.438 3.8906-4.5625 10.531-4.5625t10.516 4.5625q3.875 4.5781 3.875 12.438 0 7.9062-3.875 12.438-3.875 4.5469-10.516 4.5469zm19.578 30.922v-8.9844q-3.7188 1.75-7.5 2.6719-3.7812 0.9375-7.5 0.9375-9.7656 0-14.922-6.5938-5.1406-6.5938-5.875-19.922 2.875 4.25 7.2188 6.5156 4.3594 2.2656 9.5781 2.2656 10.984 0 17.359-6.6719 6.375-6.6562 6.375-18.125 0-11.234-6.6406-18.031-6.6406-6.7812-17.672-6.7812-12.656 0-19.344 9.6875-6.6875 9.7031-6.6875 28.109 0 17.281 8.2031 27.562t22.016 10.281q3.7188 0 7.5-0.73438t7.8906-2.1875z"/>
</defs>
<g transform="translate(131.3 374.78) scale(.1 -.1)">
<use xlink:href="#c"/>
<use x="63.623047" xlink:href="#d"/>
<use x="95.410156" xlink:href="#w"/>
</g>
</g>
<g clip-path="url(#a)">
<defs>
<path id="ai" d="m8.2031 72.906h46.875v-4.2031l-26.469-68.703h-10.297l24.906 64.594h-35.016z"/>
</defs>
<g transform="translate(423.68 374.78) scale(.1 -.1)">
<use xlink:href="#c"/>
<use x="63.623047" xlink:href="#d"/>
<use x="95.410156" xlink:href="#ai"/>
</g>
</g>
<g clip-path="url(#a)">
<defs>
<path id="ah" d="m31.781 34.625q-7.0312 0-11.062-3.7656-4.0156-3.7656-4.0156-10.344 0-6.5938 4.0156-10.359 4.0312-3.7656 11.062-3.7656t11.078 3.7812q4.0625 3.7969 4.0625 10.344 0 6.5781-4.0312 10.344-4.0156 3.7656-11.109 3.7656zm-9.8594 4.1875q-6.3438 1.5625-9.8906 5.9062-3.5312 4.3594-3.5312 10.609 0 8.7344 6.2188 13.812 6.2344 5.0781 17.062 5.0781 10.891 0 17.094-5.0781t6.2031-13.812q0-6.25-3.5469-10.609-3.5312-4.3438-9.8281-5.9062 7.125-1.6562 11.094-6.5 3.9844-4.8281 3.9844-11.797 0-10.609-6.4688-16.281-6.4688-5.6562-18.531-5.6562-12.047 0-18.531 5.6562-6.4688 5.6719-6.4688 16.281 0 6.9688 4 11.797 4.0156 4.8438 11.141 6.5zm-3.6094 15.578q0-5.6562 3.5312-8.8281 3.5469-3.1719 9.9375-3.1719 6.3594 0 9.9375 3.1719 3.5938 3.1719 3.5938 8.8281 0 5.6719-3.5938 8.8438-3.5781 3.1719-9.9375 3.1719-6.3906 0-9.9375-3.1719-3.5312-3.1719-3.5312-8.8438z"/>
</defs>
<g transform="translate(472.41 374.78) scale(.1 -.1)">
<use xlink:href="#c"/>
<use x="63.623047" xlink:href="#d"/>
<use x="95.410156" xlink:href="#ah"/>
</g>
</g>
<g clip-path="url(#a)">
<defs>
<path id="ag" d="m10.984 1.5156v8.9844q3.7188-1.7656 7.5156-2.6875 3.8125-0.92188 7.4844-0.92188 9.7656 0 14.906 6.5625 5.1562 6.5625 5.8906 19.953-2.8281-4.2031-7.1875-6.4531-4.3438-2.25-9.6094-2.25-10.938 0-17.312 6.6094-6.375 6.625-6.375 18.109 0 11.219 6.6406 18 6.6406 6.7969 17.672 6.7969 12.656 0 19.312-9.7031 6.6719-9.6875 6.6719-28.141 0-17.234-8.1875-27.516-8.1719-10.281-21.984-10.281-3.7188 0-7.5312 0.73438-3.7969 0.73438-7.9062 2.2031zm19.625 30.906q6.6406 0 10.516 4.5312 3.8906 4.5469 3.8906 12.469 0 7.8594-3.8906 12.422-3.875 4.5625-10.516 4.5625t-10.516-4.5625-3.875-12.422q0-7.9219 3.875-12.469 3.875-4.5312 10.516-4.5312z"/>
</defs>
<g transform="translate(521.14 374.78) scale(.1 -.1)">
<use xlink:href="#c"/>
<use x="63.623047" xlink:href="#d"/>
<use x="95.410156" xlink:href="#ag"/>
</g>
</g>
<g clip-path="url(#a)">
<defs>
<path id="aj" d="m31.781 66.406q-7.6094 0-11.453-7.5-3.8281-7.4844-3.8281-22.531 0-14.984 3.8281-22.484 3.8438-7.5 11.453-7.5 7.6719 0 11.5 7.5 3.8438 7.5 3.8438 22.484 0 15.047-3.8438 22.531-3.8281 7.5-11.5 7.5zm0 7.8125q12.266 0 18.734-9.7031 6.4688-9.6875 6.4688-28.141 0-18.406-6.4688-28.109-6.4688-9.6875-18.734-9.6875-12.25 0-18.719 9.6875-6.4688 9.7031-6.4688 28.109 0 18.453 6.4688 28.141 6.4688 9.7031 18.719 9.7031z"/>
</defs>
<g transform="translate(615.43 374.78) scale(.1 -.1)">
<use xlink:href="#c"/>
<use x="63.623047" xlink:href="#d"/>
<use x="95.410156" xlink:href="#c"/>
<use x="159.033203" xlink:href="#aj"/>
</g>
</g>
<g clip-path="url(#a)">
<g transform="translate(716.95 115.59) scale(.1 -.1)">
<use xlink:href="#c"/>
<use x="63.623047" xlink:href="#d"/>
<use x="95.410156" xlink:href="#c"/>
<use x="159.033203" xlink:href="#c"/>
</g>
</g>
<g clip-path="url(#a)">
<g transform="translate(664.16 374.78) scale(.1 -.1)">
<use xlink:href="#c"/>
<use x="63.623047" xlink:href="#d"/>
<use x="95.410156" xlink:href="#c"/>
<use x="159.033203" xlink:href="#m"/>
</g>
</g>
<g clip-path="url(#a)">
<g transform="translate(859.08 374.78) scale(.1 -.1)">
<use xlink:href="#c"/>
<use x="63.623047" xlink:href="#d"/>
<use x="95.410156" xlink:href="#c"/>
<use x="159.033203" xlink:href="#z"/>
</g>
</g>
<g clip-path="url(#a)">
<g transform="translate(79.386 374.78) scale(.1 -.1)">
<use xlink:href="#c"/>
<use x="63.623047" xlink:href="#d"/>
<use x="95.410156" xlink:href="#c"/>
<use x="159.033203" xlink:href="#y"/>
</g>
</g>
<g clip-path="url(#a)">
<g transform="translate(241.82 203.48) scale(.1 -.1)">
<use xlink:href="#c"/>
<use x="63.623047" xlink:href="#d"/>
<use x="95.410156" xlink:href="#c"/>
<use x="159.033203" xlink:href="#x"/>
</g>
</g>
<g clip-path="url(#a)">
<g transform="translate(225.58 374.78) scale(.1 -.1)">
<use xlink:href="#c"/>
<use x="63.623047" xlink:href="#d"/>
<use x="95.410156" xlink:href="#c"/>
<use x="159.033203" xlink:href="#w"/>
</g>
</g>
<g clip-path="url(#a)">
<g transform="translate(769.74 203.48) scale(.1 -.1)">
<use xlink:href="#c"/>
<use x="63.623047" xlink:href="#d"/>
<use x="95.410156" xlink:href="#c"/>
<use x="159.033203" xlink:href="#ai"/>
</g>
</g>
<g clip-path="url(#a)">
<g transform="translate(810.35 374.78) scale(.1 -.1)">
<use xlink:href="#c"/>
<use x="63.623047" xlink:href="#d"/>
<use x="95.410156" xlink:href="#c"/>
<use x="159.033203" xlink:href="#ah"/>
</g>
</g>
<g clip-path="url(#a)">
<g transform="translate(176.85 374.78) scale(.1 -.1)">
<use xlink:href="#c"/>
<use x="63.623047" xlink:href="#d"/>
<use x="95.410156" xlink:href="#c"/>
<use x="159.033203" xlink:href="#ag"/>
</g>
</g>
<g clip-path="url(#a)">
<g transform="translate(323.04 289.72) scale(.1 -.1)">
<use xlink:href="#c"/>
<use x="63.623047" xlink:href="#d"/>
<use x="95.410156" xlink:href="#m"/>
<use x="159.033203" xlink:href="#aj"/>
</g>
</g>
<g clip-path="url(#a)">
<g transform="translate(371.77 374.78) scale(.1 -.1)">
<use xlink:href="#c"/>
<use x="63.623047" xlink:href="#d"/>
<use x="95.410156" xlink:href="#m"/>
<use x="159.033203" xlink:href="#c"/>
</g>
</g>
<g clip-path="url(#a)">
<g transform="translate(712.89 374.78) scale(.1 -.1)">
<use xlink:href="#c"/>
<use x="63.623047" xlink:href="#d"/>
<use x="95.410156" xlink:href="#m"/>
<use x="159.033203" xlink:href="#m"/>
</g>
</g>
<g clip-path="url(#a)">
<g transform="translate(785.98 289.72) scale(.1 -.1)">
<use xlink:href="#c"/>
<use x="63.623047" xlink:href="#d"/>
<use x="95.410156" xlink:href="#m"/>
<use x="159.033203" xlink:href="#z"/>
</g>
</g>
<g clip-path="url(#a)">
<g transform="translate(761.62 374.78) scale(.1 -.1)">
<use xlink:href="#c"/>
<use x="63.623047" xlink:href="#d"/>
<use x="95.410156" xlink:href="#m"/>
<use x="159.033203" xlink:href="#y"/>
</g>
</g>
<g clip-path="url(#a)">
<g transform="translate(274.31 374.78) scale(.1 -.1)">
<use xlink:href="#c"/>
<use x="63.623047" xlink:href="#d"/>
<use x="95.410156" xlink:href="#m"/>
<use x="159.033203" xlink:href="#x"/>
</g>
</g>
<g clip-path="url(#a)">
<g transform="translate(323.04 374.78) scale(.1 -.1)">
<use xlink:href="#c"/>
<use x="63.623047" xlink:href="#d"/>
<use x="95.410156" xlink:href="#m"/>
<use x="159.033203" xlink:href="#w"/>
</g>
</g>
<defs>
<clipPath id="a">
<rect width="912" height="480"/>
</clipPath>
</defs>
</svg>
