<?xml version="1.0" encoding="UTF-8"?>
<!DOCTYPE svg  PUBLIC '-//W3C//DTD SVG 1.1//EN'  'http://www.w3.org/Graphics/SVG/1.1/DTD/svg11.dtd'>
<svg width="1165.3pt" height="613.33pt" version="1.1" viewBox="0 0 1165.3 613.33" xmlns="http://www.w3.org/2000/svg" xmlns:xlink="http://www.w3.org/1999/xlink">
<defs>
<style type="text/css">*{stroke-linecap:butt;stroke-linejoin:round;}</style>
</defs>
<path d="m0 613.33h1165.3v-613.33h-1165.3z" fill="#fff"/>
<g fill="none" stroke="#000">
<path d="m235.87 28.466 124.62 68.301" clip-path="url(#a)"/>
<path d="m235.87 28.466-38.245 498.63" clip-path="url(#a)"/>
<path d="m235.87 28.466-86.376 440.86" clip-path="url(#a)"/>
<path d="m360.49 96.767-211 430.33" clip-path="url(#a)"/>
<path d="m360.49 96.767-307.26 430.33" clip-path="url(#a)"/>
<path d="m360.49 96.767-259.13 430.33" clip-path="url(#a)"/>
<path d="m360.49 96.767 25.765 66.244" clip-path="url(#a)"/>
<path d="m360.49 96.767 751.62 430.33" clip-path="url(#a)"/>
<path d="m149.49 527.09v57.772" clip-path="url(#a)"/>
<path d="m53.227 527.09v57.772" clip-path="url(#a)"/>
<path d="m101.36 527.09v57.772" clip-path="url(#a)"/>
<path d="m197.62 527.09v57.772" clip-path="url(#a)"/>
<path d="m149.49 469.32-96.262 57.772" clip-path="url(#a)" stroke-dasharray="3.7,1.6"/>
<path d="m149.49 469.32 96.262 57.772" clip-path="url(#a)"/>
<path d="m245.75 527.09v57.772" clip-path="url(#a)"/>
<path d="m386.25 163.01-44.239 364.08" clip-path="url(#a)"/>
<path d="m386.25 163.01-92.37 364.08" clip-path="url(#a)"/>
<path d="m386.25 163.01 3.8918 364.08" clip-path="url(#a)"/>
<path d="m386.25 163.01 132.72 64.348" clip-path="url(#a)"/>
<path d="m342.01 527.09v57.772" clip-path="url(#a)"/>
<path d="m1112.1 527.09v57.772" clip-path="url(#a)"/>
<path d="m293.88 527.09v57.772" clip-path="url(#a)"/>
<path d="m390.14 527.09v57.772" clip-path="url(#a)"/>
<path d="m518.97 227.36-176.96 299.74" clip-path="url(#a)" stroke-dasharray="3.7,1.6"/>
<path d="m518.97 227.36-32.564 299.74" clip-path="url(#a)"/>
<path d="m518.97 227.36-80.694 299.74" clip-path="url(#a)"/>
<path d="m518.97 227.36 290.21 62.619" clip-path="url(#a)"/>
<path d="m486.4 527.09v57.772" clip-path="url(#a)"/>
<path d="m438.27 527.09v57.772" clip-path="url(#a)"/>
<path d="m809.18 289.98 254.79 237.12" clip-path="url(#a)"/>
<path d="m809.18 289.98-274.65 237.12" clip-path="url(#a)"/>
<path d="m809.18 289.98 14.138 179.34" clip-path="url(#a)"/>
<path d="m809.18 289.98 5.7155 61.064" clip-path="url(#a)"/>
<path d="m1064 527.09v57.772" clip-path="url(#a)"/>
<path d="m534.54 527.09v57.772" clip-path="url(#a)"/>
<path d="m823.32 469.32 240.65 57.772" clip-path="url(#a)" stroke-dasharray="3.7,1.6"/>
<path d="m823.32 469.32-240.65 57.772" clip-path="url(#a)"/>
<path d="m582.67 527.09v57.772" clip-path="url(#a)"/>
<path d="m814.9 351.04 249.08 176.05" clip-path="url(#a)" stroke-dasharray="3.7,1.6"/>
<path d="m814.9 351.04-135.97 176.05" clip-path="url(#a)"/>
<path d="m814.9 351.04-160.04 118.28" clip-path="url(#a)"/>
<path d="m814.9 351.04 46.928 59.704" clip-path="url(#a)"/>
<path d="m678.93 527.09v57.772" clip-path="url(#a)"/>
<path d="m654.86 469.32 24.065 57.772" clip-path="url(#a)" stroke-dasharray="3.7,1.6"/>
<path d="m654.86 469.32-24.065 57.772" clip-path="url(#a)"/>
<path d="m630.8 527.09v57.772" clip-path="url(#a)"/>
<path d="m861.83 410.75-86.636 116.35" clip-path="url(#a)"/>
<path d="m861.83 410.75-134.77 116.35" clip-path="url(#a)"/>
<path d="m861.83 410.75-14.439 58.576" clip-path="url(#a)"/>
<path d="m861.83 410.75 81.822 58.576" clip-path="url(#a)"/>
<path d="m861.83 410.75 154.02 116.35" clip-path="url(#a)"/>
<path d="m775.19 527.09v57.772" clip-path="url(#a)"/>
<path d="m727.06 527.09v57.772" clip-path="url(#a)"/>
<path d="m847.39 469.32 24.065 57.772" clip-path="url(#a)"/>
<path d="m847.39 469.32-24.065 57.772" clip-path="url(#a)"/>
<path d="m871.45 527.09v57.772" clip-path="url(#a)"/>
<path d="m943.65 469.32 24.065 57.772" clip-path="url(#a)"/>
<path d="m943.65 469.32-24.065 57.772" clip-path="url(#a)"/>
<path d="m967.71 527.09v57.772" clip-path="url(#a)"/>
<path d="m1015.8 527.09v57.772" clip-path="url(#a)"/>
<path d="m823.32 527.09v57.772" clip-path="url(#a)"/>
<path d="m919.58 527.09v57.772" clip-path="url(#a)"/>
</g>
<path d="m292.52 66.67 5.2758 2.8915q2.1046 1.1535 3.2581-0.95116l3.7212-6.7896q1.1535-2.1046-0.95116-3.2581l-5.2758-2.8915q-2.1046-1.1535-3.2581 0.95116l-3.7212 6.7896q-1.1535 2.1046 0.95116 3.2581z" clip-path="url(#a)" fill="#fff" stroke="#fff"/>
<g clip-path="url(#a)">
<defs>
<path id="ak" d="m9.8125 72.906h9.8594v-29.891h35.844v29.891h9.8594v-72.906h-9.8594v34.719h-35.844v-34.719h-9.8594z"/>
</defs>
<g transform="translate(294.48 63.106) rotate(28.726) scale(.08 -.08)">
<use xlink:href="#ak"/>
</g>
</g>
<path d="m222.82 280.48 0.34089-4.4444q0.18354-2.393-2.2094-2.5765l-7.7198-0.59212q-2.393-0.18354-2.5765 2.2094l-0.34089 4.4444q-0.18354 2.393 2.2094 2.5765l7.7198 0.59212q2.393 0.18354 2.5765-2.2094z" clip-path="url(#a)" fill="#fff" stroke="#fff"/>
<g clip-path="url(#a)">
<defs>
<path id="ar" d="m9.8125 72.906h9.8594v-64.609h35.5v-8.2969h-45.359z"/>
</defs>
<g transform="translate(218.77 280.17) rotate(-85.614) scale(.08 -.08)">
<use xlink:href="#ar"/>
</g>
</g>
<path d="m198.25 253.05 1.1568-5.904q0.46145-2.3552-1.8938-2.8167l-7.598-1.4887q-2.3552-0.46145-2.8167 1.8938l-1.1568 5.904q-0.46145 2.3552 1.8938 2.8167l7.598 1.4887q2.3552 0.46145 2.8167-1.8938z" clip-path="url(#a)" fill="#fff" stroke="#fff"/>
<g clip-path="url(#a)">
<g transform="translate(194.26 252.27) rotate(-78.915) scale(.08 -.08)">
<use xlink:href="#ak"/>
</g>
</g>
<path d="m259.56 316.86 2.1236-4.3311q1.0566-2.1549-1.0983-3.2115l-6.9518-3.4086q-2.1549-1.0566-3.2115 1.0983l-2.1236 4.3311q-1.0566 2.1549 1.0983 3.2115l6.9518 3.4086q2.1549 1.0566 3.2115-1.0983z" clip-path="url(#a)" fill="#fff" stroke="#fff"/>
<g clip-path="url(#a)">
<defs>
<path id="ab" d="m19.672 64.797v-27.391h12.406q6.8906 0 10.641 3.5625 3.7656 3.5625 3.7656 10.156 0 6.5469-3.7656 10.109-3.75 3.5625-10.641 3.5625zm-9.8594 8.1094h22.266q12.266 0 18.531-5.5469 6.2812-5.5469 6.2812-16.234 0-10.797-6.2812-16.312-6.2656-5.5156-18.531-5.5156h-12.406v-29.297h-9.8594z"/>
</defs>
<g transform="translate(255.91 315.07) rotate(-63.88) scale(.08 -.08)">
<use xlink:href="#ab"/>
</g>
</g>
<path d="m210.37 317.8 3.18-4.4537q1.3946-1.9532-0.5586-3.3478l-6.3011-4.4991q-1.9532-1.3946-3.3478 0.5586l-3.18 4.4537q-1.3946 1.9532 0.5586 3.3478l6.3011 4.4991q1.9532 1.3946 3.3478-0.5586z" clip-path="url(#a)" fill="#fff" stroke="#fff"/>
<g clip-path="url(#a)">
<defs>
<path id="o" d="m34.188 63.188-13.391-36.281h26.812zm-5.5781 9.7188h11.188l27.781-72.906h-10.25l-6.6406 18.703h-32.859l-6.6406-18.703h-10.406z"/>
</defs>
<g transform="translate(207.06 315.44) rotate(-54.473) scale(.08 -.08)">
<use xlink:href="#o"/>
</g>
</g>
<path d="m235.11 317.14 2.3736-3.9418q1.2381-2.056-0.81796-3.2941l-6.6328-3.994q-2.056-1.2381-3.2941 0.81796l-2.3736 3.9418q-1.2381 2.056 0.81796 3.2941l6.6328 3.994q2.056 1.2381 3.2941-0.81796z" clip-path="url(#a)" fill="#fff" stroke="#fff"/>
<g clip-path="url(#a)">
<defs>
<path id="al" d="m9.8125 72.906h41.891v-8.3125h-32.031v-21.484h28.906v-8.2969h-28.906v-34.812h-9.8594z"/>
</defs>
<g transform="translate(231.63 315.04) rotate(-58.945) scale(.08 -.08)">
<use xlink:href="#al"/>
</g>
</g>
<path d="m366.53 129.61 1.9837 5.1003q0.86998 2.2368 3.1067 1.3668l7.2159-2.8066q2.2368-0.86998 1.3668-3.1067l-1.9837-5.1003q-0.86998-2.2368-3.1067-1.3668l-7.2159 2.8066q-2.2368 0.86998-1.3668 3.1067z" clip-path="url(#a)" fill="#fff" stroke="#fff"/>
<g clip-path="url(#a)">
<g transform="translate(370.32 128.14) rotate(68.747) scale(.08 -.08)">
<use xlink:href="#o"/>
</g>
</g>
<path d="m730.64 315.92 5.0811 2.9091q2.0828 1.1925 3.2753-0.89032l3.847-6.7192q1.1925-2.0828-0.89032-3.2753l-5.0811-2.9091q-2.0828-1.1925-3.2753 0.89032l-3.847 6.7192q-1.1925 2.0828 0.89032 3.2753z" clip-path="url(#a)" fill="#fff" stroke="#fff"/>
<g clip-path="url(#a)">
<defs>
<path id="p" d="m8.6875 72.906h9.9219v-44.297q0-11.719 4.2344-16.875 4.25-5.1406 13.781-5.1406 9.4688 0 13.719 5.1406 4.25 5.1562 4.25 16.875v44.297h9.9062v-45.516q0-14.25-7.0625-21.531-7.0469-7.2812-20.812-7.2812-13.828 0-20.891 7.2812-7.0469 7.2812-7.0469 21.531z"/>
</defs>
<g transform="translate(732.66 312.39) rotate(29.793) scale(.08 -.08)">
<use xlink:href="#p"/>
</g>
</g>
<path d="m143.22 538.34v35.285q0 2.4 2.4 2.4h7.7425q2.4 0 2.4-2.4v-35.285q0-2.4-2.4-2.4h-7.7425q-2.4 0-2.4 2.4z" clip-path="url(#a)" fill="#fff" stroke="#fff"/>
<g clip-path="url(#a)">
<defs>
<path id="j" d="m-0.29688 72.906h61.672v-8.3125h-25.875v-64.594h-9.9062v64.594h-25.891z"/>
<path id="i" d="m56.203 29.594v-4.3906h-41.312q0.59375-9.2812 5.5938-14.141t13.938-4.8594q5.1719 0 10.031 1.2656t9.6562 3.8125v-8.5q-4.8438-2.0469-9.9219-3.125t-10.297-1.0781q-13.094 0-20.734 7.6094-7.6406 7.625-7.6406 20.625 0 13.422 7.25 21.297 7.25 7.8906 19.562 7.8906 11.031 0 17.453-7.1094 6.4219-7.0938 6.4219-19.297zm-8.9844 2.6406q-0.09375 7.3594-4.125 11.75-4.0312 4.4062-10.672 4.4062-7.5156 0-12.031-4.25t-5.2031-11.969z"/>
<path id="h" d="m41.109 46.297q-1.5156 0.875-3.2969 1.2812-1.7812 0.42188-3.9219 0.42188-7.625 0-11.703-4.9531t-4.0781-14.234v-28.812h-9.0312v54.688h9.0312v-8.5q2.8438 4.9844 7.375 7.3906 4.5469 2.4219 11.047 2.4219 0.92188 0 2.0469-0.125 1.125-0.10938 2.4844-0.35938z"/>
<path id="k" d="m52 44.188q3.375 6.0625 8.0625 8.9375t11.031 2.875q8.5469 0 13.188-5.9844 4.6406-5.9688 4.6406-17v-33.016h-9.0312v32.719q0 7.8594-2.7969 11.656-2.7812 3.8125-8.4844 3.8125-6.9844 0-11.047-4.6406-4.0469-4.625-4.0469-12.641v-30.906h-9.0312v32.719q0 7.9062-2.7812 11.688t-8.5938 3.7812q-6.8906 0-10.953-4.6562-4.0469-4.6562-4.0469-12.625v-30.906h-9.0312v54.688h9.0312v-8.5q3.0781 5.0312 7.375 7.4219t10.203 2.3906q5.9688 0 10.141-3.0312 4.1719-3.0156 6.1719-8.7812z"/>
<path id="g" d="m9.4219 54.688h8.9844v-54.688h-8.9844zm0 21.297h8.9844v-11.391h-8.9844z"/>
<path id="f" d="m54.891 33.016v-33.016h-8.9844v32.719q0 7.7656-3.0312 11.609-3.0312 3.8594-9.0781 3.8594-7.2812 0-11.484-4.6406-4.2031-4.625-4.2031-12.641v-30.906h-9.0312v54.688h9.0312v-8.5q3.2344 4.9375 7.5938 7.375 4.375 2.4375 10.094 2.4375 9.4219 0 14.25-5.8281 4.8438-5.8281 4.8438-17.156z"/>
<path id="e" d="m34.281 27.484q-10.891 0-15.094-2.4844t-4.2031-8.5q0-4.7812 3.1562-7.5938 3.1562-2.7969 8.5625-2.7969 7.4844 0 12 5.2969t4.5156 14.078v2zm17.922 3.7188v-31.203h-8.9844v8.2969q-3.0781-4.9688-7.6719-7.3438t-11.234-2.375q-8.3906 0-13.359 4.7188-4.9531 4.7188-4.9531 12.625 0 9.2188 6.1719 13.906 6.1875 4.6875 18.438 4.6875h12.609v0.89062q0 6.2031-4.0781 9.5938t-11.453 3.3906q-4.6875 0-9.1406-1.125-4.4375-1.125-8.5312-3.375v8.3125q4.9219 1.9062 9.5625 2.8438 4.6406 0.95312 9.0312 0.95312 11.875 0 17.734-6.1562 5.8594-6.1406 5.8594-18.641z"/>
<path id="l" d="m9.4219 75.984h8.9844v-75.984h-8.9844z"/>
</defs>
<g transform="translate(147.28 538.34) rotate(90) scale(.08 -.08)">
<use xlink:href="#j"/>
<use x="60.818359" xlink:href="#i"/>
<use x="122.341797" xlink:href="#h"/>
<use x="163.439453" xlink:href="#k"/>
<use x="260.851562" xlink:href="#g"/>
<use x="288.634766" xlink:href="#f"/>
<use x="352.013672" xlink:href="#e"/>
<use x="413.292969" xlink:href="#l"/>
</g>
</g>
<path d="m46.956 538.34v35.285q0 2.4 2.4 2.4h7.7425q2.4 0 2.4-2.4v-35.285q0-2.4-2.4-2.4h-7.7425q-2.4 0-2.4 2.4z" clip-path="url(#a)" fill="#fff" stroke="#fff"/>
<g clip-path="url(#a)">
<g transform="translate(51.02 538.34) rotate(90) scale(.08 -.08)">
<use xlink:href="#j"/>
<use x="60.818359" xlink:href="#i"/>
<use x="122.341797" xlink:href="#h"/>
<use x="163.439453" xlink:href="#k"/>
<use x="260.851562" xlink:href="#g"/>
<use x="288.634766" xlink:href="#f"/>
<use x="352.013672" xlink:href="#e"/>
<use x="413.292969" xlink:href="#l"/>
</g>
</g>
<path d="m95.087 538.34v35.285q0 2.4 2.4 2.4h7.7425q2.4 0 2.4-2.4v-35.285q0-2.4-2.4-2.4h-7.7425q-2.4 0-2.4 2.4z" clip-path="url(#a)" fill="#fff" stroke="#fff"/>
<g clip-path="url(#a)">
<g transform="translate(99.151 538.34) rotate(90) scale(.08 -.08)">
<use xlink:href="#j"/>
<use x="60.818359" xlink:href="#i"/>
<use x="122.341797" xlink:href="#h"/>
<use x="163.439453" xlink:href="#k"/>
<use x="260.851562" xlink:href="#g"/>
<use x="288.634766" xlink:href="#f"/>
<use x="352.013672" xlink:href="#e"/>
<use x="413.292969" xlink:href="#l"/>
</g>
</g>
<path d="m191.35 538.34v35.285q0 2.4 2.4 2.4h7.7425q2.4 0 2.4-2.4v-35.285q0-2.4-2.4-2.4h-7.7425q-2.4 0-2.4 2.4z" clip-path="url(#a)" fill="#fff" stroke="#fff"/>
<g clip-path="url(#a)">
<g transform="translate(195.41 538.34) rotate(90) scale(.08 -.08)">
<use xlink:href="#j"/>
<use x="60.818359" xlink:href="#i"/>
<use x="122.341797" xlink:href="#h"/>
<use x="163.439453" xlink:href="#k"/>
<use x="260.851562" xlink:href="#g"/>
<use x="288.634766" xlink:href="#f"/>
<use x="352.013672" xlink:href="#e"/>
<use x="413.292969" xlink:href="#l"/>
</g>
</g>
<path d="m102.24 504.99 4.6923-2.8161q2.0578-1.235 0.8228-3.2929l-3.9843-6.6387q-1.235-2.0578-3.2929-0.8228l-4.6923 2.8161q-2.0578 1.235-0.8228 3.2929l3.9843 6.6387q1.235 2.0578 3.2929 0.8228z" clip-path="url(#a)" fill="#fff" stroke="#fff"/>
<g clip-path="url(#a)">
<g transform="translate(100.15 501.51) rotate(-30.971) scale(.08 -.08)">
<use xlink:href="#o"/>
</g>
</g>
<path d="m192.32 502.34 4.136 2.4823q2.0578 1.235 3.2929-0.8228l3.9843-6.6387q1.235-2.0578-0.8228-3.2929l-4.136-2.4823q-2.0578-1.235-3.2929 0.8228l-3.9843 6.6387q-1.235 2.0578 0.8228 3.2929z" clip-path="url(#a)" fill="#fff" stroke="#fff"/>
<g clip-path="url(#a)">
<g transform="translate(194.42 498.86) rotate(30.971) scale(.08 -.08)">
<use xlink:href="#ab"/>
</g>
</g>
<path d="m239.48 538.34v35.285q0 2.4 2.4 2.4h7.7425q2.4 0 2.4-2.4v-35.285q0-2.4-2.4-2.4h-7.7425q-2.4 0-2.4 2.4z" clip-path="url(#a)" fill="#fff" stroke="#fff"/>
<g clip-path="url(#a)">
<g transform="translate(243.54 538.34) rotate(90) scale(.08 -.08)">
<use xlink:href="#j"/>
<use x="60.818359" xlink:href="#i"/>
<use x="122.341797" xlink:href="#h"/>
<use x="163.439453" xlink:href="#k"/>
<use x="260.851562" xlink:href="#g"/>
<use x="288.634766" xlink:href="#f"/>
<use x="352.013672" xlink:href="#e"/>
<use x="413.292969" xlink:href="#l"/>
</g>
</g>
<path d="m370.02 348.58 0.67382-5.5455q0.28949-2.3825-2.093-2.672l-7.686-0.9339q-2.3825-0.28949-2.672 2.093l-0.67382 5.5455q-0.28949 2.3825 2.093 2.672l7.686 0.9339q2.3825 0.28949 2.672-2.093z" clip-path="url(#a)" fill="#fff" stroke="#fff"/>
<g clip-path="url(#a)">
<defs>
<path id="t" d="m64.406 67.281v-10.391q-4.9844 4.6406-10.625 6.9219-5.6406 2.2969-11.984 2.2969-12.5 0-19.141-7.6406t-6.6406-22.094q0-14.406 6.6406-22.047t19.141-7.6406q6.3438 0 11.984 2.2969t10.625 6.9375v-10.312q-5.1719-3.5156-10.969-5.2812-5.7812-1.75-12.219-1.75-16.562 0-26.094 10.125-9.5156 10.141-9.5156 27.672 0 17.578 9.5156 27.703 9.5312 10.141 26.094 10.141 6.5312 0 12.312-1.7344 5.7969-1.7344 10.875-5.2031z"/>
</defs>
<g transform="translate(365.99 348.09) rotate(-83.072) scale(.08 -.08)">
<use xlink:href="#t"/>
</g>
</g>
<path d="m345.46 349.29 1.367-5.388q0.59019-2.3263-1.7361-2.9165l-7.5047-1.904q-2.3263-0.59019-2.9165 1.7361l-1.367 5.3881q-0.59019 2.3263 1.7361 2.9165l7.5047 1.904q2.3263 0.59019 2.9165-1.7361z" clip-path="url(#a)" fill="#fff" stroke="#fff"/>
<g clip-path="url(#a)">
<defs>
<path id="ai" d="m44.391 34.188q3.1719-1.0781 6.1719-4.5938t6.0312-9.6719l10.016-19.922h-10.609l-9.3125 18.703q-3.625 7.3281-7.0156 9.7188t-9.25 2.3906h-10.75v-30.812h-9.8594v72.906h22.266q12.5 0 18.656-5.2344 6.1562-5.2188 6.1562-15.766 0-6.8906-3.2031-11.438-3.2031-4.5312-9.2969-6.2812zm-24.719 30.609v-25.875h12.406q7.125 0 10.766 3.2969t3.6406 9.6875-3.6406 9.6406-10.766 3.25z"/>
</defs>
<g transform="translate(341.52 348.29) rotate(-75.764) scale(.08 -.08)">
<use xlink:href="#ai"/>
</g>
</g>
<path d="m381.9 342.19 0.062583 5.8547q0.025653 2.3999 2.4255 2.3742l7.7421-0.082757q2.3999-0.025653 2.3742-2.4255l-0.062582-5.8547q-0.025653-2.3999-2.4255-2.3742l-7.7421 0.082758q-2.3999 0.025653-2.3742 2.4255z" clip-path="url(#a)" fill="#fff" stroke="#fff"/>
<g clip-path="url(#a)">
<g transform="translate(385.96 342.15) rotate(89.388) scale(.08 -.08)">
<use xlink:href="#p"/>
</g>
</g>
<path d="m447.6 199.72 4.5486 2.2054q2.1595 1.0471 3.2066-1.1125l3.3779-6.9668q1.0471-2.1596-1.1125-3.2066l-4.5486-2.2054q-2.1595-1.0471-3.2066 1.1125l-3.3779 6.9668q-1.0471 2.1595 1.1125 3.2066z" clip-path="url(#a)" fill="#fff" stroke="#fff"/>
<g clip-path="url(#a)">
<defs>
<path id="s" d="m9.8125 72.906h46.094v-8.3125h-36.234v-21.578h34.719v-8.2969h-34.719v-26.422h37.109v-8.2969h-46.969z"/>
</defs>
<g transform="translate(449.37 196.07) rotate(25.867) scale(.08 -.08)">
<use xlink:href="#s"/>
</g>
</g>
<path d="m335.74 538.34v35.285q0 2.4 2.4 2.4h7.7425q2.4 0 2.4-2.4v-35.285q0-2.4-2.4-2.4h-7.7425q-2.4 0-2.4 2.4z" clip-path="url(#a)" fill="#fff" stroke="#fff"/>
<g clip-path="url(#a)">
<g transform="translate(339.8 538.34) rotate(90) scale(.08 -.08)">
<use xlink:href="#j"/>
<use x="60.818359" xlink:href="#i"/>
<use x="122.341797" xlink:href="#h"/>
<use x="163.439453" xlink:href="#k"/>
<use x="260.851562" xlink:href="#g"/>
<use x="288.634766" xlink:href="#f"/>
<use x="352.013672" xlink:href="#e"/>
<use x="413.292969" xlink:href="#l"/>
</g>
</g>
<path d="m1105.8 538.34v35.285q0 2.4 2.4 2.4h7.7425q2.4 0 2.4-2.4v-35.285q0-2.4-2.4-2.4h-7.7425q-2.4 0-2.4 2.4z" clip-path="url(#a)" fill="#fff" stroke="#fff"/>
<g clip-path="url(#a)">
<g transform="translate(1109.9 538.34) rotate(90) scale(.08 -.08)">
<use xlink:href="#j"/>
<use x="60.818359" xlink:href="#i"/>
<use x="122.341797" xlink:href="#h"/>
<use x="163.439453" xlink:href="#k"/>
<use x="260.851562" xlink:href="#g"/>
<use x="288.634766" xlink:href="#f"/>
<use x="352.013672" xlink:href="#e"/>
<use x="413.292969" xlink:href="#l"/>
</g>
</g>
<path d="m287.61 538.34v35.285q0 2.4 2.4 2.4h7.7425q2.4 0 2.4-2.4v-35.285q0-2.4-2.4-2.4h-7.7425q-2.4 0-2.4 2.4z" clip-path="url(#a)" fill="#fff" stroke="#fff"/>
<g clip-path="url(#a)">
<g transform="translate(291.67 538.34) rotate(90) scale(.08 -.08)">
<use xlink:href="#j"/>
<use x="60.818359" xlink:href="#i"/>
<use x="122.341797" xlink:href="#h"/>
<use x="163.439453" xlink:href="#k"/>
<use x="260.851562" xlink:href="#g"/>
<use x="288.634766" xlink:href="#f"/>
<use x="352.013672" xlink:href="#e"/>
<use x="413.292969" xlink:href="#l"/>
</g>
</g>
<path d="m383.87 538.34v35.285q0 2.4 2.4 2.4h7.7425q2.4 0 2.4-2.4v-35.285q0-2.4-2.4-2.4h-7.7425q-2.4 0-2.4 2.4z" clip-path="url(#a)" fill="#fff" stroke="#fff"/>
<g clip-path="url(#a)">
<g transform="translate(387.94 538.34) rotate(90) scale(.08 -.08)">
<use xlink:href="#j"/>
<use x="60.818359" xlink:href="#i"/>
<use x="122.341797" xlink:href="#h"/>
<use x="163.439453" xlink:href="#k"/>
<use x="260.851562" xlink:href="#g"/>
<use x="288.634766" xlink:href="#f"/>
<use x="352.013672" xlink:href="#e"/>
<use x="413.292969" xlink:href="#l"/>
</g>
</g>
<path d="m434.5 382.77 2.7821-4.7125q1.2201-2.0667-0.84658-3.2868l-6.6673-3.9362q-2.0667-1.2201-3.2868 0.84658l-2.7821 4.7125q-1.2201 2.0667 0.84658 3.2868l6.6673 3.9362q2.0667 1.2201 3.2868-0.84658z" clip-path="url(#a)" fill="#fff" stroke="#fff"/>
<g clip-path="url(#a)">
<g transform="translate(431 380.71) rotate(-59.444) scale(.08 -.08)">
<use xlink:href="#o"/>
</g>
</g>
<path d="m508.66 380.3 0.52099-4.7955q0.25921-2.386-2.1267-2.6452l-7.6972-0.83623q-2.386-0.25921-2.6452 2.1267l-0.52099 4.7955q-0.25921 2.386 2.1267 2.6452l7.6972 0.83623q2.386 0.25921 2.6452-2.1267z" clip-path="url(#a)" fill="#fff" stroke="#fff"/>
<g clip-path="url(#a)">
<g transform="translate(504.62 379.86) rotate(-83.8) scale(.08 -.08)">
<use xlink:href="#ab"/>
</g>
</g>
<path d="m483.95 381.54 1.4451-5.3676q0.62391-2.3175-1.6936-2.9414l-7.4763-2.0128q-2.3175-0.62391-2.9414 1.6936l-1.4451 5.3676q-0.62391 2.3175 1.6936 2.9414l7.4763 2.0128q2.3175 0.62391 2.9414-1.6936z" clip-path="url(#a)" fill="#fff" stroke="#fff"/>
<g clip-path="url(#a)">
<g transform="translate(480.03 380.48) rotate(-74.932) scale(.08 -.08)">
<use xlink:href="#ai"/>
</g>
</g>
<path d="m660.08 264.22 5.3494 1.1542q2.346 0.50619 2.8522-1.8398l1.633-7.5683q0.50619-2.346-1.8398-2.8522l-5.3494-1.1542q-2.346-0.50619-2.8522 1.8398l-1.633 7.5683q-0.50619 2.346 1.8398 2.8522z" clip-path="url(#a)" fill="#fff" stroke="#fff"/>
<g clip-path="url(#a)">
<g transform="translate(660.94 260.25) rotate(12.176) scale(.08 -.08)">
<use xlink:href="#o"/>
</g>
</g>
<path d="m480.13 538.34v35.285q0 2.4 2.4 2.4h7.7425q2.4 0 2.4-2.4v-35.285q0-2.4-2.4-2.4h-7.7425q-2.4 0-2.4 2.4z" clip-path="url(#a)" fill="#fff" stroke="#fff"/>
<g clip-path="url(#a)">
<g transform="translate(484.2 538.34) rotate(90) scale(.08 -.08)">
<use xlink:href="#j"/>
<use x="60.818359" xlink:href="#i"/>
<use x="122.341797" xlink:href="#h"/>
<use x="163.439453" xlink:href="#k"/>
<use x="260.851562" xlink:href="#g"/>
<use x="288.634766" xlink:href="#f"/>
<use x="352.013672" xlink:href="#e"/>
<use x="413.292969" xlink:href="#l"/>
</g>
</g>
<path d="m432 538.34v35.285q0 2.4 2.4 2.4h7.7425q2.4 0 2.4-2.4v-35.285q0-2.4-2.4-2.4h-7.7425q-2.4 0-2.4 2.4z" clip-path="url(#a)" fill="#fff" stroke="#fff"/>
<g clip-path="url(#a)">
<g transform="translate(436.07 538.34) rotate(90) scale(.08 -.08)">
<use xlink:href="#j"/>
<use x="60.818359" xlink:href="#i"/>
<use x="122.341797" xlink:href="#h"/>
<use x="163.439453" xlink:href="#k"/>
<use x="260.851562" xlink:href="#g"/>
<use x="288.634766" xlink:href="#f"/>
<use x="352.013672" xlink:href="#e"/>
<use x="413.292969" xlink:href="#l"/>
</g>
</g>
<path d="m930.26 411.22 4.0894 3.8057q1.7569 1.635 3.3919-0.12188l5.2746-5.6678q1.635-1.7569-0.12188-3.3919l-4.0894-3.8057q-1.7569-1.635-3.3919 0.12188l-5.2746 5.6678q-1.635 1.7569 0.12188 3.3919z" clip-path="url(#a)" fill="#fff" stroke="#fff"/>
<g clip-path="url(#a)">
<g transform="translate(933.03 408.25) rotate(42.942) scale(.08 -.08)">
<use xlink:href="#t"/>
</g>
</g>
<path d="m674.22 414.79 3.4828-3.0069q1.8166-1.5684 0.24824-3.385l-5.0597-5.8605q-1.5684-1.8166-3.385-0.24824l-3.4828 3.0069q-1.8166 1.5684-0.24824 3.385l5.0597 5.8605q1.5684 1.8166 3.385 0.24824z" clip-path="url(#a)" fill="#fff" stroke="#fff"/>
<g clip-path="url(#a)">
<g transform="translate(671.56 411.71) rotate(-40.806) scale(.08 -.08)">
<use xlink:href="#al"/>
</g>
</g>
<path d="m809.8 377.62 0.39727 5.0394q0.18862 2.3926 2.5812 2.204l7.7186-0.60848q2.3926-0.18862 2.204-2.5812l-0.39727-5.0394q-0.18862-2.3926-2.5812-2.204l-7.7186 0.60848q-2.3926 0.18862-2.204 2.5812z" clip-path="url(#a)" fill="#fff" stroke="#fff"/>
<g clip-path="url(#a)">
<g transform="translate(813.85 377.3) rotate(85.492) scale(.08 -.08)">
<use xlink:href="#s"/>
</g>
</g>
<path d="m805.56 318.58 0.47108 5.033q0.22366 2.3896 2.6132 2.1659l7.7088-0.72153q2.3896-0.22366 2.1659-2.6132l-0.47108-5.033q-0.22366-2.3896-2.6132-2.1659l-7.7088 0.72153q-2.3896 0.22366-2.1659 2.6132z" clip-path="url(#a)" fill="#fff" stroke="#fff"/>
<g clip-path="url(#a)">
<g transform="translate(809.61 318.2) rotate(84.653) scale(.08 -.08)">
<use xlink:href="#s"/>
</g>
</g>
<path d="m1057.7 538.34v35.285q0 2.4 2.4 2.4h7.7425q2.4 0 2.4-2.4v-35.285q0-2.4-2.4-2.4h-7.7425q-2.4 0-2.4 2.4z" clip-path="url(#a)" fill="#fff" stroke="#fff"/>
<g clip-path="url(#a)">
<g transform="translate(1061.8 538.34) rotate(90) scale(.08 -.08)">
<use xlink:href="#j"/>
<use x="60.818359" xlink:href="#i"/>
<use x="122.341797" xlink:href="#h"/>
<use x="163.439453" xlink:href="#k"/>
<use x="260.851562" xlink:href="#g"/>
<use x="288.634766" xlink:href="#f"/>
<use x="352.013672" xlink:href="#e"/>
<use x="413.292969" xlink:href="#l"/>
</g>
</g>
<path d="m528.26 538.34v35.285q0 2.4 2.4 2.4h7.7425q2.4 0 2.4-2.4v-35.285q0-2.4-2.4-2.4h-7.7425q-2.4 0-2.4 2.4z" clip-path="url(#a)" fill="#fff" stroke="#fff"/>
<g clip-path="url(#a)">
<g transform="translate(532.33 538.34) rotate(90) scale(.08 -.08)">
<use xlink:href="#j"/>
<use x="60.818359" xlink:href="#i"/>
<use x="122.341797" xlink:href="#h"/>
<use x="163.439453" xlink:href="#k"/>
<use x="260.851562" xlink:href="#g"/>
<use x="288.634766" xlink:href="#f"/>
<use x="352.013672" xlink:href="#e"/>
<use x="413.292969" xlink:href="#l"/>
</g>
</g>
<path d="m939.52 503.67 5.3213 1.2775q2.3337 0.56024 2.8939-1.7735l1.8073-7.5286q0.56024-2.3337-1.7735-2.8939l-5.3213-1.2775q-2.3337-0.56024-2.8939 1.7735l-1.8073 7.5286q-0.56024 2.3337 1.7735 2.8939z" clip-path="url(#a)" fill="#fff" stroke="#fff"/>
<g clip-path="url(#a)">
<g transform="translate(940.47 499.72) rotate(13.499) scale(.08 -.08)">
<use xlink:href="#o"/>
</g>
</g>
<path d="m701.99 504.9 4.9384-1.1855q2.3337-0.56024 1.7735-2.8939l-1.8073-7.5286q-0.56024-2.3337-2.8939-1.7735l-4.9384 1.1855q-2.3337 0.56024-1.7735 2.8939l1.8073 7.5286q0.56024 2.3337 2.8939 1.7735z" clip-path="url(#a)" fill="#fff" stroke="#fff"/>
<g clip-path="url(#a)">
<defs>
<path id="r" d="m53.516 70.516v-9.625q-5.6094 2.6875-10.594 4-4.9844 1.3281-9.625 1.3281-8.0469 0-12.422-3.125t-4.375-8.8906q0-4.8438 2.9062-7.3125 2.9062-2.4531 11.016-3.9688l5.9531-1.2188q11.031-2.1094 16.281-7.4062t5.25-14.172q0-10.609-7.1094-16.078-7.0938-5.4688-20.812-5.4688-5.1719 0-11.016 1.1719-5.8281 1.1719-12.078 3.4688v10.156q6-3.3594 11.766-5.0781 5.7656-1.7031 11.328-1.7031 8.4375 0 13.031 3.3125 4.5938 3.3281 4.5938 9.4844 0 5.3594-3.2969 8.3906t-10.812 4.5469l-6.0156 1.1719q-11.031 2.1875-15.969 6.875-4.9219 4.6875-4.9219 13.047 0 9.6719 6.8125 15.234t18.766 5.5625q5.1406 0 10.453-0.9375 5.3281-0.92188 10.891-2.7656z"/>
</defs>
<g transform="translate(701.04 500.95) rotate(-13.499) scale(.08 -.08)">
<use xlink:href="#r"/>
</g>
</g>
<path d="m576.4 538.34v35.285q0 2.4 2.4 2.4h7.7425q2.4 0 2.4-2.4v-35.285q0-2.4-2.4-2.4h-7.7425q-2.4 0-2.4 2.4z" clip-path="url(#a)" fill="#fff" stroke="#fff"/>
<g clip-path="url(#a)">
<g transform="translate(580.46 538.34) rotate(90) scale(.08 -.08)">
<use xlink:href="#j"/>
<use x="60.818359" xlink:href="#i"/>
<use x="122.341797" xlink:href="#h"/>
<use x="163.439453" xlink:href="#k"/>
<use x="260.851562" xlink:href="#g"/>
<use x="288.634766" xlink:href="#f"/>
<use x="352.013672" xlink:href="#e"/>
<use x="413.292969" xlink:href="#l"/>
</g>
</g>
<path d="m933.58 442.61 4.4689 3.1587q1.9599 1.3853 3.3451-0.57459l4.4689-6.3226q1.3853-1.9599-0.57459-3.3451l-4.4689-3.1587q-1.9599-1.3853-3.3451 0.57459l-4.4689 6.3226q-1.3853 1.9599 0.57459 3.3451z" clip-path="url(#a)" fill="#fff" stroke="#fff"/>
<g clip-path="url(#a)">
<g transform="translate(935.93 439.29) rotate(35.253) scale(.08 -.08)">
<use xlink:href="#o"/>
</g>
</g>
<path d="m750.32 444.91 3.1044-4.0195q1.467-1.8995-0.43246-3.3664l-6.1277-4.7326q-1.8995-1.467-3.3664 0.43246l-3.1044 4.0195q-1.467 1.8995 0.43246 3.3664l6.1277 4.7326q1.8995 1.467 3.3664-0.43246z" clip-path="url(#a)" fill="#fff" stroke="#fff"/>
<g clip-path="url(#a)">
<g transform="translate(747.11 442.43) rotate(-52.32) scale(.08 -.08)">
<use xlink:href="#r"/>
</g>
</g>
<path d="m736.58 416.73 4.0652-3.0045q1.9301-1.4265 0.50357-3.3565l-4.6019-6.2265q-1.4265-1.9301-3.3565-0.50357l-4.0652 3.0045q-1.9301 1.4265-0.50357 3.3565l4.6019 6.2265q1.4265 1.9301 3.3565 0.50357z" clip-path="url(#a)" fill="#fff" stroke="#fff"/>
<g clip-path="url(#a)">
<g transform="translate(734.16 413.46) rotate(-36.468) scale(.08 -.08)">
<use xlink:href="#s"/>
</g>
</g>
<path d="m831.86 382.77 3.1385 3.993q1.4831 1.8869 3.37 0.40379l6.0872-4.7846q1.8869-1.4831 0.40379-3.37l-3.1385-3.993q-1.4831-1.8869-3.37-0.40379l-6.0872 4.7846q-1.8869 1.4831-0.40379 3.37z" clip-path="url(#a)" fill="#fff" stroke="#fff"/>
<g clip-path="url(#a)">
<g transform="translate(835.06 380.26) rotate(51.833) scale(.08 -.08)">
<use xlink:href="#r"/>
</g>
</g>
<path d="m672.66 538.34v35.285q0 2.4 2.4 2.4h7.7425q2.4 0 2.4-2.4v-35.285q0-2.4-2.4-2.4h-7.7425q-2.4 0-2.4 2.4z" clip-path="url(#a)" fill="#fff" stroke="#fff"/>
<g clip-path="url(#a)">
<g transform="translate(676.72 538.34) rotate(90) scale(.08 -.08)">
<use xlink:href="#j"/>
<use x="60.818359" xlink:href="#i"/>
<use x="122.341797" xlink:href="#h"/>
<use x="163.439453" xlink:href="#k"/>
<use x="260.851562" xlink:href="#g"/>
<use x="288.634766" xlink:href="#f"/>
<use x="352.013672" xlink:href="#e"/>
<use x="413.292969" xlink:href="#l"/>
</g>
</g>
<path d="m660.05 498.09 2.1043 5.0517q0.92287 2.2155 3.1383 1.2926l7.1472-2.9772q2.2155-0.92287 1.2926-3.1383l-2.1043-5.0517q-0.92287-2.2155-3.1383-1.2926l-7.1472 2.9772q-2.2155 0.92287-1.2926 3.1383z" clip-path="url(#a)" fill="#fff" stroke="#fff"/>
<g clip-path="url(#a)">
<g transform="translate(663.81 496.53) rotate(67.386) scale(.08 -.08)">
<use xlink:href="#o"/>
</g>
</g>
<path d="m647.64 502.96 1.9529-4.6883q0.92287-2.2155-1.2926-3.1383l-7.1472-2.9772q-2.2155-0.92287-3.1383 1.2926l-1.9529 4.6883q-0.92287 2.2155 1.2926 3.1383l7.1472 2.9772q2.2155 0.92287 3.1383-1.2926z" clip-path="url(#a)" fill="#fff" stroke="#fff"/>
<g clip-path="url(#a)">
<g transform="translate(643.89 501.4) rotate(-67.386) scale(.08 -.08)">
<use xlink:href="#r"/>
</g>
</g>
<path d="m624.53 538.34v35.285q0 2.4 2.4 2.4h7.7425q2.4 0 2.4-2.4v-35.285q0-2.4-2.4-2.4h-7.7425q-2.4 0-2.4 2.4z" clip-path="url(#a)" fill="#fff" stroke="#fff"/>
<g clip-path="url(#a)">
<g transform="translate(628.59 538.34) rotate(90) scale(.08 -.08)">
<use xlink:href="#j"/>
<use x="60.818359" xlink:href="#i"/>
<use x="122.341797" xlink:href="#h"/>
<use x="163.439453" xlink:href="#k"/>
<use x="260.851562" xlink:href="#g"/>
<use x="288.634766" xlink:href="#f"/>
<use x="352.013672" xlink:href="#e"/>
<use x="413.292969" xlink:href="#l"/>
</g>
</g>
<path d="m822.03 474.69 3.019-4.0544q1.4334-1.925-0.4916-3.3583l-6.21-4.6241q-1.925-1.4334-3.3583 0.4916l-3.019 4.0544q-1.4334 1.925 0.4916 3.3583l6.21 4.6241q1.925 1.4334 3.3583-0.4916z" clip-path="url(#a)" fill="#fff" stroke="#fff"/>
<g clip-path="url(#a)">
<g transform="translate(818.77 472.27) rotate(-53.328) scale(.08 -.08)">
<use xlink:href="#s"/>
</g>
</g>
<path d="m796.32 475.58 4.4319-3.8262q1.8166-1.5684 0.24827-3.385l-5.0596-5.8606q-1.5684-1.8166-3.385-0.24827l-4.4319 3.8262q-1.8166 1.5684-0.24827 3.385l5.0596 5.8606q1.5684 1.8166 3.385 0.24827z" clip-path="url(#a)" fill="#fff" stroke="#fff"/>
<g clip-path="url(#a)">
<g transform="translate(793.67 472.5) rotate(-40.805) scale(.08 -.08)">
<use xlink:href="#p"/>
</g>
</g>
<path d="m860.03 444.25 1.337-5.4239q0.57442-2.3302-1.7558-2.9047l-7.5175-1.8531q-2.3302-0.57442-2.9047 1.7558l-1.337 5.4239q-0.57441 2.3302 1.7558 2.9047l7.5175 1.8531q2.3302 0.57442 2.9047-1.7558z" clip-path="url(#a)" fill="#fff" stroke="#fff"/>
<g clip-path="url(#a)">
<g transform="translate(856.08 443.27) rotate(-76.152) scale(.08 -.08)">
<use xlink:href="#t"/>
</g>
</g>
<path d="m896.82 443.51 4.5423 3.2518q1.9515 1.397 3.3485-0.55443l4.5069-6.2955q1.397-1.9515-0.55443-3.3485l-4.5423-3.2518q-1.9515-1.397-3.3485 0.55443l-4.5069 6.2955q-1.397 1.9515 0.55443 3.3485z" clip-path="url(#a)" fill="#fff" stroke="#fff"/>
<g clip-path="url(#a)">
<g transform="translate(899.18 440.2) rotate(35.599) scale(.08 -.08)">
<use xlink:href="#t"/>
</g>
</g>
<path d="m932.72 472.16 4.6718 3.5292q1.915 1.4466 3.3616-0.46837l4.6669-6.1779q1.4466-1.915-0.46838-3.3616l-4.6718-3.5292q-1.915-1.4466-3.3616 0.46838l-4.6669 6.1779q-1.4466 1.915 0.46838 3.3616z" clip-path="url(#a)" fill="#fff" stroke="#fff"/>
<g clip-path="url(#a)">
<g transform="translate(935.17 468.92) rotate(37.068) scale(.08 -.08)">
<use xlink:href="#p"/>
</g>
</g>
<path d="m768.92 538.34v35.285q0 2.4 2.4 2.4h7.7425q2.4 0 2.4-2.4v-35.285q0-2.4-2.4-2.4h-7.7425q-2.4 0-2.4 2.4z" clip-path="url(#a)" fill="#fff" stroke="#fff"/>
<g clip-path="url(#a)">
<g transform="translate(772.98 538.34) rotate(90) scale(.08 -.08)">
<use xlink:href="#j"/>
<use x="60.818359" xlink:href="#i"/>
<use x="122.341797" xlink:href="#h"/>
<use x="163.439453" xlink:href="#k"/>
<use x="260.851562" xlink:href="#g"/>
<use x="288.634766" xlink:href="#f"/>
<use x="352.013672" xlink:href="#e"/>
<use x="413.292969" xlink:href="#l"/>
</g>
</g>
<path d="m720.79 538.34v35.285q0 2.4 2.4 2.4h7.7425q2.4 0 2.4-2.4v-35.285q0-2.4-2.4-2.4h-7.7425q-2.4 0-2.4 2.4z" clip-path="url(#a)" fill="#fff" stroke="#fff"/>
<g clip-path="url(#a)">
<g transform="translate(724.85 538.34) rotate(90) scale(.08 -.08)">
<use xlink:href="#j"/>
<use x="60.818359" xlink:href="#i"/>
<use x="122.341797" xlink:href="#h"/>
<use x="163.439453" xlink:href="#k"/>
<use x="260.851562" xlink:href="#g"/>
<use x="288.634766" xlink:href="#f"/>
<use x="352.013672" xlink:href="#e"/>
<use x="413.292969" xlink:href="#l"/>
</g>
</g>
<path d="m852.65 498.28 1.9529 4.6883q0.92287 2.2155 3.1383 1.2926l7.1472-2.9772q2.2155-0.92287 1.2926-3.1383l-1.9529-4.6883q-0.92287-2.2155-3.1383-1.2926l-7.1472 2.9772q-2.2155 0.92287-1.2926 3.1383z" clip-path="url(#a)" fill="#fff" stroke="#fff"/>
<g clip-path="url(#a)">
<g transform="translate(856.4 496.71) rotate(67.386) scale(.08 -.08)">
<use xlink:href="#r"/>
</g>
</g>
<path d="m840.02 503.32 2.2514-5.4048q0.92287-2.2155-1.2926-3.1383l-7.1472-2.9772q-2.2155-0.92287-3.1383 1.2926l-2.2514 5.4048q-0.92287 2.2155 1.2926 3.1383l7.1472 2.9772q2.2155 0.92287 3.1383-1.2926z" clip-path="url(#a)" fill="#fff" stroke="#fff"/>
<g clip-path="url(#a)">
<g transform="translate(836.27 501.76) rotate(-67.386) scale(.08 -.08)">
<use xlink:href="#p"/>
</g>
</g>
<path d="m865.18 538.34v35.285q0 2.4 2.4 2.4h7.7425q2.4 0 2.4-2.4v-35.285q0-2.4-2.4-2.4h-7.7425q-2.4 0-2.4 2.4z" clip-path="url(#a)" fill="#fff" stroke="#fff"/>
<g clip-path="url(#a)">
<g transform="translate(869.24 538.34) rotate(90) scale(.08 -.08)">
<use xlink:href="#j"/>
<use x="60.818359" xlink:href="#i"/>
<use x="122.341797" xlink:href="#h"/>
<use x="163.439453" xlink:href="#k"/>
<use x="260.851562" xlink:href="#g"/>
<use x="288.634766" xlink:href="#f"/>
<use x="352.013672" xlink:href="#e"/>
<use x="413.292969" xlink:href="#l"/>
</g>
</g>
<path d="m948.82 498.04 2.1481 5.1567q0.92287 2.2155 3.1383 1.2926l7.1472-2.9772q2.2155-0.92287 1.2926-3.1383l-2.1481-5.1567q-0.92287-2.2155-3.1383-1.2926l-7.1472 2.9772q-2.2155 0.92287-1.2926 3.1383z" clip-path="url(#a)" fill="#fff" stroke="#fff"/>
<g clip-path="url(#a)">
<g transform="translate(952.57 496.48) rotate(67.386) scale(.08 -.08)">
<use xlink:href="#t"/>
</g>
</g>
<path d="m936.28 503.32 2.2514-5.4048q0.92287-2.2155-1.2926-3.1383l-7.1472-2.9772q-2.2155-0.92287-3.1383 1.2926l-2.2514 5.4048q-0.92287 2.2155 1.2926 3.1383l7.1472 2.9772q2.2155 0.92287 3.1383-1.2926z" clip-path="url(#a)" fill="#fff" stroke="#fff"/>
<g clip-path="url(#a)">
<g transform="translate(932.53 501.76) rotate(-67.386) scale(.08 -.08)">
<use xlink:href="#p"/>
</g>
</g>
<path d="m961.44 538.34v35.285q0 2.4 2.4 2.4h7.7425q2.4 0 2.4-2.4v-35.285q0-2.4-2.4-2.4h-7.7425q-2.4 0-2.4 2.4z" clip-path="url(#a)" fill="#fff" stroke="#fff"/>
<g clip-path="url(#a)">
<g transform="translate(965.51 538.34) rotate(90) scale(.08 -.08)">
<use xlink:href="#j"/>
<use x="60.818359" xlink:href="#i"/>
<use x="122.341797" xlink:href="#h"/>
<use x="163.439453" xlink:href="#k"/>
<use x="260.851562" xlink:href="#g"/>
<use x="288.634766" xlink:href="#f"/>
<use x="352.013672" xlink:href="#e"/>
<use x="413.292969" xlink:href="#l"/>
</g>
</g>
<path d="m1009.6 538.34v35.285q0 2.4 2.4 2.4h7.7425q2.4 0 2.4-2.4v-35.285q0-2.4-2.4-2.4h-7.7425q-2.4 0-2.4 2.4z" clip-path="url(#a)" fill="#fff" stroke="#fff"/>
<g clip-path="url(#a)">
<g transform="translate(1013.6 538.34) rotate(90) scale(.08 -.08)">
<use xlink:href="#j"/>
<use x="60.818359" xlink:href="#i"/>
<use x="122.341797" xlink:href="#h"/>
<use x="163.439453" xlink:href="#k"/>
<use x="260.851562" xlink:href="#g"/>
<use x="288.634766" xlink:href="#f"/>
<use x="352.013672" xlink:href="#e"/>
<use x="413.292969" xlink:href="#l"/>
</g>
</g>
<path d="m817.05 538.34v35.285q0 2.4 2.4 2.4h7.7425q2.4 0 2.4-2.4v-35.285q0-2.4-2.4-2.4h-7.7425q-2.4 0-2.4 2.4z" clip-path="url(#a)" fill="#fff" stroke="#fff"/>
<g clip-path="url(#a)">
<g transform="translate(821.11 538.34) rotate(90) scale(.08 -.08)">
<use xlink:href="#j"/>
<use x="60.818359" xlink:href="#i"/>
<use x="122.341797" xlink:href="#h"/>
<use x="163.439453" xlink:href="#k"/>
<use x="260.851562" xlink:href="#g"/>
<use x="288.634766" xlink:href="#f"/>
<use x="352.013672" xlink:href="#e"/>
<use x="413.292969" xlink:href="#l"/>
</g>
</g>
<path d="m913.31 538.34v35.285q0 2.4 2.4 2.4h7.7425q2.4 0 2.4-2.4v-35.285q0-2.4-2.4-2.4h-7.7425q-2.4 0-2.4 2.4z" clip-path="url(#a)" fill="#fff" stroke="#fff"/>
<g clip-path="url(#a)">
<g transform="translate(917.38 538.34) rotate(90) scale(.08 -.08)">
<use xlink:href="#j"/>
<use x="60.818359" xlink:href="#i"/>
<use x="122.341797" xlink:href="#h"/>
<use x="163.439453" xlink:href="#k"/>
<use x="260.851562" xlink:href="#g"/>
<use x="288.634766" xlink:href="#f"/>
<use x="352.013672" xlink:href="#e"/>
<use x="413.292969" xlink:href="#l"/>
</g>
</g>
<defs>
<path id="b" d="m0 8.6603c2.2967 0 4.4997-0.9125 6.1237-2.5365 1.624-1.624 2.5365-3.827 2.5365-6.1237s-0.9125-4.4997-2.5365-6.1237c-1.624-1.624-3.827-2.5365-6.1237-2.5365s-4.4997 0.9125-6.1237 2.5365c-1.624 1.624-2.5365 3.827-2.5365 6.1237s0.9125 4.4997 2.5365 6.1237c1.624 1.624 3.827 2.5365 6.1237 2.5365z"/>
</defs>
<g clip-path="url(#a)">
<use x="53.227232" y="584.867208" fill="#ffffff" stroke="#ffffff" xlink:href="#b"/>
</g>
<g clip-path="url(#a)">
<use x="101.35809" y="584.867208" fill="#ffffff" stroke="#ffffff" xlink:href="#b"/>
</g>
<g clip-path="url(#a)">
<use x="149.488948" y="584.867208" fill="#ffffff" stroke="#ffffff" xlink:href="#b"/>
</g>
<g clip-path="url(#a)">
<use x="197.619805" y="584.867208" fill="#ffffff" stroke="#ffffff" xlink:href="#b"/>
</g>
<g clip-path="url(#a)">
<use x="245.750663" y="584.867208" fill="#ffffff" stroke="#ffffff" xlink:href="#b"/>
</g>
<g clip-path="url(#a)">
<use x="293.881521" y="584.867208" fill="#ffffff" stroke="#ffffff" xlink:href="#b"/>
</g>
<g clip-path="url(#a)">
<use x="342.012378" y="584.867208" fill="#ffffff" stroke="#ffffff" xlink:href="#b"/>
</g>
<g clip-path="url(#a)">
<use x="390.143236" y="584.867208" fill="#ffffff" stroke="#ffffff" xlink:href="#b"/>
</g>
<g clip-path="url(#a)">
<use x="438.274094" y="584.867208" fill="#ffffff" stroke="#ffffff" xlink:href="#b"/>
</g>
<g clip-path="url(#a)">
<use x="486.404951" y="584.867208" fill="#ffffff" stroke="#ffffff" xlink:href="#b"/>
</g>
<g clip-path="url(#a)">
<use x="534.535809" y="584.867208" fill="#ffffff" stroke="#ffffff" xlink:href="#b"/>
</g>
<g clip-path="url(#a)">
<use x="582.666667" y="584.867208" fill="#ffffff" stroke="#ffffff" xlink:href="#b"/>
</g>
<g clip-path="url(#a)">
<use x="630.797524" y="584.867208" fill="#ffffff" stroke="#ffffff" xlink:href="#b"/>
</g>
<g clip-path="url(#a)">
<use x="678.928382" y="584.867208" fill="#ffffff" stroke="#ffffff" xlink:href="#b"/>
</g>
<g clip-path="url(#a)">
<use x="727.05924" y="584.867208" fill="#ffffff" stroke="#ffffff" xlink:href="#b"/>
</g>
<g clip-path="url(#a)">
<use x="775.190097" y="584.867208" fill="#ffffff" stroke="#ffffff" xlink:href="#b"/>
</g>
<g clip-path="url(#a)">
<use x="823.320955" y="584.867208" fill="#ffffff" stroke="#ffffff" xlink:href="#b"/>
</g>
<g clip-path="url(#a)">
<use x="871.451813" y="584.867208" fill="#ffffff" stroke="#ffffff" xlink:href="#b"/>
</g>
<g clip-path="url(#a)">
<use x="919.58267" y="584.867208" fill="#ffffff" stroke="#ffffff" xlink:href="#b"/>
</g>
<g clip-path="url(#a)">
<use x="967.713528" y="584.867208" fill="#ffffff" stroke="#ffffff" xlink:href="#b"/>
</g>
<g clip-path="url(#a)">
<use x="1015.844386" y="584.867208" fill="#ffffff" stroke="#ffffff" xlink:href="#b"/>
</g>
<g clip-path="url(#a)">
<use x="1063.975244" y="584.867208" fill="#ffffff" stroke="#ffffff" xlink:href="#b"/>
</g>
<g clip-path="url(#a)">
<use x="1112.106101" y="584.867208" fill="#ffffff" stroke="#ffffff" xlink:href="#b"/>
</g>
<g clip-path="url(#a)">
<use x="235.865036" y="28.466125" fill="#ffffff" stroke="#ffffff" xlink:href="#b"/>
</g>
<g clip-path="url(#a)">
<use x="360.486355" y="96.766664" fill="#ffffff" stroke="#ffffff" xlink:href="#b"/>
</g>
<g clip-path="url(#a)">
<use x="149.488948" y="527.094712" fill="#ffffff" stroke="#ffffff" xlink:href="#b"/>
</g>
<g clip-path="url(#a)">
<use x="53.227232" y="527.094712" fill="#ffffff" stroke="#ffffff" xlink:href="#b"/>
</g>
<g clip-path="url(#a)">
<use x="101.35809" y="527.094712" fill="#ffffff" stroke="#ffffff" xlink:href="#b"/>
</g>
<g clip-path="url(#a)">
<use x="197.619805" y="527.094712" fill="#ffffff" stroke="#ffffff" xlink:href="#b"/>
</g>
<g clip-path="url(#a)">
<use x="149.488948" y="469.322217" fill="#ffffff" stroke="#ffffff" xlink:href="#b"/>
</g>
<g clip-path="url(#a)">
<use x="245.750663" y="527.094712" fill="#ffffff" stroke="#ffffff" xlink:href="#b"/>
</g>
<g clip-path="url(#a)">
<use x="386.251405" y="163.010253" fill="#ffffff" stroke="#ffffff" xlink:href="#b"/>
</g>
<g clip-path="url(#a)">
<use x="342.012378" y="527.094712" fill="#ffffff" stroke="#ffffff" xlink:href="#b"/>
</g>
<g clip-path="url(#a)">
<use x="1112.106101" y="527.094712" fill="#ffffff" stroke="#ffffff" xlink:href="#b"/>
</g>
<g clip-path="url(#a)">
<use x="293.881521" y="527.094712" fill="#ffffff" stroke="#ffffff" xlink:href="#b"/>
</g>
<g clip-path="url(#a)">
<use x="390.143236" y="527.094712" fill="#ffffff" stroke="#ffffff" xlink:href="#b"/>
</g>
<g clip-path="url(#a)">
<use x="518.968485" y="227.358612" fill="#ffffff" stroke="#ffffff" xlink:href="#b"/>
</g>
<g clip-path="url(#a)">
<use x="486.404951" y="527.094712" fill="#ffffff" stroke="#ffffff" xlink:href="#b"/>
</g>
<g clip-path="url(#a)">
<use x="438.274094" y="527.094712" fill="#ffffff" stroke="#ffffff" xlink:href="#b"/>
</g>
<g clip-path="url(#a)">
<use x="809.182516" y="289.977465" fill="#ffffff" stroke="#ffffff" xlink:href="#b"/>
</g>
<g clip-path="url(#a)">
<use x="1063.975244" y="527.094712" fill="#ffffff" stroke="#ffffff" xlink:href="#b"/>
</g>
<g clip-path="url(#a)">
<use x="534.535809" y="527.094712" fill="#ffffff" stroke="#ffffff" xlink:href="#b"/>
</g>
<g clip-path="url(#a)">
<use x="823.320955" y="469.322217" fill="#ffffff" stroke="#ffffff" xlink:href="#b"/>
</g>
<g clip-path="url(#a)">
<use x="582.666667" y="527.094712" fill="#ffffff" stroke="#ffffff" xlink:href="#b"/>
</g>
<g clip-path="url(#a)">
<use x="814.898055" y="351.041939" fill="#ffffff" stroke="#ffffff" xlink:href="#b"/>
</g>
<g clip-path="url(#a)">
<use x="678.928382" y="527.094712" fill="#ffffff" stroke="#ffffff" xlink:href="#b"/>
</g>
<g clip-path="url(#a)">
<use x="654.862953" y="469.322217" fill="#ffffff" stroke="#ffffff" xlink:href="#b"/>
</g>
<g clip-path="url(#a)">
<use x="630.797524" y="527.094712" fill="#ffffff" stroke="#ffffff" xlink:href="#b"/>
</g>
<g clip-path="url(#a)">
<use x="861.825641" y="410.746042" fill="#ffffff" stroke="#ffffff" xlink:href="#b"/>
</g>
<g clip-path="url(#a)">
<use x="775.190097" y="527.094712" fill="#ffffff" stroke="#ffffff" xlink:href="#b"/>
</g>
<g clip-path="url(#a)">
<use x="727.05924" y="527.094712" fill="#ffffff" stroke="#ffffff" xlink:href="#b"/>
</g>
<g clip-path="url(#a)">
<use x="847.386384" y="469.322217" fill="#ffffff" stroke="#ffffff" xlink:href="#b"/>
</g>
<g clip-path="url(#a)">
<use x="871.451813" y="527.094712" fill="#ffffff" stroke="#ffffff" xlink:href="#b"/>
</g>
<g clip-path="url(#a)">
<use x="943.648099" y="469.322217" fill="#ffffff" stroke="#ffffff" xlink:href="#b"/>
</g>
<g clip-path="url(#a)">
<use x="967.713528" y="527.094712" fill="#ffffff" stroke="#ffffff" xlink:href="#b"/>
</g>
<g clip-path="url(#a)">
<use x="1015.844386" y="527.094712" fill="#ffffff" stroke="#ffffff" xlink:href="#b"/>
</g>
<g clip-path="url(#a)">
<use x="823.320955" y="527.094712" fill="#ffffff" stroke="#ffffff" xlink:href="#b"/>
</g>
<g clip-path="url(#a)">
<use x="919.58267" y="527.094712" fill="#ffffff" stroke="#ffffff" xlink:href="#b"/>
</g>
<g clip-path="url(#a)">
<defs>
<path id="aj" d="m9.8125 72.906h9.8594v-72.906h-9.8594z"/>
</defs>
<g transform="translate(51.752 587.63) scale(.1 -.1)">
<use xlink:href="#aj"/>
</g>
</g>
<g clip-path="url(#a)">
<defs>
<path id="am" d="m4.2031 54.688h8.9844l11.234-42.672 11.172 42.672h10.594l11.234-42.672 11.188 42.672h8.9844l-14.312-54.688h-10.594l-11.766 44.828-11.812-44.828h-10.609z"/>
<path id="y" d="m44.281 53.078v-8.5q-3.7969 1.9531-7.9062 2.9219-4.0938 0.98438-8.5 0.98438-6.6875 0-10.031-2.0469t-3.3438-6.1562q0-3.125 2.3906-4.9062t9.625-3.3906l3.0781-0.6875q9.5625-2.0469 13.594-5.7812t4.0312-10.422q0-7.625-6.0312-12.078-6.0312-4.4375-16.578-4.4375-4.3906 0-9.1562 0.85938t-10.031 2.5625v9.2812q4.9844-2.5938 9.8125-3.8906 4.8281-1.2812 9.5781-1.2812 6.3438 0 9.75 2.1719 3.4219 2.1719 3.4219 6.125 0 3.6562-2.4688 5.6094-2.4531 1.9531-10.812 3.7656l-3.125 0.73438q-8.3438 1.75-12.062 5.3906-3.7031 3.6406-3.7031 9.9844 0 7.7188 5.4688 11.906 5.4688 4.2031 15.531 4.2031 4.9688 0 9.3594-0.73438 4.4062-0.71875 8.1094-2.1875z"/>
</defs>
<g transform="translate(91.6 587.63) scale(.1 -.1)">
<use xlink:href="#am"/>
<use x="81.787109" xlink:href="#e"/>
<use x="143.066406" xlink:href="#y"/>
</g>
</g>
<g clip-path="url(#a)">
<defs>
<path id="ap" d="m48.688 27.297q0 9.9062-4.0781 15.547t-11.203 5.6406q-7.1406 0-11.219-5.6406t-4.0781-15.547 4.0781-15.547 11.219-5.6406q7.125 0 11.203 5.6406t4.0781 15.547zm-30.578 19.094q2.8438 4.875 7.1562 7.2344 4.3281 2.375 10.328 2.375 9.9688 0 16.188-7.9062 6.2344-7.9062 6.2344-20.797t-6.2344-20.812q-6.2188-7.9062-16.188-7.9062-6 0-10.328 2.375-4.3125 2.375-7.1562 7.25v-8.2031h-9.0312v75.984h9.0312z"/>
<path id="q" d="m30.609 48.391q-7.2188 0-11.422-5.6406t-4.2031-15.453 4.1719-15.453q4.1875-5.6406 11.453-5.6406 7.1875 0 11.375 5.6562 4.2031 5.6719 4.2031 15.438 0 9.7188-4.2031 15.406-4.1875 5.6875-11.375 5.6875zm0 7.6094q11.719 0 18.406-7.625 6.7031-7.6094 6.7031-21.078 0-13.422-6.7031-21.078-6.6875-7.6406-18.406-7.6406-11.766 0-18.438 7.6406-6.6562 7.6562-6.6562 21.078 0 13.469 6.6562 21.078 6.6719 7.625 18.438 7.625z"/>
</defs>
<g transform="translate(138.03 587.63) scale(.1 -.1)">
<use xlink:href="#ap"/>
<use x="63.476562" xlink:href="#q"/>
<use x="124.658203" xlink:href="#h"/>
<use x="165.755859" xlink:href="#f"/>
</g>
</g>
<g clip-path="url(#a)">
<defs>
<path id="u" d="m45.406 46.391v29.594h8.9844v-75.984h-8.9844v8.2031q-2.8281-4.875-7.1562-7.25-4.3125-2.375-10.375-2.375-9.9062 0-16.141 7.9062-6.2188 7.9219-6.2188 20.812t6.2188 20.797q6.2344 7.9062 16.141 7.9062 6.0625 0 10.375-2.375 4.3281-2.3594 7.1562-7.2344zm-30.609-19.094q0-9.9062 4.0781-15.547t11.203-5.6406 11.219 5.6406q4.1094 5.6406 4.1094 15.547t-4.1094 15.547q-4.0938 5.6406-11.219 5.6406t-11.203-5.6406-4.0781-15.547z"/>
</defs>
<g transform="translate(188.21 587.63) scale(.1 -.1)">
<use xlink:href="#e"/>
<use x="61.279297" xlink:href="#f"/>
<use x="124.658203" xlink:href="#u"/>
</g>
</g>
<g clip-path="url(#a)">
<g transform="translate(230.39 587.63) scale(.1 -.1)">
<use xlink:href="#h"/>
<use x="41.113281" xlink:href="#e"/>
<use x="102.392578" xlink:href="#g"/>
<use x="130.175781" xlink:href="#y"/>
<use x="182.275391" xlink:href="#i"/>
<use x="243.798828" xlink:href="#u"/>
</g>
</g>
<g clip-path="url(#a)">
<g transform="translate(289.32 587.63) scale(.1 -.1)">
<use xlink:href="#g"/>
<use x="27.783203" xlink:href="#f"/>
</g>
</g>
<g clip-path="url(#a)">
<defs>
<path id="x" d="m18.312 70.219v-15.531h18.5v-6.9844h-18.5v-29.688q0-6.6875 1.8281-8.5938t7.4531-1.9062h9.2188v-7.5156h-9.2188q-10.406 0-14.359 3.875-3.9531 3.8906-3.9531 14.141v29.688h-6.5938v6.9844h6.5938v15.531z"/>
</defs>
<g transform="translate(322.61 587.63) scale(.1 -.1)">
<use xlink:href="#j"/>
<use x="60.818359" xlink:href="#q"/>
<use x="122" xlink:href="#h"/>
<use x="163.082031" xlink:href="#q"/>
<use x="224.263672" xlink:href="#f"/>
<use x="287.642578" xlink:href="#x"/>
<use x="326.851562" xlink:href="#q"/>
</g>
</g>
<g clip-path="url(#a)">
<defs>
<path id="ah" d="m11.719 12.406h10.297v-8.4062l-8-15.625h-6.2969l4 15.625z"/>
</defs>
<g transform="translate(388.55 587.63) scale(.1 -.1)">
<use xlink:href="#ah"/>
</g>
</g>
<g clip-path="url(#a)">
<defs>
<path id="z" d="m54.891 33.016v-33.016h-8.9844v32.719q0 7.7656-3.0312 11.609-3.0312 3.8594-9.0781 3.8594-7.2812 0-11.484-4.6406-4.2031-4.625-4.2031-12.641v-30.906h-9.0312v75.984h9.0312v-29.797q3.2344 4.9375 7.5938 7.375 4.375 2.4375 10.094 2.4375 9.4219 0 14.25-5.8281 4.8438-5.8281 4.8438-17.156z"/>
<path id="aa" d="m48.781 52.594v-8.4062q-3.8125 2.1094-7.6406 3.1562t-7.7344 1.0469q-8.75 0-13.594-5.5469-4.8281-5.5312-4.8281-15.547t4.8281-15.562q4.8438-5.5312 13.594-5.5312 3.9062 0 7.7344 1.0469t7.6406 3.1562v-8.3125q-3.7656-1.75-7.7969-2.625-4.0156-0.89062-8.5625-0.89062-12.359 0-19.641 7.7656-7.2656 7.7656-7.2656 20.953 0 13.375 7.3438 21.031 7.3594 7.6719 20.156 7.6719 4.1406 0 8.0938-0.85938 3.9531-0.84375 7.6719-2.5469z"/>
</defs>
<g transform="translate(423.71 587.63) scale(.1 -.1)">
<use xlink:href="#am"/>
<use x="81.787109" xlink:href="#z"/>
<use x="145.166016" xlink:href="#g"/>
<use x="172.949219" xlink:href="#aa"/>
<use x="227.929688" xlink:href="#z"/>
</g>
</g>
<g clip-path="url(#a)">
<g transform="translate(477.57 587.63) scale(.1 -.1)">
<use xlink:href="#z"/>
<use x="63.378906" xlink:href="#e"/>
<use x="124.658203" xlink:href="#y"/>
</g>
</g>
<g clip-path="url(#a)">
<g transform="translate(531.47 587.63) scale(.1 -.1)">
<use xlink:href="#e"/>
</g>
</g>
<g clip-path="url(#a)">
<defs>
<path id="an" d="m8.5 21.578v33.109h8.9844v-32.766q0-7.7656 3.0156-11.656 3.0312-3.875 9.0938-3.875 7.2656 0 11.484 4.6406 4.2344 4.6406 4.2344 12.656v31h8.9844v-54.688h-8.9844v8.4062q-3.2656-4.9844-7.5938-7.4062-4.3125-2.4219-10.031-2.4219-9.4219 0-14.312 5.8594-4.875 5.8594-4.875 17.141z"/>
<path id="av" d="m45.406 27.984q0 9.7656-4.0312 15.125-4.0156 5.375-11.297 5.375-7.2188 0-11.25-5.375-4.0312-5.3594-4.0312-15.125 0-9.7188 4.0312-15.094t11.25-5.375q7.2812 0 11.297 5.375 4.0312 5.375 4.0312 15.094zm8.9844-21.203q0-13.953-6.2031-20.766-6.1875-6.8125-18.984-6.8125-4.7344 0-8.9375 0.70312t-8.1562 2.1719v8.7344q3.9531-2.1406 7.8125-3.1562 3.8594-1.0312 7.8594-1.0312 8.8438 0 13.234 4.6094t4.3906 13.938v4.4531q-2.7812-4.8438-7.125-7.2344t-10.406-2.3906q-10.047 0-16.203 7.6562-6.1562 7.6719-6.1562 20.328 0 12.688 6.1562 20.344 6.1562 7.6719 16.203 7.6719 6.0625 0 10.406-2.3906t7.125-7.2188v8.2969h8.9844z"/>
</defs>
<g transform="translate(570.08 587.63) scale(.1 -.1)">
<use xlink:href="#z"/>
<use x="63.378906" xlink:href="#an"/>
<use x="126.757812" xlink:href="#av"/>
<use x="190.234375" xlink:href="#i"/>
</g>
</g>
<g clip-path="url(#a)">
<defs>
<path id="aq" d="m3.3281 72.906h9.9531l15.328-61.625 15.281 61.625h11.094l15.328-61.625 15.281 61.625h10.016l-18.312-72.906h-12.406l-15.375 63.281-15.531-63.281h-12.406z"/>
</defs>
<g transform="translate(618.22 587.63) scale(.1 -.1)">
<use xlink:href="#aq"/>
<use x="98.798828" xlink:href="#i"/>
<use x="160.322266" xlink:href="#y"/>
<use x="212.421875" xlink:href="#x"/>
</g>
</g>
<g clip-path="url(#a)">
<g transform="translate(663.49 587.63) scale(.1 -.1)">
<use xlink:href="#aj"/>
<use x="29.492188" xlink:href="#f"/>
<use x="92.871094" xlink:href="#u"/>
<use x="156.347656" xlink:href="#g"/>
<use x="184.130859" xlink:href="#e"/>
<use x="245.410156" xlink:href="#f"/>
</g>
</g>
<g clip-path="url(#a)">
<defs>
<path id="au" d="m31 75.875q-6.5312-11.219-9.7188-22.219-3.1719-10.984-3.1719-22.266 0-11.266 3.2031-22.328t9.6875-22.25h-7.8125q-7.3125 11.484-10.953 22.562t-3.6406 22.016q0 10.891 3.6094 21.922 3.625 11.047 10.984 22.562z"/>
</defs>
<g transform="translate(725.11 587.63) scale(.1 -.1)">
<use xlink:href="#au"/>
</g>
</g>
<g clip-path="url(#a)">
<g transform="translate(747.11 587.63) scale(.1 -.1)">
<use xlink:href="#j"/>
<use x="60.865234" xlink:href="#h"/>
<use x="101.978516" xlink:href="#g"/>
<use x="129.761719" xlink:href="#f"/>
<use x="193.140625" xlink:href="#g"/>
<use x="220.923828" xlink:href="#u"/>
<use x="284.400391" xlink:href="#e"/>
<use x="345.679688" xlink:href="#u"/>
<use x="409.15625" xlink:href="#g"/>
<use x="436.939453" xlink:href="#e"/>
<use x="498.21875" xlink:href="#f"/>
</g>
</g>
<g clip-path="url(#a)">
<g transform="translate(821.73 587.63) scale(.1 -.1)">
<use xlink:href="#ah"/>
</g>
</g>
<g clip-path="url(#a)">
<defs>
<path id="as" d="m9.8125 72.906h9.8594v-67.828q0-13.188-5-19.141t-16.094-5.9531h-3.75v8.2969h3.0781q6.5312 0 9.2188 3.6719 2.6875 3.6562 2.6875 13.125z"/>
</defs>
<g transform="translate(848.61 587.63) scale(.1 -.1)">
<use xlink:href="#as"/>
<use x="29.492188" xlink:href="#e"/>
<use x="90.771484" xlink:href="#k"/>
<use x="188.183594" xlink:href="#e"/>
<use x="249.462891" xlink:href="#g"/>
<use x="277.246094" xlink:href="#aa"/>
<use x="332.226562" xlink:href="#e"/>
<use x="393.505859" xlink:href="#f"/>
</g>
</g>
<g clip-path="url(#a)">
<g transform="translate(917.99 587.63) scale(.1 -.1)">
<use xlink:href="#ah"/>
</g>
</g>
<g clip-path="url(#a)">
<g transform="translate(959.93 587.63) scale(.1 -.1)">
<use xlink:href="#i"/>
<use x="61.523438" xlink:href="#x"/>
<use x="100.732422" xlink:href="#aa"/>
</g>
</g>
<g clip-path="url(#a)">
<defs>
<path id="at" d="m8.0156 75.875h7.8125q7.3125-11.516 10.953-22.562 3.6406-11.031 3.6406-21.922 0-10.938-3.6406-22.016t-10.953-22.562h-7.8125q6.4844 11.188 9.6875 22.25t3.2031 22.328q0 11.281-3.2031 22.266-3.2031 11-9.6875 22.219z"/>
</defs>
<g transform="translate(1013.9 587.63) scale(.1 -.1)">
<use xlink:href="#at"/>
</g>
</g>
<g clip-path="url(#a)">
<defs>
<path id="ao" d="m18.109 8.2031v-29h-9.0312v75.484h9.0312v-8.2969q2.8438 4.875 7.1562 7.2344 4.3281 2.375 10.328 2.375 9.9688 0 16.188-7.9062 6.2344-7.9062 6.2344-20.797t-6.2344-20.812q-6.2188-7.9062-16.188-7.9062-6 0-10.328 2.375-4.3125 2.375-7.1562 7.25zm30.578 19.094q0 9.9062-4.0781 15.547t-11.203 5.6406q-7.1406 0-11.219-5.6406t-4.0781-15.547 4.0781-15.547 11.219-5.6406q7.125 0 11.203 5.6406t4.0781 15.547z"/>
</defs>
<g transform="translate(1037.4 587.63) scale(.1 -.1)">
<use xlink:href="#ao"/>
<use x="63.476562" xlink:href="#q"/>
<use x="124.658203" xlink:href="#ao"/>
<use x="188.134766" xlink:href="#an"/>
<use x="251.513672" xlink:href="#l"/>
<use x="279.296875" xlink:href="#e"/>
<use x="340.576172" xlink:href="#x"/>
<use x="379.785156" xlink:href="#g"/>
<use x="407.568359" xlink:href="#q"/>
<use x="468.75" xlink:href="#f"/>
</g>
</g>
<g clip-path="url(#a)">
<defs>
<path id="d" d="m10.688 12.406h10.312v-12.406h-10.312z"/>
</defs>
<g transform="translate(1110.5 587.63) scale(.1 -.1)">
<use xlink:href="#d"/>
</g>
</g>
<g clip-path="url(#a)">
<defs>
<path id="c" d="m12.406 8.2969h16.109v55.625l-17.531-3.5156v8.9844l17.438 3.5156h9.8594v-64.609h16.109v-8.2969h-41.984z"/>
</defs>
<g transform="translate(227.91 31.226) scale(.1 -.1)">
<use xlink:href="#c"/>
<use x="63.623047" xlink:href="#d"/>
<use x="95.410156" xlink:href="#c"/>
</g>
</g>
<g clip-path="url(#a)">
<defs>
<path id="m" d="m19.188 8.2969h34.422v-8.2969h-46.281v8.2969q5.6094 5.8125 15.297 15.594 9.7031 9.7969 12.188 12.641 4.7344 5.3125 6.6094 9 1.8906 3.6875 1.8906 7.25 0 5.8125-4.0781 9.4688-4.0781 3.6719-10.625 3.6719-4.6406 0-9.7969-1.6094-5.1406-1.6094-11-4.8906v9.9688q5.9531 2.3906 11.125 3.6094 5.1875 1.2188 9.4844 1.2188 11.328 0 18.062-5.6719 6.7344-5.6562 6.7344-15.125 0-4.5-1.6875-8.5312-1.6719-4.0156-6.125-9.4844-1.2188-1.4219-7.7656-8.1875-6.5312-6.7656-18.453-18.922z"/>
</defs>
<g transform="translate(352.53 99.526) scale(.1 -.1)">
<use xlink:href="#c"/>
<use x="63.623047" xlink:href="#d"/>
<use x="95.410156" xlink:href="#m"/>
</g>
</g>
<g clip-path="url(#a)">
<defs>
<path id="n" d="m40.578 39.312q7.0781-1.5156 11.047-6.3125 3.9844-4.7812 3.9844-11.812 0-10.781-7.4219-16.703-7.4219-5.9062-21.094-5.9062-4.5781 0-9.4375 0.90625t-10.031 2.7188v9.5156q4.0938-2.3906 8.9688-3.6094 4.8906-1.2188 10.219-1.2188 9.2656 0 14.125 3.6562t4.8594 10.641q0 6.4531-4.5156 10.078-4.5156 3.6406-12.562 3.6406h-8.5v8.1094h8.8906q7.2656 0 11.125 2.9062t3.8594 8.375q0 5.6094-3.9844 8.6094-3.9688 3.0156-11.391 3.0156-4.0625 0-8.7031-0.89062-4.6406-0.875-10.203-2.7188v8.7812q5.625 1.5625 10.531 2.3438t9.25 0.78125q11.234 0 17.766-5.1094 6.5469-5.0938 6.5469-13.781 0-6.0625-3.4688-10.234t-9.8594-5.7812z"/>
</defs>
<g transform="translate(141.54 529.85) scale(.1 -.1)">
<use xlink:href="#c"/>
<use x="63.623047" xlink:href="#d"/>
<use x="95.410156" xlink:href="#n"/>
</g>
</g>
<g clip-path="url(#a)">
<defs>
<path id="w" d="m37.797 64.312-24.906-38.922h24.906zm-2.5938 8.5938h12.406v-47.516h10.406v-8.2031h-10.406v-17.188h-9.8125v17.188h-32.906v9.5156z"/>
</defs>
<g transform="translate(45.276 529.85) scale(.1 -.1)">
<use xlink:href="#c"/>
<use x="63.623047" xlink:href="#d"/>
<use x="95.410156" xlink:href="#w"/>
</g>
</g>
<g clip-path="url(#a)">
<defs>
<path id="v" d="m10.797 72.906h38.719v-8.3125h-29.688v-17.859q2.1406 0.73438 4.2812 1.0938 2.1562 0.35938 4.3125 0.35938 12.203 0 19.328-6.6875 7.1406-6.6875 7.1406-18.109 0-11.766-7.3281-18.297-7.3281-6.5156-20.656-6.5156-4.5938 0-9.3594 0.78125-4.75 0.78125-9.8281 2.3438v9.9219q4.3906-2.3906 9.0781-3.5625t9.9062-1.1719q8.4531 0 13.375 4.4375 4.9375 4.4375 4.9375 12.062 0 7.6094-4.9375 12.047-4.9219 4.4531-13.375 4.4531-3.9531 0-7.8906-0.875-3.9219-0.875-8.0156-2.7344z"/>
</defs>
<g transform="translate(93.407 529.85) scale(.1 -.1)">
<use xlink:href="#c"/>
<use x="63.623047" xlink:href="#d"/>
<use x="95.410156" xlink:href="#v"/>
</g>
</g>
<g clip-path="url(#a)">
<defs>
<path id="af" d="m33.016 40.375q-6.6406 0-10.531-4.5469-3.875-4.5312-3.875-12.438 0-7.8594 3.875-12.438 3.8906-4.5625 10.531-4.5625t10.516 4.5625q3.875 4.5781 3.875 12.438 0 7.9062-3.875 12.438-3.875 4.5469-10.516 4.5469zm19.578 30.922v-8.9844q-3.7188 1.75-7.5 2.6719-3.7812 0.9375-7.5 0.9375-9.7656 0-14.922-6.5938-5.1406-6.5938-5.875-19.922 2.875 4.25 7.2188 6.5156 4.3594 2.2656 9.5781 2.2656 10.984 0 17.359-6.6719 6.375-6.6562 6.375-18.125 0-11.234-6.6406-18.031-6.6406-6.7812-17.672-6.7812-12.656 0-19.344 9.6875-6.6875 9.7031-6.6875 28.109 0 17.281 8.2031 27.562t22.016 10.281q3.7188 0 7.5-0.73438t7.8906-2.1875z"/>
</defs>
<g transform="translate(189.67 529.85) scale(.1 -.1)">
<use xlink:href="#c"/>
<use x="63.623047" xlink:href="#d"/>
<use x="95.410156" xlink:href="#af"/>
</g>
</g>
<g clip-path="url(#a)">
<defs>
<path id="ae" d="m8.2031 72.906h46.875v-4.2031l-26.469-68.703h-10.297l24.906 64.594h-35.016z"/>
</defs>
<g transform="translate(141.54 472.08) scale(.1 -.1)">
<use xlink:href="#c"/>
<use x="63.623047" xlink:href="#d"/>
<use x="95.410156" xlink:href="#ae"/>
</g>
</g>
<g clip-path="url(#a)">
<defs>
<path id="ad" d="m31.781 34.625q-7.0312 0-11.062-3.7656-4.0156-3.7656-4.0156-10.344 0-6.5938 4.0156-10.359 4.0312-3.7656 11.062-3.7656t11.078 3.7812q4.0625 3.7969 4.0625 10.344 0 6.5781-4.0312 10.344-4.0156 3.7656-11.109 3.7656zm-9.8594 4.1875q-6.3438 1.5625-9.8906 5.9062-3.5312 4.3594-3.5312 10.609 0 8.7344 6.2188 13.812 6.2344 5.0781 17.062 5.0781 10.891 0 17.094-5.0781t6.2031-13.812q0-6.25-3.5469-10.609-3.5312-4.3438-9.8281-5.9062 7.125-1.6562 11.094-6.5 3.9844-4.8281 3.9844-11.797 0-10.609-6.4688-16.281-6.4688-5.6562-18.531-5.6562-12.047 0-18.531 5.6562-6.4688 5.6719-6.4688 16.281 0 6.9688 4 11.797 4.0156 4.8438 11.141 6.5zm-3.6094 15.578q0-5.6562 3.5312-8.8281 3.5469-3.1719 9.9375-3.1719 6.3594 0 9.9375 3.1719 3.5938 3.1719 3.5938 8.8281 0 5.6719-3.5938 8.8438-3.5781 3.1719-9.9375 3.1719-6.3906 0-9.9375-3.1719-3.5312-3.1719-3.5312-8.8438z"/>
</defs>
<g transform="translate(237.8 529.85) scale(.1 -.1)">
<use xlink:href="#c"/>
<use x="63.623047" xlink:href="#d"/>
<use x="95.410156" xlink:href="#ad"/>
</g>
</g>
<g clip-path="url(#a)">
<defs>
<path id="ac" d="m10.984 1.5156v8.9844q3.7188-1.7656 7.5156-2.6875 3.8125-0.92188 7.4844-0.92188 9.7656 0 14.906 6.5625 5.1562 6.5625 5.8906 19.953-2.8281-4.2031-7.1875-6.4531-4.3438-2.25-9.6094-2.25-10.938 0-17.312 6.6094-6.375 6.625-6.375 18.109 0 11.219 6.6406 18 6.6406 6.7969 17.672 6.7969 12.656 0 19.312-9.7031 6.6719-9.6875 6.6719-28.141 0-17.234-8.1875-27.516-8.1719-10.281-21.984-10.281-3.7188 0-7.5312 0.73438-3.7969 0.73438-7.9062 2.2031zm19.625 30.906q6.6406 0 10.516 4.5312 3.8906 4.5469 3.8906 12.469 0 7.8594-3.8906 12.422-3.875 4.5625-10.516 4.5625t-10.516-4.5625-3.875-12.422q0-7.9219 3.875-12.469 3.875-4.5312 10.516-4.5312z"/>
</defs>
<g transform="translate(378.3 165.77) scale(.1 -.1)">
<use xlink:href="#c"/>
<use x="63.623047" xlink:href="#d"/>
<use x="95.410156" xlink:href="#ac"/>
</g>
</g>
<g clip-path="url(#a)">
<defs>
<path id="ag" d="m31.781 66.406q-7.6094 0-11.453-7.5-3.8281-7.4844-3.8281-22.531 0-14.984 3.8281-22.484 3.8438-7.5 11.453-7.5 7.6719 0 11.5 7.5 3.8438 7.5 3.8438 22.484 0 15.047-3.8438 22.531-3.8281 7.5-11.5 7.5zm0 7.8125q12.266 0 18.734-9.7031 6.4688-9.6875 6.4688-28.141 0-18.406-6.4688-28.109-6.4688-9.6875-18.734-9.6875-12.25 0-18.719 9.6875-6.4688 9.7031-6.4688 28.109 0 18.453 6.4688 28.141 6.4688 9.7031 18.719 9.7031z"/>
</defs>
<g transform="translate(330.88 529.85) scale(.1 -.1)">
<use xlink:href="#c"/>
<use x="63.623047" xlink:href="#d"/>
<use x="95.410156" xlink:href="#c"/>
<use x="159.033203" xlink:href="#ag"/>
</g>
</g>
<g clip-path="url(#a)">
<g transform="translate(1101 529.85) scale(.1 -.1)">
<use xlink:href="#c"/>
<use x="63.623047" xlink:href="#d"/>
<use x="95.410156" xlink:href="#c"/>
<use x="159.033203" xlink:href="#c"/>
</g>
</g>
<g clip-path="url(#a)">
<g transform="translate(282.75 529.85) scale(.1 -.1)">
<use xlink:href="#c"/>
<use x="63.623047" xlink:href="#d"/>
<use x="95.410156" xlink:href="#c"/>
<use x="159.033203" xlink:href="#m"/>
</g>
</g>
<g clip-path="url(#a)">
<g transform="translate(379.01 529.85) scale(.1 -.1)">
<use xlink:href="#c"/>
<use x="63.623047" xlink:href="#d"/>
<use x="95.410156" xlink:href="#c"/>
<use x="159.033203" xlink:href="#n"/>
</g>
</g>
<g clip-path="url(#a)">
<g transform="translate(507.84 230.12) scale(.1 -.1)">
<use xlink:href="#c"/>
<use x="63.623047" xlink:href="#d"/>
<use x="95.410156" xlink:href="#c"/>
<use x="159.033203" xlink:href="#w"/>
</g>
</g>
<g clip-path="url(#a)">
<g transform="translate(475.27 529.85) scale(.1 -.1)">
<use xlink:href="#c"/>
<use x="63.623047" xlink:href="#d"/>
<use x="95.410156" xlink:href="#c"/>
<use x="159.033203" xlink:href="#v"/>
</g>
</g>
<g clip-path="url(#a)">
<g transform="translate(427.14 529.85) scale(.1 -.1)">
<use xlink:href="#c"/>
<use x="63.623047" xlink:href="#d"/>
<use x="95.410156" xlink:href="#c"/>
<use x="159.033203" xlink:href="#af"/>
</g>
</g>
<g clip-path="url(#a)">
<g transform="translate(798.05 292.74) scale(.1 -.1)">
<use xlink:href="#c"/>
<use x="63.623047" xlink:href="#d"/>
<use x="95.410156" xlink:href="#c"/>
<use x="159.033203" xlink:href="#ae"/>
</g>
</g>
<g clip-path="url(#a)">
<g transform="translate(1052.8 529.85) scale(.1 -.1)">
<use xlink:href="#c"/>
<use x="63.623047" xlink:href="#d"/>
<use x="95.410156" xlink:href="#c"/>
<use x="159.033203" xlink:href="#ad"/>
</g>
</g>
<g clip-path="url(#a)">
<g transform="translate(523.4 529.85) scale(.1 -.1)">
<use xlink:href="#c"/>
<use x="63.623047" xlink:href="#d"/>
<use x="95.410156" xlink:href="#c"/>
<use x="159.033203" xlink:href="#ac"/>
</g>
</g>
<g clip-path="url(#a)">
<g transform="translate(812.19 472.08) scale(.1 -.1)">
<use xlink:href="#c"/>
<use x="63.623047" xlink:href="#d"/>
<use x="95.410156" xlink:href="#m"/>
<use x="159.033203" xlink:href="#ag"/>
</g>
</g>
<g clip-path="url(#a)">
<g transform="translate(571.53 529.85) scale(.1 -.1)">
<use xlink:href="#c"/>
<use x="63.623047" xlink:href="#d"/>
<use x="95.410156" xlink:href="#m"/>
<use x="159.033203" xlink:href="#c"/>
</g>
</g>
<g clip-path="url(#a)">
<g transform="translate(803.77 353.8) scale(.1 -.1)">
<use xlink:href="#c"/>
<use x="63.623047" xlink:href="#d"/>
<use x="95.410156" xlink:href="#m"/>
<use x="159.033203" xlink:href="#m"/>
</g>
</g>
<g clip-path="url(#a)">
<g transform="translate(667.8 529.85) scale(.1 -.1)">
<use xlink:href="#c"/>
<use x="63.623047" xlink:href="#d"/>
<use x="95.410156" xlink:href="#m"/>
<use x="159.033203" xlink:href="#n"/>
</g>
</g>
<g clip-path="url(#a)">
<g transform="translate(643.73 472.08) scale(.1 -.1)">
<use xlink:href="#c"/>
<use x="63.623047" xlink:href="#d"/>
<use x="95.410156" xlink:href="#m"/>
<use x="159.033203" xlink:href="#w"/>
</g>
</g>
<g clip-path="url(#a)">
<g transform="translate(619.66 529.85) scale(.1 -.1)">
<use xlink:href="#c"/>
<use x="63.623047" xlink:href="#d"/>
<use x="95.410156" xlink:href="#m"/>
<use x="159.033203" xlink:href="#v"/>
</g>
</g>
<g clip-path="url(#a)">
<g transform="translate(850.69 413.51) scale(.1 -.1)">
<use xlink:href="#c"/>
<use x="63.623047" xlink:href="#d"/>
<use x="95.410156" xlink:href="#m"/>
<use x="159.033203" xlink:href="#af"/>
</g>
</g>
<g clip-path="url(#a)">
<g transform="translate(764.06 529.85) scale(.1 -.1)">
<use xlink:href="#c"/>
<use x="63.623047" xlink:href="#d"/>
<use x="95.410156" xlink:href="#m"/>
<use x="159.033203" xlink:href="#ae"/>
</g>
</g>
<g clip-path="url(#a)">
<g transform="translate(715.93 529.85) scale(.1 -.1)">
<use xlink:href="#c"/>
<use x="63.623047" xlink:href="#d"/>
<use x="95.410156" xlink:href="#m"/>
<use x="159.033203" xlink:href="#ad"/>
</g>
</g>
<g clip-path="url(#a)">
<g transform="translate(836.25 472.08) scale(.1 -.1)">
<use xlink:href="#c"/>
<use x="63.623047" xlink:href="#d"/>
<use x="95.410156" xlink:href="#m"/>
<use x="159.033203" xlink:href="#ac"/>
</g>
</g>
<g clip-path="url(#a)">
<g transform="translate(860.32 529.85) scale(.1 -.1)">
<use xlink:href="#c"/>
<use x="63.623047" xlink:href="#d"/>
<use x="95.410156" xlink:href="#n"/>
<use x="159.033203" xlink:href="#ag"/>
</g>
</g>
<g clip-path="url(#a)">
<g transform="translate(932.52 472.08) scale(.1 -.1)">
<use xlink:href="#c"/>
<use x="63.623047" xlink:href="#d"/>
<use x="95.410156" xlink:href="#n"/>
<use x="159.033203" xlink:href="#c"/>
</g>
</g>
<g clip-path="url(#a)">
<g transform="translate(956.58 529.85) scale(.1 -.1)">
<use xlink:href="#c"/>
<use x="63.623047" xlink:href="#d"/>
<use x="95.410156" xlink:href="#n"/>
<use x="159.033203" xlink:href="#m"/>
</g>
</g>
<g clip-path="url(#a)">
<g transform="translate(1004.7 529.85) scale(.1 -.1)">
<use xlink:href="#c"/>
<use x="63.623047" xlink:href="#d"/>
<use x="95.410156" xlink:href="#n"/>
<use x="159.033203" xlink:href="#n"/>
</g>
</g>
<g clip-path="url(#a)">
<g transform="translate(812.19 529.85) scale(.1 -.1)">
<use xlink:href="#c"/>
<use x="63.623047" xlink:href="#d"/>
<use x="95.410156" xlink:href="#n"/>
<use x="159.033203" xlink:href="#w"/>
</g>
</g>
<g clip-path="url(#a)">
<g transform="translate(908.45 529.85) scale(.1 -.1)">
<use xlink:href="#c"/>
<use x="63.623047" xlink:href="#d"/>
<use x="95.410156" xlink:href="#n"/>
<use x="159.033203" xlink:href="#v"/>
</g>
</g>
<defs>
<clipPath id="a">
<rect width="1165.3" height="613.33"/>
</clipPath>
</defs>
</svg>
