<?xml version="1.0" encoding="UTF-8"?>
<!DOCTYPE svg  PUBLIC '-//W3C//DTD SVG 1.1//EN'  'http://www.w3.org/Graphics/SVG/1.1/DTD/svg11.dtd'>
<svg width="1469.3pt" height="773.33pt" version="1.1" viewBox="0 0 1469.3 773.33" xmlns="http://www.w3.org/2000/svg" xmlns:xlink="http://www.w3.org/1999/xlink">
<defs>
<style type="text/css">*{stroke-linecap:butt;stroke-linejoin:round;}</style>
</defs>
<path d="m0 773.33h1469.3v-773.33h-1469.3z" fill="#fff"/>
<g fill="none" stroke="#000">
<path d="m690.03 35.926-77.41 312.67" clip-path="url(#a)"/>
<path d="m690.03 35.926 44.633 605.41" clip-path="url(#a)"/>
<path d="m690.03 35.926 32.777 107" clip-path="url(#a)"/>
<path d="m612.62 348.59-259.49 292.75" clip-path="url(#a)"/>
<path d="m612.62 348.59-479.4 99.278" clip-path="url(#a)"/>
<path d="m612.62 348.59-50.837 99.278" clip-path="url(#a)"/>
<path d="m612.62 348.59 789.72 292.75" clip-path="url(#a)"/>
<path d="m353.14 641.34v96.066" clip-path="url(#a)"/>
<path d="m133.23 447.87-18.547 193.47" clip-path="url(#a)"/>
<path d="m133.23 447.87-66.238 193.47" clip-path="url(#a)"/>
<path d="m133.23 447.87 84.784 97.403" clip-path="url(#a)"/>
<path d="m114.68 641.34v96.066" clip-path="url(#a)"/>
<path d="m561.79 447.87 29.807 193.47" clip-path="url(#a)"/>
<path d="m561.79 447.87-113.27 97.403" clip-path="url(#a)"/>
<path d="m561.79 447.87-17.884 193.47" clip-path="url(#a)"/>
<path d="m561.79 447.87 101.34 97.403" clip-path="url(#a)"/>
<path d="m591.59 641.34v96.066" clip-path="url(#a)"/>
<path d="m734.67 641.34v96.066" clip-path="url(#a)"/>
<path d="m722.81 142.93-608.13 498.41" clip-path="url(#a)" stroke-dasharray="3.7,1.6"/>
<path d="m722.81 142.93 59.548 498.41" clip-path="url(#a)"/>
<path d="m722.81 142.93 107.24 498.41" clip-path="url(#a)"/>
<path d="m722.81 142.93 154.93 498.41" clip-path="url(#a)"/>
<path d="m722.81 142.93 286.41 104.13" clip-path="url(#a)"/>
<path d="m782.36 641.34v96.066" clip-path="url(#a)"/>
<path d="m1402.3 641.34v96.066" clip-path="url(#a)"/>
<path d="m66.99 641.34v96.066" clip-path="url(#a)"/>
<path d="m218.01 545.27 63.588 96.066" clip-path="url(#a)"/>
<path d="m218.01 545.27-55.64 96.066" clip-path="url(#a)"/>
<path d="m218.01 545.27-7.9485 96.066" clip-path="url(#a)"/>
<path d="m281.6 641.34-23.846 96.066" clip-path="url(#a)"/>
<path d="m281.6 641.34 23.846 96.066" clip-path="url(#a)"/>
<path d="m448.52 545.27-47.691 96.066" clip-path="url(#a)"/>
<path d="m448.52 545.27v96.066" clip-path="url(#a)"/>
<path d="m448.52 545.27 47.691 96.066" clip-path="url(#a)"/>
<path d="m400.83 641.34v96.066" clip-path="url(#a)"/>
<path d="m543.9 641.34v96.066" clip-path="url(#a)"/>
<path d="m663.13 545.27 23.846 96.066" clip-path="url(#a)"/>
<path d="m663.13 545.27-23.846 96.066" clip-path="url(#a)"/>
<path d="m686.98 641.34v96.066" clip-path="url(#a)"/>
<path d="m830.05 641.34v96.066" clip-path="url(#a)"/>
<path d="m877.74 641.34v96.066" clip-path="url(#a)"/>
<path d="m1009.2 247.05-36.1 394.29" clip-path="url(#a)"/>
<path d="m1009.2 247.05-83.791 394.29" clip-path="url(#a)"/>
<path d="m1009.2 247.05 119.89 101.54" clip-path="url(#a)"/>
<path d="m973.12 641.34v96.066" clip-path="url(#a)"/>
<path d="m162.37 641.34v96.066" clip-path="url(#a)"/>
<path d="m210.06 641.34v96.066" clip-path="url(#a)"/>
<path d="m448.52 641.34v96.066" clip-path="url(#a)"/>
<path d="m496.21 641.34v96.066" clip-path="url(#a)"/>
<path d="m639.28 641.34v96.066" clip-path="url(#a)"/>
<path d="m925.43 641.34v96.066" clip-path="url(#a)"/>
<path d="m1129.1 348.59-12.916 292.75" clip-path="url(#a)"/>
<path d="m1129.1 348.59-108.3 292.75" clip-path="url(#a)"/>
<path d="m1129.1 348.59-60.608 292.75" clip-path="url(#a)"/>
<path d="m1129.1 348.59 34.775 292.75" clip-path="url(#a)"/>
<path d="m1129.1 348.59 82.466 292.75" clip-path="url(#a)"/>
<path d="m1129.1 348.59 64.582 99.278" clip-path="url(#a)"/>
<path d="m1116.2 641.34v96.066" clip-path="url(#a)"/>
<path d="m1020.8 641.34v96.066" clip-path="url(#a)"/>
<path d="m1068.5 641.34v96.066" clip-path="url(#a)"/>
<path d="m1163.9 641.34v96.066" clip-path="url(#a)"/>
<path d="m1211.6 641.34v96.066" clip-path="url(#a)"/>
<path d="m1193.7 447.87-172.88 193.47" clip-path="url(#a)" stroke-dasharray="3.7,1.6"/>
<path d="m1193.7 447.87 113.27 193.47" clip-path="url(#a)"/>
<path d="m1193.7 447.87 65.575 193.47" clip-path="url(#a)"/>
<path d="m1193.7 447.87-5.9614 97.403" clip-path="url(#a)"/>
<path d="m1307 641.34v96.066" clip-path="url(#a)"/>
<path d="m1259.3 641.34v96.066" clip-path="url(#a)"/>
<path d="m1187.7 545.27-166.92 96.066" clip-path="url(#a)" stroke-dasharray="3.7,1.6"/>
<path d="m1187.7 545.27 166.92 96.066" clip-path="url(#a)"/>
<path d="m1354.7 641.34v96.066" clip-path="url(#a)"/>
</g>
<path d="m656.69 196.69 1.4458-5.8399q0.57678-2.3297-1.7529-2.9064l-7.5156-1.8607q-2.3297-0.57678-2.9064 1.7529l-1.4458 5.8399q-0.57678 2.3297 1.7529 2.9064l7.5156 1.8607q2.3297 0.57678 2.9064-1.7529z" clip-path="url(#a)" fill="#fff" stroke="#fff"/>
<g clip-path="url(#a)">
<defs>
<path id="al" d="m9.8125 72.906h9.8594v-29.891h35.844v29.891h9.8594v-72.906h-9.8594v34.719h-35.844v-34.719h-9.8594z"/>
</defs>
<g transform="translate(652.75 195.71) rotate(-76.094) scale(.08 -.08)">
<use xlink:href="#al"/>
</g>
</g>
<path d="m705.93 336.87 0.32773 4.4454q0.17646 2.3935 2.57 2.217l7.7215-0.56926q2.3935-0.17646 2.217-2.57l-0.32773-4.4454q-0.17646-2.3935-2.57-2.217l-7.7215 0.56926q-2.3935 0.17646-2.217 2.57z" clip-path="url(#a)" fill="#fff" stroke="#fff"/>
<g clip-path="url(#a)">
<defs>
<path id="as" d="m9.8125 72.906h9.8594v-64.609h35.5v-8.2969h-45.359z"/>
</defs>
<g transform="translate(709.98 336.57) rotate(85.784) scale(.08 -.08)">
<use xlink:href="#as"/>
</g>
</g>
<path d="m699.54 88.387 1.7621 5.7524q0.70293 2.2948 2.9977 1.5918l7.403-2.2677q2.2948-0.70293 1.5918-2.9977l-1.7621-5.7524q-0.70293-2.2948-2.9977-1.5918l-7.403 2.2677q-2.2948 0.70293-1.5918 2.9977z" clip-path="url(#a)" fill="#fff" stroke="#fff"/>
<g clip-path="url(#a)">
<g transform="translate(703.43 87.197) rotate(72.969) scale(.08 -.08)">
<use xlink:href="#al"/>
</g>
</g>
<path d="m485.97 500.93 3.1997-3.6098q1.592-1.796-0.20406-3.388l-5.794-5.1357q-1.796-1.592-3.388 0.20406l-3.1997 3.6098q-1.592 1.796 0.20406 3.388l5.794 5.1357q1.796 1.592 3.388-0.20406z" clip-path="url(#a)" fill="#fff" stroke="#fff"/>
<g clip-path="url(#a)">
<defs>
<path id="r" d="m19.672 64.797v-27.391h12.406q6.8906 0 10.641 3.5625 3.7656 3.5625 3.7656 10.156 0 6.5469-3.7656 10.109-3.75 3.5625-10.641 3.5625zm-9.8594 8.1094h22.266q12.266 0 18.531-5.5469 6.2812-5.5469 6.2812-16.234 0-10.797-6.2812-16.312-6.2656-5.5156-18.531-5.5156h-12.406v-29.297h-9.8594z"/>
</defs>
<g transform="translate(482.93 498.24) rotate(-48.447) scale(.08 -.08)">
<use xlink:href="#r"/>
</g>
</g>
<path d="m371.52 404.93 5.3588-1.1098q2.3501-0.48669 1.8634-2.8368l-1.5701-7.5816q-0.48669-2.3501-2.8368-1.8634l-5.3588 1.1098q-2.3501 0.48669-1.8634 2.8368l1.5701 7.5816q0.48669 2.3501 2.8368 1.8634z" clip-path="url(#a)" fill="#fff" stroke="#fff"/>
<g clip-path="url(#a)">
<defs>
<path id="o" d="m34.188 63.188-13.391-36.281h26.812zm-5.5781 9.7188h11.188l27.781-72.906h-10.25l-6.6406 18.703h-32.859l-6.6406-18.703h-10.406z"/>
</defs>
<g transform="translate(370.69 400.95) rotate(-11.7) scale(.08 -.08)">
<use xlink:href="#o"/>
</g>
</g>
<path d="m591.54 403.53 2.4943-4.871q1.0939-2.1362-1.0423-3.2301l-6.8915-3.5289q-2.1362-1.0939-3.2301 1.0423l-2.4943 4.871q-1.0939 2.1362 1.0423 3.2301l6.8915 3.5289q2.1362 1.0939 3.2301-1.0423z" clip-path="url(#a)" fill="#fff" stroke="#fff"/>
<g clip-path="url(#a)">
<g transform="translate(587.92 401.67) rotate(-62.884) scale(.08 -.08)">
<use xlink:href="#o"/>
</g>
</g>
<path d="m1002.6 499.83 5.4899 2.0351q2.2504 0.8342 3.0846-1.4162l2.6912-7.2597q0.8342-2.2504-1.4162-3.0846l-5.4899-2.0351q-2.2504-0.8342-3.0846 1.4162l-2.6912 7.2597q-0.8342 2.2504 1.4162 3.0846z" clip-path="url(#a)" fill="#fff" stroke="#fff"/>
<g clip-path="url(#a)">
<defs>
<path id="ar" d="m8.6875 72.906h9.9219v-44.297q0-11.719 4.2344-16.875 4.25-5.1406 13.781-5.1406 9.4688 0 13.719 5.1406 4.25 5.1562 4.25 16.875v44.297h9.9062v-45.516q0-14.25-7.0625-21.531-7.0469-7.2812-20.812-7.2812-13.828 0-20.891 7.2812-7.0469 7.2812-7.0469 21.531z"/>
</defs>
<g transform="translate(1004 496.02) rotate(20.34) scale(.08 -.08)">
<use xlink:href="#ar"/>
</g>
</g>
<path d="m346.87 671.73v35.285q0 2.4 2.4 2.4h7.7425q2.4 0 2.4-2.4v-35.285q0-2.4-2.4-2.4h-7.7425q-2.4 0-2.4 2.4z" clip-path="url(#a)" fill="#fff" stroke="#fff"/>
<g clip-path="url(#a)">
<defs>
<path id="k" d="m-0.29688 72.906h61.672v-8.3125h-25.875v-64.594h-9.9062v64.594h-25.891z"/>
<path id="d" d="m56.203 29.594v-4.3906h-41.312q0.59375-9.2812 5.5938-14.141t13.938-4.8594q5.1719 0 10.031 1.2656t9.6562 3.8125v-8.5q-4.8438-2.0469-9.9219-3.125t-10.297-1.0781q-13.094 0-20.734 7.6094-7.6406 7.625-7.6406 20.625 0 13.422 7.25 21.297 7.25 7.8906 19.562 7.8906 11.031 0 17.453-7.1094 6.4219-7.0938 6.4219-19.297zm-8.9844 2.6406q-0.09375 7.3594-4.125 11.75-4.0312 4.4062-10.672 4.4062-7.5156 0-12.031-4.25t-5.2031-11.969z"/>
<path id="h" d="m41.109 46.297q-1.5156 0.875-3.2969 1.2812-1.7812 0.42188-3.9219 0.42188-7.625 0-11.703-4.9531t-4.0781-14.234v-28.812h-9.0312v54.688h9.0312v-8.5q2.8438 4.9844 7.375 7.3906 4.5469 2.4219 11.047 2.4219 0.92188 0 2.0469-0.125 1.125-0.10938 2.4844-0.35938z"/>
<path id="l" d="m52 44.188q3.375 6.0625 8.0625 8.9375t11.031 2.875q8.5469 0 13.188-5.9844 4.6406-5.9688 4.6406-17v-33.016h-9.0312v32.719q0 7.8594-2.7969 11.656-2.7812 3.8125-8.4844 3.8125-6.9844 0-11.047-4.6406-4.0469-4.625-4.0469-12.641v-30.906h-9.0312v32.719q0 7.9062-2.7812 11.688t-8.5938 3.7812q-6.8906 0-10.953-4.6562-4.0469-4.6562-4.0469-12.625v-30.906h-9.0312v54.688h9.0312v-8.5q3.0781 5.0312 7.375 7.4219t10.203 2.3906q5.9688 0 10.141-3.0312 4.1719-3.0156 6.1719-8.7812z"/>
<path id="j" d="m9.4219 54.688h8.9844v-54.688h-8.9844zm0 21.297h8.9844v-11.391h-8.9844z"/>
<path id="g" d="m54.891 33.016v-33.016h-8.9844v32.719q0 7.7656-3.0312 11.609-3.0312 3.8594-9.0781 3.8594-7.2812 0-11.484-4.6406-4.2031-4.625-4.2031-12.641v-30.906h-9.0312v54.688h9.0312v-8.5q3.2344 4.9375 7.5938 7.375 4.375 2.4375 10.094 2.4375 9.4219 0 14.25-5.8281 4.8438-5.8281 4.8438-17.156z"/>
<path id="e" d="m34.281 27.484q-10.891 0-15.094-2.4844t-4.2031-8.5q0-4.7812 3.1562-7.5938 3.1562-2.7969 8.5625-2.7969 7.4844 0 12 5.2969t4.5156 14.078v2zm17.922 3.7188v-31.203h-8.9844v8.2969q-3.0781-4.9688-7.6719-7.3438t-11.234-2.375q-8.3906 0-13.359 4.7188-4.9531 4.7188-4.9531 12.625 0 9.2188 6.1719 13.906 6.1875 4.6875 18.438 4.6875h12.609v0.89062q0 6.2031-4.0781 9.5938t-11.453 3.3906q-4.6875 0-9.1406-1.125-4.4375-1.125-8.5312-3.375v8.3125q4.9219 1.9062 9.5625 2.8438 4.6406 0.95312 9.0312 0.95312 11.875 0 17.734-6.1562 5.8594-6.1406 5.8594-18.641z"/>
<path id="i" d="m9.4219 75.984h8.9844v-75.984h-8.9844z"/>
</defs>
<g transform="translate(350.93 671.73) rotate(90) scale(.08 -.08)">
<use xlink:href="#k"/>
<use x="60.818359" xlink:href="#d"/>
<use x="122.341797" xlink:href="#h"/>
<use x="163.439453" xlink:href="#l"/>
<use x="260.851562" xlink:href="#j"/>
<use x="288.634766" xlink:href="#g"/>
<use x="352.013672" xlink:href="#e"/>
<use x="413.292969" xlink:href="#i"/>
</g>
</g>
<path d="m129.93 547.98 0.53307-5.5608q0.22902-2.389-2.16-2.6181l-7.7072-0.73883q-2.389-0.22902-2.6181 2.16l-0.53307 5.5608q-0.22902 2.389 2.16 2.6181l7.7072 0.73883q2.389 0.22902 2.6181-2.16z" clip-path="url(#a)" fill="#fff" stroke="#fff"/>
<g clip-path="url(#a)">
<defs>
<path id="p" d="m64.406 67.281v-10.391q-4.9844 4.6406-10.625 6.9219-5.6406 2.2969-11.984 2.2969-12.5 0-19.141-7.6406t-6.6406-22.094q0-14.406 6.6406-22.047t19.141-7.6406q6.3438 0 11.984 2.2969t10.625 6.9375v-10.312q-5.1719-3.5156-10.969-5.2812-5.7812-1.75-12.219-1.75-16.562 0-26.094 10.125-9.5156 10.141-9.5156 27.672 0 17.578 9.5156 27.703 9.5312 10.141 26.094 10.141 6.5312 0 12.312-1.7344 5.7969-1.7344 10.875-5.2031z"/>
</defs>
<g transform="translate(125.89 547.6) rotate(-84.524) scale(.08 -.08)">
<use xlink:href="#p"/>
</g>
</g>
<path d="m105.3 548.81 1.4904-4.3532q0.77738-2.2706-1.4932-3.048l-7.3251-2.5079q-2.2706-0.77738-3.048 1.4932l-1.4904 4.3532q-0.77738 2.2706 1.4932 3.048l7.3251 2.5079q2.2706 0.77738 3.048-1.4932z" clip-path="url(#a)" fill="#fff" stroke="#fff"/>
<g clip-path="url(#a)">
<defs>
<path id="t" d="m9.8125 72.906h41.891v-8.3125h-32.031v-21.484h28.906v-8.2969h-28.906v-34.812h-9.8594z"/>
</defs>
<g transform="translate(101.45 547.5) rotate(-71.1) scale(.08 -.08)">
<use xlink:href="#t"/>
</g>
</g>
<path d="m169.23 498.78 3.3189 3.8129q1.5757 1.8103 3.386 0.23452l5.84-5.0834q1.8103-1.5757 0.23452-3.386l-3.3189-3.8129q-1.5757-1.8103-3.386-0.23452l-5.84 5.0834q-1.8103 1.5757-0.23452 3.386z" clip-path="url(#a)" fill="#fff" stroke="#fff"/>
<g clip-path="url(#a)">
<defs>
<path id="ai" d="m9.8125 72.906h46.094v-8.3125h-36.234v-21.578h34.719v-8.2969h-34.719v-26.422h37.109v-8.2969h-46.969z"/>
</defs>
<g transform="translate(172.3 496.12) rotate(48.962) scale(.08 -.08)">
<use xlink:href="#ai"/>
</g>
</g>
<path d="m108.41 671.73v35.285q0 2.4 2.4 2.4h7.7425q2.4 0 2.4-2.4v-35.285q0-2.4-2.4-2.4h-7.7425q-2.4 0-2.4 2.4z" clip-path="url(#a)" fill="#fff" stroke="#fff"/>
<g clip-path="url(#a)">
<g transform="translate(112.47 671.73) rotate(90) scale(.08 -.08)">
<use xlink:href="#k"/>
<use x="60.818359" xlink:href="#d"/>
<use x="122.341797" xlink:href="#h"/>
<use x="163.439453" xlink:href="#l"/>
<use x="260.851562" xlink:href="#j"/>
<use x="288.634766" xlink:href="#g"/>
<use x="352.013672" xlink:href="#e"/>
<use x="413.292969" xlink:href="#i"/>
</g>
</g>
<path d="m570.07 542.8 0.85061 5.5211q0.36545 2.372 2.7375 2.0066l7.6522-1.1789q2.372-0.36544 2.0066-2.7375l-0.85061-5.5211q-0.36545-2.372-2.7375-2.0066l-7.6522 1.1789q-2.372 0.36545-2.0066 2.7375z" clip-path="url(#a)" fill="#fff" stroke="#fff"/>
<g clip-path="url(#a)">
<g transform="translate(574.08 542.18) rotate(81.242) scale(.08 -.08)">
<use xlink:href="#p"/>
</g>
</g>
<path d="m507.13 503.14 4.2147-3.6244q1.8197-1.5648 0.25486-3.3845l-5.0482-5.8704q-1.5648-1.8197-3.3845-0.25486l-4.2147 3.6244q-1.8197 1.5648-0.25486 3.3845l5.0482 5.8704q1.5648 1.8197 3.3845 0.25486z" clip-path="url(#a)" fill="#fff" stroke="#fff"/>
<g clip-path="url(#a)">
<defs>
<path id="ah" d="m44.391 34.188q3.1719-1.0781 6.1719-4.5938t6.0312-9.6719l10.016-19.922h-10.609l-9.3125 18.703q-3.625 7.3281-7.0156 9.7188t-9.25 2.3906h-10.75v-30.812h-9.8594v72.906h22.266q12.5 0 18.656-5.2344 6.1562-5.2188 6.1562-15.766 0-6.8906-3.2031-11.438-3.2031-4.5312-9.2969-6.2812zm-24.719 30.609v-25.875h12.406q7.125 0 10.766 3.2969t3.6406 9.6875-3.6406 9.6406-10.766 3.25z"/>
</defs>
<g transform="translate(504.48 500.06) rotate(-40.694) scale(.08 -.08)">
<use xlink:href="#ah"/>
</g>
</g>
<path d="m558.88 547.47 0.42353-4.5817q0.22091-2.3898-2.1689-2.6107l-7.7096-0.71267q-2.3898-0.22091-2.6107 2.1689l-0.42353 4.5817q-0.22091 2.3898 2.1689 2.6107l7.7096 0.71267q2.3898 0.22091 2.6107-2.1689z" clip-path="url(#a)" fill="#fff" stroke="#fff"/>
<g clip-path="url(#a)">
<g transform="translate(554.83 547.1) rotate(-84.719) scale(.08 -.08)">
<use xlink:href="#t"/>
</g>
</g>
<path d="m606.29 499.34 3.6446 3.5029q1.7304 1.6631 3.3934-0.067288l5.3652-5.5822q1.6631-1.7304-0.067287-3.3934l-3.6446-3.5029q-1.7304-1.6631-3.3934 0.067287l-5.3652 5.5822q-1.6631 1.7304 0.067287 3.3934z" clip-path="url(#a)" fill="#fff" stroke="#fff"/>
<g clip-path="url(#a)">
<g transform="translate(609.11 496.41) rotate(43.864) scale(.08 -.08)">
<use xlink:href="#ai"/>
</g>
</g>
<path d="m585.32 671.73v35.285q0 2.4 2.4 2.4h7.7425q2.4 0 2.4-2.4v-35.285q0-2.4-2.4-2.4h-7.7425q-2.4 0-2.4 2.4z" clip-path="url(#a)" fill="#fff" stroke="#fff"/>
<g clip-path="url(#a)">
<g transform="translate(589.39 671.73) rotate(90) scale(.08 -.08)">
<use xlink:href="#k"/>
<use x="60.818359" xlink:href="#d"/>
<use x="122.341797" xlink:href="#h"/>
<use x="163.439453" xlink:href="#l"/>
<use x="260.851562" xlink:href="#j"/>
<use x="288.634766" xlink:href="#g"/>
<use x="352.013672" xlink:href="#e"/>
<use x="413.292969" xlink:href="#i"/>
</g>
</g>
<path d="m728.4 671.73v35.285q0 2.4 2.4 2.4h7.7425q2.4 0 2.4-2.4v-35.285q0-2.4-2.4-2.4h-7.7425q-2.4 0-2.4 2.4z" clip-path="url(#a)" fill="#fff" stroke="#fff"/>
<g clip-path="url(#a)">
<g transform="translate(732.46 671.73) rotate(90) scale(.08 -.08)">
<use xlink:href="#k"/>
<use x="60.818359" xlink:href="#d"/>
<use x="122.341797" xlink:href="#h"/>
<use x="163.439453" xlink:href="#l"/>
<use x="260.851562" xlink:href="#j"/>
<use x="288.634766" xlink:href="#g"/>
<use x="352.013672" xlink:href="#e"/>
<use x="413.292969" xlink:href="#i"/>
</g>
</g>
<path d="m420.6 398.72 4.2326-3.469q1.8562-1.5213 0.33489-3.3776l-4.9079-5.9882q-1.5213-1.8562-3.3776-0.33489l-4.2326 3.469q-1.8562 1.5213-0.33489 3.3776l4.9079 5.9882q1.5213 1.8562 3.3776 0.33489z" clip-path="url(#a)" fill="#fff" stroke="#fff"/>
<g clip-path="url(#a)">
<g transform="translate(418.03 395.58) rotate(-39.338) scale(.08 -.08)">
<use xlink:href="#o"/>
</g>
</g>
<path d="m746.07 390.48 0.57225 4.7897q0.28471 2.3831 2.6678 2.0983l7.6878-0.9185q2.3831-0.28471 2.0983-2.6678l-0.57225-4.7897q-0.28471-2.3831-2.6678-2.0983l-7.6878 0.9185q-2.3831 0.28471-2.0983 2.6678z" clip-path="url(#a)" fill="#fff" stroke="#fff"/>
<g clip-path="url(#a)">
<g transform="translate(750.11 390) rotate(83.187) scale(.08 -.08)">
<use xlink:href="#r"/>
</g>
</g>
<path d="m769.72 390.78 1.1511 5.3501q0.50483 2.3463 2.8511 1.8415l7.5693-1.6286q2.3463-0.50483 1.8415-2.8511l-1.1511-5.3501q-0.50483-2.3463-2.8511-1.8415l-7.5693 1.6286q-2.3463 0.50483-1.8415 2.8511z" clip-path="url(#a)" fill="#fff" stroke="#fff"/>
<g clip-path="url(#a)">
<g transform="translate(773.7 389.92) rotate(77.857) scale(.08 -.08)">
<use xlink:href="#o"/>
</g>
</g>
<path d="m793.37 391.05 1.8285 5.8824q0.71241 2.2918 3.0042 1.5794l7.3935-2.2983q2.2918-0.71241 1.5794-3.0042l-1.8285-5.8824q-0.71241-2.2918-3.0042-1.5794l-7.3935 2.2983q-2.2918 0.71241-1.5794 3.0042z" clip-path="url(#a)" fill="#fff" stroke="#fff"/>
<g clip-path="url(#a)">
<defs>
<path id="am" d="m19.672 64.797v-56.688h11.922q15.094 0 22.094 6.8281 7 6.8438 7 21.594 0 14.641-7 21.453t-22.094 6.8125zm-9.8594 8.1094h20.266q21.188 0 31.094-8.8125 9.9219-8.8125 9.9219-27.562 0-18.859-9.9688-27.703-9.9531-8.8281-31.047-8.8281h-20.266z"/>
</defs>
<g transform="translate(797.25 389.85) rotate(72.732) scale(.08 -.08)">
<use xlink:href="#am"/>
</g>
</g>
<path d="m861.3 199.95 5.1432 1.8698q2.2556 0.82001 3.0756-1.4356l2.6454-7.2766q0.82001-2.2556-1.4356-3.0756l-5.1432-1.8698q-2.2556-0.82001-3.0756 1.4356l-2.6454 7.2766q-0.82001 2.2556 1.4356 3.0756z" clip-path="url(#a)" fill="#fff" stroke="#fff"/>
<g clip-path="url(#a)">
<g transform="translate(862.69 196.13) rotate(19.979) scale(.08 -.08)">
<use xlink:href="#o"/>
</g>
</g>
<path d="m776.09 671.73v35.285q0 2.4 2.4 2.4h7.7425q2.4 0 2.4-2.4v-35.285q0-2.4-2.4-2.4h-7.7425q-2.4 0-2.4 2.4z" clip-path="url(#a)" fill="#fff" stroke="#fff"/>
<g clip-path="url(#a)">
<g transform="translate(780.15 671.73) rotate(90) scale(.08 -.08)">
<use xlink:href="#k"/>
<use x="60.818359" xlink:href="#d"/>
<use x="122.341797" xlink:href="#h"/>
<use x="163.439453" xlink:href="#l"/>
<use x="260.851562" xlink:href="#j"/>
<use x="288.634766" xlink:href="#g"/>
<use x="352.013672" xlink:href="#e"/>
<use x="413.292969" xlink:href="#i"/>
</g>
</g>
<path d="m1396.1 671.73v35.285q0 2.4 2.4 2.4h7.7425q2.4 0 2.4-2.4v-35.285q0-2.4-2.4-2.4h-7.7425q-2.4 0-2.4 2.4z" clip-path="url(#a)" fill="#fff" stroke="#fff"/>
<g clip-path="url(#a)">
<g transform="translate(1400.1 671.73) rotate(90) scale(.08 -.08)">
<use xlink:href="#k"/>
<use x="60.818359" xlink:href="#d"/>
<use x="122.341797" xlink:href="#h"/>
<use x="163.439453" xlink:href="#l"/>
<use x="260.851562" xlink:href="#j"/>
<use x="288.634766" xlink:href="#g"/>
<use x="352.013672" xlink:href="#e"/>
<use x="413.292969" xlink:href="#i"/>
</g>
</g>
<path d="m60.719 671.73v35.285q0 2.4 2.4 2.4h7.7425q2.4 0 2.4-2.4v-35.285q0-2.4-2.4-2.4h-7.7425q-2.4 0-2.4 2.4z" clip-path="url(#a)" fill="#fff" stroke="#fff"/>
<g clip-path="url(#a)">
<g transform="translate(64.783 671.73) rotate(90) scale(.08 -.08)">
<use xlink:href="#k"/>
<use x="60.818359" xlink:href="#d"/>
<use x="122.341797" xlink:href="#h"/>
<use x="163.439453" xlink:href="#l"/>
<use x="260.851562" xlink:href="#j"/>
<use x="288.634766" xlink:href="#g"/>
<use x="352.013672" xlink:href="#e"/>
<use x="413.292969" xlink:href="#i"/>
</g>
</g>
<path d="m243.04 594.44 3.0834 4.6582q1.3247 2.0013 3.326 0.6766l6.4563-4.2735q2.0013-1.3247 0.6766-3.326l-3.0834-4.6582q-1.3247-2.0013-3.326-0.6766l-6.4563 4.2735q-2.0013 1.3247-0.6766 3.326z" clip-path="url(#a)" fill="#fff" stroke="#fff"/>
<g clip-path="url(#a)">
<g transform="translate(246.42 592.2) rotate(56.499) scale(.08 -.08)">
<use xlink:href="#p"/>
</g>
</g>
<path d="m194.23 598.86 2.786-4.8102q1.2028-2.0768-0.87397-3.2797l-6.6999-3.8804q-2.0768-1.2028-3.2797 0.87397l-2.786 4.8102q-1.2028 2.0768 0.87397 3.2797l6.6999 3.8804q2.0768 1.2028 3.2797-0.87397z" clip-path="url(#a)" fill="#fff" stroke="#fff"/>
<g clip-path="url(#a)">
<g transform="translate(190.71 596.82) rotate(-59.921) scale(.08 -.08)">
<use xlink:href="#ah"/>
</g>
</g>
<path d="m220.1 596.12 0.37941-4.5856q0.1979-2.3918-2.1939-2.5897l-7.7161-0.63843q-2.3918-0.1979-2.5897 2.1939l-0.37941 4.5856q-0.1979 2.3918 2.1939 2.5897l7.7161 0.63843q2.3918 0.1979 2.5897-2.1939z" clip-path="url(#a)" fill="#fff" stroke="#fff"/>
<g clip-path="url(#a)">
<g transform="translate(216.05 595.78) rotate(-85.27) scale(.08 -.08)">
<use xlink:href="#t"/>
</g>
</g>
<path d="m271.51 708.01 8.5005-34.246q0.57818-2.3293-1.7511-2.9075l-7.5145-1.8652q-2.3293-0.57818-2.9075 1.7511l-8.5005 34.246q-0.57818 2.3293 1.7511 2.9075l7.5145 1.8652q2.3293 0.57818 2.9075-1.7511z" clip-path="url(#a)" fill="#fff" stroke="#fff"/>
<g clip-path="url(#a)">
<g transform="translate(267.57 707.03) rotate(-76.06) scale(.08 -.08)">
<use xlink:href="#k"/>
<use x="60.818359" xlink:href="#d"/>
<use x="122.341797" xlink:href="#h"/>
<use x="163.439453" xlink:href="#l"/>
<use x="260.851562" xlink:href="#j"/>
<use x="288.634766" xlink:href="#g"/>
<use x="352.013672" xlink:href="#e"/>
<use x="413.292969" xlink:href="#i"/>
</g>
</g>
<path d="m283.19 673.76 8.5005 34.246q0.57818 2.3293 2.9075 1.7511l7.5145-1.8652q2.3293-0.57818 1.7511-2.9075l-8.5005-34.246q-0.57818-2.3293-2.9075-1.7511l-7.5145 1.8652q-2.3293 0.57818-1.7511 2.9075z" clip-path="url(#a)" fill="#fff" stroke="#fff"/>
<g clip-path="url(#a)">
<g transform="translate(287.13 672.78) rotate(76.06) scale(.08 -.08)">
<use xlink:href="#k"/>
<use x="60.818359" xlink:href="#d"/>
<use x="122.341797" xlink:href="#h"/>
<use x="163.439453" xlink:href="#l"/>
<use x="260.851562" xlink:href="#j"/>
<use x="288.634766" xlink:href="#g"/>
<use x="352.013672" xlink:href="#e"/>
<use x="413.292969" xlink:href="#i"/>
</g>
</g>
<path d="m429.05 598.6 2.484-5.0036q1.0672-2.1497-1.0825-3.2169l-6.935-3.4428q-2.1497-1.0672-3.2169 1.0825l-2.484 5.0036q-1.0672 2.1497 1.0825 3.2169l6.935 3.4428q2.1497 1.0672 3.2169-1.0825z" clip-path="url(#a)" fill="#fff" stroke="#fff"/>
<g clip-path="url(#a)">
<g transform="translate(425.41 596.79) rotate(-63.598) scale(.08 -.08)">
<use xlink:href="#p"/>
</g>
</g>
<path d="m442.25 590.32v5.985q0 2.4 2.4 2.4h7.7425q2.4 0 2.4-2.4v-5.985q0-2.4-2.4-2.4h-7.7425q-2.4 0-2.4 2.4z" clip-path="url(#a)" fill="#fff" stroke="#fff"/>
<g clip-path="url(#a)">
<defs>
<path id="ak" d="m9.8125 72.906h13.281l32.328-60.984v60.984h9.5625v-72.906h-13.281l-32.312 60.984v-60.984h-9.5781z"/>
</defs>
<g transform="translate(446.31 590.32) rotate(90) scale(.08 -.08)">
<use xlink:href="#ak"/>
</g>
</g>
<path d="m465.51 593.59 2.484 5.0036q1.0672 2.1497 3.2169 1.0825l6.935-3.4428q2.1497-1.0672 1.0825-3.2169l-2.484-5.0036q-1.0672-2.1497-3.2169-1.0825l-6.935 3.4428q-2.1497 1.0672-1.0825 3.2169z" clip-path="url(#a)" fill="#fff" stroke="#fff"/>
<g clip-path="url(#a)">
<g transform="translate(469.15 591.79) rotate(63.598) scale(.08 -.08)">
<use xlink:href="#p"/>
</g>
</g>
<path d="m394.56 671.73v35.285q0 2.4 2.4 2.4h7.7425q2.4 0 2.4-2.4v-35.285q0-2.4-2.4-2.4h-7.7425q-2.4 0-2.4 2.4z" clip-path="url(#a)" fill="#fff" stroke="#fff"/>
<g clip-path="url(#a)">
<g transform="translate(398.62 671.73) rotate(90) scale(.08 -.08)">
<use xlink:href="#k"/>
<use x="60.818359" xlink:href="#d"/>
<use x="122.341797" xlink:href="#h"/>
<use x="163.439453" xlink:href="#l"/>
<use x="260.851562" xlink:href="#j"/>
<use x="288.634766" xlink:href="#g"/>
<use x="352.013672" xlink:href="#e"/>
<use x="413.292969" xlink:href="#i"/>
</g>
</g>
<path d="m537.63 671.73v35.285q0 2.4 2.4 2.4h7.7425q2.4 0 2.4-2.4v-35.285q0-2.4-2.4-2.4h-7.7425q-2.4 0-2.4 2.4z" clip-path="url(#a)" fill="#fff" stroke="#fff"/>
<g clip-path="url(#a)">
<g transform="translate(541.69 671.73) rotate(90) scale(.08 -.08)">
<use xlink:href="#k"/>
<use x="60.818359" xlink:href="#d"/>
<use x="122.341797" xlink:href="#h"/>
<use x="163.439453" xlink:href="#l"/>
<use x="260.851562" xlink:href="#j"/>
<use x="288.634766" xlink:href="#g"/>
<use x="352.013672" xlink:href="#e"/>
<use x="413.292969" xlink:href="#i"/>
</g>
</g>
<path d="m668.29 592.11 1.3458 5.4217q0.57818 2.3293 2.9075 1.7511l7.5145-1.8652q2.3293-0.57818 1.7511-2.9075l-1.3458-5.4217q-0.57818-2.3293-2.9075-1.7511l-7.5145 1.8652q-2.3293 0.57818-1.7511 2.9075z" clip-path="url(#a)" fill="#fff" stroke="#fff"/>
<g clip-path="url(#a)">
<g transform="translate(672.24 591.13) rotate(76.06) scale(.08 -.08)">
<use xlink:href="#p"/>
</g>
</g>
<path d="m656.62 597.52 1.3392-5.395q0.57818-2.3293-1.7511-2.9075l-7.5145-1.8652q-2.3293-0.57818-2.9075 1.7511l-1.3392 5.395q-0.57818 2.3293 1.7511 2.9075l7.5145 1.8652q2.3293 0.57818 2.9075-1.7511z" clip-path="url(#a)" fill="#fff" stroke="#fff"/>
<g clip-path="url(#a)">
<g transform="translate(652.68 596.54) rotate(-76.06) scale(.08 -.08)">
<use xlink:href="#ah"/>
</g>
</g>
<path d="m680.7 671.73v35.285q0 2.4 2.4 2.4h7.7425q2.4 0 2.4-2.4v-35.285q0-2.4-2.4-2.4h-7.7425q-2.4 0-2.4 2.4z" clip-path="url(#a)" fill="#fff" stroke="#fff"/>
<g clip-path="url(#a)">
<g transform="translate(684.77 671.73) rotate(90) scale(.08 -.08)">
<use xlink:href="#k"/>
<use x="60.818359" xlink:href="#d"/>
<use x="122.341797" xlink:href="#h"/>
<use x="163.439453" xlink:href="#l"/>
<use x="260.851562" xlink:href="#j"/>
<use x="288.634766" xlink:href="#g"/>
<use x="352.013672" xlink:href="#e"/>
<use x="413.292969" xlink:href="#i"/>
</g>
</g>
<path d="m823.78 671.73v35.285q0 2.4 2.4 2.4h7.7425q2.4 0 2.4-2.4v-35.285q0-2.4-2.4-2.4h-7.7425q-2.4 0-2.4 2.4z" clip-path="url(#a)" fill="#fff" stroke="#fff"/>
<g clip-path="url(#a)">
<g transform="translate(827.84 671.73) rotate(90) scale(.08 -.08)">
<use xlink:href="#k"/>
<use x="60.818359" xlink:href="#d"/>
<use x="122.341797" xlink:href="#h"/>
<use x="163.439453" xlink:href="#l"/>
<use x="260.851562" xlink:href="#j"/>
<use x="288.634766" xlink:href="#g"/>
<use x="352.013672" xlink:href="#e"/>
<use x="413.292969" xlink:href="#i"/>
</g>
</g>
<path d="m871.47 671.73v35.285q0 2.4 2.4 2.4h7.7425q2.4 0 2.4-2.4v-35.285q0-2.4-2.4-2.4h-7.7425q-2.4 0-2.4 2.4z" clip-path="url(#a)" fill="#fff" stroke="#fff"/>
<g clip-path="url(#a)">
<g transform="translate(875.53 671.73) rotate(90) scale(.08 -.08)">
<use xlink:href="#k"/>
<use x="60.818359" xlink:href="#d"/>
<use x="122.341797" xlink:href="#h"/>
<use x="163.439453" xlink:href="#l"/>
<use x="260.851562" xlink:href="#j"/>
<use x="288.634766" xlink:href="#g"/>
<use x="352.013672" xlink:href="#e"/>
<use x="413.292969" xlink:href="#i"/>
</g>
</g>
<path d="m997.16 447.55 0.50933-5.563q0.21882-2.39-2.1712-2.6088l-7.7103-0.70592q-2.39-0.21882-2.6088 2.1712l-0.50932 5.563q-0.21882 2.39 2.1712 2.6088l7.7103 0.70592q2.39 0.21882 2.6088-2.1712z" clip-path="url(#a)" fill="#fff" stroke="#fff"/>
<g clip-path="url(#a)">
<g transform="translate(993.12 447.18) rotate(-84.769) scale(.08 -.08)">
<use xlink:href="#p"/>
</g>
</g>
<path d="m972.98 447.75 0.95646-4.5007q0.49889-2.3476-1.8487-2.8465l-7.5734-1.6094q-2.3476-0.49889-2.8465 1.8487l-0.95646 4.5007q-0.49889 2.3476 1.8487 2.8465l7.5734 1.6094q2.3476 0.49889 2.8465-1.8487z" clip-path="url(#a)" fill="#fff" stroke="#fff"/>
<g clip-path="url(#a)">
<g transform="translate(969.01 446.91) rotate(-78.002) scale(.08 -.08)">
<use xlink:href="#t"/>
</g>
</g>
<path d="m1063.2 300.97 3.8574 3.267q1.8314 1.5511 3.3825-0.28031l5.0039-5.9082q1.5511-1.8314-0.28031-3.3825l-3.8574-3.267q-1.8314-1.5511-3.3825 0.28031l-5.0039 5.9082q-1.5511 1.8314 0.28031 3.3825z" clip-path="url(#a)" fill="#fff" stroke="#fff"/>
<g clip-path="url(#a)">
<g transform="translate(1065.8 297.87) rotate(40.263) scale(.08 -.08)">
<use xlink:href="#ai"/>
</g>
</g>
<path d="m966.85 671.73v35.285q0 2.4 2.4 2.4h7.7425q2.4 0 2.4-2.4v-35.285q0-2.4-2.4-2.4h-7.7425q-2.4 0-2.4 2.4z" clip-path="url(#a)" fill="#fff" stroke="#fff"/>
<g clip-path="url(#a)">
<g transform="translate(970.92 671.73) rotate(90) scale(.08 -.08)">
<use xlink:href="#k"/>
<use x="60.818359" xlink:href="#d"/>
<use x="122.341797" xlink:href="#h"/>
<use x="163.439453" xlink:href="#l"/>
<use x="260.851562" xlink:href="#j"/>
<use x="288.634766" xlink:href="#g"/>
<use x="352.013672" xlink:href="#e"/>
<use x="413.292969" xlink:href="#i"/>
</g>
</g>
<path d="m156.1 671.73v35.285q0 2.4 2.4 2.4h7.7425q2.4 0 2.4-2.4v-35.285q0-2.4-2.4-2.4h-7.7425q-2.4 0-2.4 2.4z" clip-path="url(#a)" fill="#fff" stroke="#fff"/>
<g clip-path="url(#a)">
<g transform="translate(160.17 671.73) rotate(90) scale(.08 -.08)">
<use xlink:href="#k"/>
<use x="60.818359" xlink:href="#d"/>
<use x="122.341797" xlink:href="#h"/>
<use x="163.439453" xlink:href="#l"/>
<use x="260.851562" xlink:href="#j"/>
<use x="288.634766" xlink:href="#g"/>
<use x="352.013672" xlink:href="#e"/>
<use x="413.292969" xlink:href="#i"/>
</g>
</g>
<path d="m203.79 671.73v35.285q0 2.4 2.4 2.4h7.7425q2.4 0 2.4-2.4v-35.285q0-2.4-2.4-2.4h-7.7425q-2.4 0-2.4 2.4z" clip-path="url(#a)" fill="#fff" stroke="#fff"/>
<g clip-path="url(#a)">
<g transform="translate(207.86 671.73) rotate(90) scale(.08 -.08)">
<use xlink:href="#k"/>
<use x="60.818359" xlink:href="#d"/>
<use x="122.341797" xlink:href="#h"/>
<use x="163.439453" xlink:href="#l"/>
<use x="260.851562" xlink:href="#j"/>
<use x="288.634766" xlink:href="#g"/>
<use x="352.013672" xlink:href="#e"/>
<use x="413.292969" xlink:href="#i"/>
</g>
</g>
<path d="m442.25 671.73v35.285q0 2.4 2.4 2.4h7.7425q2.4 0 2.4-2.4v-35.285q0-2.4-2.4-2.4h-7.7425q-2.4 0-2.4 2.4z" clip-path="url(#a)" fill="#fff" stroke="#fff"/>
<g clip-path="url(#a)">
<g transform="translate(446.31 671.73) rotate(90) scale(.08 -.08)">
<use xlink:href="#k"/>
<use x="60.818359" xlink:href="#d"/>
<use x="122.341797" xlink:href="#h"/>
<use x="163.439453" xlink:href="#l"/>
<use x="260.851562" xlink:href="#j"/>
<use x="288.634766" xlink:href="#g"/>
<use x="352.013672" xlink:href="#e"/>
<use x="413.292969" xlink:href="#i"/>
</g>
</g>
<path d="m489.94 671.73v35.285q0 2.4 2.4 2.4h7.7425q2.4 0 2.4-2.4v-35.285q0-2.4-2.4-2.4h-7.7425q-2.4 0-2.4 2.4z" clip-path="url(#a)" fill="#fff" stroke="#fff"/>
<g clip-path="url(#a)">
<g transform="translate(494 671.73) rotate(90) scale(.08 -.08)">
<use xlink:href="#k"/>
<use x="60.818359" xlink:href="#d"/>
<use x="122.341797" xlink:href="#h"/>
<use x="163.439453" xlink:href="#l"/>
<use x="260.851562" xlink:href="#j"/>
<use x="288.634766" xlink:href="#g"/>
<use x="352.013672" xlink:href="#e"/>
<use x="413.292969" xlink:href="#i"/>
</g>
</g>
<path d="m633.01 671.73v35.285q0 2.4 2.4 2.4h7.7425q2.4 0 2.4-2.4v-35.285q0-2.4-2.4-2.4h-7.7425q-2.4 0-2.4 2.4z" clip-path="url(#a)" fill="#fff" stroke="#fff"/>
<g clip-path="url(#a)">
<g transform="translate(637.08 671.73) rotate(90) scale(.08 -.08)">
<use xlink:href="#k"/>
<use x="60.818359" xlink:href="#d"/>
<use x="122.341797" xlink:href="#h"/>
<use x="163.439453" xlink:href="#l"/>
<use x="260.851562" xlink:href="#j"/>
<use x="288.634766" xlink:href="#g"/>
<use x="352.013672" xlink:href="#e"/>
<use x="413.292969" xlink:href="#i"/>
</g>
</g>
<path d="m919.16 671.73v35.285q0 2.4 2.4 2.4h7.7425q2.4 0 2.4-2.4v-35.285q0-2.4-2.4-2.4h-7.7425q-2.4 0-2.4 2.4z" clip-path="url(#a)" fill="#fff" stroke="#fff"/>
<g clip-path="url(#a)">
<g transform="translate(923.22 671.73) rotate(90) scale(.08 -.08)">
<use xlink:href="#k"/>
<use x="60.818359" xlink:href="#d"/>
<use x="122.341797" xlink:href="#h"/>
<use x="163.439453" xlink:href="#l"/>
<use x="260.851562" xlink:href="#j"/>
<use x="288.634766" xlink:href="#g"/>
<use x="352.013672" xlink:href="#e"/>
<use x="413.292969" xlink:href="#i"/>
</g>
</g>
<path d="m1128.8 497.65 0.21262-4.8191q0.10579-2.3977-2.2919-2.5035l-7.735-0.34128q-2.3977-0.10579-2.5035 2.2919l-0.21262 4.8191q-0.10579 2.3977 2.2919 2.5035l7.735 0.34128q2.3977 0.10579 2.5035-2.2919z" clip-path="url(#a)" fill="#fff" stroke="#fff"/>
<g clip-path="url(#a)">
<g transform="translate(1124.8 497.47) rotate(-87.474) scale(.08 -.08)">
<use xlink:href="#r"/>
</g>
</g>
<path d="m1079.9 499.71 1.8987-5.1326q0.8327-2.2509-1.4182-3.0836l-7.2615-2.6863q-2.2509-0.8327-3.0836 1.4182l-1.8987 5.1326q-0.8327 2.2509 1.4182 3.0836l7.2615 2.6863q2.2509 0.8327 3.0836-1.4182z" clip-path="url(#a)" fill="#fff" stroke="#fff"/>
<g clip-path="url(#a)">
<g transform="translate(1076.1 498.3) rotate(-69.699) scale(.08 -.08)">
<use xlink:href="#o"/>
</g>
</g>
<path d="m1104.5 498.49 0.93282-4.5057q0.48655-2.3502-1.8636-2.8367l-7.5817-1.5696q-2.3502-0.48655-2.8367 1.8636l-0.93282 4.5057q-0.48655 2.3502 1.8636 2.8367l7.5817 1.5696q2.3502 0.48655 2.8367-1.8636z" clip-path="url(#a)" fill="#fff" stroke="#fff"/>
<g clip-path="url(#a)">
<g transform="translate(1100.5 497.67) rotate(-78.303) scale(.08 -.08)">
<use xlink:href="#t"/>
</g>
</g>
<path d="m1139.9 492.99 0.64553 5.4343q0.2831 2.3832 2.6663 2.1001l7.6884-0.91329q2.3832-0.2831 2.1001-2.6663l-0.64553-5.4343q-0.2831-2.3832-2.6663-2.1001l-7.6884 0.91329q-2.3832 0.2831-2.1001 2.6663z" clip-path="url(#a)" fill="#fff" stroke="#fff"/>
<g clip-path="url(#a)">
<g transform="translate(1144 492.51) rotate(83.226) scale(.08 -.08)">
<use xlink:href="#o"/>
</g>
</g>
<path d="m1163.5 493.79 1.6228 5.7608q0.65074 2.3101 2.9608 1.6593l7.4525-2.0993q2.3101-0.65074 1.6593-2.9608l-1.6228-5.7608q-0.65074-2.3101-2.9608-1.6593l-7.4525 2.0993q-2.3101 0.65074-1.6593 2.9608z" clip-path="url(#a)" fill="#fff" stroke="#fff"/>
<g clip-path="url(#a)">
<g transform="translate(1167.4 492.68) rotate(74.268) scale(.08 -.08)">
<use xlink:href="#ak"/>
</g>
</g>
<path d="m1154.8 399.63 2.6303 4.0435q1.3087 2.0118 3.3205 0.7031l6.4901-4.2219q2.0118-1.3087 0.7031-3.3205l-2.6303-4.0435q-1.3087-2.0118-3.3205-0.7031l-6.4901 4.2219q-2.0118 1.3087-0.7031 3.3205z" clip-path="url(#a)" fill="#fff" stroke="#fff"/>
<g clip-path="url(#a)">
<g transform="translate(1158.2 397.41) rotate(56.956) scale(.08 -.08)">
<use xlink:href="#r"/>
</g>
</g>
<path d="m1109.9 671.73v35.285q0 2.4 2.4 2.4h7.7425q2.4 0 2.4-2.4v-35.285q0-2.4-2.4-2.4h-7.7425q-2.4 0-2.4 2.4z" clip-path="url(#a)" fill="#fff" stroke="#fff"/>
<g clip-path="url(#a)">
<g transform="translate(1114 671.73) rotate(90) scale(.08 -.08)">
<use xlink:href="#k"/>
<use x="60.818359" xlink:href="#d"/>
<use x="122.341797" xlink:href="#h"/>
<use x="163.439453" xlink:href="#l"/>
<use x="260.851562" xlink:href="#j"/>
<use x="288.634766" xlink:href="#g"/>
<use x="352.013672" xlink:href="#e"/>
<use x="413.292969" xlink:href="#i"/>
</g>
</g>
<path d="m1014.5 671.73v35.285q0 2.4 2.4 2.4h7.7425q2.4 0 2.4-2.4v-35.285q0-2.4-2.4-2.4h-7.7425q-2.4 0-2.4 2.4z" clip-path="url(#a)" fill="#fff" stroke="#fff"/>
<g clip-path="url(#a)">
<g transform="translate(1018.6 671.73) rotate(90) scale(.08 -.08)">
<use xlink:href="#k"/>
<use x="60.818359" xlink:href="#d"/>
<use x="122.341797" xlink:href="#h"/>
<use x="163.439453" xlink:href="#l"/>
<use x="260.851562" xlink:href="#j"/>
<use x="288.634766" xlink:href="#g"/>
<use x="352.013672" xlink:href="#e"/>
<use x="413.292969" xlink:href="#i"/>
</g>
</g>
<path d="m1062.2 671.73v35.285q0 2.4 2.4 2.4h7.7425q2.4 0 2.4-2.4v-35.285q0-2.4-2.4-2.4h-7.7425q-2.4 0-2.4 2.4z" clip-path="url(#a)" fill="#fff" stroke="#fff"/>
<g clip-path="url(#a)">
<g transform="translate(1066.3 671.73) rotate(90) scale(.08 -.08)">
<use xlink:href="#k"/>
<use x="60.818359" xlink:href="#d"/>
<use x="122.341797" xlink:href="#h"/>
<use x="163.439453" xlink:href="#l"/>
<use x="260.851562" xlink:href="#j"/>
<use x="288.634766" xlink:href="#g"/>
<use x="352.013672" xlink:href="#e"/>
<use x="413.292969" xlink:href="#i"/>
</g>
</g>
<path d="m1157.6 671.73v35.285q0 2.4 2.4 2.4h7.7425q2.4 0 2.4-2.4v-35.285q0-2.4-2.4-2.4h-7.7425q-2.4 0-2.4 2.4z" clip-path="url(#a)" fill="#fff" stroke="#fff"/>
<g clip-path="url(#a)">
<g transform="translate(1161.7 671.73) rotate(90) scale(.08 -.08)">
<use xlink:href="#k"/>
<use x="60.818359" xlink:href="#d"/>
<use x="122.341797" xlink:href="#h"/>
<use x="163.439453" xlink:href="#l"/>
<use x="260.851562" xlink:href="#j"/>
<use x="288.634766" xlink:href="#g"/>
<use x="352.013672" xlink:href="#e"/>
<use x="413.292969" xlink:href="#i"/>
</g>
</g>
<path d="m1205.3 671.73v35.285q0 2.4 2.4 2.4h7.7425q2.4 0 2.4-2.4v-35.285q0-2.4-2.4-2.4h-7.7425q-2.4 0-2.4 2.4z" clip-path="url(#a)" fill="#fff" stroke="#fff"/>
<g clip-path="url(#a)">
<g transform="translate(1209.4 671.73) rotate(90) scale(.08 -.08)">
<use xlink:href="#k"/>
<use x="60.818359" xlink:href="#d"/>
<use x="122.341797" xlink:href="#h"/>
<use x="163.439453" xlink:href="#l"/>
<use x="260.851562" xlink:href="#j"/>
<use x="288.634766" xlink:href="#g"/>
<use x="352.013672" xlink:href="#e"/>
<use x="413.292969" xlink:href="#i"/>
</g>
</g>
<path d="m1110.1 550.83 3.6464-4.0807q1.5992-1.7896-0.19045-3.3888l-5.7733-5.159q-1.7896-1.5992-3.3888 0.19045l-3.6464 4.0807q-1.5992 1.7896 0.19045 3.3888l5.7733 5.159q1.7896 1.5992 3.3888-0.19045z" clip-path="url(#a)" fill="#fff" stroke="#fff"/>
<g clip-path="url(#a)">
<g transform="translate(1107.1 548.12) rotate(-48.217) scale(.08 -.08)">
<use xlink:href="#o"/>
</g>
</g>
<path d="m1243.7 545.69 2.4371 4.1628q1.2126 2.0712 3.2837 0.8586l6.6816-3.9118q2.0712-1.2126 0.8586-3.2837l-2.4371-4.1628q-1.2126-2.0712-3.2837-0.8586l-6.6816 3.9118q-2.0712 1.2126-0.8586 3.2837z" clip-path="url(#a)" fill="#fff" stroke="#fff"/>
<g clip-path="url(#a)">
<g transform="translate(1247.2 543.64) rotate(59.653) scale(.08 -.08)">
<use xlink:href="#r"/>
</g>
</g>
<path d="m1219.6 543.7 1.9774 5.834q0.77042 2.273 3.0434 1.5026l7.3327-2.4854q2.273-0.77042 1.5026-3.0434l-1.9774-5.834q-0.77042-2.273-3.0434-1.5026l-7.3327 2.4854q-2.273 0.77042-1.5026 3.0434z" clip-path="url(#a)" fill="#fff" stroke="#fff"/>
<g clip-path="url(#a)">
<g transform="translate(1223.4 542.4) rotate(71.276) scale(.08 -.08)">
<use xlink:href="#am"/>
</g>
</g>
<path d="m1196.8 499.69 0.33431-5.4623q0.14661-2.3955-2.2489-2.5421l-7.728-0.47298q-2.3955-0.14661-2.5421 2.2489l-0.33431 5.4623q-0.14661 2.3955 2.2489 2.5421l7.728 0.47298q2.3955 0.14661 2.5421-2.2489z" clip-path="url(#a)" fill="#fff" stroke="#fff"/>
<g clip-path="url(#a)">
<g transform="translate(1192.7 499.44) rotate(-86.498) scale(.08 -.08)">
<use xlink:href="#o"/>
</g>
</g>
<path d="m1300.7 671.73v35.285q0 2.4 2.4 2.4h7.7425q2.4 0 2.4-2.4v-35.285q0-2.4-2.4-2.4h-7.7425q-2.4 0-2.4 2.4z" clip-path="url(#a)" fill="#fff" stroke="#fff"/>
<g clip-path="url(#a)">
<g transform="translate(1304.8 671.73) rotate(90) scale(.08 -.08)">
<use xlink:href="#k"/>
<use x="60.818359" xlink:href="#d"/>
<use x="122.341797" xlink:href="#h"/>
<use x="163.439453" xlink:href="#l"/>
<use x="260.851562" xlink:href="#j"/>
<use x="288.634766" xlink:href="#g"/>
<use x="352.013672" xlink:href="#e"/>
<use x="413.292969" xlink:href="#i"/>
</g>
</g>
<path d="m1253 671.73v35.285q0 2.4 2.4 2.4h7.7425q2.4 0 2.4-2.4v-35.285q0-2.4-2.4-2.4h-7.7425q-2.4 0-2.4 2.4z" clip-path="url(#a)" fill="#fff" stroke="#fff"/>
<g clip-path="url(#a)">
<g transform="translate(1257.1 671.73) rotate(90) scale(.08 -.08)">
<use xlink:href="#k"/>
<use x="60.818359" xlink:href="#d"/>
<use x="122.341797" xlink:href="#h"/>
<use x="163.439453" xlink:href="#l"/>
<use x="260.851562" xlink:href="#j"/>
<use x="288.634766" xlink:href="#g"/>
<use x="352.013672" xlink:href="#e"/>
<use x="413.292969" xlink:href="#i"/>
</g>
</g>
<path d="m1105 600.11 4.7431-2.7298q2.0801-1.1972 0.88295-3.2773l-3.8621-6.7105q-1.1972-2.0801-3.2773-0.88295l-4.7431 2.7298q-2.0801 1.1972-0.88295 3.2773l3.8621 6.7105q1.1972 2.0801 3.2773 0.88295z" clip-path="url(#a)" fill="#fff" stroke="#fff"/>
<g clip-path="url(#a)">
<g transform="translate(1103 596.59) rotate(-29.922) scale(.08 -.08)">
<use xlink:href="#o"/>
</g>
</g>
<path d="m1266 597.54 4.1808 2.4062q2.0801 1.1972 3.2773-0.88295l3.8621-6.7105q1.1972-2.0801-0.88295-3.2773l-4.1808-2.4062q-2.0801-1.1972-3.2773 0.88295l-3.8621 6.7105q-1.1972 2.0801 0.88295 3.2773z" clip-path="url(#a)" fill="#fff" stroke="#fff"/>
<g clip-path="url(#a)">
<g transform="translate(1268 594.02) rotate(29.922) scale(.08 -.08)">
<use xlink:href="#r"/>
</g>
</g>
<path d="m1348.4 671.73v35.285q0 2.4 2.4 2.4h7.7425q2.4 0 2.4-2.4v-35.285q0-2.4-2.4-2.4h-7.7425q-2.4 0-2.4 2.4z" clip-path="url(#a)" fill="#fff" stroke="#fff"/>
<g clip-path="url(#a)">
<g transform="translate(1352.4 671.73) rotate(90) scale(.08 -.08)">
<use xlink:href="#k"/>
<use x="60.818359" xlink:href="#d"/>
<use x="122.341797" xlink:href="#h"/>
<use x="163.439453" xlink:href="#l"/>
<use x="260.851562" xlink:href="#j"/>
<use x="288.634766" xlink:href="#g"/>
<use x="352.013672" xlink:href="#e"/>
<use x="413.292969" xlink:href="#i"/>
</g>
</g>
<defs>
<path id="b" d="m0 8.6603c2.2967 0 4.4997-0.9125 6.1237-2.5365 1.624-1.624 2.5365-3.827 2.5365-6.1237s-0.9125-4.4997-2.5365-6.1237c-1.624-1.624-3.827-2.5365-6.1237-2.5365s-4.4997 0.9125-6.1237 2.5365c-1.624 1.624-2.5365 3.827-2.5365 6.1237s0.9125 4.4997 2.5365 6.1237c1.624 1.624 3.827 2.5365 6.1237 2.5365z"/>
</defs>
<g clip-path="url(#a)">
<use x="66.990265" y="737.407235" fill="#ffffff" stroke="#ffffff" xlink:href="#b"/>
</g>
<g clip-path="url(#a)">
<use x="114.681436" y="737.407235" fill="#ffffff" stroke="#ffffff" xlink:href="#b"/>
</g>
<g clip-path="url(#a)">
<use x="162.372608" y="737.407235" fill="#ffffff" stroke="#ffffff" xlink:href="#b"/>
</g>
<g clip-path="url(#a)">
<use x="210.06378" y="737.407235" fill="#ffffff" stroke="#ffffff" xlink:href="#b"/>
</g>
<g clip-path="url(#a)">
<use x="257.754951" y="737.407235" fill="#ffffff" stroke="#ffffff" xlink:href="#b"/>
</g>
<g clip-path="url(#a)">
<use x="305.446123" y="737.407235" fill="#ffffff" stroke="#ffffff" xlink:href="#b"/>
</g>
<g clip-path="url(#a)">
<use x="353.137294" y="737.407235" fill="#ffffff" stroke="#ffffff" xlink:href="#b"/>
</g>
<g clip-path="url(#a)">
<use x="400.828466" y="737.407235" fill="#ffffff" stroke="#ffffff" xlink:href="#b"/>
</g>
<g clip-path="url(#a)">
<use x="448.519637" y="737.407235" fill="#ffffff" stroke="#ffffff" xlink:href="#b"/>
</g>
<g clip-path="url(#a)">
<use x="496.210809" y="737.407235" fill="#ffffff" stroke="#ffffff" xlink:href="#b"/>
</g>
<g clip-path="url(#a)">
<use x="543.90198" y="737.407235" fill="#ffffff" stroke="#ffffff" xlink:href="#b"/>
</g>
<g clip-path="url(#a)">
<use x="591.593152" y="737.407235" fill="#ffffff" stroke="#ffffff" xlink:href="#b"/>
</g>
<g clip-path="url(#a)">
<use x="639.284324" y="737.407235" fill="#ffffff" stroke="#ffffff" xlink:href="#b"/>
</g>
<g clip-path="url(#a)">
<use x="686.975495" y="737.407235" fill="#ffffff" stroke="#ffffff" xlink:href="#b"/>
</g>
<g clip-path="url(#a)">
<use x="734.666667" y="737.407235" fill="#ffffff" stroke="#ffffff" xlink:href="#b"/>
</g>
<g clip-path="url(#a)">
<use x="782.357838" y="737.407235" fill="#ffffff" stroke="#ffffff" xlink:href="#b"/>
</g>
<g clip-path="url(#a)">
<use x="830.04901" y="737.407235" fill="#ffffff" stroke="#ffffff" xlink:href="#b"/>
</g>
<g clip-path="url(#a)">
<use x="877.740181" y="737.407235" fill="#ffffff" stroke="#ffffff" xlink:href="#b"/>
</g>
<g clip-path="url(#a)">
<use x="925.431353" y="737.407235" fill="#ffffff" stroke="#ffffff" xlink:href="#b"/>
</g>
<g clip-path="url(#a)">
<use x="973.122524" y="737.407235" fill="#ffffff" stroke="#ffffff" xlink:href="#b"/>
</g>
<g clip-path="url(#a)">
<use x="1020.813696" y="737.407235" fill="#ffffff" stroke="#ffffff" xlink:href="#b"/>
</g>
<g clip-path="url(#a)">
<use x="1068.504868" y="737.407235" fill="#ffffff" stroke="#ffffff" xlink:href="#b"/>
</g>
<g clip-path="url(#a)">
<use x="1116.196039" y="737.407235" fill="#ffffff" stroke="#ffffff" xlink:href="#b"/>
</g>
<g clip-path="url(#a)">
<use x="1163.887211" y="737.407235" fill="#ffffff" stroke="#ffffff" xlink:href="#b"/>
</g>
<g clip-path="url(#a)">
<use x="1211.578382" y="737.407235" fill="#ffffff" stroke="#ffffff" xlink:href="#b"/>
</g>
<g clip-path="url(#a)">
<use x="1259.269554" y="737.407235" fill="#ffffff" stroke="#ffffff" xlink:href="#b"/>
</g>
<g clip-path="url(#a)">
<use x="1306.960725" y="737.407235" fill="#ffffff" stroke="#ffffff" xlink:href="#b"/>
</g>
<g clip-path="url(#a)">
<use x="1354.651897" y="737.407235" fill="#ffffff" stroke="#ffffff" xlink:href="#b"/>
</g>
<g clip-path="url(#a)">
<use x="1402.343068" y="737.407235" fill="#ffffff" stroke="#ffffff" xlink:href="#b"/>
</g>
<g clip-path="url(#a)">
<use x="690.033471" y="35.926099" fill="#ffffff" stroke="#ffffff" xlink:href="#b"/>
</g>
<g clip-path="url(#a)">
<use x="612.623634" y="348.592938" fill="#ffffff" stroke="#ffffff" xlink:href="#b"/>
</g>
<g clip-path="url(#a)">
<use x="353.137294" y="641.340747" fill="#ffffff" stroke="#ffffff" xlink:href="#b"/>
</g>
<g clip-path="url(#a)">
<use x="133.228003" y="447.871382" fill="#ffffff" stroke="#ffffff" xlink:href="#b"/>
</g>
<g clip-path="url(#a)">
<use x="114.681436" y="641.340747" fill="#ffffff" stroke="#ffffff" xlink:href="#b"/>
</g>
<g clip-path="url(#a)">
<use x="561.78617" y="447.871382" fill="#ffffff" stroke="#ffffff" xlink:href="#b"/>
</g>
<g clip-path="url(#a)">
<use x="591.593152" y="641.340747" fill="#ffffff" stroke="#ffffff" xlink:href="#b"/>
</g>
<g clip-path="url(#a)">
<use x="734.666667" y="641.340747" fill="#ffffff" stroke="#ffffff" xlink:href="#b"/>
</g>
<g clip-path="url(#a)">
<use x="722.810112" y="142.927203" fill="#ffffff" stroke="#ffffff" xlink:href="#b"/>
</g>
<g clip-path="url(#a)">
<use x="782.357838" y="641.340747" fill="#ffffff" stroke="#ffffff" xlink:href="#b"/>
</g>
<g clip-path="url(#a)">
<use x="1402.343068" y="641.340747" fill="#ffffff" stroke="#ffffff" xlink:href="#b"/>
</g>
<g clip-path="url(#a)">
<use x="66.990265" y="641.340747" fill="#ffffff" stroke="#ffffff" xlink:href="#b"/>
</g>
<g clip-path="url(#a)">
<use x="218.012308" y="545.27426" fill="#ffffff" stroke="#ffffff" xlink:href="#b"/>
</g>
<g clip-path="url(#a)">
<use x="281.600537" y="641.340747" fill="#ffffff" stroke="#ffffff" xlink:href="#b"/>
</g>
<g clip-path="url(#a)">
<use x="448.519637" y="545.27426" fill="#ffffff" stroke="#ffffff" xlink:href="#b"/>
</g>
<g clip-path="url(#a)">
<use x="400.828466" y="641.340747" fill="#ffffff" stroke="#ffffff" xlink:href="#b"/>
</g>
<g clip-path="url(#a)">
<use x="543.90198" y="641.340747" fill="#ffffff" stroke="#ffffff" xlink:href="#b"/>
</g>
<g clip-path="url(#a)">
<use x="663.129909" y="545.27426" fill="#ffffff" stroke="#ffffff" xlink:href="#b"/>
</g>
<g clip-path="url(#a)">
<use x="686.975495" y="641.340747" fill="#ffffff" stroke="#ffffff" xlink:href="#b"/>
</g>
<g clip-path="url(#a)">
<use x="830.04901" y="641.340747" fill="#ffffff" stroke="#ffffff" xlink:href="#b"/>
</g>
<g clip-path="url(#a)">
<use x="877.740181" y="641.340747" fill="#ffffff" stroke="#ffffff" xlink:href="#b"/>
</g>
<g clip-path="url(#a)">
<use x="1009.222092" y="247.052413" fill="#ffffff" stroke="#ffffff" xlink:href="#b"/>
</g>
<g clip-path="url(#a)">
<use x="973.122524" y="641.340747" fill="#ffffff" stroke="#ffffff" xlink:href="#b"/>
</g>
<g clip-path="url(#a)">
<use x="162.372608" y="641.340747" fill="#ffffff" stroke="#ffffff" xlink:href="#b"/>
</g>
<g clip-path="url(#a)">
<use x="210.06378" y="641.340747" fill="#ffffff" stroke="#ffffff" xlink:href="#b"/>
</g>
<g clip-path="url(#a)">
<use x="448.519637" y="641.340747" fill="#ffffff" stroke="#ffffff" xlink:href="#b"/>
</g>
<g clip-path="url(#a)">
<use x="496.210809" y="641.340747" fill="#ffffff" stroke="#ffffff" xlink:href="#b"/>
</g>
<g clip-path="url(#a)">
<use x="639.284324" y="641.340747" fill="#ffffff" stroke="#ffffff" xlink:href="#b"/>
</g>
<g clip-path="url(#a)">
<use x="925.431353" y="641.340747" fill="#ffffff" stroke="#ffffff" xlink:href="#b"/>
</g>
<g clip-path="url(#a)">
<use x="1129.112398" y="348.592938" fill="#ffffff" stroke="#ffffff" xlink:href="#b"/>
</g>
<g clip-path="url(#a)">
<use x="1116.196039" y="641.340747" fill="#ffffff" stroke="#ffffff" xlink:href="#b"/>
</g>
<g clip-path="url(#a)">
<use x="1020.813696" y="641.340747" fill="#ffffff" stroke="#ffffff" xlink:href="#b"/>
</g>
<g clip-path="url(#a)">
<use x="1068.504868" y="641.340747" fill="#ffffff" stroke="#ffffff" xlink:href="#b"/>
</g>
<g clip-path="url(#a)">
<use x="1163.887211" y="641.340747" fill="#ffffff" stroke="#ffffff" xlink:href="#b"/>
</g>
<g clip-path="url(#a)">
<use x="1211.578382" y="641.340747" fill="#ffffff" stroke="#ffffff" xlink:href="#b"/>
</g>
<g clip-path="url(#a)">
<use x="1193.694193" y="447.871382" fill="#ffffff" stroke="#ffffff" xlink:href="#b"/>
</g>
<g clip-path="url(#a)">
<use x="1306.960725" y="641.340747" fill="#ffffff" stroke="#ffffff" xlink:href="#b"/>
</g>
<g clip-path="url(#a)">
<use x="1259.269554" y="641.340747" fill="#ffffff" stroke="#ffffff" xlink:href="#b"/>
</g>
<g clip-path="url(#a)">
<use x="1187.732796" y="545.27426" fill="#ffffff" stroke="#ffffff" xlink:href="#b"/>
</g>
<g clip-path="url(#a)">
<use x="1354.651897" y="641.340747" fill="#ffffff" stroke="#ffffff" xlink:href="#b"/>
</g>
<g clip-path="url(#a)">
<defs>
<path id="x" d="m54.891 33.016v-33.016h-8.9844v32.719q0 7.7656-3.0312 11.609-3.0312 3.8594-9.0781 3.8594-7.2812 0-11.484-4.6406-4.2031-4.625-4.2031-12.641v-30.906h-9.0312v75.984h9.0312v-29.797q3.2344 4.9375 7.5938 7.375 4.375 2.4375 10.094 2.4375 9.4219 0 14.25-5.8281 4.8438-5.8281 4.8438-17.156z"/>
</defs>
<g transform="translate(57.691 740.17) scale(.1 -.1)">
<use xlink:href="#k"/>
<use x="61.083984" xlink:href="#x"/>
<use x="124.462891" xlink:href="#d"/>
</g>
</g>
<g clip-path="url(#a)">
<defs>
<path id="s" d="m48.781 52.594v-8.4062q-3.8125 2.1094-7.6406 3.1562t-7.7344 1.0469q-8.75 0-13.594-5.5469-4.8281-5.5312-4.8281-15.547t4.8281-15.562q4.8438-5.5312 13.594-5.5312 3.9062 0 7.7344 1.0469t7.6406 3.1562v-8.3125q-3.7656-1.75-7.7969-2.625-4.0156-0.89062-8.5625-0.89062-12.359 0-19.641 7.7656-7.2656 7.7656-7.2656 20.953 0 13.375 7.3438 21.031 7.3594 7.6719 20.156 7.6719 4.1406 0 8.0938-0.85938 3.9531-0.84375 7.6719-2.5469z"/>
<path id="ag" d="m4.2031 54.688h8.9844l11.234-42.672 11.172 42.672h10.594l11.234-42.672 11.188 42.672h8.9844l-14.312-54.688h-10.594l-11.766 44.828-11.812-44.828h-10.609z"/>
</defs>
<g transform="translate(102.71 740.17) scale(.1 -.1)">
<use xlink:href="#s"/>
<use x="54.980469" xlink:href="#h"/>
<use x="96.0625" xlink:href="#d"/>
<use x="157.585938" xlink:href="#ag"/>
</g>
</g>
<g clip-path="url(#a)">
<defs>
<path id="w" d="m18.312 70.219v-15.531h18.5v-6.9844h-18.5v-29.688q0-6.6875 1.8281-8.5938t7.4531-1.9062h9.2188v-7.5156h-9.2188q-10.406 0-14.359 3.875-3.9531 3.8906-3.9531 14.141v29.688h-6.5938v6.9844h6.5938v15.531z"/>
</defs>
<g transform="translate(157.35 740.17) scale(.1 -.1)">
<use xlink:href="#e"/>
<use x="61.279297" xlink:href="#w"/>
</g>
</g>
<g clip-path="url(#a)">
<g transform="translate(200.76 740.17) scale(.1 -.1)">
<use xlink:href="#k"/>
<use x="61.083984" xlink:href="#x"/>
<use x="124.462891" xlink:href="#d"/>
</g>
</g>
<g clip-path="url(#a)">
<defs>
<path id="v" d="m2.9844 54.688h9.5156l17.094-45.891 17.094 45.891h9.5156l-20.516-54.688h-12.203z"/>
</defs>
<g transform="translate(236.68 740.17) scale(.1 -.1)">
<use xlink:href="#p"/>
<use x="69.824219" xlink:href="#h"/>
<use x="110.90625" xlink:href="#d"/>
<use x="172.429688" xlink:href="#e"/>
<use x="233.708984" xlink:href="#w"/>
<use x="272.917969" xlink:href="#j"/>
<use x="300.701172" xlink:href="#v"/>
<use x="359.880859" xlink:href="#d"/>
</g>
</g>
<g clip-path="url(#a)">
<defs>
<path id="aq" d="m3.3281 72.906h9.9531l15.328-61.625 15.281 61.625h11.094l15.328-61.625 15.281 61.625h10.016l-18.312-72.906h-12.406l-15.375 63.281-15.531-63.281h-12.406z"/>
<path id="q" d="m30.609 48.391q-7.2188 0-11.422-5.6406t-4.2031-15.453 4.1719-15.453q4.1875-5.6406 11.453-5.6406 7.1875 0 11.375 5.6562 4.2031 5.6719 4.2031 15.438 0 9.7188-4.2031 15.406-4.1875 5.6875-11.375 5.6875zm0 7.6094q11.719 0 18.406-7.625 6.7031-7.6094 6.7031-21.078 0-13.422-6.7031-21.078-6.6875-7.6406-18.406-7.6406-11.766 0-18.438 7.6406-6.6562 7.6562-6.6562 21.078 0 13.469 6.6562 21.078 6.6719 7.625 18.438 7.625z"/>
<path id="an" d="m9.0781 75.984h9.0312v-44.875l26.812 23.578h11.469l-29-25.578 30.234-29.109h-11.719l-27.797 26.703v-26.703h-9.0312z"/>
<path id="av" d="m44.281 53.078v-8.5q-3.7969 1.9531-7.9062 2.9219-4.0938 0.98438-8.5 0.98438-6.6875 0-10.031-2.0469t-3.3438-6.1562q0-3.125 2.3906-4.9062t9.625-3.3906l3.0781-0.6875q9.5625-2.0469 13.594-5.7812t4.0312-10.422q0-7.625-6.0312-12.078-6.0312-4.4375-16.578-4.4375-4.3906 0-9.1562 0.85938t-10.031 2.5625v9.2812q4.9844-2.5938 9.8125-3.8906 4.8281-1.2812 9.5781-1.2812 6.3438 0 9.75 2.1719 3.4219 2.1719 3.4219 6.125 0 3.6562-2.4688 5.6094-2.4531 1.9531-10.812 3.7656l-3.125 0.73438q-8.3438 1.75-12.062 5.3906-3.7031 3.6406-3.7031 9.9844 0 7.7188 5.4688 11.906 5.4688 4.2031 15.531 4.2031 4.9688 0 9.3594-0.73438 4.4062-0.71875 8.1094-2.1875z"/>
<path id="aw" d="m18.109 8.2031v-29h-9.0312v75.484h9.0312v-8.2969q2.8438 4.875 7.1562 7.2344 4.3281 2.375 10.328 2.375 9.9688 0 16.188-7.9062 6.2344-7.9062 6.2344-20.797t-6.2344-20.812q-6.2188-7.9062-16.188-7.9062-6 0-10.328 2.375-4.3125 2.375-7.1562 7.25zm30.578 19.094q0 9.9062-4.0781 15.547t-11.203 5.6406q-7.1406 0-11.219-5.6406t-4.0781-15.547 4.0781-15.547 11.219-5.6406q7.125 0 11.203 5.6406t4.0781 15.547z"/>
</defs>
<g transform="translate(280.49 740.17) scale(.1 -.1)">
<use xlink:href="#aq"/>
<use x="98.798828" xlink:href="#q"/>
<use x="159.980469" xlink:href="#h"/>
<use x="201.09375" xlink:href="#an"/>
<use x="259.003906" xlink:href="#av"/>
<use x="311.103516" xlink:href="#x"/>
<use x="374.482422" xlink:href="#q"/>
<use x="435.664062" xlink:href="#aw"/>
</g>
</g>
<g clip-path="url(#a)">
<g transform="translate(340.84 740.17) scale(.1 -.1)">
<use xlink:href="#ag"/>
<use x="81.787109" xlink:href="#d"/>
<use x="143.310547" xlink:href="#g"/>
<use x="206.689453" xlink:href="#w"/>
</g>
</g>
<g clip-path="url(#a)">
<g transform="translate(389.68 740.17) scale(.1 -.1)">
<use xlink:href="#q"/>
<use x="61.181641" xlink:href="#v"/>
<use x="120.361328" xlink:href="#d"/>
<use x="181.884766" xlink:href="#h"/>
</g>
</g>
<g clip-path="url(#a)">
<defs>
<path id="y" d="m45.406 46.391v29.594h8.9844v-75.984h-8.9844v8.2031q-2.8281-4.875-7.1562-7.25-4.3125-2.375-10.375-2.375-9.9062 0-16.141 7.9062-6.2188 7.9219-6.2188 20.812t6.2188 20.797q6.2344 7.9062 16.141 7.9062 6.0625 0 10.375-2.375 4.3281-2.3594 7.1562-7.2344zm-30.609-19.094q0-9.9062 4.0781-15.547t11.203-5.6406 11.219 5.6406q4.1094 5.6406 4.1094 15.547t-4.1094 15.547q-4.0938 5.6406-11.219 5.6406t-11.203-5.6406-4.0781-15.547z"/>
</defs>
<g transform="translate(439.11 740.17) scale(.1 -.1)">
<use xlink:href="#e"/>
<use x="61.279297" xlink:href="#g"/>
<use x="124.658203" xlink:href="#y"/>
</g>
</g>
<g clip-path="url(#a)">
<defs>
<path id="aj" d="m48.688 27.297q0 9.9062-4.0781 15.547t-11.203 5.6406q-7.1406 0-11.219-5.6406t-4.0781-15.547 4.0781-15.547 11.219-5.6406q7.125 0 11.203 5.6406t4.0781 15.547zm-30.578 19.094q2.8438 4.875 7.1562 7.2344 4.3281 2.375 10.328 2.375 9.9688 0 16.188-7.9062 6.2344-7.9062 6.2344-20.797t-6.2344-20.812q-6.2188-7.9062-16.188-7.9062-6 0-10.328 2.375-4.3125 2.375-7.1562 7.25v-8.2031h-9.0312v75.984h9.0312z"/>
</defs>
<g transform="translate(480.88 740.17) scale(.1 -.1)">
<use xlink:href="#e"/>
<use x="61.279297" xlink:href="#aj"/>
<use x="124.755859" xlink:href="#q"/>
<use x="185.9375" xlink:href="#v"/>
<use x="245.117188" xlink:href="#d"/>
</g>
</g>
<g clip-path="url(#a)">
<g transform="translate(535.7 740.17) scale(.1 -.1)">
<use xlink:href="#w"/>
<use x="39.208984" xlink:href="#x"/>
<use x="102.587891" xlink:href="#d"/>
</g>
</g>
<g clip-path="url(#a)">
<g transform="translate(583 740.17) scale(.1 -.1)">
<use xlink:href="#s"/>
<use x="54.980469" xlink:href="#e"/>
<use x="116.259766" xlink:href="#i"/>
<use x="144.042969" xlink:href="#i"/>
</g>
</g>
<g clip-path="url(#a)">
<defs>
<path id="ap" d="m37.109 75.984v-7.4844h-8.5938q-4.8281 0-6.7188-1.9531-1.875-1.9531-1.875-7.0312v-4.8281h14.797v-6.9844h-14.797v-47.703h-9.0312v47.703h-8.5938v6.9844h8.5938v3.8125q0 9.125 4.25 13.297 4.25 4.1875 13.469 4.1875z"/>
</defs>
<g transform="translate(634.46 740.17) scale(.1 -.1)">
<use xlink:href="#q"/>
<use x="61.181641" xlink:href="#ap"/>
</g>
</g>
<g clip-path="url(#a)">
<defs>
<path id="au" d="m8.5 21.578v33.109h8.9844v-32.766q0-7.7656 3.0156-11.656 3.0312-3.875 9.0938-3.875 7.2656 0 11.484 4.6406 4.2344 4.6406 4.2344 12.656v31h8.9844v-54.688h-8.9844v8.4062q-3.2656-4.9844-7.5938-7.4062-4.3125-2.4219-10.031-2.4219-9.4219 0-14.312 5.8594-4.875 5.8594-4.875 17.141z"/>
<path id="af" d="m32.172-5.0781q-3.7969-9.7656-7.4219-12.734-3.6094-2.9844-9.6562-2.9844h-7.1875v7.5156h5.2812q3.7031 0 5.75 1.7656 2.0625 1.75 4.5469 8.2969l1.6094 4.0938-22.109 53.812h9.5156l17.094-42.766 17.094 42.766h9.5156z"/>
</defs>
<g transform="translate(675.71 740.17) scale(.1 -.1)">
<use xlink:href="#y"/>
<use x="63.476562" xlink:href="#au"/>
<use x="126.855469" xlink:href="#w"/>
<use x="166.064453" xlink:href="#af"/>
</g>
</g>
<g clip-path="url(#a)">
<g transform="translate(725.26 740.17) scale(.1 -.1)">
<use xlink:href="#e"/>
<use x="61.279297" xlink:href="#g"/>
<use x="124.658203" xlink:href="#y"/>
</g>
</g>
<g clip-path="url(#a)">
<defs>
<path id="ao" d="m45.406 27.984q0 9.7656-4.0312 15.125-4.0156 5.375-11.297 5.375-7.2188 0-11.25-5.375-4.0312-5.3594-4.0312-15.125 0-9.7188 4.0312-15.094t11.25-5.375q7.2812 0 11.297 5.375 4.0312 5.375 4.0312 15.094zm8.9844-21.203q0-13.953-6.2031-20.766-6.1875-6.8125-18.984-6.8125-4.7344 0-8.9375 0.70312t-8.1562 2.1719v8.7344q3.9531-2.1406 7.8125-3.1562 3.8594-1.0312 7.8594-1.0312 8.8438 0 13.234 4.6094t4.3906 13.938v4.4531q-2.7812-4.8438-7.125-7.2344t-10.406-2.3906q-10.047 0-16.203 7.6562-6.1562 7.6719-6.1562 20.328 0 12.688 6.1562 20.344 6.1562 7.6719 16.203 7.6719 6.0625 0 10.406-2.3906t7.125-7.2188v8.2969h8.9844z"/>
</defs>
<g transform="translate(770.08 740.17) scale(.1 -.1)">
<use xlink:href="#ao"/>
<use x="63.476562" xlink:href="#e"/>
<use x="124.755859" xlink:href="#v"/>
<use x="183.935547" xlink:href="#d"/>
</g>
</g>
<g clip-path="url(#a)">
<g transform="translate(822.1 740.17) scale(.1 -.1)">
<use xlink:href="#l"/>
<use x="97.412109" xlink:href="#d"/>
</g>
</g>
<g clip-path="url(#a)">
<g transform="translate(865.86 740.17) scale(.1 -.1)">
<use xlink:href="#aj"/>
<use x="63.476562" xlink:href="#e"/>
<use x="124.755859" xlink:href="#s"/>
<use x="179.736328" xlink:href="#an"/>
</g>
</g>
<g clip-path="url(#a)">
<g transform="translate(922.37 740.17) scale(.1 -.1)">
<use xlink:href="#e"/>
</g>
</g>
<g clip-path="url(#a)">
<g transform="translate(965.25 740.17) scale(.1 -.1)">
<use xlink:href="#s"/>
<use x="54.980469" xlink:href="#e"/>
<use x="116.259766" xlink:href="#h"/>
</g>
</g>
<g clip-path="url(#a)">
<defs>
<path id="at" d="m9.8125 72.906h9.8594v-72.906h-9.8594z"/>
</defs>
<g transform="translate(1019.3 740.17) scale(.1 -.1)">
<use xlink:href="#at"/>
</g>
</g>
<g clip-path="url(#a)">
<g transform="translate(1059.5 740.17) scale(.1 -.1)">
<use xlink:href="#s"/>
<use x="54.980469" xlink:href="#e"/>
<use x="116.259766" xlink:href="#g"/>
</g>
</g>
<g clip-path="url(#a)">
<g transform="translate(1103.5 740.17) scale(.1 -.1)">
<use xlink:href="#y"/>
<use x="63.476562" xlink:href="#h"/>
<use x="104.589844" xlink:href="#j"/>
<use x="132.373047" xlink:href="#v"/>
<use x="191.552734" xlink:href="#d"/>
</g>
</g>
<g clip-path="url(#a)">
<g transform="translate(1139.2 740.17) scale(.1 -.1)">
<use xlink:href="#e"/>
<use x="61.279297" xlink:href="#g"/>
<use x="124.658203" xlink:href="#af"/>
<use x="183.837891" xlink:href="#ag"/>
<use x="265.625" xlink:href="#x"/>
<use x="329.003906" xlink:href="#d"/>
<use x="390.527344" xlink:href="#h"/>
<use x="431.609375" xlink:href="#d"/>
</g>
</g>
<g clip-path="url(#a)">
<g transform="translate(1202.2 740.17) scale(.1 -.1)">
<use xlink:href="#e"/>
<use x="61.279297" xlink:href="#g"/>
<use x="124.658203" xlink:href="#y"/>
</g>
</g>
<g clip-path="url(#a)">
<g transform="translate(1244.2 740.17) scale(.1 -.1)">
<use xlink:href="#ap"/>
<use x="35.205078" xlink:href="#j"/>
<use x="62.988281" xlink:href="#g"/>
<use x="126.367188" xlink:href="#e"/>
<use x="187.646484" xlink:href="#i"/>
<use x="215.429688" xlink:href="#i"/>
<use x="243.212891" xlink:href="#af"/>
</g>
</g>
<g clip-path="url(#a)">
<defs>
<path id="ax" d="m9.4219 54.688h8.9844v-55.672q0-10.438-3.9844-15.125-3.9688-4.6875-12.812-4.6875h-3.4219v7.6094h2.4062q5.125 0 6.9688 2.375 1.8594 2.3594 1.8594 9.8281zm0 21.297h8.9844v-11.391h-8.9844z"/>
</defs>
<g transform="translate(1293.3 740.17) scale(.1 -.1)">
<use xlink:href="#d"/>
<use x="61.523438" xlink:href="#g"/>
<use x="124.902344" xlink:href="#ax"/>
<use x="152.685547" xlink:href="#q"/>
<use x="213.867188" xlink:href="#af"/>
</g>
</g>
<g clip-path="url(#a)">
<g transform="translate(1336.6 740.17) scale(.1 -.1)">
<use xlink:href="#q"/>
<use x="61.181641" xlink:href="#ag"/>
<use x="142.96875" xlink:href="#g"/>
<use x="206.347656" xlink:href="#j"/>
<use x="234.130859" xlink:href="#g"/>
<use x="297.509766" xlink:href="#ao"/>
</g>
</g>
<g clip-path="url(#a)">
<defs>
<path id="f" d="m10.688 12.406h10.312v-12.406h-10.312z"/>
</defs>
<g transform="translate(1400.8 740.17) scale(.1 -.1)">
<use xlink:href="#f"/>
</g>
</g>
<g clip-path="url(#a)">
<defs>
<path id="c" d="m12.406 8.2969h16.109v55.625l-17.531-3.5156v8.9844l17.438 3.5156h9.8594v-64.609h16.109v-8.2969h-41.984z"/>
</defs>
<g transform="translate(682.08 38.685) scale(.1 -.1)">
<use xlink:href="#c"/>
<use x="63.623047" xlink:href="#f"/>
<use x="95.410156" xlink:href="#c"/>
</g>
</g>
<g clip-path="url(#a)">
<defs>
<path id="n" d="m19.188 8.2969h34.422v-8.2969h-46.281v8.2969q5.6094 5.8125 15.297 15.594 9.7031 9.7969 12.188 12.641 4.7344 5.3125 6.6094 9 1.8906 3.6875 1.8906 7.25 0 5.8125-4.0781 9.4688-4.0781 3.6719-10.625 3.6719-4.6406 0-9.7969-1.6094-5.1406-1.6094-11-4.8906v9.9688q5.9531 2.3906 11.125 3.6094 5.1875 1.2188 9.4844 1.2188 11.328 0 18.062-5.6719 6.7344-5.6562 6.7344-15.125 0-4.5-1.6875-8.5312-1.6719-4.0156-6.125-9.4844-1.2188-1.4219-7.7656-8.1875-6.5312-6.7656-18.453-18.922z"/>
</defs>
<g transform="translate(604.67 351.35) scale(.1 -.1)">
<use xlink:href="#c"/>
<use x="63.623047" xlink:href="#f"/>
<use x="95.410156" xlink:href="#n"/>
</g>
</g>
<g clip-path="url(#a)">
<defs>
<path id="m" d="m40.578 39.312q7.0781-1.5156 11.047-6.3125 3.9844-4.7812 3.9844-11.812 0-10.781-7.4219-16.703-7.4219-5.9062-21.094-5.9062-4.5781 0-9.4375 0.90625t-10.031 2.7188v9.5156q4.0938-2.3906 8.9688-3.6094 4.8906-1.2188 10.219-1.2188 9.2656 0 14.125 3.6562t4.8594 10.641q0 6.4531-4.5156 10.078-4.5156 3.6406-12.562 3.6406h-8.5v8.1094h8.8906q7.2656 0 11.125 2.9062t3.8594 8.375q0 5.6094-3.9844 8.6094-3.9688 3.0156-11.391 3.0156-4.0625 0-8.7031-0.89062-4.6406-0.875-10.203-2.7188v8.7812q5.625 1.5625 10.531 2.3438t9.25 0.78125q11.234 0 17.766-5.1094 6.5469-5.0938 6.5469-13.781 0-6.0625-3.4688-10.234t-9.8594-5.7812z"/>
</defs>
<g transform="translate(345.19 644.1) scale(.1 -.1)">
<use xlink:href="#c"/>
<use x="63.623047" xlink:href="#f"/>
<use x="95.410156" xlink:href="#m"/>
</g>
</g>
<g clip-path="url(#a)">
<defs>
<path id="u" d="m37.797 64.312-24.906-38.922h24.906zm-2.5938 8.5938h12.406v-47.516h10.406v-8.2031h-10.406v-17.188h-9.8125v17.188h-32.906v9.5156z"/>
</defs>
<g transform="translate(125.28 450.63) scale(.1 -.1)">
<use xlink:href="#c"/>
<use x="63.623047" xlink:href="#f"/>
<use x="95.410156" xlink:href="#u"/>
</g>
</g>
<g clip-path="url(#a)">
<defs>
<path id="ad" d="m10.797 72.906h38.719v-8.3125h-29.688v-17.859q2.1406 0.73438 4.2812 1.0938 2.1562 0.35938 4.3125 0.35938 12.203 0 19.328-6.6875 7.1406-6.6875 7.1406-18.109 0-11.766-7.3281-18.297-7.3281-6.5156-20.656-6.5156-4.5938 0-9.3594 0.78125-4.75 0.78125-9.8281 2.3438v9.9219q4.3906-2.3906 9.0781-3.5625t9.9062-1.1719q8.4531 0 13.375 4.4375 4.9375 4.4375 4.9375 12.062 0 7.6094-4.9375 12.047-4.9219 4.4531-13.375 4.4531-3.9531 0-7.8906-0.875-3.9219-0.875-8.0156-2.7344z"/>
</defs>
<g transform="translate(106.73 644.1) scale(.1 -.1)">
<use xlink:href="#c"/>
<use x="63.623047" xlink:href="#f"/>
<use x="95.410156" xlink:href="#ad"/>
</g>
</g>
<g clip-path="url(#a)">
<defs>
<path id="ac" d="m33.016 40.375q-6.6406 0-10.531-4.5469-3.875-4.5312-3.875-12.438 0-7.8594 3.875-12.438 3.8906-4.5625 10.531-4.5625t10.516 4.5625q3.875 4.5781 3.875 12.438 0 7.9062-3.875 12.438-3.875 4.5469-10.516 4.5469zm19.578 30.922v-8.9844q-3.7188 1.75-7.5 2.6719-3.7812 0.9375-7.5 0.9375-9.7656 0-14.922-6.5938-5.1406-6.5938-5.875-19.922 2.875 4.25 7.2188 6.5156 4.3594 2.2656 9.5781 2.2656 10.984 0 17.359-6.6719 6.375-6.6562 6.375-18.125 0-11.234-6.6406-18.031-6.6406-6.7812-17.672-6.7812-12.656 0-19.344 9.6875-6.6875 9.7031-6.6875 28.109 0 17.281 8.2031 27.562t22.016 10.281q3.7188 0 7.5-0.73438t7.8906-2.1875z"/>
</defs>
<g transform="translate(553.83 450.63) scale(.1 -.1)">
<use xlink:href="#c"/>
<use x="63.623047" xlink:href="#f"/>
<use x="95.410156" xlink:href="#ac"/>
</g>
</g>
<g clip-path="url(#a)">
<defs>
<path id="ab" d="m8.2031 72.906h46.875v-4.2031l-26.469-68.703h-10.297l24.906 64.594h-35.016z"/>
</defs>
<g transform="translate(583.64 644.1) scale(.1 -.1)">
<use xlink:href="#c"/>
<use x="63.623047" xlink:href="#f"/>
<use x="95.410156" xlink:href="#ab"/>
</g>
</g>
<g clip-path="url(#a)">
<defs>
<path id="aa" d="m31.781 34.625q-7.0312 0-11.062-3.7656-4.0156-3.7656-4.0156-10.344 0-6.5938 4.0156-10.359 4.0312-3.7656 11.062-3.7656t11.078 3.7812q4.0625 3.7969 4.0625 10.344 0 6.5781-4.0312 10.344-4.0156 3.7656-11.109 3.7656zm-9.8594 4.1875q-6.3438 1.5625-9.8906 5.9062-3.5312 4.3594-3.5312 10.609 0 8.7344 6.2188 13.812 6.2344 5.0781 17.062 5.0781 10.891 0 17.094-5.0781t6.2031-13.812q0-6.25-3.5469-10.609-3.5312-4.3438-9.8281-5.9062 7.125-1.6562 11.094-6.5 3.9844-4.8281 3.9844-11.797 0-10.609-6.4688-16.281-6.4688-5.6562-18.531-5.6562-12.047 0-18.531 5.6562-6.4688 5.6719-6.4688 16.281 0 6.9688 4 11.797 4.0156 4.8438 11.141 6.5zm-3.6094 15.578q0-5.6562 3.5312-8.8281 3.5469-3.1719 9.9375-3.1719 6.3594 0 9.9375 3.1719 3.5938 3.1719 3.5938 8.8281 0 5.6719-3.5938 8.8438-3.5781 3.1719-9.9375 3.1719-6.3906 0-9.9375-3.1719-3.5312-3.1719-3.5312-8.8438z"/>
</defs>
<g transform="translate(726.72 644.1) scale(.1 -.1)">
<use xlink:href="#c"/>
<use x="63.623047" xlink:href="#f"/>
<use x="95.410156" xlink:href="#aa"/>
</g>
</g>
<g clip-path="url(#a)">
<defs>
<path id="z" d="m10.984 1.5156v8.9844q3.7188-1.7656 7.5156-2.6875 3.8125-0.92188 7.4844-0.92188 9.7656 0 14.906 6.5625 5.1562 6.5625 5.8906 19.953-2.8281-4.2031-7.1875-6.4531-4.3438-2.25-9.6094-2.25-10.938 0-17.312 6.6094-6.375 6.625-6.375 18.109 0 11.219 6.6406 18 6.6406 6.7969 17.672 6.7969 12.656 0 19.312-9.7031 6.6719-9.6875 6.6719-28.141 0-17.234-8.1875-27.516-8.1719-10.281-21.984-10.281-3.7188 0-7.5312 0.73438-3.7969 0.73438-7.9062 2.2031zm19.625 30.906q6.6406 0 10.516 4.5312 3.8906 4.5469 3.8906 12.469 0 7.8594-3.8906 12.422-3.875 4.5625-10.516 4.5625t-10.516-4.5625-3.875-12.422q0-7.9219 3.875-12.469 3.875-4.5312 10.516-4.5312z"/>
</defs>
<g transform="translate(714.86 145.69) scale(.1 -.1)">
<use xlink:href="#c"/>
<use x="63.623047" xlink:href="#f"/>
<use x="95.410156" xlink:href="#z"/>
</g>
</g>
<g clip-path="url(#a)">
<defs>
<path id="ae" d="m31.781 66.406q-7.6094 0-11.453-7.5-3.8281-7.4844-3.8281-22.531 0-14.984 3.8281-22.484 3.8438-7.5 11.453-7.5 7.6719 0 11.5 7.5 3.8438 7.5 3.8438 22.484 0 15.047-3.8438 22.531-3.8281 7.5-11.5 7.5zm0 7.8125q12.266 0 18.734-9.7031 6.4688-9.6875 6.4688-28.141 0-18.406-6.4688-28.109-6.4688-9.6875-18.734-9.6875-12.25 0-18.719 9.6875-6.4688 9.7031-6.4688 28.109 0 18.453 6.4688 28.141 6.4688 9.7031 18.719 9.7031z"/>
</defs>
<g transform="translate(771.23 644.1) scale(.1 -.1)">
<use xlink:href="#c"/>
<use x="63.623047" xlink:href="#f"/>
<use x="95.410156" xlink:href="#c"/>
<use x="159.033203" xlink:href="#ae"/>
</g>
</g>
<g clip-path="url(#a)">
<g transform="translate(1391.2 644.1) scale(.1 -.1)">
<use xlink:href="#c"/>
<use x="63.623047" xlink:href="#f"/>
<use x="95.410156" xlink:href="#c"/>
<use x="159.033203" xlink:href="#c"/>
</g>
</g>
<g clip-path="url(#a)">
<g transform="translate(55.857 644.1) scale(.1 -.1)">
<use xlink:href="#c"/>
<use x="63.623047" xlink:href="#f"/>
<use x="95.410156" xlink:href="#c"/>
<use x="159.033203" xlink:href="#n"/>
</g>
</g>
<g clip-path="url(#a)">
<g transform="translate(206.88 548.03) scale(.1 -.1)">
<use xlink:href="#c"/>
<use x="63.623047" xlink:href="#f"/>
<use x="95.410156" xlink:href="#c"/>
<use x="159.033203" xlink:href="#m"/>
</g>
</g>
<g clip-path="url(#a)">
<g transform="translate(270.47 644.1) scale(.1 -.1)">
<use xlink:href="#c"/>
<use x="63.623047" xlink:href="#f"/>
<use x="95.410156" xlink:href="#c"/>
<use x="159.033203" xlink:href="#u"/>
</g>
</g>
<g clip-path="url(#a)">
<g transform="translate(437.39 548.03) scale(.1 -.1)">
<use xlink:href="#c"/>
<use x="63.623047" xlink:href="#f"/>
<use x="95.410156" xlink:href="#c"/>
<use x="159.033203" xlink:href="#ad"/>
</g>
</g>
<g clip-path="url(#a)">
<g transform="translate(389.7 644.1) scale(.1 -.1)">
<use xlink:href="#c"/>
<use x="63.623047" xlink:href="#f"/>
<use x="95.410156" xlink:href="#c"/>
<use x="159.033203" xlink:href="#ac"/>
</g>
</g>
<g clip-path="url(#a)">
<g transform="translate(532.77 644.1) scale(.1 -.1)">
<use xlink:href="#c"/>
<use x="63.623047" xlink:href="#f"/>
<use x="95.410156" xlink:href="#c"/>
<use x="159.033203" xlink:href="#ab"/>
</g>
</g>
<g clip-path="url(#a)">
<g transform="translate(652 548.03) scale(.1 -.1)">
<use xlink:href="#c"/>
<use x="63.623047" xlink:href="#f"/>
<use x="95.410156" xlink:href="#c"/>
<use x="159.033203" xlink:href="#aa"/>
</g>
</g>
<g clip-path="url(#a)">
<g transform="translate(675.84 644.1) scale(.1 -.1)">
<use xlink:href="#c"/>
<use x="63.623047" xlink:href="#f"/>
<use x="95.410156" xlink:href="#c"/>
<use x="159.033203" xlink:href="#z"/>
</g>
</g>
<g clip-path="url(#a)">
<g transform="translate(818.92 644.1) scale(.1 -.1)">
<use xlink:href="#c"/>
<use x="63.623047" xlink:href="#f"/>
<use x="95.410156" xlink:href="#n"/>
<use x="159.033203" xlink:href="#ae"/>
</g>
</g>
<g clip-path="url(#a)">
<g transform="translate(866.61 644.1) scale(.1 -.1)">
<use xlink:href="#c"/>
<use x="63.623047" xlink:href="#f"/>
<use x="95.410156" xlink:href="#n"/>
<use x="159.033203" xlink:href="#c"/>
</g>
</g>
<g clip-path="url(#a)">
<g transform="translate(998.09 249.81) scale(.1 -.1)">
<use xlink:href="#c"/>
<use x="63.623047" xlink:href="#f"/>
<use x="95.410156" xlink:href="#n"/>
<use x="159.033203" xlink:href="#n"/>
</g>
</g>
<g clip-path="url(#a)">
<g transform="translate(961.99 644.1) scale(.1 -.1)">
<use xlink:href="#c"/>
<use x="63.623047" xlink:href="#f"/>
<use x="95.410156" xlink:href="#n"/>
<use x="159.033203" xlink:href="#m"/>
</g>
</g>
<g clip-path="url(#a)">
<g transform="translate(151.24 644.1) scale(.1 -.1)">
<use xlink:href="#c"/>
<use x="63.623047" xlink:href="#f"/>
<use x="95.410156" xlink:href="#n"/>
<use x="159.033203" xlink:href="#u"/>
</g>
</g>
<g clip-path="url(#a)">
<g transform="translate(198.93 644.1) scale(.1 -.1)">
<use xlink:href="#c"/>
<use x="63.623047" xlink:href="#f"/>
<use x="95.410156" xlink:href="#n"/>
<use x="159.033203" xlink:href="#ad"/>
</g>
</g>
<g clip-path="url(#a)">
<g transform="translate(437.39 644.1) scale(.1 -.1)">
<use xlink:href="#c"/>
<use x="63.623047" xlink:href="#f"/>
<use x="95.410156" xlink:href="#n"/>
<use x="159.033203" xlink:href="#ac"/>
</g>
</g>
<g clip-path="url(#a)">
<g transform="translate(485.08 644.1) scale(.1 -.1)">
<use xlink:href="#c"/>
<use x="63.623047" xlink:href="#f"/>
<use x="95.410156" xlink:href="#n"/>
<use x="159.033203" xlink:href="#ab"/>
</g>
</g>
<g clip-path="url(#a)">
<g transform="translate(628.15 644.1) scale(.1 -.1)">
<use xlink:href="#c"/>
<use x="63.623047" xlink:href="#f"/>
<use x="95.410156" xlink:href="#n"/>
<use x="159.033203" xlink:href="#aa"/>
</g>
</g>
<g clip-path="url(#a)">
<g transform="translate(914.3 644.1) scale(.1 -.1)">
<use xlink:href="#c"/>
<use x="63.623047" xlink:href="#f"/>
<use x="95.410156" xlink:href="#n"/>
<use x="159.033203" xlink:href="#z"/>
</g>
</g>
<g clip-path="url(#a)">
<g transform="translate(1118 351.35) scale(.1 -.1)">
<use xlink:href="#c"/>
<use x="63.623047" xlink:href="#f"/>
<use x="95.410156" xlink:href="#m"/>
<use x="159.033203" xlink:href="#ae"/>
</g>
</g>
<g clip-path="url(#a)">
<g transform="translate(1105.1 644.1) scale(.1 -.1)">
<use xlink:href="#c"/>
<use x="63.623047" xlink:href="#f"/>
<use x="95.410156" xlink:href="#m"/>
<use x="159.033203" xlink:href="#c"/>
</g>
</g>
<g clip-path="url(#a)">
<g transform="translate(1009.7 644.1) scale(.1 -.1)">
<use xlink:href="#c"/>
<use x="63.623047" xlink:href="#f"/>
<use x="95.410156" xlink:href="#m"/>
<use x="159.033203" xlink:href="#n"/>
</g>
</g>
<g clip-path="url(#a)">
<g transform="translate(1057.4 644.1) scale(.1 -.1)">
<use xlink:href="#c"/>
<use x="63.623047" xlink:href="#f"/>
<use x="95.410156" xlink:href="#m"/>
<use x="159.033203" xlink:href="#m"/>
</g>
</g>
<g clip-path="url(#a)">
<g transform="translate(1152.8 644.1) scale(.1 -.1)">
<use xlink:href="#c"/>
<use x="63.623047" xlink:href="#f"/>
<use x="95.410156" xlink:href="#m"/>
<use x="159.033203" xlink:href="#u"/>
</g>
</g>
<g clip-path="url(#a)">
<g transform="translate(1200.4 644.1) scale(.1 -.1)">
<use xlink:href="#c"/>
<use x="63.623047" xlink:href="#f"/>
<use x="95.410156" xlink:href="#m"/>
<use x="159.033203" xlink:href="#ad"/>
</g>
</g>
<g clip-path="url(#a)">
<g transform="translate(1182.6 450.63) scale(.1 -.1)">
<use xlink:href="#c"/>
<use x="63.623047" xlink:href="#f"/>
<use x="95.410156" xlink:href="#m"/>
<use x="159.033203" xlink:href="#ac"/>
</g>
</g>
<g clip-path="url(#a)">
<g transform="translate(1295.8 644.1) scale(.1 -.1)">
<use xlink:href="#c"/>
<use x="63.623047" xlink:href="#f"/>
<use x="95.410156" xlink:href="#m"/>
<use x="159.033203" xlink:href="#ab"/>
</g>
</g>
<g clip-path="url(#a)">
<g transform="translate(1248.1 644.1) scale(.1 -.1)">
<use xlink:href="#c"/>
<use x="63.623047" xlink:href="#f"/>
<use x="95.410156" xlink:href="#m"/>
<use x="159.033203" xlink:href="#aa"/>
</g>
</g>
<g clip-path="url(#a)">
<g transform="translate(1176.6 548.03) scale(.1 -.1)">
<use xlink:href="#c"/>
<use x="63.623047" xlink:href="#f"/>
<use x="95.410156" xlink:href="#m"/>
<use x="159.033203" xlink:href="#z"/>
</g>
</g>
<g clip-path="url(#a)">
<g transform="translate(1343.5 644.1) scale(.1 -.1)">
<use xlink:href="#c"/>
<use x="63.623047" xlink:href="#f"/>
<use x="95.410156" xlink:href="#u"/>
<use x="159.033203" xlink:href="#ae"/>
</g>
</g>
<defs>
<clipPath id="a">
<rect width="1469.3" height="773.33"/>
</clipPath>
</defs>
</svg>
