<?xml version="1.0" encoding="UTF-8"?>
<!DOCTYPE svg  PUBLIC '-//W3C//DTD SVG 1.1//EN'  'http://www.w3.org/Graphics/SVG/1.1/DTD/svg11.dtd'>
<svg width="1824pt" height="960pt" version="1.1" viewBox="0 0 1824 960" xmlns="http://www.w3.org/2000/svg" xmlns:xlink="http://www.w3.org/1999/xlink">
<defs>
<style type="text/css">*{stroke-linecap:butt;stroke-linejoin:round;}</style>
</defs>
<path d="m0 960h1824v-960h-1824z" fill="#fff"/>
<g fill="none" stroke="#000">
<path d="m1068.5 44.306-575.62 560.54" clip-path="url(#a)"/>
<path d="m1068.5 44.306-681.75 118.26" clip-path="url(#a)"/>
<path d="m1068.5 44.306-156.55 768.25" clip-path="url(#a)"/>
<path d="m1068.5 44.306-62.911 453.95" clip-path="url(#a)"/>
<path d="m1068.5 44.306 211.87 768.25" clip-path="url(#a)"/>
<path d="m1068.5 44.306 303.97 665.11" clip-path="url(#a)"/>
<path d="m1068.5 44.306 396.07 768.25" clip-path="url(#a)"/>
<path d="m1068.5 44.306 564.93 560.54" clip-path="url(#a)"/>
<path d="m492.93 604.84-225.65 207.71" clip-path="url(#a)"/>
<path d="m492.93 604.84-386.84 104.57" clip-path="url(#a)"/>
<path d="m492.93 604.84-317.76 207.71" clip-path="url(#a)"/>
<path d="m492.93 604.84-271.71 207.71" clip-path="url(#a)"/>
<path d="m492.93 604.84 1202 207.71" clip-path="url(#a)"/>
<path d="m267.27 812.55v103.14" clip-path="url(#a)"/>
<path d="m106.09 709.42 23.026 103.14" clip-path="url(#a)"/>
<path d="m106.09 709.42-23.026 103.14" clip-path="url(#a)"/>
<path d="m129.12 812.55v103.14" clip-path="url(#a)"/>
<path d="m175.17 812.55v103.14" clip-path="url(#a)"/>
<path d="m221.22 812.55v103.14" clip-path="url(#a)"/>
<path d="m386.8 162.57-27.418 649.99" clip-path="url(#a)"/>
<path d="m386.8 162.57-73.47 649.99" clip-path="url(#a)"/>
<path d="m386.8 162.57 100.89 114.88" clip-path="url(#a)"/>
<path d="m359.38 812.55v103.14" clip-path="url(#a)"/>
<path d="m912 812.55v103.14" clip-path="url(#a)"/>
<path d="m1005.6 498.25-1.5351 314.3" clip-path="url(#a)"/>
<path d="m1005.6 498.25-139.69 314.3" clip-path="url(#a)"/>
<path d="m1005.6 498.25-47.587 314.3" clip-path="url(#a)"/>
<path d="m1005.6 498.25 44.517 314.3" clip-path="url(#a)"/>
<path d="m1005.6 498.25 144.3 106.59" clip-path="url(#a)"/>
<path d="m1004.1 812.55v103.14" clip-path="url(#a)"/>
<path d="m1694.9 812.55v103.14" clip-path="url(#a)"/>
<path d="m83.067 812.55v103.14" clip-path="url(#a)"/>
<path d="m313.33 812.55v103.14" clip-path="url(#a)"/>
<path d="m487.68 277.45 9.85 535.11" clip-path="url(#a)"/>
<path d="m487.68 277.45-82.254 535.11" clip-path="url(#a)"/>
<path d="m487.68 277.45-36.202 535.11" clip-path="url(#a)"/>
<path d="m487.68 277.45 55.902 535.11" clip-path="url(#a)"/>
<path d="m487.68 277.45 52.704 111.79" clip-path="url(#a)"/>
<path d="m497.53 812.55v103.14" clip-path="url(#a)"/>
<path d="m865.95 812.55v103.14" clip-path="url(#a)"/>
<path d="m958.05 812.55v103.14" clip-path="url(#a)"/>
<path d="m1050.2 812.55v103.14" clip-path="url(#a)"/>
<path d="m1149.9 604.84-7.6753 207.71" clip-path="url(#a)"/>
<path d="m1149.9 604.84-53.727 207.71" clip-path="url(#a)"/>
<path d="m1149.9 604.84 61.402 104.57" clip-path="url(#a)"/>
<path d="m1142.3 812.55v103.14" clip-path="url(#a)"/>
<path d="m1280.4 812.55v103.14" clip-path="url(#a)"/>
<path d="m1372.5 709.42v103.14" clip-path="url(#a)"/>
<path d="m1372.5 709.42-46.052 103.14" clip-path="url(#a)"/>
<path d="m1372.5 709.42 46.052 103.14" clip-path="url(#a)"/>
<path d="m1372.5 812.55v103.14" clip-path="url(#a)"/>
<path d="m405.43 812.55v103.14" clip-path="url(#a)"/>
<path d="m451.48 812.55v103.14" clip-path="url(#a)"/>
<path d="m543.59 812.55v103.14" clip-path="url(#a)"/>
<path d="m540.39 389.24-134.96 423.32" clip-path="url(#a)" stroke-dasharray="3.7,1.6"/>
<path d="m540.39 389.24 49.25 423.32" clip-path="url(#a)"/>
<path d="m540.39 389.24 85.708 109.02" clip-path="url(#a)"/>
<path d="m589.64 812.55v103.14" clip-path="url(#a)"/>
<path d="m1096.2 812.55v103.14" clip-path="url(#a)"/>
<path d="m1211.3 709.42 23.026 103.14" clip-path="url(#a)"/>
<path d="m1211.3 709.42-23.026 103.14" clip-path="url(#a)"/>
<path d="m1234.4 812.55v103.14" clip-path="url(#a)"/>
<path d="m1326.5 812.55v103.14" clip-path="url(#a)"/>
<path d="m1418.6 812.55v103.14" clip-path="url(#a)"/>
<path d="m1464.6 812.55v103.14" clip-path="url(#a)"/>
<path d="m1633.5 604.84-99.779 207.71" clip-path="url(#a)"/>
<path d="m1633.5 604.84 107.45 310.85" clip-path="url(#a)"/>
<path d="m1633.5 604.84-7.6753 104.57" clip-path="url(#a)"/>
<path d="m1533.7 812.55-23.026 103.14" clip-path="url(#a)"/>
<path d="m1533.7 812.55 23.026 103.14" clip-path="url(#a)"/>
<path d="m626.09 498.25-220.67 314.3" clip-path="url(#a)" stroke-dasharray="3.7,1.6"/>
<path d="m626.09 498.25 55.646 314.3" clip-path="url(#a)"/>
<path d="m626.09 498.25 9.5941 314.3" clip-path="url(#a)"/>
<path d="m626.09 498.25 155.43 106.59" clip-path="url(#a)"/>
<path d="m681.74 812.55v103.14" clip-path="url(#a)"/>
<path d="m1188.3 812.55v103.14" clip-path="url(#a)"/>
<path d="m1625.8 709.42 23.026 103.14" clip-path="url(#a)"/>
<path d="m1625.8 709.42-23.026 103.14" clip-path="url(#a)"/>
<path d="m1648.8 812.55v103.14" clip-path="url(#a)"/>
<path d="m635.69 812.55v103.14" clip-path="url(#a)"/>
<path d="m781.52 604.84 38.377 207.71" clip-path="url(#a)"/>
<path d="m781.52 604.84-53.727 207.71" clip-path="url(#a)"/>
<path d="m781.52 604.84 15.351 104.57" clip-path="url(#a)"/>
<path d="m819.9 812.55v103.14" clip-path="url(#a)"/>
<path d="m1602.8 812.55v103.14" clip-path="url(#a)"/>
<path d="m727.79 812.55v103.14" clip-path="url(#a)"/>
<path d="m796.87 709.42 23.026 103.14" clip-path="url(#a)" stroke-dasharray="3.7,1.6"/>
<path d="m796.87 709.42-23.026 103.14" clip-path="url(#a)"/>
<path d="m773.84 812.55v103.14" clip-path="url(#a)"/>
</g>
<path d="m782.96 331.17 4.3102-4.1973q1.7194-1.6744 0.045064-3.3938l-5.4016-5.547q-1.6744-1.7194-3.3938-0.045063l-4.3102 4.1973q-1.7194 1.6744-0.045063 3.3938l5.4016 5.547q1.6744 1.7194 3.3938 0.045064z" clip-path="url(#a)" fill="#fff" stroke="#fff"/>
<g clip-path="url(#a)">
<defs>
<path id="ai" d="m9.8125 72.906h9.8594v-29.891h35.844v29.891h9.8594v-72.906h-9.8594v34.719h-35.844v-34.719h-9.8594z"/>
</defs>
<g transform="translate(780.12 328.25) rotate(-44.239) scale(.08 -.08)">
<use xlink:href="#ai"/>
</g>
</g>
<path d="m726.55 110 4.3919-0.76185q2.3647-0.4102 1.9545-2.7749l-1.3233-7.6286q-0.4102-2.3647-2.7749-1.9545l-4.3919 0.76185q-2.3647 0.4102-1.9545 2.7749l1.3233 7.6286q0.4102 2.3647 2.7749 1.9545z" clip-path="url(#a)" fill="#fff" stroke="#fff"/>
<g clip-path="url(#a)">
<defs>
<path id="ah" d="m9.8125 72.906h9.8594v-64.609h35.5v-8.2969h-45.359z"/>
</defs>
<g transform="translate(725.85 105.99) rotate(-9.841) scale(.08 -.08)">
<use xlink:href="#ah"/>
</g>
</g>
<path d="m995.97 431.87 0.89004-4.3677q0.47921-2.3517-1.8725-2.8309l-7.5866-1.546q-2.3517-0.47921-2.8309 1.8725l-0.89004 4.3677q-0.47921 2.3517 1.8725 2.8309l7.5866 1.546q2.3517 0.47921 2.8309-1.8725z" clip-path="url(#a)" fill="#fff" stroke="#fff"/>
<g clip-path="url(#a)">
<g transform="translate(991.99 431.06) rotate(-78.482) scale(.08 -.08)">
<use xlink:href="#ah"/>
</g>
</g>
<path d="m1042.9 275.12 0.82588-5.9593q0.32946-2.3773-2.0478-2.7067l-7.6692-1.0628q-2.3773-0.32946-2.7067 2.0478l-0.82588 5.9593q-0.32946 2.3773 2.0478 2.7067l7.6692 1.0628q2.3773 0.32946 2.7067-2.0478z" clip-path="url(#a)" fill="#fff" stroke="#fff"/>
<g clip-path="url(#a)">
<g transform="translate(1038.9 274.56) rotate(-82.11) scale(.08 -.08)">
<use xlink:href="#ai"/>
</g>
</g>
<path d="m1167.8 427.95 1.185 4.2971q0.63805 2.3136 2.9517 1.6756l7.4639-2.0584q2.3136-0.63805 1.6756-2.9517l-1.185-4.2971q-0.63805-2.3136-2.9517-1.6756l-7.4639 2.0584q-2.3136 0.63805-1.6756 2.9517z" clip-path="url(#a)" fill="#fff" stroke="#fff"/>
<g clip-path="url(#a)">
<g transform="translate(1171.8 426.87) rotate(74.582) scale(.08 -.08)">
<use xlink:href="#ah"/>
</g>
</g>
<path d="m1213.6 376.73 2.5008 5.4719q0.9976 2.1828 3.1804 1.1852l7.0419-3.2183q2.1828-0.9976 1.1852-3.1804l-2.5008-5.4719q-0.9976-2.1828-3.1804-1.1852l-7.0419 3.2183q-2.1828 0.9976-1.1852 3.1804z" clip-path="url(#a)" fill="#fff" stroke="#fff"/>
<g clip-path="url(#a)">
<g transform="translate(1217.3 375.04) rotate(65.439) scale(.08 -.08)">
<use xlink:href="#ai"/>
</g>
</g>
<path d="m1260 429.32 2.0426 3.962q1.0998 2.1332 3.233 1.0334l6.8818-3.5479q2.1332-1.0998 1.0334-3.233l-2.0426-3.962q-1.0998-2.1332-3.233-1.0334l-6.8818 3.5479q-2.1332 1.0998-1.0334 3.233z" clip-path="url(#a)" fill="#fff" stroke="#fff"/>
<g clip-path="url(#a)">
<g transform="translate(1263.6 427.46) rotate(62.727) scale(.08 -.08)">
<use xlink:href="#ah"/>
</g>
</g>
<path d="m1344.5 326.91 4.2707 4.2375q1.7037 1.6904 3.3941-0.013251l5.4534-5.4961q1.6904-1.7037-0.013251-3.3941l-4.2707-4.2375q-1.7037-1.6904-3.3941 0.013251l-5.4534 5.4961q-1.6904 1.7037 0.013251 3.3941z" clip-path="url(#a)" fill="#fff" stroke="#fff"/>
<g clip-path="url(#a)">
<g transform="translate(1347.3 324.02) rotate(44.776) scale(.08 -.08)">
<use xlink:href="#ai"/>
</g>
</g>
<path d="m382.48 715.03 3.7367-3.4396q1.7658-1.6254 0.1404-3.3912l-5.2436-5.6965q-1.6254-1.7658-3.3912-0.14039l-3.7367 3.4396q-1.7658 1.6254-0.1404 3.3912l5.2436 5.6965q1.6254 1.7658 3.3912 0.14039z" clip-path="url(#a)" fill="#fff" stroke="#fff"/>
<g clip-path="url(#a)">
<defs>
<path id="al" d="m53.516 70.516v-9.625q-5.6094 2.6875-10.594 4-4.9844 1.3281-9.625 1.3281-8.0469 0-12.422-3.125t-4.375-8.8906q0-4.8438 2.9062-7.3125 2.9062-2.4531 11.016-3.9688l5.9531-1.2188q11.031-2.1094 16.281-7.4062t5.25-14.172q0-10.609-7.1094-16.078-7.0938-5.4688-20.812-5.4688-5.1719 0-11.016 1.1719-5.8281 1.1719-12.078 3.4688v10.156q6-3.3594 11.766-5.0781 5.7656-1.7031 11.328-1.7031 8.4375 0 13.031 3.3125 4.5938 3.3281 4.5938 9.4844 0 5.3594-3.2969 8.3906t-10.812 4.5469l-6.0156 1.1719q-11.031 2.1875-15.969 6.875-4.9219 4.6875-4.9219 13.047 0 9.6719 6.8125 15.234t18.766 5.5625q5.1406 0 10.453-0.9375 5.3281-0.92188 10.891-2.7656z"/>
</defs>
<g transform="translate(379.73 712.04) rotate(-42.629) scale(.08 -.08)">
<use xlink:href="#al"/>
</g>
</g>
<path d="m298.51 663.9 5.2829-1.4281q2.3168-0.62631 1.6905-2.9432l-2.0205-7.4742q-0.62631-2.3168-2.9432-1.6905l-5.2829 1.4281q-2.3168 0.62631-1.6905 2.9432l2.0205 7.4742q0.62631 2.3168 2.9432 1.6905z" clip-path="url(#a)" fill="#fff" stroke="#fff"/>
<g clip-path="url(#a)">
<defs>
<path id="p" d="m34.188 63.188-13.391-36.281h26.812zm-5.5781 9.7188h11.188l27.781-72.906h-10.25l-6.6406 18.703h-32.859l-6.6406-18.703h-10.406z"/>
</defs>
<g transform="translate(297.44 659.97) rotate(-15.127) scale(.08 -.08)">
<use xlink:href="#p"/>
</g>
</g>
<path d="m335.55 715.21 3.8514-2.5176q2.0089-1.3132 0.69571-3.322l-4.2363-6.4807q-1.3132-2.0089-3.322-0.69571l-3.8514 2.5176q-2.0089 1.3132-0.69571 3.322l4.2363 6.4807q1.3132 2.0089 3.322 0.69571z" clip-path="url(#a)" fill="#fff" stroke="#fff"/>
<g clip-path="url(#a)">
<defs>
<path id="v" d="m9.8125 72.906h41.891v-8.3125h-32.031v-21.484h28.906v-8.2969h-28.906v-34.812h-9.8594z"/>
</defs>
<g transform="translate(333.33 711.8) rotate(-33.172) scale(.08 -.08)">
<use xlink:href="#v"/>
</g>
</g>
<path d="m358.44 715.55 4.8938-3.7412q1.9067-1.4576 0.44906-3.3643l-4.7023-6.151q-1.4576-1.9067-3.3643-0.44907l-4.8938 3.7412q-1.9067 1.4576-0.44906 3.3643l4.7023 6.151q1.4576 1.9067 3.3643 0.44906z" clip-path="url(#a)" fill="#fff" stroke="#fff"/>
<g clip-path="url(#a)">
<defs>
<path id="ap" d="m19.672 64.797v-56.688h11.922q15.094 0 22.094 6.8281 7 6.8438 7 21.594 0 14.641-7 21.453t-22.094 6.8125zm-9.8594 8.1094h20.266q21.188 0 31.094-8.8125 9.9219-8.8125 9.9219-27.562 0-18.859-9.9688-27.703-9.9531-8.8281-31.047-8.8281h-20.266z"/>
</defs>
<g transform="translate(355.97 712.32) rotate(-37.397) scale(.08 -.08)">
<use xlink:href="#ap"/>
</g>
</g>
<path d="m1090 714.38 5.7695 0.99704q2.3649 0.40869 2.7736-1.9563l1.3185-7.6294q0.40869-2.3649-1.9563-2.7736l-5.7695-0.99704q-2.3649-0.40869-2.7736 1.9563l-1.3185 7.6294q-0.40869 2.3649 1.9563 2.7736z" clip-path="url(#a)" fill="#fff" stroke="#fff"/>
<g clip-path="url(#a)">
<defs>
<path id="am" d="m8.6875 72.906h9.9219v-44.297q0-11.719 4.2344-16.875 4.25-5.1406 13.781-5.1406 9.4688 0 13.719 5.1406 4.25 5.1562 4.25 16.875v44.297h9.9062v-45.516q0-14.25-7.0625-21.531-7.0469-7.2812-20.812-7.2812-13.828 0-20.891 7.2812-7.0469 7.2812-7.0469 21.531z"/>
</defs>
<g transform="translate(1090.6 710.37) rotate(9.8046) scale(.08 -.08)">
<use xlink:href="#am"/>
</g>
</g>
<path d="m261 846.48v35.285q0 2.4 2.4 2.4h7.7425q2.4 0 2.4-2.4v-35.285q0-2.4-2.4-2.4h-7.7425q-2.4 0-2.4 2.4z" clip-path="url(#a)" fill="#fff" stroke="#fff"/>
<g clip-path="url(#a)">
<defs>
<path id="l" d="m-0.29688 72.906h61.672v-8.3125h-25.875v-64.594h-9.9062v64.594h-25.891z"/>
<path id="e" d="m56.203 29.594v-4.3906h-41.312q0.59375-9.2812 5.5938-14.141t13.938-4.8594q5.1719 0 10.031 1.2656t9.6562 3.8125v-8.5q-4.8438-2.0469-9.9219-3.125t-10.297-1.0781q-13.094 0-20.734 7.6094-7.6406 7.625-7.6406 20.625 0 13.422 7.25 21.297 7.25 7.8906 19.562 7.8906 11.031 0 17.453-7.1094 6.4219-7.0938 6.4219-19.297zm-8.9844 2.6406q-0.09375 7.3594-4.125 11.75-4.0312 4.4062-10.672 4.4062-7.5156 0-12.031-4.25t-5.2031-11.969z"/>
<path id="g" d="m41.109 46.297q-1.5156 0.875-3.2969 1.2812-1.7812 0.42188-3.9219 0.42188-7.625 0-11.703-4.9531t-4.0781-14.234v-28.812h-9.0312v54.688h9.0312v-8.5q2.8438 4.9844 7.375 7.3906 4.5469 2.4219 11.047 2.4219 0.92188 0 2.0469-0.125 1.125-0.10938 2.4844-0.35938z"/>
<path id="k" d="m52 44.188q3.375 6.0625 8.0625 8.9375t11.031 2.875q8.5469 0 13.188-5.9844 4.6406-5.9688 4.6406-17v-33.016h-9.0312v32.719q0 7.8594-2.7969 11.656-2.7812 3.8125-8.4844 3.8125-6.9844 0-11.047-4.6406-4.0469-4.625-4.0469-12.641v-30.906h-9.0312v32.719q0 7.9062-2.7812 11.688t-8.5938 3.7812q-6.8906 0-10.953-4.6562-4.0469-4.6562-4.0469-12.625v-30.906h-9.0312v54.688h9.0312v-8.5q3.0781 5.0312 7.375 7.4219t10.203 2.3906q5.9688 0 10.141-3.0312 4.1719-3.0156 6.1719-8.7812z"/>
<path id="h" d="m9.4219 54.688h8.9844v-54.688h-8.9844zm0 21.297h8.9844v-11.391h-8.9844z"/>
<path id="i" d="m54.891 33.016v-33.016h-8.9844v32.719q0 7.7656-3.0312 11.609-3.0312 3.8594-9.0781 3.8594-7.2812 0-11.484-4.6406-4.2031-4.625-4.2031-12.641v-30.906h-9.0312v54.688h9.0312v-8.5q3.2344 4.9375 7.5938 7.375 4.375 2.4375 10.094 2.4375 9.4219 0 14.25-5.8281 4.8438-5.8281 4.8438-17.156z"/>
<path id="f" d="m34.281 27.484q-10.891 0-15.094-2.4844t-4.2031-8.5q0-4.7812 3.1562-7.5938 3.1562-2.7969 8.5625-2.7969 7.4844 0 12 5.2969t4.5156 14.078v2zm17.922 3.7188v-31.203h-8.9844v8.2969q-3.0781-4.9688-7.6719-7.3438t-11.234-2.375q-8.3906 0-13.359 4.7188-4.9531 4.7188-4.9531 12.625 0 9.2188 6.1719 13.906 6.1875 4.6875 18.438 4.6875h12.609v0.89062q0 6.2031-4.0781 9.5938t-11.453 3.3906q-4.6875 0-9.1406-1.125-4.4375-1.125-8.5312-3.375v8.3125q4.9219 1.9062 9.5625 2.8438 4.6406 0.95312 9.0312 0.95312 11.875 0 17.734-6.1562 5.8594-6.1406 5.8594-18.641z"/>
<path id="j" d="m9.4219 75.984h8.9844v-75.984h-8.9844z"/>
</defs>
<g transform="translate(265.07 846.48) rotate(90) scale(.08 -.08)">
<use xlink:href="#l"/>
<use x="60.818359" xlink:href="#e"/>
<use x="122.341797" xlink:href="#g"/>
<use x="163.439453" xlink:href="#k"/>
<use x="260.851562" xlink:href="#h"/>
<use x="288.634766" xlink:href="#i"/>
<use x="352.013672" xlink:href="#f"/>
<use x="413.292969" xlink:href="#j"/>
</g>
</g>
<path d="m110.88 759.63 1.2172 5.452q0.52293 2.3423 2.8653 1.8194l7.5565-1.687q2.3423-0.52293 1.8194-2.8653l-1.2172-5.452q-0.52293-2.3423-2.8653-1.8194l-7.5565 1.687q-2.3423 0.52293-1.8194 2.8653z" clip-path="url(#a)" fill="#fff" stroke="#fff"/>
<g clip-path="url(#a)">
<defs>
<path id="aa" d="m64.406 67.281v-10.391q-4.9844 4.6406-10.625 6.9219-5.6406 2.2969-11.984 2.2969-12.5 0-19.141-7.6406t-6.6406-22.094q0-14.406 6.6406-22.047t19.141-7.6406q6.3438 0 11.984 2.2969t10.625 6.9375v-10.312q-5.1719-3.5156-10.969-5.2812-5.7812-1.75-12.219-1.75-16.562 0-26.094 10.125-9.5156 10.141-9.5156 27.672 0 17.578 9.5156 27.703 9.5312 10.141 26.094 10.141 6.5312 0 12.312-1.7344 5.7969-1.7344 10.875-5.2031z"/>
</defs>
<g transform="translate(114.84 758.74) rotate(77.415) scale(.08 -.08)">
<use xlink:href="#aa"/>
</g>
</g>
<path d="m100.2 764.6 1.0026-4.4907q0.52293-2.3423-1.8194-2.8653l-7.5565-1.687q-2.3423-0.52293-2.8653 1.8194l-1.0026 4.4907q-0.52293 2.3423 1.8194 2.8653l7.5565 1.687q2.3423 0.52293 2.8653-1.8194z" clip-path="url(#a)" fill="#fff" stroke="#fff"/>
<g clip-path="url(#a)">
<g transform="translate(96.233 763.71) rotate(-77.415) scale(.08 -.08)">
<use xlink:href="#v"/>
</g>
</g>
<path d="m122.85 846.48v35.285q0 2.4 2.4 2.4h7.7425q2.4 0 2.4-2.4v-35.285q0-2.4-2.4-2.4h-7.7425q-2.4 0-2.4 2.4z" clip-path="url(#a)" fill="#fff" stroke="#fff"/>
<g clip-path="url(#a)">
<g transform="translate(126.91 846.48) rotate(90) scale(.08 -.08)">
<use xlink:href="#l"/>
<use x="60.818359" xlink:href="#e"/>
<use x="122.341797" xlink:href="#g"/>
<use x="163.439453" xlink:href="#k"/>
<use x="260.851562" xlink:href="#h"/>
<use x="288.634766" xlink:href="#i"/>
<use x="352.013672" xlink:href="#f"/>
<use x="413.292969" xlink:href="#j"/>
</g>
</g>
<path d="m168.9 846.48v35.285q0 2.4 2.4 2.4h7.7425q2.4 0 2.4-2.4v-35.285q0-2.4-2.4-2.4h-7.7425q-2.4 0-2.4 2.4z" clip-path="url(#a)" fill="#fff" stroke="#fff"/>
<g clip-path="url(#a)">
<g transform="translate(172.96 846.48) rotate(90) scale(.08 -.08)">
<use xlink:href="#l"/>
<use x="60.818359" xlink:href="#e"/>
<use x="122.341797" xlink:href="#g"/>
<use x="163.439453" xlink:href="#k"/>
<use x="260.851562" xlink:href="#h"/>
<use x="288.634766" xlink:href="#i"/>
<use x="352.013672" xlink:href="#f"/>
<use x="413.292969" xlink:href="#j"/>
</g>
</g>
<path d="m214.95 846.48v35.285q0 2.4 2.4 2.4h7.7425q2.4 0 2.4-2.4v-35.285q0-2.4-2.4-2.4h-7.7425q-2.4 0-2.4 2.4z" clip-path="url(#a)" fill="#fff" stroke="#fff"/>
<g clip-path="url(#a)">
<g transform="translate(219.01 846.48) rotate(90) scale(.08 -.08)">
<use xlink:href="#l"/>
<use x="60.818359" xlink:href="#e"/>
<use x="122.341797" xlink:href="#g"/>
<use x="163.439453" xlink:href="#k"/>
<use x="260.851562" xlink:href="#h"/>
<use x="288.634766" xlink:href="#i"/>
<use x="352.013672" xlink:href="#f"/>
<use x="413.292969" xlink:href="#j"/>
</g>
</g>
<path d="m379.23 490.62 0.23543-5.5813q0.10115-2.3979-2.2967-2.499l-7.7356-0.32631q-2.3979-0.10115-2.499 2.2967l-0.23543 5.5813q-0.10115 2.3979 2.2967 2.499l7.7356 0.32631q2.3979 0.10115 2.499-2.2967z" clip-path="url(#a)" fill="#fff" stroke="#fff"/>
<g clip-path="url(#a)">
<g transform="translate(375.17 490.45) rotate(-87.585) scale(.08 -.08)">
<use xlink:href="#aa"/>
</g>
</g>
<path d="m355.98 491.03 0.62434-5.5236q0.26956-2.3848-2.1153-2.6544l-7.6935-0.86962q-2.3848-0.26956-2.6544 2.1153l-0.62434 5.5236q-0.26956 2.3848 2.1153 2.6544l7.6935 0.86962q2.3848 0.26956 2.6544-2.1153z" clip-path="url(#a)" fill="#fff" stroke="#fff"/>
<g clip-path="url(#a)">
<defs>
<path id="an" d="m44.391 34.188q3.1719-1.0781 6.1719-4.5938t6.0312-9.6719l10.016-19.922h-10.609l-9.3125 18.703q-3.625 7.3281-7.0156 9.7188t-9.25 2.3906h-10.75v-30.812h-9.8594v72.906h22.266q12.5 0 18.656-5.2344 6.1562-5.2188 6.1562-15.766 0-6.8906-3.2031-11.438-3.2031-4.5312-9.2969-6.2812zm-24.719 30.609v-25.875h12.406q7.125 0 10.766 3.2969t3.6406 9.6875-3.6406 9.6406-10.766 3.25z"/>
</defs>
<g transform="translate(351.94 490.57) rotate(-83.551) scale(.08 -.08)">
<use xlink:href="#an"/>
</g>
</g>
<path d="m430.86 222.25 3.3356 3.7982q1.5837 1.8033 3.387 0.21962l5.8176-5.109q1.8033-1.5837 0.21962-3.387l-3.3356-3.7982q-1.5837-1.8033-3.387-0.21962l-5.8176 5.109q-1.8033 1.5837-0.21962 3.387z" clip-path="url(#a)" fill="#fff" stroke="#fff"/>
<g clip-path="url(#a)">
<defs>
<path id="aj" d="m9.8125 72.906h46.094v-8.3125h-36.234v-21.578h34.719v-8.2969h-34.719v-26.422h37.109v-8.2969h-46.969z"/>
</defs>
<g transform="translate(433.91 219.57) rotate(48.71) scale(.08 -.08)">
<use xlink:href="#aj"/>
</g>
</g>
<path d="m353.11 846.48v35.285q0 2.4 2.4 2.4h7.7425q2.4 0 2.4-2.4v-35.285q0-2.4-2.4-2.4h-7.7425q-2.4 0-2.4 2.4z" clip-path="url(#a)" fill="#fff" stroke="#fff"/>
<g clip-path="url(#a)">
<g transform="translate(357.17 846.48) rotate(90) scale(.08 -.08)">
<use xlink:href="#l"/>
<use x="60.818359" xlink:href="#e"/>
<use x="122.341797" xlink:href="#g"/>
<use x="163.439453" xlink:href="#k"/>
<use x="260.851562" xlink:href="#h"/>
<use x="288.634766" xlink:href="#i"/>
<use x="352.013672" xlink:href="#f"/>
<use x="413.292969" xlink:href="#j"/>
</g>
</g>
<path d="m905.73 846.48v35.285q0 2.4 2.4 2.4h7.7425q2.4 0 2.4-2.4v-35.285q0-2.4-2.4-2.4h-7.7425q-2.4 0-2.4 2.4z" clip-path="url(#a)" fill="#fff" stroke="#fff"/>
<g clip-path="url(#a)">
<g transform="translate(909.79 846.48) rotate(90) scale(.08 -.08)">
<use xlink:href="#l"/>
<use x="60.818359" xlink:href="#e"/>
<use x="122.341797" xlink:href="#g"/>
<use x="163.439453" xlink:href="#k"/>
<use x="260.851562" xlink:href="#h"/>
<use x="288.634766" xlink:href="#i"/>
<use x="352.013672" xlink:href="#f"/>
<use x="413.292969" xlink:href="#j"/>
</g>
</g>
<path d="m1011.1 657.85 0.023559-4.8237q0.011721-2.4-2.3882-2.4117l-7.7424-0.037815q-2.4-0.011721-2.4117 2.3882l-0.023559 4.8237q-0.011721 2.4 2.3882 2.4117l7.7424 0.037815q2.4 0.011721 2.4117-2.3882z" clip-path="url(#a)" fill="#fff" stroke="#fff"/>
<g clip-path="url(#a)">
<defs>
<path id="y" d="m19.672 64.797v-27.391h12.406q6.8906 0 10.641 3.5625 3.7656 3.5625 3.7656 10.156 0 6.5469-3.7656 10.109-3.75 3.5625-10.641 3.5625zm-9.8594 8.1094h22.266q12.266 0 18.531-5.5469 6.2812-5.5469 6.2812-16.234 0-10.797-6.2812-16.312-6.2656-5.5156-18.531-5.5156h-12.406v-29.297h-9.8594z"/>
</defs>
<g transform="translate(1007.1 657.83) rotate(-89.72) scale(.08 -.08)">
<use xlink:href="#y"/>
</g>
</g>
<path d="m940.34 660.63 2.378-5.3504q0.97474-2.1931-1.2184-3.1679l-7.0752-3.1446q-2.1931-0.97474-3.1679 1.2184l-2.378 5.3504q-0.97474 2.1931 1.2184 3.1679l7.0752 3.1446q2.1931 0.97474 3.1679-1.2184z" clip-path="url(#a)" fill="#fff" stroke="#fff"/>
<g clip-path="url(#a)">
<g transform="translate(936.62 658.98) rotate(-66.037) scale(.08 -.08)">
<use xlink:href="#am"/>
</g>
</g>
<path d="m987.64 659.05 0.81923-5.4108q0.35928-2.373-2.0137-2.7322l-7.6553-1.159q-2.373-0.35928-2.7322 2.0137l-0.81923 5.4108q-0.35928 2.373 2.0137 2.7322l7.6553 1.159q2.373 0.35928 2.7322-2.0137z" clip-path="url(#a)" fill="#fff" stroke="#fff"/>
<g clip-path="url(#a)">
<g transform="translate(983.62 658.44) rotate(-81.39) scale(.08 -.08)">
<use xlink:href="#p"/>
</g>
</g>
<path d="m1021.3 653.57 0.76745 5.4184q0.33657 2.3763 2.7129 2.0397l7.666-1.0858q2.3763-0.33657 2.0397-2.7129l-0.76745-5.4184q-0.33657-2.3763-2.7129-2.0397l-7.666 1.0858q-2.3763 0.33657-2.0397 2.7129z" clip-path="url(#a)" fill="#fff" stroke="#fff"/>
<g clip-path="url(#a)">
<g transform="translate(1025.3 653) rotate(81.938) scale(.08 -.08)">
<use xlink:href="#p"/>
</g>
</g>
<path d="m1071.9 554.97 4.4018 3.2515q1.9304 1.426 3.3564-0.50448l4.6002-6.2277q1.426-1.9304-0.50448-3.3564l-4.4018-3.2515q-1.9304-1.426-3.3564 0.50448l-4.6002 6.2277q-1.426 1.9304 0.50448 3.3564z" clip-path="url(#a)" fill="#fff" stroke="#fff"/>
<g clip-path="url(#a)">
<g transform="translate(1074.3 551.7) rotate(36.452) scale(.08 -.08)">
<use xlink:href="#p"/>
</g>
</g>
<path d="m997.83 846.48v35.285q0 2.4 2.4 2.4h7.7425q2.4 0 2.4-2.4v-35.285q0-2.4-2.4-2.4h-7.7425q-2.4 0-2.4 2.4z" clip-path="url(#a)" fill="#fff" stroke="#fff"/>
<g clip-path="url(#a)">
<g transform="translate(1001.9 846.48) rotate(90) scale(.08 -.08)">
<use xlink:href="#l"/>
<use x="60.818359" xlink:href="#e"/>
<use x="122.341797" xlink:href="#g"/>
<use x="163.439453" xlink:href="#k"/>
<use x="260.851562" xlink:href="#h"/>
<use x="288.634766" xlink:href="#i"/>
<use x="352.013672" xlink:href="#f"/>
<use x="413.292969" xlink:href="#j"/>
</g>
</g>
<path d="m1688.6 846.48v35.285q0 2.4 2.4 2.4h7.7425q2.4 0 2.4-2.4v-35.285q0-2.4-2.4-2.4h-7.7425q-2.4 0-2.4 2.4z" clip-path="url(#a)" fill="#fff" stroke="#fff"/>
<g clip-path="url(#a)">
<g transform="translate(1692.7 846.48) rotate(90) scale(.08 -.08)">
<use xlink:href="#l"/>
<use x="60.818359" xlink:href="#e"/>
<use x="122.341797" xlink:href="#g"/>
<use x="163.439453" xlink:href="#k"/>
<use x="260.851562" xlink:href="#h"/>
<use x="288.634766" xlink:href="#i"/>
<use x="352.013672" xlink:href="#f"/>
<use x="413.292969" xlink:href="#j"/>
</g>
</g>
<path d="m76.795 846.48v35.285q0 2.4 2.4 2.4h7.7425q2.4 0 2.4-2.4v-35.285q0-2.4-2.4-2.4h-7.7425q-2.4 0-2.4 2.4z" clip-path="url(#a)" fill="#fff" stroke="#fff"/>
<g clip-path="url(#a)">
<g transform="translate(80.859 846.48) rotate(90) scale(.08 -.08)">
<use xlink:href="#l"/>
<use x="60.818359" xlink:href="#e"/>
<use x="122.341797" xlink:href="#g"/>
<use x="163.439453" xlink:href="#k"/>
<use x="260.851562" xlink:href="#h"/>
<use x="288.634766" xlink:href="#i"/>
<use x="352.013672" xlink:href="#f"/>
<use x="413.292969" xlink:href="#j"/>
</g>
</g>
<path d="m307.05 846.48v35.285q0 2.4 2.4 2.4h7.7425q2.4 0 2.4-2.4v-35.285q0-2.4-2.4-2.4h-7.7425q-2.4 0-2.4 2.4z" clip-path="url(#a)" fill="#fff" stroke="#fff"/>
<g clip-path="url(#a)">
<g transform="translate(311.12 846.48) rotate(90) scale(.08 -.08)">
<use xlink:href="#l"/>
<use x="60.818359" xlink:href="#e"/>
<use x="122.341797" xlink:href="#g"/>
<use x="163.439453" xlink:href="#k"/>
<use x="260.851562" xlink:href="#h"/>
<use x="288.634766" xlink:href="#i"/>
<use x="352.013672" xlink:href="#f"/>
<use x="413.292969" xlink:href="#j"/>
</g>
</g>
<path d="m486.29 542.7 0.088778 4.8229q0.04417 2.3996 2.4438 2.3554l7.7412-0.1425q2.3996-0.044171 2.3554-2.4438l-0.088778-4.8229q-0.04417-2.3996-2.4438-2.3554l-7.7412 0.1425q-2.3996 0.04417-2.3554 2.4438z" clip-path="url(#a)" fill="#fff" stroke="#fff"/>
<g clip-path="url(#a)">
<g transform="translate(490.36 542.63) rotate(88.945) scale(.08 -.08)">
<use xlink:href="#y"/>
</g>
</g>
<path d="m452.34 548.66 0.83144-5.409q0.36463-2.3721-2.0075-2.7368l-7.6526-1.1763q-2.3721-0.36463-2.7368 2.0075l-0.83144 5.409q-0.36463 2.3721 2.0075 2.7368l7.6526 1.1763q2.3721 0.36463 2.7368-2.0075z" clip-path="url(#a)" fill="#fff" stroke="#fff"/>
<g clip-path="url(#a)">
<g transform="translate(448.32 548.04) rotate(-81.261) scale(.08 -.08)">
<use xlink:href="#p"/>
</g>
</g>
<path d="m475.68 547.72 0.31058-4.5908q0.162-2.3945-2.2325-2.5565l-7.7248-0.52261q-2.3945-0.162-2.5565 2.2325l-0.31058 4.5908q-0.162 2.3945 2.2325 2.5565l7.7248 0.52261q2.3945 0.162 2.5565-2.2325z" clip-path="url(#a)" fill="#fff" stroke="#fff"/>
<g clip-path="url(#a)">
<g transform="translate(471.63 547.45) rotate(-86.13) scale(.08 -.08)">
<use xlink:href="#v"/>
</g>
</g>
<path d="m509.09 542.68 0.62186 5.9526q0.24937 2.387 2.6364 2.1376l7.7006-0.80447q2.387-0.24937 2.1376-2.6364l-0.62186-5.9526q-0.24937-2.387-2.6364-2.1376l-7.7006 0.80447q-2.387 0.24937-2.1376 2.6364z" clip-path="url(#a)" fill="#fff" stroke="#fff"/>
<g clip-path="url(#a)">
<defs>
<path id="ar" d="m9.8125 72.906h13.281l32.328-60.984v60.984h9.5625v-72.906h-13.281l-32.312 60.984v-60.984h-9.5781z"/>
</defs>
<g transform="translate(513.13 542.25) rotate(84.036) scale(.08 -.08)">
<use xlink:href="#ar"/>
</g>
</g>
<path d="m507.33 333.84 2.057 4.3632q1.0234 2.1708 3.1943 1.1474l7.0032-3.3017q2.1708-1.0234 1.1474-3.1943l-2.057-4.3632q-1.0234-2.1708-3.1943-1.1474l-7.0032 3.3017q-2.1708 1.0234-1.1474 3.1943z" clip-path="url(#a)" fill="#fff" stroke="#fff"/>
<g clip-path="url(#a)">
<g transform="translate(511.01 332.1) rotate(64.759) scale(.08 -.08)">
<use xlink:href="#y"/>
</g>
</g>
<path d="m491.26 846.48v35.285q0 2.4 2.4 2.4h7.7425q2.4 0 2.4-2.4v-35.285q0-2.4-2.4-2.4h-7.7425q-2.4 0-2.4 2.4z" clip-path="url(#a)" fill="#fff" stroke="#fff"/>
<g clip-path="url(#a)">
<g transform="translate(495.33 846.48) rotate(90) scale(.08 -.08)">
<use xlink:href="#l"/>
<use x="60.818359" xlink:href="#e"/>
<use x="122.341797" xlink:href="#g"/>
<use x="163.439453" xlink:href="#k"/>
<use x="260.851562" xlink:href="#h"/>
<use x="288.634766" xlink:href="#i"/>
<use x="352.013672" xlink:href="#f"/>
<use x="413.292969" xlink:href="#j"/>
</g>
</g>
<path d="m859.68 846.48v35.285q0 2.4 2.4 2.4h7.7425q2.4 0 2.4-2.4v-35.285q0-2.4-2.4-2.4h-7.7425q-2.4 0-2.4 2.4z" clip-path="url(#a)" fill="#fff" stroke="#fff"/>
<g clip-path="url(#a)">
<g transform="translate(863.74 846.48) rotate(90) scale(.08 -.08)">
<use xlink:href="#l"/>
<use x="60.818359" xlink:href="#e"/>
<use x="122.341797" xlink:href="#g"/>
<use x="163.439453" xlink:href="#k"/>
<use x="260.851562" xlink:href="#h"/>
<use x="288.634766" xlink:href="#i"/>
<use x="352.013672" xlink:href="#f"/>
<use x="413.292969" xlink:href="#j"/>
</g>
</g>
<path d="m951.78 846.48v35.285q0 2.4 2.4 2.4h7.7425q2.4 0 2.4-2.4v-35.285q0-2.4-2.4-2.4h-7.7425q-2.4 0-2.4 2.4z" clip-path="url(#a)" fill="#fff" stroke="#fff"/>
<g clip-path="url(#a)">
<g transform="translate(955.84 846.48) rotate(90) scale(.08 -.08)">
<use xlink:href="#l"/>
<use x="60.818359" xlink:href="#e"/>
<use x="122.341797" xlink:href="#g"/>
<use x="163.439453" xlink:href="#k"/>
<use x="260.851562" xlink:href="#h"/>
<use x="288.634766" xlink:href="#i"/>
<use x="352.013672" xlink:href="#f"/>
<use x="413.292969" xlink:href="#j"/>
</g>
</g>
<path d="m1043.9 846.48v35.285q0 2.4 2.4 2.4h7.7425q2.4 0 2.4-2.4v-35.285q0-2.4-2.4-2.4h-7.7425q-2.4 0-2.4 2.4z" clip-path="url(#a)" fill="#fff" stroke="#fff"/>
<g clip-path="url(#a)">
<g transform="translate(1047.9 846.48) rotate(90) scale(.08 -.08)">
<use xlink:href="#l"/>
<use x="60.818359" xlink:href="#e"/>
<use x="122.341797" xlink:href="#g"/>
<use x="163.439453" xlink:href="#k"/>
<use x="260.851562" xlink:href="#h"/>
<use x="288.634766" xlink:href="#i"/>
<use x="352.013672" xlink:href="#f"/>
<use x="413.292969" xlink:href="#j"/>
</g>
</g>
<path d="m1152.3 711.72 0.20628-5.5824q0.088623-2.3984-2.3097-2.487l-7.7372-0.2859q-2.3984-0.088623-2.487 2.3097l-0.20628 5.5824q-0.088623 2.3984 2.3097 2.487l7.7372 0.2859q2.3984 0.088623 2.487-2.3097z" clip-path="url(#a)" fill="#fff" stroke="#fff"/>
<g clip-path="url(#a)">
<g transform="translate(1148.2 711.57) rotate(-87.884) scale(.08 -.08)">
<use xlink:href="#aa"/>
</g>
</g>
<path d="m1128.6 712.5 1.1522-4.4546q0.60101-2.3235-1.7225-2.9245l-7.4958-1.9389q-2.3235-0.60101-2.9245 1.7225l-1.1522 4.4546q-0.60101 2.3235 1.7225 2.9245l7.4958 1.9389q2.3235 0.60101 2.9245-1.7225z" clip-path="url(#a)" fill="#fff" stroke="#fff"/>
<g clip-path="url(#a)">
<g transform="translate(1124.6 711.48) rotate(-75.498) scale(.08 -.08)">
<use xlink:href="#v"/>
</g>
</g>
<path d="m1173.9 658.12 2.5595 4.3591q1.2152 2.0696 3.2848 0.8544l6.6766-3.9203q2.0696-1.2152 0.8544-3.2848l-2.5595-4.3591q-1.2152-2.0696-3.2848-0.8544l-6.6766 3.9203q-2.0696 1.2152-0.8544 3.2848z" clip-path="url(#a)" fill="#fff" stroke="#fff"/>
<g clip-path="url(#a)">
<g transform="translate(1177.5 656.07) rotate(59.58) scale(.08 -.08)">
<use xlink:href="#aj"/>
</g>
</g>
<path d="m1136 846.48v35.285q0 2.4 2.4 2.4h7.7425q2.4 0 2.4-2.4v-35.285q0-2.4-2.4-2.4h-7.7425q-2.4 0-2.4 2.4z" clip-path="url(#a)" fill="#fff" stroke="#fff"/>
<g clip-path="url(#a)">
<g transform="translate(1140.1 846.48) rotate(90) scale(.08 -.08)">
<use xlink:href="#l"/>
<use x="60.818359" xlink:href="#e"/>
<use x="122.341797" xlink:href="#g"/>
<use x="163.439453" xlink:href="#k"/>
<use x="260.851562" xlink:href="#h"/>
<use x="288.634766" xlink:href="#i"/>
<use x="352.013672" xlink:href="#f"/>
<use x="413.292969" xlink:href="#j"/>
</g>
</g>
<path d="m1274.1 846.48v35.285q0 2.4 2.4 2.4h7.7425q2.4 0 2.4-2.4v-35.285q0-2.4-2.4-2.4h-7.7425q-2.4 0-2.4 2.4z" clip-path="url(#a)" fill="#fff" stroke="#fff"/>
<g clip-path="url(#a)">
<g transform="translate(1278.2 846.48) rotate(90) scale(.08 -.08)">
<use xlink:href="#l"/>
<use x="60.818359" xlink:href="#e"/>
<use x="122.341797" xlink:href="#g"/>
<use x="163.439453" xlink:href="#k"/>
<use x="260.851562" xlink:href="#h"/>
<use x="288.634766" xlink:href="#i"/>
<use x="352.013672" xlink:href="#f"/>
<use x="413.292969" xlink:href="#j"/>
</g>
</g>
<path d="m1366.2 758.57v4.8238q0 2.4 2.4 2.4h7.7425q2.4 0 2.4-2.4v-4.8238q0-2.4-2.4-2.4h-7.7425q-2.4 0-2.4 2.4z" clip-path="url(#a)" fill="#fff" stroke="#fff"/>
<g clip-path="url(#a)">
<g transform="translate(1370.3 758.57) rotate(90) scale(.08 -.08)">
<use xlink:href="#y"/>
</g>
</g>
<path d="m1354.1 766.04 2.2312-4.997q0.9785-2.1915-1.213-3.17l-7.0698-3.1567q-2.1915-0.9785-3.17 1.213l-2.2312 4.997q-0.9785 2.1915 1.213 3.17l7.0698 3.1567q2.1915 0.9785 3.17-1.213z" clip-path="url(#a)" fill="#fff" stroke="#fff"/>
<g clip-path="url(#a)">
<g transform="translate(1350.4 764.38) rotate(-65.939) scale(.08 -.08)">
<use xlink:href="#p"/>
</g>
</g>
<path d="m1388.6 760.73 2.5115 5.6248q0.9785 2.1915 3.17 1.213l7.0698-3.1567q2.1915-0.9785 1.213-3.17l-2.5115-5.6248q-0.9785-2.1915-3.17-1.213l-7.0698 3.1567q-2.1915 0.9785-1.213 3.17z" clip-path="url(#a)" fill="#fff" stroke="#fff"/>
<g clip-path="url(#a)">
<g transform="translate(1392.3 759.07) rotate(65.939) scale(.08 -.08)">
<use xlink:href="#ap"/>
</g>
</g>
<path d="m1366.2 846.48v35.285q0 2.4 2.4 2.4h7.7425q2.4 0 2.4-2.4v-35.285q0-2.4-2.4-2.4h-7.7425q-2.4 0-2.4 2.4z" clip-path="url(#a)" fill="#fff" stroke="#fff"/>
<g clip-path="url(#a)">
<g transform="translate(1370.3 846.48) rotate(90) scale(.08 -.08)">
<use xlink:href="#l"/>
<use x="60.818359" xlink:href="#e"/>
<use x="122.341797" xlink:href="#g"/>
<use x="163.439453" xlink:href="#k"/>
<use x="260.851562" xlink:href="#h"/>
<use x="288.634766" xlink:href="#i"/>
<use x="352.013672" xlink:href="#f"/>
<use x="413.292969" xlink:href="#j"/>
</g>
</g>
<path d="m399.16 846.48v35.285q0 2.4 2.4 2.4h7.7425q2.4 0 2.4-2.4v-35.285q0-2.4-2.4-2.4h-7.7425q-2.4 0-2.4 2.4z" clip-path="url(#a)" fill="#fff" stroke="#fff"/>
<g clip-path="url(#a)">
<g transform="translate(403.22 846.48) rotate(90) scale(.08 -.08)">
<use xlink:href="#l"/>
<use x="60.818359" xlink:href="#e"/>
<use x="122.341797" xlink:href="#g"/>
<use x="163.439453" xlink:href="#k"/>
<use x="260.851562" xlink:href="#h"/>
<use x="288.634766" xlink:href="#i"/>
<use x="352.013672" xlink:href="#f"/>
<use x="413.292969" xlink:href="#j"/>
</g>
</g>
<path d="m445.21 846.48v35.285q0 2.4 2.4 2.4h7.7425q2.4 0 2.4-2.4v-35.285q0-2.4-2.4-2.4h-7.7425q-2.4 0-2.4 2.4z" clip-path="url(#a)" fill="#fff" stroke="#fff"/>
<g clip-path="url(#a)">
<g transform="translate(449.27 846.48) rotate(90) scale(.08 -.08)">
<use xlink:href="#l"/>
<use x="60.818359" xlink:href="#e"/>
<use x="122.341797" xlink:href="#g"/>
<use x="163.439453" xlink:href="#k"/>
<use x="260.851562" xlink:href="#h"/>
<use x="288.634766" xlink:href="#i"/>
<use x="352.013672" xlink:href="#f"/>
<use x="413.292969" xlink:href="#j"/>
</g>
</g>
<path d="m537.31 846.48v35.285q0 2.4 2.4 2.4h7.7425q2.4 0 2.4-2.4v-35.285q0-2.4-2.4-2.4h-7.7425q-2.4 0-2.4 2.4z" clip-path="url(#a)" fill="#fff" stroke="#fff"/>
<g clip-path="url(#a)">
<g transform="translate(541.38 846.48) rotate(90) scale(.08 -.08)">
<use xlink:href="#l"/>
<use x="60.818359" xlink:href="#e"/>
<use x="122.341797" xlink:href="#g"/>
<use x="163.439453" xlink:href="#k"/>
<use x="260.851562" xlink:href="#h"/>
<use x="288.634766" xlink:href="#i"/>
<use x="352.013672" xlink:href="#f"/>
<use x="413.292969" xlink:href="#j"/>
</g>
</g>
<path d="m478.05 605.41 1.6623-5.2139q0.72899-2.2866-1.5576-3.0156l-7.3767-2.3518q-2.2866-0.72899-3.0156 1.5576l-1.6623 5.2139q-0.72899 2.2866 1.5576 3.0156l7.3767 2.3518q2.2866 0.72899 3.0156-1.5576z" clip-path="url(#a)" fill="#fff" stroke="#fff"/>
<g clip-path="url(#a)">
<g transform="translate(474.18 604.17) rotate(-72.317) scale(.08 -.08)">
<use xlink:href="#p"/>
</g>
</g>
<path d="m558.49 599.1 0.58692 5.0447q0.27735 2.3839 2.6613 2.1066l7.6906-0.89475q2.3839-0.27735 2.1066-2.6613l-0.58692-5.0447q-0.27735-2.3839-2.6613-2.1066l-7.6906 0.89475q-2.3839 0.27735-2.1066 2.6613z" clip-path="url(#a)" fill="#fff" stroke="#fff"/>
<g clip-path="url(#a)">
<g transform="translate(562.53 598.63) rotate(83.364) scale(.08 -.08)">
<use xlink:href="#al"/>
</g>
</g>
<path d="m576.62 445.47 3.3823 4.3021q1.4833 1.8867 3.3701 0.4034l6.0867-4.7853q1.8867-1.4833 0.4034-3.3701l-3.3823-4.3021q-1.4833-1.8867-3.3701-0.4034l-6.0867 4.7853q-1.8867 1.4833-0.4034 3.3701z" clip-path="url(#a)" fill="#fff" stroke="#fff"/>
<g clip-path="url(#a)">
<g transform="translate(579.81 442.96) rotate(51.826) scale(.08 -.08)">
<use xlink:href="#p"/>
</g>
</g>
<path d="m583.37 846.48v35.285q0 2.4 2.4 2.4h7.7425q2.4 0 2.4-2.4v-35.285q0-2.4-2.4-2.4h-7.7425q-2.4 0-2.4 2.4z" clip-path="url(#a)" fill="#fff" stroke="#fff"/>
<g clip-path="url(#a)">
<g transform="translate(587.43 846.48) rotate(90) scale(.08 -.08)">
<use xlink:href="#l"/>
<use x="60.818359" xlink:href="#e"/>
<use x="122.341797" xlink:href="#g"/>
<use x="163.439453" xlink:href="#k"/>
<use x="260.851562" xlink:href="#h"/>
<use x="288.634766" xlink:href="#i"/>
<use x="352.013672" xlink:href="#f"/>
<use x="413.292969" xlink:href="#j"/>
</g>
</g>
<path d="m1089.9 846.48v35.285q0 2.4 2.4 2.4h7.7425q2.4 0 2.4-2.4v-35.285q0-2.4-2.4-2.4h-7.7425q-2.4 0-2.4 2.4z" clip-path="url(#a)" fill="#fff" stroke="#fff"/>
<g clip-path="url(#a)">
<g transform="translate(1094 846.48) rotate(90) scale(.08 -.08)">
<use xlink:href="#l"/>
<use x="60.818359" xlink:href="#e"/>
<use x="122.341797" xlink:href="#g"/>
<use x="163.439453" xlink:href="#k"/>
<use x="260.851562" xlink:href="#h"/>
<use x="288.634766" xlink:href="#i"/>
<use x="352.013672" xlink:href="#f"/>
<use x="413.292969" xlink:href="#j"/>
</g>
</g>
<path d="m1216.2 760.11 1.0026 4.4907q0.52293 2.3423 2.8653 1.8194l7.5565-1.687q2.3423-0.52293 1.8194-2.8653l-1.0026-4.4907q-0.52293-2.3423-2.8653-1.8194l-7.5565 1.687q-2.3423 0.52293-1.8194 2.8653z" clip-path="url(#a)" fill="#fff" stroke="#fff"/>
<g clip-path="url(#a)">
<g transform="translate(1220.2 759.22) rotate(77.415) scale(.08 -.08)">
<use xlink:href="#v"/>
</g>
</g>
<path d="m1205.3 765.02 1.1924-5.341q0.52293-2.3423-1.8194-2.8653l-7.5565-1.687q-2.3423-0.52293-2.8653 1.8194l-1.1924 5.341q-0.52293 2.3423 1.8194 2.8653l7.5565 1.687q2.3423 0.52293 2.8653-1.8194z" clip-path="url(#a)" fill="#fff" stroke="#fff"/>
<g clip-path="url(#a)">
<g transform="translate(1201.4 764.14) rotate(-77.415) scale(.08 -.08)">
<use xlink:href="#p"/>
</g>
</g>
<path d="m1228.1 846.48v35.285q0 2.4 2.4 2.4h7.7425q2.4 0 2.4-2.4v-35.285q0-2.4-2.4-2.4h-7.7425q-2.4 0-2.4 2.4z" clip-path="url(#a)" fill="#fff" stroke="#fff"/>
<g clip-path="url(#a)">
<g transform="translate(1232.2 846.48) rotate(90) scale(.08 -.08)">
<use xlink:href="#l"/>
<use x="60.818359" xlink:href="#e"/>
<use x="122.341797" xlink:href="#g"/>
<use x="163.439453" xlink:href="#k"/>
<use x="260.851562" xlink:href="#h"/>
<use x="288.634766" xlink:href="#i"/>
<use x="352.013672" xlink:href="#f"/>
<use x="413.292969" xlink:href="#j"/>
</g>
</g>
<path d="m1320.2 846.48v35.285q0 2.4 2.4 2.4h7.7425q2.4 0 2.4-2.4v-35.285q0-2.4-2.4-2.4h-7.7425q-2.4 0-2.4 2.4z" clip-path="url(#a)" fill="#fff" stroke="#fff"/>
<g clip-path="url(#a)">
<g transform="translate(1324.3 846.48) rotate(90) scale(.08 -.08)">
<use xlink:href="#l"/>
<use x="60.818359" xlink:href="#e"/>
<use x="122.341797" xlink:href="#g"/>
<use x="163.439453" xlink:href="#k"/>
<use x="260.851562" xlink:href="#h"/>
<use x="288.634766" xlink:href="#i"/>
<use x="352.013672" xlink:href="#f"/>
<use x="413.292969" xlink:href="#j"/>
</g>
</g>
<path d="m1412.3 846.48v35.285q0 2.4 2.4 2.4h7.7425q2.4 0 2.4-2.4v-35.285q0-2.4-2.4-2.4h-7.7425q-2.4 0-2.4 2.4z" clip-path="url(#a)" fill="#fff" stroke="#fff"/>
<g clip-path="url(#a)">
<g transform="translate(1416.4 846.48) rotate(90) scale(.08 -.08)">
<use xlink:href="#l"/>
<use x="60.818359" xlink:href="#e"/>
<use x="122.341797" xlink:href="#g"/>
<use x="163.439453" xlink:href="#k"/>
<use x="260.851562" xlink:href="#h"/>
<use x="288.634766" xlink:href="#i"/>
<use x="352.013672" xlink:href="#f"/>
<use x="413.292969" xlink:href="#j"/>
</g>
</g>
<path d="m1458.4 846.48v35.285q0 2.4 2.4 2.4h7.7425q2.4 0 2.4-2.4v-35.285q0-2.4-2.4-2.4h-7.7425q-2.4 0-2.4 2.4z" clip-path="url(#a)" fill="#fff" stroke="#fff"/>
<g clip-path="url(#a)">
<g transform="translate(1462.4 846.48) rotate(90) scale(.08 -.08)">
<use xlink:href="#l"/>
<use x="60.818359" xlink:href="#e"/>
<use x="122.341797" xlink:href="#g"/>
<use x="163.439453" xlink:href="#k"/>
<use x="260.851562" xlink:href="#h"/>
<use x="288.634766" xlink:href="#i"/>
<use x="352.013672" xlink:href="#f"/>
<use x="413.292969" xlink:href="#j"/>
</g>
</g>
<path d="m1588.2 713.59 2.0887-4.3481q1.0392-2.1633-1.1241-3.2025l-6.979-3.3525q-2.1633-1.0392-3.2025 1.1241l-2.0887 4.3481q-1.0392 2.1633 1.1241 3.2025l6.979 3.3525q2.1633 1.0392 3.2025-1.1241z" clip-path="url(#a)" fill="#fff" stroke="#fff"/>
<g clip-path="url(#a)">
<g transform="translate(1584.5 711.83) rotate(-64.342) scale(.08 -.08)">
<use xlink:href="#y"/>
</g>
</g>
<path d="m1680.5 759.93 1.6515 4.7776q0.7841 2.2683 3.0524 1.4842l7.3176-2.5295q2.2683-0.7841 1.4842-3.0524l-1.6515-4.7776q-0.7841-2.2683-3.0524-1.4842l-7.3176 2.5295q-2.2683 0.7841-1.4842 3.0524z" clip-path="url(#a)" fill="#fff" stroke="#fff"/>
<g clip-path="url(#a)">
<g transform="translate(1684.3 758.6) rotate(70.931) scale(.08 -.08)">
<use xlink:href="#aj"/>
</g>
</g>
<path d="m1635.7 660.32 0.40058-5.4578q0.17568-2.3936-2.2179-2.5692l-7.7217-0.56674q-2.3936-0.17568-2.5692 2.2179l-0.40058 5.4578q-0.17568 2.3936 2.2179 2.5692l7.7217 0.56674q2.3936 0.17568 2.5692-2.2179z" clip-path="url(#a)" fill="#fff" stroke="#fff"/>
<g clip-path="url(#a)">
<g transform="translate(1631.6 660.02) rotate(-85.802) scale(.08 -.08)">
<use xlink:href="#p"/>
</g>
</g>
<path d="m1524.5 882.71 7.6882-34.437q0.52293-2.3423-1.8194-2.8653l-7.5565-1.687q-2.3423-0.52293-2.8653 1.8194l-7.6882 34.437q-0.52293 2.3423 1.8194 2.8653l7.5565 1.687q2.3423 0.52293 2.8653-1.8194z" clip-path="url(#a)" fill="#fff" stroke="#fff"/>
<g clip-path="url(#a)">
<g transform="translate(1520.5 881.82) rotate(-77.415) scale(.08 -.08)">
<use xlink:href="#l"/>
<use x="60.818359" xlink:href="#e"/>
<use x="122.341797" xlink:href="#g"/>
<use x="163.439453" xlink:href="#k"/>
<use x="260.851562" xlink:href="#h"/>
<use x="288.634766" xlink:href="#i"/>
<use x="352.013672" xlink:href="#f"/>
<use x="413.292969" xlink:href="#j"/>
</g>
</g>
<path d="m1535.2 848.27 7.6882 34.437q0.52293 2.3423 2.8653 1.8194l7.5565-1.687q2.3423-0.52293 1.8194-2.8653l-7.6882-34.437q-0.52293-2.3423-2.8653-1.8194l-7.5565 1.687q-2.3423 0.52293-1.8194 2.8653z" clip-path="url(#a)" fill="#fff" stroke="#fff"/>
<g clip-path="url(#a)">
<g transform="translate(1539.2 847.39) rotate(77.415) scale(.08 -.08)">
<use xlink:href="#l"/>
<use x="60.818359" xlink:href="#e"/>
<use x="122.341797" xlink:href="#g"/>
<use x="163.439453" xlink:href="#k"/>
<use x="260.851562" xlink:href="#h"/>
<use x="288.634766" xlink:href="#i"/>
<use x="352.013672" xlink:href="#f"/>
<use x="413.292969" xlink:href="#j"/>
</g>
</g>
<path d="m519.32 661.25 3.1445-4.4789q1.3791-1.9642-0.58518-3.3433l-6.3367-4.4489q-1.9642-1.3791-3.3433 0.58518l-3.1445 4.4789q-1.3791 1.9642 0.58518 3.3433l6.3367 4.4489q1.9642 1.3791 3.3433-0.58518z" clip-path="url(#a)" fill="#fff" stroke="#fff"/>
<g clip-path="url(#a)">
<g transform="translate(516 658.91) rotate(-54.928) scale(.08 -.08)">
<use xlink:href="#p"/>
</g>
</g>
<path d="m647.32 654.12 0.84095 4.7499q0.41841 2.3632 2.7817 1.9448l7.6239-1.3498q2.3632-0.41841 1.9448-2.7817l-0.84095-4.7499q-0.41841-2.3632-2.7817-1.9448l-7.6239 1.3498q-2.3632 0.41841-1.9448 2.7817z" clip-path="url(#a)" fill="#fff" stroke="#fff"/>
<g clip-path="url(#a)">
<g transform="translate(651.32 653.41) rotate(79.96) scale(.08 -.08)">
<use xlink:href="#y"/>
</g>
</g>
<path d="m624.55 653.3 0.14039 4.5991q0.073227 2.3989 2.4721 2.3257l7.7389-0.23623q2.3989-0.073227 2.3257-2.4721l-0.14039-4.5991q-0.073227-2.3989-2.4721-2.3257l-7.7389 0.23623q-2.3989 0.073227-2.3257 2.4721z" clip-path="url(#a)" fill="#fff" stroke="#fff"/>
<g clip-path="url(#a)">
<g transform="translate(628.62 653.17) rotate(88.252) scale(.08 -.08)">
<use xlink:href="#v"/>
</g>
</g>
<path d="m698 555.17 4.5132 3.0951q1.9793 1.3574 3.3366-0.62193l4.3789-6.3853q1.3574-1.9793-0.62193-3.3366l-4.5132-3.0951q-1.9793-1.3574-3.3366 0.62193l-4.3789 6.3853q-1.3574 1.9793 0.62193 3.3366z" clip-path="url(#a)" fill="#fff" stroke="#fff"/>
<g clip-path="url(#a)">
<g transform="translate(700.3 551.82) rotate(34.442) scale(.08 -.08)">
<use xlink:href="#p"/>
</g>
</g>
<path d="m675.47 846.48v35.285q0 2.4 2.4 2.4h7.7425q2.4 0 2.4-2.4v-35.285q0-2.4-2.4-2.4h-7.7425q-2.4 0-2.4 2.4z" clip-path="url(#a)" fill="#fff" stroke="#fff"/>
<g clip-path="url(#a)">
<g transform="translate(679.53 846.48) rotate(90) scale(.08 -.08)">
<use xlink:href="#l"/>
<use x="60.818359" xlink:href="#e"/>
<use x="122.341797" xlink:href="#g"/>
<use x="163.439453" xlink:href="#k"/>
<use x="260.851562" xlink:href="#h"/>
<use x="288.634766" xlink:href="#i"/>
<use x="352.013672" xlink:href="#f"/>
<use x="413.292969" xlink:href="#j"/>
</g>
</g>
<path d="m1182 846.48v35.285q0 2.4 2.4 2.4h7.7425q2.4 0 2.4-2.4v-35.285q0-2.4-2.4-2.4h-7.7425q-2.4 0-2.4 2.4z" clip-path="url(#a)" fill="#fff" stroke="#fff"/>
<g clip-path="url(#a)">
<g transform="translate(1186.1 846.48) rotate(90) scale(.08 -.08)">
<use xlink:href="#l"/>
<use x="60.818359" xlink:href="#e"/>
<use x="122.341797" xlink:href="#g"/>
<use x="163.439453" xlink:href="#k"/>
<use x="260.851562" xlink:href="#h"/>
<use x="288.634766" xlink:href="#i"/>
<use x="352.013672" xlink:href="#f"/>
<use x="413.292969" xlink:href="#j"/>
</g>
</g>
<path d="m1630.6 759.63 1.2172 5.452q0.52293 2.3423 2.8653 1.8194l7.5565-1.687q2.3423-0.52293 1.8194-2.8653l-1.2172-5.452q-0.52293-2.3423-2.8653-1.8194l-7.5565 1.687q-2.3423 0.52293-1.8194 2.8653z" clip-path="url(#a)" fill="#fff" stroke="#fff"/>
<g clip-path="url(#a)">
<g transform="translate(1634.6 758.74) rotate(77.415) scale(.08 -.08)">
<use xlink:href="#aa"/>
</g>
</g>
<path d="m1619.9 764.6 1.0026-4.4907q0.52293-2.3423-1.8194-2.8653l-7.5565-1.687q-2.3423-0.52293-2.8653 1.8194l-1.0026 4.4907q-0.52293 2.3423 1.8194 2.8653l7.5565 1.687q2.3423 0.52293 2.8653-1.8194z" clip-path="url(#a)" fill="#fff" stroke="#fff"/>
<g clip-path="url(#a)">
<g transform="translate(1615.9 763.71) rotate(-77.415) scale(.08 -.08)">
<use xlink:href="#v"/>
</g>
</g>
<path d="m1642.6 846.48v35.285q0 2.4 2.4 2.4h7.7425q2.4 0 2.4-2.4v-35.285q0-2.4-2.4-2.4h-7.7425q-2.4 0-2.4 2.4z" clip-path="url(#a)" fill="#fff" stroke="#fff"/>
<g clip-path="url(#a)">
<g transform="translate(1646.6 846.48) rotate(90) scale(.08 -.08)">
<use xlink:href="#l"/>
<use x="60.818359" xlink:href="#e"/>
<use x="122.341797" xlink:href="#g"/>
<use x="163.439453" xlink:href="#k"/>
<use x="260.851562" xlink:href="#h"/>
<use x="288.634766" xlink:href="#i"/>
<use x="352.013672" xlink:href="#f"/>
<use x="413.292969" xlink:href="#j"/>
</g>
</g>
<path d="m629.42 846.48v35.285q0 2.4 2.4 2.4h7.7425q2.4 0 2.4-2.4v-35.285q0-2.4-2.4-2.4h-7.7425q-2.4 0-2.4 2.4z" clip-path="url(#a)" fill="#fff" stroke="#fff"/>
<g clip-path="url(#a)">
<g transform="translate(633.48 846.48) rotate(90) scale(.08 -.08)">
<use xlink:href="#l"/>
<use x="60.818359" xlink:href="#e"/>
<use x="122.341797" xlink:href="#g"/>
<use x="163.439453" xlink:href="#k"/>
<use x="260.851562" xlink:href="#h"/>
<use x="288.634766" xlink:href="#i"/>
<use x="352.013672" xlink:href="#f"/>
<use x="413.292969" xlink:href="#j"/>
</g>
</g>
<path d="m794.03 707.09 1.0149 5.4933q0.43604 2.3601 2.7961 1.924l7.6136-1.4067q2.3601-0.43604 1.924-2.7961l-1.0149-5.4933q-0.43604-2.3601-2.7961-1.924l-7.6136 1.4067q-2.3601 0.43604-1.924 2.7961z" clip-path="url(#a)" fill="#fff" stroke="#fff"/>
<g clip-path="url(#a)">
<g transform="translate(798.03 706.35) rotate(79.532) scale(.08 -.08)">
<use xlink:href="#aa"/>
</g>
</g>
<path d="m760.03 712.96 1.392-5.3816q0.60101-2.3235-1.7225-2.9245l-7.4958-1.9389q-2.3235-0.60101-2.9245 1.7225l-1.392 5.3816q-0.60101 2.3235 1.7225 2.9245l7.4958 1.9389q2.3235 0.60101 2.9245-1.7225z" clip-path="url(#a)" fill="#fff" stroke="#fff"/>
<g clip-path="url(#a)">
<g transform="translate(756.1 711.94) rotate(-75.498) scale(.08 -.08)">
<use xlink:href="#an"/>
</g>
</g>
<path d="m782.62 655.54 0.73417 5.0014q0.34857 2.3746 2.7231 2.026l7.6604-1.1245q2.3746-0.34857 2.026-2.7231l-0.73417-5.0014q-0.34857-2.3746-2.7231-2.026l-7.6604 1.1245q-2.3746 0.34856-2.026 2.7231z" clip-path="url(#a)" fill="#fff" stroke="#fff"/>
<g clip-path="url(#a)">
<g transform="translate(786.64 654.95) rotate(81.649) scale(.08 -.08)">
<use xlink:href="#aj"/>
</g>
</g>
<path d="m813.63 846.48v35.285q0 2.4 2.4 2.4h7.7425q2.4 0 2.4-2.4v-35.285q0-2.4-2.4-2.4h-7.7425q-2.4 0-2.4 2.4z" clip-path="url(#a)" fill="#fff" stroke="#fff"/>
<g clip-path="url(#a)">
<g transform="translate(817.69 846.48) rotate(90) scale(.08 -.08)">
<use xlink:href="#l"/>
<use x="60.818359" xlink:href="#e"/>
<use x="122.341797" xlink:href="#g"/>
<use x="163.439453" xlink:href="#k"/>
<use x="260.851562" xlink:href="#h"/>
<use x="288.634766" xlink:href="#i"/>
<use x="352.013672" xlink:href="#f"/>
<use x="413.292969" xlink:href="#j"/>
</g>
</g>
<path d="m1596.5 846.48v35.285q0 2.4 2.4 2.4h7.7425q2.4 0 2.4-2.4v-35.285q0-2.4-2.4-2.4h-7.7425q-2.4 0-2.4 2.4z" clip-path="url(#a)" fill="#fff" stroke="#fff"/>
<g clip-path="url(#a)">
<g transform="translate(1600.6 846.48) rotate(90) scale(.08 -.08)">
<use xlink:href="#l"/>
<use x="60.818359" xlink:href="#e"/>
<use x="122.341797" xlink:href="#g"/>
<use x="163.439453" xlink:href="#k"/>
<use x="260.851562" xlink:href="#h"/>
<use x="288.634766" xlink:href="#i"/>
<use x="352.013672" xlink:href="#f"/>
<use x="413.292969" xlink:href="#j"/>
</g>
</g>
<path d="m721.52 846.48v35.285q0 2.4 2.4 2.4h7.7425q2.4 0 2.4-2.4v-35.285q0-2.4-2.4-2.4h-7.7425q-2.4 0-2.4 2.4z" clip-path="url(#a)" fill="#fff" stroke="#fff"/>
<g clip-path="url(#a)">
<g transform="translate(725.59 846.48) rotate(90) scale(.08 -.08)">
<use xlink:href="#l"/>
<use x="60.818359" xlink:href="#e"/>
<use x="122.341797" xlink:href="#g"/>
<use x="163.439453" xlink:href="#k"/>
<use x="260.851562" xlink:href="#h"/>
<use x="288.634766" xlink:href="#i"/>
<use x="352.013672" xlink:href="#f"/>
<use x="413.292969" xlink:href="#j"/>
</g>
</g>
<path d="m801.67 759.68 1.1924 5.341q0.52293 2.3423 2.8653 1.8194l7.5565-1.687q2.3423-0.52293 1.8194-2.8653l-1.1924-5.341q-0.52293-2.3423-2.8653-1.8194l-7.5565 1.687q-2.3423 0.52293-1.8194 2.8653z" clip-path="url(#a)" fill="#fff" stroke="#fff"/>
<g clip-path="url(#a)">
<g transform="translate(805.63 758.8) rotate(77.415) scale(.08 -.08)">
<use xlink:href="#p"/>
</g>
</g>
<path d="m790.92 764.83 1.1066-4.9567q0.52293-2.3423-1.8194-2.8653l-7.5565-1.687q-2.3423-0.52293-2.8653 1.8194l-1.1066 4.9567q-0.52293 2.3423 1.8194 2.8653l7.5565 1.687q2.3423 0.52293 2.8653-1.8194z" clip-path="url(#a)" fill="#fff" stroke="#fff"/>
<g clip-path="url(#a)">
<g transform="translate(786.96 763.94) rotate(-77.415) scale(.08 -.08)">
<use xlink:href="#al"/>
</g>
</g>
<path d="m767.57 846.48v35.285q0 2.4 2.4 2.4h7.7425q2.4 0 2.4-2.4v-35.285q0-2.4-2.4-2.4h-7.7425q-2.4 0-2.4 2.4z" clip-path="url(#a)" fill="#fff" stroke="#fff"/>
<g clip-path="url(#a)">
<g transform="translate(771.64 846.48) rotate(90) scale(.08 -.08)">
<use xlink:href="#l"/>
<use x="60.818359" xlink:href="#e"/>
<use x="122.341797" xlink:href="#g"/>
<use x="163.439453" xlink:href="#k"/>
<use x="260.851562" xlink:href="#h"/>
<use x="288.634766" xlink:href="#i"/>
<use x="352.013672" xlink:href="#f"/>
<use x="413.292969" xlink:href="#j"/>
</g>
</g>
<defs>
<path id="b" d="m0 8.6603c2.2967 0 4.4997-0.9125 6.1237-2.5365 1.624-1.624 2.5365-3.827 2.5365-6.1237s-0.9125-4.4997-2.5365-6.1237c-1.624-1.624-3.827-2.5365-6.1237-2.5365s-4.4997 0.9125-6.1237 2.5365c-1.624 1.624-2.5365 3.827-2.5365 6.1237s0.9125 4.4997 2.5365 6.1237c1.624 1.624 3.827 2.5365 6.1237 2.5365z"/>
</defs>
<g clip-path="url(#a)">
<use x="83.06652" y="915.693729" fill="#ffffff" stroke="#ffffff" xlink:href="#b"/>
</g>
<g clip-path="url(#a)">
<use x="129.11838" y="915.693729" fill="#ffffff" stroke="#ffffff" xlink:href="#b"/>
</g>
<g clip-path="url(#a)">
<use x="175.17024" y="915.693729" fill="#ffffff" stroke="#ffffff" xlink:href="#b"/>
</g>
<g clip-path="url(#a)">
<use x="221.2221" y="915.693729" fill="#ffffff" stroke="#ffffff" xlink:href="#b"/>
</g>
<g clip-path="url(#a)">
<use x="267.27396" y="915.693729" fill="#ffffff" stroke="#ffffff" xlink:href="#b"/>
</g>
<g clip-path="url(#a)">
<use x="313.32582" y="915.693729" fill="#ffffff" stroke="#ffffff" xlink:href="#b"/>
</g>
<g clip-path="url(#a)">
<use x="359.37768" y="915.693729" fill="#ffffff" stroke="#ffffff" xlink:href="#b"/>
</g>
<g clip-path="url(#a)">
<use x="405.42954" y="915.693729" fill="#ffffff" stroke="#ffffff" xlink:href="#b"/>
</g>
<g clip-path="url(#a)">
<use x="451.4814" y="915.693729" fill="#ffffff" stroke="#ffffff" xlink:href="#b"/>
</g>
<g clip-path="url(#a)">
<use x="497.53326" y="915.693729" fill="#ffffff" stroke="#ffffff" xlink:href="#b"/>
</g>
<g clip-path="url(#a)">
<use x="543.58512" y="915.693729" fill="#ffffff" stroke="#ffffff" xlink:href="#b"/>
</g>
<g clip-path="url(#a)">
<use x="589.63698" y="915.693729" fill="#ffffff" stroke="#ffffff" xlink:href="#b"/>
</g>
<g clip-path="url(#a)">
<use x="635.68884" y="915.693729" fill="#ffffff" stroke="#ffffff" xlink:href="#b"/>
</g>
<g clip-path="url(#a)">
<use x="681.7407" y="915.693729" fill="#ffffff" stroke="#ffffff" xlink:href="#b"/>
</g>
<g clip-path="url(#a)">
<use x="727.79256" y="915.693729" fill="#ffffff" stroke="#ffffff" xlink:href="#b"/>
</g>
<g clip-path="url(#a)">
<use x="773.84442" y="915.693729" fill="#ffffff" stroke="#ffffff" xlink:href="#b"/>
</g>
<g clip-path="url(#a)">
<use x="819.89628" y="915.693729" fill="#ffffff" stroke="#ffffff" xlink:href="#b"/>
</g>
<g clip-path="url(#a)">
<use x="865.94814" y="915.693729" fill="#ffffff" stroke="#ffffff" xlink:href="#b"/>
</g>
<g clip-path="url(#a)">
<use x="912" y="915.693729" fill="#ffffff" stroke="#ffffff" xlink:href="#b"/>
</g>
<g clip-path="url(#a)">
<use x="958.05186" y="915.693729" fill="#ffffff" stroke="#ffffff" xlink:href="#b"/>
</g>
<g clip-path="url(#a)">
<use x="1004.10372" y="915.693729" fill="#ffffff" stroke="#ffffff" xlink:href="#b"/>
</g>
<g clip-path="url(#a)">
<use x="1050.15558" y="915.693729" fill="#ffffff" stroke="#ffffff" xlink:href="#b"/>
</g>
<g clip-path="url(#a)">
<use x="1096.20744" y="915.693729" fill="#ffffff" stroke="#ffffff" xlink:href="#b"/>
</g>
<g clip-path="url(#a)">
<use x="1142.2593" y="915.693729" fill="#ffffff" stroke="#ffffff" xlink:href="#b"/>
</g>
<g clip-path="url(#a)">
<use x="1188.31116" y="915.693729" fill="#ffffff" stroke="#ffffff" xlink:href="#b"/>
</g>
<g clip-path="url(#a)">
<use x="1234.36302" y="915.693729" fill="#ffffff" stroke="#ffffff" xlink:href="#b"/>
</g>
<g clip-path="url(#a)">
<use x="1280.41488" y="915.693729" fill="#ffffff" stroke="#ffffff" xlink:href="#b"/>
</g>
<g clip-path="url(#a)">
<use x="1326.46674" y="915.693729" fill="#ffffff" stroke="#ffffff" xlink:href="#b"/>
</g>
<g clip-path="url(#a)">
<use x="1372.5186" y="915.693729" fill="#ffffff" stroke="#ffffff" xlink:href="#b"/>
</g>
<g clip-path="url(#a)">
<use x="1418.57046" y="915.693729" fill="#ffffff" stroke="#ffffff" xlink:href="#b"/>
</g>
<g clip-path="url(#a)">
<use x="1464.62232" y="915.693729" fill="#ffffff" stroke="#ffffff" xlink:href="#b"/>
</g>
<g clip-path="url(#a)">
<use x="1510.67418" y="915.693729" fill="#ffffff" stroke="#ffffff" xlink:href="#b"/>
</g>
<g clip-path="url(#a)">
<use x="1556.72604" y="915.693729" fill="#ffffff" stroke="#ffffff" xlink:href="#b"/>
</g>
<g clip-path="url(#a)">
<use x="1602.7779" y="915.693729" fill="#ffffff" stroke="#ffffff" xlink:href="#b"/>
</g>
<g clip-path="url(#a)">
<use x="1648.82976" y="915.693729" fill="#ffffff" stroke="#ffffff" xlink:href="#b"/>
</g>
<g clip-path="url(#a)">
<use x="1694.88162" y="915.693729" fill="#ffffff" stroke="#ffffff" xlink:href="#b"/>
</g>
<g clip-path="url(#a)">
<use x="1068.549674" y="44.306271" fill="#ffffff" stroke="#ffffff" xlink:href="#b"/>
</g>
<g clip-path="url(#a)">
<use x="492.928074" y="604.841791" fill="#ffffff" stroke="#ffffff" xlink:href="#b"/>
</g>
<g clip-path="url(#a)">
<use x="267.27396" y="812.554675" fill="#ffffff" stroke="#ffffff" xlink:href="#b"/>
</g>
<g clip-path="url(#a)">
<use x="106.09245" y="709.415622" fill="#ffffff" stroke="#ffffff" xlink:href="#b"/>
</g>
<g clip-path="url(#a)">
<use x="129.11838" y="812.554675" fill="#ffffff" stroke="#ffffff" xlink:href="#b"/>
</g>
<g clip-path="url(#a)">
<use x="175.17024" y="812.554675" fill="#ffffff" stroke="#ffffff" xlink:href="#b"/>
</g>
<g clip-path="url(#a)">
<use x="221.2221" y="812.554675" fill="#ffffff" stroke="#ffffff" xlink:href="#b"/>
</g>
<g clip-path="url(#a)">
<use x="386.795593" y="162.568448" fill="#ffffff" stroke="#ffffff" xlink:href="#b"/>
</g>
<g clip-path="url(#a)">
<use x="359.37768" y="812.554675" fill="#ffffff" stroke="#ffffff" xlink:href="#b"/>
</g>
<g clip-path="url(#a)">
<use x="912" y="812.554675" fill="#ffffff" stroke="#ffffff" xlink:href="#b"/>
</g>
<g clip-path="url(#a)">
<use x="1005.638782" y="498.254312" fill="#ffffff" stroke="#ffffff" xlink:href="#b"/>
</g>
<g clip-path="url(#a)">
<use x="1004.10372" y="812.554675" fill="#ffffff" stroke="#ffffff" xlink:href="#b"/>
</g>
<g clip-path="url(#a)">
<use x="1694.88162" y="812.554675" fill="#ffffff" stroke="#ffffff" xlink:href="#b"/>
</g>
<g clip-path="url(#a)">
<use x="83.06652" y="812.554675" fill="#ffffff" stroke="#ffffff" xlink:href="#b"/>
</g>
<g clip-path="url(#a)">
<use x="313.32582" y="812.554675" fill="#ffffff" stroke="#ffffff" xlink:href="#b"/>
</g>
<g clip-path="url(#a)">
<use x="487.683279" y="277.447142" fill="#ffffff" stroke="#ffffff" xlink:href="#b"/>
</g>
<g clip-path="url(#a)">
<use x="497.53326" y="812.554675" fill="#ffffff" stroke="#ffffff" xlink:href="#b"/>
</g>
<g clip-path="url(#a)">
<use x="865.94814" y="812.554675" fill="#ffffff" stroke="#ffffff" xlink:href="#b"/>
</g>
<g clip-path="url(#a)">
<use x="958.05186" y="812.554675" fill="#ffffff" stroke="#ffffff" xlink:href="#b"/>
</g>
<g clip-path="url(#a)">
<use x="1050.15558" y="812.554675" fill="#ffffff" stroke="#ffffff" xlink:href="#b"/>
</g>
<g clip-path="url(#a)">
<use x="1149.93461" y="604.841791" fill="#ffffff" stroke="#ffffff" xlink:href="#b"/>
</g>
<g clip-path="url(#a)">
<use x="1142.2593" y="812.554675" fill="#ffffff" stroke="#ffffff" xlink:href="#b"/>
</g>
<g clip-path="url(#a)">
<use x="1280.41488" y="812.554675" fill="#ffffff" stroke="#ffffff" xlink:href="#b"/>
</g>
<g clip-path="url(#a)">
<use x="1372.5186" y="709.415622" fill="#ffffff" stroke="#ffffff" xlink:href="#b"/>
</g>
<g clip-path="url(#a)">
<use x="1372.5186" y="812.554675" fill="#ffffff" stroke="#ffffff" xlink:href="#b"/>
</g>
<g clip-path="url(#a)">
<use x="405.42954" y="812.554675" fill="#ffffff" stroke="#ffffff" xlink:href="#b"/>
</g>
<g clip-path="url(#a)">
<use x="451.4814" y="812.554675" fill="#ffffff" stroke="#ffffff" xlink:href="#b"/>
</g>
<g clip-path="url(#a)">
<use x="543.58512" y="812.554675" fill="#ffffff" stroke="#ffffff" xlink:href="#b"/>
</g>
<g clip-path="url(#a)">
<use x="540.387074" y="389.238214" fill="#ffffff" stroke="#ffffff" xlink:href="#b"/>
</g>
<g clip-path="url(#a)">
<use x="589.63698" y="812.554675" fill="#ffffff" stroke="#ffffff" xlink:href="#b"/>
</g>
<g clip-path="url(#a)">
<use x="1096.20744" y="812.554675" fill="#ffffff" stroke="#ffffff" xlink:href="#b"/>
</g>
<g clip-path="url(#a)">
<use x="1211.33709" y="709.415622" fill="#ffffff" stroke="#ffffff" xlink:href="#b"/>
</g>
<g clip-path="url(#a)">
<use x="1234.36302" y="812.554675" fill="#ffffff" stroke="#ffffff" xlink:href="#b"/>
</g>
<g clip-path="url(#a)">
<use x="1326.46674" y="812.554675" fill="#ffffff" stroke="#ffffff" xlink:href="#b"/>
</g>
<g clip-path="url(#a)">
<use x="1418.57046" y="812.554675" fill="#ffffff" stroke="#ffffff" xlink:href="#b"/>
</g>
<g clip-path="url(#a)">
<use x="1464.62232" y="812.554675" fill="#ffffff" stroke="#ffffff" xlink:href="#b"/>
</g>
<g clip-path="url(#a)">
<use x="1633.47914" y="604.841791" fill="#ffffff" stroke="#ffffff" xlink:href="#b"/>
</g>
<g clip-path="url(#a)">
<use x="1533.70011" y="812.554675" fill="#ffffff" stroke="#ffffff" xlink:href="#b"/>
</g>
<g clip-path="url(#a)">
<use x="626.094703" y="498.254312" fill="#ffffff" stroke="#ffffff" xlink:href="#b"/>
</g>
<g clip-path="url(#a)">
<use x="681.7407" y="812.554675" fill="#ffffff" stroke="#ffffff" xlink:href="#b"/>
</g>
<g clip-path="url(#a)">
<use x="1188.31116" y="812.554675" fill="#ffffff" stroke="#ffffff" xlink:href="#b"/>
</g>
<g clip-path="url(#a)">
<use x="1740.93348" y="915.693729" fill="#ffffff" stroke="#ffffff" xlink:href="#b"/>
</g>
<g clip-path="url(#a)">
<use x="1625.80383" y="709.415622" fill="#ffffff" stroke="#ffffff" xlink:href="#b"/>
</g>
<g clip-path="url(#a)">
<use x="1648.82976" y="812.554675" fill="#ffffff" stroke="#ffffff" xlink:href="#b"/>
</g>
<g clip-path="url(#a)">
<use x="635.68884" y="812.554675" fill="#ffffff" stroke="#ffffff" xlink:href="#b"/>
</g>
<g clip-path="url(#a)">
<use x="781.51973" y="604.841791" fill="#ffffff" stroke="#ffffff" xlink:href="#b"/>
</g>
<g clip-path="url(#a)">
<use x="819.89628" y="812.554675" fill="#ffffff" stroke="#ffffff" xlink:href="#b"/>
</g>
<g clip-path="url(#a)">
<use x="1602.7779" y="812.554675" fill="#ffffff" stroke="#ffffff" xlink:href="#b"/>
</g>
<g clip-path="url(#a)">
<use x="727.79256" y="812.554675" fill="#ffffff" stroke="#ffffff" xlink:href="#b"/>
</g>
<g clip-path="url(#a)">
<use x="796.87035" y="709.415622" fill="#ffffff" stroke="#ffffff" xlink:href="#b"/>
</g>
<g clip-path="url(#a)">
<use x="773.84442" y="812.554675" fill="#ffffff" stroke="#ffffff" xlink:href="#b"/>
</g>
<g clip-path="url(#a)">
<defs>
<path id="r" d="m54.891 33.016v-33.016h-8.9844v32.719q0 7.7656-3.0312 11.609-3.0312 3.8594-9.0781 3.8594-7.2812 0-11.484-4.6406-4.2031-4.625-4.2031-12.641v-30.906h-9.0312v75.984h9.0312v-29.797q3.2344 4.9375 7.5938 7.375 4.375 2.4375 10.094 2.4375 9.4219 0 14.25-5.8281 4.8438-5.8281 4.8438-17.156z"/>
</defs>
<g transform="translate(73.767 918.45) scale(.1 -.1)">
<use xlink:href="#l"/>
<use x="61.083984" xlink:href="#r"/>
<use x="124.462891" xlink:href="#e"/>
</g>
</g>
<g clip-path="url(#a)">
<defs>
<path id="x" d="m18.109 8.2031v-29h-9.0312v75.484h9.0312v-8.2969q2.8438 4.875 7.1562 7.2344 4.3281 2.375 10.328 2.375 9.9688 0 16.188-7.9062 6.2344-7.9062 6.2344-20.797t-6.2344-20.812q-6.2188-7.9062-16.188-7.9062-6 0-10.328 2.375-4.3125 2.375-7.1562 7.25zm30.578 19.094q0 9.9062-4.0781 15.547t-11.203 5.6406q-7.1406 0-11.219-5.6406t-4.0781-15.547 4.0781-15.547 11.219-5.6406q7.125 0 11.203 5.6406t4.0781 15.547z"/>
<path id="s" d="m48.781 52.594v-8.4062q-3.8125 2.1094-7.6406 3.1562t-7.7344 1.0469q-8.75 0-13.594-5.5469-4.8281-5.5312-4.8281-15.547t4.8281-15.562q4.8438-5.5312 13.594-5.5312 3.9062 0 7.7344 1.0469t7.6406 3.1562v-8.3125q-3.7656-1.75-7.7969-2.625-4.0156-0.89062-8.5625-0.89062-12.359 0-19.641 7.7656-7.2656 7.7656-7.2656 20.953 0 13.375 7.3438 21.031 7.3594 7.6719 20.156 7.6719 4.1406 0 8.0938-0.85938 3.9531-0.84375 7.6719-2.5469z"/>
</defs>
<g transform="translate(116.67 918.45) scale(.1 -.1)">
<use xlink:href="#x"/>
<use x="63.476562" xlink:href="#g"/>
<use x="104.589844" xlink:href="#h"/>
<use x="132.373047" xlink:href="#s"/>
<use x="187.353516" xlink:href="#e"/>
</g>
</g>
<g clip-path="url(#a)">
<defs>
<path id="z" d="m4.2031 54.688h8.9844l11.234-42.672 11.172 42.672h10.594l11.234-42.672 11.188 42.672h8.9844l-14.312-54.688h-10.594l-11.766 44.828-11.812-44.828h-10.609z"/>
<path id="ag" d="m44.281 53.078v-8.5q-3.7969 1.9531-7.9062 2.9219-4.0938 0.98438-8.5 0.98438-6.6875 0-10.031-2.0469t-3.3438-6.1562q0-3.125 2.3906-4.9062t9.625-3.3906l3.0781-0.6875q9.5625-2.0469 13.594-5.7812t4.0312-10.422q0-7.625-6.0312-12.078-6.0312-4.4375-16.578-4.4375-4.3906 0-9.1562 0.85938t-10.031 2.5625v9.2812q4.9844-2.5938 9.8125-3.8906 4.8281-1.2812 9.5781-1.2812 6.3438 0 9.75 2.1719 3.4219 2.1719 3.4219 6.125 0 3.6562-2.4688 5.6094-2.4531 1.9531-10.812 3.7656l-3.125 0.73438q-8.3438 1.75-12.062 5.3906-3.7031 3.6406-3.7031 9.9844 0 7.7188 5.4688 11.906 5.4688 4.2031 15.531 4.2031 4.9688 0 9.3594-0.73438 4.4062-0.71875 8.1094-2.1875z"/>
</defs>
<g transform="translate(165.41 918.45) scale(.1 -.1)">
<use xlink:href="#z"/>
<use x="81.787109" xlink:href="#f"/>
<use x="143.066406" xlink:href="#ag"/>
</g>
</g>
<g clip-path="url(#a)">
<defs>
<path id="q" d="m18.312 70.219v-15.531h18.5v-6.9844h-18.5v-29.688q0-6.6875 1.8281-8.5938t7.4531-1.9062h9.2188v-7.5156h-9.2188q-10.406 0-14.359 3.875-3.9531 3.8906-3.9531 14.141v29.688h-6.5938v6.9844h6.5938v15.531z"/>
<path id="ak" d="m8.5 21.578v33.109h8.9844v-32.766q0-7.7656 3.0156-11.656 3.0312-3.875 9.0938-3.875 7.2656 0 11.484 4.6406 4.2344 4.6406 4.2344 12.656v31h8.9844v-54.688h-8.9844v8.4062q-3.2656-4.9844-7.5938-7.4062-4.3125-2.4219-10.031-2.4219-9.4219 0-14.312 5.8594-4.875 5.8594-4.875 17.141z"/>
<path id="at" d="m32.172-5.0781q-3.7969-9.7656-7.4219-12.734-3.6094-2.9844-9.6562-2.9844h-7.1875v7.5156h5.2812q3.7031 0 5.75 1.7656 2.0625 1.75 4.5469 8.2969l1.6094 4.0938-22.109 53.812h9.5156l17.094-42.766 17.094 42.766h9.5156z"/>
</defs>
<g transform="translate(201.48 918.45) scale(.1 -.1)">
<use xlink:href="#f"/>
<use x="61.279297" xlink:href="#s"/>
<use x="116.259766" xlink:href="#q"/>
<use x="155.46875" xlink:href="#ak"/>
<use x="218.847656" xlink:href="#f"/>
<use x="280.126953" xlink:href="#j"/>
<use x="307.910156" xlink:href="#j"/>
<use x="335.693359" xlink:href="#at"/>
</g>
</g>
<g clip-path="url(#a)">
<defs>
<path id="t" d="m30.609 48.391q-7.2188 0-11.422-5.6406t-4.2031-15.453 4.1719-15.453q4.1875-5.6406 11.453-5.6406 7.1875 0 11.375 5.6562 4.2031 5.6719 4.2031 15.438 0 9.7188-4.2031 15.406-4.1875 5.6875-11.375 5.6875zm0 7.6094q11.719 0 18.406-7.625 6.7031-7.6094 6.7031-21.078 0-13.422-6.7031-21.078-6.6875-7.6406-18.406-7.6406-11.766 0-18.438 7.6406-6.6562 7.6562-6.6562 21.078 0 13.469 6.6562 21.078 6.6719 7.625 18.438 7.625z"/>
</defs>
<g transform="translate(253.6 918.45) scale(.1 -.1)">
<use xlink:href="#j"/>
<use x="27.783203" xlink:href="#t"/>
<use x="88.964844" xlink:href="#z"/>
<use x="170.751953" xlink:href="#e"/>
<use x="232.275391" xlink:href="#g"/>
</g>
</g>
<g clip-path="url(#a)">
<g transform="translate(301.96 918.45) scale(.1 -.1)">
<use xlink:href="#q"/>
<use x="39.208984" xlink:href="#r"/>
<use x="102.587891" xlink:href="#f"/>
<use x="163.867188" xlink:href="#i"/>
</g>
</g>
<g clip-path="url(#a)">
<g transform="translate(347.1 918.45) scale(.1 -.1)">
<use xlink:href="#z"/>
<use x="81.787109" xlink:href="#r"/>
<use x="145.166016" xlink:href="#f"/>
<use x="206.445312" xlink:href="#q"/>
</g>
</g>
<g clip-path="url(#a)">
<defs>
<path id="ao" d="m9.8125 72.906h9.8594v-72.906h-9.8594z"/>
</defs>
<g transform="translate(403.95 918.45) scale(.1 -.1)">
<use xlink:href="#ao"/>
</g>
</g>
<g clip-path="url(#a)">
<defs>
<path id="u" d="m45.406 46.391v29.594h8.9844v-75.984h-8.9844v8.2031q-2.8281-4.875-7.1562-7.25-4.3125-2.375-10.375-2.375-9.9062 0-16.141 7.9062-6.2188 7.9219-6.2188 20.812t6.2188 20.797q6.2344 7.9062 16.141 7.9062 6.0625 0 10.375-2.375 4.3281-2.3594 7.1562-7.2344zm-30.609-19.094q0-9.9062 4.0781-15.547t11.203-5.6406 11.219 5.6406q4.1094 5.6406 4.1094 15.547t-4.1094 15.547q-4.0938 5.6406-11.219 5.6406t-11.203-5.6406-4.0781-15.547z"/>
</defs>
<g transform="translate(442.07 918.45) scale(.1 -.1)">
<use xlink:href="#r"/>
<use x="63.378906" xlink:href="#f"/>
<use x="124.658203" xlink:href="#u"/>
</g>
</g>
<g clip-path="url(#a)">
<g transform="translate(469.36 918.45) scale(.1 -.1)">
<use xlink:href="#f"/>
<use x="61.279297" xlink:href="#i"/>
<use x="124.658203" xlink:href="#q"/>
<use x="163.867188" xlink:href="#h"/>
<use x="191.650391" xlink:href="#s"/>
<use x="246.630859" xlink:href="#h"/>
<use x="274.414062" xlink:href="#x"/>
<use x="337.890625" xlink:href="#f"/>
<use x="399.169922" xlink:href="#q"/>
<use x="438.378906" xlink:href="#e"/>
<use x="499.902344" xlink:href="#u"/>
</g>
</g>
<g clip-path="url(#a)">
<g transform="translate(534.18 918.45) scale(.1 -.1)">
<use xlink:href="#f"/>
<use x="61.279297" xlink:href="#i"/>
<use x="124.658203" xlink:href="#u"/>
</g>
</g>
<g clip-path="url(#a)">
<g transform="translate(577.61 918.45) scale(.1 -.1)">
<use xlink:href="#ak"/>
<use x="63.378906" xlink:href="#ag"/>
<use x="115.478516" xlink:href="#e"/>
<use x="177.001953" xlink:href="#u"/>
</g>
</g>
<g clip-path="url(#a)">
<g transform="translate(630.67 918.45) scale(.1 -.1)">
<use xlink:href="#q"/>
<use x="39.208984" xlink:href="#t"/>
</g>
</g>
<g clip-path="url(#a)">
<g transform="translate(656.52 918.45) scale(.1 -.1)">
<use xlink:href="#s"/>
<use x="54.980469" xlink:href="#t"/>
<use x="116.162109" xlink:href="#k"/>
<use x="213.574219" xlink:href="#x"/>
<use x="277.050781" xlink:href="#f"/>
<use x="338.330078" xlink:href="#g"/>
<use x="379.412109" xlink:href="#e"/>
<use x="440.935547" xlink:href="#u"/>
</g>
</g>
<g clip-path="url(#a)">
<g transform="translate(722.77 918.45) scale(.1 -.1)">
<use xlink:href="#q"/>
<use x="39.208984" xlink:href="#t"/>
</g>
</g>
<g clip-path="url(#a)">
<g transform="translate(760.52 918.45) scale(.1 -.1)">
<use xlink:href="#t"/>
<use x="61.181641" xlink:href="#q"/>
<use x="100.390625" xlink:href="#r"/>
<use x="163.769531" xlink:href="#e"/>
<use x="225.292969" xlink:href="#g"/>
</g>
</g>
<g clip-path="url(#a)">
<g transform="translate(803.84 918.45) scale(.1 -.1)">
<use xlink:href="#x"/>
<use x="63.476562" xlink:href="#j"/>
<use x="91.259766" xlink:href="#f"/>
<use x="152.539062" xlink:href="#s"/>
<use x="207.519531" xlink:href="#e"/>
<use x="269.042969" xlink:href="#ag"/>
</g>
</g>
<g clip-path="url(#a)">
<defs>
<path id="as" d="m11.719 12.406h10.297v-8.4062l-8-15.625h-6.2969l4 15.625z"/>
</defs>
<g transform="translate(864.36 918.45) scale(.1 -.1)">
<use xlink:href="#as"/>
</g>
</g>
<g clip-path="url(#a)">
<g transform="translate(901.66 918.45) scale(.1 -.1)">
<use xlink:href="#x"/>
<use x="63.476562" xlink:href="#j"/>
<use x="91.259766" xlink:href="#ak"/>
<use x="154.638672" xlink:href="#ag"/>
</g>
</g>
<g clip-path="url(#a)">
<g transform="translate(951.81 918.45) scale(.1 -.1)">
<use xlink:href="#r"/>
<use x="63.378906" xlink:href="#e"/>
</g>
</g>
<g clip-path="url(#a)">
<g transform="translate(984.93 918.45) scale(.1 -.1)">
<use xlink:href="#ag"/>
<use x="52.099609" xlink:href="#r"/>
<use x="115.478516" xlink:href="#t"/>
<use x="176.660156" xlink:href="#z"/>
<use x="258.447266" xlink:href="#e"/>
<use x="319.970703" xlink:href="#u"/>
</g>
</g>
<g clip-path="url(#a)">
<g transform="translate(1042.2 918.45) scale(.1 -.1)">
<use xlink:href="#k"/>
<use x="97.412109" xlink:href="#e"/>
</g>
</g>
<g clip-path="url(#a)">
<g transform="translate(1088 918.45) scale(.1 -.1)">
<use xlink:href="#q"/>
<use x="39.208984" xlink:href="#r"/>
<use x="102.587891" xlink:href="#e"/>
</g>
</g>
<g clip-path="url(#a)">
<defs>
<path id="aq" d="m9.0781 75.984h9.0312v-44.875l26.812 23.578h11.469l-29-25.578 30.234-29.109h-11.719l-27.797 26.703v-26.703h-9.0312z"/>
</defs>
<g transform="translate(1130.2 918.45) scale(.1 -.1)">
<use xlink:href="#z"/>
<use x="81.787109" xlink:href="#t"/>
<use x="142.96875" xlink:href="#g"/>
<use x="184.082031" xlink:href="#aq"/>
</g>
</g>
<g clip-path="url(#a)">
<g transform="translate(1182.1 918.45) scale(.1 -.1)">
<use xlink:href="#r"/>
<use x="63.378906" xlink:href="#e"/>
</g>
</g>
<g clip-path="url(#a)">
<g transform="translate(1226.6 918.45) scale(.1 -.1)">
<use xlink:href="#u"/>
<use x="63.476562" xlink:href="#h"/>
<use x="91.259766" xlink:href="#u"/>
</g>
</g>
<g clip-path="url(#a)">
<g transform="translate(1266.9 918.45) scale(.1 -.1)">
<use xlink:href="#z"/>
<use x="81.787109" xlink:href="#r"/>
<use x="145.166016" xlink:href="#e"/>
<use x="206.689453" xlink:href="#i"/>
</g>
</g>
<g clip-path="url(#a)">
<g transform="translate(1325 918.45) scale(.1 -.1)">
<use xlink:href="#ao"/>
</g>
</g>
<g clip-path="url(#a)">
<g transform="translate(1358.8 918.45) scale(.1 -.1)">
<use xlink:href="#s"/>
<use x="54.980469" xlink:href="#f"/>
<use x="116.259766" xlink:href="#k"/>
<use x="213.671875" xlink:href="#e"/>
</g>
</g>
<g clip-path="url(#a)">
<g transform="translate(1414 918.45) scale(.1 -.1)">
<use xlink:href="#h"/>
<use x="27.783203" xlink:href="#i"/>
</g>
</g>
<g clip-path="url(#a)">
<g transform="translate(1459.6 918.45) scale(.1 -.1)">
<use xlink:href="#q"/>
<use x="39.208984" xlink:href="#t"/>
</g>
</g>
<g clip-path="url(#a)">
<g transform="translate(1500.5 918.45) scale(.1 -.1)">
<use xlink:href="#x"/>
<use x="63.476562" xlink:href="#h"/>
<use x="91.259766" xlink:href="#s"/>
<use x="146.240234" xlink:href="#aq"/>
</g>
</g>
<g clip-path="url(#a)">
<g transform="translate(1550.4 918.45) scale(.1 -.1)">
<use xlink:href="#ak"/>
<use x="63.378906" xlink:href="#x"/>
</g>
</g>
<g clip-path="url(#a)">
<g transform="translate(1594.6 918.45) scale(.1 -.1)">
<use xlink:href="#q"/>
<use x="39.208984" xlink:href="#r"/>
<use x="102.587891" xlink:href="#e"/>
</g>
</g>
<g clip-path="url(#a)">
<g transform="translate(1641 918.45) scale(.1 -.1)">
<use xlink:href="#s"/>
<use x="54.980469" xlink:href="#f"/>
<use x="116.259766" xlink:href="#g"/>
</g>
</g>
<g clip-path="url(#a)">
<defs>
<path id="d" d="m10.688 12.406h10.312v-12.406h-10.312z"/>
</defs>
<g transform="translate(1693.3 918.45) scale(.1 -.1)">
<use xlink:href="#d"/>
</g>
</g>
<g clip-path="url(#a)">
<defs>
<path id="c" d="m12.406 8.2969h16.109v55.625l-17.531-3.5156v8.9844l17.438 3.5156h9.8594v-64.609h16.109v-8.2969h-41.984z"/>
</defs>
<g transform="translate(1060.6 47.066) scale(.1 -.1)">
<use xlink:href="#c"/>
<use x="63.623047" xlink:href="#d"/>
<use x="95.410156" xlink:href="#c"/>
</g>
</g>
<g clip-path="url(#a)">
<defs>
<path id="o" d="m19.188 8.2969h34.422v-8.2969h-46.281v8.2969q5.6094 5.8125 15.297 15.594 9.7031 9.7969 12.188 12.641 4.7344 5.3125 6.6094 9 1.8906 3.6875 1.8906 7.25 0 5.8125-4.0781 9.4688-4.0781 3.6719-10.625 3.6719-4.6406 0-9.7969-1.6094-5.1406-1.6094-11-4.8906v9.9688q5.9531 2.3906 11.125 3.6094 5.1875 1.2188 9.4844 1.2188 11.328 0 18.062-5.6719 6.7344-5.6562 6.7344-15.125 0-4.5-1.6875-8.5312-1.6719-4.0156-6.125-9.4844-1.2188-1.4219-7.7656-8.1875-6.5312-6.7656-18.453-18.922z"/>
</defs>
<g transform="translate(484.98 607.6) scale(.1 -.1)">
<use xlink:href="#c"/>
<use x="63.623047" xlink:href="#d"/>
<use x="95.410156" xlink:href="#o"/>
</g>
</g>
<g clip-path="url(#a)">
<defs>
<path id="n" d="m40.578 39.312q7.0781-1.5156 11.047-6.3125 3.9844-4.7812 3.9844-11.812 0-10.781-7.4219-16.703-7.4219-5.9062-21.094-5.9062-4.5781 0-9.4375 0.90625t-10.031 2.7188v9.5156q4.0938-2.3906 8.9688-3.6094 4.8906-1.2188 10.219-1.2188 9.2656 0 14.125 3.6562t4.8594 10.641q0 6.4531-4.5156 10.078-4.5156 3.6406-12.562 3.6406h-8.5v8.1094h8.8906q7.2656 0 11.125 2.9062t3.8594 8.375q0 5.6094-3.9844 8.6094-3.9688 3.0156-11.391 3.0156-4.0625 0-8.7031-0.89062-4.6406-0.875-10.203-2.7188v8.7812q5.625 1.5625 10.531 2.3438t9.25 0.78125q11.234 0 17.766-5.1094 6.5469-5.0938 6.5469-13.781 0-6.0625-3.4688-10.234t-9.8594-5.7812z"/>
</defs>
<g transform="translate(259.32 815.31) scale(.1 -.1)">
<use xlink:href="#c"/>
<use x="63.623047" xlink:href="#d"/>
<use x="95.410156" xlink:href="#n"/>
</g>
</g>
<g clip-path="url(#a)">
<defs>
<path id="m" d="m37.797 64.312-24.906-38.922h24.906zm-2.5938 8.5938h12.406v-47.516h10.406v-8.2031h-10.406v-17.188h-9.8125v17.188h-32.906v9.5156z"/>
</defs>
<g transform="translate(98.141 712.17) scale(.1 -.1)">
<use xlink:href="#c"/>
<use x="63.623047" xlink:href="#d"/>
<use x="95.410156" xlink:href="#m"/>
</g>
</g>
<g clip-path="url(#a)">
<defs>
<path id="w" d="m10.797 72.906h38.719v-8.3125h-29.688v-17.859q2.1406 0.73438 4.2812 1.0938 2.1562 0.35938 4.3125 0.35938 12.203 0 19.328-6.6875 7.1406-6.6875 7.1406-18.109 0-11.766-7.3281-18.297-7.3281-6.5156-20.656-6.5156-4.5938 0-9.3594 0.78125-4.75 0.78125-9.8281 2.3438v9.9219q4.3906-2.3906 9.0781-3.5625t9.9062-1.1719q8.4531 0 13.375 4.4375 4.9375 4.4375 4.9375 12.062 0 7.6094-4.9375 12.047-4.9219 4.4531-13.375 4.4531-3.9531 0-7.8906-0.875-3.9219-0.875-8.0156-2.7344z"/>
</defs>
<g transform="translate(121.17 815.31) scale(.1 -.1)">
<use xlink:href="#c"/>
<use x="63.623047" xlink:href="#d"/>
<use x="95.410156" xlink:href="#w"/>
</g>
</g>
<g clip-path="url(#a)">
<defs>
<path id="ae" d="m33.016 40.375q-6.6406 0-10.531-4.5469-3.875-4.5312-3.875-12.438 0-7.8594 3.875-12.438 3.8906-4.5625 10.531-4.5625t10.516 4.5625q3.875 4.5781 3.875 12.438 0 7.9062-3.875 12.438-3.875 4.5469-10.516 4.5469zm19.578 30.922v-8.9844q-3.7188 1.75-7.5 2.6719-3.7812 0.9375-7.5 0.9375-9.7656 0-14.922-6.5938-5.1406-6.5938-5.875-19.922 2.875 4.25 7.2188 6.5156 4.3594 2.2656 9.5781 2.2656 10.984 0 17.359-6.6719 6.375-6.6562 6.375-18.125 0-11.234-6.6406-18.031-6.6406-6.7812-17.672-6.7812-12.656 0-19.344 9.6875-6.6875 9.7031-6.6875 28.109 0 17.281 8.2031 27.562t22.016 10.281q3.7188 0 7.5-0.73438t7.8906-2.1875z"/>
</defs>
<g transform="translate(167.22 815.31) scale(.1 -.1)">
<use xlink:href="#c"/>
<use x="63.623047" xlink:href="#d"/>
<use x="95.410156" xlink:href="#ae"/>
</g>
</g>
<g clip-path="url(#a)">
<defs>
<path id="ad" d="m8.2031 72.906h46.875v-4.2031l-26.469-68.703h-10.297l24.906 64.594h-35.016z"/>
</defs>
<g transform="translate(213.27 815.31) scale(.1 -.1)">
<use xlink:href="#c"/>
<use x="63.623047" xlink:href="#d"/>
<use x="95.410156" xlink:href="#ad"/>
</g>
</g>
<g clip-path="url(#a)">
<defs>
<path id="ac" d="m31.781 34.625q-7.0312 0-11.062-3.7656-4.0156-3.7656-4.0156-10.344 0-6.5938 4.0156-10.359 4.0312-3.7656 11.062-3.7656t11.078 3.7812q4.0625 3.7969 4.0625 10.344 0 6.5781-4.0312 10.344-4.0156 3.7656-11.109 3.7656zm-9.8594 4.1875q-6.3438 1.5625-9.8906 5.9062-3.5312 4.3594-3.5312 10.609 0 8.7344 6.2188 13.812 6.2344 5.0781 17.062 5.0781 10.891 0 17.094-5.0781t6.2031-13.812q0-6.25-3.5469-10.609-3.5312-4.3438-9.8281-5.9062 7.125-1.6562 11.094-6.5 3.9844-4.8281 3.9844-11.797 0-10.609-6.4688-16.281-6.4688-5.6562-18.531-5.6562-12.047 0-18.531 5.6562-6.4688 5.6719-6.4688 16.281 0 6.9688 4 11.797 4.0156 4.8438 11.141 6.5zm-3.6094 15.578q0-5.6562 3.5312-8.8281 3.5469-3.1719 9.9375-3.1719 6.3594 0 9.9375 3.1719 3.5938 3.1719 3.5938 8.8281 0 5.6719-3.5938 8.8438-3.5781 3.1719-9.9375 3.1719-6.3906 0-9.9375-3.1719-3.5312-3.1719-3.5312-8.8438z"/>
</defs>
<g transform="translate(378.84 165.33) scale(.1 -.1)">
<use xlink:href="#c"/>
<use x="63.623047" xlink:href="#d"/>
<use x="95.410156" xlink:href="#ac"/>
</g>
</g>
<g clip-path="url(#a)">
<defs>
<path id="ab" d="m10.984 1.5156v8.9844q3.7188-1.7656 7.5156-2.6875 3.8125-0.92188 7.4844-0.92188 9.7656 0 14.906 6.5625 5.1562 6.5625 5.8906 19.953-2.8281-4.2031-7.1875-6.4531-4.3438-2.25-9.6094-2.25-10.938 0-17.312 6.6094-6.375 6.625-6.375 18.109 0 11.219 6.6406 18 6.6406 6.7969 17.672 6.7969 12.656 0 19.312-9.7031 6.6719-9.6875 6.6719-28.141 0-17.234-8.1875-27.516-8.1719-10.281-21.984-10.281-3.7188 0-7.5312 0.73438-3.7969 0.73438-7.9062 2.2031zm19.625 30.906q6.6406 0 10.516 4.5312 3.8906 4.5469 3.8906 12.469 0 7.8594-3.8906 12.422-3.875 4.5625-10.516 4.5625t-10.516-4.5625-3.875-12.422q0-7.9219 3.875-12.469 3.875-4.5312 10.516-4.5312z"/>
</defs>
<g transform="translate(351.43 815.31) scale(.1 -.1)">
<use xlink:href="#c"/>
<use x="63.623047" xlink:href="#d"/>
<use x="95.410156" xlink:href="#ab"/>
</g>
</g>
<g clip-path="url(#a)">
<defs>
<path id="af" d="m31.781 66.406q-7.6094 0-11.453-7.5-3.8281-7.4844-3.8281-22.531 0-14.984 3.8281-22.484 3.8438-7.5 11.453-7.5 7.6719 0 11.5 7.5 3.8438 7.5 3.8438 22.484 0 15.047-3.8438 22.531-3.8281 7.5-11.5 7.5zm0 7.8125q12.266 0 18.734-9.7031 6.4688-9.6875 6.4688-28.141 0-18.406-6.4688-28.109-6.4688-9.6875-18.734-9.6875-12.25 0-18.719 9.6875-6.4688 9.7031-6.4688 28.109 0 18.453 6.4688 28.141 6.4688 9.7031 18.719 9.7031z"/>
</defs>
<g transform="translate(900.87 815.31) scale(.1 -.1)">
<use xlink:href="#c"/>
<use x="63.623047" xlink:href="#d"/>
<use x="95.410156" xlink:href="#c"/>
<use x="159.033203" xlink:href="#af"/>
</g>
</g>
<g clip-path="url(#a)">
<g transform="translate(994.51 501.01) scale(.1 -.1)">
<use xlink:href="#c"/>
<use x="63.623047" xlink:href="#d"/>
<use x="95.410156" xlink:href="#c"/>
<use x="159.033203" xlink:href="#c"/>
</g>
</g>
<g clip-path="url(#a)">
<g transform="translate(992.97 815.31) scale(.1 -.1)">
<use xlink:href="#c"/>
<use x="63.623047" xlink:href="#d"/>
<use x="95.410156" xlink:href="#c"/>
<use x="159.033203" xlink:href="#o"/>
</g>
</g>
<g clip-path="url(#a)">
<g transform="translate(1683.7 815.31) scale(.1 -.1)">
<use xlink:href="#c"/>
<use x="63.623047" xlink:href="#d"/>
<use x="95.410156" xlink:href="#c"/>
<use x="159.033203" xlink:href="#n"/>
</g>
</g>
<g clip-path="url(#a)">
<g transform="translate(71.934 815.31) scale(.1 -.1)">
<use xlink:href="#c"/>
<use x="63.623047" xlink:href="#d"/>
<use x="95.410156" xlink:href="#c"/>
<use x="159.033203" xlink:href="#m"/>
</g>
</g>
<g clip-path="url(#a)">
<g transform="translate(302.19 815.31) scale(.1 -.1)">
<use xlink:href="#c"/>
<use x="63.623047" xlink:href="#d"/>
<use x="95.410156" xlink:href="#c"/>
<use x="159.033203" xlink:href="#w"/>
</g>
</g>
<g clip-path="url(#a)">
<g transform="translate(476.55 280.21) scale(.1 -.1)">
<use xlink:href="#c"/>
<use x="63.623047" xlink:href="#d"/>
<use x="95.410156" xlink:href="#c"/>
<use x="159.033203" xlink:href="#ae"/>
</g>
</g>
<g clip-path="url(#a)">
<g transform="translate(486.4 815.31) scale(.1 -.1)">
<use xlink:href="#c"/>
<use x="63.623047" xlink:href="#d"/>
<use x="95.410156" xlink:href="#c"/>
<use x="159.033203" xlink:href="#ad"/>
</g>
</g>
<g clip-path="url(#a)">
<g transform="translate(854.82 815.31) scale(.1 -.1)">
<use xlink:href="#c"/>
<use x="63.623047" xlink:href="#d"/>
<use x="95.410156" xlink:href="#c"/>
<use x="159.033203" xlink:href="#ac"/>
</g>
</g>
<g clip-path="url(#a)">
<g transform="translate(946.92 815.31) scale(.1 -.1)">
<use xlink:href="#c"/>
<use x="63.623047" xlink:href="#d"/>
<use x="95.410156" xlink:href="#c"/>
<use x="159.033203" xlink:href="#ab"/>
</g>
</g>
<g clip-path="url(#a)">
<g transform="translate(1039 815.31) scale(.1 -.1)">
<use xlink:href="#c"/>
<use x="63.623047" xlink:href="#d"/>
<use x="95.410156" xlink:href="#o"/>
<use x="159.033203" xlink:href="#af"/>
</g>
</g>
<g clip-path="url(#a)">
<g transform="translate(1138.8 607.6) scale(.1 -.1)">
<use xlink:href="#c"/>
<use x="63.623047" xlink:href="#d"/>
<use x="95.410156" xlink:href="#o"/>
<use x="159.033203" xlink:href="#c"/>
</g>
</g>
<g clip-path="url(#a)">
<g transform="translate(1131.1 815.31) scale(.1 -.1)">
<use xlink:href="#c"/>
<use x="63.623047" xlink:href="#d"/>
<use x="95.410156" xlink:href="#o"/>
<use x="159.033203" xlink:href="#o"/>
</g>
</g>
<g clip-path="url(#a)">
<g transform="translate(1269.3 815.31) scale(.1 -.1)">
<use xlink:href="#c"/>
<use x="63.623047" xlink:href="#d"/>
<use x="95.410156" xlink:href="#o"/>
<use x="159.033203" xlink:href="#n"/>
</g>
</g>
<g clip-path="url(#a)">
<g transform="translate(1361.4 712.17) scale(.1 -.1)">
<use xlink:href="#c"/>
<use x="63.623047" xlink:href="#d"/>
<use x="95.410156" xlink:href="#o"/>
<use x="159.033203" xlink:href="#m"/>
</g>
</g>
<g clip-path="url(#a)">
<g transform="translate(1361.4 815.31) scale(.1 -.1)">
<use xlink:href="#c"/>
<use x="63.623047" xlink:href="#d"/>
<use x="95.410156" xlink:href="#o"/>
<use x="159.033203" xlink:href="#w"/>
</g>
</g>
<g clip-path="url(#a)">
<g transform="translate(394.3 815.31) scale(.1 -.1)">
<use xlink:href="#c"/>
<use x="63.623047" xlink:href="#d"/>
<use x="95.410156" xlink:href="#o"/>
<use x="159.033203" xlink:href="#ae"/>
</g>
</g>
<g clip-path="url(#a)">
<g transform="translate(440.35 815.31) scale(.1 -.1)">
<use xlink:href="#c"/>
<use x="63.623047" xlink:href="#d"/>
<use x="95.410156" xlink:href="#o"/>
<use x="159.033203" xlink:href="#ad"/>
</g>
</g>
<g clip-path="url(#a)">
<g transform="translate(532.45 815.31) scale(.1 -.1)">
<use xlink:href="#c"/>
<use x="63.623047" xlink:href="#d"/>
<use x="95.410156" xlink:href="#o"/>
<use x="159.033203" xlink:href="#ac"/>
</g>
</g>
<g clip-path="url(#a)">
<g transform="translate(529.25 392) scale(.1 -.1)">
<use xlink:href="#c"/>
<use x="63.623047" xlink:href="#d"/>
<use x="95.410156" xlink:href="#o"/>
<use x="159.033203" xlink:href="#ab"/>
</g>
</g>
<g clip-path="url(#a)">
<g transform="translate(578.5 815.31) scale(.1 -.1)">
<use xlink:href="#c"/>
<use x="63.623047" xlink:href="#d"/>
<use x="95.410156" xlink:href="#n"/>
<use x="159.033203" xlink:href="#af"/>
</g>
</g>
<g clip-path="url(#a)">
<g transform="translate(1085.1 815.31) scale(.1 -.1)">
<use xlink:href="#c"/>
<use x="63.623047" xlink:href="#d"/>
<use x="95.410156" xlink:href="#n"/>
<use x="159.033203" xlink:href="#c"/>
</g>
</g>
<g clip-path="url(#a)">
<g transform="translate(1200.2 712.17) scale(.1 -.1)">
<use xlink:href="#c"/>
<use x="63.623047" xlink:href="#d"/>
<use x="95.410156" xlink:href="#n"/>
<use x="159.033203" xlink:href="#o"/>
</g>
</g>
<g clip-path="url(#a)">
<g transform="translate(1223.2 815.31) scale(.1 -.1)">
<use xlink:href="#c"/>
<use x="63.623047" xlink:href="#d"/>
<use x="95.410156" xlink:href="#n"/>
<use x="159.033203" xlink:href="#n"/>
</g>
</g>
<g clip-path="url(#a)">
<g transform="translate(1315.3 815.31) scale(.1 -.1)">
<use xlink:href="#c"/>
<use x="63.623047" xlink:href="#d"/>
<use x="95.410156" xlink:href="#n"/>
<use x="159.033203" xlink:href="#m"/>
</g>
</g>
<g clip-path="url(#a)">
<g transform="translate(1407.4 815.31) scale(.1 -.1)">
<use xlink:href="#c"/>
<use x="63.623047" xlink:href="#d"/>
<use x="95.410156" xlink:href="#n"/>
<use x="159.033203" xlink:href="#w"/>
</g>
</g>
<g clip-path="url(#a)">
<g transform="translate(1453.5 815.31) scale(.1 -.1)">
<use xlink:href="#c"/>
<use x="63.623047" xlink:href="#d"/>
<use x="95.410156" xlink:href="#n"/>
<use x="159.033203" xlink:href="#ae"/>
</g>
</g>
<g clip-path="url(#a)">
<g transform="translate(1622.3 607.6) scale(.1 -.1)">
<use xlink:href="#c"/>
<use x="63.623047" xlink:href="#d"/>
<use x="95.410156" xlink:href="#n"/>
<use x="159.033203" xlink:href="#ad"/>
</g>
</g>
<g clip-path="url(#a)">
<g transform="translate(1522.6 815.31) scale(.1 -.1)">
<use xlink:href="#c"/>
<use x="63.623047" xlink:href="#d"/>
<use x="95.410156" xlink:href="#n"/>
<use x="159.033203" xlink:href="#ac"/>
</g>
</g>
<g clip-path="url(#a)">
<g transform="translate(614.96 501.01) scale(.1 -.1)">
<use xlink:href="#c"/>
<use x="63.623047" xlink:href="#d"/>
<use x="95.410156" xlink:href="#n"/>
<use x="159.033203" xlink:href="#ab"/>
</g>
</g>
<g clip-path="url(#a)">
<g transform="translate(670.61 815.31) scale(.1 -.1)">
<use xlink:href="#c"/>
<use x="63.623047" xlink:href="#d"/>
<use x="95.410156" xlink:href="#m"/>
<use x="159.033203" xlink:href="#af"/>
</g>
</g>
<g clip-path="url(#a)">
<g transform="translate(1177.2 815.31) scale(.1 -.1)">
<use xlink:href="#c"/>
<use x="63.623047" xlink:href="#d"/>
<use x="95.410156" xlink:href="#m"/>
<use x="159.033203" xlink:href="#c"/>
</g>
</g>
<g clip-path="url(#a)">
<g transform="translate(1729.8 918.45) scale(.1 -.1)">
<use xlink:href="#c"/>
<use x="63.623047" xlink:href="#d"/>
<use x="95.410156" xlink:href="#m"/>
<use x="159.033203" xlink:href="#o"/>
</g>
</g>
<g clip-path="url(#a)">
<g transform="translate(1614.7 712.17) scale(.1 -.1)">
<use xlink:href="#c"/>
<use x="63.623047" xlink:href="#d"/>
<use x="95.410156" xlink:href="#m"/>
<use x="159.033203" xlink:href="#n"/>
</g>
</g>
<g clip-path="url(#a)">
<g transform="translate(1637.7 815.31) scale(.1 -.1)">
<use xlink:href="#c"/>
<use x="63.623047" xlink:href="#d"/>
<use x="95.410156" xlink:href="#m"/>
<use x="159.033203" xlink:href="#m"/>
</g>
</g>
<g clip-path="url(#a)">
<g transform="translate(624.56 815.31) scale(.1 -.1)">
<use xlink:href="#c"/>
<use x="63.623047" xlink:href="#d"/>
<use x="95.410156" xlink:href="#m"/>
<use x="159.033203" xlink:href="#w"/>
</g>
</g>
<g clip-path="url(#a)">
<g transform="translate(770.39 607.6) scale(.1 -.1)">
<use xlink:href="#c"/>
<use x="63.623047" xlink:href="#d"/>
<use x="95.410156" xlink:href="#m"/>
<use x="159.033203" xlink:href="#ae"/>
</g>
</g>
<g clip-path="url(#a)">
<g transform="translate(808.76 815.31) scale(.1 -.1)">
<use xlink:href="#c"/>
<use x="63.623047" xlink:href="#d"/>
<use x="95.410156" xlink:href="#m"/>
<use x="159.033203" xlink:href="#ad"/>
</g>
</g>
<g clip-path="url(#a)">
<g transform="translate(1591.6 815.31) scale(.1 -.1)">
<use xlink:href="#c"/>
<use x="63.623047" xlink:href="#d"/>
<use x="95.410156" xlink:href="#m"/>
<use x="159.033203" xlink:href="#ac"/>
</g>
</g>
<g clip-path="url(#a)">
<g transform="translate(716.66 815.31) scale(.1 -.1)">
<use xlink:href="#c"/>
<use x="63.623047" xlink:href="#d"/>
<use x="95.410156" xlink:href="#m"/>
<use x="159.033203" xlink:href="#ab"/>
</g>
</g>
<g clip-path="url(#a)">
<g transform="translate(785.74 712.17) scale(.1 -.1)">
<use xlink:href="#c"/>
<use x="63.623047" xlink:href="#d"/>
<use x="95.410156" xlink:href="#w"/>
<use x="159.033203" xlink:href="#af"/>
</g>
</g>
<g clip-path="url(#a)">
<g transform="translate(762.71 815.31) scale(.1 -.1)">
<use xlink:href="#c"/>
<use x="63.623047" xlink:href="#d"/>
<use x="95.410156" xlink:href="#w"/>
<use x="159.033203" xlink:href="#c"/>
</g>
</g>
<defs>
<clipPath id="a">
<rect width="1824" height="960"/>
</clipPath>
</defs>
</svg>
